<?xml version="1.0" encoding="UTF-8" standalone="no"?>
<!DOCTYPE svg PUBLIC "-//W3C//DTD SVG 1.1//EN" "http://www.w3.org/Graphics/SVG/1.1/DTD/svg11.dtd">
<svg width="100%" height="100%" viewBox="0 0 90 90" version="1.1" xmlns="http://www.w3.org/2000/svg" xmlns:xlink="http://www.w3.org/1999/xlink" xml:space="preserve" xmlns:serif="http://www.serif.com/" style="fill-rule:evenodd;clip-rule:evenodd;stroke-linejoin:round;stroke-miterlimit:2;">
    <g transform="matrix(1,0,0,1,-707.707,-2296.89)">
        <g id="bench-left">
            <g>
                <g transform="matrix(1,0,0,1,724.853,2386.58)">
                    <rect x="-8.175" y="-0.6" width="8.993" height="0.6" style="fill:rgb(142,142,142);fill-rule:nonzero;"/>
                </g>
                <g transform="matrix(1,0,0,1,784.452,2375.41)">
                    <path d="M0,-36.829L-0.782,-40.76L-3.127,-44.268L-6.638,-46.613L-10.568,-47.395L-51.194,-47.395L-51.294,-47.377L-55.049,-46.681L-58.56,-44.529L-61.068,-41.262L-62.181,-37.503L-67.233,10.566L-62.972,10.566L-58.007,-36.673L-57.228,-39.306L-55.677,-41.327L-53.505,-42.658L-50.805,-43.158L-10.984,-43.158L-8.291,-42.622L-6.183,-41.214L-4.773,-39.106L-4.237,-36.412L-4.237,10.566L0,10.566L0,-36.829Z" style="fill:rgb(142,142,142);fill-rule:nonzero;"/>
                </g>
                <g transform="matrix(1,0,0,1,784.453,2386.58)">
                    <rect x="-8.317" y="-0.6" width="8.997" height="0.6" style="fill:rgb(142,142,142);fill-rule:nonzero;"/>
                </g>
                <g transform="matrix(1,0,0,1,751.254,2339.97)">
                    <path d="M0,6.4L-2.238,5.818L-4.304,4.781L-6.105,3.334L-7.568,1.542L-8.915,-3.206L-10.324,-7.715L-17.241,-7.715L-17.236,-7.691L-16.481,-3.246L-15.866,1.22L-14.289,4.906L-11.942,8.157L-8.939,10.815L-5.429,12.75L-1.579,13.868L2.425,14.115L28.961,7.94L28.961,2.691L0,6.4Z" style="fill:rgb(142,142,142);fill-rule:nonzero;"/>
                </g>
                <g transform="matrix(1,0,0,1,787.35,2346.92)">
                    <path d="M0,-5.178L-2.898,-4.806L-2.898,0L0.779,-0.856L2.193,-1.763L2.549,-3.406L1.643,-4.82L0,-5.178Z" style="fill:rgb(142,142,142);fill-rule:nonzero;"/>
                </g>
                <g transform="matrix(1,0,0,1,739.489,2312.57)">
                    <path d="M0,15.447L-0.217,14.811L-1.935,10.184L-3.773,5.604L-5.732,1.073L-6.81,0.078L-8.273,-0.019L-9.474,0.824L-9.878,2.234L-8.571,6.549L-7.4,10.902L-6.366,15.29L-6.331,15.466L-6.231,15.447L0,15.447Z" style="fill:rgb(142,142,142);fill-rule:nonzero;"/>
                </g>
            </g>
        </g>
    </g>
</svg>
