<?xml version="1.0" encoding="UTF-8" standalone="no"?>
<!DOCTYPE svg PUBLIC "-//W3C//DTD SVG 1.1//EN" "http://www.w3.org/Graphics/SVG/1.1/DTD/svg11.dtd">
<svg width="100%" height="100%" viewBox="0 0 90 90" version="1.1" xmlns="http://www.w3.org/2000/svg" xmlns:xlink="http://www.w3.org/1999/xlink" xml:space="preserve" xmlns:serif="http://www.serif.com/" style="fill-rule:evenodd;clip-rule:evenodd;stroke-linejoin:round;stroke-miterlimit:2;">
    <g transform="matrix(1,0,0,1,-1220.41,-2296.54)">
        <g id="bench-right">
            <g>
                <g transform="matrix(1,0,0,1,1241.74,2386.58)">
                    <rect x="-8.175" y="-0.6" width="8.993" height="0.6" style="fill:rgb(142,142,142);fill-rule:nonzero;"/>
                </g>
                <g transform="matrix(1,0,0,1,1299.34,2328.01)">
                    <path d="M-2.129,57.961L2.133,57.961L-2.922,9.893L-4.032,6.134L-6.542,2.866L-10.053,0.715L-13.807,0.019L-13.906,0L-54.535,0L-58.465,0.782L-61.973,3.127L-64.32,6.636L-65.099,10.566L-65.099,57.961L-60.863,57.961L-60.863,10.984L-60.327,8.289L-58.92,6.182L-56.812,4.773L-54.115,4.237L-14.297,4.237L-11.597,4.738L-9.426,6.069L-7.875,8.09L-7.092,10.723L-2.129,57.961Z" style="fill:rgb(142,142,142);fill-rule:nonzero;"/>
                </g>
                <g transform="matrix(1,0,0,1,1301.48,2386.58)">
                    <rect x="-8.453" y="-0.6" width="8.992" height="0.6" style="fill:rgb(142,142,142);fill-rule:nonzero;"/>
                </g>
                <g transform="matrix(1,0,0,1,1231.34,2346.92)">
                    <path d="M0,-5.178L-1.639,-4.82L-2.548,-3.406L-2.189,-1.763L-0.775,-0.856L2.901,0L2.901,-4.806L0,-5.178Z" style="fill:rgb(142,142,142);fill-rule:nonzero;"/>
                </g>
                <g transform="matrix(1,0,0,1,1285.54,2312.55)">
                    <path d="M0,15.485L0.035,15.31L1.068,10.922L2.242,6.568L3.546,2.253L3.144,0.843L1.942,0L0.479,0.097L-0.599,1.092L-2.556,5.623L-4.396,10.203L-6.112,14.831L-6.331,15.466L-0.099,15.466L0,15.485Z" style="fill:rgb(142,142,142);fill-rule:nonzero;"/>
                </g>
                <g transform="matrix(1,0,0,1,1276.35,2349.57)">
                    <path d="M0,-12.812L-1.347,-8.064L-2.806,-6.271L-4.611,-4.825L-6.677,-3.788L-8.915,-3.206L-37.873,-6.915L-37.873,-1.666L-11.336,4.509L-7.336,4.262L-3.486,3.144L0.025,1.209L3.028,-1.448L5.376,-4.699L6.951,-8.385L7.568,-12.852L8.322,-17.296L8.329,-17.321L1.41,-17.321L0,-12.812Z" style="fill:rgb(142,142,142);fill-rule:nonzero;"/>
                </g>
            </g>
        </g>
    </g>
</svg>
