<?xml version="1.0" encoding="UTF-8" standalone="no"?>
<!DOCTYPE svg PUBLIC "-//W3C//DTD SVG 1.1//EN" "http://www.w3.org/Graphics/SVG/1.1/DTD/svg11.dtd">
<svg width="100%" height="100%" viewBox="0 0 140 220" version="1.1" xmlns="http://www.w3.org/2000/svg" xmlns:xlink="http://www.w3.org/1999/xlink" xml:space="preserve" xmlns:serif="http://www.serif.com/" style="fill-rule:evenodd;clip-rule:evenodd;stroke-linejoin:round;stroke-miterlimit:2;">
    <g transform="matrix(1,0,0,1,-1367.4,-472.231)">
        <g id="people-12">
            <g>
                <g transform="matrix(1,0,0,1,1417.65,620.483)">
                    <path d="M0,-19.496L-0.753,-18.781L0.292,-5.617L1.506,-0.283L1.793,0L2.145,-0.288L2.407,-5.63L1.277,-12.847L0,-19.496Z" style="fill:white;fill-rule:nonzero;"/>
                </g>
                <g transform="matrix(1,0,0,1,1450.82,688.442)">
                    <path d="M0,1.248L-2.534,-1.827L-2.919,-2.288L-2.944,-1.815L-2.978,-1.142L-9.357,-0.952L-8.879,1.519L-6.51,3.249L-4.894,3.401L-2.53,3.536L-0.393,3.473L1.07,3.24L1.472,3.008L0.063,1.299L0,1.248Z" style="fill:rgb(173,173,173);fill-rule:nonzero;"/>
                </g>
                <g transform="matrix(1,0,0,1,1457.39,665.423)">
                    <path d="M0,-53.404L-0.009,-53.531L-0.013,-53.556L-0.148,-55.138L-0.169,-55.396L-0.19,-55.608L-0.224,-56.001L-0.233,-56.128L-0.258,-56.39L-0.309,-56.987L-0.33,-57.224L-0.478,-58.958L-0.681,-61.268L-0.685,-61.344L-0.706,-61.572L-0.719,-61.741L-0.782,-62.469L-1.074,-65.831L-2.381,-71.165L-2.843,-72.528L-3.642,-74.841L-8.591,-74.96L-13.68,-74.981L-20.13,-74.871L-26.395,-74.82L-30.621,-74.681L-34.043,-74.456L-35.227,-72.113L-36.095,-65.831L-36.856,-51.344L-33.831,-27.795L-32.672,-21.269L-32.93,-11.074L-32,13.929L-31.425,16.649L-31.378,16.856L-31.298,17.246L-31.179,17.808L-31.065,18.341L-30.985,18.718L-30.875,19.251L-30.794,19.64L-30.405,19.809L-29.386,20.253L-28.341,20.706L-27.529,21.061L-26.344,21.577L-25.892,21.547L-24.974,21.488L-23.163,21.374L-22.838,21.26L-22.461,21.129L-22.174,21.027L-20.748,20.532L-20.334,14.53L-20.334,14.526L-20.215,12.174L-20.41,-12.935L-20.41,-12.944L-20.634,-23.582L-20.761,-21.692L-20.389,-28.231L-20.283,-29.767L-20.249,-30.219L-18.43,-46.979L-16.903,-27.677L-16.734,-22.178L-17.178,-14.391L-17.186,-14.272L-18.189,10.148L-18.24,11.256L-17.952,16.675L-16.874,16.065L-16.408,15.807L-16.082,15.621L-15.562,15.33L-13.688,15.334L-12.385,15.334L-11.078,15.63L-10.558,15.748L-9.34,16.027L-9.078,16.082L-8.346,16.251L-7.889,16.353L-7.813,17.423L-6.561,12.068L-4.885,-11.666L-4.801,-13.401L-4.763,-21.814L-3.485,-27.165L0.182,-51.344L0.004,-53.395L0,-53.404Z" style="fill:rgb(66,76,160);fill-rule:nonzero;"/>
                </g>
                <g transform="matrix(1,0,0,1,1419.15,612.628)">
                    <path d="M0,7.572L-1.214,2.238L-2.259,-10.926L-5.524,-7.669L-6.188,-7.009L-6.853,-6.345L-7.077,-5.524L-7.022,-4.166L-6.375,-3.845L-5.55,-3.781L-5.516,-3.202L-5.482,-2.944L-5.825,-2.554L-6.277,-2.339L-7.132,-2.432L-6.531,-1.823L-6.083,-1.62L-6.087,-0.588L-6.645,-0.63L-6.827,-0.338L-7.424,-0.681L-7.191,0.005L-6.743,0.588L-6.781,2.031L-7.229,1.938L-8.299,1.109L-8.659,0.402L-8.608,1.041L-8.291,3.435L-9.06,3.435L-9.801,1.447L-9.826,1.582L-10.105,-0.765L-10.131,-0.93L-10.355,-3.976L-10.296,-2.914L-12.931,-0.283L-11.886,12.881L-10.672,18.219L-10.389,18.498L-10.034,18.215L0.639,7.568L0.288,7.856L0,7.572Z" style="fill:rgb(0,188,218);fill-rule:nonzero;"/>
                </g>
                <g transform="matrix(1,0,0,1,1434.93,686.138)">
                    <path d="M0,0.414L-0.376,0.545L-0.702,0.659L-2.513,0.774L-3.43,0.833L-3.883,0.862L-5.068,0.346L-5.88,-0.009L-6.925,-0.461L-7.944,-0.906L-8.333,-1.075L-8.413,-1.464L-8.523,-1.997L-8.604,-2.374L-8.718,-2.906L-8.836,-3.469L-8.917,-3.858L-9.111,-3.837L-9.154,-4.044L-10.681,-1.743L-11.125,-0.305L-9.763,1.7L-7.199,2.905L-4.805,4.17L-2.559,4.458L0.677,4.128L1.527,3.468L0.288,0.312L0,0.414Z" style="fill:rgb(120,71,34);fill-rule:nonzero;"/>
                </g>
                <g transform="matrix(1,0,0,1,1449.43,686.751)">
                    <path d="M0,-2.077L-0.499,-3.49L-0.694,-4.035L-1.121,-5.245L-1.383,-5.3L-2.601,-5.579L-3.122,-5.698L-4.429,-5.994L-5.732,-5.994L-7.606,-5.998L-8.126,-5.707L-8.451,-5.52L-8.79,-4.818L-9.226,-3.904L-9.843,-2.606L-9.01,-3.401L-5.786,-3.498L-3.532,-2.872L-1.108,-0.922L1.485,2.318L2.898,3.921L1.794,1.184L0,-2.077Z" style="fill:rgb(120,71,34);fill-rule:nonzero;"/>
                </g>
                <g transform="matrix(1,0,0,1,1449.26,527.889)">
                    <path d="M0,-1.967L-0.216,-4.784L-1.277,-8.35L-2.788,-10.583L-4.945,-11.836L-7.935,-12.199L-10.423,-12.288L-13.434,-12.132L-15.676,-11.032L-17.347,-8.913L-18.667,-5.431L-18.917,-3.067L-19.712,-0.486L-20.105,2.635L-19.75,4.129L-18.248,8.088L-16.197,9.687L-16.193,9.691L-15.833,9.97L-15.566,9.674L-15.232,9.353L-15.22,9.353L-13.908,9.073L-13.79,9.04L-13.261,9.116L-11.924,9.213L-11.696,9.217L-11.531,9.196L-10.025,9.463L-8.506,9.302L-8.342,9.336L-8.113,9.348L-6.751,9.34L-6.214,9.302L-6.095,9.348L-4.767,9.721L-4.759,9.721L-4.425,10.034L-4.167,10.321L-3.722,9.949L-3.659,9.894L-2.195,8.668L0.199,4.425L0.66,2.961L0.525,1.032L0.825,0.635L0,-1.967Z" style="fill:rgb(120,71,34);fill-rule:nonzero;"/>
                </g>
                <g transform="matrix(1,0,0,1,1448.32,688.875)">
                    <path d="M0,-3.046L-2.424,-4.996L-4.678,-5.622L-7.901,-5.525L-8.735,-4.73L-8.824,-2.94L-7.339,-1.367L-6.861,-1.384L-0.482,-1.574L-0.448,-2.247L-0.423,-2.72L-0.038,-2.259L2.496,0.816L2.559,0.867L3.968,2.576L4.006,1.797L2.593,0.194L0,-3.046Z" style="fill:rgb(120,71,34);fill-rule:nonzero;"/>
                </g>
                <g transform="matrix(1,0,0,1,1443.71,590.967)">
                    <path d="M0,-3.012L-6.451,-2.902L-12.715,-2.851L-16.941,-2.712L-20.363,-2.488L-20.363,0L-16.941,-0.224L-12.715,-0.364L-6.451,-0.415L0,-0.525L5.089,-0.504L10.038,-0.385L10.038,-2.873L5.089,-2.991L0,-3.012Z" style="fill:rgb(66,76,160);fill-rule:nonzero;"/>
                </g>
                <g transform="matrix(1,0,0,1,1435.6,687.927)">
                    <path d="M0,2.339L-3.236,2.669L-5.482,2.381L-7.876,1.116L-10.44,-0.089L-11.802,-2.094L-11.789,-1.328L-10.427,0.575L-10.368,0.63L-7.864,1.895L-7.474,1.958L-7.453,3.088L-5.448,4.145L-3.202,4.433L0.034,4.103L0.884,3.443L0.85,1.679L0,2.339Z" style="fill:rgb(120,71,34);fill-rule:nonzero;"/>
                </g>
                <g transform="matrix(1,0,0,1,1448.93,681.506)">
                    <path d="M0,1.755L0.643,1.341L0.567,0.27L0.11,0.169L-0.622,0L-0.195,1.209L0,1.755Z" style="fill:rgb(66,76,160);fill-rule:nonzero;"/>
                </g>
                <g transform="matrix(1,0,0,1,1440.64,682.145)">
                    <path d="M0,-0.212L0.339,-0.914L-0.127,-0.656L-1.206,-0.047L-0.436,0.702L0,-0.212Z" style="fill:rgb(66,76,160);fill-rule:nonzero;"/>
                </g>
                <g transform="matrix(1,0,0,1,1466.31,552.956)">
                    <path d="M0,21.996L-0.245,19.581L-1.277,12.25L-1.333,11.383L-2.792,4.687L-3.79,-1.007L-5.803,-4.661L-9.767,-6.506L-18.752,-9.636L-20.262,-12.707L-20.947,-13.316L-20.968,-13.337L-21.125,-13.477L-21.281,-13.494L-21.903,-13.574L-22.495,-13.646L-23.485,-13.773L-24.767,-13.934L-25.079,-13.942L-25.744,-13.963L-27.156,-14.01L-28.544,-14.06L-29.204,-14.086L-29.529,-14.099L-30.79,-14.027L-31.755,-13.972L-32.33,-13.942L-32.909,-13.908L-33.138,-13.896L-33.21,-13.832L-33.979,-13.185L-35.769,-10.178L-46.145,-6.717L-49.182,-5.3L-51.602,-1.726L-51.873,-0.914L-53.167,3.947L-54.838,11.307L-56.166,19.762L-56.826,22.939L-56.889,22.956L-57.215,23.037L-58.438,23.616L-58.484,29.999L-57.134,30.49L-56.969,28.637L-56.039,28.646L-55.506,28.65L-54.952,28.65L-52.702,28.404L-52.325,28.362L-51.999,28.324L-50.455,28.155L-50.053,28.396L-49.918,28.476L-49.694,28.612L-49.715,30.295L-48.776,30.054L-48.311,29.441L-46.5,23.95L-47.198,23.591L-46.344,19.115L-45.73,18.675L-44.017,32.571L-42.968,35.524L-39.546,35.299L-35.32,35.16L-29.056,35.109L-22.605,34.999L-17.516,35.02L-12.567,35.139L-12.567,36.095L-11.358,33.155L-10.626,25.612L-9.636,18.739L-9.116,21.624L-9.137,23.401L-9.243,23.489L-9.78,24.987L-9.221,31.827L-7.923,32.406L-7.089,32.782L-6.353,32.812L-5.52,32.842L-5.046,32.859L-4.264,32.892L-3.625,32.791L-2.267,32.575L-1.878,32.512L-1.121,32.393L-0.554,32.305L0.461,32.144L0.939,31.256L2.263,24.348L0.499,22.17L0,21.996Z" style="fill:rgb(250,192,41);fill-rule:nonzero;"/>
                </g>
                <g transform="matrix(1,0,0,1,1444.83,538.624)">
                    <path d="M0,-0.702L-0.334,-1.015L-0.343,-1.015L-1.671,-1.388L-1.789,-1.434L-2.326,-1.396L-3.688,-1.388L-3.917,-1.4L-4.082,-1.434L-5.6,-1.273L-7.106,-1.54L-7.271,-1.519L-7.5,-1.523L-8.836,-1.62L-9.365,-1.696L-9.483,-1.662L-10.795,-1.383L-10.808,-1.383L-11.142,-1.062L-11.408,-0.765L-11.768,-1.045L-11.73,0.499L-11.658,0.436L-11.429,0.423L-10.85,0.389L-10.275,0.36L-9.31,0.305L-8.049,0.233L-7.724,0.246L-7.064,0.271L-5.677,0.321L-4.264,0.368L-3.599,0.389L-3.287,0.398L-2.005,0.558L-1.015,0.685L-0.423,0.757L0.199,0.838L0.355,0.855L0.512,0.994L0.702,-0.787L0.258,-0.414L0,-0.702Z" style="fill:rgb(205,152,99);fill-rule:nonzero;"/>
                </g>
                <g transform="matrix(1,0,0,1,1464.43,611.812)">
                    <path d="M0,-26.345L-0.389,-26.282L-1.747,-26.066L-2.386,-25.964L-3.168,-25.998L-3.642,-26.015L-4.475,-26.045L-5.211,-26.074L-6.045,-26.451L-6.561,-23.502L-5.017,-10.842L-6.04,-10.089L-7.83,-8.858L-7.766,-8.131L-7.754,-7.961L-7.732,-7.733L-7.728,-7.657L-7.525,-5.347L-6.518,-6.625L-6.874,-4.336L-7.377,-3.613L-7.356,-3.376L-7.305,-2.78L-7.28,-2.517L-7.271,-2.391L-7.238,-1.997L-7.216,-1.786L-7.195,-1.528L-7.06,0.054L-7.056,0.08L-7.047,0.207L-5.681,-1.113L-5.77,-1.147L-5.896,-1.202L-5.842,-1.261L-5.74,-1.168L-5.681,-1.113L-5.283,-1.439L-4.412,-2.865L-2.428,-8.431L1.155,-22.923L1.324,-26.552L0.757,-26.463L0,-26.345Z" style="fill:rgb(205,152,99);fill-rule:nonzero;"/>
                </g>
                <g transform="matrix(1,0,0,1,1409.46,588.906)">
                    <path d="M0,19.361L0.017,19.416L-0.156,19.403L0,19.361ZM6.802,-7.555L6.4,-7.796L4.856,-7.627L4.53,-7.588L4.154,-7.546L1.904,-7.301L1.349,-7.301L0.816,-7.305L-0.114,-7.314L-0.279,-5.461L-0.33,-4.886L0.562,9.86L-0.533,17.288L-0.664,19.716L-0.66,19.733L-0.656,19.746L-0.66,19.746L-0.436,22.791L-0.41,22.956L-0.131,25.304L-0.106,25.169L0.635,27.157L1.404,27.157L1.087,24.763L1.036,24.124L1.396,24.83L2.466,25.659L2.915,25.752L2.953,24.31L2.504,23.726L2.271,23.041L2.868,23.384L3.05,23.092L3.608,23.134L3.612,22.102L3.164,21.899L2.563,21.29L3.418,21.383L3.87,21.167L4.213,20.778L4.179,20.52L4.145,19.94L3.32,19.877L2.673,19.555L2.618,18.198L2.843,17.377L3.507,16.713L4.171,16.053L3.799,13.874L4.031,13.016L3.63,9.665L7.115,-3.841L7.14,-5.655L7.161,-7.339L6.937,-7.474L6.802,-7.555Z" style="fill:rgb(205,152,99);fill-rule:nonzero;"/>
                </g>
            </g>
        </g>
    </g>
</svg>
