<?xml version="1.0" encoding="UTF-8" standalone="no"?>
<!DOCTYPE svg PUBLIC "-//W3C//DTD SVG 1.1//EN" "http://www.w3.org/Graphics/SVG/1.1/DTD/svg11.dtd">
<svg width="100%" height="100%" viewBox="0 0 140 220" version="1.1" xmlns="http://www.w3.org/2000/svg" xmlns:xlink="http://www.w3.org/1999/xlink" xml:space="preserve" xmlns:serif="http://www.serif.com/" style="fill-rule:evenodd;clip-rule:evenodd;stroke-linejoin:round;stroke-miterlimit:2;">
    <g transform="matrix(1,0,0,1,-2321.52,-1148.3)">
        <g id="people-24">
            <g>
                <g transform="matrix(1,0,0,1,2380.76,1317.08)">
                    <path d="M0,-53.928L-1.015,-53.842L-1.674,-53.727L-3.433,-53.581L-3.469,-53.578L-6.807,-53.301L-8.848,-53.343L-8.855,-53.343L-9.616,-53.328L-11.058,-53.301L-11.463,-53.328L-16.945,-53.693L-17.463,-53.727L-17.995,-53.81L-18.534,-53.893L-19.038,-53.971L-20.195,-54.129L-20.276,-54.141L-20.526,-54.152L-21.107,-54.179L-22.165,-54.227L-22.165,-54.092L-22.179,-54.227L-22.243,-54.23L-22.299,-54.099L-26.339,-44.604L-26.875,-40.918L-27.414,-29.238L-27.075,-10.879L-27.209,-2.584L-27.086,-2.474L-26.822,-6.64L-26.254,-15.652L-26.822,-6.64L-27.086,-2.474L-27.156,-1.386L-26.649,-0.814L-24.971,-0.422L-23.698,-0.281L-23.656,-0.276L-23.05,-0.209L-22.645,-0.163L-21.675,-0.056L-20.159,0.113L-19.197,0.219L-19.052,0.236L-17.491,0.251L-16.56,0.26L-15.401,0.271L-12.172,0.302L-7.963,-0.534L-7.325,-0.601L-6.842,-0.651L-6.391,-0.699L-6.267,-0.712L-6.179,-0.721L-4.797,-0.865L-4.29,-0.919L-3.955,-0.954L-1.188,-1.247L-1.174,-1.248L-0.754,-1.293L0.765,-1.588L0.871,-1.609L0.966,-1.628L1.142,-1.662L1.17,-1.667L3.712,-2.055L3.856,-2.248L4.304,-19.137L4.642,-32.851L4.209,-40.305L3.814,-44.066L3.243,-45.842L0.55,-54.119L0.141,-54.045L0,-53.928Z" style="fill:rgb(68,114,37);fill-rule:nonzero;"/>
                </g>
                <g transform="matrix(1,0,0,1,2423.92,1274.03)">
                    <path d="M0,0.328L0.18,0.13L-1.026,0L0,0.328Z" style="fill:rgb(120,71,34);fill-rule:nonzero;"/>
                </g>
                <g transform="matrix(1,0,0,1,2417,1285.42)">
                    <path d="M0,-0.772L0.057,-0.676L0.477,0.032L0.727,0.064L0.73,0.065L0.754,0.067L0.769,0.069L0.786,0.072L0.854,0.08L0.927,-0.087L0.043,-0.801L-0.049,-0.852L0,-0.772Z" style="fill:rgb(120,71,34);fill-rule:nonzero;"/>
                </g>
                <g transform="matrix(1,0,0,1,2421.73,1273.89)">
                    <path d="M0,0.032L0.141,0.028L-0.117,0L0,0.032Z" style="fill:rgb(120,71,34);fill-rule:nonzero;"/>
                </g>
                <g transform="matrix(0.328015,0.944673,0.944673,-0.328015,2423.36,1288.77)">
                    <path d="M-1.161,-2.912L2.674,-2.912L4.094,-1.633L2.674,-2.017L-1.161,-2.912Z" style="fill:rgb(120,71,34);fill-rule:nonzero;"/>
                </g>
                <g transform="matrix(1,0,0,1,2423.15,1280.04)">
                    <path d="M0,9.804L0.522,10.413L1.294,11.318L0.522,10.413L0,9.804L-1.762,7.738L0,9.804ZM-5.22,5.299L-5.094,5.402L-4.297,6.045L-4.163,6.152L-4.103,6.278L-3.92,6.649L-3.613,7.269L-3.472,7.558L-3.458,7.589L-3.43,7.638L-0.821,11.923L0.007,13.139L0.025,13.162L0.042,13.19L0.046,13.194L0.55,13.732L0.585,13.775L0.666,13.962L0.666,13.965L0.67,13.969L0.814,14.233L0.828,14.259L0.804,14.26L0.814,14.277L0.85,14.344L1.526,15.624L1.583,15.676L1.59,15.705L1.618,15.726L1.653,15.772L1.759,15.817L2.503,16.273L3.729,16.686L4.135,16.652L4.452,16.625L5.051,16.574L5.125,16.568L6.186,15.459L6.208,15.438L6.274,15.325L6.317,15.258L9.116,10.682L9.997,6.738L10.691,0.325L9.419,-3.937L8.009,-6.476L5.495,-6.658L4.635,-6.882L4.332,-6.76L4.325,-6.758L4.248,-6.726L0.257,-5.112L0.243,-5.106L0.198,-5.082L0.155,-5.061L-1.188,-4.375L-0.366,-4.741L-0.441,-4.076L-1.681,-1.859L-3.169,-1.214L-1.188,-4.375L0.155,-5.061L0.198,-5.082L0.243,-5.106L0.769,-5.683L-0.257,-6.01L-0.645,-6.134L-1.012,-6.126L-1.276,-6.12L-1.417,-6.116L-1.565,-6.113L-1.727,-6.11L-2.073,-6.102L-3.698,-5.927L-4.293,-5.576L-6.01,-3.682L-6.888,-1.678L-6.779,-1.21L-6.655,1.042L-6.105,4.585L-5.22,5.299Z" style="fill:rgb(120,71,34);fill-rule:nonzero;"/>
                </g>
                <g transform="matrix(1,0,0,1,2380.67,1358.53)">
                    <path d="M0,3.869L-2.478,3.908L-4.498,3.939L-4.526,3.163L-4.498,3.939L-2.478,3.908L0,3.869L0.363,3.277L0,3.869ZM-0.874,-2.321L-2.7,-2.478L-4.106,-2.009L-5.305,-0.365L-5.647,1.829L-5.731,2.372L-5.647,1.829L-6.391,3.677L-6.193,6.027L-4.974,6.314L-3.821,6.343L-2.873,6.347L-1.188,6.323L0.804,6.034L1.072,5.26L1.333,3.712L0.698,-0.376L0.063,-1.302L-0.874,-2.321Z" style="fill:rgb(120,71,34);fill-rule:nonzero;"/>
                </g>
                <g transform="matrix(1,0,0,1,2364.13,1366.73)">
                    <path d="M0,-4.537L-1.664,-4.178L-3.166,-3.99L-4.516,-3.4L-5.129,-2.711L-6.151,-1.367L-6.042,0.064L-5.287,0.161L-2.587,0.133L-2.651,0.033L-2.947,-0.436L-2.651,0.033L-2.587,0.133L-2.559,0.175L1.854,0.175L2.499,0.05L1.466,0.068L1.206,0.075L-1.533,0.127L1.206,0.075L1.466,0.068L2.499,0.05L2.905,0.043L3.409,-2.985L2.781,-4.712L1.882,-4.699L0,-4.537Z" style="fill:rgb(120,71,34);fill-rule:nonzero;"/>
                </g>
                <g transform="matrix(1,0,0,1,2430.52,1338.75)">
                    <path d="M1.981,-29.353L-16.018,-29.353L-16.123,-27.188L-19.052,-19.086L-20.41,-11.244L-22.105,-1.371L-21.125,-5.632L-22.105,-1.371L-22.387,-0.148L-20.48,-0.07L-17.205,-0.051L-17.184,-0.05L-17.117,-0.05L-16.849,-0.048L-16.444,-0.046L-16.123,-0.044L-15.221,-0.034L-15.048,-0.032L-12.468,-0.004L-11.791,-0.003L-10.935,-0.003L-10.726,-0.002L-10.691,-0.002L-8.037,0L-3.75,-0.002L-2.549,-0.002L-1.138,-0.003L1.604,-0.004L1.646,-0.004L2.471,-0.014L2.884,-0.02L3.042,-0.022L4.734,-0.044L7.491,-0.07L8.901,-0.148L7.688,-5.632L5.418,-13.505L4.798,-15.651L5.418,-13.505L4.84,-19.086L2.224,-27.188L1.981,-29.353Z" style="fill:rgb(66,76,160);fill-rule:nonzero;"/>
                </g>
                <g transform="matrix(1,0,0,1,2369.28,1205.76)">
                    <path d="M0,0.025L1.155,0.022L-0.004,0L0,0.025Z" style="fill:rgb(66,76,160);fill-rule:nonzero;"/>
                </g>
                <g transform="matrix(1,0,0,1,2396.16,1243.69)">
                    <path d="M0,-0.845L-0.783,-0.565L-0.508,0.144L0.571,-0.465L1.022,-0.989L0.367,-0.897L0,-0.845Z" style="fill:white;fill-rule:nonzero;"/>
                </g>
                <g transform="matrix(1,0,0,1,2389.47,1245.92)">
                    <path d="M0,0.267L0.324,0.221L0.233,0L0,0.267Z" style="fill:white;fill-rule:nonzero;"/>
                </g>
                <g transform="matrix(0.958798,0.284088,0.284088,-0.958798,2347.99,1244.06)">
                    <path d="M-0.023,-0.17L1.132,-0.17L1.111,0.038L0.417,-0.039L-0.023,-0.17Z" style="fill:rgb(66,76,160);fill-rule:nonzero;"/>
                </g>
                <g transform="matrix(0.97308,0.230466,0.230466,-0.97308,2349.02,1244.5)">
                    <rect x="0.019" y="-0.043" width="0.34" height="0.23" style="fill:rgb(66,76,160);"/>
                </g>
                <g transform="matrix(1,0,0,1,2358.46,1262.83)">
                    <path d="M0,0.155L0.056,0.023L-0.455,0L0,0.155Z" style="fill:rgb(66,76,160);fill-rule:nonzero;"/>
                </g>
                <g transform="matrix(-0.985104,0.17196,0.17196,0.985104,2380.17,1263.19)">
                    <path d="M-0.324,-0.027L0.426,-0.027L-0.588,0.063L-0.748,-0.028L-0.324,-0.027Z" style="fill:rgb(66,76,160);fill-rule:nonzero;"/>
                </g>
                <g transform="matrix(1,0,0,1,2341.95,1281.75)">
                    <path d="M0,1.109L-1.287,0.386L-1.512,0.121L-1.635,-0.189L-2.118,-0.024L0.173,1.298L0,1.109Z" style="fill:rgb(66,76,160);fill-rule:nonzero;"/>
                </g>
                <g transform="matrix(1,0,0,1,2374.86,1318.76)">
                    <path d="M0,7.465L0.129,5.368L0.176,0L0,7.465Z" style="fill:rgb(66,76,160);fill-rule:nonzero;"/>
                </g>
                <g transform="matrix(1,0,0,1,2434.29,1364.98)">
                    <path d="M0,-3.108L-1.473,-4.036L-2.654,-4.252L-3.617,-4.036L-4.854,-3.108L-4.755,0.388L-3.68,0.534L-2.118,0.471L-0.843,0.513L0.561,0.828L1.195,1.144L1.287,1.144L0.751,-1.127L0.575,-3.204L0.511,-2.541L0,-3.108Z" style="fill:rgb(66,76,160);fill-rule:nonzero;"/>
                </g>
                <g transform="matrix(1,0,0,1,2419.2,1366.34)">
                    <path d="M0,-8.374L-2.161,-7.032L-3.849,-5.847L-4.752,-6.099L-4.554,-7.082L-4.558,-7.102L-4.6,-7.565L-4.632,-7.908L-5.192,-7.932L-6.987,-2.742L-7.579,-1.862L-8.361,-0.603L-8.654,0.212L-7.66,-0.548L-6.229,-1.224L-3.366,-2.685L0.349,-4.214L1.738,-4.361L2.577,-3.992L1.77,-8.263L1.079,-8.586L0,-8.374Z" style="fill:rgb(66,76,160);fill-rule:nonzero;"/>
                </g>
                <g transform="matrix(1,0,0,1,2416.95,1281.13)">
                    <path d="M0,3.441L0.093,3.492L-0.458,-0.051L0,3.441Z" style="fill:rgb(66,76,160);fill-rule:nonzero;"/>
                </g>
                <g transform="matrix(0.470588,0.882353,0.882353,-0.470588,2422.3,1287.66)">
                    <path d="M-1.2,-2.285L-0.945,-2.285L-0.119,-2.29L3.808,-2L-1.2,-2.285Z" style="fill:rgb(66,76,160);fill-rule:nonzero;"/>
                </g>
                <g transform="matrix(1,0,0,1,2417.78,1285.45)">
                    <path d="M0,0.591L-0.01,0.493L-0.018,0.406L-0.042,0.099L-0.039,0.096L-0.046,0.032L-0.295,0L0,0.591Z" style="fill:rgb(66,76,160);fill-rule:nonzero;"/>
                </g>
                <g transform="matrix(0.909199,0.416362,0.416362,-0.909199,2439.5,1327.46)">
                    <path d="M0.033,0.022L0.151,0.022L0.157,0.093L-0.252,0.136L0.033,0.022Z" style="fill:rgb(66,76,160);fill-rule:nonzero;"/>
                </g>
                <g transform="matrix(1,0,0,1,2355.81,1245.85)">
                    <path d="M0,0.086L0.307,0.086L0.022,0L0,0.086Z" style="fill:rgb(66,76,160);fill-rule:nonzero;"/>
                </g>
                <g transform="matrix(1,0,0,1,2355.68,1241.34)">
                    <path d="M0,1.618L-0.014,1.649L-0.007,1.593L0,1.598L0,1.618ZM34.837,3.984L34.242,4.322L34.15,4.428L34.242,4.322L34.837,3.984L35.077,3.85L35.637,3.532L35.993,3.331L37.41,2.69L38.38,2.252L38.613,2.168L39.265,1.933L39.399,1.885L39.702,1.777L40.484,1.496L40.851,1.445L41.507,1.352L34.943,-11.026L33.078,-14.518L32.331,-15.2L30.332,-15.993L25.26,-17.197L23.48,-18.06L22.168,-19.559L21.678,-20.118L21.629,-20.174L21.548,-20.189L21.47,-20.203L20.159,-20.44L19.246,-20.605L18.263,-20.783L17.949,-20.788L16.811,-20.807L16.155,-20.818L14.064,-20.783L13.811,-20.744L12.048,-20.472L11.192,-20.341L10.113,-20.174L10.103,-20.163L8.026,-18.06L6.193,-17.197L0.955,-15.993L-0.614,-15.2L-1.787,-14.518L-3.878,-11.026L-7.751,2.871L-7.293,2.871L-6.606,2.993L-6.592,2.996L-6.26,3.054L-5.742,3.146L-5.446,3.199L-5.235,3.244L-4.103,3.481L-2.915,3.73L-2.764,3.766L-2.122,3.918L-0.836,4.222L-0.712,4.251L-0.667,4.261L0.151,4.503L0.437,4.589L1.974,1.337L2.041,1.192L1.974,1.337L0.437,4.589L0.148,4.589L0.553,8.135L1.156,16.992L1.364,17.808L2.326,21.483L2.837,21.507L2.901,21.51L2.915,21.51L3.973,21.558L4.554,21.585L4.804,21.597L4.885,21.608L6.042,21.766L6.546,21.844L7.085,21.927L7.617,22.01L8.135,22.045L13.617,22.409L14.022,22.436L15.464,22.409L16.225,22.394L16.232,22.394L18.273,22.436L21.612,22.159L21.647,22.156L23.406,22.01L24.065,21.895L24.805,21.766L25.221,21.692L25.63,21.618L25.75,21.597L26.705,19.78L27.868,17.191L26.705,19.78L25.75,21.597L26.102,21.483L28.031,17.808L28.253,17.238L29.998,8.135L30.382,5.682L31.549,1.694L31.873,0.907L31.961,0.686L32.056,0.453L31.961,0.686L31.873,0.907L33.79,4.845L34.023,4.576L33.265,2.764L33.018,2.177L33.265,2.764L34.023,4.576L34.115,4.799L34.753,6.326L36.536,7.022L34.837,3.984Z" style="fill:white;fill-rule:nonzero;"/>
                </g>
                <g transform="matrix(0.039608,0.999215,0.999215,-0.039608,2430.43,1358.09)">
                    <path d="M-0.786,-0.88L2.319,-0.88L0.355,-0.513L-2.201,-1.107L-0.786,-0.88Z" style="fill:white;fill-rule:nonzero;"/>
                </g>
                <g transform="matrix(1,0,0,1,2433.18,1362.44)">
                    <path d="M1.565,-7.873L-4.315,-7.873L-3.941,-6.506L-3.247,-3.975L-3.536,-1.998L-3.747,-0.566L-2.51,-1.494L-1.548,-1.71L-0.367,-1.494L1.107,-0.566L1.618,0L1.681,-0.663L1.332,-4.724L1.565,-7.873Z" style="fill:white;fill-rule:nonzero;"/>
                </g>
                <g transform="matrix(1,0,0,1,2419.63,1360.46)">
                    <path d="M0,-8.417L-0.042,-8.418L-0.169,-8.42L-1.84,-8.449L-1.896,-8.438L-1.928,-8.431L-1.935,-8.43L-3.659,-8.096L-3.884,-8.052L-4.378,-7.857L-4.801,-7.691L-5.012,-7.568L-5.541,-7.263L-5.062,-2.029L-5.03,-1.686L-4.988,-1.223L-4.984,-1.203L-5.182,-0.22L-4.279,0.032L-2.591,-1.153L-0.43,-2.495L0.649,-2.707L1.34,-2.384L0.264,-4.027L1.082,-7.904L0.543,-8.312L0.413,-8.41L0,-8.417Z" style="fill:white;fill-rule:nonzero;"/>
                </g>
                <g transform="matrix(1,0,0,1,2421.47,1275.94)">
                    <path d="M0,2.236L1.241,0.019L1.315,-0.646L0.493,-0.28L-1.488,2.882L0,2.236Z" style="fill:white;fill-rule:nonzero;"/>
                </g>
                <g transform="matrix(1,0,0,1,2423.39,1273.43)">
                    <path d="M0,1.503L0.014,1.497L1.586,0L1.269,0.109L1.033,0.368L0.705,0.728L0.525,0.926L0,1.503Z" style="fill:white;fill-rule:nonzero;"/>
                </g>
                <g transform="matrix(1,0,0,1,2425.07,1273.9)">
                    <path d="M0,0.338L2.326,-0.594L2.316,-0.682L-0.092,-0.477L-1.664,1.02L0,0.338Z" style="fill:white;fill-rule:nonzero;"/>
                </g>
                <g transform="matrix(1,0,0,1,2434.85,1367)">
                    <path d="M0,-1.197L-1.403,-1.511L-2.679,-1.554L-4.241,-1.491L-5.316,-1.637L-5.316,0.437L-5.224,0.44L-5.224,0.437L-5.224,0.44L-4.241,0.437L-4.068,0.437L-4.008,0.44L-4.008,0.437L-4.008,0.44L-3.744,0.437L-2.986,0.44L-2.986,0.437L-2.986,0.44L-2.729,0.437L-1.403,0.437L0,0.433L0.634,0.429L0.803,0.44L0.726,-0.88L0.634,-0.88L0,-1.197Z" style="fill:rgb(250,192,41);fill-rule:nonzero;"/>
                </g>
                <g transform="matrix(1,0,0,1,2419.55,1368.4)">
                    <path d="M0,-6.277L-3.715,-4.747L-6.578,-3.286L-8.009,-2.611L-9.003,-1.851L-8.859,-0.503L-8.682,0.061L-7.385,0.147L-6.169,0.013L-3.518,-0.749L-1.333,-2.388L1.766,-3.359L2.425,-4.192L2.228,-6.055L1.389,-6.424L0,-6.277Z" style="fill:rgb(250,192,41);fill-rule:nonzero;"/>
                </g>
                <g transform="matrix(1,0,0,1,2435.46,1291.72)">
                    <path d="M0,17.914L0.292,17.776L1.103,17.391L1.463,17.221L2.044,16.946L2.316,16.817L2.598,16.542L2.778,16.367L3.641,15.521L2.573,12.829L3.123,10.329L3.123,9.823L2.171,6.114L0.948,5.427L-2.196,4.324L-5.989,3.574L-6.031,3.641L-6.098,3.754L-6.12,3.775L-7.18,4.884L-7.255,4.89L-7.854,4.941L-8.171,4.968L-8.576,5.003L-9.803,4.589L-10.547,4.133L-10.653,4.088L-10.688,4.042L-10.716,4.021L-10.723,3.992L-10.78,3.94L-11.456,2.66L-11.491,2.593L-11.502,2.576L-11.731,2.593L-12.179,2.785L-12.701,2.664L-13.917,2.753L-13.941,2.76L-14.396,2.875L-14.53,2.909L-15.873,3.248L-15.919,3.255L-17.371,3.471L-17.054,3.576L-17.051,3.575L-17.054,3.576L-17.371,3.471L-17.47,3.439L-21.161,2.225L-21.771,2.025L-21.781,2.021L-21.795,2.016L-22.987,1.624L-23.6,1.524L-24.407,1.392L-23.6,1.524L-24.308,0.788L-25.99,-0.254L-26.783,0.084L-27.174,0.25L-27.46,0.371L-28.242,0.704L-28.574,1.232L-28.902,1.758L-29.109,2.089L-29.497,2.703L-29.547,2.783L-29.744,3.101L-29.621,5.532L-28.038,7.178L-27.143,10.067L-24.947,12.622L-23.142,13.177L-22.708,13.245L-20.956,17.678L-2.958,17.678L-2.358,17.138L-2.161,16.963L-2.288,15.381L-2.39,14.091L-2.288,15.381L-2.161,16.963L-2.358,17.138L-2.468,17.237L-2.39,17.43L-1.949,18.168L-1.23,18.074L-0.687,18.004L0,17.914Z" style="fill:rgb(250,192,41);fill-rule:nonzero;"/>
                </g>
                <g transform="matrix(1,0,0,1,2423.29,1294.11)">
                    <path d="M0,0.233L0.436,0.201L0.666,0.184L0.691,0.182L0.677,0.157L0.355,0L0,0.233Z" style="fill:rgb(250,192,41);fill-rule:nonzero;"/>
                </g>
                <g transform="matrix(1,0,0,1,2419.54,1293.75)">
                    <path d="M0,1.225L0.046,1.218L1.389,0.879L1.523,0.845L1.978,0.73L2.002,0.723L3.218,0.635L3.708,0.599L2.193,-0.021L2.122,-0.048L1.685,0.166L1.318,0.3L1.308,0.323L0.818,-0.216L0.479,-0.129L0.345,-0.094L0.24,-0.013L-1.551,1.409L-1.452,1.441L0,1.225Z" style="fill:rgb(250,192,41);fill-rule:nonzero;"/>
                </g>
                <g transform="matrix(1,0,0,1,2367.32,1201.85)">
                    <path d="M0,16.466L1.114,14.64L1.396,14.18L1.671,13.067L2.499,9.717L2.559,9.476L2.577,9.412L2.411,7.643L2.309,6.545L2.291,6.352L2.281,6.232L2.147,4.796L2.044,4.299L1.978,3.991L1.967,3.935L1.963,3.91L1.896,3.603L1.685,2.587L1.544,1.917L1.41,1.614L1.258,1.281L0.945,0.573L0.765,0.172L0.543,-0.324L0.324,-0.815L0.303,-0.865L0.25,-0.982L0.169,-1.168L0.028,-1.481L-0.145,-1.629L-0.303,-1.769L-0.402,-1.853L-1.216,-2.556L-3.599,-2.825L-4.981,-2.584L-5.975,-2.017L-8.026,0.787L-9.168,3.337L-9.398,5.634L-9.2,10.883L-6.267,15.812L-2.806,19.291L-1.59,19.072L-1.565,19.031L-0.931,17.995L0,16.466Z" style="fill:rgb(63,38,19);fill-rule:nonzero;"/>
                </g>
                <g transform="matrix(1,0,0,1,2367.17,1215.6)">
                    <path d="M0,-15.383L0.173,-15.235L0.314,-14.922L0.515,-14.864L0.395,-14.736L0.448,-14.619L0.469,-14.568L1.019,-14.241L0.469,-14.568L0.687,-14.078L0.909,-13.582L1.089,-13.181L1.403,-12.473L1.554,-12.14L1.688,-11.837L1.829,-11.166L2.041,-10.151L2.108,-9.843L3.268,-9.822L2.112,-9.818L2.122,-9.763L2.189,-9.455L2.291,-8.958L2.425,-7.522L2.436,-7.402L2.453,-7.209L2.556,-6.111L2.721,-4.342L2.704,-4.278L2.644,-4.036L1.815,-0.687L1.54,0.426L1.258,0.887L3.863,0.157L6.052,-0.464L8.774,-3.809L9.366,-5.595L9.986,-7.278L10.099,-7.252L10.737,-7.105L10.839,-6.863L11.139,-7.122L11.118,-4.719L11.763,-3.988L12.052,-5.08L12.059,-5.106L12.415,-6.447L11.773,-4.563L12.415,-6.447L12.782,-7.524L12.775,-7.716L11.96,-9.79L8.326,-14.278L7.357,-15.17L3.398,-16.27L1.209,-16.005L-0.257,-15.607L-0.159,-15.523L0,-15.383Z" style="fill:rgb(63,38,19);fill-rule:nonzero;"/>
                </g>
                <g transform="matrix(1,0,0,1,2378.93,1211.9)">
                    <path d="M0,-0.285L0.212,1.092L0.444,0.277L0.564,-0.517L0.289,-1.377L0,-0.285Z" style="fill:rgb(242,211,173);fill-rule:nonzero;"/>
                </g>
                <g transform="matrix(0.379681,0.925118,0.925118,-0.379681,2378.98,1209.19)">
                    <path d="M-0.779,-0.723L-0.073,-0.723L1.31,-1.28L-0.905,-0.348L-0.779,-0.723Z" style="fill:rgb(242,211,173);fill-rule:nonzero;"/>
                </g>
                <g transform="matrix(1,0,0,1,2377,1215.93)">
                    <path d="M0,-1.75L0.289,-1.952L0.652,-2.42L0.289,-1.952L0,-1.75L-0.317,-1.654L0,-1.75ZM-0.113,-4.228L0.134,-2.578L0.155,-2.428L0.19,-1.941L0.155,-2.428L0.134,-2.578L-0.113,-4.228L-0.124,-4.297L-0.113,-4.228ZM-10.127,5.074L-9.271,4.942L-7.508,4.671L-7.255,4.631L-5.164,4.596L-4.509,4.607L-3.37,4.626L-3.056,4.631L-2.073,4.809L-1.16,4.974L-1.495,1.878L-1.16,4.974L0.151,5.212L0.229,5.225L0.31,5.24L0.849,5.856L1.699,2.005L2.397,-1.317L2.15,-2.939L1.939,-4.316L1.293,-5.047L1.283,-6.538L1.015,-7.191L0.913,-7.433L0.275,-7.58L0.162,-7.606L-0.458,-5.923L-1.051,-4.137L-3.772,-0.792L-5.961,-0.171L-8.566,0.559L-9.68,2.384L-10.61,3.913L-11.245,4.949L-11.217,5.252L-11.206,5.24L-10.127,5.074Z" style="fill:rgb(242,211,173);fill-rule:nonzero;"/>
                </g>
                <g transform="matrix(1,0,0,1,2342.86,1279.66)">
                    <path d="M0,-5.953L-0.134,-4.909L0.021,-5.112L-0.134,-4.909L-0.289,-3.664L-0.317,-3.441L-0.36,-3.116L-0.441,-2.519L-0.515,-1.986L-0.567,-1.602L-0.596,-1.395L-0.092,0.362L0.522,0.353L0.557,-2.091L0.599,-4.039L0.215,-6.044L0.183,-6.315L0.106,-6.164L0,-5.953Z" style="fill:rgb(242,211,173);fill-rule:nonzero;"/>
                </g>
                <g transform="matrix(1,0,0,1,2355.01,1282.16)">
                    <path d="M0,-36.559L-0.046,-36.569L-0.169,-36.599L-1.456,-36.902L-2.097,-37.054L-2.249,-37.09L-3.437,-37.339L-4.568,-37.576L-4.78,-37.621L-5.076,-37.674L-5.594,-37.766L-5.636,-37.54L-6.645,-32.336L-9.348,-27.16L-13.137,-14.384L-14.459,-10.355L-14.851,-9.391L-15.09,-7.86L-15.101,-7.808L-15.323,-6.38L-15.947,-4.964L-16.046,-4.738L-16.06,-4.7L-16.074,-4.67L-16.352,-4.036L-16.24,-3.622L-15.742,-3.231L-15.069,-1.552L-14.692,-0.608L-14.569,-0.298L-14.343,-0.033L-13.056,0.69L-12.873,0.792L-12.767,0.852L-12.676,0.902L-12.133,1.207L-11.678,1.014L-11.135,0.784L-11.065,0.753L-9.905,0.261L-9.887,-0.069L-10.025,-0.139L-11.181,0.232L-11.336,0.154L-11.964,-0.158L-12.041,-0.146L-12.327,-0.338L-13.081,-0.714L-13.345,-0.845L-13.427,-0.993L-13.645,-1.401L-14.523,-3.016L-14.724,-3.391L-14.523,-3.016L-13.645,-1.401L-13.427,-0.993L-13.345,-0.845L-12.94,-0.651L-12.327,-0.338L-11.964,-0.158L-11.336,0.154L-11.181,0.232L-10.025,-0.139L-9.954,-0.161L-9.348,-0.355L-9.271,-0.706L-9.598,-0.87L-9.609,-0.876L-9.933,-1.038L-11.142,-0.964L-12.422,-1.767L-12.838,-3.201L-12.757,-3.796L-12.743,-3.903L-12.714,-4.11L-12.662,-4.494L-12.588,-5.026L-12.507,-5.623L-12.464,-5.949L-12.436,-6.172L-12.281,-7.417L-12.147,-8.461L-12.041,-8.672L-11.964,-8.822L-11.907,-8.934L-11.255,-10.228L-10.948,-10.831L-9.57,-13.863L-9.722,-13.622L-9.57,-13.863L-2.862,-24.601L-0.606,-29.938L0.014,-32.646L0.797,-36.231L0.818,-36.317L0,-36.559Z" style="fill:rgb(242,211,173);fill-rule:nonzero;"/>
                </g>
                <g transform="matrix(1,0,0,1,2342.13,1282.85)">
                    <path d="M0,0.189L0.01,0.101L-0.172,0L0,0.189Z" style="fill:rgb(242,211,173);fill-rule:nonzero;"/>
                </g>
                <g transform="matrix(1,0,0,1,2343.33,1282.15)">
                    <path d="M0,1.028L-0.455,1.221L-0.998,0.916L-1.205,0.893L-3.497,-0.429L-1.597,1.457L0.603,1.368L0.769,1.114L0.635,0.783L0.614,0.767L0.543,0.798L0,1.028Z" style="fill:rgb(242,211,173);fill-rule:nonzero;"/>
                </g>
                <g transform="matrix(1,0,0,1,2339.69,1275.95)">
                    <path d="M0,-0.162L0.222,-1.59L0.233,-1.642L-0.807,1.04L-0.723,1.48L-0.624,1.255L0,-0.162Z" style="fill:rgb(242,211,173);fill-rule:nonzero;"/>
                </g>
                <g transform="matrix(1,0,0,1,2339.94,1279.65)">
                    <path d="M0,0.959L-0.673,-0.72L-1.17,-1.11L-0.744,0.167L-0.564,0.699L-0.532,0.793L-0.525,0.814L-0.518,0.837L-0.106,2.069L0.377,1.903L0,0.959Z" style="fill:rgb(242,211,173);fill-rule:nonzero;"/>
                </g>
                <g transform="matrix(1,0,0,1,2342.97,1281.83)">
                    <path d="M0,0.191L0.079,0.18L-0.285,0L0,0.191Z" style="fill:rgb(242,211,173);fill-rule:nonzero;"/>
                </g>
                <g transform="matrix(0.367659,0.929961,0.929961,-0.367659,2339.37,1280.02)">
                    <path d="M-0.062,-0.141L0.401,-0.141L0.305,-0.119L-0.255,-0.091L-0.062,-0.141Z" style="fill:rgb(242,211,173);fill-rule:nonzero;"/>
                </g>
                <g transform="matrix(0.231081,0.972935,0.972935,-0.231081,2343.2,1278.71)">
                    <path d="M-0.551,-0.846L0.868,-0.846L1.174,-0.722L-0.652,-0.807L-0.551,-0.846Z" style="fill:rgb(242,211,173);fill-rule:nonzero;"/>
                </g>
                <g transform="matrix(-0.535466,0.844557,0.844557,0.535466,2382.31,1316.42)">
                    <path d="M-0.504,-1.013L-0.274,-1.013L0.609,-0.295L-0.627,-0.882L-0.504,-1.013Z" style="fill:rgb(242,211,173);fill-rule:nonzero;"/>
                </g>
                <g transform="matrix(1,0,0,1,2381.52,1358.17)">
                    <path d="M0,-42.674L-1.519,-42.379L-1.939,-42.334L-1.935,-42.309L-1.953,-42.332L-4.72,-42.04L-5.055,-42.005L-5.562,-41.951L-6.944,-41.807L-7.032,-41.797L-7.156,-41.784L-7.607,-41.737L-8.09,-41.687L-8.023,-39.837L-7.103,-38.252L-6.666,-31.943L-6.49,-39.407L-6.535,-34.04L-6.948,-27.062L-6.927,-25.88L-5.294,-15.819L-4.981,-9.753L-5.71,-5.348L-5.583,-5.857L-6.049,-3.476L-6.158,0L-4.959,-1.644L-3.553,-2.113L-1.727,-1.955L-0.79,-0.937L-0.155,-0.011L-0.314,-2.521L-0.557,-5.96L0.081,-9.549L0.86,-15.029L2.471,-25.645L2.478,-26.55L2.133,-33.162L0.345,-40.301L0.212,-41.389L0.078,-42.52L0,-42.674Z" style="fill:rgb(242,211,173);fill-rule:nonzero;"/>
                </g>
                <g transform="matrix(1,0,0,1,2361.13,1363.33)">
                    <path d="M0,-1.342L-1.512,0L-0.162,-0.591L0,-1.342Z" style="fill:rgb(242,211,173);fill-rule:nonzero;"/>
                </g>
                <g transform="matrix(1,0,0,1,2363.27,1362.21)">
                    <path d="M0,-44.881L-1.562,-44.896L-1.706,-44.912L-2.668,-45.019L-4.184,-45.188L-5.154,-45.295L-5.559,-45.34L-6.165,-45.408L-6.208,-45.412L-5.873,-43.525L-5.665,-40.277L-6.479,-32.135L-6.257,-25.376L-3.828,-14.413L-2.63,-8.757L-1.727,-5.067L-1.84,-1.6L-2.136,-0.22L-2.298,0.531L-0.797,0.343L0.867,-0.016L2.75,-0.178L3.648,-0.191L3.469,-2.975L3.162,-5.234L2.207,-9.302L2.101,-16.277L3.567,-26.71L2.58,-34.1L1.756,-39.898L2.147,-43.214L2.09,-44.861L0.931,-44.872L0,-44.881Z" style="fill:rgb(242,211,173);fill-rule:nonzero;"/>
                </g>
                <g transform="matrix(1,0,0,1,2432.99,1354.56)">
                    <path d="M0,-15.819L-0.825,-15.808L-0.867,-15.808L-3.61,-15.807L-5.041,-15.807L-5.813,-15.806L-6.222,-15.806L-6,-14.666L-5.101,-12.876L-5.097,-12.661L-5.016,-6.304L-3.708,0.007L-0.169,0.007L-0.145,-0.19L-0.095,0.007L1.195,0.007L1.339,-2.855L1.022,-0.44L1.339,-2.855L2.09,-8.564L0.55,-13.9L0.571,-15.826L0.412,-15.824L0,-15.819Z" style="fill:rgb(242,211,173);fill-rule:nonzero;"/>
                </g>
                <g transform="matrix(1,0,0,1,2418.73,1352.85)">
                    <path d="M0,-14.098L-0.677,-14.099L-3.257,-14.127L-3.43,-14.129L-4.332,-14.139L-4.653,-14.141L-5.058,-14.143L-5.055,-13.081L-5.058,-14.143L-5.326,-14.145L-5.393,-14.145L-5.414,-14.146L-5.665,-11.505L-5.414,-9.618L-4.815,-4.373L-4.11,0.048L-3.899,-0.075L-3.476,-0.241L-2.982,-0.437L-2.757,-0.48L-1.033,-0.814L-1.029,-0.83L-0.994,-0.822L-0.937,-0.833L0.733,-0.804L0.86,-0.802L0.902,-0.801L1.315,-0.794L1.445,-0.696L1.928,-6.267L0.409,-12.15L1.065,-14.097L0.856,-14.098L0,-14.098Z" style="fill:rgb(242,211,173);fill-rule:nonzero;"/>
                </g>
                <g transform="matrix(1,0,0,1,2417.77,1285.85)">
                    <path d="M0,-0.333L-0.036,-0.295L-0.038,-0.292L-0.014,0.014L0,0.018L0.018,-0.351L0,-0.333Z" style="fill:rgb(242,211,173);fill-rule:nonzero;"/>
                </g>
                <g transform="matrix(1,0,0,1,2420.02,1285.53)">
                    <path d="M0,8.087L0.339,8L0.828,8.539L0.839,8.516L1.206,8.382L1.643,8.168L1.713,8.195L3.229,8.815L2.739,8.85L3.261,8.971L3.708,8.779L3.271,8.811L3.627,8.578L3.948,8.735L3.803,8.471L3.8,8.467L3.8,8.464L3.719,8.277L3.684,8.234L3.18,7.696L3.176,7.692L3.159,7.664L3.141,7.641L1.467,6.719L0.208,3.096L-0.176,2.365L-0.296,2.14L-0.324,2.091L-0.338,2.06L-0.976,3.159L-0.338,2.06L-0.479,1.772L-0.786,1.151L-0.969,0.78L-1.029,0.654L-1.163,0.547L-1.96,-0.095L-2.087,-0.199L-2.161,-0.032L-2.228,-0.039L-2.245,0.329L-2.238,0.33L-2.245,0.329L-2.242,0.411L-2.242,0.41L-2.242,0.51L-2.538,-0.08L-2.957,-0.788L-3.014,-0.884L-3.349,0.233L-3.483,1.81L-3.43,2.418L-2.876,4.877L-0.331,6.025L-0.24,8.203L-0.134,8.122L0,8.087Z" style="fill:rgb(242,211,173);fill-rule:nonzero;"/>
                </g>
                <g transform="matrix(1,0,0,1,2400.87,1278.16)">
                    <path d="M0,0.598L-0.004,0.621L0.053,0.551L0.156,0.322L0.142,-0.023L0,0.598Z" style="fill:rgb(242,211,173);fill-rule:nonzero;"/>
                </g>
                <g transform="matrix(1,0,0,1,2403.36,1275.19)">
                    <path d="M0,3.027L0.254,2.586L-0.172,0L0,3.027Z" style="fill:rgb(242,211,173);fill-rule:nonzero;"/>
                </g>
                <g transform="matrix(1,0,0,1,2400.58,1276.18)">
                    <path d="M0,-1.083L0.368,0.133L0.36,-0.036L0.314,-0.793L-0.042,-1.216L0,-1.083Z" style="fill:rgb(242,211,173);fill-rule:nonzero;"/>
                </g>
                <g transform="matrix(0.988659,-0.150176,-0.150176,-0.988659,2398.83,1278.42)">
                    <path d="M-0.011,-0.013L0.149,-0.013L0.029,0.032L-0.334,0.164L-0.011,-0.013Z" style="fill:rgb(242,211,173);fill-rule:nonzero;"/>
                </g>
                <g transform="matrix(1,0,0,1,2403.36,1277.81)">
                    <path d="M0,0.4L0,0.441L0.254,-0.041L0,0.4Z" style="fill:rgb(242,211,173);fill-rule:nonzero;"/>
                </g>
                <g transform="matrix(1,0,0,1,2400.62,1279.05)">
                    <path d="M0,0.005L0.021,0.212L0.028,0.275L0.265,-0.251L0.25,-0.27L0,0.005Z" style="fill:rgb(242,211,173);fill-rule:nonzero;"/>
                </g>
                <g transform="matrix(1,0,0,1,2400.5,1277.6)">
                    <path d="M0,0.449L0.192,0.259L-0.049,0L0,0.449Z" style="fill:rgb(242,211,173);fill-rule:nonzero;"/>
                </g>
                <g transform="matrix(1,0,0,1,2397.66,1278.21)">
                    <path d="M0,-1.42L-0.039,-0.845L-0.074,-0.356L-0.081,-0.228L0.028,-0.187L0.229,-0.115L0.292,-0.092L0.818,0.099L1.195,0.176L1.382,0.061L1.484,0.179L1.621,0.159L1.576,-0.039L1.502,-0.341L1.484,-0.416L1.421,-0.672L1.322,-1.087L1.403,-1.291L1.47,-1.462L1.389,-1.47L1.354,-1.474L0.807,-1.534L0.398,-1.578L0.187,-1.599L0,-1.42Z" style="fill:rgb(242,211,173);fill-rule:nonzero;"/>
                </g>
                <g transform="matrix(1,0,0,1,2406.35,1243.81)">
                    <path d="M0,49.994L0.208,49.663L0.536,49.138L0.867,48.61L1.65,48.276L1.935,48.156L2.326,47.99L0.328,45.924L-0.261,45.312L0.328,45.924L-1.671,42.629L-5.33,39.11L-5.443,38.015L-5.467,37.79L-5.513,37.32L-5.52,37.261L-5.527,37.201L-5.552,36.96L-5.527,37.201L-5.309,37.185L-5.185,37.014L-5.058,36.839L-3.582,34.814L-3.483,34.673L-3.359,34.502L-3.483,34.673L-3.582,34.814L-5.058,36.839L-5.185,37.014L-5.309,37.185L-5.52,37.261L-5.513,37.32L-5.467,37.79L-5.443,38.015L-4.53,37.58L-2.979,34.543L-2.986,34.44L-2.986,34.4L-3.158,31.372L-3.099,28.551L-3.215,27.684L-3.775,23.923L-6.229,11.621L-8.111,6.736L-10.695,0.015L-10.97,-0.694L-11.273,-0.585L-11.407,-0.537L-12.059,-0.302L-12.292,-0.218L-13.261,0.22L-14.678,0.861L-15.034,1.062L-15.595,1.379L-15.834,1.514L-16.43,1.851L-16.649,2.106L-13.818,9.249L-12.126,14.388L-7.776,24.108L-6.906,27.143L-6.69,27.625L-6.204,28.715L-6.69,27.625L-7.092,29.008L-7.66,29.745L-8.15,30.775L-8.375,31.925L-7.981,32.013L-7.625,32.093L-7.473,32.127L-7.406,32.395L-7.403,32.4L-7.66,32.732L-7.801,32.744L-7.871,32.807L-8.005,32.76L-8.228,32.778L-8.294,32.818L-7.885,32.862L-7.339,32.922L-7.304,32.926L-7.191,32.653L-5.929,31.096L-5.94,30.991L-6.194,30.69L-6.793,29.978L-6.194,30.69L-5.94,30.991L-5.806,31.15L-5.45,31.574L-5.467,31.26L-5.566,29.563L-5.467,31.26L-5.45,31.574L-5.404,32.331L-5.397,32.499L-5.333,34.322L-5.319,34.666L-5.421,34.895L-5.464,34.985L-5.7,35.511L-5.704,35.521L-5.763,35.655L-5.704,35.521L-5.7,35.511L-5.707,35.447L-5.728,35.241L-5.732,35.23L-5.834,34.326L-5.844,34.238L-5.894,33.79L-5.905,33.708L-6.75,32.822L-7.085,32.59L-7.223,32.935L-7.29,33.105L-7.371,33.309L-7.272,33.724L-7.209,33.98L-7.191,34.055L-7.117,34.357L-7.071,34.555L-6.613,34.488L-7.071,34.555L-7.209,34.575L-7.233,34.578L-7.325,34.592L-7.371,34.598L-7.529,34.622L-7.875,34.495L-8.4,34.304L-8.464,34.281L-8.665,34.209L-8.774,34.168L-8.823,34.15L-9.51,33.9L-8.823,34.15L-8.774,34.168L-8.767,34.04L-8.731,33.551L-8.693,32.976L-8.661,32.486L-8.693,32.976L-8.506,32.797L-8.294,32.818L-8.228,32.778L-8.005,32.76L-7.882,32.75L-7.85,32.747L-7.801,32.744L-7.66,32.732L-7.403,32.4L-7.406,32.395L-7.473,32.127L-7.625,32.093L-7.981,32.013L-8.375,31.925L-8.626,31.869L-9.535,32.442L-9.824,33.052L-10.148,34.264L-10.135,34.244L-9.951,34.006L-10.135,34.244L-10.148,34.264L-10.596,34.845L-10.755,35.223L-10.695,36.24L-8.249,40.235L-7.695,41.647L-3.881,47.06L-1.449,49.069L-1.636,48.772L-1.449,49.069L-0.437,50.688L-0.388,50.609L0,49.994Z" style="fill:rgb(242,211,173);fill-rule:nonzero;"/>
                </g>
                <g transform="matrix(1,0,0,1,2440.17,1322.35)">
                    <path d="M0,2.584L0.113,2.732L0.124,2.735L0.511,2.87L1.445,3.197L0.025,-0.227L-0.078,-0.379L-0.236,-0.613L-0.624,1.761L-0.032,2.542L0,2.584Z" style="fill:rgb(242,211,173);fill-rule:nonzero;"/>
                </g>
                <g transform="matrix(1,0,0,1,2441.34,1327.84)">
                    <path d="M0,0.634L0.247,0.713L0.761,0.876L2.538,-0.242L0.769,0.668L0,0.634Z" style="fill:rgb(242,211,173);fill-rule:nonzero;"/>
                </g>
                <g transform="matrix(1,0,0,1,2440.69,1325.16)">
                    <path d="M0,0.615L-0.01,0.06L-0.398,-0.075L-0.409,-0.079L-0.522,-0.226L-0.553,-0.269L-1.146,-1.049L-1.364,0.348L-0.79,1.66L-0.561,1.664L-0.427,1.664L0,0.615Z" style="fill:rgb(242,211,173);fill-rule:nonzero;"/>
                </g>
                <g transform="matrix(1,0,0,1,2439.68,1327.23)">
                    <path d="M0,0.209L0.07,0.09L0.063,0.082L0.052,0.023L-0.354,0L0,0.209Z" style="fill:rgb(242,211,173);fill-rule:nonzero;"/>
                </g>
                <g transform="matrix(1,0,0,1,2444.14,1310.9)">
                    <path d="M0,14.802L-1.354,11.214L-1.35,11.257L-1.265,12.732L-1.35,11.257L-1.354,11.214L-1.389,10.601L-3.504,4.561L-5.277,0.126L-5.904,-2.81L-6.084,-2.634L-6.366,-2.359L-6.637,-2.23L-7.219,-1.955L-7.579,-1.786L-8.389,-1.401L-8.682,-1.263L-9.369,-1.173L-9.912,-1.102L-8.657,1.909L-8.012,3.464L-8.657,1.909L-7.977,5.273L-4.209,10.836L-4.05,11.07L-3.948,11.222L-2.527,14.646L-2.164,15.523L-2.023,15.86L-1.967,16L-1.819,16.354L-1.766,16.482L-2.062,16.502L-2.154,16.508L-2.337,16.493L-2.746,16.457L-2.767,16.456L-3.081,16.429L-3.574,16.386L-3.719,16.374L-3.899,16.358L-3.951,16.354L-4.202,16.332L-4.332,16.321L-4.382,16.408L-4.389,16.422L-4.459,16.541L-4.494,16.604L-4.512,16.631L-4.417,16.815L-4.227,16.93L-3.934,17.104L-3.87,17.143L-3.62,17.292L-3.599,17.305L-3.581,17.315L-3.578,17.318L-3.557,17.33L-3.532,17.344L-3.359,17.449L-3.26,17.507L-3.172,17.559L-3.169,17.562L-2.795,17.578L-2.027,17.612L-0.257,16.702L0.106,16.026L0.25,15.61L0,14.802Z" style="fill:rgb(242,211,173);fill-rule:nonzero;"/>
                </g>
                <g transform="matrix(1,0,0,1,2439.69,1327.18)">
                    <path d="M0,-0.234L0.046,0.069L0.057,0.129L0.071,0.122L0.119,0.035L0.25,0.046L0.462,-0.043L0.553,0.073L0.733,0.088L0.877,0.101L0.44,-0.363L0,-0.234Z" style="fill:rgb(242,211,173);fill-rule:nonzero;"/>
                </g>
                <g transform="matrix(1,0,0,1,2440.34,1328.67)">
                    <path d="M0,-0.398L0,-0.16L0.268,0.088L1.248,-0.118L1,-0.196L0.628,-0.213L0.624,-0.215L0.536,-0.267L0.437,-0.326L0.265,-0.431L0.204,-0.449L0.117,-0.486L0,-0.398Z" style="fill:rgb(242,211,173);fill-rule:nonzero;"/>
                </g>
                <g transform="matrix(1,0,0,1,2440.34,1328.13)">
                    <path d="M0,0.01L0.12,0.059L0.208,0.096L0.18,0.062L-0.07,-0.086L0,0.01Z" style="fill:rgb(242,211,173);fill-rule:nonzero;"/>
                </g>
                <g transform="matrix(1,0,0,1,2438.95,1327.8)">
                    <path d="M0,-0.312L0.251,-0.024L1.184,0.255L1.259,0.205L0.966,0.03L0.776,-0.084L0.681,-0.268L0.699,-0.296L0.592,-0.345L0.38,-0.567L0,-0.312Z" style="fill:rgb(242,211,173);fill-rule:nonzero;"/>
                </g>
                <g transform="matrix(1,0,0,1,2441.77,1326.42)">
                    <path d="M0,0.612L0.341,0.337L0.2,0L0,0.612Z" style="fill:rgb(242,211,173);fill-rule:nonzero;"/>
                </g>
                <g transform="matrix(1,0,0,1,2441.77,1327.13)">
                    <path d="M0,-0.098L-0.384,0.214L-0.38,0.224L0.028,0.26L0.21,0.275L0.303,0.268L0.598,0.248L0.546,0.121L0.398,-0.234L0.341,-0.373L0,-0.098Z" style="fill:rgb(242,211,173);fill-rule:nonzero;"/>
                </g>
            </g>
        </g>
    </g>
</svg>
