<?xml version="1.0" encoding="UTF-8" standalone="no"?>
<!DOCTYPE svg PUBLIC "-//W3C//DTD SVG 1.1//EN" "http://www.w3.org/Graphics/SVG/1.1/DTD/svg11.dtd">
<svg width="100%" height="100%" viewBox="0 0 140 220" version="1.1" xmlns="http://www.w3.org/2000/svg" xmlns:xlink="http://www.w3.org/1999/xlink" xml:space="preserve" xmlns:serif="http://www.serif.com/" style="fill-rule:evenodd;clip-rule:evenodd;stroke-linejoin:round;stroke-miterlimit:2;">
    <g transform="matrix(1,0,0,1,-406.049,-1636.13)">
        <g id="people-06">
            <g>
                <g transform="matrix(1,0,0,1,471.29,1821.46)">
                    <path d="M0,-0.143L-0.01,0L0.714,-0.143L0,-0.143Z" style="fill:rgb(242,211,173);fill-rule:nonzero;"/>
                </g>
                <g transform="matrix(-0.0810334,0.996711,0.996711,0.0810334,471.069,1821.1)">
                    <rect x="0.25" y="-0.373" width="0.094" height="0.614" style="fill:rgb(242,211,173);"/>
                </g>
                <g transform="matrix(0.22242,-0.974951,-0.974951,-0.22242,459.061,1765.42)">
                    <path d="M-2.603,2.651L-1.196,2.651L2.461,3.067L3.233,3.663L-2.603,2.651Z" style="fill:rgb(0,188,218);fill-rule:nonzero;"/>
                </g>
                <g transform="matrix(-0.110849,0.993837,0.993837,0.110849,457.495,1763.57)">
                    <path d="M-1.125,-1.007L2.556,-1.007L2.387,-0.989L-2.78,-1.006L-1.125,-1.007Z" style="fill:rgb(0,188,218);fill-rule:nonzero;"/>
                </g>
                <g transform="matrix(1,0,0,1,470.605,1821.91)">
                    <path d="M0,1.908L3.51,1.908L3.525,1.683L3.525,0.729L7.24,0.729L7.24,1.683L7.254,1.908L9.926,1.908L9.837,0.681L9.635,0.657L9.143,-0.139L8.877,-0.569L8.877,-0.595L2.213,-0.595L2.213,-0.569L1.946,-0.139L1.454,0.657L0.674,0.75L-0.032,0.674L-0.179,2.503L0,2.503L0,1.908Z" style="fill:rgb(250,192,41);fill-rule:nonzero;"/>
                </g>
                <g transform="matrix(1,0,0,1,472.059,1821.41)">
                    <path d="M0,1.158L0.492,0.363L0.759,-0.068L0.759,-0.094L-0.055,-0.094L-0.78,0.049L-1.393,0.029L-1.486,1.175L-0.78,1.252L0,1.158Z" style="fill:rgb(250,192,41);fill-rule:nonzero;"/>
                </g>
                <g transform="matrix(1,0,0,1,474.152,1806.47)">
                    <path d="M0,-0.1L-0.12,0L0.256,-0.1L0,-0.1Z" style="fill:rgb(250,192,41);fill-rule:nonzero;"/>
                </g>
                <g transform="matrix(1,0,0,1,478.386,1806.47)">
                    <path d="M0,-0.1L0.375,0L0.255,-0.1L0,-0.1Z" style="fill:rgb(250,192,41);fill-rule:nonzero;"/>
                </g>
                <g transform="matrix(1,0,0,1,471.29,1806.37)">
                    <path d="M-0.614,14.945L9.059,14.945L9.031,14.562L10.343,6.822L10.494,3.151L10.413,1.59L10.359,1.288L10.127,0L9.631,0L9.389,0.011L8.653,0.166L7.471,0.1L7.095,0L3.117,0L2.741,0.1L1.559,0.166L0.823,0.011L0.581,0L-1.9,0L-2.067,1.108L-2.059,1.288L-1.826,6.822L-0.583,14.562L-0.614,14.945Z" style="fill:rgb(250,192,41);fill-rule:nonzero;"/>
                </g>
                <g transform="matrix(1,0,0,1,480.241,1822.6)">
                    <path d="M0.055,-1.276L-0.76,-1.276L-0.76,-1.251L-0.492,-0.819L0,-0.024L0.202,0L0.109,-1.266L0.055,-1.276Z" style="fill:rgb(250,192,41);fill-rule:nonzero;"/>
                </g>
                <g transform="matrix(1,0,0,1,471.871,1768.93)">
                    <path d="M-2.481,37.445L9.546,37.445L9.261,35.851L9.208,35.559L9,34.399L8.878,30.087L8.765,26.117L8.676,23.025L6.383,12.849L5.161,3.487L4.601,0L3.822,0.352L3.043,0L3.036,0.002L2.461,3.487L1.14,12.849L-1.341,23.025L-1.379,23.822L-1.678,30.087L-1.903,34.399L-1.965,34.716L-2.129,35.559L-2.151,35.671L-2.424,37.065L-2.481,37.445Z" style="fill:rgb(250,192,41);fill-rule:nonzero;"/>
                </g>
                <g transform="matrix(1,0,0,1,496.829,1808.79)">
                    <path d="M0,-28.559L-0.133,-29.826L-0.486,-31.373L-2.126,-38.567L-2.589,-40.597L-2.704,-40.909L-2.856,-41.317L-2.912,-41.47L-3.161,-42.144L-3.235,-42.144L-3.267,-40.73L-3.283,-39.99L-3.384,-35.434L-3.475,-32.648L-3.687,-26.159L-4.782,-16.208L-5.328,-9.959L-5.854,-5.88L-5.858,-5.743L-5.888,-4.3L-5.929,-2.414L-2.232,-2.414L-1.901,-4.3L-1.225,-9.622L-1.901,-4.3L-2.232,-2.414L-5.929,-2.414L-5.942,-1.785L-5.89,-1.126L-5.269,6.617L-5.237,7.899L-2.232,-1.126L-5.237,7.899L-5.232,8.104L-5.097,13.585L-2.915,9.055L0.252,0.662L0.833,-11.215L0.608,-11.271L0.679,-12.727L0.309,-12.727L0.309,-17.977L0.309,-17.764L1.134,-17.764L1.125,-17.839L0.947,-19.541L0,-28.559Z" style="fill:rgb(250,192,41);fill-rule:nonzero;"/>
                </g>
                <g transform="matrix(1,0,0,1,455.885,1811.35)">
                    <path d="M0,-33.937L-0.353,-32.39L-1.433,-22.105L-1.609,-20.418L-1.619,-20.328L-1.049,-20.328L-1.049,-20.541L-1.049,-15.291L-1.418,-15.291L-1.347,-13.835L-1.572,-13.779L-1.029,-2.673L2.429,6.491L3.418,8.543L3.537,4.053L3.652,2.64L3.692,2.153L1.747,-3.69L3.692,2.153L4.17,-3.69L4.224,-4.349L4.212,-4.978L1.747,-4.978L1.415,-6.864L0.739,-12.186L1.415,-6.864L1.747,-4.978L4.212,-4.978L4.209,-5.132L4.177,-6.864L4.147,-8.444L3.668,-12.523L3.177,-18.772L2.871,-22.051L2.25,-28.723L2.035,-37.998L1.948,-42.48L1.641,-41.131L0,-33.937Z" style="fill:rgb(250,192,41);fill-rule:nonzero;"/>
                </g>
                <g transform="matrix(1,0,0,1,472.894,1832.56)">
                    <path d="M0,-2.525L-0.177,-2.277L-0.089,-0.437L1.625,0L1.625,-1.183L0.812,-1.571L0,-2.525Z" style="fill:rgb(250,192,41);fill-rule:nonzero;"/>
                </g>
                <g transform="matrix(1,0,0,1,479.495,1832.04)">
                    <path d="M0,-1.425L-0.414,-2.007L-1.226,-1.053L-2.039,-0.665L-2.039,0.582L-0.072,0.081L0,-1.425Z" style="fill:rgb(250,192,41);fill-rule:nonzero;"/>
                </g>
                <g transform="matrix(1,0,0,1,487.504,1683.13)">
                    <path d="M0,10.498L0.15,5.486L-0.758,0.151L-1.175,0L-1.005,1.517L0,10.498Z" style="fill:rgb(63,38,19);fill-rule:nonzero;"/>
                </g>
                <g transform="matrix(1,0,0,1,479.612,1706.95)">
                    <path d="M0,0.075L-0.053,-0.821L-0.092,-1.467L-0.226,-1.14L-2.227,-0.243L-4.449,1.542L-3.918,1.44L-2.219,1.11L1.923,0.308L0.009,0.265L0,0.075Z" style="fill:rgb(63,38,19);fill-rule:nonzero;"/>
                </g>
                <g transform="matrix(1,0,0,1,466.021,1680.46)">
                    <path d="M0,26.107L-0.044,26.04L-1.192,24.318L-1.631,23.659L-1.192,24.318L-0.044,26.04L0,26.107L0.132,26.304L0.376,26.672L0.743,27.221L1.466,27.28L2.677,27.377L5.794,27.629L7.658,27.853L9.142,28.032L11.363,26.247L9.144,27.241L11.363,26.247L13.365,25.35L11.536,24.94L10.237,25.468L11.536,24.94L13.365,25.35L13.499,25.023L13.685,24.567L14.319,23.021L14.564,22.423L13.958,19.045L15.837,16.806L13.958,19.045L14.564,22.423L14.319,23.021L13.685,24.567L13.499,25.023L13.537,25.669L13.591,26.565L13.599,26.755L15.514,26.797L15.825,26.334L16.104,25.918L16.403,25.472L17.305,24.128L16.403,25.472L17.444,25.781L18.084,25.971L18.105,25.867L18.106,25.845L18.11,25.788L18.065,21.29L18.06,20.753L17.97,20.638L16.607,18.889L17.97,20.638L18.06,20.753L18.065,21.29L19.801,15.121L20.513,15.131L21.483,13.17L20.478,4.189L20.309,2.672L20.235,2.015L16.121,0.235L13.715,-1.925L11.607,-1.383L8.835,-1.925L5.302,-0.675L1.654,4.264L-0.269,11.237L-0.774,15.35L-1.234,17.468L-2.309,21.869L-2.505,22.672L-2.768,23.751L-2.813,23.936L-2.768,23.751L-2.505,22.672L-2.309,21.869L-3.065,23.044L-3.233,24.341L-3.005,25.141L-0.396,25.979L-0.156,26.057L0,26.107Z" style="fill:rgb(63,38,19);fill-rule:nonzero;"/>
                </g>
                <g transform="matrix(1,0,0,1,465.87,1706.44)">
                    <path d="M0,0.41L0.115,0.376L0.283,0.326L0.151,0.129L-0.005,0.079L-0.245,0L0,0.41Z" style="fill:rgb(63,38,19);fill-rule:nonzero;"/>
                </g>
                <g transform="matrix(-0.0745583,0.997217,0.997217,0.0745583,484.488,1706.14)">
                    <path d="M0.214,-0.347L0.321,-0.347L0.42,0.108L0.082,0.188L0.214,-0.347Z" style="fill:rgb(63,38,19);fill-rule:nonzero;"/>
                </g>
                <g transform="matrix(1,0,0,1,456.446,1733.82)">
                    <path d="M0,-12.797L0.51,-12.69L0.643,-12.662L2.409,-12.291L2.855,-12.306L3.519,-12.328L5.052,-12.379L5.471,-12.393L6.16,-12.416L6.345,-12.422L6.396,-12.424L6.655,-13.099L6.703,-13.225L7.216,-14.562L6.703,-13.225L6.655,-13.099L6.396,-12.424L6.314,-12.173L6.272,-11.838L6.241,-11.585L6.863,-5.028L7.613,-0.933L8.096,8.953L6.069,15.094L10.691,14.111L14.336,13.728L19.248,13.594L24.159,13.728L27.804,14.111L32.426,15.094L30.399,8.953L30.882,-0.933L31.632,-5.028L32.254,-11.585L32.222,-11.838L32.181,-12.173L32.099,-12.424L31.84,-13.099L31.792,-13.225L31.279,-14.562L31.792,-13.225L31.84,-13.099L32.099,-12.424L32.15,-12.422L32.336,-12.416L33.024,-12.393L33.442,-12.379L34.976,-12.328L35.639,-12.306L36.086,-12.291L37.852,-12.662L37.985,-12.69L38.495,-12.797L39.191,-12.866L39.624,-12.91L39.671,-12.914L38.659,-17.733L36.911,-22.762L34.696,-25.397L31.542,-26.243L28.119,-27.257L27.672,-27.389L27.66,-27.393L27.02,-27.583L25.978,-27.891L25.679,-27.445L25.4,-27.029L25.089,-26.566L20.947,-25.764L19.248,-25.434L18.717,-25.332L17.233,-25.51L15.369,-25.734L12.253,-25.986L11.041,-26.084L10.318,-26.142L9.952,-26.692L9.707,-27.059L9.54,-27.009L9.424,-26.975L6.953,-26.243L3.798,-25.397L1.584,-22.762L-0.164,-17.733L-1.174,-12.914L-1.129,-12.91L-0.697,-12.866L0,-12.797Z" style="fill:white;fill-rule:nonzero;"/>
                </g>
                <g transform="matrix(1,0,0,1,481.07,1834.52)">
                    <path d="M0,-2.668L0.029,-1.65L0.042,-1.182L0.104,0.978L0.105,1.021L0.288,0.677L-0.029,-3.689L0,-2.668Z" style="fill:rgb(66,76,160);fill-rule:nonzero;"/>
                </g>
                <g transform="matrix(1,0,0,1,491.861,1757.3)">
                    <path d="M0,1.039L0,0.267L-0.299,0L0,1.039Z" style="fill:rgb(66,76,160);fill-rule:nonzero;"/>
                </g>
                <g transform="matrix(1,0,0,1,490.704,1750.14)">
                    <path d="M0,3.296L-0.015,2.325L0.233,2.151L-0.443,1.157L-0.389,0.547L-0.387,0.544L-1.431,-0.556L-1.651,-0.694L-0.491,2.674L-0.155,3.65L-0.057,3.99L0.048,3.529L0,3.296Z" style="fill:rgb(66,76,160);fill-rule:nonzero;"/>
                </g>
                <g transform="matrix(1,0,0,1,461.126,1753.1)">
                    <path d="M0,-1.81L-0.676,-0.815L-0.429,-0.642L-0.443,0.329L-0.492,0.562L-0.387,1.024L-0.288,0.683L0.923,-2.834L-0.004,-1.857L0,-1.81Z" style="fill:rgb(66,76,160);fill-rule:nonzero;"/>
                </g>
                <g transform="matrix(1,0,0,1,491.095,1756.36)">
                    <path d="M0,70.523L0.22,69.018L0.313,68.385L0.444,67.486L0.538,66.849L0.538,66.845L0.64,66.146L0.637,66.008L0.502,60.528L0.497,60.322L0.465,59.04L-0.155,51.298L-0.208,50.638L-0.668,46.169L-0.12,46.544L0.406,42.464L0.952,36.216L2.047,26.265L2.259,19.775L2.35,16.99L2.451,12.433L2.467,11.694L2.499,10.279L2.503,10.09L2.517,9.448L2.525,9.104L2.494,8.966L2.185,7.604L1.69,5.417L1.556,4.826L1.437,4.299L0.766,1.972L0.467,0.933L0.346,0.515L0.295,0.339L0.098,-0.345L0.037,-0.558L0.018,-0.623L-0.047,-0.847L-0.056,-0.879L-0.106,-1.055L-0.243,-1.527L-0.365,-1.952L-0.397,-2.061L-0.447,-2.238L-0.546,-2.578L-0.882,-3.554L-2.041,-6.922L-2.223,-7.45L-6.844,-8.433L-10.49,-8.816L-15.401,-8.95L-20.313,-8.816L-23.958,-8.433L-28.579,-7.45L-29.046,-6.096L-30.257,-2.578L-30.596,3.584L-32.239,4.299L-32.372,4.883L-32.768,6.636L-32.884,7.147L-33.192,8.506L-33.327,9.104L-33.293,10.892L-33.286,11.236L-33.273,11.89L-33.262,12.507L-33.175,16.99L-32.959,26.265L-32.338,32.936L-32.033,36.216L-31.541,42.464L-31.062,46.544L-31.033,48.123L-31,49.855L-30.997,50.01L-30.986,50.638L-31.039,51.298L-31.517,57.14L-31.558,57.627L-31.673,59.04L-31.792,63.53L-31.835,65.15L-31.861,66.146L-31.834,66.356L-31.832,66.37L-31.739,67.088L-31.609,68.088L-31.531,68.686L-31.52,68.775L-31.364,69.978L-30.132,79.473L-29.014,79.366L-28.819,79.359L-28.625,79.352L-27.901,79.327L-26.586,79.28L-26.538,79.278L-25.739,79.233L-24.822,79.182L-24.658,79.172L-23.917,79.07L-23.323,78.988L-22.659,78.896L-22.632,78.895L-22.616,78.894L-21.982,78.858L-21.933,78.855L-21.54,78.834L-21.536,78.792L-21.497,78.303L-21.408,77.2L-21.275,75.552L-21.175,74.324L-21.168,74.235L-20.834,70.1L-20.786,69.5L-20.717,68.652L-20.669,68.052L-20.521,66.223L-20.428,65.077L-20.419,64.954L-20.388,64.571L-21.63,56.831L-21.863,51.298L-21.871,51.117L-21.704,50.01L-21.647,49.63L-21.241,46.935L-21.647,49.63L-21.375,48.235L-21.353,48.123L-21.188,47.28L-21.126,46.964L-20.901,42.651L-20.602,36.386L-20.564,35.59L-18.083,25.414L-16.762,16.052L-16.187,12.567L-19.531,13.675L-23.656,12.424L-19.531,13.675L-16.187,12.567L-16.18,12.565L-15.401,12.917L-14.622,12.565L-14.062,16.052L-12.84,25.414L-10.547,35.59L-10.459,38.682L-10.345,42.651L-10.223,46.964L-10.015,48.123L-9.963,48.415L-9.677,50.01L-9.446,51.298L-9.391,51.599L-9.31,53.16L-9.226,51.117L-9.31,53.16L-9.461,56.831L-10.773,64.571L-10.745,64.954L-10.744,64.965L-10.652,66.23L-10.563,67.457L-10.332,70.64L-10.289,71.229L-10.187,72.63L-10.181,72.718L-10.093,73.931L-10.054,74.467L-9.736,78.834L-9.04,78.861L-8.862,78.868L-8.638,78.876L-8.128,78.896L-7.686,78.951L-6.987,79.038L-5.977,79.163L-5.902,79.172L-5.065,79.22L-4.298,79.264L-4.047,79.278L-3.159,79.315L-2.728,79.333L-2.614,79.338L-1.94,79.366L-1.309,79.473L-0.452,73.612L-0.291,72.51L0,70.523Z" style="fill:rgb(66,76,160);fill-rule:nonzero;"/>
                </g>
                <g transform="matrix(1,0,0,1,456.209,1759)">
                    <path d="M0,2.46L0.41,3.345L0.593,1.7L0.593,1.69L0.595,1.687L0.611,1.531L0.766,0.104L0.95,-0.872L0.786,-0.833L0.713,-0.885L0,2.46Z" style="fill:rgb(66,76,160);fill-rule:nonzero;"/>
                </g>
                <g transform="matrix(-0.111171,0.993801,0.993801,0.111171,491.951,1754.28)">
                    <path d="M0.041,-0.356L0.338,-0.356L0.344,0.057L-0.03,0.031L0.041,-0.356Z" style="fill:rgb(66,76,160);fill-rule:nonzero;"/>
                </g>
                <g transform="matrix(1,0,0,1,491.867,1752.84)">
                    <path d="M0,-0.4L-0.363,-0.203L-0.402,-0.186L-0.373,-0.159L-0.285,0.128L0.181,-0.119L0.189,-0.329L0.001,-0.528L0,-0.4Z" style="fill:rgb(66,76,160);fill-rule:nonzero;"/>
                </g>
                <g transform="matrix(1,0,0,1,495.556,1760.99)">
                    <path d="M0,0.921L0.209,0.47L-0.099,0L0,0.921Z" style="fill:rgb(66,76,160);fill-rule:nonzero;"/>
                </g>
                <g transform="matrix(1,0,0,1,473.671,1806.54)">
                    <path d="M0.269,-0.165L-1.609,-0.165L-1.557,-0.154L-0.822,0L0.36,-0.065L0.269,-0.165Z" style="fill:rgb(66,76,160);fill-rule:nonzero;"/>
                </g>
                <g transform="matrix(1,0,0,1,480.233,1806.54)">
                    <path d="M0.498,-0.165L-1.381,-0.165L-1.472,-0.065L-0.29,0L0.446,-0.154L0.498,-0.165Z" style="fill:rgb(66,76,160);fill-rule:nonzero;"/>
                </g>
                <g transform="matrix(-0.983718,0.179718,0.179718,0.983718,479.478,1851.93)">
                    <path d="M-0.09,-0.052L0.122,-0.052L-0.161,0.044L-0.215,-0.051L-0.09,-0.052Z" style="fill:rgb(142,142,142);fill-rule:nonzero;"/>
                </g>
                <g transform="matrix(1,0,0,1,480.644,1848.88)">
                    <path d="M0,0.086L0.077,2.069L0.103,1.985L0.011,-1.674L-0.081,-1.983L0,0.086Z" style="fill:rgb(142,142,142);fill-rule:nonzero;"/>
                </g>
                <g transform="matrix(1,0,0,1,480.718,1853.36)">
                    <path d="M0,0.025L-0.159,-1.876L-0.438,-1.312L-1.073,-1.41L-1.368,-1.455L-1.803,-0.135L-1.423,1.832L-0.494,1.901L0.157,1.901L0.081,0.998L0,0.025Z" style="fill:rgb(142,142,142);fill-rule:nonzero;"/>
                </g>
                <g transform="matrix(1,0,0,1,487.346,1853.54)">
                    <path d="M0,-1.428L-0.185,-1.662L-1.117,-2.841L-1.137,-2.844L-2.087,-2.982L-3.217,-3.146L-5.131,-3.146L-6.086,-2.941L-6.54,-2.843L-6.548,-2.841L-6.599,-2.676L-6.625,-2.592L-6.787,-2.059L-6.628,-0.158L-6.547,0.815L-6.471,1.718L1.699,1.718L1.174,-0.416L0.885,-0.598L0.426,-0.89L0,-1.428Z" style="fill:rgb(142,142,142);fill-rule:nonzero;"/>
                </g>
                <g transform="matrix(1,0,0,1,479.786,1840.83)">
                    <path d="M0,10.702L0.804,8.3L0.858,8.14L0.777,6.071L0.835,5.744L1.16,3.916L1.29,3.342L1.732,1.384L2.02,0.106L2.12,-0.338L-0.228,-0.338L-0.228,11.04L-0.106,11.019L0,10.702Z" style="fill:rgb(142,142,142);fill-rule:nonzero;"/>
                </g>
                <g transform="matrix(-0.887512,0.460785,0.460785,0.887512,456.938,1839.91)">
                    <path d="M-2.139,-1.502L-0.142,-1.502L-1.206,0.294L-2.139,-1.502Z" style="fill:rgb(142,142,142);fill-rule:nonzero;"/>
                </g>
                <g transform="matrix(1,0,0,1,457.254,1849.05)">
                    <rect x="-4.376" y="-8.562" width="4.376" height="14.721" style="fill:rgb(142,142,142);fill-rule:nonzero;"/>
                </g>
                <g transform="matrix(1,0,0,1,458.677,1849.87)">
                    <rect x="-1.424" y="-3.22" width="1.424" height="3.22" style="fill:rgb(142,142,142);fill-rule:nonzero;"/>
                </g>
                <g transform="matrix(1,0,0,1,460.112,1839.06)">
                    <path d="M0,6.508L-0.246,5.763L-0.264,5.709L-1.091,3.206L-1.128,3.091L-1.186,2.918L-1.967,0.552L-2.853,0L-1.434,6.508L0,6.508Z" style="fill:rgb(142,142,142);fill-rule:nonzero;"/>
                </g>
                <g transform="matrix(1,0,0,1,458.677,1839.06)">
                    <path d="M0,6.83L0,6.508L-1.419,0L-0.42,4.808L-0.173,5.997L0,6.83Z" style="fill:rgb(142,142,142);fill-rule:nonzero;"/>
                </g>
                <g transform="matrix(1,0,0,1,458.677,1845.34)">
                    <path d="M0,1.028L0,0.553L-0.173,-0.28L-0.42,-0.041L-1.023,0.54L-1.023,1.308L-0.29,1.308L0,1.028Z" style="fill:rgb(142,142,142);fill-rule:nonzero;"/>
                </g>
                <g transform="matrix(1,0,0,1,460.739,1846.73)">
                    <path d="M0,-0.58L-0.61,-1.184L-0.627,-1.206L-0.627,-0.361L0.395,0.626L0.395,-0.286L0,-0.58Z" style="fill:rgb(142,142,142);fill-rule:nonzero;"/>
                </g>
                <g transform="matrix(1,0,0,1,458.677,1849.98)">
                    <rect x="0" y="-3.257" width="1.434" height="3.257" style="fill:rgb(142,142,142);fill-rule:nonzero;"/>
                </g>
                <g transform="matrix(1,0,0,1,456.379,1838.51)">
                    <path d="M1.765,-0.921L-2.09,-0.921L-4.529,0L-0.006,0L1.765,-0.921Z" style="fill:rgb(142,142,142);fill-rule:nonzero;"/>
                </g>
                <g transform="matrix(1,0,0,1,0,986.895)">
                    <rect x="458.677" y="863.083" width="1.434" height="1.029" style="fill:rgb(142,142,142);"/>
                </g>
                <g transform="matrix(1,0,0,1,460.112,1849.39)">
                    <path d="M0,-3.026L0,0.355L1.023,-0.632L1.023,-2.039L0,-3.026Z" style="fill:rgb(142,142,142);fill-rule:nonzero;"/>
                </g>
                <g transform="matrix(1,0,0,1,458.388,1846.37)">
                    <path d="M0,0.28L0.289,0.28L0.289,0L0,0.28Z" style="fill:rgb(142,142,142);fill-rule:nonzero;"/>
                </g>
                <g transform="matrix(1,0,0,1,458.677,1846.4)">
                    <rect x="0" y="-0.83" width="1.434" height="1.152" style="fill:rgb(142,142,142);fill-rule:nonzero;"/>
                </g>
                <g transform="matrix(1,0,0,1,451.76,1800.34)">
                    <path d="M0,-4.281L-0.245,-2.596L-0.245,-0.288L0.304,0L0.539,0L0.467,-1.494L0.41,-2.648L0.326,-2.653L0.174,-2.796L0.129,-3.724L0.101,-4.281L0,-4.281Z" style="fill:rgb(142,142,142);fill-rule:nonzero;"/>
                </g>
                <g transform="matrix(1,0,0,1,451.846,1790.43)">
                    <path d="M0,5.327L0.015,5.635L0.042,6.192L0.087,7.12L0.699,6.968L1.714,6.897L2.54,6.948L2.692,7.091L2.621,5.635L2.614,5.496L2.621,5.635L2.99,5.635L2.99,0.598L2.419,0.598L2.237,2.277L2.155,3.027L2.237,2.277L2.419,0.598L2.429,0.509L1.88,0.798L1.207,0.798L0.66,0.508L0.667,-1.793L0.589,-1.081L0.539,-0.631L0.496,-0.232L0.539,-0.631L0.589,-1.081L-0.462,-1.081L-0.462,5.635L0.015,5.635L0,5.327Z" style="fill:rgb(142,142,142);fill-rule:nonzero;"/>
                </g>
                <g transform="matrix(1,0,0,1,500.468,1792.93)">
                    <path d="M0.061,3.132L-0.172,3.132L0.122,3.132L0.122,-3.584L-0.675,-3.584L-0.625,-3.134L-0.582,-2.734L-0.625,-3.134L-0.675,-3.584L-0.751,-4.281L-0.744,-1.98L-1.292,-1.69L-1.964,-1.69L-2.513,-1.98L-2.505,-1.905L-2.323,-0.226L-2.241,0.524L-2.323,-0.226L-2.505,-1.905L-3.329,-1.905L-3.329,3.132L-2.96,3.132L-2.953,2.993L-2.96,3.132L-3.031,4.588L-2.879,4.445L-2.054,4.394L-1.038,4.465L-0.427,4.617L-0.346,2.961L-0.339,2.824L-0.346,2.961L-0.427,4.617L-0.579,4.76L-0.591,4.761L-0.662,4.765L-0.792,7.41L-0.304,7.41L-0.304,7.413L0.245,7.124L0.245,4.817L0.061,3.132Z" style="fill:rgb(142,142,142);fill-rule:nonzero;"/>
                </g>
                <g transform="matrix(1,0,0,1,460.301,1763.66)">
                    <path d="M0,-8.015L0,-8.023L-0.005,-8.125L-0.006,-8.171L-0.012,-8.316L-0.063,-9.539L-0.066,-9.599L-0.067,-9.624L-0.075,-9.833L-0.084,-10.03L-0.089,-10.171L-0.097,-10.341L-0.11,-10.676L-0.113,-10.751L-0.138,-11.326L-0.151,-11.646L-0.179,-12.326L-0.302,-12.423L-0.33,-12.431L-1.263,-12.692L-1.455,-12.722L-1.55,-12.737L-1.624,-12.749L-1.898,-11.464L-1.999,-10.993L-2.063,-10.692L-2.126,-10.398L-2.239,-9.869L-2.263,-9.758L-2.266,-9.741L-2.316,-9.51L-2.326,-9.462L-2.374,-9.237L-2.468,-8.796L-2.541,-8.456L-2.544,-8.441L-2.556,-8.384L-2.613,-8.119L-2.663,-7.885L-2.723,-7.602L-2.77,-7.382L-2.832,-7.093L-2.843,-7.039L-2.859,-6.963L-2.943,-6.574L-2.963,-6.481L-3.018,-6.186L-3.024,-6.158L-3.137,-5.564L-3.137,-5.561L-3.142,-5.538L-3.327,-4.561L-3.481,-3.135L-3.497,-2.979L-3.498,-2.976L-3.499,-2.965L-4.053,2.172L-4.053,4.319L-3.514,4.654L-2.852,4.734L-2.48,4.593L-2.493,3.939L-2.499,3.595L-2.534,1.807L-2.398,1.209L-2.515,0.935L-2.638,0.646L-3.327,-0.969L-2.963,-2.889L-3.327,-0.969L-2.638,0.646L-2.515,0.935L-2.398,1.209L-2.091,-0.15L-1.975,-0.661L-1.578,-2.414L-1.446,-2.999L-0.391,-6.659L0,-8.015Z" style="fill:rgb(142,142,142);fill-rule:nonzero;"/>
                </g>
                <g transform="matrix(1,0,0,1,459.972,1751.1)">
                    <path d="M0,0.133L0.028,0.141L0.46,0.261L-0.444,-0.05L-0.933,-0.128L0,0.133Z" style="fill:rgb(142,142,142);fill-rule:nonzero;"/>
                </g>
                <g transform="matrix(1,0,0,1,472.057,1837.51)">
                    <path d="M0,0.045L0.473,0.091L0.181,-0.046L0,0.045Z" style="fill:rgb(142,142,142);fill-rule:nonzero;"/>
                </g>
                <g transform="matrix(1,0,0,1,0,971.548)">
                    <rect x="478.636" y="868.326" width="0.612" height="5.89" style="fill:rgb(142,142,142);"/>
                </g>
                <g transform="matrix(1,0,0,1,475.24,1836.32)">
                    <path d="M0,0.995L-0.427,0.574L-0.495,0.49L-0.722,0.247L-0.722,-0.017L-1.527,0.391L-2.287,0.775L-2.379,0.823L0.017,1.012L0,0.995Z" style="fill:rgb(142,142,142);fill-rule:nonzero;"/>
                </g>
                <g transform="matrix(1,0,0,1,479.148,1839.17)">
                    <path d="M0,-2.005L-2.452,-1.812L-2.552,-1.713L-3.769,-1.713L-3.891,-1.833L-6.287,-2.022L-6.909,-1.707L-6.618,-1.57L-4.719,-0.674L-4.719,0.017L-1.349,0.017L-1.349,-0.674L0.55,-1.57L0.71,-1.645L0,-2.005Z" style="fill:rgb(142,142,142);fill-rule:nonzero;"/>
                </g>
                <g transform="matrix(1,0,0,1,479.061,1836.54)">
                    <path d="M0,0.576L-0.759,0.191L-1.605,-0.237L-1.605,0.031L-1.853,0.296L-1.9,0.354L-2.354,0.802L-2.366,0.813L0.087,0.62L0,0.576Z" style="fill:rgb(142,142,142);fill-rule:nonzero;"/>
                </g>
                <g transform="matrix(1,0,0,1,472.98,1848.89)">
                    <rect x="0" y="-3.127" width="0.612" height="3.127" style="fill:rgb(142,142,142);fill-rule:nonzero;"/>
                </g>
                <g transform="matrix(1,0,0,1,0,971.548)">
                    <rect x="472.98" y="868.326" width="0.612" height="5.89" style="fill:rgb(142,142,142);"/>
                </g>
                <g transform="matrix(1,0,0,1,478.636,1848.89)">
                    <rect x="0" y="-3.127" width="0.612" height="3.127" style="fill:rgb(142,142,142);fill-rule:nonzero;"/>
                </g>
                <g transform="matrix(1,0,0,1,478.635,1848.38)">
                    <rect x="-5.043" y="-1.518" width="5.043" height="2.024" style="fill:rgb(142,142,142);fill-rule:nonzero;"/>
                </g>
                <g transform="matrix(1,0,0,1,477.799,1839.87)">
                    <rect x="-4.818" y="-0.69" width="6.267" height="0.69" style="fill:rgb(142,142,142);fill-rule:nonzero;"/>
                </g>
                <g transform="matrix(1,0,0,1,0,984.105)">
                    <rect x="478.636" y="864.786" width="0.612" height="0.413" style="fill:rgb(142,142,142);"/>
                </g>
                <g transform="matrix(1,0,0,1,0,984.105)">
                    <rect x="472.98" y="864.786" width="0.612" height="0.413" style="fill:rgb(142,142,142);"/>
                </g>
                <g transform="matrix(1,0,0,1,494.893,1762)">
                    <path d="M0,-4.8L-0.004,-4.82L-0.014,-4.866L-0.041,-4.994L-1.165,-9.962L-1.237,-10.077L-1.223,-10.222L-1.203,-10.435L-1.289,-10.835L-1.399,-10.999L-1.524,-11.185L-1.529,-11.194L-2.545,-11.031L-2.659,-10.999L-2.775,-10.967L-2.837,-9.486L-2.845,-9.276L-2.857,-9.003L-2.871,-8.652L-2.888,-8.259L-2.894,-8.12L-2.905,-7.855L-2.909,-7.75L-2.924,-7.375L-2.939,-7.021L-2.942,-6.956L-2.959,-6.544L-2.963,-6.443L-2.968,-6.323L-2.973,-6.2L-2.977,-6.099L-2.985,-5.909L-2.987,-5.857L-2.992,-5.747L-3.011,-5.291L-3.025,-4.947L-3.028,-4.876L-3.032,-4.771L-3.032,-3.665L-2.362,-1.338L-2.243,-0.811L-2.109,-0.22L-1.614,1.967L-1.305,3.329L-1.065,3.325L-0.76,3.32L-0.451,2.595L-0.328,2.306L0.36,0.691L-0.004,-1.228L0.36,0.691L-0.328,2.306L-0.451,2.595L-0.76,3.32L-1.065,3.325L-1.305,3.329L-1.274,3.467L-1.282,3.811L-1.296,4.453L-1.226,4.642L-0.977,5.316L-0.92,5.469L-0.769,5.878L-0.654,6.189L-0.114,6.394L0.547,6.314L1.087,5.979L1.087,3.832L0.663,-0.094L0.564,-1.014L0.36,-2.901L0.277,-3.336L0.101,-4.267L0.011,-4.743L0,-4.8Z" style="fill:rgb(142,142,142);fill-rule:nonzero;"/>
                </g>
                <g transform="matrix(1,0,0,1,475.113,1822.64)">
                    <path d="M0,8.202L1.748,8.202L3.156,7.531L2.746,1.179L2.732,0.954L2.732,0L-0.983,0L-0.983,0.954L-0.998,1.179L-1.408,7.531L0,8.202Z" style="fill:rgb(142,142,142);fill-rule:nonzero;"/>
                </g>
                <g transform="matrix(1,0,0,1,473.705,1824.05)">
                    <path d="M0,6.127L0.41,-0.225L-3.1,-0.225L-3.1,2.958L-1.352,2.958L-1.352,4.763L0,6.352L0,6.127Z" style="fill:rgb(142,142,142);fill-rule:nonzero;"/>
                </g>
                <g transform="matrix(1,0,0,1,470.605,1827.59)">
                    <path d="M0,-0.588L0,0L1.46,0L1.666,-0.291L1.749,-0.365L1.749,-0.588L0,-0.588Z" style="fill:rgb(142,142,142);fill-rule:nonzero;"/>
                </g>
                <g transform="matrix(1,0,0,1,479.081,1830.43)">
                    <path d="M0,-0.401L-0.153,-0.616L0.181,-1.124L0.54,-1.558L0.54,-1.625L-0.812,-0.036L-0.812,-0.261L-2.22,0.41L-3.968,0.41L-5.376,-0.261L-5.376,-0.036L-6.728,-1.625L-6.728,-1.558L-6.369,-1.124L-6.035,-0.616L-6.188,-0.401L-5.376,0.553L-4.563,0.941L-3.968,1.224L-2.22,1.224L-1.625,0.941L-0.812,0.553L0,-0.401Z" style="fill:rgb(142,142,142);fill-rule:nonzero;"/>
                </g>
                <g transform="matrix(1,0,0,1,479.622,1827.59)">
                    <path d="M0,-0.588L0,-0.365L0.081,-0.291L0.288,0L1.183,0L1.141,-0.588L0,-0.588Z" style="fill:rgb(142,142,142);fill-rule:nonzero;"/>
                </g>
                <g transform="matrix(1,0,0,1,478.27,1824.05)">
                    <path d="M0,6.127L0,6.352L1.352,4.763L1.352,2.958L2.493,2.958L2.262,-0.225L-0.41,-0.225L0,6.127Z" style="fill:rgb(142,142,142);fill-rule:nonzero;"/>
                </g>
                <g transform="matrix(1,0,0,1,470.425,1826.46)">
                    <path d="M0,-2.048L-0.048,-1.448L-0.117,-0.6L-0.165,0L0.18,0L0.18,-2.048L0,-2.048Z" style="fill:rgb(142,142,142);fill-rule:nonzero;"/>
                </g>
                <g transform="matrix(1,0,0,1,471.82,1832.72)">
                    <path d="M0,0.839L0,1.439L0.984,-0.6L0,0.839Z" style="fill:rgb(142,142,142);fill-rule:nonzero;"/>
                </g>
                <g transform="matrix(1,0,0,1,468.957,1833.96)">
                    <path d="M0,1.606L-0.057,1.686L-0.347,2.094L-0.415,2.19L0.182,2.377L0.324,2.305L0.933,1.997L1.783,1.566L2.863,1.019L4.226,0.328L2.863,0.197L2.863,-0.402L1.69,-0.771L0.641,0.705L0.601,1.194L0.598,1.236L0.188,1.579L0,1.606Z" style="fill:rgb(142,142,142);fill-rule:nonzero;"/>
                </g>
                <g transform="matrix(1,0,0,1,471.82,1832.25)">
                    <path d="M0,1.908L1.363,2.039L2.699,1.362L2.699,0.307L0.985,-0.131L0,1.908Z" style="fill:rgb(142,142,142);fill-rule:nonzero;"/>
                </g>
                <g transform="matrix(1,0,0,1,480.408,1832.12)">
                    <path d="M0,2.039L0,1.439L-0.984,0L0,2.039Z" style="fill:rgb(142,142,142);fill-rule:nonzero;"/>
                </g>
                <g transform="matrix(1,0,0,1,479.424,1834.31)">
                    <path d="M0,-2.19L-1.968,-1.688L-1.968,-0.698L-0.592,0L0.985,-0.151L0,-2.19Z" style="fill:rgb(142,142,142);fill-rule:nonzero;"/>
                </g>
                <g transform="matrix(1,0,0,1,480.408,1835.28)">
                    <path d="M0,-1.716L0,-1.117L-1.576,-0.966L0,-0.167L0.766,0.222L0.704,-1.938L0,-1.716Z" style="fill:rgb(142,142,142);fill-rule:nonzero;"/>
                </g>
                <g transform="matrix(1,0,0,1,493.298,1849.87)">
                    <rect x="0" y="-3.22" width="1.487" height="3.22" style="fill:rgb(142,142,142);fill-rule:nonzero;"/>
                </g>
                <g transform="matrix(1,0,0,1,493.298,1845.81)">
                    <path d="M0,0.079L0,0.554L0.29,0.833L1.023,0.833L1.023,0.066L0.42,-0.516L0.173,-0.754L0,0.079Z" style="fill:rgb(142,142,142);fill-rule:nonzero;"/>
                </g>
                <g transform="matrix(1,0,0,1,494.784,1845.83)">
                    <rect x="0" y="-5.341" width="4.376" height="14.72" style="fill:rgb(142,142,142);fill-rule:nonzero;"/>
                </g>
                <g transform="matrix(1,0,0,1,493.298,1839.06)">
                    <path d="M0,6.83L0.173,5.997L0.42,4.808L1.419,0L0,6.508L0,6.83Z" style="fill:rgb(142,142,142);fill-rule:nonzero;"/>
                </g>
                <g transform="matrix(1,0,0,1,0,986.895)">
                    <rect x="491.863" y="863.083" width="1.435" height="1.029" style="fill:rgb(142,142,142);"/>
                </g>
                <g transform="matrix(-0.887512,-0.460785,-0.460785,0.887512,493.888,1838.27)">
                    <path d="M-1.63,-0.582L0.367,-0.582L-0.566,1.214L-1.63,-0.582Z" style="fill:rgb(142,142,142);fill-rule:nonzero;"/>
                </g>
                <g transform="matrix(1,0,0,1,492.954,1842.36)">
                    <path d="M0,-0.096L-0.827,2.407L-0.845,2.461L-1.074,3.156L-1.091,3.206L0.344,3.206L1.763,-3.302L0.877,-2.75L0.095,-0.384L0.038,-0.211L0,-0.096Z" style="fill:rgb(142,142,142);fill-rule:nonzero;"/>
                </g>
                <g transform="matrix(1,0,0,1,497.14,1838.51)">
                    <path d="M0.545,-0.921L-3.31,-0.921L-1.537,0L2.986,0L0.545,-0.921Z" style="fill:rgb(142,142,142);fill-rule:nonzero;"/>
                </g>
                <g transform="matrix(1,0,0,1,491.863,1849.75)">
                    <path d="M0,-3.381L-1.023,-2.394L-1.023,-0.987L0,0L0,-3.381Z" style="fill:rgb(142,142,142);fill-rule:nonzero;"/>
                </g>
                <g transform="matrix(1,0,0,1,491.863,1845.57)">
                    <rect x="0" y="0" width="1.435" height="1.152" style="fill:rgb(142,142,142);fill-rule:nonzero;"/>
                </g>
                <g transform="matrix(1,0,0,1,491.863,1847.31)">
                    <path d="M0,-0.939L0,-1.784L-0.017,-1.762L-0.627,-1.158L-1.023,-0.865L-1.023,0.048L0,-0.939Z" style="fill:rgb(142,142,142);fill-rule:nonzero;"/>
                </g>
                <g transform="matrix(1,0,0,1,491.863,1849.98)">
                    <rect x="0" y="-3.257" width="1.435" height="3.257" style="fill:rgb(142,142,142);fill-rule:nonzero;"/>
                </g>
                <g transform="matrix(1,0,0,1,493.298,1846.37)">
                    <path d="M0,0.28L0.29,0.28L0,0L0,0.28Z" style="fill:rgb(142,142,142);fill-rule:nonzero;"/>
                </g>
                <g transform="matrix(-0.250207,0.968192,0.968192,0.250207,460.309,1852.53)">
                    <path d="M0.157,-0.122L0.249,-0.122L0.094,0.081L0.002,0.122L0.157,-0.122Z" style="fill:rgb(142,142,142);fill-rule:nonzero;"/>
                </g>
                <g transform="matrix(1,0,0,1,470.1,1852.17)">
                    <path d="M0,1.316L0.093,-0.438L0.073,-0.642L-0.008,-1.469L-0.221,-1.549L-0.399,-1.617L-0.815,-1.774L-2.567,-1.774L-3.905,-1.593L-4.818,-1.469L-4.983,-1.369L-7.076,-0.092L-7.467,0.147L-8.017,0.482L-9.738,0.88L-9.748,0.882L-9.774,0.888L-10.027,0.947L-10.071,0.956L-10.051,0.876L-10.044,0.85L-9.994,0.653L-9.971,0.566L-9.949,0.478L-10.12,0.522L-11.213,1.001L-11.758,1.377L-11.953,3.09L-0.094,3.09L-0.091,3.038L-0.068,2.594L0,1.316Z" style="fill:rgb(142,142,142);fill-rule:nonzero;"/>
                </g>
                <g transform="matrix(1,0,0,1,468.779,1853.49)">
                    <path d="M-0.265,-12.554L0.406,-9.318L0.525,-8.744L0.7,-6.916L0.761,-6.279L0.952,-4.36L1.1,-2.865L1.313,-2.785L1.394,-1.958L1.414,-1.754L1.321,0L1.253,1.279L1.23,1.722L3.891,1.722L3.891,-12.998L-0.356,-12.998L-0.265,-12.554Z" style="fill:rgb(142,142,142);fill-rule:nonzero;"/>
                </g>
                <g transform="matrix(1,0,0,1,460.107,1852.98)">
                    <path d="M0,-0.161L-0.051,0.036L0.134,-0.197L0,-0.161Z" style="fill:rgb(142,142,142);fill-rule:nonzero;"/>
                </g>
                <g transform="matrix(0.892151,0.451738,0.451738,-0.892151,481.45,1835.44)">
                    <path d="M-0.041,-0.18L0.753,-0.18L0.651,0.033L-0.03,-0.169L-0.041,-0.18Z" style="fill:rgb(142,142,142);fill-rule:nonzero;"/>
                </g>
                <g transform="matrix(1,0,0,1,458.257,1843.87)">
                    <path d="M0,1.428L0.247,1.188L0,0L0,1.428Z" style="fill:rgb(221,221,221);fill-rule:nonzero;"/>
                </g>
                <g transform="matrix(1,0,0,1,459.021,1841.96)">
                    <path d="M0,0.306L0.827,2.809L0.845,2.785L1.511,1.848L1.511,0.962L1.511,1.848L1.552,1.79L1.706,1.496L1.782,1.352L1.972,1.199L2.553,0.382L3.207,-0.537L3.615,-1.11L4.101,-1.793L4.058,-2.015L3.965,-2.503L2.442,-1.731L1.056,-0.942L0.194,-0.251L-0.095,0.018L-0.038,0.191L0,0.306Z" style="fill:rgb(221,221,221);fill-rule:nonzero;"/>
                </g>
                <g transform="matrix(1,0,0,1,463.301,1845.65)">
                    <path d="M0,-4.571L-0.041,-4.756L-0.168,-5.424L-0.179,-5.486L-0.665,-4.803L-1.073,-4.229L-1.727,-3.311L-2.308,-2.493L-2.447,-2.298L-2.728,-1.902L-2.769,-1.844L-3.435,-0.907L-3.453,-0.883L-3.435,-0.829L-3.189,-0.084L-3.189,-0.132L-3.172,-0.11L-2.562,0.494L-2.167,0.787L-2.167,0.915L0.41,-2.708L0.246,-3.455L0,-4.571Z" style="fill:rgb(221,221,221);fill-rule:nonzero;"/>
                </g>
                <g transform="matrix(1,0,0,1,460.727,1843.65)">
                    <path d="M0,-0.191L-0.155,0.103L0.127,-0.294L0,-0.191Z" style="fill:rgb(221,221,221);fill-rule:nonzero;"/>
                </g>
                <g transform="matrix(1,0,0,1,454.856,1822.72)">
                    <path d="M0,-14.042L0.096,-12.079L0.196,-10.028L0.3,-7.92L0.367,-6.536L1.763,-2.837L2.723,-0.844L2.784,-0.769L3.316,-0.517L4.23,-0.083L4.405,0L4.378,-0.21L4.404,-1.206L4.447,-2.826L3.459,-4.877L0,-14.042Z" style="fill:rgb(221,221,221);fill-rule:nonzero;"/>
                </g>
                <g transform="matrix(1,0,0,1,452.545,1797.62)">
                    <path d="M0,-0.228L-0.611,-0.077L-0.459,0.066L-0.375,0.071L-0.383,-0.08L0.122,-0.204L0.959,-0.262L1.64,-0.22L1.765,-0.102L1.768,-0.049L1.993,-0.105L1.842,-0.248L1.016,-0.299L0,-0.228Z" style="fill:rgb(221,221,221);fill-rule:nonzero;"/>
                </g>
                <g transform="matrix(1,0,0,1,459.563,1797.44)">
                    <path d="M0,27.611L-0.078,27.012L-0.208,26.012L-0.301,25.295L-0.302,25.28L-0.477,25.197L-1.391,24.764L-1.923,24.512L-1.984,24.436L-3.649,22.376L-4.3,19.559L-4.34,18.744L-4.408,17.36L-4.511,15.253L-4.611,13.201L-4.707,11.238L-5.25,0.133L-5.253,0.079L-5.378,-0.039L-6.059,-0.081L-6.897,-0.022L-7.401,0.103L-7.393,0.254L-7.337,1.407L-7.264,2.902L-7.117,5.911L-6.812,12.134L-6.809,12.202L-6.439,19.77L-5.636,23.245L-3.296,26.14L-0.532,27.451L-0.024,27.692L0,27.611Z" style="fill:rgb(221,221,221);fill-rule:nonzero;"/>
                </g>
                <g transform="matrix(-0.128599,-0.991697,-0.991697,0.128599,460.056,1825.18)">
                    <path d="M-1.115,0.472L0.098,0.472L0.111,0.506L0.415,0.98L-1.115,0.472Z" style="fill:rgb(221,221,221);fill-rule:nonzero;"/>
                </g>
                <g transform="matrix(1,0,0,1,452.299,1809.29)">
                    <path d="M0,-8.944L-0.235,-8.944L-0.784,-9.232L0.425,0.277L0.452,0.288L0.147,-5.935L0,-8.944Z" style="fill:rgb(221,221,221);fill-rule:nonzero;"/>
                </g>
                <g transform="matrix(1,0,0,1,497.589,1797.64)">
                    <path d="M0,-0.269L-0.152,-0.126L0.074,-0.07L0.076,-0.123L0.202,-0.241L0.883,-0.283L1.719,-0.225L2.224,-0.1L2.216,0.051L2.288,0.047L2.3,0.045L2.452,-0.098L1.841,-0.249L0.825,-0.32L0,-0.269Z" style="fill:rgb(221,221,221);fill-rule:nonzero;"/>
                </g>
                <g transform="matrix(1,0,0,1,491.732,1810.29)">
                    <path d="M0,12.086L0.003,12.224L-0.099,12.923L-0.007,12.903L0.559,12.634L1.485,12.195L2.4,11.762L2.603,11.665L3.291,10.814L3.878,9.597L4.983,6.669L5.05,5.285L5.153,3.177L5.254,1.125L5.349,-0.837L2.182,7.556L0,12.086Z" style="fill:rgb(221,221,221);fill-rule:nonzero;"/>
                </g>
                <g transform="matrix(1,0,0,1,492.435,1829.58)">
                    <path d="M0,-4.448L-0.554,-4.324L-1.12,-4.197L-1.341,-2.692L-1.631,-0.706L-1.792,0.397L-0.705,-1.645L0.837,-4.845L0.273,-4.577L0,-4.448Z" style="fill:rgb(221,221,221);fill-rule:nonzero;"/>
                </g>
                <g transform="matrix(1,0,0,1,499.37,1816.15)">
                    <path d="M0,-9.561L0.306,-15.812L0.435,-18.457L0.443,-18.608L-0.061,-18.733L-0.899,-18.792L-1.58,-18.75L-1.705,-18.632L-1.708,-18.578L-2.289,-6.702L-2.385,-4.739L-2.485,-2.687L-2.588,-0.579L-2.656,0.805L-2.658,0.848L-3.309,3.665L-4.347,4.95L-5.035,5.801L-5.239,5.897L-6.153,6.331L-7.08,6.77L-7.645,7.039L-7.645,7.042L-7.645,7.039L-7.738,7.063L-7.831,7.7L-7.962,8.598L-8.055,9.231L-7.489,9.105L-6.935,8.981L-6.662,8.852L-6.098,8.584L-3.662,7.429L-1.323,4.534L-0.519,1.059L-0.187,-5.738L-0.151,-6.468L0,-9.561Z" style="fill:rgb(221,221,221);fill-rule:nonzero;"/>
                </g>
                <g transform="matrix(1,0,0,1,500.164,1810.13)">
                    <path d="M0,-9.788L-0.488,-9.788L-0.794,-3.537L-0.945,-0.444L-0.981,0.286L-0.66,-0.564L0.549,-10.074L0,-9.785L0,-9.788Z" style="fill:rgb(221,221,221);fill-rule:nonzero;"/>
                </g>
                <g transform="matrix(1,0,0,1,495.98,1789.09)">
                    <path d="M0,-21.111L-0.54,-20.776L-1.201,-20.696L-1.741,-20.901L-1.278,-18.871L0.363,-11.677L0.716,-10.13L0.849,-8.863L1.795,0.155L1.974,1.857L2.523,2.147L3.196,2.147L3.743,1.858L3.736,-0.444L2.469,-12.429L0.021,-23.165L0,-23.258L0,-21.111Z" style="fill:rgb(221,221,221);fill-rule:nonzero;"/>
                </g>
                <g transform="matrix(0.107624,0.994192,0.994192,-0.107624,497.528,1763.28)">
                    <path d="M-1.575,-1.813L2.374,-1.813L2.468,-1.803L-2,-1.556L-1.575,-1.813Z" style="fill:rgb(221,221,221);fill-rule:nonzero;"/>
                </g>
                <g transform="matrix(1,0,0,1,453.053,1765.83)">
                    <path d="M0,25.39L0.673,25.39L1.222,25.101L1.399,23.413L2.479,13.128L2.832,11.581L4.472,4.387L4.78,3.038L4.768,2.421L4.396,2.562L3.734,2.482L3.194,2.147L3.194,0L3.157,0.165L2.844,1.538L0.725,10.829L-0.54,22.798L-0.547,25.1L0,25.39Z" style="fill:rgb(221,221,221);fill-rule:nonzero;"/>
                </g>
                <g transform="matrix(1,0,0,1,472.717,1831.61)">
                    <path d="M0,-1.333L0.177,-1.581L0.33,-1.797L-0.005,-2.304L-0.364,-2.738L-0.364,-4.386L-0.446,-4.313L-0.653,-4.021L-2.791,-1.015L-2.798,-0.927L-2.897,0.302L-3.03,1.95L-3.119,3.053L-2.069,1.577L0,-1.333Z" style="fill:rgb(221,221,221);fill-rule:nonzero;"/>
                </g>
                <g transform="matrix(1,0,0,1,479.704,1832.8)">
                    <path d="M0,-5.495L-0.082,-5.569L-0.082,-3.92L-0.441,-3.486L-0.776,-2.979L-0.622,-2.763L-0.208,-2.182L1.396,0.074L1.366,-0.945L1.337,-1.965L1.298,-2.502L1.21,-3.715L1.204,-3.802L0.207,-5.203L0,-5.495Z" style="fill:rgb(221,221,221);fill-rule:nonzero;"/>
                </g>
                <g transform="matrix(1,0,0,1,487.655,1845.67)">
                    <path d="M0,-6.015L-0.236,-4.886L-0.261,-4.769L-0.411,-4.153L3.185,0.902L3.185,0.775L3.581,0.482L4.19,-0.123L4.208,-0.144L4.224,-0.147L4.454,-0.841L4.471,-0.895L4.454,-0.92L3.788,-1.856L3.747,-1.914L3.465,-2.31L3.326,-2.505L2.745,-3.323L2.092,-4.241L1.684,-4.815L0.927,-5.878L0.333,-6.714L0.189,-6.917L0.176,-6.856L0,-6.015Z" style="fill:rgb(221,221,221);fill-rule:nonzero;"/>
                </g>
                <g transform="matrix(1,0,0,1,489.339,1842.87)">
                    <path d="M0,-2.021L0.408,-1.447L1.061,-0.529L1.642,0.289L1.833,0.441L1.909,0.586L2.063,0.879L2.104,0.937L2.104,0.051L2.104,0.937L2.77,1.874L2.788,1.899L3.615,-0.605L3.653,-0.719L3.71,-0.893L3.42,-1.162L2.558,-1.853L1.172,-2.641L-1.351,-3.92L-0.756,-3.084L0,-2.021Z" style="fill:rgb(221,221,221);fill-rule:nonzero;"/>
                </g>
                <g transform="matrix(1,0,0,1,491.402,1843.35)">
                    <path d="M0,0.397L-0.153,0.103L-0.282,0L0,0.397Z" style="fill:rgb(221,221,221);fill-rule:nonzero;"/>
                </g>
                <g transform="matrix(1,0,0,1,493.47,1844.11)">
                    <path d="M0,0.948L0.247,1.188L0.247,-0.24L0,0.948Z" style="fill:rgb(221,221,221);fill-rule:nonzero;"/>
                </g>
                <g transform="matrix(1,0,0,1,482.008,1833.32)">
                    <path d="M0,4.148L0.021,3.149L0.032,2.62L-0.676,2.261L-0.7,2.249L-0.832,2.225L-0.834,2.181L-1.6,1.793L-3.176,0.994L-4.552,0.297L-4.552,1.232L-4.552,-1.941L-5.146,-1.658L-6.894,-1.658L-7.489,-1.941L-7.489,1.232L-7.489,0.297L-8.825,0.974L-10.188,1.665L-11.268,2.212L-12.118,2.642L-12.726,2.951L-12.868,3.023L-13.556,3.371L-13.566,3.911L-13.585,4.931L-13.602,5.833L-13.606,6.089L-9.95,4.236L-9.769,4.144L-9.147,3.829L-9.054,3.781L-8.295,3.397L-7.489,2.989L-6.629,2.552L-6.48,2.477L-6.629,2.552L-7.489,2.989L-7.489,3.253L-7.262,3.496L-7.194,3.58L-6.767,4.001L-6.751,4.018L-6.629,4.138L-5.412,4.138L-5.312,4.039L-5.301,4.028L-4.846,3.58L-4.8,3.522L-4.552,3.257L-4.552,2.989L-5.412,2.552L-5.561,2.477L-5.412,2.552L-4.552,2.989L-3.706,3.417L-2.947,3.802L-2.86,3.846L-2.15,4.206L-2.05,4.256L-0.024,5.283L-0.019,5.032L0,4.148Z" style="fill:rgb(221,221,221);fill-rule:nonzero;"/>
                </g>
                <g transform="matrix(1,0,0,1,468.472,1836.2)">
                    <path d="M0,-0.559L-0.013,0.07L0.07,-0.045L0.137,-0.141L0.429,-0.55L0.484,-0.629L0,-0.559Z" style="fill:rgb(221,221,221);fill-rule:nonzero;"/>
                </g>
                <g transform="matrix(1,0,0,1,457.2,1754.11)">
                    <path d="M0,-0.474L0.564,-0.05L0.683,0.029L0.742,-0.203L-0.008,-0.503L0,-0.474Z" style="fill:rgb(120,71,34);fill-rule:nonzero;"/>
                </g>
                <g transform="matrix(1,0,0,1,460.218,1755.16)">
                    <path d="M0,-1.53L0.008,-1.333L0.016,-1.125L0.018,-1.1L0.02,-1.04L0.071,0.183L0.181,0.146L0.317,-0.325L0.439,-0.749L0.47,-0.859L0.521,-1.035L0.417,-1.497L0.402,-1.564L0.328,-1.595L0.029,-1.713L0,-1.53Z" style="fill:rgb(120,71,34);fill-rule:nonzero;"/>
                </g>
                <g transform="matrix(1,0,0,1,460.168,1753.47)">
                    <path d="M0,-1.045L0.019,-0.562L0.057,-0.534L0.023,-0.487L0.037,-0.152L0.043,0.018L0.079,-0.023L0.378,0.095L0.451,0.125L0.467,0.193L0.515,-0.041L0.529,-1.012L0.281,-1.184L0.205,-1.238L0,-1.045Z" style="fill:rgb(120,71,34);fill-rule:nonzero;"/>
                </g>
                <g transform="matrix(1,0,0,1,457.231,1754.78)">
                    <path d="M0,-1.006L0.218,-0.083L0.304,-0.045L0.602,0.088L0.696,-0.352L0.744,-0.577L0.664,-0.631L0.652,-0.64L0.533,-0.719L-0.02,-1.094L0,-1.006Z" style="fill:rgb(120,71,34);fill-rule:nonzero;"/>
                </g>
                <g transform="matrix(1,0,0,1,457.211,1754.01)">
                    <path d="M0,-0.325L0.553,0.049L-0.011,-0.374L0,-0.325Z" style="fill:rgb(120,71,34);fill-rule:nonzero;"/>
                </g>
                <g transform="matrix(1,0,0,1,456.977,1754.14)">
                    <path d="M0,0.728L0.011,1.215L0.02,1.779L0.034,1.855L0.035,1.859L0.096,2.181L0.132,2.373L0.493,2.423L0.554,2.134L0.601,1.915L0.662,1.632L0.711,1.397L0.768,1.132L0.719,1.036L0.473,0.549L0.255,-0.374L0.235,-0.461L0.223,-0.511L0.216,-0.54L0.184,-0.677L0.16,-0.78L-0.057,-1.695L0,0.728Z" style="fill:rgb(120,71,34);fill-rule:nonzero;"/>
                </g>
                <g transform="matrix(1,0,0,1,457.165,1721.02)">
                    <path d="M0,37.077L0.113,36.483L0.118,36.455L0.174,36.161L0.193,36.068L0.277,35.678L-0.04,35.585L-0.056,35.496L-0.092,35.306L-0.153,34.983L-0.153,34.979L-0.167,34.904L-0.459,33.353L-0.496,33.154L-0.459,33.353L-0.167,34.904L-0.177,34.339L-0.188,33.853L-0.245,31.429L0.509,30.307L0.858,29.788L1.082,29.453L0.858,29.788L1.513,29.892L1.586,29.904L1.682,29.919L1.873,29.95L2.363,30.028L3.267,30.339L2.834,30.218L2.957,30.315L2.986,30.995L2.999,31.316L3.003,31.407L3.209,31.215L3.285,31.268L3.961,30.273L3.957,30.226L3.907,29.663L2.421,28.02L0.348,27.528L0.343,27.679L1.282,28.355L0.343,27.679L0.348,27.528L0.374,26.612L0.122,27.95L-0.144,29.192L0.122,27.95L0.374,26.612L0.641,25.185L2.62,19.053L3.641,15.874L4.269,11.316L5.522,1.215L5.554,0.962L5.595,0.627L5.626,0.378L5.441,0.384L4.752,0.407L4.334,0.421L2.8,0.472L2.137,0.494L1.69,0.509L-0.076,0.138L-0.209,0.11L-0.719,0.003L-1.415,-0.066L-1.422,-0.005L-2.49,10.301L-3.008,14.45L-3.029,14.619L-3.434,15.641L-3.695,17.049L-3.782,25.514L-3.763,28.83L-3.586,29.4L-3.405,29.904L-3.257,30.916L-2.642,33.436L-2.417,34.317L-2.289,34.819L-2.032,35.821L-0.243,37.09L-0.169,37.143L0,37.077Z" style="fill:rgb(120,71,34);fill-rule:nonzero;"/>
                </g>
                <g transform="matrix(1,0,0,1,457.16,1751.77)">
                    <path d="M0,1.702L0.032,1.839L0.782,2.14L0.902,2.027L1.015,1.498L1.078,1.205L1.143,0.903L1.243,0.433L0.558,0.024L0.656,1.058L0.558,0.024L0.514,-0.438L-0.24,0.684L-0.024,1.599L0,1.702Z" style="fill:rgb(120,71,34);fill-rule:nonzero;"/>
                </g>
                <g transform="matrix(0.998542,0.0539753,0.0539753,-0.998542,457.123,1756.6)">
                    <rect x="0.002" y="-0.009" width="0.342" height="0.056" style="fill:rgb(120,71,34);"/>
                </g>
                <g transform="matrix(1,0,0,1,487.936,1852.49)">
                    <path d="M0,-16.81L-0.888,-16.847L-1.139,-16.861L-1.906,-16.905L-2.744,-16.953L-2.818,-16.962L-3.828,-17.087L-4.528,-17.174L-4.969,-17.229L-5.479,-17.249L-5.704,-17.257L-5.881,-17.264L-5.896,-16.553L-5.907,-16.024L-5.928,-15.025L-5.947,-14.141L-5.952,-13.89L-5.988,-12.188L-6.03,-12.003L-6.13,-11.559L-6.418,-10.281L-6.859,-8.323L-6.989,-7.748L-7.314,-5.921L-7.373,-5.593L-7.28,-5.284L-7.129,-1.791L-6.675,-1.889L-5.721,-2.095L-3.806,-2.095L-2.677,-1.93L-1.727,-1.792L-1.707,-1.789L-0.774,-0.61L-0.59,-0.376L-0.164,0.162L0.296,0.454L-1.454,-3.783L-1.523,-7.566L-0.691,-10.978L-0.541,-11.593L-0.517,-11.71L-0.281,-12.839L-0.105,-13.68L-0.092,-13.741L0.545,-16.787L0.43,-16.792L0,-16.81Z" style="fill:rgb(120,71,34);fill-rule:nonzero;"/>
                </g>
                <g transform="matrix(0.295306,-0.955403,-0.955403,-0.295306,482.484,1849.56)">
                    <path d="M-1.759,1.274L-1.586,1.274L-1.583,1.266L1.71,2.442L-1.759,1.274Z" style="fill:rgb(120,71,34);fill-rule:nonzero;"/>
                </g>
                <g transform="matrix(1,0,0,1,480.591,1851.89)">
                    <path d="M0,-2.761L-0.804,-0.359L-0.91,-0.042L-0.945,0.062L-0.311,0.16L-0.032,-0.404L0.131,-0.937L0.053,-2.921L0,-2.761Z" style="fill:rgb(120,71,34);fill-rule:nonzero;"/>
                </g>
                <g transform="matrix(1,0,0,1,468.423,1850.13)">
                    <path d="M0,-11.88L0.019,-12.899L0.029,-13.439L0.037,-13.86L0.049,-14.489L0.056,-14.869L0.039,-14.868L0.013,-14.866L-0.651,-14.775L-1.245,-14.693L-1.986,-14.59L-2.15,-14.581L-3.067,-14.53L-3.866,-14.485L-3.914,-14.483L-5.229,-14.436L-5.953,-14.41L-6.148,-14.404L-5.437,-10.669L-5.344,-10.181L-5.301,-9.96L-5.29,-9.898L-5.162,-9.23L-5.122,-9.045L-4.876,-7.929L-4.712,-7.182L-4.277,-5.203L-4.549,-1.704L-4.556,-1.611L-4.571,-1.421L-4.556,-1.611L-4.549,-1.704L-6.169,0.15L-7.968,2.394L-7.988,2.419L-7.997,2.431L-8.06,2.51L-8.181,2.661L-8.366,2.892L-8.373,2.919L-8.35,2.989L-8.097,2.93L-8.061,2.922L-6.339,2.525L-5.789,2.189L-5.399,1.951L-3.306,0.674L-3.141,0.573L-2.227,0.449L-0.89,0.268L0.862,0.268L1.279,0.425L1.457,0.493L1.308,-1.002L1.117,-2.921L1.056,-3.558L0.881,-5.386L0.762,-5.96L0.356,-7.918L0.092,-9.196L0,-9.64L-0.038,-9.825L-0.022,-10.722L-0.017,-10.978L0,-11.88Z" style="fill:rgb(120,71,34);fill-rule:nonzero;"/>
                </g>
                <g transform="matrix(1,0,0,1,493.67,1756.56)">
                    <path d="M0,-4.777L-0.014,-4.631L0.059,-4.517L1.183,0.452L0.962,-0.58L0.849,-1.107L0.825,-1.194L0.828,-1.209L0.829,-1.213L0.777,-1.45L0.739,-1.625L0.725,-1.689L0.488,-2.799L0.477,-2.853L0.469,-2.887L0.461,-2.926L0.421,-3.116L0.368,-3.361L0.288,-3.735L0.368,-3.361L0.421,-3.116L0.557,-3.089L0.581,-3.192L0.797,-4.107L0.043,-5.229L0.02,-4.99L0,-4.777Z" style="fill:rgb(120,71,34);fill-rule:nonzero;"/>
                </g>
                <g transform="matrix(1,0,0,1,494.941,1757.67)">
                    <path d="M0,-36.642L-0.51,-36.535L-0.643,-36.507L-2.409,-36.136L-2.855,-36.151L-3.519,-36.173L-5.052,-36.224L-5.471,-36.238L-6.159,-36.261L-6.345,-36.267L-6.314,-36.018L-6.272,-35.683L-6.241,-35.43L-4.988,-25.329L-4.36,-20.771L-3.339,-17.593L-1.36,-11.46L-1.092,-10.033L-0.841,-8.695L-0.575,-7.453L-0.841,-8.695L-1.092,-10.033L-1.066,-9.117L-1.062,-8.966L-2,-8.29L-1.062,-8.966L-1.066,-9.117L-3.14,-8.625L-4.624,-6.984L-4.626,-6.982L-4.68,-6.372L-4.004,-5.377L-3.928,-5.431L-3.475,-5.007L-3.437,-5.024L-3.073,-5.221L-3.072,-5.349L-3.068,-6.562L-3.157,-6.537L-3.986,-6.306L-3.157,-6.537L-3.068,-6.562L-2.822,-6.631L-2.592,-6.695L-3.082,-6.617L-2.592,-6.695L-1.577,-6.857L-1.801,-7.192L-1.577,-6.857L-1.571,-6.849L-1.446,-6.663L-1.228,-6.338L-0.474,-5.216L-0.531,-2.792L-0.532,-2.735L-0.494,-2.559L-0.442,-2.323L-0.26,-3.292L-0.222,-3.491L-0.26,-3.292L-0.442,-2.323L-0.443,-2.318L-0.421,-2.216L-0.309,-1.689L-0.088,-0.657L0.113,-0.52L-0.047,-0.464L-0.037,-0.407L0.054,0.069L1.313,-0.824L1.57,-1.827L1.698,-2.328L1.924,-3.209L2.538,-5.729L2.867,-7.245L3.045,-7.815L3.064,-11.132L2.976,-19.596L2.715,-21.004L2.31,-22.026L2.289,-22.195L1.771,-26.344L0.703,-36.65L0.697,-36.711L0,-36.642Z" style="fill:rgb(120,71,34);fill-rule:nonzero;"/>
                </g>
                <g transform="matrix(1,0,0,1,490.84,1755.33)">
                    <path d="M0,-1.764L-0.072,-1.734L-0.087,-1.666L-0.193,-1.205L-0.142,-1.029L-0.11,-0.92L0.011,-0.495L0.148,-0.023L0.506,0.096L0.56,0.115L0.567,0.118L0.656,-0.336L0.691,-0.521L0.704,-0.632L0.719,-0.757L0.752,-1.053L0.761,-1.121L0.784,-1.321L0.77,-1.337L0.299,-1.882L0,-1.764Z" style="fill:rgb(120,71,34);fill-rule:nonzero;"/>
                </g>
                <g transform="matrix(1,0,0,1,491.039,1755.92)">
                    <path d="M0,-0.431L0.009,-0.398L0.074,-0.175L0.869,0.176L0.876,-0.013L0.881,-0.114L0.886,-0.237L0.891,-0.357L0.667,-0.368L0.539,-0.411L0.368,-0.467L0.361,-0.469L0.307,-0.488L-0.051,-0.607L0,-0.431Z" style="fill:rgb(120,71,34);fill-rule:nonzero;"/>
                </g>
                <g transform="matrix(1,0,0,1,491.132,1757.5)">
                    <path d="M-0.019,-1.757L0.061,-1.479L0.259,-0.795L0.309,-0.618L0.43,-0.2L0.729,0.066L0.729,-0.267L0.733,-0.372L0.737,-0.443L0.751,-0.788L0.77,-1.243L0.775,-1.354L0.776,-1.406L-0.019,-1.757Z" style="fill:rgb(120,71,34);fill-rule:nonzero;"/>
                </g>
                <g transform="matrix(1,0,0,1,491.544,1754.92)">
                    <path d="M0,-0.22L-0.013,-0.11L0.407,0.126L0.411,0.06L0.425,-0.294L0.015,-0.346L0,-0.22Z" style="fill:rgb(120,71,34);fill-rule:nonzero;"/>
                </g>
                <g transform="matrix(1,0,0,1,491.582,1753.63)">
                    <path d="M0,-0.662L0.12,-0.268L0.146,-0.188L0.279,0.246L0.423,0.109L0.44,-0.284L0.454,-0.635L0.467,-0.908L0,-0.662Z" style="fill:rgb(120,71,34);fill-rule:nonzero;"/>
                </g>
                <g transform="matrix(1,0,0,1,490.704,1753.08)">
                    <path d="M0,0.352L0.048,0.585L0.064,0.517L0.137,0.488L0.436,0.369L0.906,0.914L0.919,0.93L0.896,1.13L0.889,1.198L1.281,1.171L1.285,1.066L1.296,0.801L1.157,0.799L1.024,0.365L0.999,0.285L0.878,-0.109L0.79,-0.395L0.761,-0.422L0.309,-0.846L0.233,-0.793L-0.015,-0.619L0,0.352Z" style="fill:rgb(120,71,34);fill-rule:nonzero;"/>
                </g>
                <g transform="matrix(1,0,0,1,494.251,1753.96)">
                    <path d="M0,-0.592L-0.024,-0.489L-0.057,-0.352L-0.065,-0.323L-0.076,-0.274L-0.093,-0.2L0.145,0.911L0.159,0.916L0.216,-1.508L0,-0.592Z" style="fill:rgb(120,71,34);fill-rule:nonzero;"/>
                </g>
                <g transform="matrix(1,0,0,1,490.886,1802.53)">
                    <path d="M0,4.47L0.014,3.841L0.055,1.954L0.085,0.511L0.089,0.374L-0.459,0L0,4.47Z" style="fill:rgb(68,114,37);fill-rule:nonzero;"/>
                </g>
                <g transform="matrix(1,0,0,1,460.689,1760.15)">
                    <path d="M0,-5.842L-0.032,-5.732L-0.154,-5.308L-0.29,-4.836L-0.341,-4.66L-0.35,-4.628L-0.388,-4.507L-0.385,-4.507L-0.388,-4.507L-0.387,-4.499L-0.778,-3.143L-1.833,0.517L-0.19,-0.197L0.149,-6.359L0.051,-6.018L0,-5.842Z" style="fill:rgb(68,114,37);fill-rule:nonzero;"/>
                </g>
                <g transform="matrix(1,0,0,1,457.442,1756.6)">
                    <path d="M0,0.094L0.016,0.018L-0.317,0L0,0.094Z" style="fill:rgb(68,114,37);fill-rule:nonzero;"/>
                </g>
                <g transform="matrix(1,0,0,1,491.496,1755.37)">
                    <path d="M0,-0.378L-0.089,0.076L0.082,0.132L0.211,0.175L0.435,0.185L0.439,0.085L0.455,-0.327L0.036,-0.563L0,-0.378Z" style="fill:rgb(68,114,37);fill-rule:nonzero;"/>
                </g>
                <g transform="matrix(0.996077,0.0884944,0.0884944,-0.996077,455.259,1720.95)">
                    <rect x="0.002" y="-0.022" width="0.487" height="0.061" style="fill:rgb(68,114,37);"/>
                </g>
                <g transform="matrix(1,0,0,1,462.79,1721.65)">
                    <path d="M0,-0.249L-0.03,0.001L0.051,-0.25L0,-0.249Z" style="fill:rgb(68,114,37);fill-rule:nonzero;"/>
                </g>
                <g transform="matrix(1,0,0,1,488.626,1721.4)">
                    <path d="M0,0.251L-0.03,0.001L-0.081,0L0,0.251Z" style="fill:rgb(68,114,37);fill-rule:nonzero;"/>
                </g>
                <g transform="matrix(0.0978883,0.995197,0.995197,-0.0978883,495.867,1720.72)">
                    <rect x="0.213" y="-0.252" width="0.066" height="0.487" style="fill:rgb(68,114,37);"/>
                </g>
                <g transform="matrix(1,0,0,1,479.698,1837.52)">
                    <path d="M0,0.075L0.26,0.05L0.16,0L0,0.075Z" style="fill:rgb(68,114,37);fill-rule:nonzero;"/>
                </g>
                <g transform="matrix(1,0,0,1,469.161,1835.62)">
                    <path d="M0,-0.395L-0.048,-0.392L-0.682,-0.357L-0.689,0.023L-0.204,-0.046L-0.015,-0.074L0.394,-0.418L0,-0.395Z" style="fill:rgb(68,114,37);fill-rule:nonzero;"/>
                </g>
                <g transform="matrix(1,0,0,1,481.175,1835.36)">
                    <path d="M0,0.185L0.132,0.209L0.171,0.217L0.87,0.344L0.88,-0.131L0.183,-0.159L0,0.185Z" style="fill:rgb(68,114,37);fill-rule:nonzero;"/>
                </g>
                <g transform="matrix(1,0,0,1,457.695,1754.73)">
                    <path d="M0,0.446L0.062,0.487L0.065,0.471L0.138,0.13L-0.16,-0.003L-0.246,-0.041L0,0.446Z" style="fill:rgb(68,114,37);fill-rule:nonzero;"/>
                </g>
            </g>
        </g>
    </g>
</svg>
