<?xml version="1.0" encoding="UTF-8" standalone="no"?>
<!DOCTYPE svg PUBLIC "-//W3C//DTD SVG 1.1//EN" "http://www.w3.org/Graphics/SVG/1.1/DTD/svg11.dtd">
<svg width="100%" height="100%" viewBox="0 0 140 220" version="1.1" xmlns="http://www.w3.org/2000/svg" xmlns:xlink="http://www.w3.org/1999/xlink" xml:space="preserve" xmlns:serif="http://www.serif.com/" style="fill-rule:evenodd;clip-rule:evenodd;stroke-linejoin:round;stroke-miterlimit:2;">
    <g transform="matrix(1,0,0,1,-2202.27,-1688.22)">
        <g id="people-15">
            <g>
                <g transform="matrix(1,0,0,1,2248.67,1891.54)">
                    <path d="M0,-2.335L-0.271,-2.021L-0.198,-0.065L-0.194,0.024L0.02,-0.017L0.02,-2.359L0,-2.335Z" style="fill:rgb(120,71,34);fill-rule:nonzero;"/>
                </g>
                <g transform="matrix(1,0,0,1,2297.33,1891.15)">
                    <path d="M0,-24.467L0.43,-23.279L0.687,-22.565L0.687,0.323L9.168,0.323L9.151,-2.911L9.066,-6.042L8.915,-8.936L8.703,-11.473L8.446,-13.546L8.146,-15.067L7.822,-15.973L5.45,-20.894L3.356,-23.3L2.958,-23.589L0.345,-24.79L-0.338,-24.79L-0.014,-24.481L0,-24.467Z" style="fill:rgb(66,76,160);fill-rule:nonzero;"/>
                </g>
                <g transform="matrix(1,0,0,1,2273.67,1868.83)">
                    <path d="M0,-1.734L-0.328,-1.752L-0.708,-1.772L-1.629,-1.822L-2.545,-1.772L-2.926,-1.752L-3.254,-1.734L-3.927,-1.521L-3.927,0.088L0.673,0.088L0.673,-1.521L0,-1.734Z" style="fill:rgb(66,76,160);fill-rule:nonzero;"/>
                </g>
                <g transform="matrix(1,0,0,1,2304.82,1894.83)">
                    <path d="M1.678,-3.359L-8.968,-3.359L-8.968,-0.625L-8.946,-0.567L-8.946,0L1.678,0L1.678,-3.359Z" style="fill:rgb(66,76,160);fill-rule:nonzero;"/>
                </g>
                <g transform="matrix(1,0,0,1,2289.1,1876.42)">
                    <path d="M5.615,6.617L-8.083,6.617L-9.355,5.417L-8.083,6.617L5.615,6.617ZM-25.567,6.617L-39.265,6.617L-25.567,6.617L-24.294,5.417L-25.567,6.617ZM6.62,11.229L6.62,-1.44L6.486,-1.862L6.116,-2.171L5.615,-2.284L-8.083,-2.284L-9.355,-4.273L-9.891,-4.736L-10.046,-4.87L-12.993,-7.413L-13.092,-7.497L-20.561,-7.497L-20.656,-7.413L-24.294,-4.273L-25.567,-2.284L-39.265,-2.284L-39.769,-2.171L-40.135,-1.862L-40.27,-1.44L-40.27,11.229L-40.135,11.429L-39.801,11.796L-39.769,11.83L-39.265,12.297L-38.796,12.65L-36.854,14.114L3.204,14.114L5.146,12.65L5.615,12.297L6.116,11.83L6.148,11.796L6.486,11.429L6.62,11.229Z" style="fill:rgb(66,76,160);fill-rule:nonzero;"/>
                </g>
                <g transform="matrix(1,0,0,1,2264.81,1862.39)">
                    <path d="M0,9.757L3.638,6.617L3.733,6.533L4.942,6.533L4.942,4.923L5.615,4.711L5.943,4.693L5.943,1.461L4.924,1.419L3.874,1.166L3.874,-1.989L-1.368,-1.989L-1.583,-0.365L-1.755,2.413L-1.798,3.129L-1.893,4.667L-2.013,6.617L-2.129,8.486L-2.556,11.746L-1.273,11.746L0,9.757Z" style="fill:rgb(66,76,160);fill-rule:nonzero;"/>
                </g>
                <g transform="matrix(1,0,0,1,2290.29,1887.51)">
                    <path d="M0,-22.714L-0.014,-21.998L-0.042,-20.459L-0.081,-18.51L-0.173,-13.381L4.424,-13.381L4.924,-13.268L5.295,-12.959L5.428,-12.536L5.428,-5.908L5.566,-5.622L5.566,3.959L7.73,3.959L7.73,-18.929L7.473,-19.643L7.043,-20.831L7.029,-20.845L6.705,-21.153L2.443,-25.211L0.627,-26.567L0.071,-26.673L0.046,-25.23L0,-22.714Z" style="fill:rgb(66,76,160);fill-rule:nonzero;"/>
                </g>
                <g transform="matrix(1,0,0,1,2241.49,1866.36)">
                    <path d="M-3.448,25.112L5.033,25.112L5.033,3.533L5.037,2.227L5.037,2.224L5.294,1.51L5.721,0.322L5.735,0.308L6.059,0L5.379,0L2.767,1.2L2.365,1.489L0.275,3.895L-2.101,8.816L-2.422,9.722L-2.721,11.244L-2.979,13.316L-3.19,15.853L-3.342,18.748L-3.427,21.878L-3.448,25.112Z" style="fill:rgb(66,76,160);fill-rule:nonzero;"/>
                </g>
                <g transform="matrix(1,0,0,1,2247.21,1887.57)">
                    <path d="M0,-20.887L-0.427,-19.699L-0.684,-18.985L-0.684,-18.982L-0.687,-17.676L-0.687,3.903L1.258,3.903L1.184,1.947L1.456,1.633L1.477,1.608L1.477,-5.678L1.618,-5.964L1.618,-12.592L1.752,-13.015L2.118,-13.324L2.623,-13.437L4.311,-13.437L4.216,-18.566L4.181,-20.515L4.17,-21.144L4.152,-21.932L4.152,-22.059L4.142,-22.519L4.142,-22.672L4.138,-22.724L4.138,-22.786L4.107,-24.425L4.1,-24.79L0.338,-21.21L0.014,-20.901L0,-20.887Z" style="fill:rgb(66,76,160);fill-rule:nonzero;"/>
                </g>
                <g transform="matrix(1,0,0,1,2275.87,1868.39)">
                    <path d="M0,-4.839L-1.054,-4.586L-2.524,-4.525L-2.524,-1.312L-2.196,-1.295L-1.523,-1.082L-1.523,0.528L0.137,0.528L0.236,0.612L3.183,3.155L3.095,2.48L2.979,0.612L2.859,-1.338L2.763,-2.877L2.721,-3.593L2.549,-6.371L2.33,-7.994L0,-7.994L0,-4.839Z" style="fill:rgb(66,76,160);fill-rule:nonzero;"/>
                </g>
                <g transform="matrix(1,0,0,1,2241.49,1891.47)">
                    <path d="M-3.448,3.359L7.177,3.359L7.177,2.792L7.198,2.734L7.198,0.089L7.177,0.091L6.983,0.089L6.979,0L-3.448,0L-3.448,3.359Z" style="fill:rgb(66,76,160);fill-rule:nonzero;"/>
                </g>
                <g transform="matrix(1,0,0,1,2267.75,1807.51)">
                    <path d="M0,7.49L9.042,7.459L9.866,7.457L10.892,7.453L10.892,1.266L9.042,-0.006L0,-0.006L-1.847,1.266L-1.847,7.496L-0.934,7.493L0,7.49Z" style="fill:rgb(66,76,160);fill-rule:nonzero;"/>
                </g>
                <g transform="matrix(1,0,0,1,2279.13,1765.42)">
                    <path d="M0,0.203L0.663,0.103L1.226,0L0,0.203Z" style="fill:rgb(214,238,246);fill-rule:nonzero;"/>
                </g>
                <g transform="matrix(1,0,0,1,2277.98,1770.77)">
                    <path d="M0,-0.021L0.047,-0.013L0.198,0.011L0.832,0.108L0.021,-0.129L0,-0.021Z" style="fill:rgb(214,238,246);fill-rule:nonzero;"/>
                </g>
                <g transform="matrix(1,0,0,1,2276.75,1767.45)">
                    <path d="M0,-2.49L-0.127,-2.827L-1.445,-3.378L-5.132,-3.378L-5.196,-3.287L-5.351,-3.068L-5.915,-2.269L-5.788,-1.84L-5.622,-1.282L-5.488,-0.826L-5.323,-0.646L-4.815,-0.095L-4.29,0.48L-4.022,0.552L-3.363,0.73L-2.778,0.888L-1.322,0.888L-1.125,0.741L-0.356,0.172L-0.127,0.002L0.247,-0.585L0.247,-1.827L0,-2.49Z" style="fill:rgb(214,238,246);fill-rule:nonzero;"/>
                </g>
                <g transform="matrix(1,0,0,1,2265.69,1768.34)">
                    <path d="M0,-4.266L-1.308,-3.724L-1.322,-3.715L-1.466,-3.329L-1.695,-2.714L-1.695,-1.472L-1.322,-0.886L-1.078,-0.707L-0.317,-0.144L-0.12,0L1.34,0L1.928,-0.159L2.587,-0.337L2.852,-0.408L3.381,-0.983L3.888,-1.535L4.054,-1.714L4.188,-2.172L4.354,-2.728L4.48,-3.156L4.336,-3.36L3.92,-3.954L3.765,-4.173L3.698,-4.266L0,-4.266Z" style="fill:rgb(214,238,246);fill-rule:nonzero;"/>
                </g>
                <g transform="matrix(1,0,0,1,2262.18,1770.64)">
                    <path d="M0,0.237L0.634,0.139L0.786,0.115L0.832,0.108L0.81,0L0,0.237Z" style="fill:rgb(214,238,246);fill-rule:nonzero;"/>
                </g>
                <g transform="matrix(1,0,0,1,2262.14,1754.81)">
                    <path d="M0,10.911L0.198,11.22L0.261,11.07L0.268,11.027L0.271,11.01L0.825,10.942L1.146,10.902L1.22,10.893L1.558,6.801L3.183,4.731L4.956,4.592L11.77,4.592L13.543,4.731L15.168,6.801L15.531,11.175L15.577,11.199L15.732,11.284L15.94,11.394L15.996,11.425L16.099,11.775L16.109,11.803L15.662,11.565L15.566,11.622L16.028,12.013L16.726,10.911L16.987,10.812L16.994,10.811L17.125,6.499L15.824,4.438L14.6,2.194L13.822,1.05L9.94,-0.824L8.365,-1.102L6.786,-0.824L2.905,1.05L2.125,2.194L0.902,4.438L-0.398,6.499L-0.268,10.811L-0.261,10.812L0,10.911Z" style="fill:rgb(63,38,19);fill-rule:nonzero;"/>
                </g>
                <g transform="matrix(1,0,0,1,2263.11,1766.8)">
                    <path d="M0,-0.75L-0.363,-0.706L-0.709,-0.664L-0.275,0.022L0.187,-0.37L0.18,-0.772L0,-0.75Z" style="fill:rgb(63,38,19);fill-rule:nonzero;"/>
                </g>
                <g transform="matrix(1,0,0,1,2292.77,1815.22)">
                    <path d="M0,0.392L-0.247,0.69L0.091,0.746L0.147,0.633L0.616,-0.354L0,0.392Z" style="fill:rgb(242,211,173);fill-rule:nonzero;"/>
                </g>
                <g transform="matrix(1,0,0,1,2286.11,1813.02)">
                    <path d="M0,1.917L0.427,1.916L1.167,1.913L1.491,1.912L2.108,1.91L2.161,1.85L2.503,1.897L2.742,1.144L3.215,0.721L4.022,0L3.951,0.031L3.179,0.38L2.689,0.305L2.284,0.243L2.267,0.241L2.26,0.24L2.161,0.225L0.705,0.775L0.106,1.746L0.046,1.84L0,1.917Z" style="fill:rgb(242,211,173);fill-rule:nonzero;"/>
                </g>
                <g transform="matrix(1,0,0,1,2298.81,1820.66)">
                    <path d="M0,-16.262L-0.321,-16.244L-1.206,-16.195L-1.889,-16.156L-4.304,-16.021L-4.931,-15.986L-5.58,-15.627L-5.844,-15.482L-6.796,-14.956L-7.173,-14.381L-5.682,-11.786L-5.45,-11.382L-4.642,-14.006L-5.45,-11.382L-5.489,-11.262L-5.823,-10.177L-6.147,-9.125L-6.299,-8.633L-6.708,-7.549L-6.514,-7.607L-6.267,-7.68L-5.936,-7.778L-6.267,-7.68L-6.514,-7.607L-6.708,-7.549L-7.022,-7.456L-6.225,-7.281L-3.26,-7.131L-6.225,-7.281L-5.418,-6.958L-5.379,-6.905L-4.734,-6.06L-5.379,-6.905L-5.418,-6.958L-6.225,-7.281L-7.022,-7.456L-7.543,-7.571L-8.1,-7.604L-8.241,-7.612L-8.671,-7.637L-9.479,-6.916L-9.951,-6.493L-10.191,-5.74L-10.194,-5.729L-10.138,-5.729L-9.983,-5.708L-9.221,-5.605L-9.052,-5.582L-8.485,-5.506L-8.442,-5.472L-8.347,-5.71L-8.442,-5.472L-8.326,-5.376L-8.104,-5.197L-8.047,-5.347L-7.297,-6.684L-8.047,-5.347L-8.016,-5.124L-7.808,-4.957L-7.804,-4.441L-7.811,-3.786L-7.825,-2.724L-7.85,-0.685L-7.857,-0.337L-7.716,-0.316L-7.512,-0.346L-7.388,-1.163L-7.364,-1.33L-7.272,-1.945L-7.177,-2.587L-7.082,-2.833L-6.743,-3.74L-6.482,-4.444L-6.433,-4.571L-6.289,-4.746L-6.042,-5.043L-5.425,-5.789L-5.894,-4.803L-5.95,-4.689L-6.095,-4.381L-6.299,-3.958L-6.384,-3.68L-6.662,-2.764L-6.93,-1.889L-6.962,-1.785L-6.581,-1.201L-6.454,-1.008L-6.056,-0.399L-6.024,-0.364L-5.848,-0.159L-5.707,0L-5.598,-0.031L-5.4,-0.089L-5.252,-0.133L-5.298,-0.817L-5.309,-0.955L-5.312,-0.991L-5.386,-1.633L-5.404,-1.769L-5.534,-1.398L-5.404,-1.769L-5.136,-2.511L-4.812,-3.42L-4.699,-3.73L-4.276,-4.08L-4.068,-4.252L-3.966,-4.335L-3.948,-4.241L-3.701,-4.304L-3.684,-4.314L-3.412,-4.27L-2.866,-4.204L-2.88,-4.182L-2.661,-4.145L-2.418,-4.105L-2.136,-4.059L-1.847,-4.426L-1.449,-4.361L-1.364,-4.346L-1.304,-4.336L0.61,-5.823L2.044,-7.809L1.745,-9.819L1.322,-12.686L0,-16.262Z" style="fill:rgb(242,211,173);fill-rule:nonzero;"/>
                </g>
                <g transform="matrix(1,0,0,1,2253.74,1813.33)">
                    <path d="M0,1.952L-0.067,1.877L-0.374,1.538L-0.067,1.877L0,1.952L0.159,2.124L0.282,2.263L0.462,2.119L0.684,1.941L0.822,1.921L1.639,1.806L1.893,1.77L1.745,1.529L1.685,1.435L1.086,0.464L-0.37,-0.086L-0.469,-0.071L-0.476,-0.07L-0.493,-0.068L-0.902,-0.006L-1.04,0.015L-1.389,0.069L-2.164,-0.28L-2.231,-0.311L-1.427,0.41L-0.952,0.833L-0.712,1.586L-0.638,1.812L-0.606,1.919L-0.342,1.959L0,1.952Z" style="fill:rgb(242,211,173);fill-rule:nonzero;"/>
                </g>
                <g transform="matrix(1,0,0,1,2248.73,1814.98)">
                    <path d="M0,0.874L0.053,0.987L0.394,0.931L0.148,0.633L-0.469,-0.113L0,0.874Z" style="fill:rgb(242,211,173);fill-rule:nonzero;"/>
                </g>
                <g transform="matrix(1,0,0,1,2249.8,1806.18)">
                    <path d="M0,12.692L-0.032,12.588L-0.3,11.713L-0.582,10.796L-0.666,10.519L-0.867,10.096L-1.015,9.787L-1.068,9.674L-1.537,8.688L-0.92,9.434L-0.673,9.731L-0.529,9.905L-0.483,10.032L-0.219,10.737L0.12,11.643L0.211,11.89L0.31,12.532L0.402,13.146L0.427,13.314L0.434,13.354L0.55,14.13L0.557,14.131L0.754,14.161L1.382,14.064L1.498,13.137L1.519,12.961L1.6,12.318L1.688,11.614L1.646,11.391L1.47,10.457L1.357,9.853L1.311,9.736L1.195,9.422L1.188,9.405L1.163,9.335L1.085,9.13L0.335,7.793L1.085,9.13L1.163,9.335L1.198,9.401L1.205,9.42L1.262,9.522L1.332,9.579L1.435,9.59L1.551,9.547L1.678,9.488L1.667,9.46L1.382,8.766L1.667,9.46L1.678,9.488L1.752,9.663L2.037,10.363L2.407,11.265L2.492,11.473L2.577,12.157L2.654,12.774L2.675,12.942L2.785,13.832L3.62,13.723L3.736,13.01L3.779,12.759L3.807,12.583L3.902,12.007L3.909,11.553L3.913,11.244L3.916,10.885L3.662,10.094L3.437,9.384L3.334,9.069L3.303,8.962L3.229,8.737L2.989,7.984L2.513,7.561L1.709,6.839L1.28,6.865L1.135,6.873L0.582,6.905L0.06,7.02L-0.737,7.195L-1.544,7.519L-1.586,7.572L-2.228,8.417L-1.586,7.572L-1.544,7.519L-0.737,7.195L-3.705,7.345L-0.737,7.195L0.06,7.02L-0.254,6.928L-0.448,6.87L-0.698,6.796L-1.026,6.699L-0.698,6.796L-0.448,6.87L-0.254,6.928L-0.666,5.843L-0.818,5.352L-1.142,4.299L-1.474,3.214L-1.512,3.094L-2.32,0.47L-1.512,3.094L-1.28,2.691L0.211,0.095L-0.166,-0.48L-1.118,-1.005L-1.382,-1.151L-2.034,-1.51L-2.662,-1.545L-5.073,-1.68L-5.756,-1.718L-6.641,-1.767L-6.966,-1.785L-8.284,1.791L-8.71,4.658L-9.007,6.667L-7.572,8.654L-5.816,9.951L-5.601,10.13L-5.513,10.116L-5.118,10.05L-4.829,10.418L-4.544,10.372L-4.304,10.331L-4.082,10.295L-4.1,10.272L-4.057,10.291L-3.55,10.207L-3.278,10.162L-3.264,10.173L-3.014,10.235L-2.996,10.141L-2.898,10.225L-2.686,10.397L-2.263,10.747L-2.154,11.056L-1.826,11.965L-1.562,12.708L-1.428,13.079L-1.562,12.708L-1.576,12.843L-1.65,13.485L-1.653,13.522L-1.664,13.659L-1.71,14.344L-1.255,14.477L-0.543,13.319L0,12.692Z" style="fill:rgb(242,211,173);fill-rule:nonzero;"/>
                </g>
                <g transform="matrix(1,0,0,1,2263.06,1766.58)">
                    <path d="M0,3.138L0.24,-0.146L-0.222,0.246L-0.656,-0.439L-0.698,-0.434L-0.722,-0.547L-0.92,-0.856L-1.181,-0.955L-1.188,-0.956L-1.847,-1.056L-2.125,-1.101L-2.415,-1.159L-2.859,-0.505L-2.929,0.25L-2.619,1.629L-1.939,2.972L-1.364,3.995L-0.874,4.297L-0.063,4.061L0,3.138Z" style="fill:rgb(242,211,173);fill-rule:nonzero;"/>
                </g>
                <g transform="matrix(1,0,0,1,2278.86,1770.57)">
                    <path d="M0,-4.851L-0.698,-3.749L-1.16,-4.14L-0.92,-0.857L-0.857,0.066L-0.046,0.303L0.444,0L1.019,-1.023L1.699,-2.366L2.009,-3.745L1.942,-4.5L1.495,-5.154L1.206,-5.096L0.931,-5.051L0.268,-4.951L0.261,-4.95L0,-4.851Z" style="fill:rgb(242,211,173);fill-rule:nonzero;"/>
                </g>
                <g transform="matrix(1,0,0,1,2272.12,1763.69)">
                    <path d="M0,0.1L0.642,0.1L0.621,0L0,0.1Z" style="fill:rgb(242,211,173);fill-rule:nonzero;"/>
                </g>
                <g transform="matrix(1,0,0,1,2278.03,1779.04)">
                    <path d="M0,-8.284L-0.046,-8.291L-0.025,-8.399L-0.088,-9.322L-0.328,-12.605L-0.433,-12.769L-1.036,-13.091L-1.036,-12.169L-1.41,-11.582L-1.639,-11.412L-2.407,-10.844L-2.605,-10.696L-4.061,-10.696L-4.646,-10.854L-5.305,-11.032L-5.573,-11.104L-6.098,-11.68L-6.606,-12.23L-6.771,-12.41L-6.905,-12.867L-7.071,-13.424L-7.198,-13.853L-7.053,-14.057L-6.634,-14.653L-6.479,-14.871L-6.496,-14.962L-8.562,-14.962L-8.58,-14.869L-8.425,-14.65L-8.009,-14.056L-7.864,-13.853L-7.991,-13.424L-8.157,-12.868L-8.291,-12.41L-8.456,-12.231L-8.964,-11.68L-9.493,-11.104L-9.757,-11.033L-10.416,-10.855L-11.005,-10.696L-12.464,-10.696L-12.662,-10.84L-13.423,-11.404L-13.666,-11.582L-14.04,-12.169L-14.04,-13.094L-14.449,-13.043L-14.699,-13.013L-14.741,-13.008L-14.734,-12.605L-14.974,-9.322L-15.037,-8.399L-15.016,-8.291L-15.062,-8.284L-15.214,-8.26L-14.685,-6.042L-14.026,-2.099L-14.012,-2.026L-13.832,-0.955L-13.769,0.5L-13.754,0.749L-13.712,1.403L-13.687,1.758L-13.201,2.286L-13.127,2.498L-12.665,3.679L-12.172,3.396L-11.015,4.644L-10.839,5.114L-10.406,6.283L-7.529,6.678L-7.212,6.634L-3.983,6.191L-3.694,5.42L-3.581,5.114L-3.405,4.644L-2.376,3.534L-1.787,2.896L-1.42,2.5L-1.35,1.415L-1.29,0.5L-1.287,0.421L-1.227,-0.955L-1.036,-2.09L-1.015,-2.213L-0.374,-6.042L0.152,-8.26L0,-8.284Z" style="fill:rgb(242,211,173);fill-rule:nonzero;"/>
                </g>
                <g transform="matrix(1,0,0,1,2263.99,1759.76)">
                    <path d="M0,5.865L0.229,5.25L0.374,4.864L0.388,4.855L1.16,4.315L1.575,4.025L4.106,4.025L4.272,3.926L4.893,4.025L8.128,4.025L8.749,3.926L8.911,4.025L11.435,4.025L11.904,4.355L12.63,4.864L12.757,5.201L13.003,5.865L13.289,6.016L13.677,6.224L13.314,1.85L11.689,-0.22L9.916,-0.359L3.102,-0.359L1.329,-0.22L-0.296,1.85L-0.635,5.942L-0.183,5.887L0,5.865Z" style="fill:rgb(242,211,173);fill-rule:nonzero;"/>
                </g>
                <g transform="matrix(1,0,0,1,2268.24,1763.69)">
                    <path d="M0,0.1L0.646,0.1L0.024,0L0,0.1Z" style="fill:rgb(242,211,173);fill-rule:nonzero;"/>
                </g>
                <g transform="matrix(1,0,0,1,2295.9,1816.39)">
                    <path d="M0,0.084L0.038,0.066L-0.509,0L0,0.084Z" style="fill:rgb(142,142,142);fill-rule:nonzero;"/>
                </g>
                <g transform="matrix(1,0,0,1,2297.36,1820.72)">
                    <path d="M0,-4.428L-0.398,-4.494L-0.687,-4.126L-0.969,-4.172L-1.213,-4.213L-1.431,-4.249L-1.456,-4.253L-1.963,-4.337L-2.235,-4.382L-2.252,-4.371L-2.499,-4.309L-2.619,-4.319L-2.827,-4.147L-3.25,-3.797L-3.363,-3.488L-3.687,-2.579L-3.955,-1.836L-3.938,-1.701L-3.864,-1.058L-3.86,-1.022L-3.849,-0.885L-1.311,-0.464L-1.16,-0.024L-0.617,0.066L-0.518,-0.127L-0.342,-0.867L-0.141,-1.957L0.039,-3.102L0.141,-3.998L0.145,-4.404L0.085,-4.414L0,-4.428Z" style="fill:rgb(142,142,142);fill-rule:nonzero;"/>
                </g>
                <g transform="matrix(1,0,0,1,2289.37,1890.53)">
                    <path d="M-39.29,4.719L5.097,4.719L5.742,4.525L6.215,3.994L6.387,3.268L6.387,1.451L6.215,0.726L5.858,0.328L5.742,0.194L5.097,0L-39.29,0L-39.935,0.194L-40.051,0.328L-40.407,0.726L-40.58,1.451L-40.58,3.268L-40.407,3.994L-39.935,4.525L-39.29,4.719Z" style="fill:rgb(142,142,142);fill-rule:nonzero;"/>
                </g>
                <g transform="matrix(1,0,0,1,2293.1,1845.75)">
                    <path d="M0,-25.092L-0.141,-25.251L-0.317,-25.457L-0.349,-25.491L-0.747,-26.101L-1.681,-26.255L-1.805,-25.439L-2.009,-25.408L-2.15,-25.43L-2.182,-22.733L-3.102,-13.115L-3.363,-10.369L-3.469,-9.248L-3.828,-5.485L-3.863,-5.107L-3.867,-4.563L-3.881,-2.715L-3.885,-2.304L-3.892,-1.115L-1.787,-1.115L-0.37,-0.696L-0.204,-0.647L-0.099,-0.532L0.557,0.18L0.955,0.608L1.093,1.163L1.318,1.163L1.724,1.148L1.914,0.947L1.914,0.009L1.893,-0.888L1.809,-2.631L1.678,-4.893L1.382,-9.551L1.132,-13.353L0.998,-15.229L0.67,-15.229L0.67,-19.402L0.702,-19.519L0.307,-25.182L0.109,-25.124L0,-25.092Z" style="fill:rgb(142,142,142);fill-rule:nonzero;"/>
                </g>
                <g transform="matrix(1,0,0,1,2294.36,1825.28)">
                    <path d="M-0.409,4.066L7.332,4.066L-0.409,4.066ZM-0.585,1.07L-0.585,5.243L7.505,5.243L7.505,1.07L7.205,-0.053L6.384,-0.874L5.259,-1.174L5.252,-1.175L5.231,-1.176L5.207,-1.177L1.713,-1.177L1.685,-1.176L1.667,-1.175L1.66,-1.174L0.536,-0.874L-0.285,-0.053L-0.553,0.953L-0.585,1.07Z" style="fill:rgb(142,142,142);fill-rule:nonzero;"/>
                </g>
                <g transform="matrix(1,0,0,1,2289.2,1855.23)">
                    <path d="M0,-9.593L0,-9.414L-0.007,-8.381L0.039,-8.037L0.261,-6.299L0.769,-2.391L0.969,-0.828L0.98,-0.751L1.117,0.313L1.139,0.479L1.142,0.504L1.748,0.382L2.115,0.285L2.464,0.191L3.271,-0.023L3.698,-0.298L3.271,-0.023L2.464,0.191L2.115,0.285L1.748,0.382L1.142,0.504L1.181,0.807L1.206,1L2.115,1L3.448,0.613L3.698,0.536L3.828,0.393L4.748,0.393L4.857,0.277L5.281,-1.427L5.281,-7.165L4.995,-8.316L4.857,-8.87L4.459,-9.299L3.803,-10.011L3.698,-10.125L3.532,-10.174L2.115,-10.593L0.01,-10.593L0.004,-10.085L0,-9.593Z" style="fill:rgb(142,142,142);fill-rule:nonzero;"/>
                </g>
                <g transform="matrix(1,0,0,1,2292.23,1816.1)">
                    <path d="M0,3.352L-0.381,2.768L-0.349,2.664L-0.081,1.789L0.197,0.873L0.282,0.595L0.486,0.172L0.631,-0.136L0.292,-0.193L0.148,-0.019L0.099,0.108L-0.162,0.813L-0.501,1.72L-0.596,1.966L-0.691,2.608L-0.782,3.223L-0.807,3.39L0.127,3.545L0,3.352Z" style="fill:rgb(142,142,142);fill-rule:nonzero;"/>
                </g>
                <g transform="matrix(1,0,0,1,2252.35,1810.75)">
                    <path d="M0,2.65L0.349,2.596L0.486,2.575L0.187,0L0.078,0.278L-0.666,2.173L-0.776,2.301L0,2.65Z" style="fill:rgb(142,142,142);fill-rule:nonzero;"/>
                </g>
                <g transform="matrix(1,0,0,1,2290.07,1811.1)">
                    <path d="M0,1.952L-0.106,1.824L-0.959,-0.349L-1.262,2.226L-0.772,2.301L0,1.952Z" style="fill:rgb(142,142,142);fill-rule:nonzero;"/>
                </g>
                <g transform="matrix(1,0,0,1,2255.55,1814.96)">
                    <path d="M0,-0.109L-0.067,-0.098L0.081,0.143L0.533,0.08L0.867,0.079L0.988,0.079L0.945,-0.094L0.864,-0.252L0,-0.109Z" style="fill:rgb(142,142,142);fill-rule:nonzero;"/>
                </g>
                <g transform="matrix(1,0,0,1,2285.23,1814.71)">
                    <path d="M0,0.233L0.889,0.23L0.935,0.154L0.864,0.143L0,0L0,0.233Z" style="fill:rgb(142,142,142);fill-rule:nonzero;"/>
                </g>
                <g transform="matrix(1,0,0,1,2253.23,1816.75)">
                    <path d="M0,-1.187L0.226,-0.477L0.479,0.314L0.489,-0.52L0.497,-0.926L0.786,-1.158L0.662,-1.296L0.503,-1.468L0.162,-1.462L-0.103,-1.501L0,-1.187Z" style="fill:rgb(142,142,142);fill-rule:nonzero;"/>
                </g>
                <g transform="matrix(1,0,0,1,2253.6,1818.19)">
                    <path d="M0,0.576L0.088,0.561L0.095,0L0,0.576Z" style="fill:rgb(142,142,142);fill-rule:nonzero;"/>
                </g>
                <g transform="matrix(1,0,0,1,2253.69,1819.15)">
                    <path d="M0,-0.229L-0.018,1.112L-0.05,3.476L-0.046,3.993L0.042,-2.808L0.733,-3.362L2.393,-3.595L34.978,-3.705L36.632,-3.483L37.312,-2.934L37.308,-3.45L37.1,-3.617L37.03,-3.676L37.012,-3.69L36.79,-3.869L36.674,-3.964L36.632,-3.999L36.064,-4.075L35.895,-4.098L35.134,-4.2L34.978,-4.222L34.922,-4.221L34.531,-4.22L33.914,-4.218L33.59,-4.217L32.849,-4.214L32.423,-4.213L31.534,-4.21L31.436,-4.21L31.228,-4.209L31.009,-4.208L30.597,-4.207L30.23,-4.206L28.736,-4.201L25.373,-4.189L24.953,-4.188L23.927,-4.184L23.103,-4.182L14.061,-4.151L13.127,-4.148L12.214,-4.145L11.847,-4.143L10.808,-4.14L10.649,-4.14L8.541,-4.133L8.086,-4.131L4.23,-4.118L3.483,-4.115L3.26,-4.115L3.063,-4.114L2.845,-4.113L2.725,-4.113L2.39,-4.112L1.939,-4.048L1.685,-4.012L0.867,-3.897L0.73,-3.878L0.508,-3.7L0.328,-3.556L0.039,-3.325L0.032,-2.919L0.021,-2.085L0.018,-1.726L0.014,-1.416L0.007,-0.962L0,-0.401L0,-0.229Z" style="fill:rgb(142,142,142);fill-rule:nonzero;"/>
                </g>
                <g transform="matrix(1,0,0,1,2248.15,1817.36)">
                    <path d="M0,2.31L0.074,1.668L0.088,1.532L-0.176,0.79L-0.504,-0.119L-0.613,-0.429L-1.036,-0.779L-1.248,-0.951L-1.364,-0.94L-1.615,-1.003L-1.628,-1.013L-1.9,-0.969L-2.407,-0.885L-2.432,-0.88L-2.654,-0.844L-2.894,-0.804L-3.179,-0.757L-3.469,-1.125L-3.863,-1.06L-3.951,-1.045L-4.011,-1.036L-4.008,-0.63L-3.902,0.266L-3.726,1.412L-3.521,2.501L-3.349,3.241L-3.25,3.435L-2.707,3.345L-2.556,2.904L-0.014,2.484L-0.003,2.346L0,2.31Z" style="fill:rgb(142,142,142);fill-rule:nonzero;"/>
                </g>
                <g transform="matrix(1,0,0,1,2275.87,1856.08)">
                    <path d="M0,1.143L1.907,1.143L1.805,0.359L1.752,0L0,0L0,1.143Z" style="fill:rgb(142,142,142);fill-rule:nonzero;"/>
                </g>
                <g transform="matrix(1,0,0,1,2269.37,1851.59)">
                    <path d="M0,7.344L0.363,7.491L1.23,7.838L1.382,7.854L1.382,6.788L1.763,6.433L2.679,6.287L3.599,6.433L3.98,6.788L3.98,7.903L4.586,7.838L5.45,7.491L5.816,7.344L6.267,6.67L6.267,0.625L5.816,-0.049L5.051,-0.357L4.653,-0.357L4.586,-0.383L2.908,-0.559L1.23,-0.383L1.163,-0.357L0.765,-0.357L0,-0.049L-0.451,0.625L-0.451,6.67L0,7.344Z" style="fill:rgb(142,142,142);fill-rule:nonzero;"/>
                </g>
                <g transform="matrix(1,0,0,1,2268.68,1857.23)">
                    <path d="M0,-1.143L-4.66,-1.143L-4.713,-0.784L-4.819,0L0,0L0,-1.143Z" style="fill:rgb(142,142,142);fill-rule:nonzero;"/>
                </g>
                <g transform="matrix(1,0,0,1,2275.18,1855.78)">
                    <path d="M0,-4.232L0.451,-3.558L0.451,0.307L2.439,0.307L2.397,0.013L2.235,-1.113L1.991,-2.771L1.738,-4.539L-0.765,-4.539L0,-4.232Z" style="fill:rgb(142,142,142);fill-rule:nonzero;"/>
                </g>
                <g transform="matrix(1,0,0,1,2268.92,1851.24)">
                    <path d="M0,4.847L0,0.982L0.451,0.308L1.216,0L-4.195,0L-4.452,1.768L-4.692,3.426L-4.854,4.553L-4.896,4.847L0,4.847Z" style="fill:rgb(142,142,142);fill-rule:nonzero;"/>
                </g>
                <g transform="matrix(1,0,0,1,2244.66,1825.28)">
                    <path d="M5.027,4.066L-2.711,4.066L5.027,4.066ZM-2.887,5.243L5.206,5.243L5.206,1.07L5.192,1.014L4.938,0.069L4.903,-0.053L4.755,-0.202L4.082,-0.874L2.961,-1.174L2.954,-1.175L2.933,-1.176L2.905,-1.177L-0.585,-1.177L-0.613,-1.176L-0.635,-1.175L-0.642,-1.174L-1.763,-0.874L-2.584,-0.053L-2.887,1.07L-2.887,5.243Z" style="fill:rgb(142,142,142);fill-rule:nonzero;"/>
                </g>
                <g transform="matrix(1,0,0,1,2249.6,1840.69)">
                    <path d="M0,-15.343L0.254,-14.397L0.268,-14.342L0.268,-10.169L-0.564,-10.169L-0.695,-8.293L-0.948,-4.491L-1.163,-1.084L-1.163,6.213L-0.881,6.224L-0.656,6.223L-0.518,5.669L-0.123,5.24L0.536,4.528L0.642,4.414L0.807,4.365L2.224,3.945L2.834,3.945L2.831,3.665L2.823,2.69L2.816,1.699L2.809,0.411L2.799,-1.012L2.834,-1.687L2.971,-4.254L3.06,-5.882L3.176,-8.081L3.285,-10.082L3.38,-12.485L2.859,-12.997L2.619,-14.979L3.222,-15.855L3.68,-20.724L2.982,-20.677L2.873,-21.567L1.696,-21.372L1.579,-20.445L0.952,-20.348L0.754,-20.377L0.747,-20.378L0.631,-21.154L0.624,-21.195L0.405,-21.159L0.201,-21.125L-0.183,-15.614L-0.035,-15.465L0,-15.343Z" style="fill:rgb(142,142,142);fill-rule:nonzero;"/>
                </g>
                <g transform="matrix(1,0,0,1,2250.22,1816.06)">
                    <path d="M0,3.429L-0.025,3.262L-0.116,2.647L-0.215,2.005L-0.307,1.759L-0.645,0.852L-0.91,0.147L-0.955,0.02L-1.1,-0.154L-1.442,-0.097L-1.294,0.211L-1.093,0.634L-1.008,0.911L-0.726,1.828L-0.458,2.703L-0.427,2.807L-0.807,3.391L-0.934,3.583L-0.423,3.499L-0.219,3.465L0,3.429Z" style="fill:rgb(142,142,142);fill-rule:nonzero;"/>
                </g>
                <g transform="matrix(1,0,0,1,2250.41,1855.64)">
                    <path d="M0,-10.587L-0.166,-10.538L-0.271,-10.424L-0.93,-9.712L-1.325,-9.283L-1.463,-8.729L-1.748,-7.578L-1.748,-1.84L-1.325,-0.136L-1.216,-0.02L-0.296,-0.02L-0.166,0.123L0.853,0.419L0.878,0.238L0.902,0.035L0.941,-0.255L0.257,-0.436L-0.166,-0.711L0.257,-0.436L0.941,-0.255L0.945,-0.299L1.001,-0.735L1.075,-1.315L1.287,-2.933L1.787,-6.816L2.013,-8.556L2.044,-8.794L2.034,-9.966L2.034,-10.282L2.031,-10.721L2.027,-11.006L1.417,-11.006L0,-10.587Z" style="fill:rgb(142,142,142);fill-rule:nonzero;"/>
                </g>
                <g transform="matrix(0.997741,-0.0671831,-0.0671831,-0.997741,2252.59,1820.04)">
                    <path d="M-0.003,0.028L0.697,0.028L0.732,0.028L0.837,0.081L-0.003,0.028Z" style="fill:rgb(142,142,142);fill-rule:nonzero;"/>
                </g>
                <g transform="matrix(1,0,0,1,2252.37,1816.58)">
                    <path d="M0,1.756L-0.085,1.072L-0.169,0.864L-0.539,-0.037L-0.825,-0.738L-0.899,-0.913L-1.026,-0.853L-1.142,-0.81L-1.244,-0.821L-1.315,-0.878L-1.371,-0.98L-1.382,-0.978L-1.266,-0.665L-1.22,-0.547L-1.107,0.057L-0.931,0.99L-0.888,1.213L-0.977,1.917L-1.058,2.561L-1.079,2.736L0.099,2.541L0.077,2.373L0,1.756Z" style="fill:rgb(142,142,142);fill-rule:nonzero;"/>
                </g>
                <g transform="matrix(1,0,0,1,2276.8,1779.2)">
                    <path d="M0,-1.112L-0.06,0.263L-0.063,0.343L-0.123,1.258L0.828,1.24L0.839,1.226L1.051,0.854L1.741,-0.352L2.492,-1.666L1.734,-2.089L0.211,-2.37L0.19,-2.247L0,-1.112Z" style="fill:rgb(0,188,218);fill-rule:nonzero;"/>
                </g>
                <g transform="matrix(1,0,0,1,2251.68,1806.55)">
                    <path d="M0,6.371L-0.099,5.453L-0.152,4.968L-0.419,2.479L-0.525,1.468L-1.114,0.574L-1.674,-0.277L-3.166,2.319L-3.359,2.842L-3.028,3.928L-2.704,4.98L-2.552,5.471L-2.14,6.556L-1.826,6.648L-1.304,6.533L-0.751,6.501L-0.606,6.493L-0.176,6.468L-0.109,6.499L0,6.371Z" style="fill:rgb(0,188,218);fill-rule:nonzero;"/>
                </g>
                <g transform="matrix(1,0,0,1,2261.78,1813.28)">
                    <path d="M0,1.734L-0.402,1.307L-0.606,1.088L-1.639,-0.013L-3.662,1.594L-3.856,1.747L0,1.734Z" style="fill:rgb(0,188,218);fill-rule:nonzero;"/>
                </g>
                <g transform="matrix(1,0,0,1,2299.05,1810.84)">
                    <path d="M0,-6.456L-0.24,-6.443L1.082,-2.867L1.505,0L2.168,-1.49L2.048,-4.346L0.493,-5.948L0,-6.456Z" style="fill:rgb(0,188,218);fill-rule:nonzero;"/>
                </g>
                <g transform="matrix(1,0,0,1,2277.86,1785.57)">
                    <path d="M0,-5.52L-0.211,-5.148L-0.222,-5.134L-1.244,-4.031L-1.611,-3.636L-2.2,-2.997L-3.229,-1.887L-3.405,-1.417L-2.224,1.008L-1.488,2.52L0.909,-0.641L0.913,-0.644L2.633,-2.909L2.753,-3.067L3.345,-5.047L3.349,-5.059L3.366,-5.116L3.384,-5.169L3.409,-5.258L1.442,-8.04L0.691,-6.726L0,-5.52Z" style="fill:rgb(0,188,218);fill-rule:nonzero;"/>
                </g>
                <g transform="matrix(1,0,0,1,2290.14,1806.46)">
                    <path d="M0,6.563L0.43,6.588L0.571,6.597L1.128,6.629L1.65,6.744L1.963,6.651L2.372,5.567L2.524,5.075L2.848,4.023L3.183,2.938L2.989,2.414L1.498,-0.181L0.937,0.67L0.349,1.564L0.24,2.574L-0.028,5.063L-0.078,5.549L-0.176,6.466L-0.071,6.594L0,6.563Z" style="fill:rgb(0,188,218);fill-rule:nonzero;"/>
                </g>
                <g transform="matrix(1,0,0,1,2242.59,1791.05)">
                    <path d="M0,13.326L0.24,13.339L0.564,13.357L1.449,13.407L2.133,13.445L4.544,13.58L5.171,13.615L5.823,13.974L6.088,14.12L7.04,14.645L7.417,15.22L7.977,16.071L8.566,16.965L8.672,17.976L8.939,20.465L8.992,20.95L9.091,21.868L9.835,19.973L9.944,19.694L10.145,19.176L10.79,17.537L11.305,16.221L10.79,17.537L10.145,19.176L9.944,19.694L10.244,22.27L10.653,22.208L10.67,22.205L10.677,22.204L10.776,22.189L12.232,22.74L12.831,23.71L12.958,23.793L13.822,23.65L13.903,23.809L13.945,23.981L14.164,23.98L14.361,23.98L14.583,23.979L14.738,23.953L15.524,23.823L17.548,22.216L18.58,23.318L19.518,23.162L21.362,22.857L21.633,22.813L21.693,22.933L21.802,23.393L21.908,23.954L22.948,23.951L23.314,23.949L23.314,17.72L25.161,16.447L34.203,16.447L36.054,17.72L36.054,23.016L36.942,23.162L41.331,23.889L41.697,23.887L42.11,23.886L42.328,23.885L42.536,23.884L42.554,23.809L42.635,23.65L43.499,23.793L43.629,23.71L44.228,22.74L45.684,22.189L45.783,22.204L45.79,22.205L45.807,22.208L46.213,22.27L46.516,19.694L46.312,19.176L45.67,17.537L45.152,16.221L45.67,17.537L46.312,19.176L46.516,19.694L47.369,21.868L47.468,20.95L47.517,20.465L47.785,17.976L47.894,16.965L48.483,16.071L49.043,15.22L49.42,14.645L50.372,14.12L50.636,13.974L51.285,13.615L51.913,13.58L54.327,13.445L55.011,13.407L55.896,13.357L56.217,13.339L56.456,13.326L56.95,13.834L58.504,15.436L53.136,0.972L52.078,-1.559L48.419,-5.73L38.648,-10.655L38.63,-10.602L38.613,-10.545L41.57,-8.61L38.609,-10.532L38.017,-8.552L37.897,-8.394L36.177,-6.13L36.173,-6.126L33.777,-2.965L33.04,-4.477L31.859,-6.902L31.746,-6.597L31.457,-5.826L28.228,2.857L25.035,-5.734L24.601,-6.902L23.417,-4.477L22.68,-2.965L20.286,-6.126L20.279,-6.13L18.563,-8.394L18.443,-8.552L17.847,-10.532L14.886,-8.61L17.844,-10.545L17.826,-10.602L17.812,-10.655L8.041,-5.73L4.378,-1.559L3.324,0.972L-2.048,15.436L-0.493,13.834L0,13.326Z" style="fill:rgb(0,188,218);fill-rule:nonzero;"/>
                </g>
                <g transform="matrix(1,0,0,1,2242.83,1810.82)">
                    <path d="M0,-6.43L-0.24,-6.443L-0.733,-5.935L-2.288,-4.333L-2.404,-1.477L-1.745,0.013L-1.318,-2.854L0,-6.43Z" style="fill:rgb(0,188,218);fill-rule:nonzero;"/>
                </g>
                <g transform="matrix(1,0,0,1,2260.43,1785.11)">
                    <path d="M0,-4.599L0.004,-4.586L0.599,-2.606L0.719,-2.448L2.436,-0.184L2.443,-0.18L4.836,2.981L5.573,1.469L6.758,-0.957L6.581,-1.427L5.425,-2.675L4.932,-2.392L4.47,-3.573L4.396,-3.785L3.909,-4.313L3.574,-4.674L3.56,-4.688L3.349,-5.06L2.661,-6.266L1.911,-7.58L-0.06,-4.798L-0.032,-4.709L-0.018,-4.656L0,-4.599Z" style="fill:rgb(0,188,218);fill-rule:nonzero;"/>
                </g>
                <g transform="matrix(1,0,0,1,2263.78,1777.4)">
                    <path d="M0,2.645L0.211,3.017L0.226,3.031L0.536,3.037L0.493,2.383L0.479,2.134L0.416,0.679L0.236,-0.392L-0.684,-0.298L-1.438,0.125L-0.687,1.439L0,2.645Z" style="fill:rgb(0,188,218);fill-rule:nonzero;"/>
                </g>
                <g transform="matrix(0.999997,-0.00255101,-0.00255101,-0.999997,2288.22,1814.93)">
                    <rect x="-0" y="0.001" width="0.396" height="0.012" style="fill:rgb(0,188,218);"/>
                </g>
                <g transform="matrix(1,0,0,1,2253.78,1824.12)">
                    <path d="M0,0.218L-0.01,0.126L-0.13,-0.975L-0.134,-1.492L-0.102,-3.856L-0.084,-5.197L-0.201,-5.178L-0.243,-4.927L-0.359,-4.214L-0.462,-4.154L-0.497,-4.152L-0.955,0.717L-1.558,1.593L-1.318,3.575L-0.797,4.087L-0.331,4.542L-0.092,4.779L0.557,5.415L0.539,5.262L0,0.218Z" style="fill:rgb(0,188,218);fill-rule:nonzero;"/>
                </g>
                <g transform="matrix(1,0,0,1,2270.6,1860.5)">
                    <path d="M0,-1.068L-0.867,-1.415L-1.23,-1.562L-1.681,-2.236L-1.681,-4.415L-1.917,-4.415L-1.917,3.052L-0.867,3.305L0.152,3.347L0.152,-1.052L0,-1.068Z" style="fill:rgb(85,88,90);fill-rule:nonzero;"/>
                </g>
                <g transform="matrix(1,0,0,1,2275.18,1861.01)">
                    <path d="M0,-2.073L-0.367,-1.926L-1.23,-1.579L-1.837,-1.514L-1.837,2.854L-0.367,2.793L0.687,2.54L0.687,-4.927L0.451,-4.927L0.451,-2.747L0,-2.073Z" style="fill:rgb(85,88,90);fill-rule:nonzero;"/>
                </g>
                <g transform="matrix(1,0,0,1,2249.8,1820.66)">
                    <path d="M0,-1.785L-0.543,-1.158L-1.255,0L-0.906,-0.399L-0.508,-1.009L-0.381,-1.201L0,-1.785Z" style="fill:rgb(85,88,90);fill-rule:nonzero;"/>
                </g>
                <g transform="matrix(1,0,0,1,2270.53,1844.38)">
                    <path d="M0,6.853L0.067,6.827L1.745,6.651L3.423,6.827L3.49,6.853L7.751,6.853L7.751,6.296L7.751,6.479L9.627,6.473L10.536,6.47L12.781,6.462L14.928,6.455L15.394,6.454L15.457,1.26L16.673,0.166L15.401,1.186L15.464,0L15.263,1.155L-11.298,1.245L-11.491,0.091L-11.439,1.276L-12.708,0.265L-11.499,1.351L-11.562,6.545L5.319,6.487L-11.562,6.545L-11.601,6.539L-11.601,6.853L0,6.853Z" style="fill:rgb(85,88,90);fill-rule:nonzero;"/>
                </g>
                <g transform="matrix(1,0,0,1,2290.43,1857.28)">
                    <path d="M0,0.217L0.018,-0.748L-0.021,-1.051L-0.046,-1.244L-0.085,-1.547L-0.088,-1.572L-0.109,-1.738L-0.247,-2.801L-0.257,-2.879L-0.458,-4.442L-0.966,-8.35L-1.188,-10.088L-1.234,-10.432L-1.227,-11.464L-1.227,-11.644L-1.223,-12.136L-1.216,-12.644L-1.209,-13.834L-1.206,-14.245L-1.191,-16.092L-1.188,-16.636L-1.304,-15.408L-1.304,-15.403L-1.308,-15.389L-1.801,-10.219L-1.974,-8.404L-2.672,-7.223L-2.792,-7.018L-3.282,-6.631L-4.501,-6.44L-4.967,-6.438L-7.114,-6.431L-9.359,-6.423L-10.268,-6.42L-12.144,-6.414L-12.144,-6.04L-13.504,-6.04L-13.25,-4.272L-13.007,-2.614L-12.845,-1.487L-12.803,-1.193L-12.75,-0.835L-12.648,-0.05L-12.225,3.118L-12.006,4.742L-12.394,-1.551L-12.006,4.742L-11.833,7.52L-11.791,8.236L-11.696,9.775L-11.576,11.724L-11.46,13.593L-11.372,14.268L-11.217,14.402L-10.681,14.864L-9.408,16.853L-0.307,16.853L-0.215,11.724L-0.176,9.775L-0.148,8.236L-0.134,7.52L-0.088,5.004L-0.063,3.561L-0.063,3.531L-0.035,2.125L-0.025,1.611L0,0.217Z" style="fill:rgb(250,192,41);fill-rule:nonzero;"/>
                </g>
                <g transform="matrix(1,0,0,1,2251.35,1837.55)">
                    <path d="M0,27.229L0,27.291L0.004,27.343L0.004,27.496L0.014,27.956L0.014,28.083L0.032,28.871L0.042,29.499L0.078,31.449L0.173,36.578L10.899,36.578L11.326,33.318L11.442,31.449L11.562,29.499L11.657,27.961L11.7,27.245L11.872,24.467L12.26,18.174L11.872,24.467L12.087,22.843L12.51,19.675L12.616,18.89L12.669,18.531L12.711,18.237L12.873,17.11L13.113,15.453L13.37,13.685L7.579,13.685L7.579,13.37L6.987,13.283L6.38,13.193L5.897,12.809L5.066,11.429L4.935,10.205L4.752,8.521L4.357,4.818L4.343,4.695L4.216,3.519L4.142,2.809L4.114,2.546L3.768,-0.676L3.656,-1.707L3.589,-2.359L3.155,-6.407L3.071,-7.167L2.982,-8.022L2.334,-8.657L2.094,-8.894L1.629,-9.349L1.533,-6.947L1.424,-4.946L1.308,-2.747L1.22,-1.119L1.082,1.448L1.047,2.123L1.058,3.546L1.065,4.834L1.072,5.825L1.079,6.8L1.082,7.081L1.086,7.366L1.089,7.805L1.089,8.121L1.1,9.293L1.068,9.531L0.843,11.271L0.342,15.154L0.131,16.772L0.057,17.352L0,17.788L-0.003,17.832L-0.042,18.122L-0.067,18.325L-0.092,18.506L-0.151,18.977L-0.134,19.942L-0.109,21.336L-0.098,21.85L-0.039,25.225L-0.031,25.589L0,27.229Z" style="fill:rgb(250,192,41);fill-rule:nonzero;"/>
                </g>
                <g transform="matrix(-0.0500764,0.998745,0.998745,0.0500764,2287.86,1848.58)">
                    <path d="M0.253,-0.144L0.612,-0.144L0.484,0.276L-0.222,0.24L0.253,-0.144Z" style="fill:rgb(250,192,41);fill-rule:nonzero;"/>
                </g>
                <g transform="matrix(1,0,0,1,2295.86,1884.92)">
                    <path d="M0,14.903L0,-3.031L-0.137,-3.317L-0.137,2.723L-0.271,2.924L-0.61,3.29L-0.642,3.324L-1.142,3.791L-1.611,4.144L-3.553,5.608L-1.389,5.608L-0.744,5.803L-0.627,5.936L-0.271,6.334L-0.099,7.059L-0.099,8.877L-0.271,9.602L-0.744,10.133L-1.389,10.327L-8.52,10.327L-8.52,14.903L-6.909,18.22L-1.611,18.22L-0.388,15.703L-0.292,15.505L0,14.903Z" style="fill:rgb(221,221,221);fill-rule:nonzero;"/>
                </g>
                <g transform="matrix(1,0,0,1,2303.05,1903.14)">
                    <path d="M1.491,-8.311L-7.198,-8.311L-7.198,-3.317L-7.49,-2.715L-7.586,-2.517L-6.363,0L-0.342,0L1.491,-3.769L1.491,-8.311Z" style="fill:rgb(221,221,221);fill-rule:nonzero;"/>
                </g>
                <g transform="matrix(1,0,0,1,0,1075)">
                    <rect x="2295.86" y="819.26" width="0.02" height="0.567" style="fill:rgb(221,221,221);"/>
                </g>
                <g transform="matrix(1,0,0,1,0,1075)">
                    <rect x="2248.67" y="819.26" width="0.02" height="0.567" style="fill:rgb(221,221,221);"/>
                </g>
                <g transform="matrix(1,0,0,1,2255.18,1889.5)">
                    <path d="M2.038,5.753L-5.094,5.753L-5.739,5.559L-6.211,5.028L-6.384,4.302L-6.384,2.485L-6.211,1.76L-5.855,1.362L-5.739,1.228L-5.094,1.034L-2.929,1.034L-4.871,-0.43L-5.34,-0.783L-5.844,-1.25L-5.876,-1.284L-6.211,-1.651L-6.345,-1.851L-6.345,-7.892L-6.486,-7.606L-6.486,10.329L-6.193,10.93L-6.095,11.129L-4.871,13.645L0.427,13.645L2.038,10.329L2.038,5.753Z" style="fill:rgb(221,221,221);fill-rule:nonzero;"/>
                </g>
                <g transform="matrix(1,0,0,1,2248.69,1898.15)">
                    <path d="M0,1.677L0,-3.317L-8.686,-3.317L-8.686,1.225L-6.853,4.994L-0.832,4.994L0.391,2.477L0.292,2.279L0,1.677Z" style="fill:rgb(221,221,221);fill-rule:nonzero;"/>
                </g>
                <g transform="matrix(1,0,0,1,2276.99,1766.29)">
                    <path d="M0,-0.347L0.604,-0.025L0.701,0.027L0.713,0.033L0.751,0.054L0.804,0.082L1.251,0.32L1.241,0.292L1.139,-0.058L1.083,-0.088L0.875,-0.199L0.719,-0.284L0.673,-0.308L0.285,-0.516L0,-0.667L0,-0.347Z" style="fill:rgb(221,221,221);fill-rule:nonzero;"/>
                </g>
                <g transform="matrix(1,0,0,1,2275.32,1764.63)">
                    <path d="M0.101,-0.839L-9.757,-0.839L-10.173,-0.549L-10.946,-0.01L-9.638,-0.551L-0.021,-0.551L1.296,0L0.571,-0.509L0.101,-0.839Z" style="fill:rgb(221,221,221);fill-rule:nonzero;"/>
                </g>
                <g transform="matrix(1,0,0,1,2263.81,1766.12)">
                    <path d="M0,-0.472L-0.451,-0.417L-0.526,-0.409L-0.847,-0.369L-1.4,-0.301L-1.404,-0.283L-1.41,-0.241L-1.473,-0.09L-1.449,0.023L-1.407,0.016L-1.061,-0.026L-0.699,-0.07L-0.519,-0.092L-0.477,-0.097L-0.226,-0.128L0.183,-0.178L0.183,-0.495L0,-0.472Z" style="fill:rgb(221,221,221);fill-rule:nonzero;"/>
                </g>
                <g transform="matrix(1,0,0,1,2287.7,1817.55)">
                    <path d="M0,31.27L0.409,30.814L0.409,31.522L-0.018,31.629L0,31.27ZM-28.669,28.184L-29.878,27.099L-28.609,28.109L-28.662,26.924L-28.468,28.078L-1.907,27.989L-1.706,26.833L-1.77,28.019L-0.497,26.999L-1.713,28.093L-1.777,33.287L-0.557,33.096L-0.067,32.709L0.053,32.504L0.751,31.323L0.924,29.508L1.417,24.338L1.421,24.324L1.421,24.319L1.537,23.09L1.572,22.713L1.932,18.949L2.037,17.828L2.298,15.083L3.218,5.464L3.25,2.768L3.257,2.42L3.282,0.381L3.296,-0.682L3.303,-1.336L2.623,-1.885L0.969,-2.108L-31.616,-1.998L-33.276,-1.764L-33.967,-1.211L-34.055,5.59L-33.935,6.691L-33.925,6.783L-33.385,11.827L-33.367,11.98L-33.279,12.835L-33.195,13.595L-32.761,17.643L-32.694,18.295L-32.582,19.326L-32.236,22.547L-32.208,22.81L-32.134,23.521L-32.007,24.697L-31.993,24.82L-31.598,28.523L-31.415,30.207L-31.284,31.431L-30.452,32.811L-29.969,33.195L-29.363,33.285L-28.771,33.372L-28.732,33.378L-28.669,28.184Z" style="fill:rgb(221,221,221);fill-rule:nonzero;"/>
                </g>
                <g transform="matrix(1,0,0,1,2272.05,1857.95)">
                    <path d="M0,9.057L0.92,9.107L1.301,9.127L1.301,0.431L0.92,0.077L0,-0.07L-0.916,0.077L-1.297,0.431L-1.297,9.127L-0.916,9.107L0,9.057Z" style="fill:rgb(221,221,221);fill-rule:nonzero;"/>
                </g>
                <g transform="matrix(1,0,0,1,2295.2,1859.4)">
                    <path d="M0,-28.884L0,-3.783L-2.171,-3.783L-2.302,-3.641L-2.552,-3.564L-3.885,-3.177L-4.794,-3.177L-4.755,-2.874L-4.773,-1.909L-4.797,-0.514L-4.808,0L0.666,0L1.823,-0.514L3.084,-1.909L3.402,-3.783L3.402,-28.884L0,-28.884Z" style="fill:rgb(221,221,221);fill-rule:nonzero;"/>
                </g>
                <g transform="matrix(1,0,0,1,2251.22,1832.43)">
                    <path d="M0,25.067L-0.018,24.102L0.042,23.631L-0.976,23.335L-1.107,23.192L-2.781,23.192L-2.781,-1.908L-6.179,-1.908L-6.179,23.192L-5.865,25.067L-4.604,26.461L-3.447,26.975L0.035,26.975L0.025,26.461L0,25.067Z" style="fill:rgb(221,221,221);fill-rule:nonzero;"/>
                </g>
                <g transform="matrix(1,0,0,1,2261.78,1813.87)">
                    <path d="M0,1.151L0.455,1.149L2.563,1.142L2.721,1.142L2.615,0.581L2.506,0.12L2.446,0L2.175,0.045L0.331,0.35L-0.606,0.505L-0.402,0.724L0,1.151Z" style="fill:rgb(221,221,221);fill-rule:nonzero;"/>
                </g>
                <g transform="matrix(1,0,0,1,2278.64,1814.71)">
                    <path d="M0,-0.639L0,0.252L0.42,0.251L3.782,0.239L5.278,0.234L0.889,-0.492L0,-0.639Z" style="fill:rgb(221,221,221);fill-rule:nonzero;"/>
                </g>
                <g transform="matrix(-0.987241,0.159232,0.159232,0.987241,2257.95,1814.85)">
                    <path d="M0.635,0.055L0.792,0.055L0.055,0.172L-0.161,0.051L0.635,0.055Z" style="fill:rgb(221,221,221);fill-rule:nonzero;"/>
                </g>
                <g transform="matrix(1,0,0,1,2264.34,1780.43)">
                    <path d="M0,0.361L-0.024,0.006L-0.335,0L0,0.361Z" style="fill:white;fill-rule:nonzero;"/>
                </g>
                <g transform="matrix(1,0,0,1,2276.68,1781.52)">
                    <path d="M0,-1.065L-0.071,0.019L0.952,-1.084L0,-1.065Z" style="fill:white;fill-rule:nonzero;"/>
                </g>
                <g transform="matrix(1,0,0,1,2270.5,1793.43)">
                    <path d="M0,-7.709L-2.876,-8.104L0.317,0.487L3.546,-8.196L0.317,-7.753L0,-7.709Z" style="fill:white;fill-rule:nonzero;"/>
                </g>
            </g>
        </g>
    </g>
</svg>
