<?xml version="1.0" encoding="UTF-8" standalone="no"?>
<!DOCTYPE svg PUBLIC "-//W3C//DTD SVG 1.1//EN" "http://www.w3.org/Graphics/SVG/1.1/DTD/svg11.dtd">
<svg width="100%" height="100%" viewBox="0 0 140 220" version="1.1" xmlns="http://www.w3.org/2000/svg" xmlns:xlink="http://www.w3.org/1999/xlink" xml:space="preserve" xmlns:serif="http://www.serif.com/" style="fill-rule:evenodd;clip-rule:evenodd;stroke-linejoin:round;stroke-miterlimit:2;">
    <g transform="matrix(1,0,0,1,-1785.64,-1683.5)">
        <g id="people-22">
            <g>
                <g transform="matrix(1,0,0,1,1823.37,1894.48)">
                    <rect x="-1.959" y="-3.011" width="1.959" height="3.359" style="fill:rgb(66,76,160);fill-rule:nonzero;"/>
                </g>
                <g transform="matrix(1,0,0,1,1876.13,1891.39)">
                    <path d="M0,-0.843L-0.106,-0.923L-0.268,-0.32L-0.297,-0.211L-0.588,0.08L2.089,0.08L2.089,-0.843L0,-0.843Z" style="fill:rgb(66,76,160);fill-rule:nonzero;"/>
                </g>
                <g transform="matrix(1,0,0,1,1888.19,1894.83)">
                    <rect x="-0.28" y="-3.359" width="1.959" height="3.359" style="fill:rgb(66,76,160);fill-rule:nonzero;"/>
                </g>
                <g transform="matrix(1,0,0,1,1888.33,1891.36)">
                    <path d="M0,-16.323L-0.15,-16.435L-0.258,-16.303L-0.383,-16.148L-0.485,-16.023L-0.538,-15.847L-0.726,-15.22L-0.804,-14.964L-0.808,-14.938L-1.037,-13.624L-0.427,-12.367L-0.427,0.112L1.533,0.112L1.514,-3.122L1.428,-6.252L1.276,-9.146L1.067,-11.683L0.808,-13.756L0.51,-15.277L0.186,-16.183L0.039,-16.293L0,-16.323Z" style="fill:rgb(66,76,160);fill-rule:nonzero;"/>
                </g>
                <g transform="matrix(1,0,0,1,1880.06,1872.83)">
                    <path d="M0,-5.947L-0.012,-5.488L-0.012,0.751L2.516,-1.225L2.831,-3.325L0.915,-5.52L0.559,-5.864L0.558,-5.861L0.559,-5.864L0.554,-5.864L0.08,-6.316L-0.074,-6.467L-0.317,-6.698L-1.252,-6.694L-2.916,-6.689L-2.981,-6.575L-3.03,-6.146L-0.429,-6.154L0,-5.947Z" style="fill:rgb(66,76,160);fill-rule:nonzero;"/>
                </g>
                <g transform="matrix(1,0,0,1,1875.87,1894.83)">
                    <path d="M2.356,-3.359L-0.321,-3.359L-1.227,-2.452L-2.864,-2.013L-37.274,-2.013L-38.911,-2.452L-39.818,-3.359L-42.817,-3.359L-42.817,0L2.356,0L2.356,-3.359Z" style="fill:rgb(66,76,160);fill-rule:nonzero;"/>
                </g>
                <g transform="matrix(-0.999995,0.00307336,0.00307336,0.999995,1877.02,1873.62)">
                    <rect x="-2.613" y="-6.326" width="2.622" height="6.322" style="fill:rgb(66,76,160);"/>
                </g>
                <g transform="matrix(1,0,0,1,1835.41,1890.26)">
                    <path d="M-2.356,1.206L0.642,1.206L0.351,0.915L0.106,0L0,0.08L-0.267,0.283L-2.356,0.283L-2.356,1.206Z" style="fill:rgb(66,76,160);fill-rule:nonzero;"/>
                </g>
                <g transform="matrix(1,0,0,1,1880.14,1890.4)">
                    <path d="M0,-23.887L0.474,-23.435L0.479,-23.435L0.835,-23.092L2.752,-20.896L2.436,-18.796L-0.091,-16.82L-0.52,-16.781L-3.128,-16.781L-3.377,-11.964L-4.272,-7.737L-6.041,-5.009L-5.446,-4.849L-4.287,-3.689L-3.884,-2.184L-3.862,-2.106L-3.862,-0.854L-3.974,-0.438L-4.11,0.071L-4.004,0.151L1.657,0.151L3.42,-0.288L4.877,-1.168L4.914,-1.215L5.832,-2.37L5.936,-2.808L6.157,-3.731L6.258,-4.657L6.571,-7.542L6.817,-9.805L6.854,-10.147L6.997,-11.414L7.102,-12.341L7.107,-12.372L7.157,-12.662L7.387,-13.976L7.391,-14.003L7.468,-14.258L7.657,-14.885L7.71,-15.061L7.812,-15.187L7.937,-15.341L8.045,-15.474L8.195,-15.361L8.234,-15.332L8.381,-15.222L6.005,-20.143L3.915,-22.549L3.515,-22.838L0.903,-24.038L-0.154,-24.038L0,-23.887Z" style="fill:rgb(66,76,160);fill-rule:nonzero;"/>
                </g>
                <g transform="matrix(1,0,0,1,1823.37,1874.92)">
                    <path d="M0,16.548L0,4.069L0.611,2.812L0.382,1.498L0.377,1.471L0.3,1.215L0.112,0.589L0.058,0.412L-0.043,0.287L-0.169,0.133L-0.276,0L-0.426,0.113L-0.466,0.142L-0.612,0.252L-0.936,1.158L-1.234,2.68L-1.493,4.752L-1.703,7.289L-1.854,10.184L-1.941,13.314L-1.959,16.548L0,16.548Z" style="fill:rgb(66,76,160);fill-rule:nonzero;"/>
                </g>
                <g transform="matrix(1,0,0,1,1828.98,1881.68)">
                    <path d="M0,-12.417L-0.114,-12.288L0,-12.417ZM0.19,-10.263L0.188,-10.252L0.19,-10.263ZM-6.038,-6.645L-5.888,-6.758L-5.781,-6.625L-5.655,-6.471L-5.554,-6.346L-5.501,-6.169L-5.312,-5.543L-5.235,-5.287L-5.23,-5.26L-5.001,-3.946L-4.951,-3.656L-4.945,-3.625L-4.841,-2.698L-4.697,-1.431L-4.66,-1.089L-4.414,1.174L-4.101,4.059L-4.001,4.984L-3.78,5.908L-3.676,6.346L-2.758,7.501L-2.72,7.548L-1.264,8.428L0.499,8.867L6.161,8.867L6.428,8.664L6.534,8.584L6.34,7.862L6.34,6.716L6.779,5.079L7.977,3.881L8.261,3.805L6.428,0.979L5.534,-3.249L5.284,-8.065L3.064,-8.065L2.92,-8.078L2.652,-8.337L2.63,-8.344L2.63,-14.343L2.618,-14.802L3.047,-15.01L5.27,-15.003L5.288,-14.388L3.064,-14.395L3.064,-8.065L5.288,-8.065L5.284,-8.065L5.534,-3.249L6.428,0.979L8.261,3.805L8.435,3.758L9.614,3.442L11.016,3.442L11.016,-5.268L11.488,-6.569L12.517,-7.496L13.86,-7.831L39.738,-7.831L41.02,-7.488L41.958,-6.55L42.301,-5.268L42.301,3.442L44.13,3.442L44.882,3.644L45.119,3.707L46.888,0.979L47.783,-3.249L48.032,-8.065L48.032,-14.387L48.051,-15.001L48.1,-15.43L48.165,-15.545L49.828,-15.55L50.764,-15.553L51.006,-15.322L51.381,-15.322L47.619,-18.903L47.119,-19.38L46.98,-19.484L45.303,-20.736L44.806,-20.861L42.531,-21.274L42.301,-21.284L11.016,-21.284L10.785,-21.274L9.269,-21L8.57,-20.872L8.511,-20.861L8.013,-20.736L6.198,-19.38L1.936,-15.322L2.693,-15.322L2.935,-15.553L3.49,-15.551L5.156,-15.546L3.49,-15.551L2.935,-15.553L2.693,-15.322L2.538,-15.171L2.064,-14.72L2.059,-14.72L1.755,-14.426L1.741,-14.411L1.755,-14.426L2.059,-14.72L2.064,-14.72L2.538,-15.171L2.693,-15.322L1.254,-15.322L-1.358,-14.122L-1.759,-13.833L-3.849,-11.427L-6.224,-6.506L-6.078,-6.616L-6.038,-6.645Z" style="fill:rgb(66,76,160);fill-rule:nonzero;"/>
                </g>
                <g transform="matrix(1,0,0,1,1849.91,1757.18)">
                    <path d="M0,13.387L1.525,15.576L3.707,16.853L7.504,16.782L11.3,16.853L13.483,15.576L15.008,13.387L15.751,11.23L16.103,9.549L16.136,8.45L16.136,8.446L16.264,4.135L13.741,-0.17L12.963,-1.315L9.081,-3.188L7.504,-3.466L5.926,-3.188L2.045,-1.315L1.267,-0.17L-1.257,4.135L-1.137,7.041L-1.095,9.549L-0.743,11.23L0,13.387Z" style="fill:rgb(63,38,19);fill-rule:nonzero;"/>
                </g>
                <g transform="matrix(1,0,0,1,1834.4,1820.5)">
                    <path d="M0,-0.661L-0.048,0.024L0.118,-0.159L0.153,-0.675L0.143,-0.685L0,-0.661Z" style="fill:rgb(242,211,173);fill-rule:nonzero;"/>
                </g>
                <g transform="matrix(1,0,0,1,1831.16,1812.21)">
                    <path d="M0,4.693L0.236,4.877L0.389,4.996L0.694,5.084L1.403,5.289L2.44,5.589L1.403,5.289L1.823,5.575L2.349,5.73L3.503,6.069L3.506,6.016L3.552,5.354L3.58,4.962L3.605,4.605L3.627,4.285L3.698,3.265L3.777,2.137L3.03,2.092L2.087,2.035L1.632,2.007L1.133,1.938L0.454,1.842L-1.176,1.614L-1.752,1.144L-2.2,0.779L-3.216,-0.049L-3.34,-0.329L-3.804,-1.376L-4.103,0.633L-2.667,2.62L-0.755,4.107L-0.532,4.279L0,4.693Z" style="fill:rgb(242,211,173);fill-rule:nonzero;"/>
                </g>
                <g transform="matrix(1,0,0,1,1879.28,1820.55)">
                    <path d="M0,-0.791L-0.329,-0.845L-0.656,-0.9L-0.257,-0.29L0.091,0.109L0.547,-0.024L0.499,-0.708L0.356,-0.732L0,-0.791Z" style="fill:rgb(242,211,173);fill-rule:nonzero;"/>
                </g>
                <g transform="matrix(1,0,0,1,1886.23,1817.11)">
                    <path d="M0,-4.942L-1.016,-4.114L-1.464,-3.748L-2.04,-3.279L-3.67,-3.051L-4.349,-2.955L-4.848,-2.885L-5.304,-2.858L-6.246,-2.801L-7.539,-2.722L-8.361,-2.673L-8.413,-2.534L-8.464,-2.409L-8.403,-1.545L-8.331,-0.499L-8.181,0.163L-8.331,-0.499L-8.28,0.219L-8.205,1.304L-7.234,1.327L-5.565,0.837L-5.039,0.682L-4.62,0.396L-5.656,0.696L-4.62,0.396L-3.911,0.191L-3.606,0.103L-3.452,-0.016L-3.216,-0.2L-2.684,-0.614L-2.461,-0.786L-0.549,-2.273L0.886,-4.26L0.588,-6.269L0.124,-5.221L0,-4.942Z" style="fill:rgb(242,211,173);fill-rule:nonzero;"/>
                </g>
                <g transform="matrix(1,0,0,1,1851.65,1768.66)">
                    <path d="M0,8.028L1.924,7.675L2.036,7.674L2.419,7.673L2.774,7.671L5.438,7.66L5.757,7.661L8.737,7.674L8.951,7.675L9.094,7.701L9.594,7.793L11.496,8.142L11.919,8.22L12.251,8.281L12.912,4.338L13.44,2.119L13.461,2.032L13.606,1.419L13.643,1.266L14.004,-0.253L13.261,1.904L11.736,4.093L9.553,5.371L5.757,5.299L1.96,5.371L-0.222,4.093L-1.747,1.904L-2.49,-0.253L-2.129,1.266L-2.092,1.419L-1.947,2.032L-1.926,2.119L-1.398,4.338L-0.757,8.167L-0.392,8.1L0,8.028Z" style="fill:rgb(242,211,173);fill-rule:nonzero;"/>
                </g>
                <g transform="matrix(1,0,0,1,1866.01,1769.57)">
                    <path d="M0,-2.846L-0.352,-1.165L-0.713,0.354L-0.75,0.507L-0.895,1.12L-0.916,1.207L-0.282,1.305L0.209,1.003L0.783,-0.02L1.462,-1.363L1.772,-2.742L1.705,-3.497L1.258,-4.151L0.033,-3.948L0.033,-3.945L0,-2.846Z" style="fill:rgb(242,211,173);fill-rule:nonzero;"/>
                </g>
                <g transform="matrix(1,0,0,1,1849.56,1766.22)">
                    <path d="M0,3.86L-0.036,3.707L-0.397,2.188L-0.75,0.507L-0.783,-0.592L-0.783,-0.595L-2.007,-0.798L-2.454,-0.144L-2.522,0.611L-2.212,1.99L-1.533,3.333L-0.958,4.356L-0.468,4.658L0.166,4.56L0.146,4.473L0,3.86Z" style="fill:rgb(242,211,173);fill-rule:nonzero;"/>
                </g>
                <g transform="matrix(0.0701393,0.997537,0.997537,-0.0701393,1877.93,1814.5)">
                    <path d="M-0.07,-0.173L0.186,-0.173L0.054,-0.113L-0.07,-0.057L-0.07,-0.173Z" style="fill:rgb(242,211,173);fill-rule:nonzero;"/>
                </g>
                <g transform="matrix(1,0,0,1,1864.36,1895.25)">
                    <rect x="-23.787" y="-0.418" width="30.125" height="0.418" style="fill:rgb(142,142,142);fill-rule:nonzero;"/>
                </g>
                <g transform="matrix(1,0,0,1,1848.44,1783.16)">
                    <path d="M-3.229,18.29L17.625,18.29L17.994,18.197L19.22,17.89L19.466,17.785L20.815,16.404L21.25,14.741L21.308,14.519L21.308,3.684L21.167,3.157L20.815,1.842L19.466,0.494L19.22,0.494L17.625,0L-3.229,0L-3.276,0.013L-4.824,0.494L-5.071,0.494L-6.419,1.842L-6.627,2.618L-6.888,3.59L-6.913,3.684L-6.913,14.519L-6.419,16.404L-6.341,16.485L-5.071,17.785L-4.824,17.89L-3.229,18.29Z" style="fill:rgb(142,142,142);fill-rule:nonzero;"/>
                </g>
                <g transform="matrix(1,0,0,1,1871.28,1882.56)">
                    <path d="M0,-6.148L-0.343,-7.429L-1.281,-8.367L-2.563,-8.711L-28.441,-8.711L-29.784,-8.376L-30.812,-7.449L-31.285,-6.148L-31.285,2.563L0,2.563L0,-6.148Z" style="fill:rgb(142,142,142);fill-rule:nonzero;"/>
                </g>
                <g transform="matrix(1,0,0,1,1836.05,1886.47)">
                    <path d="M-0.291,4.711L0.907,5.909L2.544,6.348L36.953,6.348L38.59,5.909L39.497,5.002L39.789,4.711L39.818,4.602L39.98,3.998L40.116,3.49L40.228,3.074L40.228,1.822L40.206,1.744L39.803,0.238L38.643,-0.921L38.049,-1.081L37.811,-1.144L37.06,-1.346L2.544,-1.346L1.364,-1.03L1.19,-0.983L0.907,-0.907L-0.291,0.291L-0.73,1.928L-0.73,3.074L-0.536,3.796L-0.291,4.711Z" style="fill:rgb(142,142,142);fill-rule:nonzero;"/>
                </g>
                <g transform="matrix(1,0,0,1,1834.56,1817.3)">
                    <path d="M0,2.518L0.023,2.181L0.076,1.425L0.107,0.987L-1.047,0.648L-1.573,0.493L-1.993,0.207L-2.701,0.002L-3.006,-0.086L-3.159,-0.205L-3.396,-0.389L-3.928,-0.803L-4.151,-0.976L-4.147,-0.57L-4.043,0.326L-3.865,1.471L-3.662,2.561L-3.488,3.301L-3.389,3.494L-2.846,3.405L-2.695,2.964L-0.154,2.543L-0.012,2.52L0,2.518Z" style="fill:rgb(142,142,142);fill-rule:nonzero;"/>
                </g>
                <g transform="matrix(1,0,0,1,1883.02,1820.2)">
                    <path d="M0,-3.297L-0.236,-3.113L-0.39,-2.994L-0.694,-2.906L-1.403,-2.701L-1.823,-2.415L-2.349,-2.26L-4.018,-1.77L-4.989,-1.793L-4.985,-1.733L-4.932,-0.977L-4.909,-0.64L-4.396,-0.556L-4.07,-0.501L-3.74,-0.447L-3.384,-0.388L-3.241,-0.365L-0.701,0.056L-0.55,0.497L-0.006,0.586L0.092,0.393L0.266,-0.347L0.469,-1.436L0.647,-2.582L0.752,-3.478L0.755,-3.883L0.532,-3.711L0,-3.297Z" style="fill:rgb(142,142,142);fill-rule:nonzero;"/>
                </g>
                <g transform="matrix(1,0,0,1,1853.09,1846.89)">
                    <path d="M-16.494,10.339L22.994,10.339L24.578,9.87L25.63,8.732L25.737,8.616L26.161,6.911L26.161,1.173L25.875,0.022L25.737,0.022L25.737,0.108L25.657,0.021L24.578,0.018L24.578,0.043L24.538,0.018L24.464,0.017L23.953,0.015L23.039,0.012L21.806,0.007L20.306,0.002L19.84,0L-13.34,0L-13.806,0.002L-15.306,0.007L-16.539,0.012L-17.454,0.015L-17.964,0.017L-18.038,0.018L-18.078,0.043L-18.078,0.018L-19.157,0.021L-19.237,0.108L-19.237,0.022L-19.375,0.022L-19.661,1.173L-19.661,6.911L-19.237,8.616L-19.13,8.732L-18.078,9.87L-16.494,10.339Z" style="fill:rgb(142,142,142);fill-rule:nonzero;"/>
                </g>
                <g transform="matrix(1,0,0,1,1833.89,1819.82)">
                    <path d="M0,9.603L-0.053,10.363L-0.064,10.528L-0.076,10.699L-0.207,12.575L-0.461,16.377L-0.756,21.035L-0.887,23.297L-0.97,25.04L-0.991,25.937L-0.991,26.875L-0.8,27.076L-0.396,27.091L-0.17,27.09L0.021,27.09L0.049,27.089L1.128,27.086L1.167,27.086L1.242,27.085L1.752,27.083L2.666,27.08L3.899,27.075L5.399,27.07L5.866,27.068L39.045,27.068L39.512,27.07L41.011,27.075L42.244,27.08L43.159,27.083L43.669,27.085L43.744,27.086L43.783,27.086L44.862,27.089L44.943,27.09L45.08,27.09L45.307,27.091L45.587,27.081L45.711,27.076L45.902,26.875L45.902,25.937L45.881,25.04L45.798,23.309L45.587,19.986L45.587,19.783L45.371,16.377L45.118,12.575L44.987,10.699L44.957,10.269L44.938,9.999L44.957,10.269L44.987,10.699L52.249,10.699L52.249,6.526L51.948,5.403L51.126,4.582L50.986,4.551L50.003,4.282L49.999,4.282L49.996,4.281L49.977,4.28L49.949,4.279L46.457,4.279L46.43,4.28L46.41,4.281L46.403,4.282L45.42,4.551L45.28,4.582L44.608,5.254L44.616,5.368L44.633,5.614L44.691,6.451L44.877,9.125L44.691,6.451L44.633,5.614L44.616,5.368L44.608,5.254L44.223,-0.257L44.2,-0.594L44.147,-1.351L44.143,-1.41L44.068,-2.495L44.017,-3.214L43.945,-4.259L43.884,-5.123L43.866,-5.38L43.549,-9.925L43.343,-12.895L43.099,-16.367L43.099,-16.383L42.454,-16.864L41.802,-17.07L41.656,-17.116L39.045,-17.42L39.045,-17.488L29.805,-17.488L29.805,-16.827L29.653,-16.754L29.553,-16.706L28.947,-16.657L28.339,-16.706L28.088,-16.827L28.088,-17.488L15.409,-17.488L15.409,-16.827L15.257,-16.754L15.158,-16.706L14.551,-16.657L13.944,-16.706L13.692,-16.827L13.692,-17.488L5.866,-17.488L5.531,-17.44L4.647,-17.314L3.254,-17.116L3.188,-17.095L2.457,-16.864L1.812,-16.383L1.813,-16.377L1.812,-16.367L1.813,-15.746L1.813,-15.191L1.813,-15.746L1.812,-16.367L1.556,-12.713L1.36,-9.906L1.238,-8.153L1.051,-5.47L0.972,-4.342L0.901,-3.322L0.879,-3.003L0.854,-2.646L0.826,-2.253L0.78,-1.592L0.777,-1.538L0.746,-1.1L0.693,-0.344L0.67,-0.007L0.669,0.004L0.633,0.521L0.624,0.651L0.617,0.746L0.223,6.409L0.215,6.517L0,9.603Z" style="fill:rgb(142,142,142);fill-rule:nonzero;"/>
                </g>
                <g transform="matrix(1,0,0,1,1832.71,1824.1)">
                    <path d="M-6.661,6.42L1.099,6.42L1.111,6.249L1.123,6.084L1.176,5.324L1.391,2.238L1.398,2.13L1.129,1.124L0.307,0.303L0.167,0.272L-0.816,0.003L-0.823,0.002L-0.842,0.001L-0.87,0L-4.362,0L-4.389,0.001L-4.409,0.002L-4.416,0.003L-5.399,0.272L-5.539,0.303L-6.36,1.124L-6.661,2.247L-6.661,6.42Z" style="fill:rgb(142,142,142);fill-rule:nonzero;"/>
                </g>
                <g transform="matrix(1,0,0,1,1867.66,1783.16)">
                    <path d="M0,0.495L0.246,0.495L-1.595,0L0,0.495Z" style="fill:rgb(0,188,218);fill-rule:nonzero;"/>
                </g>
                <g transform="matrix(1,0,0,1,1872.93,1802.64)">
                    <path d="M0,-0.235L2.611,0.068L1.949,-0.026L1.042,-0.155L0,-0.303L0,-0.235Z" style="fill:rgb(0,188,218);fill-rule:nonzero;"/>
                </g>
                <g transform="matrix(1,0,0,1,1843.37,1783.18)">
                    <path d="M0,0.482L0.246,0.482L1.794,0L0,0.482Z" style="fill:rgb(0,188,218);fill-rule:nonzero;"/>
                </g>
                <g transform="matrix(1,0,0,1,1827.94,1778.59)">
                    <path d="M0,33.57L1.016,34.398L1.465,34.764L2.04,35.233L3.67,35.461L4.349,35.557L4.848,35.627L5.304,35.654L6.247,35.711L6.993,35.757L7.18,33.073L7.302,31.321L7.498,28.513L7.754,24.859L7.755,24.85L7.754,24.844L8.399,24.362L9.13,24.131L9.196,24.11L10.589,23.912L11.473,23.786L11.808,23.739L19.635,23.739L19.635,22.859L17.264,22.859L15.669,22.459L15.422,22.354L14.152,21.054L14.074,20.973L13.58,19.088L13.58,8.253L13.605,8.159L13.866,7.187L14.074,6.411L15.422,5.063L17.217,4.582L17.264,4.569L38.117,4.569L39.959,5.063L41.308,6.411L41.66,7.726L41.801,8.253L41.801,19.088L41.743,19.31L41.308,20.973L39.959,22.354L39.713,22.459L38.487,22.766L38.117,22.859L35.747,22.859L35.747,23.739L44.987,23.739L46.03,23.887L46.937,24.016L47.599,24.11L47.744,24.156L48.396,24.362L49.041,24.844L49.041,24.859L49.285,28.332L49.491,31.301L49.808,35.846L49.923,35.84L49.929,35.839L50.751,35.79L52.044,35.711L52.987,35.654L53.442,35.627L53.941,35.557L54.62,35.461L56.25,35.233L56.826,34.764L57.274,34.398L58.29,33.57L58.414,33.291L58.879,32.243L59.539,30.753L59.421,27.897L54.051,13.432L52.995,10.902L49.335,6.73L39.563,1.806L39.503,1.775L38.687,1.364L39.503,1.775L39.589,1.717L37.621,-1.065L36.865,-1.488L35.959,-1.655L35.627,-1.716L35.204,-1.793L33.301,-2.143L32.802,-2.234L32.659,-2.26L32.445,-2.261L29.465,-2.274L29.145,-2.276L26.481,-2.264L26.126,-2.263L25.744,-2.261L25.632,-2.26L23.708,-1.908L23.316,-1.836L22.951,-1.769L21.425,-1.488L20.669,-1.065L18.701,1.717L18.787,1.775L19.604,1.364L18.787,1.775L18.727,1.806L8.955,6.73L5.295,10.902L4.239,13.432L-1.131,27.897L-1.249,30.753L-0.588,32.243L-0.124,33.291L0,33.57Z" style="fill:rgb(0,188,218);fill-rule:nonzero;"/>
                </g>
                <g transform="matrix(1,0,0,1,1859.27,1802.33)">
                    <rect x="-9.975" y="-0.88" width="12.678" height="0.88" style="fill:rgb(0,188,218);fill-rule:nonzero;"/>
                </g>
                <g transform="matrix(1,0,0,1,1849.04,1803.16)">
                    <path d="M0.252,-1.711L-1.465,-1.711L-1.465,-0.17L-1.214,-0.05L-0.607,0L0,-0.05L0.1,-0.098L0.252,-0.17L0.252,-1.711Z" style="fill:rgb(85,88,90);fill-rule:nonzero;"/>
                </g>
                <g transform="matrix(1,0,0,1,1863.44,1803.16)">
                    <path d="M0.251,-1.711L-1.465,-1.711L-1.465,-0.17L-1.214,-0.05L-0.607,0L0,-0.05L0.1,-0.098L0.251,-0.17L0.251,-1.711Z" style="fill:rgb(85,88,90);fill-rule:nonzero;"/>
                </g>
                <g transform="matrix(1,0,0,1,1858.18,1860.4)">
                    <rect x="-6.14" y="-3.169" width="7.193" height="3.169" style="fill:rgb(85,88,90);fill-rule:nonzero;"/>
                </g>
                <g transform="matrix(1,0,0,1,1873.05,1860.6)">
                    <path d="M0,-1.198L0,-3.374L-9.006,-3.374L-8.583,-0.205L-1.776,-0.205L-1.546,-0.194L-1.354,-0.164L0.729,0.219L1.226,0.343L2.902,1.596L3.041,1.7L3.542,2.176L3.605,-1.198L0,-1.198Z" style="fill:rgb(250,192,41);fill-rule:nonzero;"/>
                </g>
                <g transform="matrix(1,0,0,1,1839.57,1857.6)">
                    <path d="M0,2.837L0.191,2.807L0.422,2.796L10.137,2.796L10.56,-0.372L-0.44,-0.372L-0.44,1.803L-2.05,1.803L-2.024,3.209L-1.325,3.081L0,2.837Z" style="fill:rgb(250,192,41);fill-rule:nonzero;"/>
                </g>
                <g transform="matrix(1,0,0,1,1879.61,1866.67)">
                    <path d="M0,6.945L0.005,6.945L0.434,6.906L0.434,0.667L0.445,0.208L0.016,0L-2.585,0.009L-2.603,0.623L0,0.615L0,6.945Z" style="fill:rgb(221,221,221);fill-rule:nonzero;"/>
                </g>
                <g transform="matrix(1,0,0,1,1834.27,1872.99)">
                    <path d="M0,-5.702L-0.018,-6.316L-2.241,-6.323L-2.67,-6.116L-2.658,-5.657L-2.659,0.342L-2.636,0.349L-2.368,0.608L-2.225,0.621L-2.225,-5.709L0,-5.702Z" style="fill:rgb(221,221,221);fill-rule:nonzero;"/>
                </g>
                <g transform="matrix(1,0,0,1,1838.96,1903.14)">
                    <path d="M1.612,-8.311L-5.912,-8.311L-5.912,-3.769L-6.18,-3.218L-6.439,-2.686L-6.521,-2.517L-5.297,0L0,0L1.612,-3.317L1.612,-8.311Z" style="fill:rgb(221,221,221);fill-rule:nonzero;"/>
                </g>
                <g transform="matrix(1,0,0,1,1832.78,1880.95)">
                    <path d="M0,18.97L0.268,18.419L0.268,9.595L-3.305,9.595L-5.068,9.155L-6.524,8.276L-6.562,8.229L-7.479,7.074L-7.584,6.636L-7.805,5.712L-7.905,4.787L-8.218,1.902L-8.464,-0.362L-8.501,-0.704L-8.645,-1.97L-8.749,-2.898L-8.755,-2.928L-8.805,-3.218L-9.416,-1.961L-9.416,18.419L-7.584,22.188L-1.564,22.188L-0.341,19.671L-0.259,19.502L0,18.97Z" style="fill:rgb(221,221,221);fill-rule:nonzero;"/>
                </g>
                <g transform="matrix(1,0,0,1,1878.49,1898.05)">
                    <path d="M0,1.875L-0.268,1.324L-0.268,-3.218L-7.792,-3.218L-7.792,1.776L-6.18,5.093L-0.882,5.093L0.341,2.576L0.259,2.407L0,1.875Z" style="fill:rgb(221,221,221);fill-rule:nonzero;"/>
                </g>
                <g transform="matrix(1,0,0,1,1887.91,1889.06)">
                    <path d="M0,10.315L0,-10.065L-0.611,-11.322L-0.661,-11.032L-0.667,-11.002L-0.771,-10.075L-0.915,-8.808L-0.952,-8.466L-1.198,-6.202L-1.511,-3.317L-1.611,-2.392L-1.832,-1.468L-1.937,-1.03L-2.854,0.125L-2.891,0.172L-4.348,1.051L-6.111,1.491L-9.684,1.491L-9.684,10.315L-9.416,10.866L-9.157,11.398L-9.075,11.567L-7.852,14.084L-1.832,14.084L0,10.315Z" style="fill:rgb(221,221,221);fill-rule:nonzero;"/>
                </g>
                <g transform="matrix(1,0,0,1,1879.47,1859.4)">
                    <path d="M0,-28.884L0,-19.597L0.211,-16.274L0.294,-14.543L0.315,-13.646L0.315,-12.708L0.123,-12.507L0,-12.502L0,-3.783L-0.752,-3.783L-1.804,-2.645L-3.387,-2.176L-6.42,-2.176L-6.42,0L0.666,0L1.823,-0.514L3.085,-1.909L3.4,-3.783L3.4,-28.884L0,-28.884Z" style="fill:rgb(221,221,221);fill-rule:nonzero;"/>
                </g>
                <g transform="matrix(1,0,0,1,1839.13,1830.52)">
                    <path d="M0,28.884L0,26.708L-2.533,26.708L-4.117,26.24L-5.169,25.101L-6.42,25.101L-6.42,0L-9.82,0L-9.82,25.101L-9.505,26.976L-8.243,28.37L-7.086,28.884L0,28.884Z" style="fill:rgb(221,221,221);fill-rule:nonzero;"/>
                </g>
            </g>
        </g>
    </g>
</svg>
