<?xml version="1.0" encoding="UTF-8" standalone="no"?>
<!DOCTYPE svg PUBLIC "-//W3C//DTD SVG 1.1//EN" "http://www.w3.org/Graphics/SVG/1.1/DTD/svg11.dtd">
<svg width="100%" height="100%" viewBox="0 0 140 220" version="1.1" xmlns="http://www.w3.org/2000/svg" xmlns:xlink="http://www.w3.org/1999/xlink" xml:space="preserve" xmlns:serif="http://www.serif.com/" style="fill-rule:evenodd;clip-rule:evenodd;stroke-linejoin:round;stroke-miterlimit:2;">
    <g transform="matrix(1,0,0,1,-425.784,-1250.96)">
        <g id="people-05">
            <g>
                <g transform="matrix(1,0,0,1,496.659,1425.06)">
                    <path d="M0,-0.102L0.589,0.573L1.368,0.202L0.918,-0.675L0.338,-0.313L0,-0.102Z" style="fill:rgb(51,51,51);fill-rule:nonzero;"/>
                </g>
                <g transform="matrix(1,0,0,1,500.363,1424.38)">
                    <path d="M0,1.248L0.589,0.573L0.251,0.362L-0.329,0L-0.779,0.877L0,1.248Z" style="fill:rgb(51,51,51);fill-rule:nonzero;"/>
                </g>
                <g transform="matrix(1,0,0,1,474.209,1391.73)">
                    <path d="M0,-7.062L0.894,-6.978L1.223,-6.996L1.245,-6.945L2.28,-6.847L2.327,-7.188L2.345,-7.321L2.39,-7.649L2.404,-7.821L2.414,-7.957L2.416,-7.974L2.476,-8.74L2.392,-8.748L0.196,-8.955L0.086,-8.153L0.196,-8.955L2.392,-8.748L2.436,-10.077L2.437,-10.097L2.44,-10.2L2.414,-10.366L2.44,-10.2L2.437,-10.097L2.457,-10.07L2.482,-10.355L1.035,-11.832L2.076,-10.543L1.901,-10.747L1.602,-11.121L0.027,-11.269L-0.254,-10.562L-0.527,-8.99L-0.374,-8.868L-0.051,-8.611L-0.041,-8.944L-0.05,-9.005L-0.136,-9.559L-0.05,-9.005L-0.041,-8.944L-0.051,-8.611L-0.07,-8.043L-0.072,-8.002L-0.079,-7.771L-0.08,-7.737L-0.177,-7.494L-0.194,-7.208L-0.197,-7.149L-0.233,-7.162L-0.198,-7.143L-0.309,-6.538L-0.462,-6.575L-0.515,-6.644L-0.525,-6.619L-0.568,-6.32L-0.635,-6.344L-0.776,-5.99L-0.635,-6.344L-0.845,-6.419L-0.937,-5.584L-1.635,3.296L-1.618,4.555L0.662,4.77L1.396,2.929L1.668,0.942L2.074,-4.228L0.894,-6.978L0,-7.062Z" style="fill:rgb(142,142,142);fill-rule:nonzero;"/>
                </g>
                <g transform="matrix(1,0,0,1,476.475,1386.53)">
                    <path d="M0,-1.434L-0.003,-1.435L0,-1.434L0,-1.47L0.007,-1.554L0.014,-1.646L-1.022,-1.744L-0.14,0.31L-0.003,-1.431L0,-1.434Z" style="fill:rgb(142,142,142);fill-rule:nonzero;"/>
                </g>
                <g transform="matrix(1,0,0,1,506.523,1432.88)">
                    <path d="M0,-62.254L-0.935,-62.227L-1.961,-62.196L-4.298,-62.127L-4.754,-62.101L-5.793,-62.043L-10.638,-61.773L-15.483,-62.043L-16.522,-62.101L-16.979,-62.127L-19.317,-62.197L-20.341,-62.228L-21.197,-62.254L-22.101,-62.478L-24.021,-62.953L-25.048,-59.971L-26.971,-53.3L-28.026,-48.639L-27.857,-40.99L-27.848,-40.708L-27.67,-40.311L-27.172,-39.197L-25.873,-36.357L-25.498,-35.556L-24.583,-33.603L-24.005,-32.396L-23.305,-30.934L-22.037,-28.353L-20.996,-26.287L-20.782,-25.863L-19.539,-23.463L-19.231,-22.883L-18.311,-21.156L-18.182,-20.92L-17.278,-19.275L-17.097,-18.943L-16.716,-18.272L-15.897,-16.826L-15.87,-16.779L-15.346,-22.947L-13.122,-32.819L-11.937,-41.9L-11.394,-45.282L-12.44,-47.714L-11.394,-45.282L-10.638,-44.941L-9.883,-45.282L-8.837,-47.714L-9.883,-45.282L-9.339,-41.9L-8.154,-32.819L-5.93,-22.947L-5.392,-15.828L-5.298,-12.463L-5.101,-12.43L-5.093,-12.429L-4.943,-12.256L-4.217,-12.945L-3.688,-12.945L-3.269,-12.498L-1.872,-11.771L-1.666,-11.252L-1.282,-10.285L-1.282,-7.928L-1.707,-7.928L-1.707,-8.484L-1.738,-8.64L-2.165,-10.77L-2.47,-9.843L-3.026,-8.153L-3.139,-7.808L-3.206,-7.603L-3.174,-7.385L-3.172,-7.372L-2.878,-3.548L-2.87,-3.441L-2.878,-3.43L-3.023,-3.231L-2.987,-2.88L-2.877,-2.778L-2.818,-2.723L-2.254,-1.749L-2.061,-0.704L-2.061,0.217L-2.082,0.328L-0.809,0.548L-0.805,0.548L-0.792,0.549L0.755,0.708L0.767,0.709L0.795,0.712L3.569,0.454L3.59,0.452L3.702,0.442L4.592,-0.103L4.61,-0.114L4.752,-0.201L3.797,-8.587L3.876,-12.3L4.354,-15.997L5.224,-22.341L6.286,-31.993L6.581,-40.99L6.75,-48.639L5.695,-53.3L3.772,-59.971L2.74,-62.966L0.817,-62.467L0,-62.254Z" style="fill:rgb(66,76,160);fill-rule:nonzero;"/>
                </g>
                <g transform="matrix(1,0,0,1,489.775,1428.32)">
                    <path d="M0,-5.765L-0.056,0.153L0.275,-2.26L0.349,-2.798L0.032,-5.918L0,-5.765Z" style="fill:rgb(66,76,160);fill-rule:nonzero;"/>
                </g>
                <g transform="matrix(1,0,0,1,481.545,1393.99)">
                    <path d="M0,36.096L0.115,36.136L0.176,36.157L2.907,37.104L2.94,37.103L2.976,37.103L4.505,37.09L4.51,37.09L4.544,37.079L6.512,36.447L6.551,36.435L6.576,36.427L8.071,34.61L8.088,34.589L8.174,34.484L8.23,28.567L8.262,28.413L8.984,24.945L9.078,22.651L8.901,22.347L8.779,22.139L8.143,21.017L7.681,20.201L7.58,20.022L6.632,18.296L6.365,17.809L5.41,16.016L5.137,15.502L3.935,13.18L3.894,13.103L2.639,10.612L1.372,8.031L0.643,6.512L0.093,5.363L-0.511,4.071L-1.196,2.608L-2.163,0.495L-2.495,-0.232L-2.843,-1.008L-2.585,6.891L-1.522,16.543L-0.652,21.988L-0.175,24.126L-0.095,27.194L-1.051,34.404L-0.906,34.637L-0.85,34.726L0,36.096Z" style="fill:rgb(66,76,160);fill-rule:nonzero;"/>
                </g>
                <g transform="matrix(1,0,0,1,483.444,1462.36)">
                    <path d="M0,1.93L0.081,1.997L0.145,2.049L0.716,0.089L0.725,-0.119L0,1.93Z" style="fill:rgb(221,221,221);fill-rule:nonzero;"/>
                </g>
                <g transform="matrix(1,0,0,1,500.951,1471.27)">
                    <path d="M0,-0.805L-1.12,-0.548L-1.572,-0.001L-0.672,0.066L7.16,-0.001L7.041,-0.034L3.529,-0.034L3.564,-0.248L1.903,-0.248L1.891,-0.856L1.268,-0.871L0,-0.805Z" style="fill:rgb(250,192,41);fill-rule:nonzero;"/>
                </g>
                <g transform="matrix(1,0,0,1,499.129,1430.71)">
                    <path d="M0.499,-1.519L-0.647,-1.519L-1.293,-1.256L-1.087,-0.628L-0.647,0L0,0L0.441,-0.628L0.646,-1.256L0.499,-1.519Z" style="fill:rgb(215,185,228);fill-rule:nonzero;"/>
                </g>
                <g transform="matrix(1,0,0,1,506.73,1440.51)">
                    <path d="M0,0.109L0.03,0.321L0.072,-0.212L0,0.109Z" style="fill:rgb(215,185,228);fill-rule:nonzero;"/>
                </g>
                <g transform="matrix(1,0,0,1,499.848,1467.49)">
                    <path d="M0,0.517L0.094,0.501L0.284,0L0,0.517Z" style="fill:rgb(215,185,228);fill-rule:nonzero;"/>
                </g>
                <g transform="matrix(1,0,0,1,483.924,1327.97)">
                    <path d="M0,0.398L0.197,0.398L0.269,0.091L0.034,0L0,0.398Z" style="fill:rgb(215,185,228);fill-rule:nonzero;"/>
                </g>
                <g transform="matrix(0.228332,0.973583,0.973583,-0.228332,507.786,1328.02)">
                    <rect x="-0.001" y="-0.214" width="0.36" height="0.192" style="fill:rgb(215,185,228);"/>
                </g>
                <g transform="matrix(1,0,0,1,502.375,1326.91)">
                    <path d="M0,0.309L0.406,0.566L1.19,1.063L1.238,1.014L1.363,0.889L0.487,0.355L0.441,0.327L0.423,0.316L-1.333,-0.754L-0.997,-0.323L0,0.309Z" style="fill:rgb(215,185,228);fill-rule:nonzero;"/>
                </g>
                <g transform="matrix(1,0,0,1,489.409,1326.91)">
                    <path d="M0,0.308L0.961,-0.296L1.319,-0.755L-0.437,0.315L-0.456,0.326L-0.501,0.354L-1.377,0.888L-1.253,1.013L-1.203,1.063L-0.419,0.571L0,0.308Z" style="fill:rgb(215,185,228);fill-rule:nonzero;"/>
                </g>
                <g transform="matrix(1,0,0,1,508.593,1355.33)">
                    <path d="M0,-13.635L0.07,-13.819L0.94,-16.098L0.945,-16.11L1.018,-16.3L0.268,-20.745L0.257,-20.807L0.244,-20.886L0.228,-20.981L-0.572,-25.326L-0.622,-25.59L-0.632,-25.643L-0.923,-26.868L-0.943,-26.955L-1.016,-27.261L-0.782,-27.354L-7.741,-29.414L-7.732,-29.402L-7.623,-29.262L-7.551,-29.17L-5.795,-28.1L-5.776,-28.089L-5.731,-28.061L-4.855,-27.527L-4.98,-27.402L-5.028,-27.353L-5.261,-27.12L-7.155,-25.219L-7.301,-25.151L-7.652,-24.987L-12.708,-22.625L-17.764,-24.987L-18.115,-25.151L-18.26,-25.219L-20.155,-27.12L-20.387,-27.352L-20.436,-27.402L-20.561,-27.527L-19.685,-28.061L-19.621,-28.1L-17.865,-29.17L-17.793,-29.262L-17.684,-29.402L-17.674,-29.414L-24.634,-27.354L-24.4,-27.261L-24.472,-26.955L-24.493,-26.867L-24.784,-25.643L-24.842,-25.326L-25.644,-20.981L-25.66,-20.886L-25.997,-18.889L-26.434,-16.3L-26.344,-16.065L-25.599,-14.115L-25.539,-13.958L-25.526,-13.922L-25.357,-13.48L-25.29,-12.778L-24.72,-6.774L-23.994,-2.802L-24.284,6.787L-26.582,14.477L-26.091,14.599L-24.17,15.074L-23.267,15.297L-22.411,15.323L-21.386,15.354L-19.048,15.425L-18.592,15.45L-17.553,15.508L-12.708,15.779L-7.862,15.508L-6.824,15.45L-6.367,15.425L-4.031,15.356L-3.005,15.325L-2.07,15.297L-1.252,15.085L0.67,14.585L1.087,14.477L-1.132,6.787L-1.422,-2.802L-0.695,-6.774L-0.107,-12.971L-0.059,-13.48L0,-13.635Z" style="fill:rgb(130,195,65);fill-rule:nonzero;"/>
                </g>
                <g transform="matrix(1,0,0,1,507.971,1337.85)">
                    <path d="M0,-8.115L0.043,-7.934L0.063,-7.851L0.05,-7.851L0.85,-3.507L0.866,-3.412L0.882,-3.412L0.886,-3.331L0.89,-3.27L1.64,1.175L1.568,1.365L2.17,0.972L4.015,0.296L6.368,-1.628L4.903,-6.257L2.847,-8.702L-0.08,-9.48L-0.301,-9.393L-0.01,-8.169L0,-8.115Z" style="fill:rgb(130,195,65);fill-rule:nonzero;"/>
                </g>
                <g transform="matrix(1,0,0,1,481.427,1329.39)">
                    <path d="M0,8.852L0.822,9.871L0.732,9.636L1.169,7.047L1.507,5.05L1.522,4.954L2.324,0.61L2.382,0.293L2.673,-0.931L2.473,-0.931L2.25,-1.019L-0.677,-0.241L-2.733,2.205L-4.198,7.043L-1.845,8.238L0,8.852Z" style="fill:rgb(130,195,65);fill-rule:nonzero;"/>
                </g>
                <g transform="matrix(1,0,0,1,500.118,1306.42)">
                    <path d="M0,1.181L0.184,1.082L-1.395,0L0,1.181Z" style="fill:rgb(63,38,19);fill-rule:nonzero;"/>
                </g>
                <g transform="matrix(1,0,0,1,490.451,1317.65)">
                    <path d="M0,1.231L-0.56,0.169L-0.616,0.084L-0.638,0.022L-1.274,-1.185L-0.867,-0L-0.574,0.852L-0.037,2.416L0.461,1.709L0.696,1.523L0.696,1.516L0.198,1.312L0,1.231Z" style="fill:rgb(63,38,19);fill-rule:nonzero;"/>
                </g>
                <g transform="matrix(1,0,0,1,501.464,1319.29)">
                    <path d="M0,-1.076L0.159,-1.551L0.162,-1.56L-0.078,-1.539L-0.842,-0.211L-0.84,-0.044L-0.837,0.17L-0.616,0.484L0,-1.076Z" style="fill:rgb(63,38,19);fill-rule:nonzero;"/>
                </g>
                <g transform="matrix(1,0,0,1,488.744,1317.83)">
                    <path d="M0,-14.531L-0.746,-13.66L-0.885,-13.497L-1.012,-13.087L-1.406,-12.481L-1.5,-12.337L-1.972,-11.609L-2.743,-7.395L-1.972,-11.609L-1.5,-12.337L-1.406,-12.481L-1.012,-13.087L-0.885,-13.497L-0.746,-13.66L0,-14.531L1.219,-15.955L2.044,-16.793L2.064,-16.813L2.638,-17.062L2.064,-16.813L2.044,-16.793L1.219,-15.955L0,-14.531ZM0.516,-16.417L0.72,-16.694L0.933,-16.866L1.911,-17.654L2.038,-17.756L2.25,-17.928L3.132,-18.32L3.776,-18.607L4.273,-18.828L4.446,-18.851L4.991,-18.921L5.034,-18.927L5.053,-18.929L5.506,-18.989L6.488,-19.117L6.994,-19.183L7.415,-19.128L9.198,-18.895L9.714,-18.828L10.153,-18.633L11.184,-18.174L11.737,-17.928L12.177,-17.573L12.99,-16.918L13.267,-16.694L13.526,-16.343L14.335,-15.246L14.429,-15.119L15.578,-12.546L14.429,-15.119L14.335,-15.246L13.526,-16.343L13.267,-16.694L12.99,-16.918L12.177,-17.573L11.737,-17.928L11.184,-18.174L10.153,-18.633L9.714,-18.828L9.198,-18.895L7.415,-19.128L6.994,-19.183L6.488,-19.117L5.506,-18.989L5.053,-18.929L5.034,-18.927L4.991,-18.921L4.446,-18.851L4.273,-18.828L3.776,-18.607L3.132,-18.32L2.25,-17.928L2.038,-17.756L1.911,-17.654L0.933,-16.866L0.72,-16.694L0.516,-16.417L-0.442,-15.119L0.516,-16.417ZM14.589,-14.232L14.407,-14.411L14.143,-14.672L13.575,-15.233L12.82,-15.979L12.802,-15.989L12.695,-16.051L9.506,-17.883L12.695,-16.051L12.802,-15.989L12.82,-15.979L13.575,-15.233L14.143,-14.672L14.407,-14.411L14.589,-14.232L15.577,-12.215L14.589,-14.232ZM11.374,-10.23L9.979,-11.411L11.558,-10.329L11.374,-10.23ZM7.301,-18.183L7.044,-18.235L6.994,-18.234L6.833,-18.231L4.569,-18.19L4.435,-18.051L4.223,-17.832L4.115,-17.72L3.345,-16.923L4.115,-17.72L4.223,-17.832L4.435,-18.051L4.569,-18.19L6.833,-18.231L6.994,-18.234L7.044,-18.235L7.301,-18.183L9.82,-17.665L7.301,-18.183ZM4.269,5.579L3.219,4.717L2.924,4.263L2.377,3.418L1.74,2.436L1.671,2.234L1.133,0.67L0.841,-0.181L0.434,-1.367L1.07,-0.16L1.1,-0.103L1.104,-0.096L1.148,-0.013L1.708,1.049L1.905,1.13L2.403,1.334L2.505,1.376L2.758,1.479L2.8,1.483L2.995,1.502L3.321,1.533L2.868,0.479L2.478,-0.427L2.353,-0.718L2.28,-0.887L1.872,-2.32L1.751,-2.746L1.552,-4.078L1.551,-4.082L1.459,-4.697L1.597,-6.166L1.626,-6.469L1.907,-7.083L2.155,-7.622L2.366,-8.083L2.593,-8.578L2.907,-9.213L3.596,-10.604L3.608,-10.629L4.015,-11.83L4.147,-12.207L4.253,-12.515L3.409,-13.595L4.42,-13.484L6.207,-13.175L4.42,-13.484L3.409,-13.595L4.253,-12.515L4.366,-12.371L4.755,-11.874L5.096,-11.437L5.413,-11.138L6.167,-10.425L6.913,-9.722L6.973,-9.665L6.997,-9.642L7.141,-9.547L7.375,-9.393L7.52,-9.298L8.585,-8.597L8.644,-8.559L9.699,-7.998L9.797,-7.947L10.159,-7.755L10.28,-7.69L10.538,-7.553L10.569,-7.537L11.203,-7.02L11.904,-6.448L12.241,-6.174L12.286,-6.052L12.676,-5L12.664,-4.205L12.663,-4.099L12.661,-4.018L12.657,-3.694L12.593,-3.32L12.44,-2.429L12.422,-2.38L11.978,-1.198L11.781,-0.856L11.424,-0.24L11.202,0.144L10.659,1.649L10.647,1.683L11.235,1.638L11.409,1.625L11.746,1.6L11.777,1.597L11.83,1.337L12.152,-0.272L11.83,1.337L11.878,1.253L12.642,-0.076L12.82,0.009L12.922,-0.042L13.464,-1.719L13.504,-2.502L13.555,-3.149L13.584,-3.506L13.595,-3.646L13.595,-3.675L13.622,-4.888L13.634,-5.388L13.641,-5.698L13.439,-6.296L13.109,-7.27L13.439,-6.296L13.641,-5.698L13.299,-7.27L13.641,-5.698L13.634,-5.388L13.622,-4.888L13.595,-3.675L13.595,-3.646L13.584,-3.506L13.555,-3.149L13.504,-2.502L13.447,-1.782L12.883,-0.097L12.879,-0.088L12.72,0.387L12.105,1.947L12.001,2.209L11.894,2.437L11.503,3.265L11.361,3.567L10.703,4.752L9.848,5.656L11.097,6.058L11.633,6.23L11.942,6.168L12.64,6.029L14.474,4.098L15.852,1.082L17.051,-3.079L17.018,-5.018L16.782,-9.847L15.37,-14.535L12.836,-18.26L11.946,-19.517L10.021,-20.429L8.665,-20.867L7.225,-20.37L6.715,-20.208L8.665,-20.867L7.076,-20.912L5.454,-20.802L3.753,-20.154L1.584,-19.264L-0.059,-17.311L-1.625,-14.222L-2.754,-9.858L-3.041,-5.018L-3.074,-3.079L-1.875,1.082L0.198,4.239L-1.09,1.968L0.198,4.239L1.253,6.098L2.31,6.381L2.339,6.369L3.181,6.025L4.269,5.579Z" style="fill:rgb(63,38,19);fill-rule:nonzero;"/>
                </g>
                <g transform="matrix(1,0,0,1,490.912,1319.17)">
                    <path d="M0,0.186L0.233,0.062L0.235,0L0,0.186Z" style="fill:rgb(63,38,19);fill-rule:nonzero;"/>
                </g>
                <g transform="matrix(1,0,0,1,503.705,1435.11)">
                    <path d="M0,-0.921L-0.898,-0.085L-2.068,0.557L-3.432,0.96L-4.894,1.098L-6.357,0.96L-7.72,0.557L-8.89,-0.085L-9.788,-0.921L-10.353,-1.895L-10.545,-2.94L-10.545,-2.018L-10.353,-0.973L-10.183,-0.681L-10.072,-0.49L-9.788,0.001L-9.324,0.433L-8.89,0.837L-7.921,1.368L-7.72,1.479L-6.94,1.709L-6.357,1.882L-4.9,2.019L-4.894,2.019L-3.432,1.882L-2.858,1.712L-2.068,1.479L-1.878,1.374L-0.898,0.837L-0.472,0.439L0,0.001L0.049,-0.085L0.273,-0.47L0.39,-0.672L0.564,-0.973L0.736,-1.908L0.757,-2.018L0.757,-2.94L0.564,-1.895L0,-0.921Z" style="fill:rgb(0,188,218);fill-rule:nonzero;"/>
                </g>
                <g transform="matrix(1,0,0,1,503.533,1433.84)">
                    <path d="M0,-1.474L0,-0.493L-1.016,0.583L-1.805,1.379L-3.41,1.8L-4.727,2.114L-6.044,1.8L-7.65,1.379L-8.438,0.583L-9.455,-0.493L-9.455,-1.474L-9.565,-2.807L-9.459,-3.832L-9.616,-3.687L-10.18,-2.713L-10.373,-1.668L-10.18,-0.623L-9.616,0.351L-8.718,1.187L-7.547,1.829L-6.184,2.233L-4.722,2.37L-3.259,2.233L-1.896,1.829L-0.726,1.187L0.172,0.351L0.737,-0.623L0.929,-1.668L0.737,-2.713L0.172,-3.687L0.113,-3.741L0.004,-3.844L0.111,-2.807L0,-1.474Z" style="fill:rgb(0,188,218);fill-rule:nonzero;"/>
                </g>
                <g transform="matrix(1,0,0,1,479.382,1411.21)">
                    <path d="M0,-16.721L0.967,-14.608L1.651,-13.145L2.256,-11.854L2.806,-10.705L3.535,-9.185L4.802,-6.605L6.057,-4.113L6.098,-4.036L7.3,-1.714L7.573,-1.2L8.528,0.593L8.795,1.08L9.743,2.806L9.844,2.985L10.306,3.801L10.942,4.923L11.064,5.131L11.241,5.434L12.125,6.943L13.291,8.866L13.851,9.754L14.117,9.616L13.593,8.784L12.427,6.862L11.271,4.888L11.244,4.842L10.425,3.396L10.044,2.725L9.863,2.393L8.959,0.748L8.83,0.512L7.91,-1.216L7.602,-1.795L6.359,-4.195L6.145,-4.619L5.104,-6.686L3.836,-9.266L3.136,-10.728L2.558,-11.935L1.643,-13.888L1.268,-14.69L-0.031,-17.529L-0.529,-18.643L-0.707,-19.04L-1.339,-20.452L-2.654,-23.455L-3.047,-24.37L-3.929,-26.424L-3.951,-26.475L-4.28,-26.457L-3.099,-23.706L-2.956,-23.374L-1.641,-20.37L-0.68,-18.224L-0.332,-17.448L0,-16.721Z" style="fill:rgb(0,188,218);fill-rule:nonzero;"/>
                </g>
                <g transform="matrix(1,0,0,1,490.8,1325.72)">
                    <path d="M0,0.343L-0.072,0.435L-0.43,0.894L-1.391,1.498L-1.81,1.761L-2.594,2.253L-2.362,2.485L-0.467,4.386L-0.322,4.454L0.029,4.618L5.085,6.981L10.141,4.618L10.492,4.454L10.637,4.386L12.532,2.485L12.765,2.252L11.981,1.755L11.575,1.498L10.6,0.894L10.578,0.866L10.242,0.435L10.17,0.343L10.061,0.203L10.052,0.191L9.908,0.007L9.918,0.756L9.923,1.172L9.918,0.756L9.908,0.007L9.886,-1.723L9.576,-1.661L9.041,-1.833L7.792,-2.235L8.646,-3.139L9.305,-4.324L9.447,-4.626L9.837,-5.454L9.827,-6.258L9.824,-6.472L9.822,-6.638L9.773,-6.553L9.721,-6.293L9.689,-6.291L9.353,-6.266L8.678,-4.966L7.663,-4.053L7.422,-3.836L6.881,-3.35L5.085,-2.839L3.288,-3.35L2.748,-3.836L2.507,-4.053L1.492,-4.966L0.744,-6.407L0.702,-6.411L0.448,-6.515L0.347,-6.557L0.347,-6.549L0.346,-6.487L0.32,-4.473L0.868,-3.628L1.163,-3.174L2.213,-2.311L1.125,-1.866L0.282,-1.521L0.262,0.007L0.252,0.756L0.247,1.172L0.252,0.756L0.262,0.007L0.118,0.191L0.109,0.203L0,0.343Z" style="fill:rgb(120,71,34);fill-rule:nonzero;"/>
                </g>
                <g transform="matrix(1,0,0,1,503.165,1470.82)">
                    <path d="M0,-3.83L-0.016,-3.422L-0.018,-3.365L-0.036,-2.935L-0.048,-2.622L-0.052,-2.52L-0.06,-2.321L-0.068,-2.12L-0.097,-1.392L-0.339,-1.325L-0.339,-1.282L-0.322,-0.407L-0.311,0.2L4.695,0.2L4.599,-0.567L4.483,-1.485L4.295,-1.533L4.289,-1.574L4.244,-1.901L4.176,-2.39L4.126,-2.75L4.022,-3.499L3.968,-3.882L2.006,-4.03L0,-3.83Z" style="fill:rgb(120,71,34);fill-rule:nonzero;"/>
                </g>
                <g transform="matrix(1,0,0,1,500.133,1454.15)">
                    <path d="M0,13.337L-0.19,13.839L-0.186,13.838L-0.039,13.806L0.191,13.754L0.222,13.761L0.366,13.716L0.563,13.672L1.261,13.518L1.495,13.547L2.119,13.625L2.758,13.705L2.984,13.733L2.997,13.736L3.014,13.306L2.935,13.232L3.016,13.249L3.032,12.841L3.032,9.1L3.04,8.937L3.115,7.436L3.133,7.055L3.154,6.637L2.92,3.857L2.855,3.079L2.723,1.52L2.687,1.092L2.469,0.648L2.259,0.221L1.887,-0.536L1.82,2.677L0.848,6.983L0.476,9.074L0.555,11.081L0.568,11.041L1.261,8.657L0.568,11.041L0.555,11.081L-0.38,13.873L-0.285,13.856L0,13.337Z" style="fill:rgb(120,71,34);fill-rule:nonzero;"/>
                </g>
                <g transform="matrix(1,0,0,1,489.737,1446.31)">
                    <path d="M0,-0.957L0.1,0.445L0,-1.402L0,-0.957Z" style="fill:rgb(120,71,34);fill-rule:nonzero;"/>
                </g>
                <g transform="matrix(1,0,0,1,489.737,1456.16)">
                    <path d="M0,-11.257L0.1,-9.41L0.276,-6.124L0.246,-4.866L0.242,-4.663L0.205,-3.069L0.153,-0.776L0.15,-0.599L0.123,0.599L0.123,2.611L0.477,1.303L0.809,0.737L0.456,-3.935L0.44,-4.159L0.44,-10.634L0.536,-11.305L0.904,-13.868L0,-11.257Z" style="fill:rgb(120,71,34);fill-rule:nonzero;"/>
                </g>
                <g transform="matrix(1,0,0,1,483.595,1427.09)">
                    <path d="M-0.006,37.325L0.01,37.338L0.696,37.905L0.762,37.96L1.235,38.351L1.827,38.267L2.36,38.191L3.045,38.093L3.502,38.073L4.309,38.036L5.059,38.003L5.314,37.988L5.49,37.978L5.402,36.965L5.331,36.151L5.331,33.226L5.892,31.578L6.265,30.479L6.265,29.678L6.292,28.479L6.247,28.308L6.296,28.302L6.348,26.009L6.384,24.415L6.223,23.55L6.082,17.415L6.762,9.7L6.978,7.259L6.762,9.7L7.384,5.641L6.455,-1.021L6.125,1.391L6.039,1.496L6.021,1.517L4.527,3.333L4.502,3.342L4.462,3.354L2.495,3.986L2.461,3.997L2.456,3.997L0.927,4.01L0.891,4.01L0.857,4.011L-1.874,3.063L-1.934,3.043L-2.049,3.003L-2.9,1.633L-2.956,1.543L-2.853,7.633L-0.312,18.308L0.94,23.821L1.893,27.434L1.826,31.053L0.846,34.407L0.796,34.58L0.602,35.241L0.566,35.365L-0.006,37.325Z" style="fill:rgb(120,71,34);fill-rule:nonzero;"/>
                </g>
                <g transform="matrix(1,0,0,1,495.403,1422.92)">
                    <path d="M0,3.087L0.999,2.312L1.255,2.035L1.593,1.824L2.173,1.462L1.723,0.585L0.667,0L-0.435,0.558L-1.144,2.583L0,3.087Z" style="fill:rgb(120,71,34);fill-rule:nonzero;"/>
                </g>
                <g transform="matrix(1,0,0,1,490.894,1470.87)">
                    <path d="M0,-6.037L-0.177,-5.689L-0.447,-4.355L-0.603,-3.586L-0.607,-3.551L-0.743,-1.585L-0.815,-1.567L-0.932,-1.537L-1.047,-0.619L-1.143,0.148L3.862,0.148L3.892,-1.377L3.649,-1.444L3.322,-3.882L3.552,-5.985L1.864,-6.185L0,-6.037Z" style="fill:rgb(120,71,34);fill-rule:nonzero;"/>
                </g>
                <g transform="matrix(1,0,0,1,499.656,1432.45)">
                    <path d="M0,1.027L2.036,0.88L0.921,0L0.647,0.002L0.421,0L0.414,0.004L0.061,0.006L0,0.052L-1.7,0.052L-1.761,0.006L-2.114,0.004L-2.121,0L-2.348,0.002L-2.621,0L-3.737,0.88L-1.7,1.027L0,1.027Z" style="fill:rgb(120,71,34);fill-rule:nonzero;"/>
                </g>
                <g transform="matrix(1,0,0,1,496.181,1420.9)">
                    <path d="M0,-0.449L0.946,0.438L2.625,0.295L4.303,0.438L5.249,-0.449L5.242,-0.45L5.045,-0.483L2.625,-0.887L0,-0.449Z" style="fill:rgb(120,71,34);fill-rule:nonzero;"/>
                </g>
                <g transform="matrix(1,0,0,1,501.541,1426.01)">
                    <path d="M0,-3.087L-1.057,-2.503L-1.507,-1.626L-0.927,-1.264L-0.589,-1.052L-0.341,-0.772L0.666,0L1.81,-0.505L1.809,-0.518L1.101,-2.529L0,-3.087Z" style="fill:rgb(120,71,34);fill-rule:nonzero;"/>
                </g>
                <g transform="matrix(1,0,0,1,474.139,1382.63)">
                    <path d="M0,1.056L0.019,0.488L-0.304,0.231L-0.458,0.109L-0.593,0L0,1.056Z" style="fill:rgb(120,71,34);fill-rule:nonzero;"/>
                </g>
                <g transform="matrix(0.557186,0.830387,0.830387,-0.557186,472.391,1383.56)">
                    <path d="M-0.245,-0.696L1.146,-0.696L1.27,-0.436L0.831,-0.511L-0.245,-0.696Z" style="fill:rgb(120,71,34);fill-rule:nonzero;"/>
                </g>
                <g transform="matrix(1,0,0,1,471.587,1338.47)">
                    <path d="M0,44.686L1.519,46.233L1.614,46.252L1.87,46.305L1.575,45.916L0.523,44.529L0.489,44.42L0.123,43.251L-0.181,42.282L0.123,43.251L0.489,44.42L0.523,44.529L1.575,45.916L1.87,46.305L2.107,46.616L2.159,46.686L2.313,46.723L2.424,46.118L2.388,46.099L2.428,46.052L2.445,45.766L2.542,45.524L2.543,45.489L2.55,45.259L2.552,45.218L1.958,44.162L1.948,44.144L1.898,44.055L1.964,42.967L2.091,40.939L1.61,42.019L2.091,40.939L2.34,40.381L3.656,41.429L5.104,42.906L5.079,43.19L5.11,43.249L5.877,43.202L6.08,42.877L5.063,40.795L4.155,38.845L3.185,37.944L2.469,36.386L2.689,34.801L3.358,31.729L3.472,31.205L6.929,21.534L7.612,18.913L7.781,18.265L7.934,18.058L8.977,14.156L11.716,4.077L11.649,3.376L11.48,2.933L11.466,2.898L11.407,2.741L10.662,0.791L9.84,-0.228L7.995,-0.842L5.642,-2.037L2.556,12.501L1.564,16.668L1.038,17.754L0.556,19.668L-0.982,31.803L-1.518,36.46L-1.478,37.518L-1.023,40.793L-1.019,40.658L-1.023,40.793L-1.099,43.567L-0.552,44.124L0,44.686Z" style="fill:rgb(120,71,34);fill-rule:nonzero;"/>
                </g>
                <g transform="matrix(1,0,0,1,473.574,1382.06)">
                    <path d="M0,3.326L0.067,3.35L0.11,3.05L0.12,3.026L-0.117,2.714L-0.175,2.702L-0.373,2.661L-0.468,2.642L-1.987,1.095L-2.539,0.533L-3.086,-0.024L-3.038,0.078L-2.876,0.422L-3.038,0.078L-3.043,0.485L-2.181,1.389L-1.897,1.687L-1.144,2.477L-0.837,2.8L-0.509,3.144L-0.21,3.251L0,3.326Z" style="fill:rgb(120,71,34);fill-rule:nonzero;"/>
                </g>
                <g transform="matrix(1,0,0,1,476.848,1383.78)">
                    <path d="M0,1.05L1.186,0.564L1.158,0.194L1.128,-0.15L-0.225,-0.002L-0.235,0.134L-0.249,0.306L-0.294,0.634L-0.312,0.767L-0.359,1.108L-0.366,1.2L0,1.05Z" style="fill:rgb(120,71,34);fill-rule:nonzero;"/>
                </g>
                <g transform="matrix(1,0,0,1,521.499,1348.39)">
                    <path d="M0,27.164L-0.536,22.138L-2.074,8.946L-2.556,6.891L-3.082,5.704L-4.075,1.588L-7.16,-12.17L-9.513,-10.246L-11.358,-9.57L-11.965,-9.165L-12.836,-6.887L-12.906,-6.703L-12.965,-6.548L-13.013,-6.039L-10.496,3.115L-9.299,7.889L-8.447,11.241L-4.99,21.921L-4.207,25.785L-3.987,27.462L-4.703,29.324L-5.673,30.75L-6.199,31.66L-6.582,32.893L-7.598,35.203L-7.395,35.438L-6.597,35.539L-6.378,35.24L-6.371,35.231L-6.296,35.128L-6.265,35.086L-6.039,34.78L-5.995,34.719L-5.175,33.603L-3.858,32.218L-3.59,32.921L-3.128,34.134L-3.59,32.921L-3.482,34.841L-3.472,35.621L-3.469,35.946L-3.464,36.345L-3.416,36.265L-3.464,36.345L-3.941,37.146L-4.276,37.71L-4.416,37.945L-4.437,37.981L-4.285,37.93L-4.437,37.981L-4.894,38.134L-5.735,38.416L-5.802,38.439L-6.045,38.52L-6.406,38.813L-6.227,39.109L-6.012,39.334L-3.678,38.816L-3.114,38.044L-3.025,37.922L-2.728,37.516L-2.042,36.576L-2.022,36.51L-1.897,36.083L-1.578,34.997L-1.337,34.179L-1.578,34.997L-1.897,36.083L-2.022,36.51L-2.042,36.576L-2.728,37.516L-0.681,35.353L-0.649,35.319L-0.419,35.076L-0.499,31.844L-0.041,28.392L0,27.164Z" style="fill:rgb(120,71,34);fill-rule:nonzero;"/>
                </g>
                <g transform="matrix(1,0,0,1,518.474,1383.78)">
                    <path d="M0,2.532L0.028,2.611L2.396,-0.079L2.344,-0.037L0.297,2.126L0,2.532Z" style="fill:rgb(120,71,34);fill-rule:nonzero;"/>
                </g>
                <g transform="matrix(1,0,0,1,516.605,1384.64)">
                    <path d="M0,1.883L0.457,1.73L0.478,1.694L0.618,1.459L0.953,0.895L1.43,0.094L1.425,-0.305L1.196,-0.12L1.141,-0.075L0.879,0.137L0.549,0.404L0.355,0.561L0.325,0.585L0.262,0.637L-0.425,0.841L-0.651,0.909L-0.765,0.943L-0.875,0.913L-2.141,0.573L-2.433,0.494L-3.014,0.576L-3.044,0.953L-3.071,1.211L-0.909,2.188L-0.841,2.165L0,1.883Z" style="fill:rgb(120,71,34);fill-rule:nonzero;"/>
                </g>
                <g transform="matrix(1,0,0,1,517.484,1383.54)">
                    <path d="M0,1.244L0.262,1.032L0.317,0.987L0.546,0.802L0.542,0.477L-0.011,0.72L-0.324,0.482L-1.563,-0.325L-1.98,-0.424L-2.025,-0.364L-2.25,-0.058L-2.357,0.087L-2.364,0.097L-0.875,1.649L-0.524,1.668L-0.33,1.511L0,1.244Z" style="fill:rgb(120,71,34);fill-rule:nonzero;"/>
                </g>
                <g transform="matrix(1,0,0,1,514.465,1385.41)">
                    <path d="M0,-0.189L1.266,0.152L1.375,0.181L1.49,0.147L1.716,0.08L0.721,-0.312L0.061,-0.37L0,-0.189Z" style="fill:rgb(120,71,34);fill-rule:nonzero;"/>
                </g>
                <g transform="matrix(1,0,0,1,507.775,1444.91)">
                    <path d="M0,1.847L0.099,0.445L0.099,0L0,1.847Z" style="fill:rgb(120,71,34);fill-rule:nonzero;"/>
                </g>
                <g transform="matrix(1,0,0,1,510.225,1454.56)">
                    <path d="M0,-21.239L-0.112,-21.229L-0.133,-21.227L-2.907,-20.969L-2.934,-20.972L-2.947,-20.973L-4.494,-21.131L-4.507,-21.133L-4.51,-21.133L-5.783,-21.353L-5.955,-20.419L-6.13,-20.118L-5.447,-19.12L-4.976,-18.43L-4.884,-18.192L-4.428,-17.005L-3.642,-14.956L-3.544,-14.271L-3.496,-13.938L-3.423,-14.258L-3.465,-13.726L-3.255,-12.261L-3.215,-12.146L-2.351,-9.65L-2.351,-9.205L-2.451,-7.803L-2.57,-5.587L-2.628,-4.518L-2.592,-3.014L-2.564,-1.801L-2.534,-0.442L-2.511,0.556L-1.737,-3.141L0.803,-14.745L0.909,-21.795L0.89,-21.784L0,-21.239Z" style="fill:rgb(120,71,34);fill-rule:nonzero;"/>
                </g>
                <g transform="matrix(1,0,0,1,507.337,1454.9)">
                    <path d="M0,-10.045L0.096,-9.374L0.096,-2.899L0.08,-2.675L-0.271,1.997L0.06,2.563L0.415,1.859L0.377,0.209L0.354,-0.789L0.323,-2.148L0.295,-3.36L0.26,-4.864L0.317,-5.933L0.437,-8.149L0.536,-9.997L-0.327,-12.492L-0.368,-12.608L0,-10.045Z" style="fill:rgb(120,71,34);fill-rule:nonzero;"/>
                </g>
                <g transform="matrix(1,0,0,1,501.699,1450.52)">
                    <path d="M0,0.375L0.699,0.279L0.849,1.482L0.89,1.962L1.014,3.437L1.041,3.766L1.081,4.233L1.121,4.717L1.157,5.146L1.288,6.704L1.354,7.483L1.588,10.263L1.567,10.68L1.549,11.061L1.474,12.563L1.466,12.726L1.466,16.467L3.472,16.267L5.435,16.415L5.397,16.14L5.195,14.659L5.195,13.022L5.182,12.714L5.18,12.678L5.18,12.668L5.102,10.915L5.074,10.263L5.099,9.929L5.198,8.608L5.246,7.979L5.32,6.997L5.367,6.378L5.718,1.705L5.735,1.482L5.735,-4.994L5.639,-5.664L5.271,-8.227L5.061,-9.692L5.031,-9.904L4.983,-10.237L4.884,-10.922L4.098,-12.971L3.642,-14.158L3.55,-14.396L3.079,-15.086L2.396,-16.084L2.279,-15.882L2.056,-15.496L2.007,-15.411L1.535,-14.972L1.108,-14.575L0.129,-14.037L-0.062,-13.933L-0.851,-13.699L-1.425,-13.529L-2.888,-13.392L-2.893,-13.392L-4.35,-13.529L-4.934,-13.702L-5.713,-13.933L-5.915,-14.043L-6.884,-14.575L-7.317,-14.978L-7.782,-15.411L-7.84,-15.512L-8.066,-15.901L-8.177,-16.092L-9.337,-14.396L-10.671,-10.922L-11.058,-8.227L-11.425,-5.664L-11.522,-4.994L-11.522,1.482L-11.505,1.705L-11.153,6.378L-11.106,6.997L-11.032,7.979L-10.985,8.608L-10.885,9.929L-10.86,10.263L-10.889,10.915L-10.966,12.668L-10.967,12.678L-10.968,12.714L-10.982,13.022L-10.982,14.659L-10.804,14.311L-8.94,14.164L-7.253,14.364L-7.253,12.726L-7.374,10.263L-6.908,4.717L-6.867,4.233L-6.828,3.766L-6.8,3.437L-6.676,1.962L-6.636,1.482L-6.485,0.279L-5.787,0.375L-5.011,0.48L-4.836,0.504L-2.893,0.768L-0.951,0.504L-0.775,0.48L0,0.375Z" style="fill:rgb(242,211,173);fill-rule:nonzero;"/>
                </g>
                <g transform="matrix(1,0,0,1,502.602,1451.25)">
                    <path d="M0,3.55L0.218,3.994L0.177,3.509L0.138,3.043L0.111,2.714L-0.013,1.239L-0.054,0.759L-0.204,-0.444L-0.903,-0.348L-1.678,-0.243L-1.854,-0.219L-0.582,2.367L-0.21,3.123L0,3.55Z" style="fill:rgb(242,211,173);fill-rule:nonzero;"/>
                </g>
                <g transform="matrix(1,0,0,1,495.912,1455.14)">
                    <path d="M0,-4.246L-0.699,-4.342L-0.849,-3.139L-0.889,-2.659L-1.013,-1.184L-1.041,-0.855L-1.08,-0.388L-1.121,0.096L0.951,-4.117L0.775,-4.141L0,-4.246Z" style="fill:rgb(242,211,173);fill-rule:nonzero;"/>
                </g>
                <g transform="matrix(1,0,0,1,507.065,1471.1)">
                    <path d="M0,-14.195L-0.047,-13.576L-0.121,-12.594L-0.168,-11.965L-0.268,-10.643L-0.293,-10.31L-0.264,-9.658L-0.187,-7.904L-0.186,-7.895L-0.185,-7.859L-0.171,-7.551L-0.171,-5.913L0.031,-4.433L0.068,-4.158L0.121,-3.775L0.225,-3.026L0.275,-2.666L0.343,-2.178L0.389,-1.85L0.395,-1.809L0.583,-1.761L0.698,-0.843L0.794,-0.076L-2.549,-0.076L-2.585,0.138L2.037,0.138L1.697,-1.85L1.266,-2.666L1.266,-3.775L1.62,-7.859L1.62,-10.784L0.686,-13.531L0.686,-11.224L0.686,-14.333L0.332,-13.63L0,-14.195Z" style="fill:rgb(242,211,173);fill-rule:nonzero;"/>
                </g>
                <g transform="matrix(1,0,0,1,490.216,1468.63)">
                    <path d="M0,-0.635L-0.046,-0.2L-0.093,0.248L-0.131,0.617L-0.137,0.675L-0.065,0.657L0.071,-1.31L0,-0.635Z" style="fill:rgb(242,211,173);fill-rule:nonzero;"/>
                </g>
                <g transform="matrix(-0.0302891,0.999541,0.999541,0.0302891,508.485,1470.97)">
                    <rect x="0.271" y="-0.363" width="0.081" height="0.628" style="fill:rgb(242,211,173);"/>
                </g>
                <g transform="matrix(1,0,0,1,489.28,1465.64)">
                    <path d="M0,1.684L-0.014,1.516L-0.037,1.256L-0.074,0.824L-0.116,0.341L-0.304,0.329L-0.128,0.207L-0.196,-0.573L-0.372,-0.563L-0.627,-0.548L-1.376,-0.515L-2.184,-0.479L-2.641,-0.458L-3.325,-0.361L-3.858,-0.285L-4.45,-0.201L-4.924,-0.592L-4.99,-0.646L-5.676,-1.214L-5.685,-1.221L-5.692,-1.227L-5.755,-1.279L-5.836,-1.346L-6.346,0.661L-6.248,2.143L-5.622,2.873L-4.44,2.933L-3.363,2.969L-2.149,3.005L-0.798,3.027L-0.125,3.03L0,2.793L0,1.684Z" style="fill:rgb(66,76,160);fill-rule:nonzero;"/>
                </g>
                <g transform="matrix(1,0,0,1,492.533,1457.12)">
                    <path d="M0.562,13.905L-2.782,13.905L-2.686,13.138L-2.57,12.22L-2.454,12.19L-2.448,12.131L-2.409,11.762L-2.362,11.315L-2.316,10.88L-2.245,10.206L-2.242,10.171L-2.086,9.401L-1.816,8.068L-1.816,6.43L-1.802,6.122L-1.801,6.086L-1.801,6.077L-1.723,4.323L-1.694,3.671L-1.719,3.338L-1.819,2.016L-1.866,1.387L-1.94,0.405L-1.987,-0.214L-2.319,0.351L-2.673,1.66L-2.673,2.757L-2.673,0.45L-3.047,1.548L-3.607,3.197L-3.607,6.122L-3.536,6.936L-3.448,7.949L-3.381,8.728L-3.369,8.863L-3.327,9.346L-3.29,9.778L-3.267,10.038L-3.253,10.206L-3.253,11.315L-3.378,11.552L-3.684,12.131L-4.024,14.119L0.598,14.119L0.562,13.905Z" style="fill:rgb(242,211,173);fill-rule:nonzero;"/>
                </g>
                <g transform="matrix(1,0,0,1,503.349,1423.48)">
                    <path d="M0,2.012L-0.032,1.793L-0.202,0.66L-0.441,0.347L-0.465,0.315L-0.69,0.022L-0.706,0L0,2.012Z" style="fill:rgb(242,211,173);fill-rule:nonzero;"/>
                </g>
                <g transform="matrix(1,0,0,1,503.235,1435.59)">
                    <path d="M0,-5.584L-0.14,-5.392L-0.064,-5.076L-0.335,-4.384L-0.504,-3.951L-1.164,-2.263L-1.543,-2.263L-1.641,-2.075L-1.999,-1.39L-3.485,-0.606L-5.375,-0.606L-6.86,-1.39L-7.218,-2.075L-7.316,-2.263L-7.695,-2.263L-8.356,-3.951L-8.525,-4.384L-8.796,-5.076L-8.719,-5.392L-8.86,-5.584L-8.966,-5.73L-9.124,-5.946L-9.162,-5.584L-9.268,-4.559L-9.157,-3.226L-9.158,-2.245L-8.141,-1.169L-7.352,-0.373L-5.746,0.048L-4.43,0.362L-3.113,0.048L-1.508,-0.373L-0.718,-1.169L0.298,-2.245L0.297,-3.226L0.408,-4.559L0.301,-5.596L0.265,-5.946L0.107,-5.73L0,-5.584Z" style="fill:rgb(242,211,173);fill-rule:nonzero;"/>
                </g>
                <g transform="matrix(1,0,0,1,499.569,1426.05)">
                    <path d="M0,4.03L-0.441,4.658L-1.087,4.658L-1.528,4.03L-1.733,3.402L-1.087,3.139L0.059,3.139L0.205,3.402L0,4.03ZM-1.087,4.943L-0.441,4.943L-1.087,4.943ZM1.631,-0.814L1.383,-1.095L0.794,-0.42L0.015,-0.79L0.465,-1.668L0.915,-2.545L1.972,-3.129L0.106,-3.129L-0.764,-2.92L-1.634,-3.129L-2.442,-3.248L-3.499,-3.129L-2.442,-2.545L-1.993,-1.668L-1.543,-0.79L-2.322,-0.42L-2.911,-1.095L-3.167,-0.818L-4.166,-0.043L-5.31,-0.547L-5.612,3.384L-5.458,3.594L-5.3,3.81L-5.194,3.956L-5.053,4.148L-4.99,3.887L-4.94,3.683L-4.416,1.523L-4.94,3.683L-4.99,3.887L-5.053,4.148L-5.13,4.464L-4.859,5.156L-4.69,5.589L-4.029,7.278L-3.65,7.278L-2.535,6.398L-2.261,6.4L-2.281,6.393L-2.035,6.397L-2.028,6.402L-1.674,6.404L-1.614,6.45L0.086,6.45L0.147,6.404L0.5,6.402L0.507,6.397L0.734,6.4L0.753,6.393L0.734,6.4L1.116,6.387L1.007,6.398L2.123,7.278L2.502,7.278L3.162,5.589L3.331,5.156L3.602,4.464L3.526,4.148L3.462,3.887L3.413,3.683L2.889,1.523L3.413,3.683L3.462,3.887L3.526,4.148L3.666,3.956L3.773,3.81L3.931,3.594L4.076,3.395L4.084,3.384L4.076,3.277L3.782,-0.547L2.638,-0.043L1.631,-0.814Z" style="fill:rgb(242,211,173);fill-rule:nonzero;"/>
                </g>
                <g transform="matrix(1,0,0,1,498.805,1424.01)">
                    <path d="M0,-2.821L-1.678,-2.678L-2.625,-3.565L-2.775,-3.393L-2.835,-3.323L-2.775,-3.393L-3.501,-4.081L-4.03,-4.081L-4.448,-3.634L-5.306,-3.188L-5.572,-3.05L-5.846,-2.908L-6.052,-2.389L-6.436,-1.421L-6.436,0.935L-6.011,0.935L-6.011,-1.421L-6.011,0.38L-5.553,-1.906L-5.668,-2.285L-5.553,-1.906L-4.511,1.26L-4.341,0.128L-4.102,-0.186L-4.078,-0.217L-3.854,-0.51L-3.837,-0.533L-3.722,-0.624L-3.604,-0.72L-3.402,-0.883L-2.735,-1.09L-1.678,-1.209L-0.87,-1.09L0,-0.881L0.87,-1.09L2.736,-1.09L1.679,-1.209L2.736,-1.09L3.402,-0.883L3.604,-0.72L3.723,-0.624L3.837,-0.533L3.855,-0.51L4.078,-0.217L4.102,-0.186L4.342,0.128L4.512,1.26L4.579,1.056L4.692,0.711L5.248,-0.979L5.553,-1.906L5.98,0.223L6.011,0.38L6.011,-1.421L6.011,0.935L6.436,0.935L6.436,-1.421L6.052,-2.389L5.846,-2.908L4.449,-3.634L4.03,-4.081L3.501,-4.081L2.775,-3.393L2.836,-3.323L2.775,-3.393L2.625,-3.565L1.679,-2.678L0,-2.821Z" style="fill:rgb(242,211,173);fill-rule:nonzero;"/>
                </g>
                <g transform="matrix(1,0,0,1,495.404,1423.27)">
                    <path d="M0,-0.142L-0.202,0.02L-0.321,0.117L-0.435,0.208L0.666,-0.35L0,-0.142Z" style="fill:rgb(242,211,173);fill-rule:nonzero;"/>
                </g>
                <g transform="matrix(1,0,0,1,496.375,1434.11)">
                    <path d="M0,0.089L1.486,0.873L3.376,0.873L4.861,0.089L5.219,-0.597L5.317,-0.784L3.281,-0.637L1.58,-0.637L-0.456,-0.784L-0.358,-0.597L0,0.089Z" style="fill:rgb(242,211,173);fill-rule:nonzero;"/>
                </g>
                <g transform="matrix(1,0,0,1,502.643,1422.92)">
                    <path d="M0,0.558L-0.115,0.467L-0.233,0.37L-0.435,0.208L-1.102,0L0,0.558Z" style="fill:rgb(242,211,173);fill-rule:nonzero;"/>
                </g>
                <g transform="matrix(1,0,0,1,494.951,1425.48)">
                    <path d="M0,-1.979L-0.223,-1.686L-0.247,-1.654L-0.487,-1.341L-0.657,-0.209L-0.692,0.023L0.018,-2.002L0,-1.979Z" style="fill:rgb(242,211,173);fill-rule:nonzero;"/>
                </g>
                <g transform="matrix(1,0,0,1,500.951,1468.47)">
                    <path d="M0,1.993L1.268,1.927L1.891,1.943L1.875,1.068L1.874,1.025L2.116,0.958L2.145,0.23L2.153,0.029L2.161,-0.17L2.165,-0.272L2.178,-0.585L2.165,-0.588L1.939,-0.617L1.3,-0.697L0.676,-0.774L0.442,-0.804L-0.256,-0.649L-0.453,-0.606L-0.596,-0.561L-0.628,-0.567L-0.858,-0.516L-1.005,-0.483L-1.009,-0.483L-1.103,-0.466L-1.199,-0.448L-1.519,-0.391L-1.941,0.89L-1.572,2.797L-1.12,2.251L0,1.993Z" style="fill:rgb(66,76,160);fill-rule:nonzero;"/>
                </g>
                <g transform="matrix(1,0,0,1,501.03,1316.42)">
                    <path d="M0,-4.641L-0.045,-4.763L-0.382,-5.038L-1.083,-5.609L-1.717,-6.126L-1.748,-6.143L-2.006,-6.279L-2.583,-6.529L-2.587,-6.588L-3.643,-7.147L-3.701,-7.187L-4.766,-7.887L-4.911,-7.983L-5.145,-8.137L-5.289,-8.231L-5.314,-8.254L-5.373,-8.311L-6.119,-9.015L-6.874,-9.727L-7.19,-10.027L-7.532,-10.463L-7.92,-10.96L-8.033,-11.104L-8.14,-10.797L-8.271,-10.419L-8.679,-9.218L-8.691,-9.194L-9.379,-7.802L-9.694,-7.167L-9.921,-6.672L-10.132,-6.211L-10.379,-5.672L-10.661,-5.058L-10.689,-4.755L-10.828,-3.286L-10.736,-2.672L-10.734,-2.667L-10.536,-1.335L-10.414,-0.909L-10.007,0.524L-9.934,0.693L-9.809,0.984L-9.419,1.891L-8.966,2.943L-9.291,2.912L-9.486,2.895L-8.738,4.336L-7.723,5.249L-7.482,5.466L-6.941,5.952L-5.145,6.463L-3.349,5.952L-2.808,5.466L-2.567,5.249L-1.552,4.336L-0.877,3.036L-1.052,3.05L-1.64,3.094L-1.628,3.06L-1.084,1.554L-0.862,1.17L-0.506,0.555L-0.309,0.213L0.135,-0.97L0.307,-1.909L0.37,-2.283L0.375,-2.608L0.376,-2.688L0.378,-2.794L0.389,-3.59L0,-4.641Z" style="fill:rgb(120,71,34);fill-rule:nonzero;"/>
                </g>
            </g>
        </g>
    </g>
</svg>
