<?xml version="1.0" encoding="UTF-8" standalone="no"?>
<!DOCTYPE svg PUBLIC "-//W3C//DTD SVG 1.1//EN" "http://www.w3.org/Graphics/SVG/1.1/DTD/svg11.dtd">
<svg width="100%" height="100%" viewBox="0 0 140 220" version="1.1" xmlns="http://www.w3.org/2000/svg" xmlns:xlink="http://www.w3.org/1999/xlink" xml:space="preserve" xmlns:serif="http://www.serif.com/" style="fill-rule:evenodd;clip-rule:evenodd;stroke-linejoin:round;stroke-miterlimit:2;">
    <g transform="matrix(1,0,0,1,-1224.04,-1206.55)">
        <g id="people-29">
            <g>
                <g transform="matrix(1,0,0,1,1294.27,1415.46)">
                    <path d="M0.347,-44.512L-15.693,-44.512L-15.258,-39.859L-15.334,-33.637L-14.331,-22.351L-13.316,-7.787L-13.113,-0.199L-10.575,-0.296L-10.511,-0.296L-10.254,-0.304L-9.898,-0.313L-9.712,-0.317L-8.807,-0.338L-8.24,-0.355L-7.986,-0.359L-6.201,-0.194L-6.1,-0.186L-6.028,-0.177L-5.778,-0.156L-4.107,0L-3.9,-0.08L-1.942,-22.017L-1.506,-34.483L-0.766,-38.797L0.347,-44.512Z" style="fill:rgb(142,142,142);fill-rule:nonzero;"/>
                </g>
                <g transform="matrix(1,0,0,1,1276.62,1414.37)">
                    <path d="M0,-43.421L-0.334,-43.446L-0.427,-43.45L-2.047,-43.565L-2.322,-43.582L-5.097,-43.772L-5.846,-43.823L-8.583,-44.013L-10.562,-43.899L-10.829,-43.886L-13.358,-43.742L-13.832,-43.717L-14.835,-43.658L-15.025,-43.649L-15.012,-43.421L-14.86,-40.709L-14.957,-34.711L-15.025,-22.127L-13.955,0.592L-12.263,0.537L-11.552,0.541L-11.7,-0.414L-10.342,-0.749L-9.86,-0.871L-8.68,-0.765L-8.206,-0.728L-7.466,-0.664L-7.348,-0.651L-7.14,0.313L-6.903,0.275L-4.738,0.3L-4.226,-7.089L-2.623,-22.643L-1.163,-34.022L-0.486,-38.299L0.656,-43.421L0,-43.421Z" style="fill:rgb(142,142,142);fill-rule:nonzero;"/>
                </g>
                <g transform="matrix(1,0,0,1,1332.94,1352.51)">
                    <path d="M0,37.939L-1.349,25.816L-1.832,15.19L-2.851,9.915L-1.434,3.558L-1.747,3.477L-1.789,3.469L-0.524,-1.21L0.465,-6.747L-1.244,-8.282L-5.021,-10.507L-5.135,-9.64L-6.298,-6.451L-11.704,-4.915L-16.941,-6.954L-17.8,-10.241L-17.834,-11.112L-21.801,-9.251L-23.333,-7.703L-22.237,-5.723L-22.922,-2.347L-22.465,2.525L-22.838,2.902L-21.916,9.019L-23.426,14.17L-24.91,24.703L-26.387,37.939L-26.987,47.334L-25.503,47.723L-20.926,48.273L-20.448,48.328L-20.232,48.357L-19.813,48.395L-19.225,48.455L-18.198,48.556L-17.03,48.675L-16.433,48.734L-15.384,48.835L-14.746,48.899L-13.193,49.051L-11.586,48.895L-11.112,48.848L-9.978,48.734L-9.225,48.658L-8.236,48.56L-7.301,48.467L-6.59,48.4L-6.154,48.357L-5.765,48.294L-5.364,48.231L-2.17,47.723L0.601,47.334L0,37.939Z" style="fill:rgb(250,192,41);fill-rule:nonzero;"/>
                </g>
                <g transform="matrix(1,0,0,1,1316.49,1421.94)">
                    <path d="M0,-4.239L0.085,-4.818L-0.918,-4.895L-2.263,-5L-3.266,-4.949L-3.435,-4.768L-3.367,-3.406L-3.46,-2.035L-5.567,0.681L-3.862,0.571L-1.641,0.761L-0.998,0.562L-0.131,0.105L0.592,-0.28L0.207,-1.786L0,-4.239Z" style="fill:white;fill-rule:nonzero;"/>
                </g>
                <g transform="matrix(1,0,0,1,1328.1,1416.12)">
                    <path d="M0,4.733L-1.667,1.654L-1.751,0.338L-1.658,-1.586L-1.827,-0.88L-2.826,-0.656L-4.171,-1.024L-5.173,-1.819L-5.118,-1.434L-5.3,0.622L-5.685,1.954L-4.962,3.049L-4.095,4.352L-3.448,5.643L-1.231,6.552L0.474,6.099L0,4.733Z" style="fill:white;fill-rule:nonzero;"/>
                </g>
                <g transform="matrix(1,0,0,1,1276.86,1274.89)">
                    <path d="M0,0.237L-1.713,-2.424L-1.722,-2.436L-2.957,-4.907L-2.97,-4.932L-2.986,-4.966L-2.999,-5.034L-3.088,-5.545L-3.422,-7.445L-3.367,-8.769L-3.325,-9.873L-3.325,-9.877L-3.228,-11.091L-3.202,-11.049L-2.995,-13.705L-2.453,-14.644L-2.458,-14.818L-2.407,-14.902L-2.352,-14.999L-2.251,-14.999L-1.193,-16.835L0.372,-17.33L1.324,-17.631L1.768,-17.774L2.686,-17.88L4.094,-18.049L4.251,-18.028L4.995,-17.935L6.074,-17.804L6.315,-17.774L7.885,-17.212L8.934,-16.835L9.01,-16.687L9.678,-15.363L10.389,-13.946L10.511,-13.705L10.545,-13.223L10.702,-11.087L10.799,-9.775L10.85,-8.117L10.871,-7.462L10.875,-7.368L10.444,-4.915L10.418,-4.86L10.258,-4.53L10.114,-4.221L9.247,-2.411L8.925,-1.815L7.796,0.279L6.396,1.316L5.998,1.607L4.141,2.018L4.133,2.035L3.232,1.849L2.136,1.62L2.102,1.607L2.089,1.599L0.029,0.279L0.025,0.279L0,0.237ZM16.167,6.261L15.308,1.637L13.836,-2.796L13.257,-5.567L13.261,-5.592L13.519,-7.445L13.642,-9.369L13.138,-13.663L12.554,-16.484L11.252,-18.434L9.869,-20.443L8.638,-22.038L5.685,-22.994L3.316,-23.223L0.964,-22.994L-1.887,-22.038L-3.088,-20.443L-4.408,-18.438L-5.042,-16.484L-5.558,-13.663L-5.685,-10.33L-5.359,-6.908L-4.302,-2.293L-4.112,0.745L-4.107,1.62L-7.563,3.574L-7.847,4.137L-8.574,5.44L-8.578,5.452L-8.756,5.909L-9.48,8.198L-9.602,8.591L-9.509,9.387L-9.281,11.294L-9.183,12.098L-8.832,12.136L-8.177,13.27L-8.739,13.392L-8.68,13.515L-8.502,13.858L-7.178,14.729L-7.216,16.379L-6.557,17.673L-5.622,19.505L-3.515,20.423L-3.236,20.545L-1.062,21.387L3.215,23.041L4.293,23.46L4.924,23.206L10.901,20.824L11.049,20.765L11.036,20.744L11.336,20.363L11.336,20.359L11.497,20.274L12.039,16.51L12.098,16.434L12.906,15.985L12.999,15.922L13.802,15.884L14.17,15.363L14.961,14.242L15.706,13.177L15.989,12.775L16.049,10.66L16.027,10.363L16.057,10.287L16.07,9.966L16.104,8.748L16.023,7.826L16.15,6.43L16.167,6.261Z" style="fill:rgb(229,101,154);fill-rule:nonzero;"/>
                </g>
                <g transform="matrix(1,0,0,1,1262.68,1334.72)">
                    <path d="M0,-18.163L-0.013,-17.998L-0.089,-17.165L-0.165,-17.397L0,-18.163ZM6.675,9.053L6.658,9.357L6.142,9.67L5.101,10.297L3.248,10.533L1.836,9.848L1.172,9.527L0.935,8.786L0.681,8.63L0.313,7.006L0.271,6.972L-0.347,6.481L-0.267,4.869L-0.199,4.51L-0.195,4.489L-0.186,4.438L-0.14,3.884L-0.093,3.308L-0.068,2.978L-0.368,2.416L-0.702,1.794L-0.495,1.502L-0.131,0.991L-0.212,0.796L-0.055,0.881L0.203,0.521L1.709,0.009L1.743,-0.004L1.827,-0.033L1.916,-0.063L2.39,-0.223L2.728,-0.203L2.906,-0.194L3.223,-0.173L3.409,0.288L3.418,0.305L4.204,0.804L4.369,0.91L4.479,0.982L5.782,1.811L6.007,2.268L7.208,3.372L7.22,3.643L6.831,4.4L5.287,4.002L4.835,3.715L4.479,3.765L4.336,4.408L4.141,5.259L3.9,5.986L5.038,6.46L5.22,6.536L6.721,7.386L7.893,7.475L7.872,7.987L7.792,8.017L8.02,8.338L8.075,8.664L6.675,9.053ZM45.303,-6.814L44.402,-20.815L39.36,-46.952L37.981,-49.795L36.243,-51.212L34.407,-52.181L30.329,-53.399L30.202,-52.003L30.283,-51.081L30.249,-49.863L30.236,-49.541L30.206,-49.465L30.228,-49.169L30.168,-47.054L29.885,-46.652L29.14,-45.586L28.349,-44.465L27.981,-43.945L27.178,-43.907L27.084,-43.843L26.277,-43.395L26.218,-43.319L25.676,-39.554L25.515,-39.469L25.515,-39.465L25.215,-39.085L25.228,-39.063L25.079,-39.004L19.103,-36.623L18.472,-36.369L17.394,-36.788L13.117,-38.442L10.943,-39.283L10.664,-39.406L8.557,-40.324L7.622,-42.156L6.963,-43.45L7,-45.1L5.677,-45.971L5.499,-46.314L5.44,-46.436L6.002,-46.559L5.347,-47.693L4.995,-47.731L4.898,-48.534L4.67,-50.442L4.577,-51.237L4.699,-51.631L5.423,-53.919L5.6,-54.376L5.605,-54.389L0.66,-53.344L-3.325,-51.779L-6.768,-40.476L-6.997,-39.097L-10.935,-16.323L-10.846,-13.937L-6.024,-3.218L-4.281,-0.021L-3.714,1.219L-3.198,1.443L-5.118,17.174L-8.486,36.226L-1.916,36.226L-1.929,36.049L-1.916,36.045L-1.882,36.045L-1.806,36.04L-1.916,36.226L-1.07,36.226L-1.083,35.998L-0.893,35.989L0.11,35.93L0.583,35.905L3.113,35.761L3.38,35.748L5.359,35.634L8.096,35.825L8.845,35.875L11.62,36.066L11.895,36.082L13.515,36.197L13.608,36.201L13.942,36.226L36.369,36.226L37.757,15.833L37.757,0.288L35.088,-10.976L31.353,-17.334L31.353,-18.434L31.704,-21.412L32.457,-23.806L33.853,-20.134L37.017,-5.439L37.896,-2.529L39.161,1.291L39.787,1.549L39.508,-0.587L39.5,-0.634L39.449,-0.96L39.842,-1.505L40.049,-1.793L40.278,-1.835L41.073,-1.988L41.424,-2.051L41.509,-2.038L41.775,-1.996L43.628,-1.691L43.653,-1.658L43.679,-1.624L44.136,-0.981L44.123,-0.262L44.11,0.796L44.893,0.085L44.707,-2.347L45.261,-3.273L45.303,-6.814Z" style="fill:rgb(51,201,225);fill-rule:nonzero;"/>
                </g>
                <g transform="matrix(1,0,0,1,1290.34,1419.24)">
                    <path d="M0,-0.825L-1.019,-2.661L-1.853,-3.934L-2.102,-3.955L-2.123,-3.837L-2.276,-3.972L-4.061,-4.137L-4.314,-4.133L-4.881,-4.116L-5.787,-4.095L-5.973,-4.091L-6.328,-4.082L-6.586,-4.074L-6.772,-2.572L-6.188,-0.812L-5.537,0.457L-4.505,3.113L-2.69,3.312L-1.201,3.177L0.131,2.805L0.554,2.233L1.015,1.489L0.613,0.3L0,-0.825Z" style="fill:rgb(51,51,51);fill-rule:nonzero;"/>
                </g>
                <g transform="matrix(1,0,0,1,1269.48,1420.37)">
                    <path d="M0,-5.693L-0.207,-6.658L-0.326,-6.67L-1.066,-6.734L-1.54,-6.772L-2.72,-6.878L-3.202,-6.755L-4.56,-6.421L-4.412,-5.465L-3.942,-2.453L-5.753,-0.266L-7.081,0.893L-6.62,1.045L-6.193,1.185L-4.86,0.974L-3.375,1.011L-1.561,1.147L-0.529,0.479L0.123,0.119L0.71,-0.659L0.152,-4.987L0,-5.693Z" style="fill:rgb(51,51,51);fill-rule:nonzero;"/>
                </g>
                <g transform="matrix(1,0,0,1,1265.87,1336.08)">
                    <path d="M0,7.585L0.119,7.564L0.11,7.657L0,7.585ZM-0.313,6.147L-0.161,6.181L-0.233,6.286L-0.313,6.147ZM4.602,6.654L4.682,6.625L4.704,6.113L4.336,6.189L3.663,6.193L3.663,6.151L4.704,6.113L3.532,6.024L2.03,5.174L1.849,5.098L0.711,4.624L0.952,3.896L1.146,3.046L1.29,2.403L1.645,2.352L2.098,2.64L3.642,3.038L4.031,2.281L4.019,2.01L2.817,0.906L2.593,0.449L1.29,-0.38L1.18,-0.452L1.015,-0.558L0.229,-1.057L0.22,-1.074L0.034,-1.535L-0.284,-1.556L-0.305,-1.336L-0.355,-1.34L-0.461,-1.565L-0.8,-1.586L-1.273,-1.425L-1.362,-1.395L-1.447,-1.366L-1.48,-1.353L-2.986,-0.841L-3.244,-0.482L-3.401,-0.566L-3.32,-0.372L-3.684,0.14L-3.892,0.432L-3.557,1.054L-3.257,1.616L-3.282,1.946L-3.329,2.522L-3.375,3.076L-3.384,3.127L-3.388,3.148L-3.456,3.507L-0.423,6.126L-1.73,5.039L-1.937,5.115L-1.777,4.996L-2.576,4.332L-3.456,3.507L-3.536,5.119L-2.919,5.61L-2.876,5.643L-2.509,7.268L-2.255,7.424L-2.018,8.165L-1.354,8.486L0.059,9.171L1.912,8.934L2.953,8.308L3.469,7.995L3.485,7.691L4.886,7.302L4.831,6.976L4.602,6.654Z" style="fill:rgb(120,71,34);fill-rule:nonzero;"/>
                </g>
                <g transform="matrix(1,0,0,1,1303.56,1338.64)">
                    <path d="M0,1.379L0.03,1.294L0.165,1.32L0,1.379ZM4.086,2.699L4.01,2.699L4.019,2.682L4.086,2.699ZM2.229,1.874L2.225,1.891L1.92,1.315L2.229,1.874ZM0.884,6.315L0.918,6.29L0.977,6.248L0.994,6.29L0.884,6.315ZM-0.14,6.582L-0.131,6.59L-0.491,6.671L-0.14,6.582ZM5.177,4.116L4.911,2.995L5.41,1.895L4.81,0.584L3.739,-0.948L3.215,-1.849L3.236,-3.126L3.249,-4.183L3.261,-4.902L2.805,-5.546L2.792,-5.41L2.779,-5.579L2.754,-5.613L0.901,-5.918L0.635,-5.96L0.55,-5.973L0.199,-5.909L-0.596,-5.757L-0.825,-5.715L-1.032,-5.427L-1.425,-4.881L-1.375,-4.556L-1.366,-4.509L-1.087,-2.373L-1.07,-2.263L-2.204,-0.123L-1.946,1.578L-2.018,1.853L-2.221,2.652L-2.161,2.707L-2.14,2.728L-2.157,2.8L-2.229,2.758L-2.276,2.733L-2.238,2.766L-2.161,2.826L-1.87,3.067L-1.641,3.253L-1.366,3.063L-1.303,3.016L-1.189,2.936L-0.875,2.716L-0.846,2.694L-0.715,2.601L-0.33,2.331L-0.33,2.322L-0.148,1.802L-0.131,1.755L-0.042,1.497L0.165,1.785L0.96,1.87L1.155,2.098L1.163,2.111L1.1,2.119L1.079,2.619L1.112,2.699L1.091,2.859L1.722,3.57L1.244,4.129L1.189,4.188L1.146,4.238L0.88,4.551L0.859,4.573L0.77,4.674L0.728,4.733L0.486,5.055L0.283,5.33L0.203,5.436L0.173,5.452L0.046,5.52L-0.66,5.905L-1.51,6.366L-1.476,6.451L-1.447,6.519L-1.425,6.561L-1.413,6.59L-1.451,6.996L-1.451,7.013L-1.447,7.081L-1.443,7.254L-0.825,7.174L-0.085,7.081L0.584,7.178L0.74,7.204L0.761,7.208L1.739,7.352L2.043,7.254L2.271,7.183L2.53,7.098L3.49,6.789L3.651,6.59L3.744,6.578L3.993,6.146L4.928,4.953L4.848,4.687L4.894,4.606L5.177,4.116Z" style="fill:rgb(120,71,34);fill-rule:nonzero;"/>
                </g>
                <g transform="matrix(1,0,0,1,1283.23,1417.18)">
                    <path d="M0,1.483L-0.025,1.744L0.297,-0.261L0,1.483Z" style="fill:rgb(112,112,112);fill-rule:nonzero;"/>
                </g>
                <g transform="matrix(1,0,0,1,1291.36,1423.15)">
                    <path d="M0,-2.42L-0.461,-1.675L-0.884,-1.104L-2.217,-0.732L-3.706,-0.597L-5.52,-0.795L-6.552,-3.452L-7.204,-4.721L-7.787,-6.481L-7.991,-4.789L-8.151,-4.226L-7.885,-3.71L-7.94,-2.623L-6.87,-1.781L-6.624,-1.798L-5.77,2.512L-4.179,3.396L-1.675,4.061L-0.503,3.663L0.74,3.037L1.002,1.946L1.286,0.558L0,-2.42Z" style="fill:rgb(112,112,112);fill-rule:nonzero;"/>
                </g>
                <g transform="matrix(1,0,0,1,1264.99,1420.08)">
                    <path d="M0,4.458L-1.565,4.454L-2.081,4.454L-1.768,4.416L-1.743,4.411L-1.776,4.437L-0.605,4.331L-0.406,4.344L0.956,4.42L1.595,4.458L0,4.458ZM4.619,0.41L3.968,0.769L2.936,1.438L1.121,1.302L-0.364,1.264L-1.696,1.476L-2.124,1.336L-2.585,1.184L-3.871,3.197L-3.6,4.826L1.155,4.61L1.159,4.691L1.705,4.674L2.381,4.648L4.167,4.576L4.285,4.572L4.852,4.555L5.355,4.534L5.3,3.337L5.541,2.567L5.567,2.258L5.207,-0.368L4.619,0.41Z" style="fill:rgb(112,112,112);fill-rule:nonzero;"/>
                </g>
                <g transform="matrix(0,1,1,0,1270.06,1341.72)">
                    <path d="M0.518,-0.523L0.561,-0.523L0.556,0.149L0.48,0.518L0.518,-0.523Z" style="fill:rgb(158,188,244);fill-rule:nonzero;"/>
                </g>
                <g transform="matrix(1,0,0,1,1264.1,1340.72)">
                    <path d="M0,0.359L0.047,0.401L1.354,1.489L-1.679,-1.13L-0.8,-0.305L0,0.359Z" style="fill:rgb(158,188,244);fill-rule:nonzero;"/>
                </g>
                <g transform="matrix(1,0,0,1,1263.21,1424.44)">
                    <path d="M0,0.083L0.008,0.062L-0.306,0.099L0.21,0.099L1.776,0.105L3.37,0.105L2.733,0.067L1.37,-0.01L1.172,-0.022L0,0.083Z" style="fill:rgb(158,188,244);fill-rule:nonzero;"/>
                </g>
                <g transform="matrix(1,0,0,1,1304.52,1341.9)">
                    <path d="M0,-1.16L0.043,-0.191L0,0.22L0.051,0.232L0.123,-0.403L0.145,-0.563L0.11,-0.644L0.132,-1.144L0.195,-1.151L0.186,-1.164L-0.008,-1.392L0,-1.16Z" style="fill:rgb(112,112,112);fill-rule:nonzero;"/>
                </g>
                <g transform="matrix(1,0,0,1,1330.15,1421.31)">
                    <path d="M0,1.759L-2.06,-0.453L-1.586,0.913L-3.291,1.366L-5.507,0.456L-6.155,-0.834L-7.022,-2.137L-7.745,-3.232L-8.122,-1.642L-8.05,-0.335L-8.024,-0.187L-7.627,0.993L-6.967,1.476L-6.045,1.234L-5.478,1.674L-5.503,1.522L-5.448,1.615L-5.444,1.658L-5.44,1.759L-5.406,2.44L-5.156,3.794L-5.135,3.942L-4.421,4.407L-2.868,4.881L-1.472,4.991L-0.651,4.8L0.144,4.589L0.131,4.568L0.084,4.462L0.279,4.386L0.33,3.32L0.199,2.66L0,1.759Z" style="fill:rgb(112,112,112);fill-rule:nonzero;"/>
                </g>
                <g transform="matrix(1,0,0,1,1331.5,1356.03)">
                    <path d="M0,-0.195L-0.309,-0.068L-0.313,-0.038L0,0.042L0.101,-0.237L0,-0.195Z" style="fill:rgb(112,112,112);fill-rule:nonzero;"/>
                </g>
                <g transform="matrix(0.997054,0.0766965,0.0766965,-0.997054,1306.86,1352.03)">
                    <path d="M0.005,0.012L0.735,0.012L1.566,0.018L-1.883,0.122L0.005,0.012Z" style="fill:rgb(112,112,112);fill-rule:nonzero;"/>
                </g>
                <g transform="matrix(1,0,0,1,1309.25,1423.55)">
                    <path d="M0,0.91L0.089,0.906L0.093,1.029L-0.055,1.037L-0.063,1.037L0,0.91ZM5.004,1.629L5.237,1.68L4.983,1.676L5.004,1.629ZM4.501,1.524L4.598,1.545L4.501,1.553L4.501,1.524ZM0.706,0.864L0.736,0.864L0.736,0.986L0.626,0.995L0.706,0.864ZM7.102,-1.497L6.235,-1.04L5.592,-0.841L3.371,-1.031L1.667,-0.921L-0.245,0.259L-0.199,1.227L-0.199,1.38L-0.173,1.726L0.106,1.963L0.69,2.111L1.616,2.238L4.881,2.027L4.915,2.001L5.152,2.661L6.163,2.78L6.942,2.792L7.449,2.759L7.707,2.678L8.105,1.502L8.13,1.363L8.202,0.051L7.826,-1.882L7.102,-1.497Z" style="fill:rgb(112,112,112);fill-rule:nonzero;"/>
                </g>
                <g transform="matrix(0.0127785,0.999918,0.999918,-0.0127785,1301.35,1343.52)">
                    <path d="M-0.107,-0.205L0.206,-0.205L-0.037,-0.105L-0.106,-0.138L-0.107,-0.205Z" style="fill:rgb(112,112,112);fill-rule:nonzero;"/>
                </g>
                <g transform="matrix(1,0,0,1,1301.43,1345.09)">
                    <path d="M0,0.56L0.221,0.703L0.186,0.609L0.068,0.272L0.179,-0.101L0.136,-0.143L0,0.56Z" style="fill:rgb(112,112,112);fill-rule:nonzero;"/>
                </g>
                <g transform="matrix(1,0,0,1,1302.84,1341.37)">
                    <path d="M0,-0.13L-0.132,-0.037L-0.101,0.013L0.368,-0.072L0.063,-0.143L0,-0.13Z" style="fill:rgb(112,112,112);fill-rule:nonzero;"/>
                </g>
                <g transform="matrix(1,0,0,1,1333.77,1378.93)">
                    <path d="M0,-0.145L0.051,0.076L0.397,-0.221L0,-0.145Z" style="fill:rgb(112,112,112);fill-rule:nonzero;"/>
                </g>
                <g transform="matrix(1,0,0,1,1327.97,1331.41)">
                    <path d="M0,-0.69L-0.461,-4.235L-2.085,-6.844L-5.165,-9.615L-6.408,-9.704L-8.494,-9.433L-10.558,-9.518L-12.698,-8.16L-13.709,-6.849L-14.957,-2.953L-15.109,0.456L-15.109,2.313L-14.631,4.238L-14.416,5.579L-13.041,7.364L-11.544,8.43L-11.319,8.515L-11.302,8.087L-11.273,7.453L-11.307,6.459L-11.332,5.613L-11.539,5.22L-11.874,5.076L-12.204,4.631L-12.246,4.568L-12.707,3.853L-12.91,3.456L-13.752,1.793L-13.908,-1.434L-13.908,-1.498L-13.934,-1.549L-13.972,-1.481L-13.972,-1.599L-13.934,-1.549L-13.908,-1.654L-13.908,-3.482L-13.874,-3.854L-13.832,-3.888L-13.764,-4.243L-13.794,-4.691L-13.824,-5.165L-13.722,-5.415L-13.1,-6.125L-12.901,-6.358L-12.614,-6.481L-11.421,-7.001L-10.913,-7.221L-10.461,-7.449L-9.995,-7.682L-9.742,-7.597L-9.171,-7.407L-8.887,-7.314L-8.126,-7.069L-6.776,-6.637L-6.772,-6.633L-6.294,-6.358L-5.33,-5.795L-5.084,-5.313L-5.063,-5.165L-4.776,-4.484L-4.53,-3.905L-3.862,-1.066L-3.87,-0.999L-3.976,-0.246L-4.158,1.044L-4.145,1.4L-4.107,2.182L-4.048,3.498L-4.006,4.462L-3.972,5.169L-3.282,5.926L-3.105,6.12L-2.982,6.256L-2.974,6.264L-2.665,6.607L-2.775,6.92L-2.893,7.258L-2.88,8.189L-2.872,9.014L-2.318,8.853L-1.493,7.977L-0.216,6.074L0.271,1.734L0,-0.69Z" style="fill:rgb(120,71,34);fill-rule:nonzero;"/>
                </g>
                <g transform="matrix(1,0,0,1,1335.44,1347.04)">
                    <path d="M0,32.064L-0.123,32.085L-0.14,32.089L-0.127,32.077L0.008,31.98L0.063,31.937L0.207,32.03L0,32.064ZM-1.201,31.134L-1.392,29.551L-1.366,29.742L-1.341,29.945L-1.235,30.799L-1.189,31.18L-1.201,31.134ZM0.63,30.753L0.618,30.761L0.588,30.782L0.524,30.825L0.554,30.74L0.609,30.592L0.66,30.736L0.63,30.753ZM0.791,29.979L0.761,30.148L0.753,30.08L0.668,29.226L-0.068,26.231L-0.165,18.042L-0.089,8.376L-0.25,4.019L-0.292,2.429L-0.326,1.993L-2.039,-1.277L-3.029,4.26L-4.294,8.939L-4.247,8.918L-3.938,8.791L-3.837,8.748L-3.938,9.028L-3.638,19.112L-2.039,26.734L-2.141,26.967L-2.517,28.054L-2.601,29.649L-2.572,29.839L-1.921,31.193L-1.908,31.239L-1.35,31.193L-1.21,31.603L-1.223,31.62L-1.273,31.666L-1.62,31.963L-1.671,31.743L-3.287,31.586L-3.304,31.933L-3.245,32.178L-3.156,32.216L-3.16,32.381L-2.703,32.648L-2.572,32.724L-2.737,32.682L-2.699,32.91L-1.815,33.164L-1.574,33.304L-1.146,33.274L-0.766,33.249L-0.508,33.341L-0.495,33.227L-0.461,33.227L-0.093,33.202L0.161,32.652L0.182,32.648L0.897,31.057L0.791,29.979Z" style="fill:rgb(205,152,99);fill-rule:nonzero;"/>
                </g>
                <g transform="matrix(1,0,0,1,1302.26,1352.82)">
                    <path d="M0,-9.822L0.013,-9.822L0.093,-9.831L0.089,-9.801L-0.161,-9.801L0,-9.822ZM0.656,-8.612L0.656,-8.617L0.66,-8.617L0.656,-8.612ZM0.127,-8.595L0.084,-8.595L-0.063,-8.587L-0.106,-8.587L-0.063,-8.595L0.08,-8.621L0.123,-8.629L0.127,-8.595ZM7.343,-8.007L5.74,-6.942L4.864,-6.138L4.539,-6.167L3.824,-7.077L3.566,-6.992L3.338,-6.92L3.033,-6.823L2.056,-6.967L2.047,-6.874L2.034,-6.971L1.878,-6.996L1.21,-7.093L0.469,-7.001L-0.148,-6.92L-0.152,-7.093L-0.157,-7.161L-0.157,-7.17L-0.199,-7.166L-0.157,-7.178L-0.119,-7.584L-0.131,-7.614L-0.152,-7.656L-0.182,-7.724L-0.216,-7.808L0.634,-8.27L1.341,-8.655L1.468,-8.722L1.497,-8.739L1.578,-8.845L1.781,-9.12L2.022,-9.441L2.064,-9.501L2.153,-9.602L2.174,-9.623L2.212,-9.932L2.441,-9.936L2.483,-9.987L2.538,-10.046L2.576,-10.528L2.47,-10.638L2.314,-10.681L2.263,-10.693L2.305,-11.104L2.263,-12.072L2.254,-12.305L1.459,-12.39L1.163,-12.419L1.146,-12.373L0.964,-11.852L0.964,-11.844L0.579,-11.573L0.643,-11.586L0.948,-11.514L0.973,-11.582L0.99,-11.582L0.948,-11.514L0.478,-11.429L0.431,-11.421L0.419,-11.459L0.106,-11.239L0.097,-11.112L-0.072,-11.112L-0.347,-10.922L-0.575,-11.108L-0.867,-11.349L-0.943,-11.408L-0.981,-11.442L-0.935,-11.417L-0.867,-11.467L-0.927,-11.522L-0.723,-12.322L-1.146,-11.26L-1.066,-10.842L-1.434,-10.017L-1.201,-9.399L-0.99,-9.399L-1.02,-9.331L-1.117,-9.086L-1.261,-8.722L-1.1,-8.282L-0.833,-7.17L-0.698,-7.872L-0.69,-7.918L-0.618,-7.961L-0.656,-7.83L-0.766,-7.457L-0.647,-7.119L-0.613,-7.026L0.486,-6.332L1.882,-2.529L2.728,-1.057L6.159,-0.689L5.33,-0.749L6.637,-0.207L7.838,2.597L8.21,2.221L7.753,-2.652L8.439,-6.028L7.343,-8.007Z" style="fill:rgb(205,152,99);fill-rule:nonzero;"/>
                </g>
                <g transform="matrix(1,0,0,1,1316.5,1416.72)">
                    <path d="M0,-15.469L-0.597,-15.528L-1.764,-15.647L-2.792,-15.748L-3.38,-15.808L-3.799,-15.845L-4.014,-15.875L-4.492,-15.93L-4.738,-12.825L-3.452,0.461L-3.282,0.279L-2.28,0.229L-0.935,0.334L0.068,0.411L1.544,-12.656L1.688,-15.304L1.049,-15.368L0,-15.469Z" style="fill:rgb(205,152,99);fill-rule:nonzero;"/>
                </g>
                <g transform="matrix(1,0,0,1,1327.17,1415.4)">
                    <path d="M0,-14.598L-0.389,-14.535L-0.825,-14.492L-1.535,-14.425L-2.47,-14.332L-3.46,-14.234L-4.213,-14.158L-5.347,-14.044L-5.82,-13.997L-5.727,-12.513L-4.251,-1.1L-3.249,-0.305L-1.904,0.063L-0.905,-0.161L-0.736,-0.867L0.55,-12.931L0.402,-14.661L0,-14.598Z" style="fill:rgb(205,152,99);fill-rule:nonzero;"/>
                </g>
                <g transform="matrix(1,0,0,1,1287.73,1266.33)">
                    <path d="M0,1.1L-0.021,0.444L-0.072,-1.214L-0.169,-2.525L-0.326,-4.661L-0.36,-5.144L-0.482,-5.385L-1.193,-6.801L-1.861,-8.126L-1.937,-8.274L-2.987,-8.65L-4.556,-9.213L-4.797,-9.242L-5.876,-9.374L-6.62,-9.466L-6.777,-9.488L-8.185,-9.318L-9.103,-9.213L-9.547,-9.069L-10.499,-8.769L-12.064,-8.274L-13.122,-6.438L-13.227,-6.252L-13.325,-6.083L-13.866,-5.144L-14.073,-2.487L-14.099,-2.529L-14.196,-1.315L-14.196,-1.311L-14.238,-0.207L-14.293,1.117L-13.959,3.016L-13.87,3.528L-13.857,3.541L-13.841,3.63L-13.828,3.655L-12.593,6.125L-12.584,6.138L-10.871,8.799L-10.846,8.841L-10.842,8.841L-8.782,10.161L-8.773,10.152L-8.748,10.161L-8.617,10.203L-7.686,10.393L-6.76,10.588L-6.73,10.579L-4.873,10.169L-4.476,9.877L-3.075,8.841L-1.946,6.747L-1.625,6.151L-0.757,4.34L-0.614,4.031L-0.453,3.702L-0.427,3.646L0.004,1.193L0,1.1Z" style="fill:rgb(120,71,34);fill-rule:nonzero;"/>
                </g>
                <g transform="matrix(1,0,0,1,1325.1,1330.58)">
                    <path d="M0,10.152L-0.004,9.835L-0.013,9.01L-0.025,8.08L0.093,7.741L0.203,7.428L-0.106,7.086L-0.114,7.077L-0.237,6.942L-0.415,6.747L-1.104,5.99L-1.138,5.283L-1.18,4.319L-1.24,3.004L-1.277,2.221L-1.29,1.866L-1.108,0.576L-1.002,-0.178L-0.994,-0.245L-1.662,-3.083L-1.908,-3.663L-2.195,-4.344L-2.216,-4.492L-2.462,-4.974L-3.426,-5.536L-3.904,-5.812L-3.908,-5.816L-5.258,-6.247L-6.02,-6.493L-6.303,-6.586L-6.874,-6.776L-7.127,-6.861L-7.593,-6.628L-8.046,-6.4L-8.553,-6.18L-9.746,-5.66L-10.034,-5.536L-10.232,-5.304L-10.854,-4.594L-10.956,-4.344L-10.926,-3.87L-10.896,-3.422L-10.964,-3.067L-11.006,-3.033L-11.04,-2.661L-11.04,-0.613L-10.884,2.614L-10.042,4.277L-9.839,4.674L-9.378,5.389L-9.336,5.453L-9.006,5.897L-8.671,6.041L-8.464,6.434L-8.439,7.28L-8.405,8.274L-8.435,8.909L-8.451,9.336L-8.502,10.453L-9.996,10.816L-9.961,11.688L-9.103,14.974L-3.866,17.013L1.54,15.478L2.703,12.288L2.817,11.421L0,10.152Z" style="fill:rgb(205,152,99);fill-rule:nonzero;"/>
                </g>
            </g>
        </g>
    </g>
</svg>
