<?xml version="1.0" encoding="UTF-8" standalone="no"?>
<!DOCTYPE svg PUBLIC "-//W3C//DTD SVG 1.1//EN" "http://www.w3.org/Graphics/SVG/1.1/DTD/svg11.dtd">
<svg width="100%" height="100%" viewBox="0 0 140 220" version="1.1" xmlns="http://www.w3.org/2000/svg" xmlns:xlink="http://www.w3.org/1999/xlink" xml:space="preserve" xmlns:serif="http://www.serif.com/" style="fill-rule:evenodd;clip-rule:evenodd;stroke-linejoin:round;stroke-miterlimit:2;">
    <g transform="matrix(1,0,0,1,-590.099,-2240.27)">
        <g id="people-31">
            <g>
                <g transform="matrix(1,0,0,1,650.353,2434.09)">
                    <path d="M0,-3.747L0.582,0.531L0.864,-2.185L0.408,-3.661L0.38,-3.747L0.208,-4.278L0,-3.747Z" style="fill:rgb(0,188,218);fill-rule:nonzero;"/>
                </g>
                <g transform="matrix(1,0,0,1,671.27,2455.05)">
                    <path d="M0,-80.382L-7.73,-80.006L-15.284,-79.98L-19.941,-79.986L-22.098,-79.995L-22.228,-69.908L-22.345,-61.87L-21.414,-39.825L-22.662,-31.172L-20.709,-25.235L-20.536,-24.704L-20.508,-24.617L-20.054,-23.142L-18.154,-16.95L-18.069,-16.668L-16.948,-14.801L-16.208,-13.563L-15.732,-12.772L-15.21,-8.743L-14.643,-9.072L-14.534,-9.058L-14.364,-9.036L-13.885,-7.15L-13.903,-7.099L-14.671,-4.593L-14.636,-4.312L-14.128,-5.404L-13.61,-4.3L-13.201,-3.701L-12.774,-3.602L-12.626,-3.542L-7.822,-1.599L-7.127,-1.318L-6.486,-1.057L-6.098,-0.902L-2.048,0.35L-2.03,0.355L-1.784,0.431L-0.751,0.75L0.204,1.046L-0.955,-13.018L-2.605,-15.881L-1.65,-24.639L-4.131,-40.804L-4.233,-41.474L-2.513,-46.944L-2.164,-48.047L1.886,-60.912L-2.164,-48.047L5.566,-68.293L5.185,-81.428L3.204,-80.773L0,-80.382Z" style="fill:rgb(0,188,218);fill-rule:nonzero;"/>
                </g>
                <g transform="matrix(1,0,0,1,667.139,2408.11)">
                    <path d="M0,6.14L1.618,0L-0.102,5.47L0,6.14Z" style="fill:rgb(0,188,218);fill-rule:nonzero;"/>
                </g>
                <g transform="matrix(1,0,0,1,651.964,2436.35)">
                    <path d="M0,12.472L0.169,14.631L0.388,15.348L0.849,16.859L0.934,16.91L3.307,15.686L3.313,15.027L3.37,10.381L4.096,9.96L3.574,5.931L3.098,5.14L2.358,3.902L1.237,2.035L1.153,1.753L-0.747,-4.438L-1.029,-1.722L-1.385,1.753L-0.571,5.14L-0.204,9.836L-0.007,12.376L0,12.472Z" style="fill:rgb(0,188,218);fill-rule:nonzero;"/>
                </g>
                <g transform="matrix(1,0,0,1,656.352,2446.24)">
                    <path d="M0,5.008L0.247,4.214L1.015,1.708L1.033,1.657L0.553,-0.229L0.384,-0.251L0.275,-0.265L-0.081,5.273L0,5.008Z" style="fill:white;fill-rule:nonzero;"/>
                </g>
                <g transform="matrix(1,0,0,1,674.795,2374.21)">
                    <path d="M0,-5.189L-1.047,-4.711L-2.492,-4.049L-3.176,-3.736L-4.167,-3.334L-6.451,-2.406L-8.481,-1.582L-11.456,-1.087L-12.803,-0.864L-14.287,-0.618L-18.809,-0.517L-19.578,-0.499L-23.268,-0.417L-23.409,-0.478L-24.051,-0.757L-25.687,-1.473L-25.623,0.841L-23.466,0.849L-18.809,0.856L-11.255,0.83L-3.525,0.453L-0.321,0.062L1.66,-0.592L0.927,-6.045L0.363,-5.356L0,-5.189Z" style="fill:white;fill-rule:nonzero;"/>
                </g>
                <g transform="matrix(1,0,0,1,669.24,2455.42)">
                    <path d="M0,0.038L0.246,0.057L0,-0.019L0,0.038Z" style="fill:white;fill-rule:nonzero;"/>
                </g>
                <g transform="matrix(1,0,0,1,649.105,2449.31)">
                    <path d="M0,4.737L0.874,4.634L1.258,4.589L2.94,4.391L3.409,4.15L3.793,3.951L3.708,3.9L3.246,2.389L3.028,1.672L2.859,-0.487L2.852,-0.583L1.347,2.452L-2.785,4.459L-2.154,5.32L0,4.737Z" style="fill:white;fill-rule:nonzero;"/>
                </g>
                <g transform="matrix(1,0,0,1,656.271,2454.38)">
                    <path d="M0,-2.861L-1.001,-2.344L-3.373,-1.12L-3.758,-0.921L-4.226,-0.68L2.15,1.871L7.91,0.619L12.968,1.085L12.951,1.022L8.901,-0.229L8.513,-0.385L7.871,-0.645L7.177,-0.926L2.372,-2.869L2.224,-2.929L1.798,-3.028L1.389,-3.628L0.871,-4.732L0.363,-3.64L0.06,-2.989L0,-2.861Z" style="fill:white;fill-rule:nonzero;"/>
                </g>
                <g transform="matrix(1,0,0,1,669.486,2458.09)">
                    <path d="M0,-2.613L-0.247,-2.631L-5.305,-3.098L-11.065,-1.846L-14.463,-1.107L-17.939,-1.17L-20.861,-2.19L-22.729,-3.415L-23.184,-3.152L-23.713,-2.844L-24.629,-1.679L-24.541,-0.668L-24.499,-0.147L-23.512,-0.718L-20.646,0.381L-17.769,0.802L-14.315,0.624L-12.753,0.591L-9.866,0.082L-9.123,-0.635L-7.131,-0.677L-6.673,0.096L-5.132,0.43L-5.009,0.428L-0.028,-0.061L1.23,0.034L1.149,-0.904L1.033,-2.294L0,-2.613Z" style="fill:white;fill-rule:nonzero;"/>
                </g>
                <g transform="matrix(1,0,0,1,644.946,2456.53)">
                    <path d="M0,0.895L-1.801,0.57L-3.458,-0.519L-3.271,-2.056L-4.135,-0.892L-4.135,0.668L-3.525,2.272L-3.458,2.334L-1.801,2.951L1.287,2.951L0.042,1.416L0,0.895Z" style="fill:white;fill-rule:nonzero;"/>
                </g>
                <g transform="matrix(1,0,0,1,650.452,2446.18)">
                    <path d="M0,5.575L0.43,0.499L0.254,0L0,5.575Z" style="fill:white;fill-rule:nonzero;"/>
                </g>
                <g transform="matrix(1,0,0,1,659.726,2459.22)">
                    <path d="M0,-0.512L-0.656,-0.498L-1.101,-0.465L-1.915,0.009L0,-0.196L0.599,-0.238L0.43,-0.521L0,-0.512Z" style="fill:white;fill-rule:nonzero;"/>
                </g>
                <g transform="matrix(1,0,0,1,659.726,2459.44)">
                    <path d="M0,-0.42L-1.915,-0.215L-2.351,0.042L-0.289,0.042L0.818,-0.087L0.599,-0.462L0,-0.42Z" style="fill:rgb(221,221,221);fill-rule:nonzero;"/>
                </g>
                <g transform="matrix(1,0,0,1,659.07,2457.45)">
                    <path d="M0,1.269L0.656,1.256L1.086,1.246L3.285,-0.033L1.294,0.009L0.55,0.726L-0.444,1.302L0,1.269Z" style="fill:rgb(221,221,221);fill-rule:nonzero;"/>
                </g>
                <g transform="matrix(1,0,0,1,658.626,2459.19)">
                    <path d="M0,-0.437L0.994,-1.014L-1.893,-0.504L-3.455,-0.471L-6.909,-0.293L-9.785,-0.714L-12.651,-1.814L-13.638,-1.242L-12.394,0.293L-12.115,0.636L-11.95,0.733L-9.792,1.377L-6.264,1.239L-4.632,1.09L-3.285,0.784L-1.389,0.373L-1.251,0.293L-0.814,0.037L0,-0.437Z" style="fill:rgb(221,221,221);fill-rule:nonzero;"/>
                </g>
                <g transform="matrix(1,0,0,1,664.477,2458.7)">
                    <path d="M0,-0.178L-0.123,-0.176L-1.664,-0.51L-2.122,-1.283L-4.322,-0.003L-4.152,0.28L-3.934,0.654L-3.863,0.77L-2.323,1.105L-2.21,1.103L2.76,0.532L5.213,0.022L6.239,-0.572L4.981,-0.666L0,-0.178Z" style="fill:rgb(221,221,221);fill-rule:nonzero;"/>
                </g>
                <g transform="matrix(1,0,0,1,650.363,2456.79)">
                    <path d="M0,-2.893L-0.384,-2.848L-1.258,-2.745L-3.412,-2.162L-3.606,-2.109L-1.738,-0.884L1.184,0.136L4.66,0.198L8.058,-0.54L1.681,-3.091L0,-2.893Z" style="fill:rgb(221,221,221);fill-rule:nonzero;"/>
                </g>
                <g transform="matrix(1,0,0,1,643.144,2454.09)">
                    <path d="M0,3.01L1.801,3.335L1.713,2.324L2.63,1.159L3.158,0.852L3.613,0.588L3.807,0.536L3.176,-0.325L0.553,-0.148L-1.47,0.384L-1.657,1.921L0,3.01Z" style="fill:rgb(221,221,221);fill-rule:nonzero;"/>
                </g>
                <g transform="matrix(1,0,0,1,655.277,2446.64)">
                    <path d="M0,4.736L-0.007,5.396L0.994,4.879L1.35,-0.66L0.783,-0.33L0.056,0.091L0,4.736Z" style="fill:rgb(221,221,221);fill-rule:nonzero;"/>
                </g>
                <g transform="matrix(1,0,0,1,660.015,2313.21)">
                    <path d="M0,-4.988L-0.071,-6.857L-0.085,-7.196L-0.201,-7.127L-0.36,-7.034L-0.649,-6.868L-1.167,-6.733L-1.978,-6.524L-1.992,-6.521L-3.631,-6.281L-3.863,-6.247L-5.273,-6.041L-5.753,-6.003L-7.48,-5.864L-7.568,-5.857L-9.049,-5.833L-10.561,-5.809L-11.072,-5.801L-11.64,-5.837L-12.482,-5.89L-13.064,-5.927L-13.8,-6.092L-14.273,-6.198L-14.784,-6.313L-14.833,-6.33L-14.907,-6.199L-14.442,-5.143L-14.357,-4.949L-14.164,-3.829L-13.483,-2.67L-13.303,-2.365L-13.067,-2.022L-12.341,-0.958L-11.238,-0.485L-10.452,-0.146L-10.392,-0.12L-9.591,0.746L-8.601,1.821L-7.861,1.578L-6.948,1.279L-6.38,1.093L-5.073,1.646L-3.744,2.208L-3.137,1.695L-2.619,1.259L-2.587,1.234L-1.699,1.585L-1.1,1.822L-0.962,1.548L-0.444,0.524L-0.416,0.468L-0.374,0.386L-0.282,0.201L0.931,0.428L0.264,-3.448L0.257,-3.483L0.13,-4.219L0,-4.988Z" style="fill:rgb(120,71,34);fill-rule:nonzero;"/>
                </g>
                <g transform="matrix(1,0,0,1,654.283,2302.05)">
                    <path d="M0,3.376L1.703,3.127L1.812,3.111L3.62,2.847L3.715,2.816L4.568,2.532L4.318,1.803L3.828,0.384L3.363,0.301L2.566,0.159L1.294,-0.067L1.146,0.008L-0.049,0.614L-0.789,0.989L-0.983,1.087L-1.424,2.614L-1.664,3.443L-0.314,3.389L0,3.376Z" style="fill:rgb(120,71,34);fill-rule:nonzero;"/>
                </g>
                <g transform="matrix(1,0,0,1,644.593,2309.38)">
                    <path d="M0,-0.161L-0.106,-1.275L-0.49,-2.87L-0.547,-2.89L-1.072,-3.073L-1.241,-3.124L-2.126,-3.388L-1.463,-1.886L-0.279,1.705L-0.028,2.468L0.187,3.115L0.222,3.227L0.226,3.157L0.233,2.418L0.233,2.266L0.169,1.603L0.137,1.244L0.018,0.03L0,-0.161Z" style="fill:rgb(120,71,34);fill-rule:nonzero;"/>
                </g>
                <g transform="matrix(1,0,0,1,645.196,2334.57)">
                    <path d="M0,4.319L0.141,3.818L-0.56,0L0,4.319Z" style="fill:rgb(0,188,218);fill-rule:nonzero;"/>
                </g>
                <g transform="matrix(1,0,0,1,656.352,2450.72)">
                    <path d="M0,0.529L-0.081,0.794L-0.02,0.666L0.283,0.015L0.247,-0.265L0,0.529Z" style="fill:rgb(250,192,41);fill-rule:nonzero;"/>
                </g>
                <g transform="matrix(1,0,0,1,651.759,2451.76)">
                    <path d="M0,-5.576L-1.054,-5.576L-0.878,-5.076L-1.308,0L0.197,-3.035L0,-5.576Z" style="fill:rgb(250,192,41);fill-rule:nonzero;"/>
                </g>
                <g transform="matrix(1,0,0,1,670.636,2455.8)">
                    <path d="M0,1.391L0.838,0.295L-0.117,0L0,1.391Z" style="fill:rgb(250,192,41);fill-rule:nonzero;"/>
                </g>
                <g transform="matrix(1,0,0,1,676.406,2342.93)">
                    <path d="M0,6.864L-0.183,0.615L-0.187,0.524L-0.36,-5.357L-0.434,-7.889L-0.684,-9.409L-1.322,-13.272L-3.056,-18.885L-5.626,-21.904L-8.827,-22.807L-11.52,-24.007L-8.738,-22.48L-7.864,-20.23L-11.16,-18.512L-16.342,-18.356L-19.335,-20.138L-23.395,-21.382L-26.593,-20.559L-27.714,-19.093L-27.936,-18.803L-25.355,-19.153L-22.652,-18.14L-20.579,-15.011L-19.888,-9.168L-20.745,-5.244L-21.228,-3.982L-22.497,-0.675L-24.231,3.842L-26.416,9.528L-26.744,10.385L-27.432,12.178L-27.872,14.308L-27.823,14.951L-28.228,29.275L-28.052,29.485L-27.298,29.815L-25.662,30.53L-25.02,30.809L-24.879,30.871L-21.189,30.788L-20.42,30.77L-15.898,30.669L-14.414,30.423L-13.067,30.2L-10.092,29.705L-8.062,28.881L-5.778,27.953L-4.787,27.551L-4.103,27.238L-2.658,26.576L-1.611,26.098L-1.248,25.931L-0.684,25.242L0.222,24.134L-0.053,21.624L-1.378,9.651L-0.053,21.624L0.07,9.271L0.021,7.68L0,6.94L0,6.864Z" style="fill:rgb(250,192,41);fill-rule:nonzero;"/>
                </g>
                <g transform="matrix(1,0,0,1,671.006,2323.81)">
                    <path d="M0,-2.548L-0.225,-2.783L2.344,0.235L0,-2.548Z" style="fill:rgb(250,192,41);fill-rule:nonzero;"/>
                </g>
                <g transform="matrix(1,0,0,1,685.479,2329.14)">
                    <path d="M0,61.53L-0.881,61.681L-0.892,61.673L-1.149,61.463L-1.579,61.11L-1.653,61.049L-1.717,60.997L-1.653,61.049L-1.579,61.11L-1.149,61.463L-0.892,61.673L-0.881,61.681L0,61.53L0.52,61.431L0,61.53ZM-2.968,63.635L-2.987,63.413L-2.968,63.635ZM-3.382,64.953L-3.257,64.558L-3.161,64.25L-3.257,64.558L-3.382,64.953ZM-3.37,66.129L-3.493,65.946L-3.631,65.746L-3.493,65.946L-3.37,66.129L-3.363,66.131L-3.37,66.129ZM-3.292,62.629L-3.356,62.653L-3.292,62.629ZM-1.717,61.124L-1.798,61.292L-2.002,61.717L-1.798,61.292L-1.717,61.124ZM-1.794,58.903L-1.787,59.781L-1.735,59.776L-1.787,59.781L-1.794,58.903ZM-0.638,60.384L-0.531,60.382L-0.638,60.384ZM1.456,29.404L0.917,22.71L-3.5,11.988L-7.61,1.982L-9.493,-1.691L-12.129,-5.1L-10.395,0.513L-9.757,4.376L-9.507,5.897L-9.433,8.428L-9.26,14.309L-9.225,14.409L-9.256,14.4L-9.073,20.649L-9.073,20.725L-9.052,21.465L-7.642,23.567L-7.477,31.46L-5.09,50.719L-6.697,53.935L-7.593,57.048L-7.727,60.041L-7.318,61.869L-6.715,61.936L-6.26,61.889L-6.028,60.079L-5.358,58.106L-4.794,59.816L-4.583,62.246L-4.54,64.397L-4.487,66.615L-4.174,66.63L-3.49,66.611L-3.349,66.134L-2.672,66.324L-1.417,64.603L-1.177,63.255L-1.019,63.238L0.018,62.233L0.106,61.539L1.024,61.335L1.04,61.332L1.265,58.806L-0.324,50.561L1.456,29.404Z" style="fill:rgb(242,211,173);fill-rule:nonzero;"/>
                </g>
                <g transform="matrix(1,0,0,1,644.79,2321.4)">
                    <path d="M0,-12.4L0.014,-12.635L0.127,-12.438L0,-12.4ZM-0.398,-14.187L-0.299,-14.325L-0.275,-14.257L-0.398,-14.187ZM20.096,-2.481L18.411,-3.07L18.09,-3.264L15.908,-4.569L15.366,-4.893L15.461,-4.892L14.808,-7.718L14.78,-7.663L14.262,-6.638L14.125,-6.365L13.525,-6.601L12.637,-6.952L12.605,-6.928L12.087,-6.492L11.481,-5.979L10.152,-6.54L8.844,-7.094L8.277,-6.908L7.364,-6.609L6.624,-6.366L5.633,-7.441L4.833,-8.306L4.773,-8.332L3.987,-8.671L2.883,-9.145L2.157,-10.209L1.921,-10.551L1.741,-10.857L1.061,-12.016L0.867,-13.135L0.783,-13.329L0.317,-14.386L0.25,-14.533L0.229,-14.574L-0.155,-15.242L-0.43,-15.202L-0.705,-14.974L-0.687,-14.893L-0.303,-13.298L-0.102,-12.383L-0.063,-12.215L-0.06,-12.19L-0.018,-11.999L-0.13,-12.088L-0.18,-11.993L-0.06,-10.78L-0.028,-10.421L0.035,-9.758L0.035,-9.605L0.028,-8.866L0.025,-8.797L-0.011,-8.908L-0.226,-9.556L-0.476,-10.318L-1.66,-13.91L-2.323,-15.411L-2.848,-15.567L-2.859,-15.57L-2.845,-15.486L-2.739,-14.885L-2.69,-14.621L-2.46,-13.398L-1.978,-10.686L-1.385,-9.459L0.409,-5.858L2.03,-3.94L3.028,-2.948L3.786,-2.262L3.902,-2.019L4.681,1.067L3.902,2.433L5.023,0.967L8.22,0.144L12.281,1.389L15.274,3.17L20.456,3.014L23.751,1.296L22.877,-0.953L20.096,-2.481Z" style="fill:rgb(242,211,173);fill-rule:nonzero;"/>
                </g>
                <g transform="matrix(1,0,0,1,653.754,2392.72)">
                    <path d="M0,-67.931L-2.704,-68.943L-5.284,-68.594L-8.816,-66.279L-9.69,-61.265L-9.119,-58.152L-8.418,-54.335L-8.559,-53.833L-12.369,-40.107L-12.834,-37.701L-14.103,-32.509L-17.833,-13.9L-19.01,-11.659L-19.803,-7.507L-20.082,-5.667L-20.491,-3.087L-20.374,-1.114L-19.87,0.525L-19.461,0.825L-18.876,0.714L-18.813,-0.166L-18.376,0.505L-17.833,1.012L-17.297,0.583L-17.48,-0.779L-17.258,-1.843L-16.458,-1.461L-15.245,-0.923L-13.899,-1.547L-13.814,-2.149L-13.902,-2.138L-13.871,-2.176L-13,-3.209L-13.286,-3.478L-13.592,-3.642L-14.533,-3.322L-14.424,-4.259L-13.627,-12.226L-6.123,-31.119L-5.22,-35.483L-4.78,-37.613L-4.092,-39.405L-3.765,-40.263L-1.579,-45.949L0.155,-50.466L1.424,-53.772L1.907,-55.034L2.764,-58.959L2.073,-64.802L0,-67.931Z" style="fill:rgb(242,211,173);fill-rule:nonzero;"/>
                </g>
                <g transform="matrix(1,0,0,1,660.015,2306.13)">
                    <path d="M0,2.096L0.13,2.865L0.257,3.602L0.278,3.599L0.955,0.445L0.381,-1.506L0.359,-1.502L0.43,-0.814L0.402,-0.394L0.331,-0.353L-0.085,-0.112L-0.071,0.227L0,2.096Z" style="fill:rgb(242,211,173);fill-rule:nonzero;"/>
                </g>
                <g transform="matrix(1,0,0,1,644.594,2308.2)">
                    <path d="M0,1.017L0.066,1.113L0.133,0.987L0.095,0.818L-0.107,-0.096L0,1.017Z" style="fill:rgb(250,192,41);fill-rule:nonzero;"/>
                </g>
                <g transform="matrix(1,0,0,1,641.847,2308.42)">
                    <path d="M0,-2.619L-1.184,-3.106L-1.188,-3.078L-1.741,0.487L-0.687,-1.392L-0.176,-2.304L0,-2.619Z" style="fill:rgb(250,192,41);fill-rule:nonzero;"/>
                </g>
                <g transform="matrix(1,0,0,1,640.663,2308.79)">
                    <path d="M0,-3.469L0.011,-3.616L-1.41,-0.542L-1.107,0.147L-0.557,0.123L-0.004,-3.441L0,-3.469Z" style="fill:rgb(250,192,41);fill-rule:nonzero;"/>
                </g>
                <g transform="matrix(1,0,0,1,654.262,2304.73)">
                    <path d="M0,2.484L0.48,2.445L1.89,2.239L2.122,2.206L3.761,1.965L3.775,1.963L4.586,1.753L5.104,1.619L4.59,-0.146L3.737,0.138L3.641,0.168L1.833,0.433L1.724,0.449L0.021,0.698L-0.292,0.71L-1.643,0.765L-1.815,2.63L-1.727,2.623L0,2.484Z" style="fill:rgb(250,192,41);fill-rule:nonzero;"/>
                </g>
                <g transform="matrix(1,0,0,1,641.671,2306.72)">
                    <path d="M0,-0.597L-0.511,0.316L0.43,0.062L0.38,-0.201L0.275,-0.801L0.261,-0.886L0.176,-0.913L0,-0.597Z" style="fill:rgb(250,192,41);fill-rule:nonzero;"/>
                </g>
                <g transform="matrix(1,0,0,1,641.847,2294.43)">
                    <path d="M0,11.371L0.085,11.396L0.095,11.4L0.62,11.556L1.505,11.82L1.674,11.871L2.2,12.054L2.256,12.074L2.238,11.993L2.513,11.765L2.788,11.725L3.172,12.393L3.335,12.45L3.384,12.467L3.895,12.582L4.367,12.689L5.104,12.854L5.686,12.89L6.528,12.943L7.096,12.979L7.607,12.971L9.119,12.947L10.6,12.923L10.772,11.059L11.012,10.23L11.453,8.702L11.647,8.605L12.387,8.23L13.582,7.624L13.73,7.549L15.002,7.775L15.799,7.916L16.264,7.999L16.754,9.419L17.004,10.148L17.519,11.913L17.808,11.746L17.967,11.653L18.083,11.585L18.499,11.344L18.57,11.303L18.598,10.882L18.527,10.194L18.524,10.171L18.288,7.863L16.93,5.13L16.113,3.412L14.438,1.02L11.837,-1.233L8.065,-1.608L5.393,-1.317L2.735,-0.012L1.019,1.484L-0.289,3.147L-0.899,5.855L-1.174,10.738L-1.184,10.884L0,11.371Z" style="fill:rgb(250,192,41);fill-rule:nonzero;"/>
                </g>
            </g>
        </g>
    </g>
</svg>
