<?xml version="1.0" encoding="UTF-8" standalone="no"?>
<!DOCTYPE svg PUBLIC "-//W3C//DTD SVG 1.1//EN" "http://www.w3.org/Graphics/SVG/1.1/DTD/svg11.dtd">
<svg width="100%" height="100%" viewBox="0 0 140 220" version="1.1" xmlns="http://www.w3.org/2000/svg" xmlns:xlink="http://www.w3.org/1999/xlink" xml:space="preserve" xmlns:serif="http://www.serif.com/" style="fill-rule:evenodd;clip-rule:evenodd;stroke-linejoin:round;stroke-miterlimit:2;">
    <g transform="matrix(1,0,0,1,-1197.84,-921.56)">
        <g id="people-14">
            <g>
                <g transform="matrix(1,0,0,1,1274.58,992.8)">
                    <path d="M0,-4.374L-2.085,-4.433L-4.746,-4.04L-4.805,-4.01L-5.435,-3.536L-5.419,-2.902L-4.729,-1.18L-4.513,-0.647L-3.261,0.059L-1.963,-0.004L0.216,-0.385L0.601,-0.825L0.656,-3.981L0,-4.374Z" style="fill:rgb(153,213,233);fill-rule:nonzero;"/>
                </g>
                <g transform="matrix(1,0,0,1,1266.22,992.771)">
                    <path d="M0,-3.883L-0.059,-3.908L-2.737,-4.154L-4.818,-3.98L-5.448,-3.553L-5.224,-0.406L-4.814,0.008L-2.614,0.271L-1.32,0.267L-0.101,-0.507L0.08,-1.053L0.677,-2.809L0.66,-3.447L0,-3.883Z" style="fill:rgb(153,213,233);fill-rule:nonzero;"/>
                </g>
                <g transform="matrix(1,0,0,1,1275.18,989.433)">
                    <path d="M0,2.542L-0.385,2.982L-2.563,3.363L-3.862,3.426L-5.114,2.72L-5.33,2.187L-6.019,0.465L-6.036,-0.169L-5.406,-0.643L-5.347,-0.673L-2.686,-1.066L-0.601,-1.007L0.055,-0.614L0,2.542ZM-8.883,2.284L-9.065,2.83L-10.283,3.604L-11.578,3.608L-13.777,3.346L-14.187,2.931L-14.412,-0.216L-13.781,-0.643L-11.7,-0.816L-9.023,-0.571L-8.963,-0.546L-8.303,-0.11L-8.286,0.529L-8.883,2.284ZM1.045,-0.757L0.503,-0.757L0.288,-0.761L0.093,-0.88L-0.533,-1.252L-0.952,-1.265L-1.062,-1.269L-1.916,-1.295L-2.665,-1.316L-2.694,-1.316L-2.961,-1.273L-3.253,-1.231L-4.145,-1.1L-4.361,-1.07L-5.414,-0.914L-5.681,-0.702L-6.286,-0.224L-6.514,-0.216L-7.834,-0.182L-8.062,-0.174L-8.693,-0.622L-8.968,-0.816L-10.029,-0.914L-10.516,-0.96L-11.142,-1.015L-11.433,-1.041L-11.708,-1.066L-11.734,-1.066L-12.483,-1.003L-13.333,-0.931L-13.443,-0.922L-13.862,-0.888L-14.462,-0.478L-14.653,-0.351L-14.864,-0.338L-15.325,-0.313L-15.372,-0.309L-15.406,-0.309L-15.418,-0.009L-15.342,0.106L-15.325,0.106L-15.245,0.114L-14.881,0.152L-14.615,0.178L-14.538,1.265L-14.496,1.844L-14.412,3.041L-14.255,3.198L-13.874,3.587L-13.62,3.617L-11.776,3.837L-11.573,3.858L-11.303,3.858L-10.207,3.849L-9.581,3.452L-8.866,2.995L-8.811,2.843L-8.384,1.574L-8.295,1.319L-8.041,0.571L-7.927,0.567L-7.728,0.563L-6.578,0.529L-6.379,0.524L-6.265,0.52L-5.968,1.256L-5.867,1.506L-5.368,2.749L-5.308,2.897L-4.568,3.316L-3.921,3.68L-2.83,3.625L-2.635,3.617L-2.563,3.612L-2.559,3.612L-2.356,3.579L-0.524,3.257L-0.275,3.215L0.085,2.804L0.233,2.639L0.254,1.442L0.262,0.859L0.279,-0.229L0.542,-0.271L0.905,-0.33L0.986,-0.338L1.002,-0.343L1.07,-0.461L1.045,-0.757Z" style="fill:rgb(63,38,19);fill-rule:nonzero;"/>
                </g>
                <g transform="matrix(1,0,0,1,1244.82,1134.55)">
                    <path d="M0,-68.657L-0.245,-68.433L-0.423,-68.517L-0.406,-68.758L-0.406,-68.818L-0.402,-68.826L-0.393,-68.987L-0.393,-69.025L-0.385,-69.148L-0.368,-69.427L-0.326,-70.159L-0.207,-71.119L-0.059,-72.278L-0.021,-72.565L0.055,-72.773L0.093,-72.874L-0.567,-73.919L-1.049,-73.877L-1.172,-73.877L-1.201,-74.025L-1.197,-73.864L-1.633,-73.898L-1.874,-73.928L-1.946,-73.8L-2.521,-72.874L-2.605,-72.65L-2.648,-72.324L-2.771,-71.339L-2.847,-70.772L-2.889,-70.429L-2.91,-70.264L-2.91,-70.243L-2.935,-69.837L-2.94,-69.727L-2.944,-69.706L-3.096,-66.986L-5.342,5.284L-4.805,5.322L-3.515,5.364L-2.758,5.368L-0.516,-66.804L-0.009,-66.787L0.753,-67.071L0.766,-69.363L0,-68.657Z" style="fill:rgb(120,71,34);fill-rule:nonzero;"/>
                </g>
                <g transform="matrix(1,0,0,1,1259.45,1045.02)">
                    <path d="M0,-1.629L-5.884,-2.509L-6.662,-3.054L-6.594,-0.559L-5.816,-0.013L0.068,0.871L7.542,1.425L7.47,-1.075L0,-1.629Z" style="fill:rgb(250,192,41);fill-rule:nonzero;"/>
                </g>
                <g transform="matrix(1,0,0,1,1286.1,1046.31)">
                    <path d="M0,-5.25L-0.744,-4.662L-6.573,-3.461L-14.005,-2.496L-13.934,0L-6.501,-0.961L-0.677,-2.166L0.068,-2.754L0,-5.25Z" style="fill:rgb(250,192,41);fill-rule:nonzero;"/>
                </g>
                <g transform="matrix(1,0,0,1,1241.31,1141.59)">
                    <path d="M0,-1.68L-1.29,-1.722L-1.827,-1.76L-2.25,-1.456L-2.297,-0.035L-1.586,0.016L0.118,0.071L1.117,0.08L1.163,-1.346L0.757,-1.676L0,-1.68Z" style="fill:rgb(250,192,41);fill-rule:nonzero;"/>
                </g>
                <g transform="matrix(1,0,0,1,1296.68,1006.31)">
                    <path d="M0,29.225L-2.618,10.736L-2.762,9.691L-6.667,-1.07L-10.799,-3.304L-20.833,-6.895L-21.675,-8.418L-21.683,-8.38L-21.713,-8.321L-21.857,-8.054L-22.089,-7.627L-22.17,-7.479L-22.203,-7.42L-22.229,-7.212L-22.351,-6.146L-22.449,-5.969L-22.533,-5.812L-23.625,-3.807L-23.823,-3.443L-24.111,-3.122L-24.847,-2.314L-25.998,-1.049L-26.602,-0.381L-26.987,0.038L-28.104,1.273L-28.159,1.332L-28.218,1.277L-29.407,0.106L-29.809,-0.292L-30.452,-0.927L-31.67,-2.128L-32.448,-2.893L-32.753,-3.198L-32.973,-3.549L-34.17,-5.491L-34.263,-5.643L-34.373,-5.817L-34.555,-6.874L-34.576,-7.009L-34.589,-7.077L-34.627,-7.136L-34.716,-7.28L-34.969,-7.695L-35.13,-7.952L-35.164,-8.007L-35.172,-8.046L-35.93,-6.481L-45.752,-2.343L-49.753,0.11L-53.066,11.07L-53.15,12.119L-55.193,29.335L-54.199,29.716L-53.273,30.067L-53.12,30.126L-52.879,30.219L-51.657,30.684L-50.878,30.676L-50.451,30.672L-48.561,30.646L-47.169,30.625L-46.995,30.625L-45.777,30.608L-45.451,23.1L-44.199,32.6L-43.886,35.663L-43.108,36.209L-37.224,37.088L-29.754,37.643L-27.169,37.575L-24.585,37.503L-17.153,36.538L-11.324,35.337L-10.579,34.749L-10.499,32.503L-9.699,22.051L-8.989,28.802L-8.541,29.508L-7.238,29.466L-7.204,28.451L-3.976,28.328L-3.122,28.294L-2.086,28.603L-0.943,28.946L-0.952,29.254L-0.207,29.229L-0.216,29.162L0,29.225Z" style="fill:rgb(130,195,65);fill-rule:nonzero;"/>
                </g>
                <g transform="matrix(1,0,0,1,1275.89,988.887)">
                    <path d="M0,-4.441L0.013,-2.677L0.334,-0.786L0.258,-0.211L0.338,-0.211L0.364,0.085L0.728,-0.989L0.935,-1.602L0.981,-1.827L0.99,-1.856L1.552,-4.526L0,-4.441Z" style="fill:rgb(184,184,184);fill-rule:nonzero;"/>
                </g>
                <g transform="matrix(1,0,0,1,1276.19,990.571)">
                    <path d="M0,-1.48L-0.016,-1.476L-0.109,0.119L-0.093,-0.029L-0.089,-0.084L0.068,-1.599L0,-1.48Z" style="fill:rgb(184,184,184);fill-rule:nonzero;"/>
                </g>
                <g transform="matrix(1,0,0,1,1271.04,988.202)">
                    <path d="M0,0.132L0.893,0L0,0.132Z" style="fill:rgb(184,184,184);fill-rule:nonzero;"/>
                </g>
                <g transform="matrix(1,0,0,1,1259.78,985.181)">
                    <path d="M0,3.943L0.034,3.943L0.08,3.939L-0.03,3.372L0.19,1.464L0.101,-0.3L-1.451,-0.296L-0.745,2.34L-0.736,2.365L-0.677,2.589L-0.436,3.19L-0.013,4.243L-0.017,3.964L0,3.943Z" style="fill:rgb(184,184,184);fill-rule:nonzero;"/>
                </g>
                <g transform="matrix(1,0,0,1,1260,989.627)">
                    <path d="M0,1.3L0.009,1.354L0.034,1.503L-0.143,-0.089L-0.161,-0.089L-0.237,-0.203L0,1.3Z" style="fill:rgb(184,184,184);fill-rule:nonzero;"/>
                </g>
                <g transform="matrix(1,0,0,1,1265.15,988.473)">
                    <path d="M0,0.047L-0.486,0L0,0.047Z" style="fill:rgb(184,184,184);fill-rule:nonzero;"/>
                </g>
                <g transform="matrix(1,0,0,1,1277.66,980.77)">
                    <path d="M0,-0.144L-1.337,-2.272L-2.153,-3.295L-6.996,-5.279L-13.05,-5.114L-17.779,-2.957L-18.531,-1.802L-19.75,0.397L-19.906,1.586L-19.331,4.116L-17.779,4.111L-17.258,4.852L-17.17,4.864L-16.81,4.911L-16.408,4.966L-15.588,5.076L-15.148,5.135L-12.601,5.135L-12.187,5.131L-11.417,5.118L-9.742,5.097L-8.062,5.025L-7.292,4.996L-6.882,4.979L-5.943,4.928L-5.161,4.881L-4.336,4.839L-3.9,4.754L-3.088,4.602L-2.69,4.526L-2.331,4.458L-2.246,4.441L-1.768,3.676L-0.216,3.591L0.22,1.032L0,-0.144Z" style="fill:rgb(63,38,19);fill-rule:nonzero;"/>
                </g>
                <g transform="matrix(1,0,0,1,1280.89,1140.17)">
                    <path d="M0,-0.947L-2.043,-1.886L-5.22,-1.797L-7.775,-1.011L-8.854,-1.218L-9.311,-2.525L-9.45,-0.909L-9.036,0.893L-7.991,1.519L-7.716,1.578L-5.203,1.151L-2.026,1.066L-0.199,1.375L0.258,0.643L0.41,-1.138L0,-0.947Z" style="fill:rgb(63,38,19);fill-rule:nonzero;"/>
                </g>
                <g transform="matrix(1,0,0,1,1271.78,1132.85)">
                    <path d="M0,1.591L0.376,2.052L0.524,1.549L0.668,1.879L0.918,0.457L0.596,-0.461L0.139,-0.41L-0.656,-0.325L-0.026,1.527L0,1.591Z" style="fill:rgb(63,38,19);fill-rule:nonzero;"/>
                </g>
                <g transform="matrix(1,0,0,1,1260.37,1139.18)">
                    <path d="M0,-0.597L0.169,-0.381L-0.888,-1.591L-3.333,-3.207L-6.497,-3.232L-8.654,-1.489L-9.094,-0.081L-9.128,1.928L-8.701,1.125L-6.806,-0.563L-3.642,-0.538L-1.218,1.184L-0.939,1.26L0.123,1.996L0.66,2.174L0.381,2.241L0.313,2.241L0.647,2.626L0.677,2.635L1.925,2.431L1.967,-0.043L1.971,-0.183L0.74,-0.775L0,-0.597Z" style="fill:rgb(63,38,19);fill-rule:nonzero;"/>
                </g>
                <g transform="matrix(1,0,0,1,1246.03,1058.56)">
                    <path d="M0,-3.37L-0.047,-0.273L-0.047,-0.265L0.042,0.009L0.067,-3.379L0,-3.37Z" style="fill:rgb(250,192,41);fill-rule:nonzero;"/>
                </g>
                <g transform="matrix(1,0,0,1,1263.34,1137.15)">
                    <path d="M0,1.18L-1.383,-0.533L-1.62,-0.804L-1.637,-0.647L-1.002,1.844L-1.007,1.984L0,1.18Z" style="fill:rgb(250,192,41);fill-rule:nonzero;"/>
                </g>
                <g transform="matrix(1,0,0,1,1244.42,1065.63)">
                    <path d="M0,0.092L0.14,0.16L0.008,-0.068L0,0.092Z" style="fill:rgb(250,192,41);fill-rule:nonzero;"/>
                </g>
                <g transform="matrix(1,0,0,1,1252.52,1135.68)">
                    <path d="M0,-2.048L-0.021,-1.811L-0.173,-0.28L0.03,0.207L0.246,-0.572L0.33,-0.872L0.36,-0.919L1.117,-2.255L0.178,-2.082L0,-2.048Z" style="fill:rgb(250,192,41);fill-rule:nonzero;"/>
                </g>
                <g transform="matrix(0.999973,0.00738969,0.00738969,-0.999973,1254.11,1135.52)">
                    <path d="M0,-0.014L3.383,-0.014L3.807,0.065L0.27,0.064L0,-0.014Z" style="fill:rgb(250,192,41);fill-rule:nonzero;"/>
                </g>
                <g transform="matrix(1,0,0,1,1288.16,1113.49)">
                    <path d="M0,-45.096L-0.017,-45.379L-0.034,-45.739L0.072,-45.764L-0.004,-47.736L-0.097,-47.727L-0.3,-47.981L-0.541,-49.821L-0.461,-52.807L-0.224,-53.345L-0.478,-59.736L-1.616,-64.579L-1.992,-69.939L-2.737,-69.351L-8.561,-68.145L-15.994,-67.185L-18.578,-67.113L-21.163,-67.041L-28.637,-67.596L-34.521,-68.479L-35.299,-69.025L-37.321,-59.736L-38.332,-45.248L-38.463,-23.997L-38.138,-17.55L-38.37,-7.259L-36.72,15.482L-35.807,21.907L-35.655,20.376L-35.634,20.139L-35.456,20.105L-34.517,19.932L-33.002,19.648L-32.681,19.589L-30.312,19.149L-29.804,19.056L-29.783,19.077L-28.379,20.663L-27.935,21.167L-27.376,21.797L-27.233,21.958L-26.514,22.77L-26.437,22.859L-26.2,23.13L-24.817,24.843L-24.238,17.906L-22.059,-5.258L-21.552,-16.15L-21.34,-22.427L-20.659,-34.437L-19.716,-42.579L-17.123,-21.73L-17.922,-17.017L-18.468,-9.158L-18.075,9.264L-18.206,16.214L-17.034,19.035L-17.03,19.035L-16.235,18.95L-15.778,18.9L-15.245,18.84L-14.991,18.815L-14.454,18.756L-13.417,18.642L-13.307,18.629L-12.859,18.705L-10.338,19.128L-9.953,19.145L-9.881,19.204L-9.234,19.314L-7.737,19.568L-7.559,19.598L-7.555,19.585L-5.892,13.853L-2.225,-5.017L-1.527,-13.836L-0.66,-18.828L0.089,-45.016L0,-45.096Z" style="fill:rgb(205,152,99);fill-rule:nonzero;"/>
                </g>
                <g transform="matrix(1,0,0,1,1280.93,1138.83)">
                    <path d="M0,-3.021L-0.465,-3.013L-2.385,-3.414L-5.934,-3.322L-8.743,-2.594L-9.353,-1.185L-8.896,0.122L-7.817,0.329L-5.262,-0.458L-2.085,-0.547L-0.042,0.393L0.368,0.202L0.207,-1.317L0,-3.021Z" style="fill:rgb(173,173,173);fill-rule:nonzero;"/>
                </g>
                <g transform="matrix(1,0,0,1,1260.26,1135.83)">
                    <path d="M0,2.614L-0.055,2.546L-0.144,2.432L-0.596,1.857L-2.335,-0.351L-2.758,-0.275L-6.142,-0.3L-7.855,0.947L-8.02,1.163L-8.544,1.857L-6.387,0.114L-3.223,0.14L-0.778,1.755L0.279,2.965L0.11,2.749L0,2.614Z" style="fill:rgb(173,173,173);fill-rule:nonzero;"/>
                </g>
                <g transform="matrix(1,0,0,1,1269.51,1046.38)">
                    <path d="M0,-2.496L-2.584,-2.428L-2.513,0.072L0.072,-0.001L2.656,-0.072L2.585,-2.568L0,-2.496Z" style="fill:rgb(242,252,253);fill-rule:nonzero;"/>
                </g>
                <g transform="matrix(1,0,0,1,1280.6,1135.28)">
                    <path d="M0,-2.204L-0.004,-2.191L-0.182,-2.221L-1.679,-2.475L-2.326,-2.585L-2.398,-2.644L-2.783,-2.661L-5.304,-3.084L-5.753,-3.16L-5.863,-3.147L-6.899,-3.033L-7.436,-2.974L-7.69,-2.949L-8.223,-2.889L-7.901,-1.971L-8.151,-0.55L-8.177,-0.385L-8.413,0.956L-5.604,0.228L-2.056,0.135L-0.135,0.537L0.33,0.529L0,-2.204Z" style="fill:rgb(242,252,253);fill-rule:nonzero;"/>
                </g>
                <g transform="matrix(1,0,0,1,1261.64,1135.28)">
                    <path d="M0,0.977L-0.719,0.165L-0.863,0.004L-1.421,-0.626L-1.865,-1.13L-3.27,-2.716L-3.291,-2.737L-3.799,-2.644L-6.167,-2.204L-6.489,-2.145L-8.003,-1.862L-8.76,-0.525L-8.79,-0.478L-8.874,-0.178L-9.09,0.601L-9.408,1.713L-9.243,1.497L-7.529,0.249L-7.259,0.173L-3.722,0.199L-1.984,2.407L-1.531,2.982L-1.443,3.096L-1.387,3.164L-1.277,3.299L-0.537,3.121L0.694,3.714L0.059,1.222L0,0.977Z" style="fill:rgb(242,252,253);fill-rule:nonzero;"/>
                </g>
                <g transform="matrix(-0.985869,0.167515,0.167515,0.985869,1278.19,1141.45)">
                    <path d="M2.445,-0.548L4.994,-0.548L-2.451,0.511L-0.701,-0.1L2.445,-0.548Z" style="fill:rgb(133,133,133);fill-rule:nonzero;"/>
                </g>
                <g transform="matrix(0.999548,-0.0300616,-0.0300616,-0.999548,1272.17,1134.91)">
                    <path d="M-0.007,0.005L0.259,0.005L0.29,0.168L0.155,0.503L-0.007,0.005Z" style="fill:rgb(133,133,133);fill-rule:nonzero;"/>
                </g>
                <g transform="matrix(1,0,0,1,1261.03,1139.07)">
                    <path d="M0,2.284L-0.537,2.106L-1.599,1.37L-1.878,1.294L-4.302,-0.427L-7.466,-0.453L-9.361,1.235L-9.788,2.039L-9.53,2.204L-9.12,2.284L-7.445,2.297L-7.11,2.682L-0.013,2.737L-0.347,2.352L-0.279,2.352L0,2.284Z" style="fill:rgb(133,133,133);fill-rule:nonzero;"/>
                </g>
                <g transform="matrix(1,0,0,1,1292.87,1041.19)">
                    <path d="M0,23.156L0.009,23.037L0.059,23.156L0,23.156ZM-0.008,23.68L-0.042,23.778L-0.034,23.672L-0.008,23.68ZM1.722,-6.285L0.685,-6.594L-0.169,-6.56L-3.396,-6.437L-3.43,-5.422L-3.498,-3.366L-2.733,13.702L-3.909,16.591L-4.936,18.951L-5.173,19.489L-5.254,22.475L-5.012,24.315L-4.81,24.569L-4.716,24.56L-3.803,24.489L-3.359,22.775L-2.834,20.44L-2.123,22.661L-1.84,24.797L-2.157,24.911L-3.684,24.801L-4.065,25.14L-2.453,26.007L-2.576,26.117L-4.64,26.531L-4.746,26.557L-4.729,26.916L-4.712,27.2L-4.623,27.28L-4.543,27.352L-2.944,27.462L-4.128,28.993L-3.925,29.2L-3.65,29.492L-3.464,29.721L-2.373,28.909L-2.483,29.556L-2.238,29.75L-1.54,29.738L-0.651,27.987L-0.321,26.502L0.698,23.719L0.893,21.692L0.343,14.556L2.733,-1.877L2.855,-5.634L2.864,-5.942L1.722,-6.285Z" style="fill:rgb(137,95,63);fill-rule:nonzero;"/>
                </g>
                <g transform="matrix(1,0,0,1,1248.12,1065.18)">
                    <path d="M0,-28.231L-1.891,-28.206L-2.318,-28.202L-3.096,-28.193L-4.319,-28.658L-4.56,-28.751L-4.712,-28.811L-5.639,-29.162L-5.871,-28.248L-5.516,-10.787L-7.707,-3.676L-8.329,-1.366L-7.813,-1.121L-7.825,-0.926L-6.239,-0.343L-6.235,-0.364L-6.231,-0.474L-6.205,-0.88L-6.205,-0.901L-6.184,-1.066L-6.142,-1.409L-6.066,-1.976L-5.943,-2.961L-5.901,-3.287L-5.816,-3.511L-5.241,-4.437L-5.169,-4.564L-4.928,-4.535L-4.492,-4.501L-4.496,-4.662L-4.344,-4.513L-3.862,-4.556L-3.202,-3.511L-3.24,-3.409L-3.316,-3.202L-3.354,-2.914L-3.502,-1.756L-3.621,-0.795L-3.663,-0.063L-3.68,0.216L-3.68,0.342L-3.689,0.338L-3.689,0.377L-3.557,0.605L-3.519,0.681L-3.54,0.931L-3.295,0.706L-2.529,0L-1.455,-0.998L-1.438,-1.218L-1.607,-1.434L-1.557,-1.476L-1.645,-1.785L-2.043,-2.327L-1.366,-2.728L-1.256,-3.638L-2.483,-5.512L-2.491,-5.694L-2.419,-5.93L-2.043,-6.616L-2.132,-6.891L-2.132,-6.899L-2.085,-9.996L-2.018,-10.004L1.493,-27.098L1.565,-28.252L1.392,-28.252L0,-28.231Z" style="fill:rgb(137,95,63);fill-rule:nonzero;"/>
                </g>
                <g transform="matrix(1,0,0,1,1275.9,987.496)">
                    <path d="M0,-1.286L-0.013,-3.05L-0.491,-2.285L-0.575,-2.267L-0.935,-2.2L-1.333,-2.123L-2.145,-1.971L-2.58,-1.887L-3.405,-1.845L-4.188,-1.798L-5.127,-1.747L-5.537,-1.73L-6.307,-1.701L-7.986,-1.629L-9.661,-1.607L-10.431,-1.595L-10.846,-1.591L-13.392,-1.591L-13.832,-1.65L-14.653,-1.76L-15.055,-1.815L-15.414,-1.861L-15.503,-1.874L-16.023,-2.614L-15.935,-0.85L-16.155,1.057L-16.044,1.624L-15.583,1.599L-15.372,1.586L-15.181,1.459L-14.581,1.049L-14.162,1.015L-14.154,0.888L-14.052,1.006L-13.202,0.935L-12.453,0.871L-12.428,0.871L-12.153,0.897L-11.861,0.922L-11.235,0.977L-10.749,1.024L-9.687,1.121L-9.412,1.316L-8.781,1.764L-8.553,1.756L-7.233,1.721L-7.005,1.713L-6.4,1.235L-6.134,1.024L-5.08,0.867L-4.865,0.838L-3.972,0.706L-3.68,0.664L-3.414,0.622L-3.384,0.622L-2.635,0.643L-1.781,0.668L-1.684,0.546L-1.671,0.672L-1.252,0.685L-0.626,1.057L-0.431,1.176L-0.216,1.18L0.245,1.18L0.322,0.605L0,-1.286Z" style="fill:rgb(137,95,63);fill-rule:nonzero;"/>
                </g>
                <g transform="matrix(1,0,0,1,1259.88,985.469)">
                    <path d="M0,-0.587L0.52,0.153L0.609,0.166L0.969,0.212L1.371,0.267L2.191,0.377L2.631,0.436L5.177,0.436L5.592,0.432L6.362,0.42L8.037,0.398L9.716,0.326L10.486,0.297L10.896,0.28L11.836,0.229L12.618,0.183L13.443,0.141L13.879,0.056L14.691,-0.096L15.089,-0.173L15.448,-0.24L15.533,-0.257L16.011,-1.023L0,-0.587Z" style="fill:rgb(63,38,19);fill-rule:nonzero;"/>
                </g>
                <g transform="matrix(1,0,0,1,1277.98,1006.94)">
                    <path d="M0,-19.939L-1.015,-18.044L-1.007,-18.082L0,-19.939L-0.008,-20.544L-0.258,-20.642L-0.626,-20.637L-1.104,-19.905L-1.112,-19.876L-1.159,-19.651L-1.366,-19.038L-1.73,-17.964L-1.887,-16.45L-1.891,-16.395L-1.908,-16.247L-1.815,-17.841L-1.895,-17.833L-2.259,-17.773L-2.521,-17.731L-2.538,-16.644L-2.546,-16.06L-2.568,-14.863L-2.716,-14.698L-3.075,-14.288L-3.325,-14.246L-5.156,-13.924L-5.359,-13.89L-5.364,-13.89L-5.436,-13.886L-5.63,-13.877L-6.721,-13.823L-7.369,-14.187L-8.109,-14.605L-8.168,-14.753L-8.667,-15.997L-8.769,-16.247L-9.065,-16.982L-9.179,-16.979L-9.378,-16.974L-10.528,-16.94L-10.727,-16.936L-10.841,-16.932L-11.095,-16.183L-11.184,-15.929L-11.611,-14.66L-11.666,-14.508L-12.381,-14.051L-13.007,-13.653L-14.103,-13.645L-14.374,-13.645L-14.577,-13.666L-16.421,-13.886L-16.675,-13.916L-17.056,-14.305L-17.212,-14.461L-17.296,-15.659L-17.339,-16.238L-17.415,-17.325L-17.681,-17.351L-18.045,-17.389L-18.126,-17.397L-17.948,-15.807L-17.973,-15.955L-17.982,-16.01L-18.219,-17.511L-18.642,-18.564L-18.883,-19.165L-18.942,-19.39L-18.951,-19.415L-19.466,-20.117L-19.835,-20.104L-20.08,-19.994L-20.055,-19.39L-18.946,-17.591L-18.938,-17.554L-20.055,-19.39L-20.059,-18.526L-19.5,-15.413L-18.189,-12.393L-17.821,-12.406L-17.576,-12.93L-17.757,-14.791L-17.445,-11.691L-16.776,-9.749L-16.48,-8.675L-16.472,-8.637L-16.438,-8.582L-16.277,-8.324L-16.023,-7.909L-15.934,-7.765L-15.896,-7.706L-15.884,-7.639L-15.862,-7.503L-15.681,-6.446L-15.571,-6.272L-15.478,-6.12L-14.281,-4.178L-14.061,-3.827L-13.756,-3.522L-12.978,-2.757L-11.76,-1.556L-11.116,-0.921L-10.715,-0.523L-9.526,0.648L-9.467,0.703L-9.412,0.644L-8.295,-0.591L-7.91,-1.01L-7.305,-1.678L-6.155,-2.943L-5.419,-3.751L-5.131,-4.072L-4.932,-4.437L-3.841,-6.441L-3.756,-6.598L-3.659,-6.775L-3.536,-7.841L-3.519,-7.977L-3.511,-8.049L-3.477,-8.108L-3.397,-8.256L-3.164,-8.683L-3.02,-8.95L-2.991,-9.009L-2.982,-9.047L-2.745,-10.134L-2.183,-12.109L-2.124,-13.345L-2.119,-13.353L-1.849,-12.841L-1.481,-12.85L-0.334,-15.938L0.051,-19.081L0,-19.939Z" style="fill:rgb(137,95,63);fill-rule:nonzero;"/>
                </g>
            </g>
        </g>
    </g>
</svg>
