<?xml version="1.0" encoding="UTF-8" standalone="no"?>
<!DOCTYPE svg PUBLIC "-//W3C//DTD SVG 1.1//EN" "http://www.w3.org/Graphics/SVG/1.1/DTD/svg11.dtd">
<svg width="100%" height="100%" viewBox="0 0 140 220" version="1.1" xmlns="http://www.w3.org/2000/svg" xmlns:xlink="http://www.w3.org/1999/xlink" xml:space="preserve" xmlns:serif="http://www.serif.com/" style="fill-rule:evenodd;clip-rule:evenodd;stroke-linejoin:round;stroke-miterlimit:2;">
    <g id="people-13" transform="matrix(1.27,0,0,1.27,-2544.93,-84.8)">
        <g transform="matrix(0.787402,0,0,0.787402,2060.27,103.483)">
            <path d="M0,0.114L-0.503,0.333L-0.066,0.266L0.486,0.181L0.676,0.019L1.267,-0.081L1.84,-0.179L1.496,-0.219L0,0.114Z" style="fill:rgb(51,51,51);fill-rule:nonzero;"/>
        </g>
        <g transform="matrix(0.787402,0,0,0.787402,2057.39,105.071)">
            <path d="M0,0.033L-0.011,0.123L0.005,0.099L0.209,0.075L0.368,-0.09L0,0.033Z" style="fill:rgb(51,51,51);fill-rule:nonzero;"/>
        </g>
        <g transform="matrix(0.787402,0,0,0.787402,2065.37,120.919)">
            <path d="M0,-19.135L0.288,-18.931L1.275,-17.911L1.725,-17.446L1.985,-17.177L3.311,-14.906L1.985,-17.177L1.725,-17.446L1.275,-17.911L0.288,-18.931L0,-19.135L-2.972,-21.009L0,-19.135ZM-10.383,-0.403L-10.416,-0.513L-10.843,-1.931L-11.538,-4.241L-10.697,-2.673L-10.558,-2.414L-10.528,-2.358L-10.484,-2.275L-10.461,-2.232L-10.166,-1.682L-9.734,-1.539L-9.968,-1.948L-10.082,-2.146L-10.292,-2.513L-10.426,-2.747L-10.983,-3.72L-11.377,-4.409L-11.686,-6.277L-11.685,-6.296L-11.688,-6.293L-11.685,-6.296L-11.691,-6.309L-12.055,-8.516L-12.055,-10.359L-11.793,-11.038L-11.62,-11.49L-11.504,-11.789L-11.229,-12.502L-11.214,-12.532L-11.13,-12.697L-10.905,-13.14L-10.608,-13.726L-10.281,-14.371L-10.193,-14.543L-9.828,-15.29L-9.641,-15.674L-9.359,-16.313L-9.915,-17.314L-9.131,-17.287L-7.621,-17.057L-9.131,-17.287L-9.915,-17.314L-9.359,-16.313L-9.14,-15.918L-8.847,-15.389L-8.702,-15.231L-8.351,-14.847L-7.916,-14.372L-7.273,-13.669L-7.038,-13.499L-6.32,-12.98L-5.781,-12.59L-5.442,-12.395L-4.392,-11.79L-4.244,-11.704L-3.95,-11.535L-3.868,-11.488L-3.865,-11.485L-3.365,-11.071L-2.658,-10.483L-1.994,-9.931L-1.931,-9.799L-1.928,-9.793L-1.918,-9.772L-1.915,-9.766L-1.365,-8.616L-1.292,-8.01L-1.253,-7.683L-1.194,-7.185L-1.3,-5.845L-1.729,-4.589L-1.749,-4.556L-2.251,-3.719L-2.525,-3.262L-3.645,-1.87L-1.746,-3.229L-1.351,-3.51L-1.335,-3.522L-1.158,-3.688L-0.556,-4.253L0.312,-5.067L0.319,-4.785L0.33,-4.348L0.452,-4.75L0.441,-5.147L0.426,-5.684L0.404,-6.512L0.398,-6.751L0.387,-6.855L0.264,-8.022L0.195,-8.683L0.163,-8.99L-0.106,-9.624L-0.569,-10.718L-0.106,-9.624L0.163,-8.99L0.195,-8.683L0.264,-8.022L0.387,-6.855L0.398,-6.751L0.404,-6.512L0.426,-5.684L0.441,-5.147L0.452,-4.75L0.33,-4.348L-0.218,-2.536L-0.289,-2.371L-0.915,-0.912L-0.991,-0.736L-1.156,-0.474L-1.795,0.537L-2.516,1.445L-2.65,1.614L-2.865,1.751L-3.802,2.344L-3.036,2.647L-2.295,2.94L-1.615,3.209L-0.351,3.365L0.101,3.421L0.682,3.116L1.246,2.821L1.506,2.684L1.545,2.664L2.825,1.993L5.974,-2.312L7.041,-6.296L6.733,-11.261L6.347,-12.693L4.715,-17.64L2.368,-21.028L-0.059,-22.295L-0.839,-22.479L-3.267,-22.556L-4.291,-22.381L-4.394,-22.364L-4.637,-22.323L-5.209,-22.225L-5.801,-22.124L-5.929,-21.971L-5.508,-22.036L-4.931,-22.125L-4.153,-22.009L-2.751,-21.801L-2.35,-21.741L-1.634,-21.392L-0.662,-20.918L-0.368,-20.775L0.183,-20.308L1.142,-19.494L1.204,-19.441L2.005,-18.365L2.472,-17.738L2.489,-17.704L3.779,-14.992L2.489,-17.704L2.472,-17.738L2.005,-18.365L1.204,-19.441L1.142,-19.494L0.183,-20.308L-0.368,-20.775L-0.662,-20.918L-1.634,-21.392L-2.35,-21.741L-2.751,-21.801L-4.153,-22.009L-4.931,-22.125L-5.508,-22.036L-5.929,-21.971L-5.991,-21.962L-6.543,-21.877L-6.98,-21.81L-7.429,-21.741L-9.224,-20.775L-9.456,-20.5L-9.885,-20.057L-9.298,-20.128L-8.884,-20.092L-8.465,-20.577L-8.23,-20.848L-7.745,-21.409L-7.708,-21.411L-7.365,-21.429L-5.559,-21.523L-5.341,-21.475L-3.791,-21.136L-3.008,-20.964L-3.791,-21.136L-5.341,-21.475L-5.559,-21.523L-7.365,-21.429L-7.708,-21.411L-7.745,-21.409L-8.23,-20.848L-8.465,-20.577L-8.884,-20.092L-8.89,-20.085L-9.846,-18.98L-8.89,-20.085L-10.123,-20.029L-10.139,-20.005L-10.511,-19.438L-10.567,-19.353L-10.629,-19.259L-10.684,-19.176L-10.914,-18.824L-12.481,-16.439L-12.725,-14.16L-12.818,-13.3L-12.96,-9.186L-13.1,-4.75L-11.895,0.755L-10.042,2.27L-9.237,1.555L-9.293,1.459L-10.018,0.219L-10.383,-0.403Z" style="fill:rgb(51,51,51);fill-rule:nonzero;"/>
        </g>
        <g transform="matrix(0.787402,0,0,0.787402,2061.18,187.407)">
            <path d="M0,-1.514L-0.006,-1.451L0.535,-0.754L0.342,0.118L0.493,0.134L0.812,0.134L0.902,-0.754L0.928,-1.013L0.94,-1.13L0.879,-1.208L0.56,-1.208L0.238,-1.624L0.013,-1.648L0,-1.514Z" style="fill:rgb(120,71,34);fill-rule:nonzero;"/>
        </g>
        <g transform="matrix(0.787402,0,0,0.787402,2042.09,184.245)">
            <path d="M0,0.089L-0.075,0.152L-0.094,0.336L0.349,-0.025L0.922,-0.025L0.941,-0.223L0.623,-0.223L0.59,-0.227L0.398,-0.247L0,0.089Z" style="fill:rgb(120,71,34);fill-rule:nonzero;"/>
        </g>
        <g transform="matrix(0.787402,0,0,0.787402,2060.66,188.883)">
            <path d="M0,4.026L-0.374,6.732L-0.739,9.378L-0.374,6.732L0,4.026L0.919,-2.628L0,4.026ZM1.799,-2.628L1.589,-2.888L1.563,-2.628L1.473,-1.74L1.155,-1.74L1.004,-1.757L1.196,-2.628L0.655,-3.326L0.661,-3.388L-0.078,-3.469L-1.539,-3.63L-3.962,-3.895L-6.616,-4.186L-8.126,-4.351L-9.267,-4.476L-9.269,-4.457L-9.661,-4.457L-13.937,-4.926L-13.93,-4.987L-22.406,-5.916L-23.239,-5.916L-23.682,-5.555L-23.932,-5.351L-25.589,6.655L-25.071,7.352L-9.637,9.043L-9.578,9.05L-9.232,9.088L-8.374,9.182L-7.521,9.275L-6.273,9.412L-4.987,9.552L-3.648,9.699L-2.911,9.78L-1.525,9.932L-1.431,9.942L0.39,9.942L1.035,9.378L1.364,4.216L1.376,4.025L1.799,-2.628Z" style="fill:rgb(120,71,34);fill-rule:nonzero;"/>
        </g>
        <g transform="matrix(0.787402,0,0,0.787402,2049.69,185.019)">
            <path d="M0,-0.08L-0.006,-0.018L4.268,0.45L4.66,0.45L4.662,0.431L4.712,-0.062L4.32,-0.062L0.044,-0.53L0,-0.08Z" style="fill:rgb(120,71,34);fill-rule:nonzero;"/>
        </g>
        <g transform="matrix(0.787402,0,0,0.787402,2066.76,234.292)">
            <path d="M0,-2.209L-0.031,-2.953L-0.087,-3.038L-0.096,-3.051L-0.415,-3.531L-1.265,-3.822L-1.197,-3.74L-1.189,-3.73L-1.299,-3.767L-1.313,-3.768L-1.489,-3.822L-2.411,-4.063L-2.217,-3.577L-0.987,-2.338L-0.39,-0.057L-0.076,1.854L0.278,1.854L0.14,0.19L0,-2.209Z" style="fill:rgb(120,71,34);fill-rule:nonzero;"/>
        </g>
        <g transform="matrix(0.787402,0,0,0.787402,2064.92,228.494)">
            <path d="M0,2.562L0.204,2.798L0.325,2.939L0.75,3.433L0.845,3.542L1.021,3.596L1.035,3.597L1.145,3.634L1.137,3.624L1.069,3.542L0.785,3.197L0.574,2.942L0.23,2.524L0.195,2.404L-0.085,1.45L-0.237,0.933L-0.094,-0.61L-0.094,-0.62L-0.053,-1.072L-0.149,-0.6L-0.39,1.299L-0.153,2.067L-0.012,2.522L0,2.562Z" style="fill:rgb(120,71,34);fill-rule:nonzero;"/>
        </g>
        <g transform="matrix(0.787402,0,0,0.787402,2070.81,234.331)">
            <path d="M0,-1.591L-2.058,-0.859L-3.418,-0.777L-3.99,-2.067L-5.551,-3.581L-5.232,-3.101L-5.223,-3.087L-5.167,-3.002L-4.728,-2.341L-4.673,-2.259L-4.181,-1.518L-4.182,-1.148L-4.183,0.175L-4.183,0.215L-4.185,1.502L-2.254,1.99L1.033,1.83L3.506,1.604L4.457,1.637L4.25,0.666L3.917,0.353L3.137,-0.685L1.909,-1.436L0,-1.591Z" style="fill:rgb(120,71,34);fill-rule:nonzero;"/>
        </g>
        <g transform="matrix(0.787402,0,0,0.787402,2062.31,231.786)">
            <path d="M0,-0.586L-0.004,-0.585L-0.05,-0.548L-0.039,-0.563L-0.405,-0.349L-0.417,-0.206L-0.427,-0.066L-0.443,0.118L-0.457,0.294L0.28,-0.394L0.501,-0.88L0,-0.586Z" style="fill:rgb(120,71,34);fill-rule:nonzero;"/>
        </g>
        <g transform="matrix(0.787402,0,0,0.787402,2061.73,231.876)">
            <path d="M0,1.051L0.18,1.514L0.285,0.18L0.299,0.004L0.314,-0.18L0.325,-0.32L0.337,-0.463L0,1.051Z" style="fill:rgb(120,71,34);fill-rule:nonzero;"/>
        </g>
        <g transform="matrix(0.787402,0,0,0.787402,2062.81,230.317)">
            <path d="M0,-1.137L0,-1.117L0.01,-0.677L0.032,0.208L0.114,0.246L-0.006,-1.383L0,-1.137Z" style="fill:white;fill-rule:nonzero;"/>
        </g>
        <g transform="matrix(0.787402,0,0,0.787402,2059.91,235.92)">
            <path d="M0,-3.609L-2.221,-3.454L-4.192,-2.703L-4.372,-2.607L-4.875,-1.571L-4.895,0L-3.929,-0.137L-2.757,-0.381L-1.57,-0.414L0.322,-0.188L2.693,-0.028L3.683,-0.516L2.809,-2.795L1.97,-2.877L0,-3.609Z" style="fill:rgb(120,71,34);fill-rule:nonzero;"/>
        </g>
        <g transform="matrix(-0.549445,0.564014,0.564014,0.549445,2074.14,235.863)">
            <path d="M-0.071,0.058L0.308,0.058L-0.228,0.14L-0.38,-0.053L-0.071,0.058Z" style="fill:rgb(242,211,173);fill-rule:nonzero;"/>
        </g>
        <g transform="matrix(0.787402,0,0,0.787402,2068.11,235.873)">
            <path d="M0,-0.153L1.936,0.303L7.484,0.249L7.748,-0.022L7.885,-0.322L6.934,-0.353L4.461,-0.128L1.174,0.032L-0.757,-0.456L0,-0.153Z" style="fill:rgb(242,211,173);fill-rule:nonzero;"/>
        </g>
        <g transform="matrix(0.787402,0,0,0.787402,2064.86,231.234)">
            <path d="M0,-0.179L0.921,0.062L0.827,-0.048L0.443,-0.179L0.263,-0.241L0,-0.179Z" style="fill:rgb(242,211,173);fill-rule:nonzero;"/>
        </g>
        <g transform="matrix(0.787402,0,0,0.787402,2066.76,235.167)">
            <path d="M0,-3.319L0.14,-0.921L0.278,0.744L0.678,0.741L0.839,-0.193L0.954,-0.846L0.954,-0.887L0.955,-2.21L0.955,-2.58L0.463,-3.32L0.408,-3.401L-0.03,-4.063L0,-3.319Z" style="fill:rgb(242,211,173);fill-rule:nonzero;"/>
        </g>
        <g transform="matrix(0.787402,0,0,0.787402,2067.3,235.014)">
            <path d="M0,0.935L0.047,0.935L0.161,0L0,0.935Z" style="fill:rgb(242,211,173);fill-rule:nonzero;"/>
        </g>
        <g transform="matrix(0.787402,0,0,0.787402,2062.51,231.325)">
            <path d="M0,-0.294L-0.039,-0.263L-0.184,-0.053L-0.256,0L0.245,-0.294L0,-0.294Z" style="fill:rgb(242,211,173);fill-rule:nonzero;"/>
        </g>
        <g transform="matrix(0.787402,0,0,0.787402,2057.74,236.093)">
            <path d="M0,-0.602L-1.173,-0.357L-2.138,-0.22L-1.016,0.032L4.555,0.023L5.45,-0.248L3.079,-0.408L1.187,-0.634L0,-0.602Z" style="fill:rgb(242,211,173);fill-rule:nonzero;"/>
        </g>
        <g transform="matrix(0.787402,0,0,0.787402,2061.99,231.213)">
            <path d="M0,0.38L0.365,0.166L0.472,0L0,0.38Z" style="fill:rgb(242,211,173);fill-rule:nonzero;"/>
        </g>
        <g transform="matrix(0.787402,0,0,0.787402,2049.6,163.61)">
            <path d="M0,17.167L-0.089,17.025L-0.314,15.584L-0.291,15.281L-0.047,12.12L0.19,9.03L-0.323,5.489L-0.851,1.846L-1.003,0.793L-1.136,-0.12L-1.613,4.74L-1.412,10.176L-0.815,14.338L-0.145,17.287L-0.119,17.265L0,17.167Z" style="fill:rgb(242,211,173);fill-rule:nonzero;"/>
        </g>
        <g transform="matrix(0.787402,0,0,0.787402,2055.26,176.945)">
            <path d="M0,-0.029L0.172,0.189L0.005,-0.218L0,-0.029Z" style="fill:rgb(242,211,173);fill-rule:nonzero;"/>
        </g>
        <g transform="matrix(0.787402,0,0,0.787402,2049.73,184.97)">
            <path d="M0,-0.468L4.276,0L4.667,0L4.228,-0.048L3.279,-0.152L2.426,-0.246L2.158,-0.275L1.714,-0.323L1.589,-0.337L1.219,-0.378L0.392,-0.468L0,-0.468Z" style="fill:rgb(242,211,173);fill-rule:nonzero;"/>
        </g>
        <g transform="matrix(0.787402,0,0,0.787402,2050.03,177.566)">
            <path d="M0,0.04L0.59,0.256L-0.33,-0.216L0,0.04Z" style="fill:rgb(242,211,173);fill-rule:nonzero;"/>
        </g>
        <g transform="matrix(0.787402,0,0,0.787402,2061.36,176.465)">
            <path d="M0,12.247L-1.34,9.823L-1.469,9.59L-1.52,9.497L-1.645,9.27L-2.503,7.718L-3.606,6.33L-4.623,5.05L-4.829,4.788L-7.757,1.068L-7.792,2.362L-7.962,2.937L-8.149,3.566L-8.236,4.073L-8.347,4.128L-8.927,4.413L-9.119,3.985L-9.27,2.607L-9.322,2.134L-9.33,2.064L-9.483,0.695L-9.504,0.509L-9.756,0.568L-9.668,1.789L-9.657,1.935L-9.654,1.974L-9.616,2.494L-9.598,2.731L-9.81,2.828L-10.294,3.05L-10.992,2.826L-11.261,2.272L-11.367,1.788L-11.783,-0.129L-11.832,-0.135L-11.745,1.396L-11.677,1.764L-11.624,2.048L-11.698,2.222L-12.729,2.479L-13.279,1.82L-13.325,1.637L-13.44,1.176L-13.744,1.586L-13.74,1.605L-13.748,1.591L-13.794,1.652L-14.383,1.437L-14.712,1.181L-14.78,1.073L-14.974,1.234L-15.002,1.258L-13.81,6.497L-13.553,10.422L-13.182,10.463L-13.057,10.477L-12.613,10.525L-12.346,10.555L-11.492,10.648L-10.544,10.752L-10.103,10.8L-10.153,11.294L-9.012,11.419L-7.501,11.584L-4.848,11.875L-2.425,12.141L-0.964,12.301L-0.225,12.382L-0.211,12.247L0,12.247Z" style="fill:rgb(242,211,173);fill-rule:nonzero;"/>
        </g>
        <g transform="matrix(0.787402,0,0,0.787402,2072.98,191.674)">
            <path d="M0,-40.415L-0.052,-40.4L-0.139,-40.376L-3.568,-39.423L-6.631,-40.562L-7.661,-39.796L-11.776,-38.183L-18.274,-39.762L-25.181,-36.717L-25.18,-36.71L-25.179,-36.699L-24.56,-29.948L-24.514,-29.448L-24.446,-28.699L-24.218,-26.212L-24.083,-25.958L-23.265,-24.41L-22.482,-22.931L-22.011,-22.04L-20.892,-18.881L-20.276,-17.727L-20.702,-17.548L-22.039,-18.149L-19.006,-14.322L-18.796,-14.058L-17.912,-12.945L-16.874,-11.639L-16.297,-10.594L-15.845,-9.778L-14.104,-6.627L-14.044,-6.549L-14.056,-6.432L-13.846,-6.173L-14.269,0.48L-14.281,0.672L-11.662,0.363L-10.128,0.183L-10.047,0.173L-8.607,0.003L-7.636,-0.111L-7.489,-0.129L-7.196,-0.163L-6.275,-0.272L-5.933,-0.287L-3.36,-0.403L-3.249,-0.408L-2.215,-0.454L-2.151,-0.457L-1.85,-0.457L-1.635,-0.458L-1.104,-0.458L-1.084,-0.459L0.74,-0.461L2.672,-0.889L2.601,-15.27L3.221,-29.275L1.287,-41.087L1.247,-41.066L0,-40.415Z" style="fill:rgb(242,211,173);fill-rule:nonzero;"/>
        </g>
        <g transform="matrix(0.787402,0,0,0.787402,2052.97,171.034)">
            <path d="M0,-12.777L-0.013,-12.775L0.149,-11.122L1.19,0L0.962,-2.487L0.894,-3.236L0.848,-3.736L0.229,-10.488L0.227,-10.506L0.224,-10.541L0.208,-10.713L0,-12.777Z" style="fill:rgb(242,211,173);fill-rule:nonzero;"/>
        </g>
        <g transform="matrix(-0.0280369,0.786902,0.786902,0.0280369,2054.31,161.579)">
            <path d="M-0.759,-1.44L1.347,-1.44L1.519,-1.417L-0.888,-0.739L-0.759,-1.44Z" style="fill:rgb(242,211,173);fill-rule:nonzero;"/>
        </g>
        <g transform="matrix(0.787402,0,0,0.787402,2057.59,105.093)">
            <path d="M0,0.041L-0.022,0.044L-0.034,0.046L-0.238,0.07L0.994,0.013L1,0.007L0.587,-0.029L0,0.041Z" style="fill:rgb(0,188,218);fill-rule:nonzero;"/>
        </g>
        <g transform="matrix(0.787402,0,0,0.787402,2058.3,112.262)">
            <path d="M0,10.914L-0.122,10.803L-0.245,10.483L-0.741,9.193L-0.841,8.934L-1.077,8.322L-1.277,7.802L-1.523,7.164L-2.223,4.456L-2.402,3.766L-2.384,1.549L-2.312,-0.011L-2.292,-0.439L-2.241,-1.539L-2.257,-1.508L-2.532,-0.795L-2.647,-0.496L-2.821,-0.045L-3.083,0.634L-3.083,2.477L-2.718,4.684L-2.713,4.698L-2.713,4.716L-2.405,6.585L-2.01,7.274L-1.453,8.246L-1.319,8.481L-1.109,8.848L-0.995,9.046L-0.762,9.454L-1.193,9.311L-1.488,8.762L-1.626,8.682L-1.586,8.58L-1.725,8.321L-2.566,6.753L-1.87,9.063L-1.443,10.481L-1.41,10.59L-1.046,11.213L-0.32,12.453L0.553,11.508L0.547,11.414L0,10.914Z" style="fill:rgb(51,51,51);fill-rule:nonzero;"/>
        </g>
        <g transform="matrix(0.787402,0,0,0.787402,2057.39,104.973)">
            <path d="M0,0.157L0.368,0.034L0.401,0L0,0.157Z" style="fill:rgb(0,188,218);fill-rule:nonzero;"/>
        </g>
        <g transform="matrix(0.787402,0,0,0.787402,2073.28,232.858)">
            <path d="M0,1.186L-0.274,0.878L-1.443,0L0,1.186Z" style="fill:rgb(0,188,218);fill-rule:nonzero;"/>
        </g>
        <g transform="matrix(0.787402,0,0,0.787402,2069.63,236.076)">
            <path d="M0,0.045L4.673,0.054L5.548,-0.009L0,0.045Z" style="fill:rgb(0,188,218);fill-rule:nonzero;"/>
        </g>
        <g transform="matrix(-0.071288,0.784168,0.784168,0.071288,2065.06,227.837)">
            <rect x="-0.216" y="-0.246" width="0.434" height="0.04" style="fill:rgb(0,188,218);"/>
        </g>
        <g transform="matrix(0.787402,0,0,0.787402,2065,192.082)">
            <path d="M0,-0.336L0.075,0.01L0.08,-0.346L0,-0.336Z" style="fill:rgb(0,188,218);fill-rule:nonzero;"/>
        </g>
        <g transform="matrix(0.787402,0,0,0.787402,2042.63,184.05)">
            <path d="M0,0.024L0.254,0.024L0.029,0L0,0.024Z" style="fill:rgb(0,188,218);fill-rule:nonzero;"/>
        </g>
        <g transform="matrix(0.787402,0,0,0.787402,2055.86,218.828)">
            <path d="M0,-6.206L1.754,0.453L-0.12,-6.659L0,-6.206Z" style="fill:rgb(0,188,218);fill-rule:nonzero;"/>
        </g>
        <g transform="matrix(0.317117,0.72072,0.72072,-0.317117,2062.72,229.348)">
            <path d="M0.105,0.068L0.132,0.068L-0.095,0.162L-0.132,0.161L0.105,0.068Z" style="fill:rgb(0,188,218);fill-rule:nonzero;"/>
        </g>
        <g transform="matrix(0.787402,0,0,0.787402,2052.26,148.287)">
            <path d="M0,-21.335L-0.199,-13.136L-0.358,-6.591L-0.289,-5.82L0.55,-2.685L0.678,-1.839L1.05,-0.182L1.129,0.392L0.678,4.652L0.664,4.929L0.674,5.052L0.671,5.099L0.828,7.844L0.865,8.754L0.878,9.008L2.348,9.139L4.223,9.482L4.336,9.454L4.41,9.436L4.684,9.368L6.727,8.863L7.903,8.367L8.502,8.114L8.71,8.026L10.271,7.278L14.338,5.495L15.465,4.98L16.058,4.709L16.737,4.399L20.719,2.577L20.839,2.523L21.394,2.22L21.85,1.971L23.914,0.845L23.899,0.716L23.788,-0.217L23.704,-0.919L23.666,-4.302L23.736,-7.554L23.746,-7.957L23.784,-8.923L23.823,-10.056L23.882,-10.337L24.48,-13.447L24.535,-13.702L24.56,-13.802L24.605,-13.972L25.624,-18.707L26.475,-25.245L27.831,-27.01L24.335,-27.773L20.753,-29.65L18.038,-27.946L17.7,-27.717L17.669,-27.656L17.427,-27.532L15.435,-26.18L14.122,-26.498L12.551,-26.569L11.8,-26.619L11.16,-27.066L10.851,-27.291L10.381,-27.405L6.821,-29.596L6.147,-30.817L-0.762,-28.177L0.096,-26.722L0,-21.335Z" style="fill:rgb(0,188,218);fill-rule:nonzero;"/>
        </g>
        <g transform="matrix(0.787402,0,0,0.787402,2050.59,176.339)">
            <path d="M0,1.262L0.034,0.772L0.039,0.705L0.043,0.646L0.046,0.609L-0.107,0L0,1.262Z" style="fill:rgb(0,188,218);fill-rule:nonzero;"/>
        </g>
        <g transform="matrix(0.787402,0,0,0.787402,2047.01,155.203)">
            <path d="M0,3.768L0.058,3.54L0.203,2.969L0.881,1.877L0.854,0.475L0.845,0L-1.556,2.943L-1.118,3.358L0,3.768Z" style="fill:rgb(0,188,218);fill-rule:nonzero;"/>
        </g>
        <g transform="matrix(-0.533265,0.579335,0.579335,0.533265,2047.06,157.787)">
            <path d="M-3.228,-1.923L-0.494,-1.923L0.849,-1.422L-2.943,-1.649L-3.228,-1.923Z" style="fill:rgb(0,188,218);fill-rule:nonzero;"/>
        </g>
        <g transform="matrix(0.787402,0,0,0.787402,2047.01,157.904)">
            <path d="M0,0.337L-1.118,-0.073L-1.556,-0.488L-0.977,0.44L-0.124,0.825L-0.041,0.499L0,0.337Z" style="fill:rgb(0,188,218);fill-rule:nonzero;"/>
        </g>
        <g transform="matrix(0.787402,0,0,0.787402,2077.49,159.266)">
            <path d="M0,-2.684L-4.158,-7.124L-4.883,-6.762L-6.52,-5.946L-6.67,-5.871L-7.079,-5.666L-8,-5.207L-9.794,-4.603L-10.391,-4.402L-14.263,-3.098L-15.292,-2.752L-17.228,-2.082L-20.796,-0.847L-24.013,0.266L-25.427,0.756L-25.617,0.822L-26.111,0.994L-28.274,1.748L-30.038,2.007L-30.142,2.023L-30.908,4.405L-30.904,4.44L-23.998,1.395L-17.5,2.974L-13.385,1.361L-12.355,0.595L-12.216,0.492L-9.501,-1.528L-9.652,-3.752L-9.501,-1.528L-9.734,1.047L-9.501,-1.528L-12.216,0.492L-12.355,0.595L-9.291,1.735L-5.863,0.781L-5.776,0.757L-5.724,0.742L-4.477,0.092L-4.437,0.071L-1.505,-1.46L0,-2.684Z" style="fill:rgb(0,188,218);fill-rule:nonzero;"/>
        </g>
        <g transform="matrix(0.787402,0,0,0.787402,2055.41,186.263)">
            <path d="M0,-11.62L-0.02,-11.645L-0.193,-11.864L-0.203,-11.475L-0.206,-11.376L2.721,-7.656L2.928,-7.394L3.944,-6.114L5.048,-4.725L5.905,-3.174L6.031,-2.947L6.082,-2.854L6.211,-2.621L7.551,-0.197L7.564,-0.172L7.887,0.244L8.205,0.244L6.464,-2.907L6.013,-3.723L5.436,-4.767L4.398,-6.074L3.514,-7.187L3.304,-7.451L0.271,-11.278L0.195,-11.374L0,-11.62Z" style="fill:rgb(148,48,41);fill-rule:nonzero;"/>
        </g>
        <g transform="matrix(0.787402,0,0,0.787402,2042.56,177.392)">
            <path d="M-0.21,8.456L0.109,8.456L3.478,4.547L6.084,2.397L8.864,0.081L8.892,0.058L9.086,-0.104L8.977,-0.278L8.941,-0.336L8.822,-0.238L8.796,-0.216L3.1,4.491L-0.608,8.792L-0.21,8.456Z" style="fill:rgb(148,48,41);fill-rule:nonzero;"/>
        </g>
        <g transform="matrix(0.787402,0,0,0.787402,2057.02,119.081)">
            <path d="M0,0.023L0.138,0.103L0.115,0.06L0.071,-0.023L0.041,-0.08L0,0.023Z" style="fill:rgb(63,38,19);fill-rule:nonzero;"/>
        </g>
        <g transform="matrix(0.787402,0,0,0.787402,2066.59,112.731)">
            <path d="M0,13.062L-0.039,13.083L-0.3,13.219L-0.864,13.515L-1.444,13.819L-1.896,13.763L-3.161,13.607L-3.841,13.339L-4.582,13.046L-5.348,12.743L-4.411,12.149L-4.196,12.013L-4.061,11.844L-3.34,10.936L-2.701,9.924L-2.536,9.663L-2.461,9.486L-1.834,8.027L-1.763,7.862L-1.215,6.05L-1.226,5.614L-1.233,5.332L-2.101,6.145L-2.703,6.71L-2.88,6.876L-2.897,6.888L-3.291,7.17L-5.191,8.528L-4.071,7.136L-3.797,6.679L-3.294,5.843L-3.274,5.809L-2.845,4.554L-2.739,3.214L-2.799,2.715L-2.838,2.389L-2.91,1.782L-3.46,0.632L-3.463,0.626L-3.473,0.605L-3.476,0.599L-3.539,0.467L-4.203,-0.084L-4.911,-0.672L-5.411,-1.087L-5.413,-1.089L-5.496,-1.137L-5.789,-1.306L-5.938,-1.391L-6.987,-1.996L-7.326,-2.192L-7.865,-2.582L-8.583,-3.101L-8.818,-3.271L-9.461,-3.973L-9.896,-4.449L-10.248,-4.833L-10.392,-4.991L-10.686,-5.52L-10.905,-5.914L-11.186,-5.275L-11.374,-4.892L-11.739,-4.145L-11.826,-3.972L-12.153,-3.328L-12.451,-2.742L-12.676,-2.298L-12.759,-2.134L-12.81,-1.034L-12.83,-0.606L-12.902,0.954L-12.92,3.171L-12.741,3.861L-12.041,6.568L-11.795,7.206L-11.595,7.727L-11.359,8.339L-11.259,8.598L-10.763,9.888L-10.64,10.208L-10.518,10.319L-9.971,10.818L-9.965,10.913L-9.835,12.977L-12.043,14.338L-11.369,15.559L-7.809,17.75L-7.339,17.864L-7.031,18.09L-6.391,18.537L-5.64,18.586L-4.068,18.657L-2.756,18.976L-0.763,17.623L-0.522,17.499L-0.49,17.438L-0.152,17.209L2.563,15.505L0,13.062Z" style="fill:rgb(63,38,19);fill-rule:nonzero;"/>
        </g>
        <g transform="matrix(0.787402,0,0,0.787402,2072.14,192.247)">
            <path d="M0,51.575L1.169,52.453L-0.279,50.244L-1.296,48.474L-2.624,44.857L-3.277,42.019L-3.292,38.388L-2.698,33.915L-1.618,26.67L0.566,14.416L-0.306,5.208L-0.211,3.742L-0.205,1.2L-0.04,-1.187L-0.572,-1.186L-0.787,-1.186L-1.087,-1.185L-1.152,-1.182L-2.185,-1.136L-2.196,-1.059L-2.296,-1.131L-4.869,-1.015L-5.211,-1L-6.133,-0.892L-6.426,-0.857L-6.572,-0.84L-7.543,-0.725L-8.983,-0.556L-8.988,-0.199L-9.064,-0.546L-10.599,-0.365L-10.597,-0.255L-9.954,5.134L-11.406,16.026L-10.534,22.462L-10.11,24.364L-9.451,27.963L-8.562,36.953L-8.597,41.403L-8.985,42.703L-9.014,43.407L-9.078,44.12L-9.168,44.953L-9.216,45.397L-9.218,45.416L-9.253,45.737L-9.099,46.109L-9.253,45.737L-9.225,47.26L-9.162,46.685L-9.225,47.26L-9.249,47.483L-8.969,48.437L-8.934,48.557L-8.59,48.974L-8.38,49.23L-8.095,49.575L-7.245,49.866L-5.684,51.38L-5.113,52.669L-3.752,52.588L-1.694,51.855L0.215,52.01L1.443,52.762L0,51.575Z" style="fill:rgb(63,38,19);fill-rule:nonzero;"/>
        </g>
        <g transform="matrix(0.787402,0,0,0.787402,2064.76,230.749)">
            <path d="M0,-0.228L0.247,0.324L0.401,0.376L0.581,0.438L0.965,0.568L0.54,0.075L0.418,-0.066L0.214,-0.302L0.203,-0.342L0.062,-0.796L0,-0.228Z" style="fill:rgb(63,38,19);fill-rule:nonzero;"/>
        </g>
        <g transform="matrix(0.787402,0,0,0.787402,2062.48,230.6)">
            <path d="M0,0.657L0.073,0.599L0.18,0.512L0.455,0L0,0.657Z" style="fill:rgb(63,38,19);fill-rule:nonzero;"/>
        </g>
        <g transform="matrix(0.787402,0,0,0.787402,2060.61,233.089)">
            <path d="M0.302,-46.199L-1.365,-46.199L-1.458,-46.209L-2.845,-46.361L-3.581,-46.442L-4.921,-46.589L-6.206,-46.73L-7.454,-46.866L-8.308,-46.96L-9.166,-47.054L-9.511,-47.092L-9.671,-46.168L-9.533,-36.84L-6.546,-25.812L-6.028,-24.317L-6.147,-24.77L-3.069,-17.884L-4.273,-17.658L-3.183,-13.261L-2.667,-9.705L-3.359,-7.852L-3.088,-6.804L-3.339,-4.869L-4.285,-1.625L-4.937,0.585L-5.079,0.893L-3.109,0.141L-0.887,-0.013L1.083,0.719L1.922,0.801L1.601,-0.026L1.421,-0.489L1.757,-2.003L2.23,-2.383L2.525,-2.84L2.654,-3.038L2.808,-3.273L2.83,-3.311L2.809,-4.196L2.788,-4.656L2.787,-4.682L2.776,-4.936L2.738,-5.759L2.598,-7.146L2.719,-8.299L2.199,-7.34L2.719,-8.299L3.189,-9.166L2.505,-11.525L1.565,-14.717L1.202,-23.278L1.704,-27.937L2.243,-36.543L0.302,-46.199Z" style="fill:rgb(63,38,19);fill-rule:nonzero;"/>
        </g>
        <g transform="matrix(0.787402,0,0,0.787402,2055.77,219.184)">
            <path d="M0,-7.112L1.874,0L3.078,-0.225L0,-7.112Z" style="fill:rgb(63,38,19);fill-rule:nonzero;"/>
        </g>
        <g transform="matrix(0.787402,0,0,0.787402,2062.82,231.325)">
            <path d="M0,-1.034L-0.153,-0.799L-0.283,-0.6L-0.578,-0.144L-0.685,0.022L-0.695,0.038L-0.649,0.001L-0.645,-0.001L-0.573,-0.054L-0.429,-0.264L0.027,-0.921L0.105,-1.034L0.023,-1.072L0,-1.034Z" style="fill:rgb(63,38,19);fill-rule:nonzero;"/>
        </g>
        <g transform="matrix(0.787402,0,0,0.787402,2052.97,162.565)">
            <path d="M0,-2.021L0.208,0.042L0.283,-2.063L0,-2.021Z" style="fill:rgb(63,38,19);fill-rule:nonzero;"/>
        </g>
        <g transform="matrix(0.787402,0,0,0.787402,2052.12,178.079)">
            <path d="M0,-0.482L0.037,0.172L0.112,-0.001L0.058,-0.287L-0.01,-0.654L0,-0.482Z" style="fill:rgb(63,38,19);fill-rule:nonzero;"/>
        </g>
        <g transform="matrix(0.787402,0,0,0.787402,2052.04,176.13)">
            <path d="M0,0.291L0.048,0.296L-0.016,-0.005L0,0.291Z" style="fill:rgb(63,38,19);fill-rule:nonzero;"/>
        </g>
        <g transform="matrix(0.787402,0,0,0.787402,2048.93,175.852)">
            <path d="M0,-13.701L0.528,-10.059L1.041,-6.517L0.803,-3.428L0.56,-0.267L0.537,0.037L0.762,1.478L0.851,1.62L0.887,1.677L0.996,1.852L1.064,1.96L1.983,2.431L2.028,2.37L2.032,2.365L2.336,1.955L2.279,1.73L2.232,1.542L2.142,1.391L2.108,1.88L2.001,0.619L2.169,1.291L2.214,1.467L2.232,1.542L2.279,1.73L2.336,1.955L2.451,2.416L2.497,2.599L3.048,3.258L4.078,3.001L4.041,2.348L4.031,2.175L3.944,0.644L3.928,0.349L3.993,0.65L4.41,2.567L4.515,3.051L4.784,3.605L5.482,3.829L5.966,3.607L6.178,3.51L6.16,3.273L6.122,2.753L6.119,2.715L6.109,2.568L6.02,1.347L5.885,1.378L6.02,1.347L6.272,1.288L6.293,1.474L6.447,2.843L6.454,2.913L6.506,3.386L6.657,4.764L6.849,5.192L7.429,4.907L7.54,4.852L7.627,4.345L7.547,4.614L7.627,4.345L7.814,3.716L7.985,3.141L8.02,1.847L8.022,1.748L8.033,1.359L8.038,1.17L8.039,1.107L8.052,0.621L8.061,0.29L8.058,0.26L8.049,0.175L8.04,0.088L7.793,-2.233L8.04,0.088L8.049,0.175L8.058,0.26L8.061,0.29L8.052,0.621L8.039,1.107L8.038,1.17L8.205,1.577L8.226,1.603L8.421,1.849L8.497,1.945L9.833,2.546L10.259,2.367L9.643,1.212L8.891,-0.199L9.643,1.212L8.525,-1.946L8.054,-2.837L7.271,-4.316L6.452,-5.864L6.317,-6.118L5.277,-17.24L5.114,-18.893L4.722,-18.835L3.686,-18.683L2.692,-18.399L2.194,-18.258L2.075,-18.224L1.752,-18.144L0.78,-17.902L-0.04,-17.816L-0.507,-17.767L-0.542,-17.763L-0.638,-17.889L-0.387,-16.374L-0.285,-15.668L-0.153,-14.754L0,-13.701Z" style="fill:rgb(63,38,19);fill-rule:nonzero;"/>
        </g>
        <g transform="matrix(0.787402,0,0,0.787402,2048.78,159.89)">
            <path d="M0,1.514L0.348,1.381L1.313,0.891L1.343,0.876L2.297,0.312L3.133,-0.182L3.125,-0.209L2.288,0.144L1.234,0.59L1.17,0.614L-0.072,1.087L-0.418,1.219L-0.619,1.295L-0.548,1.723L-0.38,1.659L0,1.514Z" style="fill:rgb(63,38,19);fill-rule:nonzero;"/>
        </g>
        <g transform="matrix(0.787402,0,0,0.787402,2049.22,156.912)">
            <path d="M0,0.543L1.03,0.123L1.058,0L0,0.543Z" style="fill:rgb(63,38,19);fill-rule:nonzero;"/>
        </g>
        <g transform="matrix(0.787402,0,0,0.787402,2048.52,158.892)">
            <path d="M0,0.872L0.562,0.419L0.701,0.347L2.161,-0.409L0.814,-0.181L0.548,0.052L-0.05,0.577L-0.244,0.747L-0.551,1.017L-0.508,1.281L-0.218,1.048L0,0.872Z" style="fill:rgb(63,38,19);fill-rule:nonzero;"/>
        </g>
        <g transform="matrix(0.787402,0,0,0.787402,2047.68,127.204)">
            <path d="M0,36.033L0.027,37.435L0.187,37.177L0.457,37.044L0.542,37.002L1.957,36.305L3.338,35.625L3.598,35.497L4.25,35.556L6.079,35.724L6.495,35.762L6.694,35.782L6.68,35.529L6.644,34.618L6.486,31.874L6.489,31.827L6.479,31.703L6.493,31.426L6.944,27.167L6.866,26.592L6.494,24.935L6.365,24.089L5.526,20.955L5.457,20.184L5.616,13.639L5.816,5.44L5.911,0.053L5.054,-1.402L1.332,1.379L-0.355,14.488L-0.496,24.281L0.173,30.078L-0.077,32.022L-0.017,35.162L-0.009,35.558L0,36.033Z" style="fill:rgb(63,38,19);fill-rule:nonzero;"/>
        </g>
        <g transform="matrix(0.787402,0,0,0.787402,2048.54,127.022)">
            <path d="M0,44.247L0.467,44.198L1.287,44.112L2.259,43.871L2.582,43.79L2.701,43.756L3.198,43.615L4.193,43.331L5.229,43.179L5.621,43.121L5.634,43.119L5.917,43.077L6.624,42.973L6.729,42.958L8.492,42.698L10.655,41.945L11.149,41.772L11.339,41.706L12.753,41.217L15.97,40.103L19.538,38.868L21.474,38.198L22.503,37.852L26.375,36.548L26.972,36.347L28.766,35.744L29.687,35.284L30.097,35.08L30.247,35.005L31.883,34.188L32.608,33.826L34.549,32.858L34.969,27.907L35.664,23.033L35.831,14.793L35.618,3.323L32.564,-0.004L31.208,1.761L30.358,8.299L29.338,13.034L29.294,13.204L29.268,13.304L29.214,13.56L28.615,16.669L28.563,16.946L28.562,16.952L28.563,16.973L28.517,18.083L28.479,19.05L28.469,19.452L28.399,22.704L28.437,26.087L28.521,26.789L28.633,27.722L28.648,27.851L28.688,27.829L30.173,27.019L28.688,27.829L28.648,27.851L26.584,28.977L26.128,29.226L25.573,29.529L25.453,29.584L21.47,31.405L20.792,31.715L20.198,31.986L19.072,32.502L15.005,34.284L13.444,35.032L19.374,32.533L11.5,35.86L11.46,35.869L9.417,36.375L9.144,36.442L9.07,36.461L8.957,36.488L8.197,36.676L8.957,36.488L7.082,36.146L5.612,36.014L5.413,35.993L4.997,35.955L2.569,35.741L2.516,35.729L2.256,35.857L0.875,36.536L-0.54,37.234L-0.625,37.275L-0.895,37.408L-1.055,37.666L-1.733,38.758L-1.878,39.329L-1.936,39.558L-1.977,39.72L-2.06,40.045L-2.109,40.24L-1.616,40.334L-1.545,40.277L-1.463,40.211L-1.409,40.132L-0.091,38.892L0.253,38.752L0.863,38.504L1.92,37.961L1.893,38.084L0.863,38.504L0.253,38.752L-0.091,38.892L-1.409,40.132L-1.517,40.29L-2.178,41.259L-1.967,42.101L-1.44,41.998L-1.13,41.985L-0.567,41.491L-0.26,41.222L-0.066,41.052L0.532,40.527L0.798,40.294L0.713,40.309L0.798,40.294L2.145,40.066L3.396,39.418L2.145,40.066L0.685,40.822L0.547,40.893L-0.016,41.347L-0.234,41.523L-0.523,41.755L-1.842,42.819L-1.394,43.4L-1.141,43.354L-0.311,43.038L-0.11,42.961L0.235,42.83L1.477,42.357L1.542,42.333L2.596,41.887L3.433,41.533L3.582,41.47L3.622,41.453L3.58,41.478L3.441,41.561L2.605,42.054L1.651,42.618L1.62,42.634L0.656,43.124L0.308,43.257L-0.073,43.402L-0.24,43.466L-0.543,43.581L-0.131,44.125L-0.036,44.251L0,44.247Z" style="fill:rgb(63,38,19);fill-rule:nonzero;"/>
        </g>
    </g>
</svg>
