<?xml version="1.0" encoding="UTF-8" standalone="no"?>
<!DOCTYPE svg PUBLIC "-//W3C//DTD SVG 1.1//EN" "http://www.w3.org/Graphics/SVG/1.1/DTD/svg11.dtd">
<svg width="100%" height="100%" viewBox="0 0 140 220" version="1.1" xmlns="http://www.w3.org/2000/svg" xmlns:xlink="http://www.w3.org/1999/xlink" xml:space="preserve" xmlns:serif="http://www.serif.com/" style="fill-rule:evenodd;clip-rule:evenodd;stroke-linejoin:round;stroke-miterlimit:2;">
    <g transform="matrix(1,0,0,1,-468.27,-919.45)">
        <g id="people-02">
            <g>
                <g>
                    <g>
                        <g transform="matrix(0.999289,0.037709,0.037709,-0.999289,541.664,996.644)">
                            <path d="M0.003,-0.003L0.109,-0.003L0.544,-0.002L-0.36,0.165L0.003,-0.003Z" style="fill:rgb(68,114,37);fill-rule:nonzero;"/>
                        </g>
                        <g transform="matrix(1,0,0,1,567.784,1059.64)">
                            <path d="M0,1.75L0.207,0L0.07,0.76L0,1.75Z" style="fill:rgb(68,114,37);fill-rule:nonzero;"/>
                        </g>
                        <g transform="matrix(1,0,0,1,530.446,985.242)">
                            <path d="M0,-10.153L-1.647,-8.406L-3.281,-4.612L-3.909,0L-2.664,-3.411L0,-10.153Z" style="fill:rgb(205,152,99);fill-rule:nonzero;"/>
                        </g>
                        <g transform="matrix(1,0,0,1,526.537,985.323)">
                            <path d="M0,-0.081L-0.194,3.412L1.245,-3.493L0,-0.081Z" style="fill:rgb(205,152,99);fill-rule:nonzero;"/>
                        </g>
                        <g transform="matrix(1,0,0,1,530.408,972.682)">
                            <path d="M0,23.057L0.016,23.055L0.192,23.032L0.219,23.029L0.754,22.958L1.886,22.81L4.249,22.808L5.153,22.807L6.365,22.808L6.929,22.809L8.419,22.81L8.878,22.87L9.419,23.268L9.505,23.292L9.563,23.267L10.805,23.703L10.902,23.783L11.8,23.984L13.557,23.323L15.444,22.638L17.51,13.072L16.503,10.814L16.657,12.657L16.503,10.814L15.99,4.653L13.885,1.654L11.973,1.159L14.995,5.938L11.973,1.159L11.247,0.011L9.975,-0.398L8.054,-0.864L3.869,-0.927L0.981,1.586L0.038,2.406L-0.887,6.865L-1.44,16.229L-0.887,6.865L0.038,2.406L-2.626,9.148L-4.066,16.053L-4.342,17.378L-3.922,21.614L-1.657,23.592L-0.543,23.525L-0.203,23.231L0,23.057Z" style="fill:rgb(205,152,99);fill-rule:nonzero;"/>
                        </g>
                        <g transform="matrix(1,0,0,1,532.386,972.743)">
                            <path d="M0,0.537L-0.997,1.525L1.892,-0.988L0,0.537Z" style="fill:rgb(250,192,41);fill-rule:nonzero;"/>
                        </g>
                        <g transform="matrix(1,0,0,1,546.079,1129.17)">
                            <path d="M0,2.695L0.331,1.936L0.27,1.902L-3.166,0L-3.186,0.35L0,2.695Z" style="fill:rgb(242,211,173);fill-rule:nonzero;"/>
                        </g>
                        <g transform="matrix(1,0,0,1,525.224,1090.06)">
                            <path d="M0,-1.17L-0.099,-1.18L0.284,0.01L1.008,-0.07L0.774,-1.091L0,-1.17Z" style="fill:rgb(242,211,173);fill-rule:nonzero;"/>
                        </g>
                        <g transform="matrix(1,0,0,1,544.247,1131.04)">
                            <path d="M0,-41.739L-0.649,-41.643L-1.719,-41.486L-1.916,-41.573L-3.586,-42.314L-4.881,-42.889L-4.939,-42.915L-6.385,-42.619L-7.521,-42.388L-8.277,-42.234L-8.263,-42.059L-7.577,-33.726L-7.781,-30.139L-7.359,-28.146L-7.296,-27.85L-7.229,-25.066L-7.157,-22.062L-7.504,-19.634L-7.505,-19.62L-7.506,-19.617L-6.634,-16.607L-4.64,-9.722L-6.634,-16.607L-5.579,-6.958L-5.929,-3.071L-6.086,1.107L-5.953,1.176L-5.281,1.051L-4.58,1.052L-3.825,1.012L-3.083,1.055L-0.734,0.795L0.111,0.903L1.215,1.095L1.832,0.829L-1.354,-1.517L-1.334,-1.866L-1.182,-4.474L-1.833,-0.275L-1.182,-4.474L2.029,-25.203L-0.119,-35.235L0.532,-41.818L0.328,-41.788L0,-41.739Z" style="fill:rgb(242,211,173);fill-rule:nonzero;"/>
                        </g>
                        <g transform="matrix(1,0,0,1,535.985,1088.9)">
                            <path d="M0,0.078L-0.014,-0.096L-0.085,-0.082L-0.797,0.033L-0.793,0.174L0,0.078Z" style="fill:rgb(242,211,173);fill-rule:nonzero;"/>
                        </g>
                        <g transform="matrix(1,0,0,1,524.83,1090.07)">
                            <path d="M0,-1.22L0.677,0L0.294,-1.19L0,-1.22Z" style="fill:rgb(242,211,173);fill-rule:nonzero;"/>
                        </g>
                        <g transform="matrix(1,0,0,1,532.708,1091.54)">
                            <path d="M0,39.139L2.44,38.128L3.172,37.987L3.92,38.041L4.593,38.246L5.176,39.578L4.663,35.242L3.807,32.11L3.751,21.858L4.033,19.883L4.034,19.881L4.036,19.866L4.383,17.438L4.31,14.434L4.243,11.65L4.181,11.354L3.759,9.361L2.719,4.448L2.484,-2.463L2.479,-2.604L1.532,-2.451L0.883,-2.346L0.821,-2.346L-0.078,-2.355L-2.046,-2.374L-3.296,-2.386L-4.944,-2.402L-5.086,-2.403L-5.614,-2.457L-6.221,-2.519L-6.71,-2.569L-6.476,-1.548L-4.96,5.059L-5.711,12.609L-5.702,13.796L-2.001,27.888L-0.724,32.587L0.216,38.449L-2.06,41.743L-0.887,40.129L0,39.139Z" style="fill:rgb(242,211,173);fill-rule:nonzero;"/>
                        </g>
                        <g transform="matrix(1,0,0,1,512.685,1056.31)">
                            <path d="M0,-0.966L-1.269,-1.379L-1.179,-1.152L-1.123,-1.008L-1.11,-0.975L-0.309,-0.495L0.194,-0.455L0.856,-0.404L0.846,-0.182L0.836,0.042L0.83,0.184L0.711,0.195L1.662,0.413L1.751,0.198L1.649,-0.429L0.885,-0.678L0.676,-0.746L0,-0.966Z" style="fill:rgb(242,211,173);fill-rule:nonzero;"/>
                        </g>
                        <g transform="matrix(1,0,0,1,514.997,1053.9)">
                            <path d="M0,-3.311L-0.308,-3.245L-0.479,-2.974L-0.544,-2.871L-0.948,-2.23L-0.633,-2.141L-0.948,-2.23L-1.102,-1.986L-1.42,-1.676L-2.102,-1.011L-2.19,-0.924L-2.239,-0.877L-2.078,-0.45L-1.571,0.076L-1.292,-0.083L-0.72,-0.561L-0.288,-2.159L0.36,-3.387L0.287,-3.372L0,-3.311Z" style="fill:rgb(242,211,173);fill-rule:nonzero;"/>
                        </g>
                        <g transform="matrix(1,0,0,1,512.895,1053.74)">
                            <path d="M0,-0.855L0.682,-1.52L1,-1.83L1.154,-2.074L1.558,-2.716L1.623,-2.818L1.794,-3.09L1.761,-3.083L1.468,-3.021L0.831,-2.885L-0.122,-2.682L-0.629,-2.575L-1.177,-2.817L-1.26,-2.853L-1.809,-3.095L-2.457,-3.382L-2.908,-3.581L-3.028,-3.634L-3.322,-3.764L-3.869,-3.196L-4.252,-2.069L-3.788,-0.525L-3.582,-1.186L-3.788,-0.525L-3.919,-0.105L-3.039,2.143L-2.487,2.246L-2.58,2.098L-3.286,0.971L-3.495,0.637L-3.448,0.206L-3.102,-2.232L-3.495,0.637L-3.286,0.971L-2.58,2.098L-2.487,2.246L-2.435,2.329L-1.001,2.909L0.355,2.775L0.5,2.761L0.619,2.749L0.625,2.608L0.635,2.384L0.645,2.162L-0.017,2.111L-0.52,2.071L-1.321,1.59L-1.284,1.684L-1.321,1.59L-1.334,1.558L-1.39,1.414L-1.48,1.187L-1.548,1.014L-1.65,0.754L-1.918,1.016L-1.65,0.754L-1.451,0.56L-1.441,0.55L-1.365,0.476L-1.306,0.419L-1.229,0.344L-0.137,-0.721L-0.089,-0.768L0,-0.855Z" style="fill:rgb(242,211,173);fill-rule:nonzero;"/>
                        </g>
                        <g transform="matrix(1,0,0,1,511.53,1054.55)">
                            <path d="M0,-0.335L-0.076,-0.261L0.214,-0.078L0.24,-0.061L0.272,-0.041L0.545,0.132L0.325,-0.188L0.136,-0.467L0.059,-0.392L0,-0.335Z" style="fill:rgb(242,211,173);fill-rule:nonzero;"/>
                        </g>
                        <g transform="matrix(1,0,0,1,511.771,1055.43)">
                            <path d="M0,-0.938L-0.026,-0.954L-0.316,-1.138L-0.327,-1.128L-0.526,-0.934L-0.423,-0.674L-0.355,-0.501L0.914,-0.088L1.589,0.132L1.799,0.2L0.305,-0.745L0.032,-0.917L0,-0.938Z" style="fill:rgb(242,211,173);fill-rule:nonzero;"/>
                        </g>
                        <g transform="matrix(1,0,0,1,565.12,1064.02)">
                            <path d="M0,-0.078L0.179,0.154L-0.041,-0.232L0,-0.078Z" style="fill:rgb(242,211,173);fill-rule:nonzero;"/>
                        </g>
                        <g transform="matrix(0.700001,0.714142,0.714142,-0.700001,562.902,1061.21)">
                            <path d="M0.617,-0.855L0.9,-0.855L1.219,-0.062L1.892,1.61L0.617,-0.855Z" style="fill:rgb(242,211,173);fill-rule:nonzero;"/>
                        </g>
                        <g transform="matrix(-0.99977,0.0214428,0.0214428,0.99977,563.405,1061.25)">
                            <path d="M-0.311,-0.315L0.062,-0.315L-0.016,-0.003L-0.374,-0.186L-0.311,-0.315Z" style="fill:rgb(242,211,173);fill-rule:nonzero;"/>
                        </g>
                        <g transform="matrix(1,0,0,1,567.727,1063.46)">
                            <path d="M0,-2.338L-0.038,-2.124L-0.052,-2.117L-1.751,-1.236L-2.048,-1.082L-2.151,-1.028L-2.767,-0.082L-2.647,0.331L-2.428,0.717L-1.279,-0.389L0.057,-2.065L0.128,-3.055L0,-2.338Z" style="fill:rgb(242,211,173);fill-rule:nonzero;"/>
                        </g>
                        <g transform="matrix(1,0,0,1,565.26,1061.78)">
                            <path d="M0,-9.333L-0.185,-9.611L0,-9.333L-0.04,-9.596L-0.182,-10.531L-0.263,-10.528L-0.326,-10.524L-1.281,-10.476L-1.473,-10.466L-1.672,-10.456L-1.679,-10.454L-3.053,-10.173L-3.924,-9.995L-4.071,-9.965L-4.098,-9.959L-3.836,-9.07L-3.833,-9.059L-3.549,-7.921L-3.474,-7.732L-2.945,-6.397L-3.474,-7.732L-3.638,-7.212L-3.485,-5.223L-2.337,-2.384L-2.042,-1.289L-2.039,-1.513L-1.903,-1.538L-1.733,-1.568L-1.321,-1.642L-1.012,-1.699L-0.659,-2.089L-0.497,-2.268L-0.723,-3.109L-0.629,-3.712L-1.006,-3.705L-0.629,-3.712L0.139,-3.728L0.196,-3.902L0.154,-3.939L-1.479,-5.366L-2.118,-5.925L-2.621,-6.365L-2.118,-5.925L-1.479,-5.366L0.154,-3.939L0.196,-3.902L0.139,-3.728L-0.254,-2.537L-0.497,-2.268L-0.659,-2.089L-1.012,-1.699L-1.321,-1.642L-1.733,-1.568L-1.903,-1.538L-2.039,-1.513L-2.042,-1.289L-2.046,-1.052L-1.922,-0.842L-1.55,-0.85L-1.511,-0.851L-1.426,-0.853L-1.235,-0.857L-0.946,-0.864L-0.319,-0.877L0.937,-1.781L0.955,-1.794L1.089,-2.083L1.938,-3.907L1.089,-2.083L0.955,-1.794L0.937,-1.781L-0.319,-0.877L-0.946,-0.864L-1.235,-0.857L-1.44,-0.747L-1.484,-0.723L-1.839,-0.532L-2.475,-0.19L-2.643,0.191L-2.536,0.471L0.117,-0.344L0.596,-0.491L1.497,-0.768L1.821,-0.867L1.844,-0.963L1.852,-0.995L1.888,-1.14L1.951,-1.393L2.131,-2.116L2.324,-2.893L2.535,-3.742L2.354,-4.233L2.535,-3.742L2.324,-2.893L2.131,-2.116L1.951,-1.393L1.888,-1.14L2.019,-1.062L1.844,-0.963L1.821,-0.867L1.497,-0.768L0.596,-0.491L0.117,-0.344L-1.549,0.346L-1.666,0.415L-1.894,1.113L-1.856,1.172L-1.459,1.198L0.237,0.697L0.316,0.655L0.42,0.602L0.716,0.448L2.415,-0.433L2.429,-0.44L2.467,-0.654L2.595,-1.371L2.731,-2.132L2.733,-2.149L3.166,-4.577L0,-9.333Z" style="fill:rgb(242,211,173);fill-rule:nonzero;"/>
                        </g>
                        <g transform="matrix(1,0,0,1,538.154,1133.9)">
                            <path d="M0,1.172L0.058,0.98L0.258,0.323L0.106,-0.572L0.07,-0.784L-0.01,-1.251L-0.207,-2.408L-0.27,-2.783L-0.853,-4.115L-1.527,-4.321L-2.274,-4.374L-3.006,-4.233L-5.446,-3.222L-6.333,-2.232L-7.507,-0.618L-8.234,0.265L-8.768,1.062L-10.23,3.769L-9.908,5.482L-9.73,5.546L-4.504,5.379L-2.712,5.267L-2.177,4.559L-2.017,3.655L-1.855,2.962L-1.881,2.961L-3.622,2.906L-4.469,2.879L-4.512,2.152L-4.518,2.05L-4.902,1.872L-5.478,1.604L-4.902,1.872L-4.518,2.05L-4.512,2.152L-4.469,2.879L-3.622,2.906L-1.881,2.961L-1.855,2.962L-1.833,2.963L-1.146,2.985L0.073,2.417L0.035,1.744L0.033,1.73L0,1.172Z" style="fill:rgb(120,71,34);fill-rule:nonzero;"/>
                        </g>
                        <g transform="matrix(1,0,0,1,546.079,1137.21)">
                            <path d="M0,-5.348L-0.617,-5.081L-1.721,-5.274L-2.566,-5.381L-4.915,-5.122L-5.656,-5.165L-6.412,-5.124L-7.113,-5.125L-7.785,-5.001L-7.918,-5.069L-7.934,-4.566L-7.855,-4.1L-7.819,-3.888L-7.667,-2.993L-7.866,-2.335L-7.925,-2.143L-7.892,-1.585L-7.89,-1.571L-7.554,-0.858L-7.48,0.385L-6.904,0.59L-6.137,0.793L-4.221,0.676L-3.523,0.421L-3.026,-0.247L-3.062,-0.872L-3.576,-0.494L-3.062,-0.872L-2.155,-1.537L-1.527,-2.061L-0.101,-2.158L0.683,-2.503L1.734,-3.106L1.826,-4.931L1.441,-5.44L0.986,-5.921L0.27,-6.141L0.331,-6.107L0,-5.348Z" style="fill:rgb(120,71,34);fill-rule:nonzero;"/>
                        </g>
                        <g transform="matrix(1,0,0,1,550.439,1089.34)">
                            <path d="M0,-27.346L-1.118,-27.384L-2.327,-27.426L-3.868,-27.479L-5.493,-27.536L-6.098,-27.556L-9.049,-27.546L-14.878,-27.527L-17.394,-27.535L-20.215,-27.544L-23.565,-27.556L-23.657,-27.556L-26.899,-27.444L-28.659,-27.384L-30.131,-27.333L-31.666,-27.28L-31.781,-27.256L-32.644,-27.078L-32.94,-27.018L-32.848,-26.306L-32.435,-23.105L-30.999,-14.675L-26.252,-2.626L-29.778,-14.315L-26.252,-2.626L-25.608,-0.494L-25.314,-0.463L-25.215,-0.453L-24.441,-0.374L-23.952,-0.324L-23.345,-0.262L-22.817,-0.208L-22.675,-0.207L-21.027,-0.191L-19.777,-0.179L-17.809,-0.16L-16.91,-0.151L-16.848,-0.151L-16.2,-0.256L-15.252,-0.409L-14.54,-0.524L-14.468,-0.539L-13.713,-0.693L-12.577,-0.924L-11.13,-1.219L-11.072,-1.194L-9.777,-0.619L-8.108,0.122L-7.911,0.21L-6.841,0.052L-6.192,-0.044L-5.863,-0.093L-5.66,-0.122L-4.693,-0.265L-0.922,-15.091L-0.212,-23.305L-0.06,-25.817L0.032,-27.345L0,-27.346Z" style="fill:rgb(66,76,160);fill-rule:nonzero;"/>
                        </g>
                        <g transform="matrix(1,0,0,1,515.585,1062.64)">
                            <path d="M0,0.077L2.006,0.394L1.914,-0.317L0,0.077Z" style="fill:rgb(0,188,218);fill-rule:nonzero;"/>
                        </g>
                        <g transform="matrix(1,0,0,1,552.014,1063.47)">
                            <path d="M0,-1.422L-1.543,-1.475L-1.635,0.053L0.057,-0.205L3.523,-0.754L0.335,-1.411L0,-1.422Z" style="fill:rgb(0,188,218);fill-rule:nonzero;"/>
                        </g>
                        <g transform="matrix(1,0,0,1,561.162,1052.9)">
                            <path d="M0,-1.085L-0.895,-0.901L-1.647,-0.542L-1.685,-0.524L-2.527,-0.121L-1.527,0L0.265,-0.184L0.262,-0.195L0,-1.085Z" style="fill:rgb(0,188,218);fill-rule:nonzero;"/>
                        </g>
                        <g transform="matrix(1,0,0,1,565.254,1052.1)">
                            <path d="M0,-0.867L-0.17,-0.858L-0.176,-0.858L-0.034,0.078L0.154,0.048L2.393,-0.812L1.541,-0.945L0,-0.867Z" style="fill:rgb(0,188,218);fill-rule:nonzero;"/>
                        </g>
                        <g transform="matrix(1,0,0,1,559.514,1005.85)">
                            <path d="M0,46.508L0.752,46.149L1.647,45.965L1.674,45.96L1.821,45.93L2.692,45.752L4.066,45.47L4.073,45.469L4.272,45.459L4.464,45.449L5.419,45.4L5.482,45.397L5.563,45.393L5.57,45.393L5.74,45.384L7.281,45.306L8.133,45.439L3.841,26.639L3.067,23.589L2.478,20.136L-0.602,7.401L-2.045,2.763L-4.871,-3.45L-9.141,-5.187L-12.748,-6.332L-15.11,-6.833L-15.703,-6.958L-15.11,-6.833L-15.564,-7.325L-17.741,-9.2L-17.847,-9.203L-18.205,-9.385L-18.301,-9.465L-19.543,-9.902L-19.601,-9.877L-19.687,-9.9L-20.229,-10.299L-20.687,-10.359L-22.177,-10.36L-22.742,-10.36L-23.953,-10.361L-24.858,-10.36L-27.22,-10.359L-28.352,-10.211L-28.888,-10.14L-28.914,-10.137L-29.09,-10.114L-29.106,-10.112L-29.309,-9.937L-29.649,-9.644L-32.343,-7.325L-32.797,-6.833L-32.204,-6.958L-32.797,-6.833L-35.159,-6.332L-38.766,-5.187L-43.036,-3.45L-45.624,2.763L-46.64,8.272L-48.623,21.236L-48.744,24.899L-48.881,26.729L-51.4,42.334L-50.508,43.877L-49.941,44.127L-49.647,44.256L-49.528,44.309L-49.076,44.509L-48.428,44.795L-47.879,45.037L-47.796,45.073L-47.248,45.316L-46.742,45.208L-45.788,45.005L-45.151,44.87L-44.858,44.808L-44.825,44.801L-44.517,44.735L-44.231,44.674L-44.157,44.659L-43.909,44.606L-42.291,42.65L-39.526,26.794L-39.303,25.307L-38.776,21.976L-38.23,16.473L-38.217,16.341L-38.212,16.291L-37.542,9.55L-38.212,16.291L-38.217,16.341L-38.23,16.473L-37.849,21.536L-39.351,27.893L-41.181,36.52L-42.725,47.465L-43.929,56.869L-42.016,56.474L-41.72,56.413L-40.857,56.236L-40.742,56.212L-39.207,56.159L-37.734,56.108L-35.975,56.047L-32.733,55.935L-32.641,55.936L-29.291,55.947L-26.47,55.957L-23.953,55.965L-18.125,55.946L-15.174,55.935L-14.569,55.956L-12.944,56.013L-11.403,56.065L-10.194,56.107L-9.076,56.146L-9.043,56.147L-7.501,56.2L-7.166,56.212L-3.978,56.869L-5.182,47.465L-6.726,36.52L-8.556,27.893L-10.058,21.536L-9.663,16.289L-9.293,12.843L-10.054,9.324L-9.293,12.843L-7.167,22.684L-6.216,25.826L-5.39,28.671L-0.88,46.929L-0.037,46.526L0,46.508Z" style="fill:rgb(0,188,218);fill-rule:nonzero;"/>
                        </g>
                    </g>
                </g>
            </g>
        </g>
    </g>
</svg>
