<?xml version="1.0" encoding="UTF-8" standalone="no"?>
<!DOCTYPE svg PUBLIC "-//W3C//DTD SVG 1.1//EN" "http://www.w3.org/Graphics/SVG/1.1/DTD/svg11.dtd">
<svg width="100%" height="100%" viewBox="0 0 140 220" version="1.1" xmlns="http://www.w3.org/2000/svg" xmlns:xlink="http://www.w3.org/1999/xlink" xml:space="preserve" xmlns:serif="http://www.serif.com/" style="fill-rule:evenodd;clip-rule:evenodd;stroke-linejoin:round;stroke-miterlimit:2;">
    <g transform="matrix(1,0,0,1,-785.965,-1635.75)">
        <g id="people-07">
            <g>
                <g transform="matrix(1,0,0,1,862.609,1819.9)">
                    <path d="M0,-5.43L-0.786,-5.474L-1.223,-5.498L-1.628,-5.52L-2.559,-4.222L-2.901,-2.897L-3.497,-2.183L-3.412,0.09L-2.087,-0.677L-2.104,-0.849L-2.196,-1.93L-2.196,-2.71L-0.902,-4.307L-0.039,-4.604L1.17,-4.394L1.142,-4.599L0.744,-4.705L0.666,-4.725L0.162,-4.859L-0.077,-4.922L-0.782,-4.691L-0.804,-4.684L-1.265,-4.179L-1.452,-3.973L-1.65,-3.759L-1.953,-3.425L-2.115,-3.149L-2.901,-1.82L-2.115,-3.149L-1.953,-3.425L-1.65,-3.759L-1.452,-3.973L-1.265,-4.179L-0.804,-4.684L-0.782,-4.691L-0.077,-4.922L0.162,-4.859L0.666,-4.725L0.744,-4.705L0.673,-4.886L0.472,-5.404L0,-5.43Z" style="fill:rgb(242,211,173);fill-rule:nonzero;"/>
                </g>
                <g transform="matrix(1,0,0,1,849.158,1819.07)">
                    <path d="M0,-3.777L0.864,-3.481L2.157,-1.883L2.157,-1.103L2.062,-0.023L2.048,0.15L3.373,0.917L3.458,-1.357L2.862,-2.07L2.52,-3.395L1.59,-4.694L1.184,-4.671L0.747,-4.647L-0.039,-4.603L-0.511,-4.577L-0.712,-4.059L-0.783,-3.878L-0.709,-3.898L-0.201,-4.033L0.039,-4.095L0.744,-3.864L0.765,-3.857L1.227,-3.352L1.413,-3.146L1.611,-2.932L1.914,-2.599L2.076,-2.323L2.862,-0.994L2.076,-2.323L1.914,-2.599L1.611,-2.932L1.413,-3.146L1.227,-3.352L0.765,-3.857L0.744,-3.864L0.039,-4.095L-0.201,-4.033L-0.709,-3.898L-0.783,-3.878L-1.181,-3.772L-1.213,-3.568L0,-3.777Z" style="fill:rgb(242,211,173);fill-rule:nonzero;"/>
                </g>
                <g transform="matrix(1,0,0,1,877.196,1789.89)">
                    <path d="M0,-1.701L0.071,-0.342L0.085,-0.094L0.109,0.394L0.095,-0.094L0.095,-0.3L0.081,-0.545L0.077,-0.642L0,-2.095L0,-1.701Z" style="fill:rgb(0,188,218);fill-rule:nonzero;"/>
                </g>
                <g transform="matrix(1,0,0,1,877.196,1761.46)">
                    <path d="M0,26.733L0,26.339L-0.384,19.087L-0.448,17.889L-0.585,15.284L-0.726,12.609L-0.931,8.728L-1.079,5.916L-1.392,0L-1.392,0.394L0,26.733Z" style="fill:rgb(0,188,218);fill-rule:nonzero;"/>
                </g>
                <g transform="matrix(1,0,0,1,875.804,1789.28)">
                    <path d="M0,-27.428L-0.056,-27.698L-0.79,-26.107L0.222,-13.864L0.388,-11.863L1.364,-0.031L1.378,0.109L1.463,0.27L1.392,-1.089L0,-27.428Z" style="fill:rgb(0,188,218);fill-rule:nonzero;"/>
                </g>
                <g transform="matrix(1,0,0,1,855.15,1806.36)">
                    <path d="M0,-0.229L-0.658,-0.22L-1.523,0.009L2.457,0.009L1.576,-0.224L1.487,-0.225L0.752,-0.237L0.653,-0.238L0,-0.229Z" style="fill:rgb(250,192,41);fill-rule:nonzero;"/>
                </g>
                <g transform="matrix(1,0,0,1,857.71,1821.32)">
                    <path d="M0.409,-14.945L-4.103,-14.945L-4.04,-13.657L-3.983,-12.516L-4.917,-8.966L-4.632,-8.348L-5.524,-5.926L-5.094,-3.606L-5.178,-1.332L-5.178,0L1.488,0L1.488,-1.332L1.403,-3.606L1.833,-5.926L0.938,-8.348L1.227,-8.966L0.293,-12.516L0.345,-13.657L0.409,-14.945Z" style="fill:rgb(250,192,41);fill-rule:nonzero;"/>
                </g>
                <g transform="matrix(1,0,0,1,862.571,1821.32)">
                    <path d="M0,-6.026L-0.864,-5.73L-2.157,-4.132L-2.157,-3.352L-2.066,-2.272L-2.048,-2.099L-1.963,-1.101L-2.048,-2.099L-3.373,-1.332L-3.373,0L0.67,0L0.899,-0.198L1.903,-1.54L2.337,-2.33L2.274,-3.372L2.066,-4.563L1.181,-6.021L1.209,-5.817L0,-6.026Z" style="fill:rgb(66,76,160);fill-rule:nonzero;"/>
                </g>
                <g transform="matrix(-0.571922,0.820308,0.820308,0.571922,868.074,1802.59)">
                    <path d="M-0.684,-0.358L0.58,-0.358L0.39,-0.318L-1.077,-0.357L-0.684,-0.358Z" style="fill:rgb(250,192,41);fill-rule:nonzero;"/>
                </g>
                <g transform="matrix(1,0,0,1,869.624,1783.09)">
                    <path d="M0,8.485L-2.059,3.607L-3.532,0.118L-3.585,0L-3.497,0.228L0,8.485Z" style="fill:rgb(250,192,41);fill-rule:nonzero;"/>
                </g>
                <g transform="matrix(1,0,0,1,852.5,1815.29)">
                    <path d="M-4.012,6.026L0.032,6.026L0.032,4.694L-1.294,3.927L-1.378,4.925L-1.294,3.927L-1.28,3.755L-1.185,2.674L-1.185,1.894L-2.478,0.297L-3.342,0L-4.554,0.21L-4.523,0.005L-5.407,1.464L-5.615,2.654L-5.682,3.696L-5.249,4.486L-4.241,5.828L-4.012,6.026Z" style="fill:rgb(66,76,160);fill-rule:nonzero;"/>
                </g>
                <g transform="matrix(1,0,0,1,837.145,1747.12)">
                    <path d="M0,15.511L0.557,12.683L0.712,11.893L2.03,9.344L2.7,8.047L4.554,6.039L5.732,4.763L8.019,3.285L9.613,2.254L12.196,1.346L14.093,0.68L16.804,0.377L18.88,0.144L20.924,0.373L23.67,0.68L25.521,1.331L28.151,2.254L29.684,3.246L32.032,4.763L33.131,5.956L35.063,8.047L35.648,9.176L37.051,11.893L37.139,12.335L37.721,15.302L37.869,16.052L38.602,14.462L38.535,14.149L37.809,10.738L37.707,10.555L37.393,9.995L35.736,7.046L35.61,6.917L34.929,6.241L32.578,3.893L32.44,3.812L29.402,2L28.535,1.484L28.419,1.446L25.179,0.397L23.868,-0.027L23.801,-0.034L20.565,-0.368L18.88,-0.541L17.198,-0.368L13.962,-0.034L13.892,-0.027L12.584,0.397L9.345,1.446L9.228,1.484L8.361,2L5.319,3.812L5.185,3.893L2.834,6.241L2.154,6.917L2.027,7.046L0.37,9.995L0.056,10.555L-0.046,10.738L-0.772,14.149L-0.839,14.462L-0.106,16.052L0,15.511Z" style="fill:rgb(250,192,41);fill-rule:nonzero;"/>
                </g>
                <g transform="matrix(1,0,0,1,871.207,1762.87)">
                    <path d="M0,54.481L-1.392,57.376L-3.69,58.901L-26.924,58.901L-29.222,57.376L-30.615,54.481L-34.386,44.487L-33.79,44.788L-30.029,54.756L-28.655,57.604L-26.575,58.445L-22.719,58.445L-22.948,58.247L-23.956,56.905L-24.389,56.116L-24.323,55.073L-24.114,53.883L-23.23,52.424L-22.831,52.317L-22.761,52.137L-22.948,49.353L-22.518,49.184L-22.764,46.383L-22.993,44.788L-23.004,44.714L-22.57,43.5L-22.401,43.028L-23.892,42.736L-24.061,42.304L-24.329,41.614L-24.777,40.463L-25.042,38.117L-24.333,35.043L-24.372,34.089L-30.396,36.332L-30.833,36.495L-32.754,37.211L-32.99,37.299L-32.983,34.972L-32.959,34.963L-31.228,34.319L-30.604,34.086L-24.46,31.797L-24.467,31.609L-24.71,25.169L-25.257,25.797L-26.346,25.769L-27.125,25.75L-28.182,25.485L-28.443,25.293L-28.616,25.069L-29.818,24.525L-30.237,22.9L-29.501,21.298L-29.363,20.884L-29.265,20.791L-29.071,20.367L-28.369,19.496L-26.818,17.577L-26.261,16.886L-25.496,16.536L-24.59,16.358L-24.576,16.36L-33.431,3.77L-30.012,3.784L-21.097,15.647L-20.759,16.193L-19.384,15.348L-19.814,14.001L-20.138,13.843L-21.587,10.16L-21.506,9.713L-21.7,9.364L-21.827,8.463L-21.883,8.4L-22.285,7.483L-22.62,3.77L-22.69,3L-22.422,2.394L-22.422,2.389L-22.419,2.388L-21.915,1.241L-21.351,0.271L-20.452,-0.797L-19.469,-1.337L-19.289,-1.365L-18.171,-1.816L-16.349,-2.067L-15.281,-2.067L-13.109,-1.816L-12.094,-1.363L-11.061,-0.733L-8.675,2.084L-8.308,3.77L-8.069,4.864L-8.069,7.7L-9.14,10.276L-10.698,12.7L-12.309,14.051L-12.119,15.234L-10.321,16.338L-10.029,16.475L-9.518,15.647L-0.603,3.784L2.82,3.77L-6.764,17.391L-7.067,17.882L-6.592,18.238L-6.063,18.853L-5.168,20.219L-5.115,20.336L-3.641,23.825L-1.583,28.703L-1.579,28.704L-1.336,29.292L-3.172,30.333L-2.919,31.085L-1.773,35.288L-1.272,35.629L-1.269,37.147L-1.251,37.213L-0.631,40.73L-0.592,40.949L-0.543,41.22L-0.5,41.418L-0.469,41.614L-0.416,41.949L-0.518,42.273L-0.86,42.682L-1.421,43.01L-2.083,43.399L-2.164,43.447L-2.372,43.362L-3.204,43.451L-3.37,43.275L-3.366,43.095L-3.352,43.088L-3.218,43.008L-3.278,42.983L-3.814,42.754L-4.223,42.591L-4.375,42.387L-4.089,42.219L-3.849,42.258L-3.821,42.216L-3.828,42.017L-3.62,41.969L-3.747,41.614L-3.958,41.027L-3.758,39.983L-3.035,38.946L-3.102,37.855L-4.153,35.996L-6.951,34.099L-7.071,34.018L-7.039,34.375L-6.997,34.868L-6.454,36.346L-6.274,38.117L-6.394,41.614L-6.398,41.722L-6.609,42.291L-6.771,42.736L-8.308,42.955L-8.115,43.5L-7.684,44.714L-7.695,44.788L-7.924,46.383L-8.167,49.184L-7.741,49.353L-7.924,52.137L-7.854,52.317L-7.455,52.424L-6.571,53.883L-6.363,55.073L-6.299,56.116L-6.733,56.905L-7.737,58.247L-7.966,58.445L-4.039,58.445L-1.96,57.604L-0.585,54.756L3.176,44.788L3.772,44.487L0,54.481ZM7.248,32.971L7.174,32.323L7.177,31.708L7.568,31.508L5.971,31.508L5.971,26.921L5.975,26.512L5.961,26.373L4.984,14.541L4.819,12.539L3.807,0.297L3.659,-0.454L3.078,-3.421L2.989,-3.863L1.586,-6.58L1.001,-7.709L-0.93,-9.799L-2.03,-10.992L-4.378,-12.51L-5.911,-13.502L-8.541,-14.425L-10.392,-15.075L-13.138,-15.383L-15.182,-15.611L-17.258,-15.379L-19.969,-15.075L-21.866,-14.41L-24.449,-13.502L-26.042,-12.471L-28.33,-10.992L-29.508,-9.718L-31.362,-7.709L-32.032,-6.412L-33.35,-3.863L-33.505,-3.073L-34.062,-0.245L-34.168,0.297L-35.035,10.797L-35.345,14.541L-36.322,26.373L-36.336,26.512L-36.332,26.921L-36.332,31.508L-38.183,31.508L-37.791,31.708L-37.788,32.323L-37.862,32.975L-38.137,34.864L-38.098,35.16L-36.953,44.182L-33.107,54.371L-29.254,62.367L-27.59,65.491L-27.393,65.784L-27.033,65.22L-26.575,64.499L-26.05,63.932L-25.722,63.578L-25.718,63.576L-25.641,63.491L-25.176,62.992L-24.989,62.787L-23.839,62.143L-23.395,61.893L-21.467,61.893L-21.051,62.143L-20.561,62.436L-19.86,62.857L-18.975,64.719L-18.816,65.053L-18.816,65.085L-18.742,66.61L-18.739,66.647L-18.693,67.668L-18.69,67.742L-18.615,69.248L-15.305,70.092L-11.999,69.248L-11.911,67.408L-11.907,67.334L-11.886,66.925L-11.798,65.053L-10.755,62.857L-9.799,62.284L-9.563,62.143L-9.147,61.893L-7.219,61.893L-6.775,62.143L-5.626,62.787L-5.439,62.992L-4.882,63.591L-4.632,63.86L-4.039,64.499L-3.384,65.527L-3.222,65.784L-3.024,65.491L-1.361,62.367L2.492,54.371L6.338,44.182L7.484,35.16L7.522,34.864L7.519,34.845L7.248,32.971Z" style="fill:rgb(250,192,41);fill-rule:nonzero;"/>
                </g>
                <g transform="matrix(1,0,0,1,835.319,1789.34)">
                    <path d="M0,-11.93L-0.902,-3.402L-1.251,-0.698L-1.251,-0.098L-1.255,-0.057L-1.262,0L-0.564,0L-0.557,-0.098L0,-11.93Z" style="fill:rgb(250,192,41);fill-rule:nonzero;"/>
                </g>
                <g transform="matrix(1,0,0,1,877.196,1782.09)">
                    <path d="M0,5.701L0.077,7.154L0.081,7.252L0.547,7.252L0.536,7.181L0.536,7.154L0.186,3.841L-0.384,-1.551L0,5.701Z" style="fill:rgb(250,192,41);fill-rule:nonzero;"/>
                </g>
                <g transform="matrix(0.990969,0.13409,0.13409,-0.990969,860.046,1796.96)">
                    <path d="M0.001,-0.113L1.702,-0.113L1.371,-0.034L0.162,0.042L0.001,-0.113Z" style="fill:rgb(250,192,41);fill-rule:nonzero;"/>
                </g>
                <g transform="matrix(-0.814944,0.579539,0.579539,0.814944,869.772,1805.17)">
                    <path d="M0.292,0.35L1.239,0.35L-0.762,0.511L-0.746,-0.129L0.292,0.35Z" style="fill:rgb(250,192,41);fill-rule:nonzero;"/>
                </g>
                <g transform="matrix(1,0,0,1,846.666,1780.34)">
                    <path d="M0,-0.315L-0.295,-0.145L-0.212,-0.002L-0.06,-0.001L0.063,0.034L0.645,-0.143L0.501,-0.349L0,-0.315Z" style="fill:rgb(250,192,41);fill-rule:nonzero;"/>
                </g>
                <g transform="matrix(1,0,0,1,835.104,1788.06)">
                    <path d="M0,-5.909L-0.342,1.29L-0.328,1.29L-0.247,-0.261L0.119,-7.199L0,-5.909Z" style="fill:rgb(250,192,41);fill-rule:nonzero;"/>
                </g>
                <g transform="matrix(1,0,0,1,864.883,1791.99)">
                    <path d="M0,3.036L-0.148,2.779L-0.338,1.671L-0.437,1.655L-0.666,1.373L-1.075,0.218L-1.188,-0.038L-0.969,2.426L-0.014,3.074L0,3.036Z" style="fill:rgb(250,192,41);fill-rule:nonzero;"/>
                </g>
                <g transform="matrix(1,0,0,1,863.695,1792.12)">
                    <path d="M0,-0.167L0.113,0.089L-0.008,-0.256L0,-0.167Z" style="fill:rgb(250,192,41);fill-rule:nonzero;"/>
                </g>
                <g transform="matrix(1,0,0,1,868.743,1803.72)">
                    <path d="M0,1.546L0.247,1.365L0.338,1.116L0.212,0.763L0.014,0.227L-0.5,0L-0.508,0.466L-0.663,0.763L-0.881,1.19L-0.969,1.184L-0.786,1.412L0,1.546Z" style="fill:rgb(250,192,41);fill-rule:nonzero;"/>
                </g>
                <g transform="matrix(0,1,1,0,852.437,1854.91)">
                    <path d="M-0.036,0.02L0.297,0.02L0.281,0.281L-0.036,0.02Z" style="fill:rgb(63,38,19);fill-rule:nonzero;"/>
                </g>
                <g transform="matrix(1,0,0,1,847.297,1855.19)">
                    <path d="M0,-0.743L-1.252,-0.541L-2.362,-0.337L-3.582,0.001L4.494,0.071L5.16,0.018L0.782,0.018L0.782,-0.814L0,-0.743Z" style="fill:rgb(63,38,19);fill-rule:nonzero;"/>
                </g>
                <g transform="matrix(1,0,0,1,869.018,1855.23)">
                    <path d="M0,-0.902L-0.716,-0.866L-2.267,-0.601L-3.684,-0.037L-4.452,0.033L4.903,-0.037L4.328,-0.376L3.623,-0.58L2.771,-0.782L1.652,-0.907L0.99,-0.896L0.99,-0.925L0.644,-0.935L0,-0.902Z" style="fill:rgb(63,38,19);fill-rule:nonzero;"/>
                </g>
                <g transform="matrix(1,0,0,1,859.324,1695.96)">
                    <path d="M0,0.554L0.077,0.511L0.109,0L0,0.554Z" style="fill:rgb(63,38,19);fill-rule:nonzero;"/>
                </g>
                <g transform="matrix(1,0,0,1,853.864,1701.08)">
                    <path d="M0,-21.311L-0.62,-21.077L-1.339,-20.807L-2.207,-20.48L-2.439,-20.393L-2.647,-20.002L-4.142,-17.216L-2.214,-19.489L-4.142,-17.216L-4.575,-16.705L-4.72,-16.536L-4.945,-16.271L-4.984,-16.224L-3.631,-17.136L-1.033,-15.463L-0.786,-15.303L-0.694,-15.243L-0.077,-13.413L-0.074,-13.392L0.353,-12.129L0.381,-12.047L0.42,-11.931L0.631,-11.295L1.012,-10.165L1.269,-9.849L1.812,-9.18L2.069,-8.864L3.55,-8.207L3.997,-8.008L4.135,-7.946L4.9,-7.606L5.714,-7.244L9.694,-5.475L12.687,-1.48L13.392,-0.383L14.438,1.242L13.363,-3.16L12.669,-6.043L11.967,-8.946L11.59,-10.517L10.476,-16.363L6.828,-21.302L3.292,-22.553L0.042,-21.327L0,-21.311Z" style="fill:rgb(63,38,19);fill-rule:nonzero;"/>
                </g>
                <g transform="matrix(1,0,0,1,848.27,1704.99)">
                    <path d="M0,-0.13L0.987,1.489L0.113,-1.619L0,-0.13Z" style="fill:rgb(63,38,19);fill-rule:nonzero;"/>
                </g>
                <g transform="matrix(1,0,0,1,865.831,1690.51)">
                    <path d="M0,1.63L0.702,4.534L1.396,7.417L0.934,5.299L0.43,1.186L-1.491,-5.787L-0.377,0.06L0,1.63Z" style="fill:rgb(63,38,19);fill-rule:nonzero;"/>
                </g>
                <g transform="matrix(1,0,0,1,849.257,1701.75)">
                    <path d="M0,4.73L-0.987,3.111L-0.874,1.622L-0.92,1.458L-1.329,0L-1.375,4.498L-1.371,4.555L-0.772,4.631L0,4.73Z" style="fill:rgb(63,38,19);fill-rule:nonzero;"/>
                </g>
                <g transform="matrix(1,0,0,1,867.146,1707.51)">
                    <path d="M0,-2.335L-2.39,-2.208L-2.436,-2.18L-2.735,-1.994L-3.01,-1.824L-3.507,-1.515L-3.25,-1.33L-3.088,-1.213L-1.399,0L-1.061,-0.567L-1.001,-0.665L-0.758,-1.073L-0.18,-2.039L0,-2.335Z" style="fill:rgb(63,38,19);fill-rule:nonzero;"/>
                </g>
                <g transform="matrix(1,0,0,1,861.132,1704.17)">
                    <path d="M0,-0.358L0.106,0.063L0.412,1.298L0.423,1.313L0.737,1.406L0.909,0.752L1.033,0.284L1.22,-0.427L1.248,-0.541L-0.345,-1.764L-0.116,-0.838L0,-0.358Z" style="fill:rgb(63,38,19);fill-rule:nonzero;"/>
                </g>
                <g transform="matrix(0.952798,0.303604,0.303604,-0.952798,861.589,1705.46)">
                    <rect x="-0.005" y="-0.045" width="0.308" height="0.018" style="fill:rgb(63,38,19);"/>
                </g>
                <g transform="matrix(1,0,0,1,866.55,1699.94)">
                    <path d="M0,-0.332L-2.993,-4.327L-6.973,-6.096L-7.787,-6.458L-7.766,-6.344L-6.944,-5.293L-6.941,-5.259L-6.934,-5.267L-6.923,-4.561L-6.944,-4.207L-6.757,-4.058L-6.69,-3.83L-6.313,-3.58L-5.862,-3.445L-5.834,-3.441L-5.88,-3.362L-5.992,-3.295L-5.88,-3.362L-6.708,-3.023L-6.222,-3.187L-6.708,-3.023L-7.145,-3.152L-6.969,-2.259L-6.687,-0.81L-6.676,-0.761L-6.405,0.516L-6.031,2.269L-5.763,2.473L-4.17,3.696L-3.289,3.311L-4.17,3.696L-4.198,3.81L-4.385,4.521L-4.508,4.989L-4.681,5.643L-4.685,5.661L-4.723,5.809L-4.745,5.871L-4.741,5.873L-4.745,5.871L-4.794,6.076L-4.808,6.126L-4.692,6.097L-4.59,6.071L-4.466,6.04L-4.339,6.008L-3.923,5.903L-3.553,5.809L-2.675,5.587L-2.253,5.481L-1.893,5.39L-1.794,5.365L0.596,5.238L1.142,4.467L1.65,3.753L1.142,4.467L0.596,5.238L0.416,5.535L2.446,5.662L2.675,4.861L2.506,3.564L1.752,2.389L0.705,0.765L0,-0.332Z" style="fill:rgb(63,38,19);fill-rule:nonzero;"/>
                </g>
                <g transform="matrix(1,0,0,1,864.298,1706.09)">
                    <path d="M0,-0.671L-0.422,-0.564L-1.301,-0.343L-1.607,-0.265L-1,-0.086L-0.402,0.091L-0.658,-0.094L-0.162,-0.403L0.113,-0.573L0.412,-0.758L0.36,-0.762L0,-0.671Z" style="fill:rgb(63,38,19);fill-rule:nonzero;"/>
                </g>
                <g transform="matrix(1,0,0,1,866.389,1705.47)">
                    <path d="M0,0.965L2.608,0.127L0.578,0L0,0.965Z" style="fill:rgb(63,38,19);fill-rule:nonzero;"/>
                </g>
                <g transform="matrix(1,0,0,1,847.755,1678.54)">
                    <path d="M0,28.958L0.691,28.643L1.012,28.526L0.747,28.688L0.469,28.857L0.578,28.967L0.86,28.786L1.015,28.688L1.551,28.354L2.88,27.522L2.883,27.519L3.176,27.141L3.98,26.539L3.955,26.425L3.779,25.795L3.352,25.909L2.235,25.457L2.129,25.414L1.512,24.508L-0.134,20.379L-0.93,17.573L-1.086,17.017L-1.121,16.896L-1.089,16.129L-1.075,15.763L-1.068,15.654L-1.047,15.09L-1.026,14.608L-1.322,13.763L-1.516,12.898L-1.477,12.676L-1.202,11.032L-1.114,10.489L-0.966,9.971L-0.772,9.285L-0.606,9.199L-0.504,8.769L-0.606,9.199L-0.088,8.948L0.279,8.818L0.465,8.757L0.613,8.7L0.624,8.69L0.825,8.631L2.245,8.417L2.824,8.565L3.923,8.602L4.223,8.622L4.343,8.638L4.632,8.727L4.942,8.818L6.035,9.151L6.031,9.131L5.414,7.3L5.323,7.24L5.076,7.08L2.478,5.407L1.125,6.319L1.66,7.914L1.125,6.319L1.163,6.273L1.389,6.007L1.533,5.838L1.967,5.327L3.462,2.541L3.67,2.15L3.902,2.063L4.769,1.737L5.489,1.466L6.109,1.232L6.151,1.216L9.401,-0.009L6.631,0.533L4.523,-0.009L2.115,2.15L-1.999,3.931L-2.073,4.588L-1.766,4.478L-2.073,4.588L-2.489,4.739L-2.302,5.407L-2.489,4.739L-2.781,8.348L-3.07,13.073L-2.781,8.348L-2.489,4.739L-3.395,10.074L-3.247,15.086L-2.277,17.047L-2.083,16.466L-2.277,17.047L-1.565,17.037L0.173,23.206L0.582,24.664L0.628,24.828L1.502,27.936L0.73,27.837L0.13,27.761L-0.412,27.692L-0.307,28.022L-0.278,28.108L0,28.958Z" style="fill:rgb(63,38,19);fill-rule:nonzero;"/>
                </g>
                <g transform="matrix(1,0,0,1,849.324,1766.46)">
                    <path d="M0,4.815L0.056,4.878L0.374,5.235L0.511,5.392L-0.215,2.796L-0.338,1.613L-0.363,1.406L-0.233,1.293L0.141,0.963L1.502,-0.122L2.32,-0.287L2.468,-0.316L2.228,-0.307L0.987,-0.258L2.228,-0.307L2.468,-0.316L3.793,-0.368L3.835,-0.415L4.001,-0.612L4.498,-1.197L4.001,-0.612L4.311,-0.567L5.051,-0.46L6.951,-0.187L7.843,-0.058L7.991,-0.036L8.185,-0.008L7.991,-0.036L8.911,0.902L9.99,1.989L10.97,4.815L11.005,5.16L11.097,4.726L11.27,4.308L11.442,3.963L11.657,3.71L11.89,3.49L11.996,3.106L12.137,2.645L11.999,3.14L12.038,3.128L12.066,3.19L12.249,3.673L12.316,4.574L12.383,5.498L12.383,4.88L12.383,5.498L12.26,5.632L11.217,6.762L11.192,6.892L9.997,9.643L9.747,9.904L9.549,10.313L9.574,10.467L11.185,9.116L12.743,6.69L13.814,4.115L13.814,1.279L13.575,0.185L13.208,-1.501L10.822,-4.319L9.789,-4.948L8.774,-5.401L6.271,-5.366L6.211,-5.365L6.172,-5.342L6.144,-5.323L4.928,-4.585L6.144,-5.323L6.172,-5.342L6.211,-5.365L6.271,-5.366L8.774,-5.401L6.602,-5.652L5.534,-5.652L3.712,-5.401L2.595,-4.951L5.273,-5.365L2.595,-4.951L2.415,-4.922L1.431,-4.382L0.532,-3.314L-0.032,-2.344L-0.536,-1.198L-0.539,-1.197L-0.539,-1.19L-0.807,-0.585L-0.737,0.185L-0.402,3.898L0,4.815Z" style="fill:rgb(63,38,19);fill-rule:nonzero;"/>
                </g>
                <g transform="matrix(1,0,0,1,838.65,1733.85)">
                    <path d="M0,-12.641L0.412,-12.605L0.878,-12.564L2.383,-12.185L2.718,-12.099L3.493,-11.903L3.87,-11.878L4.11,-11.861L4.184,-11.856L4.614,-11.827L4.632,-11.941L4.632,-11.975L4.494,-13.211L4.315,-14.882L4.494,-13.211L4.632,-11.975L4.632,-11.941L4.639,-11.901L4.664,-11.619L5.287,-5.062L6.035,-0.967L6.518,8.918L4.491,15.06L4.871,15.234L7.247,13.739L8.012,13.258L8.661,13.036L10.367,12.452L12.538,11.709L16.501,11.278L17.375,11.182L17.671,11.214L18.905,11.349L22.215,11.709L24.925,12.636L26.741,13.258L28.041,14.077L30.128,15.39L30.847,15.06L28.82,8.918L29.303,-0.967L30.054,-5.062L30.678,-11.619L30.703,-11.901L30.706,-11.941L30.71,-11.975L30.844,-13.211L31.027,-14.882L30.844,-13.211L30.71,-11.975L30.706,-11.941L30.727,-11.827L31.158,-11.856L31.232,-11.861L31.471,-11.878L31.845,-11.903L32.62,-12.099L32.959,-12.185L34.464,-12.564L34.929,-12.605L35.342,-12.641L37.573,-12.836L37.619,-12.84L38.105,-12.882L38.095,-12.949L38.091,-12.954L37.083,-17.767L35.334,-22.797L33.121,-25.431L29.966,-26.278L27.495,-27.01L27.435,-26.912L27.097,-26.345L25.408,-27.558L25.246,-27.675L24.647,-27.853L24.04,-28.031L23.977,-28.015L23.561,-27.91L23.434,-27.878L24.798,-27.047L24.816,-27.036L24.862,-27.007L25.768,-26.457L25.655,-26.347L25.468,-26.157L23.395,-24.078L23.325,-24.045L23.075,-23.927L17.671,-21.403L12.267,-23.927L12.017,-24.045L11.946,-24.078L9.873,-26.157L9.683,-26.347L9.574,-26.457L9.852,-26.625L10.117,-26.788L9.796,-26.671L9.105,-26.356L9.094,-26.367L9.052,-26.497L8.827,-27.206L8.798,-27.291L5.376,-26.278L2.221,-25.431L0.007,-22.797L-1.741,-17.767L-2.75,-12.954L-2.753,-12.949L-2.764,-12.882L-2.281,-12.84L-2.231,-12.836L0,-12.641Z" style="fill:white;fill-rule:nonzero;"/>
                </g>
                <g transform="matrix(1,0,0,1,862.084,1817.71)">
                    <path d="M0,-6.03L-1.523,-6.03L-1.956,-5.928L-2.334,-5.84L-2.672,-5.761L-2.774,-5.737L-3,-5.685L-3.148,-5.36L-3.437,-4.742L-2.542,-2.32L-2.972,0L-2.376,-0.713L-2.034,-2.038L-1.318,-3.872L-2.034,-2.038L-1.103,-3.337L-0.698,-3.314L-0.261,-3.29L0.525,-3.246L-0.032,-3.95L0.525,-3.246L0.998,-3.22L1.198,-2.702L1.382,-5.486L0.955,-5.655L0.483,-5.84L0,-6.03Z" style="fill:white;fill-rule:nonzero;"/>
                </g>
                <g transform="matrix(1,0,0,1,849.119,1814.93)">
                    <path d="M0,-0.463L0.557,-1.167L0,-0.463L0.786,-0.507L1.223,-0.531L1.629,-0.553L2.559,0.745L1.844,-1.088L2.559,0.745L2.901,2.07L3.497,2.784L3.067,0.464L3.959,-1.959L3.673,-2.576L3.522,-2.901L3.3,-2.954L3.197,-2.978L2.859,-3.057L2.482,-3.145L2.048,-3.247L0.525,-3.247L0.042,-3.057L-0.43,-2.871L-0.86,-2.703L-0.673,0.081L-0.472,-0.437L0,-0.463Z" style="fill:white;fill-rule:nonzero;"/>
                </g>
                <g transform="matrix(0.883217,0.468965,0.468965,-0.883217,861.686,1705.68)">
                    <path d="M0.029,0.006L0.157,0.006L0.121,0.155L-0.185,0.099L0.029,0.006Z" style="fill:white;fill-rule:nonzero;"/>
                </g>
                <g transform="matrix(1,0,0,1,871.503,1834.22)">
                    <path d="M0,-6.267L-0.116,-6.048L-1.491,-3.465L-1.685,-3.103L-2.866,-1.336L-3.352,-0.613L-4.748,0.292L-4.96,0.431L-6.035,1.128L-5.735,1.552L-5.566,1.55L-5.33,1.547L-4.963,1.542L-3.944,1.503L-3.712,1.495L-3.469,1.486L-2.901,1.464L-1.946,1.449L-1.773,1.446L-1.755,1.446L-1.561,1.443L-0.694,1.428L-0.451,1.614L0.779,-7.881L0.014,-6.289L0,-6.267Z" style="fill:rgb(66,76,160);fill-rule:nonzero;"/>
                </g>
                <g transform="matrix(1,0,0,1,843.525,1830.15)">
                    <path d="M0,5.507L0.081,5.508L0.564,5.515L2.027,5.535L2.348,5.546L2.63,5.556L2.802,5.563L2.979,5.311L1.988,4.669L0.123,3.457L-0.176,3.013L-0.955,1.846L-1.512,1.016L-1.544,0.968L-2.154,-0.177L-1.297,5.684L-0.673,5.524L-0.578,5.499L0,5.507Z" style="fill:rgb(66,76,160);fill-rule:nonzero;"/>
                </g>
                <g transform="matrix(1,0,0,1,847.403,1800.78)">
                    <path d="M0,-1.356L0.194,-0.012L0.289,0.66L0.307,0.773L0.938,-0.824L1.72,-2.797L0.938,-0.824L0.307,0.773L0.102,1.283L1.354,-0.377L3.694,-1.176L7.406,0.307L8.051,2.823L8.048,2.743L8.044,2.623L7.893,-2.029L8.044,2.623L8.213,2.591L8.386,2.623L8.538,-2.029L8.386,2.623L8.379,2.743L8.379,2.823L9.024,0.307L12.736,-1.176L15.077,-0.377L16.328,1.283L16.123,0.773L15.492,-0.824L14.71,-2.797L15.492,-0.824L16.123,0.773L16.127,0.747L16.233,0.008L16.43,-1.356L16.363,-1.91L16.338,-2.13L15.714,-2.716L15.024,-3.126L14.773,-3.273L14.643,-3.351L14.315,-3.479L12.63,-3.708L12.81,-3.839L12.493,-3.902L12.017,-3.997L11.1,-4.179L10.441,-4.078L10.078,-4.16L8.792,-3.937L7.663,-3.74L7.209,-3.66L4.353,-3.97L4.138,-3.993L3.966,-3.946L3.606,-3.849L2.337,-3.509L2.242,-3.484L1.66,-3.23L1.399,-3.115L0.268,-2.621L0.099,-2.194L0.039,-1.685L0,-1.356Z" style="fill:rgb(66,76,160);fill-rule:nonzero;"/>
                </g>
                <g transform="matrix(1,0,0,1,860.139,1806.37)">
                    <path d="M0,-6.768L-3.712,-5.284L-4.357,-2.769L-4.033,-1.623L-3.479,-0.637L-3.303,-0.323L-3.278,-0.276L-2.834,-0.15L-2.309,0L-2.02,0L-2.002,-0.33L-2.637,-1.823L-2.506,-2.766L-2.238,-4.135L-1.283,-5.139L-0.698,-5.96L0.18,-5.951L1.625,-5.785L1.96,-5.351L2.277,-4.187L2.63,-2.977L2.475,-1.338L2.58,-1.041L3.099,-1.253L3.715,-2.634L3.775,-2.769L3.641,-3.892L3.592,-4.309L2.341,-5.969L0,-6.768Z" style="fill:rgb(66,76,160);fill-rule:nonzero;"/>
                </g>
                <g transform="matrix(1,0,0,1,854.491,1803.6)">
                    <path d="M0,2.543L1.124,2.244L1.255,2.279L1.346,2.303L2.235,2.539L3.116,2.772L3.338,2.772L2.813,2.622L2.369,2.496L2.344,2.45L2.168,2.135L1.615,1.15L1.29,0.003L1.29,-0.076L1.124,-0.229L0.959,-0.076L0.962,0.003L0.638,1.15L0.085,2.135L-0.092,2.45L-0.116,2.496L-0.56,2.622L-0.885,2.715L-0.885,2.772L-0.864,2.772L0,2.543Z" style="fill:rgb(66,76,160);fill-rule:nonzero;"/>
                </g>
                <g transform="matrix(1,0,0,1,854.375,1799.82)">
                    <path d="M0,6.273L0.025,6.227L0.201,5.912L0.754,4.927L1.079,3.78L0.434,1.265L-3.278,-0.219L-5.619,0.581L-6.87,2.24L-7.053,3.78L-6.803,4.343L-6.377,5.296L-5.432,5.686L-5.263,5.211L-5.414,3.573L-5.062,2.363L-4.745,1.198L-4.41,0.765L-2.968,0.599L-2.087,0.589L-1.502,1.41L-0.55,2.415L-0.282,3.783L-0.148,4.726L-0.782,6.22L-0.769,6.492L-0.444,6.399L0,6.273Z" style="fill:rgb(66,76,160);fill-rule:nonzero;"/>
                </g>
                <g transform="matrix(1,0,0,1,869.31,1749.6)">
                    <path d="M0,-0.022L0.656,0.666L0.187,-0.688L-0.532,-0.358L0,-0.022Z" style="fill:rgb(66,76,160);fill-rule:nonzero;"/>
                </g>
                <g transform="matrix(1,0,0,1,836.306,1746.45)">
                    <path d="M0,15.128L0.067,14.815L0.793,11.404L0.895,11.221L1.209,10.661L2.866,7.712L2.993,7.583L3.673,6.907L6.024,4.559L6.158,4.478L9.2,2.666L10.067,2.15L10.184,2.112L13.423,1.063L14.731,0.639L14.801,0.632L18.037,0.298L19.719,0.125L21.404,0.298L24.64,0.632L24.707,0.639L26.018,1.063L29.258,2.112L29.374,2.15L30.241,2.666L33.279,4.478L33.417,4.559L35.768,6.907L36.449,7.583L36.575,7.712L38.232,10.661L38.546,11.221L38.648,11.404L39.374,14.815L39.441,15.128L39.498,15.398L39.498,15.004L38.786,11.659L38.782,11.638L38.733,11.413L38.648,11.01L38.599,10.923L38.567,10.865L38.497,10.738L38.423,10.61L37.989,9.836L37.918,9.711L37.435,8.847L37.361,8.715L37.164,8.365L37.069,8.196L36.826,7.763L36.642,7.435L36.614,7.385L36.575,7.318L35.43,6.173L33.417,4.165L32.962,3.893L31.552,3.053L29.374,1.756L29.042,1.648L26.97,0.977L24.707,0.245L24.534,0.227L22.098,-0.024L19.719,-0.27L17.343,-0.024L14.907,0.227L14.731,0.245L12.471,0.977L10.399,1.648L10.067,1.756L7.889,3.053L6.479,3.893L6.024,4.165L4.011,6.173L3.402,6.783L2.866,7.318L2.728,7.559L2.637,7.723L2.535,7.908L2.073,8.732L2.059,8.756L1.699,9.398L1.643,9.493L1.544,9.672L1.533,9.691L1.184,10.31L1.142,10.389L1.04,10.569L0.962,10.71L0.793,11.01L0.768,11.134L0.733,11.296L0.536,12.214L-0.056,15.004L-0.056,15.398L0,15.128Z" style="fill:rgb(66,76,160);fill-rule:nonzero;"/>
                </g>
                <g transform="matrix(1,0,0,1,872.585,1745.6)">
                    <path d="M0,7.602L-0.18,7.265L-0.208,7.209L-0.236,7.178L-0.406,7.001L-0.501,6.899L-0.705,6.685L-1.079,6.291L-1.692,5.644L-2.619,4.667L-3.275,3.979L-3.426,3.882L-3.807,3.643L-5.894,2.33L-7.195,1.51L-9.01,0.889L-11.721,-0.038L-15.031,-0.399L-16.264,-0.533L-16.56,-0.565L-17.435,-0.47L-21.397,-0.038L-23.568,0.705L-25.274,1.288L-25.923,1.51L-26.688,1.992L-29.064,3.487L-29.265,3.613L-29.624,3.84L-29.846,3.979L-30.89,5.079L-30.911,5.103L-32.236,6.498L-32.3,6.565L-32.434,6.707L-32.441,6.714L-32.627,6.913L-32.758,7.05L-32.909,7.209L-33.16,7.682L-33.202,7.759L-33.414,8.167L-32.878,7.632L-32.268,7.023L-30.255,5.015L-29.8,4.743L-28.39,3.903L-26.212,2.606L-25.881,2.498L-23.808,1.827L-21.548,1.095L-21.372,1.077L-18.936,0.826L-16.56,0.58L-14.181,0.826L-11.745,1.077L-11.573,1.095L-9.31,1.827L-7.237,2.498L-6.906,2.606L-4.727,3.903L-3.317,4.743L-2.862,5.015L-0.85,7.023L-0.24,7.632L0.296,8.167L0.095,7.781L0,7.602Z" style="fill:rgb(66,76,160);fill-rule:nonzero;"/>
                </g>
                <g transform="matrix(0.84588,-0.533374,-0.533374,-0.84588,843.145,1749.55)">
                    <path d="M-0.098,0.19L0.328,0.19L0.565,0.191L0.336,0.542L-0.098,0.19Z" style="fill:rgb(66,76,160);fill-rule:nonzero;"/>
                </g>
                <g transform="matrix(1,0,0,1,850.639,1832.95)">
                    <path d="M0,0.306L0.265,0.387L0.275,-0.081L0,0.306Z" style="fill:rgb(66,76,160);fill-rule:nonzero;"/>
                </g>
                <g transform="matrix(-0.027621,0.999618,0.999618,0.027621,851.877,1828.32)">
                    <path d="M-0.707,-0.832L0.814,-0.832L0.692,-0.751L-0.711,-0.688L-0.707,-0.832Z" style="fill:rgb(66,76,160);fill-rule:nonzero;"/>
                </g>
                <g transform="matrix(1,0,0,1,845.115,1828.45)">
                    <path d="M0,2.155L0.219,2.297L1.703,3.259L2.418,3.724L2.742,3.934L3.43,4.15L3.712,3.753L4.336,2.874L5.154,1.726L5.908,0.666L5.95,-0.854L5.531,-0.854L5.531,-1.983L0.427,-1.983L0.37,-1.995L0.042,-1.641L-0.483,-1.074L-0.941,-0.354L-1.301,0.21L-1.086,0.533L0,2.155Z" style="fill:rgb(66,76,160);fill-rule:nonzero;"/>
                </g>
                <g transform="matrix(1,0,0,1,864.333,1832.53)">
                    <path d="M1.992,-6.068L-2.58,-6.068L-2.245,-1.933L-1.963,-1.537L-1.671,-1.126L-1.124,-0.355L-0.871,0L-0.391,-0.151L0.162,-0.51L0.927,-1.005L2.224,-1.848L2.351,-1.93L3.37,-3.453L3.652,-3.875L3.49,-4.132L2.834,-5.159L2.242,-5.798L1.992,-6.068Z" style="fill:rgb(66,76,160);fill-rule:nonzero;"/>
                </g>
                <g transform="matrix(1,0,0,1,849.637,1855.21)">
                    <rect x="-1.558" y="-14.72" width="4.378" height="14.72" style="fill:rgb(142,142,142);fill-rule:nonzero;"/>
                </g>
                <g transform="matrix(1,0,0,1,852.457,1854.77)">
                    <path d="M0,-2.909L0,-1.922L0.067,-1.843L0,-1.775L0,0.099L0.261,0.416L0.642,-1.551L0.205,-2.871L0,-2.909Z" style="fill:rgb(142,142,142);fill-rule:nonzero;"/>
                </g>
                <g transform="matrix(1,0,0,1,846.046,1852.47)">
                    <path d="M0,2.181L1.251,1.979L2.034,1.908L2.034,-0.612L1.163,-0.44L0.744,-0.357L0.141,-0.183L-0.55,0.016L-1.121,0.181L-1.445,0.289L-1.636,0.353L-2.214,0.546L-2.263,0.563L-2.305,0.577L-2.552,0.659L-3.077,2.793L-2.975,2.793L-2.33,2.723L-1.111,2.385L0,2.181Z" style="fill:rgb(142,142,142);fill-rule:nonzero;"/>
                </g>
                <g transform="matrix(1,0,0,1,871.19,1854.35)">
                    <path d="M0,-1.958L-0.846,-2.262L-0.867,-2.266L-1.533,-2.398L-2.468,-2.584L-2.788,-2.648L-3.123,-2.693L-3.712,-2.773L-4.251,-2.845L-4.431,-2.87L-5.206,-2.706L-5.397,-2.665L-5.524,-2.62L-5.58,-2.626L-5.982,-2.541L-5.989,-2.54L-6.257,-2.526L-6.958,-2.489L-7.47,-2.462L-7.47,0.86L-9.172,0.86L-9.183,0.912L-6.624,0.912L-5.855,0.843L-4.438,0.279L-2.887,0.013L-2.172,-0.022L-1.526,-0.054L-1.181,-0.045L-0.518,-0.027L0.599,0.098L1.452,0.3L2.157,0.505L2.732,0.843L2.482,-0.801L1.935,-1.177L0.842,-1.656L0.37,-1.826L0.176,-1.896L0,-1.958Z" style="fill:rgb(142,142,142);fill-rule:nonzero;"/>
                </g>
                <g transform="matrix(1,0,0,1,870.009,1854.3)">
                    <path d="M0,0.029L0.662,0.018L0,0L0,0.029Z" style="fill:rgb(142,142,142);fill-rule:nonzero;"/>
                </g>
                <g transform="matrix(1,0,0,1,863.501,1840.49)">
                    <rect x="-4.156" y="0" width="4.374" height="14.72" style="fill:rgb(142,142,142);fill-rule:nonzero;"/>
                </g>
                <g transform="matrix(1,0,0,1,871.934,1751.48)">
                    <path d="M0,-1.189L-0.008,-0.971L0.137,0.108L0.2,-0.777L0.006,-1.297L0,-1.189Z" style="fill:rgb(142,142,142);fill-rule:nonzero;"/>
                </g>
                <g transform="matrix(1,0,0,1,873.072,1750.7)">
                    <path d="M0,-0.539L-0.798,-0.525L-0.853,-0.525L-1.132,-0.52L-0.938,0L0.214,-0.019L0.2,-0.06L0.016,-0.539L0,-0.539Z" style="fill:rgb(142,142,142);fill-rule:nonzero;"/>
                </g>
                <g transform="matrix(1,0,0,1,872.349,1750.77)">
                    <path d="M0,2.011L0.028,2.041L0.056,2.098L0.782,1.714L1.103,1.524L1.255,1.433L0.987,0.143L0.98,0.103L0.937,-0.087L-0.215,-0.068L-0.233,1.218L-0.085,1.186L0.028,1.16L0.113,1.133L0.127,1.168L0.148,1.464L0.144,1.675L-0.025,1.768L0,2.011Z" style="fill:rgb(142,142,142);fill-rule:nonzero;"/>
                </g>
                <g transform="matrix(1,0,0,1,838.841,1754.15)">
                    <path d="M0,0.214L0.101,0.029L-0.318,0L0,0.214Z" style="fill:rgb(142,142,142);fill-rule:nonzero;"/>
                </g>
                <g transform="matrix(1,0,0,1,838.526,1750.22)">
                    <path d="M0,0.427L-0.004,0.432L-0.014,0.464L1.139,0.483L1.333,-0.037L1.061,-0.042L0.184,-0.056L0,0.427Z" style="fill:rgb(142,142,142);fill-rule:nonzero;"/>
                </g>
                <g transform="matrix(1,0,0,1,839.894,1751.8)">
                    <path d="M0,-0.766L-0.014,-1.164L-0.025,-1.389L-0.035,-1.618L-0.229,-1.099L-1.382,-1.118L-1.403,-1.018L-1.484,-0.634L-1.572,-0.234L-1.611,-0.047L-1.653,0.182L-1.516,0.21L-1.008,0.313L-0.409,0.668L-0.384,0.683L-0.201,0.78L-0.085,0.842L-0.067,0.852L0.063,0.715L0,-0.766Z" style="fill:rgb(142,142,142);fill-rule:nonzero;"/>
                </g>
                <g transform="matrix(1,0,0,1,877.178,1838.51)">
                    <path d="M0.547,-0.921L-3.31,-0.921L-1.537,0L2.986,0L0.547,-0.921Z" style="fill:rgb(142,142,142);fill-rule:nonzero;"/>
                </g>
                <g transform="matrix(-0.887618,-0.46058,-0.46058,0.887618,873.926,1838.27)">
                    <path d="M-1.631,-0.582L0.366,-0.582L-0.566,1.215L-1.1,0.316L-1.631,-0.582Z" style="fill:rgb(142,142,142);fill-rule:nonzero;"/>
                </g>
                <g transform="matrix(1,0,0,1,873.615,1840.3)">
                    <path d="M0,2.326L0.141,2.599L0.141,3.567L1.142,-1.241L0.254,-0.689L-0.497,1.706L-0.166,2.014L0,2.326Z" style="fill:rgb(142,142,142);fill-rule:nonzero;"/>
                </g>
                <g transform="matrix(1,0,0,1,832.524,1788.09)">
                    <path d="M0,9.366L0,9.363L0.36,9.553L0.546,9.65L0.821,7.761L0.895,7.11L0.892,6.495L0.501,6.295L2.351,6.295L2.351,1.708L2.348,1.299L2.263,1.46L2.249,1.708L2.224,2.196L2.249,1.708L2.263,1.46L2.333,0.101L2.333,-0.293L2.252,1.258L2.238,1.503L2.252,1.258L-1.1,1.258L-1.1,7.974L-1.036,7.974L-0.987,7.524L-0.878,6.495L-0.987,7.524L-1.036,7.974L-1.223,9.659L-0.673,9.366L0,9.366Z" style="fill:rgb(142,142,142);fill-rule:nonzero;"/>
                </g>
                <g transform="matrix(1,0,0,1,832.848,1789.35)">
                    <path d="M0,-0.988L-0.55,-0.698L-0.628,0L1.208,0L1.216,-0.057L1.22,-0.098L1.22,-0.698L0.669,-0.988L0,-0.988Z" style="fill:rgb(142,142,142);fill-rule:nonzero;"/>
                </g>
                <g transform="matrix(1,0,0,1,874.358,1847.75)">
                    <path d="M0,1.01L-1.022,1.997L-1.022,2.115L0.402,2.115L0.402,-1.105L0,-1.105L0,1.01Z" style="fill:rgb(142,142,142);fill-rule:nonzero;"/>
                </g>
                <g transform="matrix(1,0,0,1,874.76,1845.83)">
                    <rect x="0" y="-5.341" width="4.378" height="14.72" style="fill:rgb(142,142,142);fill-rule:nonzero;"/>
                </g>
                <g transform="matrix(1,0,0,1,873.089,1845.89)">
                    <path d="M0,1.79L-0.941,1.79L-1.607,1.147L-1.607,-0.593L-2.009,-0.206L-2.21,-0.011L-2.21,1.396L-1.188,2.383L0.247,2.383L1.269,1.396L1.269,-0.011L0.666,-0.593L0.666,1.147L0,1.79Z" style="fill:rgb(142,142,142);fill-rule:nonzero;"/>
                </g>
                <g transform="matrix(1,0,0,1,874.358,1849.53)">
                    <path d="M0,-0.772L0,-2.247L-1.022,-1.26L-2.457,-1.26L-3.479,-2.247L-3.479,-0.772L-2.457,0.215L-2.457,1.475L-1.022,1.475L-1.022,0.215L0,-0.772Z" style="fill:rgb(142,142,142);fill-rule:nonzero;"/>
                </g>
                <g transform="matrix(1,0,0,1,879.579,1797.75)">
                    <path d="M1.05,-8.401L-2.302,-8.401L-2.288,-8.156L-2.288,-7.951L-2.274,-7.463L-2.298,-7.951L-2.312,-8.198L-2.397,-8.359L-2.401,-7.951L-2.401,-3.364L-0.804,-3.364L-1.195,-3.164L-1.198,-2.548L-1.124,-1.902L-0.853,-0.027L-0.85,-0.008L-0.303,-0.295L0.37,-0.296L0.37,-0.293L0.92,0L0.737,-1.685L0.687,-2.135L0.575,-3.164L0.687,-2.135L0.737,-1.685L1.05,-1.685L1.05,-8.401Z" style="fill:rgb(142,142,142);fill-rule:nonzero;"/>
                </g>
                <g transform="matrix(1,0,0,1,878.278,1789.34)">
                    <path d="M0,-1.002L-0.546,-0.712L-0.546,-0.071L-0.536,0L1.301,0L1.223,-0.712L0.673,-1.002L0,-1.002Z" style="fill:rgb(142,142,142);fill-rule:nonzero;"/>
                </g>
                <g transform="matrix(1,0,0,1,841.178,1810.21)">
                    <path d="M0,7.42L-3.761,-2.548L-4.357,-2.848L-0.585,7.145L0.807,10.04L1.375,10.268L0,7.42Z" style="fill:rgb(142,142,142);fill-rule:nonzero;"/>
                </g>
                <g transform="matrix(1,0,0,1,871.207,1810.48)">
                    <path d="M0,6.871L3.772,-3.123L3.176,-2.822L-0.585,7.146L-1.96,9.994L-1.392,9.766L0,6.871Z" style="fill:rgb(142,142,142);fill-rule:nonzero;"/>
                </g>
                <g transform="matrix(1,0,0,1,859.229,1820.71)">
                    <path d="M7.938,0.613L-14.597,0.613L-16.677,-0.228L-17.244,-0.456L-14.946,1.069L8.287,1.069L10.585,-0.456L10.018,-0.228L7.938,0.613Z" style="fill:rgb(142,142,142);fill-rule:nonzero;"/>
                </g>
                <g transform="matrix(1,0,0,1,847.064,1800.17)">
                    <path d="M0,-5.618L-0.317,-5.501L-6.461,-3.212L-7.085,-2.98L-8.816,-2.336L-8.841,-2.326L-8.848,0L-8.611,-0.088L-6.69,-0.803L-6.253,-0.966L-0.229,-3.209L0.367,-3.431L0,-5.618Z" style="fill:rgb(142,142,142);fill-rule:nonzero;"/>
                </g>
                <g transform="matrix(1,0,0,1,861.69,1780.13)">
                    <path d="M0,-1.614L-0.511,-0.786L-0.557,-0.717L-0.557,-0.712L-0.567,-0.697L-0.73,-0.434L-1.653,1.061L-2.097,1.781L-2.943,3.154L-3.088,3.386L-3.479,4.714L-3.525,4.879L-4.385,7.808L-4.649,8.712L-5.541,11.752L-2.806,11.752L-2.806,11.877L-2.735,11.688L-2.298,10.492L-1.389,8.01L-1.209,7.52L-0.744,6.251L-0.666,6.044L-0.331,5.131L-0.116,4.781L0.98,3.004L1.308,2.473L1.516,2.136L1.879,1.546L2.186,1.048L2.39,0.718L2.45,0.621L2.753,0.131L12.338,-13.491L8.915,-13.477L0,-1.614Z" style="fill:rgb(142,142,142);fill-rule:nonzero;"/>
                </g>
                <g transform="matrix(1,0,0,1,855.62,1795.46)">
                    <rect x="-2.704" y="-3.573" width="5.968" height="3.573" style="fill:rgb(142,142,142);fill-rule:nonzero;"/>
                </g>
                <g transform="matrix(1,0,0,1,852.916,1796.62)">
                    <path d="M0,-3.358L-1.336,-3.266L-2.598,-3.178L-3.518,-2.883L-3.761,-2.805L-4.392,-2.603L-4.477,-2.576L-4.84,-2.44L-5.164,-0.065L-5.15,0L-5.069,-0.03L-4.48,-0.249L-3.613,-0.527L-2.601,-0.851L-2.224,-0.878L0,-1.032L0,-3.358Z" style="fill:rgb(142,142,142);fill-rule:nonzero;"/>
                </g>
                <g transform="matrix(1,0,0,1,865.137,1796.78)">
                    <path d="M0,-1.425L-0.014,-1.539L-0.138,-1.621L-0.212,-1.673L-0.268,-1.71L-1.223,-2.358L-1.551,-2.581L-1.78,-2.736L-2.034,-2.818L-2.319,-2.909L-3.236,-3.203L-3.444,-3.269L-3.659,-3.339L-5.633,-3.475L-6.253,-3.518L-6.253,-1.193L-4.741,-1.088L-3.652,-1.012L-3.345,-0.914L-2.08,-0.508L-1.773,-0.409L-1.692,-0.355L-1.488,-0.215L-1.435,-0.309L-1.357,-0.128L-1.315,-0.1L-1.001,0.114L-0.881,0.195L1.917,2.093L0.222,-0.902L0,-1.425Z" style="fill:rgb(142,142,142);fill-rule:nonzero;"/>
                </g>
                <g transform="matrix(1,0,0,1,847.258,1779.32)">
                    <path d="M0,0.018L0.814,0.326L0.842,0.476L0.849,0.517L0.641,0.77L0.455,0.721L0.197,0.655L-0.028,0.67L-0.092,0.674L0.053,0.881L0.099,0.946L0.278,1.241L0.603,1.309L0.62,1.529L0.705,1.551L0.715,1.948L0.804,2.087L0.835,2.142L1.153,2.655L1.251,2.814L1.533,3.27L1.568,3.327L2.178,4.319L3.162,5.908L3.183,5.947L3.476,6.738L3.828,7.703L4.322,9.049L4.942,10.742L5.242,11.56L5.658,12.693L5.658,12.568L8.393,12.568L7.501,9.528L7.008,7.836L6.377,5.69L6.236,5.211L5.94,4.202L5.82,4.006L4.575,1.989L4.29,1.527L3.525,0.287L3.275,-0.115L3.229,-0.192L3.19,-0.251L2.852,-0.798L-6.063,-12.661L-9.482,-12.675L-0.627,-0.084L-0.349,-0.039L0,0.018Z" style="fill:rgb(142,142,142);fill-rule:nonzero;"/>
                </g>
                <g transform="matrix(1,0,0,1,852.916,1795.71)">
                    <rect x="0" y="-0.251" width="5.967" height="0.251" style="fill:rgb(142,142,142);fill-rule:nonzero;"/>
                </g>
                <g transform="matrix(1,0,0,1,857.586,1838.31)">
                    <path d="M0,-0.531L0,0.183L1.897,-0.714L0,-0.531Z" style="fill:rgb(142,142,142);fill-rule:nonzero;"/>
                </g>
                <g transform="matrix(1,0,0,1,855.901,1832.12)">
                    <path d="M0,1.851L4.293,1.439L3.306,0L0,0.844L-3.31,0L-4.297,1.439L0,1.851Z" style="fill:rgb(142,142,142);fill-rule:nonzero;"/>
                </g>
                <g transform="matrix(1,0,0,1,858.422,1848.38)">
                    <rect x="-5.044" y="-1.518" width="5.044" height="2.024" style="fill:rgb(142,142,142);fill-rule:nonzero;"/>
                </g>
                <g transform="matrix(1,0,0,1,855.902,1835.17)">
                    <path d="M0,0.004L-4.806,-0.458L-4.806,0L0,0.462L4.801,0L4.801,-0.458L0,0.004Z" style="fill:rgb(142,142,142);fill-rule:nonzero;"/>
                </g>
                <g transform="matrix(1,0,0,1,0,984.105)">
                    <rect x="852.764" y="864.786" width="0.614" height="0.413" style="fill:rgb(142,142,142);"/>
                </g>
                <g transform="matrix(1,0,0,1,855.901,1839.02)">
                    <path d="M0,-1.08L-1.689,-1.242L-1.689,0.162L1.685,0.162L1.685,-1.242L0,-1.08Z" style="fill:rgb(142,142,142);fill-rule:nonzero;"/>
                </g>
                <g transform="matrix(1,0,0,1,867.703,1836.16)">
                    <path d="M0,-7.077L-1.019,-5.554L-1.146,-5.472L-2.443,-4.629L-3.208,-4.134L-3.761,-3.775L-4.24,-3.624L-4.808,-3.446L-5.658,-3.178L-6.292,-2.98L-6.338,-2.965L-7.508,-2.596L-11.802,-2.184L-16.099,-2.596L-16.8,-2.818L-17.065,-2.9L-17.107,-2.914L-17.741,-3.113L-18.591,-3.38L-19.158,-3.559L-19.846,-3.775L-20.17,-3.984L-20.886,-4.45L-22.37,-5.412L-22.588,-5.554L-23.674,-7.176L-23.889,-7.499L-24.086,-7.791L-24.594,-7.943L-25.214,-7.773L-25.722,-7.343L-25.722,-5.036L-25.69,-4.987L-25.133,-4.157L-24.354,-2.99L-24.055,-2.546L-22.19,-1.334L-21.199,-0.692L-20.857,-0.47L-20.695,-0.42L-19.846,-0.153L-19.215,0.046L-19.169,0.06L-18.623,0.233L-18.312,0.329L-17.223,0.672L-16.606,0.866L-16.606,-1.441L-11.802,-0.98L-7.001,-1.441L-7.001,0.866L-6.225,0.622L-5.139,0.28L-4.829,0.183L-4.23,-0.004L-4.184,-0.019L-3.553,-0.218L-2.75,-0.47L-2.711,-0.495L-2.235,-0.804L-1.16,-1.502L-0.948,-1.64L0.448,-2.546L0.934,-3.269L2.115,-5.036L2.115,-7.343L1.607,-7.773L0.987,-7.943L0.479,-7.791L0.282,-7.499L0,-7.077Z" style="fill:rgb(142,142,142);fill-rule:nonzero;"/>
                </g>
                <g transform="matrix(1,0,0,1,860.703,1835.72)">
                    <path d="M0,1.761L0,-0.546L-4.801,-0.085L-9.606,-0.546L-9.606,1.761L-9.532,1.768L-8.647,1.853L-8.386,1.878L-6.49,2.061L-4.801,2.222L-3.116,2.061L-1.22,1.878L-0.747,1.833L0,1.761Z" style="fill:rgb(142,142,142);fill-rule:nonzero;"/>
                </g>
                <g transform="matrix(1,0,0,1,0,984.105)">
                    <rect x="858.422" y="864.786" width="0.614" height="0.413" style="fill:rgb(142,142,142);"/>
                </g>
                <g transform="matrix(1,0,0,1,855.901,1848.89)">
                    <path d="M3.134,-9.706L-3.137,-9.706L-3.137,0L-2.524,0L-2.524,-9.016L2.52,-9.016L2.52,0L3.134,0L3.134,-9.706Z" style="fill:rgb(142,142,142);fill-rule:nonzero;"/>
                </g>
                <g transform="matrix(1,0,0,1,854.213,1837.6)">
                    <path d="M0,0.896L0,0.182L-1.897,0L0,0.896Z" style="fill:rgb(142,142,142);fill-rule:nonzero;"/>
                </g>
                <g transform="matrix(1,0,0,1,869.938,1798.16)">
                    <path d="M0,1.858L-0.004,0.34L-0.503,0L0,1.858Z" style="fill:rgb(142,142,142);fill-rule:nonzero;"/>
                </g>
                <g transform="matrix(1,0,0,1,861.407,1824.77)">
                    <path d="M0,1.697L4.917,1.697L4.36,1.097L4.174,0.894L3.024,0.249L2.58,0L0.652,0L0.236,0.249L0,0.39L0,1.697Z" style="fill:rgb(142,142,142);fill-rule:nonzero;"/>
                </g>
                <g transform="matrix(1,0,0,1,859.659,1825.56)">
                    <path d="M0,3.841L0,2.036L1.748,2.036L1.748,-0.4L0.793,0.173L-0.25,2.369L-0.338,4.241L-0.088,3.944L0,3.841Z" style="fill:rgb(142,142,142);fill-rule:nonzero;"/>
                </g>
                <g transform="matrix(1,0,0,1,845.711,1824.77)">
                    <path d="M-0.155,1.697L4.935,1.697L4.935,0.542L4.445,0.249L4.029,0L2.101,0L1.657,0.249L0.508,0.894L0.321,1.097L-0.145,1.598L-0.155,1.697Z" style="fill:rgb(142,142,142);fill-rule:nonzero;"/>
                </g>
                <g transform="matrix(1,0,0,1,850.646,1826.44)">
                    <path d="M0,-1.129L0,1.155L1.586,1.155L0.702,-0.708L0,-1.129Z" style="fill:rgb(142,142,142);fill-rule:nonzero;"/>
                </g>
                <g transform="matrix(-0.887618,0.46058,0.46058,0.887618,836.977,1839.91)">
                    <path d="M-2.139,-1.502L-0.142,-1.502L-0.673,-0.604L-1.207,0.295L-2.139,-1.502Z" style="fill:rgb(142,142,142);fill-rule:nonzero;"/>
                </g>
                <g transform="matrix(1,0,0,1,838.298,1840.03)">
                    <path d="M0,2.872L0.141,2.599L0.307,2.287L0.634,1.979L-0.113,-0.416L-1.001,-0.968L0,3.84L0,2.872Z" style="fill:rgb(142,142,142);fill-rule:nonzero;"/>
                </g>
                <g transform="matrix(1,0,0,1,836.419,1838.51)">
                    <path d="M1.765,-0.921L-2.091,-0.921L-4.529,0L-0.008,0L1.765,-0.921Z" style="fill:rgb(142,142,142);fill-rule:nonzero;"/>
                </g>
                <g transform="matrix(1,0,0,1,837.695,1847.75)">
                    <path d="M0,1.01L0,-1.105L-0.465,-1.105L-0.465,2.115L1.022,2.115L1.022,1.997L0,1.01Z" style="fill:rgb(142,142,142);fill-rule:nonzero;"/>
                </g>
                <g transform="matrix(1,0,0,1,838.717,1850.02)">
                    <path d="M0,-1.748L-1.022,-2.735L-1.022,-1.26L0,-0.273L0,0.987L1.435,0.987L1.435,-0.273L2.457,-1.26L2.457,-2.735L1.435,-1.748L0,-1.748Z" style="fill:rgb(142,142,142);fill-rule:nonzero;"/>
                </g>
                <g transform="matrix(1,0,0,1,841.174,1847.69)">
                    <path d="M0,-1.813L-0.201,-2.007L-0.603,-2.394L-0.603,-0.655L-1.269,-0.012L-2.21,-0.012L-2.876,-0.655L-2.876,-2.394L-3.479,-1.813L-3.479,-0.406L-2.457,0.581L-1.022,0.581L0,-0.406L0,-1.813Z" style="fill:rgb(142,142,142);fill-rule:nonzero;"/>
                </g>
                <g transform="matrix(1,0,0,1,837.229,1849.05)">
                    <rect x="-4.378" y="-8.562" width="4.378" height="14.721" style="fill:rgb(142,142,142);fill-rule:nonzero;"/>
                </g>
                <g transform="matrix(1,0,0,1,873.643,1754.62)">
                    <path d="M0,-0.444L-0.511,-0.409L-0.268,0.025L0.028,-0.175L0.377,-0.412L0.366,-0.469L0,-0.444Z" style="fill:rgb(142,142,142);fill-rule:nonzero;"/>
                </g>
                <g transform="matrix(1,0,0,1,870.879,1841.82)">
                    <path d="M0,4.061L0.201,3.867L0.603,3.48L0.603,2.013L0.561,1.934L0.279,1.538L0.141,1.428L-0.927,0.82L-1.216,0.655L-2.57,-0.031L-3.782,-0.645L-3.87,-0.69L-3.06,0.448L-2.633,1.049L-2.587,1.113L-2.577,1.128L0,4.751L0,4.061Z" style="fill:rgb(221,221,221);fill-rule:nonzero;"/>
                </g>
                <g transform="matrix(1,0,0,1,864.954,1838.62)">
                    <path d="M0,-2.931L-0.804,-2.679L-1.435,-2.479L-1.48,-2.465L-1.399,-2.35L-1.322,-2.241L-0.938,-1.698L-0.849,-1.654L0.363,-1.04L1.988,-0.217L3.074,0.334L2.461,-0.527L1.946,-1.254L1.156,-2.361L0.931,-2.679L0.814,-2.841L0.515,-3.265L0.039,-2.956L0,-2.931Z" style="fill:rgb(221,221,221);fill-rule:nonzero;"/>
                </g>
                <g transform="matrix(1,0,0,1,871.439,1843.35)">
                    <path d="M0,0.397L-0.151,0.103L-0.281,0L0,0.397Z" style="fill:rgb(221,221,221);fill-rule:nonzero;"/>
                </g>
                <g transform="matrix(1,0,0,1,868.898,1844.63)">
                    <path d="M0,-5.232L-0.511,-5.491L-0.871,-5.674L-1.956,-6.225L-3.581,-7.048L-4.794,-7.662L-4.882,-7.707L-5.267,-7.902L-5.337,-7.937L-6.024,-8.286L-6.335,-8.188L-7.42,-7.847L-8.196,-7.603L-8.196,-7.145L-8.943,-7.073L-5.284,-5.22L-5.27,-5.211L-5.108,-5.13L-4.459,-4.802L-4.276,-4.709L-3.317,-4.222L-3.243,-4.185L-1.96,-3.534L-1.949,-3.529L-1.89,-3.498L-1.801,-3.454L-0.589,-2.84L0.765,-2.154L1.054,-1.988L2.122,-1.38L2.259,-1.27L2.39,-1.168L2.964,-0.707L2.39,-1.168L2.542,-0.874L2.584,-0.796L2.584,2.411L3.25,3.054L4.191,3.054L4.857,2.411L4.857,-1.725L4.716,-1.997L4.551,-2.31L4.219,-2.617L4.191,-2.646L3.898,-2.916L3.038,-3.607L1.653,-4.395L0.13,-5.167L0.053,-5.207L0,-5.232Z" style="fill:rgb(221,221,221);fill-rule:nonzero;"/>
                </g>
                <g transform="matrix(1,0,0,1,876.47,1781.94)">
                    <path d="M0,-7.875L0.141,-5.2L0.278,-2.595L0.342,-1.397L0.913,3.994L1.262,6.693L1.808,6.403L2.481,6.403L3.032,6.693L1.766,-5.276L-0.352,-14.568L-0.204,-11.756L0,-7.875Z" style="fill:rgb(221,221,221);fill-rule:nonzero;"/>
                </g>
                <g transform="matrix(1,0,0,1,878.342,1822.44)">
                    <path d="M0,-10.37L-0.966,-7.811L-1.551,-6.258L-1.59,-5.444L-2.242,-2.627L-3.906,-0.566L-3.955,-0.469L-4.343,0.342L-4.932,1.558L-5.351,2.43L-2.676,1.162L-2.595,1.137L-0.254,-1.758L0.546,-5.233L0.916,-12.8L0.782,-12.437L0,-10.37Z" style="fill:rgb(221,221,221);fill-rule:nonzero;"/>
                </g>
                <g transform="matrix(1,0,0,1,879.949,1831.12)">
                    <path d="M0,-33.671L-0.673,-33.67L-1.22,-33.384L-1.258,-33.087L-2.404,-24.066L-6.25,-13.877L-10.103,-5.88L-11.766,-2.756L-11.259,-2.907L-10.638,-2.737L-10.131,-2.308L-10.131,0L-9.937,-0.361L-8.562,-2.945L-8.446,-3.164L-8.432,-3.186L-7.667,-4.778L-6.965,-6.23L-6.958,-6.248L-6.539,-7.12L-5.95,-8.336L-5.562,-9.147L-5.513,-9.245L-4.554,-11.238L-3.158,-14.937L-2.573,-16.489L-1.607,-19.048L-0.825,-21.115L-0.691,-21.479L-0.659,-21.558L0.55,-31.068L0.55,-33.376L0,-33.668L0,-33.671Z" style="fill:rgb(221,221,221);fill-rule:nonzero;"/>
                </g>
                <g transform="matrix(1,0,0,1,838.312,1811.3)">
                    <path d="M0,12.542L-0.585,11.325L-0.793,10.896L-1.322,9.797L-2.358,8.513L-3.01,5.695L-3.01,5.652L-3.599,4.1L-4.565,1.54L-5.344,-0.527L-5.482,-0.89L-5.15,5.907L-4.346,9.382L-2.006,12.277L0.43,13.432L0.423,13.414L0,12.542Z" style="fill:rgb(221,221,221);fill-rule:nonzero;"/>
                </g>
                <g transform="matrix(1,0,0,1,841.981,1799.76)">
                    <path d="M0,29.055L0.508,28.626L1.128,28.455L1.636,28.607L-0.028,25.483L-3.881,17.486L-7.727,7.297L-8.872,-1.724L-8.911,-2.021L-9.098,-2.118L-9.458,-2.308L-9.458,-2.306L-10.131,-2.306L-10.681,-2.013L-10.681,0.295L-9.472,9.804L-9.151,10.655L-9.013,11.018L-8.234,13.085L-7.268,15.644L-6.68,17.197L-5.576,20.125L-4.991,21.342L-4.463,22.441L-4.255,22.87L-3.669,24.087L-3.247,24.959L-3.239,24.977L-1.699,28.177L-0.61,30.219L0,31.363L0,29.055Z" style="fill:rgb(221,221,221);fill-rule:nonzero;"/>
                </g>
                <g transform="matrix(-0.0531558,0.998586,0.998586,0.0531558,841.503,1776.45)">
                    <path d="M-6.371,-6.087L6.027,-6.087L4.732,-6.037L-6.626,-6.041L-6.371,-6.087Z" style="fill:rgb(221,221,221);fill-rule:nonzero;"/>
                </g>
                <g transform="matrix(1,0,0,1,835.763,1769.06)">
                    <path d="M0,0.711L0.06,0.459L0.084,0L0,0.711Z" style="fill:rgb(221,221,221);fill-rule:nonzero;"/>
                </g>
                <g transform="matrix(1,0,0,1,835.862,1773.71)">
                    <path d="M0,3.703L0.31,-0.041L1.177,-10.542L0.444,-12.132L0.388,-11.862L-1.005,14.476L-1.075,15.835L-0.991,15.674L-0.976,15.535L0,3.703Z" style="fill:rgb(221,221,221);fill-rule:nonzero;"/>
                </g>
                <g transform="matrix(1,0,0,1,835.196,1778.79)">
                    <path d="M0,1.529L0.106,-0.45L0.568,-9.024L0.381,-5.806L0.169,-2.181L0.166,-2.168L0.123,-1.376L-0.434,10.455L-0.441,10.553L-0.434,10.553L-0.092,3.356L0,1.529Z" style="fill:rgb(221,221,221);fill-rule:nonzero;"/>
                </g>
                <g transform="matrix(1,0,0,1,833.518,1766.22)">
                    <path d="M0,22.141L0.55,22.431L0.899,19.726L1.801,11.199L1.844,10.407L1.847,10.394L2.059,6.769L2.245,3.55L2.33,2.839L2.348,2.521L2.496,-0.29L0.046,10.447L-1.22,22.431L-0.67,22.141L0,22.141Z" style="fill:rgb(221,221,221);fill-rule:nonzero;"/>
                </g>
                <g transform="matrix(1,0,0,1,835.848,1780.59)">
                    <path d="M0,-11.532L-0.025,-11.073L-0.624,0.269L-0.991,7.206L-0.991,7.6L0.402,-18.738L0.402,-19.132L0.166,-14.661L0.018,-11.85L0,-11.532Z" style="fill:rgb(221,221,221);fill-rule:nonzero;"/>
                </g>
                <g transform="matrix(1,0,0,1,845.041,1846.57)">
                    <path d="M0,-5.44L-0.084,-5.396L-1.297,-4.782L-2.651,-4.096L-2.94,-3.93L-4.011,-3.322L-4.149,-3.212L-4.427,-2.816L-4.47,-2.738L-4.47,-1.271L-4.068,-0.884L-3.867,-0.689L-3.867,0L-0.271,-5.055L-0.222,-5.125L0,-5.44Z" style="fill:rgb(221,221,221);fill-rule:nonzero;"/>
                </g>
                <g transform="matrix(1,0,0,1,846.736,1836.84)">
                    <path d="M0,0.738L1.213,0.124L1.301,0.08L1.555,-0.277L1.798,-0.622L1.752,-0.636L1.121,-0.835L0.271,-1.102L0.109,-1.153L-0.233,-1.374L-0.409,-1.123L-0.546,-0.931L-0.959,-0.349L-2.136,1.304L-2.323,1.566L-2.566,1.909L-2.711,2.112L-1.625,1.561L0,0.738Z" style="fill:rgb(221,221,221);fill-rule:nonzero;"/>
                </g>
                <g transform="matrix(1,0,0,1,851.097,1846.59)">
                    <path d="M0,-9.107L0,-9.565L-0.617,-9.759L-1.706,-10.102L-2.016,-10.199L-2.743,-9.83L-3.06,-9.669L-3.148,-9.625L-4.36,-9.011L-5.986,-8.187L-7.071,-7.636L-9.595,-6.357L-10.98,-5.569L-11.844,-4.878L-12.133,-4.609L-12.165,-4.58L-12.493,-4.272L-12.658,-3.96L-12.799,-3.687L-12.799,0.449L-12.133,1.092L-11.192,1.092L-10.526,0.449L-10.526,-2.758L-10.483,-2.837L-10.332,-3.13L-10.906,-2.669L-10.332,-3.13L-10.205,-3.233L-10.067,-3.343L-8.996,-3.951L-8.707,-4.116L-7.353,-4.802L-6.141,-5.416L-6.056,-5.46L-5.978,-5.499L-5.904,-5.537L-5.897,-5.54L-5.869,-5.554L-4.117,-6.442L-2.982,-7.018L-2.679,-7.171L-1.978,-7.526L-1.629,-7.703L-1.315,-7.863L-1.068,-7.988L0.959,-9.015L0.074,-9.1L0,-9.107Z" style="fill:rgb(221,221,221);fill-rule:nonzero;"/>
                </g>
                <g transform="matrix(1,0,0,1,840.764,1843.65)">
                    <path d="M0,-0.191L-0.151,0.103L0.128,-0.294L0,-0.191Z" style="fill:rgb(221,221,221);fill-rule:nonzero;"/>
                </g>
                <g transform="matrix(1,0,0,1,861.411,1827.61)">
                    <path d="M0,5.57L0.634,5.371L1.484,5.104L2.052,4.926L1.798,4.571L1.251,3.8L0.959,3.389L0.677,2.992L-1.463,-0.014L-1.752,-0.014L-1.752,1.792L-1.84,1.895L-2.09,2.192L-2.112,2.601L-2.115,2.675L-0.046,5.584L0,5.57Z" style="fill:rgb(221,221,221);fill-rule:nonzero;"/>
                </g>
                <g transform="matrix(1,0,0,1,851.107,1831.86)">
                    <path d="M0,-2.861L-0.085,-2.742L-0.839,-1.682L-1.657,-0.533L-2.281,0.345L-2.563,0.742L-1.995,0.921L-1.146,1.188L-0.511,1.387L-0.469,1.401L-0.194,1.015L1.41,-1.24L1.406,-1.314L1.361,-2.334L1.357,-2.372L1.283,-2.457L1.283,-3.929L1.124,-4.262L0.994,-4.262L0,-2.861Z" style="fill:rgb(221,221,221);fill-rule:nonzero;"/>
                </g>
                <g transform="matrix(0,1,1,0,852.984,1828.68)">
                    <path d="M-0.726,-0.593L0.715,-0.593L0.8,-0.519L-0.726,-0.593Z" style="fill:rgb(221,221,221);fill-rule:nonzero;"/>
                </g>
                <g transform="matrix(1,0,0,1,849.468,1852.76)">
                    <path d="M0,-13.874L-0.349,-13.697L-1.05,-13.342L-1.354,-13.189L-2.489,-12.613L-4.241,-11.725L-4.251,-11.633L-4.35,-11.67L-4.427,-11.631L-4.649,-11.316L-4.699,-11.247L-3.867,-7.835L-3.937,-4.053L-5.686,0.184L-5.728,0.285L-5.686,0.27L-5.637,0.254L-5.058,0.06L-4.868,-0.003L-4.544,-0.112L-3.973,-0.277L-3.282,-0.475L-2.679,-0.65L-2.26,-0.732L-1.389,-0.904L-1.389,-12.272L0.634,-12.272L0.596,-12.457L0.56,-14.159L0.314,-14.034L0,-13.874Z" style="fill:rgb(120,71,34);fill-rule:nonzero;"/>
                </g>
                <g transform="matrix(1,0,0,1,868.246,1849.06)">
                    <path d="M0,-6.194L-0.427,-6.795L-1.237,-7.933L-1.297,-7.964L-1.308,-7.964L-1.308,-7.968L-2.591,-8.62L-2.707,-8.336L-2.665,-8.657L-3.624,-9.143L-3.807,-9.236L-4.456,-9.565L-4.618,-9.646L-4.632,-9.655L-4.618,-8.758L-4.632,-8.573L-4.526,-8.573L-4.526,2.681L-4.301,1.753L-3.839,-0.136L-4.301,1.753L-4.526,2.681L-4.526,2.825L-4.015,2.798L-3.313,2.762L-3.046,2.748L-3.039,2.746L-2.637,2.661L-2.58,2.667L-2.453,2.622L-2.263,2.582L-1.488,2.417L-1.308,2.442L-0.769,2.514L-0.18,2.594L0.155,2.639L0.476,2.703L1.41,2.889L2.076,3.021L2.097,3.025L2.943,3.329L2.785,3.071L3.12,3.392L3.313,3.461L1.516,1.217L-0.106,-0.637L-0.113,-0.643L-0.673,-1.285L-0.113,-0.643L-0.43,-4.023L-0.377,-4.137L0.056,-6.115L0.046,-6.13L0,-6.194Z" style="fill:rgb(120,71,34);fill-rule:nonzero;"/>
                </g>
                <g transform="matrix(1,0,0,1,875.539,1757.14)">
                    <path d="M0,-0.495L-0.737,-0.07L-0.811,-0.074L-0.737,0.054L-0.666,0.18L-0.472,0.223L-0.483,0.227L-0.634,0.239L-0.585,0.326L-0.501,0.729L-0.451,0.954L-0.448,0.975L1.343,-0.294L1.473,-1.064L1.597,-1.297L1.692,-1.47L0.613,-0.848L0,-0.495Z" style="fill:rgb(120,71,34);fill-rule:nonzero;"/>
                </g>
                <g transform="matrix(1,0,0,1,873.328,1750.69)">
                    <path d="M0,0.178L0.008,0.219L0.663,0.113L0.857,0.083L0.786,-0.041L0,0.178Z" style="fill:rgb(120,71,34);fill-rule:nonzero;"/>
                </g>
                <g transform="matrix(1,0,0,1,873.992,1755.98)">
                    <path d="M0,-34.765L-0.412,-34.729L-0.878,-34.688L-2.383,-34.309L-2.721,-34.223L-3.497,-34.027L-3.87,-34.002L-4.11,-33.985L-4.184,-33.98L-4.614,-33.951L-4.639,-34.025L-4.664,-33.743L-3.412,-23.643L-2.785,-19.084L-1.763,-15.906L-2.228,-17.73L-2.714,-20.441L-2.228,-17.73L-1.763,-15.906L0.215,-9.773L0.116,-11.101L0.479,-8.476L0.483,-8.346L0.511,-7.43L0.666,-7.468L1.047,-7.558L1.22,-7.599L1.326,-7.663L1.822,-7.962L1.329,-7.652L1.258,-7.608L1.047,-7.558L0.666,-7.468L0.511,-7.43L-1.565,-6.939L-3.049,-5.295L-3.099,-4.733L-2.485,-4.086L-2.111,-3.692L-1.907,-3.477L-1.812,-3.376L-1.727,-3.419L-1.498,-3.535L-1.495,-3.746L-1.516,-4.041L-1.516,-3.963L-1.615,-4.05L-1.727,-4.023L-1.875,-3.991L-1.858,-5.277L-1.921,-4.392L-2.066,-5.471L-2.059,-5.689L-2.052,-5.797L-1.773,-5.801L-1.724,-5.82L-1.717,-5.802L-0.92,-5.815L-0.902,-5.816L-0.719,-5.336L-0.705,-5.296L-0.663,-5.107L0.123,-5.327L0.194,-5.202L0.37,-4.898L0.659,-4.401L0.303,-4.189L-0.381,-3.781L-0.388,-3.776L-0.539,-3.685L-0.86,-3.495L-1.586,-3.112L-1.406,-2.775L-1.311,-2.596L-1.11,-2.209L-1.072,-2.142L-1.043,-2.091L-0.86,-1.764L-0.349,-1.8L0.018,-1.825L0.035,-1.827L0.127,-1.833L0.141,-1.834L0.257,-1.922L0.821,-2.345L0.899,-2.401L2.482,-3.587L0.899,-2.401L1.068,-2.47L0.811,-2.296L0.257,-1.922L0.141,-1.834L0.127,-1.833L0.046,-1.779L0.028,-1.768L-0.321,-1.531L-0.617,-1.331L-0.522,-1.162L-0.324,-0.812L-0.25,-0.68L0.233,0.184L0.324,0.199L0.36,0.176L0.553,0.057L1.502,-0.534L1.977,-0.829L3.303,-1.655L3.585,-3.522L3.296,-0.832L3.5,-1.522L4.442,-5.558L4.621,-6.128L4.639,-9.445L4.551,-17.909L4.29,-19.317L3.867,-20.508L3.359,-21.927L3.867,-20.508L3.349,-24.658L2.277,-34.964L2.231,-34.96L0,-34.765Z" style="fill:rgb(120,71,34);fill-rule:nonzero;"/>
                </g>
                <g transform="matrix(1,0,0,1,877.295,1755.2)">
                    <path d="M0,-0.875L-0.247,-0.103L0,-0.875L-1.326,-0.049L-1.801,0.246L-2.75,0.837L-2.943,0.956L-2.979,0.979L-3.07,0.964L-3,1.089L-2.566,1.863L-2.492,1.867L-1.755,1.442L-1.142,1.089L-0.064,0.467L-0.028,0.138L-0.007,-0.052L0.282,-2.742L0,-0.875Z" style="fill:rgb(120,71,34);fill-rule:nonzero;"/>
                </g>
                <g transform="matrix(1,0,0,1,874.249,1753.63)">
                    <path d="M0,0.424L0.554,0.05L0.564,0L0,0.424Z" style="fill:rgb(120,71,34);fill-rule:nonzero;"/>
                </g>
                <g transform="matrix(0.557277,0.830327,0.830327,-0.557277,874.277,1750.76)">
                    <path d="M-0.122,-0.262L0.505,-0.262L0.312,-0.108L-0.038,-0.084L-0.122,-0.262Z" style="fill:rgb(120,71,34);fill-rule:nonzero;"/>
                </g>
                <g transform="matrix(-0.808736,0.588172,0.588172,0.808736,874.975,1753.59)">
                    <path d="M0.062,-0.057L0.158,-0.057L0.195,-0.024L-0.114,-0.013L0.062,-0.057Z" style="fill:rgb(120,71,34);fill-rule:nonzero;"/>
                </g>
                <g transform="matrix(-0.0990772,0.99508,0.99508,0.0990772,874.593,1751.31)">
                    <path d="M0.038,-0.251L0.502,-0.251L0.257,0.084L-0.209,-0.253L0.038,-0.251Z" style="fill:rgb(120,71,34);fill-rule:nonzero;"/>
                </g>
                <g transform="matrix(1,0,0,1,837.991,1751.26)">
                    <path d="M0,0.322L0.292,0.497L0.331,0.311L0.309,0.071L0.285,-0.175L0,0.322Z" style="fill:rgb(120,71,34);fill-rule:nonzero;"/>
                </g>
                <g transform="matrix(1,0,0,1,837.099,1755.95)">
                    <path d="M0,1.508L0.169,1.209L0.247,1.068L0.349,0.888L0,0.687L-0.61,0.334L-1.688,-0.287L-1.597,-0.115L-1.47,0.118L-1.339,0.888L-0.081,1.781L-0.06,1.795L-0.025,1.632L0,1.508Z" style="fill:rgb(120,71,34);fill-rule:nonzero;"/>
                </g>
                <g transform="matrix(1,0,0,1,838.277,1751.02)">
                    <path d="M0,0.058L0.024,0.304L0.133,0.143L0.214,-0.241L0.176,-0.246L0,0.058Z" style="fill:rgb(120,71,34);fill-rule:nonzero;"/>
                </g>
                <g transform="matrix(1,0,0,1,835.344,1722.64)">
                    <path d="M0,31.688L1.329,32.514L1.805,32.809L2.605,33.309L2.661,33.214L3.021,32.571L3.035,32.548L3.497,31.724L3.18,31.51L3.165,31.509L3.049,31.421L2.838,31.28L2.538,31.076L2.524,31.067L2.496,31.047L2.238,30.873L2.408,30.941L0.825,29.756L2.408,30.941L2.482,30.998L2.531,31.033L2.545,31.044L2.841,31.266L3.049,31.421L3.165,31.509L3.18,31.51L3.599,31.539L3.691,31.375L3.828,31.133L4.04,30.725L3.596,30.709L4.082,30.648L4.332,30.175L4.484,30.016L4.466,30.007L4.35,29.945L4.167,29.848L4.142,29.833L3.543,29.477L3.035,29.375L2.898,29.346L2.94,29.118L2.647,28.942L2.933,28.445L3.109,28.14L3.169,28.047L3.18,28.015L3.183,28.01L3.366,27.527L4.244,27.542L4.515,27.546L4.526,27.776L4.537,28L4.551,28.398L4.798,28.467L4.794,27.998L4.798,28.467L4.801,29.68L4.808,29.673L4.942,29.531L4.822,29.379L5.005,29.464L6.331,28.069L6.352,28.045L4.868,26.404L2.795,25.912L2.637,25.875L2.26,25.785L2.083,25.744L2.045,25.735L1.978,25.691L1.484,25.38L1.978,25.68L2.083,25.744L2.26,25.785L2.637,25.875L2.795,25.912L2.82,24.996L2.827,24.867L3.19,22.242L3.088,23.569L5.069,17.437L5.534,15.613L6.021,12.902L5.534,15.613L5.069,17.437L6.088,14.259L6.719,9.7L7.97,-0.4L7.945,-0.682L7.921,-0.608L7.491,-0.638L7.417,-0.643L7.177,-0.659L6.8,-0.685L6.024,-0.881L5.689,-0.966L4.184,-1.346L3.719,-1.386L3.307,-1.422L1.075,-1.617L1.026,-1.621L-0.042,8.685L-0.56,12.835L-0.053,11.416L-0.56,12.835L-0.987,14.026L-1.248,15.434L-1.336,23.898L-1.315,27.214L-1.139,27.784L-0.194,31.821L0.011,32.511L-0.279,29.821L0,31.688Z" style="fill:rgb(120,71,34);fill-rule:nonzero;"/>
                </g>
                <g transform="matrix(0.826927,0.56231,0.56231,-0.826927,837.956,1753.64)">
                    <rect x="-0.022" y="-0.1" width="0.357" height="0.014" style="fill:rgb(120,71,34);"/>
                </g>
                <g transform="matrix(1,0,0,1,837.099,1752.66)">
                    <path d="M0,3.984L0.349,4.184L0.391,4.105L0.74,3.486L0.751,3.467L0.849,3.288L0.049,2.788L-0.427,2.493L-1.755,1.667L-1.505,2.439L-1.755,1.667L-2.034,-0.2L-1.745,2.49L-1.724,2.68L-1.688,3.009L-0.61,3.631L0,3.984Z" style="fill:rgb(120,71,34);fill-rule:nonzero;"/>
                </g>
                <g transform="matrix(-0.274721,-0.961524,-0.961524,0.274721,837.759,1753.45)">
                    <path d="M-0.247,-0.013L-0.196,-0.013L-0.123,0.042L-0.01,0.187L-0.247,-0.013Z" style="fill:rgb(120,71,34);fill-rule:nonzero;"/>
                </g>
                <g transform="matrix(1,0,0,1,849.645,1801.08)">
                    <path d="M0,10.599L1.523,10.599L1.956,10.701L2.334,10.789L2.672,10.868L2.774,10.892L2.996,10.944L3.148,11.269L4.082,7.719L4.026,6.578L3.962,5.29L3.962,5.233L3.948,4.96L4.583,3.467L4.449,2.524L4.181,1.155L3.229,0.151L2.644,-0.67L1.763,-0.661L0.321,-0.495L-0.014,-0.061L-0.331,1.103L-0.684,2.313L-0.532,3.952L-0.702,4.426L-0.839,4.818L-1.008,5.29L-1.442,6.503L-1.431,6.578L-1.202,8.173L-0.955,10.974L-0.483,10.789L0,10.599Z" style="fill:rgb(120,71,34);fill-rule:nonzero;"/>
                </g>
                <g transform="matrix(1,0,0,1,862.613,1807.73)">
                    <path d="M0,-2.696L0.155,-4.334L-0.197,-5.544L-0.515,-6.709L-0.85,-7.142L-2.295,-7.308L-3.173,-7.318L-3.758,-6.497L-4.713,-5.492L-4.981,-4.124L-5.111,-3.181L-4.477,-1.687L-4.494,-1.358L-4.558,-0.069L-4.611,1.072L-3.677,4.622L-3.529,4.297L-3.303,4.244L-3.201,4.22L-2.862,4.141L-2.485,4.053L-2.052,3.951L-0.529,3.951L-0.046,4.141L0.427,4.327L0.67,1.526L0.899,-0.069L0.909,-0.145L0.479,-1.358L0.286,-1.902L0.106,-2.398L0,-2.696Z" style="fill:rgb(120,71,34);fill-rule:nonzero;"/>
                </g>
                <g transform="matrix(1,0,0,1,868.923,1805.26)">
                    <path d="M0.042,0.913L-0.028,0.963L0.12,1.059L0.201,1.01L0.864,0.621L1.424,0.294L1.766,-0.116L0.042,0.913Z" style="fill:rgb(120,71,34);fill-rule:nonzero;"/>
                </g>
                <g transform="matrix(1,0,0,1,868.743,1805.7)">
                    <path d="M0,-0.428L-0.103,-0.354L-0.699,-0.453L-0.85,-0.479L-1.065,-0.514L-1.181,-0.533L-1.357,-0.562L-1.386,-0.567L-1.626,-0.607L-1.911,-0.438L-1.35,-0.07L-0.814,0.158L-0.751,0.181L-0.737,0.173L-0.374,-0.043L-0.063,-0.229L0.148,-0.354L0.197,-0.481L0.246,-0.609L0,-0.428Z" style="fill:rgb(120,71,34);fill-rule:nonzero;"/>
                </g>
                <g transform="matrix(1,0,0,1,866.985,1805.43)">
                    <path d="M0,0.04L0.408,0.204L-0.152,-0.164L0,0.04Z" style="fill:rgb(120,71,34);fill-rule:nonzero;"/>
                </g>
                <g transform="matrix(1,0,0,1,869.899,1793.94)">
                    <path d="M0,10.007L-1.248,9.261L0,10.007ZM-2.379,-2.256L-2.422,-2.377L-2.725,-2.314L-2.743,-2.311L-3.888,-2.073L-4.42,-1.864L-4.53,-1.821L-4.607,-1.79L-4.953,-1.655L-5.347,-1.294L-5.453,-1.196L-5.492,-1.089L-5.383,-0.45L-5.354,-0.277L-5.164,0.831L-5.016,1.088L-4.974,1.163L-4.9,1.215L-4.776,1.297L-4.762,1.411L-4.54,1.934L-2.845,4.93L-1.794,6.788L-1.847,5.924L-1.794,6.788L-1.727,7.878L-1.502,7.556L-2.309,8.782L-2.45,8.915L-2.651,9.96L-2.439,10.547L-2.312,10.901L-2.295,10.956L-2.157,10.965L-2.126,10.967L-2.038,10.973L-1.819,10.547L-1.664,10.249L-1.657,9.783L-1.653,9.53L-1.872,8.954L-1.653,9.53L-1.657,9.783L-1.142,10.01L-1.029,10.061L-1.001,10.072L-0.938,10.101L-1.001,10.072L-1.029,10.061L-1.142,10.01L-0.945,10.547L-0.818,10.899L-0.747,10.714L-0.733,10.679L-0.719,10.645L-0.649,10.462L-0.522,10.121L-0.649,10.462L-0.719,10.645L-0.733,10.679L-0.747,10.714L-0.818,10.899L-0.909,11.148L-0.959,11.276L-1.008,11.404L-1.22,11.529L-1.53,11.715L-1.893,11.93L-1.907,11.939L-1.911,11.94L-2.044,12.02L-2.059,12.028L-2.062,12.207L-1.209,12.048L-2.062,12.207L-1.896,12.384L-1.065,12.294L-1.008,12.288L-1.005,12.284L-0.976,12.264L-0.934,12.234L-0.162,11.685L0.405,10.693L0.79,11.206L0.892,10.882L0.839,10.547L0.807,10.351L0.765,10.153L-0.25,5.525L0.765,10.153L0.716,9.882L0.677,9.663L0.056,6.146L0.039,6.079L-0.465,4.221L-1.611,0.018L-1.865,-0.734L-2.016,-1.183L-2.379,-2.256Z" style="fill:rgb(120,71,34);fill-rule:nonzero;"/>
                </g>
                <g transform="matrix(1,0,0,1,867.379,1805.2)">
                    <path d="M0,-0.307L0.008,-0.107L0.008,-0.061L0.184,-0.032L0.299,-0.013L0.515,0.023L0.666,0.048L0.578,-0.061L0.394,-0.289L0.363,-0.292L0.226,-0.301L0.208,-0.355L0,-0.307Z" style="fill:rgb(120,71,34);fill-rule:nonzero;"/>
                </g>
                <g transform="matrix(0.986483,0.163862,0.163862,-0.986483,868.048,1805.2)">
                    <path d="M0.005,-0.05L0.609,-0.05L0.699,0.04L-0.1,0.043L0.005,-0.05Z" style="fill:rgb(120,71,34);fill-rule:nonzero;"/>
                </g>
                <g transform="matrix(1,0,0,1,847.314,1781.38)">
                    <path d="M0,-0.847L-0.207,-0.667L-0.127,-0.558L0.11,-0.226L0.287,0.018L0.526,-0.03L0.586,-0.317L0.576,-0.44L0.564,-0.535L0.547,-0.756L0.223,-0.823L0.025,-0.865L0,-0.847Z" style="fill:rgb(120,71,34);fill-rule:nonzero;"/>
                </g>
                <g transform="matrix(0.924806,0.380439,0.380439,-0.924806,846.217,1780.24)">
                    <path d="M0.006,-0.058L0.329,-0.058L0.259,-0.005L0.127,0.096L0.006,-0.058Z" style="fill:rgb(120,71,34);fill-rule:nonzero;"/>
                </g>
                <g transform="matrix(1,0,0,1,844.28,1785.5)">
                    <path d="M0,-3.741L-0.028,-2.903L-0.138,-4.576L0,-3.741ZM-1.484,2.531L-1.421,2.495L-0.367,1.883L-0.222,1.793L1.043,0.993L-0.222,1.793L1.114,1.091L1.611,0.829L1.914,0.563L2.094,0.403L2.09,0.31L2.207,0.191L2.401,-0.673L2.644,-1.42L2.485,-1.879L2.319,-1.997L2.33,-1.965L2.129,-1.722L1.995,-1.786L1.414,-2.247L1.019,-2.558L0.825,-2.555L0.508,-2.242L0.416,-2.151L0.416,-2.055L0.419,-0.965L0.419,-0.271L0.419,-0.965L0.416,-2.055L0.416,-2.151L-0.405,-1.342L0.416,-2.151L0.508,-2.242L0.825,-2.555L0.391,-2.55L0.243,-2.548L0.134,-2.546L0.243,-2.548L0.391,-2.55L0.825,-2.555L1.019,-2.558L1.414,-2.247L1.995,-1.786L2.129,-1.722L2.33,-1.965L2.319,-1.997L2.09,-2.712L2.03,-2.897L2.168,-2.898L2.383,-2.899L1.318,-3.233L2.383,-2.899L2.369,-4.333L2.383,-2.899L2.168,-2.898L2.2,-2.739L2.228,-2.6L2.545,-2.504L2.704,-2.802L2.711,-2.864L2.743,-3.155L2.7,-3.124L2.679,-3.11L2.7,-3.124L2.743,-3.155L2.831,-3.216L2.869,-3.244L2.979,-3.322L2.869,-3.244L2.831,-3.216L2.912,-2.913L2.947,-2.782L3.197,-2.607L3.49,-2.84L3.511,-3.06L3.578,-3.745L3.363,-4.044L3.321,-4.104L3.144,-4.347L2.908,-4.679L2.827,-4.789L2.82,-4.8L2.778,-4.861L2.439,-4.998L2.221,-5.088L1.921,-5.21L1.903,-5.217L1.1,-5.544L1.911,-5.808L1.1,-5.544L1.903,-5.217L2.277,-5.469L2.386,-5.476L2.887,-5.511L2.95,-5.515L3.176,-5.531L3.433,-5.464L3.62,-5.416L3.828,-5.668L3.821,-5.709L3.793,-5.859L2.979,-6.167L2.63,-6.224L2.351,-6.27L2.337,-6.272L1.431,-6.095L0.666,-5.744L0.109,-5.053L-1.442,-3.135L-2.143,-2.263L-2.337,-1.839L-2.348,-1.822L-2.355,-1.801L-2.376,-1.759L-2.573,-1.332L-3.31,0.269L-2.89,1.895L-1.689,2.439L-1.569,2.494L-1.484,2.531Z" style="fill:rgb(120,71,34);fill-rule:nonzero;"/>
                </g>
                <g transform="matrix(1,0,0,1,841.844,1784.16)">
                    <path d="M0,-0.404L-0.137,0.011L0.06,-0.415L0,-0.404Z" style="fill:rgb(120,71,34);fill-rule:nonzero;"/>
                </g>
                <g transform="matrix(1,0,0,1,849.109,1770.67)">
                    <path d="M0,-1.414L0.725,1.183L-0.124,-2.597L0,-1.414Z" style="fill:rgb(120,71,34);fill-rule:nonzero;"/>
                </g>
                <g transform="matrix(1,0,0,1,849.507,1771.69)">
                    <path d="M0,0.551L0.194,0.9L0.295,0.333L0.19,0.007L-0.127,-0.349L0,0.551Z" style="fill:rgb(120,71,34);fill-rule:nonzero;"/>
                </g>
                <g transform="matrix(1,0,0,1,849.803,1771.69)">
                    <path d="M0,0.326L0.032,0.157L-0.105,0L0,0.326Z" style="fill:rgb(120,71,34);fill-rule:nonzero;"/>
                </g>
                <g transform="matrix(1,0,0,1,860.766,1770.51)">
                    <path d="M0,-0.091L-0.172,0.254L0.214,-0.345L0,-0.091Z" style="fill:rgb(120,71,34);fill-rule:nonzero;"/>
                </g>
                <g transform="matrix(1,0,0,1,844.6,1836.27)">
                    <path d="M0,1.876L1.177,0.223L1.59,-0.359L1.555,-0.557L1.272,-0.567L0.952,-0.579L-0.511,-0.599L-0.994,-0.605L-1.075,-0.606L-1.068,-0.564L-0.43,2.482L-0.187,2.139L0,1.876Z" style="fill:rgb(120,71,34);fill-rule:nonzero;"/>
                </g>
                <g transform="matrix(1,0,0,1,869.557,1839.46)">
                    <path d="M0,-3.783L-0.955,-3.768L-1.523,-3.746L-1.766,-3.737L-1.999,-3.729L-3.017,-3.69L-3.384,-3.685L-3.62,-3.682L-3.673,-3.518L-3.447,-3.2L-2.658,-2.092L-2.143,-1.365L-1.53,-0.504L-1.17,-0.322L-0.659,-0.062L-0.606,-0.037L-0.529,0.003L0.18,-3.732L0.19,-3.786L0.173,-3.786L0,-3.783Z" style="fill:rgb(120,71,34);fill-rule:nonzero;"/>
                </g>
                <g transform="matrix(1,0,0,1,863.561,1836.5)">
                    <path d="M0,0.19L0.071,0.224L0.455,0.421L0.071,-0.122L-0.006,-0.231L0,0.19Z" style="fill:rgb(120,71,34);fill-rule:nonzero;"/>
                </g>
                <g transform="matrix(1,0,0,1,848.291,1836.57)">
                    <path d="M0,-0.013L-0.255,0.345L0.063,0.182L0.789,-0.185L0.242,-0.358L0,-0.013Z" style="fill:rgb(120,71,34);fill-rule:nonzero;"/>
                </g>
                <g transform="matrix(-0.125973,0.992034,0.992034,0.125973,870.64,1835.21)">
                    <path d="M0.543,-0.635L0.607,-0.635L0.573,0.488L0.42,0.223L0.543,-0.635Z" style="fill:rgb(68,114,37);fill-rule:nonzero;"/>
                </g>
                <g transform="matrix(1,0,0,1,842.852,1835.71)">
                    <path d="M0,-0.029L0.008,0.024L0.681,-0.004L0.673,-0.045L0.095,-0.053L0,-0.029Z" style="fill:rgb(68,114,37);fill-rule:nonzero;"/>
                </g>
                <g transform="matrix(1,0,0,1,871.189,1852.19)">
                    <path d="M0,0.197L0.176,0.259L-0.159,-0.062L0,0.197Z" style="fill:rgb(68,114,37);fill-rule:nonzero;"/>
                </g>
                <g transform="matrix(1,0,0,1,865.539,1840.4)">
                    <path d="M0,0.322L0.117,0.038L0.042,0L0,0.322Z" style="fill:rgb(68,114,37);fill-rule:nonzero;"/>
                </g>
                <g transform="matrix(1,0,0,1,874.207,1746.17)">
                    <path d="M0,0.031L0.264,1.328L-0.099,-1.297L0,0.031Z" style="fill:rgb(68,114,37);fill-rule:nonzero;"/>
                </g>
                <g transform="matrix(1,0,0,1,838.17,1744.88)">
                    <path d="M0,2.625L0.261,1.328L0.364,0L0,2.625Z" style="fill:rgb(68,114,37);fill-rule:nonzero;"/>
                </g>
                <g transform="matrix(1,0,0,1,838.938,1753.3)">
                    <path d="M0,0.044L0.445,0.061L0.487,-0.017L0,0.044Z" style="fill:rgb(68,114,37);fill-rule:nonzero;"/>
                </g>
                <g transform="matrix(1,0,0,1,862.007,1707.42)">
                    <path d="M0,-1.358L1.177,-0.618L1.438,-0.455L2.157,-0.003L2.298,0.086L2.411,-0.024L1.505,-0.574L1.459,-0.603L1.442,-0.614L0.078,-1.444L-0.046,-1.414L0,-1.358Z" style="fill:rgb(68,114,37);fill-rule:nonzero;"/>
                </g>
                <g transform="matrix(1,0,0,1,877.732,1785.93)">
                    <path d="M0,3.313L0,2.698L-0.35,0L0,3.313Z" style="fill:rgb(68,114,37);fill-rule:nonzero;"/>
                </g>
                <g transform="matrix(1,0,0,1,863.766,1801.39)">
                    <path d="M0,-2.52L0.066,-1.966L-0.131,-0.601L-0.237,0.136L-0.015,-0.584L0.5,-2.251L0.066,-2.656L0,-2.52Z" style="fill:rgb(68,114,37);fill-rule:nonzero;"/>
                </g>
                <g transform="matrix(1,0,0,1,847.998,1799.37)">
                    <path d="M0,5.751L-0.427,4.798L-0.677,4.235L-0.494,2.695L-0.289,2.185L-0.307,2.072L-0.402,1.4L-0.596,0.056L-0.557,-0.272L-0.497,-0.781L-0.635,-0.436L-1.001,0.481L-1.297,1.3L-1.322,1.542L-1.569,3.967L-1.121,5.118L-0.853,5.808L-0.684,6.24L0.807,6.532L0.945,6.141L0,5.751Z" style="fill:rgb(68,114,37);fill-rule:nonzero;"/>
                </g>
                <g transform="matrix(1,0,0,1,863.751,1799.86)">
                    <path d="M0,0.947L-0.222,1.667L0.621,0.316L0.621,0.076L0.628,0.064L0.645,-0.597L0.621,-0.619L0.515,-0.72L0,0.947Z" style="fill:rgb(68,114,37);fill-rule:nonzero;"/>
                </g>
                <g transform="matrix(1,0,0,1,857.914,1796.68)">
                    <path d="M0,-0.131L-0.434,-0.055L-0.071,0.028L0.588,-0.074L0.162,-0.159L0,-0.131Z" style="fill:rgb(68,114,37);fill-rule:nonzero;"/>
                </g>
                <g transform="matrix(1,0,0,1,846.401,1786.73)">
                    <path d="M0,1.071L0.078,0.873L0.064,0.542L0.053,0.351L0.042,0.236L-0.003,-0.472L-0.028,-0.823L-0.208,-0.663L-0.511,-0.396L-1.008,-0.135L-2.344,0.567L-2.489,0.658L-3.543,1.269L-3.606,1.306L-3.691,1.268L-3.811,1.214L-3.638,1.438L-3.433,1.508L-3.282,1.56L-3.243,1.575L-2.319,1.894L-0.62,1.628L0,1.071Z" style="fill:rgb(68,114,37);fill-rule:nonzero;"/>
                </g>
                <g transform="matrix(1,0,0,1,862.426,1798.61)">
                    <path d="M0,-0.954L0.691,-0.544L1.315,0.041L1.407,0.126L1.84,0.531L1.946,0.633L1.971,0.653L1.946,0.18L0.758,-1.017L0.691,-1.084L-0.293,-1.419L-0.842,-1.607L-0.381,-1.179L-0.25,-1.101L0,-0.954Z" style="fill:rgb(68,114,37);fill-rule:nonzero;"/>
                </g>
                <g transform="matrix(1,0,0,1,843.024,1788.43)">
                    <path d="M0,-0.071L1.057,0.193L0.134,-0.127L0.095,-0.141L-0.056,-0.193L-0.26,-0.264L0,-0.071Z" style="fill:rgb(68,114,37);fill-rule:nonzero;"/>
                </g>
                <g transform="matrix(0.602869,0.79784,0.79784,-0.602869,849.183,1782.62)">
                    <path d="M-0.206,-0.411L0.964,-0.411L-0.195,-0.3L-0.344,-0.413L-0.206,-0.411Z" style="fill:rgb(68,114,37);fill-rule:nonzero;"/>
                </g>
                <g transform="matrix(1,0,0,1,863.529,1805.83)">
                    <path d="M0,-4.3L-0.003,-4.274L0.201,-3.764L0.25,-3.348L0.384,-2.224L0.324,-2.089L-0.292,-0.708L-0.811,-0.496L-0.631,0L0.906,-0.22L1.068,-0.665L1.28,-1.234L1.142,-3.529L0,-4.3Z" style="fill:rgb(68,114,37);fill-rule:nonzero;"/>
                </g>
                <g transform="matrix(1,0,0,1,846.68,1786.86)">
                    <path d="M0,-2.025L-0.194,-1.16L-0.309,-1.042L-0.307,-0.948L-0.282,-0.598L-0.236,0.11L-0.226,0.226L-0.214,0.416L-0.2,0.747L-0.183,0.7L0.293,-0.519L0.299,-0.633L0.416,-2.276L0.243,-2.772L0,-2.025Z" style="fill:rgb(68,114,37);fill-rule:nonzero;"/>
                </g>
                <g transform="matrix(-0.0850565,-0.996376,-0.996376,0.0850565,864.53,1796.97)">
                    <path d="M-0.741,0.384L-0.247,0.384L0.114,0.386L0.353,0.68L-0.741,0.384Z" style="fill:rgb(68,114,37);fill-rule:nonzero;"/>
                </g>
                <g transform="matrix(1,0,0,1,863.78,1788.82)">
                    <path d="M0,7.834L-0.078,7.653L-0.13,7.747L-0.335,7.607L-0.416,7.553L-0.723,7.454L-1.988,7.048L-2.295,6.95L-3.384,6.874L-4.896,6.769L-4.896,6.894L-10.864,6.894L-10.864,6.769L-13.088,6.924L-13.466,6.95L-14.477,7.274L-15.344,7.552L-15.933,7.771L-16.014,7.801L-16.028,7.737L-15.704,5.362L-15.341,5.226L-15.256,5.199L-14.625,4.996L-14.382,4.919L-13.462,4.623L-12.2,4.536L-10.864,4.443L-10.864,3.196L-11.28,2.063L-11.58,1.245L-12.2,-0.448L-12.694,-1.794L-13.046,-2.759L-13.339,-3.55L-13.36,-3.589L-14.343,-5.178L-15.048,-6.112L-15.133,-6.221L-15.239,-6.338L-15.133,-6.221L-14.988,-6.227L-15.27,-6.683L-15.369,-6.842L-15.686,-7.355L-15.718,-7.41L-15.806,-7.549L-15.817,-7.946L-15.891,-7.873L-15.88,-7.75L-15.94,-7.463L-16.138,-7.356L-15.923,-7.057L-15.99,-6.372L-16.011,-6.152L-16.303,-5.919L-16.554,-6.094L-16.589,-6.225L-16.67,-6.528L-16.758,-6.466L-16.79,-6.175L-16.797,-6.113L-16.955,-5.816L-17.272,-5.912L-17.301,-6.051L-17.41,-6.023L-17.181,-5.309L-17.015,-5.19L-16.857,-4.732L-16.684,-4.237L-16.8,-2.593L-16.807,-2.479L-17.283,-1.26L-17.301,-1.214L-17.378,-1.015L-17.999,-0.458L-19.698,-0.192L-18.919,-0.173L-17.829,-0.144L-17.283,-0.772L-17.29,-0.886L-17.283,-0.772L-17.04,5.668L-17.033,5.855L-16.716,5.738L-16.349,7.926L-16.945,8.147L-16.906,9.101L-17.615,12.175L-17.35,14.521L-17.103,12.096L-17.079,11.854L-16.783,11.036L-16.416,10.119L-16.279,9.773L-16.109,9.346L-14.978,8.852L-14.717,8.737L-14.135,8.483L-14.04,8.457L-12.771,8.117L-12.412,8.021L-12.239,7.974L-12.024,7.997L-9.169,8.306L-8.714,8.227L-7.586,8.03L-6.299,7.806L-5.866,7.731L-5.703,7.702L-5.277,7.787L-4.36,7.97L-3.885,8.065L-3.567,8.128L-2.379,8.365L-2.062,8.488L-1.734,8.616L-2.196,8.188L-2.21,8.176L-2.379,8.021L-3.165,7.46L-5.703,7.359L-5.936,7.384L-7.325,7.534L-7.438,7.547L-7.325,7.534L-5.936,7.384L-5.703,7.359L-3.165,7.46L-2.379,8.021L-2.21,8.176L-2.196,8.188L-1.646,8.376L-0.663,8.71L-0.596,8.778L0.592,9.975L0.617,10.448L0.599,11.111L0.592,11.362L-0.25,12.714L0.892,13.485L1.029,15.78L1.033,15.672L1.153,12.175L0.973,10.403L0.43,8.926L0.042,7.862L0,7.834Z" style="fill:rgb(68,114,37);fill-rule:nonzero;"/>
                </g>
                <g transform="matrix(1,0,0,1,844.251,1780.93)">
                    <path d="M0,1.672L0.028,0.835L-0.109,0L0,1.672Z" style="fill:rgb(68,114,37);fill-rule:nonzero;"/>
                </g>
                <g transform="matrix(1,0,0,1,846.557,1780.29)">
                    <path d="M0,-0.251L-0.374,0.001L-0.356,0.008L-0.186,-0.089L0.109,-0.259L0,-0.251Z" style="fill:rgb(68,114,37);fill-rule:nonzero;"/>
                </g>
                <g transform="matrix(1,0,0,1,846.729,1780.38)">
                    <path d="M0,-0.008L0.585,0.152L0.61,0.134L0.808,0.176L0.628,-0.118L0.582,-0.184L0,-0.008Z" style="fill:rgb(68,114,37);fill-rule:nonzero;"/>
                </g>
                <g transform="matrix(1,0,0,1,846.5,1780.63)">
                    <path d="M0,-0.211L0.219,-0.122L0.558,0.015L0.6,0.076L0.737,-0.031L0.814,-0.092L0.229,-0.252L0.107,-0.286L-0.046,-0.287L0,-0.211Z" style="fill:rgb(68,114,37);fill-rule:nonzero;"/>
                </g>
                <g transform="matrix(1,0,0,1,859.127,1791.38)">
                    <path d="M0,-12.765L-0.06,-12.733L-0.067,-12.734L-0.064,-12.721L-0.064,-12.708L-0.243,-12.771L-0.617,-12.429L-0.836,-12.305L-1.375,-12.517L-1.385,-12.522L-1.417,-12.505L-2.503,-12.364L-3.578,-12.225L-3.761,-12.248L-4.378,-11.941L-5.083,-12.42L-5.735,-12.504L-5.739,-12.505L-6.465,-12.929L-6.468,-12.93L-6.659,-12.874L-7.17,-12.745L-7.304,-13.158L-8.679,-12.312L-8.64,-12.253L-8.594,-12.176L-8.344,-11.774L-7.579,-10.534L-7.293,-10.072L-6.049,-8.055L-5.929,-7.859L-5.633,-6.85L-5.492,-6.371L-4.861,-4.225L-4.368,-2.533L-3.476,0.507L-2.979,0.507L-2.087,-2.533L-1.822,-3.437L-0.962,-6.366L-0.917,-6.531L-0.525,-7.859L-0.381,-8.091L0.465,-9.464L0.909,-10.184L1.833,-11.679L1.995,-11.942L1.861,-12.027L2.006,-11.962L2.051,-12.031L1.759,-12.169L-0.039,-13.272L0.018,-12.922L0,-12.765Z" style="fill:rgb(68,114,37);fill-rule:nonzero;"/>
                </g>
                <g transform="matrix(0.327111,0.944986,0.944986,-0.327111,864.428,1793.12)">
                    <path d="M0.012,-0.157L0.507,-0.157L0.382,-0.039L-0.257,0.066L0.012,-0.157Z" style="fill:rgb(68,114,37);fill-rule:nonzero;"/>
                </g>
                <g transform="matrix(1,0,0,1,864.216,1793.48)">
                    <path d="M0,-0.11L0.23,0.172L0.063,-0.282L0,-0.11Z" style="fill:rgb(68,114,37);fill-rule:nonzero;"/>
                </g>
                <g transform="matrix(1,0,0,1,868.644,1793.21)">
                    <path d="M0,-1.886L-0.719,-1.736L-1.089,-1.659L-1.124,-1.522L-0.761,-0.449L-0.61,0L1.227,-1.042L0.984,-1.629L0.98,-1.63L0.695,-1.705L0,-1.886Z" style="fill:rgb(68,114,37);fill-rule:nonzero;"/>
                </g>
                <g transform="matrix(1,0,0,1,863.875,1793.99)">
                    <path d="M0,-12.809L-0.307,-12.311L-0.67,-11.722L-0.878,-11.385L-1.206,-10.854L-2.302,-9.076L-2.517,-8.727L-2.852,-7.813L-2.929,-7.607L-3.395,-6.338L-3.574,-5.847L-4.484,-3.366L-4.921,-2.17L-4.991,-1.98L-4.991,-0.733L-4.371,-0.69L-2.397,-0.553L-2.182,-0.484L-1.974,-0.417L-1.057,-0.124L-0.772,-0.033L-0.518,0.049L-0.289,0.205L0.039,0.428L-0.18,-2.036L-0.187,-2.125L-0.215,-2.204L-0.187,-2.125L-0.067,-1.78L0.342,-0.625L0.405,-0.797L0.409,-0.811L0.532,-1.14L0.571,-1.247L0.677,-1.345L1.072,-1.706L1.417,-1.841L1.495,-1.872L1.604,-1.915L2.136,-2.123L3.282,-2.362L3.299,-2.365L3.602,-2.428L3.68,-2.444L4.05,-2.521L4.769,-2.671L5.464,-2.49L5.749,-2.415L2.252,-10.672L2.164,-10.9L1.269,-12.264L0.74,-12.88L0.264,-13.237L0.204,-13.139L0,-12.809Z" style="fill:rgb(68,114,37);fill-rule:nonzero;"/>
                </g>
                <g transform="matrix(1,0,0,1,854.492,1805.85)">
                    <path d="M0,0.298L0.658,0.289L1.311,0.28L1.254,0.033L1.123,0L0,0.298Z" style="fill:rgb(68,114,37);fill-rule:nonzero;"/>
                </g>
                <g transform="matrix(1,0,0,1,855.803,1805.92)">
                    <path d="M0,0.208L0.099,0.209L0.834,0.221L0.923,0.222L0.034,-0.014L0,0.208Z" style="fill:rgb(68,114,37);fill-rule:nonzero;"/>
                </g>
                <g transform="matrix(1,0,0,1,859.07,1768.92)">
                    <path d="M0,7.441L-0.218,7.667L0,7.441L0.25,7.18L1.445,4.428L1.417,4.357L0.906,4.909L0.546,4.944L0.814,2.928L0.546,4.944L0.906,4.909L1.417,4.357L1.438,4.335L1.47,4.298L2.513,3.168L2.637,3.035L2.57,2.11L2.503,1.209L2.319,0.726L2.291,0.665L2.221,0.774L2.143,1.026L1.911,1.246L1.523,1.844L1.35,2.262L1.258,2.696L1.223,2.352L0.243,-0.474L-0.835,-1.561L-1.755,-2.5L-1.829,-2.51L-1.904,-2.521L-2.795,-2.65L-4.695,-2.924L-5.436,-3.031L-5.746,-3.075L-5.911,-2.879L-5.954,-2.832L-7.279,-2.78L-7.427,-2.75L-8.245,-2.586L-9.606,-1.501L-9.979,-1.17L-10.11,-1.058L-10.085,-0.851L-9.235,2.928L-9.267,3.098L-9.369,3.664L-9.451,4.112L-8.002,7.795L-7.677,7.952L-6.969,8.295L-6.507,8.409L-5.231,8.724L-4.554,8.857L-5.231,8.724L-6.507,8.409L-6.969,8.295L-7.677,7.952L-7.247,9.3L-7.113,9.712L-6.602,9.584L-6.412,9.527L-6.408,9.529L-5.682,9.953L-5.679,9.954L-5.027,10.038L-4.322,10.516L-3.705,10.209L-3.521,10.233L-2.446,10.094L-1.361,9.953L-1.329,9.935L-1.318,9.941L-0.779,10.153L-0.56,10.028L-0.187,9.686L-0.007,9.737L-0.01,9.723L-0.003,9.725L0.056,9.692L0.074,9.536L0.018,9.185L-0.173,8.003L-0.197,7.85L0,7.441Z" style="fill:rgb(120,71,34);fill-rule:nonzero;"/>
                </g>
                <g transform="matrix(1,0,0,1,863.445,1692.44)">
                    <path d="M0,14.522L-0.261,14.358L-1.438,13.619L-1.586,13.589L-1.703,13.619L-1.689,13.568L-1.639,13.363L-1.731,13.242L-1.875,13.059L-1.889,13.043L-1.9,13.028L-1.914,13.011L-1.9,13.028L-2.207,11.792L-2.312,11.371L-2.429,10.891L-2.658,9.965L-2.926,9.761L-3.299,8.009L-3.359,8.307L-3.299,8.009L-3.571,6.731L-3.581,6.682L-3.863,5.233L-4.04,4.34L-4.167,4.302L-4.734,7.213L-4.769,7.386L-4.734,7.213L-4.167,4.302L-4.121,4.07L-4.011,3.516L-4.043,4.027L-4.121,4.07L-4.167,4.302L-4.04,4.34L-3.603,4.469L-2.774,4.13L-2.757,4.047L-3.208,3.912L-3.585,3.662L-3.652,3.434L-3.839,3.285L-3.818,2.931L-3.828,2.225L-3.835,2.233L-3.839,2.199L-4.66,1.148L-4.681,1.034L-5.446,0.694L-5.58,0.687L-5.584,0.632L-6.031,0.433L-7.512,-0.224L-7.769,-0.541L-8.312,-1.209L-8.569,-1.525L-8.95,-2.656L-9.161,-3.291L-9.2,-3.407L-9.229,-3.489L-9.655,-4.753L-10.748,-5.085L-11.058,-5.177L-11.347,-5.265L-11.467,-5.282L-11.766,-5.302L-12.866,-5.338L-13.444,-5.486L-14.865,-5.272L-15.066,-5.213L-15.076,-5.203L-15.224,-5.146L-15.411,-5.085L-15.778,-4.956L-16.296,-4.704L-16.462,-4.618L-16.656,-3.932L-16.804,-3.414L-16.892,-2.872L-17.167,-1.227L-17.206,-1.005L-17.012,-0.141L-16.374,-0.941L-17.012,-0.141L-16.716,0.704L-16.737,1.186L-16.758,1.751L-16.765,1.86L-16.779,2.226L-16.811,2.993L-16.775,3.114L-16.62,3.67L-15.824,6.476L-14.178,10.605L-13.561,11.51L-13.455,11.553L-12.338,12.005L-11.911,11.891L-11.83,11.87L-11.682,11.83L-11.41,11.757L-10.487,11.51L-10.353,11.453L-7.699,10.3L-10.353,11.453L-10.487,11.51L-11.41,11.757L-11.682,11.83L-11.83,11.87L-11.911,11.891L-11.735,12.522L-11.71,12.636L-12.514,13.238L-12.806,13.616L-12.81,13.619L-14.139,14.45L-14.675,14.785L-14.83,14.883L-15.112,15.063L-14.921,15.253L-12.849,17.333L-12.778,17.366L-12.528,17.483L-7.124,20.008L-1.72,17.483L-1.47,17.366L-1.4,17.333L0.673,15.253L0.86,15.063L0.719,14.974L0,14.522Z" style="fill:rgb(120,71,34);fill-rule:nonzero;"/>
                </g>
            </g>
        </g>
    </g>
</svg>
