<?xml version="1.0" encoding="UTF-8" standalone="no"?>
<!DOCTYPE svg PUBLIC "-//W3C//DTD SVG 1.1//EN" "http://www.w3.org/Graphics/SVG/1.1/DTD/svg11.dtd">
<svg width="100%" height="100%" viewBox="0 0 140 220" version="1.1" xmlns="http://www.w3.org/2000/svg" xmlns:xlink="http://www.w3.org/1999/xlink" xml:space="preserve" xmlns:serif="http://www.serif.com/" style="fill-rule:evenodd;clip-rule:evenodd;stroke-linejoin:round;stroke-miterlimit:2;">
    <g transform="matrix(1,0,0,1,-1190.39,-688.109)">
        <g id="people-21">
            <g>
                <g transform="matrix(1,0,0,1,1256.96,794.223)">
                    <path d="M0,-0.584L-0.076,-1.523L-0.106,-1.878L-1.028,-0.338L-0.178,0.63L0.148,1.294L0.127,1.045L0,-0.584Z" style="fill:rgb(66,76,160);fill-rule:nonzero;"/>
                </g>
                <g transform="matrix(1,0,0,1,1263.18,795.585)">
                    <path d="M0,-3.164L-0.195,-1.696L-0.415,0L0.207,-0.651L1.053,-1.472L0,-3.164Z" style="fill:rgb(66,76,160);fill-rule:nonzero;"/>
                </g>
                <g transform="matrix(1,0,0,1,1266.61,779.465)">
                    <path d="M0,0.871L0.136,0.418L0.11,0L0,0.871Z" style="fill:rgb(26,26,26);fill-rule:nonzero;"/>
                </g>
                <g transform="matrix(1,0,0,1,1254.84,788.222)">
                    <path d="M0,0.714L0.051,0.837L0.106,0.96L0.306,1.438L0.297,0.634L0.297,0.562L0.284,-0.724L0,0.714Z" style="fill:rgb(26,26,26);fill-rule:nonzero;"/>
                </g>
                <g transform="matrix(1,0,0,1,1247.94,876.536)">
                    <path d="M0,0.206L-0.042,0.333L1.425,-0.127L0,0.206Z" style="fill:rgb(26,26,26);fill-rule:nonzero;"/>
                </g>
                <g transform="matrix(1,0,0,1,1247.31,876.754)">
                    <path d="M0,0.136L0.588,0.115L0.579,0L0,0.136Z" style="fill:rgb(26,26,26);fill-rule:nonzero;"/>
                </g>
                <g transform="matrix(1,0,0,1,1281.61,822.687)">
                    <path d="M0,-1.675L-0.051,-1.692L-0.871,-1.954L-1.29,0.279L0.148,-0.292L0,-1.675Z" style="fill:rgb(26,26,26);fill-rule:nonzero;"/>
                </g>
                <g transform="matrix(1,0,0,1,1274.58,821.49)">
                    <path d="M0,-1.359L-0.022,-1.354L-0.547,-1.24L0.067,-0.081L0.228,0.042L0.212,-1.401L0,-1.359Z" style="fill:rgb(26,26,26);fill-rule:nonzero;"/>
                </g>
                <g transform="matrix(1,0,0,1,1265.8,788.678)">
                    <path d="M0,-0.711L-0.016,0.008L-0.033,0.714L0.178,0.393L0.186,0.064L0.195,-0.266L0.221,-1.244L0.018,-1.425L0,-0.711Z" style="fill:rgb(26,26,26);fill-rule:nonzero;"/>
                </g>
                <g transform="matrix(1,0,0,1,1256.89,900.363)">
                    <path d="M0,4.645L-0.208,0.004L-0.292,0L0,4.645Z" style="fill:rgb(26,26,26);fill-rule:nonzero;"/>
                </g>
                <g transform="matrix(1,0,0,1,1255.77,792.341)">
                    <path d="M0,-1.345L-0.114,-1.489L-0.381,-2.111L-0.622,-2.682L-0.821,-3.159L-0.875,-3.282L-0.926,-3.405L-0.643,-4.843L-0.643,-4.962L-1.616,-3.02L-1.967,-2.326L-1.984,-2.288L-2.077,-2.106L-2.124,-1.04L-2.094,-0.824L-2.119,-0.736L-2.145,-0.664L-2.174,-0.021L-1.849,1.049L-1.709,1.51L-1.527,2.119L-1.146,3.376L-1.074,3.617L0.165,1.544L1.087,0.004L0.833,-0.313L0,-1.345Z" style="fill:rgb(0,188,218);fill-rule:nonzero;"/>
                </g>
                <g transform="matrix(1,0,0,1,1265.58,787.73)">
                    <path d="M0,8.063L0.745,6.261L0.935,5.808L1.37,4.751L1.472,4.112L1.455,4.036L1.438,3.947L1.531,3.736L1.705,2.67L1.633,2.441L1.616,2.395L1.349,1.544L1.294,1.367L0.436,-0.296L0.41,0.682L0.402,1.012L0.393,1.342L0.182,1.663L-0.279,2.365L-0.812,3.177L-0.85,3.232L-1.802,4.125L-2.407,4.688L-2.407,4.692L-1.354,6.384L-0.123,8.359L0,8.063Z" style="fill:rgb(0,188,218);fill-rule:nonzero;"/>
                </g>
                <g transform="matrix(1,0,0,1,1254.84,905.434)">
                    <path d="M0,-2.288L-2.699,-2.288L-2.838,-2.144L-4.243,-1.26L-4.687,-0.194L-4.729,0L-4.598,-0.338L-2.94,-1.717L-0.525,-1.717L1.324,-0.477L-0.254,-2.144L0,-2.288Z" style="fill:rgb(0,188,218);fill-rule:nonzero;"/>
                </g>
                <g transform="matrix(1,0,0,1,1271.71,905.358)">
                    <path d="M0,-1.794L-1.214,-2.437L-3.765,-2.268L-6.514,-0.157L-6.518,0.406L-5.643,0.643L-4.534,0.198L-2.555,-0.88L-0.275,-1.037L1.092,0.004L0,-1.794Z" style="fill:rgb(0,188,218);fill-rule:nonzero;"/>
                </g>
                <g transform="matrix(1,0,0,1,1274.04,863.338)">
                    <path d="M0,-14.619L-0.076,-14.518L-1.51,-12.716L-1.967,-12.724L-2.081,-12.627L-2.255,-12.487L-2.365,-12.394L-2.796,-11.751L-4.019,-10.626L-4.065,-10.643L-4.509,-10.804L-4.733,-11.036L-4.611,-11.248L-5.046,-11.104L-5.237,-11.349L-5.414,-11.87L-4.023,-12.83L-4.856,-13.206L-5.046,-13.388L-4.869,-13.9L-3.972,-13.773L-3.24,-13.671L-3.063,-13.993L-3.701,-14.788L-3.32,-14.945L-2.771,-14.687L-2.745,-14.784L-2.305,-16.32L-2.128,-18.244L-3.16,-16.743L-3.278,-16.569L-3.913,-15.757L-4.217,-15.364L-4.941,-15.567L-5.105,-15.837L-4.67,-17.331L-3.807,-19.319L-3.739,-19.467L-3.794,-19.712L-3.604,-19.699L-2.271,-20.977L-1.688,-21.535L-0.372,-23.037L-0.651,-27.208L-0.749,-27.851L-1.87,-27.728L-3.854,-27.512L-4.678,-27.419L-5.634,-27.317L-7.255,-27.335L-10.038,-27.368L-12.931,-27.406L-14.945,-27.432L-17.838,-27.466L-20.621,-27.499L-22.241,-27.521L-23.193,-27.647L-24.018,-27.757L-25.993,-28.02L-27.11,-28.172L-27.224,-27.533L-27.931,-19.822L-27.855,-18.21L-27.85,-18.117L-27.846,-18.071L-27.842,-17.948L-27.838,-17.851L-27.791,-16.903L-27.711,-15.283L-27.706,-15.165L-27.677,-14.526L-27.656,-14.145L-27.614,-13.211L-26.937,0.778L-26.734,13.553L-26.154,13.417L-26.15,13.417L-26.103,13.405L-24.678,13.07L-23.434,12.779L-23.193,12.724L-22.804,12.631L-21.958,12.432L-20.524,12.098L-20.236,12.127L-19.606,12.186L-18.451,12.301L-18.185,12.33L-16.797,12.465L-16.649,12.483L-16.645,12.483L-14.289,12.715L-14.471,0.545L-14.073,-16.51L-14.069,-16.705L-14.039,-16.489L-13.895,-15.482L-12.597,-0.453L-12.665,11.345L-11.704,12.457L-11.252,12.483L-11.006,12.495L-10.41,12.529L-9.09,12.605L-7.885,12.677L-6.269,12.766L-5.812,12.795L-4.37,12.876L-4.052,12.838L-3.887,12.817L0.313,12.309L0.398,-0.038L0,-14.619Z" style="fill:rgb(205,152,99);fill-rule:nonzero;"/>
                </g>
                <g transform="matrix(1,0,0,1,1256.46,903.945)">
                    <path d="M0,-3.731L-0.042,-3.778L-0.605,-4.404L-0.706,-4.446L-1.07,-4.611L-1.891,-4.979L-2.014,-5.034L-3.409,-5.034L-3.579,-4.949L-3.951,-4.767L-4.154,-4.67L-4.699,-4.404L-5.715,-1.561L-6.311,1.294L-5.867,0.228L-4.463,-0.656L-4.323,-0.8L-1.624,-0.8L-0.482,0.685L-0.11,1.172L-0.009,1.303L0.427,1.062L0.135,-3.583L0,-3.731Z" style="fill:rgb(235,235,235);fill-rule:nonzero;"/>
                </g>
                <g transform="matrix(1,0,0,1,1256.89,900.633)">
                    <path d="M0,4.375L0.77,4.641L-0.208,-0.266L0,4.375Z" style="fill:rgb(235,235,235);fill-rule:nonzero;"/>
                </g>
                <g transform="matrix(1,0,0,1,1270.79,901.467)">
                    <path d="M0,-0.601L-1.544,-4.07L-2.271,-4.268L-2.479,-4.323L-2.525,-4.336L-3.418,-4.277L-3.841,-4.247L-4.044,-4.193L-5.055,-3.909L-5.41,-3.808L-5.465,-3.795L-6.222,-3.6L-6.582,-3.507L-7.03,-3.926L-7.402,-3.084L-8.456,0.452L-6.861,1.163L-5.837,2.047L-5.592,3.735L-2.843,1.624L-0.292,1.455L0.922,2.097L0,-0.601Z" style="fill:rgb(235,235,235);fill-rule:nonzero;"/>
                </g>
                <g transform="matrix(1,0,0,1,1256.45,905.654)">
                    <path d="M0,-0.406L-0.101,-0.537L-0.474,-1.024L-1.616,-2.508L-1.87,-2.364L-0.292,-0.698L-2.14,-1.937L-4.556,-1.937L-6.214,-0.558L-6.345,-0.22L-6.616,0.482L-6.616,2.102L-6.214,1.552L-4.716,0.262L-2.301,0.262L-0.499,1.552L-0.292,1.603L0.448,2.102L0.74,2.102L0.74,1.955L1.206,1.73L1.206,-0.38L0.436,-0.647L0,-0.406Z" style="fill:rgb(64,205,227);fill-rule:nonzero;"/>
                </g>
                <g transform="matrix(1,0,0,1,1271.44,905.468)">
                    <path d="M0,-1.146L-2.28,-0.99L-4.26,0.089L-5.368,0.534L-6.244,0.297L-6.24,-0.266L-6.485,-1.954L-7.508,-2.838L-9.103,-3.549L-9.15,-1.489L-7.568,-0.16L-7.53,-0.139L-7.022,-0.139L-6.878,-0.689L-6.519,-0.478L-6.447,-0.291L-6.442,-0.177L-6.396,0.44L-6.265,1.015L-6.273,1.417L-6.273,1.726L-5.41,2.403L-4.311,2.331L-4.078,2.314L-2.001,1.345L0.279,1.193L1.319,1.95L1.366,-0.105L0,-1.146Z" style="fill:rgb(64,205,227);fill-rule:nonzero;"/>
                </g>
                <g transform="matrix(1,0,0,1,1263.39,896.842)">
                    <path d="M0,1.541L0.373,0.699L0.308,0L0,1.541Z" style="fill:rgb(64,205,227);fill-rule:nonzero;"/>
                </g>
                <g transform="matrix(1,0,0,1,1263.69,897.63)">
                    <path d="M0,-0.787L0.065,-0.088L0.512,0.33L0.872,0.238L0.538,0.123L0.496,0.055L0.313,-0.106L0.195,-0.317L0.216,-0.8L0.229,-1.117L0,-0.787Z" style="fill:rgb(48,48,48);fill-rule:nonzero;"/>
                </g>
                <g transform="matrix(1,0,0,1,1255.95,906.467)">
                    <path d="M0,0.74L-1.802,-0.55L-4.217,-0.55L-5.715,0.74L-6.116,1.29L0.948,1.29L0.207,0.791L0,0.74Z" style="fill:rgb(48,48,48);fill-rule:nonzero;"/>
                </g>
                <g transform="matrix(1,0,0,1,1264.41,904.779)">
                    <path d="M0,0.549L0.581,0.511L0.576,0.397L0.503,0.21L0.145,0L0,0.549Z" style="fill:rgb(48,48,48);fill-rule:nonzero;"/>
                </g>
                <g transform="matrix(-0.997785,0.066519,0.066519,0.997785,1268.44,907.891)">
                    <path d="M-3.351,-1.009L-1.066,-1.009L1.071,-0.181L-4.338,-0.185L-3.351,-1.009Z" style="fill:rgb(48,48,48);fill-rule:nonzero;"/>
                </g>
                <g transform="matrix(0.676625,0.736328,0.736328,-0.676625,1256.5,900.135)">
                    <path d="M0.032,-0.082L0.233,-0.082L0.292,-0.024L-0.073,0.015L0.032,-0.082Z" style="fill:rgb(48,48,48);fill-rule:nonzero;"/>
                </g>
                <g transform="matrix(1,0,0,1,1257.39,895.549)">
                    <path d="M0,-19.729L-0.148,-19.746L-1.536,-19.881L-1.802,-19.911L-2.957,-20.025L-3.587,-20.084L-3.875,-20.114L-5.309,-19.78L-6.155,-19.581L-6.544,-19.488L-6.785,-19.433L-6.633,-14.268L-5.283,0.228L-4.37,0.012L-3.27,0.012L-1.844,0.228L-0.855,0.385L0.596,-14.475L0.609,-14.657L0.004,-19.729L0,-19.729Z" style="fill:rgb(120,71,34);fill-rule:nonzero;"/>
                </g>
                <g transform="matrix(1,0,0,1,1269.67,893.359)">
                    <path d="M0,-17.145L-1.443,-17.226L-1.899,-17.255L-3.515,-17.344L-4.721,-17.416L-6.04,-17.492L-6.637,-17.526L-6.882,-17.538L-7.385,-15.034L-5.605,-0.229L-5.423,0.126L-4.061,0.393L-2.491,0.342L-1.514,0.202L-0.969,-0.005L0.301,-14.434L0.482,-17.204L0.317,-17.183L0,-17.145Z" style="fill:rgb(120,71,34);fill-rule:nonzero;"/>
                </g>
                <g transform="matrix(1,0,0,1,1244.33,825.716)">
                    <path d="M0,20.803L0,20.74L0.279,22.846L0,20.803ZM0.732,20.659L0.588,20.583L0.622,20.431L0.736,20.655L0.744,20.668L0.732,20.659ZM0.013,19.927L0.004,19.949L0.004,19.911L0.013,19.927ZM2.098,24.411L2.056,23.476L2.035,23.096L1.726,22.884L1.341,22.377L1.54,22.415L1.557,22.453L1.633,22.436L1.899,22.491L1.87,22.372L2.001,22.338L1.92,20.718L1.874,19.771L1.87,19.673L1.865,19.551L1.849,19.504L1.823,19.42L1.375,17.998L0.165,15.592L0.101,15.465L0.085,14.551L-0.833,12.153L0.859,-0.613L0.985,-4.755L1.083,-5.482L0.778,-5.368L-0.254,-4.975L-1.316,-4.573L-1.997,-4.662L-2.119,-4.454L-2.124,-4.678L-3.642,-4.873L-3.655,-4.89L-3.667,-4.869L-3.68,-4.915L-3.896,-5.14L-4.133,-1.493L-3.414,13.443L-2.009,19.412L-1.544,21.023L-0.584,23.447L0.258,25.054L1.303,26.285L1.857,26.099L0.985,24.212L0.74,23.642L1.222,24.115L2.098,24.411Z" style="fill:rgb(120,71,34);fill-rule:nonzero;"/>
                </g>
                <g transform="matrix(1,0,0,1,1273.17,824.269)">
                    <path d="M0,23.955L0.068,23.819L0.216,23.866L0,23.955ZM6.658,-3.828L6.345,-3.929L5.529,-4.192L4.936,-4.263L4.243,-4.348L3.063,-4.488L2.978,-4.471L2.348,-4.336L2.085,-4.28L1.62,-4.179L1.637,-2.736L1.654,-1.159L1.176,2.843L0.918,15.554L0.499,16.032L-0.816,17.534L-1.4,18.092L-2.733,19.369L-2.796,19.429L-2.868,19.602L-2.936,19.75L-3.799,21.738L-4.234,23.232L-4.069,23.502L-3.346,23.705L-3.041,23.312L-2.407,22.5L-2.288,22.326L-1.256,20.825L-1.434,22.749L-1.874,24.285L-1.899,24.382L-2.449,24.124L-2.83,24.281L-2.191,25.076L-2.369,25.397L-3.101,25.296L-3.997,25.169L-4.175,25.681L-3.985,25.863L-3.151,26.239L-4.543,27.199L-4.365,27.72L-4.175,27.965L-3.74,27.821L-3.862,28.033L-3.638,28.265L-3.194,28.426L-3.147,28.443L-1.925,27.318L-1.493,26.675L-1.383,26.582L-1.21,26.442L-1.096,26.345L-0.639,26.353L0.871,24.45L0.884,24.429L1.138,23.938L1.18,23.858L1.654,23.244L3.765,17.272L6.671,3.668L6.984,-0.38L7.153,-1.302L7.572,-3.536L6.658,-3.828Z" style="fill:rgb(120,71,34);fill-rule:nonzero;"/>
                </g>
                <g transform="matrix(1,0,0,1,1279.6,821.794)">
                    <path d="M0,-18.294L-2.382,-25.35L-2.703,-25.828L-6.222,-28.455L-12.669,-32.52L-12.402,-31.669L-12.386,-31.623L-12.314,-31.395L-12.487,-30.329L-12.58,-30.117L-12.563,-30.028L-12.546,-29.952L-12.648,-29.313L-13.083,-28.256L-13.274,-27.803L-14.018,-26.001L-14.141,-25.705L-15.372,-27.681L-16.218,-26.86L-16.84,-26.209L-17.872,-24.94L-19.678,-22.723L-21.154,-24.703L-22.512,-26.526L-22.491,-26.276L-22.817,-26.94L-23.667,-27.909L-24.906,-25.836L-24.978,-26.077L-25.359,-27.334L-25.541,-27.943L-25.681,-28.404L-26.006,-29.474L-25.977,-30.117L-25.951,-30.189L-25.926,-30.278L-25.955,-30.493L-25.909,-31.56L-25.816,-31.741L-25.799,-31.779L-25.448,-32.473L-31.569,-28.763L-35.697,-25.756L-38.129,-18.755L-40.591,-2.698L-39.166,-1.218L-38.95,-0.993L-38.937,-0.981L-38.925,-0.968L-38.912,-0.951L-37.393,-0.757L-37.266,-0.74L-36.585,-0.651L-35.524,-1.053L-34.492,-1.446L-34.187,-1.56L-33.303,-1.899L-32.838,-2.91L-32.77,-3.726L-32.529,2.196L-32.525,2.306L-33.527,12.2L-33.13,13.342L-32.88,13.346L-32.677,13.372L-32.668,13.372L-31.552,13.524L-29.576,13.786L-28.751,13.896L-27.8,14.023L-26.18,14.044L-23.396,14.078L-20.503,14.112L-19.496,14.125L-18.49,14.137L-15.596,14.175L-12.813,14.209L-11.193,14.226L-10.237,14.125L-9.412,14.031L-7.428,13.816L-6.307,13.693L-6.303,13.693L-6.1,13.672L-5.846,13.676L-5.423,12.547L-6.18,2.628L-5.609,-9.043L-5.567,-1.543L-5.042,-1.658L-5.021,-1.662L-4.81,-1.704L-4.344,-1.806L-4.082,-1.861L-3.452,-1.996L-3.367,-2.013L-2.187,-1.873L-1.493,-1.789L-0.901,-1.717L-0.085,-1.455L0.228,-1.353L1.142,-1.061L1.963,-0.799L2.013,-0.782L0,-18.294Z" style="fill:rgb(66,76,160);fill-rule:nonzero;"/>
                </g>
                <g transform="matrix(1,0,0,1,1267.26,778.31)">
                    <path d="M0,-9.069L-2.183,-10.309L-3.27,-11.129L-3.557,-11.087L-6.455,-11.514L-6.755,-11.455L-9.983,-11.163L-13.616,-9.234L-14.835,-5.757L-14.906,-4.31L-14.327,-1.781L-13.625,-0.148L-13.324,-2.843L-11.835,-4.975L-9.53,-5.753L-7.301,-5.685L-5.034,-5.698L-2.639,-4.865L-1.1,-2.695L-0.524,0.013L-0.766,2.445L-0.647,2.026L-0.537,1.155L-0.431,1.29L-0.385,1.142L-0.245,0.914L0.025,0.465L0.262,0.262L0.541,0.017L1.07,-2.03L1.244,-6.108L0,-9.069Z" style="fill:rgb(92,92,92);fill-rule:nonzero;"/>
                </g>
                <g transform="matrix(1,0,0,1,1266.26,780.754)">
                    <path d="M0,1.092L0.186,0.944L0.228,0L0,1.092Z" style="fill:rgb(92,92,92);fill-rule:nonzero;"/>
                </g>
                <g transform="matrix(1,0,0,1,1268.16,897.436)">
                    <path d="M0,-3.875L-0.977,-3.735L-2.546,-3.684L-3.909,-3.951L-4.09,-4.306L-4.234,-0.922L-4.247,-0.605L-4.268,-0.123L-4.15,0.089L-3.968,0.249L-3.925,0.317L-3.591,0.431L-2.834,0.237L-2.779,0.224L-2.424,0.122L-1.413,-0.161L-1.21,-0.216L-0.787,-0.245L0.106,-0.305L0.152,-0.292L0.36,-0.237L0.546,-4.082L0,-3.875Z" style="fill:white;fill-rule:nonzero;"/>
                </g>
                <g transform="matrix(1,0,0,1,1254.12,900.214)">
                    <path d="M0,-4.653L-1.1,-4.653L-2.014,-4.437L-1.815,-0.939L-1.612,-1.036L-1.24,-1.218L-1.07,-1.303L0.326,-1.303L0.448,-1.248L1.269,-0.88L1.633,-0.715L1.734,-0.673L2.297,-0.047L2.339,0L2.339,-1.565L2.415,-4.281L1.425,-4.437L0,-4.653Z" style="fill:white;fill-rule:nonzero;"/>
                </g>
                <g transform="matrix(1,0,0,1,1268.64,792.591)">
                    <path d="M0,-13.553L0.008,-14.086L-0.393,-14.344L-0.745,-14.348L-0.842,-14.264L-1.121,-14.018L-1.358,-13.815L-1.629,-13.367L-1.768,-13.138L-1.815,-12.991L-1.921,-13.126L-1.895,-12.707L-2.031,-12.254L-2.149,-11.836L-2.191,-10.892L-2.377,-10.744L-2.149,-11.836L-1.908,-14.268L-2.483,-16.975L-4.023,-19.145L-6.417,-19.978L-8.684,-19.966L-10.913,-20.033L-13.219,-19.255L-14.708,-17.123L-15.008,-14.428L-15.008,-14.395L-14.898,-13.324L-15.236,-13.984L-15.736,-14.53L-16.087,-14.534L-16.362,-14.285L-16.366,-13.752L-16.391,-13.439L-16.438,-12.897L-15.736,-10.144L-14.915,-8.126L-14.018,-8.253L-13.536,-7.314L-13.515,-5.211L-13.515,-5.093L-13.502,-3.807L-13.502,-3.735L-13.494,-2.931L-13.253,-2.361L-12.986,-1.739L-12.872,-1.595L-12.039,-0.563L-11.785,-0.245L-11.755,0.11L-11.679,1.049L-11.552,2.677L-10.194,4.501L-8.718,6.48L-6.912,4.264L-5.88,2.995L-5.66,1.299L-5.465,-0.169L-5.465,-0.173L-4.86,-0.736L-3.909,-1.629L-3.871,-1.684L-3.338,-2.495L-2.876,-3.198L-2.859,-3.904L-2.843,-4.623L-2.826,-5.338L-2.771,-7.733L-2.699,-8.109L-1.734,-7.969L-0.656,-9.962L0.127,-12.699L0.152,-12.749L0,-13.553Z" style="fill:rgb(120,71,34);fill-rule:nonzero;"/>
                </g>
            </g>
        </g>
    </g>
</svg>
