<?xml version="1.0" encoding="UTF-8" standalone="no"?>
<!DOCTYPE svg PUBLIC "-//W3C//DTD SVG 1.1//EN" "http://www.w3.org/Graphics/SVG/1.1/DTD/svg11.dtd">
<svg width="100%" height="100%" viewBox="0 0 140 220" version="1.1" xmlns="http://www.w3.org/2000/svg" xmlns:xlink="http://www.w3.org/1999/xlink" xml:space="preserve" xmlns:serif="http://www.serif.com/" style="fill-rule:evenodd;clip-rule:evenodd;stroke-linejoin:round;stroke-miterlimit:2;">
    <g id="people-01" transform="matrix(1.27,0,0,1.27,-1711.36,-84.8)">
        <g transform="matrix(0.787402,0,0,0.787402,1396.86,115.775)">
            <path d="M0,2.528L0.671,3.068L1.595,3.065L1.783,3.064L2.487,2.857L2.939,2.723L3.347,2.243L3.7,1.828L3.722,1.802L3.836,1.493L3.896,1.511L4.033,1.021L4.144,0.622L4.15,0.599L3.309,-0.54L0.739,-0.533L-0.128,0.103L-0.517,1.086L-0.522,1.85L-0.24,2.336L-0.119,2.433L-0.082,2.462L0,2.528Z" style="fill:rgb(0,188,218);fill-rule:nonzero;"/>
        </g>
        <g transform="matrix(0.787402,0,0,0.787402,1401.22,118.19)">
            <path d="M0,-3.608L-0.93,-2.469L-0.924,-2.449L-0.834,-2.138L-0.774,-1.931L-0.628,-1.429L-0.576,-1.373L0.129,-0.599L0.362,-0.344L1.015,-0.167L1.616,-0.003L2.047,-0.002L2.827,0L3.463,-0.466L3.257,-1.066L3.137,-3.371L2.797,-3.601L0,-3.608Z" style="fill:rgb(0,188,218);fill-rule:nonzero;"/>
        </g>
        <g transform="matrix(0.787402,0,0,0.787402,1402.97,116.242)">
            <path d="M0,-1.301L-0.405,-1.302L-0.966,-1.303L-2.008,-1.306L-2.38,-1.307L-2.571,-1.04L-2.877,-0.611L-3.072,-0.338L-3.205,-0.15L-3.16,0.006L-2.23,-1.133L0.568,-1.127L0.907,-0.896L0.896,-1.105L0.62,-1.299L0,-1.301Z" style="fill:rgb(142,142,142);fill-rule:nonzero;"/>
        </g>
        <g transform="matrix(0.787402,0,0,0.787402,1397.44,116.488)">
            <path d="M0,-1.439L2.569,-1.446L3.411,-0.306L3.454,-0.463L3.334,-0.65L3.056,-1.082L2.881,-1.353L2.71,-1.619L2.387,-1.618L1.588,-1.616L1.028,-1.615L0.743,-1.614L-0.046,-1.612L-0.156,-1.529L-0.461,-1.297L-0.515,-1.256L-0.965,-0.914L-1.255,-0.085L-1.257,0.18L-0.867,-0.803L0,-1.439Z" style="fill:rgb(142,142,142);fill-rule:nonzero;"/>
        </g>
        <g transform="matrix(0.787402,0,0,0.787402,1399.81,236.166)">
            <path d="M0,-0.094L-5.873,0L0.128,-0.009L0,-0.094Z" style="fill:rgb(68,114,37);fill-rule:nonzero;"/>
        </g>
        <g transform="matrix(0.787402,0,0,0.787402,1399.61,233.03)">
            <path d="M0,-3.315L-1.804,-2.316L-2.553,-1.902L-5.988,0L-5.52,-0.144L0,-3.315Z" style="fill:rgb(68,114,37);fill-rule:nonzero;"/>
        </g>
        <g transform="matrix(0.787402,0,0,0.787402,1419.17,167.722)">
            <path d="M0,-0.263L0.324,0.841L0.333,0.819L-0.196,-1.104L-0.245,-1.095L0,-0.263Z" style="fill:rgb(68,114,37);fill-rule:nonzero;"/>
        </g>
        <g transform="matrix(0.787402,0,0,0.787402,1419.3,167.86)">
            <path d="M0,1.082L-0.151,1.922L0.736,-0.84L0.189,0.589L0.168,0.644L0.159,0.667L0,1.082Z" style="fill:rgb(68,114,37);fill-rule:nonzero;"/>
        </g>
        <g transform="matrix(0.787402,0,0,0.787402,1381.9,171.129)">
            <path d="M0,0.1L-0.625,0L-0.65,0.083L0,0.1Z" style="fill:rgb(68,114,37);fill-rule:nonzero;"/>
        </g>
        <g transform="matrix(0.787402,0,0,0.787402,1379.39,176.154)">
            <path d="M0,-0.805L-0.565,0L0.097,-0.803L0,-0.805Z" style="fill:rgb(68,114,37);fill-rule:nonzero;"/>
        </g>
        <g transform="matrix(0.730857,0.293001,0.293001,-0.730857,1381.48,178.014)">
            <path d="M-0.012,-0.131L0.706,-0.131L-0.012,-0.049L-0.006,-0.105L-0.012,-0.131Z" style="fill:rgb(68,114,37);fill-rule:nonzero;"/>
        </g>
        <g transform="matrix(0.784168,-0.071288,-0.071288,-0.784168,1406.15,126.795)">
            <path d="M-0.052,0.019L0.158,0.019L0.41,0.018L-0.037,1.191L-0.052,0.019Z" style="fill:rgb(250,192,41);fill-rule:nonzero;"/>
        </g>
        <g transform="matrix(0.787402,0,0,0.787402,1407.42,110.937)">
            <path d="M0,-0.926L-0.943,-1.747L1.647,0.821L0,-0.926Z" style="fill:rgb(250,192,41);fill-rule:nonzero;"/>
        </g>
        <g transform="matrix(0.787402,0,0,0.787402,1406.49,121.751)">
            <path d="M0,0.618L0.833,0.37L0.003,-0.071L-0.029,-0.089L-0.297,0.707L0,0.618Z" style="fill:rgb(250,192,41);fill-rule:nonzero;"/>
        </g>
        <g transform="matrix(0.787402,0,0,0.787402,1398.71,126.753)">
            <path d="M0,0.469L-0.052,0.523L-0.04,0.542L0.097,0.537L1.189,0.5L1.468,0.491L1.508,0.457L1.496,0.265L1.491,0.183L-1.012,0.062L-2.459,-0.096L-0.701,0.565L-0.188,0.495L0.262,0.194L0,0.469Z" style="fill:rgb(250,192,41);fill-rule:nonzero;"/>
        </g>
        <g transform="matrix(0.787402,0,0,0.787402,1410.87,121.572)">
            <path d="M0,0.54L-0.276,-0.785L-0.159,1.325L0,0.54Z" style="fill:rgb(250,192,41);fill-rule:nonzero;"/>
        </g>
        <g transform="matrix(0.787402,0,0,0.787402,1399.88,107.583)">
            <path d="M0,24.529L-0.145,22.149L-0.169,21.668L-0.177,21.666L-0.85,21.491L-1.642,20.523L-1.852,20.265L-2.519,19.436L-2.633,19.011L-3.275,16.626L-3.966,12.999L-3.959,12.836L-4.08,12.739L-4.362,12.254L-4.358,11.489L-4.356,11.225L-4.066,10.395L-3.616,10.053L-3.562,10.012L-3.634,9.725L-3.596,9.641L-3.551,9.542L-3.516,9.468L-3.405,9.274L-3.161,8.689L-2.753,8.177L-2.452,7.533L-2.256,6.981L-2.225,6.909L-1.813,6.454L-1.489,6.221L-0.44,6.013L0.578,6.048L0.623,6.061L0.731,6.052L0.847,6.075L0.895,6.067L1.729,6.095L2.925,6.34L3.289,6.515L3.358,6.556L3.655,6.545L4.66,6.773L4.591,5.458L4.66,6.773L4.704,7.612L4.76,8.673L4.777,9.009L4.788,9.219L4.823,9.891L4.834,10.101L4.954,12.406L5.161,13.005L5.399,13.697L6.192,16.005L6.306,16.336L6.369,16.52L6.507,16.919L7.42,17.406L7.523,17.46L8.357,17.904L8.389,17.921L9.219,18.363L8.386,18.611L8.089,18.7L6.073,19.3L5.915,19.347L5.961,19.442L6.821,21.118L8.005,23.151L8.36,24.344L8.594,24.358L8.758,24.368L8.838,24.373L9.96,24.441L10.047,24.446L10.15,24.452L11.264,24.519L13.79,19.091L13.673,16.98L13.478,13.487L11.855,19.412L9.927,23.918L11.855,19.412L13.478,13.487L12.85,8.875L11.216,5.081L8.626,2.513L7.63,1.525L5.738,0L1.553,0.063L-0.368,0.53L-1.64,0.938L-2.367,2.086L-2.328,2.076L-2.367,2.086L-4.278,2.581L-6.384,5.58L-6.896,11.742L-4.874,7.209L-6.896,11.742L-7.903,13.999L-5.837,23.566L-3.951,24.25L-2.504,24.408L0,24.529Z" style="fill:rgb(250,192,41);fill-rule:nonzero;"/>
        </g>
        <g transform="matrix(0.787402,0,0,0.787402,1395.37,199.983)">
            <path d="M0,-0.026L0.967,0.117L0.942,-0.143L0,-0.026Z" style="fill:rgb(242,211,173);fill-rule:nonzero;"/>
        </g>
        <g transform="matrix(0.787402,0,0,0.787402,1399.61,203.185)">
            <path d="M0,34.588L-5.52,37.759L-5.138,37.682L-5.021,37.649L-3.548,37.233L-1.958,37.383L-0.066,37.946L0.928,38.708L1.58,39.024L2.199,38.975L2.042,34.797L1.692,30.909L2.747,21.261L2.766,21.086L3.619,18.251L3.621,18.245L3.743,16.945L4.163,12.469L4.059,10.631L3.894,7.729L3.69,4.142L4.376,-4.192L4.348,-4.195L3.659,-4.279L3.105,-4.346L3.01,-4.358L2.127,-4.378L1.188,-4.4L0.424,-4.418L-0.309,-4.435L-0.351,-4.436L-0.975,-4.414L-3.395,-4.328L-3.53,-4.324L-3.739,-4.298L-4.444,-4.21L-4.419,-3.95L-3.768,2.633L-5.626,11.716L-5.916,12.665L-3.622,26.243L-2.756,32.513L-2.855,30.808L-2.756,32.513L-2.704,33.393L-2.553,36.001L-1.804,35.587L0,34.588Z" style="fill:rgb(242,211,173);fill-rule:nonzero;"/>
        </g>
        <g transform="matrix(0.787402,0,0,0.787402,1410.2,236.41)">
            <path d="M0,-45.452L-1.728,-45.643L-1.761,-45.645L-2.682,-45.693L-3.852,-45.754L-5.264,-45.828L-5.793,-45.939L-6.351,-46.056L-6.634,-46.091L-7.342,-46.177L-8.151,-46.275L-8.281,-46.291L-8.516,-39.38L-9.556,-34.467L-9.391,-31.565L-9.286,-29.727L-9.706,-25.251L-9.828,-23.951L-9.83,-23.945L-9.548,-21.97L-9.604,-11.718L-10.46,-8.586L-11.052,-3.753L-10.336,-2.256L-9.557,-1.265L-8.274,0.77L-6.298,0.839L-4.713,0.735L-3.335,0.584L-2.919,0.151L-2.475,-0.405L-3.009,-1.202L-6.012,-5.379L-5.073,-11.242L-3.796,-15.94L-0.095,-30.032L-0.086,-31.219L-0.837,-38.769L0.679,-45.377L0.296,-45.419L0,-45.452Z" style="fill:rgb(242,211,173);fill-rule:nonzero;"/>
        </g>
        <g transform="matrix(0.787402,0,0,0.787402,1420.4,172.881)">
            <path d="M0,1.627L0.163,1.593L0.673,1.486L1.36,1.29L1.319,1.142L1.255,0.916L1.409,0.692L1.438,0.65L1.884,0L0.389,0.946L-0.118,1.267L0,1.627Z" style="fill:rgb(242,211,173);fill-rule:nonzero;"/>
        </g>
        <g transform="matrix(0.787402,0,0,0.787402,1421.39,174.233)">
            <path d="M0,-0.801L0.064,-0.575L0.105,-0.427L0.132,-0.334L0.166,-0.213L0.304,-0.043L0.339,0L0.064,-0.598L0,-0.801Z" style="fill:rgb(242,211,173);fill-rule:nonzero;"/>
        </g>
        <g transform="matrix(0.787402,0,0,0.787402,1421.54,173.896)">
            <path d="M0,0.405L0.104,0.386L-0.034,0.216L-0.068,0.095L-0.094,0.001L-0.781,0.197L-1.292,0.304L-1.455,0.338L-1.573,-0.022L-1.065,-0.343L-1.829,-0.095L-1.931,0.533L-1.752,0.539L-1.842,0.748L-0.747,0.544L-0.239,0.449L0,0.405Z" style="fill:rgb(242,211,173);fill-rule:nonzero;"/>
        </g>
        <g transform="matrix(0.787402,0,0,0.787402,1421.51,167.289)">
            <path d="M0,7.794L-0.154,8.018L-0.09,8.221L0.185,8.819L0.256,8.756L0.977,8.118L1.007,8.091L1.09,8.018L2.558,6.716L2.795,6.507L2.935,5.83L3.242,4.337L3.525,2.963L2.977,2.396L0.954,0.297L0.888,0.229L0.954,0.297L0.822,-0.633L0.785,-0.643L-0.588,-1.025L-0.658,-1.013L-1.036,-0.943L-1.069,-0.937L-1.127,-0.927L-2.156,-0.739L-2.298,-0.712L-3.156,-0.556L-3.165,-0.554L-2.636,1.368L-2.616,1.314L-2.068,-0.116L-2.055,-0.148L-2.068,-0.116L-2.955,2.647L-2.807,2.928L-2.159,4.157L-1.727,5.754L-1.154,6.232L-0.876,6.391L-0.368,5.865L-0.208,5.438L-0.106,5.166L-0.089,5.121L-0.271,4.449L-0.394,3.992L-0.449,3.788L-0.505,3.58L-0.511,3.557L-0.012,1.652L-0.505,3.58L-0.442,3.814L0.959,3.741L-0.442,3.814L-0.394,3.992L-0.271,4.449L-0.089,5.121L-0.106,5.166L-0.208,5.438L0.884,6.503L1.195,6.046L1.411,5.727L1.5,5.597L1.538,4.953L1.552,4.727L1.568,4.459L1.6,3.912L1.568,4.459L1.552,4.727L1.538,4.953L1.5,5.597L1.411,5.727L1.195,6.046L0.884,6.503L0.694,6.782L0.475,7.102L0.029,7.751L0,7.794Z" style="fill:rgb(242,211,173);fill-rule:nonzero;"/>
        </g>
        <g transform="matrix(0.787402,0,0,0.787402,1424.28,173.66)">
            <path d="M0,-5.128L-0.283,-3.754L-0.59,-2.261L-0.729,-1.584L-0.966,-1.374L-2.434,-0.073L-2.518,0L-2.332,-0.053L-1.203,-0.374L-0.712,-0.514L-0.661,-0.529L-0.082,-2.457L0.382,-4.001L0,-5.128Z" style="fill:rgb(242,211,173);fill-rule:nonzero;"/>
        </g>
        <g transform="matrix(0.787402,0,0,0.787402,1422.31,174.273)">
            <path d="M0,-0.255L-0.464,-0.169L-0.761,-0.113L-0.832,-0.051L-0.971,-0.074L-1.21,-0.03L-1.718,0.065L-0.361,0.198L1.073,-0.382L1.065,-0.453L0.57,-0.361L0,-0.255Z" style="fill:rgb(242,211,173);fill-rule:nonzero;"/>
        </g>
        <g transform="matrix(0.787402,0,0,0.787402,1423.72,172.654)">
            <path d="M0,0.764L-0.491,0.904L-1.62,1.225L-1.835,1.304L-2.556,1.943L-2.259,1.888L-1.795,1.801L-1.225,1.695L-0.73,1.603L-0.67,1.592L-0.118,1.489L0.762,-0.758L0.631,-1.179L0.052,0.749L0,0.764Z" style="fill:rgb(242,211,173);fill-rule:nonzero;"/>
        </g>
        <g transform="matrix(0.395539,-0.680845,-0.680845,-0.395539,1381.7,177.756)">
            <path d="M-0.163,0.164L0.08,0.164L0.283,0.286L-0.141,0.172L-0.163,0.164Z" style="fill:rgb(242,211,173);fill-rule:nonzero;"/>
        </g>
        <g transform="matrix(0.787402,0,0,0.787402,1379.59,175.72)">
            <path d="M0,-0.249L-0.106,-0.251L-0.27,0.002L0,-0.249Z" style="fill:rgb(242,211,173);fill-rule:nonzero;"/>
        </g>
        <g transform="matrix(0.787402,0,0,0.787402,1381.14,178.577)">
            <path d="M0,-0.066L-0.102,0.082L0.105,0.204L0.894,0.532L1.093,0.33L1.199,0.049L1.032,-0.331L0.365,-0.598L0,-0.066Z" style="fill:rgb(242,211,173);fill-rule:nonzero;"/>
        </g>
        <g transform="matrix(0.787402,0,0,0.787402,1379.07,175.704)">
            <path d="M0,0.629L0.156,0.389L0.212,0.303L0.393,0.022L0.557,-0.231L0.512,-0.232L-0.15,0.57L-0.151,0.861L-0.028,0.672L0,0.629Z" style="fill:rgb(242,211,173);fill-rule:nonzero;"/>
        </g>
        <g transform="matrix(0.787402,0,0,0.787402,1379.23,176.958)">
            <path d="M0,-1.289L0.091,-0.394L0.124,-0.068L0.297,0.025L0.353,0.006L0.443,0.104L1.238,0.532L1.3,0.302L1.372,0.036L1.443,-0.23L1.476,-0.353L1.233,-0.622L0.841,-1.813L0.601,-1.818L0.558,-1.818L0.541,-1.819L0.452,-1.821L0.182,-1.569L0,-1.289Z" style="fill:rgb(242,211,173);fill-rule:nonzero;"/>
        </g>
        <g transform="matrix(0.787402,0,0,0.787402,1380.89,177.926)">
            <path d="M0,1.219L-0.03,1.262L-0.267,1.263L-0.839,0.983L-0.861,0.567L-0.877,0.276L-0.878,0.264L-2.414,-0.643L-2.449,-0.663L-2.448,-0.64L-2.448,-0.633L-2.447,-0.607L-2.439,-0.269L-1.767,0.835L-1.676,0.985L-1.469,1.303L-1.366,1.381L0.33,1.882L0.727,1.857L0.765,1.798L0.537,1.1L0.42,1.031L0.213,0.909L0,1.219Z" style="fill:rgb(242,211,173);fill-rule:nonzero;"/>
        </g>
        <g transform="matrix(0.787402,0,0,0.787402,1380.2,175.943)">
            <path d="M0,2.783L-0.017,2.471L-0.036,2.109L-0.042,2.007L0.008,1.821L-0.788,1.393L-0.933,1.314L-1.107,1.221L-1.14,0.895L-1.23,0L-1.286,0.086L-1.442,0.326L-1.47,0.369L-1.543,1.163L-1.578,1.551L-1.571,1.856L-1.536,1.876L0,2.783Z" style="fill:rgb(242,211,173);fill-rule:nonzero;"/>
        </g>
        <g transform="matrix(0.787402,0,0,0.787402,1379.05,177.164)">
            <path d="M0,-1.182L-0.123,-0.993L-0.124,-0.615L-0.109,0L-0.073,-0.389L0,-1.182Z" style="fill:rgb(242,211,173);fill-rule:nonzero;"/>
        </g>
        <g transform="matrix(0.787402,0,0,0.787402,1382.28,180.01)">
            <path d="M0,-11.118L-0.28,-11.146L-0.478,-11.178L-1.128,-11.196L-1.18,-11.29L-2.85,-11.557L-2.889,-11.295L-3.009,-10.504L-2.889,-11.295L-6.055,-6.539L-5.623,-4.111L-5.799,-5.608L-5.875,-6.245L-5.928,-6.7L-5.875,-6.245L-5.799,-5.608L-5.623,-4.111L-5.828,-6.212L-5.623,-4.111L-5.621,-4.094L-5.445,-2.307L-4.077,-0.667L-2.928,0.439L-2.75,0.206L-2.59,-0.36L-3.205,-1.306L-3.23,-1.343L-3.437,-1.661L-3.528,-1.811L-4.199,-2.915L-4.208,-3.254L-4.208,-3.28L-4.209,-3.286L-4.209,-3.31L-4.217,-3.614L-4.232,-4.229L-4.237,-2.805L-4.232,-4.229L-4.231,-4.607L-4.23,-4.898L-3.665,-5.702L-3.568,-5.7L-3.523,-5.699L-3.417,-5.697L-3.327,-5.695L-3.311,-5.695L-3.268,-5.694L-3.028,-5.689L-2.26,-5.674L-2.538,-7.456L-2.26,-5.674L-2.166,-5.071L-2.392,-4.23L-2.425,-4.106L-2.497,-3.84L-2.568,-3.575L-2.63,-3.344L-2.68,-3.158L-2.675,-3.056L-2.655,-2.695L-2.638,-2.382L-2.638,-2.371L-2.622,-2.079L-2.599,-1.664L-2.027,-1.384L-1.79,-1.384L-1.76,-1.428L-1.547,-1.738L-1.445,-1.886L-1.08,-2.418L-1.065,-2.44L-1.051,-2.494L-0.965,-2.804L-0.961,-2.827L-0.847,-3.251L-0.552,-4.346L0.596,-7.184L0.748,-9.174L0.584,-9.694L0.564,-9.758L0.925,-11.022L0.029,-11.115L0,-11.118Z" style="fill:rgb(242,211,173);fill-rule:nonzero;"/>
        </g>
        <g transform="matrix(0.787402,0,0,0.787402,1406.03,123.779)">
            <path d="M0,2.647L0.551,3.774L0.195,2.581L-0.988,0.548L-1.848,-1.127L-1.463,-0.34L0,2.647Z" style="fill:rgb(242,211,173);fill-rule:nonzero;"/>
        </g>
        <g transform="matrix(0.787402,0,0,0.787402,1416.39,183.61)">
            <path d="M0,-5.041L-0.882,-4.907L-2.209,-4.704L-3.37,-4.527L-5.825,-4.075L-6.504,-3.95L-6.857,-3.89L-7.987,-3.7L-10.009,-3.359L-10.098,-5.279L-10.303,-9.686L-10.398,-11.733L-10.512,-14.176L-10.631,-16.079L-11.154,-24.471L-11.206,-25.252L-11.291,-26.532L-11.292,-26.545L-15.069,-26.73L-16.505,-26.801L-16.512,-26.801L-19.613,-26.648L-21.727,-26.545L-21.727,-26.532L-21.865,-24.471L-21.984,-22.551L-22.223,-18.73L-22.507,-14.176L-22.666,-10.743L-22.715,-9.686L-22.803,-7.797L-23.009,-3.359L-23.561,-3.452L-24.505,-3.611L-26.515,-3.95L-28.796,-4.37L-29.648,-4.527L-30.463,-4.651L-31.327,-4.783L-31.175,-2.272L-30.465,5.942L-26.695,20.768L-25.753,20.651L-25.048,20.563L-24.839,20.537L-24.704,20.533L-22.284,20.447L-21.66,20.425L-21.618,20.426L-20.885,20.443L-20.121,20.461L-19.181,20.483L-18.299,20.503L-18.204,20.515L-17.649,20.582L-16.961,20.666L-16.933,20.669L-16.14,20.766L-16.01,20.782L-15.202,20.88L-14.493,20.966L-14.21,21L-13.652,21.118L-13.123,21.229L-11.711,21.303L-10.541,21.364L-9.62,21.412L-9.588,21.414L-7.859,21.605L-7.564,21.638L-7.18,21.68L-6.456,21.76L-5.135,18.407L-0.388,6.359L1.048,-2.071L1.461,-5.272L0.767,-5.162L0,-5.041Z" style="fill:rgb(120,71,34);fill-rule:nonzero;"/>
        </g>
        <g transform="matrix(0.787402,0,0,0.787402,1411.84,199.064)">
            <path d="M0,0.913L0.643,-1.22L-0.678,2.133L0,0.913Z" style="fill:rgb(120,71,34);fill-rule:nonzero;"/>
        </g>
        <g transform="matrix(0.787402,0,0,0.787402,1407.57,236.207)">
            <path d="M0,0.843L-1.378,0.994L-2.963,1.098L-4.939,1.029L-6.222,-1.006L-7.001,-1.997L-7.717,-3.495L-7.896,-2.387L-7.884,-2.043L-7.872,-1.687L-7.871,-1.645L-7.869,-1.587L-7.867,-1.53L-7.863,-1.409L-7.842,-0.519L-7.836,-0.256L-7.833,-0.128L-7.855,0.004L-7.943,0.536L-7.981,1.209L-6.762,1.776L-6.076,1.755L-6.201,1.175L-6.519,0.869L-6.709,0.871L-6.537,0.852L-7.017,0.39L-6.537,0.852L-6.519,0.869L-6.201,1.175L-6.352,0.471L-6.201,1.175L-6.076,1.755L-5.731,3.351L-5.196,4.059L-3.404,4.171L1.822,4.338L2,4.274L2.322,2.561L0.86,-0.146L0.416,0.409L0,0.843Z" style="fill:rgb(120,71,34);fill-rule:nonzero;"/>
        </g>
        <g transform="matrix(-0.752721,0.231112,0.231112,0.752721,1394.68,233.23)">
            <path d="M-0.827,-0.162L-0.337,-0.162L0.412,-0.162L-1.215,-0.124L-0.827,-0.162Z" style="fill:rgb(120,71,34);fill-rule:nonzero;"/>
        </g>
        <g transform="matrix(0.787402,0,0,0.787402,1401.39,234.807)">
            <path d="M0,1.751L0.017,1.649L0.014,1.521L0.008,1.258L-0.013,0.368L-0.017,0.248L-0.021,0.132L-0.023,0.091L-0.035,-0.266L-0.046,-0.61L-0.049,-0.682L-0.066,-1.185L-0.685,-1.136L-1.337,-1.451L-2.33,-2.214L-4.222,-2.777L-5.812,-2.927L-7.286,-2.511L-7.402,-2.478L-8.969,-2.036L-9.423,-1.555L-9.808,-1.046L-9.717,0.778L-8.666,1.381L-7.882,1.726L-2.009,1.632L-1.881,1.717L-7.882,1.726L-6.456,1.823L-5.828,2.347L-4.921,3.013L-4.909,2.81L-4.921,3.013L-4.957,3.637L-4.461,4.306L-3.762,4.561L-1.845,4.678L-1.079,4.475L-0.502,4.27L-0.429,3.027L-0.093,2.313L-0.005,1.782L0,1.751Z" style="fill:rgb(120,71,34);fill-rule:nonzero;"/>
        </g>
        <g transform="matrix(0.787402,0,0,0.787402,1424.01,168.578)">
            <path d="M0,-1.51L-1.012,-1.895L-2.355,-2.269L-2.228,-1.339L-0.204,0.759L0.362,0.509L1.254,-1.033L0.177,-1.443L0,-1.51Z" style="fill:rgb(148,48,41);fill-rule:nonzero;"/>
        </g>
        <g transform="matrix(0.787402,0,0,0.787402,1406.84,127.802)">
            <path d="M0,-1.306L0.012,-1.101L0.023,-0.9L1.103,0L1.227,-0.196L1.542,-0.695L1.614,-0.809L1.21,-1.233L1.122,-1.238L0,-1.306Z" style="fill:rgb(148,48,41);fill-rule:nonzero;"/>
        </g>
        <g transform="matrix(0.787402,0,0,0.787402,1419.3,167.743)">
            <path d="M0,1.23L0.159,0.815L-0.166,-0.29L-0.41,-1.121L-0.834,-1.044L-0.865,-1.002L-1.869,0.343L-0.251,2.299L-0.003,2.351L-0.151,2.07L0,1.23Z" style="fill:rgb(148,48,41);fill-rule:nonzero;"/>
        </g>
        <g transform="matrix(0.787402,0,0,0.787402,1410.74,175.502)">
            <path d="M0,-54.873L0,-55.388L-0.725,-57.028L-0.845,-57.3L-0.725,-57.028L0,-55.388L0,-54.873ZM10.038,-10.898L10.462,-10.975L10.511,-10.984L10.521,-10.986L11.048,-11.082L11.378,-11.143L11.52,-11.169L12.55,-11.357L12.608,-11.368L12.641,-11.373L13.019,-11.443L13.089,-11.455L14.461,-11.073L14.498,-11.063L14.503,-11.062L15.846,-10.688L16.858,-10.303L17.035,-10.236L18.113,-9.827L15.594,-25.432L15.456,-27.262L15.336,-30.925L13.353,-43.889L12.336,-49.399L9.748,-55.611L5.479,-57.348L1.872,-58.493L-0.491,-58.994L1.114,-57.252L1.07,-57.028L1.114,-57.252L-0.491,-58.994L-0.944,-59.487L-3.638,-61.805L-3.741,-61.811L-3.336,-61.388L-3.408,-61.274L-3.723,-60.775L-3.848,-60.578L-3.968,-60.387L-4.097,-60.183L-4.237,-59.523L-4.365,-58.923L-4.573,-57.939L-4.87,-56.542L-4.891,-56.442L-4.907,-56.22L-5.089,-53.707L-5.161,-52.092L-5.203,-51.147L-5.208,-50.943L-5.256,-49.083L-5.387,-43.957L-5.349,-43.269L-5.065,-38.147L-5.032,-37.558L-5.083,-36.755L-5.154,-35.639L-5.153,-35.567L-5.149,-35.177L-5.136,-33.901L-5.101,-30.613L-5.004,-29.24L-4.729,-25.335L-4.642,-24.101L-4.6,-23.514L-4.543,-22.645L-4.189,-17.335L-4.116,-16.248L-4.116,-16.235L-4.03,-14.955L-3.979,-14.174L-3.455,-5.782L-3.336,-3.879L-3.223,-1.436L-3.128,0.611L-2.923,5.018L-2.834,6.938L-0.811,6.597L0.318,6.407L0.672,6.347L1.35,6.222L3.805,5.77L4.967,5.593L6.294,5.39L7.175,5.256L7.943,5.135L8.636,5.025L10.642,4.708L9.437,-4.696L7.893,-15.641L6.064,-24.268L4.562,-30.626L4.942,-35.689L4.956,-35.873L5.285,-44.129L4.956,-35.873L4.942,-35.689L5.489,-30.185L6.016,-26.855L6.239,-25.367L9.004,-9.511L10.008,-10.856L10.038,-10.898Z" style="fill:rgb(148,48,41);fill-rule:nonzero;"/>
        </g>
        <g transform="matrix(0.787402,0,0,0.787402,1396.04,175.982)">
            <path d="M0,-55.998L0.725,-57.637L0.845,-57.91L0.725,-57.637L0,-55.998L0,-55.483L0,-55.998ZM-3.805,5.16L-2.953,5.317L-0.672,5.738L1.339,6.076L2.282,6.235L2.834,6.328L3.04,1.891L3.128,0.002L3.177,-1.055L3.337,-4.489L3.62,-9.043L3.859,-12.864L3.978,-14.784L4.116,-16.844L4.117,-16.857L4.189,-17.945L4.543,-23.255L4.601,-24.123L4.642,-24.711L4.729,-25.945L5.004,-29.85L5.101,-31.223L5.135,-34.51L5.149,-35.787L5.153,-36.176L5.154,-36.249L5.083,-37.365L5.032,-38.168L5.065,-38.756L5.349,-43.879L5.387,-44.567L5.256,-49.693L5.209,-51.552L5.203,-51.757L5.161,-52.701L5.089,-54.317L4.907,-56.829L4.891,-57.052L4.87,-57.152L4.573,-58.549L4.365,-59.529L4.238,-60.129L4.097,-60.792L3.969,-60.995L3.848,-61.186L3.724,-61.384L3.408,-61.883L3.348,-61.978L3.337,-61.997L3.388,-62.051L3.651,-62.326L3.2,-62.026L3.158,-62.001L3.122,-61.97L0.944,-60.096L0.491,-59.604L-1.113,-57.862L-1.07,-57.637L-1.113,-57.862L0.491,-59.604L-1.872,-59.103L-5.478,-57.958L-9.748,-56.221L-12.575,-50.008L-14.018,-45.37L-17.098,-32.634L-17.686,-29.182L-18.46,-26.132L-22.753,-7.332L-20.513,-6.472L-20.325,-6.442L-18.655,-6.175L-18.6,-6.166L-18.579,-6.163L-17.953,-6.062L-17.756,-6.031L-17.475,-6.002L-17.447,-5.999L-16.55,-5.907L-16.532,-5.905L-14.739,-5.72L-13.74,-5.842L-9.229,-24.1L-8.404,-26.945L-7.453,-30.086L-5.326,-39.928L-5.57,-42.2L-5.326,-39.928L-4.956,-36.482L-4.562,-31.235L-6.064,-24.878L-7.893,-16.251L-9.438,-5.306L-10.642,4.098L-7.175,4.646L-5.484,4.904L-4.619,5.036L-3.805,5.16Z" style="fill:rgb(148,48,41);fill-rule:nonzero;"/>
        </g>
        <g transform="matrix(0.787402,0,0,0.787402,1399.64,127.796)">
            <path d="M0,-0.824L-1.092,-0.787L-1.169,-0.687L-0.854,-0.188L-0.729,0.01L0.279,-0.834L0,-0.824Z" style="fill:rgb(148,48,41);fill-rule:nonzero;"/>
        </g>
        <g transform="matrix(0.787402,0,0,0.787402,1401.65,125.222)">
            <path d="M0,-5.087L0.055,-5.103L0,-5.087ZM-3.146,-5.103L-3.329,-5.103L-3.146,-5.103L-2.669,-5.034L-3.146,-5.103ZM-1.638,-5.017L-1.647,-5.017L-1.638,-5.017ZM-0.968,-5.286L-0.852,-5.265L-0.802,-5.256L-0.852,-5.265L-0.968,-5.286L-2.67,-5.286L-2.855,-5.234L-2.67,-5.286L-0.968,-5.286ZM6.622,2.377L6.61,2.176L6.599,1.971L6.519,1.967L6.355,1.956L6.121,1.942L5.871,1.965L5.661,1.984L5.57,0.815L4.107,-2.172L3.722,-2.959L3.676,-3.054L3.834,-3.101L5.85,-3.702L6.118,-4.497L5.284,-4.941L5.181,-4.996L4.268,-5.482L4.13,-5.881L4.067,-6.066L3.953,-6.397L3.16,-8.704L2.922,-9.396L2.285,-8.93L1.505,-8.932L1.075,-8.933L0.474,-9.097L-0.18,-9.274L-0.412,-9.529L-1.118,-10.302L-1.169,-10.359L-1.316,-10.861L-1.376,-11.067L-1.466,-11.379L-1.669,-11.389L-1.751,-11.555L-1.886,-11.555L-1.929,-11.399L-1.936,-11.376L-2.047,-10.977L-2.183,-10.486L-2.244,-10.504L-2.357,-10.196L-2.379,-10.17L-2.732,-9.755L-3.14,-9.274L-3.592,-9.141L-4.296,-8.933L-4.484,-8.932L-5.409,-8.93L-6.079,-9.47L-6.205,-9.402L-5.514,-5.775L-4.872,-3.39L-4.758,-2.965L-4.091,-2.136L-3.881,-1.878L-3.089,-0.91L-2.416,-0.735L-2.408,-0.733L-2.384,-0.252L-2.239,2.128L-2.234,2.209L-2.222,2.402L-2.262,2.436L-3.271,3.279L-3.149,3.47L-3.021,3.673L-2.881,4.337L-2.753,4.937L-2.545,5.917L-0.255,6.387L0.15,6.401L0.206,6.402L2.173,6.467L2.214,6.468L2.258,6.467L4.226,6.402L4.278,6.401L4.685,6.387L6.976,5.917L7.185,4.933L7.312,4.332L7.452,3.673L7.581,3.469L7.701,3.277L6.622,2.377Z" style="fill:rgb(242,211,173);fill-rule:nonzero;"/>
        </g>
        <g transform="matrix(0.787402,0,0,0.787402,1397.32,113.009)">
            <path d="M0,2.89L0.11,2.807L0.899,2.805L1.184,2.804L1.745,2.803L2.543,2.801L2.866,2.8L3.038,3.066L3.212,3.337L3.49,3.768L4.112,3.768L4.307,3.495L4.613,3.067L4.803,2.8L5.176,2.801L6.218,2.803L6.779,2.805L7.184,2.805L7.804,2.807L8.08,3.001L8.045,2.328L8.034,2.119L8.017,1.783L7.961,0.721L7.917,-0.118L6.913,-0.346L6.615,-0.335L6.546,-0.376L6.182,-0.551L4.986,-0.796L4.152,-0.823L4.104,-0.816L3.989,-0.838L3.88,-0.83L3.835,-0.843L2.817,-0.878L1.768,-0.67L1.444,-0.437L1.032,0.018L1.001,0.09L0.805,0.642L0.504,1.286L0.096,1.799L-0.148,2.383L-0.259,2.578L-0.294,2.652L-0.339,2.75L-0.377,2.835L-0.304,3.121L0,2.89Z" style="fill:rgb(242,211,173);fill-rule:nonzero;"/>
        </g>
        <g transform="matrix(0.787402,0,0,0.787402,1405.01,162.327)">
            <path d="M0,-40.723L-0.052,-40.721L-2.021,-40.657L-2.064,-40.655L-2.105,-40.657L-4.073,-40.721L-4.128,-40.723L-4.533,-40.736L-6.824,-41.207L-6.528,-39.81L-6.506,-39.71L-6.49,-39.487L-6.308,-36.975L-6.236,-35.359L-6.194,-34.415L-6.188,-34.21L-6.141,-32.351L-6.01,-27.225L-6.049,-26.537L-6.333,-21.414L-6.365,-20.826L-6.314,-20.023L-6.243,-18.907L-6.244,-18.834L-6.248,-18.445L-6.262,-17.169L-6.296,-13.881L-6.393,-12.508L-6.668,-8.603L-6.755,-7.369L-6.797,-6.781L-6.854,-5.913L-7.208,-0.603L-7.28,0.484L-5.167,0.381L-2.066,0.228L-2.063,0.224L-2.068,0.217L-2.063,-7.537L-2.059,0.217L-2.063,0.224L-2.059,0.228L-0.623,0.299L3.154,0.484L3.082,-0.603L2.728,-5.913L2.67,-6.781L2.629,-7.369L2.542,-8.603L2.267,-12.508L2.17,-13.881L2.135,-17.169L2.122,-18.445L2.117,-18.834L2.117,-18.907L2.188,-20.023L2.239,-20.826L2.206,-21.414L1.922,-26.537L1.884,-27.225L2.015,-32.351L2.062,-34.21L2.067,-34.415L2.109,-35.359L2.181,-36.975L2.364,-39.487L2.38,-39.71L2.401,-39.81L2.697,-41.207L0.406,-40.736L0,-40.723Z" style="fill:white;fill-rule:nonzero;"/>
        </g>
    </g>
</svg>
