<?xml version="1.0" encoding="UTF-8" standalone="no"?>
<!DOCTYPE svg PUBLIC "-//W3C//DTD SVG 1.1//EN" "http://www.w3.org/Graphics/SVG/1.1/DTD/svg11.dtd">
<svg width="100%" height="100%" viewBox="0 0 140 220" version="1.1" xmlns="http://www.w3.org/2000/svg" xmlns:xlink="http://www.w3.org/1999/xlink" xml:space="preserve" xmlns:serif="http://www.serif.com/" style="fill-rule:evenodd;clip-rule:evenodd;stroke-linejoin:round;stroke-miterlimit:2;">
    <g transform="matrix(1,0,0,1,-310.81,-688.669)">
        <g id="people-10">
            <g>
                <g transform="matrix(1,0,0,1,361.483,799.128)">
                    <path d="M0,-6.658L2.66,-5.831L5.395,-5.989L6.26,-7.171L5.85,-8.831L6.26,-7.171L7.121,-3.677L6.829,3.475L4.5,9.792L3.319,16.316L1.915,19.321L2.737,20.056L5.22,20.435L9.347,21.512L19.327,22.379L29.306,21.512L33.434,20.435L35.917,20.056L36.738,19.321L35.334,16.316L34.154,9.792L31.825,3.475L31.533,-3.677L32.394,-7.171L32.803,-8.831L32.394,-7.171L33.259,-5.989L35.993,-5.831L38.654,-6.658L40.779,-7.976L41.289,-9.516L40.128,-15.652L37.953,-20.395L35.434,-23.487L24.453,-28.986L24.35,-29.037L29.019,-24.885L29.554,-22.716L28.58,-19.213L23.385,-14.949L19.327,-14.914L15.268,-14.949L10.073,-19.213L9.099,-22.716L9.635,-24.885L13.347,-28.186L13.324,-28.547L3.219,-23.487L0.701,-20.395L-1.475,-15.652L-2.635,-9.516L-2.125,-7.976L0,-6.658Z" style="fill:rgb(0,188,218);fill-rule:nonzero;"/>
                </g>
                <g transform="matrix(1,0,0,1,387.376,757.03)">
                    <path d="M0,-1.362L-0.133,-1.425L-0.26,-1.351L-0.699,-1.093L-0.794,-1.037L-1.416,0.041L-1.429,0.063L-0.426,-0.871L0.2,-1.268L0.061,-1.333L0,-1.362Z" style="fill:rgb(120,71,34);fill-rule:nonzero;"/>
                </g>
                <g transform="matrix(1,0,0,1,399.755,904.286)">
                    <path d="M0,-5.955L-2.592,-5.323L-4.021,-4.765L-4.791,-4.318L-5.045,-0.935L-3.156,-0.61L-1.501,0L1.118,-0.311L3.135,-0.298L3.261,-0.702L1.885,-4.694L1.634,-5.421L0,-5.955Z" style="fill:rgb(120,71,34);fill-rule:nonzero;"/>
                </g>
                <g transform="matrix(1,0,0,1,362.742,794.936)">
                    <path d="M0,33.617L0.348,30.167L0.868,27.442L0.93,27.119L0.517,27.233L0.512,27.234L0.488,27.241L0.031,27.367L-0.572,27.533L0.031,27.367L0.488,27.241L0.512,27.234L0.517,27.233L-0.248,18.97L-0.271,19.768L-0.248,18.97L0.059,8.192L4.136,-1.797L1.402,-1.639L-1.259,-2.466L-3.384,-3.784L-3.894,-5.324L-6.594,7.062L-6.685,8.795L-6.47,16.914L-4.204,30.023L-4.825,32.874L-3.863,34.205L-3.97,33.221L-4.152,31.555L-3.97,33.221L-3.863,34.205L-3.819,34.609L-1.618,37.892L-0.906,38.941L-0.236,36.946L0,33.617Z" style="fill:rgb(120,71,34);fill-rule:nonzero;"/>
                </g>
                <g transform="matrix(1,0,0,1,369.53,903.347)">
                    <path d="M0,-4.849L-2.617,-5.366L-4.226,-4.76L-4.444,-4.022L-5.642,0.027L-5.498,0.424L-3.484,0.322L-0.854,0.517L0.772,-0.166L2.645,-0.575L2.242,-3.943L1.452,-4.355L0,-4.849Z" style="fill:rgb(120,71,34);fill-rule:nonzero;"/>
                </g>
                <g transform="matrix(1,0,0,1,405.563,819.758)">
                    <path d="M0,-16.027L-0.091,-17.76L-2.791,-30.146L-3.301,-28.607L-5.426,-27.288L-8.087,-26.461L-10.821,-26.62L-6.744,-16.63L-6.437,-5.852L-6.414,-5.054L-6.437,-5.852L-7.203,2.41L-7.197,2.412L-7.174,2.418L-6.716,2.545L-6.113,2.711L-6.716,2.545L-7.174,2.418L-7.197,2.412L-7.203,2.41L-7.615,2.296L-7.554,2.62L-7.033,5.345L-6.685,8.795L-6.449,12.124L-5.78,14.119L-5.067,13.07L-2.866,9.786L-2.822,9.383L-2.715,8.399L-2.533,6.733L-2.715,8.399L-2.822,9.383L-1.86,8.052L-2.481,5.201L-0.215,-7.908L0,-16.027Z" style="fill:rgb(120,71,34);fill-rule:nonzero;"/>
                </g>
                <g transform="matrix(1,0,0,1,376.865,744.161)">
                    <path d="M0,0.108L4.067,0.108L5.201,0L0,0.108Z" style="fill:rgb(120,71,34);fill-rule:nonzero;"/>
                </g>
                <g transform="matrix(1,0,0,1,398.877,890.599)">
                    <path d="M0,-62.046L-0.348,-65.496L-0.868,-68.221L-0.93,-68.544L-1.478,-71.415L-3.961,-71.036L-8.088,-69.959L-18.068,-69.092L-28.047,-69.959L-32.174,-71.036L-34.658,-71.415L-35.206,-68.544L-35.268,-68.221L-35.788,-65.496L-36.136,-62.046L-36.372,-58.717L-37.041,-56.722L-35.509,-36.057L-35.08,-29.222L-35.766,-24.632L-36.823,-14.202L-34.579,2.557L-33.792,8.726L-33.574,7.988L-31.965,7.383L-29.348,7.899L-27.895,8.393L-27.106,8.805L-26.374,4.105L-26.012,1.292L-26.14,0.214L-25.589,-12.082L-24.572,-24.203L-24.032,-26.898L-23.065,-31.649L-18.068,-54.647L-12.509,-30.422L-11.067,-25.794L-10.257,-23.167L-8.02,-11.211L-5.259,0.829L-5.34,1.911L-4.853,4.705L-3.913,9.369L-3.143,8.922L-1.714,8.365L0.878,7.732L2.512,8.266L2.763,8.994L3.275,2.795L2.94,-14.456L0.835,-24.725L-0.311,-29.222L-0.575,-36.066L0.906,-56.722L0.237,-58.717L0,-62.046Z" style="fill:rgb(68,114,37);fill-rule:nonzero;"/>
                </g>
                <g transform="matrix(1,0,0,1,384.184,758.516)">
                    <path d="M0,16.476L-0.009,16.501L-0.051,16.011L0,16.461L0.001,16.473L0,16.476ZM6.318,15.727L1.649,11.575L1.59,11.559L1.528,11.544L1.221,11.466L1.207,11.462L0.876,11.378L0.735,11.342L0.373,11.25L0.252,9.515L0.15,8.039L0.12,7.617L0.08,7.037L0.774,4.95L0.89,4.599L1.089,4.001L1.562,2.578L1.862,2.534L1.98,2.517L2.022,2.511L2.308,2.355L3.167,1.003L3.409,0.355L3.83,-0.769L3.91,-0.982L3.911,-1.021L3.935,-2.3L3.81,-2.405L3.408,-2.739L3.392,-2.753L2.766,-2.357L1.763,-1.423L1.161,-0.373L1.302,-1.522L-0.381,-3.695L-1.635,-4.847L-2.213,-6.48L-2.385,-6.94L-2.702,-7.783L-5.434,-8.862L-7.898,-9.222L-9.935,-8.862L-11.93,-8.153L-12.174,-6.806L-12.249,-6.371L-12.352,-4.712L-12.489,-3.695L-12.513,-3.205L-12.578,-1.887L-12.589,0.331L-11.788,3.727L-10.367,7.367L-9.603,8.392L-9.376,12.065L-9.354,12.426L-13.066,15.727L-13.602,17.896L-12.627,21.399L-7.432,25.663L-3.374,25.698L0.685,25.663L5.88,21.399L6.854,17.896L6.318,15.727Z" style="fill:rgb(120,71,34);fill-rule:nonzero;"/>
                </g>
                <g transform="matrix(1,0,0,1,385.745,763.053)">
                    <path d="M0,-1.96L-0.473,-0.537L-0.672,0.061L-0.631,-0.014L-0.553,-0.16L-0.535,-0.194L-0.529,-0.204L-0.249,-0.728L-0.245,-0.735L0.239,-1.64L0.418,-2.021L0.3,-2.004L0,-1.96Z" style="fill:rgb(63,38,19);fill-rule:nonzero;"/>
                </g>
                <g transform="matrix(1,0,0,1,385.258,769.47)">
                    <path d="M0,-6.472L-0.143,-6.43L-0.184,-6.355L-0.3,-6.004L-0.994,-3.917L-0.954,-3.338L-0.924,-2.915L-0.822,-1.44L-0.701,0.296L-0.339,0.388L-0.198,0.424L0.133,0.508L0.147,0.512L0.454,0.59L0.516,0.605L0.575,0.621L0.679,0.672L1.129,-2.933L0.962,-5.757L0.239,-7.144L-0.042,-6.62L0,-6.472Z" style="fill:rgb(63,38,19);fill-rule:nonzero;"/>
                </g>
                <g transform="matrix(1,0,0,1,395.766,905.204)">
                    <path d="M0,1.367L0.061,0.804L0.063,0.779L0.047,0.739L-0.5,0L0,1.367Z" style="fill:rgb(63,38,19);fill-rule:nonzero;"/>
                </g>
                <g transform="matrix(1,0,0,1,400.874,907.931)">
                    <path d="M0,-3.956L-2.619,-3.645L-4.274,-4.255L-6.163,-4.58L-5.061,-1.988L-5.044,-1.948L-5.047,-1.924L-5.108,-1.36L-5.322,0.624L2.348,0.4L3.154,0.248L3.598,-2.071L2.142,-4.347L2.017,-3.943L0,-3.956Z" style="fill:rgb(63,38,19);fill-rule:nonzero;"/>
                </g>
                <g transform="matrix(1,0,0,1,394.71,905.943)">
                    <path d="M0,-2.592L0.556,-0.739L1.102,0L0,-2.592Z" style="fill:rgb(63,38,19);fill-rule:nonzero;"/>
                </g>
                <g transform="matrix(1,0,0,1,371.189,902.772)">
                    <path d="M0,2.639L0.512,1.877L0.987,0L0,2.639Z" style="fill:rgb(63,38,19);fill-rule:nonzero;"/>
                </g>
                <g transform="matrix(1,0,0,1,368.676,907.033)">
                    <path d="M0,-3.169L-2.63,-3.364L-4.644,-3.262L-4.788,-3.659L-6.141,-1.321L-5.595,0.976L-4.783,1.092L2.889,0.976L2.587,-0.997L2.502,-1.557L2.498,-1.582L2.513,-1.622L3.499,-4.261L1.626,-3.852L0,-3.169Z" style="fill:rgb(63,38,19);fill-rule:nonzero;"/>
                </g>
                <g transform="matrix(1,0,0,1,371.189,905.274)">
                    <path d="M0,0.137L-0.015,0.178L-0.011,0.203L0.074,0.762L0.512,-0.625L0,0.137Z" style="fill:rgb(63,38,19);fill-rule:nonzero;"/>
                </g>
                <g transform="matrix(1,0,0,1,371.831,749.229)">
                    <path d="M0,4.574L0.103,2.915L0.179,2.48L0.422,1.134L2.417,0.424L4.454,0.064L6.919,0.424L9.65,1.504L9.967,2.347L10.139,2.807L10.717,4.439L11.971,5.591L13.654,7.764L14.115,7.864L14.123,7.839L14.128,7.842L14.75,6.764L14.845,6.708L15.284,6.45L15.411,6.376L15.545,6.439L15.606,6.468L15.744,6.533L15.761,6.547L16.162,6.882L16.288,6.986L16.263,8.265L16.262,8.304L16.182,8.518L15.762,9.642L15.871,9.532L16.44,8.109L16.335,5.975L16.153,3.287L16.014,2.821L15.137,-0.275L14.605,-1.249L12.886,-3.213L10.234,-5.068L9.099,-4.96L5.034,-4.96L1.667,-2.411L-0.257,0.497L-1.002,3.182L-1.151,3.895L-0.387,5.459L-0.161,6.081L-0.136,5.591L0,4.574Z" style="fill:rgb(63,38,19);fill-rule:nonzero;"/>
                </g>
                <g transform="matrix(1,0,0,1,385.345,756.993)">
                    <path d="M0,1.15L0.602,0.1L0.141,0L0,1.15Z" style="fill:rgb(63,38,19);fill-rule:nonzero;"/>
                </g>
                <g transform="matrix(1,0,0,1,377.467,744.269)">
                    <path d="M0,-0.108L-0.602,0L4.599,-0.108L0,-0.108Z" style="fill:rgb(63,38,19);fill-rule:nonzero;"/>
                </g>
            </g>
        </g>
    </g>
</svg>
