<?xml version="1.0" encoding="UTF-8" standalone="no"?>
<!DOCTYPE svg PUBLIC "-//W3C//DTD SVG 1.1//EN" "http://www.w3.org/Graphics/SVG/1.1/DTD/svg11.dtd">
<svg width="100%" height="100%" viewBox="0 0 140 220" version="1.1" xmlns="http://www.w3.org/2000/svg" xmlns:xlink="http://www.w3.org/1999/xlink" xml:space="preserve" xmlns:serif="http://www.serif.com/" style="fill-rule:evenodd;clip-rule:evenodd;stroke-linejoin:round;stroke-miterlimit:2;">
    <g transform="matrix(1,0,0,1,-3549.63,-1002.22)">
        <g id="people-25">
            <g>
                <g transform="matrix(1,0,0,1,3606.65,1178.96)">
                    <path d="M0,0.076L0.626,0.122L0.614,-0.046L0,0.076Z" style="fill:rgb(66,76,160);fill-rule:nonzero;"/>
                </g>
                <g transform="matrix(1,0,0,1,3617.32,1178.57)">
                    <path d="M0,-7.72L-1.106,-7.738L-2.48,-7.722L-2.791,-7.718L-3.513,-7.71L-3.854,-7.706L-4.418,-7.699L-5.449,-7.687L-8.233,-7.935L-8.525,-5.457L-8.852,-2.727L-9.129,-0.408L-10.003,-0.263L-10.035,-0.257L-9.981,0.215L-9.957,0.212L-8.469,0.017L-7.904,-0.028L-6.962,-0.102L-5.884,-0.187L-3.83,-0.349L-3.073,-0.408L-2.448,-0.451L-2.173,-1.765L-1.533,-3.365L-1.103,-4.437L-0.87,-5.021L-0.405,-5.522L-0.299,-6.096L0,-7.72Z" style="fill:rgb(66,76,160);fill-rule:nonzero;"/>
                </g>
                <g transform="matrix(1,0,0,1,3596.49,1169.34)">
                    <path d="M0,9.291L0.288,9.213L1.018,9.015L1.484,8.97L2.233,8.898L2.676,8.856L3.718,8.756L4.342,8.676L5.497,8.529L6.167,8.444L6.609,8.478L7.643,8.558L7.825,8.572L8.866,8.615L9.133,8.626L9.216,8.629L9.409,8.63L11.248,8.643L11.705,8.829L11.982,6.51L12.308,3.78L12.601,1.302L12.406,1.284L12.28,1.273L10.247,1.092L10.083,1.077L9.849,1.056L9.564,1.031L8.126,0.902L7.507,0.838L7.035,0.789L5.387,0.617L3.8,0.453L3.044,0.374L2.915,0.359L1.208,0.162L0.551,0.086L-0.541,-0.04L-1.007,-0.094L-0.346,9.385L-0.195,9.344L-0.178,9.339L-0.017,9.295L0,9.291Z" style="fill:rgb(66,76,160);fill-rule:nonzero;"/>
                </g>
                <g transform="matrix(1,0,0,1,3606.61,1178.92)">
                    <path d="M0,-0.492L0.047,0.113L0.661,-0.009L0.724,-0.022L0.768,-0.03L0.732,-0.132L0.678,-0.605L0,-0.492Z" style="fill:rgb(66,76,160);fill-rule:nonzero;"/>
                </g>
                <g transform="matrix(1,0,0,1,3596.49,1179)">
                    <path d="M0,-0.372L-0.018,-0.368L-0.179,-0.324L-0.184,-0.168L-0.025,0.079L0.332,0.071L0.288,-0.451L0,-0.372Z" style="fill:rgb(66,76,160);fill-rule:nonzero;"/>
                </g>
                <g transform="matrix(1,0,0,1,3605.29,1177.95)">
                    <path d="M0,0.672L0.346,0.639L1.312,0.478L1.991,0.365L2.022,0.36L2.896,0.214L2.44,0.029L0.601,0.016L0.407,0.015L0.325,0.011L0.058,0L0,0.672Z" style="fill:rgb(66,76,160);fill-rule:nonzero;"/>
                </g>
                <g transform="matrix(1,0,0,1,3608.85,1179.03)">
                    <path d="M0,-0.446L-1.488,-0.251L-1.475,-0.145L-1.519,-0.137L-1.57,0.044L0.625,-0.066L0.567,-0.49L0,-0.446Z" style="fill:rgb(66,76,160);fill-rule:nonzero;"/>
                </g>
                <g transform="matrix(1,0,0,1,3621.45,1176.39)">
                    <path d="M0,1.535L0.004,1.534L-0.363,0.791L-0.531,0.452L-0.771,-0.035L-1.325,-0.043L-1.357,0.786L-1.387,1.578L-0.352,1.574L0,1.535Z" style="fill:rgb(66,76,160);fill-rule:nonzero;"/>
                </g>
                <g transform="matrix(1,0,0,1,3621.1,1178.23)">
                    <path d="M0,-0.264L-1.036,-0.26L-1.048,0.039L0.364,-0.137L0.351,-0.303L0,-0.264Z" style="fill:rgb(66,76,160);fill-rule:nonzero;"/>
                </g>
                <g transform="matrix(1,0,0,1,3606.85,1085.96)">
                    <path d="M0,21.44L0.09,21.416L0.854,21.21L2.674,20.721L2.755,20.699L2.94,20.649L3.96,20.374L3.988,20.342L4.188,20.105L4.547,19.68L4.919,19.24L4.463,19.024L4.485,17.206L4.906,17.405L4.901,16.683L4.891,15.126L4.884,14.057L4.872,12.327L4.863,11.071L4.859,10.393L4.852,9.389L4.774,9.397L4.459,9.429L3.741,9.503L3.24,9.553L3.741,9.503L4.459,9.429L4.774,9.397L4.852,9.389L4.873,9.387L6.198,9.253L9.417,9.253L9.442,8.864L9.495,8.02L9.442,8.864L10.165,9.253L13.829,9.253L13.803,9.163L13.333,7.567L13.803,9.163L13.907,9.253L14.555,9.253L13.083,3.994L11.097,2.186L9.979,1.12L9.319,0.968L8.993,0.84L6.742,0.009L5.997,-0.267L5.888,-0.306L1.543,-0.073L-0.251,0.416L-3.336,1.992L-3.298,1.9L-4.787,4.046L-6.422,11.173L-5.928,13.886L-5.489,16.299L-4.715,20.135L-4.359,21.407L-3.445,21.691L-2.677,21.657L-2.643,21.684L-2.565,21.746L-0.016,21.442L0,21.44Z" style="fill:rgb(63,38,19);fill-rule:nonzero;"/>
                </g>
                <g transform="matrix(1,0,0,1,3615.84,1085.93)">
                    <path d="M0,0.866L0.326,0.994L0.986,1.146L-2.074,-0.28L-2.996,-0.241L-2.251,0.035L0,0.866Z" style="fill:rgb(63,38,19);fill-rule:nonzero;"/>
                </g>
                <g transform="matrix(1,0,0,1,3604.29,1107.4)">
                    <path d="M0,0.304L2.516,0.258L2.55,0L0,0.304Z" style="fill:rgb(63,38,19);fill-rule:nonzero;"/>
                </g>
                <g transform="matrix(1,0,0,1,3611.73,1096.22)">
                    <path d="M0,-0.871L-0.021,-0.869L-0.014,0.135L1.427,-0.871L1.62,-1.006L1.325,-1.006L0,-0.871Z" style="fill:rgb(63,38,19);fill-rule:nonzero;"/>
                </g>
                <g transform="matrix(1,0,0,1,3611.32,1103.38)">
                    <path d="M0,1.604L0.455,1.819L1.202,0.344L0.995,0.246L0.443,-0.015L0.021,-0.215L0,1.604Z" style="fill:rgb(63,38,19);fill-rule:nonzero;"/>
                </g>
                <g transform="matrix(1,0,0,1,3600.44,1099.64)">
                    <path d="M0,-2.298L0.486,0.208L-0.009,-2.506L0,-2.298Z" style="fill:rgb(63,38,19);fill-rule:nonzero;"/>
                </g>
                <g transform="matrix(1,0,0,1,3597.04,1138.22)">
                    <path d="M0,31.202L0.656,31.278L2.363,31.475L2.493,31.49L3.249,31.569L4.836,31.733L6.484,31.905L6.956,31.953L7.575,32.018L9.013,32.146L9.298,32.172L9.532,32.192L9.696,32.207L11.729,32.389L11.855,32.4L12.05,32.417L14.833,32.666L15.864,32.654L16.429,32.647L16.769,32.643L17.492,32.634L17.802,32.631L19.176,32.614L20.282,32.632L20.324,32.403L22.199,32.082L22.296,32.066L23.573,31.847L23.879,30.295L24.27,30.277L24.352,24.712L24.47,16.649L24.504,14.35L24.511,13.9L24.918,13.805L24.472,7.445L24.413,7.452L23.598,7.024L23.57,6.554L22.743,6.599L21,6.694L19.298,6.787L16.704,6.928L14.718,6.927L14.214,6.927L13.463,6.926L13.353,6.932L11.434,7.037L10.432,7.183L10.667,8.27L8.942,10.187L8.978,10.222L8.54,10.694L8.496,10.682L7.507,11.783L7.456,11.785L6.608,11.824L6.561,11.605L6.417,11.737L5.277,11.91L4.934,11.854L3.542,11.629L3.291,11.189L2.74,10.219L1.077,7.298L0.13,5.035L-0.936,1.008L-1.493,-1.097L-1.793,-1.092L-2.868,-1.464L-2.859,0.845L-2.82,10.473L-2.859,0.845L-4.805,17.598L-6.673,30.777L-5.615,30.682L-4.985,30.626L-4.518,30.68L-4.464,30.686L-3.045,30.85L-1.559,31.022L-1.092,31.076L0,31.202Z" style="fill:white;fill-rule:nonzero;"/>
                </g>
                <g transform="matrix(1,0,0,1,3595.24,1137.05)">
                    <path d="M0,0.076L0.301,0.07L0.281,0L0,0.076Z" style="fill:white;fill-rule:nonzero;"/>
                </g>
                <g transform="matrix(1,0,0,1,3605.51,1147.57)">
                    <path d="M0,-0.793L-0.587,-0.234L-0.307,0.053L0.25,-0.699L0.24,-0.846L0,-0.793Z" style="fill:white;fill-rule:nonzero;"/>
                </g>
                <g transform="matrix(1,0,0,1,3618.39,1209.89)">
                    <path d="M0,-2.331L0.119,-1.732L0.508,0.227L0.218,-2.531L0.015,-2.558L0,-2.331Z" style="fill:white;fill-rule:nonzero;"/>
                </g>
                <g transform="matrix(1,0,0,1,3603.84,1113.23)">
                    <path d="M0,0.12L4.742,2.894L10.02,4.849L13.401,2.894L15.002,0.12L12.432,-1.8L11.01,-3.093L10.965,-2.888L10.944,-2.797L10.937,-2.763L12.489,-0.908L12.376,0.531L9.878,1.388L10.005,1.42L9.878,1.388L9.834,1.377L9.436,1.275L6.525,0.531L5.132,-0.526L4.849,-0.741L4.63,-0.908L4.575,-0.949L3.951,-1.418L0.885,-3.723L0.679,-3.877L0.885,-3.723L1.288,-4.092L2.761,-4.092L2.846,-4.729L1.288,-4.606L-2.413,-2.433L-2.282,-1.8L0,0.12Z" style="fill:white;fill-rule:nonzero;"/>
                </g>
                <g transform="matrix(1,0,0,1,3602.54,1134.7)">
                    <path d="M0,0.543L-0.543,1.091L-1.69,1.581L-1.274,3.465L-1.513,7.131L-0.834,8.164L-0.627,8.479L-0.239,8.657L0.345,8.69L1.1,8.732L2.024,9.168L2.271,9.284L2.471,9.518L2.753,9.85L3.143,9.478L3.247,9.38L3.869,8.983L5.904,8.686L7.934,8.575L8.41,8.575L8.647,8.576L9.22,8.576L11.174,8.577L14.208,8.412L15.498,8.342L16.82,8.27L18.225,8.193L18.846,8.159L18.665,-2.439L18.708,-2.6L18.809,-2.977L19.43,-5.29L19.428,-6.739L19.426,-9.228L19.302,-7.779L17.821,-7.312L13.577,-7.292L9.269,-7.312L5.679,-7.779L1.253,-9.307L1.252,-8.838L1.229,-8.047L1.184,-6.518L1.131,-2.614L1.121,-1.942L1.115,-1.499L1.008,-0.474L0,0.543Z" style="fill:white;fill-rule:nonzero;"/>
                </g>
                <g transform="matrix(1,0,0,1,3616.65,1221.36)">
                    <path d="M0,-1.43L-4.256,-1.903L-6.375,-1.68L-6.356,0.473L-4.236,0.413L-4.256,0.472L0.016,0.358L3.817,0.279L2.171,-1.367L0,-1.43Z" style="fill:white;fill-rule:nonzero;"/>
                </g>
                <g transform="matrix(1,0,0,1,3615.25,1207.35)">
                    <path d="M0,8.621L1.395,7.712L0.846,5.924L0.453,4.644L-0.074,1.99L-0.282,0.946L-0.47,0L-0.624,0.001L-0.955,0.003L-1.587,0.014L-2.913,0.036L-2.999,0.038L-3.02,0.038L-3.7,0.049L-3.798,0.078L-2.673,4.158L-4.182,7.21L-3.024,8.207L0,8.621Z" style="fill:white;fill-rule:nonzero;"/>
                </g>
                <g transform="matrix(1,0,0,1,3600.6,1221.77)">
                    <path d="M0,-0.045L-5.165,-0.076L-4.635,-0.007L-3.261,0.069L-1.804,0.074L-0.644,0.07L1.241,0.009L1.241,-0.119L0,-0.045Z" style="fill:white;fill-rule:nonzero;"/>
                </g>
                <g transform="matrix(1,0,0,1,3603.82,1145.59)">
                    <path d="M0,0.292L-0.301,0.434L-0.189,0.547L0.543,-0.152L0.457,-0.255L0,0.292Z" style="fill:white;fill-rule:nonzero;"/>
                </g>
                <g transform="matrix(1,0,0,1,3625.86,1221.33)">
                    <path d="M0,-1.584L-0.062,-1.429L-1.305,-0.089L-1.614,0.244L-1.988,0.265L-2.972,0.318L-1.536,0.333L0.459,0.286L1.097,0.254L1.08,-1.813L0.134,-1.917L0,-1.584Z" style="fill:white;fill-rule:nonzero;"/>
                </g>
                <g transform="matrix(1,0,0,1,3599.79,1221.69)">
                    <path d="M0,-2.292L-1.772,-2.173L-3.413,-1.632L-4.348,-2.165L-4.35,-2.13L-4.351,-2.127L-4.35,-2.108L-4.345,-0.159L-4.426,-0.027L-4.345,0L2.355,-0.06L2.351,-1.63L1.115,-2.166L0,-2.292Z" style="fill:white;fill-rule:nonzero;"/>
                </g>
                <g transform="matrix(1,0,0,1,3600.71,1215.97)">
                    <path d="M0,-8.635L-2.149,-8.635L-2.805,-8.628L-3.786,-8.616L-3.987,-8.614L-4.46,-8.608L-4.663,-8.584L-4.441,-5.05L-4.695,-0.561L-3.91,-2.256L-3.899,-2.281L-3.893,-2.294L-3.372,-3.42L-3.233,-3.421L-2.151,-5.229L-3.233,-3.421L-1.959,-3.423L-1.606,-3.424L-0.954,-3.425L-0.334,-3.426L0.423,-1.351L1.045,0L1.088,-1.395L1.238,-6.332L1.25,-6.723L1.238,-6.332L1.833,-8.572L1.848,-8.618L1.156,-8.624L0.551,-8.63L0,-8.635Z" style="fill:white;fill-rule:nonzero;"/>
                </g>
                <g transform="matrix(1,0,0,1,3601.75,1214.58)">
                    <path d="M0,1.394L0.185,0.981L0.042,0L0,1.394Z" style="fill:white;fill-rule:nonzero;"/>
                </g>
                <g transform="matrix(1,0,0,1,3639.33,1196.29)">
                    <path d="M0,-20.488L1.25,-21.836L2.758,-21.813L4.284,-20.288L5.729,-17.359L6.998,-13.228L8.003,-8.177L8.673,-2.549L8.962,3.271L8.948,4.106L9.152,4.095L9.159,3.678L8.831,-2.876L8.077,-9.214L6.949,-14.902L5.518,-19.554L3.889,-22.853L2.173,-24.568L0.472,-24.594L-1.031,-24.512L-0.722,-23.307L0,-20.488Z" style="fill:rgb(142,142,142);fill-rule:nonzero;"/>
                </g>
                <g transform="matrix(1,0,0,1,3646.4,1205.42)">
                    <path d="M0,-4.92L-0.959,-4.868L-6.158,-4.584L-6.503,-3.171L-6.887,-1.603L-6.949,-1.348L-6.712,-0.492L-6.545,0.114L-1.051,-0.186L-0.913,-0.193L-0.141,-0.235L1.523,-0.326L1.71,-0.336L1.304,-1.797L2.094,-5.034L2.087,-5.034L1.882,-5.023L0,-4.92Z" style="fill:rgb(142,142,142);fill-rule:nonzero;"/>
                </g>
                <g transform="matrix(1,0,0,1,3637.04,1201.8)">
                    <path d="M0,-0.98L0.056,-0.518L0.124,-0.397L0.152,-0.376L0.077,-0.331L0.093,-0.203L0.152,0.301L0.615,0.022L0.42,-0.37L0.398,-0.412L0.112,-0.986L-0.036,-1.281L0,-0.98Z" style="fill:rgb(142,142,142);fill-rule:nonzero;"/>
                </g>
                <g transform="matrix(1,0,0,1,3618.18,1192.92)">
                    <path d="M0,-0.466L0.116,-2.223L-0.055,-2.214L-0.54,-2.187L-1.189,-2.152L-1.223,-0.399L-1.245,0.728L-1.193,1.757L-0.143,1.7L0,-0.466Z" style="fill:rgb(142,142,142);fill-rule:nonzero;"/>
                </g>
                <g transform="matrix(1,0,0,1,3634.26,1206.75)">
                    <path d="M0,-3.559L-4.117,-1.075L-4.177,-0.907L-4.166,-0.908L-4.188,-0.875L-4.776,0L0.075,-2.928L0.015,-3.431L0,-3.559Z" style="fill:rgb(142,142,142);fill-rule:nonzero;"/>
                </g>
                <g transform="matrix(1,0,0,1,3630.09,1202.7)">
                    <path d="M0,3.142L0.06,2.975L0.341,2.183L0.646,0.54L0.776,-1.003L0.634,-0.995L0.529,0.26L0.241,1.809L-0.16,2.938L-0.646,3.569L-1.184,3.659L-1.449,3.44L-1.454,3.664L-1.476,3.892L-1.17,4.145L-0.6,4.049L-0.011,3.174L0,3.142Z" style="fill:rgb(142,142,142);fill-rule:nonzero;"/>
                </g>
                <g transform="matrix(1,0,0,1,3648.19,1216.27)">
                    <path d="M0,-11.094L-0.5,-6.065L-1.361,-1.964L-2.517,0.927L-3.895,2.413L-5.4,2.391L-6.927,0.863L-7.121,0.473L-8.375,-2.065L-9.644,-6.196L-10.648,-11.247L-10.996,-14.171L-11.055,-14.674L-11.071,-14.802L-11.093,-14.99L-11.148,-15.452L-11.183,-15.752L-11.518,-16.422L-12.131,-14.856L-12.366,-14.843L-14.123,-14.747L-13.924,-13.08L-13.909,-12.952L-13.849,-12.449L-13.564,-10.056L-12.434,-4.367L-11.005,0.285L-9.375,3.583L-7.654,5.303L-5.961,5.328L-4.205,5.232L-2.651,3.559L-1.35,0.303L-0.384,-4.314L0.18,-9.979L0.229,-12.464L0.007,-11.558L0,-11.094Z" style="fill:rgb(142,142,142);fill-rule:nonzero;"/>
                </g>
                <g transform="matrix(1,0,0,1,3628.63,1187.09)">
                    <path d="M0,19.274L0.005,19.051L0.034,17.516L0.082,15.042L0.083,14.983L0.118,13.211L0.123,12.95L0.122,12.944L0.023,12.537L-0.086,18.154L-0.587,23.183L-1.445,27.283L-2.602,30.175L-3.98,31.66L-5.484,31.639L-7.012,30.111L-7.187,29.754L-7.19,29.751L-8.371,27.363L-8.46,27.182L-8.749,26.241L-8.989,25.459L-9.729,23.051L-9.733,23.031L-10.122,21.071L-10.241,20.472L-10.268,20.337L-10.286,20.245L-10.732,18L-10.784,17.568L-10.784,17.562L-11.402,12.373L-11.641,7.582L-11.692,6.552L-11.671,5.425L-11.636,3.673L-11.583,0.936L-11.568,0.779L-11.489,-0.018L-11.31,-1.811L-11.22,-2.717L-11.194,-2.973L-11.083,-4.093L-10.38,-7.451L-10.236,-8.143L-10.225,-8.194L-9.701,-9.501L-9.199,-10.755L-9.183,-10.798L-9.067,-11.085L-7.69,-12.57L-6.183,-12.547L-4.657,-11.022L-3.634,-8.95L-3.599,-10.448L-4.507,-12.284L-4.832,-12.941L-4.952,-13.184L-5.111,-13.388L-5.484,-13.754L-5.529,-13.962L-6.865,-15.297L-8.565,-15.323L-10.633,-15.21L-11.717,-14.042L-12.182,-13.54L-12.415,-12.957L-12.845,-11.884L-13.485,-10.284L-13.76,-8.971L-14.452,-5.667L-14.665,-3.524L-14.872,-1.441L-15.015,-0.002L-15.074,3.028L-15.077,3.192L-15.138,6.323L-14.847,12.161L-14.811,12.877L-14.681,13.967L-14.544,15.122L-14.479,15.668L-14.057,19.214L-13.849,20.259L-13.661,21.205L-13.454,22.249L-12.927,24.903L-12.533,26.183L-11.984,27.971L-11.9,28.246L-11.649,29.063L-11.498,29.555L-10.716,31.136L-10.365,31.846L-9.867,32.853L-8.168,34.552L-8.146,34.573L-6.825,34.592L-6.453,34.597L-5.743,34.559L-4.759,34.505L-4.385,34.485L-4.076,34.152L-2.833,32.812L-2.771,32.656L-2.638,32.323L-2.437,31.821L-2.295,31.467L-2.281,31.431L-1.53,29.556L-0.564,24.938L-0.043,19.706L-0.023,19.503L0,19.274Z" style="fill:rgb(142,142,142);fill-rule:nonzero;"/>
                </g>
                <g transform="matrix(1,0,0,1,3640.77,1145.6)">
                    <path d="M0,-2.035L-0.188,-2.108L-0.327,-2.162L-0.489,-2.225L-0.684,-2.301L-0.981,-2.416L-1.327,-2.55L-1.361,-2.563L-1.775,-2.724L-2.116,-2.857L-2.247,-2.908L-2.632,-3.057L-3.317,-3.323L-3.67,-3.461L-3.949,-3.569L-3.671,-3.222L-3.774,-2.29L-4.074,-1.83L-3.207,-1.464L-3.205,-1.336L-2.983,-1.249L-2.926,-1.227L-1.358,-0.618L-0.954,-0.461L-0.28,-0.199L0.327,0.037L1.522,0.501L1.727,0.58L4.18,1.534L4.747,1.022L4.945,0.126L4.578,-0.257L0.302,-1.918L0.173,-1.968L0,-2.035Z" style="fill:rgb(142,142,142);fill-rule:nonzero;"/>
                </g>
                <g transform="matrix(1,0,0,1,3641.1,1146.35)">
                    <path d="M0,-0.717L-0.607,-0.953L-1.281,-1.215L-1.685,-1.372L-3.253,-1.981L-3.41,-1.973L-3.53,-1.936L-3.52,-1.217L-2.854,-0.857L-2.27,-0.541L-1.198,0.039L-0.102,0.632L1.064,1.264L1.533,0.339L1.399,-0.174L1.195,-0.253L0,-0.717Z" style="fill:rgb(142,142,142);fill-rule:nonzero;"/>
                </g>
                <g transform="matrix(1,0,0,1,3635.7,1174.9)">
                    <path d="M0,19.58L0.858,21.312L0.878,21.703L1.029,21.695L1.006,21.235L0.955,20.213L0.898,19.069L0.879,18.681L0.89,18.113L0.903,17.442L0.904,17.388L0.914,16.878L0.936,15.723L0.987,13.065L1.06,12.339L1.348,9.438L1.488,8.035L2.346,3.935L2.738,2.958L2.875,2.613L2.14,0.625L1.965,-0.059L1.602,-1.477L1.436,-2.123L0.797,-1.433L0.271,-0.119L0.241,-0.046L0.201,0.168L0.148,0.188L-0.506,1.823L-0.681,2.657L-1.333,5.77L-1.356,6.434L-1.558,12.078L-1.785,18.409L-1.83,19.68L-0.34,19.599L0,19.58Z" style="fill:rgb(142,142,142);fill-rule:nonzero;"/>
                </g>
                <g transform="matrix(1,0,0,1,3636.8,1191.77)">
                    <path d="M0,4.354L0.874,4.174L0.31,1.064L0.103,1.019L0.041,0.522L-0.003,0.524L0.035,0.472L-0.018,0.039L-0.188,-0.001L-0.198,0.509L-0.013,0.553L-0.199,0.563L-0.212,1.234L-0.223,1.802L-0.204,2.189L-0.147,3.334L-0.096,4.355L-0.03,4.337L0,4.354Z" style="fill:rgb(142,142,142);fill-rule:nonzero;"/>
                </g>
                <g transform="matrix(1,0,0,1,3638.49,1192.63)">
                    <path d="M0,2.477L0.443,2.498L0.58,3.197L0.801,3.185L0.797,3.127L0.63,1.908L0.391,0.835L0.099,-0.016L-0.228,-0.589L-0.402,-0.72L-0.006,2.477L0,2.477Z" style="fill:rgb(142,142,142);fill-rule:nonzero;"/>
                </g>
                <g transform="matrix(1,0,0,1,3639.11,1198.15)">
                    <path d="M0,2.264L0.171,1.299L0.26,0.147L0.26,-0.163L-0.033,-0.093L-0.037,-0.061L-0.206,-0.052L-1.177,0.179L-0.055,2.427L0,2.264Z" style="fill:rgb(142,142,142);fill-rule:nonzero;"/>
                </g>
                <g transform="matrix(1,0,0,1,3623.88,1190.72)">
                    <path d="M0,3.55L-1.242,1.484L-1.118,-0.274L-4.314,-0.1L-4.437,1.658L-4.588,3.824L-0.004,3.574L0,3.55Z" style="fill:rgb(142,142,142);fill-rule:nonzero;"/>
                </g>
                <g transform="matrix(1,0,0,1,3628.46,1190)">
                    <path d="M0,0.35L0.1,0.374L-0.011,-0.024L0,0.35Z" style="fill:rgb(142,142,142);fill-rule:nonzero;"/>
                </g>
                <g transform="matrix(1,0,0,1,3628,1190.5)">
                    <path d="M0,-0.596L0.057,-0.118L0.329,-0.164L0.611,0.068L0.554,-0.128L0.454,-0.152L0.443,-0.526L0.402,-0.664L0,-0.596Z" style="fill:rgb(142,142,142);fill-rule:nonzero;"/>
                </g>
                <g transform="matrix(1,0,0,1,3626.52,1192.91)">
                    <path d="M0,-10.342L0.174,-9.777L1.177,-4.725L1.847,0.902L1.91,0.58L1.728,-0.952L1.541,-2.525L1.484,-3.003L1.481,-3.031L1.181,-5.547L1.156,-5.757L0.066,-11.244L0.056,-11.106L0,-10.342Z" style="fill:rgb(142,142,142);fill-rule:nonzero;"/>
                </g>
                <g transform="matrix(1,0,0,1,3629.14,1148.58)">
                    <path d="M0,-1.15L0.239,2.511L1.779,2.575L1.23,1.658L0.815,1.68L0.772,0.508L0.774,0.189L-0.099,-3.725L-0.117,-3.705L0,-1.15Z" style="fill:rgb(142,142,142);fill-rule:nonzero;"/>
                </g>
                <g transform="matrix(1,0,0,1,3640.95,1148.25)">
                    <path d="M0,-0.586L-1.426,-1.212L-2.939,-1.877L-3.817,-2.262L-5.236,-2.885L-5.76,-2.785L-6.66,-2.76L-7.615,-2.594L-7.968,-2.569L-9.557,-1.908L-10.723,-2.219L-10.955,-2.28L-10.94,-2.435L-10.864,-3.184L-10.299,-3.487L-11.906,-3.4L-11.032,0.515L-11.023,-0.913L-10.698,-1.456L-10.301,-1.797L-10.698,-1.456L-11.023,-0.913L-11.032,0.515L-11.034,0.834L-10.991,2.006L-10.577,1.983L-9.233,1.91L-7.871,1.484L-9.233,1.91L-10.577,1.983L-10.028,2.901L-7.831,2.781L-7.822,2.525L-7.117,2.411L-6.124,2.432L-5.834,2.569L-5.838,2.672L-3.665,2.554L-0.216,2.218L1.048,-0.293L0.72,-0.271L0,-0.586Z" style="fill:rgb(142,142,142);fill-rule:nonzero;"/>
                </g>
                <g transform="matrix(1,0,0,1,3605.29,1146.86)">
                    <path d="M0,-2.312L-0.062,-2.253L-0.508,-1.827L-0.801,-1.548L-0.877,-1.476L-0.927,-1.427L-1.659,-0.729L-1.232,-0.3L-1.129,-0.216L-0.659,0.17L-0.466,0.367L-0.367,0.47L0.22,-0.09L0.197,-0.085L0.173,-0.112L0.179,-0.122L0.247,-0.178L0.446,-0.332L0.435,-0.492L0.393,-1.095L0.902,-1.64L0.596,-1.862L0.493,-2.782L0.39,-2.684L0,-2.312Z" style="fill:rgb(142,142,142);fill-rule:nonzero;"/>
                </g>
                <g transform="matrix(1,0,0,1,3639.07,1196.55)">
                    <path d="M0,-0.73L-0.283,-0.715L-0.442,-0.308L-0.416,0.211L2.423,-0.464L3.868,-0.808L3.882,-0.941L0.221,-0.742L0,-0.73Z" style="fill:rgb(221,221,221);fill-rule:nonzero;"/>
                </g>
                <g transform="matrix(1,0,0,1,3637.44,1200.14)">
                    <path d="M0,1.247L0.021,1.289L0.217,1.68L1.78,4.811L2.247,4.786L2.01,3.929L2.073,3.674L2.456,2.106L1.623,0.437L0.501,-1.811L0.392,-2.029L0.08,-2.654L-0.303,-3.42L-0.486,-3.564L-0.676,-3.554L-0.707,-3.552L-0.858,-3.544L-1.324,-3.519L-1.474,-3.234L-1.532,-2.631L-1.479,-1.938L-1.332,-1.421L-0.768,-0.292L-0.433,0.378L-0.287,0.672L0,1.247Z" style="fill:rgb(221,221,221);fill-rule:nonzero;"/>
                </g>
                <g transform="matrix(1,0,0,1,3635.96,1197.69)">
                    <path d="M0,0.517L-0.054,-0.176L0.005,-0.779L0.155,-1.064L0.621,-1.089L0.601,-1.479L-0.258,-3.212L-0.939,-1.473L-0.761,1.997L0.097,3.729L0.71,2.163L0.147,1.034L0,0.517Z" style="fill:rgb(221,221,221);fill-rule:nonzero;"/>
                </g>
                <g transform="matrix(1,0,0,1,3646.15,1183.06)">
                    <path d="M0,10.979L-0.617,5.79L-1.544,1.133L-2.714,-2.676L-4.047,-5.377L-5.185,-6.512L-3.93,-3.974L-2.661,0.157L-1.657,5.209L-0.987,10.836L-0.698,16.656L-0.712,17.491L0.247,17.439L0.268,16.345L0,10.979Z" style="fill:rgb(221,221,221);fill-rule:nonzero;"/>
                </g>
                <g transform="matrix(1,0,0,1,3640.96,1198.41)">
                    <path d="M0,-21.859L1.138,-20.723L2.471,-18.023L3.641,-14.214L4.568,-9.557L5.185,-4.368L5.453,0.999L5.432,2.093L7.314,1.99L7.328,1.155L7.039,-4.666L6.37,-10.293L5.365,-15.344L4.096,-19.475L2.651,-22.404L1.124,-23.929L-0.383,-23.952L-1.633,-22.604L-1.555,-22.298L-1.517,-22.15L-0.271,-22.13L0,-21.859Z" style="fill:rgb(221,221,221);fill-rule:nonzero;"/>
                </g>
                <g transform="matrix(1,0,0,1,3642.41,1197.12)">
                    <path d="M0,0.148L0.646,0.112L0.624,0L0,0.148Z" style="fill:rgb(221,221,221);fill-rule:nonzero;"/>
                </g>
                <g transform="matrix(1,0,0,1,3630.01,1206.32)">
                    <path d="M0,-4.576L-0.026,-4.266L-0.257,-3.025L-0.578,-2.121L-0.967,-1.616L-1.176,-1.581L-1.147,-1.557L-1.176,-1.581L-1.339,-1.715L-1.368,-0.18L-1.103,0.039L-0.565,-0.051L-0.079,-0.682L0.322,-1.811L0.61,-3.36L0.715,-4.615L0.25,-4.59L0,-4.576Z" style="fill:rgb(221,221,221);fill-rule:nonzero;"/>
                </g>
                <g transform="matrix(1,0,0,1,3644.79,1196.55)">
                    <path d="M0,-0.094L-0.141,0.004L-0.216,0.019L-0.265,0.096L-0.271,0.03L-0.335,0.043L-0.325,0.188L-0.356,0.189L-0.339,0.213L-0.374,0.264L-0.412,0.275L-0.25,0.6L-0.127,0.593L0.035,0.186L-0.008,-0.625L-0.042,-0.694L0,-0.094Z" style="fill:rgb(221,221,221);fill-rule:nonzero;"/>
                </g>
                <g transform="matrix(1,0,0,1,3634.82,1152.84)">
                    <path d="M0,-2.155L-0.994,-2.177L-1.698,-2.063L-1.707,-1.806L-1.771,-0.02L-1.16,-0.195L-1.065,-0.184L-0.074,-0.074L0.152,-0.049L0.217,0.022L0.286,-1.915L0.29,-2.019L0,-2.155Z" style="fill:rgb(221,221,221);fill-rule:nonzero;"/>
                </g>
                <g transform="matrix(0.774865,0.632127,0.632127,-0.774865,3628.58,1206.68)">
                    <path d="M0.082,-0.087L0.18,-0.087L0.365,0.081L-0.032,0.084L0.082,-0.087Z" style="fill:rgb(221,221,221);fill-rule:nonzero;"/>
                </g>
                <g transform="matrix(1,0,0,1,3648.49,1205.08)">
                    <path d="M0,-4.698L-0.79,-1.461L-0.384,0L-0.296,-0.369L-0.074,-1.275L0.406,-3.236L0,-4.698Z" style="fill:rgb(221,221,221);fill-rule:nonzero;"/>
                </g>
                <g transform="matrix(1,0,0,1,3646.25,1218.21)">
                    <path d="M0,-13.031L-0.402,-8.994L-1.192,-5.213L-2.26,-2.547L-3.127,-1.61L-3.529,-1.177L-4.917,-1.197L-5.189,-1.47L-4.995,-1.08L-3.469,0.448L-1.964,0.47L-0.585,-1.016L0.571,-3.907L1.431,-8.008L1.932,-13.037L1.939,-13.501L1.851,-13.131L1.664,-13.122L0,-13.031Z" style="fill:rgb(221,221,221);fill-rule:nonzero;"/>
                </g>
                <g transform="matrix(1,0,0,1,3644.84,1211.43)">
                    <path d="M0,-1.065L-0.857,3.035L-1.713,5.178L-0.846,4.241L0.222,1.575L1.011,-2.206L1.414,-6.243L0.642,-6.201L0.5,-6.094L0,-1.065Z" style="fill:rgb(221,221,221);fill-rule:nonzero;"/>
                </g>
                <g transform="matrix(1,0,0,1,3624.7,1197.59)">
                    <path d="M0,-1.96L-0.011,-1.982L-0.461,-1.958L-0.64,-1.868L-0.659,-1.857L-0.669,-1.867L-0.754,-1.942L-1.071,-1.924L-5.507,-1.683L-5.536,-1.681L-5.657,-1.674L-6.115,-1.65L-6.263,-1.562L-6.281,-1.551L-6.293,-1.56L-6.408,-1.634L-6.748,-1.615L-7,-1.601L-7.16,-1.195L-7.118,-0.383L-6.917,0.022L-6.709,0.01L0.072,-0.359L0.231,-0.766L0.19,-1.577L0.163,-1.632L0.14,-1.677L0,-1.96Z" style="fill:rgb(221,221,221);fill-rule:nonzero;"/>
                </g>
                <g transform="matrix(1,0,0,1,3624.83,1168.45)">
                    <path d="M0,5.641L0.262,5.626L0.275,5.097L0.525,5.03L0.991,4.923L2.021,5.01L2.335,5.261L2.317,5.51L3.294,5.455L3.242,5.227L2.913,3.793L2.609,2.47L2.084,1.96L1.783,1.668L1.702,1.661L0.688,1.577L0.209,1.538L-0.289,1.496L-0.981,1.439L-0.289,1.496L-0.423,0.744L-0.714,0.462L-1.116,0.07L-1.248,-0.058L-2.523,0L-3.522,0.045L-3.913,0.063L-4.219,1.615L-5.497,1.834L-5.594,1.851L-7.468,2.171L-7.51,2.401L-7.809,4.025L-7.915,4.599L-6.831,3.43L-4.763,3.317L-3.063,3.343L-1.727,4.678L-1.682,4.886L-1.309,5.252L-1.15,5.457L-1.03,5.699L-0.894,5.692L0,5.641Z" style="fill:rgb(221,221,221);fill-rule:nonzero;"/>
                </g>
                <g transform="matrix(1,0,0,1,3623.93,1191.46)">
                    <path d="M0,1.804L0.072,1.064L-1.175,-1.01L-1.298,0.748L-0.056,2.814L-0.031,2.668L0.026,1.857L0,1.804Z" style="fill:rgb(221,221,221);fill-rule:nonzero;"/>
                </g>
                <g transform="matrix(1,0,0,1,3624.12,1193.25)">
                    <path d="M0,-1.939L-0.119,-0.724L-0.191,0.015L-0.067,0.007L0.281,-1.954L0,-1.939Z" style="fill:rgb(221,221,221);fill-rule:nonzero;"/>
                </g>
                <g transform="matrix(1,0,0,1,3623.9,1193.32)">
                    <path d="M0,0.81L0.12,0.129L0.057,0L0,0.81Z" style="fill:rgb(221,221,221);fill-rule:nonzero;"/>
                </g>
                <g transform="matrix(1,0,0,1,3619.89,1183.09)">
                    <path d="M0,-6.745L0.025,-6.745L0.235,-6.741L0.79,-6.733L0.847,-6.732L0.912,-6.731L2.32,-5.324L3.655,-2.623L4.825,1.186L4.951,1.822L4.968,1.103L5.08,-3.736L5.108,-4.947L4.084,-7.019L2.559,-8.543L1.052,-8.567L-0.325,-7.082L-0.441,-6.794L-0.458,-6.752L-0.1,-6.747L0,-6.745Z" style="fill:rgb(221,221,221);fill-rule:nonzero;"/>
                </g>
                <g transform="matrix(1,0,0,1,3621.09,1189.48)">
                    <path d="M0,-12.302L0.367,-11.559L0.437,-11.417L0.988,-10.302L2.257,-6.171L3.261,-1.12L3.492,0.826L3.648,-0.051L3.669,-0.94L3.753,-4.573L3.627,-5.209L2.457,-9.018L1.122,-11.719L-0.286,-13.126L-0.35,-13.126L-0.408,-13.128L-0.168,-12.641L0,-12.302Z" style="fill:rgb(221,221,221);fill-rule:nonzero;"/>
                </g>
                <g transform="matrix(1,0,0,1,3624.97,1195.11)">
                    <path d="M0,0.239L0.127,0.493L0.09,-0.254L0,0.239Z" style="fill:rgb(221,221,221);fill-rule:nonzero;"/>
                </g>
                <g transform="matrix(1,0,0,1,3625.06,1212.85)">
                    <path d="M0,-17.992L0.037,-17.245L0.248,-13.037L0.139,-7.42L-0.362,-2.391L-1.22,1.709L-1.906,3.424L-2.109,3.929L-2.12,3.957L-2.245,4.271L-2.227,4.271L-0.957,2.901L0.11,0.235L0.902,-3.545L1.363,-8.183L1.464,-13.361L1.196,-18.728L0.775,-22.263L0.153,-18.837L0,-17.992Z" style="fill:rgb(221,221,221);fill-rule:nonzero;"/>
                </g>
                <g transform="matrix(1,0,0,1,3627.7,1213.13)">
                    <path d="M0,-24.954L-1.004,-30.005L-1.177,-30.571L-1.228,-29.875L-1.632,-24.358L-1.701,-23.416L-1.858,-22.55L-1.437,-19.015L-1.17,-13.648L-1.27,-8.47L-1.731,-3.832L-2.523,-0.052L-3.59,2.614L-4.86,3.984L-4.879,3.984L-5.527,3.974L-5.782,3.971L-6.125,3.966L-6.075,4.068L-4.547,5.595L-3.042,5.617L-1.665,4.131L-0.508,1.24L0.351,-2.86L0.851,-7.89L0.96,-13.506L0.67,-19.326L0,-24.954Z" style="fill:rgb(221,221,221);fill-rule:nonzero;"/>
                </g>
                <g transform="matrix(1,0,0,1,3628.71,1200.36)">
                    <path d="M0,1.717L0.069,1.773L0.322,1.73L0.552,1.432L0.644,1.173L0.036,-0.056L0,1.717Z" style="fill:rgb(221,221,221);fill-rule:nonzero;"/>
                </g>
                <g transform="matrix(1,0,0,1,3606.47,1149.03)">
                    <path d="M0,-4.061L-0.031,-4.057L0,-4.061L0.038,-4.063L0,-4.061ZM33.435,-2.636L32.363,-3.216L31.779,-3.532L31.113,-3.892L31.103,-4.611L31.101,-4.765L31.099,-4.893L30.231,-5.259L30.531,-5.719L30.635,-6.651L30.356,-6.998L30.269,-7L29.903,-7.005L29.301,-7.015L27.685,-7.04L27.588,-7.034L27.107,-7.008L26.716,-6.987L25.655,-6.929L23.024,-6.607L14.918,-6.165L14.297,-6.132L12.892,-6.055L11.571,-5.983L10.28,-5.913L7.247,-5.748L5.292,-5.749L4.006,-5.749L1.977,-5.639L-0.058,-5.342L-0.681,-4.945L-0.578,-4.024L-0.272,-3.803L-0.781,-3.258L-0.739,-2.655L-0.728,-2.495L-0.714,-2.305L-0.704,-2.159L-1.261,-1.406L-1.288,-1.37L-1.128,-1.083L-1.099,-1.054L-1.169,-0.822L-0.701,-0.766L-0.505,-0.637L-0.488,-0.621L1.236,-2.538L1.001,-3.625L0.918,-3.613L1.001,-3.625L2.004,-3.771L3.923,-3.876L4.033,-3.882L4.783,-3.881L5.287,-3.881L7.273,-3.88L9.868,-4.021L11.57,-4.114L13.312,-4.209L14.14,-4.254L14.133,-4.385L14.14,-4.254L14.167,-3.784L14.983,-3.356L15.042,-3.363L15.662,-3.433L16.317,-3.507L15.662,-3.433L15.568,2.979L16.082,2.86L16.223,2.87L17.144,2.936L17.411,2.955L17.519,-4.438L17.383,-4.431L17.404,-4.057L17.246,-4.039L17.404,-4.057L17.383,-4.431L17.251,-4.423L15.758,-4.342L17.251,-4.423L17.383,-4.431L17.519,-4.438L23.05,-4.739L25.66,-5.059L25.682,-5.061L25.774,-5.066L26.015,-5.079L26.625,-5.113L27.176,-5.143L27.712,-5.172L28.73,-5.156L28.89,-5.154L28.73,-5.156L28.491,-4.259L28.43,-4.031L28.427,-4.019L28.648,-3.922L29.109,-3.719L29.241,-3.662L30.659,-3.039L31.537,-2.653L33.051,-1.989L34.477,-1.363L35.197,-1.047L35.524,-1.07L35.775,-1.087L35.842,-1.334L35.697,-1.411L34.531,-2.043L33.435,-2.636Z" style="fill:rgb(221,221,221);fill-rule:nonzero;"/>
                </g>
                <g transform="matrix(1,0,0,1,3604.87,1149.98)">
                    <path d="M0,-1.298L-0.097,-1.361L-0.106,-1.318L-0.634,-0.783L-0.775,-0.629L-0.997,-0.555L-1.25,-0.213L-1.256,-0.194L-1.274,-0.165L-1.272,-0.156L-1.224,0.063L-0.376,0.025L-0.326,0.022L0.664,-1.078L0.108,-1.229L0,-1.298Z" style="fill:rgb(221,221,221);fill-rule:nonzero;"/>
                </g>
                <g transform="matrix(1,0,0,1,3628.06,1194.76)">
                    <path d="M0,-4.379L0.187,-2.807L0.217,-2.812L0.438,-2.849L0.217,-2.812L0.631,-2.469L1.056,-1.691L1.435,-0.552L1.563,0.046L1.757,0.036L1.588,-0.561L1.263,-1.702L1.214,-1.874L0.553,-4.193L0.272,-4.425L0,-4.379Z" style="fill:rgb(221,221,221);fill-rule:nonzero;"/>
                </g>
                <g transform="matrix(1,0,0,1,3628.48,1196.24)">
                    <path d="M0,-1.683L0.085,0.015L0.536,-1.14L0.35,-1.483L0.089,-1.698L0,-1.683Z" style="fill:rgb(221,221,221);fill-rule:nonzero;"/>
                </g>
                <g transform="matrix(1,0,0,1,3628.19,1189.89)">
                    <path d="M0,-0.047L-0.189,-0.015L-0.187,0.013L0.216,-0.056L0.216,-0.06L0,-0.047Z" style="fill:rgb(221,221,221);fill-rule:nonzero;"/>
                </g>
                <g transform="matrix(1,0,0,1,3617.78,1201.66)">
                    <path d="M0,-4.055L-0.2,-4.46L-0.242,-5.272L-0.083,-5.678L0.17,-5.692L0.259,-7.046L-0.791,-6.989L-0.552,-2.198L0.066,2.991L0.208,-4.067L0,-4.055Z" style="fill:rgb(242,211,173);fill-rule:nonzero;"/>
                </g>
                <g transform="matrix(1,0,0,1,3618.13,1184.18)">
                    <path d="M0,6.522L0.02,5.512L0.033,2.431L-0.692,-0.062L-0.717,0.194L-0.807,1.1L-0.986,2.893L-1.065,3.689L-1.081,3.847L-1.134,6.584L-0.484,6.548L0,6.522Z" style="fill:rgb(242,211,173);fill-rule:nonzero;"/>
                </g>
                <g transform="matrix(1,0,0,1,3595.6,1132.53)">
                    <path d="M0,-0.374L0.08,0.039L0.098,-0.413L0,-0.374Z" style="fill:rgb(242,211,173);fill-rule:nonzero;"/>
                </g>
                <g transform="matrix(1,0,0,1,3605.3,1133.41)">
                    <path d="M0,14.799L0.07,14.567L-0.086,14.455L0.041,14.538L-0.119,14.251L-0.093,14.215L-0.372,13.928L-0.472,13.826L-0.664,13.628L-1.172,13.223L-1.237,13.158L-1.665,12.729L-1.776,12.617L-1.984,12.408L-2.174,12.218L-2.227,12.164L-2.622,11.768L-2.227,12.164L-2.174,12.218L-1.984,12.408L-1.776,12.617L-1.476,12.475L-1.019,11.928L-0.882,11.983L-0.806,11.91L-0.513,11.631L-0.067,11.206L-0.005,11.146L-0.288,10.815L-0.487,10.581L-0.735,10.464L-1.659,10.029L-2.414,9.986L-2.998,9.954L-2.953,9.974L-2.998,9.954L-7.137,8.327L-4.044,9.474L-3.386,9.776L-3.593,9.461L-4.272,8.427L-4.033,4.761L-4.449,2.877L-4.868,0.983L-5.06,0.112L-5.315,-1.042L-5.313,-1.566L-5.547,-1.613L-6.131,-1.734L-7.058,-1.924L-8.24,-1.739L-8.623,-1.679L-8.707,-1.666L-9.367,-1.393L-9.606,-1.294L-9.624,-0.84L-9.791,3.581L-9.774,3.646L-9.755,3.716L-9.198,5.821L-8.132,9.848L-7.184,12.111L-5.522,15.033L-4.97,16.002L-4.72,16.442L-3.328,16.668L-2.985,16.723L-1.845,16.55L-1.685,16.38L-1.679,16.361L-1.427,16.019L-1.669,16.1L-1.987,16.206L-2.152,16.182L-2.684,16.322L-2.152,16.182L-4.819,15.798L-1.23,15.577L-1.063,15.791L-0.535,15.256L-0.527,15.213L-0.953,14.939L-2.012,14.258L-3.452,13.15L-2.012,14.258L-0.953,14.939L-0.527,15.213L-0.429,15.276L-0.321,15.345L0.235,15.496L0.278,15.507L0.717,15.035L0.468,14.855L0,14.799Z" style="fill:rgb(242,211,173);fill-rule:nonzero;"/>
                </g>
                <g transform="matrix(1,0,0,1,3600.48,1149.39)">
                    <path d="M0,-0.185L2.668,0.198L2.833,0.222L3.151,0.117L3.393,0.036L3.615,-0.038L3.756,-0.193L3.59,-0.407L0,-0.185Z" style="fill:rgb(242,211,173);fill-rule:nonzero;"/>
                </g>
                <g transform="matrix(1,0,0,1,3642.46,1143.92)">
                    <path d="M0,0.121L0.751,0.408L-0.681,-0.28L-0.712,-0.276L-0.748,-0.287L0,0.121Z" style="fill:rgb(242,211,173);fill-rule:nonzero;"/>
                </g>
                <g transform="matrix(1,0,0,1,3640.95,1143.79)">
                    <path d="M0,-0.159L0.129,-0.108L0.351,-0.123L1.508,0.252L0.76,-0.156L0.179,-0.353L0.005,-0.411L0,-0.159Z" style="fill:rgb(242,211,173);fill-rule:nonzero;"/>
                </g>
                <g transform="matrix(1,0,0,1,3630.77,1143.64)">
                    <path d="M0,-15.828L-0.939,-15.345L-1.265,-15.239L-2.025,-14.993L-2.075,-14.927L-2.213,-14.748L-2.904,-13.847L-4.113,-12.271L-4.185,-12.177L-5.269,-10.765L-5.231,-10.584L-5.339,-10.672L-5.463,-10.512L2.412,-1.595L2.804,-1.616L3.285,-1.642L3.381,-1.648L4.997,-1.623L5.6,-1.614L5.966,-1.608L6.053,-1.606L6.332,-1.498L6.686,-1.36L7.371,-1.094L7.756,-0.945L7.886,-0.894L7.267,-1.45L6.532,-2.109L7.267,-1.45L7.886,-0.894L8.227,-0.761L8.531,-0.92L8.833,-0.632L8.853,-0.614L9.021,-0.453L9.318,-0.338L9.514,-0.262L9.675,-0.199L9.814,-0.145L10.002,-0.072L10.175,-0.005L10.18,-0.258L10.181,-0.361L9.583,-1.829L9.294,-2.19L9.278,-2.21L8.686,-2.948L9.278,-2.21L9.302,-2.23L9.294,-2.19L9.583,-1.829L10.181,-0.361L10.18,-0.258L10.354,-0.199L10.936,-0.003L10.971,0.009L11.002,0.005L11.341,-0.034L11.524,-0.055L11.426,-0.317L11.281,-0.692L11.006,-1.175L10.724,-1.668L10.639,-1.82L9.099,-2.805L8.032,-3.435L7.17,-3.402L7.13,-3.401L6.914,-3.393L5.218,-3.328L6.914,-3.393L6.416,-3.526L6.914,-3.393L7.13,-3.401L7.17,-3.402L2.999,-10.995L0.132,-15.651L0.017,-15.837L0,-15.828Z" style="fill:rgb(242,211,173);fill-rule:nonzero;"/>
                </g>
                <g transform="matrix(0.932299,0.361687,0.361687,-0.932299,3639.02,1142.77)">
                    <path d="M0.02,-0.11L0.465,-0.11L0.632,-0.011L0.246,0.149L0.02,-0.11Z" style="fill:rgb(242,211,173);fill-rule:nonzero;"/>
                </g>
                <g transform="matrix(1,0,0,1,3639.45,1143.16)">
                    <path d="M0,-0.107L0.346,0.027L0.177,-0.134L0,-0.107Z" style="fill:rgb(242,211,173);fill-rule:nonzero;"/>
                </g>
                <g transform="matrix(1,0,0,1,3642.05,1143.68)">
                    <path d="M0,-0.741L0.145,-0.366L0.243,-0.104L0.06,-0.083L-0.279,-0.044L1.153,0.643L1.53,0.824L2.027,0.976L2.154,0.491L0.169,-1.274L-0.557,-1.717L-0.275,-1.224L0,-0.741Z" style="fill:rgb(242,211,173);fill-rule:nonzero;"/>
                </g>
                <g transform="matrix(1,0,0,1,3630.08,1145.13)">
                    <path d="M0,-0.064L-0.076,0.685L-0.091,0.839L0.141,0.901L1.307,1.212L2.896,0.551L3.25,0.526L4.204,0.36L5.105,0.335L5.629,0.235L5.497,0.177L5.036,-0.026L4.814,-0.123L4.818,-0.134L4.878,-0.363L5.118,-1.26L4.1,-1.276L3.564,-1.246L3.013,-1.216L2.403,-1.183L2.162,-1.17L2.07,-1.165L2.048,-1.162L0.566,-0.367L0,-0.064Z" style="fill:rgb(242,211,173);fill-rule:nonzero;"/>
                </g>
                <g transform="matrix(1,0,0,1,3613.67,1178.14)">
                    <path d="M0,29.219L0.631,29.208L0.963,29.206L1.117,29.205L0.909,28.161L0.487,24.614L0.422,24.069L0.285,22.913L0.155,21.823L0.119,21.108L-0.172,15.269L-0.111,12.138L-0.108,11.974L-0.049,8.944L0.094,7.505L0.301,5.422L0.514,3.28L1.206,-0.024L0.581,0.019L-0.176,0.078L-2.23,0.24L-3.308,0.325L-4.25,0.399L-4.191,0.823L-3.219,7.917L-3.133,8.54L-3.219,7.917L-3.722,18.703L-1.522,28.729L-1.412,29.243L-1.326,29.242L0,29.219Z" style="fill:rgb(242,211,173);fill-rule:nonzero;"/>
                </g>
                <g transform="matrix(1,0,0,1,3604.31,1207.23)">
                    <path d="M0,-29.322L-0.182,-29.336L-1.217,-29.416L-1.658,-29.45L-2.329,-29.365L-3.483,-29.218L-4.107,-29.138L-5.149,-29.038L-5.592,-28.996L-6.341,-28.924L-6.807,-28.879L-7.537,-28.681L-7.493,-28.16L-6.905,-21.167L-8.702,-13.525L-7.745,-4.382L-7.876,-8.227L-7.745,-4.382L-7.592,0.128L-7.391,0.126L-6.41,0.115L-5.753,0.107L-3.604,0.107L-3.053,0.112L-2.449,0.118L-2.445,0.083L-1.694,-5.938L-2.445,0.083L-0.782,-10.319L-0.641,-19.194L-0.682,-19.078L-1.421,-16.951L-0.682,-19.078L-0.641,-19.194L0.433,-22.286L0.982,-28.608L1.041,-29.279L0,-29.322Z" style="fill:rgb(242,211,173);fill-rule:nonzero;"/>
                </g>
                <g transform="matrix(1,0,0,1,3620.3,1095.66)">
                    <path d="M0,-0.448L-0.005,-0.349L0.085,0L0.089,-0.42L0.089,-0.448L0,-0.448Z" style="fill:rgb(242,211,173);fill-rule:nonzero;"/>
                </g>
                <g transform="matrix(1,0,0,1,3591.42,1169.12)">
                    <path d="M0,-0.219L-0.002,-0.204L1.069,0.057L2.569,-0.052L1.15,-0.215L1.096,-0.221L0.629,-0.276L0,-0.219Z" style="fill:rgb(229,101,154);fill-rule:nonzero;"/>
                </g>
                <g transform="matrix(1,0,0,1,3635.19,1166.88)">
                    <path d="M0,9.839L0.654,8.204L0.707,8.184L0.748,7.97L0.777,7.897L-0.304,-0.834L-0.327,-0.174L-0.472,3.886L-0.594,7.287L-0.175,10.673L0,9.839Z" style="fill:rgb(229,101,154);fill-rule:nonzero;"/>
                </g>
                <g transform="matrix(1,0,0,1,3628.37,1199.71)">
                    <path d="M0,-5.905L0.29,-0.085L0.389,0.322L0.217,-3.148L0.202,-3.454L0.117,-5.152L0.115,-5.162L0.063,-6.227L0,-5.905Z" style="fill:rgb(229,101,154);fill-rule:nonzero;"/>
                </g>
                <g transform="matrix(1,0,0,1,3634.75,1194.53)">
                    <path d="M0,-41.763L-0.991,-41.873L-1.086,-41.884L-1.697,-41.709L-2.023,-41.615L-2.842,-18.725L-1.985,-16.739L-0.768,-13.917L-0.815,-12.61L-1.423,-12.469L-2.143,-12.342L-2.547,-12.424L-3.065,-12.487L-3.368,-3.998L-3.371,-3.923L-2.547,-1.028L-2.22,0.121L-1.268,0.069L-0.877,0.048L-0.832,-1.223L-0.605,-7.554L-0.403,-13.198L-0.38,-13.862L-0.147,-20.361L-0.026,-23.762L0.119,-27.822L0.143,-28.482L0.207,-30.273L0.258,-31.685L0.344,-34.114L0.381,-35.132L0.603,-41.323L0.291,-41.667L0.227,-41.738L0,-41.763Z" style="fill:rgb(229,101,154);fill-rule:nonzero;"/>
                </g>
                <g transform="matrix(1,0,0,1,3635.02,1180.94)">
                    <path d="M0,15.269L0.681,13.53L0.341,13.549L-1.149,13.63L-1.54,13.652L-2.492,13.703L-2.195,14.747L-2.492,13.703L-2.819,12.554L-3.644,9.659L-3.666,9.577L-7.976,-5.561L-8.072,-4.252L-8.354,-0.405L-8.436,0.717L-7.346,6.204L-7.321,6.414L-6.617,8.886L-6.616,8.89L-6.576,9.028L-6.463,9.426L-6.407,9.622L-5.747,11.941L-5.698,12.113L-5.373,13.255L-5.204,13.851L-4.727,15.526L-4.696,15.633L-4.727,15.526L-5.204,13.851L-5.397,13.862L-5.895,13.889L-6.001,14.159L-6.453,15.314L-6.438,15.62L-6.265,19.09L-6.264,19.096L-6.269,19.357L-5.66,20.586L-5.54,20.83L-5.014,20.801L-4.764,20.787L-4.299,20.762L-4.158,20.754L-0.955,20.58L0.801,20.484L1.036,20.471L0.177,18.739L0,15.269Z" style="fill:rgb(229,101,154);fill-rule:nonzero;"/>
                </g>
                <g transform="matrix(1,0,0,1,3625.09,1176.64)">
                    <path d="M0,-2.567L-0.262,-2.552L-1.156,-2.501L-0.967,-1.837L-0.06,0L-0.02,-1.7L0,-2.567Z" style="fill:rgb(229,101,154);fill-rule:nonzero;"/>
                </g>
                <g transform="matrix(1,0,0,1,3644.08,1162.2)">
                    <path d="M0,33.328L0.057,33.532L0.035,33.524L-0.021,33.541L-0.204,33.43L0,33.328ZM-9.078,0.643L-9.129,2.055L-6.947,10.573L-6.781,11.219L-6.418,12.637L-6.243,13.321L-5.508,15.309L-5.646,15.653L-1.121,33.324L-1.114,33.273L-1.121,33.324L-1.128,33.411L-1.142,33.545L-0.846,33.475L-0.68,33.435L-0.374,33.363L-0.68,33.435L-0.846,33.475L-1.142,33.545L-2.587,33.889L-5.426,34.563L-5.692,34.626L-5.899,34.675L-6.77,34.882L-6.567,35.289L-6.255,35.913L-6.146,36.132L-5.175,35.901L-5.114,35.886L-5.002,35.86L-4.708,35.79L-1.671,35.068L-1.047,34.92L-0.278,34.738L-1.047,34.92L-1.026,35.033L-0.909,35.623L-0.465,35.645L0.659,35.583L0.811,34.11L0.518,32.616L0.113,32.596L0.328,33.437L0.37,33.329L0.497,33.323L0.606,33.546L0.659,33.572L0.663,33.66L0.698,33.728L0.74,34.539L0.578,34.946L0.455,34.952L0.293,34.628L0.236,34.645L0.208,34.487L0.286,34.436L0.342,34.416L0.37,34.396L0.434,34.383L0.497,34.362L0.49,34.372L0.564,34.357L0.705,34.259L0.663,33.66L0.659,33.572L0.606,33.546L0.504,33.492L0.42,33.516L0.328,33.437L0.349,33.525L0.328,33.437L0.113,32.596L-4.636,14.058L-4.674,13.909L-4.753,13.603L-5.475,10.784L-5.783,9.578L-8.955,-2.804L-8.992,-1.787L-9.078,0.643Z" style="fill:rgb(229,101,154);fill-rule:nonzero;"/>
                </g>
                <g transform="matrix(1,0,0,1,3624.86,1185.09)">
                    <path d="M0,-0.9L-0.017,-0.181L-0.101,3.452L-0.122,4.341L-0.278,5.218L-0.453,6.205L-0.802,8.167L-0.835,8.356L-0.957,9.038L-0.982,9.183L-0.987,9.208L-1.229,10.57L-0.912,10.553L-0.827,10.627L-0.817,10.638L-0.798,10.627L-0.619,10.537L-0.169,10.512L-0.158,10.534L-0.018,10.817L0.949,4.299L1.136,4.628L1.205,3.686L1.609,-1.831L1.659,-2.527L1.716,-3.291L1.725,-3.428L1.808,-4.551L2.089,-8.398L2.185,-9.707L2.289,-11.13L2.307,-11.378L1.993,-11.63L0.963,-11.717L0.497,-11.61L0.247,-11.543L0.235,-11.014L0.215,-10.147L0.175,-8.447L0.14,-6.95L0.112,-5.739L0,-0.9Z" style="fill:rgb(229,101,154);fill-rule:nonzero;"/>
                </g>
                <g transform="matrix(1,0,0,1,3624.15,1168.46)">
                    <path d="M0,-1.608L-0.03,0.45L0.261,0.732L0.395,1.484L0.892,1.526L1.372,1.565L0.023,-3.173L0,-1.608Z" style="fill:rgb(229,101,154);fill-rule:nonzero;"/>
                </g>
                <g transform="matrix(1,0,0,1,3624.25,1180.8)">
                    <path d="M0,-21.299L-0.044,-18.289L-0.048,-18.032L-0.071,-16.43L-0.076,-16.14L2.278,-10.688L2.358,-10.681L2.659,-10.389L3.185,-9.879L3.488,-8.556L3.818,-7.122L7.427,1.24L7.945,1.304L8.35,1.385L9.069,1.258L9.678,1.117L9.724,-0.19L8.507,-3.012L7.651,-4.998L0.021,-22.684L0,-21.299Z" style="fill:rgb(229,101,154);fill-rule:nonzero;"/>
                </g>
                <g transform="matrix(1,0,0,1,3638.79,1185.11)">
                    <path d="M0,10.731L0.283,10.716L0.146,10.017L-0.297,9.996L-0.303,9.996L-0.317,9.997L-0.303,9.996L-0.699,6.799L-1.695,-1.244L-1.742,-0.773L-2.031,2.128L-2.103,2.854L-2.154,5.512L-2.006,6.708L-1.953,7.14L-1.947,7.19L-1.885,7.687L-1.677,7.732L-1.114,10.842L-1.988,11.022L-2.017,11.006L-2.084,11.024L-2.061,11.484L-2.03,11.482L-1.84,11.472L-1.656,11.616L-1.477,11.975L-0.606,11.768L-0.399,11.719L-0.133,11.656L-0.159,11.138L0,10.731Z" style="fill:rgb(229,101,154);fill-rule:nonzero;"/>
                </g>
                <g transform="matrix(1,0,0,1,3623.58,1152.41)">
                    <path d="M0,15.986L0.132,16.114L0.534,16.506L0.565,14.448L0.588,12.883L0.597,12.253L0.601,11.963L0.625,10.361L0.628,10.104L0.673,7.094L0.693,5.709L0.778,-0.088L0.374,-0.42L0.297,-0.425L0.03,-0.444L-0.89,-0.51L-1.031,-0.52L-1.546,-0.401L-1.626,-0.382L-2.033,-0.288L-2.04,0.162L-2.074,2.461L-2.192,10.524L-2.274,16.089L-1.275,16.044L0,15.986Z" style="fill:rgb(229,101,154);fill-rule:nonzero;"/>
                </g>
                <g transform="matrix(1,0,0,1,3618.3,1181.68)">
                    <path d="M0,9.016L-0.116,10.773L-0.26,12.939L-0.349,14.292L-0.01,14.274L0.105,14.348L0.117,14.357L0.135,14.345L0.283,14.258L0.742,14.233L0.863,14.227L0.892,14.225L0.987,12.871L1.138,10.705L1.26,8.947L1.3,8.373L1.751,-3.41L1.762,-3.71L1.793,-4.502L1.824,-5.331L1.614,-5.334L1.589,-5.334L1.489,-5.336L1.132,-5.341L0.63,-4.087L0.106,-2.78L0.095,-2.729L-0.049,-2.037L0.059,8.119L0,9.016Z" style="fill:rgb(229,101,154);fill-rule:nonzero;"/>
                </g>
                <g transform="matrix(1,0,0,1,3603.55,1133.14)">
                    <path d="M0,1.088L0.108,0.062L0.023,0L0,1.088Z" style="fill:rgb(229,101,154);fill-rule:nonzero;"/>
                </g>
                <g transform="matrix(1,0,0,1,3595.53,1132.23)">
                    <path d="M0,4.824L-0.017,4.759L0.15,0.338L0.07,-0.075L-0.095,-0.007L-0.381,0.111L-2.395,1.221L-2.763,1.424L-3.103,1.612L-2.835,2.373L-2.821,2.412L-2.78,2.53L-2.176,4.244L-1.356,4.528L-0.281,4.899L0,4.824Z" style="fill:rgb(229,101,154);fill-rule:nonzero;"/>
                </g>
                <g transform="matrix(1,0,0,1,3600.24,1134.61)">
                    <path d="M0,-1.087L0.192,-0.216L0.611,1.678L1.758,1.188L2.301,0.64L3.309,-0.377L3.331,-1.464L2.267,-2.246L2.229,-2.254L0.833,-2.541L0.224,-2.667L-0.253,-2.765L-0.255,-2.241L0,-1.087Z" style="fill:rgb(229,101,154);fill-rule:nonzero;"/>
                </g>
                <g transform="matrix(1,0,0,1,3592.7,1135.67)">
                    <path d="M0,-1.031L-0.014,-1.07L-0.282,-1.832L-0.64,-1.634L0.645,0.801L0.041,-0.913L0,-1.031Z" style="fill:rgb(229,101,154);fill-rule:nonzero;"/>
                </g>
                <g transform="matrix(1,0,0,1,3630.79,1127.73)">
                    <path d="M0,0.07L0.114,0.255L0.493,-0.185L0,0.07Z" style="fill:rgb(229,101,154);fill-rule:nonzero;"/>
                </g>
                <g transform="matrix(1,0,0,1,3592.76,1111.18)">
                    <path d="M0,22.472L0.369,22.268L2.382,21.159L2.668,21.04L2.833,20.972L2.931,20.932L3.171,20.833L3.831,20.56L3.915,20.547L4.297,20.487L5.479,20.301L6.406,20.492L6.991,20.612L7.224,20.66L7.701,20.758L8.311,20.884L9.706,21.171L9.745,21.178L10.809,21.961L10.894,22.023L10.9,21.58L10.909,20.908L10.963,17.004L11.061,9.915L10.963,17.004L11.008,15.475L11.031,14.684L11.032,14.215L15.457,15.743L19.047,16.21L23.355,16.23L27.6,16.21L29.081,15.743L29.204,14.294L29.207,16.783L29.208,18.232L28.588,20.545L28.486,20.922L30.194,22.794L30.561,22.493L30.912,22.437L32.342,22.211L32.547,21.943L32.67,21.783L32.7,21.744L32.741,21.69L33.825,20.278L33.897,20.184L35.105,18.608L35.797,17.707L35.934,17.528L35.984,17.462L36.744,17.216L37.071,17.11L38.01,16.627L38.027,16.618L38.52,16.364L38.596,16.325L39.041,15.759L29.847,3.068L27.655,2.161L24.71,0.665L23.513,0.249L24.799,1.209L26.084,2.168L29.98,5.386L26.084,2.168L24.483,4.942L21.102,6.897L15.824,4.942L11.082,2.168L8.799,0.249L8.669,-0.384L3.618,3.101L2.786,3.98L0.413,7.27L0.18,8.201L-1.501,19.363L-0.698,22.856L-0.34,22.659L0,22.472Z" style="fill:rgb(229,101,154);fill-rule:nonzero;"/>
                </g>
                <g transform="matrix(1,0,0,1,3623.32,1133.92)">
                    <path d="M0,-0.245L-0.366,0.056L0.351,-0.301L0,-0.245Z" style="fill:rgb(229,101,154);fill-rule:nonzero;"/>
                </g>
                <g transform="matrix(0.99998,0.00638965,0.00638965,-0.99998,3610.29,1221.83)">
                    <path d="M0,-0.007L0.626,-0.007L2.101,0.008L2.12,0.068L0,-0.007Z" style="fill:rgb(0,188,218);fill-rule:nonzero;"/>
                </g>
                <g transform="matrix(1,0,0,1,3624.84,1189.44)">
                    <path d="M0,6.472L0.023,6.518L0.132,5.913L0.222,5.42L0.375,4.575L0.997,1.149L1.154,0.283L0.967,-0.046L0,6.472Z" style="fill:rgb(0,188,218);fill-rule:nonzero;"/>
                </g>
                <g transform="matrix(0.999982,0.00600183,0.00600183,-0.999982,3595.44,1221.67)">
                    <path d="M0,-0.02L5.165,-0.02L6.406,0.061L6.7,0.081L0,-0.02Z" style="fill:rgb(0,188,218);fill-rule:nonzero;"/>
                </g>
                <g transform="matrix(1,0,0,1,3622.17,1212.56)">
                    <path d="M0,4.549L0.648,4.559L0.773,4.245L0.586,4.133L0.785,4.217L0.987,3.712L-2.017,-0.008L-2.525,-0.01L-2.285,0.772L-1.996,1.714L-1.907,1.894L-0.726,4.283L-0.724,4.286L-0.598,4.541L-0.256,4.545L0,4.549Z" style="fill:rgb(0,188,218);fill-rule:nonzero;"/>
                </g>
                <g transform="matrix(1,0,0,1,3616.65,1214.62)">
                    <path d="M0,5.311L2.171,5.374L2.118,5.321L1.62,4.314L1.269,3.604L0.487,2.023L0.336,1.531L0.085,0.714L0.001,0.439L-1.394,1.348L-4.419,0.934L-5.576,-0.063L-6.375,5.061L-4.256,4.838L0,5.311Z" style="fill:rgb(0,188,218);fill-rule:nonzero;"/>
                </g>
                <g transform="matrix(1,0,0,1,3601.13,1217.99)">
                    <path d="M0,-3.366L-0.757,-5.441L-1.376,-5.44L-2.029,-5.439L-2.382,-5.438L-3.656,-5.436L-3.794,-5.435L-4.316,-4.309L-4.333,-4.272L-5.118,-2.576L-5.114,-0.802L-5.116,-0.79L-5.189,-0.3L-5.625,1.294L-5.693,1.54L-4.758,2.073L-3.116,1.532L-1.345,1.413L-0.229,1.539L1.006,2.075L0.756,1.06L0.525,-0.43L0.683,0.39L0.731,0.64L0.808,-2.429L0.623,-2.015L0,-3.366Z" style="fill:rgb(0,188,218);fill-rule:nonzero;"/>
                </g>
                <g transform="matrix(-0.937606,-0.347699,-0.347699,0.937606,3599.39,1141.88)">
                    <path d="M-2.099,0.291L1.2,0.291L-3.247,0.377L-2.821,0.345L-2.099,0.291Z" style="fill:rgb(0,188,218);fill-rule:nonzero;"/>
                </g>
                <g transform="matrix(1,0,0,1,3626.2,1219.16)">
                    <path d="M0,-0.251L-0.2,0.251L0.746,0.355L0.31,-0.557L0.142,-0.606L0,-0.251Z" style="fill:rgb(0,188,218);fill-rule:nonzero;"/>
                </g>
                <g transform="matrix(1,0,0,1,3620.26,1106.15)">
                    <path d="M0,-2.857L0.256,-4.98L0.161,-4.984L0.209,-5.108L0.209,-5.863L-0.496,-7.115L-0.595,-7.397L-0.43,-7.717L-0.43,-8.96L-0.375,-8.94L0.095,-10.221L0.131,-10.489L0.041,-10.838L0,-10.937L-1.824,-10.937L-1.869,-10.838L-1.979,-10.937L-3.239,-10.937L-3.962,-11.325L-3.987,-10.937L-6.91,-10.937L-7.103,-10.803L-8.545,-9.796L-8.54,-9.118L-8.532,-7.863L-8.52,-6.133L-8.513,-5.064L-8.502,-3.507L-8.498,-2.785L-7.946,-2.524L-7.738,-2.425L-8.485,-0.95L-8.857,-0.51L-9.216,-0.085L-9.416,0.152L-9.444,0.185L-10.464,0.46L-10.649,0.51L-10.729,0.531L-12.55,1.021L-13.314,1.226L-13.404,1.25L-13.419,1.252L-13.454,1.51L-13.566,2.35L-13.651,2.988L-15.124,2.988L-15.527,3.356L-12.46,5.661L-11.837,6.13L-11.782,6.171L-11.563,6.338L-11.279,6.553L-9.887,7.611L-6.976,8.354L-6.577,8.455L-6.533,8.468L-4.035,7.611L-3.923,6.171L-5.475,4.316L-5.467,4.282L-5.447,4.191L-5.401,3.987L-4.818,1.382L-1.98,1.214L-0.994,0.671L-0.713,-0.028L-0.74,-0.187L-0.048,-2.52L-0.036,-2.563L-0.031,-2.605L-0.004,-2.823L0,-2.857Z" style="fill:rgb(242,211,173);fill-rule:nonzero;"/>
                </g>
            </g>
        </g>
    </g>
</svg>
