<?xml version="1.0" encoding="UTF-8" standalone="no"?>
<!DOCTYPE svg PUBLIC "-//W3C//DTD SVG 1.1//EN" "http://www.w3.org/Graphics/SVG/1.1/DTD/svg11.dtd">
<svg width="100%" height="100%" viewBox="0 0 140 220" version="1.1" xmlns="http://www.w3.org/2000/svg" xmlns:xlink="http://www.w3.org/1999/xlink" xml:space="preserve" xmlns:serif="http://www.serif.com/" style="fill-rule:evenodd;clip-rule:evenodd;stroke-linejoin:round;stroke-miterlimit:2;">
    <g transform="matrix(1,0,0,1,-1379.98,-688.393)">
        <g id="people-20">
            <g>
                <g transform="matrix(1,0,0,1,1455.88,788.859)">
                    <path d="M0,0.259L-0.072,0.076L-0.432,0L0,0.259Z" style="fill:rgb(66,76,160);fill-rule:nonzero;"/>
                </g>
                <g transform="matrix(1,0,0,1,1457.94,779.922)">
                    <path d="M0,-7.369L-1.218,-10.846L-4.852,-12.775L-5.195,-12.817L-8.38,-13.126L-11.565,-12.741L-12.652,-11.92L-14.839,-10.681L-16.078,-7.72L-15.905,-3.642L-15.376,-1.595L-15.131,-0.635L-15.11,-0.563L-15.093,-0.529L-14.594,0.457L-14.424,0.782L-14.412,0.808L-14.171,1.277L-12.893,3.54L-10.571,5.198L-8.409,5.757L-8.363,5.752L-8.346,5.757L-8.27,5.757L-6.074,5.143L-3.642,3.426L-2.212,1.133L-1.76,-0.191L-1.671,-0.449L-1.667,-0.466L-1.574,0.262L-1.333,-0.631L-1.32,-0.656L-1.218,-1.718L-0.508,-3.393L0.072,-5.922L0,-7.369Z" style="fill:rgb(92,92,92);fill-rule:nonzero;"/>
                </g>
                <g transform="matrix(1,0,0,1,1445.91,897.499)">
                    <path d="M0,-4.767L-0.736,-4.873L-2.094,-4.661L-3.037,-4.42L-4.251,-4.145L-3.98,0.089L-3.913,0.106L-3.646,-0.017L-3.193,-0.22L-2.563,-0.562L-2.263,-0.723L-2.043,-0.846L-1.523,-1.104L-1.015,-1.357L-0.93,-1.404L-0.389,-1.366L0.296,-1.32L0.305,-1.303L0.372,-1.21L0.529,-0.986L0.385,-4.369L0,-4.767Z" style="fill:white;fill-rule:nonzero;"/>
                </g>
                <g transform="matrix(1,0,0,1,1457.42,900.147)">
                    <path d="M0,-4.213L-0.787,-4.276L-2.081,-4.408L-2.906,-4.408L-3.52,-4.276L-3.52,-1.497L-3.515,-0.076L-3.49,-0.114L-3.333,-0.237L-3.096,-0.419L-2.872,-0.596L-1.578,-0.596L-1.244,-0.44L-0.618,-0.156L-0.525,-0.114L-0.393,-0.064L0.305,0.195L0.385,0.127L0.588,-0.038L0.622,-0.605L0.639,-0.871L0.838,-4.369L0,-4.213Z" style="fill:white;fill-rule:nonzero;"/>
                </g>
                <g transform="matrix(1,0,0,1,1463.46,866.566)">
                    <path d="M0,-21.485L0.144,-21.548L0.672,-21.447L0.795,-23.05L0.089,-30.761L-0.017,-31.4L-0.025,-31.447L-0.038,-31.527L-0.647,-31.65L-0.998,-31.722L-1.908,-31.709L-4.475,-31.679L-4.953,-31.692L-8.253,-31.793L-8.836,-31.81L-12.153,-31.768L-13.21,-31.755L-14.272,-31.743L-17.588,-31.7L-18.168,-31.671L-21.467,-31.493L-21.941,-31.468L-24.513,-31.434L-25.418,-31.421L-25.769,-31.345L-26.374,-31.205L-26.387,-31.125L-26.391,-31.079L-26.484,-30.436L-26.763,-26.265L-26.793,-25.825L-26.818,-25.465L-26.877,-24.573L-26.911,-24.053L-26.932,-23.739L-27,-22.712L-27.047,-21.054L-27.127,-18.143L-27.131,-17.991L-27.135,-17.881L-27.135,-17.847L-27.533,-3.266L-27.448,9.081L-25.592,7.647L-23.595,6.763L-23.447,6.7L-23.422,6.687L-22.263,6.175L-22.068,6.086L-19.805,5.088L-19.699,5.037L-19.614,5.058L-18.235,5.367L-17.872,5.447L-17.703,5.486L-16.814,5.684L-16.59,5.735L-16.535,5.748L-15.604,5.955L-15.452,6.243L-15.253,6.632L-14.475,8.117L-14.539,-3.681L-13.24,-18.71L-13.155,-19.687L-13.096,-19.717L-13.067,-19.738L-13.054,-19.729L-12.664,-2.683L-12.847,9.487L-12.622,-2.695L-12.825,9.479L-10.465,8.764L-10.435,8.764L-8.845,8.793L-8.485,8.797L-7.876,8.81L-6.594,8.831L-6.256,8.836L-5.647,8.848L-4.467,9.216L-4.23,9.288L-3.824,9.42L-3.701,9.457L-2.458,9.842L-0.99,10.303L-0.402,10.325L-0.203,-2.45L0.474,-16.439L0.288,-16.371L-0.482,-16.113L-0.736,-16.62L-0.778,-16.849L0.385,-17.648L0.537,-17.754L0.571,-18.393L0.444,-18.435L-1.003,-18.9L-1.032,-19.154L-0.905,-19.653L0.33,-19.662L0.415,-20.351L0.457,-20.483L-0.194,-21.1L-0.275,-21.172L-0.228,-21.383L0,-21.485Z" style="fill:rgb(205,152,99);fill-rule:nonzero;"/>
                </g>
                <g transform="matrix(1,0,0,1,1468.89,820.737)">
                    <path d="M0,-17.698L-2.432,-24.699L-3.08,-25.164L-6.561,-27.706L-12.682,-31.416L-12.859,-31.522L-13.016,-31.619L-13.447,-31.877L-13.701,-31.932L-15.621,-32.351L-16.163,-32.347L-16.489,-32.342L-16.7,-32.338L-17.246,-32.334L-19.369,-32.431L-19.391,-32.431L-21.514,-32.283L-22.009,-32.275L-22.22,-32.27L-22.537,-32.266L-23.066,-32.262L-24.792,-31.801L-25.029,-31.737L-25.076,-31.708L-25.287,-31.573L-25.461,-31.463L-31.907,-27.397L-35.426,-24.771L-35.748,-24.293L-38.129,-17.237L-40.143,0.275L-40.291,1.658L-38.857,2.229L-38.303,2.449L-37.956,2.585L-37.563,2.741L-37.152,2.619L-36.01,2.28L-35.147,2.022L-34.766,1.908L-34.136,1.417L-33.764,1.13L-33.337,0.796L-33.176,0.673L-32.563,-0.486L-32.52,-7.986L-31.958,3.685L-32.706,13.604L-32.283,14.733L-32.051,14.678L-31.81,14.623L-31.205,14.484L-30.854,14.408L-29.948,14.395L-27.377,14.361L-26.903,14.336L-23.604,14.158L-23.024,14.129L-19.708,14.086L-18.646,14.073L-17.589,14.061L-14.272,14.019L-13.688,14.036L-10.389,14.137L-9.911,14.15L-7.343,14.12L-6.434,14.107L-6.083,14.179L-5.474,14.302L-5.233,14.353L-5,14.399L-4.606,13.257L-5.596,3.363L-5.601,3.253L-5.364,-2.669L-5.292,-1.853L-4.886,-2.572L-4.734,-2.838L-4.264,-2.868L-4.217,-2.868L-4.04,-2.88L-3.57,-2.91L-2.817,-2.957L-2.517,-2.974L-1.675,-2.8L-0.761,-2.61L-0.047,-2.462L1.053,-2.233L1.366,-2.17L2.458,-1.641L0,-17.698Z" style="fill:rgb(66,76,160);fill-rule:nonzero;"/>
                </g>
                <g transform="matrix(1,0,0,1,1457.43,779.761)">
                    <path d="M0,2.618L0.029,2.686L0.728,-0.068L0,2.618Z" style="fill:rgb(26,26,26);fill-rule:nonzero;"/>
                </g>
                <g transform="matrix(1,0,0,1,1452.99,876.053)">
                    <path d="M0,-0.723L-2.36,-0.008L-2.381,0L-0.029,-0.232L0.03,-0.723L0,-0.723Z" style="fill:rgb(26,26,26);fill-rule:nonzero;"/>
                </g>
                <g transform="matrix(0.851658,0.524097,0.524097,-0.851658,1455.86,789.09)">
                    <path d="M0.029,-0.016L0.212,-0.016L-0.068,0.125L-0.128,0.103L0.029,-0.016Z" style="fill:rgb(26,26,26);fill-rule:nonzero;"/>
                </g>
                <g transform="matrix(1,0,0,1,1470.26,820.513)">
                    <path d="M0,-1.946L-0.313,-2.009L-0.36,-0.398L-0.33,0.063L1.091,-1.417L0,-1.946Z" style="fill:rgb(26,26,26);fill-rule:nonzero;"/>
                </g>
                <g transform="matrix(1,0,0,1,1439.97,874.813)">
                    <path d="M0,-0.144L-0.102,-1.485L-2.098,-0.601L-3.955,0.833L0.245,1.341L0.19,0.567L0,-0.144Z" style="fill:rgb(26,26,26);fill-rule:nonzero;"/>
                </g>
                <g transform="matrix(1,0,0,1,1464.16,820.204)">
                    <path d="M0,-2.305L-0.152,-2.039L-0.558,-1.32L-0.097,-0.308L0.791,0.03L0.47,-2.335L0,-2.305Z" style="fill:rgb(26,26,26);fill-rule:nonzero;"/>
                </g>
                <g transform="matrix(1,0,0,1,1448.01,875.325)">
                    <path d="M0,-2.517L-0.152,-2.805L-1.083,-3.012L-1.092,-2.792L-0.635,-0.52L-0.432,0.495L0.021,0.47L0.977,-0.643L0.199,-2.128L0,-2.517Z" style="fill:rgb(26,26,26);fill-rule:nonzero;"/>
                </g>
                <g transform="matrix(1,0,0,1,1459.76,876.316)">
                    <path d="M0,-0.2L1.243,0.093L0,-0.293L0,-0.2Z" style="fill:rgb(26,26,26);fill-rule:nonzero;"/>
                </g>
                <g transform="matrix(1,0,0,1,1441.12,897.474)">
                    <path d="M0,-0.077L0.733,0.198L0.88,0.131L0.813,0.114L0.737,-0.014L0.737,-0.03L0.728,-0.275L0,-0.077Z" style="fill:rgb(48,48,48);fill-rule:nonzero;"/>
                </g>
                <g transform="matrix(1,0,0,1,1453.6,907.757)">
                    <path d="M0,-0.52L-0.896,-0.372L-0.431,-0.148L-0.152,-0.013L-0.127,0L5.292,0L4.047,-0.386L2.513,-0.52L0,-0.52Z" style="fill:rgb(48,48,48);fill-rule:nonzero;"/>
                </g>
                <g transform="matrix(1,0,0,1,1458.04,900.096)">
                    <path d="M0,-0.554L-0.033,0.013L-0.236,0.178L-0.317,0.245L-0.257,0.266L0.288,0.266L0.563,-0.554L0.018,-0.82L0,-0.554Z" style="fill:rgb(48,48,48);fill-rule:nonzero;"/>
                </g>
                <g transform="matrix(1,0,0,1,1459.23,907.756)">
                    <path d="M0,-0.943L-0.06,-0.367L-0.067,-0.3L-0.317,0L0.952,0L0.465,-0.367L0.33,-0.943L0,-0.943Z" style="fill:rgb(48,48,48);fill-rule:nonzero;"/>
                </g>
                <g transform="matrix(1,0,0,1,1445.19,907.871)">
                    <path d="M0,-4.653L-1.755,-4.26L-3.815,-2.91L-3.854,-2.885L-4.361,-2.885L-4.391,-2.999L-4.505,-3.435L-5.161,-3.054L-5.414,-2.335L-6.366,-1.413L-6.882,-1.113L-7.525,-0.448L-2.195,-0.089L-2.191,-0.089L-0.854,0L0.009,-0.677L0.009,-0.986L0,-1.388L0.131,-1.963L0.173,-2.58L0.757,-2.542L1.265,-2.542L1.303,-2.563L2.885,-3.892L2.373,-4.492L0,-4.653Z" style="fill:rgb(48,48,48);fill-rule:nonzero;"/>
                </g>
                <g transform="matrix(1,0,0,1,1455.2,787.692)">
                    <path d="M0,-0.389L-0.233,-0.55L-0.778,-0.935L-0.791,-0.935L-0.825,-0.968L-0.905,-1.028L-2.204,-1.472L-3.41,-1.886L-3.469,-1.908L-3.676,-1.92L-5.529,-2.013L-5.605,-2.013L-5.622,-2.018L-5.668,-2.013L-7.496,-1.874L-7.741,-1.857L-7.754,-1.853L-8.9,-1.396L-10.114,-0.913L-10.182,-0.854L-10.211,-0.816L-10.22,-0.82L-10.541,-0.537L-10.651,-0.44L-10.854,-0.258L-11.713,1.405L-11.548,1.362L-11.379,1.316L-11.336,1.307L-11.1,1.244L-9.374,0.783L-8.845,0.778L-8.528,0.774L-8.316,0.77L-7.821,0.762L-5.698,0.614L-5.677,0.614L-3.553,0.711L-3.008,0.707L-2.796,0.702L-2.471,0.698L-1.929,0.694L-0.009,1.113L0.245,1.168L0.605,1.244L0.668,1.257L0.833,1.523L1.011,1.629L0.038,-0.313L0,-0.389Z" style="fill:rgb(0,188,218);fill-rule:nonzero;"/>
                </g>
                <g transform="matrix(1,0,0,1,1459.87,905.787)">
                    <path d="M0,-0.002L0.576,0.545L0.661,0.349L0.389,-0.352L0.347,-0.547L0,-0.002Z" style="fill:rgb(0,188,218);fill-rule:nonzero;"/>
                </g>
                <g transform="matrix(1,0,0,1,1438.65,905.84)">
                    <path d="M0,-2.276L-1.092,-0.478L-1.024,0L-0.377,-0.465L0.748,-1.667L-0.017,-1.713L0,-2.276Z" style="fill:rgb(0,188,218);fill-rule:nonzero;"/>
                </g>
                <g transform="matrix(1,0,0,1,1459.62,902.942)">
                    <path d="M0,-0.558L-1.015,-3.401L-1.29,-2.58L-1.819,-2.576L-2.623,-1.362L-3.625,0.208L-5.66,0.242L-5.952,-1.315L-5.935,-2.576L-6.912,2.331L-6.015,2.183L-3.502,2.183L-1.967,2.314L-0.723,1.917L0.249,2.843L0.596,2.297L0,-0.558Z" style="fill:rgb(235,235,235);fill-rule:nonzero;"/>
                </g>
                <g transform="matrix(1,0,0,1,1447.03,901.924)">
                    <path d="M0,-2.395L-1.925,-2.556L-3.189,-3.812L-4.314,-4.645L-4.767,-4.442L-5.034,-4.32L-5.182,-4.252L-5.914,-4.527L-7.457,-1.058L-8.379,1.64L-8.396,2.203L-7.631,2.25L-5.719,0.215L-3.642,-0.373L-1.886,-0.766L0.486,-0.606L0.998,-0.005L-0.055,-3.541L0,-2.395Z" style="fill:rgb(235,235,235);fill-rule:nonzero;"/>
                </g>
                <g transform="matrix(1,0,0,1,1460.44,906.284)">
                    <path d="M0,0.047L-0.575,-0.499L-1.548,-1.425L-2.792,-1.027L-4.327,-1.159L-6.84,-1.159L-7.737,-1.01L-7.737,1.1L-6.84,0.952L-4.327,0.952L-2.792,1.088L-1.548,1.472L-1.527,1.472L-1.277,1.172L-1.269,1.105L-1.21,0.529L-0.88,0.529L-0.745,1.105L-0.258,1.472L0.084,1.472L0.084,-0.148L0,0.047Z" style="fill:rgb(64,205,227);fill-rule:nonzero;"/>
                </g>
                <g transform="matrix(1,0,0,1,1453.17,907.609)">
                    <path d="M0,0.148L0.261,0.148L0.279,0.135L0,0L0,0.148Z" style="fill:rgb(64,205,227);fill-rule:nonzero;"/>
                </g>
                <g transform="matrix(1,0,0,1,1447.52,907.262)">
                    <path d="M0,-5.943L-2.373,-6.104L-4.128,-5.71L-6.205,-5.123L-8.117,-3.088L-9.243,-1.886L-9.89,-1.421L-9.957,-1.899L-9.911,0.156L-9.852,0.161L-9.209,-0.503L-8.693,-0.804L-7.741,-1.726L-7.487,-2.445L-6.831,-2.826L-6.717,-2.39L-6.688,-2.276L-6.18,-2.276L-6.142,-2.301L-4.082,-3.65L-2.326,-4.044L0.047,-3.883L0.558,-3.282L0.512,-5.343L0,-5.943Z" style="fill:rgb(64,205,227);fill-rule:nonzero;"/>
                </g>
                <g transform="matrix(1,0,0,1,1445.11,896.256)">
                    <path d="M0,3.113L1.925,3.274L1.87,2.127L1.561,0.587L1.333,0.258L1.176,0.033L1.108,-0.059L1.1,-0.077L0.415,-0.123L-0.127,-0.161L-0.211,-0.114L-0.719,0.139L-1.239,0.397L-1.459,0.52L-1.76,0.681L-2.39,1.023L-1.265,1.857L0,3.113Z" style="fill:rgb(64,205,227);fill-rule:nonzero;"/>
                </g>
                <g transform="matrix(1,0,0,1,1455.99,899.584)">
                    <path d="M0,3.566L1.003,1.996L1.806,0.783L1.789,0.778L1.73,0.757L1.032,0.499L0.901,0.448L0.808,0.406L0.182,0.123L-0.152,-0.034L-1.447,-0.034L-1.671,0.144L-1.908,0.326L-2.064,0.448L-2.09,0.486L-2.31,0.783L-2.327,2.043L-2.035,3.6L0,3.566Z" style="fill:rgb(64,205,227);fill-rule:nonzero;"/>
                </g>
                <g transform="matrix(1,0,0,1,1454.3,778.771)">
                    <path d="M0,7.893L0.08,7.952L0.114,7.986L0.127,7.986L0.672,8.371L0.905,8.532L0.943,8.608L0.964,6.506L1.447,5.566L1.992,5.698L2.343,5.694L3.134,3.608L3.862,0.922L3.819,0.38L3.786,-0.466L3.515,-0.715L3.164,-0.711L2.665,-0.165L2.326,0.495L2.314,0.52L2.073,1.413L1.979,0.685L1.975,0.702L1.886,0.96L1.434,2.284L0.004,4.577L-2.428,6.294L-4.624,6.908L-2.771,7L-2.563,7.013L-2.504,7.034L-1.299,7.449L0,7.893Z" style="fill:rgb(120,71,34);fill-rule:nonzero;"/>
                </g>
                <g transform="matrix(1,0,0,1,1445.05,782.032)">
                    <path d="M0,1.43L-1.277,-0.833L-1.519,-1.303L-1.519,-0.588L-1.531,-1.328L-1.7,-1.654L-2.2,-2.639L-2.217,-2.673L-2.238,-2.745L-2.483,-3.705L-2.58,-3.79L-2.931,-3.786L-3.333,-3.528L-3.477,-2.191L-2.703,0.529L-2.673,0.597L-1.59,2.589L-1.244,2.585L-0.63,2.449L-0.554,2.826L-0.499,5.22L-0.389,5.123L-0.068,4.839L-0.059,4.843L-0.03,4.805L0.038,4.746L1.252,4.264L2.398,3.807L2.411,3.803L2.656,3.786L4.484,3.647L2.322,3.088L0,1.43Z" style="fill:rgb(120,71,34);fill-rule:nonzero;"/>
                </g>
                <g transform="matrix(1,0,0,1,1447.37,890.152)">
                    <path d="M0,-15.347L-0.457,-17.619L-0.503,-17.851L-0.728,-17.902L-1.616,-18.101L-1.785,-18.139L-2.149,-18.219L-3.528,-18.528L-3.612,-18.549L-3.718,-18.498L-5.981,-17.5L-6.176,-17.411L-7.335,-16.899L-7.356,-16.87L-7.36,-16.887L-7.508,-16.823L-7.407,-15.483L-7.216,-14.772L-7.161,-13.998L-6.98,-11.227L-5.71,3.202L-4.496,2.927L-3.553,2.685L-2.195,2.474L-1.459,2.58L-1.074,2.977L0.706,-11.828L0.203,-14.332L0,-15.347Z" style="fill:rgb(120,71,34);fill-rule:nonzero;"/>
                </g>
                <g transform="matrix(1,0,0,1,1459.23,895.409)">
                    <path d="M0,-19.555L-0.237,-19.627L-1.417,-19.995L-2.026,-20.008L-2.364,-20.012L-3.646,-20.033L-4.255,-20.046L-4.615,-20.05L-6.205,-20.08L-6.264,-19.589L-6.865,-14.517L-5.33,0.461L-4.716,0.33L-3.891,0.33L-2.597,0.461L-1.81,0.525L-0.973,0.368L0.377,-14.128L0.529,-19.293L0.529,-19.386L0.406,-19.424L0,-19.555Z" style="fill:rgb(120,71,34);fill-rule:nonzero;"/>
                </g>
                <g transform="matrix(1,0,0,1,1467.13,823.778)">
                    <path d="M0,22.208L0.008,22.2L0.051,22.14L0.19,22.255L0,22.208ZM2.8,-3.201L2.771,-3.662L2.817,-5.274L1.717,-5.503L1.003,-5.651L0.089,-5.841L-0.753,-6.015L-1.053,-5.998L-1.806,-5.951L-2.276,-5.921L-2.453,-5.909L-2.5,-5.909L-2.178,-3.544L-2.081,-2.817L-1.954,1.325L-0.262,14.091L-1.18,16.489L-1.261,17.53L-2.475,19.937L-2.919,21.358L-2.953,21.35L-2.999,21.341L-3.528,21.24L-3.672,21.303L-3.9,21.405L-3.947,21.616L-3.866,21.688L-3.215,22.305L-3.257,22.437L-3.342,23.126L-4.577,23.135L-4.704,23.634L-4.674,23.887L-3.227,24.353L-3.101,24.395L-2.995,24.429L-2.728,24.374L-2.652,24.357L-2.635,24.353L-2.436,24.315L-2.826,24.822L-3.135,25.034L-3.287,25.14L-4.45,25.939L-4.408,26.167L-4.154,26.675L-3.384,26.417L-3.198,26.349L-2.318,26.053L-1.836,25.58L-2.086,26.15L-2.923,27.859L-2.953,28.037L-2.403,28.223L-1.354,26.992L-0.512,25.385L0.444,22.961L0.359,22.855L0.469,22.703L0.795,21.578L0.914,21.35L0.994,20.897L2.314,15.381L3.033,0.445L2.8,-3.201Z" style="fill:rgb(120,71,34);fill-rule:nonzero;"/>
                </g>
                <g transform="matrix(1,0,0,1,1436.02,843.106)">
                    <path d="M0,-15.994L-0.478,-19.995L-0.461,-21.573L-0.888,-21.239L-1.26,-20.952L-1.891,-20.461L-2.271,-20.347L-3.134,-20.089L-4.276,-19.75L-4.687,-19.628L-5.08,-19.784L-5.427,-19.919L-5.981,-20.139L-5.808,-19.217L-5.495,-15.169L-2.589,-1.565L-0.478,4.407L0.038,5.101L0.089,5.173L0.305,5.579L0.309,5.469L0.224,5.351L0.313,5.317L0.393,2.406L0.44,0.748L0.508,-0.279L0.529,-0.593L0.563,-1.113L0.622,-2.005L0.647,-2.365L0.677,-2.805L0.258,-3.283L0,-15.994Z" style="fill:rgb(120,71,34);fill-rule:nonzero;"/>
                </g>
            </g>
        </g>
    </g>
</svg>
