<?xml version="1.0" encoding="UTF-8" standalone="no"?>
<!DOCTYPE svg PUBLIC "-//W3C//DTD SVG 1.1//EN" "http://www.w3.org/Graphics/SVG/1.1/DTD/svg11.dtd">
<svg width="100%" height="100%" viewBox="0 0 140 220" version="1.1" xmlns="http://www.w3.org/2000/svg" xmlns:xlink="http://www.w3.org/1999/xlink" xml:space="preserve" xmlns:serif="http://www.serif.com/" style="fill-rule:evenodd;clip-rule:evenodd;stroke-linejoin:round;stroke-miterlimit:2;">
    <g transform="matrix(1,0,0,1,-562.103,-688.984)">
        <g id="people-09">
            <g>
                <g transform="matrix(1,0,0,1,614.395,800.149)">
                    <path d="M0,-11.143L2.052,-10.282L4.205,-8.567L3.775,-7.011L4.639,-8.192L4.949,-8.614L5.488,-10.602L4.949,-8.614L4.639,-8.192L5.503,-4.699L5.21,2.453L2.88,8.771L1.699,15.294L0.296,18.299L1.117,19.034L1.829,19.416L6.165,20.088L11.914,19.06L17.706,18.967L23.501,19.06L29.25,20.088L33.586,19.416L34.298,19.034L35.12,18.299L33.717,15.294L32.536,8.771L30.206,2.453L29.913,-4.699L30.773,-8.192L30.467,-8.614L29.927,-10.602L30.467,-8.614L30.773,-8.192L31.64,-7.011L31.207,-8.567L33.364,-10.282L35.416,-11.143L38.676,-11.246L39.67,-10.537L38.511,-16.674L36.332,-21.416L33.815,-24.509L23.709,-29.569L23.23,-29.809L22.729,-30.059L22.246,-30.182L21.964,-30.254L21.097,-30.156L18.915,-30.821L17.822,-31.231L17.706,-31.222L17.516,-31.163L16.864,-30.781L16.508,-30.914L16.215,-29.984L16.183,-29.881L16.063,-29.408L15.559,-27.394L15.302,-26.372L14.928,-24.516L14.72,-24.464L14.537,-24.587L13.952,-26.25L13.797,-26.735L13.476,-27.739L13.381,-28.035L12.997,-28.793L12.648,-29.48L12.584,-29.976L12.581,-30.008L1.6,-24.509L-0.92,-21.416L-3.095,-16.674L-4.255,-10.537L-3.261,-11.246L0,-11.143Z" style="fill:rgb(0,188,218);fill-rule:nonzero;"/>
                </g>
                <g transform="matrix(1,0,0,1,631.009,759.455)">
                    <path d="M0,1.326L0.074,1.283L-0.261,0L0,1.326Z" style="fill:rgb(120,71,34);fill-rule:nonzero;"/>
                </g>
                <g transform="matrix(1,0,0,1,652.187,831.561)">
                    <path d="M0,0.022L-0.402,0.426L-1.177,1.205L-1.11,2.315L1.801,-2.017L1.755,-2.293L0.296,-0.276L0,0.022Z" style="fill:rgb(120,71,34);fill-rule:nonzero;"/>
                </g>
                <g transform="matrix(1,0,0,1,656.858,818.556)">
                    <path d="M0,-14.825L-0.092,-16.558L-2.792,-28.944L-3.786,-29.653L-7.046,-29.549L-9.098,-28.688L-11.255,-26.973L-10.822,-25.418L-6.743,-15.428L-6.437,-4.65L-6.119,-8.076L-6.437,-4.65L-7.205,3.612L-7.247,4.076L-7.205,3.612L-7.617,3.498L-8.305,3.309L-9.997,2.789L-10.043,4.472L-9.151,6.976L-7.424,8.887L-4.727,10.19L-4.695,10.206L-4.255,10.419L-4.695,10.206L-5.502,11.404L-5.978,12.106L-6.613,13.046L-6.856,14.047L-6.465,14.828L-6.095,14.459L-5.848,14.211L-5.073,13.431L-4.671,13.028L-4.375,12.73L-2.915,10.712L-2.824,10.585L-1.861,9.254L-2.482,6.403L-0.215,-6.706L0,-14.825Z" style="fill:rgb(120,71,34);fill-rule:nonzero;"/>
                </g>
                <g transform="matrix(1,0,0,1,650.879,827.443)">
                    <path d="M0,3.219L0.476,2.517L1.283,1.319L1.251,1.303L-1.445,0L-0.042,2.506L0,3.219Z" style="fill:rgb(120,71,34);fill-rule:nonzero;"/>
                </g>
                <g transform="matrix(1,0,0,1,612.421,831.157)">
                    <path d="M0,0.83L-0.402,0.426L-0.698,0.128L-2.157,-1.889L-2.207,-1.613L0.709,2.719L0.776,1.609L0,0.83Z" style="fill:rgb(120,71,34);fill-rule:nonzero;"/>
                </g>
                <g transform="matrix(1,0,0,1,612.041,829.343)">
                    <path d="M0,-0.581L0.811,0.617L1.283,1.319L1.329,0.606L2.732,-1.9L0.035,-0.597L0,-0.581Z" style="fill:rgb(120,71,34);fill-rule:nonzero;"/>
                </g>
                <g transform="matrix(1,0,0,1,612.421,790.3)">
                    <path d="M0,41.687L0.776,42.466L1.022,42.715L1.389,43.084L1.784,42.302L1.54,41.301L0.902,40.361L0.43,39.66L-0.381,38.462L-0.821,38.674L-0.381,38.462L-0.345,38.445L2.351,37.143L4.078,35.231L4.97,32.728L4.924,31.044L3.232,31.564L2.545,31.754L2.133,31.868L2.175,32.331L2.133,31.868L1.364,23.606L1.047,20.179L1.364,23.606L1.671,12.828L5.749,2.838L6.179,1.282L4.026,-0.433L1.974,-1.294L-1.287,-1.397L-2.281,-0.688L-4.981,11.698L-5.073,13.431L-4.857,21.549L-2.591,34.658L-3.211,37.51L-2.397,38.564L-0.698,40.985L-0.402,41.283L0,41.687Z" style="fill:rgb(120,71,34);fill-rule:nonzero;"/>
                </g>
                <g transform="matrix(1,0,0,1,613.905,903.569)">
                    <path d="M0,-3.962L-2.587,-3.433L-2.633,-3.977L-4.008,0.015L-2.76,-0.864L-0.148,-1.61L2.855,-1.436L4.297,-0.218L4.043,-3.601L2.792,-3.858L0,-3.962Z" style="fill:rgb(120,71,34);fill-rule:nonzero;"/>
                </g>
                <g transform="matrix(1,0,0,1,645.197,903.353)">
                    <path d="M0,-4.13L-2.795,-4.151L-4.054,-3.949L-4.459,-0.58L-2.964,-1.733L0.042,-1.774L2.619,-0.913L3.828,0.021L2.63,-4.028L2.563,-3.487L0,-4.13Z" style="fill:rgb(120,71,34);fill-rule:nonzero;"/>
                </g>
                <g transform="matrix(1,0,0,1,639.846,759.159)">
                    <path d="M0,-1.61L-0.511,0.409L0,-1.61ZM-0.494,1.944L-0.331,1.835L-0.144,1.712L-0.134,1.164L-0.13,0.984L-0.12,0.36L-0.035,0.001L0.137,-0.725L0.338,-1.58L0.349,-1.626L0.395,-1.823L0.635,-2.893L0.645,-2.943L0.652,-2.975L0.758,-3.396L0.589,-3.475L0.419,-3.554L0.247,-3.091L-0.36,-2.074L-0.472,-1.737L-0.543,-1.527L-0.627,-1.277L-1.128,0.176L-0.955,1.619L-0.494,1.944Z" style="fill:rgb(120,71,34);fill-rule:nonzero;"/>
                </g>
                <g transform="matrix(1,0,0,1,638.376,766.587)">
                    <path d="M0,-0.383L-0.043,0.321L0.719,-0.704L0,-0.383Z" style="fill:rgb(120,71,34);fill-rule:nonzero;"/>
                </g>
                <g transform="matrix(1,0,0,1,640.583,767.921)">
                    <path d="M0,-9.952L-0.138,-10.829L0.134,-11.762L0.021,-12.159L-0.085,-11.737L-0.092,-11.706L-0.102,-11.655L-0.342,-10.585L-0.388,-10.388L-0.398,-10.342L-0.599,-9.487L-0.772,-8.762L-0.857,-8.402L-0.867,-7.779L-0.768,-7.958L-0.867,-7.779L-0.871,-7.599L-0.881,-7.051L-1.068,-6.927L-1.23,-6.818L-1.692,-7.144L-1.865,-8.587L-2.891,-4.383L-5.446,-2.431L-9.098,-2.27L-9.154,-2.274L-9.154,-1.38L-9.665,1.266L-9.68,1.314L-9.324,1.447L-8.672,1.065L-8.481,1.006L-8.365,0.997L-7.272,1.407L-5.09,2.072L-4.223,1.974L-3.941,2.046L-3.458,2.169L-2.478,2.659L-2.249,-1.014L-2.207,-1.717L-2.207,-1.728L-2.108,-3.348L-2.207,-1.728L-1.488,-2.038L-0.067,-5.678L0.737,-9.075L0.726,-11.293L0.659,-12.611L0.046,-10.928L0,-9.952Z" style="fill:rgb(120,71,34);fill-rule:nonzero;"/>
                </g>
                <g transform="matrix(1,0,0,1,625.799,759.231)">
                    <path d="M0,0.336L0.032,0.152L-0.12,0L0,0.336Z" style="fill:rgb(120,71,34);fill-rule:nonzero;"/>
                </g>
                <g transform="matrix(1,0,0,1,625.964,760.49)">
                    <path d="M0,-0.971L-0.166,-0.922L-0.286,-1.259L-0.536,-1.508L-0.402,-0.971L0.458,0.381L0.744,0.537L0.737,0.439L0.138,-0.832L0,-0.971Z" style="fill:rgb(120,71,34);fill-rule:nonzero;"/>
                </g>
                <g transform="matrix(1,0,0,1,650.763,886.238)">
                    <path d="M0,-53.223L-0.37,-52.854L-0.761,-53.635L-0.518,-54.636L0.116,-55.576L0.074,-56.289L-1.329,-58.795L-3.056,-60.707L-3.948,-63.21L-3.902,-64.893L-2.21,-64.374L-1.523,-64.184L-2.069,-67.054L-2.781,-66.673L-7.117,-66L-12.866,-67.028L-18.661,-67.121L-24.453,-67.028L-30.202,-66L-34.538,-66.673L-35.25,-67.054L-35.796,-64.184L-35.109,-64.374L-33.417,-64.893L-33.371,-63.21L-34.263,-60.707L-35.99,-58.795L-37.393,-56.289L-37.439,-55.576L-36.801,-54.636L-36.558,-53.635L-36.953,-52.854L-37.319,-53.223L-37.566,-53.472L-37.633,-52.362L-36.152,-31.705L-36.417,-24.861L-37.562,-20.365L-39.667,-10.095L-40.002,7.156L-39.491,13.354L-39.445,13.898L-36.857,13.369L-34.066,13.473L-32.814,13.73L-31.873,9.066L-31.387,6.272L-31.468,5.19L-28.708,-6.85L-26.469,-18.806L-25.658,-21.433L-24.897,-23.996L-24.217,-26.061L-18.661,-50.287L-18.661,-51.109L-18.661,-50.287L-13.663,-27.288L-13.198,-25.164L-12.697,-22.538L-12.154,-19.843L-11.139,-7.722L-10.589,4.575L-10.716,5.652L-10.353,8.465L-9.62,13.166L-8.361,12.964L-5.566,12.985L-3.003,13.627L-2.936,13.087L-2.147,6.917L0.095,-9.842L-0.962,-20.272L-2.101,-27.609L-1.646,-24.861L-1.22,-31.697L0.314,-52.362L0.247,-53.472L0,-53.223Z" style="fill:rgb(68,114,37);fill-rule:nonzero;"/>
                </g>
                <g transform="matrix(1,0,0,1,613.757,908.555)">
                    <path d="M0,-6.596L-2.612,-5.851L-3.86,-4.971L-5.316,-2.695L-4.871,-0.376L-4.068,-0.224L3.603,0L3.391,-1.984L3.254,-1.609L2.778,-0.307L2.668,-0.309L-2.475,-0.376L-2.489,-0.553L-2.556,-1.497L-2.735,-4.03L-2.556,-1.497L-2.489,-0.553L-2.475,-0.376L2.668,-0.309L2.778,-0.307L3.254,-1.609L3.391,-1.984L3.888,-3.351L4.445,-5.204L3.003,-6.423L0,-6.596Z" style="fill:rgb(63,38,19);fill-rule:nonzero;"/>
                </g>
                <g transform="matrix(1,0,0,1,645.239,908.125)">
                    <path d="M0,-6.546L-3.007,-6.506L-4.501,-5.353L-4.029,-3.477L-3.589,-2.089L-3.469,-1.707L-3.053,-0.386L-2.943,-0.383L2.2,-0.223L2.217,-0.398L2.327,-1.339L2.619,-3.861L2.327,-1.339L2.217,-0.398L2.2,-0.223L-2.943,-0.383L-3.053,-0.386L-3.469,-1.707L-3.589,-2.089L-3.892,-0.116L3.782,0L4.593,-0.116L5.139,-2.413L3.786,-4.751L2.577,-5.686L0,-6.546Z" style="fill:rgb(63,38,19);fill-rule:nonzero;"/>
                </g>
                <g transform="matrix(-0.325364,0.945589,0.945589,0.325364,639.38,755.796)">
                    <path d="M1.086,0.519L1.185,0.519L0.025,0.763L-0.469,0.775L1.086,0.519Z" style="fill:rgb(63,38,19);fill-rule:nonzero;"/>
                </g>
                <g transform="matrix(1,0,0,1,631.428,765.618)">
                    <path d="M0,-0.801L0,0.03L0.057,0.033L0.269,-0.287L0,-0.801Z" style="fill:rgb(63,38,19);fill-rule:nonzero;"/>
                </g>
                <g transform="matrix(1,0,0,1,630.216,750.456)">
                    <path d="M0,18.884L0.014,18.786L0.014,18.781L0.391,16.124L0.398,16.089L0.405,15.975L0.536,14.376L0.631,13.242L0.536,14.376L0.405,15.975L0.398,16.089L0.391,16.124L0.014,18.781L0.014,18.786L-0.06,20.115L0,18.884ZM-3.172,20.213L-2.823,20.9L-2.439,21.659L-2.344,21.955L-2.023,22.959L-1.868,23.444L-1.283,25.106L-1.072,25.058L-0.892,25.178L-0.518,23.321L-0.261,22.3L0.243,20.286L0.363,19.812L0.395,19.71L0.687,18.78L0.702,18.731L1.213,16.086L1.213,13.492L1.075,12.545L0.945,12.239L0.606,11.363L1.075,12.545L1.089,11.932L1.096,11.585L0.867,10.282L0.793,10.325L0.532,8.999L0.867,10.282L1.096,11.585L1.089,11.932L1.075,12.545L1.213,13.492L1.213,14.361L1.481,14.874L1.269,15.195L4.921,15.034L7.477,13.083L8.502,8.879L9.003,7.426L9.087,7.176L9.158,6.966L9.271,6.629L9.303,6.537L9.359,6.367L9.821,5.011L9.359,6.367L9.303,6.537L10.05,5.149L10.219,5.228L10.388,5.306L10.501,5.703L10.23,6.637L10.413,6.538L11.026,4.855L11.252,4.232L12.017,2.668L11.869,1.955L11.121,-0.73L9.197,-3.638L5.83,-6.187L5.231,-6.294L0.631,-6.294L-2.02,-4.44L-3.74,-2.476L-4.272,-1.502L-5.146,1.594L-5.287,2.06L-5.467,4.749L-5.573,6.882L-5.005,8.306L-4.896,8.415L-4.787,8.526L-4.537,8.775L-4.385,8.928L-4.251,9.063L-4.114,9.201L-3.514,10.473L-3.472,10.564L-3.465,10.577L-3.289,10.958L-2.802,11.862L-2.668,11.599L-2.46,11.201L-1.949,10.208L-1.773,9.862L-1.77,9.859L-1.727,9.764L-1.519,9.296L-1.389,9.006L-1.519,9.296L-1.727,9.764L-1.77,9.859L-0.832,8.752L-1.77,9.859L-1.773,9.862L-1.949,10.208L-2.46,11.201L-2.668,11.599L-2.802,11.862L-3.521,13.257L-2.774,11.955L-1.424,9.716L-2.774,11.955L-3.521,13.257L-3.691,16.081L-3.239,19.686L-3.236,19.718L-3.172,20.213Z" style="fill:rgb(63,38,19);fill-rule:nonzero;"/>
                </g>
                <g transform="matrix(1,0,0,1,640.444,757.869)">
                    <path d="M0,-0.776L0.138,0.1L0.184,-0.876L0,-0.776Z" style="fill:rgb(63,38,19);fill-rule:nonzero;"/>
                </g>
            </g>
        </g>
    </g>
</svg>
