<?xml version="1.0" encoding="UTF-8" standalone="no"?>
<!DOCTYPE svg PUBLIC "-//W3C//DTD SVG 1.1//EN" "http://www.w3.org/Graphics/SVG/1.1/DTD/svg11.dtd">
<svg width="100%" height="100%" viewBox="0 0 140 220" version="1.1" xmlns="http://www.w3.org/2000/svg" xmlns:xlink="http://www.w3.org/1999/xlink" xml:space="preserve" xmlns:serif="http://www.serif.com/" style="fill-rule:evenodd;clip-rule:evenodd;stroke-linejoin:round;stroke-miterlimit:2;">
    <g id="people-28" transform="matrix(1.27,0,0,1.27,-1365.16,-84.5483)">
        <g transform="matrix(0.787402,0,0,0.787402,1118.26,211.168)">
            <path d="M0,-45.564L-1.874,-45.284L-4.275,-45.202L-5.004,-45.178L-5.89,-45.147L-12.116,-44.936L-12.385,-44.942L-12.661,-44.949L-19.094,-45.109L-19.738,-45.125L-20.341,-45.14L-22.721,-45.199L-25.024,-45.377L-25.163,-45.463L-25.352,-45.403L-26.307,-45.477L-29.563,-45.728L-29.805,-45.727L-30.051,-46.203L-30.165,-45.724L-30.174,-45.724L-30.683,-40.83L-30.656,-18.717L-31.062,-5.527L-30.077,-5.811L-29.875,-5.869L-28.478,-6.272L-28.327,-6.315L-27.959,-6.421L-25.607,-7.098L-22.028,-8.128L-21.523,-7.95L-18.756,-6.976L-18.227,-6.789L-17.918,-6.68L-17.062,-6.378L-15.866,-5.957L-15.579,-5.856L-15.09,-3.589L-14.873,-16.719L-14.343,-25.309L-15.024,-19.08L-14.343,-25.309L-13.285,-34.979L-13.251,-35.287L-13.08,-36.852L-13.251,-35.287L-13.285,-34.979L-11.447,-18.273L-11.567,-7.268L-10.991,-2.417L-10.891,-1.581L-9.581,-1.214L-8.981,-1.046L-6.307,-0.297L-4.299,0.265L-2.963,0.639L-2.444,0.28L-0.5,-1.065L0.51,-1.764L1.911,-2.733L4.802,-4.733L5.082,-17.596L4.213,-39.927L3.909,-46.147L1.56,-45.797L0,-45.564Z" style="fill:rgb(66,76,160);fill-rule:nonzero;"/>
        </g>
        <g transform="matrix(0.787402,0,0,0.787402,1156.76,222.797)">
            <path d="M0,12.245L0.122,11.755L-0.927,-0.006L-0.051,12.251L-0.012,12.127L0,12.245Z" style="fill:rgb(148,48,41);fill-rule:nonzero;"/>
        </g>
        <g transform="matrix(0.787402,0,0,0.787402,1161.15,231.502)">
            <path d="M0,-44.557L-1.2,-44.08L-1.283,-44.047L-2.316,-43.637L-4.897,-43.547L-6.889,-43.477L-9.413,-43.389L-9.892,-43.372L-10.112,-43.365L-10.116,-43.365L-10.332,-43.357L-10.811,-43.34L-13.331,-43.252L-15.175,-43.188L-17.911,-43.092L-18.907,-43.41L-19.02,-43.446L-20.279,-43.849L-21.573,-44.262L-22.071,-44.421L-22.103,-43.693L-20.941,-26.202L-21.204,-20.61L-19.658,-1.666L-18.084,-1.027L-17.375,-0.74L-16.908,-0.55L-16.619,-0.614L-16.553,-0.628L-16.077,-0.734L-15.304,-0.904L-14.861,-1.276L-14.616,-1.056L-14.173,-1.154L-13.998,-1.192L-13.062,-1.4L-13.03,-1.406L-11.38,-18.133L-11.13,-20.672L-10.212,-26.499L-10.047,-41.389L-10.045,-41.574L-10.025,-41.46L-10.014,-41.398L-9.932,-40.946L-7.756,-28.909L-9.932,-40.946L-8.533,-27.528L-7.437,-21.424L-6.513,-11.061L-5.464,0.699L-5.303,0.552L-4.956,0.231L-4.4,-0.282L-4.06,-0.386L-3.964,-0.416L-2.778,-0.781L-2.733,-0.795L-2.47,-0.876L-1.358,-1.219L-1.288,-1.24L-0.112,-1.603L0.334,-1.351L0.455,-1.283L1.87,-0.485L3.202,-21.481L2.744,-28.291L1.845,-44.529L1.76,-45.256L1.27,-45.061L0,-44.557Z" style="fill:rgb(148,48,41);fill-rule:nonzero;"/>
        </g>
        <g transform="matrix(0.787402,0,0,0.787402,1150.96,217.468)">
            <path d="M0,16.106L0.026,16.015L0.387,14.735L0.419,14.313L1.562,-0.31L-0.088,16.416L0,16.106Z" style="fill:rgb(148,48,41);fill-rule:nonzero;"/>
        </g>
        <g transform="matrix(0.787402,0,0,0.787402,1106.48,131.933)">
            <path d="M0,2.496L-1.292,0.931L-1.573,0.133L-2.021,-1.139L-2.128,-1.442L-2.343,-2.053L-2.596,-2.771L-3.485,-0.816L-2.02,0.441L2.287,5.267L1.58,4.41L0,2.496Z" style="fill:rgb(0,188,218);fill-rule:nonzero;"/>
        </g>
        <g transform="matrix(0.787402,0,0,0.787402,1101.63,170.878)">
            <path d="M0,-50.952L-0.361,-51.739L-0.489,-52.346L-0.361,-51.739L0,-50.952L0.256,-50.395L0,-50.952ZM28.117,-24.962L29.737,-25.216L30.14,-25.279L30.711,-25.369L30.839,-25.389L32.493,-25.604L33.029,-25.674L33.212,-25.697L34.199,-25.78L35.114,-25.857L35.492,-27.632L32.864,-37.863L29.554,-46.839L24.91,-51.096L16.228,-54.423L16.044,-54.111L16.154,-53.896L16.295,-53.619L16.351,-52.836L16.295,-53.619L16.154,-53.896L16.044,-54.111L15.965,-53.977L15.667,-53.788L15.347,-53.584L14.833,-53.257L14.678,-53.159L13.984,-53.267L13.389,-52.236L13.322,-52.119L14.09,-50.056L15.039,-47.504L15.078,-47.615L15.79,-49.64L15.95,-50.093L16.445,-51.503L16.41,-52.002L16.445,-51.503L15.95,-50.093L15.79,-49.64L15.078,-47.615L15.039,-47.504L14.09,-50.056L12.441,-48.902L8.444,-44.193L4.136,-49.019L2.671,-50.276L1.497,-47.693L1.362,-47.988L0.419,-50.039L1.362,-47.988L1.497,-47.693L2.671,-50.276L3.56,-52.231L3.156,-52.755L2.209,-53.983L1.999,-54.256L1.586,-54.791L1.469,-55.211L1.421,-55.383L1.392,-55.487L1.165,-56.3L0.919,-57.184L-0.334,-55.043L-0.359,-54.98L-0.689,-54.155L-0.717,-54.084L-0.807,-53.859L-0.602,-52.885L-0.807,-53.859L-0.717,-54.084L-0.689,-54.155L-0.359,-54.98L-9.835,-51.118L-14.464,-47.751L-18.019,-37.992L-22.159,-28.568L-22.031,-26.465L-20.73,-24.539L-20.925,-25.714L-21.007,-26.209L-20.205,-26.625L-19.615,-26.93L-19.543,-26.967L-18.712,-27.397L-17.605,-27.188L-17.355,-27.14L-15.318,-26.755L-15.043,-26.702L-14.899,-26.675L-14.171,-26.538L-13.672,-26.049L-13.191,-25.577L-12.75,-25.145L-12.351,-24.753L-12.447,-24.171L-12.569,-23.434L-11.526,-24.802L-10.718,-26.461L-10.642,-26.618L-10.569,-26.766L-9.777,-28.395L-10.569,-26.766L-10.642,-26.618L-10.042,-13.379L-9.846,4.106L-9.328,5.446L-9.059,5.444L-9.05,5.444L-8.936,4.965L-8.689,5.442L-8.448,5.44L-5.192,5.692L-4.237,5.766L-4.048,5.705L-3.909,5.791L-1.606,5.969L0.774,6.028L1.378,6.043L2.021,6.059L8.454,6.219L8.73,6.226L8.999,6.232L15.225,6.021L16.111,5.99L16.84,5.966L19.241,5.884L21.115,5.604L22.675,5.371L25.024,5.021L25.167,5L25.69,3.625L25.935,2.931L23.654,-14.246L25.105,-27.414L24.482,-29.286L25.105,-27.414L25.502,-26.215L27.201,-24.809L27.493,-24.865L27.803,-24.913L28.001,-24.944L28.091,-24.958L28.117,-24.962Z" style="fill:rgb(0,188,218);fill-rule:nonzero;"/>
        </g>
        <g transform="matrix(0.787402,0,0,0.787402,1111.92,132.186)">
            <path d="M0,-2.272L-0.444,-1.057L-0.84,0.026L-1.09,0.709L-0.621,0.236L1.027,-0.917L0.259,-2.981L0.04,-2.381L0,-2.272Z" style="fill:rgb(0,188,218);fill-rule:nonzero;"/>
        </g>
        <g transform="matrix(0.787402,0,0,0.787402,1103.93,120.601)">
            <path d="M0,-5.763L0.158,-5.878L0.582,-6.186L0.834,-6.147L1.383,-5.784L1.917,-4.933L2.14,-3.879L2.211,-3.025L2,-0.771L2.102,0.045L2.067,3.602L3.437,6.543L5.76,8.537L8.737,9.94L9.492,10.256L9.808,10.388L10.526,10.5L11.066,10.584L11.76,10.693L11.915,10.594L12.428,10.268L12.749,10.064L13.046,9.875L13.126,9.741L13.31,9.429L14.283,7.781L13.846,8.16L12.88,7.57L10.914,7.263L9.504,7.481L8.457,6.871L10.089,4.667L12.481,5.033L14.102,5.287L14.85,5.481L14.283,7.781L14.568,7.168L15.262,5.298L15.319,4.36L14.731,4.201L13.883,3.63L13.219,3.526L10.966,3.612L9.616,3.648L8.703,4.451L7.335,6.032L6.193,5.239L5.113,3.594L3.437,0.21L3.073,-2.591L4.549,-4.721L6.786,-4.973L8.14,-8.793L10.292,-9.411L12.744,-9.255L15.225,-8.554L17.339,-8.547L18.316,-8.176L18.403,-7.213L18.864,-9.79L18.475,-10.679L17.331,-12.418L15.831,-13.515L12.554,-15.644L10.104,-16.456L7.402,-16.45L4.432,-15.653L3.129,-15.029L-0.203,-11.534L-0.698,-4.22L-0.143,-5.659L0,-5.763Z" style="fill:rgb(63,38,19);fill-rule:nonzero;"/>
        </g>
        <g transform="matrix(0.787402,0,0,0.787402,1148.98,155.516)">
            <path d="M0,-9.502L2.335,-9.635L4.967,-9.603L7.395,-8.637L8.417,-7.249L9.343,-4.656L9.223,-2.611L9.989,-2.397L10.294,-3.055L10.507,-3.214L10.819,-3.448L11.154,-3.518L11.615,-3.615L11.902,-3.621L12.2,-3.381L12.517,-3.127L12.587,-2.789L12.672,-2.379L12.78,-1.86L11.825,0.128L11.815,0.133L11.733,0.373L10.62,2.909L12.919,-0.515L13.475,-2.207L13.949,-5.879L13.691,-7.491L13.017,-9.12L10.527,-10.872L9.132,-11.806L7.668,-11.944L4.652,-12.411L0.551,-11.714L-0.985,-10.047L-1.799,-7.352L-1.703,-6.602L-1.627,-7.044L-1.01,-8.466L0,-9.502Z" style="fill:rgb(63,38,19);fill-rule:nonzero;"/>
        </g>
        <g transform="matrix(0.108915,0.779833,0.779833,-0.108915,1150.82,232.724)">
            <path d="M0.018,-0.075L0.199,-0.075L0.217,0.003L-0.106,-0.01L0.018,-0.075Z" style="fill:white;fill-rule:nonzero;"/>
        </g>
        <g transform="matrix(0.787402,0,0,0.787402,1157.75,236.481)">
            <path d="M0,-0.767L-0.08,-0.794L-0.094,-1.025L-0.467,-1.059L-0.604,-0.482L-1.041,-0.121L-1.073,-0.113L-2.404,-0.082L-1.945,0.02L0.113,0.208L1.62,0.292L3.364,0.292L3.399,0.284L3.833,-0.078L3.908,-0.391L0.002,-0.746L0,-0.767Z" style="fill:white;fill-rule:nonzero;"/>
        </g>
        <g transform="matrix(0.787402,0,0,0.787402,1160.65,236.29)">
            <path d="M0,-2.63L-1.816,-1.496L-2.02,-1.45L-2.971,-0.896L-3.698,-0.639L-3.688,-0.524L-3.686,-0.503L0.22,-0.147L1.841,0L2.278,-0.108L2.814,-0.368L2.863,-1.069L1.978,-2.449L0,-2.63Z" style="fill:white;fill-rule:nonzero;"/>
        </g>
        <g transform="matrix(-0.764766,0.187443,0.187443,0.764766,1157.44,235.633)">
            <path d="M-0.239,0.001L0.076,0.001L-0.278,0.123L-0.313,-0.064L-0.239,0.001Z" style="fill:white;fill-rule:nonzero;"/>
        </g>
        <g transform="matrix(0.787402,0,0,0.787402,1160.09,234.799)">
            <path d="M0,-2.747L-0.481,-2.729L-2.596,-0.364L-2.785,-0.153L-2.923,0L-2.177,-0.645L-1.209,-1.525L0.529,-2.546L2.507,-2.365L2.117,-2.554L2.056,-2.559L1.659,-2.595L0,-2.747Z" style="fill:white;fill-rule:nonzero;"/>
        </g>
        <g transform="matrix(0.784225,0.0706566,0.0706566,-0.784225,1146.56,236.568)">
            <path d="M-0.009,-0.222L4.939,-0.222L3.365,-0.09L1.274,-0.09L-0.009,-0.222Z" style="fill:white;fill-rule:nonzero;"/>
        </g>
        <g transform="matrix(0.787402,0,0,0.787402,1147.81,235.685)">
            <path d="M0,-2.864L-1.328,-2.749L-1.714,-2.905L-1.905,-1.714L-1.97,-0.513L-1.621,-0.222L-0.194,-0.707L1.889,-0.519L3.483,0.041L4.121,-0.186L4.366,-1.242L3.943,-2.364L2.329,-2.654L0,-2.864Z" style="fill:white;fill-rule:nonzero;"/>
        </g>
        <g transform="matrix(0.787402,0,0,0.787402,1134.87,177.416)">
            <path d="M0,0.64L0.129,0.404L-0.198,0L0,0.64Z" style="fill:white;fill-rule:nonzero;"/>
        </g>
        <g transform="matrix(0.787402,0,0,0.787402,1102.57,238.797)">
            <path d="M0,-3.556L-6.187,-2.495L-5.022,-1.161L-3.021,-0.141L-1.118,0L1.635,-0.472L2.375,-1.116L0.914,-2.179L0,-3.556Z" style="fill:rgb(142,142,142);fill-rule:nonzero;"/>
        </g>
        <g transform="matrix(0.787402,0,0,0.787402,1102.58,235.557)">
            <path d="M0,-0.742L0.049,0.057L0.013,-0.799L0,-0.742Z" style="fill:rgb(142,142,142);fill-rule:nonzero;"/>
        </g>
        <g transform="matrix(0.787402,0,0,0.787402,1102.47,233.884)">
            <path d="M0,2.048L0.139,1.383L0.151,1.325L0.189,1.146L0.19,1.138L-0.569,0.124L-1.715,-0.916L-4.244,-1.697L-6.89,-1.243L-8.236,0.077L-8.31,1.451L-7.796,2.458L-6.933,3.237L-6.057,3.745L0.129,2.684L0,2.048Z" style="fill:rgb(142,142,142);fill-rule:nonzero;"/>
        </g>
        <g transform="matrix(0.787402,0,0,0.787402,1100.24,237.256)">
            <path d="M0,-9.946L-1.854,-9.628L-2.449,-8.866L-2.077,-8.93L-1.395,-9.047L-0.809,-8.774L-0.029,-8.367L0.152,-8.273L1.112,-7.772L2.331,-6.868L2.686,-6.239L3.161,-5.396L3.146,-4.329L3.018,-3.145L3.016,-3.137L2.979,-2.958L3.016,-2.102L4.073,-1.154L5.659,0L5.536,-1.137L4.005,-6.963L2.476,-8.691L0,-9.946Z" style="fill:rgb(142,142,142);fill-rule:nonzero;"/>
        </g>
        <g transform="matrix(0.787402,0,0,0.787402,1097.04,233.545)">
            <path d="M0,-0.813L2.646,-1.267L5.175,-0.485L6.321,0.554L7.08,1.569L7.209,0.385L6.384,-0.717L5.139,-1.846L2.393,-2.694L-0.481,-2.202L-1.943,-0.768L-2.024,0.724L-1.42,1.881L-1.345,0.508L0,-0.813Z" style="fill:rgb(142,142,142);fill-rule:nonzero;"/>
        </g>
        <g transform="matrix(0.787402,0,0,0.787402,1096.67,232.437)">
            <path d="M0,-0.795L2.874,-1.287L5.62,-0.439L6.865,0.69L7.69,1.791L7.705,0.724L7.23,-0.118L6.875,-0.748L5.655,-1.652L4.696,-2.152L4.515,-2.247L3.734,-2.654L3.148,-2.926L2.467,-2.809L2.094,-2.746L1.751,-2.687L0.218,-2.424L-1.545,-0.358L-1.681,0.912L-1.542,2.131L-1.461,0.639L0,-0.795Z" style="fill:rgb(142,142,142);fill-rule:nonzero;"/>
        </g>
        <g transform="matrix(0.787402,0,0,0.787402,1102.62,237.29)">
            <path d="M0,-2.145L-0.049,-2.943L-0.188,-2.278L-0.059,-1.642L0.856,-0.264L2.316,0.798L2.643,-0.043L1.057,-1.197L0,-2.145Z" style="fill:rgb(142,142,142);fill-rule:nonzero;"/>
        </g>
        <g transform="matrix(0.787402,0,0,0.787402,1105.77,209.028)">
            <path d="M0,-3.239L-1.196,-3.661L-1.394,-1.887L-1.164,0.422L0.776,-0.871L0.287,-3.138L0,-3.239Z" style="fill:rgb(142,142,142);fill-rule:nonzero;"/>
        </g>
        <g transform="matrix(0.787402,0,0,0.787402,1091.91,152.024)">
            <path d="M0,-0.809L-0.4,-1.201L-0.84,-1.633L-1.321,-2.104L-1.741,0.715L-1.78,0.978L-1.828,1.295L-0.218,0.51L-0.096,-0.227L0,-0.809Z" style="fill:rgb(142,142,142);fill-rule:nonzero;"/>
        </g>
        <g transform="matrix(0.787402,0,0,0.787402,1114.61,237.245)">
            <path d="M0,-10.264L-2.723,-10.466L-4.788,-11.797L-5.003,-13.163L-6.451,-8.261L-6.555,-7.358L-4.212,-4.538L-2.696,-3.014L-2.06,-1.147L-1.828,0.318L-0.483,2.05L1.05,2.605L4.007,2.899L6.744,2.427L7.829,1.517L7.831,0.409L7.576,-0.617L6.475,-2.268L6.172,-2.722L6.475,-2.268L4.724,-6.825L2.231,-11.326L1.766,-10.57L0,-10.264Z" style="fill:rgb(142,142,142);fill-rule:nonzero;"/>
        </g>
        <g transform="matrix(0.787402,0,0,0.787402,1117.77,237.926)">
            <path d="M0,2.034L-2.956,1.739L-4.489,1.185L-5.835,-0.547L-5.722,0.205L-4.483,1.799L-3.072,2.31L-0.35,2.581L2.17,2.146L3.169,1.308L3.822,0.652L2.737,1.561L0,2.034Z" style="fill:rgb(142,142,142);fill-rule:nonzero;"/>
        </g>
        <g transform="matrix(0.787402,0,0,0.787402,1111.3,234.805)">
            <path d="M0,-1.439L-2.343,-4.259L-1.856,-2.899L0.302,-0.303L1.606,0.592L2.282,2.82L2.151,1.952L1.515,0.084L0,-1.439Z" style="fill:rgb(142,142,142);fill-rule:nonzero;"/>
        </g>
        <g transform="matrix(0.787402,0,0,0.787402,1114.76,123.203)">
            <path d="M0,0.01L0.408,0.045L0.82,0.081L-0.127,-0.067L-0.516,-0.071L0,0.01Z" style="fill:rgb(142,142,142);fill-rule:nonzero;"/>
        </g>
        <g transform="matrix(0.241066,0.749592,0.749592,-0.241066,1112.17,129.065)">
            <path d="M0.38,-0.257L0.827,-0.257L0.027,0.626L-0.218,0.138L0.38,-0.257Z" style="fill:rgb(142,142,142);fill-rule:nonzero;"/>
        </g>
        <g transform="matrix(-0.773309,0.148306,0.148306,0.773309,1123.4,151.353)">
            <path d="M0.142,-0.095L0.439,-0.095L-0.268,0.117L-0.173,-0.085L0.142,-0.095Z" style="fill:rgb(142,142,142);fill-rule:nonzero;"/>
        </g>
        <g transform="matrix(0.787402,0,0,0.787402,1095.95,209.19)">
            <path d="M0,-3.803L-0.151,-3.76L-1.548,-3.357L-1.75,-3.299L-2.735,-3.015L-1.63,-0.618L-0.066,0L0.035,-2.576L0,-3.803Z" style="fill:rgb(142,142,142);fill-rule:nonzero;"/>
        </g>
        <g transform="matrix(0.787402,0,0,0.787402,1085.09,151.344)">
            <path d="M0,-1.402L0.081,-0.906L0.276,0.269L0.491,0.415L0.498,0.356L0.623,-0.538L0.801,-1.817L0,-1.402Z" style="fill:rgb(142,142,142);fill-rule:nonzero;"/>
        </g>
        <g transform="matrix(0.787402,0,0,0.787402,1102.73,125.157)">
            <path d="M0,2.578L0.079,2.566L0.373,1.872L0.691,0.304L0.752,0L-0.473,0.881L-0.227,1.766L0,2.578Z" style="fill:rgb(142,142,142);fill-rule:nonzero;"/>
        </g>
        <g transform="matrix(0.787402,0,0,0.787402,1150.67,230.319)">
            <path d="M0,2.268L0.114,3.083L0.161,2.952L0.219,3.27L0.436,2.887L0.452,2.841L1.106,0.561L1.098,-1.002L0.442,0.806L0,2.268Z" style="fill:rgb(142,142,142);fill-rule:nonzero;"/>
        </g>
        <g transform="matrix(0.787402,0,0,0.787402,1150.98,232.485)">
            <path d="M0,-3.056L-0.026,-2.965L-0.114,-2.654L-0.146,-2.648L-0.595,-2.548L-1.082,-2.441L-1.257,-2.402L-1.7,-2.304L-1.945,-2.524L-2.388,-2.152L-3.161,-1.982L-3.637,-1.876L-3.702,-1.862L-3.991,-1.798L-4.459,-1.988L-5.168,-2.275L-5.245,-1.955L-5.745,1.16L-5.359,1.316L-4.031,1.201L-1.703,1.411L-0.088,1.701L-0.255,0.512L-0.28,0.332L-0.394,-0.483L0.048,-1.945L0.704,-3.753L0.394,-4.757L0.361,-4.336L0,-3.056Z" style="fill:rgb(142,142,142);fill-rule:nonzero;"/>
        </g>
        <g transform="matrix(0.787402,0,0,0.787402,1150.55,236.08)">
            <path d="M0,-0.46L-1.594,-1.02L-3.677,-1.208L-5.105,-0.724L-5.454,-1.014L-5.448,0.185L-5.097,0.84L-3.807,0.823L-1.724,1.011L-0.169,1.283L0.008,1.242L0.645,0.734L0.888,-0.658L0.882,-1.743L0.638,-0.687L0,-0.46Z" style="fill:rgb(142,142,142);fill-rule:nonzero;"/>
        </g>
        <g transform="matrix(0.787402,0,0,0.787402,1161.3,233.463)">
            <path d="M0,-1.785L-0.741,-3.088L-1.469,-3.73L-1.538,-3.709L-2.65,-3.366L-2.914,-3.285L-2.959,-3.271L-4.144,-2.906L-4.241,-2.876L-4.581,-2.772L-5.136,-2.259L-5.484,-1.938L-5.644,-1.791L-5.767,-1.301L-5.779,-1.418L-5.817,-1.294L-6.819,1.945L-5.462,1.368L-4.603,1.404L-4.461,1.856L-4.453,1.697L-4.315,1.544L-4.126,1.333L-2.011,-1.032L-1.53,-1.05L0.129,-0.898L-0.853,-1.846L0.129,-0.898L0.526,-0.862L0.51,-0.887L0.029,-1.734L0,-1.785Z" style="fill:rgb(142,142,142);fill-rule:nonzero;"/>
        </g>
        <g transform="matrix(0.787402,0,0,0.787402,1159.14,234.983)">
            <path d="M0,-1.758L-0.968,-0.879L-1.714,-0.233L-1.722,-0.074L-1.776,1.021L-1.049,0.764L-0.098,0.21L0.106,0.164L1.922,-0.97L3.9,-0.789L4.785,0.591L4.875,-1.216L3.716,-2.599L1.738,-2.779L0,-1.758Z" style="fill:rgb(142,142,142);fill-rule:nonzero;"/>
        </g>
        <g transform="matrix(0.787402,0,0,0.787402,1156.93,234.571)">
            <path d="M0,2.306L0.437,1.944L0.574,1.368L0.88,1.293L0.936,1.212L0.947,1.401L0.961,1.633L1.041,1.66L1.031,1.544L1.086,0.449L0.944,-0.003L0.085,-0.039L-1.273,0.537L-1.363,2.345L-0.032,2.314L0,2.306Z" style="fill:rgb(142,142,142);fill-rule:nonzero;"/>
        </g>
        <g transform="matrix(0.787402,0,0,0.787402,1161.42,231.898)">
            <path d="M0,-1.855L-0.446,-2.107L-1.623,-1.744L-0.895,-1.101L-0.154,0.201L-0.125,0.252L1.536,-0.989L0.121,-1.787L0,-1.855Z" style="fill:rgb(142,142,142);fill-rule:nonzero;"/>
        </g>
        <g transform="matrix(0.608989,0.499132,0.499132,-0.608989,1157.58,160.731)">
            <path d="M0.073,-0.053L0.403,-0.053L0.159,0.218L-0.18,0.205L0.073,-0.053Z" style="fill:rgb(142,142,142);fill-rule:nonzero;"/>
        </g>
        <g transform="matrix(0.787402,0,0,0.787402,1134.71,177.235)">
            <path d="M0,0.23L0.327,0.635L0.417,0.31L0.455,0.173L0.009,-0.405L0,0.23Z" style="fill:rgb(142,142,142);fill-rule:nonzero;"/>
        </g>
        <g transform="matrix(0.787402,0,0,0.787402,1137.71,178.514)">
            <path d="M0,-2.738L0.109,-2.251L-0.008,-0.886L-0.02,-0.75L-0.412,-0.614L-0.712,-0.51L-0.754,-0.675L-1.563,-0.325L-1.583,-0.317L-2.128,0.362L-2.122,0.379L0.189,0.979L0.227,0.989L0.394,0.597L0.735,-0.201L0.921,-0.637L0.581,-2.15L0.539,-2.338L0.505,-2.487L-0.22,-3.727L0,-2.738Z" style="fill:rgb(142,142,142);fill-rule:nonzero;"/>
        </g>
        <g transform="matrix(0.787402,0,0,0.787402,1158.78,153.749)">
            <path d="M0,-0.499L0.331,0.384L0.223,-0.135L0.137,-0.545L0.067,-0.883L0,-0.499Z" style="fill:rgb(142,142,142);fill-rule:nonzero;"/>
        </g>
        <g transform="matrix(0.787402,0,0,0.787402,1162.49,167.834)">
            <path d="M0,28.125L-1.219,13.655L-0.658,10.321L0.678,16.64L0.19,26.918L0.177,29.3L0,28.125ZM4.439,2.923L2.274,-3.457L-0.386,-5.769L-6.244,-9.361L-6.238,-9.294L-5.969,-9.089L-5.952,-8.723L-5.907,-7.769L-5.903,-7.665L-5.897,-7.551L-6.029,-7.392L-6.824,-6.424L-7.152,-6.025L-8.217,-5.102L-8.825,-4.574L-10.287,-4.132L-11.729,-3.696L-13.111,-4.279L-14.518,-4.873L-15.057,-5.454L-16.019,-6.49L-16.3,-6.92L-16.976,-7.957L-17.095,-8.139L-17.077,-8.249L-17.06,-8.357L-16.964,-8.936L-17.06,-9.561L-17.072,-9.642L-22.738,-6.941L-25.626,-4.92L-28.509,1.198L-30.557,11.584L-30.659,11.428L-31.699,9.791L-31.695,9.813L-29.535,13.356L-30.964,11.077L-30.93,11.227L-30.888,11.414L-30.548,12.927L-30.734,13.362L-31.074,14.161L-31.242,14.553L-31.28,14.543L-33.591,13.942L-33.607,13.938L-33.795,14.171L-33.966,14.384L-34.257,14.272L-34.62,14.133L-34.627,14.002L-34.692,14.037L-34.522,14.584L-32.951,19.714L-30.97,21.755L-30.218,22.345L-28.167,23.15L-27.315,22.561L-26.612,21.831L-25.216,19.441L-24.788,15.485L-24.097,10.258L-23.938,12.713L-24.208,28.97L-24.698,35.117L-24.432,36.224L-23.763,36.438L-23.265,36.597L-21.971,37.01L-20.712,37.413L-20.599,37.448L-19.604,37.767L-16.867,37.671L-15.023,37.606L-12.503,37.519L-12.024,37.501L-11.809,37.494L-11.804,37.494L-11.584,37.486L-11.105,37.47L-8.582,37.381L-6.589,37.312L-4.009,37.222L-2.976,36.812L-2.892,36.778L-1.692,36.302L-0.422,35.797L0.067,35.603L0.076,35.6L0.714,35.346L0.92,34.222L0.722,32.907L1.526,33.072L1.544,33.076L1.551,33.078L1.567,33.081L2.039,33.177L2.371,33.175L3.013,33.171L3.324,33.169L3.386,33.169L3.794,33.049L3.86,33.029L3.908,33.016L3.968,32.998L4.497,32.842L5.195,27.396L7.189,17.903L4.439,2.923Z" style="fill:white;fill-rule:nonzero;"/>
        </g>
        <g transform="matrix(0.787402,0,0,0.787402,1104.19,120.533)">
            <path d="M0,-5.308L-0.159,-5.338L0,-5.308L0.003,-5.307L0.799,-5.158L0.003,-5.307L0,-5.308ZM0.173,0.764L0.352,0.792L0.665,0.609L0.785,0.539L1.392,-0.303L1.668,-0.686L1.879,-2.94L1.807,-3.794L1.584,-4.847L1.05,-5.699L0.501,-6.061L0.25,-6.1L-0.174,-5.792L-0.332,-5.677L-0.476,-5.574L-1.03,-4.135L-1.158,-3.803L-1.032,-0.875L-0.42,0.472L-0.361,0.501L0.067,0.712L0.173,0.764Z" style="fill:rgb(242,211,173);fill-rule:nonzero;"/>
        </g>
        <g transform="matrix(0.787402,0,0,0.787402,1103.02,129.442)">
            <path d="M0,-3.57L-0.128,-2.939L0,-3.57L-0.295,-2.877L-0.344,-2.76L-0.296,-2.588L-0.179,-2.168L0.233,-1.633L0.444,-1.36L1.391,-0.132L1.795,0.392L2.048,1.11L2.263,1.721L2.37,2.024L2.818,3.296L3.099,4.094L4.391,5.659L5.971,7.573L6.678,8.43L7.249,7.744L8.752,5.94L10.207,4.193L10.457,3.51L10.853,2.427L11.297,1.212L11.337,1.104L11.556,0.503L11.624,0.387L11.486,-0.039L11.203,0.971L11.486,-0.039L11.679,-0.728L10.961,-0.841L10.645,-0.973L10.631,-0.97L10.624,-0.968L8.103,-0.382L10.624,-0.968L10.631,-0.97L10.645,-0.973L9.89,-1.289L6.913,-2.692L4.59,-4.686L3.22,-7.627L3.255,-11.184L3.153,-12L2.877,-11.618L2.271,-10.776L2.151,-10.705L1.838,-10.522L1.658,-10.551L1.552,-10.603L1.124,-10.814L1.303,-10.007L0.379,-5.443L0.317,-5.138L0,-3.57Z" style="fill:rgb(242,211,173);fill-rule:nonzero;"/>
        </g>
        <g transform="matrix(0.787402,0,0,0.787402,1109.91,134.333)">
            <path d="M0,-0.27L-1.502,1.533L-2.074,2.22L1.924,-2.49L1.455,-2.018L0,-0.27Z" style="fill:rgb(242,211,173);fill-rule:nonzero;"/>
        </g>
        <g transform="matrix(0.787402,0,0,0.787402,1089.47,176.392)">
            <path d="M0,0.552L-0.13,0.917L-0.083,0.913L0.148,0.317L0.094,-0.133L-0.915,-0.365L-0.263,0.289L0,0.552Z" style="fill:rgb(242,211,173);fill-rule:nonzero;"/>
        </g>
        <g transform="matrix(0.787402,0,0,0.787402,1090.54,174.312)">
            <path d="M0,-27.59L0.42,-30.41L-0.079,-30.899L-0.807,-31.036L-0.951,-31.063L-1.226,-31.116L-3.263,-31.501L-3.513,-31.548L-4.62,-31.758L-5.451,-31.328L-5.523,-31.291L-6.113,-30.986L-6.291,-29.707L-6.416,-28.813L-6.424,-28.753L-7.31,-22.401L-8.233,-15.56L-8.272,-5.468L-7.452,0.647L-6.843,1.957L-5.785,3.728L-4.209,3.761L-4.128,3.613L-4.754,3.378L-5.511,3.093L-5.695,3.024L-6.476,1.857L-6.861,1.281L-6.888,1.242L-7.031,0.783L-7.495,-0.709L-7.031,0.783L-6.888,1.242L-6.861,1.281L-6.476,1.857L-5.695,3.024L-5.511,3.093L-4.754,3.378L-4.128,3.613L-4.002,3.661L-3.695,3.776L-2.901,3.698L-3.538,3.371L-4.08,3.094L-4.288,2.899L-5.322,1.928L-5.456,1.803L-5.466,1.787L-6.588,0.069L-6.63,0.005L-6.709,-0.115L-6.63,0.005L-6.588,0.069L-5.466,1.787L-5.456,1.803L-5.322,1.928L-4.288,2.899L-4.08,3.094L-3.538,3.371L-2.901,3.698L-1.985,4.168L-1.598,3.883L-1.483,3.559L-1.354,3.194L-1.617,2.93L-2.269,2.277L-2.762,1.783L-2.625,2.116L-2.88,2.618L-2.921,2.701L-3.589,2.585L-3.82,2.362L-4.723,1.491L-5.104,0.812L-5.386,0.308L-5.513,0.082L-5.724,-0.54L-5.923,-1.125L-5.975,-1.276L-6.098,-1.637L-5.975,-1.276L-5.923,-1.125L-5.724,-0.54L-5.513,0.082L-5.386,0.308L-5.104,0.812L-4.723,1.491L-3.82,2.362L-3.589,2.585L-2.921,2.701L-2.88,2.618L-2.625,2.116L-2.762,1.783L-3.309,0.444L-3.892,-1.111L-3.944,-2.608L-3.557,-4.143L-2.688,-2.687L-1.953,-1.847L-0.983,-1.641L-0.744,-2.218L-0.792,-3.321L-1.295,-5.35L-3.051,-6.715L-4.25,-7.832L-4.477,-8.043L-4.25,-7.832L-1.444,-16.199L-0.781,-22.35L-0.086,-27.01L-0.039,-27.327L0,-27.59Z" style="fill:rgb(242,211,173);fill-rule:nonzero;"/>
        </g>
        <g transform="matrix(0.787402,0,0,0.787402,1104.82,230.396)">
            <path d="M0,-30.798L-0.856,-31.1L-1.165,-31.209L-1.694,-31.395L-4.461,-32.37L-4.966,-32.548L-8.545,-31.518L-10.898,-30.84L-11.265,-30.735L-11.23,-29.507L-11.331,-26.932L-11.526,-21.979L-8.915,-4.92L-8.611,-0.094L-8.268,-0.153L-7.673,-0.914L-5.819,-1.233L-3.343,0.023L-1.814,1.75L-1.82,-4.033L0.601,-21.019L0.032,-26.715L-0.198,-29.024L0,-30.798Z" style="fill:rgb(242,211,173);fill-rule:nonzero;"/>
        </g>
        <g transform="matrix(0.787402,0,0,0.787402,1113.39,124.548)">
            <path d="M0,0.12L1.622,0.374L2.84,0.467L2.092,0.275L0.47,0.021L-1.922,-0.347L0,0.12Z" style="fill:rgb(242,211,173);fill-rule:nonzero;"/>
        </g>
        <g transform="matrix(0.787402,0,0,0.787402,1114.66,126.459)">
            <path d="M0,-2.053L-1.621,-2.306L-3.544,-2.773L-5.176,-0.569L-4.128,0.041L-2.718,-0.177L-0.753,0.13L0.214,0.72L0.651,0.342L1.218,-1.959L0,-2.053Z" style="fill:rgb(242,211,173);fill-rule:nonzero;"/>
        </g>
        <g transform="matrix(0.787402,0,0,0.787402,1115.08,116.196)">
            <path d="M0,8.943L-0.408,8.907L-0.925,8.826L-0.535,8.831L0.412,8.979L0,8.943ZM4.154,-2.582L3.177,-2.954L1.063,-2.96L-1.418,-3.662L-3.87,-3.818L-6.022,-3.2L-7.376,0.62L-9.613,0.872L-11.089,3.003L-10.724,5.804L-9.048,9.188L-7.968,10.833L-6.826,11.626L-5.458,10.045L-4.545,9.241L-3.195,9.206L-0.942,9.12L-0.279,9.223L0.569,9.794L1.157,9.953L1.101,10.891L0.406,12.761L0.635,12.185L2.601,8.059L2.869,6.064L2.952,4.264L3.527,3.467L3.683,2.96L4.07,0.674L4.241,-1.62L4.154,-2.582Z" style="fill:rgb(242,211,173);fill-rule:nonzero;"/>
        </g>
        <g transform="matrix(0.787402,0,0,0.787402,1135.65,175.87)">
            <path d="M0,-0.044L-0.056,0.018L-0.008,0.137L0.025,0.2L0.287,0.063L0.261,-0.02L0.179,-0.244L0,-0.044Z" style="fill:rgb(242,211,173);fill-rule:nonzero;"/>
        </g>
        <g transform="matrix(0.787402,0,0,0.787402,1134.73,177.521)">
            <path d="M0,0.833L0.667,0.129L0.46,0L0,0.833Z" style="fill:rgb(242,211,173);fill-rule:nonzero;"/>
        </g>
        <g transform="matrix(0.787402,0,0,0.787402,1136.81,177.735)">
            <path d="M0,-0.095L-0.048,0.151L-0.055,0.183L-0.448,0.672L-0.429,0.663L0.38,0.313L0.379,0.304L0.377,0.293L0.313,0.047L0.131,-0.767L0,-0.095Z" style="fill:rgb(242,211,173);fill-rule:nonzero;"/>
        </g>
        <g transform="matrix(0.221429,0.755626,0.755626,-0.221429,1134.13,172.91)">
            <path d="M0.205,0.217L0.489,0.217L-0.068,0.247L-0.574,0.273L0.205,0.217Z" style="fill:rgb(242,211,173);fill-rule:nonzero;"/>
        </g>
        <g transform="matrix(0.787402,0,0,0.787402,1135.43,174.91)">
            <path d="M0,-0.796L-0.15,-0.602L-0.147,-0.513L-0.191,-0.547L-0.251,-0.469L-0.408,0.092L-0.396,0.112L-0.278,0.032L0.01,-0.163L0.037,-0.182L0.084,-0.214L0.128,-0.234L0.221,-0.275L0.342,-0.331L0.475,-0.39L0.242,-0.7L0.232,-0.713L0.086,-0.908L0,-0.796Z" style="fill:rgb(242,211,173);fill-rule:nonzero;"/>
        </g>
        <g transform="matrix(0.787402,0,0,0.787402,1133.68,174.766)">
            <path d="M0,-0.065L0.288,0.413L0.365,0.384L0.369,0.36L0.415,0.109L0.008,-0.343L-0.052,-0.407L-0.115,-0.478L0,-0.065Z" style="fill:rgb(242,211,173);fill-rule:nonzero;"/>
        </g>
        <g transform="matrix(0.787402,0,0,0.787402,1135.13,152.394)">
            <path d="M0,31.688L0.141,31.84L0.23,31.937L0.212,31.905L0.332,31.867L0.484,31.706L0.607,31.576L0.682,31.497L0.711,31.323L0.878,31.208L0.92,31.098L0.92,31.095L0.924,30.929L0.925,30.882L0.927,30.821L0.936,30.465L0.948,29.877L0.687,30.014L0.509,30.106L0.447,30.138L0.296,30.216L0.288,30.251L0.21,30.574L0.169,30.744L0.09,31.068L0.169,30.744L0.21,30.574L0.288,30.251L0.296,30.216L0.447,30.138L0.409,30.055L0.443,30.016L0.552,29.893L0.606,29.833L0.661,29.771L0.84,29.57L0.85,29.559L0.955,29.44L0.85,29.559L0.923,29.795L0.948,29.877L0.967,29.157L0.954,29.143L0.955,29.113L1.023,29.071L0.967,29.157L0.948,29.877L0.936,30.465L0.927,30.821L0.925,30.882L0.924,30.929L0.92,31.095L0.92,31.098L0.878,31.208L0.789,31.437L0.743,31.554L0.117,33.162L0.098,33.212L0.12,33.611L0.127,33.742L0.49,33.881L0.781,33.993L0.952,33.78L1.14,33.547L1.15,33.534L1.696,32.856L2.089,32.367L2.095,32.334L2.143,32.089L2.274,31.417L2.157,30.896L2.15,30.864L1.926,30.117L1.722,29.436L1.682,29.302L1.356,28.868L1.318,28.818L0.93,28.303L1.318,28.818L1.356,28.868L1.682,29.302L1.722,29.436L1.926,30.117L2.15,30.864L2.014,30.259L2.15,30.864L2.157,30.896L2.274,31.417L2.457,32.231L2.52,32.477L2.522,32.488L2.525,32.497L2.567,32.662L2.866,32.559L3.259,32.423L3.27,32.286L3.381,30.992L3.387,30.921L3.278,30.435L3.058,29.446L3.053,29.422L3.048,29.399L2.993,29.156L2.799,28.275L2.17,26.448L1.416,24.887L-1.449,20.054L-4.584,8.067L-6.926,1.785L-8.338,-2.305L-9.325,-2.222L-9.508,-2.199L-10.044,-2.129L-11.698,-1.914L-11.826,-1.894L-12.397,-1.805L-12.8,-1.742L-14.42,-1.488L-14.446,-1.484L-14.536,-1.469L-14.493,-1.355L-14.468,-1.29L-12.48,3.943L-10.069,11.531L-4.37,22.595L-3.42,25.209L-3.352,25.263L-3.365,25.234L-3.436,24.906L-3.54,24.428L-3.618,23.423L-3.653,22.967L-3.703,22.315L-3.653,22.967L-3.618,23.423L-3.54,24.428L-3.436,24.906L-3.365,25.234L-3.352,25.263L-3.326,25.32L-3.285,25.409L-2.308,27.545L-1.956,27.935L-1.892,28.006L-1.833,28.071L-1.425,28.521L-1.411,28.538L-1.391,28.53L-1.164,28.438L-0.529,28.181L-0.475,28.159L-0.442,28.146L-0.454,28.098L-0.558,27.694L-0.696,27.225L-0.801,26.869L-0.921,26.463L-1.001,26.191L-1.165,25.428L-1.172,25.398L-1.237,25.095L-1.244,25.064L-1.549,23.643L-1.244,25.064L-1.237,25.095L-1.172,25.398L-1.165,25.428L-1.049,25.921L-0.921,26.463L-0.801,26.869L-0.696,27.225L-0.563,27.148L-0.029,26.843L0.028,26.811L0.23,26.695L0.028,26.811L-0.029,26.843L-0.563,27.148L-0.696,27.225L-0.558,27.694L-0.454,28.098L-0.442,28.146L-0.475,28.159L-0.529,28.181L-1.164,28.438L-1.391,28.53L-1.411,28.538L-1.425,28.521L-1.471,28.773L-1.475,28.796L-1.494,28.895L-1.494,29.011L-1.496,29.499L-1.173,30.036L-0.561,31.081L-0.746,30.546L-0.809,30.02L-1.007,29.94L-0.776,29.852L-0.772,29.829L-0.637,29.13L-0.632,29.126L-0.374,28.951L-0.038,28.722L-0.027,28.687L0.13,28.126L0.19,28.048L0.197,28.039L0.232,27.993L0.381,27.799L0.467,27.687L0.476,27.676L0.615,27.495L0.476,27.676L0.467,27.687L0.613,27.882L0.624,27.896L0.857,28.205L0.864,28.201L0.857,28.205L0.724,28.264L0.602,28.32L0.509,28.361L0.465,28.381L0.418,28.413L0.391,28.431L0.104,28.626L-0.015,28.707L-0.038,28.722L-0.374,28.951L-0.632,29.126L-0.637,29.13L-0.772,29.829L-0.776,29.852L-0.809,30.02L-0.746,30.546L-0.561,31.081L-0.514,31.142L-0.068,31.721L-0.059,31.689L-0.068,31.721L-0.106,31.858L-0.196,32.183L-0.039,31.911L-0.003,31.703L0,31.688Z" style="fill:rgb(242,211,173);fill-rule:nonzero;"/>
        </g>
        <g transform="matrix(0.159843,-0.771007,-0.771007,-0.159843,1134.76,178.849)">
            <path d="M-0.207,0.089L-0.039,0.089L-0.001,0.116L0.103,0.287L-0.207,0.089Z" style="fill:rgb(242,211,173);fill-rule:nonzero;"/>
        </g>
        <g transform="matrix(0.787402,0,0,0.787402,1135.2,177.684)">
            <path d="M0,1.093L0.019,1.043L0.645,-0.565L0.584,-0.622L0.509,-0.543L0.386,-0.413L0.234,-0.252L0.163,-0.177L0.07,-0.079L-0.597,0.625L-0.868,0.912L-0.859,1.14L-0.855,1.241L-0.853,1.296L-0.824,1.322L-0.677,1.457L-0.644,1.488L-0.555,1.571L-0.397,1.715L-0.043,1.527L0.022,1.492L0,1.093Z" style="fill:rgb(242,211,173);fill-rule:nonzero;"/>
        </g>
        <g transform="matrix(0.122981,0.777738,0.777738,-0.122981,1109.77,225.807)">
            <path d="M1.525,0.919L2.908,0.919L-2.27,1.974L-2.428,1.979L1.525,0.919Z" style="fill:rgb(242,211,173);fill-rule:nonzero;"/>
        </g>
        <g transform="matrix(0.787402,0,0,0.787402,1117.87,227.85)">
            <path d="M0,-22.251L-1.944,-20.907L-2.463,-20.547L-3.8,-20.921L-5.807,-21.483L-8.481,-22.232L-9.081,-22.4L-10.391,-22.767L-10.491,-23.603L-10.783,-21.889L-8.701,-5.301L-8.682,-5.146L-8.916,0.135L-6.851,1.465L-4.128,1.668L-2.362,1.362L-1.897,0.606L-1.438,-4.849L2.339,-21.041L2.41,-23.919L1.01,-22.95L0,-22.251Z" style="fill:rgb(242,211,173);fill-rule:nonzero;"/>
        </g>
        <g transform="matrix(0.787402,0,0,0.787402,1164.62,199.543)">
            <path d="M0,1.101L0.077,1.021L0.671,0L0,1.101Z" style="fill:rgb(242,211,173);fill-rule:nonzero;"/>
        </g>
        <g transform="matrix(0.787402,0,0,0.787402,1164.5,198.276)">
            <path d="M0,-0.544L0.004,-0.551L0.029,-0.67L0.014,-0.763L-0.016,-0.947L-0.018,-0.961L-0.087,-0.914L-0.37,-0.721L-0.808,-0.422L-0.833,-0.225L-1.068,-0.203L-1.115,0.006L-1.174,0.029L-1.888,0.001L-1.908,-0.126L-1.931,-0.264L-2.282,-0.214L-2.276,-0.092L-2.255,0.283L-0.8,0.417L-0.44,0.288L-0.207,-0.152L0,-0.544Z" style="fill:rgb(242,211,173);fill-rule:nonzero;"/>
        </g>
        <g transform="matrix(0.787402,0,0,0.787402,1164.64,199.271)">
            <path d="M0,-1.052L-0.077,-1.529L-0.202,-1.643L-0.172,-1.808L-0.379,-1.416L-0.612,-0.976L-0.795,-0.63L-1.904,0.348L-1.923,0.445L-1.591,0.756L-0.254,0.058L-0.185,-0.035L-0.051,-0.769L0,-1.052Z" style="fill:rgb(242,211,173);fill-rule:nonzero;"/>
        </g>
        <g transform="matrix(0.205597,-0.760086,-0.760086,-0.205597,1163.78,194.018)">
            <path d="M-0.106,0.115L0.02,0.115L0.146,0.138L0.146,0.155L-0.106,0.115Z" style="fill:rgb(242,211,173);fill-rule:nonzero;"/>
        </g>
        <g transform="matrix(0.787402,0,0,0.787402,1163.95,197.604)">
            <path d="M0,-0.685L-0.047,-0.48L-0.108,-0.487L-0.17,-0.243L-0.246,0.1L-0.208,0.132L0.328,0.133L0.611,-0.06L0.681,-0.108L0.657,-0.253L0.639,-0.359L0.527,-0.658L0.43,-0.589L0.444,-0.818L0,-0.685Z" style="fill:rgb(242,211,173);fill-rule:nonzero;"/>
        </g>
        <g transform="matrix(0.787402,0,0,0.787402,1165.53,200.386)">
            <path d="M0,-8.312L-0.066,-8.292L-0.474,-8.172L-0.536,-8.172L-0.848,-8.17L-1.489,-8.166L-1.822,-8.164L-2.293,-8.26L-2.319,-8.165L-2.327,-8.137L-2.361,-8.014L-2.544,-7.346L-3.3,-5.469L-3.365,-3.966L-3.365,-3.959L-3.373,-3.781L-3.234,-2.944L-3.211,-2.806L-3.19,-2.679L-2.476,-2.65L-2.417,-2.674L-2.37,-2.883L-2.328,-3.071L-2.249,-3.422L-2.247,-3.434L-2.17,-3.776L-2.108,-4.021L-2.059,-4.215L-2.058,-4.22L-1.825,-5.143L-1.55,-4.401L-1.516,-4.309L-1.472,-4.192L-1.361,-3.892L-1.344,-3.786L-1.32,-3.641L-1.318,-3.626L-1.288,-3.443L-1.273,-3.35L-1.236,-3.12L-1.207,-2.945L-1.13,-2.468L-1.181,-2.185L-1.315,-1.451L-1.351,-1.255L-1.651,-0.017L-1.155,0.031L-0.596,-0.966L-0.159,-2.319L0.005,-3.522L0.059,-3.913L0.059,-3.916L0.064,-4.278L0.068,-4.551L0.075,-5.073L0.068,-4.551L0.064,-4.278L0.059,-3.916L0.059,-3.913L0.005,-3.522L0.254,-3.976L0.273,-5.279L0.107,-8.343L0.048,-8.326L0,-8.312Z" style="fill:rgb(242,211,173);fill-rule:nonzero;"/>
        </g>
        <g transform="matrix(0.787402,0,0,0.787402,1158.78,159.497)">
            <path d="M0,-7.798L0.068,-8.182L-0.249,-8.437L-0.547,-8.676L-0.834,-8.671L-1.295,-8.573L-1.63,-8.503L-1.942,-8.27L-2.154,-8.11L-2.459,-7.452L-3.226,-7.667L-3.106,-9.712L-4.031,-12.304L-5.053,-13.693L-7.481,-14.658L-10.114,-14.69L-12.449,-14.557L-13.458,-13.522L-14.076,-12.1L-14.229,-10.79L-14.393,-10.238L-14.512,-8.741L-14.195,-5.967L-13.856,-3.847L-13.305,-2.339L-12.995,-1.732L-12.82,-1.111L-12.659,-0.991L-12.364,0.946L-12.352,1.027L-12.257,1.652L-12.157,2.305L-12.37,2.339L-12.387,2.449L-12.269,2.631L-11.592,3.667L-11.311,4.098L-10.35,5.134L-9.811,5.715L-8.403,6.309L-7.021,6.892L-5.579,6.455L-4.118,6.014L-3.51,5.486L-2.445,4.562L-2.117,4.163L-1.321,3.196L-1.19,3.036L-1.195,2.923L-1.395,2.869L-1.5,1.655L-1.531,1.294L-1.537,1.226L-1.828,-2.146L-0.716,-4.682L-0.832,-4.824L-0.691,-4.894L-0.634,-4.922L-0.624,-4.927L0.331,-6.915L0,-7.798Z" style="fill:rgb(242,211,173);fill-rule:nonzero;"/>
        </g>
        <g transform="matrix(0.761779,-0.199234,-0.199234,-0.761779,1157.8,161.75)">
            <path d="M-0.152,0.031L0.049,0.031L0.247,0.966L0.054,1.233L-0.152,0.031Z" style="fill:rgb(242,211,173);fill-rule:nonzero;"/>
        </g>
        <g transform="matrix(0.787402,0,0,0.787402,1149.05,160.856)">
            <path d="M0,0.505L0.194,0.578L0.095,-0.073L0,0.505Z" style="fill:rgb(242,211,173);fill-rule:nonzero;"/>
        </g>
    </g>
</svg>
