<?xml version="1.0" encoding="UTF-8" standalone="no"?>
<!DOCTYPE svg PUBLIC "-//W3C//DTD SVG 1.1//EN" "http://www.w3.org/Graphics/SVG/1.1/DTD/svg11.dtd">
<svg width="100%" height="100%" viewBox="0 0 140 220" version="1.1" xmlns="http://www.w3.org/2000/svg" xmlns:xlink="http://www.w3.org/1999/xlink" xml:space="preserve" xmlns:serif="http://www.serif.com/" style="fill-rule:evenodd;clip-rule:evenodd;stroke-linejoin:round;stroke-miterlimit:2;">
    <g id="people-18" transform="matrix(1.27,0,0,1.27,-212.969,-84.8)">
        <g transform="matrix(0.787402,0,0,0.787402,217.402,127.739)">
            <path d="M0,-4.559L1.316,1.092L2.632,-4.559L2.847,-5.482L1.316,-5.306L1.612,-5.543L1.316,-5.651L1.053,-5.555L1.019,-5.544L-0.239,-5.584L-0.215,-5.482L0,-4.559Z" style="fill:white;fill-rule:nonzero;"/>
        </g>
        <g transform="matrix(0.787402,0,0,0.787402,213.395,120.627)">
            <path d="M0,-1.633L0.26,-0.84L0.607,0.216L0.653,0.245L0.581,-1.457L0.563,-1.875L0.181,-1.878L0,-1.633Z" style="fill:white;fill-rule:nonzero;"/>
        </g>
        <g transform="matrix(0.787402,0,0,0.787402,212.413,108.067)">
            <path d="M0,3.51L0.625,3.548L0.85,-0.038L0,3.51Z" style="fill:rgb(221,221,221);fill-rule:nonzero;"/>
        </g>
        <g transform="matrix(0.787402,0,0,0.787402,224.566,108.037)">
            <path d="M0,3.586L0.625,3.548L-0.224,0L0,3.586Z" style="fill:rgb(221,221,221);fill-rule:nonzero;"/>
        </g>
        <g transform="matrix(0.787402,0,0,0.787402,212.337,108.786)">
            <path d="M0,1.646L0.096,2.597L0.946,-0.951L0,1.646Z" style="fill:rgb(221,221,221);fill-rule:nonzero;"/>
        </g>
        <g transform="matrix(0.787402,0,0,0.787402,225.058,108.037)">
            <path d="M0,3.548L0.096,2.597L-0.85,0L0,3.548Z" style="fill:rgb(221,221,221);fill-rule:nonzero;"/>
        </g>
        <g transform="matrix(0.787402,0,0,0.787402,200.562,234.679)">
            <path d="M3.196,-17.955L-3.196,-17.955L-3.196,0L-2.26,0L-2.26,-11.643L2.26,-11.643L2.26,0L3.196,0L3.196,-17.955Z" style="fill:rgb(142,142,142);fill-rule:nonzero;"/>
        </g>
        <g transform="matrix(0.787402,0,0,0.787402,201.712,189.522)">
            <path d="M0.289,-11.773L-0.268,-11.773L-0.268,-9.383L-0.303,-8.23L-0.303,-6.243L-0.268,-6.01L-0.268,-4.503L0,-3.877L0,0L0.289,0L0.289,-11.773Z" style="fill:rgb(142,142,142);fill-rule:nonzero;"/>
        </g>
        <g transform="matrix(0.787402,0,0,0.787402,199.749,189.522)">
            <path d="M0.058,-11.773L-0.685,-11.773L-0.685,0L-0.427,0L-0.427,-3.877L0,-4.88L0.058,-4.904L0.058,-11.773Z" style="fill:rgb(142,142,142);fill-rule:nonzero;"/>
        </g>
        <g transform="matrix(0.787402,0,0,0.787402,202.329,160.24)">
            <path d="M0,0.605L-0.657,-0.982L-0.817,-1.048L-1.236,-1.222L-1.722,-1.423L-2.18,-1.613L-2.245,-1.64L-2.471,-1.546L-2.973,-1.338L-3.055,-1.304L-3.088,-1.29L-3.616,-1.071L-3.832,-0.982L-3.966,-0.657L-4.07,-0.406L-4.473,0.565L-4.485,0.596L-4.489,0.605L-4.406,0.806L-4.116,1.506L-3.991,1.808L-3.896,2.038L-3.832,2.192L-3.705,2.245L-3.705,0.605L-3.277,-0.427L-2.245,-0.855L-1.212,-0.427L-0.785,0.605L-0.785,2.245L-0.657,2.192L0,0.605Z" style="fill:rgb(142,142,142);fill-rule:nonzero;"/>
        </g>
        <g transform="matrix(0.787402,0,0,0.787402,201.736,159)">
            <path d="M0,4.398L0.515,4.185L1.346,2.179L0.882,1.06L0.515,0.173L0.24,0.059L0.15,0.022L0.097,0L-0.064,0.526L0.096,0.592L0.753,2.179L0.096,3.766L-0.031,3.819L-0.031,4.239L0,4.244L0,4.398Z" style="fill:rgb(142,142,142);fill-rule:nonzero;"/>
        </g>
        <g transform="matrix(0.787402,0,0,0.787402,239.467,234.679)">
            <path d="M3.196,-17.955L-3.196,-17.955L-3.196,0L-2.26,0L-2.26,-11.643L2.26,-11.643L2.26,0L3.196,0L3.196,-17.955Z" style="fill:rgb(142,142,142);fill-rule:nonzero;"/>
        </g>
        <g transform="matrix(0.787402,0,0,0.787402,240.617,189.522)">
            <path d="M0.289,-11.773L-0.42,-11.773L-0.42,-4.862L0,-3.877L0,0L0.289,0L0.289,-11.773Z" style="fill:rgb(142,142,142);fill-rule:nonzero;"/>
        </g>
        <g transform="matrix(0.787402,0,0,0.787402,237.93,160.795)">
            <path d="M0,-0.805L-0.292,-0.1L0.02,0.652L0.176,1.029L0.306,1.344L0.366,1.487L0.492,1.54L0.492,-0.1L0.92,-1.132L1.953,-1.56L2.985,-1.132L3.413,-0.1L3.413,1.54L3.54,1.487L3.555,1.451L3.652,1.215L3.885,0.655L4.048,0.259L4.107,0.119L4.197,-0.1L4.103,-0.326L4.006,-0.563L3.949,-0.7L3.71,-1.277L3.663,-1.391L3.54,-1.687L2.956,-1.929L1.953,-2.345L1.565,-2.184L0.517,-1.75L0.366,-1.687L0.329,-1.598L0.006,-0.819L0,-0.805Z" style="fill:rgb(142,142,142);fill-rule:nonzero;"/>
        </g>
        <g transform="matrix(0.787402,0,0,0.787402,237.888,161.134)">
            <path d="M0,-2.536L0.07,-2.565L0,-2.536L-0.059,-2.394L-0.109,-2.274L-0.112,-2.265L-0.556,-1.195L-0.831,-0.53L-0.111,1.209L0.546,1.223L0.546,1.11L0.419,1.057L0.36,0.914L0.075,0.812L0.073,0.222L-0.239,-0.53L0.053,-1.235L0.024,-1.315L0.063,-1.957L0.201,-2.675L-0.102,-3.759L-0.059,-2.394L0,-2.536Z" style="fill:rgb(142,142,142);fill-rule:nonzero;"/>
        </g>
        <g transform="matrix(0.787402,0,0,0.787402,238.317,186.678)">
            <path d="M0.333,-8.16L-0.257,-8.16L-0.257,-0.236L0,0L0,-0.264L0.333,-1.046L0.333,-2.397L0.369,-2.63L0.369,-4.617L0.333,-5.77L0.333,-8.16Z" style="fill:rgb(142,142,142);fill-rule:nonzero;"/>
        </g>
        <g transform="matrix(0.787402,0,0,0.787402,238.115,199.115)">
            <path d="M0,-16.032L-0.417,-16.416L-45.149,-16.416L-45.823,-15.795L-45.823,-0.237L-45.149,0.384L-0.417,0.384L0.257,-0.237L0.257,-15.795L0,-16.032Z" style="fill:rgb(142,142,142);fill-rule:nonzero;"/>
        </g>
        <g transform="matrix(0.787402,0,0,0.787402,212.337,99.5696)">
            <path d="M0,13.351L0.946,10.755L1.547,9.449L2.423,7.761L3.775,7.05L6.21,8.04L6.022,7.947L3.458,6.679L6.022,7.947L6.21,8.04L8.126,8.088L10.043,8.04L10.231,7.947L12.935,6.727L10.043,8.04L12.478,7.05L13.83,7.761L14.706,9.449L15.306,10.755L16.253,13.351L16.391,13.05L16.705,13.018L16.867,12.538L17.394,9.528L16.135,4.186L14.313,2.117L10.994,0.765L8.126,0L5.26,0.765L1.94,2.117L0.074,4.272L-1.141,9.528L-0.614,12.538L-0.451,13.018L-0.138,13.05L0,13.351Z" style="fill:rgb(142,142,142);fill-rule:nonzero;"/>
        </g>
        <g transform="matrix(0.787402,0,0,0.787402,218.898,143.28)">
            <path d="M0,24.1L0,20.595L-0.182,7.374L-0.064,0.355L-0.045,-0.005L-0.584,-0.001L-1.123,-0.005L-1.104,0.355L-0.985,7.374L-1.167,20.595L-1.167,24.1L-0.584,24.105L0,24.1Z" style="fill:rgb(0,188,218);fill-rule:nonzero;"/>
        </g>
        <g transform="matrix(0.787402,0,0,0.787402,213.71,120.262)">
            <path d="M0,4.503L0.87,5.747L1.551,6.72L2.075,7.47L2.745,6.246L4.323,3.363L4.294,3.345L2.971,2.481L2.561,2.214L2.269,2.404L1.626,1.799L1.148,1.734L0.637,1.347L0.533,0.892L0.334,0.763L0.253,0.71L0.207,0.68L-0.14,-0.377L-0.4,-1.169L-0.991,-2.967L-1.42,-0.745L-1.089,0.579L-0.513,2.881L-0.217,3.988L-0.054,4.375L0,4.503Z" style="fill:rgb(0,188,218);fill-rule:nonzero;"/>
        </g>
        <g transform="matrix(0.787402,0,0,0.787402,218.863,123.405)">
            <path d="M0,25.236L2.88,12.96L2.924,12.845L3.255,8.577L3.462,7.753L3.95,5.812L4.57,4.151L4.814,3.239L5.046,2.375L5.546,0.508L5.683,-0.004L5.52,0.383L5.466,0.511L4.596,1.756L3.916,2.729L3.391,3.478L2.721,2.254L-0.539,6.597L-3.799,2.254L-4.469,3.478L-4.993,2.729L-5.674,1.756L-6.544,0.511L-6.598,0.383L-6.624,0.508L-6.124,2.375L-5.892,3.239L-5.648,4.151L-5.028,5.812L-4.54,7.753L-4.333,8.577L-4.002,12.845L-3.959,12.96L-1.078,25.236L-0.539,25.24L0,25.236Z" style="fill:rgb(0,188,218);fill-rule:nonzero;"/>
        </g>
        <g transform="matrix(0.787402,0,0,0.787402,218.439,122.909)">
            <path d="M0,7.226L-1.316,1.575L-1.531,0.653L-1.555,0.55L-1.683,0L-3.26,2.883L0,7.226Z" style="fill:rgb(0,188,218);fill-rule:nonzero;"/>
        </g>
        <g transform="matrix(0.787402,0,0,0.787402,218.439,122.909)">
            <path d="M0,7.226L3.26,2.883L1.683,0L1.549,0.573L1.531,0.653L1.316,1.575L0,7.226Z" style="fill:rgb(0,188,218);fill-rule:nonzero;"/>
        </g>
        <g transform="matrix(0.787402,0,0,0.787402,221.533,117.926)">
            <path d="M0,10.437L0.525,9.687L1.205,8.714L2.075,7.47L2.129,7.342L2.292,6.955L2.589,5.848L3.164,3.546L3.495,2.222L3.066,0L2.649,1.269L2.593,2.757L2.521,3.596L2.436,4.409L2.204,5.149L1.942,5.009L1.586,5.279L1.013,5.357L0.456,5.881L-0.159,5.481L-0.951,5.485L-1.32,5.725L-2.247,6.33L-0.67,9.213L0,10.437Z" style="fill:rgb(0,188,218);fill-rule:nonzero;"/>
        </g>
        <g transform="matrix(0.611466,0.496095,0.496095,-0.611466,231.794,147.573)">
            <path d="M0.43,0.237L0.498,0.237L0.764,0.107L-1.002,1.341L0.43,0.237Z" style="fill:rgb(148,48,41);fill-rule:nonzero;"/>
        </g>
        <g transform="matrix(0.787402,0,0,0.787402,222.953,231.515)">
            <path d="M0,-0.006L-0.091,-0.006L-0.091,0.022L0.578,0.057L0.578,-0.063L0,-0.006Z" style="fill:rgb(148,48,41);fill-rule:nonzero;"/>
        </g>
        <g transform="matrix(0.787402,0,0,0.787402,208.417,235.518)">
            <path d="M0,-0.081L-0.09,-0.03L0.18,0.317L0.276,0.331L0.373,0.122L0.585,-0.412L0,-0.081Z" style="fill:rgb(148,48,41);fill-rule:nonzero;"/>
        </g>
        <g transform="matrix(0,0.787402,0.787402,0,217.104,234.27)">
            <path d="M-0.036,-1.064L1.064,-1.064L0.601,-0.036L0.275,-0.176L-0.036,-1.064Z" style="fill:rgb(148,48,41);fill-rule:nonzero;"/>
        </g>
        <g transform="matrix(0.787402,0,0,0.787402,240.286,199.823)">
            <path d="M0,-17.943L0,-8.478L-0.008,-8.451L-0.125,-8.043L-0.812,-7.782L-0.871,-7.786L-0.812,-7.782L-0.125,-8.043L-0.008,-8.451L0,-8.478L0,-39.818L-0.008,-39.845L-0.628,-41.828L-0.741,-42.207L-1.041,-42.465L-2.073,-43.35L-2.501,-43.717L-2.513,-43.727L-4.808,-44.255L-46.617,-44.255L-48.912,-43.727L-48.99,-43.66L-49.418,-43.293L-50.45,-42.408L-50.684,-42.207L-50.797,-41.828L-51.425,-39.818L-51.425,-8.478L-51.299,-8.043L-50.622,-7.785L-51.299,-8.043L-51.425,-8.478L-51.425,-17.985L-51.483,-17.962L-51.91,-16.958L-51.91,26.312L-48.99,26.312L-48.99,-16.958L-49.257,-17.585L-49.257,-8.199L-49.418,-8.088L-49.767,-7.846L-50.353,-7.801L-49.767,-7.846L-49.418,-8.088L-49.257,-8.199L-49.257,-19.091L-49.293,-19.324L-49.293,-21.311L-49.257,-22.464L-49.257,-39.834L-49.383,-39.432L-49.257,-39.834L-48.99,-40.689L-48.966,-40.766L-47.92,-41.663L-46.365,-42.021L-5.06,-42.021L-3.504,-41.663L-2.501,-40.802L-2.458,-40.766L-2.167,-39.834L-2.042,-39.432L-2.167,-39.834L-2.167,-22.464L-2.132,-21.311L-2.132,-19.324L-2.167,-19.091L-2.167,-8.199L-2.073,-8.134L-1.658,-7.846L-1.12,-7.805L-1.658,-7.846L-2.073,-8.134L-2.167,-8.199L-2.167,-17.74L-2.501,-16.958L-2.501,26.312L0.419,26.312L0.419,-16.958L0,-17.943Z" style="fill:rgb(250,192,41);fill-rule:nonzero;"/>
        </g>
        <g transform="matrix(0.787402,0,0,0.787402,240.617,175.953)">
            <path d="M0,5.46L0,-19.351L-0.428,-20.383L-1.46,-20.811L-2.492,-20.383L-2.92,-19.351L-2.92,-13.402L-2.492,-13.036L-1.46,-12.15L-1.16,-11.893L-0.545,-9.925L-0.428,-9.531L-0.419,-9.504L-0.419,5.46L0,5.46Z" style="fill:rgb(250,192,41);fill-rule:nonzero;"/>
        </g>
        <g transform="matrix(0.787402,0,0,0.787402,231.035,164.886)">
            <path d="M0,-4.72L-0.249,-4.584L-0.424,-4.545L-1.709,-4.261L-1.77,-4.248L-6.603,-3.794L-7.776,-3.684L-8.289,-3.636L-12.74,-3.435L-15.243,-3.346L-15.414,-3.34L-15.997,-3.335L-16.581,-3.34L-16.65,-3.342L-19.255,-3.435L-23.706,-3.636L-24.236,-3.686L-25.852,-3.837L-30.225,-4.248L-30.47,-4.302L-31.637,-4.56L-31.746,-4.584L-32.063,-4.757L-32.204,-4.835L-33.171,0.115L1.056,0.115L0.15,-4.802L0,-4.72Z" style="fill:rgb(66,76,160);fill-rule:nonzero;"/>
        </g>
        <g transform="matrix(0.787402,0,0,0.787402,238.317,167.695)">
            <path d="M0,15.948L0.333,15.948L0.333,0.969L0.042,0.037L0,0L0,15.948Z" style="fill:rgb(66,76,160);fill-rule:nonzero;"/>
        </g>
        <g transform="matrix(0.787402,0,0,0.787402,199.795,159.567)">
            <path d="M0,26.271L0,11.307L0.126,10.886L0.741,8.918L0.974,8.717L2.007,7.832L2.434,7.465L2.434,1.46L2.007,0.428L0.974,0L-0.058,0.428L-0.486,1.46L-0.486,26.271L0,26.271Z" style="fill:rgb(250,192,41);fill-rule:nonzero;"/>
        </g>
        <g transform="matrix(0.787402,0,0,0.787402,205.406,166.735)">
            <path d="M-0.642,24.706L16.193,24.706L16.337,11.506L16.056,14.803L16.552,8.048L16.552,8.346L16.845,12.162L18.175,24.706L34.476,24.706L34.499,21.323L34.47,3.42L34.126,0.596L34.004,0L-1.015,0L-1.247,2.752L-0.642,24.706Z" style="fill:rgb(66,76,160);fill-rule:nonzero;"/>
        </g>
        <g transform="matrix(0.787402,0,0,0.787402,201.501,179.578)">
            <path d="M0,-14.123L0,0.856L0.268,0.856L0.268,-14.979L0,-14.123Z" style="fill:rgb(66,76,160);fill-rule:nonzero;"/>
        </g>
        <g transform="matrix(0.787402,0,0,0.787402,231.864,219.014)">
            <path d="M0,0.565L0.151,1.175L0.047,-0.61L0,0.565Z" style="fill:rgb(66,76,160);fill-rule:nonzero;"/>
        </g>
        <g transform="matrix(0.787402,0,0,0.787402,230.808,232.011)">
            <path d="M2.101,-41.394L-13.294,-41.394L-13.285,-40.927L-12.279,-24.827L-11.694,-9.568L-10.654,-0.637L-10.072,-0.636L-9.976,-0.636L-9.398,-0.692L-8.452,-0.786L-8.107,-0.819L-7.758,-0.854L-7.172,-0.911L-6.332,-0.993L-6.06,-1.006L-5.338,-1.037L-5.226,-1.041L-4.987,-1.052L-3.731,-1.106L-3.59,-1.129L-3.064,-1.212L-1.589,-1.446L-1.104,-1.523L-1.012,-1.453L-0.588,-2.567L-0.572,-2.69L-0.505,-2.693L-0.178,-2.707L0.102,-2.058L0.979,-0.024L1.031,0L2.553,-4.716L2.29,-5.405L2.914,-8.339L-0.688,-4.716L1.145,-6.57L2.914,-8.339L2.988,-9.312L1.492,-15.33L1.341,-15.94L1.388,-17.116L2.004,-32.411L2.101,-41.394Z" style="fill:rgb(66,76,160);fill-rule:nonzero;"/>
        </g>
        <g transform="matrix(0.787402,0,0,0.787402,216.626,235.518)">
            <path d="M1.354,-45.848L-14.294,-45.848L-14.218,-43.736L-12.271,-21.945L-12.814,-30.288L-11.765,-14.728L-12.627,-11.437L-13.477,-8.192L-12.573,-4.615L-12.436,-2.756L-10.997,-0.651L-10.568,0L-10.515,-0.03L-10.425,-0.081L-9.841,-0.412L-9.111,-2.251L-8.39,-4.07L-8.292,-4.316L-8.167,-4.63L-8.01,-5.026L-7.988,-5.082L-7.95,-5.132L-7.914,-5.132L-7.21,-5.032L-6.65,-4.824L-6.376,-4.762L-6.045,-4.557L-4.685,-3.72L-4.664,-3.696L-4.14,-3.787L-3.968,-3.889L-3.729,-3.818L-3.172,-3.188L-2.698,-2.578L-2.7,-2.219L-2.671,-2.218L-2.607,-2.215L-2.09,-2.193L-1.44,-1.965L-0.458,-1.62L0.431,-1.309L0.57,-0.984L1.068,-9.281L1.13,-15.437L1.24,-23.735L1.281,-44.271L1.354,-45.848Z" style="fill:rgb(66,76,160);fill-rule:nonzero;"/>
        </g>
        <g transform="matrix(0.787402,0,0,0.787402,206.684,218.239)">
            <path d="M0,10.507L0.861,7.216L0.355,0L0,10.507Z" style="fill:rgb(66,76,160);fill-rule:nonzero;"/>
        </g>
        <g transform="matrix(0.787402,0,0,0.787402,215.492,237.467)">
            <path d="M0,-4.44L-0.65,-4.668L-1.167,-4.69L-1.231,-4.693L-1.26,-4.694L-1.258,-5.053L-1.732,-5.663L-2.289,-6.293L-2.529,-6.364L-2.7,-6.262L-3.224,-6.171L-3.245,-6.195L-4.605,-7.032L-4.937,-7.237L-5.21,-7.299L-5.77,-7.507L-6.474,-7.607L-6.511,-7.607L-6.548,-7.557L-6.57,-7.501L-6.727,-7.105L-6.852,-6.792L-6.95,-6.545L-7.671,-4.726L-8.401,-2.888L-8.613,-2.353L-8.709,-2.145L-9.796,0.224L-9.921,3.167L-0.922,3.167L-0.922,1.006L-0.776,0.435L-0.668,0.015L0,-2.591L-0.668,0.015L-0.776,0.435L-0.922,1.006L-0.922,3.163L0.821,3.163L0.821,-0.024L0.982,-1.081L0.982,-4.096L0,-4.44Z" style="fill:rgb(120,71,34);fill-rule:nonzero;"/>
        </g>
        <g transform="matrix(0.787402,0,0,0.787402,225.822,231.899)">
            <path d="M0,-0.852L-0.838,-0.77L-1.425,-0.712L-1.774,-0.678L-2.119,-0.644L-1.695,-0.388L-1.454,-0.242L-1.222,-0.103L-1.031,0.013L0.273,-0.865L0,-0.852Z" style="fill:rgb(120,71,34);fill-rule:nonzero;"/>
        </g>
        <g transform="matrix(0.787402,0,0,0.787402,230.668,239.744)">
            <path d="M0,-12.529L-0.327,-12.515L-0.394,-12.512L-0.41,-12.389L-0.834,-11.275L-0.926,-11.344L-1.411,-11.267L-2.886,-11.034L-3.412,-10.951L-3.553,-10.928L-4.809,-10.874L-5.048,-10.863L-5.16,-10.859L-5.882,-10.827L-7.186,-9.95L-7.378,-10.066L-7.609,-10.205L-7.85,-10.351L-8.274,-10.607L-9.22,-10.514L-9.22,-6.895L-9.044,-5.84L-9.044,-2.677L-5.146,-1.916L-3.706,-0.614L-0.351,-0.068L1.476,0L3.73,-0.12L4.768,-0.601L4.768,-2.729L4.246,-4.186L3.53,-5.518L2.316,-7.16L1.162,-9.835L1.157,-9.845L0.28,-11.879L0,-12.529Z" style="fill:rgb(120,71,34);fill-rule:nonzero;"/>
        </g>
        <g transform="matrix(0.787402,0,0,0.787402,221.131,134.606)">
            <path d="M0,-1.266L-0.072,0.115L0.044,-1.381L0,-1.266Z" style="fill:rgb(68,114,37);fill-rule:nonzero;"/>
        </g>
        <g transform="matrix(-0.029143,0.786862,0.786862,0.029143,223.763,118.162)">
            <path d="M0.219,-0.147L0.976,-0.147L-0.309,0.223L-0.612,0.152L0.219,-0.147Z" style="fill:rgb(68,114,37);fill-rule:nonzero;"/>
        </g>
        <g transform="matrix(0.787402,0,0,0.787402,221.426,132.453)">
            <path d="M0,-2.914L-0.331,1.354L-0.447,2.85L2.32,-5.349L2.053,-5.764L0.695,-5.679L0.207,-3.737L0,-2.914Z" style="fill:rgb(68,114,37);fill-rule:nonzero;"/>
        </g>
        <g transform="matrix(0.787402,0,0,0.787402,224.056,129.511)">
            <path d="M0,-15.509L-0.197,-15.019L-0.138,-14.713L0.291,-12.491L-0.04,-11.167L-0.615,-8.865L-0.912,-7.758L-1.049,-7.246L-1.55,-5.379L-1.781,-4.515L-2.025,-3.603L-2.645,-1.943L-1.287,-2.027L-1.02,-1.613L0.256,0.364L0.976,-2.067L1.648,-4.331L1.733,-5.003L1.767,-5.275L1.815,-5.645L2.068,-7.641L2.22,-8.264L2.414,-9.06L2.436,-9.152L2.464,-9.352L2.505,-9.652L2.655,-10.738L2.176,-12.706L1.504,-14.969L1.502,-14.976L1.104,-15.239L0.146,-15.873L0.095,-15.745L0,-15.509Z" style="fill:rgb(68,114,37);fill-rule:nonzero;"/>
        </g>
        <g transform="matrix(0.787402,0,0,0.787402,242.238,157.563)">
            <path d="M0,-2.73L-0.152,-3.355L-0.588,-4.215L-1.025,-5.087L-2.692,-5.983L-3.752,-6.069L-4.752,-5.992L-5.689,-5.5L-6.619,-4.968L-7.794,-3.193L-7.881,-2.189L-7.968,-1.168L-7.788,-0.422L-7.762,-0.312L-7.609,0.328L-7.587,0.417L-7.561,0.527L-7.36,1.36L-6.487,3.103L-6.081,3.339L-5.637,2.27L-5.663,2.026L-5.637,2.27L-5.634,2.26L-5.696,1.616L-5.627,0.775L-5.776,0.243L-5.586,0.079L-5.575,-0.102L-5.154,-0.798L-4.66,-1.738L-4.204,-2.165L-3.168,-2.834L-2.721,-2.823L-2.48,-2.694L-0.843,-1.869L-0.822,-1.703L-0.832,-1.523L-0.951,-0.428L0.347,0.386L0.453,-0.864L0.151,-2.107L0.091,-2.355L0,-2.73Z" style="fill:rgb(68,114,37);fill-rule:nonzero;"/>
        </g>
        <g transform="matrix(0.787402,0,0,0.787402,225.241,162.043)">
            <path d="M0,-56.285L0.672,-54.023L1.151,-52.054L1.001,-50.969L0.959,-50.668L1.053,-50.485L0.909,-50.376L0.716,-49.581L0.564,-48.958L0.311,-46.962L0.263,-46.591L0.229,-46.319L0.143,-45.647L-0.528,-43.384L-1.249,-40.952L-2.524,-42.93L-5.291,-34.73L-5.053,-32.143L-5.291,-34.73L-5.219,-36.111L-8.099,-23.835L-8.118,-23.475L-8.237,-16.455L-8.055,-3.235L-8.055,0.27L-7.884,0.264L-5.381,0.175L-0.93,-0.026L-0.417,-0.074L0.756,-0.184L5.589,-0.637L5.65,-0.651L6.935,-0.935L7.11,-0.973L7.359,-1.11L7.509,-1.192L9.648,-2.367L9.622,-4.276L10.278,-12.924L10.012,-13.876L9.755,-14.791L9.663,-13.984L9.503,-12.593L9.663,-13.984L9.755,-14.791L9.372,-16.159L9.048,-17.841L8.983,-17.98L8.858,-18.247L8.805,-18.29L7.511,-19.353L7.062,-19.643L5.578,-20.603L4.793,-20.975L5.578,-20.603L7.062,-19.643L7.511,-19.353L8.805,-18.29L8.389,-20.049L8.983,-17.98L9.048,-17.841L8.612,-20.111L8.547,-20.446L8.068,-22.931L7.911,-23.608L7.21,-26.631L6.415,-30.06L5.865,-32.434L4.896,-36.614L5.865,-32.434L6.415,-30.06L7.21,-26.631L7.911,-23.608L8.068,-22.931L8.547,-20.446L8.612,-20.111L9.048,-17.841L9.372,-16.159L9.755,-14.791L10.012,-13.876L10.278,-12.924L11.931,-7.023L12.376,-6.098L13.437,-5.44L14.026,-5.163L14,-5.272L13.978,-5.362L13.825,-6.001L13.799,-6.112L13.619,-6.858L13.706,-7.878L13.793,-8.882L14.968,-10.658L15.898,-11.189L16.835,-11.682L17.835,-11.758L18.895,-11.672L20.562,-10.776L20.999,-9.905L21.435,-9.045L21.587,-8.42L21.678,-8.044L21.738,-7.797L22.275,-9.51L20.339,-23.646L18.769,-25.861L15.44,-45.509L10.23,-53.202L1.382,-56.26L-0.4,-56.555L-0.002,-56.292L0,-56.285Z" style="fill:rgb(68,114,37);fill-rule:nonzero;"/>
        </g>
        <g transform="matrix(0.787402,0,0,0.787402,197.046,124.182)">
            <path d="M0,39.884L0.081,39.071L0.565,38.209L1.05,37.335L2.803,36.43L3.866,36.339L4.89,36.41L5.815,36.898L6.737,37.425L7.85,39.194L7.891,40.198L7.933,41.219L7.869,41.877L7.851,42.061L7.804,42.545L7.791,42.675L7.908,42.636L8.778,42.097L8.878,42.035L8.979,41.973L9.351,41.298L9.49,41.045L9.577,40.014L9.626,39.43L9.63,39.388L9.885,36.354L10.025,34.697L10.261,31.901L10.434,30.332L10.571,29.099L10.67,28.197L10.704,27.89L11.01,25.124L11.063,24.851L11.593,22.092L12.401,17.885L12.82,15.708L13.634,11.47L12.82,15.708L12.401,17.885L11.593,22.092L11.063,24.851L11.01,25.124L10.704,27.89L10.67,28.197L10.571,29.099L11.019,28.731L11.468,28.441L12.952,27.482L13.738,27.109L12.952,27.482L11.468,28.441L11.019,28.731L10.571,29.099L10.434,30.332L10.261,31.901L10.025,34.697L9.885,36.354L9.63,39.388L9.656,39.562L9.626,39.43L9.577,40.014L9.49,41.045L9.351,41.298L8.979,41.973L8.878,42.035L8.778,42.097L8.908,43.809L8.882,45.717L10.962,46.86L11.103,46.937L11.42,47.111L11.529,47.135L12.697,47.393L12.941,47.447L17.314,47.857L18.931,48.009L19.46,48.058L23.911,48.259L26.516,48.352L26.585,48.355L26.585,44.85L26.767,31.629L26.648,24.61L26.629,24.25L23.749,11.974L23.821,13.354L23.583,15.942L23.821,13.354L21.054,5.155L19.779,7.132L19.058,4.701L18.387,2.437L18.302,1.765L18.267,1.493L18.22,1.123L17.966,-0.873L17.814,-1.496L17.621,-2.292L17.477,-2.4L17.571,-2.584L17.529,-2.884L17.379,-3.97L17.859,-5.938L18.53,-8.201L18.533,-8.208L18.931,-8.471L17.149,-8.176L8.3,-5.118L3.09,2.575L2.088,9.368L1.865,10.881L0.188,22.248L-0.854,24.469L-0.813,38.61L-0.131,41.202L-0.063,40.519L0,39.884Z" style="fill:rgb(68,114,37);fill-rule:nonzero;"/>
        </g>
        <g transform="matrix(0.787402,0,0,0.787402,211.637,128.705)">
            <path d="M0,-13.946L-0.672,-11.684L-1.151,-9.715L-1.001,-8.63L-0.96,-8.329L-0.932,-8.13L-0.91,-8.037L-0.716,-7.242L-0.564,-6.619L-0.311,-4.623L-0.264,-4.252L-0.229,-3.98L-0.143,-3.308L0.528,-1.045L1.249,1.387L2.524,-0.591L2.791,-1.005L4.149,-0.92L3.53,-2.581L3.285,-3.493L3.054,-4.357L2.554,-6.223L2.416,-6.736L2.12,-7.842L1.544,-10.145L1.213,-11.468L1.642,-13.69L1.892,-14.986L1.642,-13.69L2.233,-11.892L2.415,-12.137L2.796,-12.134L2.785,-12.408L2.777,-12.589L2.749,-13.266L2.678,-13.443L2.067,-14.96L2.077,-15.139L2.087,-15.333L0.4,-14.216L0.002,-13.953L0,-13.946Z" style="fill:rgb(68,114,37);fill-rule:nonzero;"/>
        </g>
        <g transform="matrix(0.787402,0,0,0.787402,213.648,123.402)">
            <path d="M0,0.512L0.025,0.388L-0.138,0L0,0.512Z" style="fill:rgb(68,114,37);fill-rule:nonzero;"/>
        </g>
        <g transform="matrix(0.787402,0,0,0.787402,215.803,133.519)">
            <path d="M0,1.496L-0.072,0.115L-0.115,0L0,1.496Z" style="fill:rgb(68,114,37);fill-rule:nonzero;"/>
        </g>
        <g transform="matrix(0.787402,0,0,0.787402,215.451,132.453)">
            <path d="M0,-2.914L-0.207,-3.737L-0.695,-5.679L-2.053,-5.764L-2.32,-5.349L0.447,2.85L0.331,1.354L0,-2.914Z" style="fill:rgb(68,114,37);fill-rule:nonzero;"/>
        </g>
        <g transform="matrix(0.787402,0,0,0.787402,198.098,156.022)">
            <path d="M0,0.745L-0.01,0.526L0.012,0.361L1.607,-0.539L1.867,-0.693L2.366,-0.729L3.362,-0.124L3.899,0.361L4.462,1.435L4.769,1.939L4.805,2.642L4.826,2.918L4.944,3.038L4.855,3.328L4.878,3.638L4.86,3.842L5.135,3.956L5.502,4.843L6.35,3.312L6.453,2.256L6.455,2.238L6.467,2.108L6.514,1.624L6.532,1.439L6.596,0.781L6.555,-0.239L6.513,-1.243L5.401,-3.012L4.479,-3.539L3.554,-4.027L2.529,-4.098L1.467,-4.007L-0.287,-3.103L-0.771,-2.229L-1.256,-1.366L-1.336,-0.553L-1.399,0.082L-1.467,0.765L-1.503,1.127L-1.419,3.167L-1.305,3.351L0.139,2.264L0,0.745Z" style="fill:rgb(68,114,37);fill-rule:nonzero;"/>
        </g>
        <g transform="matrix(0.787402,0,0,0.787402,198.538,132.278)">
            <path d="M0,-0.316L-0.029,0.599L0.194,-0.915L0,-0.316Z" style="fill:rgb(68,114,37);fill-rule:nonzero;"/>
        </g>
        <g transform="matrix(0.787402,0,0,0.787402,201.712,163.75)">
            <path d="M0,-0.986L0,0.001L0.73,-0.102L0.789,-0.267L0.486,-0.987L0,-0.986Z" style="fill:rgb(242,211,173);fill-rule:nonzero;"/>
        </g>
        <g transform="matrix(0.787402,0,0,0.787402,197.783,159.78)">
            <path d="M0,4.249L0.46,4.229L1.026,4.204L2.069,4.158L2.069,3.128L1.059,2.813L0.392,2.604L0.063,2.501L-0.213,2.415L-0.358,2.37L-0.631,1.953L-0.806,1.687L-0.861,1.7L-0.818,1.669L-1.234,1.035L-1.318,0.907L-1.914,0L-1.93,1.827L-0.888,3.135L-0.496,3.626L0,4.249Z" style="fill:rgb(242,211,173);fill-rule:nonzero;"/>
        </g>
        <g transform="matrix(0.787402,0,0,0.787402,201.853,156.219)">
            <path d="M0,1.689L-0.307,1.185L-0.87,0.111L-1.407,-0.374L-2.403,-0.979L-2.902,-0.943L-3.162,-0.789L-4.757,0.111L-4.779,0.277L-4.769,0.495L-4.63,2.014L-4.369,1.818L-2.668,0.888L-1.352,1.25L-1.344,1.258L-1.299,1.302L-1.219,1.383L-0.105,2.506L0.029,2.64L0.056,2.668L0.036,2.393L0,1.689Z" style="fill:rgb(242,211,173);fill-rule:nonzero;"/>
        </g>
        <g transform="matrix(0.787402,0,0,0.787402,198.388,162.299)">
            <path d="M0,2.501L0.473,2.565L0.907,2.485L0.954,2.477L1.301,2.413L1.301,0.959L0.258,1.005L-0.307,1.03L-0.768,1.05L-1.264,0.427L-1.656,-0.064L-1.681,1.151L-0.986,1.787L-0.24,2.469L0,2.501Z" style="fill:rgb(242,211,173);fill-rule:nonzero;"/>
        </g>
        <g transform="matrix(0.787402,0,0,0.787402,199.412,164.104)">
            <path d="M0,1.168L0,0.12L-0.347,0.184L-0.394,0.193L-0.827,0.273L-1.301,0.208L-1.541,0.176L-2.286,-0.505L-2.186,0.125L-0.617,1.202L0,1.168Z" style="fill:rgb(242,211,173);fill-rule:nonzero;"/>
        </g>
        <g transform="matrix(0.787402,0,0,0.787402,201.859,158.846)">
            <path d="M0,-0.001L-0.006,0.218L0.082,0.256L0.101,0.052L0.079,-0.257L0,-0.001Z" style="fill:rgb(242,211,173);fill-rule:nonzero;"/>
        </g>
        <g transform="matrix(0.787402,0,0,0.787402,196.811,158.566)">
            <path d="M0,2.577L0.416,3.21L0.428,3.229L0.603,3.495L0.876,3.912L1.021,3.957L1.297,4.043L1.626,4.146L2.293,4.354L3.303,4.67L3.303,4.371L3.176,4.318L3.112,4.164L3.017,3.934L2.892,3.632L2.601,2.932L2.518,2.731L2.522,2.722L2.162,2.511L2.052,2.447L1.91,2.084L1.593,1.275L1.91,2.084L2.052,2.447L2.162,2.511L2.522,2.722L2.535,2.691L2.937,1.72L3.041,1.469L3.176,1.144L3.391,1.055L3.919,0.836L3.953,0.822L3.913,0.737L3.895,0.728L3.81,0.513L3.895,0.728L3.913,0.737L4.034,0.788L4.536,0.58L4.763,0.486L4.827,0.513L5.285,0.703L5.771,0.904L5.922,0.667L5.868,0.477L5.839,0.374L5.868,0.477L5.922,0.667L5.771,0.904L6.19,1.078L6.351,0.552L6.411,0.355L6.49,0.098L6.578,-0.193L6.46,-0.313L6.298,-0.475L5.184,-1.598L5.104,-1.679L5.06,-1.723L5.051,-1.731L3.735,-2.093L2.034,-1.163L1.773,-0.967L0.329,0.12L-0.513,0.753L-0.68,1.542L-0.084,2.449L0,2.577Z" style="fill:rgb(242,211,173);fill-rule:nonzero;"/>
        </g>
        <g transform="matrix(0.0754569,0.783778,0.783778,-0.0754569,237.716,158.721)">
            <path d="M0.149,0.034L0.796,0.034L0.682,0.095L-0.682,0.182L0.149,0.034Z" style="fill:rgb(242,211,173);fill-rule:nonzero;"/>
        </g>
        <g transform="matrix(0.787402,0,0,0.787402,238.027,163.262)">
            <path d="M0,0.524L0.369,0.669L0.369,-0.123L0.131,-0.145L0,0.524Z" style="fill:rgb(242,211,173);fill-rule:nonzero;"/>
        </g>
        <g transform="matrix(0.787402,0,0,0.787402,241.591,156.713)">
            <path d="M0,-0.623L-0.022,-0.789L-1.658,-1.614L-1.899,-1.743L-2.346,-1.754L-3.382,-1.085L-3.838,-0.658L-4.333,0.282L-4.753,0.978L-4.731,1.131L-3.754,0.288L-3.525,0.091L-3.429,0.008L-3.407,-0.011L-2.983,-0.029L-2.111,-0.273L-0.41,0.476L-0.129,0.652L-0.01,-0.443L0,-0.623Z" style="fill:rgb(242,211,173);fill-rule:nonzero;"/>
        </g>
        <g transform="matrix(0.787402,0,0,0.787402,240.921,163.817)">
            <path d="M0,-0.375L-0.331,-0.447L-0.387,-0.429L-0.387,0.605L-0.211,0.676L1.359,-0.267L1.477,-1.051L0.713,-0.538L0,-0.375Z" style="fill:rgb(242,211,173);fill-rule:nonzero;"/>
        </g>
        <g transform="matrix(0.787402,0,0,0.787402,237.938,159.595)">
            <path d="M0,-0.003L-0.039,0.639L-0.01,0.718L-0.005,0.705L0.318,-0.074L0.143,-0.7L0.137,-0.721L0,-0.003Z" style="fill:rgb(242,211,173);fill-rule:nonzero;"/>
        </g>
        <g transform="matrix(0.787402,0,0,0.787402,238.975,160.195)">
            <path d="M0,-2.158L-0.509,-1.991L-0.564,-2.078L-0.886,-2.588L-0.976,-2.729L-0.903,-2.844L-0.839,-2.946L-0.529,-3.436L-0.839,-2.946L-0.903,-2.844L-0.976,-2.729L-0.886,-2.588L-0.564,-2.078L-0.509,-1.991L0,-2.158L0.652,-2.372L0,-2.158ZM5.626,-1.475L5.46,-2.348L4.491,-2.956L3.193,-3.77L2.913,-3.947L1.212,-4.695L0.339,-4.451L1.364,-4.494L0.339,-4.451L-0.085,-4.433L-0.107,-4.415L-0.432,-4.134L-1.409,-3.291L-1.442,-3.263L-1.632,-3.099L-1.483,-2.568L-1.18,-1.483L-1.174,-1.463L-0.999,-0.836L-0.962,-0.925L-0.81,-0.988L0.238,-1.422L0.625,-1.583L1.628,-1.167L2.212,-0.925L2.335,-0.629L2.46,-0.691L2.705,-0.813L2.895,-0.907L2.977,-1.088L3.354,-1.909L2.977,-1.088L2.895,-0.907L2.705,-0.813L2.46,-0.691L2.335,-0.629L2.382,-0.515L2.621,0.062L2.678,0.199L2.776,0.436L2.869,0.662L2.779,0.881L3.083,0.803L3.656,0.656L4.07,0.55L4.429,0.093L4.467,0.046L5.056,-0.704L4.467,0.046L4.573,0.128L4.429,0.093L4.07,0.55L3.656,0.656L3.083,0.803L2.779,0.881L2.721,1.021L2.557,1.417L2.324,1.977L2.227,2.213L2.212,2.249L2.085,2.302L2.085,2.436L2.257,2.447L2.426,2.457L2.588,2.467L2.611,2.469L3.385,2.516L3.713,2.537L4.465,1.709L4.596,1.564L5.642,0.414L5.626,-1.475Z" style="fill:rgb(242,211,173);fill-rule:nonzero;"/>
        </g>
        <g transform="matrix(0.787402,0,0,0.787402,241.899,162.756)">
            <path d="M0,-0.716L-0.327,-0.736L-1.101,-0.784L-1.137,-0.766L-1.296,-0.769L-1.456,-0.772L-1.628,-0.776L-1.628,0.889L-1.573,0.901L-1.241,0.972L-0.528,0.81L0.236,0.297L0.913,-0.277L0.884,-1.688L0.753,-1.544L0,-0.716Z" style="fill:rgb(242,211,173);fill-rule:nonzero;"/>
        </g>
        <g transform="matrix(0.787402,0,0,0.787402,237.588,162.899)">
            <path d="M0,-1.039L-0.303,-0.323L-0.245,-0.183L0.927,0L0.927,-1.019L0.27,-1.033L0,-1.039Z" style="fill:rgb(242,211,173);fill-rule:nonzero;"/>
        </g>
        <g transform="matrix(0.741883,0.263839,0.263839,-0.741883,237.889,161.725)">
            <path d="M0.09,-0.033L0.391,-0.033L0.163,0.219L-0.11,0.522L0.09,-0.033Z" style="fill:rgb(242,211,173);fill-rule:nonzero;"/>
        </g>
        <g transform="matrix(0.787402,0,0,0.787402,198.995,239.219)">
            <rect x="0" y="-16.762" width="3.828" height="17.838" style="fill:rgb(205,152,99);fill-rule:nonzero;"/>
        </g>
        <g transform="matrix(0.787402,0,0,0.787402,237.9,239.219)">
            <rect x="0" y="-16.762" width="3.828" height="17.838" style="fill:rgb(205,152,99);fill-rule:nonzero;"/>
        </g>
        <g transform="matrix(0.787402,0,0,0.787402,213.835,110.339)">
            <path d="M0,10.164L-0.036,10.075L0,10.164L0.159,13.055L0,10.164ZM16.121,-0.241L15.693,-0.751L15.41,-0.617L15.138,-0.498L15.693,-0.751L14.802,-0.66L14.489,-0.628L14.35,-0.326L14.254,0.624L13.628,0.663L13.404,-2.923L12.803,-4.228L11.928,-5.916L10.575,-6.628L8.14,-5.638L6.224,-5.589L4.307,-5.638L1.873,-6.628L0.52,-5.916L-0.355,-4.228L-0.956,-2.923L-1.18,0.663L-1.806,0.624L-1.903,-0.326L-2.041,-0.628L-2.354,-0.66L-3.245,-0.751L-2.69,-0.498L-2.962,-0.617L-3.245,-0.751L-3.673,-0.241L-3.729,0.468L-3.406,1.882L-2.722,3.36L-2.145,4.574L-1.661,5.005L-1.352,4.872L-0.873,4.812L-0.872,4.815L-0.58,5.705L-0.584,5.787L-0.704,7.992L-0.714,8.186L-0.724,8.365L-0.114,9.882L-0.042,10.06L-0.014,10.737L-0.006,10.917L0.005,11.191L0.023,11.609L0.095,13.311L0.176,13.365L0.375,13.494L0.479,13.949L0.99,14.336L1.468,14.401L2.11,15.006L2.402,14.816L2.812,15.083L4.136,15.947L4.164,15.965L4.292,16.514L5.55,16.555L5.584,16.543L5.847,16.447L6.143,16.556L5.847,16.792L7.378,16.617L7.396,16.538L7.53,15.965L8.457,15.36L8.826,15.12L9.618,15.116L10.233,15.516L10.79,14.992L11.363,14.914L11.719,14.643L11.982,14.785L12.213,14.044L12.298,13.231L12.37,12.392L12.426,10.904L12.455,10.148L12.784,9.329L12.981,8.839L13.076,8.603L13.128,8.475L13.172,8.365L13.028,5.705L13.319,4.815L13.32,4.812L13.799,4.872L14.108,5.005L14.593,4.574L15.17,3.36L15.854,1.882L16.177,0.468L16.121,-0.241Z" style="fill:rgb(242,211,173);fill-rule:nonzero;"/>
        </g>
    </g>
</svg>
