<?xml version="1.0" encoding="UTF-8" standalone="no"?>
<!DOCTYPE svg PUBLIC "-//W3C//DTD SVG 1.1//EN" "http://www.w3.org/Graphics/SVG/1.1/DTD/svg11.dtd">
<svg width="100%" height="100%" viewBox="0 0 140 220" version="1.1" xmlns="http://www.w3.org/2000/svg" xmlns:xlink="http://www.w3.org/1999/xlink" xml:space="preserve" xmlns:serif="http://www.serif.com/" style="fill-rule:evenodd;clip-rule:evenodd;stroke-linejoin:round;stroke-miterlimit:2;">
    <g id="people-16" transform="matrix(1.27,0,0,1.27,21.2156,-84.8)">
        <g transform="matrix(0.787402,0,0,0.787402,54.7091,224.573)">
            <path d="M0,-51.231L-0.116,-51.745L-0.067,-52L0.529,-52.458L0.546,-52.65L-0.92,-53.795L-0.964,-53.859L-1.09,-54.036L-1.057,-54.125L-1.034,-54.599L-1.072,-54.495L-1.034,-54.599L-0.673,-54.472L-0.693,-54.99L0.168,-54.414L0.539,-54.433L0.256,-56.492L0.287,-56.618L0.406,-57.093L-0.761,-61.759L-1.756,-61L-1.825,-60.948L-2.745,-60.74L-4.593,-60.323L-7.195,-59.736L-7.354,-59.718L-11.608,-59.252L-11.687,-59.243L-12.496,-59.154L-15.793,-59.035L-15.918,-59.031L-15.989,-59.028L-16.672,-59.004L-20.024,-58.883L-20.354,-58.871L-20.848,-58.853L-25.833,-59.039L-26.176,-59.052L-28.588,-59.417L-30.508,-59.708L-31.613,-59.875L-31.66,-59.906L-32.536,-60.486L-32.796,-56.388L-32.272,-49.987L-31.934,-45.862L-29.123,-28.615L-31.129,-45.947L-29.123,-28.615L-28.388,-22.267L-27.62,-9.474L-24.906,5.671L-22.859,6.388L-21.97,6.329L-21.405,6.291L-21.174,6.276L-19.734,6.18L-19.56,6.168L-18.615,6.106L-18.255,6.082L-18.159,6.068L-18.136,6.065L-17.529,5.981L-17.251,5.942L-17.029,5.911L-16.67,5.861L-16.561,5.846L-16.498,5.837L-14.287,5.529L-14.071,3.57L-15.063,-12.148L-15.92,-19.342L-15.223,-10.702L-15.92,-19.342L-16.406,-25.366L-18.071,-45.999L-16.406,-25.366L-15.934,-30.326L-15.848,-46.276L-16.069,-52.933L-15.963,-52.139L-15.181,-46.302L-12.958,-30.283L-11.311,-21.678L-11.303,-21.637L-10.33,-7.831L-10.33,-7.462L-7.125,10.528L-7.125,10.028L-5.012,8.576L-4.808,8.436L-4.757,8.402L-4.413,8.165L-4.261,8.06L-3.61,7.614L-3.368,7.598L-2.857,7.564L-1.322,7.462L-0.867,7.432L-0.478,7.406L0.061,7.371L0.915,7.314L1.002,7.308L2.943,8.536L3.45,8.857L2.044,-8.753L0.569,-22.213L0.562,-22.414L0.321,-28.646L0.889,-47.148L0.888,-47.321L0.889,-47.377L0.887,-47.379L0.889,-47.377L0.885,-47.5L0.842,-51.526L0.434,-51.383L0,-51.231Z" style="fill:rgb(0,188,218);fill-rule:nonzero;"/>
        </g>
        <g transform="matrix(0.787402,0,0,0.787402,28.9379,184.331)">
            <path d="M0,-4.161L0.458,1.12L-0.066,-5.281L0,-4.161Z" style="fill:rgb(205,152,99);fill-rule:nonzero;"/>
        </g>
        <g transform="matrix(0.787402,0,0,0.787402,52.4384,238.877)">
            <path d="M0,0.347L-1.188,0.227L-1.418,0.204L-1.453,-0.042L-1.605,-0.994L-1.996,-0.857L-2.057,-0.714L-1.417,1.296L-0.692,1.341L0.225,1.305L1.384,1.185L2.398,0.955L2.544,0.246L1.167,0.301L0,0.347Z" style="fill:rgb(154,100,56);fill-rule:nonzero;"/>
        </g>
        <g transform="matrix(-0.744084,0.257567,0.257567,0.744084,50.9241,238.239)">
            <rect x="-0.404" y="-0.313" width="0.457" height="0.245" style="fill:rgb(154,100,56);"/>
        </g>
        <g transform="matrix(0.787402,0,0,0.787402,56.8754,238.679)">
            <path d="M0,-1.051L-0.685,-1.506L-2.027,-1.453L-3.18,-0.925L-4.893,-0.371L-6.597,-0.03L-7.088,0.209L-7.053,0.455L-6.579,0.234L-4.875,-0.106L-3.162,-0.661L-2.038,-1.235L-0.593,-1.292L0.018,-0.787L0.788,-0.331L1.389,-0.082L1.371,-0.347L0.77,-0.595L0,-1.051Z" style="fill:rgb(154,100,56);fill-rule:nonzero;"/>
        </g>
        <g transform="matrix(0.787402,0,0,0.787402,39.7848,238.07)">
            <path d="M0,1.107L-1.818,1.534L-3.047,1.396L-4.371,1.346L-4.955,1.415L-5.588,0.894L-6.063,-0.197L-6.042,0.057L-5.567,1.148L-4.934,1.668L-4.432,1.587L-3.006,1.642L-1.796,1.788L0.021,1.36L1.82,0.357L2.375,-0.419L2.375,-0.681L1.799,0.103L0,1.107Z" style="fill:rgb(154,100,56);fill-rule:nonzero;"/>
        </g>
        <g transform="matrix(0.787402,0,0,0.787402,41.3091,233.824)">
            <path d="M0,0.326L0.256,1.377L0.464,1.385L0.916,0.598L1.148,-1.059L0.485,-0.416L0,0.326Z" style="fill:rgb(154,100,56);fill-rule:nonzero;"/>
        </g>
        <g transform="matrix(0.787402,0,0,0.787402,41.6935,233.17)">
            <path d="M0,0.15L-0.534,0.967L-0.517,1.039L-0.488,1.156L-0.003,0.414L0.66,-0.228L0.778,-0.741L0.781,-1.006L0.662,-0.493L0,0.15Z" style="fill:rgb(154,100,56);fill-rule:nonzero;"/>
        </g>
        <g transform="matrix(0.787402,0,0,0.787402,53.1878,238.746)">
            <path d="M0,-4.792L-2.24,-4.394L-2.242,-4.386L-2.498,-3.256L-2.677,-2.473L-2.76,-2.103L-2.596,-1.073L-2.557,-0.828L-2.404,0.123L-1.913,-0.116L-0.21,-0.456L1.503,-1.011L2.656,-1.539L3.998,-1.592L4.683,-1.137L5.453,-0.681L6.054,-0.432L5.984,-2.871L4.014,-4.642L3.093,-4.915L0,-4.792Z" style="fill:rgb(242,211,173);fill-rule:nonzero;"/>
        </g>
        <g transform="matrix(0.787402,0,0,0.787402,51.0142,234.709)">
            <path d="M0,3.024L0.084,2.655L0.262,1.871L0.519,0.742L0.521,0.734L0.588,0.223L0.115,-0.593L-0.293,-1.31L-0.446,2.056L-0.285,4.334L-0.225,4.19L0.165,4.055L0,3.024Z" style="fill:rgb(242,211,173);fill-rule:nonzero;"/>
        </g>
        <g transform="matrix(0.787402,0,0,0.787402,41.583,233.912)">
            <path d="M0,-6L-0.271,-5.234L-0.713,-3.042L-0.678,-1.928L-0.66,-1.358L-0.652,-1.103L-0.65,-1.026L-0.394,0.024L0.14,-0.793L0.803,-1.435L0.921,-1.948L0.756,-4.257L0.172,-6.024L0.109,-6.015L0,-6Z" style="fill:rgb(242,211,173);fill-rule:nonzero;"/>
        </g>
        <g transform="matrix(0.787402,0,0,0.787402,41.2867,238.209)">
            <path d="M0,-5.36L-0.018,-5.432L-0.273,-6.483L-2.654,-4.715L-5.706,-4.831L-6.443,-6.718L-8.254,-2.739L-7.971,-0.373L-7.496,0.717L-6.863,1.238L-6.278,1.17L-4.954,1.22L-3.725,1.358L-1.907,0.931L-0.109,-0.073L0.467,-0.857L0.51,-3.264L0.284,-4.192L0.028,-5.243L0,-5.36Z" style="fill:rgb(242,211,173);fill-rule:nonzero;"/>
        </g>
        <g transform="matrix(0.787402,0,0,0.787402,22.1475,174.192)">
            <path d="M0,2.743L-0.315,2.67L-0.379,2.389L-1.202,2.268L-2.171,1.076L-2.477,-0.325L-2.634,-0.054L-2.275,1.591L-1.306,2.784L0.629,3.068L0.011,2.814L0,2.743Z" style="fill:rgb(22,22,22);fill-rule:nonzero;"/>
        </g>
        <g transform="matrix(0.787402,0,0,0.787402,25.7907,175.688)">
            <path d="M0,0.321L0.547,0.382L0.449,-0.061L0.384,-0.05L0.33,0.027L0.216,-0.02L0.063,0.008L0,0.321Z" style="fill:rgb(22,22,22);fill-rule:nonzero;"/>
        </g>
        <g transform="matrix(0.787402,0,0,0.787402,14.9563,237.116)">
            <path d="M0,-15.561L-0.376,-15.5L-0.487,-15.294L-3.515,-0.164L-3.446,-0.169L-3.085,-0.199L-3.026,-0.204L-2.675,-0.084L-2.443,-0.005L-2.434,0L0.638,-15.21L0.42,-15.44L0,-15.561Z" style="fill:rgb(238,49,36);fill-rule:nonzero;"/>
        </g>
        <g transform="matrix(0.787402,0,0,0.787402,22.5692,225.045)">
            <path d="M0,-46.112L-0.42,-46.233L-0.796,-46.172L-0.907,-45.965L-10.156,0.036L-10.044,-0.17L-9.668,-0.23L-9.249,-0.11L-9.031,0.121L0.197,-45.778L0.218,-45.881L0,-46.112Z" style="fill:rgb(254,254,254);fill-rule:nonzero;"/>
        </g>
        <g transform="matrix(0.787402,0,0,0.787402,25.6774,185.252)">
            <path d="M0,-11.11L0.019,-11.203L0.144,-11.826L0.207,-12.139L0.224,-12.221L0.397,-13.087L0.169,-13.562L0.273,-14.634L0.24,-14.909L0.138,-15.179L-0.035,-15.835L-0.327,-15.869L-0.449,-15.853L-0.784,-15.508L-0.853,-15.479L-0.848,-15.31L-1.204,-13.502L-1.362,-12.583L-1.398,-12.391L-1.417,-12.274L-1.885,-12.294L-2.087,-11.82L-2.147,-11.679L-2.164,-11.595L-2.31,-10.872L-2.35,-10.67L-2.351,-10.667L-5.211,3.561L-4.854,4.572L-4.743,4.365L-4.367,4.304L-3.947,4.425L-3.73,4.656L-3.75,4.759L-3.204,4.137L-2.983,3.728L-0.309,-9.573L-0.141,-10.41L0,-11.11Z" style="fill:rgb(40,40,40);fill-rule:nonzero;"/>
        </g>
        <g transform="matrix(0.787402,0,0,0.787402,26.1445,175.756)">
            <path d="M0,-0.148L0.098,0.296L0.113,0.297L0.209,-0.185L0.152,-0.445L-0.014,-0.21L0,-0.148Z" style="fill:rgb(40,40,40);fill-rule:nonzero;"/>
        </g>
        <g transform="matrix(0.787402,0,0,0.787402,26.8436,170.63)">
            <path d="M0,0.094L-0.431,-0.364L-0.073,0.458L0,0.094Z" style="fill:rgb(40,40,40);fill-rule:nonzero;"/>
        </g>
        <g transform="matrix(0.787402,0,0,0.787402,21.2626,172.937)">
            <path d="M0,-1.064L0.753,-1.313L1.017,-1.4L1.626,-1.602L1.979,-1.718L2.91,-2.026L3.095,-2.087L3.494,-2.083L3.75,-2.08L4.134,-2.076L4.939,-2.067L5.544,-2.061L5.844,-1.613L5.922,-2.167L5.647,-2.576L4.971,-2.584L4.388,-2.59L3.822,-2.596L3.447,-2.6L3.199,-2.603L2.938,-2.516L2.121,-2.246L1.633,-2.085L1.105,-1.91L0.878,-1.835L0.104,-1.579L-1.407,1.024L-1.511,1.539L-1.354,1.268L0,-1.064Z" style="fill:rgb(40,40,40);fill-rule:nonzero;"/>
        </g>
        <g transform="matrix(0.787402,0,0,0.787402,27.6278,175.82)">
            <path d="M0,-20.379L-0.963,-21.03L-1.054,-21.092L-1.637,-21.486L-3.274,-21.462L-3.379,-21.46L-4.848,-21.438L-4.922,-21.437L-5.116,-21.434L-5.148,-21.433L-5.205,-21.432L-5.52,-20.46L-5.555,-20.353L-6.404,-8.867L-7.206,-5.497L-6.978,-5.572L-6.45,-5.747L-5.962,-5.908L-5.146,-6.178L-4.885,-6.264L-4.637,-6.261L-4.261,-6.258L-3.696,-6.251L-3.112,-6.245L-2.436,-6.238L-2.162,-5.828L-2.24,-5.274L-2.54,-5.722L-3.145,-5.729L-3.95,-5.738L-4.334,-5.742L-4.589,-5.745L-4.988,-5.749L-5.173,-5.688L-6.105,-5.38L-6.457,-5.263L-7.067,-5.061L-7.33,-4.974L-7.852,-2.781L-7.758,-1.516L-7.339,0.321L-7.275,0.601L-6.96,0.674L-6.966,0.636L-6.985,0.505L-7.193,-0.9L-7.325,-1.789L-7.327,-1.908L-7.331,-2.13L-7.355,-3.41L-6.765,-2.039L-6.745,-1.948L-6.295,0.129L-6.238,0.388L-6.233,0.391L-4.799,1.101L-4.787,1.107L-4.641,0.384L-4.711,0.287L-4.954,-0.053L-4.968,-0.071L-5.029,-0.302L-5.441,-1.864L-5.551,-2.28L-5.641,-2.62L-5.551,-2.28L-5.441,-1.864L-5.029,-0.302L-4.968,-0.071L-4.954,-0.053L-4.711,0.287L-4.641,0.384L-4.624,0.299L-4.564,0.159L-4.362,-0.315L-3.894,-0.295L-3.875,-0.413L-4.053,-0.536L-3.839,-0.605L-3.682,-1.523L-3.325,-3.331L-3.33,-3.5L-3.331,-3.52L-3.261,-3.53L-2.926,-3.875L-2.804,-3.891L-2.512,-3.856L-2.339,-3.2L-2.237,-2.93L-2.204,-2.656L-2.308,-1.583L-2.08,-1.109L-2.254,-0.243L-2.118,-0.188L-2.003,-0.141L-1.949,-0.218L-1.898,-0.291L-1.732,-0.527L-0.623,-2.103L-0.406,-4.615L-1.069,-6.135L-1.427,-6.956L-2.557,-9.336L-0.754,-17.123L-0.688,-17.405L0,-20.379Z" style="fill:rgb(205,152,99);fill-rule:nonzero;"/>
        </g>
        <g transform="matrix(0.787402,0,0,0.787402,23.8489,173.423)">
            <path d="M0,4.146L-1.433,3.436L-1.439,3.433L-1.495,3.174L-1.946,1.097L-1.965,1.006L-2.556,-0.365L-2.532,0.915L-2.528,1.137L-2.526,1.256L-2.394,2.146L-2.186,3.55L-2.167,3.681L-2.161,3.719L-2.15,3.791L-1.531,4.045L-0.395,4.511L-0.028,4.354L0.013,4.152L0,4.146Z" style="fill:rgb(205,152,99);fill-rule:nonzero;"/>
        </g>
        <g transform="matrix(0.787402,0,0,0.787402,25.7907,176.568)">
            <path d="M0,-0.796L-0.125,-0.173L-0.144,-0.08L-0.104,0L0.168,-0.067L0.651,-0.328L0.719,-0.716L0.562,-0.733L0.547,-0.735L0,-0.796Z" style="fill:rgb(205,152,99);fill-rule:nonzero;"/>
        </g>
        <g transform="matrix(0.787402,0,0,0.787402,25.6774,177.757)">
            <path d="M0,-1.591L-0.141,-0.891L-0.309,-0.054L-0.245,0L0.284,-0.324L0.45,-0.686L0.04,-1.511L0,-1.591Z" style="fill:rgb(205,152,99);fill-rule:nonzero;"/>
        </g>
        <g transform="matrix(0.787402,0,0,0.787402,58.2374,181.883)">
            <path d="M0,-2.349L-0.1,-1.658L-0.32,-1.216L-0.46,-0.937L-1.464,1.074L-1.402,1.161L-0.074,-1.037L0.226,-3.118L0.167,-3.51L0.035,-2.594L0,-2.349Z" style="fill:rgb(205,152,99);fill-rule:nonzero;"/>
        </g>
        <g transform="matrix(0.787402,0,0,0.787402,54.1634,182.113)">
            <path d="M0,-1.066L0.02,-0.548L1.568,0L1.589,-0.004L1.44,-0.104L1.287,-0.111L1.273,-0.215L0.861,-0.49L0,-1.066Z" style="fill:rgb(205,152,99);fill-rule:nonzero;"/>
        </g>
        <g transform="matrix(0.787402,0,0,0.787402,55.5242,182.048)">
            <path d="M0,0.06L0.34,0.011L0.022,-0.005L-0.289,-0.02L-0.139,0.08L0,0.06Z" style="fill:rgb(205,152,99);fill-rule:nonzero;"/>
        </g>
        <g transform="matrix(0.787402,0,0,0.787402,56.0965,179.688)">
            <path d="M0,2.421L0.066,2.407L0,2.421L-0.162,2.455L-0.194,2.732L-0.229,2.873L-0.136,2.971L0.246,2.916L0.36,2.9L0.372,2.884L0.56,2.04L0.616,1.785L0.535,1.116L0.616,1.785L0.705,1.386L0.81,0.912L0.891,0.543L0.9,0.505L0.959,0.238L0.821,-0.007L0.75,-0.13L0.513,-0.55L0.379,-0.248L0.19,0.178L0.257,1.362L0,2.421Z" style="fill:rgb(205,152,99);fill-rule:nonzero;"/>
        </g>
        <g transform="matrix(0.787402,0,0,0.787402,59.4597,184.02)">
            <path d="M0,-29.99L-0.401,-30.02L-1.44,-30.096L-2.25,-30.156L-3.689,-30.262L-4.249,-30.157L-5.299,-29.959L-5.819,-29.861L-5.884,-29.848L-5.925,-29.841L-5.828,-28.708L-5.689,-27.069L-3.423,-12.249L-3.282,-12.639L-3.781,-11.014L-2.928,-12.947L-3.781,-11.014L-3.861,-10.831L-4.073,-10.349L-5.091,-7.74L-5.621,-5.617L-5.628,-5.59L-5.746,-5.115L-5.777,-4.989L-5.494,-2.93L-5.453,-2.636L-5.439,-2.532L-5.287,-2.524L-4.976,-2.509L-4.658,-2.493L-4.535,-2.487L-4.529,-2.512L-4.261,-4.915L-4.195,-5.064L-4.081,-5.323L-3.892,-5.749L-3.759,-6.05L-3.521,-5.631L-3.451,-5.508L-3.312,-5.263L-3.21,-5.722L-3.312,-5.263L-3.371,-4.996L-3.38,-4.958L-3.462,-4.589L-3.567,-4.114L-3.655,-3.716L-3.711,-3.461L-3.899,-2.617L-3.911,-2.601L-4.317,-2.089L-4.762,-1.528L-5.052,-1.304L-5.269,-1.136L-5.505,-0.955L-6.1,-0.497L-6.149,-0.242L-6.033,0.272L-5.599,0.12L-5.192,-0.023L-4.628,-0.22L-3.456,-1.203L-3.074,-1.524L-3.066,-1.539L-3.016,-1.639L-2.012,-3.65L-1.873,-3.929L-1.652,-4.371L-1.552,-5.062L-1.517,-5.307L-1.385,-6.224L-0.985,-12.601L0.16,-28.12L0.092,-28.912L0,-29.99Z" style="fill:rgb(205,152,99);fill-rule:nonzero;"/>
        </g>
        <g transform="matrix(0.787402,0,0,0.787402,57.0395,183.051)">
            <path d="M0,-0.293L-0.382,0.028L0.008,-0.012L0.119,-0.321L0.008,-0.308L0,-0.293Z" style="fill:rgb(205,152,99);fill-rule:nonzero;"/>
        </g>
        <g transform="matrix(0.787402,0,0,0.787402,55.1656,181.713)">
            <path d="M0,0.294L-0.041,0L-0.411,0.019L0,0.294Z" style="fill:rgb(205,152,99);fill-rule:nonzero;"/>
        </g>
        <g transform="matrix(0.787402,0,0,0.787402,55.4149,182.658)">
            <path d="M0,-0.695L-0.022,-0.692L-1.569,-1.239L-1.93,-1.367L-1.954,-0.893L-1.986,-0.804L-1.86,-0.626L-1.816,-0.563L-0.351,0.582L-0.235,0.672L-0.132,0.593L0.085,0.425L0.375,0.202L0.82,-0.36L1.226,-0.872L1.111,-0.856L0.73,-0.8L0.608,-0.783L0.602,-0.758L0.479,-0.764L0.139,-0.715L0,-0.695Z" style="fill:rgb(205,152,99);fill-rule:nonzero;"/>
        </g>
        <g transform="matrix(0.787402,0,0,0.787402,55.204,232.401)">
            <path d="M0,1.13L-0.029,1.085L-0.742,-0.037L-1,-1.805L-1.107,-2.535L-1.496,-2.51L-1.95,-2.48L-3.486,-2.378L-3.997,-2.344L-4.239,-2.328L-4.889,-1.881L-5.041,-1.777L-5.386,-1.54L-5.436,-1.505L-5.64,-1.365L-5.172,0.305L-5.475,1.206L-5.614,1.621L-5.206,2.338L-4.733,3.154L-4.719,3.049L-4.333,0.105L-4.719,3.049L-4.733,3.154L-4.8,3.665L-2.561,3.266L0.532,3.144L1.453,3.417L0.043,1.197L0.015,1.153L0,1.13Z" style="fill:rgb(205,152,99);fill-rule:nonzero;"/>
        </g>
        <g transform="matrix(0.787402,0,0,0.787402,39.1966,229.187)">
            <path d="M0,6.742L2.381,4.974L2.379,4.898L2.37,4.642L2.353,4.072L2.318,2.959L2.759,0.767L3.031,0L2.672,0.051L2.45,0.082L2.171,0.12L1.565,0.205L1.542,0.208L1.446,0.222L1.086,0.245L0.141,0.308L-0.033,0.32L-1.473,0.415L-1.704,0.431L-2.269,0.468L-3.789,4.739L-3.052,6.626L0,6.742Z" style="fill:rgb(205,152,99);fill-rule:nonzero;"/>
        </g>
        <g transform="matrix(0.787402,0,0,0.787402,28.087,161.97)">
            <path d="M0,-2.321L-0.105,-2.465L-0.583,-2.789L-1.272,0.185L-1.337,0.468L0.786,-0.867L0.745,-1.295L0,-2.321Z" style="fill:rgb(142,142,142);fill-rule:nonzero;"/>
        </g>
        <g transform="matrix(0,-0.787402,-0.787402,0,44.7641,185.427)">
            <path d="M-3.439,3.217L-3.25,3.217L2.423,3.332L3.217,3.439L-3.439,3.217Z" style="fill:rgb(142,142,142);fill-rule:nonzero;"/>
        </g>
        <g transform="matrix(0.787402,0,0,0.787402,22.8086,159.699)">
            <path d="M0,-0.944L0.6,0.014L0.915,-0.958L0,-0.944Z" style="fill:rgb(142,142,142);fill-rule:nonzero;"/>
        </g>
        <g transform="matrix(0.066956,0.78455,0.78455,-0.066956,60.3876,160.244)">
            <path d="M0.104,-1.192L1.186,-1.192L1.022,0.137L0.228,-0.417L0.104,-1.192Z" style="fill:rgb(142,142,142);fill-rule:nonzero;"/>
        </g>
        <g transform="matrix(0.787402,0,0,0.787402,50.7627,233.351)">
            <path d="M0,-2.572L-2.114,-1.12L-2.114,-0.621L0.166,0L0.469,-0.901L0,-2.572Z" style="fill:rgb(142,142,142);fill-rule:nonzero;"/>
        </g>
        <g transform="matrix(0.755979,0.220222,0.220222,-0.755979,53.6793,160.899)">
            <path d="M0.066,-0.206L1.635,-0.206L1.226,0.855L1.171,0.827L0.066,-0.206Z" style="fill:rgb(142,142,142);fill-rule:nonzero;"/>
        </g>
        <g transform="matrix(0.787402,0,0,0.787402,37.7633,129.982)">
            <path d="M0,-2.497L2.526,-2.398L3.71,-2.01L3.723,-1.087L3.174,0.534L2.457,0.888L0.398,0.808L-0.35,0.443L-0.688,-0.262L-1.032,-2.162L0,-2.497ZM6.871,-2.458L9.398,-2.626L10.44,-2.32L10.15,-0.411L9.832,0.303L9.093,0.688L7.034,0.826L6.306,0.492L5.71,-1.114L5.697,-2.037L6.871,-2.458ZM11.671,-3.151L11.592,-2.982L11.521,-2.887L11.671,-3.151ZM-1.984,-2.295L-1.53,-1.767L-1.261,-1.605L-1.209,-1.573L-1.075,-0.832L-0.957,-0.183L-0.585,0.593L-0.555,0.656L0.342,1.094L0.889,1.116L1.127,1.125L2.529,1.18L2.943,0.976L3.079,0.908L3.405,0.748L3.416,0.715L3.537,0.357L3.589,0.204L3.719,-0.178L4.005,-1.026L4.038,-1.05L4.289,-1.237L4.334,-1.271L4.71,-1.552L5.068,-1.3L5.119,-1.264L5.371,-1.086L5.43,-1.045L5.729,-0.24L5.875,0.156L5.934,0.313L6.064,0.665L6.081,0.711L6.397,0.856L6.534,0.919L6.97,1.119L8.357,1.027L8.588,1.011L9.157,0.973L10.043,0.51L10.076,0.436L10.422,-0.339L10.51,-0.917L10.634,-1.736L10.686,-1.769L10.95,-1.939L11.372,-2.442L11.406,-2.483L11.429,-2.51L11.913,-3.087L11.912,-3.169L11.94,-3.21L12.012,-3.302L12.018,-3.309L12.258,-3.677L11.828,-3.326L11.719,-3.237L11.361,-2.945L11.341,-2.927L10.94,-2.601L10.599,-2.578L10.494,-2.609L10.304,-2.665L9.592,-2.874L9.442,-2.918L9.319,-2.91L8.937,-2.884L8.291,-2.841L8.172,-2.833L8.012,-2.823L7.199,-2.768L6.867,-2.747L6.828,-2.744L5.934,-2.424L5.413,-2.237L5.033,-2.158L4.702,-2.089L4.339,-2.154L4.241,-2.172L3.988,-2.217L3.401,-2.41L2.561,-2.685L2.528,-2.687L2.153,-2.701L1.373,-2.732L1.179,-2.739L1.033,-2.745L0.409,-2.769L0.005,-2.785L-0.052,-2.787L-0.243,-2.726L-0.925,-2.504L-1.123,-2.44L-1.197,-2.416L-1.539,-2.429L-1.958,-2.761L-1.985,-2.781L-2.294,-3.026L-2.075,-2.733L-2.103,-2.566L-2.388,-2.85L-2.484,-2.878L-2.097,-2.428L-1.984,-2.295Z" style="fill:rgb(142,142,142);fill-rule:nonzero;"/>
        </g>
        <g transform="matrix(0.787402,0,0,0.787402,55.4984,233.344)">
            <path d="M0,-3.831L-0.087,-3.825L-0.941,-3.769L-1.48,-3.733L-1.374,-3.003L-1.116,-1.235L-0.402,-0.113L-0.374,-0.068L-0.359,-0.044L-0.331,0L2.051,-0.469L2.448,-2.282L1.94,-2.603L0,-3.831Z" style="fill:rgb(142,142,142);fill-rule:nonzero;"/>
        </g>
        <g transform="matrix(0.787402,0,0,0.787402,56.8893,238.752)">
            <path d="M0,-0.879L-0.611,-1.385L-2.056,-1.327L-3.18,-0.753L-4.893,-0.199L-6.597,0.142L-7.071,0.362L-6.841,0.386L-5.653,0.506L-4.486,0.46L-3.108,0.405L0.264,0.271L1.132,0.037L1.371,-0.175L0.77,-0.423L0,-0.879Z" style="fill:rgb(142,142,142);fill-rule:nonzero;"/>
        </g>
        <g transform="matrix(-0.777347,0.125429,0.125429,0.777347,37.977,239.343)">
            <path d="M2.104,-0.37L2.613,-0.37L-0.466,0.249L0.705,-0.089L2.104,-0.37Z" style="fill:rgb(142,142,142);fill-rule:nonzero;"/>
        </g>
        <g transform="matrix(0.787402,0,0,0.787402,55.9434,180.235)">
            <path d="M0,2.038L0.033,1.761L0.27,-0.257L-0.063,2.295L-0.035,2.179L0,2.038Z" style="fill:rgb(142,142,142);fill-rule:nonzero;"/>
        </g>
        <g transform="matrix(0.787402,0,0,0.787402,37.362,137.01)">
            <path d="M0,-0.5L0.184,-1.046L-0.464,-0.917L-0.58,-0.408L-0.555,-0.268L-0.41,0.546L-0.343,0.519L0,-0.5Z" style="fill:rgb(142,142,142);fill-rule:nonzero;"/>
        </g>
        <g transform="matrix(0.787402,0,0,0.787402,29.8171,137.948)">
            <path d="M0,50.139L1.105,50.306L3.025,50.597L5.437,50.962L5.78,50.975L10.765,51.161L11.258,51.143L11.589,51.131L14.941,51.01L15.624,50.986L15.694,50.983L15.82,50.979L19.116,50.86L19.926,50.771L20.005,50.763L24.258,50.296L24.418,50.279L27.019,49.691L28.868,49.274L29.788,49.066L29.857,49.014L30.852,48.255L30.897,48.221L31.954,47.415L29.957,36.1L29.193,28.261L29.871,19.208L29.793,18.041L29.871,19.208L30.182,23.857L30.311,29.364L31.661,28.682L31.721,28.671L31.762,28.663L31.827,28.651L32.347,28.553L33.397,28.355L33.958,28.249L35.396,28.355L36.206,28.415L37.245,28.492L37.646,28.521L38.428,28.579L39.048,29.322L34.675,10.393L35.215,13.881L34.675,10.393L34.399,8.611L33.922,7.143L33.911,7.109L33.909,7.101L33.284,5.177L32.863,3.773L30.967,1.448L24.356,-1.018L24.345,-1.022L24.242,-0.897L24.047,-0.455L23.915,-0.545L22.389,0.118L22.273,0.168L21.534,0.49L21.526,0.453L21.395,0.542L21.188,0.683L20.467,1.177L20.198,1.361L20.097,1.388L17.393,2.132L16.946,2.255L16.587,2.353L15.049,2.326L14.332,2.314L13.49,2.052L12.641,1.787L10.742,1.195L10.652,1.129L9.931,0.603L9.334,0.168L9.314,0.154L9.497,1.178L8.532,1.307L7.552,0.701L6.802,0.238L6.123,-0.182L6.052,-0.147L5.752,-0.79L5.603,-0.976L5.601,-0.984L-0.045,0.906L-1.544,2.965L-0.047,1.63L-1.544,2.965L-2.437,3.761L-3.637,7.252L-5.303,12.184L-8.901,26.68L-7.986,26.666L-7.928,26.665L-7.896,26.665L-7.702,26.662L-7.629,26.661L-6.16,26.638L-6.054,26.637L-4.417,26.612L-3.834,27.007L-3.743,27.068L-2.78,27.719L-2.302,28.043L-2.197,28.187L-1.452,29.213L-1.411,29.641L0.188,23.486L0.547,18.818L0.74,16.309L1.06,27.652L1.062,27.733L1.086,28.601L-0.137,33.529L-1.096,37.388L-2.255,48.647L-0.934,49.521L-0.923,49.528L-0.047,50.108L0,50.139Z" style="fill:rgb(250,192,41);fill-rule:nonzero;"/>
        </g>
        <g transform="matrix(0.787402,0,0,0.787402,30.2476,157.745)">
            <path d="M0,-6.325L0.513,2.509L0.193,-8.834L0,-6.325Z" style="fill:rgb(250,192,41);fill-rule:nonzero;"/>
        </g>
        <g transform="matrix(0.787402,0,0,0.787402,30.6534,164.348)">
            <path d="M0,-5.796L-1.2,0L0.024,-4.928L0,-5.796Z" style="fill:rgb(250,192,41);fill-rule:nonzero;"/>
        </g>
        <g transform="matrix(0.787402,0,0,0.787402,12.8499,239.47)">
            <path d="M0,-3.073L-0.351,-3.193L-0.41,-3.188L-0.771,-3.158L-0.84,-3.152L-0.935,-3.144L-1.217,-3.073L-1.453,-2.896L-1.63,-2.627L-2.097,-2.111L-2.217,-1.749L-2.225,-1.373L-2.119,-1.008L-1.908,-0.679L-1.566,-0.212L-1.363,-0.079L-0.779,0.12L-0.195,0.072L0.086,0L0.323,-0.176L0.742,-0.639L0.967,-0.962L1.087,-1.323L1.094,-1.699L0.989,-2.064L0.57,-2.636L0.435,-2.86L0.241,-2.988L0.233,-2.994L0,-3.073Z" style="fill:rgb(250,192,41);fill-rule:nonzero;"/>
        </g>
        <g transform="matrix(0.787402,0,0,0.787402,46.9527,127.709)">
            <path d="M0,-0.264L-0.15,0L-0.078,-0.095L0,-0.264Z" style="fill:rgb(63,38,19);fill-rule:nonzero;"/>
        </g>
        <g transform="matrix(0.787402,0,0,0.787402,34.3463,120.817)">
            <path d="M0,20.966L0.3,21.609L0.37,21.574L1.05,21.994L1.8,22.458L2.78,23.064L3.745,22.935L3.562,21.91L3.44,21.224L3.42,21.112L3.275,20.297L3.25,20.157L3.366,19.649L3.398,19.512L3.722,18.096L3.696,16.421L3.684,15.651L3.508,14.9L3.445,14.633L2.683,12.803L2.48,13.194L2.306,13.189L2.145,13.185L1.659,12.035L1.193,10.93L1.001,9.607L0.88,8.762L0.946,8.764L1.009,8.753L1.207,8.504L1.052,8.254L1.058,8.098L1.208,8.17L1.281,8.2L1.418,8.311L1.47,8.359L1.676,8.57L1.786,8.685L2.337,9.35L2.242,9.212L1.855,8.762L1.951,8.79L2.237,9.074L2.264,8.907L2.046,8.614L2.355,8.859L2.387,7.594L2.551,7.241L2.765,6.782L2.851,6.594L3.091,6.078L3.657,5.839L4.474,5.495L4.605,5.297L5.658,4.758L6.321,4.326L7.42,4.253L7.503,4.218L8.927,3.618L10.258,4.253L10.447,4.261L11.319,4.388L11.498,4.411L11.612,4.482L12.057,4.747L13.213,5.315L13.721,5.904L14.286,6.173L14.859,6.446L12.933,4.907L14.859,6.446L15.003,6.624L15.168,6.827L15.462,7.189L15.615,7.377L15.701,8.696L16.058,8.404L16.168,8.314L16.598,7.963L16.357,8.331L16.585,8.103L16.636,8.06L16.771,7.945L16.844,7.912L16.995,7.836L17.008,7.991L16.861,8.245L17.072,8.489L17.136,8.497L17.202,8.493L17.108,9.347L16.962,10.671L16.48,11.912L16.075,12.955L15.937,12.964L15.74,12.976L15.52,12.592L14.881,14.278L14.799,14.69L14.644,15.47L14.657,16.234L14.686,17.915L15.061,19.27L15.165,19.645L15.233,19.891L15.283,20.105L15.507,21.067L15.764,22.171L15.774,22.209L15.782,22.246L16.521,21.925L16.637,21.875L18.163,21.212L18.295,21.301L18.49,20.86L18.593,20.734L18.604,20.738L19.269,17.571L18.857,15.037L18.293,6.248L17.039,2.523L17.17,3.107L18.121,8.732L17.17,3.107L17.039,2.523L15.623,0.883L14.453,-0.589L11.621,-1.756L8.861,-2.098L6.114,-1.665L3.33,-0.406L2.187,1.105L0.849,2.79L0.724,3.378L-0.269,6.554L-0.531,15.356L-0.861,17.902L-0.151,20.772L-0.15,20.78L0,20.966Z" style="fill:rgb(63,38,19);fill-rule:nonzero;"/>
        </g>
        <g transform="matrix(-0.331762,0.714097,0.714097,0.331762,36.8304,127.505)">
            <path d="M-0.882,-1.075L-0.493,-1.075L0.668,-0.571L0.675,-0.539L-0.882,-1.075Z" style="fill:rgb(63,38,19);fill-rule:nonzero;"/>
        </g>
        <g transform="matrix(0.787402,0,0,0.787402,37.606,132.735)">
            <path d="M0,4.01L0.001,4.005L0.017,3.411L0.053,2.062L-0.156,1.243L-0.452,0.081L-0.594,-0.261L-0.695,-0.503L-0.632,-0.236L-0.455,0.515L-0.443,1.284L-0.417,2.96L-0.742,4.376L-0.773,4.513L-0.126,4.384L0,4.01Z" style="fill:rgb(63,38,19);fill-rule:nonzero;"/>
        </g>
        <g transform="matrix(-0.0512305,-0.785733,-0.785733,0.0512305,47.1945,126.945)">
            <path d="M-0.871,0.674L0.451,0.674L0.649,0.815L-0.886,0.696L-0.871,0.674Z" style="fill:rgb(63,38,19);fill-rule:nonzero;"/>
        </g>
        <g transform="matrix(0.787402,0,0,0.787402,37.4875,128.367)">
            <path d="M0,2.494L0.748,2.859L2.807,2.94L3.525,2.586L4.073,0.965L4.06,0.041L2.877,-0.347L0.35,-0.446L-0.681,-0.111L-0.338,1.79L0,2.494Z" style="fill:rgb(214,238,246);fill-rule:nonzero;"/>
        </g>
        <g transform="matrix(0.787402,0,0,0.787402,42.7285,128.178)">
            <path d="M0,2.783L0.729,3.117L2.788,2.98L3.526,2.594L3.844,1.881L4.134,-0.028L3.092,-0.334L0.565,-0.166L-0.608,0.254L-0.595,1.178L0,2.783Z" style="fill:rgb(214,238,246);fill-rule:nonzero;"/>
        </g>
        <g transform="matrix(0.787402,0,0,0.787402,47.839,139.28)">
            <path d="M0,-14.951L-0.064,-14.959L-0.274,-15.203L-0.128,-15.457L-0.141,-15.612L-0.291,-15.536L-0.365,-15.503L-0.5,-15.388L-0.55,-15.346L-0.778,-15.117L-0.784,-15.11L-0.856,-15.018L-0.884,-14.977L-0.883,-14.895L-1.367,-14.318L-1.39,-14.291L-1.424,-14.25L-1.846,-13.747L-2.11,-13.577L-2.162,-13.544L-2.286,-12.725L-2.374,-12.147L-2.72,-11.372L-2.753,-11.298L-3.639,-10.835L-4.208,-10.797L-4.439,-10.782L-5.826,-10.689L-6.262,-10.889L-6.399,-10.952L-6.715,-11.097L-6.732,-11.143L-6.862,-11.495L-6.921,-11.653L-7.068,-12.048L-7.366,-12.853L-7.425,-12.894L-7.677,-13.073L-7.722,-12.938L-7.729,-13.108L-8.086,-13.36L-8.462,-13.079L-8.463,-12.926L-8.507,-13.046L-8.758,-12.858L-8.791,-12.834L-9.078,-11.986L-9.207,-11.605L-9.259,-11.451L-9.38,-11.093L-9.391,-11.06L-9.717,-10.9L-9.854,-10.832L-10.267,-10.628L-11.669,-10.683L-11.907,-10.692L-12.454,-10.714L-13.351,-11.152L-13.381,-11.215L-13.753,-11.991L-13.871,-12.64L-14.005,-13.381L-14.057,-13.413L-14.326,-13.576L-14.78,-14.103L-14.797,-14.124L-14.799,-14.098L-15.35,-14.763L-15.459,-14.878L-15.666,-15.089L-15.718,-15.138L-15.854,-15.248L-15.928,-15.278L-16.077,-15.35L-16.084,-15.194L-15.929,-14.944L-16.126,-14.695L-16.189,-14.684L-16.256,-14.686L-16.134,-13.841L-15.943,-12.518L-15.477,-11.413L-14.991,-10.264L-14.83,-10.259L-14.656,-10.254L-14.453,-10.645L-14.576,-11.793L-14.581,-11.842L-14.576,-11.793L-14.453,-10.645L-13.691,-8.816L-13.59,-8.573L-13.448,-8.231L-13.152,-7.069L-12.943,-6.251L-12.979,-4.901L-12.995,-4.307L-12.996,-4.302L-13.122,-3.929L-13.306,-3.383L-13.649,-2.364L-13.696,-2.224L-13.573,-1.538L-13.553,-1.523L-12.957,-1.089L-12.236,-0.562L-12.146,-0.497L-10.247,0.095L-9.397,0.36L-8.556,0.622L-7.839,0.634L-6.301,0.661L-5.941,0.563L-5.495,0.44L-2.791,-0.304L-2.689,-0.331L-2.421,-0.515L-1.699,-1.009L-1.615,-1.219L-1.371,-1.278L-1.628,-2.382L-1.853,-3.343L-1.903,-3.557L-1.971,-3.804L-2.074,-4.178L-2.449,-5.533L-2.479,-7.214L-2.492,-7.978L-2.337,-8.758L-2.255,-9.171L-1.616,-10.856L-1.537,-12.011L-1.531,-12.086L-1.537,-12.011L-1.616,-10.856L-1.395,-10.472L-1.198,-10.484L-1.06,-10.493L-0.656,-11.536L-0.174,-12.778L-0.028,-14.102L0.067,-14.955L0,-14.951ZM-1.46,-13.489L-1.447,-13.766L-1.426,-14.213L-1.447,-13.766L-1.46,-13.489ZM-1.515,-12.323L-1.53,-12.107L-1.515,-12.323L-1.477,-13.133L-1.472,-13.227L-1.477,-13.133L-1.515,-12.323Z" style="fill:rgb(205,152,99);fill-rule:nonzero;"/>
        </g>
        <g transform="matrix(0.787402,0,0,0.787402,36.8206,123.923)">
            <path d="M0,5.279L0.075,5.255L0.273,5.191L0.955,4.969L1.145,4.907L1.202,4.909L1.607,4.925L2.23,4.95L2.377,4.956L2.571,4.963L3.35,4.994L3.725,5.008L3.759,5.009L4.598,5.284L5.186,5.477L5.439,5.523L5.536,5.54L5.9,5.606L6.23,5.537L6.61,5.458L7.131,5.271L8.026,4.951L8.064,4.948L8.396,4.926L9.21,4.872L9.369,4.862L10.134,4.811L10.517,4.785L10.639,4.777L10.789,4.821L11.501,5.03L11.692,5.086L11.796,5.117L12.138,5.094L12.538,4.767L12.32,3.243L12.026,2.882L11.861,2.678L11.716,2.501L11.144,2.228L10.579,1.958L10.071,1.37L8.915,0.802L8.47,0.537L8.356,0.466L8.177,0.443L7.304,0.316L7.116,0.308L5.784,-0.327L4.361,0.273L4.278,0.308L3.178,0.381L2.516,0.813L1.463,1.352L1.331,1.55L0.515,1.894L-0.051,2.132L-0.291,2.649L-0.378,2.837L-0.591,3.296L-0.761,4.934L-0.342,5.266L0,5.279Z" style="fill:rgb(205,152,99);fill-rule:nonzero;"/>
        </g>
    </g>
</svg>
