<?xml version="1.0" encoding="UTF-8" standalone="no"?>
<!DOCTYPE svg PUBLIC "-//W3C//DTD SVG 1.1//EN" "http://www.w3.org/Graphics/SVG/1.1/DTD/svg11.dtd">
<svg width="100%" height="100%" viewBox="0 0 140 220" version="1.1" xmlns="http://www.w3.org/2000/svg" xmlns:xlink="http://www.w3.org/1999/xlink" xml:space="preserve" xmlns:serif="http://www.serif.com/" style="fill-rule:evenodd;clip-rule:evenodd;stroke-linejoin:round;stroke-miterlimit:2;">
    <g transform="matrix(1,0,0,1,-584.464,-1902.59)">
        <g id="people-17">
            <g>
                <g transform="matrix(1,0,0,1,678.562,2023.27)">
                    <path d="M0,-1.552L0.102,-1.419L-0.116,-1.487L-0.12,-1.558L-1.865,-2.537L-1.988,-2.754L-2.45,-1.635L-1.618,0.371L-1.103,0.584L-0.807,0.708L-0.673,0.764L-0.638,0.777L-0.592,0.797L0.388,1.202L0.606,1.11L0.885,0.995L1.678,0.668L2.393,0.371L2.436,0.271L2.556,-0.02L2.968,-1.019L3.225,-1.635L3,-2.173L1.977,-1.589L0,-1.552Z" style="fill:rgb(142,142,142);fill-rule:nonzero;"/>
                </g>
                <g transform="matrix(1,0,0,1,678.95,2115.57)">
                    <path d="M3.194,-17.955L-3.197,-17.955L-3.197,0L-2.26,0L-2.26,-11.643L2.259,-11.643L2.259,0L3.194,0L3.194,-17.955Z" style="fill:rgb(142,142,142);fill-rule:nonzero;"/>
                </g>
                <g transform="matrix(1,0,0,1,679.983,2056.23)">
                    <path d="M0,-7.801L-1.033,-7.385L-2.066,-7.801L-2.492,-8.805L-2.492,-9.787L-2.785,-9.787L-2.785,1.986L-2.492,1.986L-2.492,-0.263L-2.066,-1.266L-1.033,-1.682L0,-1.266L0.427,-0.263L0.427,1.986L0.684,1.986L0.684,-9.787L0.427,-9.787L0.427,-8.805L0,-7.801Z" style="fill:rgb(142,142,142);fill-rule:nonzero;"/>
                </g>
                <g transform="matrix(1,0,0,1,629.541,2115.57)">
                    <path d="M3.194,-17.955L-3.197,-17.955L-3.197,0L-2.26,0L-2.26,-11.643L2.259,-11.643L2.259,0L3.194,0L3.194,-17.955Z" style="fill:rgb(142,142,142);fill-rule:nonzero;"/>
                </g>
                <g transform="matrix(1,0,0,1,630.313,2021.02)">
                    <path d="M0,3.131L1.234,2.62L1.318,2.409L1.343,2.353L2.062,0.614L1.787,-0.051L0.508,0.691L-1.54,0.642L-3.222,-0.32L-3.61,0.614L-3.486,0.915L-2.876,2.388L-2.778,2.62L-2.637,2.679L-2.027,2.932L-1.456,3.168L-1.026,3.347L-0.772,3.451L0,3.131Z" style="fill:rgb(142,142,142);fill-rule:nonzero;"/>
                </g>
                <g transform="matrix(1,0,0,1,656.665,2065.36)">
                    <path d="M0,-5.953L-0.053,-10.756L-0.06,-11.377L-2.044,-11.377L-2.108,-10.756L-2.147,-10.392L-2.799,4.803L-2.823,5.424L0.529,5.424L0.501,4.803L0,-5.953Z" style="fill:rgb(142,142,142);fill-rule:nonzero;"/>
                </g>
                <g transform="matrix(1,0,0,1,638.43,2054.61)">
                    <path d="M0,15.558L-0.106,-0.001L-0.109,-0.621L-6.757,-0.621L-7.173,-0.237L-7.431,-0.001L-7.431,15.558L-6.757,16.179L0.004,16.179L0.004,16.075L0,15.558Z" style="fill:rgb(142,142,142);fill-rule:nonzero;"/>
                </g>
                <g transform="matrix(1,0,0,1,628.508,2049.7)">
                    <path d="M0,5.268L1.033,4.852L2.066,5.268L2.492,6.272L2.492,4.907L2.75,4.67L2.75,-3.253L2.492,-3.253L2.492,-2.27L2.066,-1.267L1.033,-0.851L0,-1.267L-0.43,-2.27L-0.43,-3.253L-0.719,-3.253L-0.719,8.521L-0.43,8.521L-0.43,6.272L0,5.268Z" style="fill:rgb(142,142,142);fill-rule:nonzero;"/>
                </g>
                <g transform="matrix(1,0,0,1,673.395,2068.97)">
                    <path d="M0,-13.17L-0.014,-12.979L-0.529,1.194L-0.553,1.815L3.01,1.815L3.684,1.194L3.684,-14.364L3.01,-14.985L0.049,-14.985L0.032,-14.364L0,-13.17Z" style="fill:rgb(142,142,142);fill-rule:nonzero;"/>
                </g>
                <g transform="matrix(1,0,0,1,647.645,1947.79)">
                    <path d="M0,10.252L0.367,11.972L1.999,14.04L2.965,14.06L4.004,13.748L6.444,13.733L8.227,13.631L10.004,13.733L12.44,13.748L13.483,14.06L14.449,14.04L16.081,11.972L16.448,10.252L16.768,9.308L16.8,9.21L16.966,8.73L17.491,5.72L16.275,0.464L14.41,-1.691L11.09,-3.043L8.224,-3.808L5.358,-3.043L2.037,-1.691L0.215,0.378L-1.043,5.72L-0.518,8.73L-0.356,9.21L-0.321,9.308L0,10.252Z" style="fill:rgb(221,221,221);fill-rule:nonzero;"/>
                </g>
                <g transform="matrix(1,0,0,1,673.575,2021.67)">
                    <path d="M0,-1.503L-0.716,-1.694L-1.389,-1.876L-1.583,-1.927L-1.502,-1.52L-1.456,-1.276L-1.121,0.424L0.959,-0.718L0,-1.503Z" style="fill:rgb(153,213,233);fill-rule:nonzero;"/>
                </g>
                <g transform="matrix(1,0,0,1,639.633,2021.88)">
                    <path d="M0,-1.907L-0.716,-1.716L-1.674,-0.931L0.465,0.244L0.779,-1.465L0.814,-1.645L0.906,-2.151L0.673,-2.088L0,-1.907Z" style="fill:rgb(153,213,233);fill-rule:nonzero;"/>
                </g>
                <g transform="matrix(0.999222,-0.039443,-0.039443,-0.999222,653.6,1966.07)">
                    <path d="M-0.001,0.006L0.227,0.006L0.31,0.062L-0.006,0.077L-0.001,0.006Z" style="fill:rgb(148,48,41);fill-rule:nonzero;"/>
                </g>
                <g transform="matrix(0.803557,0.595228,0.595228,-0.803557,658.63,1965.91)">
                    <path d="M0.012,-0.101L0.113,-0.101L0.304,0.031L0.265,0.09L0.012,-0.101Z" style="fill:rgb(148,48,41);fill-rule:nonzero;"/>
                </g>
                <g transform="matrix(1,0,0,1,679.32,2047.32)">
                    <path d="M0,-20.279L-0.37,-20.424L-1.403,-20.826L-1.759,-20.964L-1.66,-21.444L-1.629,-21.59L-1.403,-21.575L-0.37,-21.507L-0.37,-21.534L-1.403,-21.725L-1.829,-21.804L-1.829,0.106L-1.403,1.109L-0.37,1.525L0.663,1.109L1.089,0.106L1.089,-20.209L0.663,-20.236L0,-20.279Z" style="fill:rgb(130,195,65);fill-rule:nonzero;"/>
                </g>
                <g transform="matrix(1,0,0,1,628.508,2025.95)">
                    <path d="M0,22.48L1.033,22.896L2.066,22.48L2.492,21.476L2.492,-0.416L2.066,-0.249L1.1,0.127L1.033,0.139L0.053,0.303L0,0.311L-0.032,0.317L-0.43,0.303L-0.43,21.476L0,22.48Z" style="fill:rgb(130,195,65);fill-rule:nonzero;"/>
                </g>
                <g transform="matrix(1,0,0,1,630.062,2025.6)">
                    <path d="M0,0.274L-0.454,0.481L0.511,0.105L0.938,-0.062L1.309,-0.207L0,0.274Z" style="fill:rgb(66,76,160);fill-rule:nonzero;"/>
                </g>
                <g transform="matrix(1,0,0,1,673.779,2107.37)">
                    <path d="M0,-78.475L-0.141,-79.209L-0.296,-79.999L-0.36,-80.326L-1.326,-85.276L-1.66,-86.976L-1.706,-87.22L-1.787,-87.627L-1.833,-87.639L-1.918,-87.662L-2.182,-87.715L-3.67,-88.011L-4.234,-88.124L-6.084,-88.209L-6.881,-88.245L-10.808,-88.425L-24.259,-88.425L-28.161,-88.246L-28.845,-88.215L-30.833,-88.124L-31.341,-88.023L-32.888,-87.714L-33.149,-87.662L-33.22,-87.644L-33.241,-87.638L-33.332,-87.133L-33.368,-86.952L-33.681,-85.244L-34.587,-80.326L-34.647,-79.999L-34.792,-79.209L-34.94,-78.419L-35,-78.092L-35.109,-77.497L-35.451,-74.673L-35.483,-56.769L-35.458,-53.387L-35.454,-52.766L-35.349,-37.207L-35.345,-36.69L-35.345,-36.587L-35.246,-27.604L-34.633,-12.309L-34.228,-19.215L-34.633,-12.309L-34.735,-10.523L-35.12,-3.936L-34.735,-10.523L-36.23,-4.504L-36.159,-3.531L-35.532,-0.597L-35.796,0.091L-34.273,4.808L-34.228,4.794L-33.572,4.608L-32.726,4.366L-32.61,4.377L-30.629,4.564L-29.536,4.667L-29.201,4.635L-27.439,4.467L-26.483,4.377L-25.817,4.341L-25.465,4.322L-25.225,4.309L-24.379,4.264L-24.188,4.254L-23.847,4.235L-23.177,4.199L-22.729,4.148L-23.177,4.199L-22.588,4.17L-21.548,-4.761L-20.963,-20.02L-19.958,-36.119L-19.937,-36.587L-19.913,-37.207L-19.261,-52.402L-19.222,-52.766L-19.158,-53.387L-17.826,-65.93L-17.533,-69.747L-17.318,-66.587L-17.174,-53.387L-17.167,-52.766L-17.114,-47.963L-16.613,-37.207L-16.585,-36.587L-16.511,-35.01L-16.472,-14.474L-16.3,-0.02L-15.803,8.278L-14.773,8.741L-14.375,8.921L-15.383,8.457L-14.375,8.921L-14.326,8.928L-13.332,9.087L-12.341,9.245L-11.999,9.299L-11.396,9.395L-10.794,9.491L-10.078,9.599L-7.818,9.941L-7.762,9.95L-6.257,9.749L-5.707,9.676L-5.154,9.602L-5.083,9.592L-4.988,9.579L-4.664,9.262L-4.234,8.61L-2.795,6.505L-2.658,4.647L-1.755,1.07L-2.605,-2.176L-2.471,1.819L-2.605,-2.176L-2.961,-12.683L-1.015,-34.475L-0.938,-36.587L-0.913,-37.207L-0.398,-51.381L-1.625,-34.977L-0.398,-51.381L-0.384,-51.572L-0.353,-52.766L-0.335,-53.387L0.264,-75.341L0.032,-78.092L0.007,-78.419L0,-78.475Z" style="fill:rgb(120,71,34);fill-rule:nonzero;"/>
                </g>
                <g transform="matrix(1,0,0,1,677.491,2028.34)">
                    <path d="M0,2.256L0,-0.696L-0.081,-0.764L-2.376,-1.291L-4.071,-1.291L-4.008,-0.964L-3.853,-0.174L-3.712,0.56L-3.705,0.616L-3.68,0.943L-2.626,0.943L-1.072,1.3L-0.025,2.198L-0.137,1.818L-0.021,2.197L0,2.256Z" style="fill:rgb(130,195,65);fill-rule:nonzero;"/>
                </g>
                <g transform="matrix(1,0,0,1,631.01,2029.97)">
                    <path d="M0,-2.397L-0.011,-2.386L-0.011,0.528L0.994,-0.333L2.549,-0.691L7.769,-0.691L7.829,-1.018L7.977,-1.808L8.122,-2.597L8.181,-2.925L2.295,-2.925L0,-2.397Z" style="fill:rgb(130,195,65);fill-rule:nonzero;"/>
                </g>
                <g transform="matrix(1,0,0,1,677.491,2024.29)">
                    <path d="M0,0.213L0.426,0.214L0.715,0.216L0.426,0.128L0,-0.003L0,0.213Z" style="fill:rgb(66,76,160);fill-rule:nonzero;"/>
                </g>
                <g transform="matrix(1,0,0,1,679.983,2097.2)">
                    <path d="M0,-42.229L-1.033,-42.645L-2.066,-42.229L-2.492,-41.225L-2.492,0.416L0.427,0.416L0.427,-41.225L0,-42.229Z" style="fill:rgb(130,195,65);fill-rule:nonzero;"/>
                </g>
                <g transform="matrix(1,0,0,1,630.573,2097.2)">
                    <path d="M0,-42.229L-1.033,-42.645L-2.066,-42.229L-2.496,-41.225L-2.496,0.416L0.427,0.416L0.427,-41.225L0,-42.229Z" style="fill:rgb(130,195,65);fill-rule:nonzero;"/>
                </g>
                <g transform="matrix(1,0,0,1,630.573,2024.76)">
                    <path d="M0,-0.185L-1.032,0.039L-1.032,0.091L-0.694,0.093L0,0.028L0.427,-0.011L0.427,-0.278L0,-0.185Z" style="fill:rgb(66,76,160);fill-rule:nonzero;"/>
                </g>
                <g transform="matrix(1,0,0,1,668.072,2121.34)">
                    <path d="M0,-4.293L-0.55,-4.22L-1.748,-4.06L-2.055,-4.019L-2.111,-4.027L-4.371,-4.369L-5.087,-4.478L-5.689,-4.574L-6.292,-4.67L-6.634,-4.724L-7.625,-4.882L-8.619,-5.04L-8.668,-5.048L-9.066,-5.228L-9.066,-3.313L-8.904,-2.256L-8.904,0.931L-7.558,0.931L-7.163,0.935L-7.163,0.931L-7.163,0.935L-6.38,0.931L-5.062,0.931L-4.801,0.935L-4.801,0.931L-4.801,0.935L-3.881,0.931L-3.13,0.93L-0.726,0.924L1.1,0.919L1.153,0.919L1.1,0.919L1.1,0.935L1.837,0.935L1.71,-2.008L0.624,-4.377L0.553,-4.367L0,-4.293Z" style="fill:rgb(85,88,90);fill-rule:nonzero;"/>
                </g>
                <g transform="matrix(1,0,0,1,649.4,2121.97)">
                    <path d="M0,-10.337L-0.846,-10.292L-1.086,-10.279L-1.438,-10.26L-2.104,-10.224L-3.06,-10.134L-4.822,-9.966L-5.157,-9.934L-6.25,-10.037L-8.231,-10.224L-8.347,-10.235L-9.193,-9.993L-9.193,-8.475L-9.193,-9.993L-9.849,-9.806L-11.001,-7.132L-12.218,-5.489L-12.933,-4.158L-13.455,-2.7L-13.455,-0.572L-12.415,-0.091L-10.163,0.029L-8.337,-0.04L-4.981,-0.585L-3.539,-1.887L0.356,-2.649L0.356,-5.811L0.532,-6.867L0.532,-10.366L0.19,-10.347L0,-10.337Z" style="fill:rgb(85,88,90);fill-rule:nonzero;"/>
                </g>
                <g transform="matrix(1,0,0,1,630.922,1998.15)">
                    <path d="M0,-11.082L0.049,-12.968L0.917,-15.678L3.007,-22.219L0.917,-15.678L0.049,-12.968L0,-11.082L-0.328,2.025L0,-11.082ZM22.986,-32.155L24.125,-32.148L25.063,-32.142L25.323,-32.14L25.584,-32.142L26.522,-32.148L27.657,-32.155L27.974,-32.158L27.971,-32.086L27.738,-32.096L26.522,-32.148L25.584,-32.142L25.323,-32.14L25.063,-32.142L24.125,-32.148L22.905,-32.096L22.676,-32.086L22.669,-32.158L22.986,-32.155ZM-4.678,18.572L-4.6,18.824L-3.994,19.627L-3.455,20.15L-2.958,20.33L-2.531,20.525L-1.54,20.976L-0.479,20.935L0.508,21.02L2.143,20.25L2.327,20.163L2.658,20.008L3.25,19.731L4.307,19.073L4.752,18.148L6.405,12.247L6.394,12.088L6.193,9.46L6.052,7.575L5.957,6.378L5.936,6.135L5.887,5.481L5.502,0.657L5.309,-1.767L5.125,-4.083L5.009,-4.603L4.752,-5.778L4.889,-7.563L5.03,-9.381L5.118,-10.571L5.03,-9.381L4.889,-7.563L4.752,-5.778L5.009,-4.603L5.125,-4.083L5.309,-1.767L5.502,0.657L5.887,5.481L5.936,6.135L5.957,6.378L6.052,7.575L6.193,9.46L6.394,12.088L6.405,12.247L7.064,20.895L7.036,22.804L7.995,22.019L8.71,21.828L9.384,21.647L9.616,21.584L9.637,21.579L9.708,21.56L9.969,21.508L11.516,21.199L12.024,21.098L14.012,21.007L14.696,20.976L18.598,20.798L32.049,20.798L35.976,20.977L36.773,21.014L38.623,21.098L39.187,21.211L40.675,21.507L40.939,21.56L41.024,21.583L41.07,21.595L41.263,21.647L41.937,21.828L42.652,22.019L43.611,22.804L43.583,20.895L43.713,19.184L43.717,19.138L43.791,18.154L44.425,9.825L44.594,7.575L44.644,6.961L44.683,6.451L44.764,5.445L45.176,0.279L45.338,-1.767L45.522,-4.083L45.638,-4.603L45.895,-5.778L45.758,-7.563L45.617,-9.381L45.525,-10.571L45.617,-9.381L45.758,-7.563L45.895,-5.778L45.638,-4.603L45.522,-4.083L45.338,-1.767L45.176,0.279L44.764,5.445L44.683,6.451L44.644,6.961L44.594,7.575L44.425,9.825L43.791,18.154L43.717,19.138L43.713,19.184L44.584,19.723L44.704,19.78L45.225,20.032L45.543,20.184L47.291,21.025L48.299,20.945L49.371,20.992L50.365,20.586L50.932,20.353L51.239,20.175L51.898,19.655L52.402,18.951L52.473,18.855L52.603,18.363L52.621,18.289L53.305,15.696L53.347,1.555L52.304,-0.666L50.626,-12.032L50.693,-10.045L51.088,2.021L50.693,-10.045L50.626,-12.032L50.598,-12.947L50.404,-13.559L49.731,-15.658L47.637,-22.219L49.731,-15.658L50.404,-13.559L49.403,-20.339L44.193,-28.031L35.341,-31.089L33.561,-31.384L32,-31.643L31.831,-31.671L31.249,-31.768L31.831,-31.671L32,-31.643L33.561,-31.384L31.873,-32.501L31.852,-32.515L31.633,-32.659L31.316,-32.871L31.108,-33.008L30.755,-33.241L30.375,-33.326L30.16,-33.374L29.377,-33.549L28.852,-33.667L28.143,-33.824L27.872,-33.886L26.303,-33.874L25.323,-33.867L24.95,-33.87L23.589,-33.88L22.775,-33.886L21.805,-33.669L21.058,-33.502L20.501,-33.378L19.891,-33.241L19.736,-33.139L19.5,-32.982L18.795,-32.515L18.637,-32.412L18.044,-32.018L17.086,-31.384L18.644,-31.643L18.816,-31.671L19.398,-31.768L18.816,-31.671L18.644,-31.643L17.086,-31.384L15.302,-31.089L6.454,-28.031L1.244,-20.339L-2.083,-0.69L-3.655,1.524L-5.591,15.661L-5.055,17.374L-4.942,17.73L-4.678,18.572Z" style="fill:rgb(153,213,233);fill-rule:nonzero;"/>
                </g>
                <g transform="matrix(1,0,0,1,657.445,1966.05)">
                    <path d="M0,-0.044L1.216,0.008L1.135,-0.052L0,-0.044Z" style="fill:rgb(68,114,37);fill-rule:nonzero;"/>
                </g>
                <g transform="matrix(1,0,0,1,653.827,1965.99)">
                    <path d="M0,0.06L1.22,0.008L0.081,0L0,0.06Z" style="fill:rgb(68,114,37);fill-rule:nonzero;"/>
                </g>
                <g transform="matrix(1,0,0,1,625.723,2018.65)">
                    <path d="M0,-0.068L0.018,0.156L0.254,0.516L0.853,1.432L1.114,1.832L1.191,1.948L1.368,2.049L3.049,3.011L5.097,3.06L6.377,2.318L6.786,2.082L7.656,0.339L7.857,-0.495L7.526,-0.339L7.343,-0.252L5.707,0.517L4.72,0.432L3.659,0.474L2.668,0.022L2.242,-0.172L1.745,-0.353L1.206,-0.876L0.599,-1.679L0.522,-1.931L0.257,-2.773L0.144,-3.128L-0.155,-1.886L-0.049,-0.635L-0.035,-0.469L0,-0.068Z" style="fill:rgb(0,188,218);fill-rule:nonzero;"/>
                </g>
                <g transform="matrix(1,0,0,1,683.395,2021.15)">
                    <path d="M0,-4.149L-0.07,-4.053L-0.575,-3.349L-1.234,-2.829L-1.54,-2.651L-2.108,-2.418L-3.102,-2.012L-4.174,-2.059L-5.182,-1.979L-6.93,-2.82L-7.247,-2.972L-7.769,-3.224L-7.667,-2.168L-6.821,-0.637L-6.698,-0.42L-4.953,0.559L-4.938,0.566L-4.833,0.565L-2.855,0.528L-1.833,-0.057L-1.361,-0.325L-1.012,-0.526L-1.005,-0.534L-0.493,-1.359L-0.208,-1.815L-0.053,-2.064L-0.01,-2.13L0.102,-2.313L0.187,-4.353L0.148,-4.715L0.13,-4.641L0,-4.149Z" style="fill:rgb(0,188,218);fill-rule:nonzero;"/>
                </g>
                <g transform="matrix(1,0,0,1,662.256,1962.47)">
                    <path d="M0,2.403L0.325,1.302L0.42,0.975L0.709,0.004L0.691,0L0,2.403Z" style="fill:rgb(242,211,173);fill-rule:nonzero;"/>
                </g>
                <g transform="matrix(1,0,0,1,662.58,1965.32)">
                    <path d="M0,-1.551L-0.325,-0.45L-0.342,-0.042L-0.025,0.17L0.194,0.314L0.214,0.327L0.095,-1.878L0,-1.551Z" style="fill:rgb(205,152,99);fill-rule:nonzero;"/>
                </g>
                <g transform="matrix(1,0,0,1,662.947,1963.03)">
                    <path d="M0,-0.561L0.014,-0.612L0.24,-1.4L0.285,-1.553L0.779,-3.27L-0.853,-1.201L-1.819,-1.181L-2.862,-1.493L-5.298,-1.508L-7.075,-1.61L-8.858,-1.508L-11.298,-1.493L-12.337,-1.181L-13.303,-1.201L-14.935,-3.27L-14.266,-1.502L-14.259,-1.48L-14.192,-1.308L-13.466,0.617L-13.388,2.709L-13.229,2.606L-12.524,2.14L-12.288,1.983L-12.133,1.88L-11.523,1.743L-10.966,1.619L-10.219,1.452L-9.25,1.236L-8.435,1.241L-7.075,1.251L-6.701,1.254L-5.721,1.247L-4.153,1.236L-3.881,1.297L-3.172,1.455L-2.647,1.572L-1.865,1.747L-1.65,1.795L-1.269,1.88L-0.917,2.113L-0.709,2.251L-0.691,1.842L0,-0.561Z" style="fill:rgb(205,152,99);fill-rule:nonzero;"/>
                </g>
                <g transform="matrix(1,0,0,1,664.092,1961.53)">
                    <path d="M0,-3.489L-0.367,-1.769L-0.86,-0.052L-0.906,0.101L-1.132,0.889L-1.146,0.939L-1.128,0.944L-0.339,1.133L0.144,0.703L0.723,-0.511L1.406,-1.989L1.727,-3.403L1.674,-4.113L1.244,-4.622L0.352,-4.531L0.321,-4.433L0,-3.489Z" style="fill:rgb(205,152,99);fill-rule:nonzero;"/>
                </g>
                <g transform="matrix(1,0,0,1,649.481,1959.39)">
                    <path d="M0,4.254L-0.726,2.329L-0.793,2.157L-0.8,2.135L-1.47,0.367L-1.836,-1.353L-2.157,-2.296L-2.193,-2.395L-3.081,-2.486L-3.511,-1.976L-3.564,-1.267L-3.243,0.147L-2.559,1.625L-1.981,2.839L-1.498,3.27L-0.709,3.08L-0.564,3.046L-0.709,3.08L-0.416,3.977L-0.314,4.291L-0.416,3.977L-0.56,6.63L-0.515,6.74L0.078,6.346L0,4.254Z" style="fill:rgb(205,152,99);fill-rule:nonzero;"/>
                </g>
                <g transform="matrix(1,0,0,1,684.393,2025.72)">
                    <path d="M0,-5.272L-0.169,-6.061L-1.008,-6.694L-1.05,-6.629L-1.206,-6.38L-1.491,-5.924L-2.002,-5.099L-2.009,-5.091L-2.358,-4.89L-2.831,-4.622L-2.605,-4.083L-2.862,-3.467L-3.275,-2.468L-3.394,-2.177L-3.437,-2.077L-4.152,-1.781L-4.946,-1.453L-5.224,-1.338L-5.122,-1.21L-4.762,-0.757L-4.554,-0.497L-4.145,0.019L-3.719,0.555L-4.145,0.019L-4.156,0.033L-4.491,0.47L-4.156,0.033L-5.023,0.085L-5.28,0.1L-5.344,0.104L-5.443,0.098L-6.475,0.03L-6.701,0.015L-6.733,0.161L-6.831,0.641L-6.475,0.779L-5.443,1.181L-5.072,1.326L-4.41,1.369L-3.983,1.396L-3.937,1.399L-3.366,1.422L-1.798,0.344L-1.695,-0.286L-1.678,-0.402L-1.695,-0.286L-1.001,-0.922L-1.026,-2.138L-1.033,-2.415L-1.026,-2.138L0.014,-3.446L0,-5.272Z" style="fill:rgb(205,152,99);fill-rule:nonzero;"/>
                </g>
                <g transform="matrix(1,0,0,1,677.459,2024.08)">
                    <path d="M0,0.193L0.032,0.202L0.458,0.332L0.747,0.42L0.754,0.42L1.812,0.424L1.709,0.296L1.491,0.388L0.511,-0.018L0.374,-0.034L0.295,-0.106L0,-0.231L0,0.193Z" style="fill:rgb(205,152,99);fill-rule:nonzero;"/>
                </g>
                <g transform="matrix(1,0,0,1,678.207,2025.82)">
                    <path d="M0,-1.31L-0.289,-1.311L-0.716,-1.312L-1.202,-1.314L-1.505,-0.594L-1.449,-0.429L-0.716,-0.295L-0.289,-0.216L0.744,-0.026L0.906,0.004L1.163,-0.011L2.03,-0.063L2.041,-0.077L1.632,-0.594L1.424,-0.853L1.065,-1.306L0.007,-1.31L0,-1.31Z" style="fill:rgb(205,152,99);fill-rule:nonzero;"/>
                </g>
                <g transform="matrix(1,0,0,1,630.573,2023.64)">
                    <path d="M0,0.928L0.427,0.835L1.597,0.58L1.657,0.44L1.354,-0.276L1.057,-0.213L0.973,-0.003L-0.261,0.508L-1.033,0.828L-1.287,0.724L-1.703,1.203L-1.452,1.204L-1.269,1.204L-1.033,1.153L0,0.928Z" style="fill:rgb(205,152,99);fill-rule:nonzero;"/>
                </g>
                <g transform="matrix(1,0,0,1,628.508,2018.02)">
                    <path d="M0,8.242L0.053,8.233L1.033,8.069L1.1,8.058L1.555,7.851L2.862,7.37L2.732,6.765L2.728,6.7L2.492,6.723L2.066,6.762L1.371,6.827L1.033,6.826L0.613,6.826L0.363,6.825L0.243,6.965L0.522,7.312L0.243,6.965L-0.254,7.536L0.243,6.965L0.363,6.825L0.779,6.346L0.349,6.167L-0.222,5.931L-0.832,5.678L-0.973,5.619L-1.072,5.387L-1.681,3.914L-1.805,3.613L-1.417,2.679L-1.593,2.578L-1.671,2.462L-1.932,2.062L-2.531,1.146L-2.767,0.786L-2.785,0.562L-2.82,0.161L-2.834,-0.005L-3.803,0.603L-3.969,1.477L-3.987,3.365L-2.936,4.422L-2.94,4.516L-2.968,5.927L-2.291,6.501L-2.175,7.284L-1.618,7.617L-0.603,8.228L-0.43,8.234L-0.032,8.247L0,8.242Z" style="fill:rgb(205,152,99);fill-rule:nonzero;"/>
                </g>
                <g transform="matrix(1,0,0,1,677.11,2121.33)">
                    <rect x="0" y="-16.762" width="3.828" height="17.838" style="fill:rgb(205,152,99);fill-rule:nonzero;"/>
                </g>
                <g transform="matrix(1,0,0,1,627.701,2121.33)">
                    <rect x="0" y="-16.762" width="3.828" height="17.838" style="fill:rgb(205,152,99);fill-rule:nonzero;"/>
                </g>
            </g>
        </g>
    </g>
</svg>
