<?xml version="1.0" encoding="UTF-8" standalone="no"?>
<!DOCTYPE svg PUBLIC "-//W3C//DTD SVG 1.1//EN" "http://www.w3.org/Graphics/SVG/1.1/DTD/svg11.dtd">
<svg width="100%" height="100%" viewBox="0 0 140 220" version="1.1" xmlns="http://www.w3.org/2000/svg" xmlns:xlink="http://www.w3.org/1999/xlink" xml:space="preserve" xmlns:serif="http://www.serif.com/" style="fill-rule:evenodd;clip-rule:evenodd;stroke-linejoin:round;stroke-miterlimit:2;">
    <g id="people-26" transform="matrix(1.27,0,0,1.27,-1089.68,-84.8)">
        <g transform="matrix(0.787402,0,0,0.787402,938.643,198.533)">
            <path d="M0,-53.785L-0.038,-53.772L-0.253,-53.699L-1.436,-53.736L-1.533,-53.739L-2.525,-53.848L-3.351,-53.796L-5.061,-53.849L-5.698,-53.84L-7.958,-53.81L-10.092,-53.781L-12.807,-53.985L-12.811,-53.986L-12.817,-53.986L-15.44,-54.182L-18.358,-53.881L-18.795,-53.836L-20.127,-53.699L-20.596,-53.783L-21.802,-54.001L-21.901,-54.019L-22.175,-54.068L-22.19,-54.071L-22.205,-54.024L-25.468,-43.971L-25.865,-40.21L-26.297,-32.757L-25.959,-19.043L-24.756,-3.531L-24.584,-2.719L-24.756,-3.531L-25.959,-19.043L-25.513,-2.154L-25.368,-1.96L-22.825,-1.573L-22.796,-1.567L-22.83,-1.853L-22.995,-3.054L-22.35,-3.513L-21.982,-3.635L-20.683,-4.133L-20.31,-4.171L-17.795,-4.225L-17.304,-4.149L-14.932,-3.811L-14.759,-3.694L-14.461,-3.37L-14.107,-2.997L-14.151,-2.671L-14.289,-1.648L-14.331,-0.507L-13.691,-0.44L-9.483,0.397L-6.254,0.366L-6.221,-0.595L-6.121,-1.346L-6.118,-1.355L-6.049,-1.385L-4.501,-2.104L-4.275,-2.182L-1.603,-2.422L-0.892,-2.493L1.408,-2.329L1.76,-2.267L2.263,-1.647L2.242,-1.317L2.306,-1.608L2.242,-1.317L2.042,-0.186L3.315,-0.328L4.993,-0.72L5.5,-1.291L5.431,-2.379L4.892,-1.895L5.431,-2.379L5.553,-2.489L5.419,-10.784L5.759,-29.143L5.221,-40.823L4.683,-44.51L0.644,-54.005L0.615,-53.994L0,-53.785Z" style="fill:rgb(68,114,37);fill-rule:nonzero;"/>
        </g>
        <g transform="matrix(0.787402,0,0,0.787402,889.214,164.627)">
            <path d="M0,-0.009L-0.046,-0.004L0.584,0.028L0.45,0.001L0.257,-0.037L0,-0.009Z" style="fill:rgb(120,71,34);fill-rule:nonzero;"/>
        </g>
        <g transform="matrix(0.627316,0.475895,0.475895,-0.627316,889.68,164.63)">
            <path d="M0.009,-0.023L0.046,-0.023L0.167,0.119L-0.114,-0.082L0.009,-0.023Z" style="fill:rgb(120,71,34);fill-rule:nonzero;"/>
        </g>
        <g transform="matrix(0.787402,0,0,0.787402,883.259,164.024)">
            <path d="M0,22.128L0.015,22.125L0.094,22.11L0.167,22.095L0.364,22.056L1.196,21.063L1.671,20.496L1.696,20.487L2.092,20.359L2.096,20.277L2.001,20.263L1.759,20.138L1.212,19.857L1.078,19.788L0.447,19.463L0.286,19.041L0.447,19.463L1.078,19.788L1.212,19.857L1.759,20.138L2.001,20.263L2.097,20.257L2.125,19.682L2.329,18.615L0.447,14.617L0.207,14.095L-1.131,13.45L-1.147,13.445L-1.135,11.502L-1.133,11.124L-1.13,10.805L-0.313,10.993L-0.115,10.965L0.345,11.148L0.835,11.273L1.349,11.514L1.527,12.267L2.458,12.102L2.759,8.87L3.345,7.102L3.349,7.1L4.527,6.442L6.345,5.173L7.329,4.769L8.503,4.501L9.443,4.357L10.435,4.716L11.48,5.283L12.091,5.706L12.594,7.048L12.734,7.966L12.695,8.147L12.389,9.569L12.196,10.682L12.267,10.92L12.436,11.489L12.483,11.409L12.941,7.917L13.065,5.666L13.175,5.198L12.298,3.194L10.58,1.3L9.986,0.949L8.359,0.774L8.369,0.953L8.752,1.229L9.153,1.519L9.533,1.793L10.328,3.361L9.533,1.793L9.153,1.519L8.752,1.229L8.369,0.953L8.148,0.793L7.517,0.761L7.298,0.75L5.012,0.635L4.748,0.622L4.601,0.614L3.73,0.88L2.864,1.144L2.41,1.283L2.273,1.325L1.791,1.472L3.252,1.269L1.791,1.472L1.62,1.496L0.828,1.606L-0.023,3.088L-0.195,5.14L-2.21,4.955L-0.72,1.847L-0.68,1.762L-0.642,1.684L0.041,1.213L0.151,1.137L0.27,1.069L1.283,0.496L1.955,0.116L1.65,-0.006L0.791,0.218L-1.721,0.4L-3.131,2.938L-4.404,7.201L-4.28,7.817L-3.71,13.614L-2.827,17.557L-0.029,22.134L0,22.128Z" style="fill:rgb(120,71,34);fill-rule:nonzero;"/>
        </g>
        <g transform="matrix(0.787402,0,0,0.787402,884.777,165.256)">
            <path d="M0,-0.379L-0.487,-0.15L-1.099,0.042L-0.308,-0.068L-0.137,-0.092L0.345,-0.239L0.482,-0.281L0.936,-0.421L0,-0.379Z" style="fill:rgb(120,71,34);fill-rule:nonzero;"/>
        </g>
        <g transform="matrix(0.787402,0,0,0.787402,922.529,234.348)">
            <path d="M0,-1.909L-0.807,-2.189L-1.86,-2.627L-1.801,-4.316L-2.435,-0.228L-2.175,1.32L-1.907,2.094L0.086,2.383L1.772,2.407L2.718,2.403L3.873,2.374L5.092,2.087L5.19,0.649L5.29,-0.263L4.546,-2.111L4.447,-2.357L3.052,-2.035L0,-1.909Z" style="fill:rgb(120,71,34);fill-rule:nonzero;"/>
        </g>
        <g transform="matrix(0.787402,0,0,0.787402,937.571,236.923)">
            <path d="M0,-2.551L-2.707,-2.97L-4.449,-2.997L-6.187,-3.261L-6.45,-3.719L-7.077,-1.992L-6.577,1.035L-6.23,1.031L-6.171,1.043L-5.526,1.168L-1.11,1.168L-1.083,1.126L-1.358,1.123L-5.098,1.084L-5.148,0.75L-5.526,0.368L-5.148,0.75L-5.482,-1.485L-5.148,0.75L-5.098,1.084L-1.358,1.123L-1.083,1.126L1.616,1.153L2.372,1.057L2.481,-0.374L1.46,-1.718L0.847,-2.407L0.504,-2.573L0,-2.551Z" style="fill:rgb(120,71,34);fill-rule:nonzero;"/>
        </g>
        <g transform="matrix(0.787402,0,0,0.787402,893.704,205.75)">
            <path d="M0,-16.754L0,-18.498L-0.016,-18.513L-2.214,-20.581L-2.213,-20.592L-2.208,-20.625L-1.692,-24.181L-1.684,-24.234L-1.24,-26.888L-1.24,-27.205L-1.741,-30.936L-2.371,-29.833L-2.773,-29.731L-2.834,-29.715L-2.813,-28.114L-2.887,-26.888L-3.002,-24.967L-3.098,-24.234L-3.108,-24.181L-3.65,-21.18L-3.754,-20.581L-9.062,-20.581L-9.052,-21.18L-9.629,-24.181L-9.639,-24.234L-9.861,-25.022L-9.877,-25.076L-10.427,-26.888L-10.799,-28.114L-11.329,-29.385L-11.469,-29.722L-12.848,-29.263L-12.308,-27.459L-12.253,-27.274L-12.19,-27.063L-12.137,-26.888L-11.344,-24.234L-11.336,-24.181L-11.302,-23.979L-10.875,-21.375L-10.875,-20.581L-13.371,-18.321L-13.389,-18.321L-13.378,-17.389L-13.371,-17.39L-13.374,-17.058L-13.371,-17.06L-13.374,-17.058L-13.371,-16.754L-15.463,-16.754L-16.025,-16.89L-16.153,-16.865L-16.159,-16.864L-16.177,-16.875L-16.2,-16.89L-16.326,-16.754L-16.568,-14.589L-19.185,-6.488L-19.762,-0.906L-19.996,1.355L-19.762,-0.906L-22.034,6.967L-23.245,12.451L-21.838,12.421L-21.798,12.419L-20.949,12.401L-19.471,12.275L-19.066,12.287L-19.017,12.288L-17.39,12.334L-17.099,12.342L-16.042,12.371L-15.301,12.392L-14.996,12.401L-13.242,12.451L-13.182,12.452L-13.125,12.452L-13.042,12.451L-12.871,12.45L-10.577,12.433L-10.563,12.432L-6.911,12.405L-6.374,12.408L-6.344,12.408L-3.724,12.422L-3.678,12.422L-3.006,12.426L-2.811,12.427L0.14,12.443L0.913,12.447L1.066,12.448L1.355,12.45L1.788,12.452L2.63,12.435L2.762,12.432L2.83,12.431L2.85,12.43L4.842,12.39L6.074,12.289L6.165,12.282L6.246,12.275L7.964,12.401L7.762,11.227L6.064,1.355L4.707,-6.488L1.777,-14.589L1.673,-16.754L0,-16.754Z" style="fill:rgb(66,76,160);fill-rule:nonzero;"/>
        </g>
        <g transform="matrix(0.787402,0,0,0.787402,884.292,181.84)">
            <path d="M0,0.532L-0.822,-0.424L-0.948,-0.57L-0.895,1.102L0.484,0.644L0.44,0.607L0,0.532Z" style="fill:rgb(66,76,160);fill-rule:nonzero;"/>
        </g>
        <g transform="matrix(0.787402,0,0,0.787402,951.02,167.493)">
            <path d="M0,2.445L0.068,2.155L-0.038,0L0,2.445Z" style="fill:rgb(0,188,218);fill-rule:nonzero;"/>
        </g>
        <g transform="matrix(0.787402,0,0,0.787402,882.55,235.762)">
            <path d="M0,-3.17L-0.687,-5.024L-3.409,-5.024L-3.628,-4.526L-3.639,-4.501L-3.677,-4.415L-4.523,-2.495L-4.699,-0.417L-5.235,1.854L-4.507,1.779L-3.106,1.839L-1.522,1.783L-0.364,1.838L0.717,1.768L0.672,1.149L0.549,-0.572L0.672,1.149L0.809,1.098L0.907,-2.398L0.623,-1.985L0,-3.17Z" style="fill:rgb(66,76,160);fill-rule:nonzero;"/>
        </g>
        <g transform="matrix(0.787402,0,0,0.787402,894.558,237.78)">
            <path d="M0,-8.375L-0.816,-8.34L-1.244,-8.321L-2.217,-6.603L-3.859,-5.931L-5.772,-7.18L-5.879,-8.752L-6.688,-4.481L-6.012,-3.789L-2.964,-2.361L-0.796,-0.534L1.683,0.278L3.066,0.377L4.359,0.344L4.542,-0.277L4.253,-1.092L2.878,-3.231L1.082,-8.422L0.521,-8.398L0.194,-8.383L0,-8.375Z" style="fill:rgb(66,76,160);fill-rule:nonzero;"/>
        </g>
        <g transform="matrix(0.787402,0,0,0.787402,884.393,164.739)">
            <path d="M0,0.38L0.001,0.508L0.535,-0.128L0,0.38Z" style="fill:rgb(0,188,218);fill-rule:nonzero;"/>
        </g>
        <g transform="matrix(0.787402,0,0,0.787402,907.127,166.969)">
            <path d="M0,-0.151L-0.139,-0.136L-0.254,-0.123L-0.588,-0.088L0.152,0.009L0.081,-0.16L0,-0.151Z" style="fill:rgb(0,188,218);fill-rule:nonzero;"/>
        </g>
        <g transform="matrix(0.787402,0,0,0.787402,906.355,167.818)">
            <path d="M0,1.113L0.844,0.092L0.812,0L0,1.113Z" style="fill:rgb(0,188,218);fill-rule:nonzero;"/>
        </g>
        <g transform="matrix(0.787402,0,0,0.787402,875.476,203.949)">
            <path d="M0,1.64L-0.218,0.243L-0.36,0L0,1.64Z" style="fill:rgb(0,188,218);fill-rule:nonzero;"/>
        </g>
        <g transform="matrix(0.787401,-0.000890054,-0.000890054,-0.787401,888.737,215.672)">
            <path d="M-0,0.001L2.654,0.001L2.584,0.175L-0.037,0.194L-0,0.001Z" style="fill:rgb(0,188,218);fill-rule:nonzero;"/>
        </g>
        <g transform="matrix(0.787402,0,0,0.787402,897.516,215.552)">
            <path d="M0,-0.058L-1.992,-0.017L-1.982,0.1L1.295,0.08L1.231,-0.158L0,-0.058Z" style="fill:rgb(0,188,218);fill-rule:nonzero;"/>
        </g>
        <g transform="matrix(0.787402,0,0,0.787402,898.558,215.61)">
            <path d="M0,-0.24L-0.028,0.006L1.879,-0.071L1.799,-0.121L0.081,-0.246L0,-0.24Z" style="fill:rgb(0,188,218);fill-rule:nonzero;"/>
        </g>
        <g transform="matrix(-0.101204,0.780871,0.780871,0.101204,891.543,186.45)">
            <rect x="-0.359" y="-0.365" width="0.679" height="0.05" style="fill:rgb(0,188,218);"/>
        </g>
        <g transform="matrix(0.787402,0,0,0.787402,877.208,215.554)">
            <path d="M0,-0.05L-0.848,-0.032L-0.885,0.077L1.872,0.103L3.562,0.125L3.559,-0.117L1.932,-0.163L1.883,-0.164L1.479,-0.175L0,-0.05Z" style="fill:rgb(0,188,218);fill-rule:nonzero;"/>
        </g>
        <g transform="matrix(0.787402,0,0,0.787402,875.4,215.591)">
            <path d="M0,-0.047L1.411,0.03L1.407,-0.077L0,-0.047Z" style="fill:rgb(0,188,218);fill-rule:nonzero;"/>
        </g>
        <g transform="matrix(0.787402,0,0,0.787402,885.386,215.649)">
            <path d="M0,-0.14L-0.032,0.025L4.255,0.027L4.188,-0.164L3.652,-0.167L0,-0.14Z" style="fill:rgb(0,188,218);fill-rule:nonzero;"/>
        </g>
        <g transform="matrix(0.787402,0,0,0.787402,941.434,138.593)">
            <path d="M0,2.745L0.093,2.316L0,2.745L-0.18,4.313L-0.101,5.071L0.894,4.894L1.631,4.763L1.746,4.743L2.774,4.527L3.829,4.306L4.277,4.212L4.79,4.091L5.351,3.958L6.184,3.762L6.525,3.681L7.632,3.353L3.758,-10.544L1.668,-14.036L-1.074,-15.511L-6.312,-16.715L-8.146,-17.578L-10.222,-19.681L-10.223,-19.669L-10.319,-18.591L-10.356,-18.187L-10.476,-18.087L-10.526,-17.751L-10.619,-17.699L-11.084,-17.437L-11.631,-17.128L-12.015,-16.824L-12.421,-16.682L-13.5,-16.074L-13.722,-15.837L-14.786,-14.697L-13.372,-14.19L-14.786,-14.697L-15.997,-14.19L-14.786,-14.697L-15.132,-15.074L-16.047,-16.074L-16.279,-16.185L-17.001,-16.531L-17.117,-16.468L-17.545,-16.236L-18.201,-15.881L-18.323,-15.815L-19.7,-15.726L-20.289,-15.688L-20.613,-15.989L-21.183,-16.517L-21.185,-16.519L-21.432,-16.87L-21.995,-17.745L-22.081,-18.134L-22.288,-19.077L-23.599,-17.578L-25.38,-16.715L-30.453,-15.511L-32.45,-14.718L-33.2,-14.036L-35.063,-10.544L-41.626,1.834L-41.174,2.358L-40.096,2.967L-39.422,3.348L-39.011,3.534L-38.302,3.855L-37.275,4.32L-37.038,4.427L-36.161,4.742L-35.044,5.143L-34.932,5.183L-34.757,5.208L-34.307,5.271L-34.235,5.281L-33.91,5.327L-31.991,1.389L-31.195,-0.245L-31.991,1.389L-31.668,2.176L-30.502,6.164L-30.118,8.617L-28.372,17.72L-28.151,18.29L-26.223,21.965L-25.896,22.025L-25.735,22.053L-25.72,22.056L-25.446,22.106L-25.346,22.124L-24.141,22.341L-23.672,22.426L-22.34,22.288L-21.903,22.243L-18.985,21.942L-16.362,22.139L-16.356,22.138L-16.352,22.14L-13.637,22.343L-11.503,22.314L-9.243,22.284L-8.606,22.275L-6.896,22.329L-6.07,22.277L-5.078,22.386L-4.981,22.389L-3.798,22.426L-3.583,22.352L-3.545,22.339L-2.93,22.13L-2.901,22.12L-2.448,21.965L-1.484,18.29L-1.275,17.474L-0.676,8.624L-1.063,11.984L-0.676,8.624L-0.675,8.617L-0.676,8.62L-0.675,8.617L-0.675,8.614L-0.268,5.071L-0.18,4.313L0,2.745Z" style="fill:white;fill-rule:nonzero;"/>
        </g>
        <g transform="matrix(0.787402,0,0,0.787402,941.223,141.989)">
            <path d="M0,0.758L0.167,0.758L0.088,0L0,0.758Z" style="fill:white;fill-rule:nonzero;"/>
        </g>
        <g transform="matrix(0.787402,0,0,0.787402,883.632,229.197)">
            <path d="M0,-1.368L-0.274,0L0.101,-1.368L0,-1.368Z" style="fill:white;fill-rule:nonzero;"/>
        </g>
        <g transform="matrix(0.787402,0,0,0.787402,883.04,232.747)">
            <path d="M0,1.845L0.284,1.432L0.073,0L0,1.845Z" style="fill:white;fill-rule:nonzero;"/>
        </g>
        <g transform="matrix(0.787402,0,0,0.787402,882.949,234.199)">
            <path d="M0.868,-7.72L-4.913,-7.72L-4.68,-4.571L-5.029,-0.51L-4.183,-2.43L-4.145,-2.516L-4.134,-2.541L-3.915,-3.039L-1.193,-3.039L-0.506,-1.185L0.117,0L0.19,-1.845L0.313,-4.948L0.594,-6.353L0.868,-7.72Z" style="fill:white;fill-rule:nonzero;"/>
        </g>
        <g transform="matrix(0.787402,0,0,0.787402,894.533,232.234)">
            <path d="M0,-6.524L-0.28,-6.205L-0.807,-6.207L-2.516,-6.404L-3.036,-6.398L-3.542,-6.457L-3.986,-6.697L-5.008,-7.131L-5.052,-7.637L-5.592,-7.229L-4.774,-3.351L-5.848,-1.708L-5.741,-0.136L-3.828,1.113L-2.186,0.441L-1.213,-1.277L-0.785,-1.296L0.031,-1.331L0.225,-1.339L0.552,-1.354L1.032,-6.587L0.504,-6.893L0.462,-6.624L0,-6.524Z" style="fill:white;fill-rule:nonzero;"/>
        </g>
        <g transform="matrix(0.787402,0,0,0.787402,883.472,167.279)">
            <path d="M0,-3.064L-0.12,-2.996L-0.229,-2.92L-0.912,-2.449L-0.95,-2.371L-0.99,-2.286L-2.48,0.822L-0.465,1.007L-0.293,-1.045L0.558,-2.527L1.171,-2.718L1.17,-2.845L1.704,-3.355L1.171,-2.718L1.657,-2.947L2.594,-2.988L3.46,-3.253L4.331,-3.519L4.478,-3.511L4.742,-3.498L4.506,-3.757L4.189,-3.866L1.78,-4.071L1.685,-4.017L1.013,-3.637L0,-3.064Z" style="fill:white;fill-rule:nonzero;"/>
        </g>
        <g transform="matrix(0.787402,0,0,0.787402,883.079,238.219)">
            <path d="M0,-1.971L0.044,-1.351L0.044,0.051L0.137,0.051L0.137,-2.022L0,-1.971Z" style="fill:rgb(250,192,41);fill-rule:nonzero;"/>
        </g>
        <g transform="matrix(0.787402,0,0,0.787402,882.264,238.207)">
            <path d="M0,-1.267L-1.158,-1.321L-2.742,-1.266L-4.144,-1.326L-4.871,-1.251L-4.947,0.069L1.08,0.069L1.08,-1.336L0,-1.267Z" style="fill:rgb(250,192,41);fill-rule:nonzero;"/>
        </g>
        <g transform="matrix(0.787402,0,0,0.787402,896.972,235.309)">
            <path d="M0,3.515L-1.383,3.416L-3.862,2.604L-6.03,0.777L-9.078,-0.651L-9.754,-1.343L-9.951,0.519L-9.29,1.352L-6.194,2.323L-4.006,3.962L-1.358,4.724L-0.142,4.858L1.156,4.772L1.333,4.208L1.476,2.861L1.293,3.482L0,3.515Z" style="fill:rgb(250,192,41);fill-rule:nonzero;"/>
        </g>
        <g transform="matrix(0.787402,0,0,0.787402,900.297,188.345)">
            <path d="M0,-7.23L-0.253,-6.929L-0.409,-6.929L-1.429,-7.062L-2.52,-8.32L-2.781,-8.6L-2.766,-8.968L-2.439,-10.514L-1.792,-11.125L-1.54,-11.551L-0.872,-12.243L-1.666,-12.581L-3.348,-11.54L-4.056,-10.803L-4.93,-9.894L-4.056,-10.803L-4.669,-10.703L-5.879,-10.319L-6.495,-10.102L-10.114,-8.831L-9.613,-5.1L-9.613,-4.783L-10.057,-2.129L-10.065,-2.076L-10.581,1.48L-10.586,1.513L-10.587,1.524L-8.389,3.592L-8.373,3.607L-8.373,5.351L-6.789,5.351L-4.947,0.918L-4.516,0.85L-2.709,0.295L-0.515,-2.26L0.381,-5.15L1.963,-6.795L2.089,-9.226L1.889,-9.545L0.9,-7.963L0,-7.23Z" style="fill:rgb(250,192,41);fill-rule:nonzero;"/>
        </g>
        <g transform="matrix(0.787402,0,0,0.787402,890.554,188.676)">
            <path d="M0,-9.846L-1.298,-9.164L-4.735,-9.071L-4.895,-9.074L-5.017,-9.101L-5.241,-9.186L-6.958,-9.803L-7.182,-10.747L-7.172,-10.949L-7.568,-10.821L-7.593,-10.812L-8.069,-10.244L-8.9,-9.251L-8.775,-9.106L-7.953,-8.149L-7.513,-8.075L-7.41,-8.057L-7.189,-8.02L-5.457,-7.726L-5.143,-7.673L-5.039,-7.655L-2.879,-8.847L-5.039,-7.655L-5.177,-7.655L-5.457,-7.726L-7.189,-8.02L-7.41,-8.057L-7.469,-8.038L-7.329,-7.701L-6.799,-6.43L-6.427,-5.204L-5.877,-3.392L-5.861,-3.338L-5.639,-2.55L-5.629,-2.497L-5.052,0.504L-5.062,1.103L0.246,1.103L0.35,0.504L0.893,-2.497L0.845,-2.497L0.94,-3.23L0.998,-3.283L1.114,-5.204L1.187,-6.43L1.167,-8.031L-0.306,-7.655L-0.386,-7.655L-0.306,-7.655L1.167,-8.031L1.228,-8.047L1.629,-8.149L2.259,-9.252L2.189,-9.31L1.157,-10.157L0.397,-10.731L0.373,-10.156L0,-9.846Z" style="fill:rgb(250,192,41);fill-rule:nonzero;"/>
        </g>
        <g transform="matrix(0.787402,0,0,0.787402,886.478,182.592)">
            <path d="M0,0.071L0.034,0.053L-0.28,0L0,0.071Z" style="fill:rgb(250,192,41);fill-rule:nonzero;"/>
        </g>
        <g transform="matrix(0.787402,0,0,0.787402,881.243,184.092)">
            <path d="M0,7.813L-0.964,10.246L-0.375,10.617L-0.351,10.631L-0.334,10.642L-0.328,10.641L-0.199,10.617L1.252,10.338L-0.199,10.617L0.363,10.752L2.455,10.752L2.451,10.448L2.448,10.117L2.437,9.186L2.455,9.186L4.951,6.925L4.932,6.925L4.951,6.919L4.951,6.132L4.523,3.528L4.49,3.326L4.481,3.273L3.688,0.618L3.635,0.444L3.572,0.233L3.517,0.048L2.978,-1.757L2.925,-3.429L2.728,-3.39L2.655,-3.376L2.576,-3.36L2.561,-3.357L2.537,-3.353L2.532,-3.352L-1.26,-2.602L-4.405,-1.498L-5.628,-0.812L-6.579,2.898L-6.581,3.403L-6.032,5.903L-7.099,8.595L-6.234,9.442L-6.042,8.542L-5.52,8.518L-5.403,8.45L-5.058,8.526L-3.629,8.984L-3.272,9.155L-2.863,9.376L-2.588,9.812L-2.14,10.298L-2.092,10.823L-2.168,11.007L-2.226,11.149L-1.509,11.242L-1.067,10.505L-0.99,10.311L-0.964,10.246L0,7.813Z" style="fill:rgb(250,192,41);fill-rule:nonzero;"/>
        </g>
        <g transform="matrix(0.585271,0.526744,0.526744,-0.585271,880.624,192.086)">
            <path d="M-0.047,-0.254L0.612,-0.254L0.615,-0.07L-0.072,-0.189L-0.047,-0.254Z" style="fill:rgb(250,192,41);fill-rule:nonzero;"/>
        </g>
        <g transform="matrix(0.787402,0,0,0.787402,933.079,122.137)">
            <path d="M0,-19.766L0.168,-19.72L0.19,-19.714L0.864,-19.292L1.427,-18.94L2.521,-18.254L3.014,-17.694L3.129,-17.562L3.774,-16.826L4.019,-16.548L4.301,-16.226L4.816,-15.64L5.096,-14.457L5.157,-14.198L5.171,-14.192L5.362,-14.115L5.181,-14.165L5.163,-14.17L5.275,-13.696L5.473,-12.863L5.545,-12.558L5.811,-10.871L5.883,-10.419L5.896,-10.329L5.883,-9.87L5.823,-7.866L5.656,-6.861L5.578,-6.754L5.341,-6.423L4.325,-5.008L2.555,-3.342L1.483,-2.333L1.197,-2.064L1.164,-2.034L0.583,-0.131L0.473,0.233L0.416,0.915L0.441,0.956L1.656,1.175L5.117,-2.304L8.053,-7.234L8.25,-12.482L8.019,-14.779L6.876,-17.329L4.827,-20.133L3.832,-20.7L2.451,-20.941L1.71,-20.849L0.067,-20.672L-0.747,-19.969L-0.187,-19.817L0,-19.766Z" style="fill:rgb(63,38,19);fill-rule:nonzero;"/>
        </g>
        <g transform="matrix(0.200835,0.761358,0.761358,-0.200835,923.173,113.773)">
            <path d="M-0.394,-0.761L0.994,-0.761L0.23,-0.291L-0.466,-0.761L-0.394,-0.761Z" style="fill:rgb(63,38,19);fill-rule:nonzero;"/>
        </g>
        <g transform="matrix(0.787402,0,0,0.787402,937.711,112.495)">
            <path d="M0,1.827L-0.071,1.376L-0.338,-0.312L-0.41,-0.617L-0.607,-1.449L-0.719,-1.924L-0.726,-1.951L-0.787,-2.21L-1.067,-3.393L-1.581,-3.98L-1.864,-4.302L-2.108,-4.58L-2.753,-5.316L-2.869,-5.447L-3.361,-6.008L-4.456,-6.694L-5.018,-7.046L-5.693,-7.468L-5.714,-7.474L-5.882,-7.52L-5.937,-7.534L-6.07,-7.57L-7.822,-7.991L-8.095,-8.121L-10.285,-8.386L-11.441,-8.074L-14.242,-7.286L-15.213,-6.394L-18.848,-1.906L-19.661,0.168L-19.667,0.36L-19.319,1.368L-18.687,1.92L-18.683,1.907L-18.564,1.514L-18.037,0.077L-16.41,1.356L-15.172,1.524L-13.153,2.164L-12.121,2.421L-9.852,2.346L-8.842,4.222L-8.32,5.619L-7.389,7.721L-6.088,7.592L-5.546,7.396L-5.204,6.856L-4.837,6.278L-4.719,6.093L-4.424,5.838L-3.921,5.41L-3.817,5.321L-3.354,5.322L-2.985,5.323L-2.776,5.637L-2.747,6.037L-2.706,6.601L-2.857,6.938L-3.051,7.369L-3.495,8.36L-4.591,9.953L-4.691,9.988L-4.718,10.213L-4.686,10.182L-4.4,9.913L-3.328,8.904L-1.557,7.238L-0.542,5.823L-0.305,5.493L-0.227,5.385L-0.06,4.381L0,2.377L0.014,1.917L0,1.827Z" style="fill:rgb(63,38,19);fill-rule:nonzero;"/>
        </g>
        <g transform="matrix(0.787402,0,0,0.787402,933.539,125.345)">
            <path d="M0,-4.204L0.581,-6.107L0.608,-6.332L-0.207,-6.053L-0.352,-6.104L-0.736,-6.24L-1.705,-3.513L-1.73,-3.449L-5.06,-0.844L-5.479,-0.515L-6.973,0.294L-6.251,0.64L-6.02,0.751L-5.104,1.75L-4.758,2.128L-3.694,0.988L-3.473,0.751L-2.394,0.143L-1.987,0.001L-1.604,-0.303L-1.057,-0.612L-0.592,-0.874L-0.499,-0.926L-0.448,-1.262L-0.329,-1.362L-0.291,-1.766L-0.196,-2.844L-0.195,-2.856L-0.168,-3.158L-0.111,-3.841L0,-4.204Z" style="fill:rgb(242,211,173);fill-rule:nonzero;"/>
        </g>
        <g transform="matrix(0.787402,0,0,0.787402,935.548,121.547)">
            <path d="M0,-5.459L-0.029,-5.86L-0.238,-6.174L-0.607,-6.175L-1.071,-6.176L-1.174,-6.087L-1.677,-5.658L-1.973,-5.404L-2.09,-5.219L-2.457,-4.64L-2.799,-4.1L-3.341,-3.904L-4.642,-3.775L-5.573,-5.878L-6.095,-7.275L-7.105,-9.15L-9.374,-9.075L-10.407,-9.332L-12.426,-9.972L-13.663,-10.141L-15.291,-11.419L-15.818,-9.982L-15.936,-9.59L-15.94,-9.576L-16.199,-8.718L-16.466,-7.833L-16.345,-7.039L-16.114,-6.223L-16.362,-4.602L-15.662,-1.279L-14.813,2.571L-14.606,3.514L-14.52,3.903L-13.957,4.777L-13.71,5.129L-13.708,5.131L-13.138,5.66L-12.814,5.96L-12.224,5.922L-10.848,5.833L-10.726,5.768L-10.069,5.412L-9.642,5.18L-9.526,5.117L-8.032,4.308L-7.612,3.979L-4.283,1.374L-4.257,1.311L-3.288,-1.417L-2.76,-1.23L-1.945,-1.509L-1.844,-1.543L-0.748,-3.136L-0.304,-4.127L-0.11,-4.559L0.041,-4.895L0,-5.459Z" style="fill:rgb(242,211,173);fill-rule:nonzero;"/>
        </g>
        <g transform="matrix(0.787402,0,0,0.787402,927.501,231.621)">
            <path d="M0,-44.692L0.044,-45.018L-0.31,-45.392L-0.608,-45.716L-0.781,-45.832L-3.153,-46.17L-3.644,-46.247L-6.159,-46.193L-6.532,-46.155L-7.831,-45.656L-8.199,-45.534L-8.845,-45.075L-8.679,-43.874L-8.645,-43.588L-8.482,-42.23L-8.337,-41.027L-8.482,-42.23L-8.613,-41.142L-10.403,-34.003L-10.748,-27.391L-10.741,-26.486L-9.129,-15.87L-8.351,-10.39L-7.712,-6.801L-7.956,-3.362L-8.115,-0.852L-8.174,0.837L-7.121,1.276L-6.314,1.555L-3.263,1.429L-1.868,1.107L-2.11,-0.841L-2.219,-4.317L-2.56,-6.189L-3.287,-10.594L-2.975,-16.66L-1.343,-26.721L-1.323,-27.903L-1.605,-32.784L-1.168,-39.093L-0.248,-40.678L-0.18,-42.528L-0.138,-43.669L0,-44.692Z" style="fill:rgb(242,211,173);fill-rule:nonzero;"/>
        </g>
        <g transform="matrix(0.787402,0,0,0.787402,949.781,167.385)">
            <path d="M0,4.443L0.206,4.402L0.457,4.352L1.55,4.522L1.744,4.552L1.886,4.574L1.91,4.578L2.272,4.398L2.331,4.358L3.225,3.752L3.34,3.675L3.71,2.032L3.696,1.987L3.655,1.862L3.495,1.364L3.014,-0.135L2.912,0.104L2.886,0.164L2.702,0.94L2.784,1.535L2.369,2.969L1.088,3.772L-0.122,3.698L-0.458,3.86L-0.785,4.03L-0.706,4.381L-0.099,4.576L-0.034,4.489L0,4.443Z" style="fill:rgb(242,211,173);fill-rule:nonzero;"/>
        </g>
        <g transform="matrix(0.787402,0,0,0.787402,952.985,168.146)">
            <path d="M0,1.274L-0.177,2.073L-0.256,2.428L-0.497,2.761L-0.899,3.316L-0.583,3.134L-0.37,3.013L-0.016,2.362L0.435,1.532L0.44,0.977L0.444,0.61L0.451,-0.146L-0.653,-2.042L-0.685,-1.968L0.06,1.006L0,1.274Z" style="fill:rgb(242,211,173);fill-rule:nonzero;"/>
        </g>
        <g transform="matrix(0.787402,0,0,0.787402,951.285,170.857)">
            <path d="M0,0.169L0.079,0.18L0.362,-0.011L0,0.169Z" style="fill:rgb(242,211,173);fill-rule:nonzero;"/>
        </g>
        <g transform="matrix(0.787402,0,0,0.787402,950.774,166.773)">
            <path d="M0,6.042L0.009,6.034L0.963,5.785L0.941,5.622L1.039,5.567L1.043,5.555L1.908,5.06L2.31,4.505L2.551,4.172L2.63,3.817L2.807,3.018L2.866,2.75L2.122,-0.224L2.102,-0.177L1.752,0.642L2.234,2.141L2.394,2.639L2.434,2.763L2.449,2.808L2.544,3.104L2.449,2.808L2.086,4.446L2.078,4.451L1.964,4.529L1.069,5.135L1.01,5.174L0.727,5.366L0.649,5.354L0.625,5.35L0.483,5.328L0.289,5.298L-0.804,5.128L-1.055,5.178L-1.261,5.219L-1.295,5.265L-1.428,5.443L-1.41,5.773L-0.252,6.266L-0.085,6.117L0,6.042Z" style="fill:rgb(242,211,173);fill-rule:nonzero;"/>
        </g>
        <g transform="matrix(-0.0879068,0.782479,0.782479,0.0879068,954.832,168.286)">
            <path d="M-0.256,-0.513L1.195,-0.513L-0.428,-0.166L-0.961,-0.512L-0.256,-0.513Z" style="fill:rgb(242,211,173);fill-rule:nonzero;"/>
        </g>
        <g transform="matrix(0.787402,0,0,0.787402,954.515,145.798)">
            <path d="M0,27.547L0.008,27.481L0.065,26.972L-0.975,24.291L-1.006,24.211L-1.216,22.759L-1.608,21.796L-2.928,17.767L-6.72,4.991L-9.424,-0.185L-10.43,-5.39L-11.263,-5.193L-11.823,-5.061L-12.336,-4.94L-12.784,-4.845L-13.839,-4.624L-14.867,-4.408L-14.983,-4.388L-15.719,-4.257L-16.714,-4.08L-16.865,-4.08L-16.08,-0.495L-15.459,2.213L-13.204,7.55L-6.497,18.288L-6.596,18.069L-6.497,18.288L-5.118,21.319L-4.158,23.217L-4.182,22.826L-4.196,22.589L-4.229,22.04L-4.196,22.589L-4.182,22.826L-4.158,23.217L-4.135,23.599L-4.521,25.604L-4.478,27.552L-4.372,29.707L-4.44,29.996L-3.827,30.005L-3.637,29.735L-3.31,28.354L-3.126,27.578L-3.107,27.495L-3.08,27.382L-2.329,24.976L-3.107,27.495L-3.126,27.578L-3.101,27.519L-2.999,27.28L-2.649,26.461L-2.629,26.414L-2.597,26.34L-2.492,26.093L-2.404,25.887L-0.873,27.374L-2.404,25.887L-2.492,26.093L-2.597,26.34L-1.493,28.236L-1.5,28.992L-1.504,29.359L-1.51,29.914L-1.96,30.744L-2.314,31.395L-2.527,31.516L-2.844,31.698L-3.708,32.193L-3.712,32.205L-3.783,32.421L-3.827,32.554L-3.858,32.65L-3.9,32.777L-3.834,32.809L-3.576,32.937L-2.86,32.658L-2.352,32.46L-1.757,32.229L-0.963,31.142L-0.821,30.947L-0.529,30.547L-0.481,30.481L-0.446,30.434L-0.277,30.005L-0.255,29.806L-0.242,29.689L-0.079,28.247L0,27.547Z" style="fill:rgb(242,211,173);fill-rule:nonzero;"/>
        </g>
        <g transform="matrix(0.787402,0,0,0.787402,953.758,171.782)">
            <path d="M0,-1.857L-0.794,-0.769L-1.389,-0.538L-1.897,-0.341L-2.613,-0.062L-2.872,-0.19L-2.937,-0.222L-2.896,-0.348L-2.864,-0.445L-2.821,-0.577L-2.826,-0.576L-3.78,-0.327L-3.789,-0.319L-3.874,-0.243L-4.041,-0.095L-4.059,-0.079L-4.194,0.252L-4.028,0.506L-1.829,0.595L0.072,-1.29L0.19,-1.723L0.434,-2.452L0.142,-2.052L0,-1.857Z" style="fill:rgb(242,211,173);fill-rule:nonzero;"/>
        </g>
        <g transform="matrix(0.787402,0,0,0.787402,909.524,179.346)">
            <path d="M0,-12.435L-1.498,-13.535L-3.03,-14.129L-1.498,-13.535L0,-12.435ZM-1.8,-16.422L-1.76,-16.222L-1.759,-16.215L-1.727,-15.973L-1.716,-15.89L-1.672,-15.55L-1.466,-15.523L-1.647,-15.362L-1.542,-14.56L-1.494,-14.199L-1.519,-13.876L-2.128,-13.869L-2.321,-14.334L-2.45,-14.645L-2.892,-15.709L-3.633,-15.806L-4.219,-15.177L-4.342,-15.046L-4.371,-15.014L-4.612,-14.757L-4.432,-14.478L-4.389,-14.411L-4.109,-14.197L-4.016,-14.252L-3.557,-14.523L-3.316,-14.666L-3.239,-14.711L-3.252,-14.747L-3.332,-14.967L-3.252,-14.747L-3.239,-14.711L-3.223,-14.667L-3.214,-14.641L-3.181,-14.548L-4.025,-13.528L-3.773,-13.325L-3.685,-13.253L-3.678,-13.248L-2.9,-13.828L-2.77,-13.712L-2.767,-13.71L-3.703,-13.221L-3.765,-13.188L-3.875,-13.13L-4.054,-13.037L-4.019,-12.997L-3.831,-12.787L-3.79,-12.742L-3.576,-12.626L-3.332,-12.493L-2.708,-12.534L-2.023,-12.58L-1.935,-12.585L-1.763,-12.179L-1.635,-11.876L-1.763,-12.179L-1.935,-12.585L-2.023,-12.58L-2.708,-12.534L-3.332,-12.493L-2.917,-12.267L-2.544,-12.063L-2.171,-11.86L-2.001,-11.768L-1.92,-11.688L-1.858,-11.627L-1.816,-11.586L-1.831,-11.263L-1.835,-11.175L-1.864,-11.16L-1.889,-11.082L-1.682,-11.036L-1.519,-10.971L-1.228,-10.855L-1.22,-10.852L-1.28,-10.453L-1.365,-10.227L-1.616,-10.214L-1.882,-10.201L-2.176,-10.186L-3.199,-10.135L-3.291,-10.131L-3.298,-10.068L-3.302,-10.066L-3.426,-10.124L-3.634,-10.113L-3.947,-10.347L-4.026,-10.406L-4.041,-10.417L-4.152,-10.47L-4.279,-10.53L-4.596,-10.681L-4.823,-10.789L-4.935,-9.694L-8.595,-6.175L-10.372,-3.117L-11.714,-1.037L-10.595,-2.88L-12.591,-0.814L-13.259,-0.122L-13.511,0.304L-14.158,0.914L-14.485,2.461L-14.5,2.829L-14.239,3.109L-13.148,4.367L-12.128,4.5L-11.972,4.5L-11.719,4.199L-10.82,3.466L-9.83,1.884L-8.817,0.266L-8.895,0.33L-9.415,0.76L-8.895,0.33L-8.817,0.266L-6.385,-1.744L-2.57,-7.157L-2.016,-8.569L0.429,-12.564L0.487,-13.581L0.331,-13.959L-0.081,-14.403L-0.097,-14.42L-1.218,-15.489L-1.333,-15.6L-1.338,-15.604L-1.333,-15.6L-1.222,-15.531L-1.218,-15.489L-0.097,-14.42L-0.081,-14.403L-0.116,-14.54L-0.44,-15.752L-0.732,-16.362L-1.639,-16.935L-1.89,-16.879L-1.825,-16.55L-1.8,-16.422Z" style="fill:rgb(242,211,173);fill-rule:nonzero;"/>
        </g>
        <g transform="matrix(0.787402,0,0,0.787402,906.628,168.48)">
            <path d="M0,0.551L-0.008,0.546L-0.024,0.579L0.912,0.089L0.908,0.087L0.779,-0.028L0,0.551Z" style="fill:rgb(242,211,173);fill-rule:nonzero;"/>
        </g>
        <g transform="matrix(0.787402,0,0,0.787402,906.155,168.142)">
            <path d="M0,3.698L0.127,3.759L0.238,3.812L-0.995,2.893L-1.248,2.704L-1.391,2.638L-1.431,2.568L-1.682,2.381L-2.686,0.468L-2.991,-0.114L-3.009,-0.032L-1.456,3.005L-0.544,3.439L-0.317,3.547L0,3.698Z" style="fill:rgb(242,211,173);fill-rule:nonzero;"/>
        </g>
        <g transform="matrix(0.787402,0,0,0.787402,905.607,167.667)">
            <path d="M0,-1.122L-0.114,-0.53L-0.127,-0.385L0.041,0.35L0.107,-1.472L0,-1.122Z" style="fill:rgb(242,211,173);fill-rule:nonzero;"/>
        </g>
        <g transform="matrix(0.787402,0,0,0.787402,906.56,167.881)">
            <path d="M0,1.372L-0.008,1.235L-0.26,1.032L-0.27,0.983L-0.31,0.789L-0.131,0.601L0.117,0.34L0.343,0.103L0.542,-0.107L0.526,-0.151L0.449,-0.106L0.208,0.037L-0.251,0.308L-0.344,0.363L-0.624,0.148L-0.667,0.082L-0.77,0.986L-0.597,1.179L-0.423,1.373L-0.289,1.523L-0.11,1.429L0,1.372Z" style="fill:rgb(242,211,173);fill-rule:nonzero;"/>
        </g>
        <g transform="matrix(0.787402,0,0,0.787402,906.83,168.529)">
            <path d="M0,-0.72L-0.226,-0.484L-0.474,-0.223L-0.653,-0.034L-0.614,0.16L-0.604,0.209L0.208,-0.904L0.199,-0.929L0,-0.72Z" style="fill:rgb(242,211,173);fill-rule:nonzero;"/>
        </g>
        <g transform="matrix(0.787402,0,0,0.787402,905.54,167.026)">
            <path d="M0,-0.024L-0.029,0.284L0.085,-0.308L0,-0.024Z" style="fill:rgb(242,211,173);fill-rule:nonzero;"/>
        </g>
        <g transform="matrix(0.787402,0,0,0.787402,914.066,169.618)">
            <path d="M0,-34.195L-0.175,-34.219L-0.287,-34.259L-1.403,-34.66L-2.28,-34.975L-2.517,-35.083L-3.544,-35.548L-4.254,-35.869L-4.665,-36.054L-5.338,-36.435L-7.923,-29.714L-9.804,-24.829L-12.258,-12.527L-12.819,-8.766L-12.937,-7.9L-12.877,-5.078L-13.303,-2.492L-13.05,-2.01L-13.038,-1.988L-12.733,-1.406L-11.729,0.506L-11.478,0.693L-11.45,0.714L-11.416,0.739L-11.295,0.829L-11.042,1.018L-9.809,1.937L-9.794,1.948L-9.715,2.007L-9.402,2.24L-9.194,2.23L-9.163,2.228L-9.059,2.223L-8.967,2.218L-7.944,2.167L-7.65,2.153L-7.384,2.139L-7.133,2.127L-7.048,1.901L-6.988,1.502L-6.996,1.498L-7.287,1.383L-7.451,1.318L-7.764,1.263L-7.849,1.307L-7.875,1.32L-8.171,1.234L-8.551,1.122L-9.03,0.982L-9.073,1.029L-9.154,0.946L-9.906,0.725L-9.964,0.708L-11.087,-0.366L-11.535,-0.795L-11.687,-0.941L-12.276,-2.79L-12.574,-3.729L-12.276,-2.79L-11.687,-0.941L-11.535,-0.795L-11.087,-0.366L-9.964,0.708L-9.906,0.725L-9.154,0.946L-9.03,0.982L-8.551,1.122L-8.171,1.234L-7.875,1.32L-7.849,1.307L-7.764,1.263L-7.745,1.252L-7.632,1.194L-7.603,1.179L-7.599,1.091L-7.585,0.767L-7.627,0.726L-7.688,0.666L-7.77,0.586L-7.939,0.494L-8.312,0.29L-8.685,0.087L-9.1,-0.139L-9.344,-0.272L-9.558,-0.389L-9.696,-0.463L-9.558,-0.389L-9.599,-0.434L-9.787,-0.643L-9.822,-0.683L-9.956,-0.833L-10.13,-1.027L-10.303,-1.221L-10.56,-1.507L-10.839,-1.819L-10.56,-1.507L-10.702,-2.128L-10.871,-2.863L-10.912,-3.042L-10.829,-3.317L-10.743,-3.601L-10.637,-3.951L-10.269,-5.167L-11.299,-3.987L-10.269,-5.167L-10.106,-5.354L-8.844,-3.797L-8.731,-3.524L-8.66,-3.355L-8.218,-2.292L-8.089,-1.98L-7.896,-1.516L-8.001,-1.815L-8.697,-4.119L-8.001,-1.815L-7.896,-1.516L-7.287,-1.523L-7.262,-1.845L-7.31,-2.206L-7.415,-3.008L-7.44,-3.196L-7.484,-3.536L-7.495,-3.619L-7.527,-3.861L-7.528,-3.868L-7.568,-4.068L-7.593,-4.196L-7.658,-4.525L-7.885,-5.675L-8.376,-6.705L-8.941,-7.442L-9.343,-8.825L-8.961,-10.228L-9.343,-8.825L-9.127,-9.308L-8.257,-12.342L-3.91,-22.062L-2.216,-27.201L-0.115,-32.595L0.523,-34.121L0.451,-34.132L0,-34.195Z" style="fill:rgb(242,211,173);fill-rule:nonzero;"/>
        </g>
        <g transform="matrix(0.179868,0.766582,0.766582,-0.179868,905.463,167.161)">
            <path d="M0.079,-0.004L0.263,-0.004L0.124,0.042L-0.169,0.14L0.079,-0.004Z" style="fill:rgb(242,211,173);fill-rule:nonzero;"/>
        </g>
        <g transform="matrix(0.787402,0,0,0.787402,940.425,234.361)">
            <path d="M0,-47.148L-0.503,-47.768L-0.855,-47.83L-3.155,-47.994L-3.866,-47.923L-6.538,-47.684L-6.764,-47.605L-8.312,-46.886L-8.381,-46.856L-8.384,-46.847L-8.484,-46.096L-8.517,-45.135L-8.573,-43.489L-8.182,-40.173L-9.007,-34.375L-9.995,-26.985L-8.527,-16.551L-9.19,-26.49L-8.468,-15.89L-8.635,-9.577L-9.59,-5.509L-9.895,-3.25L-10.074,-0.466L-9.811,-0.007L-8.073,0.256L-6.331,0.283L-3.624,0.703L-3.12,0.681L-2.777,0.846L-4.291,-0.495L-4.352,-0.549L-4.839,-1.51L-5.147,-2.119L-4.839,-1.51L-4.352,-0.549L-4.291,-0.495L-4.588,-1.875L-4.698,-5.341L-3.797,-9.032L-2.6,-14.688L-0.171,-25.65L0.052,-32.41L-0.762,-40.552L-0.555,-43.8L-0.221,-45.687L-0.021,-46.818L0,-47.148Z" style="fill:rgb(242,211,173);fill-rule:nonzero;"/>
        </g>
        <g transform="matrix(0.787402,0,0,0.787402,883.434,228.029)">
            <path d="M0,-15.843L-0.083,-15.842L-0.14,-15.842L-0.2,-15.843L-1.954,-15.893L-2.259,-15.902L-3,-15.922L-4.057,-15.952L-4.348,-15.96L-4.345,-15.717L-4.324,-13.791L-5.862,-8.455L-5.114,-2.746L-5.213,-4.704L-5.114,-2.746L-4.968,0.117L-0.199,0.117L0.314,-3.085L-0.199,0.117L-0.066,0.117L1.241,-6.195L1.326,-12.551L1.3,-12.494L0.542,-10.808L1.3,-12.494L1.326,-12.551L2.226,-14.557L2.465,-15.861L0.171,-15.844L0,-15.843Z" style="fill:rgb(242,211,173);fill-rule:nonzero;"/>
        </g>
        <g transform="matrix(0.787402,0,0,0.787402,895.932,227.341)">
            <path d="M0,-14.989L-0.068,-14.988L-0.2,-14.985L-1.043,-14.968L-1.476,-14.97L-1.765,-14.972L-1.917,-14.972L-2.691,-14.977L-5.641,-14.993L-5.836,-14.994L-6.508,-14.998L-6.498,-14.967L-6.45,-14.823L-5.793,-12.876L-7.313,-6.993L-6.829,-1.422L-6.785,-0.916L-5.763,-0.483L-5.318,-0.242L-4.813,-0.183L-4.292,-0.19L-2.583,0.007L-2.057,0.009L-1.777,-0.31L-1.315,-0.41L-1.272,-0.678L-0.569,-5.099L0.032,-10.344L0.28,-12.231L0.031,-14.872L0.019,-14.989L0,-14.989Z" style="fill:rgb(242,211,173);fill-rule:nonzero;"/>
        </g>
        <g transform="matrix(0.787402,0,0,0.787402,893.313,175.038)">
            <path d="M0,-1.38L-0.332,-2.498L-0.501,-3.067L-0.572,-3.305L-0.38,-4.418L-0.073,-5.84L-0.034,-6.021L-0.174,-6.939L-0.677,-8.28L-1.288,-8.704L-2.333,-9.271L-3.325,-9.63L-4.266,-9.486L-5.439,-9.218L-6.423,-8.814L-8.241,-7.545L-9.419,-6.887L-9.423,-6.885L-10.009,-5.117L-10.311,-1.885L-11.241,-1.72L-11.419,-2.473L-11.933,-2.714L-12.423,-2.839L-12.883,-3.022L-13.081,-2.994L-13.899,-3.182L-13.901,-2.863L-13.903,-2.485L-13.915,-0.542L-13.899,-0.537L-12.562,0.108L-12.555,0.111L-10.439,4.628L-10.643,5.695L-10.671,6.27L-10.676,6.372L-10.686,6.574L-10.462,7.518L-8.745,8.135L-8.521,8.221L-8.399,8.247L-8.239,8.25L-4.802,8.157L-3.504,7.475L-3.131,7.165L-3.107,6.589L-3.016,4.412L-0.909,3.421L-0.472,3.264L0.082,0.805L0.136,0.197L0,-1.38Z" style="fill:rgb(242,211,173);fill-rule:nonzero;"/>
        </g>
        <g transform="matrix(0.787402,0,0,0.787402,906.756,166.69)">
            <path d="M0,0.091L0.218,0.232L0.332,0.219L0.472,0.204L0.335,-0.141L0,0.091Z" style="fill:rgb(242,211,173);fill-rule:nonzero;"/>
        </g>
        <g transform="matrix(0.787402,0,0,0.787402,873.603,205.936)">
            <path d="M0,-0.814L-0.062,-0.793L-0.351,-0.207L-0.293,-0.027L-0.273,0.032L0.091,-0.846L0,-0.814Z" style="fill:rgb(242,211,173);fill-rule:nonzero;"/>
        </g>
        <g transform="matrix(0.787402,0,0,0.787402,874.498,206.287)">
            <path d="M0,0.449L-0.015,0.464L0.176,0.454L0.489,0.436L0.633,0.429L0.831,0.417L0.877,0.114L0.436,-0.015L0,0.449Z" style="fill:rgb(242,211,173);fill-rule:nonzero;"/>
        </g>
        <g transform="matrix(0.787402,0,0,0.787402,874.884,207.125)">
            <path d="M0,-0.627L-0.313,-0.609L-0.505,-0.599L-0.984,-0.572L-1.314,-0.554L-1.699,-0.865L-1.654,-0.728L-1.62,-0.624L-1.36,-0.431L-0.912,-0.101L-0.454,0.238L0.363,-0.018L0.878,-0.127L1.127,-0.414L0.748,-0.669L0.341,-0.646L0.143,-0.635L0,-0.627Z" style="fill:rgb(242,211,173);fill-rule:nonzero;"/>
        </g>
        <g transform="matrix(0.787402,0,0,0.787402,879.595,205.935)">
            <path d="M0,-16.918L-0.048,-17.442L-0.496,-17.928L-0.771,-18.365L-1.18,-18.585L-1.537,-18.757L-2.966,-19.215L-3.311,-19.291L-3.428,-19.223L-3.95,-19.199L-4.142,-18.299L-4.769,-15.364L-6.545,-10.928L-8.659,-4.889L-8.695,-4.275L-8.185,-5.627L-8.695,-4.275L-10.049,-0.688L-10.297,0.121L-10.152,0.536L-9.791,1.213L-8.013,2.331L-7.752,2.162L-7.898,1.969L-8.82,1.211L-9.524,-0.181L-8.82,1.211L-7.898,1.969L-7.731,2.106L-7.71,2.123L-7.661,2.133L-7.649,2.136L-7.498,2.167L-6.52,2.373L-6.253,2.126L-6.251,1.887L-6.369,1.8L-6.437,1.749L-6.896,1.41L-7.343,1.08L-7.604,0.887L-7.638,0.783L-7.683,0.646L-7.884,0.033L-7.903,-0.026L-7.962,-0.205L-8.028,-0.408L-8.183,-0.88L-8.028,-0.408L-7.962,-0.205L-7.673,-0.79L-7.61,-0.812L-7.52,-0.844L-6.585,-1.17L-6.577,-1.556L-6.585,-1.17L-6.597,-0.615L-6.169,0.434L-6.037,0.433L-5.807,0.429L-5.232,-0.883L-5.591,-2.522L-5.45,-2.279L-5.839,-4.654L-5.842,-4.672L-5.944,-5.295L-5.842,-4.672L-5.839,-4.654L-2.07,-10.216L-1.389,-13.581L-1.387,-13.59L-0.134,-16.592L-0.076,-16.734L0,-16.918Z" style="fill:rgb(242,211,173);fill-rule:nonzero;"/>
        </g>
    </g>
</svg>
