<?xml version="1.0" encoding="UTF-8" standalone="no"?>
<!DOCTYPE svg PUBLIC "-//W3C//DTD SVG 1.1//EN" "http://www.w3.org/Graphics/SVG/1.1/DTD/svg11.dtd">
<svg width="100%" height="100%" viewBox="0 0 100 200" version="1.1" xmlns="http://www.w3.org/2000/svg" xmlns:xlink="http://www.w3.org/1999/xlink" xml:space="preserve" xmlns:serif="http://www.serif.com/" style="fill-rule:evenodd;clip-rule:evenodd;stroke-linejoin:round;stroke-miterlimit:2;">
    <g transform="matrix(1,0,0,1,-1219.98,-226.283)">
        <g id="person-large-light-left" serif:id="person large light left">
            <g id="Layer-1" serif:id="Layer 1">
                <g>
                    <g transform="matrix(1,0,0,1,1284.23,416.961)">
                        <path d="M0,-73.733L-0.042,-73.737L-1.468,-73.957L-1.819,-74.012L-2.851,-74.169L-3.908,-74.329L-5.088,-74.511L-6.023,-74.609L-10.82,-75.112L-11.425,-75.171L-11.912,-75.218L-11.84,-75.108L-11.468,-74.896L-9.885,-74.008L-9.467,-73.665L-8.836,-72.862L-7.588,-70.929L-7.28,-69.224L-7.073,-68.065L-7.639,-67.858L-6.823,-66.14L-6.709,-64.372L-7.885,-63.628L-8.722,-63.974L-8.98,-64.55L-8.726,-64.761L-8.726,-65.078L-8.925,-65.387L-9.949,-64.427L-11.692,-64.182L-12.123,-64.347L-13.164,-64.753L-13.532,-64.892L-14.538,-64.858L-16.061,-65.396L-16.454,-65.979L-17.872,-69.351L-19.589,-73.437L-20.147,-74.74L-20.828,-75.649L-21.014,-75.899L-27.584,-75.941L-31.619,-75.806L-33.937,-75.725L-35.092,-75.687L-35.853,-75.662L-38.205,-75.374L-40.083,-75.146L-40.798,-75.061L-39.8,-73.928L-38.945,-63.217L-34.927,-39.153L-35.409,-36.594L-37.321,-32.317L-39.258,-20.329L-39.487,-5.897L-39.512,-1.442L-38.814,1.959L-38.764,2.208L-38.544,2.187L-36.758,2.039L-35.688,1.955L-35.485,1.937L-31.463,1.62L-29.69,1.481L-29.217,1.396L-27.685,1.121L-26.674,0.939L-23.404,0.351L-23.32,0.334L-20.35,-0.021L-19.669,-0.106L-19.5,-0.123L-19.306,-0.148L-19.268,-0.152L-17.373,-0.77L-18.223,-4.306L-17.131,-6.785L-18.113,-19.479L-16.992,-29.72L-15.735,-36.957L-13.109,-42.939L-5.998,-61.961L-2.441,-72.015L0.034,-73.272L0,-73.733Z" style="fill:rgb(66,76,160);fill-rule:nonzero;"/>
                    </g>
                    <g transform="matrix(1,0,0,1,1274.98,426.014)">
                        <path d="M0,-2.208L-3.968,-1.984L-9.729,-1.963L-15.892,-1.963L-22.694,-2.432L-28.438,-2.508L-28.988,-2.542L-28.988,0.33L-28.396,0.33L-23.608,0.326L-22.694,0.326L-16.556,0.317L-14.348,0.317L-10.173,0.334L0.711,0.334L0.711,-2.204L0,-2.208Z" style="fill:rgb(142,142,142);fill-rule:nonzero;"/>
                    </g>
                    <g transform="matrix(1,0,0,1,1274.8,419.402)">
                        <path d="M0,2.06L-6.155,-0.41L-9.873,-2.589L-10.067,-2.564L-10.236,-2.546L-10.918,-2.462L-13.887,-2.107L-13.972,-2.09L-17.241,-1.502L-18.252,-1.32L-19.784,-1.045L-20.257,-0.96L-22.03,-0.821L-26.052,-0.503L-26.255,-0.486L-27.326,-0.402L-29.111,-0.254L-29.331,-0.233L-29.381,-0.482L-29.5,0.199L-29.377,2.682L-28.806,4.069L-28.256,4.103L-22.512,4.179L-15.71,4.649L-9.547,4.649L-3.786,4.628L0.182,4.403L0.893,4.408L0,2.06Z" style="fill:rgb(250,192,41);fill-rule:nonzero;"/>
                    </g>
                    <g transform="matrix(1,0,0,1,1285.11,304.664)">
                        <path d="M0,5.266L-4.873,-4.252L-5.689,-7.183L-6.273,-11.916L-12.542,-22.635L-13.143,-24.069L-14.471,-25.935L-18.252,-28.054L-18.587,-28.24L-19.259,-28.62L-20.156,-29.124L-20.938,-29.56L-21.112,-29.623L-21.429,-29.792L-22.453,-30.372L-23.963,-31.235L-24.547,-31.599L-24.8,-31.742L-24.839,-31.751L-29.06,-32.868L-29.635,-33.02L-31.738,-33.248L-33.561,-33.447L-34.136,-33.51L-34.314,-33.532L-35.659,-33.726L-35.748,-33.739L-36.958,-33.912L-38.84,-32.064L-42.841,-23.396L-42.981,-21.446L-43.687,-11.709L-43.188,0.342L-43.231,7.254L-45.68,22.96L-45.765,29.707L-46.099,38.319L-45.866,38.15L-44.8,37.9L-42.266,37.308L-41.674,37.236L-40.959,37.151L-39.081,36.923L-36.729,36.636L-35.968,36.61L-34.813,36.572L-32.495,36.492L-28.46,36.356L-21.89,36.399L-23.527,34.212L-27.948,26.606L-31.518,20.456L-32.474,18.806L-34.5,12.355L-34.868,11.192L-35.206,10.025L-35.989,7.343L-36.852,4.39L-37.325,2.779L-37.973,0.558L-38.396,-0.893L-39.783,-1.405L-39.766,-3.613L-39.22,-3.714L-38.197,-3.9L-37.985,-3.939L-34.897,-4.51L-34.47,-4.526L-33.286,-4.577L-30.219,-4.713L-29.17,-4.755L-27.389,-4.594L-26.251,-4.488L-25.401,-4.408L-23.929,-4.273L-23.024,-3.837L-22.364,-3.52L-22.33,-3.507L-21.662,-3.185L-21.205,-2.965L-21.226,-2.894L-21.687,-1.481L-21.73,-1.354L-22.127,-1.151L-21.916,1.328L-21.759,3.16L-21.696,3.904L-21.074,11.116L-19.987,14.047L-19.141,16.323L-18.701,18.861L-18.05,22.643L-16.577,31.175L-12.787,37.08L-12.301,37.126L-11.696,37.185L-6.899,37.689L-5.964,37.786L-4.784,37.968L-3.727,38.129L-2.695,38.285L-2.344,38.34L-0.918,38.56L-0.876,38.565L-0.681,38.594L3.333,39.178L3.959,20.634L0,5.266Z" style="fill:rgb(130,195,65);fill-rule:nonzero;"/>
                    </g>
                    <g transform="matrix(1,0,0,1,1284.27,343.229)">
                        <path d="M0,0.461L0.161,0.03L-0.034,0L0,0.461Z" style="fill:rgb(102,102,102);fill-rule:nonzero;"/>
                    </g>
                    <g transform="matrix(1,0,0,1,1262.78,303.513)">
                        <path d="M0,-2.356L0.135,-0.774L0.203,0L0.6,-0.203L0.643,-0.33L1.104,-1.742L1.125,-1.814L0.668,-2.034L0,-2.356Z" style="fill:rgb(102,102,102);fill-rule:nonzero;"/>
                    </g>
                    <g transform="matrix(1,0,0,1,1245.89,303.771)">
                        <path d="M0,-2.821L-0.546,-2.719L-0.563,-0.512L0.825,0L0.101,-2.483L0,-2.821Z" style="fill:rgb(102,102,102);fill-rule:nonzero;"/>
                    </g>
                    <g transform="matrix(1,0,0,1,1271.6,261.796)">
                        <path d="M0,-0.609L-0.182,-0.711L0.567,-0.711L0,-0.609ZM-1.751,-3.71L-1.747,-3.731L-1.734,-3.735L-1.751,-3.71ZM0.596,-2.825L-0.427,-4.137L-0.554,-6.151L-1.781,-10.181L-4.078,-13.104L-9.023,-15.422L-15.469,-15.321L-20.651,-12.698L-23.984,-5.951L-23.392,0.398L-20.71,6.142L-22.241,9.128L-22.153,9.141L-20.807,9.336L-20.63,9.357L-20.055,9.42L-18.231,9.62L-16.129,9.848L-15.554,10L-11.332,11.117L-11.294,11.125L-11.04,11.269L-10.457,11.633L-8.946,12.495L-7.923,13.075L-7.606,13.245L-7.432,13.308L-6.65,13.744L-5.753,14.247L-5.08,14.627L-4.746,14.813L-4.708,14.027L-3.371,12.534L-2.631,10.067L-1.493,9.869L-0.761,9.061L-0.093,7.25L-0.44,5.321L0.131,4.831L0.368,4.124L-0.038,3.321L-0.174,3.418L0.575,2.614L0.406,1.303L1.806,0.195L1.997,0.093L1.997,-1.214L0.596,-2.825Z" style="fill:rgb(120,71,34);fill-rule:nonzero;"/>
                    </g>
                    <g transform="matrix(0.387507,0.921867,0.921867,-0.387507,1266.33,347.528)">
                        <path d="M0.089,-0.003L3.746,-0.003L4.436,0.133L-4.343,-0.002L0.089,-0.003Z" style="fill:rgb(120,71,34);fill-rule:nonzero;"/>
                    </g>
                    <g transform="matrix(1,0,0,1,1277.41,302.422)">
                        <path d="M0,48.399L-0.816,46.682L-0.25,46.474L-0.457,45.315L-0.766,43.611L-2.014,41.678L-2.644,40.874L-3.063,40.531L-4.645,39.643L-5.017,39.431L-5.089,39.321L-8.879,33.416L-10.351,24.884L-11.002,21.103L-11.442,18.565L-12.288,16.289L-13.375,13.358L-13.997,6.146L-14.06,5.401L-14.217,3.569L-14.429,1.091L-14.496,0.317L-14.631,-1.266L-14.665,-1.278L-15.325,-1.595L-16.23,-2.031L-17.703,-2.166L-18.553,-2.247L-19.691,-2.352L-21.471,-2.513L-22.52,-2.471L-25.587,-2.336L-26.772,-2.285L-27.199,-2.268L-30.287,-1.697L-30.498,-1.659L-31.522,-1.473L-31.42,-1.134L-30.697,1.349L-30.274,2.8L-29.627,5.02L-29.153,6.632L-28.29,9.585L-27.508,12.266L-27.169,13.434L-26.801,14.597L-24.775,21.048L-23.819,22.698L-20.249,28.848L-15.829,36.454L-14.192,38.64L-14.005,38.89L-13.325,39.799L-9.238,49.144L-7.715,49.681L-6.709,49.647L-6.341,49.786L-5.3,50.193L-4.869,50.357L-3.126,50.112L-2.102,49.152L-1.904,49.461L-1.904,49.778L-2.157,49.989L-1.899,50.565L-1.062,50.912L0.114,50.167L0,48.399Z" style="fill:rgb(120,71,34);fill-rule:nonzero;"/>
                    </g>
                </g>
            </g>
        </g>
    </g>
</svg>
