<?xml version="1.0" encoding="UTF-8" standalone="no"?>
<!DOCTYPE svg PUBLIC "-//W3C//DTD SVG 1.1//EN" "http://www.w3.org/Graphics/SVG/1.1/DTD/svg11.dtd">
<svg width="100%" height="100%" viewBox="0 0 100 200" version="1.1" xmlns="http://www.w3.org/2000/svg" xmlns:xlink="http://www.w3.org/1999/xlink" xml:space="preserve" xmlns:serif="http://www.serif.com/" style="fill-rule:evenodd;clip-rule:evenodd;stroke-linejoin:round;stroke-miterlimit:2;">
    <g id="person-large-light-left" serif:id="person large light left">
    </g>
    <g transform="matrix(1,0,0,1,-1391.4,-226.542)">
        <g id="person-no-light-right" serif:id="person no light right">
            <g>
                <g transform="matrix(1,0,0,1,1461,417.156)">
                    <path d="M0,-74.122L0.998,-75.256L0.283,-75.341L-1.595,-75.569L-3.947,-75.856L-4.704,-75.882L-5.863,-75.92L-8.181,-76L-12.216,-76.136L-18.65,-76.093L-18.95,-75.687L-19.653,-74.731L-20.461,-72.895L-21.895,-69.503L-23.345,-66.072L-23.739,-65.459L-25.261,-64.994L-26.091,-65.015L-26.62,-64.833L-27.618,-64.482L-28.108,-64.309L-29.851,-64.558L-30.841,-65.48L-31.074,-65.129L-31.074,-64.972L-30.82,-64.778L-31.078,-64.165L-31.915,-63.776L-33.091,-64.528L-32.952,-65.683L-32.977,-66.22L-32.101,-68.018L-32.728,-68.242L-32.516,-69.414L-32.211,-71.098L-30.964,-72.984L-30.333,-73.822L-29.915,-74.088L-28.311,-74.989L-27.918,-75.209L-27.783,-75.425L-28.375,-75.366L-28.98,-75.307L-33.776,-74.803L-34.711,-74.706L-35.891,-74.524L-36.949,-74.363L-37.981,-74.207L-38.332,-74.152L-39.758,-73.932L-39.8,-73.927L-39.995,-73.898L-39.834,-73.466L-37.359,-72.21L-33.802,-62.155L-26.691,-43.133L-24.065,-37.152L-22.808,-29.914L-21.687,-19.674L-22.669,-6.979L-21.577,-4.501L-22.427,-0.964L-20.528,-0.347L-20.495,-0.342L-20.3,-0.317L-20.131,-0.3L-19.45,-0.216L-16.48,0.14L-16.396,0.157L-13.126,0.745L-12.115,0.927L-10.583,1.201L-10.11,1.286L-8.337,1.426L-4.315,1.743L-4.111,1.76L-3.041,1.845L-1.256,1.993L-1.036,2.014L-0.986,1.764L-0.288,-1.637L-0.313,-6.091L-0.541,-20.524L-2.479,-32.512L-4.386,-36.788L-4.873,-39.347L-0.854,-63.412L0,-74.122Z" style="fill:rgb(66,76,160);fill-rule:nonzero;"/>
                </g>
                <g transform="matrix(1,0,0,1,1458.89,426.314)">
                    <path d="M0,-2.809L-5.749,-2.733L-12.551,-2.263L-18.714,-2.263L-24.471,-2.284L-28.443,-2.509L-29.153,-2.504L-29.153,0.034L-18.27,0.034L-14.094,0.017L-11.886,0.017L-11.886,0.029L-4.831,0.029L-4.831,0.025L-0.047,0.029L0.546,0.029L0.546,-2.843L0,-2.809Z" style="fill:rgb(142,142,142);fill-rule:nonzero;"/>
                </g>
                <g transform="matrix(1,0,0,1,1460.02,421.945)">
                    <path d="M0,-3.025L-0.051,-2.775L-0.271,-2.796L-2.056,-2.945L-3.126,-3.029L-3.329,-3.046L-7.352,-3.364L-9.124,-3.503L-9.598,-3.588L-11.129,-3.863L-12.14,-4.045L-15.41,-4.632L-15.494,-4.649L-18.464,-5.005L-19.145,-5.089L-19.314,-5.106L-19.509,-5.131L-23.227,-2.953L-29.381,-0.483L-30.274,1.865L-29.563,1.86L-25.591,2.085L-19.834,2.106L-13.671,2.106L-6.869,1.636L-1.121,1.56L-0.575,1.526L0,0.139L0.119,-2.344L0,-3.025Z" style="fill:rgb(250,192,41);fill-rule:nonzero;"/>
                </g>
                <g transform="matrix(1,0,0,1,1466.09,280.223)">
                    <path d="M0,54.148L-0.085,47.401L-2.534,31.695L-2.576,24.783L-2.077,12.732L-2.779,2.995L-2.923,1.045L-6.925,-7.623L-8.807,-9.471L-10.017,-9.298L-10.106,-9.285L-11.446,-9.091L-11.628,-9.069L-12.204,-9.006L-14.027,-8.807L-16.129,-8.579L-16.704,-8.426L-20.926,-7.31L-20.964,-7.301L-21.218,-7.157L-21.801,-6.794L-23.312,-5.931L-24.335,-5.351L-24.648,-5.182L-24.822,-5.119L-25.609,-4.683L-26.505,-4.179L-27.178,-3.799L-27.512,-3.613L-31.294,-1.494L-32.622,0.372L-33.222,1.806L-39.491,12.525L-40.075,17.258L-40.891,20.19L-45.765,29.707L-49.724,45.075L-49.098,63.619L-45.083,63.035L-44.889,63.006L-44.846,63.001L-43.421,62.781L-43.07,62.726L-42.038,62.57L-40.98,62.409L-39.8,62.227L-38.865,62.13L-34.068,61.627L-33.464,61.567L-32.871,61.508L-29.187,55.789L-27.664,46.97L-27.034,43.306L-26.624,40.938L-25.786,38.649L-24.686,35.638L-24.069,28.345L-24.005,27.601L-23.853,25.773L-23.641,23.29L-24.035,23.087L-24.077,22.96L-24.534,21.547L-24.56,21.476L-24.103,21.256L-23.443,20.938L-23.405,20.921L-22.736,20.6L-21.835,20.169L-20.308,20.025L-19.484,19.949L-18.396,19.851L-16.594,19.686L-15.511,19.733L-12.402,19.864L-11.286,19.915L-10.867,19.931L-7.762,20.502L-7.555,20.541L-6.565,20.722L-5.998,20.828L-5.981,23.036L-7.386,23.556L-7.8,24.986L-8.452,27.22L-8.917,28.84L-9.776,31.784L-10.554,34.47L-10.896,35.655L-11.26,36.814L-13.286,43.34L-14.196,44.906L-17.812,51.153L-22.237,58.797L-23.739,60.84L-17.305,60.797L-13.27,60.933L-10.951,61.013L-9.792,61.051L-9.035,61.077L-6.683,61.365L-4.805,61.593L-4.091,61.677L-3.498,61.749L-0.96,62.341L0.106,62.591L0.334,62.76L0,54.148Z" style="fill:rgb(130,195,65);fill-rule:nonzero;"/>
                </g>
                <g transform="matrix(1,0,0,1,1441.53,302.975)">
                    <path d="M0,-1.277L0.026,-1.205L0.482,0.207L0.525,0.335L0.918,0.537L0.986,-0.228L1.117,-1.814L0.457,-1.497L0,-1.277Z" style="fill:rgb(102,102,102);fill-rule:nonzero;"/>
                </g>
                <g transform="matrix(1,0,0,1,1460.09,303.673)">
                    <path d="M0,-2.622L-0.567,-2.728L-0.656,-2.415L-1.387,0.106L0.017,-0.414L0,-2.622Z" style="fill:rgb(102,102,102);fill-rule:nonzero;"/>
                </g>
                <g transform="matrix(1,0,0,1,1458.54,352.526)">
                    <path d="M0,-51.762L-0.207,-51.8L-3.312,-52.371L-3.731,-52.388L-4.848,-52.439L-7.957,-52.57L-9.04,-52.617L-10.841,-52.452L-11.929,-52.354L-12.754,-52.278L-14.28,-52.134L-15.182,-51.703L-15.85,-51.382L-15.888,-51.365L-16.019,-49.778L-16.087,-49.013L-16.298,-46.53L-16.45,-44.702L-16.514,-43.958L-17.131,-36.665L-18.231,-33.653L-19.069,-31.365L-19.479,-28.996L-20.11,-25.333L-21.632,-16.513L-25.317,-10.794L-25.452,-10.579L-25.845,-10.359L-27.449,-9.458L-27.867,-9.191L-28.498,-8.354L-29.745,-6.467L-30.05,-4.784L-30.261,-3.612L-29.635,-3.388L-30.511,-1.59L-30.486,-1.053L-30.625,0.102L-29.449,0.855L-28.612,0.466L-28.354,-0.148L-28.608,-0.342L-28.608,-0.499L-28.375,-0.85L-27.385,0.072L-25.642,0.322L-25.152,0.148L-24.153,-0.203L-23.625,-0.385L-22.795,-0.363L-21.273,-0.829L-20.879,-1.442L-19.428,-4.873L-17.995,-8.265L-17.187,-10.101L-16.484,-11.057L-16.184,-11.463L-14.682,-13.506L-10.258,-21.15L-6.641,-27.397L-5.732,-28.963L-3.705,-35.489L-3.342,-36.648L-2.999,-37.833L-2.221,-40.519L-1.362,-43.463L-0.897,-45.083L-0.245,-47.316L0.169,-48.746L0.901,-51.267L0.99,-51.58L0,-51.762Z" style="fill:rgb(120,71,34);fill-rule:nonzero;"/>
                </g>
                <g transform="matrix(1,0,0,1,1435.57,264.921)">
                    <path d="M0,-6.86L0.013,-6.856L0.017,-6.835L0,-6.86ZM-1.734,-3.734L-2.301,-3.836L-1.552,-3.836L-1.734,-3.734ZM22.25,-9.076L18.921,-15.823L13.735,-18.446L7.288,-18.548L2.344,-16.229L0.047,-13.306L-1.18,-9.276L-1.104,-9.131L-1.307,-7.262L-2.331,-5.95L-3.731,-4.339L-3.731,-3.032L-2.14,-1.822L-2.136,-1.822L-2.31,-0.511L-1.556,0.293L-1.696,0.196L-2.098,0.999L-1.865,1.706L-1.294,2.196L-1.637,4.125L-0.973,5.936L-0.241,6.744L0.897,6.942L1.637,9.409L2.974,10.902L3.012,11.688L3.346,11.502L4.019,11.122L4.915,10.619L5.702,10.182L5.875,10.119L6.189,9.95L7.212,9.37L8.722,8.508L9.306,8.144L9.56,8L9.598,7.992L13.819,6.875L14.395,6.723L16.497,6.494L18.32,6.295L18.895,6.232L19.077,6.211L20.418,6.016L20.507,6.003L18.976,3.017L21.658,-2.727L22.25,-9.076Z" style="fill:rgb(120,71,34);fill-rule:nonzero;"/>
                </g>
            </g>
        </g>
    </g>
</svg>
