<?xml version="1.0" encoding="UTF-8" standalone="no"?>
<!DOCTYPE svg PUBLIC "-//W3C//DTD SVG 1.1//EN" "http://www.w3.org/Graphics/SVG/1.1/DTD/svg11.dtd">
<svg width="100%" height="100%" viewBox="0 0 370 930" version="1.1" xmlns="http://www.w3.org/2000/svg" xmlns:xlink="http://www.w3.org/1999/xlink" xml:space="preserve" xmlns:serif="http://www.serif.com/" style="fill-rule:evenodd;clip-rule:evenodd;stroke-linejoin:round;stroke-miterlimit:2;">
    <g transform="matrix(1,0,0,1,-634.062,-5701.24)">
        <g id="lamp-modern-left">
            <g>
                <g transform="matrix(1,0,0,1,724.185,6005.87)">
                    <path d="M0,2.497C0.92,1.906 1.348,0.964 1.201,-0.113C-17.123,-0.284 -35.621,-0.49 -53.945,-0.616C-54.127,0.4 -53.612,1.462 -52.748,2.011L-52.748,2.015L-52.799,2.011L-52.304,2.231L-52.71,2.032C-52.703,2.037 -52.245,2.23 -52.241,2.239C-51.191,2.224 -49.861,2.281 -48.802,2.281L-48.836,2.256C-48.549,2.308 -47.307,2.282 -46.995,2.298L-46.995,2.273C-41.431,2.386 -35.311,2.474 -29.716,2.506C-29.699,2.489 -29.658,2.448 -29.644,2.429L-29.636,2.429L-29.644,2.459L-26.235,2.488L-26.235,2.463L-26.142,2.463C-26.163,2.478 -26.218,2.522 -26.239,2.539C-21.919,2.504 -16.754,2.768 -12.462,2.594L-12.479,2.611L-9.391,2.637L-9.391,2.624L-9.167,2.624L-9.179,2.641L-6.176,2.666L-6.176,2.653L-5.943,2.658C-5.961,2.66 -6.154,2.723 -6.176,2.73C-4.46,2.602 -1.608,3.113 0,2.497" style="fill:rgb(151,152,155);fill-rule:nonzero;"/>
                </g>
                <g transform="matrix(-0.00755534,-0.999971,-0.999971,0.00755534,724.892,6006.88)">
                    <path d="M-1.751,-0.49C-1.284,-0.506 -0.622,-0.511 -0.156,-0.447C-0.971,-0.003 -1.759,0.769 -1.751,1.76C-1.824,1.341 -2.026,-0.041 -2.098,-0.483C-2.039,-0.483 -1.813,-0.488 -1.751,-0.49" style="fill:rgb(151,152,155);fill-rule:nonzero;"/>
                </g>
                <g transform="matrix(1,0,0,1,725.391,6005.75)">
                    <path d="M0,0.66L0.03,0L0.013,0L0,0.66Z" style="fill:rgb(151,152,155);fill-rule:nonzero;"/>
                </g>
                <g transform="matrix(1,0,0,1,672.431,6008.11)">
                    <path d="M0,0.047C-0.108,0.028 -0.38,-0.017 -0.486,-0.004L0,0.064L0,0.047Z" style="fill:rgb(151,152,155);fill-rule:nonzero;"/>
                </g>
                <g transform="matrix(1,0,0,1,677.397,6008.66)">
                    <path d="M0,0.004L-0.211,0.004L-0.211,-0L-0.233,-0.005C-0.052,0.006 4.007,0.023 4.276,0.029C1.376,-0.003 -2.026,-0.037 -4.919,-0.042C-3.694,-0.028 2.558,0.041 3.879,0.046C3.277,0.04 0.542,0.009 0,0.004" style="fill:rgb(99,102,106);fill-rule:nonzero;"/>
                </g>
                <g transform="matrix(1,0,0,1,721.157,6008.64)">
                    <path d="M0,-0.009C-16.163,-0.156 -32.513,-0.337 -48.675,-0.453L-48.679,-0.018C-31.842,0.097 -14.868,0.288 1.971,0.444C1.971,0.437 1.975,0.018 1.975,0.012L0,-0.009Z" style="fill:rgb(99,102,106);fill-rule:nonzero;"/>
                </g>
                <g transform="matrix(1,0,0,1,670.625,6000.75)">
                    <path d="M0,3.418L-0.385,4.505C-0.26,4.523 -0.09,4.49 0.009,4.408L0.009,4.505C18.202,4.64 36.569,4.836 54.762,5.008C54.764,4.87 54.767,4.642 54.766,4.505L54.77,4.501L54.77,4.192C43.671,1.613 31.995,0.206 20.617,-0.296C13.928,-0.335 5.354,-1.59 0.021,3.312C0.026,3.34 0.014,3.393 0,3.418" style="fill:rgb(99,102,106);fill-rule:nonzero;"/>
                </g>
                <g transform="matrix(1,0,0,1,725.387,6006.41)">
                    <path d="M0,-0.652C0,-0.62 0.004,-0.032 0.004,0.004L0.017,-0.656L0,-0.652Z" style="fill:rgb(99,102,106);fill-rule:nonzero;"/>
                </g>
                <g transform="matrix(1,0,0,1,960.164,6628.47)">
                    <path d="M0,0.008C0.216,0.009 1.175,0 1.37,0.01L1.37,-0.002L-1.785,-0.002L-1.785,0.006L0,0.008Z" style="fill:rgb(99,102,106);fill-rule:nonzero;"/>
                </g>
                <g transform="matrix(1,0,0,1,727.049,6008.33)">
                    <path d="M0,-3.74C0,-3.915 0.006,-4.217 0.008,-4.391L-1.612,-4.404C-1.632,-2.732 -1.685,-1.019 -1.658,0.651L-0.038,0.664C-0.033,-0.78 -0.008,-2.296 0,-3.74" style="fill:rgb(99,102,106);fill-rule:nonzero;"/>
                </g>
                <g transform="matrix(1,0,0,1,768.972,6027.5)">
                    <path d="M0,-20.985L-0.309,-20.989L-0.309,-20.998L0.296,-20.981L0,-20.985ZM179.081,4.661C179.52,3.356 179.484,1.894 179.09,0.584C108.023,-19.488 31.753,-25.714 -41.923,-22.982C-41.908,-21.658 -41.884,-20.291 -41.873,-18.967C-20.035,-19.228 8.425,-19.934 30.084,-18.798C29.333,-18.871 26.444,-19.152 25.642,-19.23C76.977,-16.638 129.5,-9.157 179.052,4.729C179.046,4.72 179.078,4.669 179.081,4.661" style="fill:rgb(99,102,106);fill-rule:nonzero;"/>
                </g>
                <g transform="matrix(1,0,0,1,941.535,6628.49)">
                    <path d="M0,-0.017C-0.309,-0.017 -0.742,-0.016 -1.049,-0.016L-1.049,0L0.448,0L0.448,-0.017L0,-0.017Z" style="fill:rgb(99,102,106);fill-rule:nonzero;"/>
                </g>
                <g transform="matrix(1,0,0,1,948.426,6026.16)">
                    <path d="M0,10.347L0.283,10.351L0.283,10.347L0.283,10.351C0.576,10.346 0.929,10.358 1.222,10.356L1.32,0.001C0.775,-0.001 0.197,-0.011 -0.347,-0.008C-0.321,0.07 -0.417,1.941 -0.334,2.001C-0.183,2.654 -0.031,3.402 -0.042,4.082C-0.063,4.657 -0.149,5.335 -0.351,5.872C-0.352,5.916 -0.384,6.028 -0.402,6.066L-0.44,10.347L0,10.347Z" style="fill:rgb(99,102,106);fill-rule:nonzero;"/>
                </g>
                <g transform="matrix(0.0626517,0.998035,0.998035,-0.0626517,952.34,6613.94)">
                    <path d="M13.749,-12.91C14.317,-3.82 14.898,5.441 15.472,14.531L13.749,14.639C13.175,5.55 12.594,-3.713 12.026,-12.802L13.749,-12.91Z" style="fill:rgb(99,102,106);fill-rule:nonzero;"/>
                </g>
                <g transform="matrix(1,0,0,1,958.379,6628.5)">
                    <path d="M0,-0.018C-1.071,-0.019 -3.241,-0.02 -4.315,-0.02L-4.315,0.002C-2.507,0.002 -0.018,0.001 1.785,-0.001L1.785,-0.016L0,-0.018Z" style="fill:rgb(99,102,106);fill-rule:nonzero;"/>
                </g>
                <g transform="matrix(1,0,0,1,948.667,6553.83)">
                    <path d="M0,-475.462L-0.004,-475.462L0,-475.462ZM-3.232,72.917L13.997,72.917L10.554,-548.366C7.122,-548.379 3.643,-548.379 0.211,-548.366L0.097,-527.673C0.578,-527.663 1.161,-527.667 1.645,-527.656L1.565,-517.305C1.089,-517.307 0.515,-517.315 0.042,-517.314C0.042,-517.315 -3.232,72.916 -3.232,72.917Z" style="fill:rgb(99,102,106);fill-rule:nonzero;"/>
                </g>
                <g transform="matrix(1,0,0,1,725.429,6004.81)">
                    <path d="M0,0.211L0.004,-0.22L-0.034,0.431L0,0.211Z" style="fill:rgb(99,102,106);fill-rule:nonzero;"/>
                </g>
                <g transform="matrix(1,0,0,1,725.42,6005.13)">
                    <path d="M0,0.613L0.004,0C0.003,0.079 -0.022,0.547 0,0.613" style="fill:rgb(99,102,106);fill-rule:nonzero;"/>
                </g>
                <g transform="matrix(1,0,0,1,946.704,6628.49)">
                    <path d="M0,-0.01L0.127,-0.01C0.138,0.006 1.243,-0.012 1.256,-0.006L1.256,-0.016L-0.114,-0.016L-0.114,-0.009L0,-0.01Z" style="fill:rgb(99,102,106);fill-rule:nonzero;"/>
                </g>
                <g transform="matrix(0.00772849,-0.99997,-0.99997,-0.00772849,955.161,6031.13)">
                    <rect x="-5.429" y="4.887" width="10.355" height="0.566" style="fill:rgb(99,102,106);"/>
                </g>
                <g transform="matrix(-0.999962,0.00877159,0.00877159,0.999962,946.728,6628.48)">
                    <path d="M0.024,-0.003L0.138,-0.003L0.138,0.002L-0.114,0.003C-0.113,-0.005 0.018,-0.002 0.024,-0.003" style="fill:rgb(99,102,106);fill-rule:nonzero;"/>
                </g>
                <g transform="matrix(1,0,0,1,950.393,5999.93)">
                    <path d="M0,5.527C2.599,5.518 5.269,5.523 7.868,5.527C7.603,0 -0.291,0.005 -0.554,5.527L0,5.527Z" style="fill:rgb(99,102,106);fill-rule:nonzero;"/>
                </g>
                <g transform="matrix(1,0,0,1,962.398,6628.49)">
                    <path d="M0,-0.005C-0.185,-0.013 -0.675,-0.015 -0.863,-0.007L-0.863,0.004C-0.799,0.009 -0.424,0.007 -0.351,0.007L-0.347,0.01L0,0.001L0,-0.005Z" style="fill:rgb(99,102,106);fill-rule:nonzero;"/>
                </g>
            </g>
        </g>
    </g>
</svg>
