<?xml version="1.0" encoding="UTF-8" standalone="no"?>
<!DOCTYPE svg PUBLIC "-//W3C//DTD SVG 1.1//EN" "http://www.w3.org/Graphics/SVG/1.1/DTD/svg11.dtd">
<svg width="100%" height="100%" viewBox="0 0 390 546" version="1.1" xmlns="http://www.w3.org/2000/svg" xmlns:xlink="http://www.w3.org/1999/xlink" xml:space="preserve" xmlns:serif="http://www.serif.com/" style="fill-rule:evenodd;clip-rule:evenodd;stroke-linejoin:round;stroke-miterlimit:2;">
    <g id="Artboard1" transform="matrix(0.945824,0,0,0.9377,145.409,113.561)">
        <rect x="-153.737" y="-121.106" width="411.378" height="581.315" style="fill:none;"/>
        <g transform="matrix(1.05728,0,0,1.06644,-460.573,-6612.37)">
            <g id="lampost-right">
                <g>
                    <g transform="matrix(1,0,0,1,562.907,6225.47)">
                        <path d="M0,40.456C-1.937,39.617 -3.607,38.274 -4.828,36.553C-7.9,32.226 -13.555,23.541 -14.163,17.466C-14.656,12.288 -14.506,5.413 -11.121,1.188C-10.217,0.119 -9.013,-0.822 -7.765,-1.455C-7.528,-1.505 -6.329,-1.42 -6.057,-1.456C-2.627,-1.458 1.544,-1.454 4.983,-1.455C8.423,-1.45 12.591,-1.459 16.023,-1.455C16.286,-1.405 17.474,-1.492 17.731,-1.455C18.978,-0.821 20.184,0.118 21.087,1.188C24.474,5.414 24.62,12.286 24.129,17.466C23.5,23.593 17.717,32.392 14.662,36.668C13.497,38.299 11.934,39.592 10.116,40.435L9.921,40.526C6.924,41.916 3.475,41.961 0.443,40.648L0,40.456Z" style="fill:rgb(194,230,242);fill-rule:nonzero;"/>
                    </g>
                    <g transform="matrix(1,0,0,1,492.289,6571.62)">
                        <path d="M0,-382.166L-0.037,-382.138L-0.075,-382.113L-0.083,-382.11L-0.083,-382.166L0,-382.166ZM-0.101,-382.088L-0.115,-382.088L-0.101,-382.088ZM-0.627,-382.307L-0.651,-382.268L-0.676,-382.233L-0.703,-382.198L-0.757,-382.198L-0.757,-382.307L-0.627,-382.307ZM-0.757,-382.145L-0.757,-382.166L-0.732,-382.166L-0.757,-382.145ZM-0.757,-382.138L-0.756,-382.113L-0.756,-382.088L-0.826,-382.088L-0.856,-382.071L-0.826,-382.088L-0.762,-382.138L-0.757,-382.138ZM-1.612,-382.307L-1.629,-382.268L-1.634,-382.258L-1.634,-382.198L-1.666,-382.198L-1.647,-382.233L-1.634,-382.258L-1.634,-382.307L-1.612,-382.307ZM-1.687,-382.166L-1.634,-382.166L-1.634,-382.088L-1.777,-382.071L-1.797,-382.057L-1.777,-382.071L-1.753,-382.088L-1.73,-382.113L-1.708,-382.138L-1.687,-382.166ZM-2.655,-382.071L-2.857,-382.053L-2.844,-382.071L-2.832,-382.088L-2.808,-382.138L-2.797,-382.166L-2.655,-382.166L-2.655,-382.071ZM-2.655,-382.198L-2.787,-382.198L-2.777,-382.233L-2.768,-382.268L-2.759,-382.307L-2.656,-382.307L-2.655,-382.268L-2.655,-382.198ZM-3.752,-382.043L-3.99,-382.043L-3.99,-382.166L-3.752,-382.166L-3.752,-382.043ZM-3.752,-382.198L-3.99,-382.198L-3.99,-382.307L-3.752,-382.307L-3.752,-382.198ZM-3.99,-382.029L-3.946,-382.032L-3.99,-382.029L-4.848,-382.029L-4.988,-382.025L-5.084,-382.025L-5.097,-382.032L-4.848,-382.029L-3.99,-382.029ZM-7.186,-382.113L-7.42,-382.113L-7.42,-382.166L-7.248,-382.166L-7.218,-382.138L-7.186,-382.113ZM-7.276,-382.198L-7.419,-382.198L-7.419,-382.307L-7.353,-382.307L-7.329,-382.268L-7.304,-382.233L-7.276,-382.198ZM-11.688,0.257L4.185,0.257L0.485,-382.088L0.484,-382.113L0.376,-382.113L0.339,-382.092L0.34,-382.113L0.34,-382.166L0.46,-382.166L0.5,-382.198L0.339,-382.198L0.339,-382.268L0.1,-382.268L0.069,-382.233L0.035,-382.198L-0.083,-382.198L-0.084,-382.233L-0.084,-382.307L0.129,-382.307L0.156,-382.349L0.18,-382.392L0.197,-382.423L-0.572,-382.423L-0.585,-382.392L-0.605,-382.349L-0.758,-382.349L-0.758,-382.423L-1.573,-382.423L-1.582,-382.392L-1.596,-382.349L-1.635,-382.349L-1.635,-382.392L-2.656,-382.392L-2.656,-382.349L-2.751,-382.349L-2.743,-382.392L-2.739,-382.423L-3.752,-382.423L-3.752,-382.349L-3.99,-382.349L-3.99,-382.392L-4.847,-382.392L-4.847,-382.423L-5.241,-382.423L-5.236,-382.392L-5.868,-382.392L-5.868,-382.423L-6.407,-382.423L-6.397,-382.392L-6.745,-382.392L-6.745,-382.423L-7.408,-382.423L-7.395,-382.392L-7.375,-382.349L-7.418,-382.349L-7.418,-382.392L-7.841,-382.392L-7.841,-382.349L-8.136,-382.349L-8.109,-382.307L-7.842,-382.307L-7.842,-382.268L-7.843,-382.233L-7.843,-382.198L-8.015,-382.198L-7.98,-382.166L-7.843,-382.166L-7.843,-382.113L-7.844,-382.088L-7.844,-382.081L-7.823,-382.071L-7.781,-382.053L-7.738,-382.043L-7.694,-382.032L-7.65,-382.025L-7.606,-382.021L-7.42,-382.021L-7.42,-382.025L-7.42,-382.021L-6.979,-382.025L-6.943,-382.021L-6.747,-382.021L-6.747,-382.025L-6.747,-382.021L-6.103,-382.025L-6.078,-382.021L-5.949,-382.021L-6.078,-382.021L-6.103,-382.025L-6.747,-382.021L-6.943,-382.021L-6.979,-382.025L-7.42,-382.021L-7.606,-382.021L-7.65,-382.025L-7.844,-382.021L-7.988,-382.021L-11.688,0.257Z" style="fill:rgb(66,76,160);fill-rule:nonzero;"/>
                    </g>
                    <g transform="matrix(1,0,0,1,463.857,6631.93)">
                        <rect x="-0.871" y="-11.053" width="51.103" height="11.053" style="fill:rgb(66,76,160);fill-rule:nonzero;"/>
                    </g>
                    <g transform="matrix(1,0,0,1,508.314,6571.88)">
                        <path d="M3.059,48.994L-42.612,48.994L-42.612,46.626L-41.676,46.626L-40.94,46.371L-40.225,46.063L-39.534,45.704L-38.871,45.295L-38.24,44.839L-37.643,44.338L-37.085,43.795L-36.568,43.212L-36.253,42.58L-35.896,41.97L-35.499,41.386L-35.063,40.83L-34.591,40.304L-34.084,39.811L-33.546,39.353L-33.22,38.809L-33.707,38.386L-33.99,37.806L-34.035,37.215L-33.859,36.649L-33.488,36.097L-34.357,35.461L-35.18,34.914L-35.923,34.26L-36.569,33.511L-37.107,32.682L-37.528,31.787L-37.823,30.843L-37.988,29.867L-38.017,28.879L-39.231,28.56L-39.683,28.139L-39.684,27.536L-39.183,27.08L-38.522,27.08L-37.073,27.024L-37.683,27.024L-36.328,25.725L-35.063,24.34L-33.892,22.874L-32.822,21.332L-31.856,19.723L-31,18.054L-30.257,16.331L-29.63,14.562L-29.122,12.755L-28.735,10.919L-28.474,9.078L-28.732,6.762L-29.344,6.533L-29.849,6.118L-30.195,5.564L-30.343,4.927L-30.328,4.468L-30.195,4.028L-29.849,3.474L-29.344,3.059L-28.732,2.83L-28.472,0.624L-27.713,0L-11.84,0L-11.081,0.624L-10.885,2.815L-10.325,2.998L-9.793,3.378L-9.412,3.909L-9.225,4.796L-9.412,5.683L-9.793,6.214L-10.325,6.595L-10.885,6.777L-11.079,9.078L-10.817,10.919L-10.43,12.755L-9.923,14.562L-9.296,16.331L-8.553,18.054L-7.697,19.723L-6.731,21.332L-5.66,22.874L-4.49,24.34L-3.224,25.725L-1.87,27.023L-1.292,27.023L-2.933,27.097L-0.327,27.097L0.123,27.883L-0.366,28.582L-1.537,29.126L-1.63,30.358L-1.861,31.32L-2.219,32.241L-2.7,33.106L-3.294,33.897L-3.99,34.6L-4.774,35.202L-5.634,35.692L-6.14,36.111L-5.747,36.555L-5.536,37.431L-5.783,38.298L-6.196,38.72L-6.221,38.996L-5.468,39.811L-4.962,40.304L-4.49,40.83L-4.054,41.386L-3.656,41.97L-3.3,42.58L-2.984,43.212L-2.467,43.795L-1.909,44.338L-1.313,44.839L-0.681,45.295L-0.019,45.704L0.672,46.063L1.388,46.371L2.124,46.626L3.059,46.626L3.059,48.994Z" style="fill:rgb(66,76,160);fill-rule:nonzero;"/>
                    </g>
                    <g transform="matrix(1,0,0,1,564.944,6173.63)">
                        <path d="M0,-0.046L-0.949,0L-0.806,-0.018L-0.679,-0.021L-0.232,-0.046L0,-0.046Z" style="fill:rgb(66,76,160);fill-rule:nonzero;"/>
                    </g>
                    <g transform="matrix(1,0,0,1,571.757,6173.59)">
                        <path d="M0,1.121L-0.707,1.128L-1.522,1.121L-2.576,1.128L-3.679,1.128L-4.832,1.1L-8.131,1.1L-8.222,1.114L-8.234,1.107L-8.721,0.899L-8.831,0.596L-8.79,0.3L-8.419,0.025L-8.302,0.039L-8.273,0.042L-7.973,0.042L-7.914,0.039L-8.14,0.032L-7.429,0.004L-7.895,0.039L-7.762,0.042L-5.274,0.042L-4.933,-0.004L-4.037,-0.004L-4.052,0.011L-4.863,0.042L-4.052,0.011L-3.721,-0.004L-2.515,-0.004L-1.996,-0.007L-0.78,-0.007L-0.556,-0.004L-0.471,-0.007L0.098,-0.007L0.513,-0.004L0.612,-0.004L1.014,0.571L0.409,1.128L0.314,1.128L0,1.121Z" style="fill:rgb(66,76,160);fill-rule:nonzero;"/>
                    </g>
                    <g transform="matrix(1,0,0,1,578.93,6220.51)">
                        <path d="M1.708,3.5L-23.788,3.5L-23.683,1.706L-23.298,1.061L-22.758,0.539L-22.1,0.176L-21.37,0L-0.71,0L0.02,0.176L0.677,0.539L1.218,1.061L1.603,1.706L1.708,3.5Z" style="fill:rgb(66,76,160);fill-rule:nonzero;"/>
                    </g>
                    <g transform="matrix(1,0,0,1,571.36,6191.91)">
                        <path d="M0,-2.922L0,-2.924L0.494,-2.969L0,-2.922ZM-79.119,-16.387L-79.104,-16.389L-79.119,-16.387ZM-88.186,-14.654L-88.139,-13.241L-87.753,-5.8L-87.979,-5.8L-87.823,-5.688L-87.743,-5.618L-87.729,-5.355L-87.521,-5.392L-87.412,-5.275L-87.396,-5.253L-87.439,-5.253L-87.378,-5.193L-87.351,-5.193L-87.303,-5.13L-87.322,-5.13L-87.27,-5.063L-87.259,-5.063L-87.19,-4.954L-87.096,-4.785L-87.014,-4.606L-86.989,-4.468L-86.974,-4.33L-86.967,-4.19L-86.97,-4.049L-86.982,-3.911L-87.003,-3.77L-87.034,-3.636L-87.07,-3.512L-87.188,-3.526L-87.608,-3.15L-87.684,-2.821L-87.668,-2.512L-87.382,-2.112L-87.223,-2.142L-84.256,-1.773L-81.642,-1.773L-78.875,-2.041L-81.471,-1.777L-78.478,-2.041L-78.379,-2.041L-78.051,-2.742L-78.482,-3.523L-78.989,-3.523L-79.022,-3.636L-79.052,-3.77L-79.073,-3.911L-79.086,-4.049L-79.089,-4.19L-79.082,-4.33L-79.066,-4.468L-79.042,-4.606L-78.959,-4.785L-78.865,-4.954L-78.76,-5.12L-78.643,-5.275L-78.515,-5.423L-78.495,-5.443L-78.243,-5.443L-78.319,-5.401L-78.392,-5.355L-7.82,-5.327L-7.819,-4.358L-8.238,-4.005L-8.314,-3.699L-8.298,-3.41L-8.012,-3.036L-7.854,-3.064L-6.963,-2.96L-6.963,3.213L-6.242,3.213L-6.319,6.446L-6.43,7.183L-6.592,7.909L-6.802,8.624L-7.061,9.326L-7.366,10.003L-7.718,10.662L-8.113,11.297L-8.55,11.899L-9.028,12.474L-9.544,13.013L-10.095,13.517L-10.679,13.982L-11.098,14.144L-11.708,14.571L-12.146,15.174L-12.363,16.178L-12.152,17.187L-11.718,17.789L-11.112,18.219L-10.125,20.01L-9.98,20.007L-9.817,20.01L-9.39,20.007L-8.896,20.01L-9.699,20.13L-12.138,21.163L-11.835,21.977L-11.297,22.368L-9.598,22.368L-9.526,24.669L-9.799,25.261L-10.114,25.832L-10.468,26.382L-10.861,26.904L-11.29,27.394L-11.752,27.856L-12.247,28.279L-13.003,28.599L6.064,28.599L5.307,28.279L4.812,27.856L4.35,27.394L3.921,26.904L3.528,26.382L3.174,25.832L2.859,25.261L2.587,24.669L2.659,22.347L4.357,22.347L4.911,21.91L5.171,21.251L5.152,20.761L2.72,20.13L1.917,20.01L2.123,20.007L2.425,20.01L2.861,20.007L3.008,20.01L3.092,20.007L3.098,20.01L3.16,20.007L4.147,18.219L4.754,17.789L5.188,17.187L5.403,16.474L5.376,15.734L5.11,15.04L4.633,14.472L3.998,14.085L3.131,13.517L2.58,13.013L2.04,12.474L1.564,11.899L1.13,11.297L0.737,10.662L0.387,10.006L0.083,9.326L-0.161,8.624L-0.372,7.909L-0.533,7.183L-0.644,6.446L-0.659,3.213L-0.001,3.213L0,-2.895L0.891,-2.969L0.99,-2.969L1.318,-3.625L0.887,-4.354L0.806,-17.196L0.711,-17.196L0.397,-17.203L-0.31,-17.196L-1.126,-17.203L-2.18,-17.196L-3.282,-17.196L-4.435,-17.224L-7.734,-17.224L-7.825,-17.21L-7.837,-17.217L-7.831,-13.241L-77.983,-13.241L-77.936,-14.654L-78.11,-14.654L-78.265,-14.767L-78.411,-14.894L-78.548,-15.031L-78.676,-15.179L-78.793,-15.335L-78.898,-15.5L-78.993,-15.67L-79.075,-15.849L-79.099,-15.987L-79.115,-16.124L-79.122,-16.265L-79.12,-16.352L-78.707,-16.389L-78.607,-16.389L-78.28,-17.09L-78.711,-17.87L-78.873,-17.87L-78.873,-19.17L-79.085,-19.17L-79.085,-21.986L-79.685,-21.986L-79.977,-22.296L-80.245,-22.628L-80.488,-22.977L-80.705,-23.343L-80.894,-23.724L-81.054,-24.119L-81.135,-24.39L-81.237,-24.651L-81.358,-24.905L-81.498,-25.152L-81.551,-25.152L-81.703,-25.384L-81.655,-25.384L-81.83,-25.603L-82.02,-25.811L-82.02,-27.302L-82.139,-27.302C-81.399,-27.663 -80.885,-28.416 -80.885,-29.296C-80.885,-30.525 -81.881,-31.521 -83.11,-31.521C-84.339,-31.521 -85.336,-30.525 -85.336,-29.296C-85.336,-28.416 -84.822,-27.663 -84.082,-27.302L-84.101,-27.302L-84.101,-25.811L-84.292,-25.603L-84.466,-25.384L-84.418,-25.384L-84.571,-25.152L-84.624,-25.152L-84.763,-24.905L-84.884,-24.651L-84.986,-24.39L-85.068,-24.119L-85.228,-23.724L-85.417,-23.343L-85.633,-22.977L-85.876,-22.628L-86.145,-22.296L-86.437,-21.986L-87.036,-21.986L-87.036,-19.17L-87.249,-19.17L-87.249,-17.855L-87.264,-17.855L-87.417,-17.874L-87.836,-17.497L-87.912,-17.169L-87.896,-16.86L-87.61,-16.46L-87.452,-16.49L-87.005,-16.435L-87.003,-16.406L-87,-16.265L-87.006,-16.124L-87.022,-15.987L-87.047,-15.849L-87.129,-15.67L-87.223,-15.5L-87.329,-15.335L-87.446,-15.179L-87.573,-15.031L-87.71,-14.894L-87.856,-14.767L-88.011,-14.654L-88.186,-14.654Z" style="fill:rgb(66,76,160);fill-rule:nonzero;"/>
                    </g>
                </g>
            </g>
        </g>
    </g>
</svg>
