<?xml version="1.0" encoding="UTF-8" standalone="no"?>
<!DOCTYPE svg PUBLIC "-//W3C//DTD SVG 1.1//EN" "http://www.w3.org/Graphics/SVG/1.1/DTD/svg11.dtd">
<svg width="100%" height="100%" viewBox="0 0 390 546" version="1.1" xmlns="http://www.w3.org/2000/svg" xmlns:xlink="http://www.w3.org/1999/xlink" xml:space="preserve" xmlns:serif="http://www.serif.com/" style="fill-rule:evenodd;clip-rule:evenodd;stroke-linejoin:round;stroke-miterlimit:2;">
    <g id="Artboard1" transform="matrix(0.945824,0,0,0.9377,145.409,113.561)">
        <rect x="-153.737" y="-121.106" width="411.378" height="581.315" style="fill:none;"/>
        <clipPath id="_clip1">
            <rect x="-153.737" y="-121.106" width="411.378" height="581.315"/>
        </clipPath>
        <g clip-path="url(#_clip1)">
            <g transform="matrix(1.05728,0,0,1.06644,-176.772,-6606.92)">
                <g id="lamppost-center">
                    <g>
                        <g transform="matrix(1,0,0,1,215.042,6227.64)">
                            <path d="M0,39.845C4.713,39.833 9.628,39.874 14.34,39.866C19.35,34.58 24.178,27.556 25.583,20.118C26.681,13.391 26.75,1.882 19.075,-0.805C12.995,-0.806 6.471,-0.804 0.387,-0.805C-1.503,-0.786 -4.108,-0.818 -5.987,-0.805C-7.016,-0.287 -8.059,0.481 -8.862,1.307C-14.607,7.988 -13.08,20.861 -9.266,28.229C-8.302,30.034 -1.738,40.663 0,39.845" style="fill:rgb(194,230,242);fill-rule:nonzero;"/>
                        </g>
                        <g transform="matrix(1,0,0,1,217.937,6294)">
                            <path d="M1.114,-7.368C1.372,-11.425 0.071,-16.262 -3.742,-18.3C-5.352,-19.072 -5.356,-21.593 -3.755,-22.374C-2.886,-23.866 -3.123,-24.212 -1.803,-24.195C-2.803,-24.39 -4.123,-25.049 -4.783,-25.316C0.964,-25.553 6.772,-24.788 12.508,-24.915C11.095,-24.467 9.637,-24.254 8.16,-24.163C8.932,-24.163 9.701,-24.163 10.448,-24.163C10.831,-23.829 11.467,-22.081 12.11,-21.944C15.333,-17.391 5.817,-19.103 6.697,-7.368L7.355,-7.368L7.357,-0.208C7.866,-0.101 8.827,-0.389 8.83,0.39C8.703,0.703 8.441,0.847 8.116,0.906C8.151,0.907 8.186,0.907 8.222,0.908L8.215,13.761C7.415,13.776 6.604,13.781 5.789,13.78C6.615,13.785 7.444,13.783 8.215,13.761C9.885,15.165 7.189,15.211 6.283,15.259L7.741,15.055C5.188,15.398 2.467,15.312 -0.098,15.152L1.04,15.259C0.77,15.283 -0.31,15.149 -0.594,15.152L-0.922,14.494C-0.874,14.461 -0.6,13.849 -0.45,13.765L-0.49,13.765L-0.409,0.925C-0.365,0.925 -0.32,0.925 -0.275,0.925C-0.56,0.845 -0.845,0.526 -1.014,0.366C-0.777,-0.29 -0.188,-0.241 0.394,-0.216L0.394,-7.368L1.114,-7.368ZM-1.041,-24.163C0.242,-24.163 1.58,-24.163 2.905,-24.163C1.578,-24.198 0.257,-24.224 -1.041,-24.163ZM5.086,-0.208C4.405,-0.209 3.722,-0.21 3.041,-0.211C3.396,-0.208 3.75,-0.203 4.098,-0.193L3.721,-0.208L5.086,-0.208ZM6.894,0.896C6.534,0.867 6.191,0.842 5.928,0.895C6.251,0.895 6.573,0.895 6.894,0.896ZM1.471,0.924C0.974,0.923 0.481,0.921 0,0.914C-0.011,0.919 -0.021,0.923 -0.032,0.926C0.467,0.927 0.968,0.926 1.471,0.924ZM2.606,13.765C1.728,13.76 0.855,13.758 -0.006,13.765L2.606,13.765ZM16.509,-68.966L16.614,-67.172L-8.881,-67.172C-9.107,-69.243 -7.865,-70.903 -5.667,-70.672C-3.996,-71.294 -2.912,-73.049 -2.19,-74.603L-2.279,-77.448C-3.684,-78.413 -4.663,-80.694 -3.052,-81.893C-1.972,-82.204 -0.917,-82.749 -0.593,-83.926C0.079,-85.491 1.382,-87.067 3.069,-87.55C5.998,-88.154 7.75,-85.232 8.833,-82.971C9.911,-81.76 11.879,-82.155 11.654,-79.905C11.727,-78.884 10.665,-78.086 10.012,-77.448C9.595,-74.628 10.412,-72.776 12.643,-70.993C14.186,-70.364 15.622,-70.899 16.509,-68.966Z" style="fill:rgb(66,76,160);"/>
                        </g>
                        <g transform="matrix(1,0,0,1,214.313,6267.85)">
                            <path d="M0,0.84C5.354,0.618 10.785,1.407 16.132,1.241C16.325,0.111 15.322,-0.567 14.286,-0.346C12.175,-0.348 9.607,-0.336 7.49,-0.367L0.729,-0.367C-0.223,-0.51 -0.987,-0.183 -1.159,0.84L0,0.84Z" style="fill:rgb(66,76,160);fill-rule:nonzero;"/>
                        </g>
                        <g transform="matrix(1,0,0,1,246.407,6627.58)">
                            <rect x="-50.232" y="-11.053" width="51.103" height="11.053" style="fill:rgb(66,76,160);fill-rule:nonzero;"/>
                        </g>
                        <g transform="matrix(1,0,0,1,201.95,6309.26)">
                            <path d="M-3.059,307.255L42.612,307.255L42.612,304.886C40.244,304.937 38.077,303.163 36.568,301.474C35.907,299.696 34.302,298.511 33.22,297.07C34.191,296.479 34.236,295.153 33.488,294.359C36.072,292.857 38.211,290.285 38.017,287.14C40.559,286.771 40.068,285.015 37.684,285.285C33.049,281.14 29.807,275.304 28.735,269.18C28.443,268.154 28.531,266.064 28.732,265.023C30.489,264.669 30.906,262.218 29.343,261.32C24.803,260.066 25.562,3.069 24.01,0L15.542,0C14.101,3.007 14.536,260.013 10.329,261.251C8.669,262.078 9.044,264.745 10.885,265.038C11.043,266.089 11.096,268.153 10.816,269.18C9.977,274.304 5.993,283.048 1.292,285.284C1.003,285.416 0.618,285.225 0.327,285.357C-0.658,286.343 0.644,287.072 1.537,287.387C1.438,290.489 3.602,292.919 6.14,294.372C5.509,294.865 5.474,295.882 5.783,296.559C5.915,296.715 6.303,297.007 6.221,297.257C5.555,298.013 4.639,298.827 4.053,299.647C3.482,300.362 3.138,301.422 2.467,302.056C1.009,303.454 -0.948,304.967 -3.059,304.886L-3.059,307.255Z" style="fill:rgb(66,76,160);fill-rule:nonzero;"/>
                        </g>
                    </g>
                </g>
            </g>
        </g>
    </g>
</svg>
