<?xml version="1.0" encoding="UTF-8" standalone="no"?>
<!DOCTYPE svg PUBLIC "-//W3C//DTD SVG 1.1//EN" "http://www.w3.org/Graphics/SVG/1.1/DTD/svg11.dtd">
<svg width="100%" height="100%" viewBox="0 0 390 546" version="1.1" xmlns="http://www.w3.org/2000/svg" xmlns:xlink="http://www.w3.org/1999/xlink" xml:space="preserve" xmlns:serif="http://www.serif.com/" style="fill-rule:evenodd;clip-rule:evenodd;stroke-linejoin:round;stroke-miterlimit:2;">
    <g id="Artboard1" transform="matrix(0.945824,0,0,0.9377,145.409,113.561)">
        <rect x="-153.737" y="-121.106" width="411.378" height="581.315" style="fill:none;"/>
        <g transform="matrix(1.05728,0,0,1.06644,-179.264,-6608.14)">
            <g id="lamppost-both">
                <g>
                    <g transform="matrix(1,0,0,1,217.937,6294)">
                        <path d="M0,0.914C1.918,0.94 4.009,0.906 5.928,0.895C6.771,0.725 8.441,1.351 8.83,0.39C8.827,-0.389 7.866,-0.101 7.357,-0.208L3.721,-0.208L4.864,-0.164C3.548,-0.231 2.092,-0.21 0.78,-0.211C0.093,-0.183 -0.724,-0.437 -1.014,0.366C-0.79,0.578 -0.362,1.07 0,0.914" style="fill:rgb(66,76,160);fill-rule:nonzero;"/>
                    </g>
                    <g transform="matrix(1,0,0,1,218.492,6286.64)">
                        <path d="M0.558,-0.006C0.816,-4.062 -0.485,-8.899 -4.298,-10.937C-5.908,-11.709 -5.912,-14.23 -4.311,-15.011C-3.303,-16.742 -3.783,-16.93 -1.597,-16.8C0.457,-16.801 2.652,-16.799 4.709,-16.8C6.402,-16.799 8.204,-16.801 9.892,-16.8C10.275,-16.466 10.911,-14.718 11.554,-14.581C14.777,-10.028 5.261,-11.74 6.141,-0.006L6.799,-0.006L6.801,7.154C4.556,7.158 2.244,7.147 0,7.152C-0.04,7.152 -0.123,7.152 -0.162,7.151L-0.162,-0.006L0.558,-0.006ZM-33.215,-17.269L-36.461,-17.269L-37.603,-17.283L-41.768,-17.283L-41.687,-30.125L-41.592,-30.125L-41.278,-30.132L-40.571,-30.125L-39.755,-30.132L-38.701,-30.125L-37.599,-30.125L-36.446,-30.153L-33.147,-30.153L-33.056,-30.139L-33.044,-30.146L-33.05,-26.169L-2.029,-26.169L-2.076,-27.583L8.175,-27.583L8.127,-26.169L37.18,-26.169L37.205,-30.125L37.3,-30.125L37.613,-30.132L38.318,-30.125L39.136,-30.132L40.19,-30.125L41.294,-30.125L42.446,-30.153L45.746,-30.153L45.837,-30.139L45.83,-17.287L45.675,-17.269L42.429,-17.269L41.29,-17.283L37.124,-17.283L37.13,-18.256L7.677,-18.256L7.718,-18.284L7.791,-18.33L7.867,-18.372L-1.768,-18.372L-1.693,-18.33L-1.62,-18.284L-1.578,-18.256L-33.061,-18.256L-33.062,-17.287L-33.215,-17.269L-33.198,-18.651L-33.207,-18.718L-33.215,-17.269ZM-0.562,21.127L-1.046,21.127L-0.965,8.287C1.877,8.301 4.825,8.231 7.666,8.27L7.66,21.123C4.958,21.175 2.142,21.105 -0.562,21.127ZM-40.164,-38.415L-40.241,-41.647L-40.352,-42.384L-40.513,-43.11L-40.724,-43.826L-40.982,-44.527L-41.288,-45.204L-41.639,-45.863L-42.035,-46.498L-42.472,-47.101L-42.95,-47.675L-43.465,-48.215L-44.017,-48.719L-44.601,-49.184L-45.02,-49.346L-45.629,-49.772L-46.067,-50.375L-46.285,-51.38L-46.074,-52.388L-45.64,-52.991L-45.033,-53.421L-44.046,-55.212L-43.901,-55.208L-43.739,-55.212L-43.311,-55.208L-42.818,-55.212L-42.632,-55.208L-32.191,-55.208L-32.005,-55.212L-31.799,-55.208L-31.496,-55.212L-31.061,-55.208L-30.914,-55.212L-30.83,-55.208L-30.824,-55.212L-30.762,-55.208L-29.775,-53.421L-29.168,-52.991L-28.734,-52.388L-28.518,-51.676L-28.545,-50.936L-28.811,-50.241L-29.288,-49.674L-29.924,-49.286L-30.79,-48.719L-31.342,-48.215L-31.882,-47.675L-32.357,-47.101L-32.792,-46.498L-33.185,-45.863L-33.534,-45.208L-33.838,-44.527L-34.083,-43.826L-34.293,-43.11L-34.455,-42.384L-34.566,-41.647L-34.581,-38.415L-34.465,-38.415L-33.922,-38.415L-33.921,-31.256L-38.763,-31.256L-39.282,-31.259L-40.498,-31.259L-40.722,-31.256L-40.807,-31.259L-40.884,-31.259L-40.884,-38.415L-40.226,-38.415L-40.164,-38.415ZM38.727,-38.415L38.649,-41.647L38.54,-42.384L38.378,-43.11L38.166,-43.826L37.909,-44.527L37.602,-45.204L37.253,-45.863L36.855,-46.498L36.418,-47.101L35.942,-47.675L35.424,-48.215L34.874,-48.719L34.289,-49.184L33.873,-49.346L33.263,-49.772L32.823,-50.375L32.607,-51.38L32.819,-52.388L33.252,-52.991L33.859,-53.421L34.846,-55.212L34.99,-55.208L35.152,-55.212L35.579,-55.208L36.072,-55.212L36.259,-55.208L46.7,-55.208L46.887,-55.212L47.092,-55.208L47.395,-55.212L47.832,-55.208L47.976,-55.212L48.061,-55.208L48.068,-55.212L48.128,-55.208L49.115,-53.421L49.725,-52.991L50.158,-52.388L50.373,-51.676L50.345,-50.936L50.081,-50.241L49.601,-49.674L48.967,-49.286L48.1,-48.719L47.55,-48.215L47.011,-47.675L46.535,-47.101L46.098,-46.498L45.706,-45.863L45.357,-45.208L45.054,-44.527L44.807,-43.826L44.599,-43.11L44.437,-42.384L44.325,-41.647L44.311,-38.415L44.97,-38.415L44.97,-31.256L40.126,-31.256L39.608,-31.259L38.392,-31.259L38.17,-31.256L38.086,-31.259L38.008,-31.259L38.008,-38.415L38.727,-38.415ZM51.015,-101.72L51.46,-101.72L51.809,-101.72L52.538,-101.544L53.197,-101.181L53.737,-100.659L54.124,-100.014L54.227,-98.22L28.732,-98.22L28.837,-100.014L29.222,-100.659L29.763,-101.181L30.42,-101.544L31.149,-101.72L31.501,-101.72L31.945,-101.72L32.703,-102.041L33.197,-102.464L33.662,-102.926L34.089,-103.416L34.483,-103.937L34.836,-104.487L35.15,-105.058L35.424,-105.65L35.336,-108.495L34.653,-109.143L33.835,-110.035L33.705,-111.258L33.987,-112.429L34.561,-112.94L35.273,-113.229L35.908,-113.419L36.38,-113.853L36.747,-114.375L37.022,-114.974L37.42,-115.802L37.928,-116.567L38.53,-117.262L39.221,-117.868L40.021,-118.369L40.684,-118.598L41.065,-118.598L41.396,-118.689L41.875,-118.664L42.32,-118.583L42.686,-118.443L42.947,-118.369L43.627,-117.917L44.096,-117.575L44.329,-117.262L44.745,-116.923L44.914,-116.567L45.298,-116.193L45.753,-115.393L46.116,-114.565L46.447,-114.019L46.885,-113.553L47.533,-113.257L47.618,-113.19L48.266,-113.017L48.873,-112.545L49.215,-111.875L49.267,-110.948L49.123,-110.035L48.309,-109.143L47.624,-108.495L47.536,-105.65L47.808,-105.058L48.125,-104.487L48.478,-103.937L48.872,-103.416L49.299,-102.926L49.764,-102.464L50.258,-102.041L51.015,-101.72ZM-27.878,-101.72L-27.433,-101.72L-27.081,-101.72L-26.351,-101.544L-25.693,-101.181L-25.153,-100.659L-24.768,-100.014L-24.663,-98.22L-50.159,-98.22L-50.054,-100.014L-49.669,-100.659L-49.129,-101.181L-48.471,-101.544L-47.741,-101.72L-47.389,-101.72L-46.945,-101.72L-46.188,-102.041L-45.694,-102.464L-45.231,-102.926L-44.802,-103.416L-44.409,-103.937L-44.055,-104.487L-43.74,-105.058L-43.468,-105.65L-43.557,-108.495L-44.237,-109.143L-45.055,-110.035L-45.188,-111.258L-44.905,-112.429L-44.329,-112.94L-43.616,-113.229L-42.983,-113.419L-42.512,-113.853L-42.143,-114.375L-41.87,-114.974L-41.47,-115.802L-40.964,-116.567L-40.361,-117.262L-39.672,-117.868L-38.87,-118.369L-38.208,-118.598L-37.828,-118.598L-37.495,-118.689L-37.014,-118.664L-36.571,-118.583L-36.205,-118.443L-35.943,-118.369L-35.262,-117.917L-34.795,-117.575L-34.561,-117.262L-34.148,-116.923L-33.979,-116.567L-33.592,-116.193L-33.138,-115.393L-32.776,-114.565L-32.445,-114.019L-32.005,-113.553L-31.358,-113.257L-31.272,-113.19L-30.626,-113.017L-30.018,-112.545L-29.677,-111.875L-29.623,-110.948L-29.767,-110.035L-30.584,-109.143L-31.266,-108.495L-31.355,-105.65L-31.082,-105.058L-30.767,-104.487L-30.413,-103.937L-30.021,-103.416L-29.591,-102.926L-29.129,-102.464L-28.634,-102.041L-27.878,-101.72ZM26.07,329.877L-19.601,329.877L-19.601,327.508C-17.49,327.588 -15.533,326.075 -14.075,324.677C-13.404,324.043 -13.06,322.984 -12.489,322.269C-11.903,321.449 -10.987,320.635 -10.321,319.878C-10.239,319.628 -10.627,319.337 -10.759,319.181C-11.068,318.503 -11.033,317.487 -10.402,316.994C-12.94,315.541 -15.104,313.11 -15.005,310.008C-15.898,309.694 -17.2,308.965 -16.215,307.979C-15.924,307.847 -15.539,308.038 -15.25,307.905C-10.549,305.669 -6.565,296.926 -5.726,291.802C-5.446,290.775 -5.499,288.711 -5.657,287.66C-7.498,287.367 -7.873,284.699 -6.213,283.873C-2.006,282.635 -2.441,25.628 -1,22.622L7.468,22.622C9.02,25.691 8.261,282.688 12.801,283.941C14.364,284.84 13.947,287.291 12.19,287.645C11.989,288.686 11.901,290.776 12.193,291.802C13.265,297.926 16.507,303.762 21.142,307.907C23.526,307.637 24.017,309.392 21.475,309.762C21.669,312.907 19.53,315.479 16.946,316.981C17.694,317.775 17.649,319.101 16.678,319.691C17.76,321.133 19.365,322.318 20.026,324.096C21.535,325.785 23.702,327.559 26.07,327.508L26.07,329.877Z" style="fill:rgb(66,76,160);"/>
                    </g>
                    <g transform="matrix(1,0,0,1,214.313,6267.85)">
                        <path d="M0,0.84C5.354,0.618 10.785,1.407 16.132,1.241C16.325,0.111 15.322,-0.567 14.286,-0.346C12.175,-0.348 9.607,-0.336 7.49,-0.367L0.729,-0.367C-0.223,-0.51 -0.987,-0.183 -1.159,0.84L0,0.84Z" style="fill:rgb(66,76,160);fill-rule:nonzero;"/>
                    </g>
                    <g transform="matrix(1,0,0,1,216.896,6269.07)">
                        <path d="M0,0.77C4.473,0.559 9.216,1.39 13.549,0.018C7.813,0.145 2.005,-0.62 -3.742,-0.383C-2.892,-0.039 -0.947,0.955 0,0.77" style="fill:rgb(66,76,160);fill-rule:nonzero;"/>
                    </g>
                    <g transform="matrix(1,0,0,1,218.977,6307.8)">
                        <path d="M0,1.461L-1.138,1.354C1.427,1.514 4.148,1.6 6.701,1.257L5.243,1.461C6.149,1.413 8.845,1.367 7.175,-0.037C5.731,0.005 4.084,-0.026 2.635,-0.033L-1.434,-0.033C-1.556,-0.139 -1.907,0.659 -1.962,0.696L-1.634,1.354C-1.35,1.351 -0.27,1.485 0,1.461" style="fill:rgb(66,76,160);fill-rule:nonzero;"/>
                    </g>
                    <g transform="matrix(1,0,0,1,246.407,6627.58)">
                        <rect x="-50.232" y="-11.053" width="51.103" height="11.053" style="fill:rgb(66,76,160);fill-rule:nonzero;"/>
                    </g>
                    <g transform="matrix(1,0,0,1,279.029,6218.59)">
                        <path d="M0,-19.655L-0.381,-21.728L-0.902,-23.772L-1.135,-24.449L-1.414,-25.108L-1.738,-25.75L-2.101,-26.367L-2.51,-26.959L-2.954,-27.519L-3.433,-28.052L-3.948,-28.549L-4.498,-29.01L-5.076,-29.433L-5.679,-29.818L-6.31,-30.163L-31.805,-30.163L-32.434,-29.818L-33.038,-29.433L-33.616,-29.01L-34.164,-28.549L-34.679,-28.052L-35.16,-27.519L-35.604,-26.959L-36.01,-26.367L-36.375,-25.75L-36.698,-25.108L-36.977,-24.449L-37.211,-23.772L-37.733,-21.728L-38.114,-19.655L-38.352,-17.558L-38.447,-15.45L-38.396,-13.342L-38.202,-11.241L-37.865,-9.158L-37.385,-7.103L-36.767,-5.086L-36.012,-3.116L-35.123,-1.202L-34.107,0.649L-32.966,2.422L-31.039,5.231L-28.915,7.896L-26.864,10.487L-19.056,10.487L-17.026,10.508L-11.209,10.508L-9.197,7.896L-7.075,5.231L-5.146,2.422L-4.004,0.649L-2.989,-1.202L-2.101,-3.116L-1.347,-5.086L-0.726,-7.103L-0.247,-9.158L0.088,-11.241L0.285,-13.342L0.335,-15.45L0.24,-17.558L0,-19.655Z" style="fill:rgb(194,230,242);fill-rule:nonzero;"/>
                    </g>
                    <g transform="matrix(1,0,0,1,174.32,6188.44)">
                        <path d="M-1.046,40.629L6.761,40.629L8.792,40.65L14.608,40.65L16.62,38.038L18.743,35.373L20.67,32.564L21.811,30.791L22.828,28.94L23.716,27.026L24.471,25.056L25.09,23.039L25.569,20.984L25.907,18.901L26.101,16.8L26.151,14.692L26.057,12.584L25.818,10.487L25.437,8.414L24.915,6.37L24.681,5.693L24.402,5.034L24.08,4.392L23.714,3.775L23.309,3.183L22.865,2.623L22.384,2.09L21.868,1.593L21.32,1.131L20.743,0.709L20.138,0.324L19.509,-0.021L-5.987,-0.021L-6.617,0.324L-7.221,0.709L-7.799,1.131L-8.347,1.593L-8.862,2.09L-9.343,2.623L-9.787,3.183L-10.193,3.775L-10.558,4.392L-10.881,5.034L-11.16,5.693L-11.394,6.37L-11.916,8.414L-12.297,10.487L-12.535,12.584L-12.63,14.692L-12.579,16.8L-12.385,18.901L-12.048,20.984L-11.568,23.039L-10.95,25.056L-10.195,27.026L-9.307,28.94L-8.29,30.791L-7.149,32.564L-5.222,35.373L-3.098,38.038L-1.046,40.629Z" style="fill:rgb(194,230,242);fill-rule:nonzero;"/>
                    </g>
                    <g transform="matrix(1,0,0,1,225.752,6271.03)">
                        <path d="M0.487,-0.088L-8.909,-0.088L-8.886,-0.042L-8.403,-0.042L-8.397,-0.031L-0.216,-0.031L-0.214,0L-0.04,0L-0.019,-0.042L0.466,-0.042L0.487,-0.088Z" style="fill:rgb(66,76,160);fill-rule:nonzero;"/>
                    </g>
                    <g transform="matrix(1,0,0,1,184.79,6270.98)">
                        <path d="M0.487,-1.603L-2.759,-1.603L-3.9,-1.617L-8.066,-1.617L-8.497,-0.888L-8.169,-0.232L-8.07,-0.232L-5.078,0.015L-7.673,-0.232L-4.907,0.018L-2.292,0.018L0.675,-0.327L0.834,-0.299L1.12,-0.673L1.135,-0.962L1.059,-1.268L0.64,-1.621L0.487,-1.603Z" style="fill:rgb(66,76,160);fill-rule:nonzero;"/>
                    </g>
                    <g transform="matrix(1,0,0,1,184.185,6255.43)">
                        <path d="M0.073,-0.046L-0.157,-0.046L0.791,0L0.648,-0.017L0.52,-0.021L0.073,-0.046Z" style="fill:rgb(66,76,160);fill-rule:nonzero;"/>
                    </g>
                    <g transform="matrix(1,0,0,1,177.214,6255.39)">
                        <path d="M0,1.121L0.707,1.128L1.522,1.121L2.576,1.128L3.679,1.128L4.832,1.1L8.131,1.1L8.222,1.114L8.234,1.107L8.721,0.899L8.83,0.596L8.79,0.3L8.419,0.025L8.301,0.039L8.273,0.042L7.973,0.042L7.914,0.039L8.14,0.032L7.429,0.004L7.895,0.039L7.762,0.042L5.274,0.042L4.932,-0.004L4.037,-0.004L4.052,0.011L4.863,0.042L4.052,0.011L3.721,-0.004L2.515,-0.004L1.996,-0.007L0.78,-0.007L0.556,-0.004L0.471,-0.007L-0.098,-0.007L-0.513,-0.004L-0.612,-0.004L-1.014,0.571L-0.409,1.128L-0.314,1.128L0,1.121Z" style="fill:rgb(66,76,160);fill-rule:nonzero;"/>
                    </g>
                    <g transform="matrix(1,0,0,1,176.174,6230.28)">
                        <path d="M-0.313,1.156L10.127,1.156L10.313,1.152L11.116,1.032L13.549,0.402L7.143,0.402L4.907,0L-3.742,0L-1.302,1.032L-0.499,1.152L-0.313,1.156Z" style="fill:rgb(66,76,160);fill-rule:nonzero;"/>
                    </g>
                    <g transform="matrix(1,0,0,1,267.456,6231.03)">
                        <path d="M1.156,-0.352L-5.249,-0.352L-7.484,-0.754L-16.134,-0.754L-13.695,0.279L-12.891,0.399L-12.704,0.402L-2.263,0.402L-2.076,0.399L-1.273,0.279L1.156,-0.352Z" style="fill:rgb(66,76,160);fill-rule:nonzero;"/>
                    </g>
                    <g transform="matrix(1,0,0,1,266.769,6230.66)">
                        <path d="M1.05,-1.565L-4.766,-1.565L-6.796,-1.586L-14.604,-1.586L-15.143,-1.195L-15.447,-0.381L-6.796,-0.381L-4.561,0.021L1.844,0.021L1.865,-0.469L1.604,-1.128L1.05,-1.565Z" style="fill:rgb(66,76,160);fill-rule:nonzero;"/>
                    </g>
                    <g transform="matrix(1,0,0,1,173.591,6229.47)">
                        <path d="M-1.159,0.804L7.49,0.804L9.727,1.206L16.132,1.206L16.151,0.716L15.891,0.057L15.337,-0.38L9.521,-0.38L7.49,-0.402L-0.317,-0.402L-0.856,-0.01L-1.159,0.804Z" style="fill:rgb(66,76,160);fill-rule:nonzero;"/>
                    </g>
                    <g transform="matrix(1,0,0,1,225.714,6268.39)">
                        <path d="M0.48,-0.117L-8.827,-0.117L-8.753,-0.075L-8.682,-0.029L-8.642,0L0.298,0L0.338,-0.029L0.407,-0.075L0.48,-0.117Z" style="fill:rgb(66,76,160);fill-rule:nonzero;"/>
                    </g>
                    <g transform="matrix(1,0,0,1,263.092,6256.47)">
                        <path d="M0.775,-1.037L-1.713,-1.037L-2.055,-1.083L-2.95,-1.083L-2.936,-1.069L-2.126,-1.037L-2.936,-1.069L-3.264,-1.083L-4.473,-1.083L-4.991,-1.086L-6.208,-1.086L-6.43,-1.083L-6.514,-1.086L-7.085,-1.086L-7.501,-1.083L-7.6,-1.083L-8.002,-0.508L-7.395,0.049L-7.3,0.049L-6.987,0.042L-6.282,0.049L-5.464,0.042L-4.41,0.049L-3.306,0.049L-2.154,0.02L1.146,0.02L1.237,0.035L1.248,0.027L1.734,-0.181L1.844,-0.484L1.805,-0.78L1.431,-1.055L1.315,-1.041L1.287,-1.037L0.987,-1.037L0.927,-1.041L1.153,-1.047L0.444,-1.076L0.909,-1.041L0.775,-1.037Z" style="fill:rgb(66,76,160);fill-rule:nonzero;"/>
                    </g>
                    <g transform="matrix(1,0,0,1,263.681,6270.98)">
                        <path d="M0.486,-1.603L-2.76,-1.603L-3.899,-1.617L-8.065,-1.617L-8.495,-0.888L-8.167,-0.232L-8.069,-0.232L-5.076,0.015L-7.674,-0.232L-4.907,0.018L-2.291,0.018L0.677,-0.327L0.835,-0.299L1.121,-0.673L1.135,-0.962L1.061,-1.268L0.642,-1.621L0.486,-1.603Z" style="fill:rgb(66,76,160);fill-rule:nonzero;"/>
                    </g>
                    <g transform="matrix(1,0,0,1,263.077,6255.43)">
                        <path d="M0.071,-0.046L-0.157,-0.046L0.791,0L0.646,-0.017L0.518,-0.021L0.071,-0.046Z" style="fill:rgb(66,76,160);fill-rule:nonzero;"/>
                    </g>
                    <g transform="matrix(-0.986394,0.164399,0.164399,0.986394,217.627,6269.94)">
                        <path d="M0.408,-0.04L0.444,-0.04L-0.001,0.034L-0.033,0.034L0.408,-0.04Z" style="fill:rgb(66,76,160);fill-rule:nonzero;"/>
                    </g>
                    <g transform="matrix(-0.707107,0.707107,0.707107,0.707107,217.831,6269.67)">
                        <path d="M0.328,-0.161L0.364,-0.161L0.064,0.139L0.031,0.136L0.328,-0.161Z" style="fill:rgb(66,76,160);fill-rule:nonzero;"/>
                    </g>
                    <g transform="matrix(1,0,0,1,225.811,6270.69)">
                        <path d="M0.491,-0.048L-9.03,-0.048L-9.026,0L0.489,0L0.491,-0.048Z" style="fill:rgb(66,76,160);fill-rule:nonzero;"/>
                    </g>
                    <g transform="matrix(-0.384615,0.923077,0.923077,0.384615,217.853,6269.5)">
                        <path d="M0.259,-0.209L0.298,-0.209L0.139,0.174L0.1,0.173L0.259,-0.209Z" style="fill:rgb(66,76,160);fill-rule:nonzero;"/>
                    </g>
                    <g transform="matrix(1,0,0,1,225.798,6270.54)">
                        <path d="M0.491,-0.052L-9.005,-0.052L-9.011,0L0.499,0L0.491,-0.052Z" style="fill:rgb(66,76,160);fill-rule:nonzero;"/>
                    </g>
                    <g transform="matrix(1,0,0,1,225.76,6270.38)">
                        <path d="M0.487,-0.048L-8.925,-0.048L-8.942,0L0.506,0L0.487,-0.048Z" style="fill:rgb(66,76,160);fill-rule:nonzero;"/>
                    </g>
                    <g transform="matrix(-0.666795,0.745241,0.745241,0.666795,217.376,6269.95)">
                        <path d="M0.349,-0.194L0.4,-0.194L0.085,0.158L0.036,0.156L0.349,-0.194Z" style="fill:rgb(66,76,160);fill-rule:nonzero;"/>
                    </g>
                    <g transform="matrix(1,0,0,1,225.699,6270.24)">
                        <path d="M0.478,-0.042L-8.795,-0.042L-8.821,0L0.506,0L0.478,-0.042Z" style="fill:rgb(66,76,160);fill-rule:nonzero;"/>
                    </g>
                    <g transform="matrix(-0.20601,0.97855,0.97855,0.20601,217.864,6269.35)">
                        <path d="M0.222,-0.218L0.261,-0.218L0.177,0.182L0.138,0.18L0.222,-0.218Z" style="fill:rgb(66,76,160);fill-rule:nonzero;"/>
                    </g>
                    <g transform="matrix(-0.757769,0.652523,0.652523,0.757769,218.159,6269.82)">
                        <path d="M0.603,-0.255L0.651,-0.255L0.088,0.23L0.047,0.224L0.603,-0.255Z" style="fill:rgb(66,76,160);fill-rule:nonzero;"/>
                    </g>
                    <g transform="matrix(-0.846233,0.532813,0.532813,0.846233,218.421,6269.73)">
                        <path d="M0.602,-0.191L0.634,-0.191L0.05,0.177L0.023,0.174L0.602,-0.191Z" style="fill:rgb(66,76,160);fill-rule:nonzero;"/>
                    </g>
                    <g transform="matrix(-0.575493,0.817806,0.817806,0.575493,218.459,6269.49)">
                        <path d="M0.495,-0.284L0.528,-0.284L0.145,0.26L0.114,0.257L0.495,-0.284Z" style="fill:rgb(66,76,160);fill-rule:nonzero;"/>
                    </g>
                    <g transform="matrix(-0.267644,0.963518,0.963518,0.267644,218.42,6269.31)">
                        <path d="M0.388,-0.331L0.426,-0.331L0.251,0.297L0.214,0.295L0.388,-0.331Z" style="fill:rgb(66,76,160);fill-rule:nonzero;"/>
                    </g>
                    <g transform="matrix(-0.05547,0.99846,0.99846,0.05547,218.376,6269.15)">
                        <rect x="0.322" y="-0.341" width="0" height="0.645" style="fill:rgb(66,76,160);"/>
                    </g>
                    <g transform="matrix(0.178885,0.98387,0.98387,-0.178885,218.29,6269)">
                        <path d="M0.252,-0.335L0.286,-0.335L0.402,0.302L0.369,0.304L0.252,-0.335Z" style="fill:rgb(66,76,160);fill-rule:nonzero;"/>
                    </g>
                    <g transform="matrix(1,0,0,1,225.2,6268.95)">
                        <path d="M0.422,-0.078L-7.738,-0.078L-7.705,0L0.388,0L0.422,-0.078Z" style="fill:rgb(66,76,160);fill-rule:nonzero;"/>
                    </g>
                    <g transform="matrix(1,0,0,1,225.066,6269.41)">
                        <path d="M0.407,-0.036L-6.402,-0.036L-6.402,0L0.405,0L0.407,-0.036Z" style="fill:rgb(66,76,160);fill-rule:nonzero;"/>
                    </g>
                    <g transform="matrix(1,0,0,1,225.11,6269.7)">
                        <path d="M0.411,-0.036L-6.482,-0.036L-6.494,0L0.428,0L0.411,-0.036Z" style="fill:rgb(66,76,160);fill-rule:nonzero;"/>
                    </g>
                    <g transform="matrix(1,0,0,1,225.179,6269.81)">
                        <path d="M0.42,-0.025L-6.608,-0.025L-6.624,0L0.443,0L0.42,-0.025Z" style="fill:rgb(66,76,160);fill-rule:nonzero;"/>
                    </g>
                    <g transform="matrix(1,0,0,1,225.418,6269.97)">
                        <path d="M0.447,-0.006L-7.042,-0.006L-7.067,0L0.48,0L0.447,-0.006Z" style="fill:rgb(66,76,160);fill-rule:nonzero;"/>
                    </g>
                    <g transform="matrix(1,0,0,1,225.615,6270.12)">
                        <path d="M0.47,-0.038L-7.4,-0.038L-7.426,0L0.503,0L0.47,-0.038Z" style="fill:rgb(66,76,160);fill-rule:nonzero;"/>
                    </g>
                    <g transform="matrix(0.339644,0.940554,0.940554,-0.339644,217.733,6269.05)">
                        <path d="M0.122,-0.209L0.16,-0.209L0.298,0.173L0.261,0.175L0.122,-0.209Z" style="fill:rgb(66,76,160);fill-rule:nonzero;"/>
                    </g>
                    <g transform="matrix(1,0,0,1,225.144,6269.11)">
                        <path d="M0.415,-0.082L-7.621,-0.082L-7.598,0L0.392,0L0.415,-0.082Z" style="fill:rgb(66,76,160);fill-rule:nonzero;"/>
                    </g>
                    <g transform="matrix(0.05547,0.99846,0.99846,-0.05547,217.82,6269.19)">
                        <rect x="0.175" y="-0.221" width="0.059" height="0.406" style="fill:rgb(66,76,160);"/>
                    </g>
                    <g transform="matrix(1,0,0,1,225.362,6268.65)">
                        <path d="M0.441,-0.067L-8.082,-0.067L-8.03,0L0.388,0L0.441,-0.067Z" style="fill:rgb(66,76,160);fill-rule:nonzero;"/>
                    </g>
                    <g transform="matrix(1,0,0,1,225.072,6269.56)">
                        <path d="M0.407,-0.038L-6.413,-0.038L-6.419,0L0.413,0L0.407,-0.038Z" style="fill:rgb(66,76,160);fill-rule:nonzero;"/>
                    </g>
                    <g transform="matrix(1,0,0,1,225.794,6270.84)">
                        <path d="M0.491,-0.048L-8.997,-0.048L-8.984,0L0.478,0L0.491,-0.048Z" style="fill:rgb(66,76,160);fill-rule:nonzero;"/>
                    </g>
                    <g transform="matrix(1,0,0,1,225.271,6268.8)">
                        <path d="M0.432,-0.075L-7.891,-0.075L-7.847,0L0.388,0L0.432,-0.075Z" style="fill:rgb(66,76,160);fill-rule:nonzero;"/>
                    </g>
                </g>
            </g>
        </g>
    </g>
</svg>
