<?xml version="1.0" encoding="UTF-8" standalone="no"?>
<!DOCTYPE svg PUBLIC "-//W3C//DTD SVG 1.1//EN" "http://www.w3.org/Graphics/SVG/1.1/DTD/svg11.dtd">
<svg width="100%" height="100%" viewBox="0 0 500 930" version="1.1" xmlns="http://www.w3.org/2000/svg" xmlns:xlink="http://www.w3.org/1999/xlink" xml:space="preserve" xmlns:serif="http://www.serif.com/" style="fill-rule:evenodd;clip-rule:evenodd;stroke-linejoin:round;stroke-miterlimit:2;">
    <g transform="matrix(1,0,0,1,-977.327,-5703.88)">
        <g id="lamp-modern-both">
            <g>
                <g transform="matrix(1,0,0,1,1054.05,6010.23)">
                    <path d="M0,2.831L0.457,2.48L0.825,2.019L1.155,1.503L1.205,0.915L1.205,0.876L1.201,0.259L1.201,0.221L-1.959,0.191L-5.199,0.157L-8.502,0.128L-10.186,0.111L-11.912,0.094L-15.292,0.06L-18.76,0.026L-22.271,-0.007L-25.82,-0.041L-29.394,-0.075L-32.99,-0.105L-36.598,-0.139L-40.215,-0.172L-43.789,-0.206L-47.118,-0.236L-49.977,-0.257L-52.173,-0.274L-53.552,-0.283L-53.945,-0.283L-53.962,-0.012L-53.966,0.073L-53.983,0.365L-53.852,0.97L-53.598,1.524L-53.205,1.976L-53.192,1.989L-52.748,2.344L-52.748,2.349L-52.799,2.344L-52.304,2.564L-52.71,2.366L-52.245,2.569L-52.241,2.573L-52.088,2.569L-51.932,2.569L-51.754,2.573L-51.403,2.573L-50.752,2.577L-50.722,2.577L-50.629,2.594L-50.248,2.598L-48.802,2.615L-48.836,2.59L-48.802,2.594L-48.692,2.615L-48.412,2.615L-46.996,2.632L-46.996,2.607L-46.784,2.607L-46.323,2.611L-46.293,2.611L-46.018,2.615L-45.976,2.615L-45.65,2.62L-43.391,2.636L-43.375,2.636L-43.32,2.666L-43.235,2.712L-40.122,2.742L-36.725,2.776L-33.214,2.806L-29.716,2.84L-29.669,2.793L-29.644,2.763L-29.636,2.763L-29.644,2.793L-26.235,2.822L-26.235,2.797L-26.142,2.797L-26.175,2.822L-26.239,2.873L-22.787,2.903L-19.369,2.936L-15.994,2.971L-12.665,3L-12.521,2.945L-12.479,2.928L-12.462,2.928L-12.479,2.945L-9.391,2.971L-9.391,2.958L-9.167,2.958L-9.179,2.975L-6.176,3L-6.176,2.987L-5.943,2.991L-5.977,3L-6.176,3.064L-3.029,3.093L-1.053,3.114L-1.041,3.114L-0.512,3.042L0,2.831Z" style="fill:rgb(151,152,155);fill-rule:nonzero;"/>
                </g>
                <g transform="matrix(1,0,0,1,1055.26,6012.08)">
                    <path d="M0,1.248L0.004,0.838L0.008,0.305L-0.055,-0.347L-0.385,0.169L-0.753,0.63L-1.21,0.982L-1.722,1.193L-2.25,1.265L-2.187,1.278L-1.637,1.358L-1.624,1.358L-0.004,1.595L-0.004,1.506L0,1.248Z" style="fill:rgb(151,152,155);fill-rule:nonzero;"/>
                </g>
                <g transform="matrix(1,0,0,1,1055.26,6010.45)">
                    <path d="M0,0.659L0.03,0L0.013,0L0,0.659Z" style="fill:rgb(151,152,155);fill-rule:nonzero;"/>
                </g>
                <g transform="matrix(-0.987613,-0.15691,-0.15691,0.987613,1001.82,6012.78)">
                    <path d="M-0.486,-0.004L-0.161,-0.004L0.002,0.022L-0.488,0.012L-0.486,-0.004Z" style="fill:rgb(151,152,155);fill-rule:nonzero;"/>
                </g>
                <g transform="matrix(1,0,0,1,1007.27,6013.35)">
                    <path d="M0,0.009L-0.211,0.009L-0.211,0.005L-0.233,-0L-0.211,0.005L0,0.009L0.119,0.005L4.276,0.034L3.549,0.021L0.761,-0L-1.629,-0.021L-3.469,-0.033L-4.619,-0.042L-4.754,-0.042L-4.919,-0.038L-4.619,-0.033L-3.469,-0.021L3.549,0.051L3.879,0.051L0.808,0.017L0,0.009Z" style="fill:rgb(99,102,106);fill-rule:nonzero;"/>
                </g>
                <g transform="matrix(1,0,0,1,1051.03,6013.33)">
                    <path d="M0,-0.009L-3.147,-0.039L-6.324,-0.068L-6.362,-0.068L-9.594,-0.102L-9.636,-0.102L-12.965,-0.132L-16.341,-0.166L-19.758,-0.199L-23.21,-0.229L-26.657,-0.263L-26.687,-0.263L-30.185,-0.297L-33.696,-0.326L-37.093,-0.36L-40.206,-0.39L-40.257,-0.39L-42.203,-0.406L-42.947,-0.411L-43.083,-0.411L-43.755,-0.419L-43.967,-0.419L-45.384,-0.432L-45.49,-0.432L-47.224,-0.445L-47.313,-0.445L-48.374,-0.453L-48.675,-0.453L-48.679,-0.018L-48.514,-0.022L-48.379,-0.022L-47.228,-0.013L-45.388,-0.001L-42.998,0.021L-40.211,0.042L-39.483,0.054L-37.376,0.071L-37.097,0.071L-35.139,0.093L-33.701,0.105L-31.416,0.126L-30.19,0.135L-27.698,0.16L-26.691,0.169L-25.465,0.181L-23.384,0.202L-23.214,0.202L-19.763,0.232L-16.345,0.266L-12.969,0.3L-9.64,0.329L-6.366,0.363L-3.151,0.393L0,0.422L1.971,0.444L1.975,0.016L1.975,0.012L0,-0.009Z" style="fill:rgb(99,102,106);fill-rule:nonzero;"/>
                </g>
                <g transform="matrix(1,0,0,1,1000.49,6006.55)">
                    <path d="M0,2.314L-0.385,3.401L-0.165,3.401L0.009,3.304L0.009,3.401L1.387,3.409L3.583,3.427L6.442,3.448L9.771,3.477L13.346,3.511L16.962,3.545L20.571,3.579L24.166,3.608L27.741,3.642L31.289,3.676L34.8,3.71L36.535,3.727L38.269,3.744L41.649,3.777L43.375,3.794L45.058,3.811L48.362,3.841L51.602,3.875L54.762,3.904L54.762,3.879L54.766,3.629L54.766,3.401L54.77,3.397L54.77,3.088L51.615,2.386L48.383,1.739L45.083,1.142L41.721,0.605L38.303,0.123L34.838,-0.3L31.327,-0.664L27.783,-0.968L24.212,-1.214L20.617,-1.4L17.009,-1.527L13.392,-1.59L9.818,-1.442L6.481,-0.943L3.617,-0.131L1.413,0.943L0.021,2.208L0.021,2.259L0,2.314Z" style="fill:rgb(99,102,106);fill-rule:nonzero;"/>
                </g>
                <g transform="matrix(0,1,1,0,1055.59,6010.77)">
                    <path d="M-0.318,-0.335L-0.28,-0.335L0.339,-0.331L-0.322,-0.318L-0.318,-0.335Z" style="fill:rgb(99,102,106);fill-rule:nonzero;"/>
                </g>
                <g transform="matrix(1,0,0,1,1290.03,6633.17)">
                    <path d="M0,0.008L1.087,0.005L1.129,0.006L1.26,0.006L1.37,0.01L1.37,-0.002L-1.785,-0.002L-1.785,0.006L0,0.008Z" style="fill:rgb(99,102,106);fill-rule:nonzero;"/>
                </g>
                <g transform="matrix(1,0,0,1,1056.92,6013.02)">
                    <path d="M0,-3.723L0,-3.808L0.004,-4.133L0.008,-4.391L-1.612,-4.404L-1.616,-4.15L-1.616,-3.736L-1.62,-3.304L-1.624,-3.211L-1.624,-3.203L-1.629,-2.589L-1.629,-2.576L-1.658,-1.917L-1.658,-1.879L-1.709,-1.291L-1.646,-0.639L-1.65,-0.106L-1.654,0.304L-1.658,0.562L-1.658,0.651L-0.038,0.664L-0.038,0.317L-0.034,-0.085L-0.034,-0.09L-0.03,-0.618L-0.03,-0.622L-0.021,-1.24L-0.021,-1.244L-0.017,-1.904L-0.017,-1.908L-0.008,-2.568L-0.008,-2.576L-0.004,-3.19L-0.004,-3.194L0,-3.723Z" style="fill:rgb(99,102,106);fill-rule:nonzero;"/>
                </g>
                <g transform="matrix(1,0,0,1,1098.84,6034.4)">
                    <path d="M0,-23.184L-0.309,-23.188L-0.309,-23.197L0.296,-23.18L0,-23.184ZM179.081,2.462L179.102,2.336L179.136,2.272L179.221,1.963L179.255,1.756L179.31,1.557L179.382,1.075L179.411,0.546L179.395,0.005L179.331,-0.515L179.28,-0.739L179.251,-0.964L179.17,-1.315L179.136,-1.395L179.12,-1.535L179.09,-1.603L179.09,-1.615L165.867,-5.122L149.539,-9.022L133.118,-12.52L116.617,-15.612L100.048,-18.29L83.416,-20.561L66.728,-22.418L50.007,-23.865L33.252,-24.893L16.476,-25.51L-0.313,-25.714L-41.923,-25.181L-41.923,-25.096L-41.919,-24.914L-41.919,-24.91L-41.915,-24.597L-41.915,-24.593L-41.911,-24.178L-41.911,-24.174L-41.902,-23.696L-41.902,-23.692L-41.898,-23.175L-41.898,-23.171L-41.89,-22.659L-41.89,-22.651L-41.885,-22.173L-41.885,-22.169L-41.877,-21.759L-41.877,-21.754L-41.873,-21.437L-41.873,-21.166L-11.59,-21.555L-0.309,-21.699L16.379,-21.5L30.084,-20.997L28.954,-21.107L25.642,-21.429L28.954,-21.107L30.084,-20.997L33.053,-20.887L49.711,-19.863L66.335,-18.425L82.921,-16.577L99.456,-14.322L115.927,-11.657L122.374,-10.452L126.507,-9.678L132.331,-8.586L148.655,-5.109L164.886,-1.23L179.052,2.53L179.052,2.517L179.081,2.462Z" style="fill:rgb(99,102,106);fill-rule:nonzero;"/>
                </g>
                <g transform="matrix(1,0,0,1,1271.41,6633.19)">
                    <path d="M0.448,-0.017L-0.415,-0.017L-0.774,-0.016L-1.049,-0.016L-1.049,0L0.448,0L0.448,-0.017Z" style="fill:rgb(99,102,106);fill-rule:nonzero;"/>
                </g>
                <g transform="matrix(1,0,0,1,1278.3,6030.86)">
                    <path d="M0,10.346L0.283,10.35L0.283,10.346L0.283,10.35L0.334,10.346L0.423,10.35L0.757,10.35L0.998,10.355L1.222,10.355L1.32,0L1.049,0L0.855,-0.005L0.431,-0.005L0.339,-0.009L-0.347,-0.009L-0.364,1.92L-0.364,1.932L-0.334,2L-0.317,2.14L-0.283,2.22L-0.203,2.571L-0.173,2.796L-0.123,3.02L-0.059,3.54L-0.042,4.081L-0.072,4.61L-0.144,5.092L-0.199,5.291L-0.233,5.499L-0.317,5.807L-0.351,5.871L-0.372,5.998L-0.402,6.053L-0.402,6.065L-0.44,10.346L0,10.346Z" style="fill:rgb(99,102,106);fill-rule:nonzero;"/>
                </g>
                <g transform="matrix(1,0,0,1,1270.19,6631.44)">
                    <path d="M0,1.727L0.169,1.727L0.444,1.726L0.804,1.726L1.218,1.725L26.272,1.725L26.691,1.726L27.047,1.726L27.322,1.727L27.495,1.727L27.495,0.001L27.322,0.001L27.047,0L0.444,0L0.169,0.001L0,0.001L0,1.727Z" style="fill:rgb(99,102,106);fill-rule:nonzero;"/>
                </g>
                <g transform="matrix(1,0,0,1,1288.25,6633.19)">
                    <path d="M0,-0.018L-2.081,-0.019L-4.315,-0.02L-4.315,0.002L-2.081,0.001L0,0.001L1.785,-0.001L1.785,-0.016L0,-0.018Z" style="fill:rgb(99,102,106);fill-rule:nonzero;"/>
                </g>
                <g transform="matrix(1,0,0,1,1278.54,6558.53)">
                    <path d="M0,-475.462L-0.004,-475.462L0,-475.462ZM-3.232,72.917L13.997,72.917L10.554,-548.366C7.122,-548.379 3.644,-548.379 0.211,-548.366L0.097,-527.673C0.578,-527.663 1.161,-527.667 1.645,-527.656L1.565,-517.305C1.089,-517.307 0.515,-517.315 0.042,-517.314C0.042,-517.315 -3.232,72.916 -3.232,72.917Z" style="fill:rgb(99,102,106);fill-rule:nonzero;"/>
                </g>
                <g transform="matrix(1,0,0,1,1055.3,6009.51)">
                    <path d="M0,0.211L0.004,-0.22L-0.034,0.431L0,0.211Z" style="fill:rgb(99,102,106);fill-rule:nonzero;"/>
                </g>
                <g transform="matrix(1,0,0,1,1055.29,6009.82)">
                    <path d="M0,0.613L0.004,0L-0.013,0.507L0,0.613Z" style="fill:rgb(99,102,106);fill-rule:nonzero;"/>
                </g>
                <g transform="matrix(1,0,0,1,1395.12,6264.58)">
                    <path d="M0,2.829C-0.349,2.548 -0.667,1.962 -0.868,1.501C-0.901,1.164 -0.912,0.558 -0.903,0.219C12.875,0.049 26.784,-0.158 40.563,-0.284C40.7,0.732 40.313,1.794 39.663,2.343L39.663,2.347L39.701,2.343L39.329,2.563L39.634,2.364C39.629,2.369 39.284,2.562 39.281,2.571C38.492,2.556 37.492,2.613 36.696,2.613L36.721,2.588C36.506,2.64 35.572,2.614 35.337,2.63L35.337,2.605C31.153,2.718 26.551,2.806 22.344,2.838C22.331,2.821 22.301,2.78 22.29,2.761L22.284,2.761L22.29,2.791L19.727,2.82L19.727,2.795L19.657,2.795C19.673,2.81 19.714,2.854 19.73,2.871C16.481,2.836 12.598,3.1 9.37,2.926L9.383,2.943L7.061,2.969L7.061,2.956L6.893,2.956L6.902,2.973L4.644,2.998L4.644,2.985L4.469,2.99C4.482,2.992 4.627,3.055 4.644,3.062C3.728,3.073 1.688,3.099 0.792,3.113C0.577,3.11 0.189,2.964 0,2.829" style="fill:rgb(151,152,155);fill-rule:nonzero;"/>
                </g>
                <g transform="matrix(-0.0100468,0.99995,0.99995,0.0100468,1394.44,6266.2)">
                    <path d="M1.473,-0.211C1.007,-0.225 0.345,-0.232 -0.122,-0.186C0.694,0.152 1.482,0.736 1.473,1.481C1.547,1.166 1.748,0.128 1.82,-0.204C1.761,-0.204 1.536,-0.209 1.473,-0.211" style="fill:rgb(151,152,155);fill-rule:nonzero;"/>
                </g>
                <g transform="matrix(1,0,0,1,1394.22,6264.79)">
                    <path d="M0,0.66L-0.022,0L-0.01,0L0,0.66Z" style="fill:rgb(151,152,155);fill-rule:nonzero;"/>
                </g>
                <g transform="matrix(1,0,0,1,1434.04,6267.15)">
                    <path d="M0,0.047C0.081,0.028 0.286,-0.017 0.366,-0.004L0,0.064L0,0.047Z" style="fill:rgb(151,152,155);fill-rule:nonzero;"/>
                </g>
                <g transform="matrix(1,0,0,1,1430.3,6267.7)">
                    <path d="M0,0.004L0.159,0.004L0.159,-0L0.175,-0.005C0.175,0.002 0.006,0.004 0,0.004C-0.081,-0.009 -3.128,0.033 -3.216,0.029C-1.035,-0.003 1.523,-0.037 3.699,-0.042C2.777,-0.028 -1.923,0.041 -2.917,0.046C-2.464,0.04 -0.408,0.009 0,0.004" style="fill:rgb(99,102,106);fill-rule:nonzero;"/>
                </g>
                <g transform="matrix(1,0,0,1,1397.4,6267.68)">
                    <path d="M0,-0.009C12.154,-0.156 24.448,-0.337 36.6,-0.453L36.603,-0.018C23.943,0.097 11.179,0.288 -1.482,0.444C-1.482,0.437 -1.485,0.018 -1.485,0.012L0,-0.009Z" style="fill:rgb(99,102,106);fill-rule:nonzero;"/>
                </g>
                <g transform="matrix(1,0,0,1,1435.4,6259.85)">
                    <path d="M0,3.362L0.29,4.449C0.196,4.467 0.068,4.434 -0.006,4.352L-0.006,4.449C-13.686,4.584 -27.498,4.78 -41.177,4.952C-41.179,4.814 -41.181,4.586 -41.18,4.449L-41.183,4.445L-41.183,4.136C-32.837,1.557 -24.058,0.15 -15.503,-0.352C-10.589,-0.419 -3.881,-1.59 -0.016,3.256C-0.02,3.285 -0.01,3.337 0,3.362" style="fill:rgb(99,102,106);fill-rule:nonzero;"/>
                </g>
                <g transform="matrix(1,0,0,1,1394.22,6265.45)">
                    <path d="M0,-0.652C0,-0.62 -0.003,-0.032 -0.003,0.004L-0.013,-0.656L0,-0.652Z" style="fill:rgb(99,102,106);fill-rule:nonzero;"/>
                </g>
                <g transform="matrix(1,0,0,1,1392.97,6267.37)">
                    <path d="M0,-3.74C0,-3.915 -0.004,-4.217 -0.006,-4.391L1.212,-4.404C1.227,-2.732 1.267,-1.019 1.247,0.651L0.029,0.664C0.025,-0.78 0.006,-2.296 0,-3.74" style="fill:rgb(99,102,106);fill-rule:nonzero;"/>
                </g>
                <g transform="matrix(1,0,0,1,1361.22,6271.99)">
                    <path d="M0,-6.425L0.455,-6.442L0.455,-6.433C0.342,-6.431 0.113,-6.427 0,-6.425M-76.386,2.898C-57.31,-0.933 -38.076,-3.397 -19.059,-4.674C-19.674,-4.594 -21.822,-4.317 -22.398,-4.242C-6.155,-5.378 15.335,-4.672 31.708,-4.412C31.716,-5.735 31.735,-7.102 31.746,-8.426C6.15,-9.173 -24.644,-9.323 -49.953,-5.663C-58.853,-4.481 -67.896,-2.951 -76.963,-1.095" style="fill:rgb(99,102,106);fill-rule:nonzero;"/>
                </g>
                <g transform="matrix(1,0,0,1,1394.19,6263.86)">
                    <path d="M0,0.211L-0.003,-0.22L0.025,0.431L0,0.211Z" style="fill:rgb(99,102,106);fill-rule:nonzero;"/>
                </g>
                <g transform="matrix(1,0,0,1,1394.19,6264.17)">
                    <path d="M0,0.613L-0.003,0C-0.002,0.079 0.017,0.547 0,0.613" style="fill:rgb(99,102,106);fill-rule:nonzero;"/>
                </g>
                <g transform="matrix(1,0,0,1,1276.57,6633.17)">
                    <path d="M0,0.001L0.127,0.001L0.138,0.006L1.256,0.005L1.256,-0.005L-0.114,-0.005L-0.114,0.002L0,0.001Z" style="fill:rgb(99,102,106);fill-rule:nonzero;"/>
                </g>
                <g transform="matrix(0.00772849,-0.99997,-0.99997,-0.00772849,1285.03,6035.83)">
                    <rect x="-5.429" y="4.887" width="10.355" height="0.566" style="fill:rgb(99,102,106);"/>
                </g>
                <g transform="matrix(1,0,0,1,1276.57,6633.18)">
                    <path d="M0,-0.006L-0.114,-0.005L-0.114,0L0.138,-0.001L0.127,-0.006L0,-0.006Z" style="fill:rgb(99,102,106);fill-rule:nonzero;"/>
                </g>
                <g transform="matrix(1,0,0,1,1280.26,6005.95)">
                    <path d="M-0.554,4.209L0.009,4.209L0.681,4.205L6.633,4.205L7.301,4.209L7.868,4.209L7.724,3.122L7.305,2.107L6.633,1.235L5.761,0.567L4.746,0.144L3.655,0L2.568,0.144L1.552,0.567L0.681,1.235L0.009,2.107L-0.41,3.122L-0.554,4.209Z" style="fill:rgb(99,102,106);fill-rule:nonzero;"/>
                </g>
                <g transform="matrix(1,0,0,1,1292.27,6633.19)">
                    <path d="M0,-0.009L-0.186,-0.015L-0.77,-0.015L-0.863,-0.011L-0.863,-0.001L-0.762,0.003L-0.351,0.003L-0.347,0.006L0,-0.003L0,-0.009Z" style="fill:rgb(99,102,106);fill-rule:nonzero;"/>
                </g>
            </g>
        </g>
    </g>
</svg>
