<?xml version="1.0" encoding="UTF-8" standalone="no"?>
<!DOCTYPE svg PUBLIC "-//W3C//DTD SVG 1.1//EN" "http://www.w3.org/Graphics/SVG/1.1/DTD/svg11.dtd">
<svg width="100%" height="100%" viewBox="0 0 390 546" version="1.1" xmlns="http://www.w3.org/2000/svg" xmlns:xlink="http://www.w3.org/1999/xlink" xml:space="preserve" xmlns:serif="http://www.serif.com/" style="fill-rule:evenodd;clip-rule:evenodd;stroke-linejoin:round;stroke-miterlimit:2;">
    <g id="Artboard1" transform="matrix(0.945824,0,0,0.9377,145.409,113.561)">
        <rect x="-153.737" y="-121.106" width="411.378" height="581.315" style="fill:none;"/>
        <clipPath id="_clip1">
            <rect x="-153.737" y="-121.106" width="411.378" height="581.315"/>
        </clipPath>
        <g clip-path="url(#_clip1)">
            <g transform="matrix(1.05728,0,0,1.06644,-334.39,-6611.31)">
                <g id="lamppost-left">
                    <g id="post">
                        <g>
                            <g transform="matrix(1,0,0,1,298.252,6225.47)">
                                <path d="M0,40.456C1.937,39.617 3.607,38.274 4.828,36.553C7.9,32.226 13.555,23.541 14.163,17.466C14.655,12.288 14.506,5.413 11.121,1.188C10.217,0.119 9.013,-0.822 7.765,-1.455C7.527,-1.505 6.329,-1.42 6.057,-1.456C2.627,-1.458 -1.544,-1.454 -4.983,-1.455C-8.423,-1.45 -12.591,-1.459 -16.023,-1.455C-16.286,-1.405 -17.474,-1.492 -17.731,-1.455C-18.978,-0.821 -20.184,0.118 -21.087,1.188C-24.474,5.414 -24.62,12.286 -24.129,17.466C-23.5,23.593 -17.717,32.392 -14.662,36.668C-13.497,38.299 -11.934,39.592 -10.116,40.435L-9.921,40.526C-6.924,41.916 -3.475,41.961 -0.443,40.648L0,40.456Z" style="fill:rgb(194,230,242);fill-rule:nonzero;"/>
                            </g>
                            <g transform="matrix(1,0,0,1,368.954,6571.62)">
                                <path d="M0,-382.166L0,-382.11L-0.008,-382.113L-0.047,-382.138L-0.084,-382.166L0,-382.166ZM0.032,-382.088L0.018,-382.088L0.032,-382.088ZM0.674,-382.307L0.674,-382.268L0.673,-382.233L0.673,-382.198L0.62,-382.198L0.593,-382.233L0.567,-382.268L0.543,-382.307L0.674,-382.307ZM0.649,-382.166L0.673,-382.166L0.673,-382.145L0.649,-382.166ZM0.679,-382.138L0.71,-382.113L0.743,-382.088L0.773,-382.071L0.743,-382.088L0.673,-382.088L0.673,-382.138L0.679,-382.138ZM1.551,-382.307L1.551,-382.258L1.563,-382.233L1.582,-382.198L1.55,-382.198L1.551,-382.233L1.551,-382.258L1.545,-382.268L1.528,-382.307L1.551,-382.307ZM1.624,-382.138L1.646,-382.113L1.669,-382.088L1.693,-382.071L1.714,-382.057L1.693,-382.071L1.55,-382.088L1.55,-382.166L1.603,-382.166L1.624,-382.138ZM2.571,-382.088L2.572,-382.113L2.572,-382.166L2.714,-382.166L2.725,-382.138L2.736,-382.113L2.748,-382.088L2.761,-382.071L2.773,-382.053L2.571,-382.071L2.571,-382.088ZM2.572,-382.198L2.572,-382.307L2.676,-382.307L2.684,-382.268L2.693,-382.233L2.703,-382.198L2.572,-382.198ZM3.668,-382.043L3.668,-382.166L3.906,-382.166L3.906,-382.043L3.668,-382.043ZM3.668,-382.198L3.668,-382.307L3.906,-382.307L3.906,-382.198L3.668,-382.198ZM4.764,-382.029L5.014,-382.032L5,-382.025L4.904,-382.025L4.764,-382.029L3.906,-382.029L3.863,-382.032L3.906,-382.029L4.764,-382.029ZM7.134,-382.138L7.164,-382.166L7.336,-382.166L7.336,-382.138L7.337,-382.113L7.102,-382.113L7.134,-382.138ZM7.22,-382.233L7.246,-382.268L7.27,-382.307L7.335,-382.307L7.336,-382.268L7.336,-382.198L7.193,-382.198L7.22,-382.233ZM-4.268,0.257L11.605,0.257L7.904,-382.021L7.76,-382.021L7.567,-382.025L7.522,-382.021L7.337,-382.021L6.895,-382.025L6.859,-382.021L6.664,-382.021L6.02,-382.025L5.994,-382.021L5.865,-382.021L5.994,-382.021L6.02,-382.025L6.664,-382.021L6.664,-382.025L6.664,-382.021L6.859,-382.021L6.895,-382.025L7.337,-382.021L7.337,-382.025L7.337,-382.021L7.522,-382.021L7.567,-382.025L7.611,-382.032L7.655,-382.043L7.698,-382.053L7.74,-382.071L7.76,-382.081L7.76,-382.138L7.759,-382.166L7.896,-382.166L7.932,-382.198L7.759,-382.198L7.759,-382.268L7.758,-382.307L8.025,-382.307L8.052,-382.349L7.758,-382.349L7.758,-382.392L7.335,-382.392L7.335,-382.349L7.292,-382.349L7.312,-382.392L7.325,-382.423L6.661,-382.423L6.662,-382.392L6.314,-382.392L6.323,-382.423L5.785,-382.423L5.785,-382.392L5.153,-382.392L5.157,-382.423L4.764,-382.423L4.764,-382.392L3.906,-382.392L3.906,-382.349L3.668,-382.349L3.668,-382.423L2.655,-382.423L2.667,-382.349L2.572,-382.349L2.572,-382.392L1.551,-382.392L1.551,-382.349L1.513,-382.349L1.498,-382.392L1.489,-382.423L0.674,-382.423L0.674,-382.349L0.521,-382.349L0.501,-382.392L0.488,-382.423L-0.28,-382.423L-0.264,-382.392L-0.239,-382.349L-0.213,-382.307L0.001,-382.307L0.001,-382.268L0,-382.233L0,-382.198L-0.119,-382.198L-0.152,-382.233L-0.184,-382.268L-0.423,-382.268L-0.423,-382.198L-0.583,-382.198L-0.544,-382.166L-0.423,-382.166L-0.423,-382.138L-0.424,-382.113L-0.423,-382.092L-0.46,-382.113L-0.568,-382.113L-0.568,-382.088L-4.268,0.257Z" style="fill:rgb(66,76,160);fill-rule:nonzero;"/>
                            </g>
                            <g transform="matrix(1,0,0,1,397.302,6631.93)">
                                <rect x="-50.232" y="-11.053" width="51.103" height="11.053" style="fill:rgb(66,76,160);fill-rule:nonzero;"/>
                            </g>
                            <g transform="matrix(1,0,0,1,352.845,6571.88)">
                                <path d="M-3.059,48.994L42.612,48.994L42.612,46.626L41.676,46.626L40.94,46.371L40.225,46.063L39.534,45.704L38.871,45.295L38.24,44.839L37.643,44.338L37.085,43.795L36.568,43.212L36.253,42.58L35.896,41.97L35.499,41.386L35.063,40.83L34.591,40.304L34.084,39.811L33.546,39.353L33.22,38.809L33.707,38.386L33.99,37.806L34.035,37.215L33.859,36.649L33.488,36.097L34.357,35.461L35.18,34.914L35.923,34.26L36.569,33.511L37.107,32.682L37.528,31.787L37.823,30.843L37.988,29.867L38.017,28.879L39.231,28.56L39.683,28.139L39.684,27.536L39.183,27.08L38.522,27.08L37.073,27.024L37.683,27.024L36.328,25.725L35.063,24.34L33.892,22.874L32.822,21.332L31.856,19.723L31,18.054L30.257,16.331L29.63,14.562L29.122,12.755L28.735,10.919L28.474,9.078L28.732,6.762L29.344,6.533L29.849,6.118L30.195,5.564L30.343,4.927L30.328,4.468L30.195,4.028L29.849,3.474L29.344,3.059L28.732,2.83L28.472,0.624L27.713,0L11.84,0L11.081,0.624L10.885,2.815L10.325,2.998L9.793,3.378L9.412,3.909L9.225,4.796L9.412,5.683L9.793,6.214L10.325,6.595L10.885,6.777L11.079,9.078L10.817,10.919L10.43,12.755L9.923,14.562L9.296,16.331L8.553,18.054L7.697,19.723L6.731,21.332L5.66,22.874L4.49,24.34L3.224,25.725L1.87,27.023L1.292,27.023L2.933,27.097L0.327,27.097L-0.123,27.883L0.366,28.582L1.537,29.126L1.63,30.358L1.861,31.32L2.219,32.241L2.7,33.106L3.294,33.897L3.99,34.6L4.774,35.202L5.634,35.692L6.14,36.111L5.747,36.555L5.536,37.431L5.783,38.298L6.196,38.72L6.221,38.996L5.468,39.811L4.962,40.304L4.49,40.83L4.054,41.386L3.656,41.97L3.3,42.58L2.984,43.212L2.467,43.795L1.909,44.338L1.313,44.839L0.681,45.295L0.019,45.704L-0.672,46.063L-1.388,46.371L-2.124,46.626L-3.059,46.626L-3.059,48.994Z" style="fill:rgb(66,76,160);fill-rule:nonzero;"/>
                            </g>
                            <g transform="matrix(1,0,0,1,296.215,6173.63)">
                                <path d="M0,-0.046L0.95,0L0.806,-0.018L0.679,-0.021L0.232,-0.046L0,-0.046Z" style="fill:rgb(66,76,160);fill-rule:nonzero;"/>
                            </g>
                            <g transform="matrix(1,0,0,1,289.403,6173.59)">
                                <path d="M0,1.121L0.707,1.128L1.522,1.121L2.576,1.128L3.679,1.128L4.832,1.1L8.131,1.1L8.222,1.114L8.234,1.107L8.721,0.899L8.83,0.596L8.79,0.3L8.419,0.025L8.301,0.039L8.273,0.042L7.973,0.042L7.914,0.039L8.14,0.032L7.429,0.004L7.895,0.039L7.762,0.042L5.274,0.042L4.932,-0.004L4.037,-0.004L4.052,0.011L4.863,0.042L4.052,0.011L3.721,-0.004L2.515,-0.004L1.996,-0.007L0.78,-0.007L0.556,-0.004L0.471,-0.007L-0.098,-0.007L-0.513,-0.004L-0.612,-0.004L-1.014,0.571L-0.409,1.128L-0.314,1.128L0,1.121Z" style="fill:rgb(66,76,160);fill-rule:nonzero;"/>
                            </g>
                            <g transform="matrix(1,0,0,1,282.229,6220.51)">
                                <path d="M-1.708,3.5L23.788,3.5L23.683,1.706L23.298,1.061L22.758,0.539L22.1,0.176L21.37,0L0.71,0L-0.02,0.176L-0.678,0.539L-1.218,1.061L-1.603,1.706L-1.708,3.5Z" style="fill:rgb(66,76,160);fill-rule:nonzero;"/>
                            </g>
                            <g transform="matrix(1,0,0,1,289.305,6191.96)">
                                <path d="M0,-3.016L0.494,-2.971L0.494,-2.969L0,-3.016ZM79.614,-16.434L79.598,-16.436L79.614,-16.434ZM88.506,-14.702L88.351,-14.814L88.205,-14.941L88.068,-15.079L87.94,-15.226L87.823,-15.382L87.718,-15.547L87.623,-15.717L87.541,-15.896L87.517,-16.034L87.501,-16.171L87.494,-16.312L87.497,-16.453L87.5,-16.482L87.946,-16.537L88.105,-16.507L88.391,-16.907L88.406,-17.216L88.33,-17.545L87.911,-17.922L87.758,-17.902L87.743,-17.902L87.743,-19.217L87.53,-19.217L87.53,-22.033L86.931,-22.033L86.639,-22.343L86.371,-22.675L86.128,-23.024L85.911,-23.391L85.722,-23.771L85.562,-24.166L85.48,-24.437L85.379,-24.698L85.258,-24.952L85.118,-25.199L85.065,-25.199L84.913,-25.432L84.961,-25.432L84.786,-25.65L84.596,-25.858L84.596,-27.349L84.576,-27.349C85.316,-27.711 85.83,-28.464 85.83,-29.343C85.83,-30.572 84.834,-31.568 83.605,-31.568C82.375,-31.568 81.379,-30.572 81.379,-29.343C81.379,-28.464 81.893,-27.711 82.634,-27.349L82.515,-27.349L82.515,-25.858L82.324,-25.65L82.15,-25.432L82.198,-25.432L82.045,-25.199L81.992,-25.199L81.853,-24.952L81.732,-24.698L81.63,-24.437L81.548,-24.166L81.388,-23.771L81.199,-23.391L80.983,-23.024L80.74,-22.675L80.471,-22.343L80.179,-22.033L79.58,-22.033L79.58,-19.217L79.367,-19.217L79.367,-17.918L79.205,-17.918L78.774,-17.137L79.102,-16.436L79.201,-16.436L79.614,-16.399L79.616,-16.312L79.609,-16.171L79.594,-16.034L79.569,-15.896L79.487,-15.717L79.393,-15.547L79.287,-15.382L79.17,-15.226L79.043,-15.079L78.906,-14.941L78.76,-14.814L78.604,-14.702L78.43,-14.702L78.477,-13.288L8.326,-13.288L8.331,-17.264L8.32,-17.257L8.229,-17.271L4.93,-17.271L3.776,-17.243L2.674,-17.243L1.62,-17.25L0.804,-17.243L0.098,-17.25L-0.217,-17.243L-0.311,-17.243L-0.393,-4.401L-0.824,-3.672L-0.496,-3.016L-0.397,-3.016L0.494,-2.943L0.495,3.166L1.154,3.166L1.138,6.399L1.027,7.136L0.866,7.862L0.656,8.577L0.411,9.279L0.107,9.959L-0.242,10.615L-0.635,11.249L-1.07,11.852L-1.545,12.427L-2.086,12.966L-2.637,13.47L-3.503,14.037L-4.139,14.425L-4.616,14.993L-4.882,15.687L-4.909,16.427L-4.694,17.14L-4.259,17.742L-3.653,18.172L-2.666,19.96L-2.604,19.963L-2.597,19.96L-2.514,19.963L-2.367,19.96L-1.931,19.963L-1.628,19.96L-1.422,19.963L-2.225,20.083L-4.657,20.714L-4.677,21.204L-4.417,21.863L-3.863,22.3L-2.165,22.3L-2.093,24.622L-2.365,25.214L-2.679,25.785L-3.033,26.335L-3.426,26.857L-3.855,27.347L-4.318,27.809L-4.813,28.232L-5.57,28.552L13.498,28.552L12.741,28.232L12.247,27.809L11.784,27.347L11.355,26.857L10.962,26.335L10.608,25.785L10.294,25.214L10.021,24.622L10.093,22.321L11.791,22.321L12.33,21.93L12.633,21.116L10.194,20.083L9.39,19.963L9.884,19.96L10.311,19.963L10.474,19.96L10.619,19.963L11.606,18.172L12.212,17.742L12.647,17.14L12.857,16.131L12.64,15.127L12.202,14.524L11.593,14.097L11.174,13.935L10.589,13.47L10.038,12.966L9.522,12.427L9.045,11.852L8.607,11.249L8.212,10.615L7.861,9.955L7.555,9.279L7.296,8.577L7.086,7.862L6.925,7.136L6.814,6.399L6.737,3.166L7.458,3.166L7.458,-3.007L8.348,-3.111L8.507,-3.083L8.793,-3.457L8.809,-3.746L8.732,-4.052L8.313,-4.405L8.315,-5.374L78.886,-5.402L78.813,-5.448L78.738,-5.491L78.99,-5.491L79.01,-5.47L79.137,-5.322L79.254,-5.167L79.36,-5.002L79.454,-4.832L79.536,-4.653L79.561,-4.515L79.577,-4.378L79.583,-4.237L79.58,-4.096L79.568,-3.958L79.547,-3.817L79.516,-3.683L79.483,-3.57L78.977,-3.57L78.546,-2.789L78.874,-2.088L78.973,-2.088L81.965,-1.824L79.37,-2.088L82.136,-1.82L84.751,-1.82L87.718,-2.19L87.876,-2.16L88.162,-2.559L88.178,-2.869L88.102,-3.197L87.683,-3.574L87.564,-3.559L87.528,-3.683L87.498,-3.817L87.476,-3.958L87.464,-4.096L87.461,-4.237L87.468,-4.378L87.484,-4.515L87.508,-4.653L87.59,-4.832L87.684,-5.002L87.754,-5.11L87.764,-5.11L87.816,-5.177L87.797,-5.177L87.845,-5.24L87.873,-5.24L87.933,-5.3L87.89,-5.3L87.907,-5.322L88.015,-5.44L88.224,-5.402L88.238,-5.665L88.318,-5.735L88.473,-5.848L88.247,-5.848L88.633,-13.288L88.68,-14.702L88.506,-14.702Z" style="fill:rgb(66,76,160);fill-rule:nonzero;"/>
                            </g>
                        </g>
                    </g>
                </g>
            </g>
        </g>
    </g>
</svg>
