<?xml version="1.0" encoding="UTF-8" standalone="no"?>
<!DOCTYPE svg PUBLIC "-//W3C//DTD SVG 1.1//EN" "http://www.w3.org/Graphics/SVG/1.1/DTD/svg11.dtd">
<svg width="100%" height="100%" viewBox="0 0 370 930" version="1.1" xmlns="http://www.w3.org/2000/svg" xmlns:xlink="http://www.w3.org/1999/xlink" xml:space="preserve" xmlns:serif="http://www.serif.com/" style="fill-rule:evenodd;clip-rule:evenodd;stroke-linejoin:round;stroke-miterlimit:2;">
    <g transform="matrix(1,0,0,1,-2008.11,-5701.45)">
        <g id="lamp-modern-right">
            <g>
                <g transform="matrix(1,0,0,1,2287.99,6005.87)">
                    <path d="M0,2.497C-0.921,1.906 -1.348,0.964 -1.201,-0.113C17.123,-0.284 35.621,-0.49 53.945,-0.616C54.126,0.4 53.612,1.462 52.748,2.011L52.748,2.015L52.799,2.011L52.304,2.231L52.71,2.032C52.703,2.037 52.245,2.23 52.24,2.239C51.191,2.224 49.861,2.281 48.802,2.281L48.835,2.256C48.549,2.308 47.307,2.282 46.995,2.298L46.995,2.273C41.431,2.386 35.311,2.474 29.716,2.506C29.698,2.489 29.658,2.448 29.644,2.429L29.635,2.429L29.644,2.459L26.234,2.488L26.234,2.463L26.142,2.463C26.163,2.478 26.218,2.522 26.239,2.539C21.918,2.504 16.754,2.768 12.462,2.594L12.479,2.611L9.391,2.637L9.391,2.624L9.167,2.624L9.179,2.641L6.176,2.666L6.176,2.653L5.943,2.658C5.96,2.66 6.154,2.723 6.176,2.73C4.46,2.602 1.608,3.113 0,2.497" style="fill:rgb(151,152,155);fill-rule:nonzero;"/>
                </g>
                <g transform="matrix(-0.00755534,0.999971,0.999971,0.00755534,2287.28,6006.88)">
                    <path d="M1.751,-0.49C1.284,-0.506 0.622,-0.511 0.156,-0.447C0.971,-0.003 1.759,0.769 1.751,1.76C1.824,1.341 2.026,-0.041 2.098,-0.483C2.039,-0.483 1.813,-0.488 1.751,-0.49" style="fill:rgb(151,152,155);fill-rule:nonzero;"/>
                </g>
                <g transform="matrix(1,0,0,1,2286.78,6005.75)">
                    <path d="M0,0.66L-0.03,0L-0.013,0L0,0.66Z" style="fill:rgb(151,152,155);fill-rule:nonzero;"/>
                </g>
                <g transform="matrix(1,0,0,1,2339.74,6008.11)">
                    <path d="M0,0.047C0.107,0.028 0.38,-0.017 0.486,-0.004L0,0.064L0,0.047Z" style="fill:rgb(151,152,155);fill-rule:nonzero;"/>
                </g>
                <g transform="matrix(1,0,0,1,2334.78,6008.66)">
                    <path d="M0,0.004L0.211,0.004L0.211,-0L0.233,-0.005C0.052,0.006 -4.007,0.023 -4.277,0.029C-1.376,-0.003 2.026,-0.037 4.919,-0.042C3.694,-0.028 -2.558,0.041 -3.879,0.046C-3.277,0.04 -0.542,0.009 0,0.004" style="fill:rgb(99,102,106);fill-rule:nonzero;"/>
                </g>
                <g transform="matrix(1,0,0,1,2291.02,6008.64)">
                    <path d="M0,-0.009C16.163,-0.156 32.513,-0.337 48.675,-0.453L48.679,-0.018C31.842,0.097 14.868,0.288 -1.971,0.444C-1.971,0.437 -1.975,0.018 -1.975,0.012L0,-0.009Z" style="fill:rgb(99,102,106);fill-rule:nonzero;"/>
                </g>
                <g transform="matrix(1,0,0,1,2341.55,6000.75)">
                    <path d="M0,3.418L0.385,4.505C0.26,4.523 0.091,4.49 -0.009,4.408L-0.009,4.505C-18.201,4.64 -36.569,4.836 -54.762,5.008C-54.764,4.87 -54.767,4.642 -54.766,4.505L-54.77,4.501L-54.77,4.192C-43.671,1.613 -31.995,0.206 -20.617,-0.296C-13.928,-0.335 -5.354,-1.59 -0.021,3.312C-0.026,3.34 -0.013,3.393 0,3.418" style="fill:rgb(99,102,106);fill-rule:nonzero;"/>
                </g>
                <g transform="matrix(1,0,0,1,2286.79,6006.41)">
                    <path d="M0,-0.652C0,-0.62 -0.004,-0.032 -0.004,0.004L-0.017,-0.656L0,-0.652Z" style="fill:rgb(99,102,106);fill-rule:nonzero;"/>
                </g>
                <g transform="matrix(1,0,0,1,2052.01,6628.47)">
                    <path d="M0,0.008C-0.216,0.009 -1.175,0 -1.37,0.01L-1.37,-0.002L1.785,-0.002L1.785,0.006L0,0.008Z" style="fill:rgb(99,102,106);fill-rule:nonzero;"/>
                </g>
                <g transform="matrix(1,0,0,1,2285.13,6008.33)">
                    <path d="M0,-3.74C0,-3.915 -0.006,-4.217 -0.008,-4.391L1.612,-4.404C1.632,-2.732 1.685,-1.019 1.658,0.651L0.038,0.664C0.033,-0.78 0.008,-2.296 0,-3.74" style="fill:rgb(99,102,106);fill-rule:nonzero;"/>
                </g>
                <g transform="matrix(1,0,0,1,2242.91,6027.5)">
                    <path d="M0,-20.977L0.605,-20.994L0.605,-20.985L0.296,-20.981L0,-20.977ZM-178.756,4.733C-129.204,-9.153 -76.681,-16.634 -25.346,-19.226C-26.148,-19.148 -29.037,-18.867 -29.788,-18.794C-8.129,-19.93 20.331,-19.224 42.169,-18.964C42.18,-20.287 42.204,-21.654 42.219,-22.978C-31.457,-25.71 -107.727,-19.484 -178.794,0.587C-179.188,1.898 -179.224,3.359 -178.785,4.665C-178.782,4.673 -178.75,4.724 -178.756,4.733" style="fill:rgb(99,102,106);fill-rule:nonzero;"/>
                </g>
                <g transform="matrix(1,0,0,1,2070.64,6628.49)">
                    <path d="M0,-0.017C0.309,-0.017 0.742,-0.016 1.049,-0.016L1.049,0L-0.448,0L-0.448,-0.017L0,-0.017Z" style="fill:rgb(99,102,106);fill-rule:nonzero;"/>
                </g>
                <g transform="matrix(1,0,0,1,2063.75,6026.16)">
                    <path d="M0,10.347L-0.283,10.351L-0.283,10.347L-0.283,10.351C-0.576,10.346 -0.929,10.358 -1.222,10.356L-1.32,0.001C-0.775,-0.001 -0.197,-0.011 0.347,-0.008C0.321,0.07 0.417,1.941 0.334,2.001C0.183,2.654 0.031,3.402 0.042,4.082C0.063,4.657 0.149,5.335 0.351,5.872C0.352,5.916 0.384,6.028 0.402,6.066L0.44,10.347L0,10.347Z" style="fill:rgb(99,102,106);fill-rule:nonzero;"/>
                </g>
                <g transform="matrix(0.0626517,-0.998035,-0.998035,-0.0626517,2059.83,6613.94)">
                    <path d="M-13.749,-12.91C-14.317,-3.82 -14.898,5.441 -15.472,14.531L-13.749,14.639C-13.175,5.549 -12.594,-3.713 -12.026,-12.802L-13.749,-12.91Z" style="fill:rgb(99,102,106);fill-rule:nonzero;"/>
                </g>
                <g transform="matrix(1,0,0,1,2053.8,6628.5)">
                    <path d="M0,-0.018C1.071,-0.019 3.241,-0.02 4.315,-0.02L4.315,0.002C2.507,0.002 0.018,0.001 -1.785,-0.001L-1.785,-0.016L0,-0.018Z" style="fill:rgb(99,102,106);fill-rule:nonzero;"/>
                </g>
                <g transform="matrix(1,0,0,1,2063.51,6553.83)">
                    <path d="M0,-475.462L-0.004,-475.462L0,-475.462ZM3.228,72.917C3.228,72.916 -0.046,-517.315 -0.046,-517.314C-0.519,-517.315 -1.094,-517.307 -1.569,-517.305L-1.649,-527.656C-1.166,-527.667 -0.583,-527.663 -0.101,-527.673L-0.216,-548.366C-3.648,-548.379 -7.126,-548.379 -10.558,-548.366L-14.001,72.917L3.228,72.917Z" style="fill:rgb(99,102,106);fill-rule:nonzero;"/>
                </g>
                <g transform="matrix(1,0,0,1,2286.75,6004.81)">
                    <path d="M0,0.211L-0.004,-0.22L0.034,0.431L0,0.211Z" style="fill:rgb(99,102,106);fill-rule:nonzero;"/>
                </g>
                <g transform="matrix(1,0,0,1,2286.75,6005.13)">
                    <path d="M0,0.613L-0.004,0C-0.003,0.079 0.022,0.547 0,0.613" style="fill:rgb(99,102,106);fill-rule:nonzero;"/>
                </g>
                <g transform="matrix(1,0,0,1,2065.47,6628.49)">
                    <path d="M0,-0.01L-0.127,-0.01C-0.138,0.006 -1.243,-0.012 -1.256,-0.006L-1.256,-0.016L0.114,-0.016L0.114,-0.009L0,-0.01Z" style="fill:rgb(99,102,106);fill-rule:nonzero;"/>
                </g>
                <g transform="matrix(-0.00772849,-0.99997,-0.99997,0.00772849,2067.38,6031.56)">
                    <rect x="-4.925" y="4.905" width="10.355" height="0.566" style="fill:rgb(99,102,106);"/>
                </g>
                <g transform="matrix(0.999962,0.00877159,0.00877159,-0.999962,2065.47,6628.48)">
                    <path d="M-0,0L0.114,0L0.114,-0.005L-0.138,-0.006C-0.137,0.002 -0.006,-0.001 -0,0" style="fill:rgb(99,102,106);fill-rule:nonzero;"/>
                </g>
                <g transform="matrix(1,0,0,1,2061.78,5999.93)">
                    <path d="M0,5.527C-2.599,5.518 -5.269,5.523 -7.868,5.527C-7.603,0 0.291,0.005 0.554,5.527L0,5.527Z" style="fill:rgb(99,102,106);fill-rule:nonzero;"/>
                </g>
                <g transform="matrix(1,0,0,1,2049.78,6628.49)">
                    <path d="M0,-0.005C0.185,-0.013 0.675,-0.015 0.863,-0.007L0.863,0.004C0.799,0.009 0.424,0.007 0.351,0.007L0.347,0.01L0,0.001L0,-0.005Z" style="fill:rgb(99,102,106);fill-rule:nonzero;"/>
                </g>
            </g>
        </g>
    </g>
</svg>
