<?xml version="1.0" encoding="UTF-8" standalone="no"?>
<!DOCTYPE svg PUBLIC "-//W3C//DTD SVG 1.1//EN" "http://www.w3.org/Graphics/SVG/1.1/DTD/svg11.dtd">
<svg width="100%" height="100%" viewBox="0 0 240 920" version="1.1" xmlns="http://www.w3.org/2000/svg" xmlns:xlink="http://www.w3.org/1999/xlink" xml:space="preserve" xmlns:serif="http://www.serif.com/" style="fill-rule:evenodd;clip-rule:evenodd;stroke-linejoin:round;stroke-miterlimit:2;">
    <g transform="matrix(0.851528,0,0,0.851528,-210.413,-3206.36)">
        <g id="utility-pole-right">
            <g>
                <g transform="matrix(1,0,0,1,394.204,4840.04)">
                    <path d="M1.142,-964.014L-13.049,-964.014L-17.738,-967.599L-24.132,3.913L12.172,3.913L6.26,-967.927L1.142,-964.014Z" style="fill:rgb(205,152,99);fill-rule:nonzero;"/>
                </g>
                <g transform="matrix(1,0,0,1,383.531,3838.68)">
                    <path d="M0,28.31L4.72,31.919L10.645,27.386L16.867,22.631L16.708,-3.609L-6.817,-3.609L-6.994,22.962L0,28.31Z" style="fill:rgb(205,152,99);fill-rule:nonzero;"/>
                </g>
                <g transform="matrix(1,0,0,1,400.162,3835.07)">
                    <rect x="-147.136" y="-12.944" width="270.451" height="12.944" style="fill:rgb(205,152,99);fill-rule:nonzero;"/>
                </g>
                <g transform="matrix(1,0,0,1,394.056,3783.3)">
                    <path d="M-17.258,38.831L6.105,38.831L5.869,0L-0.701,0L-0.701,21.573L-9.736,21.573L-9.736,0L-17.005,0L-17.258,38.831Z" style="fill:rgb(205,152,99);fill-rule:nonzero;"/>
                </g>
                <g transform="matrix(1,0,0,1,509.196,3813.63)">
                    <path d="M-9.13,3.807L2.157,3.807L-0.666,0L-6.306,0L-9.13,3.807Z" style="fill:rgb(221,221,221);fill-rule:nonzero;"/>
                </g>
                <g transform="matrix(1,0,0,1,505.71,3817.44)">
                    <path d="M-6.637,5.076L6.638,5.076L5.643,0L-5.643,0L-6.637,5.076Z" style="fill:rgb(221,221,221);fill-rule:nonzero;"/>
                </g>
                <g transform="matrix(1,0,0,1,270.791,3817.44)">
                    <path d="M-6.638,5.076L6.638,5.076L5.643,0L-5.64,0L-6.638,5.076Z" style="fill:rgb(221,221,221);fill-rule:nonzero;"/>
                </g>
                <g transform="matrix(1,0,0,1,274.281,3813.63)">
                    <path d="M-9.13,3.807L2.154,3.807L-0.666,0L-6.31,0L-9.13,3.807Z" style="fill:rgb(221,221,221);fill-rule:nonzero;"/>
                </g>
                <g transform="matrix(1,0,0,1,388.839,3778.61)">
                    <path d="M-6.641,5.076L6.638,5.076L5.64,0L-5.643,0L-6.641,5.076Z" style="fill:rgb(221,221,221);fill-rule:nonzero;"/>
                </g>
                <g transform="matrix(1,0,0,1,392.325,3774.8)">
                    <path d="M-9.13,3.807L2.154,3.807L-0.666,0L-6.31,0L-9.13,3.807Z" style="fill:rgb(221,221,221);fill-rule:nonzero;"/>
                </g>
                <g transform="matrix(1,0,0,1,393.355,3783.3)">
                    <rect x="-9.035" y="0" width="9.035" height="21.573" style="fill:rgb(221,221,221);fill-rule:nonzero;"/>
                </g>
                <g transform="matrix(1,0,0,1,400.398,3849.78)">
                    <path d="M0,11.527L-6.222,16.282L-12.147,20.815L-16.867,17.206L-23.861,11.858L-58.606,-14.713L-72.798,-14.713L-23.931,22.655L-19.243,26.24L-5.051,26.24L0.067,22.327L48.507,-14.713L34.312,-14.713L0,11.527Z" style="fill:rgb(221,221,221);fill-rule:nonzero;"/>
                </g>
            </g>
        </g>
    </g>
</svg>
