<?xml version="1.0" encoding="UTF-8" standalone="no"?>
<!DOCTYPE svg PUBLIC "-//W3C//DTD SVG 1.1//EN" "http://www.w3.org/Graphics/SVG/1.1/DTD/svg11.dtd">
<svg width="100%" height="100%" viewBox="0 0 240 920" version="1.1" xmlns="http://www.w3.org/2000/svg" xmlns:xlink="http://www.w3.org/1999/xlink" xml:space="preserve" xmlns:serif="http://www.serif.com/" style="fill-rule:evenodd;clip-rule:evenodd;stroke-linejoin:round;stroke-miterlimit:2;">
    <g transform="matrix(0.852004,0,0,0.852004,-801.603,-3208.27)">
        <g id="utility-pole-left">
            <g>
                <g transform="matrix(1,0,0,1,1092.88,3835.07)">
                    <path d="M0,-12.944L0.085,0L35.007,0L46.597,-8.865L51.845,-2.024L49.198,0L123.773,0L123.773,-12.944L0,-12.944Z" style="fill:rgb(205,152,99);fill-rule:nonzero;"/>
                </g>
                <g transform="matrix(1,0,0,1,1092.97,4792.18)">
                    <path d="M0,-957.105L-0.085,-970.049L-0.338,-1008.88L-23.212,-1008.88L-23.448,-970.049L-23.526,-957.105L-23.684,-930.865L-23.751,-920.064L-29.663,51.775L6.641,51.775L0.247,-919.737L0.176,-930.534L0,-957.105Z" style="fill:rgb(205,152,99);fill-rule:nonzero;"/>
                </g>
                <g transform="matrix(1,0,0,1,1023.38,3830.99)">
                    <path d="M0,-4.786L11.594,4.079L46.065,4.079L46.142,-8.865L-77.172,-8.865L-77.172,4.079L-2.598,4.079L-5.245,2.056L0,-4.786Z" style="fill:rgb(205,152,99);fill-rule:nonzero;"/>
                </g>
                <g transform="matrix(1,0,0,1,969.616,3812.63)">
                    <path d="M0,3.807L-2.823,0L-8.464,0L-11.287,3.807L0,3.807Z" style="fill:rgb(221,221,221);fill-rule:nonzero;"/>
                </g>
                <g transform="matrix(1,0,0,1,970.61,3816.44)">
                    <path d="M0,5.076L-0.994,0L-12.281,0L-13.275,5.076L0,5.076Z" style="fill:rgb(221,221,221);fill-rule:nonzero;"/>
                </g>
                <g transform="matrix(1,0,0,1,1205.53,3816.44)">
                    <path d="M0,5.076L-0.998,0L-12.281,0L-13.275,5.076L0,5.076Z" style="fill:rgb(221,221,221);fill-rule:nonzero;"/>
                </g>
                <g transform="matrix(1,0,0,1,1204.53,3812.63)">
                    <path d="M0,3.807L-2.82,0L-8.464,0L-11.284,3.807L0,3.807Z" style="fill:rgb(221,221,221);fill-rule:nonzero;"/>
                </g>
                <g transform="matrix(1,0,0,1,1087.48,3778.61)">
                    <path d="M0,5.076L-0.997,0L-12.281,0L-13.279,5.076L0,5.076Z" style="fill:rgb(221,221,221);fill-rule:nonzero;"/>
                </g>
                <g transform="matrix(1,0,0,1,1086.49,3774.8)">
                    <path d="M0,3.807L-2.82,0L-8.464,0L-11.283,3.807L0,3.807Z" style="fill:rgb(221,221,221);fill-rule:nonzero;"/>
                </g>
                <g transform="matrix(1,0,0,1,1034.97,3863.25)">
                    <path d="M0,-28.176L-11.594,-37.041L-16.839,-30.199L-14.192,-28.176L34.245,8.865L34.312,-1.936L0,-28.176Z" style="fill:rgb(221,221,221);fill-rule:nonzero;"/>
                </g>
                <g transform="matrix(1,0,0,1,1139.48,3872.44)">
                    <path d="M0,-46.233L-11.59,-37.368L-46.336,-10.796L-46.266,0L2.601,-37.368L5.249,-39.391L0,-46.233Z" style="fill:rgb(221,221,221);fill-rule:nonzero;"/>
                </g>
            </g>
        </g>
    </g>
</svg>
