<?xml version="1.0" encoding="UTF-8" standalone="no"?>
<!DOCTYPE svg PUBLIC "-//W3C//DTD SVG 1.1//EN" "http://www.w3.org/Graphics/SVG/1.1/DTD/svg11.dtd">
<svg width="100%" height="100%" viewBox="0 0 120 120" version="1.1" xmlns="http://www.w3.org/2000/svg" xmlns:xlink="http://www.w3.org/1999/xlink" xml:space="preserve" xmlns:serif="http://www.serif.com/" style="fill-rule:evenodd;clip-rule:evenodd;stroke-linejoin:round;stroke-miterlimit:2;">
    <g transform="matrix(1,-5.47382e-48,5.47382e-48,1,-563.836,-828.06)">
        <g id="planter-box">
            <g id="flowers">
                <g>
                    <g opacity="0.7">
                        <g transform="matrix(1,0,0,1,589.79,860.271)">
                            <path d="M0,0.193L0.02,0.178L0.549,-0.019L-0.04,0.178L-0.016,0.212L0,0.193Z" style="fill:rgb(68,114,37);fill-rule:nonzero;"/>
                        </g>
                    </g>
                    <g opacity="0.7">
                        <g transform="matrix(1,0,0,1,673.813,880.855)">
                            <path d="M0,-0.117L0.03,0L0.298,-0.092L0,-0.117Z" style="fill:rgb(68,114,37);fill-rule:nonzero;"/>
                        </g>
                    </g>
                    <g opacity="0.7">
                        <g transform="matrix(1,0,0,1,673.26,880.705)">
                            <path d="M0,-0.038L-0.886,-0.058L0.422,0.02L0,-0.038Z" style="fill:rgb(68,114,37);fill-rule:nonzero;"/>
                        </g>
                    </g>
                    <g opacity="0.7">
                        <g transform="matrix(1,0,0,1,672.45,880.647)">
                            <path d="M0,-0.139L-0.076,0L0.399,-0.054L0,-0.139Z" style="fill:rgb(68,114,37);fill-rule:nonzero;"/>
                        </g>
                    </g>
                    <g opacity="0.7">
                        <g transform="matrix(1,0,0,1,669.238,879.667)">
                            <path d="M0,0.154L-0.009,0.135L-0.968,0L0,0.154Z" style="fill:rgb(68,114,37);fill-rule:nonzero;"/>
                        </g>
                    </g>
                    <g opacity="0.7">
                        <g transform="matrix(1,0,0,1,670.732,879.947)">
                            <path d="M0,0.133L-1.464,-0.062L0.029,0.195L0,0.133Z" style="fill:rgb(68,114,37);fill-rule:nonzero;"/>
                        </g>
                    </g>
                    <g opacity="0.7">
                        <g transform="matrix(-0.980903,-0.194495,-0.194495,0.980903,666.325,878.985)">
                            <path d="M-3.062,0.309L-1.52,0.309L0.03,0.301L-1.542,0.341L-3.062,0.309Z" style="fill:rgb(68,114,37);fill-rule:nonzero;"/>
                        </g>
                    </g>
                    <g opacity="0.7">
                        <g transform="matrix(1,0,0,1,674.981,880.813)">
                            <path d="M0,-0.048L-0.01,-0.048L-0.074,-0.029L-0.227,0.014L0.019,0.006L0.19,-0.048L0.183,-0.062L0,-0.048Z" style="fill:rgb(68,114,37);fill-rule:nonzero;"/>
                        </g>
                    </g>
                    <g opacity="0.7">
                        <g transform="matrix(1,0,0,1,660.604,878.926)">
                            <path d="M0,0.029L-0.029,-0.031L-0.292,0.06L0,0.029Z" style="fill:rgb(68,114,37);fill-rule:nonzero;"/>
                        </g>
                    </g>
                    <g opacity="0.7">
                        <g transform="matrix(1,0,0,1,650.666,869.862)">
                            <path d="M0,-0.215L-0.221,-0.007L0.096,0L0,-0.215Z" style="fill:rgb(68,114,37);fill-rule:nonzero;"/>
                        </g>
                    </g>
                    <g opacity="0.7">
                        <g transform="matrix(1,0,0,1,646.229,885.711)">
                            <path d="M0,-0.33L-0.244,0.841L-0.333,1.235L0.35,1.235L0.406,0.83L0.561,-0.345L0.245,-1.565L0,-0.33Z" style="fill:rgb(68,114,37);fill-rule:nonzero;"/>
                        </g>
                    </g>
                    <g opacity="0.7">
                        <g transform="matrix(-0.95341,0.301676,0.301676,0.95341,675.016,862.818)">
                            <path d="M0.132,-0.101L0.484,-0.101L0.473,0.072L-0.385,-0.134L0.132,-0.101Z" style="fill:rgb(68,114,37);fill-rule:nonzero;"/>
                        </g>
                    </g>
                    <g opacity="0.7">
                        <g transform="matrix(1,0,0,1,675.727,863.039)">
                            <path d="M0,-0.542L-1.011,0L-0.504,-0.253L0,-0.542Z" style="fill:rgb(68,114,37);fill-rule:nonzero;"/>
                        </g>
                    </g>
                    <g opacity="0.7">
                        <g transform="matrix(1,0,0,1,666.885,865.525)">
                            <path d="M0,-0.123L-0.371,-0.054L-0.339,0L0,-0.123Z" style="fill:rgb(68,114,37);fill-rule:nonzero;"/>
                        </g>
                    </g>
                    <g opacity="0.7">
                        <g transform="matrix(0.968614,-0.248568,-0.248568,-0.968614,670.434,864.374)">
                            <path d="M0.001,-0.009L0.624,-0.009L-0.689,0.019L-0.681,-0.008L0.001,-0.009Z" style="fill:rgb(68,114,37);fill-rule:nonzero;"/>
                        </g>
                    </g>
                    <g opacity="0.7">
                        <g transform="matrix(0.914969,-0.403525,-0.403525,-0.914969,676.094,862.316)">
                            <path d="M-0.035,0.083L0.178,0.083L0.394,0.167L0.282,0.148L-0.035,0.083Z" style="fill:rgb(68,114,37);fill-rule:nonzero;"/>
                        </g>
                    </g>
                    <g opacity="0.7">
                        <g transform="matrix(1,0,0,1,673.479,871.112)">
                            <path d="M0,-7.845L0.065,-7.874L0.003,-7.841L-0.078,-7.811L0,-7.845ZM-4.842,-6.378L-4.889,-6.365L-4.857,-6.403L-4.842,-6.378ZM-12.796,-2.643L-12.359,-3.012L-12.212,-3.113L-12.354,-3.005L-12.488,-2.895L-12.796,-2.643ZM-15.282,-0.432L-15.265,-0.448L-15.257,-0.455L-15.169,-0.538L-15.117,-0.585L-15.273,-0.418L-15.282,-0.432ZM-17.387,2.415L-17.348,2.378L-17.322,2.354L-17.289,2.328L-17.343,2.384L-17.38,2.426L-17.452,2.509L-17.47,2.494L-17.475,2.49L-17.404,2.386L-17.387,2.415ZM-16.384,3.984L-16.407,3.978L-16.411,3.906L-16.384,3.984ZM-16.373,4.701L-16.232,4.74L-16.23,4.755L-16.373,4.701ZM-16.755,6.671L-16.75,6.663L-16.735,6.635L-16.734,6.676L-16.755,6.671ZM-18.369,8.361L-18.333,8.335L-18.286,8.3L-18.285,8.376L-18.369,8.361ZM-16.264,9.049L-16.209,9.163L-16.36,9.139L-16.416,9.13L-16.264,9.049ZM-1.049,9.653L-2.44,9.514L-2.455,9.51L-2.491,9.501L-2.531,9.417L-1.049,9.653ZM-2.916,9.392L-2.551,9.487L-3.791,9.351L-2.916,9.392ZM-11.878,9.626L-12.183,9.701L-11.881,9.62L-11.876,9.619L-11.752,9.599L-11.86,9.622L-11.878,9.626ZM-10.557,10.246L-10.547,10.287L-10.547,10.291L-10.543,10.308L-10.583,10.397L-10.625,10.447L-10.595,10.462L-10.639,10.464L-10.672,10.504L-10.677,10.511L-10.791,10.603L-10.829,10.634L-10.868,10.657L-11.015,10.745L-11.036,10.758L-11.048,10.763L-11.073,10.774L-11.222,10.844L-11.3,10.884L-11.359,10.907L-11.266,10.955L-11.424,10.933L-11.556,10.986L-11.617,11.01L-11.651,11.021L-11.633,11.005L-11.459,10.896L-11.408,10.86L-11.35,10.82L-11.347,10.817L-11.279,10.771L-11.233,10.737L-11.2,10.712L-11.193,10.706L-11.125,10.655L-11.09,10.624L-11.044,10.586L-10.997,10.548L-10.923,10.477L-10.917,10.471L-10.896,10.451L-10.885,10.438L-10.844,10.391L-11.038,10.321L-10.931,10.327L-10.8,10.335L-10.771,10.298L-10.763,10.28L-10.748,10.244L-10.748,10.239L-10.751,10.215L-10.751,10.206L-11.835,10.045L-10.722,10.204L-10.715,10.204L-10.627,10.212L-10.608,10.218L-10.59,10.228L-10.557,10.246ZM-10.219,10.468L-10.241,10.467L-10.288,10.452L-10.27,10.451L-10.219,10.468ZM-11.332,11.095L-11.345,11.09L-11.312,11.09L-11.332,11.095ZM-12.998,11.691L-13.011,11.697L-14.547,11.84L-13.731,12.072L-13.742,12.077L-13.592,12.15L-13.786,12.096L-13.742,12.077L-13.75,12.074L-13.756,12.075L-14.547,11.84L-12.998,11.691L-13.072,11.663L-12.896,11.64L-12.998,11.691ZM-12.646,11.914L-12.602,11.894L-12.61,11.891L-12.616,11.891L-13.102,11.744L-12.591,11.889L-12.602,11.894L-12.452,11.967L-12.646,11.914ZM-8.156,13.618L-8.349,13.626L-8.198,13.6L-8.156,13.618ZM-7.482,13.601L-7.723,13.609L-7.755,13.601L-7.482,13.601ZM-7.43,14.589L-7.435,14.56L-7.415,14.579L-7.43,14.589ZM-8.103,16.479L-8.112,16.486L-9.561,16.388L-8.103,16.479L-8.149,16.444L-8.111,16.426L-7.955,16.35L-8.063,16.445L-8.073,16.453L-8.103,16.479ZM-18.467,13.952L-18.606,13.932L-18.911,13.887L-18.6,13.926L-18.449,13.944L-18.233,13.97L-18.449,13.953L-18.467,13.952ZM-20.745,13.31L-20.728,13.308L-20.708,13.322L-20.662,13.353L-20.719,13.324L-20.745,13.31ZM-20.442,13.054L-21.52,12.866L-21.478,12.881L-21.625,12.884L-21.582,12.842L-21.559,12.853L-20.442,13.054L-20.401,13.058L-20.441,13.103L-20.472,13.1L-20.442,13.054ZM-23.396,15.066L-23.413,15.067L-23.348,15.005L-23.396,15.066ZM-22.622,13.467L-22.578,13.363L-22.534,13.258L-22.287,13.286L-22.413,13.427L-22.128,13.304L-22.112,13.306L-22.071,13.288L-22.095,13.308L-22.109,13.323L-22.38,13.578L-22.871,14.071L-22.632,13.49L-22.627,13.479L-22.622,13.467ZM-23.064,13.439L-23.127,13.464L-23.211,13.493L-23.498,13.586L-23.207,13.482L-22.935,13.38L-22.918,13.374L-22.704,13.295L-22.925,13.384L-22.974,13.447L-23.064,13.439ZM-22.61,11.693L-22.634,11.699L-22.899,11.655L-22.61,11.693ZM-24.663,12.207L-24.811,12.257L-24.016,11.946L-24.663,12.207ZM-31.937,12.691L-31.95,12.616L-31.919,12.692L-31.937,12.691ZM-32.328,13.354L-32.341,13.303L-32.136,13.405L-32.328,13.354ZM-35.773,13.187L-35.789,13.189L-35.725,13.263L-35.891,13.199L-36.065,13.215L-36.093,13.12L-36.875,13.259L-35.888,13.072L-35.773,13.187ZM-35.297,13.672L-35.287,13.675L-35.134,13.828L-35.297,13.672ZM-36.556,14.104L-36.425,14.065L-36.393,14.056L-36.416,14.068L-36.556,14.104ZM-36.931,14.386L-37.009,14.345L-37.048,14.323L-37.116,14.287L-37.168,14.26L-37.176,14.255L-37.187,14.25L-37.234,14.224L-37.113,14.245L-37.076,14.281L-37.007,14.271L-36.994,14.269L-36.819,14.447L-36.931,14.386ZM-43.125,15.48L-43.099,15.47L-43.082,15.464L-43.103,15.48L-43.125,15.48ZM-46.365,15.37L-46.909,15.705L-46.729,15.586L-46.365,15.37L-46.335,15.297L-46.292,15.192L-46.107,15.216L-46.216,15.281L-46.299,15.331L-46.365,15.37ZM-50.227,15.291L-50.244,15.339L-50.261,15.333L-50.241,15.28L-50.165,15.085L-50.169,15.084L-50.101,14.954L-49.992,14.73L-50.155,15.093L-50.227,15.291ZM-50.643,15.233L-50.65,15.234L-50.592,15.073L-50.643,15.233ZM-54.447,15.311L-54.453,15.31L-54.422,15.115L-54.447,15.311ZM-76.534,14.83L-78.326,11.606L-76.573,14.731L-76.453,14.945L-76.534,14.83ZM-79.594,10.453L-79.691,10.577L-79.865,10.42L-79.719,10.34L-79.657,10.306L-79.592,10.365L-79.594,10.453ZM-90.476,9.66L-90.485,9.653L-90.348,9.613L-90.019,9.516L-90.476,9.66ZM-94.182,6.35L-94.134,6.328L-97.823,8.905L-94.182,6.35ZM-92.535,3.946L-90.224,3.824L-90.241,3.831L-90.285,3.847L-92.484,3.948L-92.516,3.949L-92.536,3.955L-92.535,3.946ZM-86.255,2.39L-86.217,2.37L-85.887,2.27L-86.041,2.325L-86.255,2.39ZM-85.922,1.777L-85.954,1.779L-86.03,1.784L-86.031,1.743L-85.922,1.777ZM-87.535,-0.529L-86.31,-0.526L-86.41,-0.452L-86.875,-0.449L-87.502,-0.443L-87.714,-0.442L-87.535,-0.529ZM-84.469,-5.596L-84.494,-5.591L-84.584,-5.57L-84.581,-5.615L-84.469,-5.596ZM-83.455,-6.068L-84.178,-5.89L-84.203,-5.893L-83.455,-6.068ZM-83.178,-5.774L-83.282,-5.751L-83.383,-5.767L-83.443,-5.776L-83.5,-5.785L-83.442,-5.798L-83.33,-5.779L-83.26,-5.794L-80.905,-5.384L-83.178,-5.774ZM-79.482,-5.147L-79.438,-5.136L-79.468,-5.137L-79.489,-5.14L-79.667,-5.171L-80.742,-5.355L-80.142,-5.26L-79.685,-5.182L-79.482,-5.147ZM-88.323,-13.193L-88.324,-13.152L-88.43,-13.174L-88.323,-13.193ZM-83.103,-12.219L-83.3,-12.347L-83.313,-12.356L-83.523,-12.492L-83.325,-12.449L-83.13,-12.314L-83.126,-12.312L-83.103,-12.219ZM-86.721,-13.234L-87.185,-13.334L-87.29,-13.358L-87.183,-13.376L-86.721,-13.234ZM-87.331,-13.331L-86.973,-13.253L-87.32,-13.316L-87.494,-13.347L-87.443,-13.356L-87.331,-13.331ZM-76.569,-12.289L-77.165,-12.3L-77.275,-12.366L-76.538,-12.31L-76.569,-12.289ZM-77.046,-13.882L-76.834,-13.783L-76.863,-13.776L-76.959,-13.754L-77.046,-13.882ZM-75.906,-14.065L-75.694,-13.966L-75.723,-13.959L-75.819,-13.937L-75.906,-14.065L-76.701,-13.839L-76.721,-13.848L-75.906,-14.065ZM-74.244,-17.107L-75.827,-19.057L-77.496,-21.357L-74.043,-17.204L-74.449,-17.562L-74.486,-17.564L-74.521,-17.552L-74.543,-17.542L-74.555,-17.536L-74.088,-17.025L-74.165,-16.972L-74.244,-17.107ZM-64.724,-9.34L-64.733,-9.34L-64.642,-9.723L-64.724,-9.34ZM-64.435,-9.327L-64.441,-9.328L-64.357,-9.528L-64.435,-9.327ZM-64.001,-9.288L-63.866,-9.279L-64.011,-9.274L-64.178,-9.268L-64.163,-9.292L-64.17,-9.3L-64.15,-9.299L-64.001,-9.288ZM-53.594,-12.553L-53.56,-12.532L-53.431,-12.456L-51.874,-11.446L-51.844,-11.641L-51.82,-11.63L-51.751,-11.599L-51.627,-11.544L-51.657,-11.532L-51.874,-11.446L-53.564,-12.531L-53.725,-12.466L-53.594,-12.553ZM-52.349,-12.666L-52.353,-12.66L-52.447,-12.56L-52.452,-12.554L-52.487,-12.516L-52.491,-12.512L-52.651,-12.339L-52.546,-12.551L-52.564,-12.567L-52.636,-12.614L-52.645,-12.625L-52.586,-12.649L-53.048,-13.031L-53.045,-13.036L-52.586,-12.649L-52.454,-12.736L-52.42,-12.716L-52.344,-12.671L-52.349,-12.666ZM-51.425,-12.072L-51.423,-12.075L-51.279,-11.982L-51.425,-12.072ZM-49.133,-10.508L-49.101,-10.521L-49.117,-10.5L-49.156,-10.452L-49.18,-10.462L-49.207,-10.478L-49.211,-10.476L-49.296,-10.517L-49.351,-10.544L-49.524,-10.624L-49.609,-10.59L-49.865,-10.78L-50.278,-10.962L-50.36,-10.998L-50.834,-11.199L-50.973,-11.259L-51.092,-11.31L-51.11,-11.318L-50.978,-11.505L-50.962,-11.495L-50.928,-11.477L-50.879,-11.447L-50.855,-11.43L-50.642,-11.303L-49.211,-10.476L-50.992,-11.526L-51.004,-11.521L-51.133,-11.603L-51.15,-11.614L-51.162,-11.621L-51.386,-11.764L-50.992,-11.526L-51.553,-11.888L-51.548,-11.894L-50.992,-11.526L-50.897,-11.563L-49.133,-10.508ZM-41.846,-15.232L-41.883,-15.127L-42.008,-15.129L-42.033,-15.129L-41.846,-15.232ZM-36.101,-3.256L-36.136,-3.243L-36.186,-3.358L-36.101,-3.256ZM-19.543,3.845L-19.538,3.839L-19.523,3.819L-19.521,3.85L-19.543,3.845ZM-10.039,8.043L-10.285,8.012L-10.074,7.97L-10.039,8.043ZM-5.326,8.883L-5.289,8.891L-5.38,8.892L-4.836,8.961L-4.679,8.989L-5.38,8.892L-5.389,8.873L-5.542,8.852L-5.553,8.829L-5.326,8.883ZM-14.769,9.309L-14.721,9.41L-14.845,9.385L-14.92,9.37L-14.769,9.309ZM-12.521,11.291L-12.472,11.278L-12.484,11.274L-12.451,11.273L-12.39,11.272L-12.288,11.27L-12.112,11.268L-12.155,11.29L-12.231,11.29L-12.349,11.291L-12.521,11.291ZM-14.359,12.159L-14.35,12.171L-14.409,12.162L-14.524,12.145L-14.381,12.132L-14.359,12.159ZM-14.433,12.234L-14.443,12.232L-14.5,12.216L-14.505,12.214L-14.547,12.203L-14.332,12.206L-14.329,12.209L-14.28,12.207L-14.263,12.213L-14.22,12.217L-14.302,12.226L-14.189,12.301L-14.433,12.234ZM-13.407,12.02L-13.192,12.023L-13.189,12.026L-13.141,12.024L-13.123,12.03L-13.08,12.034L-13.162,12.043L-13.049,12.118L-13.055,12.121L-13.31,12.052L-13.382,12.032L-13.431,12.02L-13.407,12.02ZM-7.949,15.388L-7.412,15.412L-7.414,15.427L-7.949,15.388ZM-14.241,13.967L-14.151,13.963L-14.21,14.006L-14.241,13.967ZM-22.29,12.345L-22.212,12.433L-22.443,12.458L-22.29,12.345ZM-22.821,11.819L-22.722,11.918L-22.699,11.942L-22.663,11.978L-22.531,11.905L-22.517,11.98L-22.513,11.987L-22.511,11.992L-22.507,11.999L-22.495,12.023L-22.592,12.023L-22.661,12.024L-22.682,12.029L-22.744,12.047L-22.784,12.058L-22.79,12.06L-23.121,12.153L-23.007,11.899L-22.821,11.819ZM-21.959,11.784L-22.252,11.748L-22.24,11.741L-21.959,11.784ZM-29.307,10.44L-29.347,10.48L-29.511,10.646L-29.573,10.69L-29.236,10.359L-29.307,10.44ZM-33.077,12.873L-33.09,12.8L-33.06,12.875L-33.077,12.873ZM-32.926,13.191L-32.91,13.23L-32.875,13.313L-33.046,13.159L-32.926,13.191ZM-48.098,13.725L-48.082,13.684L-48.071,13.644L-48.057,13.62L-48.041,13.581L-47.963,13.445L-47.939,13.414L-47.894,13.356L-47.864,13.32L-47.831,13.286L-47.861,13.342L-47.867,13.352L-47.914,13.435L-47.985,13.565L-48.044,13.671L-48.052,13.685L-48.074,13.724L-48.117,13.801L-48.098,13.725ZM-47.625,9.613L-47.567,9.545L-47.422,9.49L-47.471,9.566L-47.485,9.596L-47.534,9.666L-47.625,9.613ZM-70.923,14.553L-71.257,13.565L-70.942,14.461L-70.923,14.553ZM-73.855,10.07L-73.926,9.954L-73.945,9.922L-73.999,9.833L-74.109,9.651L-74.195,9.509L-74.294,9.345L-74.149,9.231L-74.062,9.368L-73.951,9.541L-73.851,9.699L-73.775,9.818L-73.767,9.831L-73.72,9.905L-73.693,9.975L-73.846,10.093L-73.855,10.07ZM-80.526,9.486L-80.298,9.566L-80.361,9.634L-80.526,9.486ZM-89.904,6.854L-89.985,6.873L-90.169,6.914L-90.149,6.85L-89.904,6.854ZM-94.18,6.643L-94.468,6.846L-92.934,6.116L-90.081,5.122L-86.87,4.952L-84.256,5.692L-84.935,6.242L-88.996,6.245L-89.701,6.428L-90.136,6.428L-94.95,7.676L-97.697,8.851L-94.18,6.643ZM-81.455,-0.556L-81.079,-0.452L-81.071,-0.45L-80.984,-0.426L-80.292,-0.234L-80.174,-0.202L-79.841,-0.103L-81.24,-0.49L-81.455,-0.556ZM-84.331,0.13L-84.095,0.139L-84.179,0.13L-84.201,0.128L-84.563,-0.068L-84.204,0.117L-83.964,0.13L-84.037,0.154L-84.047,0.164L-84.116,0.232L-84.122,0.238L-84.331,0.13ZM-85.141,-0.636L-85.27,-0.635L-85.379,-0.635L-85.096,-0.764L-84.606,-0.989L-85.141,-0.636ZM-84.186,-0.644L-84.626,-0.64L-83.722,-1.054L-82.853,-0.21L-83.16,-0.116L-83.17,-0.113L-84.186,-0.644ZM-83.307,-0.078L-83.999,-0.52L-83.193,-0.106L-83.284,-0.078L-83.307,-0.078ZM-83.727,-0.073L-84.641,-0.108L-84.655,-0.116L-83.727,-0.073ZM-80.578,-4.952L-80.608,-4.954L-80.629,-4.957L-80.825,-4.998L-80.621,-4.964L-80.578,-4.952ZM-75.676,-12.273L-75.73,-12.274L-75.699,-12.286L-75.688,-12.291L-75.697,-12.285L-75.676,-12.273ZM-74.434,-12.26L-74.603,-12.474L-74.59,-12.468L-74.434,-12.26ZM-74.861,-13.359L-75.877,-13.762L-75.719,-13.789L-74.861,-13.359ZM-66.078,-9.097L-66.08,-9.077L-66.083,-9.041L-66.112,-9.083L-66.084,-9.095L-66.078,-9.097ZM-65.991,-7.794L-65.968,-7.793L-66.022,-7.764L-66.027,-7.782L-65.991,-7.794ZM-64.461,-9.258L-64.471,-9.258L-64.49,-9.257L-64.457,-9.291L-64.443,-9.304L-64.461,-9.258ZM-45.76,-8.607L-45.867,-8.564L-47.812,-9.548L-45.76,-8.607ZM-48.281,-10.018L-47.602,-9.632L-47.731,-9.727L-47.674,-9.696L-47.576,-9.642L-47.517,-9.61L-47.272,-9.491L-46.55,-9.076L-47.602,-9.632L-48.484,-10.121L-48.318,-10.037L-48.281,-10.018ZM-26.197,0.069L-25.553,0.124L-26.143,0.081L-26.197,0.069ZM-26.433,0.055L-26.414,0.051L-26.399,0.051L-26.414,0.053L-26.413,0.06L-26.433,0.055ZM-21.569,0.723L-21.573,0.693L-21.992,0.691L-22.482,0.689L-21.992,0.686L-21.595,0.686L-21.573,0.693L-21.471,0.724L-21.569,0.723ZM-20.052,1.127L-19.594,1.072L-19.6,1.084L-20.052,1.127ZM-19.85,1.426L-19.897,1.188L-19.689,1.27L-19.742,1.383L-19.765,1.43L-19.822,1.55L-19.85,1.426ZM-21.148,4.585L-21.091,4.443L-21.136,4.604L-21.148,4.585ZM-20.786,4.949L-20.812,4.974L-20.776,5.202L-20.651,5.235L-20.731,5.278L-20.777,5.305L-20.814,5.295L-20.862,5.284L-21.001,5.171L-21.019,5.189L-21.032,5.2L-20.922,4.961L-20.786,4.949ZM-19.711,3.772L-19.721,3.783L-19.825,3.611L-19.593,3.655L-19.674,3.736L-19.711,3.772ZM-46.063,14.637L-46.037,14.573L-45.862,14.6L-45.949,14.646L-46.1,14.726L-46.063,14.637ZM-64.439,5.525L-64.428,5.509L-64.423,5.501L-64.415,5.514L-64.439,5.525ZM-66.629,8.914L-66.622,8.904L-66.619,8.899L-66.475,9.116L-66.629,8.914ZM-78.023,7.909L-78.009,7.93L-78.132,8.011L-78.023,7.909ZM-79.651,7.822L-79.908,7.643L-79.649,7.816L-79.007,8.585L-79.012,8.588L-79.651,7.822ZM-79.792,8.671L-79.746,8.721L-79.781,8.709L-79.794,8.705L-79.833,8.692L-79.814,8.679L-79.792,8.671ZM-89.31,6.428L-89.33,6.428L-88.953,6.338L-89.31,6.428ZM-84.14,3.411L-84.166,3.412L-84.23,3.415L-84.237,3.379L-84.14,3.411ZM-84.531,1.577L-84.576,1.621L-84.579,1.625L-84.666,1.709L-84.809,1.667L-84.736,1.63L-84.644,1.585L-84.429,1.477L-84.531,1.577ZM-79.57,-0.252L-79.521,-0.202L-79.457,-0.139L-79.407,-0.089L-79.638,-0.104L-79.733,-0.299L-79.57,-0.252ZM-80.315,-0.739L-80.404,-0.764L-80.58,-0.936L-80.438,-0.872L-80.315,-0.739L-79.955,-0.638L-79.947,-0.631L-79.92,-0.603L-80.1,-0.673L-80.315,-0.739ZM-87.629,-4.655L-87.802,-4.654L-87.623,-4.689L-87.629,-4.655ZM-76.093,-1.466L-76.52,-1.622L-77.389,-2.942L-76.747,-2.466L-76.093,-1.466ZM-66.55,-9.642L-66.553,-9.649L-66.513,-9.65L-66.55,-9.642ZM-66.867,8.232L-66.947,8.183L-66.886,8.138L-66.867,8.232ZM-75.429,7.469L-75.473,7.396L-75.449,7.392L-75.33,7.375L-75.277,7.457L-75.237,7.52L-75.227,7.537L-75.274,7.526L-75.414,7.493L-75.429,7.469ZM-78.26,7.579L-78.25,7.593L-78.173,7.7L-78.322,7.65L-78.26,7.579ZM-82.71,7.65L-82.744,7.637L-82.705,7.634L-82.649,7.628L-82.71,7.65ZM-81.57,7.467L-81.605,7.454L-81.565,7.45L-81.509,7.445L-81.57,7.467ZM-81.237,7.741L-81.26,7.736L-81.36,7.71L-81.331,7.656L-81.237,7.741ZM-81.94,7.329L-81.992,7.31L-81.901,7.304L-81.94,7.329ZM-84.286,6.458L-83.405,5.932L-83.297,5.963L-83.234,5.981L-81.419,7.218L-81.49,7.199L-82.172,7.244L-84.286,6.458L-84.731,6.293L-83.792,5.823L-83.579,5.883L-84.286,6.458ZM-83.08,7.512L-83.132,7.493L-83.04,7.488L-83.08,7.512ZM-83.243,3.276L-83.517,3.296L-83.22,3.393L-83.251,3.391L-83.517,3.296L-83.547,3.286L-83.243,3.276ZM-82.744,3.477L-82.914,3.421L-82.942,3.412L-82.995,3.408L-82.839,3.404L-82.817,3.414L-82.714,3.458L-82.744,3.477ZM-81.98,-1.558L-81.928,-1.534L-82.154,-1.5L-82.196,-1.541L-81.98,-1.558ZM-82.364,-1.728L-82.384,-1.725L-82.408,-1.748L-82.364,-1.728ZM-77.75,-2.074L-78.918,-2.502L-81.504,-2.161L-81.489,-2.146L-80.72,-2.231L-81.474,-2.132L-81.58,-2.118L-82.606,-3.236L-86.107,-4.841L-86.662,-4.837L-84.49,-5.269L-81.011,-4.603L-77.887,-2.283L-77.75,-2.074ZM-78.636,-10.882L-80.147,-10.294L-80.157,-10.301L-78.636,-10.882ZM-78.252,-10.979L-78.365,-10.981L-78.388,-10.982L-78.359,-10.993L-78.252,-10.979ZM-74.241,-9.841L-74.231,-9.826L-76.871,-9.78L-77.07,-9.724L-77.192,-9.611L-77.293,-9.609L-78.011,-9.596L-78.141,-9.56L-78.743,-10.305L-78.889,-10.4L-77.96,-10.719L-75.349,-10.579L-75.626,-10.764L-74.288,-9.914L-74.241,-9.841ZM-65.774,-7.895L-65.908,-7.824L-65.8,-7.934L-65.774,-7.895ZM-80.356,0.44L-80.369,0.421L-80.346,0.428L-80.356,0.44ZM-78.201,1.121L-77.575,1.673L-77.648,1.676L-76.517,3.459L-76.503,3.479L-76.698,3.418L-77.087,3.516L-77.094,3.505L-78.788,0.914L-78.245,1.083L-78.201,1.121ZM-78.657,-0.197L-78.26,0.195L-78.277,0.19L-78.657,-0.197ZM-80.005,-2.3L-80.028,-2.308L-79.297,-2.389L-80.005,-2.3ZM-78.769,-9.238L-79.05,-9.092L-79.053,-9.094L-78.769,-9.238ZM-79.046,-9.32L-79.175,-9.245L-79.24,-9.325L-79.046,-9.32ZM-79.69,-9.94L-79.777,-9.991L-79.793,-10.012L-79.69,-9.94ZM-74.594,-9.394L-74.711,-9.47L-74.736,-9.486L-74.536,-9.466L-74.594,-9.394ZM-78.294,-9.323L-78.432,-9.327L-78.456,-9.327L-78.422,-9.345L-78.294,-9.323ZM-75.392,-6.154L-77.734,-9.055L-76.585,-8.98L-74.799,-7.586L-72.893,-4.305L-71.502,-0.16L-71.453,-0.013L-71.613,-0.083L-71.732,-0.089L-71.709,-0.096L-72.643,-0.582L-75.392,-6.154ZM-73.979,-7.458L-74.312,-7.607L-76.534,-9.279L-76.218,-9.128L-75.949,-8.939L-73.712,-7.271L-73.979,-7.458ZM-73.473,0.577L-73.489,0.524L-73.298,0.422L-73.473,0.577ZM-71.033,4.607L-71.038,4.593L-70.989,4.606L-70.981,4.629L-71.033,4.607ZM-74.536,1.576L-74.548,1.559L-74.66,1.389L-74.762,1.234L-74.713,1.2L-74.678,1.176L-74.671,1.171L-74.669,1.17L-74.58,1.109L-74.548,1.211L-74.484,1.413L-74.47,1.457L-74.453,1.509L-74.433,1.572L-74.465,1.518L-74.49,1.474L-74.511,1.439L-74.601,1.293L-74.614,1.351L-73.864,3.397L-74.536,1.576ZM-70.798,5.373L-70.713,5.356L-70.665,5.525L-70.798,5.373ZM-78.144,3.668L-77.891,3.615L-78.227,3.699L-78.234,3.688L-78.144,3.668ZM-75.4,5.286L-75.519,5.252L-75.587,5.263L-75.618,5.269L-75.548,5.243L-75.456,5.24L-75.446,5.239L-75.396,5.245L-75.373,5.293L-75.363,5.316L-75.4,5.286ZM-71.936,-12.707L-71.956,-12.702L-71.962,-12.711L-71.936,-12.707ZM-72.179,-13.117L-72.122,-13.032L-72.086,-12.978L-72.128,-12.985L-72.162,-13.041L-72.212,-13.122L-72.179,-13.117ZM-78.904,-10.23L-79.276,-10.475L-79.262,-10.48L-78.904,-10.23ZM-81.364,1.417L-81.491,1.23L-81.723,0.889L-81.723,0.874L-81.564,1.109L-81.248,1.575L-81.26,1.569L-81.364,1.417ZM-82.489,2.337L-82.567,2.401L-82.651,2.337L-82.657,2.332L-82.489,2.337ZM-83.67,1.484L-83.522,1.41L-83.045,1.669L-83.67,1.484ZM-82.09,2.254L-81.911,2.309L-81.884,2.339L-82.09,2.254ZM-87.2,4.458L-87.178,4.464L-90.463,4.691L-90.433,4.682L-87.2,4.458ZM-84.078,3.852L-84.172,3.829L-84.147,3.829L-84.078,3.852ZM-82.784,4.921L-82.8,4.965L-82.929,4.881L-82.784,4.921ZM-83.074,4.553L-83.064,4.556L-83.06,4.543L-83.058,4.529L-82.863,4.653L-82.899,4.662L-83.023,4.69L-83.113,4.762L-83.184,4.717L-83.074,4.553ZM-75.914,6.668L-75.997,6.531L-75.829,6.674L-75.914,6.668ZM-70.816,-12.885L-70.822,-12.894L-70.796,-12.889L-70.816,-12.885ZM-76.004,-11.902L-75.982,-11.901L-75.961,-11.888L-75.991,-11.876L-76.021,-11.893L-76.04,-11.904L-76.004,-11.902ZM-75.141,-12.228L-74.807,-12.367L-74.383,-11.784L-75.141,-12.228ZM-78.856,-10.971L-80.262,-10.369L-80.272,-10.375L-78.856,-10.971ZM-55.42,-9.122L-54.173,-7.794L-54.19,-7.805L-54.212,-7.82L-55.42,-9.122ZM-41.482,-8.878L-41.288,-8.978L-41.245,-8.979L-41.482,-8.878ZM-35.864,-2.028L-35.713,-2.08L-35.861,-2.023L-35.864,-2.028ZM-27.95,0.309L-28.141,0.288L-27.954,0.275L-27.95,0.309ZM-21.378,5.418L-21.385,5.313L-21.351,5.421L-21.378,5.418ZM-26.923,9.152L-26.82,8.609L-26.461,8.338L-26.36,8.41L-26.283,8.465L-26.254,8.486L-26.254,8.495L-26.283,8.473L-26.36,8.41L-26.443,8.996L-26.558,9.822L-26.887,9.926L-27.083,9.997L-26.923,9.152ZM-27.555,8.985L-27.548,8.935L-27.534,8.833L-27.52,8.733L-27.514,8.691L-27.496,8.569L-27.487,8.503L-27.472,8.395L-27.455,8.274L-27.462,8.259L-27.475,8.234L-27.535,8.154L-27.609,8.062L-27.446,8.212L-27.441,8.3L-27.393,8.398L-27.393,8.66L-27.394,8.712L-27.394,8.842L-27.402,9.051L-27.395,9.101L-27.398,9.109L-27.395,9.123L-27.397,9.131L-27.395,9.17L-27.583,9.179L-27.555,8.985ZM-33.843,6.815L-33.696,6.802L-33.667,6.801L-33.626,6.854L-33.843,6.815ZM-33.747,11.188L-34.682,10.187L-34.693,10.175L-34.757,10.106L-34.509,10.101L-34.34,10.02L-34.328,10.014L-34.259,9.967L-34.198,10.106L-34.09,10.357L-33.747,11.188ZM-33.469,11.865L-33.461,11.883L-34.317,11.545L-35.232,11.331L-36.078,11.093L-37.018,11.019L-37.891,10.93L-38.855,10.993L-39.882,11.138L-39.901,11.115L-40.193,10.774L-40.283,10.668L-40.162,10.695L-39.537,10.654L-39.494,10.796L-38.906,10.851L-38.273,10.866L-37.927,10.846L-37.65,10.834L-37.049,10.752L-36.643,10.657L-36.511,10.651L-35.909,10.569L-35.345,10.437L-35.392,10.257L-35.48,10.203L-35.468,10.197L-35.398,10.151L-33.714,11.268L-33.71,11.276L-33.706,11.285L-33.573,11.607L-33.469,11.865ZM-33.492,11.9L-33.448,11.916L-33.443,11.929L-33.492,11.9ZM-40.358,12.097L-40.377,12.075L-40.418,12.027L-40.281,12.065L-40.358,12.097ZM-45.335,12.382L-45.34,12.391L-45.716,12.491L-45.335,12.382ZM-50.139,5.388L-50.201,5.366L-50.192,5.343L-50.139,5.388ZM-54.679,-9.663L-54.651,-9.642L-54.664,-9.621L-54.728,-9.516L-54.837,-9.338L-54.841,-9.338L-54.755,-9.514L-54.746,-9.533L-54.69,-9.648L-54.682,-9.665L-53.451,-12.2L-53.387,-12.156L-54.679,-9.663ZM-52.004,-11.055L-52.087,-11.113L-51.994,-11.248L-51.898,-11.19L-51.892,-11.186L-52.004,-11.055ZM-34.295,0.36L-34.457,0.384L-34.479,0.342L-34.295,0.36ZM-25.784,8.968L-25.758,8.834L-25.418,9.037L-25.195,9.137L-24.753,9.305L-24.797,9.316L-25.453,9.475L-25.906,9.617L-25.784,8.968ZM-36.131,7.162L-35.943,7.126L-36.101,7.218L-36.131,7.162ZM-40.826,10.546L-40.777,10.559L-40.686,10.637L-40.826,10.546ZM-41.225,11.03L-41.038,11.158L-40.913,11.242L-40.871,11.271L-40.9,11.274L-40.935,11.28L-41.041,11.299L-41.093,11.238L-41.244,11.061L-41.323,10.968L-41.225,11.03ZM-42.896,13.402L-42.863,13.38L-42.828,13.378L-42.896,13.402ZM-42.053,11.426L-41.987,11.47L-42.095,11.499L-42.053,11.426ZM-42.845,10.889L-42.488,11.131L-42.461,11.149L-42.832,11.695L-42.857,11.7L-42.88,11.705L-43.42,11.831L-42.845,10.889ZM-44.013,10.188L-44.003,10.194L-44.044,10.236L-44.013,10.188ZM-55.474,-8.879L-55.446,-8.941L-55.409,-8.907L-55.474,-8.879ZM-53.546,-8.418L-53.494,-8.37L-54.632,-6.232L-54.935,-5.407L-54.649,-6.219L-54.642,-6.232L-53.607,-8.314L-53.552,-8.424L-53.546,-8.418ZM-53.134,-2.478L-53.318,-2.295L-54.116,-0.533L-54.122,-0.518L-54.428,-0.673L-54.486,-0.685L-53.678,-3.762L-53.28,-4.415L-52.629,-3.919L-52.92,-3.274L-53.134,-2.478ZM-52.267,-3.19L-52.277,-3.193L-52.247,-3.261L-52.267,-3.19ZM-51.215,-4.397L-51.334,-4.278L-51.297,-4.362L-51.258,-4.45L-51.215,-4.397ZM-29.001,8.009L-29.013,8.001L-29.069,7.958L-29.001,8L-29.001,8.009ZM-28.956,8.044L-28.938,8.06L-30.345,7.417L-28.956,8.044ZM-41.982,10.386L-41.972,10.371L-41.954,10.345L-41.873,10.227L-41.868,10.229L-42.005,10.432L-42.011,10.429L-41.982,10.386ZM-42.149,8.375L-42.107,8.369L-42.068,8.363L-42.123,8.419L-42.149,8.375ZM-46.242,8.465L-46.372,8.419L-46.184,8.46L-46.153,8.467L-46.106,8.466L-46.035,8.466L-46.022,8.48L-46.082,8.481L-46.085,8.479L-46.183,8.484L-46.199,8.478L-46.242,8.465ZM-46.719,8.741L-46.446,8.395L-46.44,8.398L-46.741,8.777L-46.719,8.741ZM-46.889,8.213L-46.799,8.212L-46.606,8.21L-46.57,8.21L-46.465,8.209L-46.431,8.209L-46.404,8.208L-46.385,8.208L-46.297,8.207L-46.293,8.211L-46.261,8.241L-46.32,8.245L-46.327,8.246L-46.37,8.248L-46.412,8.251L-46.419,8.252L-46.43,8.252L-46.596,8.262L-46.641,8.265L-46.832,8.277L-46.889,8.213ZM-47.187,7.422L-47.204,7.426L-47.189,7.42L-46.722,7.309L-47.187,7.422ZM-47.574,5.64L-47.504,5.541L-47.415,5.572L-47.509,5.713L-47.574,5.64ZM-48.109,6.557L-48.034,6.404L-47.996,6.327L-47.902,6.134L-47.891,6.112L-47.885,6.099L-47.859,6.047L-47.851,6.036L-47.798,5.96L-47.727,5.858L-47.686,5.976L-47.741,6.06L-47.783,6.122L-47.814,6.168L-47.82,6.177L-47.831,6.194L-47.944,6.362L-47.995,6.438L-48.049,6.518L-48.109,6.557ZM-49.279,4.821L-49.285,4.822L-49.289,4.825L-49.296,4.805L-49.279,4.821ZM-49.753,4.381L-49.579,4.542L-49.775,4.423L-49.753,4.381ZM-55.039,-4.99L-55.132,-4.848L-55.078,-5.003L-55.039,-4.99ZM-54.86,-3.42L-54.818,-3.579L-54.782,-3.638L-54.86,-3.42ZM-54.095,0.17L-54.235,0.107L-54.194,0.085L-54.095,0.17ZM-46.42,-7.975L-46.387,-7.99L-46.304,-7.939L-46.42,-7.975ZM-43.258,-5.836L-42.6,-5.29L-42.059,-4.804L-41.976,-4.725L-41.165,-3.917L-40.94,-3.682L-40.802,-3.546L-40.399,-3.073L-39.635,-2.251L-39.65,-2.234L-39.653,-2.23L-39.677,-2.202L-39.352,-1.799L-40.016,-1.316L-41.108,-2.487L-41.327,-2.503L-42.249,-3.48L-41.277,-3.119L-41.291,-3.146L-41.31,-3.163L-41.242,-3.134L-41.205,-3.146L-41.165,-3.144L-42.69,-3.948L-42.987,-4.262L-44.415,-4.964L-43.424,-5.968L-43.467,-6.002L-43.25,-6.089L-43.258,-5.836ZM-33.454,6.079L-33.435,6.102L-33.536,6.068L-33.688,6.03L-33.753,6.014L-33.831,5.995L-33.853,5.989L-33.887,5.981L-33.887,5.961L-33.921,5.933L-33.76,5.967L-33.634,5.822L-33.655,5.793L-33.498,5.862L-33.454,6.079ZM-33.107,5.573L-33.09,5.698L-33.069,5.906L-33.068,5.917L-33.058,6.157L-33.065,6.229L-33.086,6.222L-33.058,6.157L-33.09,5.698L-33.111,5.707L-33.107,5.573ZM-31.704,0.636L-31.659,0.626L-31.455,0.646L-31.704,0.636ZM-32.664,4.636L-32.476,4.655L-32.472,4.668L-32.664,4.636ZM-29.076,4.698L-29.097,4.712L-29.268,4.638L-29.33,4.612L-29.711,4.449L-29.276,4.619L-29.03,4.655L-28.782,4.69L-29.033,4.671L-29.076,4.698ZM-32.556,0.978L-32.808,0.984L-32.672,0.926L-32.57,0.888L-32.556,0.978ZM-33.705,1.359L-33.67,1.345L-33.434,1.316L-33.467,1.338L-33.549,1.39L-33.574,1.403L-33.691,1.392L-33.771,1.385L-33.705,1.359ZM-40.255,8.026L-40.076,7.999L-40.305,8.047L-40.255,8.026ZM-41.744,8.222L-42.244,8.387L-42.27,8.39L-41.744,8.222ZM-43.961,8.458L-43.751,8.469L-43.75,8.537L-43.961,8.458ZM-45.314,8.926L-45.284,8.941L-45.315,8.931L-45.408,8.903L-45.471,8.884L-45.66,8.825L-45.48,8.867L-45.501,8.83L-45.418,8.876L-45.392,8.866L-45.267,8.819L-45.258,8.83L-45.275,8.837L-45.394,8.887L-45.314,8.926ZM-45.988,8.794L-45.869,8.647L-45.741,8.822L-45.971,8.812L-46.003,8.811L-45.988,8.794ZM-45.979,8.205L-45.76,8.202L-45.632,8.201L-45.769,8.211L-45.996,8.225L-45.979,8.205ZM-46.788,7.913L-47.077,7.929L-47.081,7.922L-46.788,7.913ZM-44.58,2.816L-44.435,2.697L-44.614,2.863L-44.58,2.816ZM-46.006,4.085L-45.942,4.098L-45.952,4.107L-46.006,4.085ZM-45.316,-7.313L-45.308,-7.308L-45.38,-7.271L-45.316,-7.313ZM-35.267,5.657L-35.257,5.677L-35.3,5.672L-35.267,5.657ZM-44.695,8.455L-44.785,8.48L-44.436,8.478L-44.829,8.491L-44.785,8.48L-44.941,8.48L-44.695,8.455L-44.755,8.439L-44.658,8.434L-44.695,8.455ZM-37.412,0.855L-37.379,0.849L-37.339,0.842L-37.367,0.855L-37.384,0.862L-37.461,0.897L-37.609,0.892L-37.429,0.858L-37.412,0.855ZM-34.6,4.725L-34.724,4.721L-34.613,4.699L-34.6,4.725ZM-35.46,5.216L-35.695,5.325L-35.865,5.403L-36.669,5.294L-36.749,5.3L-36.331,5.068L-35.552,4.917L-35.517,5.069L-35.497,5.12L-35.46,5.216ZM-40.533,2.472L-40.638,2.559L-40.76,2.576L-40.583,2.495L-40.513,2.432L-40.436,2.393L-40.533,2.472ZM-43.206,5.658L-43.254,5.727L-43.306,5.802L-43.482,5.836L-43.358,5.736L-43.3,5.689L-43.268,5.664L-43.137,5.558L-43.206,5.658ZM-44.132,6.52L-44.054,6.512L-43.952,6.501L-43.943,6.5L-43.776,6.481L-43.815,6.537L-44.016,6.591L-44.025,6.593L-44.142,6.624L-44.237,6.65L-44.132,6.52ZM-44.329,5.72L-44.126,5.463L-44.057,5.376L-43.98,5.29L-44.033,5.357L-44.055,5.384L-45.303,6.96L-45.313,6.964L-44.329,5.72ZM-45.426,6.661L-45.377,6.569L-45.233,6.535L-45.324,6.65L-45.426,6.661ZM-42.042,5.772L-42.088,5.835L-42.223,5.925L-42.042,5.772ZM-40.698,4.813L-40.713,4.92L-40.839,5.005L-40.698,4.813ZM-44.764,5.791L-44.979,5.809L-44.95,5.755L-44.91,5.687L-44.764,5.791ZM-35.623,3.742L-35.68,3.731L-35.57,3.693L-35.579,3.735L-35.58,3.742L-35.605,3.746L-35.623,3.742ZM-39.512,-0.002L-39.399,0.01L-39.561,0.034L-39.512,-0.002ZM-44.411,2.213L-44.409,2.216L-44.419,2.224L-44.411,2.213ZM-44.523,2.113L-44.576,2.067L-44.566,2.058L-44.422,2.203L-44.523,2.113ZM-44.596,2.218L-44.704,2.374L-45.023,2.565L-44.596,2.218ZM-47.05,-4.538L-47.033,-4.568L-47.01,-4.609L-46.968,-4.577L-46.926,-4.546L-46.881,-4.513L-46.944,-4.514L-47.063,-4.516L-47.05,-4.538ZM-47.21,-4.518L-47.457,-4.522L-47.508,-4.523L-47.49,-4.544L-47.44,-4.602L-47.21,-4.518ZM-46.714,-5.35L-46.815,-5.323L-46.806,-5.333L-46.801,-5.335L-46.714,-5.35ZM-41.664,-2.354L-41.672,-2.359L-41.658,-2.359L-40.139,-1.226L-41.664,-2.354ZM-42.123,-2.171L-41.885,-2.17L-40.212,-1.174L-40.797,-0.748L-42.123,-2.171ZM-38.26,-0.173L-38.406,-0.151L-38.415,-0.154L-38.373,-0.184L-38.174,-0.329L-38.072,-0.201L-38.26,-0.173ZM-52.143,0.092L-52.184,0.143L-52.166,0.099L-52.143,0.092ZM-42.699,-3.169L-43.611,-3.873L-42.642,-3.138L-42.699,-3.169ZM-42.804,-2.17L-42.811,-2.176L-42.798,-2.176L-40.615,-0.553L-42.804,-2.17ZM-45.314,2.054L-45.526,2.361L-45.532,2.369L-45.539,2.356L-45.314,2.054ZM-46.25,0.577L-45.439,1.299L-45.88,1.653L-46.423,0.534L-46.25,0.577ZM-42.45,-2.98L-42.382,-2.951L-42.39,-2.948L-42.405,-2.942L-42.417,-2.936L-42.43,-2.963L-42.45,-2.98ZM-46.911,-0.01L-47.105,-0.052L-47.08,-0.084L-46.934,-0.031L-46.911,-0.01ZM-46.074,-1.03L-46.615,-0.256L-46.639,-0.266L-46.693,-0.269L-46.101,-1.013L-46.074,-1.03ZM-45.029,-3.792L-43.474,-2.641L-43.489,-2.647L-45.029,-3.792ZM-44.806,-3.081L-45.044,-2.866L-45.182,-2.883L-44.806,-3.081L-44.208,-3.029L-44.183,-3.011L-44.806,-3.081ZM-45.359,-3.83L-44.307,-3.097L-45.133,-3.197L-45.538,-2.926L-45.641,-2.938L-45.847,-2.963L-45.359,-3.83ZM-42.556,-2.988L-42.335,-2.824L-42.35,-2.829L-42.556,-2.988ZM-42.611,-2.894L-43.059,-2.948L-43.388,-3.297L-42.964,-3.139L-42.611,-2.894ZM-42.976,0.133L-42.889,0.061L-43.147,0.177L-43.303,0.304L-43.417,0.398L-44.202,0.595L-44.601,0.626L-44.996,0.943L-45.304,0.31L-46.117,-0.041L-45.066,-1.38L-44.086,-1.99L-43.025,-1.987L-40.863,-0.7L-41.414,-0.299L-41.461,-0.265L-42.976,0.133ZM-44.313,-4.019L-44.334,-4.03L-44.363,-4.046L-44.328,-4.034L-44.313,-4.019ZM-48.635,4.24L-47.037,1.13L-47.011,1.097L-46.146,1.866L-47.029,2.576L-48.291,4.449L-48.635,4.24ZM-44.399,2.173L-44.174,1.871L-44.387,2.177L-44.393,2.186L-44.399,2.173ZM-45.551,2.396L-45.548,2.398L-45.558,2.407L-45.551,2.396ZM-45.725,8.592L-45.732,8.591L-45.737,8.593L-45.743,8.592L-45.747,8.595L-45.837,8.608L-45.886,8.615L-45.933,8.582L-45.985,8.547L-45.957,8.554L-45.907,8.569L-45.887,8.574L-45.881,8.575L-45.875,8.575L-45.64,8.551L-45.633,8.537L-45.509,8.537L-45.581,8.544L-45.216,8.594L-45.717,8.591L-45.725,8.592ZM-44.238,8.477L-44.328,8.434L-44.362,8.419L-44.268,8.431L-44.262,8.431L-44.238,8.477ZM-43.174,-4.202L-43.195,-4.214L-43.223,-4.229L-43.189,-4.217L-43.174,-4.202ZM-49.153,-4.526L-49.232,-4.483L-49.2,-4.546L-49.153,-4.526ZM-54.377,0.044L-54.443,0.014L-54.337,-0.046L-54.377,0.044ZM-48.637,4.791L-48.495,4.753L-48.506,4.77L-48.543,4.825L-48.637,4.791ZM-45.703,8.463L-45.608,8.462L-45.609,8.472L-45.726,8.475L-45.703,8.463ZM-35.404,3.256L-35.318,3.375L-35.342,3.405L-35.435,3.256L-35.516,3.483L-35.521,3.499L-36.123,3.641L-36.227,3.621L-36.321,3.601L-37.76,3.88L-36.237,2.635L-35.978,2.5L-35.959,2.526L-35.695,2.875L-35.621,2.97L-35.548,3.066L-35.526,3.094L-35.493,3.137L-35.462,3.124L-35.404,3.256ZM-54.255,-5.262L-55.007,-5.205L-55.003,-5.214L-54.255,-5.262ZM-41.119,10.654L-41.108,10.638L-40.999,10.726L-41.119,10.654ZM-29.881,0.499L-29.972,0.456L-29.842,0.475L-29.881,0.499ZM-25.907,2.333L-25.96,2.307L-26.027,2.273L-25.909,2.307L-25.907,2.333ZM-46.93,-8.319L-46.75,-8.211L-46.544,-8.085L-47.514,-7.586L-49.928,-4.72L-50.093,-4.69L-48.246,-8.851L-48.119,-9.013L-47.709,-8.777L-46.93,-8.319ZM-48.431,-9.192L-48.409,-9.179L-48.424,-9.159L-48.431,-9.192ZM-52.028,-5.4L-52.068,-5.45L-51.934,-5.462L-51.951,-5.425L-51.986,-5.348L-52.028,-5.4ZM-50.302,7.971L-50.198,7.905L-50.082,7.83L-50.142,7.964L-50.302,7.971ZM-44.634,9.843L-44.628,9.846L-44.637,9.856L-44.634,9.843ZM-42.992,13.412L-42.906,13.406L-42.945,13.419L-42.992,13.412ZM-33.183,12.681L-33.736,12.408L-33.133,12.695L-33.128,12.705L-33.183,12.681ZM-34.173,6.848L-34.323,6.865L-34.193,6.81L-33.967,6.826L-34.173,6.848ZM-27.626,8.046L-27.792,7.988L-27.753,7.929L-27.626,8.046ZM-25.958,8.696L-25.789,8.816L-25.966,8.712L-25.97,8.709L-25.958,8.696ZM-22.489,8.7L-22.564,8.901L-22.569,8.902L-22.613,8.908L-22.596,8.861L-22.519,8.651L-22.462,8.489L-22.489,8.7ZM-21.196,5.352L-21.315,5.43L-21.322,5.428L-21.334,5.425L-21.804,6.666L-21.345,5.423L-21.196,5.352ZM-53.043,-11.921L-53.04,-11.919L-53.048,-11.91L-53.043,-11.921ZM-51.88,10.143L-51.818,10.164L-51.916,10.306L-51.88,10.143ZM-48.341,8.441L-48.816,8.33L-48.317,8.432L-48.264,8.445L-46.306,8.913L-48.276,8.456L-48.332,8.444L-48.341,8.441ZM-28.543,9.332L-28.734,9.705L-28.614,9.497L-28.708,9.671L-28.734,9.705L-28.524,9.271L-28.543,9.332ZM-21.068,4.258L-21.019,4.269L-21.027,4.29L-21.065,4.381L-21.068,4.258ZM-26.44,0.057L-26.544,0.081L-26.549,0.082L-26.609,0.072L-26.44,0.057ZM-50.037,-10.105L-48.412,-9.308L-49.933,-10.046L-48.515,-9.266L-48.49,-9.226L-48.542,-9.256L-48.515,-9.266L-49.229,-9.647L-49.27,-9.669L-49.471,-9.783L-49.624,-9.87L-50.361,-8.953L-51.781,-5.803L-52.447,-5.78L-52.835,-5.686L-52.874,-5.622L-52.911,-5.62L-53.587,-5.597L-53.812,-5.542L-53.509,-6.402L-51.406,-10.631L-51.276,-10.821L-50.347,-10.295L-50.037,-10.105ZM-76.781,-12.14L-76.836,-12.102L-76.907,-12.145L-76.781,-12.14ZM-77.464,-11.589L-77.428,-11.569L-77.143,-11.719L-77.121,-11.718L-77.101,-11.705L-76.69,-11.443L-76.879,-11.44L-77.037,-11.382L-77.316,-11.267L-78.018,-11.257L-78.177,-11.199L-78.691,-10.988L-78.812,-10.99L-79.025,-10.975L-79.471,-10.779L-80.784,-11.634L-80.089,-11.874L-77.367,-11.731L-77.306,-11.728L-77.251,-11.725L-77.464,-11.589ZM-81.579,8.623L-81.359,8.7L-81.421,8.705L-81.564,8.716L-81.579,8.623ZM-74.772,7.913L-74.592,8.041L-74.702,8.052L-74.772,7.913ZM-77.661,9.426L-77.846,9.363L-77.865,9.356L-77.855,9.352L-77.755,9.309L-77.661,9.426ZM-77.378,9.175L-77.376,9.179L-77.371,9.197L-77.368,9.206L-77.352,9.256L-77.351,9.26L-77.341,9.29L-77.291,9.447L-77.283,9.473L-77.306,9.456L-77.502,9.309L-77.539,9.28L-77.545,9.277L-77.562,9.264L-77.565,9.261L-77.594,9.24L-77.385,9.151L-77.378,9.175ZM-76.241,8.84L-76.34,8.704L-76.227,8.656L-76.241,8.84ZM-74.419,9.138L-74.48,9.037L-74.365,8.935L-74.347,8.92L-74.3,8.992L-74.419,9.138ZM-57.188,10.042L-57.189,10.033L-57.185,10.016L-57.171,9.947L-57.143,9.835L-57.157,9.943L-57.171,10.048L-57.188,10.042ZM-46.394,9.483L-46.485,9.43L-46.431,9.365L-46.343,9.382L-46.331,9.384L-46.107,9.425L-46.094,9.427L-46.165,9.547L-46.345,9.413L-46.394,9.483ZM-45.68,12.958L-45.581,12.911L-45.537,12.89L-44.947,12.612L-46.59,12.998L-46.604,12.995L-44.947,12.612L-45.542,12.898L-45.586,12.92L-45.686,12.968L-45.95,13.095L-45.966,13.093L-45.68,12.958ZM-28.31,10.446L-28.391,10.477L-28.372,10.463L-28.168,10.257L-28.417,10.488L-28.096,10.176L-27.985,10.056L-27.824,9.859L-27.685,9.67L-27.641,9.6L-27.729,10.233L-27.452,10.132L-28.143,10.399L-28.31,10.446ZM-18.925,12.082L-18.958,12.077L-19.11,12.057L-19.232,12.04L-19.522,11.999L-19.018,12.059L-18.958,12.077L-17.518,12.049L-18.925,12.082ZM-10.118,13.831L-10.142,13.831L-11.354,13.338L-10.118,13.831ZM-9.296,13.801L-9.489,13.809L-9.338,13.783L-9.296,13.801ZM-18.395,12.884L-18.583,12.931L-17.872,12.724L-18.395,12.884ZM-16.104,12.278L-16.201,12.283L-16.731,12.258L-17.23,12.261L-17.334,12.255L-16.731,12.258L-16.104,12.278ZM-10.576,13.867L-10.687,13.848L-10.597,13.845L-10.509,13.842L-10.576,13.867ZM-11.446,13.872L-11.775,13.882L-11.783,13.872L-11.446,13.872ZM-12.362,13.873L-12.378,13.884L-12.195,13.895L-12.399,13.899L-12.472,13.9L-12.597,13.904L-12.545,13.874L-12.362,13.873ZM-15.723,12.253L-15.892,12.267L-15.175,12.255L-15.885,12.274L-16.081,12.279L-15.619,12.238L-15.723,12.253ZM-8.864,13.792L-8.894,13.783L-8.621,13.784L-8.864,13.792ZM-15.282,12.193L-15.273,12.192L-15.103,12.194L-15.034,12.195L-14.749,12.2L-15.238,12.206L-15.428,12.213L-15.332,12.2L-15.282,12.193ZM-18.526,2.598L-18.488,2.561L-18.462,2.537L-18.429,2.511L-18.482,2.568L-18.519,2.609L-18.644,2.753L-18.73,2.851L-18.736,2.803L-18.632,2.699L-18.543,2.569L-18.526,2.598ZM-17.945,2.134L-18.075,2.17L-18,2.099L-17.945,2.134ZM-22.825,0.262L-22.89,0.242L-22.641,0.232L-22.58,0.265L-22.825,0.262ZM-36.552,-3.104L-36.588,-3.092L-36.712,-3.051L-36.772,-3.123L-36.619,-3.185L-36.552,-3.104ZM-42.042,-7.576L-42.226,-7.669L-42.135,-7.71L-42.042,-7.576ZM-39.589,-9.61L-39.7,-9.61L-39.772,-9.611L-39.68,-9.65L-39.599,-9.649L-39.597,-9.65L-39.589,-9.61ZM-53.076,-12.974L-53.074,-12.977L-52.744,-12.699L-53.001,-12.901L-53.081,-12.965L-53.076,-12.974ZM-52.037,-11.38L-50.273,-10.324L-52.131,-11.343L-52.141,-11.339L-52.273,-11.42L-52.289,-11.431L-52.301,-11.438L-52.525,-11.581L-52.131,-11.343L-52.037,-11.38ZM-75.748,-17.41L-75.724,-17.404L-75.683,-17.359L-75.695,-17.354L-75.748,-17.41ZM-76.342,-2.939L-76.322,-2.898L-76.356,-2.922L-76.342,-2.939ZM-68.313,14.761L-68.38,14.522L-68.364,14.52L-68.312,14.742L-68.313,14.761ZM-47.227,12.942L-47.423,13.001L-47.359,12.968L-47.32,12.957L-47.317,12.956L-47.312,12.955L-47.213,12.93L-47.21,12.925L-47.05,12.889L-46.76,12.817L-47.205,12.935L-47.219,12.941L-47.227,12.942ZM-32.365,13.517L-32.438,13.324L-32.47,13.238L-32.504,13.148L-32.539,13.057L-32.566,12.985L-32.59,12.923L-32.609,12.868L-32.493,12.886L-32.456,13.032L-32.453,13.041L-32.447,13.065L-32.435,13.112L-32.409,13.215L-32.393,13.277L-32.377,13.34L-32.326,13.537L-32.365,13.517ZM-31.906,12.976L-31.787,13.008L-31.77,13.047L-31.736,13.13L-31.906,12.976ZM-32.4,13.067L-32.402,13.059L-32.057,13.237L-32.4,13.067ZM-32.692,10.198L-32.857,10.182L-32.867,10.065L-32.692,10.198ZM-33.651,9.301L-33.551,9.414L-33.366,9.626L-33.066,9.907L-32.95,10.173L-32.902,10.178L-32.916,10.027L-32.89,10.047L-32.82,10.621L-32.834,10.453L-32.607,11.005L-32.801,10.797L-32.796,10.841L-32.595,11.034L-32.574,11.084L-32.57,11.093L-32.567,11.102L-32.433,11.424L-31.993,12.512L-31.989,12.522L-32.043,12.498L-32.583,12.233L-32.57,12.316L-32.554,12.42L-32.55,12.445L-32.544,12.487L-32.538,12.523L-32.582,12.54L-32.596,12.447L-32.688,12.376L-32.795,12.356L-32.814,12.301L-32.688,12.376L-32.603,12.404L-32.62,12.294L-32.633,12.212L-32.879,12.122L-32.883,12.112L-32.885,12.105L-33.045,11.663L-33.449,10.564L-33.476,10.489L-32.832,10.918L-32.834,10.906L-32.833,10.899L-32.836,10.881L-32.839,10.854L-32.844,10.794L-32.849,10.745L-33.753,9.778L-33.806,9.643L-33.811,9.63L-33.551,9.414L-33.678,9.334L-33.651,9.301L-33.978,9.238L-32.558,9.461L-33.651,9.301ZM-22.741,11.399L-22.71,11.399L-22.133,11.387L-22.697,11.409L-22.715,11.405L-22.741,11.399ZM-22.516,13.207L-22.537,13.258L-22.61,13.251L-22.516,13.207ZM-16.644,14.051L-16.807,14.048L-16.812,14.043L-16.644,14.051L-16.565,13.971L-16.598,14.052L-16.644,14.051ZM-15.494,14.033L-15.505,14.02L-15.324,14.028L-15.494,14.033ZM-8.075,13.794L-8.02,13.805L-7.997,13.81L-7.804,13.882L-7.789,13.891L-8.075,13.794L-8.098,13.79L-8.116,13.785L-8.12,13.787L-8.222,13.781L-8.228,13.779L-8.27,13.779L-8.739,13.731L-8.144,13.779L-9.557,13.26L-8.075,13.794ZM-8.409,13.63L-8.367,13.627L-8.279,13.71L-8.5,13.633L-8.409,13.63ZM-13.414,11.908L-13.366,11.883L-13.353,11.876L-13.298,11.847L-13.293,11.862L-13.276,11.906L-13.243,11.947L-13.22,11.976L-13.21,11.988L-13.27,11.979L-13.385,11.962L-13.487,11.947L-13.414,11.908ZM-11.358,10.651L-11.381,10.651L-11.428,10.635L-11.409,10.634L-11.358,10.651ZM-17.261,9.009L-16.899,9.06L-18.106,8.91L-17.261,9.009ZM-17.777,7.877L-17.857,7.947L-17.858,7.857L-17.777,7.877ZM-13.636,-1.963L-13.617,-1.93L-13.639,-1.91L-13.646,-1.955L-13.646,-1.96L-13.65,-1.987L-13.636,-1.963ZM-24.406,13.228L-24.421,13.259L-24.427,13.27L-24.444,13.263L-24.406,13.228ZM-31.188,13.171L-31.201,13.12L-30.996,13.222L-31.188,13.171ZM-89.371,-4.643L-89.585,-4.641L-90.29,-4.725L-90.333,-4.636L-90.509,-4.635L-90.29,-4.725L-89.228,-4.722L-89.371,-4.643ZM-91.581,-4.232L-91.485,-4.215L-91.586,-4.219L-91.616,-4.22L-91.581,-4.232ZM1.107,-8.083L1.017,-8.232L0.318,-7.999L0.897,-8.201L0.562,-8.121L0.604,-8.142L1.108,-8.432L0.097,-7.889L1.234,-8.511L-0.033,-7.9L-0.123,-8.049L-1.704,-7.506L-1.825,-7.707L-1.841,-7.734L-1.695,-7.745L-1.68,-7.751L-1.675,-7.751L-1.654,-7.753L-1.704,-7.506L-0.243,-8.019L-0.64,-7.923L-0.697,-7.909L-0.722,-7.903L-0.842,-7.881L-0.701,-7.917L-0.959,-7.891L-1.384,-7.86L-1.79,-7.83L-1.98,-7.72L-2.028,-7.716L-1.861,-7.824L-2.217,-7.79L-2.513,-7.756L-2.664,-7.738L-3.061,-7.635L-3.324,-7.61L-3.128,-7.671L-3.427,-7.62L-3.51,-7.59L-3.593,-7.58L-3.669,-7.571L-3.803,-7.554L-4.267,-7.488L-4.566,-7.437L-5.364,-7.245L-5.378,-7.27L-6.469,-7.012L-6.863,-6.929L-7.057,-6.888L-7.242,-6.861L-7.661,-6.798L-8.005,-6.746L-8.234,-6.711L-8.807,-6.625L-10.524,-6.307L-10.537,-6.329L-12.191,-5.907L-13.74,-5.308L-15.146,-4.473L-16.397,-3.382L-17.541,-2.11L-18.541,-0.6L-18.589,-0.68L-19.492,0.991L-19.528,0.932L-19.514,0.908L-19.479,0.847L-19.439,0.778L-19.633,0.734L-20.056,0.624L-20.429,0.54L-20.433,0.51L-22.029,0.502L-22.023,0.529L-22.092,0.499L-22.214,0.447L-22.029,0.502L-20.455,0.503L-20.831,0.368L-21.179,0.218L-21.44,0.083L-21.502,0.049L-21.796,-0.141L-22.061,-0.354L-22.12,-0.411L-22.212,-0.505L-22.296,-0.592L-22.5,-0.858L-22.672,-1.151L-23.034,-1.257L-23.123,-1.176L-23.453,-0.916L-23.691,-0.762L-23.812,-0.967L-24.174,-1.074L-24.262,-0.993L-24.593,-0.733L-24.873,-0.551L-24.863,-0.373L-24.945,-0.508L-25.164,-0.392L-25.316,-0.316L-25.706,-0.156L-25.724,-0.15L-29.764,-0.778L-30.904,-0.595L-30.949,-0.589L-32.045,-0.436L-32.126,-0.449L-33.769,-0.71L-33.807,-0.787L-34.706,-2.189L-34.721,-2.206L-34.725,-2.211L-34.215,-2.399L-34.016,-2.472L-30.584,-2.541L-25.841,-1.154L-29.403,-2.712L-24.702,-1.337L-27.253,-2.453L-24.419,-1.661L-28.131,-3.189L-28.099,-3.19L-23.279,-1.845L-28.351,-3.931L-28.265,-3.847L-32.867,-3.972L-28.351,-3.931L-33.011,-4.092L-33.546,-3.888L-33.613,-3.89L-34.151,-3.909L-35.701,-3.389L-35.711,-3.386L-35.809,-3.353L-35.835,-3.345L-35.907,-3.47L-35.802,-3.512L-37.174,-4.724L-38.803,-5.833L-40.623,-6.867L-41.873,-7.492L-39.049,-8.783L-36.018,-7.763L-35.989,-7.794L-35.954,-7.82L-35.93,-7.828L-38.281,-8.985L-38.027,-8.996L-37.679,-8.888L-35.287,-8.152L-34.849,-7.977L-34.815,-8.004L-34.81,-8.005L-34.023,-7.763L-34.024,-7.79L-34.024,-7.794L-34.032,-7.816L-34.034,-7.82L-34.048,-7.828L-37.976,-9.33L-37.943,-9.327L-37.888,-9.306L-37.432,-9.13L-37.171,-9.03L-36.366,-8.72L-36.217,-8.663L-35.754,-8.486L-36.883,-9.041L-36.492,-9.057L-36.477,-9.058L-32.884,-7.977L-32.892,-7.999L-32.894,-8.004L-32.909,-8.011L-35.744,-9.087L-35.725,-9.088L-35.708,-9.089L-35.481,-9.098L-30.654,-7.794L-30.635,-7.82L-30.625,-7.828L-30.864,-7.918L-30.299,-7.763L-30.284,-7.794L-30.272,-7.82L-35.141,-9.541L-30.269,-7.828L-34.019,-9.191L-29.514,-7.977L-29.495,-8.004L-29.486,-8.011L-29.725,-8.101L-29.159,-7.946L-29.144,-7.977L-29.132,-8.004L-34.002,-9.724L-37.445,-9.746L-37.533,-9.78L-38.449,-9.793L-38.561,-9.793L-38.633,-9.794L-41.654,-9.833L-41.659,-9.83L-41.832,-9.75L-41.981,-9.752L-42.058,-9.711L-42.105,-9.641L-42.187,-9.642L-42.236,-9.642L-42.793,-9.65L-42.799,-9.647L-42.971,-9.567L-43.121,-9.569L-42.968,-9.65L-43.169,-9.569L-43.708,-9.283L-43.722,-9.276L-43.983,-9.279L-44.27,-9.257L-44.851,-8.958L-45.229,-9.158L-46.463,-9.815L-46.551,-9.78L-47.92,-10.547L-47.913,-10.556L-46.551,-9.78L-47.344,-10.304L-47.178,-10.22L-45.346,-12.57L-42.25,-14.365L-39.289,-14.515L-34.789,-12.993L-34.76,-13.024L-34.742,-13.032L-38.105,-14.683L-33.649,-13.177L-33.621,-13.207L-33.602,-13.215L-37.774,-15.263L-41.71,-15.325L-42.069,-15.13L-42.85,-15.142L-43.67,-14.696L-43.737,-14.687L-47.306,-12.753L-48.74,-10.969L-48.766,-10.938L-49.138,-11.145L-49.22,-11.181L-49.694,-11.383L-50.19,-11.595L-50.488,-11.727L-50.517,-11.716L-50.734,-11.628L-50.704,-11.824L-50.68,-11.814L-50.612,-11.783L-49.002,-14.116L-48.964,-14.171L-47.745,-15.452L-46.882,-16.36L-45.08,-17.847L-45.101,-17.875L-45.119,-17.898L-49.093,-15.04L-49.136,-14.994L-49.686,-14.413L-50.187,-13.867L-50.142,-13.933L-49.686,-14.413L-48.884,-15.269L-48.021,-16.177L-46.219,-17.664L-46.241,-17.692L-46.258,-17.715L-50.284,-14.819L-50.322,-14.854L-51.983,-13.06L-51.679,-13.687L-49.083,-17.589L-46.23,-20.8L-46.264,-20.802L-49.291,-17.598L-46.302,-20.773L-49.41,-17.53L-46.334,-20.803L-46.374,-20.827L-46.401,-20.834L-49.234,-18.519L-47.37,-20.617L-47.403,-20.619L-50.43,-17.415L-47.441,-20.59L-50.549,-17.346L-47.474,-20.619L-47.513,-20.644L-47.541,-20.651L-51.29,-17.586L-54.159,-13.984L-54.166,-13.976L-54.184,-13.952L-54.189,-13.947L-54.371,-13.718L-54.627,-13.249L-54.946,-13.495L-55.143,-13.66L-55.163,-13.652L-55.201,-13.637L-55.013,-13.459L-53.883,-12.516L-54.892,-13.347L-54.675,-13.161L-56.488,-9.833L-56.49,-9.83L-56.503,-9.833L-56.662,-9.615L-57.472,-9.644L-57.341,-10.923L-56.697,-15.778L-56.031,-19.893L-55.499,-23.28L-55.549,-23.283L-55.588,-23.269L-55.621,-23.251L-55.654,-23.283L-55.7,-23.308L-55.737,-23.316L-56.959,-21.061L-56.639,-23.097L-56.689,-23.099L-56.728,-23.086L-56.761,-23.068L-56.794,-23.099L-56.84,-23.125L-56.877,-23.133L-58.628,-19.901L-59.272,-17.871L-59.42,-17.408L-59.504,-17.406L-60.667,-13.503L-60.817,-12.724L-61.071,-12.534L-61.269,-12.272L-61.246,-12.032L-61.327,-12.15L-61.269,-12.272L-61.505,-12.407L-61.661,-12.632L-61.918,-12.57L-61.98,-12.523L-62.16,-12.515L-62.27,-12.272L-62.409,-12.089L-62.662,-12.233L-62.952,-12.348L-63.3,-12.332L-63.629,-11.608L-63.793,-9.466L-63.805,-9.303L-63.806,-9.297L-63.807,-9.286L-63.814,-9.287L-63.818,-9.287L-63.994,-9.299L-64.132,-9.308L-64.023,-9.364L-63.912,-9.422L-63.793,-9.466L-64.197,-9.752L-64.562,-9.833L-64.898,-9.78L-64.938,-9.286L-65.035,-9.355L-65.373,-9.833L-65.411,-9.825L-65.413,-9.832L-66.908,-13.901L-69.03,-17.769L-71.719,-20.834L-71.754,-20.827L-71.799,-20.803L-71.834,-20.773L-71.861,-20.789L-71.895,-20.803L-71.939,-20.8L-70.65,-18.133L-72.859,-20.651L-72.894,-20.644L-72.939,-20.619L-72.973,-20.59L-73.001,-20.606L-73.034,-20.619L-73.08,-20.617L-71.526,-17.406L-70,-13.503L-69.85,-12.995L-71.059,-14.579L-72.751,-16.068L-73.517,-17.328L-77.208,-21.541L-81.581,-24.878L-81.596,-24.871L-81.623,-24.844L-81.637,-24.827L-81.655,-24.844L-81.671,-24.842L-81.65,-24.823L-80.875,-24.123L-77.792,-21.344L-77.682,-21.206L-77.09,-20.468L-74.387,-17.095L-74.317,-16.971L-73.489,-15.532L-73.891,-15.885L-74.657,-17.145L-78.348,-21.358L-82.72,-24.695L-82.736,-24.687L-82.763,-24.661L-82.776,-24.644L-82.795,-24.66L-82.811,-24.659L-82.79,-24.639L-82.015,-23.941L-78.932,-21.161L-78.821,-21.023L-78.23,-20.285L-75.527,-16.911L-75.456,-16.788L-73.553,-13.475L-74.99,-14.045L-75.284,-14.062L-75.524,-14.006L-75.578,-13.993L-76.171,-14.295L-76.988,-13.967L-76.998,-13.972L-76.171,-14.295L-76.392,-14.36L-77.115,-14.024L-77.31,-14.112L-77.532,-14.177L-79.581,-13.226L-79.547,-13.217L-79.504,-13.183L-79.472,-13.144L-79.445,-13.166L-79.412,-13.183L-79.379,-13.181L-79.369,-13.18L-77.559,-13.561L-79.472,-13.144L-78.345,-13.343L-78.305,-13.349L-78.332,-13.327L-77.881,-13.426L-76.858,-13.606L-76.831,-13.593L-75.181,-12.765L-75.054,-12.7L-75.107,-12.716L-75.218,-12.746L-75.518,-12.827L-75.822,-12.811L-76.169,-12.569L-76.181,-12.56L-76.192,-12.583L-76.375,-12.671L-79.898,-12.612L-80.243,-12.442L-81.038,-12.429L-81.589,-12.157L-81.632,-12.137L-82.667,-12.861L-87.091,-13.664L-88.063,-13.45L-88.23,-13.481L-88.283,-13.418L-93.125,-12.397L-93.124,-12.369L-93.15,-12.365L-93.134,-12.348L-93.117,-12.326L-88.333,-12.924L-84.215,-11.932L-83.276,-11.327L-83.318,-11.306L-84.923,-10.516L-84.9,-10.509L-84.869,-10.48L-84.844,-10.446L-84.828,-10.465L-84.808,-10.48L-84.791,-10.478L-84.78,-10.478L-83.85,-10.809L-84.844,-10.446L-83.027,-11.072L-83.783,-10.699L-82.979,-11.07L-82.966,-11.06L-83.76,-10.691L-83.729,-10.663L-82.885,-11.005L-82.839,-10.972L-82.814,-10.955L-82.796,-10.942L-81.369,-9.947L-82.692,-9.366L-82.661,-9.368L-82.632,-9.354L-82.606,-9.336L-81.188,-9.821L-81.09,-9.752L-81.553,-9.55L-81.522,-9.552L-81.493,-9.537L-81.466,-9.519L-80.989,-9.682L-80.671,-9.46L-80.142,-8.783L-81.71,-7.792L-81.67,-7.794L-81.632,-7.78L-81.598,-7.763L-79.924,-8.504L-79.861,-8.424L-79.83,-8.384L-80.53,-7.977L-80.493,-7.963L-80.458,-7.946L-79.737,-8.264L-77.59,-5.516L-76.533,-3.333L-79.607,-5.542L-79.587,-5.456L-83.502,-6.144L-84.382,-5.921L-84.641,-5.961L-84.594,-5.885L-88.978,-4.863L-89.053,-4.821L-89.114,-4.786L-90.186,-4.813L-90.612,-4.635L-91.326,-4.629L-91.429,-4.542L-96.194,-2.589L-94.023,-3.204L-93.947,-3.226L-93.63,-3.315L-93.545,-3.34L-95.054,-2.772L-91.32,-3.831L-90.884,-3.797L-93.653,-2.248L-88.926,-4.817L-93.644,-2.243L-93.625,-2.224L-93.361,-2.345L-88.737,-4.601L-93.231,-2.402L-93.596,-2.222L-93.607,-2.214L-93.605,-2.201L-90.288,-3.751L-90.169,-3.742L-92.514,-2.432L-90.109,-3.738L-90.1,-3.737L-92.504,-2.426L-92.484,-2.408L-92.221,-2.529L-89.79,-3.714L-92.091,-2.584L-92.457,-2.406L-92.467,-2.397L-92.466,-2.385L-89.744,-3.71L-89.645,-3.702L-87.909,-3.57L-84.626,-1.933L-84.26,-1.578L-84.249,-1.567L-84.661,-1.521L-84.995,-1.5L-86.172,-0.628L-86.239,-0.579L-87.668,-0.616L-88.005,-0.44L-88.808,-0.433L-92.702,1.608L-88.307,0.115L-88.327,0.132L-92.702,1.608L-90.83,1.041L-91.562,1.425L-88.386,0.346L-88.368,0.347L-91.562,1.425L-88.082,0.371L-84.965,0.627L-84.646,0.753L-84.677,0.783L-84.991,1.093L-84.993,1.094L-85.031,1.131L-85.067,1.167L-86.197,1.256L-86.286,1.229L-87.34,1.347L-89.112,1.488L-89.042,1.536L-89.259,1.561L-90.251,1.672L-94.708,3.857L-89.837,2.158L-89.854,2.172L-94.708,3.857L-92.5,3.15L-92.281,3.08L-93.568,3.675L-89.758,2.345L-89.737,2.344L-93.568,3.675L-89.379,2.333L-86.146,2.228L-86.324,2.403L-86.335,2.414L-87.137,2.658L-86.47,2.672L-86.404,2.653L-86.272,2.676L-84.533,2.712L-84.413,2.752L-84.498,2.75L-87.101,2.692L-87.237,2.688L-87.25,2.688L-87.506,2.682L-89.243,3.222L-89.427,3.279L-91.338,3.368L-91.347,3.455L-91.15,3.458L-91.35,3.472L-91.421,3.477L-91.425,3.478L-91.768,3.501L-92.478,3.551L-92.487,3.638L-97.244,5.033L-102.229,7.584L-97.227,5.271L-97.142,5.254L-97.213,5.274L-97.226,5.28L-102.229,7.584L-98.013,5.826L-97.604,5.656L-101.089,7.401L-96.657,5.351L-96.618,5.342L-96.544,5.323L-101.089,7.401L-96.076,5.311L-92.104,4.297L-91.843,4.287L-93.812,5.49L-95.079,6.02L-95.066,6.088L-99.352,9.358L-95.029,6.329L-94.955,6.308L-95.018,6.332L-95.028,6.339L-99.352,9.358L-95.32,6.826L-95.608,7.029L-95.243,6.855L-95.054,6.765L-97.904,8.94L-97.92,8.947L-100.725,10.146L-97.225,8.954L-99.585,9.963L-93.837,8.005L-90.079,7.251L-86.318,7.379L-86.019,7.494L-86.355,7.581L-85.868,7.593L-86.424,7.629L-86.555,7.638L-87.157,7.677L-87.495,7.764L-88.005,7.909L-88.152,7.917L-88.628,8.066L-88.662,8.068L-88.852,8.077L-88.855,8.078L-89.292,8.1L-93.414,9.388L-93.71,9.403L-98.316,11.693L-94.77,10.314L-93.961,9.998L-97.177,11.51L-91.824,9.427L-88.47,8.594L-87.997,8.435L-91.745,9.752L-96.614,12.102L-91.722,10.045L-95.473,11.919L-90.373,9.774L-86.657,8.677L-86.176,8.649L-89.563,10.217L-93.937,13.554L-91.141,12.108L-92.798,13.371L-86.986,10.363L-84.016,9.301L-82.375,9.201L-81.052,10.384L-82.337,11.78L-80.575,10.811L-80.519,10.86L-80.469,10.905L-81.198,11.597L-80.4,10.967L-80.341,11.02L-81.198,11.597L-80.268,11.086L-80.205,11.141L-77.993,14.826L-77.578,15.834L-76.867,15.834L-77.267,14.576L-77.294,14.529L-77.314,14.494L-77.392,14.36L-77.357,14.33L-77.345,14.266L-79.253,10.954L-78.854,11.31L-78.85,11.317L-76.838,14.846L-76.525,15.834L-76.189,15.834L-76.414,15.075L-76.182,15.834L-73.543,15.834L-73.593,15.664L-73.524,15.834L-71.18,15.834L-71.225,15.497L-71.173,15.834L-70.903,15.834L-70.951,15.449L-70.895,15.834L-67.793,15.834L-67.836,15.601L-67.85,15.522L-67.889,15.314L-67.924,15.121L-67.883,15.314L-67.858,15.438L-67.857,15.444L-67.823,15.605L-67.778,15.822L-67.776,15.834L-67.538,15.834L-67.639,15.228L-67.532,15.834L-63.532,15.834L-63.54,15.553L-63.52,15.834L-54.203,15.834L-54.187,15.747L-54.155,15.575L-54.147,15.553L-54.151,15.576L-54.195,15.834L-54.057,15.834L-53.931,15.184L-54.045,15.834L-50.094,15.834L-50.041,15.695L-50.072,15.834L-47.109,15.834L-46.535,14.382L-47.101,15.834L-47.095,15.834L-47.072,15.817L-47.028,15.785L-46.999,15.764L-47.045,15.825L-47.058,15.834L-46.957,15.834L-46.602,15.633L-46.945,15.834L-45.652,15.834L-45.573,15.757L-45.61,15.834L-45.286,15.834L-45.13,15.687L-45.201,15.834L-44.409,15.834L-44.243,15.663L-44.228,15.834L-43.975,15.834L-43.799,15.714L-43.73,15.726L-43.66,15.697L-43.73,15.834L-43.22,15.834L-43.077,15.765L-42.84,15.655L-42.66,15.531L-42.59,15.542L-42.397,15.461L-42.054,15.322L-41.713,15.196L-41.771,15.149L-41.989,15.186L-42.02,15.192L-41.866,15.037L-41.716,15.14L-41.665,15.133L-41.601,15.124L-41.56,15.119L-41.296,15.088L-41.245,15.081L-41.184,15.074L-40.795,15.041L-40.771,15.04L-40.364,15.01L-39.966,14.98L-40.375,14.562L-39.949,14.978L-39.693,14.957L-39.578,14.949L-39.203,14.918L-39.17,14.914L-38.843,14.886L-38.642,14.866L-38.501,14.855L-38.455,14.85L-38.177,14.824L-37.942,14.801L-37.802,14.789L-37.716,14.783L-37.499,14.767L-37.395,14.564L-37.292,14.755L-37.202,14.751L-37.094,14.75L-36.906,14.754L-36.729,14.766L-36.726,14.77L-36.674,14.772L-37.093,14.407L-36.657,14.774L-36.649,14.775L-36.623,14.779L-36.593,14.783L-36.562,14.788L-36.348,14.757L-36.791,14.462L-36.608,14.575L-36.573,14.597L-36.57,14.599L-36.36,14.584L-36.255,14.381L-36.152,14.572L-36.062,14.568L-35.954,14.567L-35.767,14.571L-35.589,14.583L-35.587,14.587L-35.534,14.589L-35.953,14.224L-35.652,14.279L-36.273,13.958L-36.27,13.956L-36.262,13.949L-36.107,14.034L-36.095,14.041L-35.974,14.061L-35.283,13.801L-35.281,13.804L-35.248,13.844L-35.236,13.86L-34.613,14.673L-33.98,15.514L-33.709,15.405L-34.253,14.626L-34.848,13.793L-34.989,13.607L-35.004,13.587L-35.021,13.564L-35.043,13.535L-35.097,13.464L-35.034,13.29L-35.008,13.3L-34.945,13.324L-34.891,13.346L-34.348,13.551L-34.137,13.626L-34.059,13.654L-34.109,13.661L-33.473,14.49L-32.84,15.331L-32.569,15.223L-33.113,14.443L-33.567,13.808L-33.498,13.829L-33.019,13.954L-33.013,13.956L-32.579,14.028L-32.571,14.048L-32.55,14.103L-32.093,15.235L-32.128,14.143L-32.133,14.122L-32.136,14.113L-32.138,14.106L-32.139,14.101L-32.146,14.079L-32.176,13.952L-31.999,14.124L-31.325,14.133L-31.258,14.134L-31.361,14.044L-31.125,14.107L-31.241,14.134L-31.258,14.134L-31.323,14.138L-30.953,15.052L-30.985,14.061L-30.976,14.057L-30.953,15.052L-30.577,15.834L-30.03,15.834L-30.451,15.092L-30.95,14.045L-30.94,14.039L-30.952,14.04L-30.986,14.04L-30.987,13.991L-30.978,13.99L-30.974,13.989L-30.901,13.979L-30.969,13.932L-30.979,13.926L-31.001,13.909L-31.01,13.903L-31.242,13.74L-31.098,13.728L-31.07,13.744L-31.038,13.762L-31.015,13.776L-31.242,13.74L-30.917,13.864L-30.911,13.883L-31.242,13.74L-31.015,13.89L-31.004,13.897L-30.964,13.924L-30.948,13.934L-30.894,13.969L-30.9,13.937L-30.903,13.927L-30.909,13.892L-30.859,13.941L-30.119,13.951L-30.221,13.861L-29.986,13.924L-29.916,13.912L-29.8,13.856L-29.762,13.796L-30.103,13.557L-30.903,13.06L-30.917,13.053L-31.261,12.884L-31.263,12.876L-31.399,12.339L-31.693,10.734L-31.442,12.357L-31.316,12.849L-31.314,12.858L-31.308,12.881L-31.296,12.929L-31.269,13.032L-31.253,13.094L-31.237,13.157L-31.186,13.354L-31.225,13.334L-31.298,13.14L-31.331,13.055L-31.365,12.965L-31.399,12.874L-31.414,12.834L-31.427,12.801L-31.431,12.79L-31.45,12.74L-31.905,11.48L-32.28,10.458L-32.273,10.464L-30.837,10.891L-30.298,10.961L-29.983,10.903L-29.718,10.796L-29.676,10.765L-29.382,10.782L-29.162,10.779L-29.728,10.999L-29.351,10.892L-29.074,10.828L-29.309,10.89L-29.531,10.948L-29.622,10.976L-30.617,11.383L-29.721,11.118L-30.659,11.406L-30.925,11.586L-30.931,11.592L-31.101,11.767L-31.157,11.88L-31.187,11.948L-31.076,12.16L-31.133,12.213L-30.299,12.365L-31.085,12.305L-30.898,12.481L-30.838,12.517L-30.62,12.667L-30.577,12.685L-30.36,12.787L-29.482,12.841L-29.566,12.957L-29.114,12.995L-28.569,13.001L-28.239,12.983L-28.111,12.976L-28.141,13.19L-27.829,14.438L-27.668,13.173L-27.645,12.985L-27.659,12.935L-27.635,12.932L-27.341,12.9L-26.978,12.837L-27.001,13.007L-26.689,14.254L-26.594,13.506L-26.615,13.484L-25.851,13.563L-26.388,13.689L-26.149,13.849L-26.061,13.89L-25.842,13.936L-25.035,13.897L-24.711,13.835L-24.718,13.85L-24.727,13.868L-25.035,13.897L-25.064,13.93L-24.735,13.883L-24.739,13.89L-24.9,14.211L-24.142,12.79L-24.099,12.706L-24.007,12.523L-24.031,12.483L-23.997,12.407L-24.068,12.418L-24.664,12.674L-26.071,13.108L-26.116,13.121L-26.146,13.132L-26.453,13.232L-26.564,13.268L-26.682,13.307L-26.646,13.441L-25.258,13.061L-26.642,13.447L-26.646,13.441L-26.662,13.422L-26.687,13.369L-26.691,13.326L-26.682,13.307L-26.674,13.295L-26.635,13.271L-26.574,13.252L-26.561,13.249L-26.529,12.989L-26.505,12.801L-26.519,12.752L-26.492,12.743L-25.586,12.51L-26.008,12.632L-26.297,12.698L-25.55,12.605L-25.542,12.603L-24.447,12.327L-24.191,12.255L-23.891,12.15L-23.877,12.118L-23.868,12.095L-23.862,12.101L-23.839,12.125L-23.833,12.13L-23.802,12.161L-23.879,12.365L-23.889,12.391L-23.921,12.476L-23.958,12.574L-24.006,12.711L-24.025,12.762L-24.142,12.79L-24.327,13.156L-24.375,13.252L-24.188,13.221L-24.233,13.345L-24.391,13.283L-24.665,13.826L-24.674,13.843L-24.684,13.863L-24.439,13.84L-24.405,13.832L-24.666,14.579L-24.696,14.664L-25.015,15.54L-25.081,15.682L-25.157,15.834L-24.753,15.834L-24.634,15.717L-24.303,14.954L-24.266,14.868L-24.221,14.762L-24.197,14.707L-23.797,13.735L-23.794,13.729L-23.784,13.703L-23.781,13.697L-23.779,13.692L-23.771,13.674L-23.767,13.662L-23.762,13.651L-23.718,13.546L-23.553,13.61L-23.549,13.609L-23.535,13.603L-23.5,13.592L-23.526,13.643L-23.535,13.66L-23.545,13.68L-23.299,13.656L-23.265,13.649L-23.526,14.397L-23.556,14.482L-23.721,14.935L-23.876,15.093L-24.624,15.822L-24.209,15.801L-24.104,15.7L-23.99,15.596L-24.11,15.834L-23.8,15.834L-23.494,15.534L-23.207,14.871L-22.608,14.299L-21.802,13.545L-21.614,13.378L-21.468,13.249L-21.349,13.209L-21.344,13.207L-21.205,13.038L-21.203,13.035L-21.162,12.987L-21.143,12.991L-21.112,12.997L-20.865,13.048L-21.033,13.1L-21.265,13.18L-21.44,13.39L-21.452,13.403L-21.308,13.428L-21.281,13.435L-21.989,14.147L-22.736,14.909L-22.764,14.936L-22.937,15.134L-22.952,15.102L-23.28,15.44L-23.471,15.635L-23.495,15.659L-23.512,15.677L-23.584,15.751L-23.566,15.706L-23.504,15.555L-23.792,15.834L-23.655,15.834L-22.956,15.155L-23.412,15.621L-23.425,15.635L-23.543,15.756L-23.582,15.834L-23.31,15.834L-23.069,15.618L-22.964,15.517L-22.274,14.884L-22.209,14.822L-21.468,14.115L-20.861,13.549L-20.842,13.553L-20.681,13.6L-20.677,13.602L-20.639,13.613L-20.362,13.694L-20.081,13.778L-19.859,13.771L-19.712,13.894L-19.357,14.011L-18.836,14.185L-18.451,14.317L-18.303,14.369L-17.76,14.559L-17.552,14.631L-17.208,14.754L-16.647,14.95L-16.455,15.017L-15.822,15.104L-16.08,15.148L-15.602,15.311L-15.506,15.344L-14.928,15.535L-14.321,15.736L-14.029,15.834L-12.617,15.834L-12.367,16.085L-12.243,16.209L-11.784,16.55L-10.37,16.721L-11.772,16.557L-11.372,16.667L-10.808,16.805L-10.256,16.918L-10.033,16.956L-9.768,16.981L-8.442,17.033L-8.957,16.818L-8.441,16.946L-8.404,16.852L-8.394,16.837L-8.467,16.831L-8.391,16.832L-7.409,16.879L-7.284,16.884L-7.286,16.882L-7.29,16.875L-7.292,16.87L-8.378,16.811L-8.376,16.808L-7.302,16.851L-7.817,16.634L-7.301,16.763L-7.264,16.669L-7.251,16.649L-7.197,16.558L-7.1,16.435L-6.972,16.303L-7.81,16.243L-6.963,16.296L-7.01,16.26L-6.815,16.167L-6.629,16.03L-6.415,15.897L-6.378,15.773L-6.352,15.68L-6.345,15.65L-6.304,15.456L-6.274,15.244L-6.808,15.205L-6.272,15.229L-6.255,15.002L-6.254,14.78L-6.257,14.73L-6.267,14.569L-6.274,14.517L-6.296,14.37L-6.317,14.28L-6.34,14.189L-6.399,14.028L-6.449,13.93L-6.472,13.891L-6.561,13.78L-7.082,13.598L-7.089,13.595L-7.13,13.595L-7.599,13.549L-7.004,13.596L-8.418,13.077L-9.835,12.583L-10.436,12.431L-11.252,12.142L-11.853,11.954L-12.421,11.801L-12.347,11.763L-12.121,11.644L-11.872,11.514L-12.816,11.6L-11.859,11.508L-11.933,11.48L-11.756,11.457L-11.598,11.377L-11.299,11.239L-11.015,11.107L-10.973,11.085L-10.758,10.974L-10.604,10.886L-10.529,10.843L-10.525,10.842L-10.517,10.836L-10.511,10.838L-10.493,10.822L-10.477,10.827L-10.16,10.7L-10.268,10.676L-10.211,10.636L-10.207,10.634L-10.139,10.589L-10.093,10.553L-10.06,10.529L-10.053,10.523L-9.985,10.472L-9.95,10.441L-9.904,10.403L-9.857,10.364L-9.783,10.294L-9.777,10.288L-9.756,10.268L-9.745,10.255L-9.704,10.208L-9.898,10.137L-9.791,10.144L-9.66,10.152L-9.632,10.115L-9.608,10.061L-9.609,10.056L-9.61,10.031L-9.611,10.023L-10.695,9.862L-9.583,10.021L-11.484,9.644L-11.5,9.64L-11.549,9.631L-11.179,9.552L-10.741,9.437L-11.567,9.628L-11.731,9.595L-11.511,9.552L-10.796,9.429L-10.749,9.421L-10.697,9.412L-10.615,9.401L-10.418,9.378L-10.098,9.341L-9.489,9.298L-9.374,9.134L-9.3,9.29L-8.873,9.281L-8.25,9.287L-7.945,9.257L-7.15,9.346L-6.991,9.36L-6.505,9.404L-6.556,9.299L-6.358,9.418L-5.726,9.488L-5.097,9.564L-5.065,9.55L-5.101,9.475L-3.628,9.69L-5.149,9.376L-3.672,9.6L-2.189,9.836L-3.628,9.69L-3.603,9.743L-2.156,9.904L-1.579,9.951L-1.127,9.967L-0.826,9.969L-0.755,9.969L-0.695,9.968L-0.667,9.967L0.381,9.891L0.552,9.837L0.544,9.822L0.362,9.837L-0.073,9.849L-0.775,9.926L-0.831,9.81L-2.245,9.718L-2.32,9.562L-2.33,9.541L-2.187,9.575L-2.169,9.579L-2.177,9.593L-2.178,9.597L-2.181,9.602L-2.245,9.718L-1.77,9.664L-1.914,9.634L-1.986,9.618L-1.016,9.72L-0.439,9.768L0.013,9.784L0.314,9.786L0.385,9.786L0.444,9.785L0.472,9.784L0.937,9.765L0.998,9.759L0.89,9.78L1.164,9.744L1.19,9.738L1.201,9.736L1.229,9.717L1.236,9.715L1.391,9.674L0.364,9.743L0.309,9.627L-1.105,9.535L-1.18,9.379L-1.19,9.358L-1.412,9.304L-2.651,9.168L-1.776,9.209L-2.124,9.118L-2.185,9.102L-2.717,9.03L-4.168,8.861L-5.707,8.508L-7.22,8.21L-7.242,8.163L-8.74,7.896L-8.748,7.879L-10.207,7.694L-11.56,7.729L-11.6,7.645L-12.7,7.83L-12.739,7.828L-14.007,8.041L-14.044,7.966L-15.219,8.372L-15.252,8.302L-16.36,8.848L-16.393,8.779L-16.415,8.791L-16.43,8.8L-16.496,8.836L-16.87,8.803L-17.649,8.647L-17.913,8.639L-17.695,8.5L-17.552,8.413L-16.97,7.988L-16.717,7.763L-16.719,7.674L-16.638,7.694L-16.46,7.542L-16.026,7.075L-15.9,6.901L-15.672,6.593L-15.41,6.116L-15.4,6.097L-15.211,5.593L-16.335,5.701L-16.332,5.683L-16.344,5.502L-16.298,5.515L-16.332,5.683L-15.198,5.53L-15.205,5.319L-15.158,5.332L-15.107,5.084L-15.09,4.572L-15.233,4.518L-15.092,4.558L-15.159,4.068L-15.267,3.795L-16.639,3.451L-16.645,3.441L-15.271,3.724L-15.316,3.595L-15.559,3.162L-15.588,3.121L-15.775,2.875L-16.009,2.612L-16.086,2.534L-16.258,2.371L-16.523,2.151L-16.67,2.045L-16.805,1.95L-16.935,1.988L-16.86,1.916L-16.437,1.511L-16.174,1.257L-15.692,0.811L-14.949,0.122L-14.919,0.095L-14.125,-0.631L-14.029,-0.721L-13.73,-1.025L-12.499,-2.093L-12.507,-2.143L-12.511,-2.17L-11.674,-2.811L-11.219,-3.195L-11.072,-3.297L-10.828,-3.476L-9.964,-4.08L-9.877,-4.137L-9.32,-4.476L-8.659,-4.834L-8.451,-4.939L-7.983,-5.157L-7.294,-5.448L-8.572,-5.139L-6.965,-5.641L-6.066,-5.888L-5.887,-5.946L-5.341,-6.113L-5.41,-6.228L-5.386,-6.235L-5.175,-6.161L-4.462,-6.361L-3.749,-6.549L-3.717,-6.586L-3.759,-6.655L-3.578,-6.701L-4.914,-6.498L-3.486,-6.725L-3.483,-6.726L-3.466,-6.73L-3.196,-6.814L-1.562,-7.269L-1.434,-7.298L-1.556,-7.26L-1.624,-7.239L-1.888,-7.159L-2.115,-7.094L-2.097,-7.065L-2.344,-7.029L-2.352,-7.027L-2.796,-6.908L-2.864,-6.89L-3.189,-6.803L-3.367,-6.756L-3.466,-6.73L-2.343,-6.908L-2.057,-6.997L-0.422,-7.452L0.729,-7.851L1.061,-7.994L1.14,-8.028L1.205,-8.057L1.236,-8.072L2.373,-8.694L1.107,-8.083Z" style="fill:rgb(130,195,65);fill-rule:nonzero;"/>
                        </g>
                    </g>
                    <g>
                        <g opacity="0.7">
                            <g transform="matrix(1,0,0,1,637.97,885.704)">
                                <path d="M0,0L0.026,0.004L0.461,0.342L0.563,0.368L0.056,0.008L0.088,0.013L0.301,-0.019L-0.444,-0.368L-0.008,-0.001L0,0Z" style="fill:rgb(205,152,99);fill-rule:nonzero;"/>
                            </g>
                        </g>
                        <g opacity="0.7">
                            <g transform="matrix(1,0,0,1,643.708,884.755)">
                                <path d="M0,0.056L-0.331,-0.087L0.017,0.143L0,0.056Z" style="fill:rgb(205,152,99);fill-rule:nonzero;"/>
                            </g>
                        </g>
                        <g opacity="0.7">
                            <g transform="matrix(1,0,0,1,641.271,886.403)">
                                <path d="M-0.234,0.543L0.083,0.543L-0.313,0L-0.632,0.04L-0.234,0.543Z" style="fill:rgb(205,152,99);fill-rule:nonzero;"/>
                            </g>
                        </g>
                        <g opacity="0.7">
                            <g transform="matrix(0.894427,-0.447214,-0.447214,-0.894427,637.98,885.038)">
                                <path d="M-0.014,-0.063L0.219,-0.063L-0.484,0.091L-0.468,0.042L-0.014,-0.063Z" style="fill:rgb(205,152,99);fill-rule:nonzero;"/>
                            </g>
                        </g>
                        <g opacity="0.7">
                            <g transform="matrix(1,0,0,1,643.604,884.758)">
                                <path d="M0,-0.054L-0.227,-0.089L0.098,0.035L0,-0.054Z" style="fill:rgb(205,152,99);fill-rule:nonzero;"/>
                            </g>
                        </g>
                        <g opacity="0.7">
                            <g transform="matrix(1,0,0,1,645.089,885.711)">
                                <path d="M0,-0.146L-0.244,1.024L-0.143,1.235L0.375,1.235L0.406,1.013L0.561,-0.161L0.245,-1.381L0,-0.146Z" style="fill:rgb(205,152,99);fill-rule:nonzero;"/>
                            </g>
                        </g>
                        <g opacity="0.7">
                            <g transform="matrix(0.823821,0.56685,0.56685,-0.823821,638.11,886.728)">
                                <path d="M-0.017,-0.095L0.247,-0.095L0.305,-0.055L0.122,-0.041L-0.017,-0.095Z" style="fill:rgb(205,152,99);fill-rule:nonzero;"/>
                            </g>
                        </g>
                        <g opacity="0.7">
                            <g transform="matrix(1,0,0,1,637.291,886.75)">
                                <path d="M0,-0.521L0.685,0L0.101,-0.495L0,-0.521Z" style="fill:rgb(205,152,99);fill-rule:nonzero;"/>
                            </g>
                        </g>
                        <g opacity="0.7">
                            <g transform="matrix(1,0,0,1,641.875,885.28)">
                                <path d="M-0.201,1.666L0.33,1.666L0.013,1.106L-0.514,0L-0.489,1.067L-0.201,1.666Z" style="fill:rgb(205,152,99);fill-rule:nonzero;"/>
                            </g>
                        </g>
                        <g opacity="0.7">
                            <g transform="matrix(1,0,0,1,664.621,888.126)">
                                <path d="M0,0.045L-0.75,0L-0.328,0.037L0,0.045Z" style="fill:rgb(205,152,99);fill-rule:nonzero;"/>
                            </g>
                        </g>
                        <g opacity="0.7">
                            <g transform="matrix(1,0,0,1,648.127,885.016)">
                                <path d="M0,0.046L0.317,-0.007L-0.209,0.053L0,0.046Z" style="fill:rgb(205,152,99);fill-rule:nonzero;"/>
                            </g>
                        </g>
                        <g opacity="0.7">
                            <g transform="matrix(1,0,0,1,664.93,888.098)">
                                <path d="M0,0.076L0.125,0.081L0.12,0.072L0.117,0.068L-1.219,-0.005L-1.059,0.028L0,0.076Z" style="fill:rgb(205,152,99);fill-rule:nonzero;"/>
                            </g>
                        </g>
                        <g opacity="0.7">
                            <g transform="matrix(1,0,0,1,639.753,886.586)">
                                <path d="M0,0.36L0.329,0.36L0.066,0L-0.253,0.04L-0.009,0.348L0,0.36Z" style="fill:rgb(205,152,99);fill-rule:nonzero;"/>
                            </g>
                        </g>
                        <g transform="matrix(-1,0,0,1,1185.31,-6539.95)">
                            <rect x="591.701" y="7430.71" width="1.904" height="36.801" style="fill:rgb(205,152,99);"/>
                        </g>
                        <g transform="matrix(1,0,0,1,595.508,890.753)">
                            <path d="M0,-3.807L-3.807,0L-1.904,0L0,-3.807Z" style="fill:rgb(205,152,99);fill-rule:nonzero;"/>
                        </g>
                        <g transform="matrix(1,0,0,1,660.862,886.946)">
                            <path d="M0,3.807L1.903,3.807L-1.904,0L0,3.807Z" style="fill:rgb(205,152,99);fill-rule:nonzero;"/>
                        </g>
                        <g transform="matrix(1,0,0,1,650.075,927.554)">
                            <path d="M0,20.304L12.69,0L10.787,0L0,20.304Z" style="fill:rgb(205,152,99);fill-rule:nonzero;"/>
                        </g>
                        <g transform="matrix(0.469138,0.883125,0.883125,-0.469138,620.422,903.245)">
                            <path d="M8.887,-35.087L31.878,-35.087L53.31,5.257L40.439,24.309L8.887,-35.087Z" style="fill:rgb(205,152,99);fill-rule:nonzero;"/>
                        </g>
                        <g transform="matrix(0,-1,-1,0,599.315,885.043)">
                            <path d="M-5.711,-1.903L-1.903,-1.903L-1.903,3.807L-5.711,5.711L-5.711,-1.903Z" style="fill:rgb(205,152,99);fill-rule:nonzero;"/>
                        </g>
                        <g transform="matrix(1,0,0,1,0,-6539.95)">
                            <rect x="660.862" y="7430.71" width="1.903" height="36.801" style="fill:rgb(205,152,99);"/>
                        </g>
                        <g transform="matrix(1,0,0,1,591.701,947.858)">
                            <path d="M0,-20.304L12.69,0L1.904,-20.304L0,-20.304Z" style="fill:rgb(205,152,99);fill-rule:nonzero;"/>
                        </g>
                        <g transform="matrix(-0.707107,0.707107,0.707107,0.707107,594.951,890.195)">
                            <path d="M-1.346,-3.249L1.347,-3.249L2.692,-1.904L-2.692,-1.903L-1.346,-3.249Z" style="fill:rgb(205,152,99);fill-rule:nonzero;"/>
                        </g>
                        <g transform="matrix(1,0,0,1,651.344,927.554)">
                            <path d="M0,-38.704L-48.222,-38.704L-50.126,-36.801L-57.74,-36.801L-57.74,0L9.518,0L9.518,-36.801L1.967,-36.801L0,-38.704Z" style="fill:rgb(205,152,99);fill-rule:nonzero;"/>
                        </g>
                        <g transform="matrix(0.707107,0.707107,0.707107,-0.707107,660.862,886.158)">
                            <path d="M-0.788,-1.904L4.595,-1.904L3.25,-0.558L0.558,-0.557L-0.788,-1.904Z" style="fill:rgb(205,152,99);fill-rule:nonzero;"/>
                        </g>
                        <g transform="matrix(0,-1,-1,0,654.231,887.866)">
                            <path d="M-2.887,0.92L0.92,0.92L0.92,2.887L-0.984,2.887L-2.887,0.92Z" style="fill:rgb(205,152,99);fill-rule:nonzero;"/>
                        </g>
                        <g transform="matrix(-0.447308,-0.89438,-0.89438,0.447308,657.1,884.622)">
                            <path d="M-7.167,-0.622L-2.91,-0.622L-0.384,4.429L-3.789,6.132L-7.167,-0.622Z" style="fill:rgb(205,152,99);fill-rule:nonzero;"/>
                        </g>
                        <g transform="matrix(-1,0,0,1,1254.47,-6582.46)">
                            <rect x="603.122" y="7469.41" width="48.222" height="1.904" style="fill:rgb(205,152,99);"/>
                        </g>
                        <g transform="matrix(0,-1,-1,0,602.171,887.897)">
                            <path d="M-0.952,-0.952L0.952,-0.952L0.952,0.952L-2.855,0.952L-0.952,-0.952Z" style="fill:rgb(205,152,99);fill-rule:nonzero;"/>
                        </g>
                    </g>
                    <g opacity="0.7">
                        <g transform="matrix(1,0,0,1,643.623,882.361)">
                            <path d="M0,-0.2L-0.014,-0.195L-0.584,0.046L0.147,-0.246L0.03,-0.209L0,-0.2Z" style="fill:rgb(68,114,37);fill-rule:nonzero;"/>
                        </g>
                    </g>
                    <g opacity="0.7">
                        <g transform="matrix(0.984707,0.174217,0.174217,-0.984707,643.618,884)">
                            <path d="M0.004,-0.019L0.268,-0.019L0.365,0.113L-0.155,-0.023L0.004,-0.019Z" style="fill:rgb(68,114,37);fill-rule:nonzero;"/>
                        </g>
                    </g>
                    <g opacity="0.7">
                        <g transform="matrix(1,0,0,1,673.742,881.079)">
                            <path d="M0,-0.062L-0.93,0L-0.466,-0.02L0,-0.062Z" style="fill:rgb(68,114,37);fill-rule:nonzero;"/>
                        </g>
                    </g>
                    <g opacity="0.7">
                        <g transform="matrix(1,0,0,1,665.857,880.369)">
                            <path d="M0,0.058L-0.323,0L-0.303,0.042L0,0.058Z" style="fill:rgb(68,114,37);fill-rule:nonzero;"/>
                        </g>
                    </g>
                    <g opacity="0.7">
                        <g transform="matrix(0.99196,0.126554,0.126554,-0.99196,669.003,880.758)">
                            <path d="M0.001,0.004L0.539,0.004L-0.597,0.021L-0.585,0.004L0.001,0.004Z" style="fill:rgb(68,114,37);fill-rule:nonzero;"/>
                        </g>
                    </g>
                    <g opacity="0.7">
                        <g transform="matrix(1,0,0,1,672.673,881.038)">
                            <path d="M0,-0.116L0.03,0L0.298,-0.091L0,-0.116Z" style="fill:rgb(68,114,37);fill-rule:nonzero;"/>
                        </g>
                    </g>
                    <g opacity="0.7">
                        <g transform="matrix(1,0,0,1,672.12,880.888)">
                            <path d="M0,-0.038L-0.886,-0.058L0.422,0.02L0,-0.038Z" style="fill:rgb(68,114,37);fill-rule:nonzero;"/>
                        </g>
                    </g>
                    <g opacity="0.7">
                        <g transform="matrix(1,0,0,1,669.621,880.61)">
                            <path d="M0,0.222L0.255,0.245L-1.243,-0.023L0,0.222Z" style="fill:rgb(68,114,37);fill-rule:nonzero;"/>
                        </g>
                    </g>
                    <g opacity="0.7">
                        <g transform="matrix(1,0,0,1,649.526,870.044)">
                            <path d="M0,-0.214L-0.221,-0.006L0.096,0L0,-0.214Z" style="fill:rgb(68,114,37);fill-rule:nonzero;"/>
                        </g>
                    </g>
                    <g opacity="0.7">
                        <g transform="matrix(-0.95341,0.301676,0.301676,0.95341,673.876,863.001)">
                            <path d="M0.132,-0.101L0.484,-0.101L0.473,0.072L-0.385,-0.134L0.132,-0.101Z" style="fill:rgb(68,114,37);fill-rule:nonzero;"/>
                        </g>
                    </g>
                    <g opacity="0.7">
                        <g transform="matrix(-0.836048,0.548656,0.548656,0.836048,674.987,862.516)">
                            <path d="M-0.398,-0.131L-0.283,-0.131L0.039,-0.119L-0.17,-0.084L-0.398,-0.131Z" style="fill:rgb(68,114,37);fill-rule:nonzero;"/>
                        </g>
                    </g>
                    <g opacity="0.7">
                        <g transform="matrix(0.588938,0.808178,0.808178,-0.588938,618.183,857.057)">
                            <path d="M-0.066,-0.205L0.167,-0.205L0.404,-0.13L0.057,-0.183L-0.066,-0.205Z" style="fill:rgb(68,114,37);fill-rule:nonzero;"/>
                        </g>
                    </g>
                    <g opacity="0.7">
                        <g transform="matrix(1,0,0,1,641.787,881.951)">
                            <path d="M0,-0.105L0.05,-0.091L0.245,-0.019L0.856,0.052L-0.129,-0.157L0,-0.105Z" style="fill:rgb(68,114,37);fill-rule:nonzero;"/>
                        </g>
                    </g>
                    <g opacity="0.7">
                        <g transform="matrix(1,0,0,1,642.958,882.003)">
                            <path d="M0,0.074L-0.315,0L-0.3,0.057L0,0.074Z" style="fill:rgb(68,114,37);fill-rule:nonzero;"/>
                        </g>
                    </g>
                    <g opacity="0.7">
                        <g transform="matrix(1,0,0,1,637.401,882.657)">
                            <path d="M0,-0.452L1.761,0L0.914,-0.236L0,-0.452Z" style="fill:rgb(68,114,37);fill-rule:nonzero;"/>
                        </g>
                    </g>
                    <g opacity="0.7">
                        <g transform="matrix(1,0,0,1,633.94,881.765)">
                            <path d="M0,0.139L0.002,0L-0.387,0.075L0,0.139Z" style="fill:rgb(68,114,37);fill-rule:nonzero;"/>
                        </g>
                    </g>
                    <g opacity="0.7">
                        <g transform="matrix(0.999824,0.0187467,0.0187467,-0.999824,627.782,879.693)">
                            <path d="M0,-0.004L0.48,-0.004L0.056,0.032L0.009,0.001L0,-0.004Z" style="fill:rgb(68,114,37);fill-rule:nonzero;"/>
                        </g>
                    </g>
                </g>
            </g>
        </g>
    </g>
</svg>
