<?xml version="1.0" encoding="UTF-8" standalone="no"?>
<!DOCTYPE svg PUBLIC "-//W3C//DTD SVG 1.1//EN" "http://www.w3.org/Graphics/SVG/1.1/DTD/svg11.dtd">
<svg width="100%" height="100%" viewBox="0 0 108 241" version="1.1" xmlns="http://www.w3.org/2000/svg" xmlns:xlink="http://www.w3.org/1999/xlink" xml:space="preserve" xmlns:serif="http://www.serif.com/" style="fill-rule:evenodd;clip-rule:evenodd;stroke-linejoin:round;stroke-miterlimit:2;">
    <g id="Artboard1" transform="matrix(1,0,0,1,17.4709,59.2733)">
        <rect x="-17.471" y="-59.273" width="107.558" height="240.916" style="fill:none;"/>
        <g transform="matrix(1,0,0,1,-3670.09,-790.708)">
            <g id="biker-02-inbound">
                <g>
                    <g transform="matrix(1,0,0,1,3714.37,831.673)">
                        <path d="M0,-2.963L-0.06,-3.298L-0.264,-1.935L-0.275,-1.866L-0.162,-1.618L-0.127,-1.539L0.233,-0.738L0.758,-0.079L1.784,0.335L0.853,-0.197L0.335,-0.947L0.092,-2.404L0.021,-2.834L0,-2.963Z" style="fill:rgb(120,71,34);fill-rule:nonzero;"/>
                    </g>
                    <g transform="matrix(1,0,0,1,3715.08,828.666)">
                        <path d="M0,-4.265L-0.063,-4.307L-0.162,-4.308L-0.292,-3.449L-0.374,-2.896L-0.765,-0.307L-0.765,-0.3L-0.768,-0.296L-0.768,-0.292L-0.708,0.043L-0.673,-0.022L-0.663,-0.038L-0.522,-0.293L-0.451,-0.62L-0.197,-1.833L-0.039,-2.593L0.021,-2.885L0.631,-4.01L0.55,-4.265L0,-4.265Z" style="fill:rgb(120,71,34);fill-rule:nonzero;"/>
                    </g>
                    <g transform="matrix(1,0,0,1,3715.63,825.329)">
                        <path d="M0,-0.928L0.081,-0.673L-0.24,0L0.396,-0.851L0.303,-0.928L0,-0.928Z" style="fill:rgb(120,71,34);fill-rule:nonzero;"/>
                    </g>
                    <g transform="matrix(1,0,0,1,3701.83,826.682)">
                        <path d="M0,-2.295L-0.532,-2.29L-0.546,-2.24L-0.491,-1.665L-0.455,-1.274L-0.335,0.001L-0.053,-1.264L0.325,-2.296L0,-2.295Z" style="fill:rgb(120,71,34);fill-rule:nonzero;"/>
                    </g>
                    <g transform="matrix(1,0,0,1,3714.89,827.57)">
                        <path d="M0,-3.212L-0.01,-3.197L0,-3.212L-0.585,-3.215L-0.755,-3.213L-0.529,-1.808L-0.563,0.052L-0.232,-1.801L-0.211,-1.915L-0.169,-2.196L-0.211,-1.915L0.025,-3.212L0.031,-3.264L0,-3.212Z" style="fill:rgb(120,71,34);fill-rule:nonzero;"/>
                    </g>
                    <g transform="matrix(1,0,0,1,3699.95,825.635)">
                        <path d="M0,0.067L0.141,0.091L0.162,0.093L0.25,0.106L0.405,0.176L0.518,0.508L1.015,1.991L1.089,-0.237L1.191,-0.369L1.177,-0.583L1.135,-1.234L0.264,-1.234L0.021,-1.481L-0.039,-1.41L-0.018,-1.521L-0.413,-1.924L-0.441,-1.899L-0.68,-1.693L-0.113,-0.226L-0.085,-0.154L0,0.067Z" style="fill:rgb(120,71,34);fill-rule:nonzero;"/>
                    </g>
                    <g transform="matrix(1,0,0,1,3700.98,828.141)">
                        <path d="M0,1.87L0.05,1.694L0.173,1.211L0.233,0.983L0.219,-0.132L0.317,-0.584L0.173,-2.74L0.06,-2.743L-0.014,-0.515L-0.017,-0.454L-0.017,-0.414L-0.024,-0.232L-0.028,-0.139L-0.141,0.738L-0.144,0.777L-0.197,1.198L-0.225,1.398L-0.275,1.78L-0.402,2.784L-0.409,2.841L-0.419,2.912L-0.458,3.235L-0.479,3.269L-0.962,4.076L-2.146,4.613L-0.909,4.232L-0.409,3.447L-0.405,3.424L-0.292,2.999L0,1.87Z" style="fill:rgb(120,71,34);fill-rule:nonzero;"/>
                    </g>
                    <g transform="matrix(1,0,0,1,3723.18,884.91)">
                        <path d="M0,0.164L0.05,0.581L0.028,-0.417L0,0.164Z" style="fill:rgb(66,76,160);fill-rule:nonzero;"/>
                    </g>
                    <g transform="matrix(1,0,0,1,3726.8,922.987)">
                        <path d="M0,-37.82L-1.036,-37.784L-1.079,-38.47L-1.086,-38.572L-1.096,-38.676L-1.424,-38.558L-1.646,-38.59L-2.133,-38.659L-2.115,-38.457L-2.327,-38.588L-2.327,-38.545L-2.337,-38.207L-2.355,-37.523L-2.753,-37.316L-3.137,-37.301L-3.158,-37.3L-3.567,-37.496L-3.617,-37.912L-3.641,-38.603L-3.726,-38.599L-3.941,-39.067L-5.023,-39.011L-5.742,-38.973L-5.725,-38.627L-7.269,-38.546L-7.272,-38.543L-7.262,-38.333L-7.487,-38.321L-9.021,-38.241L-9.049,-38.778L-9.147,-38.766L-12.323,-38.39L-14.946,-38.079L-15.246,-38.044L-15.556,-38.007L-16.508,-37.894L-17.11,-37.823L-17.086,-37.392L-17.942,-37.348L-18.32,-37.328L-19.021,-37.291L-18.996,-36.835L-18.45,-36.863L-18.295,-36.871L-17.692,-36.903L-17.576,-36.909L-17.28,-36.854L-16.835,-36.643L-16.712,-36.574L-16.293,-35.89L-16.198,-35.378L-15.771,-33.471L-15.711,-33.206L-15.961,-32.025L-15.196,-31.352L-14.823,-31.024L-14.654,-30.874L-13.987,-30.289L-8.411,-29.181L-8.023,-29.152L-8.023,-30.475L-8.235,-31.215L-8.358,-31.657L-8.841,-33.358L-8.855,-33.411L-9.094,-36.671L-8.855,-33.411L-8.841,-33.358L-8.358,-31.657L-8.235,-31.215L-8.023,-30.475L-8.023,-29.152L-8.027,-20.778L-7.935,-2.084L-8.362,1.247L-7.572,1.005L-6.789,0.766L-6.338,0.629L-6.204,0.588L-5.51,0.375L-5.231,0.318L-5.044,0.28L-3.941,0.054L-3.515,-0.034L-3.437,-0.049L-3.144,0.002L-2.133,0.177L-1.985,0.203L-1.562,0.276L-1.297,0.429L-1.128,0.527L-0.261,1.03L-0.194,1.068L0.194,-2.195L2.157,-21.142L2.732,-30.013L2.425,-32.949L-0.705,-35.781L0,-37.82Z" style="fill:rgb(66,76,160);fill-rule:nonzero;"/>
                    </g>
                    <g transform="matrix(1,0,0,1,3725.76,884.516)">
                        <path d="M0,0.686L-0.014,0.235L-0.043,0L0,0.686Z" style="fill:rgb(66,76,160);fill-rule:nonzero;"/>
                    </g>
                    <g transform="matrix(1,0,0,1,3704.75,886.294)">
                        <path d="M0,-0.44L-0.261,-0.426L-0.395,0.039L0.024,0.017L0.232,0.006L0.779,-0.023L0.758,-0.479L0,-0.44Z" style="fill:rgb(66,76,160);fill-rule:nonzero;"/>
                    </g>
                    <g transform="matrix(1,0,0,1,3686.77,925.87)">
                        <path d="M0,-21.151L0.286,-15.284L1.519,-10.001L2.394,0.918L4.938,18.952L5.111,18.989L5.46,19.063L6.38,19.26L6.754,19.34L6.913,19.3L7.473,19.159L8.513,18.897L8.753,18.836L8.844,18.78L9.634,18.309L9.694,18.274L9.768,18.229L10.166,17.99L10.286,17.919L10.483,17.802L11.608,14.904L10.579,-1.317L9.697,-8.477L10.349,-15.434L10.987,-19.346L13.797,-27.338L14.741,-30.298L14.837,-30.597L14.393,-30.71L14.001,-31.119L13.962,-31.817L14.287,-32.231L15.21,-32.571L15.478,-32.607L16.211,-34.894L16.405,-35.511L16.543,-35.937L16.571,-36.026L16.652,-36.279L17.001,-37.5L16.913,-38.416L17.072,-39.13L17.459,-39.531L17.583,-39.537L17.717,-40.002L16.969,-39.963L16.8,-39.954L16.779,-40.385L13.162,-40.432L12.457,-40.441L12.077,-40.447L8.661,-40.491L8.689,-39.954L6.93,-39.862L6.916,-40.074L6.296,-40.042L5.372,-39.993L5.351,-40.34L3.553,-40.245L3.384,-39.757L3.299,-39.752L3.349,-39.063L3.345,-38.787L3.345,-38.644L2.958,-38.406L2.563,-38.38L1.78,-35.213L0.486,-29.95L0,-21.151Z" style="fill:rgb(66,76,160);fill-rule:nonzero;"/>
                    </g>
                    <g transform="matrix(1,0,0,1,3702.87,891.188)">
                        <path d="M0,1.863L0.102,1.676L0.173,1.542L0.455,1.019L0.483,0.968L0.444,0.876L0.109,-0.212L-0.624,2.075L-0.074,2L0,1.863Z" style="fill:rgb(66,76,160);fill-rule:nonzero;"/>
                    </g>
                    <g transform="matrix(1,0,0,1,3720.43,880.121)">
                        <path d="M0,-1.455L-1.762,-1.769L0,-1.455L-0.088,-1.588L-1.294,-3.881L-1.456,-4.428L-1.914,-4.156L-2.281,-3.939L-2.81,-4.031L-3.437,-4.141L-5.157,-4.442L-5.182,-4.441L-10.519,-4.161L-10.547,-4.16L-14.294,-3.963L-14.322,-3.962L-18.073,-3.766L-18.097,-3.764L-23.434,-3.485L-23.462,-3.483L-25.785,-3.361L-25.81,-3.36L-25.828,-3.379L-27.019,-3.901L-27.023,-3.883L-27.04,-3.793L-27.269,-2.519L-28.228,-0.113L-29.272,2.31L-28.919,2.31L-28.123,2.269L-27.795,2.356L-27.516,2.649L-26.906,2.618L-26.917,2.405L-26.515,2.384L-26.437,2.326L-26.328,2.374L-25.158,2.313L-25.13,2.88L-21.464,2.928L-19.969,2.948L-17.875,2.975L-17.012,2.987L-17.019,2.83L-16.434,2.799L-16.222,2.788L-13.973,2.67L-11.728,2.552L-11.111,2.52L-10.878,2.508L-10.868,2.665L-7.812,2.303L-4.766,1.942L-3.895,1.839L-2.841,1.714L-2.806,1.71L-2.834,1.143L-1.717,1.084L-1.079,1.051L-1.065,1.263L-0.455,1.231L-0.212,0.91L0.106,0.789L0.243,0.782L0.906,0.747L1.942,0.638L2.337,-0.42L2.358,-0.478L1.512,-1.185L0,-1.455Z" style="fill:rgb(66,76,160);fill-rule:nonzero;"/>
                    </g>
                    <g transform="matrix(1,0,0,1,3727.02,884.548)">
                        <path d="M0,-0.847L-0.004,-0.681L-0.01,0.008L0.254,-0.754L0.141,-0.855L0,-0.847Z" style="fill:rgb(66,76,160);fill-rule:nonzero;"/>
                    </g>
                    <g transform="matrix(1,0,0,1,3702.51,811.841)">
                        <path d="M0,10.039L4.089,9.843L8.774,9.843L12.32,10.039L14.276,9.585L14.516,7.966L13.416,5.541L12.792,4.494L10.892,3.379L10.511,2.716L10.307,2.035L9.856,1.607L8.576,0.949L6.631,0L5.125,0.025L3.624,0L1.262,0.949L0.589,1.434L0.448,1.708L0.423,1.74L0.219,2.035L-0.085,2.624L-0.088,2.632L-0.092,2.642L-0.472,3.379L-0.092,2.642L-0.088,2.632L-0.085,2.624L-1.953,3.583L-2.164,3.945L-2.443,4.14L-3.328,5.541L-4.512,7.966L-2.792,9.585L0,10.039Z" style="fill:rgb(66,76,160);fill-rule:nonzero;"/>
                    </g>
                    <g transform="matrix(1,0,0,1,3724.94,880.06)">
                        <path d="M0,0.405L0.095,0.392L0.077,0L0,0.405Z" style="fill:rgb(242,211,173);fill-rule:nonzero;"/>
                    </g>
                    <g transform="matrix(1,0,0,1,3734.06,870.849)">
                        <path d="M0,-0.283L0.416,-3.157L0.257,-5.151L-0.419,-6.942L-2.831,-13.01L-4.91,-14.256L-7.526,-14.119L-9.447,-11.822L-9.172,-10.153L-5.83,-3.6L-5.806,-3.67L-5.27,-5.182L-5.806,-3.67L-5.83,-3.6L-9.123,5.702L-10.801,7.55L-11.266,8.794L-11.287,8.852L-11.682,9.91L-11.65,9.906L-10.991,9.837L-10.868,9.824L-10.801,9.186L-10.85,9.822L-10.349,9.769L-10.088,9.741L-9.884,9.715L-9.115,9.616L-9.038,9.212L-9.021,9.604L-8.964,9.597L-8.301,9.511L-7.956,9.467L-7.046,9.35L-7.046,9.245L-7.036,9.348L-6.423,9.204L-6.14,9.138L-5.971,9.098L-5.672,9.027L-4.97,8.862L-4.769,8.815L-4.752,8.85L-4.723,8.917L-4.72,8.955L-4.709,8.994L-4.716,9.042L-4.678,9.788L-4.843,9.827L-5.418,9.962L-5.428,9.964L-5.323,10.392L-5.08,11.402L-5.076,11.237L-5.069,11.4L-5.069,11.41L-5.037,12.072L-5.012,12.52L-4.995,12.878L-4.995,13.973L-4.72,13.958L-4.329,13.935L-4.054,13.919L-3.906,12.813L-3.909,12.689L-3.923,12.36L-3.969,11.506L-3.99,11.059L-4.036,8.963L-4.223,8.064L-4.336,7.869L-4.928,6.848L-4.336,7.869L-4.04,7.074L0,-0.283Z" style="fill:rgb(242,211,173);fill-rule:nonzero;"/>
                    </g>
                    <g transform="matrix(0,-1,-1,0,3731.09,880.837)">
                        <path d="M-1.071,1.025L-0.334,1.025L0.216,1.029L1.025,1.071L-1.071,1.025Z" style="fill:rgb(242,211,173);fill-rule:nonzero;"/>
                    </g>
                    <g transform="matrix(1,0,0,1,3725.57,884.425)">
                        <path d="M0,-0.648L-0.448,-0.624L-1.079,-0.591L-1.083,-0.513L-1.093,-0.246L-1.097,-0.093L-0.92,-0.099L-0.906,-0.098L-0.42,-0.028L-0.198,0.004L0.131,-0.114L0.127,-0.176L0.077,-0.652L0,-0.648Z" style="fill:rgb(242,211,173);fill-rule:nonzero;"/>
                    </g>
                    <g transform="matrix(0.419058,0.907959,0.907959,-0.419058,3723.15,883.914)">
                        <path d="M-0.119,-0.269L0.397,-0.269L0.381,-0.167L-0.012,-0.004L-0.119,-0.269Z" style="fill:rgb(242,211,173);fill-rule:nonzero;"/>
                    </g>
                    <g transform="matrix(1,0,0,1,3724.48,882.982)">
                        <path d="M0,1.196L0.01,0.929L0.014,0.851L0.053,-0.336L0.056,-0.379L0.056,-0.423L0.264,-1.508L-0.13,-1.456L-0.419,-1.42L-1.082,-1.349L-1.35,-1.321L-1.389,-1.317L-1.48,-0.404L-1.463,-0.257L-1.34,0.894L-1.435,-0.198L-1.329,0.894L-1.325,0.921L-1.287,1.323L-1.29,1.325L-1.287,1.323L-1.336,0.922L-1.322,1.348L-1.322,1.402L-1.297,2.092L-1.269,1.511L-1.248,2.509L-0.839,2.704L-0.818,2.704L-0.434,2.689L-0.035,2.482L-0.018,1.797L-0.007,1.459L-0.007,1.416L-0.003,1.35L0,1.196Z" style="fill:rgb(242,211,173);fill-rule:nonzero;"/>
                    </g>
                    <g transform="matrix(-0.189149,0.981948,0.981948,0.189149,3725.24,882.184)">
                        <path d="M-0.603,-0.617L0.502,-0.617L0.545,-0.608L-0.639,-0.507L-0.603,-0.617Z" style="fill:rgb(242,211,173);fill-rule:nonzero;"/>
                    </g>
                    <g transform="matrix(1,0,0,1,3727.02,882.684)">
                        <path d="M0,1.017L0.01,-0.053L0.01,-0.169L-0.004,-1.354L-0.004,-1.502L-0.546,-1.433L-1.364,-1.327L-1.738,-1.279L-1.805,-1.27L-1.847,-1.265L-1.844,-1.257L-1.703,-0.502L-1.488,-0.014L-1.403,0.814L-1.375,1.089L-1.325,1.565L-1.322,1.627L-1.311,1.73L-1.301,1.829L-1.301,1.833L-1.276,2.067L-1.262,2.519L-0.226,2.483L-0.046,2.477L-0.014,2.011L-0.011,1.872L-0.004,1.183L0,1.017Z" style="fill:rgb(242,211,173);fill-rule:nonzero;"/>
                    </g>
                    <g transform="matrix(1,0,0,1,3728.7,883.612)">
                        <path d="M0,-1.322L0.011,-1.63L-0.067,-2.366L-0.109,-2.788L-0.419,-2.715L-1.28,-2.513L-1.579,-2.443L-1.484,-1.527L-1.477,-1.366L-1.477,-1.354L-1.466,-1.107L-1.456,-0.956L-1.403,0.075L-1.396,0.21L-1.357,0.968L-1.308,1.466L-0.885,1.462L-0.479,1.462L-0.479,1.459L-0.479,1.462L-0.409,1.461L-0.092,1.456L-0.095,0.947L-0.056,0.005L-0.007,-1.183L0,-1.322Z" style="fill:rgb(242,211,173);fill-rule:nonzero;"/>
                    </g>
                    <g transform="matrix(1,0,0,1,3727.1,882.245)">
                        <path d="M0,-1.074L0.014,-0.921L0.106,0.001L0.11,-0.161L0.008,-1.075L0,-1.074Z" style="fill:rgb(242,211,173);fill-rule:nonzero;"/>
                    </g>
                    <g transform="matrix(1,0,0,1,3714.06,831.294)">
                        <path d="M0,-1.202L-0.042,-0.916L-0.127,-0.366L-0.226,0.285L-0.085,0.175L0.07,-0.695L0.155,-1.239L0.042,-1.487L0,-1.202Z" style="fill:rgb(242,211,173);fill-rule:nonzero;"/>
                    </g>
                    <g transform="matrix(1,0,0,1,3714.63,828.057)">
                        <path d="M0,-0.01L-0.071,0.317L-0.212,0.572L-0.236,0.781L-0.166,1.212L0.145,-0.006L0.254,-1.222L0,-0.01Z" style="fill:rgb(242,211,173);fill-rule:nonzero;"/>
                    </g>
                    <g transform="matrix(1,0,0,1,3687.79,882.016)">
                        <path d="M0,0.389L0.099,0.392L-0.018,-0.003L0,0.389Z" style="fill:rgb(242,211,173);fill-rule:nonzero;"/>
                    </g>
                    <g transform="matrix(0.129924,0.991524,0.991524,-0.129924,3684.18,886.096)">
                        <path d="M-0.021,-0.052L0.418,-0.052L-0.152,-0.031L-0.379,-0.024L-0.021,-0.052Z" style="fill:rgb(242,211,173);fill-rule:nonzero;"/>
                    </g>
                    <g transform="matrix(0.10166,0.994819,0.994819,-0.10166,3683.08,883.265)">
                        <path d="M-0.194,-0.257L0.357,-0.257L1.094,-0.255L-1.004,-0.217L-0.194,-0.257Z" style="fill:rgb(242,211,173);fill-rule:nonzero;"/>
                    </g>
                    <g transform="matrix(1,0,0,1,3683.47,883.005)">
                        <path d="M0,-0.904L-0.02,-0.834L-0.02,-0.796L-0.016,-0.762L-0.016,-0.748L-0.014,-0.709L0.025,0.037L0.047,-0.344L0.015,-0.941L0,-0.904Z" style="fill:rgb(242,211,173);fill-rule:nonzero;"/>
                    </g>
                    <g transform="matrix(1,0,0,1,3684.09,860.925)">
                        <path d="M0,24.351L-0.039,23.689L-0.039,23.679L-0.046,23.516L-0.028,23.679L0.109,22.65L0.169,22.213L0.158,22.213L-0.427,22.138L-0.596,22.117L-0.635,21.371L-0.649,21.324L-0.642,21.283L-0.642,21.245L-0.621,21.176L-0.606,21.139L-0.402,21.165L0.314,21.256L0.617,21.295L0.79,21.317L1.079,21.353L1.706,21.433L1.706,21.329L1.713,21.433L2.633,21.455L2.979,21.463L3.645,21.478L3.701,21.48L3.683,21.088L3.8,21.482L4.575,21.5L4.78,21.505L5.548,21.505L5.432,20.877L5.562,21.505L5.689,21.505L6.352,21.506L6.384,21.506L5.259,19.251L3.398,17.589L0.353,8.938L0.331,8.881L-0.271,7.167L0.331,8.881L0.353,8.938L3.088,1.815L3.187,0.127L1.036,-1.957L-1.579,-1.82L-3.518,-0.363L-5.281,5.924L-5.767,7.775L-5.714,9.775L-5.002,12.59L-1.512,19.485L-1.135,20.244L-0.656,19.166L-1.135,20.244L-1.227,20.449L-1.322,21.364L-1.146,23.452L-1.121,23.9L-1.079,24.754L-1.058,25.082L-1.047,25.206L-0.786,26.29L-0.511,26.277L-0.508,26.308L-0.116,26.272L-0.116,26.259L0.155,26.246L0.092,25.606L0.088,25.598L0.088,25.592L0.042,25.157L0.025,24.799L0,24.351Z" style="fill:rgb(242,211,173);fill-rule:nonzero;"/>
                    </g>
                    <g transform="matrix(1,0,0,1,3685.82,885.837)">
                        <path d="M0,-1.162L-0.014,-1.409L-0.018,-1.421L-0.024,-1.582L-0.028,-2.502L-0.331,-2.541L-1.209,-2.652L-1.526,-2.693L-1.526,-2.267L-1.523,-1.528L-1.48,-1.223L-1.459,-1.086L-1.287,0.091L-1.149,1.024L-1.1,1.531L0.113,1.413L0.109,0.913L0.06,0.02L0.007,-1.011L0,-1.162Z" style="fill:rgb(242,211,173);fill-rule:nonzero;"/>
                    </g>
                    <g transform="matrix(1,0,0,1,3685.8,884.416)">
                        <path d="M0,-1.08L-0.004,-0.161L0.014,0L0.01,-0.925L0.01,-1.08L0,-1.08Z" style="fill:rgb(242,211,173);fill-rule:nonzero;"/>
                    </g>
                    <g transform="matrix(-0.138196,-0.990405,-0.990405,0.138196,3688.81,883.645)">
                        <path d="M-0.797,0.41L-0.753,0.41L0.337,0.582L0.357,0.693L-0.797,0.41Z" style="fill:rgb(242,211,173);fill-rule:nonzero;"/>
                    </g>
                    <g transform="matrix(1,0,0,1,3690.11,883.655)">
                        <path d="M0,3.571L0,3.427L0.004,3.152L-0.046,2.463L-0.046,2.454L-0.049,2.409L-0.077,1.984L-0.084,2.577L-0.099,0.86L-0.081,1.957L-0.077,0.799L-0.077,0.65L-0.264,-0.248L-1.237,-0.248L-1.526,-0.255L-1.928,-0.264L-1.607,0.792L-1.6,0.836L-1.593,0.878L-1.431,2.055L-1.417,2.133L-1.382,2.397L-1.361,2.549L-1.346,2.657L-1.213,3.672L-0.793,3.835L-0.782,3.835L-0.388,3.809L0,3.571Z" style="fill:rgb(242,211,173);fill-rule:nonzero;"/>
                    </g>
                    <g transform="matrix(1,0,0,1,3687.53,884.856)">
                        <path d="M0,0.915L0,0.639L-0.003,-0.194L0,0.639L0.109,-0.276L0.159,-0.701L0.222,-1.468L0.222,-1.475L0.183,-1.476L0.116,-1.478L-0.264,-1.487L-1.086,-1.506L-1.632,-1.519L-1.618,-1.371L-1.509,-0.191L-1.498,-0.076L-1.371,0.987L-1.255,1.974L-1.177,2.434L0.035,2.348L0.004,1.898L0.004,1.393L0,0.915Z" style="fill:rgb(242,211,173);fill-rule:nonzero;"/>
                    </g>
                    <g transform="matrix(1,0,0,1,3688.06,886.361)">
                        <path d="M0,-0.617L-0.448,-0.594L-0.529,-0.589L-0.525,-0.111L-0.525,-0.049L-0.187,0.033L0.521,-0.144L0.697,-0.157L0.677,-0.309L0.642,-0.573L0.628,-0.65L0,-0.617Z" style="fill:rgb(242,211,173);fill-rule:nonzero;"/>
                    </g>
                    <g transform="matrix(0.068077,0.99768,0.99768,-0.068077,3690.4,885.711)">
                        <path d="M-0.096,-0.356L0.33,-0.356L0.384,-0.271L-0.091,-0.07L-0.096,-0.356Z" style="fill:rgb(242,211,173);fill-rule:nonzero;"/>
                    </g>
                    <g transform="matrix(1,0,0,1,3710.61,835.398)">
                        <path d="M0,1.517L0.86,0.496L0.938,0.404L1.333,-0.07L1.488,-0.55L0.659,0.463L0.504,0.65L0.398,0.781L-0.374,1.432L-0.561,1.549L-1.378,2.067L-0.198,1.596L0,1.517Z" style="fill:rgb(242,211,173);fill-rule:nonzero;"/>
                    </g>
                    <g transform="matrix(1,0,0,1,3713.39,830.228)">
                        <path d="M0,1.704L-0.02,1.778L-0.006,1.783L0.047,1.703L0.049,1.805L0.065,1.811L0.128,1.836L0.16,1.772L0.198,1.547L0.487,-0.048L0.48,-0.132L0,1.704Z" style="fill:rgb(242,211,173);fill-rule:nonzero;"/>
                    </g>
                    <g transform="matrix(0.999504,0.0314805,0.0314805,-0.999504,3706.9,837.819)">
                        <rect x="0" y="-0.014" width="0.906" height="0.032" style="fill:rgb(242,211,173);"/>
                    </g>
                    <g transform="matrix(1,0,0,1,3697.34,843.543)">
                        <path d="M0,-4.529L-0.592,-4.057L-0.765,-3.918L-0.719,-3.797L-0.137,-2.255L-0.014,-1.927L0.264,-1.28L0.747,-0.151L3.987,2.591L5.749,3.565L8.739,5.216L11.812,3.729L13.624,2.852L17.008,0.289L17.724,-0.771L18.147,-1.397L18.27,-1.658L18.975,-3.174L18.915,-3.249L18.714,-3.493L18.446,-3.819L17.375,-4.22L16.088,-4.701L15.468,-4.933L14.949,-5.127L14.953,-5.116L15.154,-4.652L14.953,-5.116L14.949,-5.127L14.41,-6.376L14.467,-7.796L14.322,-7.733L13.388,-6.507L13.328,-6.431L11.876,-5.866L10.927,-5.497L8.802,-5.497L7.804,-5.928L6.637,-6.431L6.479,-6.627L6.433,-6.73L6.021,-7.664L5.922,-7.884L5.562,-8.698L5.097,-9.15L4.854,-9.388L4.664,-9.574L4.702,-9.43L4.664,-9.574L4.487,-9.745L4.131,-7.506L3.007,-5.557L2.979,-5.508L0,-4.529Z" style="fill:rgb(242,211,173);fill-rule:nonzero;"/>
                    </g>
                    <g transform="matrix(1,0,0,1,3700.71,826.415)">
                        <path d="M0,3.506L0.049,3.124L0.077,2.924L0.13,2.503L0.116,2.377L0.07,2.904L0.116,2.377L-0.099,1.947L-0.173,1.802L-0.296,1.502L-0.444,1.14L-0.494,1.14L-0.532,0.923L-0.444,1.14L-0.296,1.502L-0.173,1.802L-0.099,1.947L0.116,2.377L0.134,2.464L0.247,1.587L0.25,1.495L0.257,1.312L0.257,1.272L0.261,1.211L-0.236,-0.272L-0.349,-0.603L-0.504,-0.674L-0.592,-0.687L-0.614,-0.688L-0.754,-0.713L-0.839,-0.934L-0.867,-1.005L-1.022,-0.683L-1.079,1.134L-1.019,1.225L-0.345,3.809L-0.127,4.511L0,3.506Z" style="fill:rgb(242,211,173);fill-rule:nonzero;"/>
                    </g>
                    <g transform="matrix(0.363622,0.931547,0.931547,-0.363622,3700.55,830.476)">
                        <path d="M-0.052,-0.16L0.481,-0.16L0.43,-0.134L-0.301,-0.082L-0.052,-0.16Z" style="fill:rgb(242,211,173);fill-rule:nonzero;"/>
                    </g>
                    <g transform="matrix(1,0,0,1,3701.22,831.428)">
                        <path d="M0,-2.304L-0.061,-2.076L-0.184,-1.594L-0.233,-1.418L-0.526,-0.288L-0.279,-0.106L-0.275,-0.098L-0.093,0.278L-0.057,0.273L0.147,0.238L0.172,0.232L0.306,0.735L0.391,1.049L0.422,1.116L0.401,0.787L0.373,0.369L0.254,-1.396L0.179,-2.471L-0.015,-3.42L0,-2.304Z" style="fill:rgb(242,211,173);fill-rule:nonzero;"/>
                    </g>
                    <g transform="matrix(1,0,0,1,3701.2,827.878)">
                        <path d="M0,0.131L0.152,0.451L0.131,0.132L0.113,-0.105L0.099,-0.32L0,0.131Z" style="fill:rgb(242,211,173);fill-rule:nonzero;"/>
                    </g>
                    <g transform="matrix(0.97891,-0.204294,-0.204294,-0.97891,3711.72,835.788)">
                        <path d="M-0.023,0.022L0.094,0.022L0.158,0.129L0.21,0.224L-0.023,0.022Z" style="fill:rgb(242,211,173);fill-rule:nonzero;"/>
                    </g>
                    <g transform="matrix(1,0,0,1,3720.67,923.624)">
                        <path d="M0,1.779L0.06,1.787L-0.004,1.372L-0.212,-0.008L-0.663,0.129L-1.445,0.368L-2.235,0.61L-1.343,1.213L0,1.779Z" style="fill:rgb(51,51,51);fill-rule:nonzero;"/>
                    </g>
                    <g transform="matrix(1,0,0,1,3725.5,924.963)">
                        <path d="M0,-1.547L-0.01,-1.082L-0.028,-0.097L0.166,0L0.948,-0.304L1.036,-0.946L0.169,-1.449L0,-1.547Z" style="fill:rgb(51,51,51);fill-rule:nonzero;"/>
                    </g>
                    <g transform="matrix(1,0,0,1,3729.32,880.039)">
                        <path d="M0,0.222L0.06,0.597L0.021,-0.148L0.021,-0.188L0.018,-0.202L0.018,-0.236L0.014,-0.274L-0.014,-0.34L-0.032,-0.375L0,0.222Z" style="fill:rgb(51,51,51);fill-rule:nonzero;"/>
                    </g>
                    <g transform="matrix(1,0,0,1,3702.19,834.587)">
                        <path d="M0,-0.433L0.243,-0.195L0.708,0.257L1.036,0.467L0.504,-0.086L0.243,-0.358L0.232,-0.369L-0.021,-0.63L-0.479,-0.9L-0.367,-0.79L-0.19,-0.618L0,-0.433Z" style="fill:rgb(51,51,51);fill-rule:nonzero;"/>
                    </g>
                    <g transform="matrix(1,0,0,1,3691.15,880.008)">
                        <path d="M0,2.423L0.007,2.423L1.051,0L0.638,0.938L0,2.423Z" style="fill:white;fill-rule:nonzero;"/>
                    </g>
                    <g transform="matrix(1,0,0,1,3685.12,845.265)">
                        <path d="M0,13.703L2.15,15.786L2.052,17.475L5.555,8.028L5.623,7.853L5.647,7.78L5.795,6.828L5.799,6.752L5.799,6.633L5.844,6.637L5.961,6.354L6.052,6.428L6.116,6.056L6.479,3.903L6.662,2.811L6.476,1.729L6.342,0.935L5.993,-1.112L5.834,-2.039L5.816,-2.154L5.697,-2.948L5.651,-3.259L5.577,-3.772L5.309,-3.651L5.03,-3.524L4.216,-3.151L1.879,0.253L1.287,1.001L-0.797,6.068L-1.861,8.879L-0.211,4.95L-1.861,8.879L-4.554,15.297L-2.615,13.84L0,13.703Z" style="fill:white;fill-rule:nonzero;"/>
                    </g>
                    <g transform="matrix(1,0,0,1,3691.71,890.656)">
                        <path d="M0,54.165L-2.545,36.132L-3.419,25.213L-4.653,19.93L-4.938,14.062L-4.452,5.264L-3.158,0L-5.534,7.838L-6.49,16.399L-5.654,20.981L-5.175,27.41L-4.533,34.393L-2.164,50.254L-1.332,53.223L-0.247,53.991L-0.24,53.997L0,54.165Z" style="fill:white;fill-rule:nonzero;"/>
                    </g>
                    <g transform="matrix(1,0,0,1,3727.81,888.751)">
                        <path d="M0,-3.67L-0.423,-3.673L-0.472,-4.171L-0.511,-4.929L-0.532,-4.957L-0.797,-4.195L-0.8,-4.055L-0.832,-3.59L-1.011,-3.584L-1.717,-1.545L1.414,1.287L1.336,-2.589L0.476,-3.678L0.406,-3.677L0,-3.67Z" style="fill:white;fill-rule:nonzero;"/>
                    </g>
                    <g transform="matrix(1,0,0,1,3703.32,954.511)">
                        <path d="M0,-7.799L-0.039,-8.54L-0.042,-8.611L-0.042,-8.615L-0.05,-8.701L-0.293,-8.926L-1.692,-8.853L-1.914,-8.603L-1.911,-8.518L-1.865,-7.693L-1.823,-6.892L-1.519,-1.098L-1.516,-1.018L-1.488,-0.444L-1.473,-0.193L-1.459,0.079L-1.445,0.332L-1.371,0.549L-1.435,0.552L-1.417,0.862L-1.17,1.127L0.229,1.054L0.448,0.764L0.43,0.454L0.37,0.458L0.419,0.235L0.405,-0.019L0.391,-0.291L0.381,-0.542L0.349,-1.116L0.345,-1.195L0.042,-6.99L0.035,-7.129L0,-7.791L0,-7.799Z" style="fill:white;fill-rule:nonzero;"/>
                    </g>
                    <g transform="matrix(1,0,0,1,3721.67,860.668)">
                        <path d="M0,-17.71L-0.028,-17.604L-0.247,-16.792L-0.282,-16.618L-0.335,-16.364L-0.561,-15.277L-1.086,-12.746L-1.244,-11.993L-1.28,-11.817L-1.48,-10.514L-1.703,-9.08L-1.71,-9.028L-1.77,-8.639L-1.766,-8.636L-1.396,-7.99L-1.163,-7.984L-1.001,-7.304L-0.853,-7.045L-0.776,-6.913L-0.695,-6.768L3.215,0.028L2.94,-1.641L4.861,-3.937L7.477,-4.075L9.556,-2.828L5.027,-9.967L4.008,-11.573L5.027,-9.967L4.706,-10.521L2.104,-15.343L0.553,-17.115L0.007,-17.738L0,-17.71Z" style="fill:white;fill-rule:nonzero;"/>
                    </g>
                    <g transform="matrix(1,0,0,1,3709.15,870.979)">
                        <path d="M0,-23.707L-3.074,-22.221L-6.063,-23.871L-7.826,-24.845L-11.065,-27.587L-9.969,-19.283L-9.221,-13.625L-9.221,-13.563L-9.25,-12.597L-9.299,-10.707L-9.285,-10.645L-9.144,-10.057L-8.894,-9.001L-8.636,-7.922L-8.612,-7.87L-7.452,-5.348L-7.406,-5.252L-3.084,3.88L-1.075,-4.988L-1.064,-5.039L0.335,-7.54L0.412,-7.626L1.396,-8.723L2.475,-9.925L2.838,-10.332L2.848,-10.375L3.507,-12.82L3.624,-13.249L3.627,-13.277L3.976,-16.366L5.196,-27.147L1.812,-24.584L0,-23.707Z" style="fill:white;fill-rule:nonzero;"/>
                    </g>
                    <g transform="matrix(1,0,0,1,3690.98,851.632)">
                        <path d="M0,0.272L0.06,0.277L0.155,0.285L0.173,0.183L0.099,-0.013L0,0.272Z" style="fill:white;fill-rule:nonzero;"/>
                    </g>
                    <g transform="matrix(1,0,0,1,3693.7,944.459)">
                        <path d="M0,12.784L4.075,12.571L6.43,12.299L6.222,11.767L6.126,11.531L5.831,10.77L5.742,10.552L5.584,10.144L5.104,8.927L5.133,9.878L4.939,10.154L4.653,8.986L3.508,6.304L4.04,5.666L4.082,4.288L4.191,3.091L3.976,1.925L3.955,1.357L4.706,3.709L5.259,6.472L5.534,3.34L3.553,-0.309L3.328,-0.386L3.546,1.047L2.845,1.998L1.068,2.292L-0.796,2.388L-2.623,2.281L-3.345,8.019L-3.299,12.887L-2.393,13.17L0,12.784Z" style="fill:white;fill-rule:nonzero;"/>
                    </g>
                    <g transform="matrix(1,0,0,1,3715.1,946.535)">
                        <path d="M0,-6.512L-0.01,-6.528L-0.257,-6.96L0.042,-1.256L0.046,-1.185L0.085,-0.444L0.12,0.225L0.123,0.315L0.37,0.541L1.77,0.467L1.988,0.217L1.604,-7.053L1.399,-6.585L0,-6.512Z" style="fill:white;fill-rule:nonzero;"/>
                    </g>
                    <g transform="matrix(1,0,0,1,3716.69,938.017)">
                        <path d="M0,1.01L-0.018,0.677L-0.028,0.484L-0.071,-0.341L-0.074,-0.42L-0.092,-0.73L-0.338,-0.995L-1.738,-0.922L-1.957,-0.633L-1.939,-0.323L-1.935,-0.243L-1.893,0.582L-1.882,0.774L-1.865,1.108L-1.791,1.324L-1.854,1.327L-1.84,1.558L-1.593,1.989L-1.583,2.005L-0.183,1.932L0.021,1.465L0.025,1.46L0.014,1.229L-0.049,1.232L0,1.01Z" style="fill:white;fill-rule:nonzero;"/>
                    </g>
                    <g transform="matrix(1,0,0,1,3700.58,831.451)">
                        <path d="M0,0.114L0.022,0.155L0.392,0.425L0.561,0.283L0.558,0.276L0.547,0.255L0.364,-0.121L0.36,-0.129L0.113,-0.311L0,0.114Z" style="fill:white;fill-rule:nonzero;"/>
                    </g>
                    <g transform="matrix(1,0,0,1,3713.91,831.944)">
                        <path d="M0.103,-0.365L-0.028,-0.365L-0.085,-0.307L-0.131,0L-0.028,-0.105L0.103,-0.365Z" style="fill:white;fill-rule:nonzero;"/>
                    </g>
                    <g transform="matrix(0.438835,0.898568,0.898568,-0.438835,3700.48,831.14)">
                        <path d="M0.013,-0.095L0.252,-0.095L0.232,-0.061L-0.041,0.115L0.013,-0.095Z" style="fill:white;fill-rule:nonzero;"/>
                    </g>
                    <g transform="matrix(1,0,0,1,3727.54,929.524)">
                        <path d="M0,1.482L-2.549,0L-2.584,0.034L0,1.482Z" style="fill:white;fill-rule:nonzero;"/>
                    </g>
                    <g transform="matrix(1,0,0,1,3721.68,929.284)">
                        <path d="M0,-4.423L-0.564,-4.076L-0.906,-3.866L-0.941,-3.796L-1.583,-2.464L-1.755,-0.757L-1.829,-0.01L-1.59,0.186L-1.399,0.395L-1.072,0.497L0.811,-4.92L0.617,-4.802L0,-4.423Z" style="fill:white;fill-rule:nonzero;"/>
                    </g>
                    <g transform="matrix(1,0,0,1,3719.45,928.528)">
                        <path d="M0,2.687L0.19,2.506L0.327,1.458L0.402,0.746L0.476,0L0,2.687Z" style="fill:white;fill-rule:nonzero;"/>
                    </g>
                    <g transform="matrix(1,0,0,1,3725.27,932.219)">
                        <path d="M0,-7.458L-0.427,-7.671L-0.906,-7.911L-1.029,-7.907L-1.914,-7.881L-2.771,-7.855L-4.653,-2.437L-4.801,-2.009L-4.346,-2.572L-3.455,-4.449L-4.346,-2.572L-0.271,-2.694L2.277,-1.212L3.296,0.453L2.559,-3.331L0.983,-6.965L0.402,-7.256L0.208,-7.353L0,-7.458Z" style="fill:white;fill-rule:nonzero;"/>
                    </g>
                    <g transform="matrix(1,0,0,1,3719.64,929.986)">
                        <path d="M0,1.047L0.036,1.011L0.137,0L0,1.047Z" style="fill:white;fill-rule:nonzero;"/>
                    </g>
                    <g transform="matrix(-0.165587,0.986195,0.986195,0.165587,3712.57,827.531)">
                        <path d="M0.077,-0.737L0.76,-0.737L0.251,0.117L0.069,-0.692L0.077,-0.737Z" style="fill:white;fill-rule:nonzero;"/>
                    </g>
                    <g transform="matrix(1,0,0,1,3711.93,908.183)">
                        <path d="M0,-3.535L-0.532,-3.551L-1.206,-3.516L-2.788,-3.433L-3.229,-3.41L-5.351,-3.298L-5.792,-3.275L-7.378,-3.192L-8.051,-3.157L-8.576,-3.086L-9.327,-2.984L-9.768,-2.821L-10.251,-2.644L-10.575,-2.23L-10.536,-1.532L-10.145,-1.123L-10.018,-1.092L-10.035,-1.394L-10.057,-1.772L-9.718,-1.851L-9.718,-1.899L-8.531,-2.176L-7.314,-2.025L-7.314,-1.977L-6.969,-1.934L-6.948,-1.555L-6.919,-1.005L-7.258,-0.926L-7.237,-0.507L-6.412,0.016L-5.414,-0.036L-5.302,-0.042L-5.027,-0.057L-4.371,-0.091L-3.87,-0.118L-3.211,-0.152L-2.94,-0.166L-2.827,-0.172L-1.826,-0.225L-1.064,-0.831L-1.086,-1.249L-1.431,-1.292L-1.459,-1.843L-1.477,-2.222L-1.138,-2.301L-1.142,-2.348L0.05,-2.626L1.262,-2.475L1.262,-2.426L1.607,-2.383L1.629,-2.005L1.643,-1.703L1.766,-1.747L2.112,-2.195L2.076,-2.893L1.71,-3.271L1.213,-3.397L0.758,-3.512L0,-3.535Z" style="fill:rgb(142,142,142);fill-rule:nonzero;"/>
                    </g>
                    <g transform="matrix(0.83205,0.5547,0.5547,-0.83205,3707.81,886.737)">
                        <path d="M0.044,-0.021L0.192,-0.021L-0.072,0.147L-0.079,0.147L0.044,-0.021Z" style="fill:rgb(142,142,142);fill-rule:nonzero;"/>
                    </g>
                    <g transform="matrix(1,0,0,1,3707.82,892.276)">
                        <path d="M0,-5.705L0.007,-5.701L0.134,-5.415L0.155,-5.046L0.264,-2.969L1.836,-3.052L0.264,-2.969L0.282,-2.594L0.444,0.493L0.768,0.476L2.326,0.394L2.806,0.369L3.476,0.334L4.322,-0.162L4.152,-0.313L3.779,-0.641L3.014,-1.313L3.264,-2.494L3.204,-2.759L2.778,-4.666L2.682,-5.179L2.263,-5.863L2.14,-5.932L1.696,-6.143L1.399,-6.198L1.283,-6.192L0.68,-6.16L0.525,-6.152L-0.021,-6.123L-0.004,-5.745L0,-5.705Z" style="fill:rgb(142,142,142);fill-rule:nonzero;"/>
                    </g>
                    <g transform="matrix(1,0,0,1,3709.63,884.548)">
                        <path d="M0,-0.55L-0.004,-0.581L-0.063,-1.762L-0.074,-1.919L-0.307,-1.907L-0.924,-1.874L-3.169,-1.757L-5.418,-1.639L-5.629,-1.628L-6.215,-1.597L-6.208,-1.44L-6.144,-0.26L-6.144,-0.228L-6.084,0.929L-6.081,0.938L-6.059,1.369L-5.89,1.36L-5.143,1.321L-4.882,1.307L-4.124,1.267L-3.557,1.237L-2.418,1.178L-1.851,1.148L-1.149,1.111L-0.772,1.091L0.084,1.047L0.06,0.616L0.06,0.607L0,-0.55Z" style="fill:rgb(142,142,142);fill-rule:nonzero;"/>
                    </g>
                    <g transform="matrix(1,0,0,1,3717.69,937.297)">
                        <path d="M0,-0.696L0.01,-0.474L0.049,0.241L7.85,-0.168L7.815,-0.883L7.811,-0.937L0.849,-0.727L0.79,-0.738L0.751,-0.735L0,-0.696Z" style="fill:rgb(142,142,142);fill-rule:nonzero;"/>
                    </g>
                    <g transform="matrix(1,0,0,1,3725.6,938.298)">
                        <path d="M0,0.303L-0.162,0.534L-0.68,1.28L-1.77,1.618L-5.865,1.832L-6.983,1.61L-7.575,0.922L-7.759,0.709L-7.783,0.681L-7.811,0.144L-7.85,-0.577L-7.811,0.144L-7.783,0.681L-7.759,0.709L0,0.303L0.021,0.272L-0.007,-0.264L-0.046,-0.986L-0.007,-0.264L0.021,0.272L0,0.303ZM0.36,-1.952L-0.095,-1.938L-0.092,-1.884L-0.056,-1.169L-0.053,-1.099L-0.056,-1.169L-7.857,-0.76L-7.854,-0.69L-7.857,-0.76L-7.896,-1.475L-7.906,-1.697L-7.921,-1.949L-7.906,-1.697L-7.156,-1.736L-7.159,-1.746L-7.639,-1.834L-7.656,-2.328L-7.684,-2.982L-8.379,-1.98L-8.315,-0.736L-8.312,-0.666L-8.315,-0.736L-8.985,-0.701L-8.982,-0.621L-8.939,0.203L-8.929,0.396L-8.911,0.73L-8.96,0.952L-8.897,0.949L-8.227,0.914L-8.234,0.76L-8.266,0.168L-8.305,-0.553L-8.266,0.168L-8.234,0.76L-8.227,0.914L-8.164,2.158L-7.191,3.285L-6.895,3.269L-5.806,2.912L-1.713,2.697L-0.592,2.939L-0.296,2.924L0.55,1.701L0.487,0.457L0.479,0.304L0.448,-0.288L0.409,-1.01L0.448,-0.288L0.479,0.304L0.487,0.457L0.828,0.439L0.79,-0.306L0.744,-1.131L0.74,-1.21L0.398,-1.193L0.402,-1.123L0.398,-1.193L0.395,-1.282L0.395,-1.293L0.367,-1.847L0.36,-1.952Z" style="fill:rgb(142,142,142);fill-rule:nonzero;"/>
                    </g>
                    <g transform="matrix(1,0,0,1,3718.02,939.511)">
                        <path d="M0,-0.291L0.592,0.397L1.71,0.619L5.806,0.404L6.895,0.067L7.413,-0.679L7.575,-0.91L-0.183,-0.504L0,-0.291Z" style="fill:rgb(142,142,142);fill-rule:nonzero;"/>
                    </g>
                    <g transform="matrix(1,0,0,1,3712.04,942.803)">
                        <path d="M0,-1.194L-0.151,-1.186L-0.214,-1.183L-0.208,-1.006L-0.187,-0.579L-0.162,-0.153L-0.155,0.023L0.512,-0.011L0.501,-0.189L0.494,-0.322L0.479,-0.615L0.455,-1.041L0.448,-1.217L0,-1.194Z" style="fill:rgb(142,142,142);fill-rule:nonzero;"/>
                    </g>
                    <g transform="matrix(1,0,0,1,3713.9,946.471)">
                        <path d="M0,-0.384L-0.035,-1.053L-0.039,-1.125L-0.046,-1.263L-0.056,-1.431L-0.078,-1.865L-0.085,-1.963L-0.917,-2.067L-0.92,-2.132L-0.938,-2.435L-1.28,-2.417L-1.318,-3.19L-1.333,-3.426L-1.343,-3.679L-2.009,-3.645L-1.995,-3.391L-1.925,-2.079L-1.833,-0.288L-1.808,0.15L-1.738,1.504L-1.671,2.815L-1.643,3.295L0.187,3.2L0.162,2.719L0.095,1.408L0.039,0.357L0.003,-0.313L0,-0.384Z" style="fill:rgb(142,142,142);fill-rule:nonzero;"/>
                    </g>
                    <g transform="matrix(1,0,0,1,3707.26,943.094)">
                        <path d="M0,-1.234L-0.151,-1.226L-0.598,-1.202L-0.588,-1.026L-0.567,-0.6L-0.549,-0.307L-0.543,-0.174L-0.535,0.004L0.131,-0.032L0.121,-0.208L0.099,-0.634L0.075,-1.062L0.067,-1.238L0,-1.234Z" style="fill:rgb(142,142,142);fill-rule:nonzero;"/>
                    </g>
                    <g transform="matrix(0.257663,0.966235,0.966235,-0.257663,3706.15,912.929)">
                        <path d="M0.354,-0.11L0.37,-0.11L0.143,0.461L0.128,0.465L0.354,-0.11Z" style="fill:rgb(142,142,142);fill-rule:nonzero;"/>
                    </g>
                    <g transform="matrix(0.860635,0.509223,0.509223,-0.860635,3709.61,912.683)">
                        <rect x="-0.039" y="-0.156" width="0.607" height="0.013" style="fill:rgb(142,142,142);"/>
                    </g>
                    <g transform="matrix(1,0,0,1,3707.13,943.125)">
                        <path d="M0,6.909L0.053,6.906L0.508,6.882L0.564,6.879L0.62,6.877L0.596,6.397L0.525,5.085L0.455,3.731L0.43,3.293L0.338,1.502L0.268,0.19L0.257,-0.063L-0.409,-0.028L-0.395,0.225L-0.381,0.461L-0.342,1.234L-0.684,1.252L-0.666,1.554L-0.663,1.62L-1.484,1.81L-1.477,1.909L-1.456,2.343L-1.445,2.51L-1.438,2.648L-1.435,2.72L-1.399,3.389L-1.396,3.461L-1.361,4.13L-1.308,5.181L-1.237,6.492L-1.213,6.972L-0.747,6.948L-0.084,6.914L0,6.909Z" style="fill:rgb(142,142,142);fill-rule:nonzero;"/>
                    </g>
                    <g transform="matrix(1,0,0,1,3705.54,954.823)">
                        <path d="M0,-0.111L0.254,0.013L0.246,-0.124L0,-0.111Z" style="fill:rgb(142,142,142);fill-rule:nonzero;"/>
                    </g>
                    <g transform="matrix(1,0,0,1,3712.16,936.504)">
                        <path d="M0,11.47L-0.071,10.116L-0.095,9.679L-0.187,7.887L-0.257,6.575L-0.271,6.322L-0.279,6.145L-0.303,5.719L-0.324,5.293L-0.332,5.116L-0.388,4.054L-0.532,1.322L-0.638,-0.707L-0.969,-7.042L-1.096,-9.466L-1.117,-9.838L-1.121,-9.947L-1.174,-10.893L-1.213,-11.648L-1.343,-14.157L-1.615,-19.326L-1.756,-22.044L-1.759,-22.051L-1.759,-22.058L-2.136,-23.394L-1.985,-20.543L-1.703,-15.119L-1.311,-7.654L-0.85,1.121L-0.367,10.349L0.092,19.124L0.483,26.59L0.768,32.013L0.917,34.864L1.153,33.481L1.012,30.764L0.74,25.595L0.366,18.48L0.095,13.262L0.067,12.782L0,11.47Z" style="fill:rgb(142,142,142);fill-rule:nonzero;"/>
                    </g>
                    <g transform="matrix(1,0,0,1,3707.89,955.033)">
                        <path d="M0,0.757L-0.561,0.389L-2.041,-0.336L-2.104,-0.333L-2.097,-0.196L-0.867,0.405L0.01,0.983L0.18,1.093L0.166,0.867L0,0.757Z" style="fill:rgb(142,142,142);fill-rule:nonzero;"/>
                    </g>
                    <g transform="matrix(1,0,0,1,3708.75,921.589)">
                        <path d="M0,41.708L-0.391,34.243L-0.853,25.467L-1.336,16.24L-1.794,7.464L-2.186,-0L-2.471,-5.424L-2.619,-8.275L-2.855,-6.907L-2.714,-4.19L-2.443,0.994L-2.313,3.503L-2.27,4.258L-2.221,5.204L-2.217,5.313L-2.196,5.685L-2.069,8.109L-1.738,14.444L-1.632,16.473L-1.488,19.206L-1.431,20.267L-1.424,20.443L-1.4,20.87L-1.378,21.296L-1.368,21.473L-1.357,21.726L-1.287,23.038L-1.195,24.829L-1.17,25.267L-1.1,26.621L-1.03,27.933L-1.005,28.413L-0.987,28.783L-0.945,29.559L-0.92,30.073L-0.885,30.714L-0.86,31.164L-0.733,33.631L-0.698,34.311L-0.684,34.537L-0.68,34.606L-0.36,40.746L-0.088,45.915L0.053,48.633L0.433,49.983L0.282,47.132L0,41.708Z" style="fill:rgb(142,142,142);fill-rule:nonzero;"/>
                    </g>
                    <g transform="matrix(1,0,0,1,3710.71,921.319)">
                        <path d="M0,42.12L-0.395,34.568L-0.86,25.69L-1.35,16.355L-1.815,7.477L-2.21,-0.075L-2.499,-5.562L-2.651,-8.447L-2.901,-8.433L-3.557,-8.399L-3.828,-8.385L-3.941,-8.379L-4.082,-8.371L-4.575,-8.005L-4.427,-5.154L-4.142,0.27L-3.751,7.735L-3.292,16.511L-2.81,25.738L-2.348,34.514L-1.956,41.979L-1.675,47.402L-1.523,50.254L-0.994,50.567L0.44,50.491L0.289,47.607L0,42.12Z" style="fill:rgb(142,142,142);fill-rule:nonzero;"/>
                    </g>
                    <g transform="matrix(1,0,0,1,3712.64,921.514)">
                        <path d="M0,41.58L-0.391,34.115L-0.85,25.339L-1.333,16.112L-1.794,7.336L-2.186,-0.129L-2.468,-5.552L-2.619,-8.404L-3.148,-8.717L-3.289,-8.709L-3.402,-8.703L-3.673,-8.689L-4.332,-8.654L-4.583,-8.641L-4.431,-5.757L-4.142,-0.27L-3.747,7.282L-3.282,16.16L-2.792,25.495L-2.327,34.373L-1.932,41.925L-1.643,47.412L-1.491,50.297L-0.06,50.221L0.434,49.855L0.285,47.003L0,41.58Z" style="fill:rgb(142,142,142);fill-rule:nonzero;"/>
                    </g>
                    <g transform="matrix(1,0,0,1,3701.59,894.638)">
                        <path d="M0,-0.247L1.191,-0.524L2.404,-0.373L2.482,1.137L3.306,1.66L4.096,1.619L4.061,0.952L4.484,0.6L5.538,0.409L6.609,0.489L7.064,0.794L7.099,1.462L7.893,1.42L8.654,0.814L8.576,-0.696L9.768,-0.974L10.98,-0.823L11.026,0.066L11.485,-0.102L11.83,-0.55L11.795,-1.248L11.432,-1.627L10.476,-1.867L9.186,-1.907L8.569,-1.874L7.008,-1.792L6.683,-1.775L6.317,-1.756L5.428,-1.71L4.54,-1.663L4.17,-1.643L3.846,-1.627L2.288,-1.545L1.667,-1.512L1.209,-1.45L0.659,-1.376L0.391,-1.339L-0.532,-1L-0.857,-0.585L-0.818,0.112L-0.427,0.522L0.018,0.634L0.046,0.641L0,-0.247Z" style="fill:rgb(142,142,142);fill-rule:nonzero;"/>
                    </g>
                    <g transform="matrix(1,0,0,1,3705.33,942.98)">
                        <path d="M0,-0.842L0.024,-0.416L0.046,0.011L0.26,0L0.24,-0.427L0.218,-0.853L0,-0.842Z" style="fill:rgb(142,142,142);fill-rule:nonzero;"/>
                    </g>
                    <g transform="matrix(1,0,0,1,3706.23,942.938)">
                        <path d="M0,-0.847L0.024,-0.421L0.046,0.005L0.145,0.001L0.137,-0.133L0.119,-0.426L0.098,-0.852L0,-0.847Z" style="fill:rgb(142,142,142);fill-rule:nonzero;"/>
                    </g>
                    <g transform="matrix(1,0,0,1,3691.83,944.951)">
                        <path d="M0,1.487L-0.236,1.212L-0.236,0.751L-0.366,-0.297L-0.374,-0.303L-0.673,0.875L-0.754,1.79L0.275,1.737L0,1.487Z" style="fill:rgb(142,142,142);fill-rule:nonzero;"/>
                    </g>
                    <g transform="matrix(1,0,0,1,3696.54,946.267)">
                        <path d="M0,-2.168L-0.074,-2.123L-0.109,-0.717L-0.116,-0.414L-0.127,-0.366L-0.257,-0.292L-0.924,0.239L0.01,0.19L0.712,-0.761L0.493,-2.194L0.398,-2.407L0,-2.168Z" style="fill:rgb(142,142,142);fill-rule:nonzero;"/>
                    </g>
                    <g transform="matrix(1,0,0,1,3712.84,942.591)">
                        <path d="M0,-0.847L0.024,-0.421L0.038,-0.128L0.046,0.005L0.145,0L0.119,-0.426L0.099,-0.852L0,-0.847Z" style="fill:rgb(142,142,142);fill-rule:nonzero;"/>
                    </g>
                    <g transform="matrix(1,0,0,1,3713.62,942.546)">
                        <path d="M0,-0.843L0.02,-0.416L0.042,0.01L0.26,-0.001L0.236,-0.427L0.214,-0.853L0,-0.843Z" style="fill:rgb(142,142,142);fill-rule:nonzero;"/>
                    </g>
                    <g transform="matrix(1,0,0,1,3692.34,883.515)">
                        <path d="M0,-0.529L1.065,0.596L1.019,-0.275L0.575,-0.744L0.296,-1.038L-0.032,-1.125L-0.828,-1.084L-0.8,-0.487L0,-0.529Z" style="fill:rgb(142,142,142);fill-rule:nonzero;"/>
                    </g>
                    <g transform="matrix(1,0,0,1,3695.42,883.254)">
                        <path d="M0,1.934L-0.053,0.928L-0.053,0.921L-0.116,-0.253L-0.145,-0.82L-1.315,-0.758L-1.438,-0.752L-1.502,-0.748L-1.904,-0.727L-1.893,-0.515L-1.812,1.013L-1.759,2.026L-1.734,2.542L-1.72,2.754L0.039,2.662L0.01,2.125L0.007,2.117L0,1.934Z" style="fill:rgb(142,142,142);fill-rule:nonzero;"/>
                    </g>
                    <g transform="matrix(1,0,0,1,3693.61,884.349)">
                        <path d="M0,-0.082L-0.081,-1.61L-0.691,-1.578L-0.247,-1.109L-0.201,-0.238L-1.364,-0.177L-1.569,-0.393L-1.547,-0.001L-1.487,1.181L-1.466,1.528L-0.543,1.479L0.078,1.447L0.053,0.931L0,-0.082Z" style="fill:rgb(142,142,142);fill-rule:nonzero;"/>
                    </g>
                    <g transform="matrix(1,0,0,1,3710.27,904.065)">
                        <path d="M0,-8.041L-0.437,-7.939L-0.042,-0.366L-0.01,0.221L0.437,0.277L0.406,-0.31L1.597,-0.587L2.81,-0.436L2.841,0.151L3.278,0.048L3.247,-0.538L2.852,-8.111L2.404,-8.167L1.192,-8.318L0,-8.041Z" style="fill:rgb(142,142,142);fill-rule:nonzero;"/>
                    </g>
                    <g transform="matrix(1,0,0,1,3704.76,953.778)">
                        <path d="M0,-8.057L0.008,-7.956L0.011,-7.885L0.05,-7.143L0.085,-6.473L0.089,-6.369L0.184,-4.716L0.275,-3.193L0.321,-2.506L0.366,-1.816L0.451,-0.687L0.526,0.146L0.586,0.68L0.628,0.828L0.727,0.823L0.935,0.811L0.893,0.663L0.893,0.659L0.832,0.131L0.758,-0.703L0.677,-1.832L0.628,-2.522L0.582,-3.208L0.491,-4.731L0.396,-6.386L0.392,-6.49L0.356,-7.159L0.318,-7.9L0.314,-7.971L0.307,-8.073L0.271,-8.847L-0.038,-8.885L0,-8.057Z" style="fill:rgb(142,142,142);fill-rule:nonzero;"/>
                    </g>
                    <g transform="matrix(1,0,0,1,3714.7,939.345)">
                        <path d="M0,-1.568L0.042,-0.744L0.08,0.002L0.129,-0.001L0.193,-0.003L0.119,-0.22L0.102,-0.554L0.091,-0.746L0.048,-1.57L0,-1.568Z" style="fill:rgb(142,142,142);fill-rule:nonzero;"/>
                    </g>
                    <g transform="matrix(1,0,0,1,3703.67,954.959)">
                        <path d="M0,-1.564L0.032,-0.99L0.042,-0.738L0.057,-0.467L0.071,-0.212L0.022,0.01L0.081,0.007L0.289,-0.004L0.247,-0.75L0.204,-1.574L0,-1.564Z" style="fill:rgb(142,142,142);fill-rule:nonzero;"/>
                    </g>
                    <g transform="matrix(1,0,0,1,3699.43,952.536)">
                        <path d="M0,1.002L1.241,0.937L1.206,0.222L1.192,0L0.441,0.039L0.042,0.06L0.032,0.283L0,1.002Z" style="fill:rgb(142,142,142);fill-rule:nonzero;"/>
                    </g>
                    <g transform="matrix(1,0,0,1,3699.83,954.944)">
                        <path d="M0,1.046L0.222,0.978L0.74,0.231L0.902,0L-0.384,0.068L-0.296,0.286L0,1.046Z" style="fill:rgb(142,142,142);fill-rule:nonzero;"/>
                    </g>
                    <g transform="matrix(1,0,0,1,3701.88,953.608)">
                        <path d="M0,1.236L-0.014,0.982L-0.028,0.71L-0.042,0.46L-0.07,-0.115L-0.074,-0.194L-0.747,-0.159L-0.744,-0.089L-0.747,-0.159L-0.811,-1.403L-1.784,-2.53L-2.08,-2.514L-2.337,-2.434L-2.351,-2.165L-2.401,-1.012L-2.002,-1.033L-1.251,-1.072L-1.262,-1.324L-1.251,-1.072L-1.237,-0.85L-1.202,-0.135L-1.198,-0.065L-1.202,-0.135L-2.443,-0.07L-2.446,0.01L-2.46,0.323L-2.468,0.402L-2.559,0.843L-2.591,0.996L-2.432,1.404L-1.146,1.337L-1.125,1.306L-1.153,0.769L-1.191,0.047L-1.153,0.769L-1.125,1.306L-1.146,1.337L-1.308,1.568L-1.826,2.314L-2.048,2.382L-1.953,2.619L-1.745,3.151L-1.463,3.548L-1.311,3.766L-0.596,2.735L-0.659,1.491L-0.666,1.337L-0.698,0.745L-0.737,0.024L-0.698,0.745L-0.666,1.337L-0.659,1.491L0.011,1.456L0.074,1.452L0,1.236Z" style="fill:rgb(142,142,142);fill-rule:nonzero;"/>
                    </g>
                    <g transform="matrix(1,0,0,1,3703.29,897.059)">
                        <path d="M0,6.867L1.216,7.019L1.244,7.605L1.685,7.503L1.653,6.916L1.255,-0.657L0.811,-0.712L-0.406,-0.864L-1.593,-0.587L-2.034,-0.484L-1.636,7.089L-1.604,7.675L-1.16,7.731L-1.188,7.144L0,6.867Z" style="fill:rgb(142,142,142);fill-rule:nonzero;"/>
                    </g>
                    <g transform="matrix(1,0,0,1,3719.63,880.869)">
                        <path d="M0,1.868L0.941,0.638L1.741,0.596L1.709,0L1.047,0.034L0.909,0.042L0.592,0.162L0.349,0.484L-0.046,0.997L0,1.868Z" style="fill:rgb(142,142,142);fill-rule:nonzero;"/>
                    </g>
                    <g transform="matrix(1,0,0,1,3719.45,883.005)">
                        <path d="M0,-0.092L-0.078,-1.621L-0.092,-1.833L-0.73,-1.8L-1.847,-1.741L-1.819,-1.174L-1.759,-0L-1.755,0.006L-1.706,1.013L-1.696,1.195L-1.696,1.204L-1.667,1.741L-0.134,1.661L0.092,1.649L0.081,1.439L0.081,1.436L0.085,1.436L0.053,0.921L0,-0.092Z" style="fill:rgb(142,142,142);fill-rule:nonzero;"/>
                    </g>
                    <g transform="matrix(1,0,0,1,3720.97,883.353)">
                        <path d="M0,-0.913L-0.18,-0.677L-1.343,-0.616L-1.389,-1.488L-0.994,-2.001L-1.604,-1.969L-1.526,-0.44L-1.473,0.573L-1.442,1.088L0.102,1.007L0.084,0.661L0.021,-0.521L0,-0.913Z" style="fill:rgb(142,142,142);fill-rule:nonzero;"/>
                    </g>
                    <g transform="matrix(1,0,0,1,3706.51,939.04)">
                        <path d="M0,0.067L0.162,0.124L0.454,0.114L0.511,0.123L0.454,0.103L-0.008,-0.057L0,0.067Z" style="fill:rgb(142,142,142);fill-rule:nonzero;"/>
                    </g>
                    <g transform="matrix(-0.315272,0.949001,0.949001,0.315272,3705.63,886.926)">
                        <path d="M-0.192,-0.154L0.122,-0.154L-0.005,-0.073L-0.2,-0.148L-0.192,-0.154Z" style="fill:rgb(142,142,142);fill-rule:nonzero;"/>
                    </g>
                    <g transform="matrix(1,0,0,1,3703.35,887.167)">
                        <path d="M0,4.99L-0.028,5.04L-0.31,5.564L-0.381,5.697L-0.483,5.885L0.039,5.857L0.518,5.832L2.076,5.751L2.4,5.734L2.238,2.647L2.217,2.271L0.645,2.354L2.217,2.271L2.111,0.195L2.09,-0.174L2.189,-0.472L2.196,-0.477L2.192,-0.516L2.171,-0.895L1.625,-0.866L1.417,-0.856L0.998,-0.834L0.874,-0.827L0.486,-0.427L0.328,0.288L0.416,1.203L0.067,2.425L-0.014,2.678L-0.042,2.766L-0.18,3.193L-0.374,3.809L-0.039,4.898L0,4.99Z" style="fill:rgb(142,142,142);fill-rule:nonzero;"/>
                    </g>
                    <g transform="matrix(-0.977154,0.212533,0.212533,0.977154,3710.59,823.464)">
                        <path d="M3.757,-1.259L7.78,-1.259L-3.706,1.239L-0.621,-0.307L3.757,-1.259Z" style="fill:rgb(142,142,142);fill-rule:nonzero;"/>
                    </g>
                    <g transform="matrix(1,0,0,1,3699.96,820.837)">
                        <path d="M0,3.298L0.018,3.317L0.261,3.564L2.767,3.051L6.698,2.196L11.178,2.196L14.52,3.051L16.141,3.564L16.814,1.402L14.858,1.818L11.315,1.527L6.631,1.527L2.538,1.818L-0.254,1.402L-1.974,-0.266L-1.421,1.851L-0.416,2.875L-0.021,3.277L0,3.298Z" style="fill:rgb(142,142,142);fill-rule:nonzero;"/>
                    </g>
                    <g transform="matrix(1,0,0,1,3703.87,835.147)">
                        <path d="M0,1.661L-0.303,0.816L-0.398,0.553L-0.624,-0.067L-0.631,-0.089L-0.635,-0.093L-0.962,-0.303L-0.603,0.511L-0.504,0.731L-0.092,1.665L-0.046,1.768L0.113,1.964L0.057,1.809L0,1.661Z" style="fill:rgb(142,142,142);fill-rule:nonzero;"/>
                    </g>
                    <g transform="matrix(1,0,0,1,3713.38,833.935)">
                        <path d="M0,-1.925L-0.014,-1.93L-0.109,-1.567L-0.119,-1.517L-0.444,-0.798L-0.412,0.08L-0.172,-0.065L-0.004,-1.001L0.077,-1.452L0.06,-1.843L0.06,-1.85L0.056,-1.902L0.053,-2.005L0,-1.925Z" style="fill:rgb(142,142,142);fill-rule:nonzero;"/>
                    </g>
                    <g transform="matrix(1,0,0,1,3705.19,837.533)">
                        <path d="M0,-0.064L-1.265,-0.576L-1.209,-0.421L-0.042,0.082L0.955,0.512L0.722,0.227L0,-0.064Z" style="fill:rgb(142,142,142);fill-rule:nonzero;"/>
                    </g>
                    <g transform="matrix(0.881558,-0.472077,-0.472077,-0.881558,3708.67,837.968)">
                        <path d="M-0.058,0.174L0.326,0.174L0.663,0.174L0.642,0.256L-0.058,0.174Z" style="fill:rgb(142,142,142);fill-rule:nonzero;"/>
                    </g>
                    <g transform="matrix(1,0,0,1,3712.97,834.908)">
                        <path d="M0,-0.893L-0.617,-0.064L-0.73,0.145L-0.091,-0.585L0.226,-0.951L0.24,-1.038L0,-0.893Z" style="fill:rgb(142,142,142);fill-rule:nonzero;"/>
                    </g>
                    <g transform="matrix(1,0,0,1,3714.01,827.937)">
                        <path d="M0,2.441L0.042,2.154L0.084,1.869L0.095,1.8L0.3,0.438L0.3,0.433L0.303,0.429L0.303,0.422L0.694,-2.167L0.775,-2.719L0.906,-3.579L0.67,-2.282L0.648,-2.168L0.317,-0.315L0.268,-0.034L0.187,0.419L0.067,1.074L-0.081,1.894L-0.099,1.996L-0.134,2.187L-0.141,2.243L-0.43,3.837L-0.469,4.062L-0.487,4.163L-0.557,4.546L-0.638,4.998L-0.807,5.934L-0.822,6.02L-0.501,5.75L-0.236,4.007L-0.19,3.7L-0.183,3.642L-0.085,2.99L0,2.441Z" style="fill:rgb(142,142,142);fill-rule:nonzero;"/>
                    </g>
                    <g transform="matrix(1,0,0,1,3711.94,837.56)">
                        <path d="M0,-2.231L-0.395,-1.758L-0.472,-1.666L-1.333,-0.644L-1.53,-0.565L-2.711,-0.095L-2.771,-0.058L-3.067,0.101L-3.405,0.282L-3.648,0.278L-3.659,0.282L-3.877,0.274L-3.948,0.273L-4.103,0.303L-4.149,0.301L-5.037,0.273L-5.076,0.272L-5.288,0.226L-6.031,0.2L-5.799,0.485L-3.673,0.485L-2.725,0.117L-1.273,-0.448L-1.213,-0.525L-0.279,-1.751L-0.063,-2.034L0.296,-2.506L0.409,-2.716L0,-2.231Z" style="fill:rgb(142,142,142);fill-rule:nonzero;"/>
                    </g>
                    <g transform="matrix(1,0,0,1,3707.81,837.806)">
                        <path d="M0,0.025L0.006,0.02L-0.465,0.004L-0.54,0.002L-0.907,0L0,0.025Z" style="fill:rgb(142,142,142);fill-rule:nonzero;"/>
                    </g>
                    <g transform="matrix(1,0,0,1,3701.23,833.65)">
                        <path d="M0,-1.948L0.483,0.036L0.406,-1.106L0.374,-1.173L0.289,-1.486L0.131,-1.984L0,-1.948Z" style="fill:rgb(142,142,142);fill-rule:nonzero;"/>
                    </g>
                    <g transform="matrix(1,0,0,1,3702.13,824.794)">
                        <path d="M0,8.674L-0.127,7.286L-0.148,7.078L-0.162,6.925L-0.405,4.302L-0.508,3.218L-0.574,2.495L-0.631,1.888L-0.751,0.613L-0.786,0.222L-0.843,-0.353L-0.846,-0.397L-0.853,-0.489L-1.04,-0.393L-0.998,0.258L-0.983,0.472L-0.973,0.607L-0.828,2.763L-0.814,2.979L-0.797,3.216L-0.775,3.534L-0.733,4.162L-0.659,5.238L-0.539,7.002L-0.511,7.421L-0.49,7.749L-0.412,8.893L0.046,9.163L0,8.674Z" style="fill:rgb(142,142,142);fill-rule:nonzero;"/>
                    </g>
                    <g transform="matrix(1,0,0,1,3701.36,832.158)">
                        <path d="M0,-0.491L0.159,0.006L0.025,-0.497L0,-0.491Z" style="fill:rgb(142,142,142);fill-rule:nonzero;"/>
                    </g>
                    <g transform="matrix(1,0,0,1,3713.43,838.61)">
                        <path d="M0,0.231L-0.099,0.106L-0.62,0L0,0.231Z" style="fill:rgb(68,114,37);fill-rule:nonzero;"/>
                    </g>
                    <g transform="matrix(-0.155238,0.987877,0.987877,0.155238,3720.38,852.269)">
                        <path d="M-0.157,-0.506L0.48,-0.506L0.42,-0.036L-0.161,-0.502L-0.157,-0.506Z" style="fill:rgb(68,114,37);fill-rule:nonzero;"/>
                    </g>
                    <g transform="matrix(1,0,0,1,3697.59,841.43)">
                        <path d="M0,32.275L0.67,29.272L1.463,25.727L0.67,29.272L0,32.275L-0.183,33.091L0,32.275L-4.272,32.425L0,32.275ZM16.455,29.725L16.811,31.176L17.057,32.188L16.811,31.176L16.455,29.725L15.302,24.993L16.455,29.725ZM-6.891,0.064L-6.817,0.577L-6.771,0.887L-6.652,1.682L-6.634,1.797L-6.475,2.723L-6.126,4.77L-5.992,5.565L-5.806,6.647L-5.989,7.739L-6.352,9.892L-6.416,10.264L-6.433,10.385L-6.451,10.488L-6.546,10.48L-6.606,10.474L-6.624,10.473L-6.669,10.469L-6.669,10.588L-6.673,10.664L-6.821,11.616L-6.845,11.689L-6.754,13.063L-6.655,14.576L-6.754,13.063L-6.845,11.689L-6.913,11.864L-7.374,18.132L-5.111,30.893L-5.83,34.067L-4.184,34.787L-4.177,34.791L-2.986,35.312L-2.943,35.33L-0.62,35.208L-0.592,35.206L4.745,34.927L4.769,34.926L8.52,34.729L8.548,34.728L12.295,34.531L12.323,34.53L17.66,34.25L17.685,34.249L19.405,34.55L20.032,34.66L20.561,34.752L20.928,34.535L21.386,34.264L22.877,33.384L22.637,32.211L21.728,29.486L23.237,18.813L23.385,12.47L23.304,12.325L23.297,12.346L23.304,12.325L23.226,12.193L23.078,11.934L22.916,11.254L22.683,11.248L22.211,11.235L22.31,10.606L22.313,10.602L22.31,10.599L22.37,10.21L22.377,10.158L22.599,8.724L22.8,7.421L22.835,7.245L22.994,6.492L23.519,3.961L23.744,2.874L23.797,2.62L23.833,2.446L24.051,1.634L24.079,1.528L24.086,1.5L24.238,0.936L24.485,0.403L24.516,0.338L24.555,0.255L23.766,-0.024L21.756,-0.733L23.766,-0.024L21.88,-0.884L17.745,-2.256L17.896,-2.071L18.196,-1.706L18.464,-1.38L18.665,-1.136L18.725,-1.061L18.02,0.455L17.896,0.716L17.473,1.342L16.758,2.402L15.538,13.183L15.189,16.273L15.186,16.3L15.069,16.73L14.41,19.174L14.4,19.217L14.037,19.624L12.958,20.827L11.974,21.923L11.897,22.009L10.498,24.51L10.487,24.562L8.478,33.429L4.156,24.297L4.11,24.201L2.95,21.679L2.926,21.628L2.668,20.548L2.418,19.492L2.277,18.905L2.263,18.842L2.313,16.953L2.341,15.987L2.341,15.925L1.593,10.267L0.497,1.962L0.014,0.833L-0.264,0.186L-0.388,-0.142L-0.969,-1.683L-1.015,-1.805L-0.843,-1.944L-0.25,-2.416L0.18,-2.759L0.55,-3.055L-4.438,-1.608L-5.64,-0.881L-4.322,-1.438L-5.64,-0.881L-6.951,-0.326L-6.937,-0.242L-6.913,-0.069L-6.891,0.064Z" style="fill:rgb(68,114,37);fill-rule:nonzero;"/>
                    </g>
                    <g transform="matrix(1,0,0,1,3722.08,843.488)">
                        <path d="M0,-1.656L-0.247,-1.123L-0.398,-0.558L0.148,0.065L0.307,-1.613L0.032,-1.721L0,-1.656Z" style="fill:rgb(68,114,37);fill-rule:nonzero;"/>
                    </g>
                    <g transform="matrix(1,0,0,1,3715.79,838.715)">
                        <path d="M0,1.009L-0.3,0.644L-0.451,0.459L-2.457,0L-1.072,0.608L0,1.009Z" style="fill:rgb(68,114,37);fill-rule:nonzero;"/>
                    </g>
                    <g transform="matrix(1,0,0,1,3722.11,841.792)">
                        <path d="M0,-0.024L0.275,0.084L0.039,-0.108L0,-0.024Z" style="fill:rgb(68,114,37);fill-rule:nonzero;"/>
                    </g>
                    <g transform="matrix(-0.621108,0.783725,0.783725,0.621108,3690.5,841.497)">
                        <path d="M-0.109,-0.188L0.334,-0.188L-0.217,0.054L-0.337,-0.072L-0.109,-0.188Z" style="fill:rgb(68,114,37);fill-rule:nonzero;"/>
                    </g>
                    <g transform="matrix(1,0,0,1,3697.34,837.986)">
                        <path d="M0,1.028L2.979,0.049L3.007,0L0.8,0.389L0.43,0.685L0,1.028Z" style="fill:rgb(68,114,37);fill-rule:nonzero;"/>
                    </g>
                    <g transform="matrix(1,0,0,1,3690.15,841.46)">
                        <path d="M0,0.182L0.008,0.281L0.287,0.154L0.554,0.032L0.532,-0.099L0,0.182Z" style="fill:rgb(68,114,37);fill-rule:nonzero;"/>
                    </g>
                    <g transform="matrix(0.194043,-0.980993,-0.980993,-0.194043,3693.15,875.202)">
                        <path d="M-1.059,-0.456L-0.966,-0.456L-0.946,-0.448L-0.559,1.306L-1.059,-0.456Z" style="fill:rgb(68,114,37);fill-rule:nonzero;"/>
                    </g>
                    <g transform="matrix(1,0,0,1,3706.58,895.07)">
                        <path d="M0,9.815L1.061,9.76L2.122,9.704L2.563,9.681L2.108,1.03L2.073,0.363L1.618,0.058L0.546,-0.023L-0.508,0.169L-0.931,0.52L-0.895,1.187L-0.441,9.838L0,9.815Z" style="fill:rgb(68,114,37);fill-rule:nonzero;"/>
                    </g>
                    <g transform="matrix(1,0,0,1,3700.64,961.561)">
                        <path d="M0,-0.622L-2.763,-1.013L-6.408,-0.822L-8.865,0.15L-9.768,-0.36L-10.222,-2.355L-9.986,-0.803L-9.5,1.407L-8.516,2.453L-6.098,2.267L-2.457,2.076L0.102,2.001L0.381,1.886L1.156,0.848L0.955,-1.477L0.712,-3.075L0.839,-1.245L0,-0.622Z" style="fill:rgb(68,114,37);fill-rule:nonzero;"/>
                    </g>
                    <g transform="matrix(1,0,0,1,3694.77,944.241)">
                        <path d="M0,2.51L1.777,2.216L0.843,2.265L1.509,1.733L1.639,1.659L1.65,1.612L1.657,1.308L1.692,-0.097L1.632,-0.062L0.843,0.409L0.751,0.465L0.511,0.526L-0.529,0.788L-1.089,0.929L-1.248,0.969L-1.621,0.888L-2.542,0.692L-2.89,0.617L-3.063,0.58L-3.303,0.412L-3.172,1.461L-3.172,1.921L-2.936,2.197L-2.661,2.447L-3.691,2.5L-1.865,2.607L0,2.51Z" style="fill:rgb(68,114,37);fill-rule:nonzero;"/>
                    </g>
                    <g transform="matrix(0.408932,0.912565,0.912565,-0.408932,3697.13,943.778)">
                        <path d="M-0.004,-0.211L0.228,-0.211L0.391,-0.036L-0.021,-0.073L-0.004,-0.211Z" style="fill:rgb(68,114,37);fill-rule:nonzero;"/>
                    </g>
                    <g transform="matrix(1,0,0,1,3698.41,952.261)">
                        <path d="M0,-4.092L-0.751,-6.444L-0.73,-5.877L-0.515,-4.711L-0.624,-3.514L-0.666,-2.135L-1.198,-1.498L-0.053,1.184L0.233,2.352L0.427,2.077L0.398,1.126L0.553,-1.329L0,-4.092Z" style="fill:rgb(68,114,37);fill-rule:nonzero;"/>
                    </g>
                    <g transform="matrix(1,0,0,1,3698.96,951.471)">
                        <path d="M0,-0.538L-0.155,1.916L0.324,3.133L0.356,2.981L0.448,2.539L0.455,2.461L0.469,2.146L0.473,2.068L0.505,1.347L0.515,1.126L0.564,-0.028L0.578,-0.297L0.624,-1.367L0.275,-3.671L0,-0.538Z" style="fill:rgb(68,114,37);fill-rule:nonzero;"/>
                    </g>
                    <g transform="matrix(1,0,0,1,3713.82,945.109)">
                        <path d="M0,-0.504L0.022,-0.069L0.032,0.098L0.124,-0.342L0.075,-0.592L-0.006,-0.602L0,-0.504Z" style="fill:rgb(68,114,37);fill-rule:nonzero;"/>
                    </g>
                    <g transform="matrix(1,0,0,1,3714.02,918.179)">
                        <path d="M0,26.355L1.022,26.117L1.001,25.749L0.761,21.168L0.723,20.423L0.68,19.598L0.677,19.519L-0.317,0.559L-0.338,0.13L-1.382,0L-2.404,0.238L-2.379,0.667L-2.034,7.253L-2.009,7.774L-1.935,9.169L-1.932,9.254L-1.738,12.914L-1.47,18.054L-1.417,19.043L-1.28,21.635L-1.244,22.359L-1.195,23.308L-1.188,23.389L-1.089,23.384L-1.1,23.217L-1.117,22.898L-0.433,22.862L-0.416,23.182L-0.409,23.348L-0.194,23.337L-0.183,23.513L-0.162,23.939L-0.137,24.366L-0.13,24.543L-0.345,24.554L-0.335,24.72L-0.321,25.039L-1.001,25.075L-1.019,24.756L-1.029,24.589L-1.124,24.595L-1.1,25.084L-1.061,25.857L-1.043,26.16L-1.04,26.225L-0.208,26.329L-0.127,26.339L0,26.355Z" style="fill:rgb(68,114,37);fill-rule:nonzero;"/>
                    </g>
                    <g transform="matrix(1,0,0,1,3712.04,924.868)">
                        <path d="M0,16.741L0.448,16.718L0.444,16.637L0.423,16.287L0.416,16.11L0.391,15.689L0.356,14.964L0.219,12.371L0.561,12.354L0.508,11.365L0.24,6.225L0.046,2.565L0.042,2.48L-0.032,1.085L-0.056,0.564L-0.455,0.125L-1.096,-0.012L-1.057,0.744L-1.004,1.689L-1.001,1.799L-0.98,2.171L-0.832,2.338L-0.645,2.543L-0.832,2.338L-0.254,5.334L-0.539,10.364L-0.521,10.929L-0.416,12.958L-0.271,15.691L-0.215,16.753L-0.151,16.749L0,16.741Z" style="fill:rgb(68,114,37);fill-rule:nonzero;"/>
                    </g>
                    <g transform="matrix(1,0,0,1,3705.57,945.618)">
                        <path d="M0,-0.664L-0.024,-0.41L0.114,0.018L0.103,-0.149L0.081,-0.584L0.075,-0.682L0,-0.664Z" style="fill:rgb(68,114,37);fill-rule:nonzero;"/>
                    </g>
                    <g transform="matrix(1,0,0,1,3705.47,941.21)">
                        <path d="M0,-15.437L0.025,-14.916L0.099,-13.52L0.102,-13.436L0.296,-9.776L0.564,-4.636L0.617,-3.647L0.959,-3.665L1.033,-2.227L1.495,-2.068L1.551,-2.048L1.495,-2.057L1.202,-2.046L1.04,-2.103L1.093,-1.073L1.132,-0.348L1.153,0.073L1.163,0.251L1.181,0.601L1.184,0.681L1.632,0.658L1.784,0.65L1.851,0.646L1.794,-0.415L1.65,-3.148L1.544,-5.177L1.502,-5.741L0.691,-10.713L0.952,-13.754L0.79,-13.531L0.952,-13.754L1.086,-13.935L1.065,-14.308L1.061,-14.417L1.012,-15.363L0.969,-16.118L0.345,-15.915L0,-15.437Z" style="fill:rgb(68,114,37);fill-rule:nonzero;"/>
                    </g>
                    <g transform="matrix(1,0,0,1,3706.38,920.497)">
                        <path d="M0,22.618L-0.099,22.623L-0.088,22.79L-0.071,23.108L-0.754,23.144L-0.772,22.825L-0.779,22.659L-0.994,22.67L-1.005,22.494L-1.026,22.067L-1.051,21.641L-1.058,21.464L-0.843,21.453L-0.853,21.286L-0.867,20.968L-0.187,20.932L-0.169,21.251L-0.159,21.417L-0.063,21.412L-0.067,21.331L-0.116,20.383L-0.155,19.658L-0.289,17.066L-0.342,16.077L-0.61,10.937L-0.804,7.277L-0.807,7.193L-0.881,5.797L-0.906,5.276L-1.251,-1.31L-1.276,-1.738L-2.316,-1.868L-3.338,-1.63L-3.313,-1.201L-1.995,23.988L-1.974,24.356L-1.66,24.396L-1.35,24.434L-1.1,24.466L-0.934,24.486L-0.807,24.457L-0.733,24.439L0.088,24.248L0.085,24.183L0.067,23.88L0.028,23.108L0,22.618Z" style="fill:rgb(68,114,37);fill-rule:nonzero;"/>
                    </g>
                    <g transform="matrix(1,0,0,1,3727.55,934.224)">
                        <path d="M0,-2.31L-2.707,-4.255L-6.355,-4.145L-8.918,-2.216L-9.701,-0.759L-9.592,1.945L-8.791,1.024L-8.513,0.925L-6.119,-1.143L-2.471,-1.253L0.116,0.665L1.079,1.624L1.371,1.898L1.294,-0.106L0.987,-0.658L0,-2.31Z" style="fill:rgb(68,114,37);fill-rule:nonzero;"/>
                    </g>
                    <g transform="matrix(1,0,0,1,3720.73,923.016)">
                        <path d="M0,2.395L0.01,2.473L0.046,2.402L0.388,2.192L0.952,1.846L1.569,1.467L1.762,1.348L2.619,1.322L3.504,1.296L3.627,1.292L4.533,1.745L4.741,1.85L4.759,0.866L4.769,0.4L4.505,0.248L4.082,0.175L3.934,0.149L2.922,-0.027L2.63,-0.078L2.552,-0.063L2.125,0.025L1.022,0.252L0.835,0.29L0.557,0.347L-0.137,0.559L-0.271,0.6L-0.063,1.98L0,2.395Z" style="fill:rgb(68,114,37);fill-rule:nonzero;"/>
                    </g>
                    <g transform="matrix(1,0,0,1,3708.72,912.92)">
                        <path d="M0,-4.889L-0.659,-4.854L-1.16,-4.828L-1.815,-4.794L-2.09,-4.779L-1.836,0.014L-1.565,0L-0.909,-0.035L-0.409,-0.061L0.25,-0.096L0.522,-0.11L0.271,-4.903L0,-4.889Z" style="fill:rgb(68,114,37);fill-rule:nonzero;"/>
                    </g>
                    <g transform="matrix(1,0,0,1,3706.52,912.934)">
                        <path d="M0,-4.787L0.251,-0.009L0.255,0.006L0.368,0L0.113,-4.793L0,-4.787Z" style="fill:rgb(68,114,37);fill-rule:nonzero;"/>
                    </g>
                    <g transform="matrix(1,0,0,1,3708.99,912.805)">
                        <path d="M0,-4.787L0.25,0.006L0.363,0L0.363,-0.015L0.113,-4.793L0,-4.787Z" style="fill:rgb(68,114,37);fill-rule:nonzero;"/>
                    </g>
                    <g transform="matrix(1,0,0,1,3719.78,930.285)">
                        <path d="M0,-0.299L-0.101,0.713L0.089,0.532L0.41,0.222L0.568,0.07L0.685,-0.076L0.832,-0.503L0.505,-0.606L0.314,-0.815L0.075,-1.012L0,-0.299Z" style="fill:rgb(68,114,37);fill-rule:nonzero;"/>
                    </g>
                    <g transform="matrix(0.0425147,0.999096,0.999096,-0.0425147,3708.46,892.642)">
                        <rect x="0.118" y="-0.201" width="0.091" height="0.324" style="fill:rgb(221,221,221);"/>
                    </g>
                    <g transform="matrix(1,0,0,1,3706.07,892.906)">
                        <path d="M0,-7.121L-0.568,-7.091L-0.546,-6.635L-0.525,-6.256L-0.522,-6.216L-0.511,-6.009L-0.37,-3.273L-0.511,-6.009L-0.627,-5.913L-0.606,-5.545L-0.501,-3.468L-0.479,-3.093L-0.317,-0.006L-0.314,0.089L0.056,0.069L0.945,0.023L1.833,-0.024L2.199,-0.043L2.196,-0.138L2.034,-3.225L2.016,-3.6L1.907,-5.677L1.886,-6.045L1.762,-6.128L1.907,-3.393L1.762,-6.128L1.752,-6.336L1.748,-6.375L1.731,-6.754L1.706,-7.21L1.138,-7.181L0,-7.121Z" style="fill:rgb(221,221,221);fill-rule:nonzero;"/>
                    </g>
                    <g transform="matrix(0.0212718,0.999774,0.999774,-0.0212718,3704.64,892.225)">
                        <rect x="0.758" y="-0.786" width="0.046" height="1.56" style="fill:rgb(221,221,221);"/>
                    </g>
                    <g transform="matrix(0.0425147,0.999096,0.999096,-0.0425147,3709.35,891.976)">
                        <rect x="0.743" y="-0.788" width="0.08" height="1.563" style="fill:rgb(221,221,221);"/>
                    </g>
                    <g transform="matrix(0.042068,0.999115,0.999115,-0.042068,3705.63,892.791)">
                        <rect x="0.118" y="-0.202" width="0.091" height="0.324" style="fill:rgb(221,221,221);"/>
                    </g>
                    <g transform="matrix(1,0,0,1,3710.79,905.605)">
                        <path d="M0,0.231L0.004,0.278L1.191,0.002L2.404,0.152L2.404,0.104L1.191,-0.047L0,0.231Z" style="fill:rgb(221,221,221);fill-rule:nonzero;"/>
                    </g>
                    <g transform="matrix(1,0,0,1,3712.01,918.846)">
                        <path d="M0,-12.74L-1.191,-12.463L-1.163,-11.912L-1.142,-11.494L-0.561,-0.45L-0.539,-0.021L-0.366,0L-0.391,-0.429L0.631,-0.667L1.674,-0.537L1.696,-0.108L1.865,-0.147L1.84,-0.576L1.241,-12.038L1.213,-12.589L0,-12.74Z" style="fill:rgb(221,221,221);fill-rule:nonzero;"/>
                    </g>
                    <g transform="matrix(1,0,0,1,3713.54,906.739)">
                        <path d="M0,-0.939L-0.345,-0.982L-1.558,-1.134L-2.746,-0.856L-3.084,-0.777L-3.067,-0.399L-3.039,0.152L-2.693,0.195L-2.721,-0.356L-1.53,-0.633L-0.317,-0.482L-0.289,0.069L0.05,-0.01L0.035,-0.258L0.021,-0.56L0,-0.939Z" style="fill:rgb(221,221,221);fill-rule:nonzero;"/>
                    </g>
                    <g transform="matrix(0.0139846,0.999902,0.999902,-0.0139846,3729.23,883.756)">
                        <path d="M-0.164,-0.18L0.408,-0.18L-0.032,-0.163L-0.39,-0.176L-0.164,-0.18Z" style="fill:rgb(221,221,221);fill-rule:nonzero;"/>
                    </g>
                    <g transform="matrix(1,0,0,1,3728.63,883.611)">
                        <path d="M0,-2.365L0.077,-1.63L0.077,-1.469L0.067,-1.321L0.06,-1.182L0.01,0.005L0.416,-0.017L0.416,-0.242L0.392,-0.69L0.36,-1.198L0.349,-1.361L0.105,-2.37L0,-2.365Z" style="fill:rgb(221,221,221);fill-rule:nonzero;"/>
                    </g>
                    <g transform="matrix(1,0,0,1,3705.51,943.606)">
                        <path d="M0,-2.142L0.014,-1.822L0.025,-1.656L0.036,-1.48L0.057,-1.054L0.077,-0.627L0.089,-0.45L0.095,-0.284L0.113,0.035L0.796,0L0.78,-0.32L0.769,-0.486L0.762,-0.663L0.741,-1.09L0.717,-1.516L0.709,-1.692L0.699,-1.858L0.681,-2.177L0,-2.142Z" style="fill:rgb(221,221,221);fill-rule:nonzero;"/>
                    </g>
                    <g transform="matrix(1,0,0,1,3704.1,894.24)">
                        <path d="M0,2.107L-0.032,1.535L-0.109,0.026L-1.322,-0.126L-2.513,0.151L-2.468,1.04L-2.464,1.099L-2.404,2.233L-1.216,1.956L0,2.107Z" style="fill:rgb(221,221,221);fill-rule:nonzero;"/>
                    </g>
                    <g transform="matrix(1,0,0,1,3692.04,885.09)">
                        <path d="M0,-1.134L-0.518,-1.682L-2.189,-1.683L-2.002,-0.785L-2.002,-0.636L-2.006,0.522L-2.002,0.549L-1.717,0.534L0.081,0.44L0.021,-0.742L0,-1.134Z" style="fill:rgb(221,221,221);fill-rule:nonzero;"/>
                    </g>
                    <g transform="matrix(1,0,0,1,3687.85,885.771)">
                        <path d="M0,-2.388L-0.106,-2.383L-0.169,-1.616L-0.219,-1.191L-0.328,-0.277L-0.328,0L-0.247,-0.004L0.201,-0.028L0.828,-0.061L0.666,-1.237L0.659,-1.28L0.219,-2.383L0,-2.388Z" style="fill:rgb(221,221,221);fill-rule:nonzero;"/>
                    </g>
                    <g transform="matrix(1,0,0,1,3692.04,882.28)">
                        <path d="M0,1.676L0.205,1.892L1.368,1.831L0.303,0.706L-0.497,0.747L-0.525,0.151L-0.885,0.151L-1.569,0.15L-3.172,0.15L-3.377,0.145L-4.152,0.127L-4.251,0.124L-4.307,0.123L-4.974,0.107L-5.319,0.099L-6.239,0.078L-6.246,0.078L-6.874,-0.002L-7.163,-0.038L-7.335,-0.06L-7.638,-0.099L-8.354,-0.19L-8.559,-0.216L-8.527,0.381L-8.548,0.761L-8.379,0.783L-7.794,0.857L-7.783,0.858L-7.741,0.864L-7.424,0.904L-6.546,1.015L-6.243,1.054L-6.239,1.055L-6.225,1.055L-6.144,1.057L-5.598,1.07L-4.776,1.089L-4.396,1.098L-4.329,1.099L-4.29,1.1L-4.184,1.103L-3.966,1.108L-3.853,1.111L-3.451,1.12L-3.162,1.127L-2.189,1.127L-0.518,1.128L0,1.676Z" style="fill:rgb(221,221,221);fill-rule:nonzero;"/>
                    </g>
                    <g transform="matrix(1,0,0,1,3682.97,884.983)">
                        <path d="M0,-0.158L-0.025,-0.605L-0.102,-1.338L-3.039,-1.184L-2.979,-0.002L-2.915,1.18L0.063,1.024L0.042,0.696L0,-0.158Z" style="fill:rgb(221,221,221);fill-rule:nonzero;"/>
                    </g>
                    <g transform="matrix(1,0,0,1,3700.13,961.712)">
                        <path d="M0,-4.953L-2.355,-4.681L-6.43,-4.468L-8.823,-4.082L-9.729,-4.365L-9.715,-2.505L-9.26,-0.51L-8.358,0L-5.901,-0.972L-2.256,-1.163L0.508,-0.772L1.347,-1.396L1.22,-3.226L0.434,-4.338L0.282,-4.555L0,-4.953Z" style="fill:rgb(221,221,221);fill-rule:nonzero;"/>
                    </g>
                    <g transform="matrix(1,0,0,1,3712.9,943.216)">
                        <path d="M0,-2.139L0.018,-1.821L0.028,-1.653L0.036,-1.477L0.056,-1.051L0.081,-0.625L0.088,-0.449L0.099,-0.281L0.115,0.037L0.796,0.001L0.782,-0.317L0.772,-0.484L0.761,-0.66L0.739,-1.087L0.719,-1.514L0.708,-1.69L0.701,-1.856L0.684,-2.176L0,-2.139Z" style="fill:rgb(221,221,221);fill-rule:nonzero;"/>
                    </g>
                    <g transform="matrix(1,0,0,1,3704.64,919.144)">
                        <path d="M0,-12.437L-1.213,-12.589L-2.404,-12.311L-2.376,-11.76L-1.777,-0.299L-1.752,0.13L-1.579,0.152L-1.604,-0.277L-0.582,-0.515L0.458,-0.385L0.483,0.043L0.652,0.004L0.627,-0.425L0.05,-11.468L0.028,-11.886L0,-12.437Z" style="fill:rgb(221,221,221);fill-rule:nonzero;"/>
                    </g>
                    <g transform="matrix(1,0,0,1,3702.21,906.054)">
                        <path d="M0,0.23L0,0.278L1.192,0.001L2.404,0.153L2.404,0.103L1.188,-0.048L0,0.23Z" style="fill:rgb(221,221,221);fill-rule:nonzero;"/>
                    </g>
                    <g transform="matrix(1,0,0,1,3703.43,906.883)">
                        <path d="M0,-0.328L1.213,-0.176L1.241,0.374L1.579,0.295L1.551,-0.255L1.53,-0.634L1.185,-0.677L-0.028,-0.828L-1.219,-0.551L-1.558,-0.472L-1.537,-0.094L-1.519,0.208L-1.509,0.457L-1.163,0.5L-1.191,-0.051L0,-0.328Z" style="fill:rgb(221,221,221);fill-rule:nonzero;"/>
                    </g>
                    <g transform="matrix(1,0,0,1,3721.37,880.936)">
                        <path d="M0,0.529L-0.8,0.571L-1.741,1.801L-0.578,1.74L-0.398,1.504L0.06,0.905L1.72,0.73L1.759,0.726L2.027,0.698L2.689,0.627L2.979,0.59L3.373,0.539L3.49,0.524L3.705,0.497L3.807,0.483L3.916,0.47L4.29,0.421L5.108,0.316L5.65,0.246L5.739,0.235L5.746,0.233L6.045,0.163L6.905,-0.039L7.216,-0.112L7.258,-0.123L7.268,-0.124L7.843,-0.26L8.009,-0.299L7.949,-0.675L7.917,-1.272L7.716,-1.225L7.015,-1.06L6.546,-0.949L6.264,-0.883L5.65,-0.739L5.643,-0.738L5.64,-0.737L4.73,-0.62L4.385,-0.576L3.722,-0.49L3.666,-0.483L3.571,-0.471L2.802,-0.372L2.598,-0.346L2.337,-0.318L1.836,-0.265L1.819,-0.263L1.695,-0.25L1.036,-0.18L1.004,-0.177L-0.032,-0.067L0,0.529Z" style="fill:rgb(221,221,221);fill-rule:nonzero;"/>
                    </g>
                    <g transform="matrix(1,0,0,1,3723.14,881.803)">
                        <path d="M0,2.074L-0.123,0.923L-0.141,0.776L-0.049,-0.137L-1.709,0.038L-2.168,0.637L-2.147,1.029L-2.083,2.211L-1.364,2.173L-0.282,2.117L0.004,2.102L0,2.074Z" style="fill:rgb(221,221,221);fill-rule:nonzero;"/>
                    </g>
                    <g transform="matrix(1,0,0,1,3724.53,882.615)">
                        <path d="M0,0.031L-0.039,1.219L0.592,1.186L1.04,1.162L1.117,1.158L1.089,0.883L0.885,-0.015L0.79,-0.433L0.648,-1.188L0.543,-1.183L0.328,-1.155L0.003,-0.012L0,0.031Z" style="fill:rgb(221,221,221);fill-rule:nonzero;"/>
                    </g>
                    <g transform="matrix(0.221527,0.975154,0.975154,-0.221527,3725.69,882.735)">
                        <path d="M-0.192,-0.24L0.728,-0.24L-0.098,-0.139L-0.62,-0.241L-0.192,-0.24Z" style="fill:rgb(221,221,221);fill-rule:nonzero;"/>
                    </g>
                    <g transform="matrix(1,0,0,1,3711.87,904.786)">
                        <path d="M0,-1.309L-1.191,-1.032L-1.16,-0.445L-1.146,-0.118L-0.472,-0.154L0.06,-0.138L0.818,-0.115L1.272,0L1.244,-0.571L1.213,-1.158L0,-1.309Z" style="fill:rgb(221,221,221);fill-rule:nonzero;"/>
                    </g>
                    <g transform="matrix(1,0,0,1,3685.81,885.852)">
                        <path d="M0,-2.361L0.004,-1.435L0.01,-1.177L0.018,-1.026L0.071,0.005L0.342,-0.009L0.216,-1.071L0.204,-1.187L0.095,-2.366L0,-2.361Z" style="fill:rgb(221,221,221);fill-rule:nonzero;"/>
                    </g>
                    <g transform="matrix(1,0,0,1,3684.2,885.944)">
                        <path d="M0,-2.368L-0.137,-1.338L-0.131,-1.176L-0.109,-0.668L-0.085,-0.22L-0.063,0.006L0.341,-0.016L0.169,-1.193L0.148,-1.33L0.123,-1.474L0.105,-1.635L0.103,-2.374L0,-2.368Z" style="fill:rgb(221,221,221);fill-rule:nonzero;"/>
                    </g>
                    <g transform="matrix(1,0,0,1,3706.09,944.359)">
                        <path d="M0,-6.796L0.134,-4.203L0.172,-3.479L0.222,-2.53L0.226,-2.449L0.236,-2.273L0.257,-1.847L0.275,-1.554L0.283,-1.42L0.289,-1.243L0.317,-0.754L0.356,0.018L0.699,0.001L0.659,-0.772L0.645,-1.008L0.631,-1.261L0.624,-1.439L0.617,-1.572L0.6,-1.865L0.578,-2.291L0.568,-2.467L0.564,-2.548L0.546,-2.898L0.536,-3.076L0.515,-3.497L0.476,-4.222L0.424,-5.252L0.416,-5.376L0.342,-6.814L0,-6.796Z" style="fill:rgb(221,221,221);fill-rule:nonzero;"/>
                    </g>
                    <g transform="matrix(1,0,0,1,3704.77,947.311)">
                        <path d="M0,-1.417L-0.004,-1.488L-1.488,-1.41L-1.484,-1.339L-1.445,-0.599L-1.445,-0.59L-1.41,0.071L0.074,-0.007L0.039,-0.676L0,-1.417Z" style="fill:rgb(221,221,221);fill-rule:nonzero;"/>
                    </g>
                    <g transform="matrix(1,0,0,1,3703.35,904.191)">
                        <path d="M0,0.907L0.525,0.835L1.198,0.8L1.181,0.474L1.153,-0.113L-0.063,-0.264L-1.251,0.013L-1.223,0.6L-1.192,1.171L-0.751,1.009L0,0.907Z" style="fill:rgb(221,221,221);fill-rule:nonzero;"/>
                    </g>
                    <g transform="matrix(1,0,0,1,3711.36,896.023)">
                        <path d="M0,-2.359L-1.191,-2.082L-1.114,-0.572L-1.082,0L0.109,-0.277L1.322,-0.126L1.258,-1.319L1.213,-2.208L0,-2.359Z" style="fill:rgb(221,221,221);fill-rule:nonzero;"/>
                    </g>
                    <g transform="matrix(1,0,0,1,3712.26,944.035)">
                        <path d="M0,-6.796L0.137,-4.204L0.173,-3.479L0.197,-3.058L0.204,-2.88L0.226,-2.53L0.228,-2.449L0.236,-2.273L0.26,-1.847L0.275,-1.554L0.281,-1.421L0.293,-1.243L0.303,-0.99L0.317,-0.754L0.356,0.018L0.698,0.001L0.659,-0.772L0.634,-1.262L0.624,-1.439L0.616,-1.572L0.602,-1.865L0.578,-2.291L0.571,-2.468L0.564,-2.548L0.515,-3.497L0.479,-4.222L0.341,-6.814L0,-6.796Z" style="fill:rgb(221,221,221);fill-rule:nonzero;"/>
                    </g>
                    <g transform="matrix(1,0,0,1,3707.61,950.146)">
                        <path d="M0,2.069L-0.01,1.86L-0.035,1.393L-0.067,0.776L-0.077,0.593L-0.081,0.574L-0.532,0.598L-0.567,-0.107L-1.23,-0.072L-1.191,0.632L-1.149,1.451L-1.114,2.127L-1.11,2.176L-0.314,2.134L0.004,2.117L0,2.069Z" style="fill:rgb(221,221,221);fill-rule:nonzero;"/>
                    </g>
                    <g transform="matrix(1,0,0,1,3707.54,955.716)">
                        <path d="M0,-4.794L0.032,-4.178L0.057,-3.71L0.067,-3.501L0.071,-3.452L-0.246,-3.436L0.188,-2.955L0.346,0.074L0.511,0.184L0.476,-0.495L0.349,-2.963L0.325,-3.413L0.289,-4.053L0.265,-4.568L-0.01,-4.978L0,-4.794Z" style="fill:rgb(221,221,221);fill-rule:nonzero;"/>
                    </g>
                    <g transform="matrix(1,0,0,1,3707.18,950.719)">
                        <path d="M0,-0.687L-0.053,-0.684L-0.137,-0.681L-0.103,0.024L0.349,0.002L0.353,-0.014L0.454,-0.711L0,-0.687Z" style="fill:rgb(221,221,221);fill-rule:nonzero;"/>
                    </g>
                    <g transform="matrix(1,0,0,1,3725.96,936.944)">
                        <path d="M0,-0.597L0.006,-0.493L0.036,0.061L1.84,0.007L2.009,-0.553L2.009,-0.658L0,-0.597Z" style="fill:rgb(221,221,221);fill-rule:nonzero;"/>
                    </g>
                    <g transform="matrix(1,0,0,1,3727.67,934.653)">
                        <path d="M0,0.235L-2.587,-1.682L-6.236,-1.572L-8.629,0.495L-8.907,0.594L-9.708,1.515L-9.708,1.811L-9.229,1.898L-9.186,1.906L-9.126,1.917L-2.164,1.706L-1.709,1.693L0.3,1.632L1.065,1.609L1.255,1.468L0.962,1.194L0,0.235Z" style="fill:rgb(221,221,221);fill-rule:nonzero;"/>
                    </g>
                    <g transform="matrix(1,0,0,1,3730.09,882.2)">
                        <path d="M0,0.155L0.046,1.009L0.06,1.338L3.039,1.181L2.979,-0.001L2.915,-1.183L-0.021,-1.029L-0.021,-0.292L0,0.155Z" style="fill:rgb(221,221,221);fill-rule:nonzero;"/>
                    </g>
                    <g transform="matrix(1,0,0,1,3715.15,946.757)">
                        <path d="M0,-1.407L-0.004,-1.478L-1.29,-1.411L-1.287,-1.34L-1.251,-0.67L-1.248,-0.599L-1.213,0.071L0.074,0.003L0.039,-0.666L0,-1.407Z" style="fill:rgb(221,221,221);fill-rule:nonzero;"/>
                    </g>
                    <g transform="matrix(1,0,0,1,3724.96,934.085)">
                        <path d="M0,-4.527L0.035,-4.56L-4.04,-4.438L-4.494,-3.876L-4.611,-3.73L-3.902,-4.41L-4.611,-3.73L-4.769,-3.578L-5.09,-3.268L-5.281,-3.086L-5.316,-3.052L-5.506,-2.87L-6.327,-2.077L-3.765,-4.007L-0.116,-4.117L2.591,-2.171L3.578,-0.519L3.885,0.033L3.603,-1.413L2.584,-3.079L0,-4.527Z" style="fill:rgb(221,221,221);fill-rule:nonzero;"/>
                    </g>
                    <g transform="matrix(1,0,0,1,3702.49,819.808)">
                        <path d="M0,2.847L4.093,2.556L8.777,2.556L12.32,2.847L14.276,2.431L14.516,0.763L14.533,0L14.294,1.619L12.337,2.072L8.791,1.876L4.107,1.876L0.018,2.072L-2.774,1.619L-4.494,0L-4.512,0.763L-2.792,2.431L0,2.847Z" style="fill:rgb(221,221,221);fill-rule:nonzero;"/>
                    </g>
                    <g transform="matrix(1,0,0,1,3701.39,828.009)">
                        <path d="M0,0.948L-0.042,0.319L-0.194,0L0,0.948Z" style="fill:rgb(221,221,221);fill-rule:nonzero;"/>
                    </g>
                    <g transform="matrix(1,0,0,1,3703.48,884.167)">
                        <path d="M0,0.153L0,0.121L-0.063,-1.059L-0.927,-1.071L-3.021,-1.098L-4.516,-1.118L-8.182,-1.166L-8.118,0.008L-8.118,0.014L-8.065,1.021L-8.058,1.203L-8.055,1.212L-4.639,1.257L-4.258,1.262L-3.553,1.271L0.063,1.319L0.06,1.31L0,0.153Z" style="fill:rgb(221,221,221);fill-rule:nonzero;"/>
                    </g>
                    <g transform="matrix(1,0,0,1,3705.08,947.274)">
                        <path d="M0,-1.396L0.038,-0.656L0.073,0.014L0.323,0L0.289,-0.668L0.25,-1.41L0,-1.396Z" style="fill:rgb(221,221,221);fill-rule:nonzero;"/>
                    </g>
                    <g transform="matrix(1,0,0,1,3705.32,947.255)">
                        <path d="M0,-1.462L0.004,-1.391L0.043,-0.649L0.077,0.019L0.448,0L0.412,-0.67L0.41,-0.741L0.374,-1.41L0.37,-1.481L0,-1.462Z" style="fill:rgb(221,221,221);fill-rule:nonzero;"/>
                    </g>
                    <g transform="matrix(1,0,0,1,3727.02,883.696)">
                        <path d="M0,-2.366L0.014,-1.18L0.014,-1.065L0.004,0.005L0.145,-0.002L0.174,-0.004L0.271,-0.009L0.219,-1.04L0.208,-1.19L0.187,-1.449L0.095,-2.371L0,-2.366Z" style="fill:rgb(221,221,221);fill-rule:nonzero;"/>
                    </g>
                    <g transform="matrix(1,0,0,1,3717.74,882.977)">
                        <path d="M0,1.041L-0.049,0.035L-0.053,0.028L-0.113,-1.146L-0.148,-1.142L-1.202,-1.016L-2.073,-0.914L-5.118,-0.553L-8.175,-0.191L-8.115,0.989L-8.111,1.021L-8.051,2.178L-8.051,2.187L-7.448,2.116L-6.497,2.003L-6.186,1.966L-5.887,1.931L-3.264,1.62L-0.088,1.244L0.01,1.232L0.01,1.224L0,1.041Z" style="fill:rgb(221,221,221);fill-rule:nonzero;"/>
                    </g>
                    <g transform="matrix(1,0,0,1,3714.48,837.842)">
                        <path d="M0,-13.954L-11.752,-13.954L-14.259,-13.441L-13.388,-13.441L-13.201,-13.536L-13.194,-13.445L-13.176,-13.449L-12.644,-13.454L-12.32,-13.455L-12.697,-12.423L-12.979,-11.158L-12.923,-10.553L-12.856,-9.829L-12.753,-8.746L-12.51,-6.122L-12.496,-5.97L-12.429,-5.729L-12.475,-5.761L-12.348,-4.373L-12.302,-3.885L-12.048,-3.624L-12.038,-3.621L-11.777,-3.341L-11.245,-2.787L-11.241,-2.783L-11.234,-2.761L-11.009,-2.142L-10.913,-1.878L-10.61,-1.034L-10.554,-0.885L-9.289,-0.373L-8.566,-0.081L-7.822,-0.056L-7.611,-0.01L-7.572,-0.036L-7.205,-0.034L-7.131,-0.032L-6.659,-0.016L-6.652,-0.02L-6.634,-0.018L-6.483,-0.009L-6.412,-0.007L-6.193,0L-6.183,-0.004L-5.94,0L-5.362,-0.403L-5.305,-0.34L-5.245,-0.377L-4.427,-0.893L-4.24,-1.011L-3.469,-1.663L-3.363,-1.794L-3.208,-1.981L-2.379,-2.993L-2.228,-3.174L-1.541,-4.704L-1.216,-5.424L-1.206,-5.474L-1.11,-5.837L-1.089,-5.91L-0.61,-7.746L-0.61,-7.748L-0.603,-7.775L-0.543,-8.011L-0.395,-8.831L-0.275,-9.485L-0.194,-9.938L-0.145,-10.22L-0.109,-12.081L-0.335,-13.486L-0.166,-13.486L0.42,-13.483L0.451,-13.536L0.444,-13.483L0.543,-13.482L0.606,-13.441L1.621,-13.441L0,-13.954Z" style="fill:rgb(242,211,173);fill-rule:nonzero;"/>
                    </g>
                </g>
            </g>
        </g>
    </g>
</svg>
