<?xml version="1.0" encoding="UTF-8" standalone="no"?>
<!DOCTYPE svg PUBLIC "-//W3C//DTD SVG 1.1//EN" "http://www.w3.org/Graphics/SVG/1.1/DTD/svg11.dtd">
<svg width="100%" height="100%" viewBox="0 0 108 241" version="1.1" xmlns="http://www.w3.org/2000/svg" xmlns:xlink="http://www.w3.org/1999/xlink" xml:space="preserve" xmlns:serif="http://www.serif.com/" style="fill-rule:evenodd;clip-rule:evenodd;stroke-linejoin:round;stroke-miterlimit:2;">
    <g id="Artboard1" transform="matrix(1,0,0,1,17.4709,59.2733)">
        <rect x="-17.471" y="-59.273" width="107.558" height="240.916" style="fill:none;"/>
        <g transform="matrix(1,0,0,1,-3851.23,-265.208)">
            <g id="biker-01-outbound">
                <g>
                    <g transform="matrix(1,0,0,1,3891.92,262.978)">
                        <path d="M0,5.848L2.161,5.809L2.228,3.099L2.411,2.475L2.415,1.082L2.422,-0.61L2.337,-0.546L-2.316,-0.546L2.337,-0.546L-0.458,-0.659L-9.539,-0.659L-12.33,-0.546L-10.286,-0.546L-11.989,-0.546L-11.981,1.044L-11.974,2.94L-11.974,3.268L-11.819,3.61L-11.59,6.313L-10.247,6.289L-8.192,6.236L-4.804,6.507L-4.762,6.504L-2.133,5.947L0,5.848Z" style="fill:rgb(63,38,19);fill-rule:nonzero;"/>
                    </g>
                    <g transform="matrix(1,0,0,1,3894.15,265.452)">
                        <path d="M0,0.625L0.184,0.12L0.184,0L0,0.625Z" style="fill:rgb(63,38,19);fill-rule:nonzero;"/>
                    </g>
                    <g transform="matrix(1,0,0,1,3878.8,264.937)">
                        <path d="M0,-2.795L0.41,-0.351L0.701,0.307L0.705,-0.377L0.709,-0.864L0.715,-2.08L0.715,-2.555L0.479,-2.732L0.226,-2.918L-0.024,-3.102L0,-2.795Z" style="fill:rgb(63,38,19);fill-rule:nonzero;"/>
                    </g>
                    <g transform="matrix(1,0,0,1,3895.25,263.812)">
                        <path d="M0,-2.11L-0.501,-1.747L-0.493,-0.838L-0.49,0.18L-0.236,-0.672L-0.204,-0.785L-0.028,-1.389L0,-1.472L0.089,-1.779L0.24,-2.29L0,-2.11Z" style="fill:rgb(63,38,19);fill-rule:nonzero;"/>
                    </g>
                    <g transform="matrix(0.0105814,0.999944,0.999944,-0.0105814,3894.65,263.631)">
                        <path d="M0.363,0.107L0.741,0.107L0.224,0.299L-0.487,0.371L0.363,0.107Z" style="fill:rgb(63,38,19);fill-rule:nonzero;"/>
                    </g>
                    <g transform="matrix(1,0,0,1,3865.97,307.21)">
                        <path d="M0,-28.518L1.114,-25.853L2.52,-21.925L1.896,-19.043L1.643,-17.87L1.142,-15.556L1.167,4.066L2.058,7.723L2.693,9.211L2.771,8.264L2.788,8.024L2.887,6.827L5.21,5.307L5.259,5.274L5.982,5.063L8.093,4.446L8.128,4.436L8.132,4.434L8.188,4.418L8.795,4.241L9.595,4.164L11.096,4.022L14.766,3.672L17.822,3.382L22.454,2.941L36.194,3.684L38.193,4.635L40.396,6.263L40.488,7.059L41.373,5.633L41.105,4.19L40.213,-12.771L41.091,-17.758L41.129,-17.974L41.436,-19.712L41.489,-20.02L41.764,-22.365L42.712,-23.863L43.593,-28.173L43.424,-30.683L43.333,-31.694L37.527,-34.436L31.979,-36.869L28.577,-37.07L28.312,-37.087L27.971,-37.109L27.925,-37.109L27.907,-37.112L27.498,-37.137L26.839,-37.175L25.524,-37.253L21.037,-37.518L25.524,-37.253L24.978,-37.313L23.691,-37.454L23.24,-37.503L21.185,-37.729L21.143,-37.726L18.566,-37.235L18.161,-37.158L17.008,-36.943L15.295,-36.619L14.97,-36.559L14.646,-36.495L14.562,-36.481L14.519,-36.474L14.505,-36.47L14.315,-36.435L14.139,-36.4L12.7,-36.129L8.213,-34.705L0.162,-32.05L0.092,-31.031L0,-28.518Z" style="fill:rgb(0,188,218);fill-rule:nonzero;"/>
                    </g>
                    <g transform="matrix(1,0,0,1,3907.31,351.393)">
                        <path d="M0,-0.324L0.363,-2.976L0.021,-2.86L-0.807,-2.579L-2.919,1.397L-0.409,2.652L0,-0.324Z" style="fill:rgb(66,76,160);fill-rule:nonzero;"/>
                    </g>
                    <g transform="matrix(1,0,0,1,3906.37,352.745)">
                        <path d="M0,-3.886L-1.981,0.045L0.131,-3.931L0,-3.886Z" style="fill:rgb(51,51,51);fill-rule:nonzero;"/>
                    </g>
                    <g transform="matrix(1,0,0,1,3878.36,380.203)">
                        <path d="M0,3.294L0.959,1.017L-0.074,0.332L-0.391,0.121L-0.814,-0.16L-1.957,-0.373L-1.78,3.667L0,3.294Z" style="fill:rgb(66,76,160);fill-rule:nonzero;"/>
                    </g>
                    <g transform="matrix(1,0,0,1,3871.23,315.934)">
                        <path d="M0,-3.449L-0.049,-3.416L-2.372,-1.897L-2.471,-0.7L-2.489,-0.459L-2.566,0.488L-1.713,0.828L-1.579,0.234L-1.459,-0.285L-1.184,-1.503L0.007,-2.484L0.635,-3.001L0.931,-3.245L2.834,-4.277L0.723,-3.66L0,-3.449Z" style="fill:rgb(51,51,51);fill-rule:nonzero;"/>
                    </g>
                    <g transform="matrix(0.248803,0.968554,0.968554,-0.248803,3878.7,261.999)">
                        <path d="M0.054,0.069L0.166,0.069L-0.137,0.122L-0.201,0.069L0.054,0.069Z" style="fill:rgb(51,51,51);fill-rule:nonzero;"/>
                    </g>
                    <g transform="matrix(1,0,0,1,3879.95,266.507)">
                        <path d="M0,-0.159L0.155,0.081L0,-0.24L0,-0.159Z" style="fill:rgb(51,51,51);fill-rule:nonzero;"/>
                    </g>
                    <g transform="matrix(1,0,0,1,3917.53,337.981)">
                        <path d="M0,-6.282L-0.842,-7.174L-0.335,-6.51L-0.451,-6.296L5.63,0.892L4.914,-0.087L3.79,-1.617L1.763,-4.38L0.684,-5.542L0.462,-5.783L0,-6.282Z" style="fill:rgb(51,51,51);fill-rule:nonzero;"/>
                    </g>
                    <g transform="matrix(1,0,0,1,3917.64,352.379)">
                        <path d="M0,-2.958L-0.472,-3.681L-0.553,-3.802L-0.606,-3.818L-0.677,-3.467L-1.198,-0.892L-1.315,-0.314L-1.551,0.86L1.622,-0.482L0.282,-2.528L0,-2.958Z" style="fill:rgb(66,76,160);fill-rule:nonzero;"/>
                    </g>
                    <g transform="matrix(1,0,0,1,3880.36,269.425)">
                        <path d="M0,0.801L0.134,1.312L0.176,1.304L-0.25,-0.437L-0.307,-0.511L0,0.801Z" style="fill:rgb(51,51,51);fill-rule:nonzero;"/>
                    </g>
                    <g transform="matrix(1,0,0,1,3866.77,383.384)">
                        <path d="M0,-3.076L-0.113,-3.055L-0.257,-2.948L-1.822,-1.785L0.31,0L0.145,-1.665L0,-3.076Z" style="fill:rgb(66,76,160);fill-rule:nonzero;"/>
                    </g>
                    <g transform="matrix(1,0,0,1,3880.74,311.338)">
                        <path d="M0,-0.455L-3.67,-0.106L-5.171,0.037L-5.971,0.113L-6.578,0.291L-5.154,0.143L-3.677,-0.009L0.021,-0.392L3.084,-0.71L3.056,-0.746L0,-0.455Z" style="fill:rgb(51,51,51);fill-rule:nonzero;"/>
                    </g>
                    <g transform="matrix(1,0,0,1,3895.76,266.986)">
                        <path d="M0,-5.083L-0.518,-3.035L-0.754,-1.195L-0.984,-0.303L-0.98,0.434L-0.839,0.43L-0.395,-1.209L0.321,-3.067L0.959,-5.118L1.026,-5.517L0.969,-5.517L0.049,-5.481L0,-5.083Z" style="fill:rgb(205,152,99);fill-rule:nonzero;"/>
                    </g>
                    <g transform="matrix(1,0,0,1,3862.98,333.132)">
                        <path d="M0,-1.187L-2.33,-0.92L-3.55,-1.78L-3.659,0.244L-3.225,0.264L-2.905,0.28L-2.584,0.576L-2.14,0.565L-1.939,0.577L-0.927,0.636L-0.423,0.772L0.257,0.683L0.761,0.761L1.713,0.686L2.394,0.62L2.411,0.463L2.69,-1.959L1.78,-1.593L0,-1.187Z" style="fill:rgb(205,152,99);fill-rule:nonzero;"/>
                    </g>
                    <g transform="matrix(1,0,0,1,3859.14,336.401)">
                        <path d="M0,0.382L0.56,0.463L1.523,0.346L1.353,-0.016L0.711,-0.048L0.342,-0.066L0.024,-0.081L0,0.382Z" style="fill:rgb(205,152,99);fill-rule:nonzero;"/>
                    </g>
                    <g transform="matrix(1,0,0,1,3883.79,310.189)">
                        <path d="M0,0.403L0.029,0.44L4.632,-0.037L0,0.403Z" style="fill:rgb(205,152,99);fill-rule:nonzero;"/>
                    </g>
                    <g transform="matrix(1,0,0,1,3923.03,302.003)">
                        <path d="M0,3.951L-3.232,-7.648L-7.755,-19.132L-10.889,-24.714L-13.726,-26.486L-13.635,-25.475L-13.466,-22.965L-14.347,-18.655L-15.295,-17.157L-15.57,-14.812L-15.623,-14.505L-15.929,-12.766L-15.968,-12.55L-13.222,-5.455L-9.161,6.623L-10.364,15.444L-11.026,22.599L-10.427,23.498L-10.029,24.094L-9.486,24.654L-9.214,25.039L-9.193,25.068L-7.977,26.663L-7.78,26.922L-7.343,27.496L-6.401,28.73L-6.165,28.983L-5.503,29.697L-5.041,30.196L-4.819,30.437L-4.942,29.256L-6.32,25.293L-2.566,15.238L0,3.951Z" style="fill:rgb(205,152,99);fill-rule:nonzero;"/>
                    </g>
                    <g transform="matrix(0.686839,0.72681,0.72681,-0.686839,3917.11,330.65)">
                        <path d="M-0.173,-0.413L1.053,-0.413L0.079,-0.404L-0.268,-0.402L-0.173,-0.413Z" style="fill:rgb(205,152,99);fill-rule:nonzero;"/>
                    </g>
                    <g transform="matrix(0.605083,0.796162,0.796162,-0.605083,3880.07,268.833)">
                        <path d="M0.051,-0.066L0.146,-0.066L0.521,-0.072L-0.337,0.11L0.051,-0.066Z" style="fill:rgb(205,152,99);fill-rule:nonzero;"/>
                    </g>
                    <g transform="matrix(1,0,0,1,3881.67,270.662)">
                        <path d="M0,-1.396L-1.343,-1.371L-1.054,0.053L-0.73,-0.011L-0.406,-0.071L1.308,-0.395L2.46,-0.61L2.866,-0.687L5.443,-1.177L2.055,-1.449L0,-1.396Z" style="fill:rgb(205,152,99);fill-rule:nonzero;"/>
                    </g>
                    <g transform="matrix(0.986706,-0.162516,-0.162516,-0.986706,3880.67,270.69)">
                        <path d="M-0.144,-0.016L-0.058,-0.016L-0.111,1.436L-0.281,1.771L-0.144,-0.016Z" style="fill:rgb(205,152,99);fill-rule:nonzero;"/>
                    </g>
                    <g transform="matrix(1,0,0,1,3864.8,337.664)">
                        <path d="M0,0.535L0.074,0.457L0.212,-0.737L0.24,-0.968L0.166,-1.064L-0.381,-1.09L-0.751,-1.108L-1.227,-1.131L-1.805,-1.159L-2.139,-1.175L-2.735,-1.204L-2.95,-1.214L-3.408,-1.236L-3.553,-1.141L-3.246,-0.666L-2.993,1.771L-2.887,1.593L-2.901,1.026L-2.654,0.858L-2.316,0.627L-2.207,0.551L-1.466,0.503L-1.343,0.494L-1.216,0.486L-1.061,0.657L-1.209,-0.789L-0.201,1.631L-0.01,0.578L0,0.535Z" style="fill:rgb(205,152,99);fill-rule:nonzero;"/>
                    </g>
                    <g transform="matrix(1,0,0,1,3864.79,339.393)">
                        <path d="M0,-1.151L-0.19,-0.097L-0.063,0.043L-0.021,-0.327L0.075,-1.166L0.01,-1.194L0,-1.151Z" style="fill:rgb(205,152,99);fill-rule:nonzero;"/>
                    </g>
                    <g transform="matrix(1,0,0,1,3863.46,340.316)">
                        <path d="M0,-2.158L-0.123,-2.15L-0.864,-2.101L-0.973,-2.026L-1.311,-1.794L-1.558,-1.626L-1.544,-1.06L-1.54,-0.926L-1.65,-0.881L-1.191,0.009L0.095,-0.076L0.494,-1.06L0.476,-1.783L0.282,-1.995L0.127,-2.167L0,-2.158Z" style="fill:rgb(205,152,99);fill-rule:nonzero;"/>
                    </g>
                    <g transform="matrix(1,0,0,1,3879.15,263.765)">
                        <path d="M0,2.604L-0.367,0.785L-1.005,-1.221L-1.054,-1.615L-1.932,-1.58L-1.861,-1.189L-1.206,0.817L-0.36,2.618L0.222,4.219L0.342,4.215L0.345,3.602L0,2.604Z" style="fill:rgb(205,152,99);fill-rule:nonzero;"/>
                    </g>
                    <g transform="matrix(1,0,0,1,3860.91,340.103)">
                        <path d="M0,-3.698L-0.419,-3.719L-0.25,-3.355L-1.213,-3.239L-1.773,-3.32L-1.547,-0.869L-1.431,-0.502L-0.917,0.021L0.095,0.012L0.49,-0.503L0.36,-0.853L0.335,-3.58L0.208,-3.688L0,-3.698Z" style="fill:rgb(205,152,99);fill-rule:nonzero;"/>
                    </g>
                    <g transform="matrix(1,0,0,1,3862.98,275.427)">
                        <path d="M0,56.518L1.78,56.112L2.69,55.746L2.792,54.862L2.908,53.853L3.042,53.801L3.462,53.636L3.599,53.582L3.595,53.577L2.573,51.686L-0.077,43.331L-2.58,34.608L1.227,20.853L4.265,13.959L4.635,13.914L4.889,12.741L4.519,11.57L4.889,12.741L5.513,9.859L4.107,5.93L2.993,3.266L3.084,0.752L3.155,-0.267L0.384,1.616L-3.091,7.329L-8.788,20.707L-11.509,34.844L-8.002,43.54L-3.518,51.932L-3.55,55.925L-2.33,56.785L0,56.518Z" style="fill:rgb(205,152,99);fill-rule:nonzero;"/>
                    </g>
                    <g transform="matrix(1,0,0,1,3916.44,369.638)">
                        <path d="M0,-18.151L0.522,-20.726L0.592,-21.077L-2.284,-21.888L-4.505,-22.513L-4.755,-22.584L-6.652,-21.94L-8.767,-21.222L-9.13,-18.569L-9.539,-15.593L-11.005,-4.918L-10.311,4.433L-8.964,3.876L-7.688,3.781L-6.296,3.774L-4.466,4.22L-2.601,-5.241L-0.353,-16.399L-0.116,-17.573L0,-18.151Z" style="fill:rgb(205,152,99);fill-rule:nonzero;"/>
                    </g>
                    <g transform="matrix(1,0,0,1,3874.27,380.402)">
                        <path d="M0,31.528L1.251,31.691L2.133,32.622L3.113,21.736L2.309,3.468L2.133,-0.572L-0.003,-0.969L-1.431,-1.234L-2.122,-1.105L-4.459,-0.666L-7.501,-0.094L-7.357,1.317L-7.191,2.982L-5.273,21.942L-2.732,32.762L-1.41,31.767L0,31.528Z" style="fill:rgb(205,152,99);fill-rule:nonzero;"/>
                    </g>
                    <g transform="matrix(0.00769208,0.99997,0.99997,-0.00769208,3894.91,267.734)">
                        <path d="M-0.09,-0.127L0.17,-0.127L0.056,-0.09L-0.132,-0.098L-0.09,-0.127Z" style="fill:rgb(205,152,99);fill-rule:nonzero;"/>
                    </g>
                    <g transform="matrix(1,0,0,1,3894.18,269.876)">
                        <path d="M0,-1.254L-0.103,-1.089L-0.202,-0.44L-0.303,0.222L-0.285,0.226L-0.24,0.226L0.073,-1.107L0.137,-1.378L0.137,-1.48L0,-1.254Z" style="fill:rgb(205,152,99);fill-rule:nonzero;"/>
                    </g>
                    <g transform="matrix(0.529537,-0.848287,-0.848287,-0.529537,3894.41,268.736)">
                        <path d="M-0.218,0.254L-0.024,0.254L0.24,0.258L0.458,0.394L-0.218,0.254Z" style="fill:rgb(205,152,99);fill-rule:nonzero;"/>
                    </g>
                    <g transform="matrix(1,0,0,1,3894.08,270.098)">
                        <path d="M0,-1.311L-2.161,-1.272L-4.293,-1.174L-6.923,-0.617L-4.868,-0.391L-4.417,-0.342L-3.13,-0.201L-2.584,-0.141L-1.269,-0.063L-0.61,-0.024L-0.201,0L-0.098,-0.663L0,-1.311Z" style="fill:rgb(205,152,99);fill-rule:nonzero;"/>
                    </g>
                    <g transform="matrix(1,0,0,1,3895.12,353.092)">
                        <path d="M0,-1.995L-0.913,-1.962L-1.519,-1.573L-1.555,-0.861L-1.59,-0.13L-0.106,0.209L1.406,0.014L1.442,-0.717L1.512,-2.204L0.818,-2.024L0,-1.995Z" style="fill:rgb(250,192,41);fill-rule:nonzero;"/>
                    </g>
                    <g transform="matrix(1,0,0,1,3890.34,395.416)">
                        <path d="M0,12.437L0.053,11.289L0,12.437L-0.053,13.523L-0.063,13.743L-0.092,14.275L-0.106,14.603L-0.116,14.806L-0.127,15.026L-0.127,15.057L-0.226,17.106L-0.25,17.607L-0.039,17.618L0.06,17.501L0.102,16.945L0.12,16.727L0.137,16.394L0.141,16.273L0.173,16.065L0.173,16.062L0.208,15.648L0.222,15.473L0.201,15.25L0.233,14.598L0.201,14.504L0.3,12.451L0.536,11.388L0.458,12.942L0.945,12.966L1.163,12.976L1.142,13.373L1.135,13.581L1.209,13.584L1.198,13.804L1.192,13.966L1.17,14.336L1.146,14.866L1.135,15.087L1.061,15.083L1.051,15.291L1.033,15.688L0.948,15.684L0.708,15.672L0.691,16.086L1.001,16.102L1.117,16.107L1.1,16.44L1.082,16.786L1.068,17.106L1.054,17.439L0.624,17.419L0.624,17.439L0.61,17.729L0.564,18.673L0.423,18.849L0.896,18.872L0.896,18.932L0.892,18.953L0.853,19.774L0.853,19.805L1.1,19.295L1.304,18.869L1.512,18.216L1.523,18.179L1.678,17.683L1.618,17.047L1.583,16.698L1.558,16.427L1.438,15.436L1.364,14.833L1.241,13.831L1.315,12.279L1.495,9.78L1.505,9.662L1.759,6.107L2.609,0.755L2.75,-0.136L2.686,-0.847L2.316,-4.958L2.041,-6.023L1.671,-6.525L1.234,-7.118L0.458,-7.368L0.448,-7.157L0.441,-7.037L0.356,-5.298L0.324,-4.649L0.49,-4.424L0.42,-5.212L0.49,-4.424L0.832,-0.637L-0.148,5.561L-0.201,6.263L-0.321,8.772L-0.391,10.23L-0.377,10.225L-0.074,10.271L-0.366,10.375L-0.405,10.506L-0.465,11.755L-0.55,13.499L-0.053,13.523L0,12.437Z" style="fill:rgb(250,192,41);fill-rule:nonzero;"/>
                    </g>
                    <g transform="matrix(1,0,0,1,3889.62,412.324)">
                        <path d="M0,0.062L-0.077,1.633L0.26,1.218L0.426,1.017L0.408,0.828L0.337,0.079L0.323,-0.07L0.141,-1.569L0.077,-1.571L0,0.062ZM0.408,0.828L0.337,0.971L0.408,0.828Z" style="fill:rgb(250,192,41);fill-rule:nonzero;"/>
                    </g>
                    <g transform="matrix(1,0,0,1,3892.4,412.702)">
                        <path d="M0,-32.016L-0.395,-23.811L-0.025,-23.309L0.25,-22.244L0.62,-18.133L0.684,-17.422L0.543,-16.531L-0.307,-11.179L-0.561,-7.624L0.12,-7.798L0.254,-7.832L0.335,-7.923L0.37,-8.647L0.335,-7.923L0.455,-8.062L0.839,-8.043L0.867,-7.794L0.874,-7.138L0.86,-6.085L0.825,-4.663L0.772,-3.095L0.687,-1.012L0.645,0L1.036,-0.05L2.57,-31.892L1.276,-31.725L0,-32.016Z" style="fill:rgb(250,192,41);fill-rule:nonzero;"/>
                    </g>
                    <g transform="matrix(-0.0866296,0.996241,0.996241,0.0866296,3890.74,411.304)">
                        <rect x="-0.222" y="-0.212" width="0.415" height="0.022" style="fill:rgb(250,192,41);"/>
                    </g>
                    <g transform="matrix(1,0,0,1,3889.76,413.004)">
                        <path d="M0,-2.249L0.183,-0.75L0.197,-0.602L0.268,0.147L0.285,0.336L0.535,0.031L0.325,0.02L0.349,-0.481L0.448,-2.532L0.426,-2.563L-0.043,-2.585L0,-2.249Z" style="fill:rgb(250,192,41);fill-rule:nonzero;"/>
                    </g>
                    <g transform="matrix(1,0,0,1,3892.52,412.766)">
                        <path d="M0,-7.745L-0.687,-7.57L-0.867,-5.071L-0.941,-3.52L-0.818,-2.517L-0.508,-2.502L-0.54,-1.904L-0.599,-0.652L-0.564,-0.303L-0.416,-0.296L-0.434,0.04L-0.377,0.053L-0.169,0.026L0.208,-7.798L0,-7.745Z" style="fill:rgb(250,192,41);fill-rule:nonzero;"/>
                    </g>
                    <g transform="matrix(1,0,0,1,3892.73,412.752)">
                        <path d="M0,-7.784L-0.378,0.041L-0.067,0L-0.018,-1.08L0.063,-3.163L0.115,-4.732L0.155,-6.153L0.169,-7.206L0.162,-7.825L0,-7.784Z" style="fill:rgb(250,192,41);fill-rule:nonzero;"/>
                    </g>
                    <g transform="matrix(1,0,0,1,3891.78,411.511)">
                        <path d="M0,-0.658L0.12,0.332L0.145,0.604L0.204,-0.648L0.236,-1.246L-0.074,-1.262L0,-0.658Z" style="fill:rgb(250,192,41);fill-rule:nonzero;"/>
                    </g>
                    <g transform="matrix(1,0,0,1,3891.64,418.539)">
                        <path d="M0,-4.254L-0.204,-3.828L-0.45,-3.317L-0.5,-2.329L-0.535,-1.607L-0.612,0.027L-0.64,0.625L-0.063,0.653L-0.03,0.056L0.047,-1.543L0.047,-1.578L0.099,-2.677L0.156,-3.81L0.208,-4.907L0,-4.254Z" style="fill:rgb(250,192,41);fill-rule:nonzero;"/>
                    </g>
                    <g transform="matrix(1,0,0,1,3883.79,412.282)">
                        <path d="M0,4.298L0.081,2.593L0.106,2.066L0.215,-0.166L0.292,-1.801L0.31,-2.134L0.303,-2.135L0.229,-1.803L-0.095,-0.329L-0.124,-0.182L-0.268,0.556L-0.212,0.705L-0.268,0.556L-0.335,0.898L-0.268,0.556L-0.124,-0.182L-0.095,-0.329L0.229,-1.803L0.303,-2.135L-0.162,-2.157L-0.187,-2.128L-0.321,-2.165L-0.599,-2.178L-0.61,-1.97L-0.628,-1.574L-1.322,-1.607L-1.477,-1.614L-1.459,-2.012L-1.449,-2.219L-1.71,-2.232L-1.78,-1.9L-1.999,-0.925L-2.048,-0.659L-2.115,-0.314L-2.239,0.313L-2.133,0.821L-2.122,0.86L-1.981,1.529L-1.815,1.973L-1.6,2.553L-1.815,1.973L-1.981,1.529L-2.122,0.86L-2.175,1.956L-2.231,3.09L-2.284,4.188L-2.284,4.223L-2.362,5.822L-2.39,6.42L-0.109,6.53L-0.081,5.932L0,4.298Z" style="fill:rgb(250,192,41);fill-rule:nonzero;"/>
                    </g>
                    <g transform="matrix(1,0,0,1,3881.84,382.702)">
                        <path d="M0,27.071L0.254,27.083L0.279,26.596L0.303,26.065L0.314,25.845L0.539,25.856L0.603,24.549L0.754,18.363L0.423,12.954L0.37,12.053L0.5,11.352L1.265,7.295L1.643,6.262L2.059,5.797L2.453,-2.408L1.156,-2.24L-0.116,-2.531L-1.653,29.31L-0.377,29.602L-0.321,29.594L-0.303,29.258L-0.155,29.265L-0.088,28.921L-0.028,27.669L0,27.071Z" style="fill:rgb(250,192,41);fill-rule:nonzero;"/>
                    </g>
                    <g transform="matrix(1,0,0,1,3881.81,411.024)">
                        <path d="M0,-0.652L-0.06,0.599L-0.01,0.333L0.208,-0.642L0.279,-0.974L0.273,-0.974L0.283,-1.195L0.283,-1.238L0.029,-1.251L0,-0.652Z" style="fill:rgb(250,192,41);fill-rule:nonzero;"/>
                    </g>
                    <g transform="matrix(1,0,0,1,3883.89,409.083)">
                        <path d="M0,-20.583L-0.416,-20.119L-0.793,-19.085L-1.558,-15.028L-1.688,-14.327L-1.635,-13.426L-1.304,-8.018L-1.456,-1.832L-1.519,-0.524L-1.473,-0.522L-1.466,-0.729L-1.445,-1.127L-1.153,-1.113L-0.666,-1.089L-0.596,-1.086L-0.613,-0.689L-0.624,-0.481L-0.606,-0.48L-0.585,-0.259L-0.599,0.273L-0.624,0.631L-0.427,0.722L-0.264,0.618L-0.25,0.29L-0.222,-0.241L-0.212,-0.461L-0.162,-1.548L-0.106,-2.696L-0.162,-1.548L-0.212,-0.461L0.282,-0.437L0.366,-2.182L0.511,-5.165L0.631,-7.674L0.649,-8.378L0.268,-14.642L0.969,-18.377L1.117,-19.155L0.969,-18.377L1.156,-18.586L1.188,-19.235L1.272,-20.974L1.28,-21.093L1.287,-21.305L0.49,-21.132L0,-20.583Z" style="fill:rgb(250,192,41);fill-rule:nonzero;"/>
                    </g>
                    <g transform="matrix(1,0,0,1,3894.34,338.605)">
                        <path d="M0,-2.858L-0.071,-1.377L-0.071,-1.359L-0.141,0.094L9.401,-0.072L7.127,-1.502L4.84,-2.942L4.822,-2.952L0,-2.869L0,-2.858Z" style="fill:rgb(250,192,41);fill-rule:nonzero;"/>
                    </g>
                    <g transform="matrix(1,0,0,1,3886.61,336.797)">
                        <path d="M0,0.081L0.004,0.063L0.074,-1.419L-0.215,-1.452L-0.606,-0.007L-0.994,1.428L-0.067,1.533L0,0.081Z" style="fill:rgb(250,192,41);fill-rule:nonzero;"/>
                    </g>
                    <g transform="matrix(1,0,0,1,3885.34,352.312)">
                        <path d="M0,-1.609L-0.906,-1.73L-1.717,-1.838L-2.39,-2.083L-2.46,-0.596L-2.496,0.135L-1.012,0.474L0.497,0.279L0.532,-0.452L0.567,-1.164L0,-1.609Z" style="fill:rgb(250,192,41);fill-rule:nonzero;"/>
                    </g>
                    <g transform="matrix(1,0,0,1,3890.65,367.278)">
                        <path d="M0,-1.206L0.032,-1.843L0.264,-6.668L-0.131,-6.402L-0.222,-6.394L-1.368,-6.304L-2.499,-6.505L-2.591,-6.52L-2.958,-6.823L-3.19,-1.999L-3.222,-1.362L-3.264,-0.492L-3.55,5.461L-3.077,5.484L-1.939,5.539L-0.8,5.594L-0.328,5.617L-0.042,-0.337L0,-1.206Z" style="fill:rgb(250,192,41);fill-rule:nonzero;"/>
                    </g>
                    <g transform="matrix(1,0,0,1,3887.21,352.153)">
                        <path d="M0,12.92L0.25,13.126L0.483,8.302L0.359,8.2L0.43,6.717L0.708,6.53L0.856,3.504L0.708,6.53L0.839,6.442L0.994,3.241L1.16,-0.181L0.631,-0.206L0.113,10.572L0,12.92Z" style="fill:rgb(250,192,41);fill-rule:nonzero;"/>
                    </g>
                    <g transform="matrix(1,0,0,1,3890.9,362.013)">
                        <path d="M0,-6.489L-0.155,-3.287L-0.036,-3.187L0.226,-2.974L0.155,-1.492L0.021,-1.402L-0.212,3.422L0.056,3.24L0.168,0.892L0.691,-9.886L0.166,-9.911L0,-6.489Z" style="fill:rgb(250,192,41);fill-rule:nonzero;"/>
                    </g>
                    <g transform="matrix(1,0,0,1,3883.89,250.901)">
                        <path d="M0,1.914L6.073,1.914L12.126,3.388L14.396,5.682L13.035,2.806L12.175,1.562L11.255,0.913L10.674,0.483L9.651,-0.113L9.535,-0.18L8.675,-0.68L9.535,-0.18L9.651,-0.113L9.059,-1.354L8.495,-1.861L7.402,-2.644L8.474,-1.745L8.065,-2.069L7.402,-2.644L4.829,-3.768L3.035,-3.74L1.241,-3.768L-1.332,-2.644L-2.422,-1.861L-2.989,-1.354L-3.581,-0.113L-3.465,-0.18L-2.601,-0.68L-3.465,-0.18L-3.581,-0.113L-4.604,0.483L-5.185,0.913L-6.105,1.562L-6.962,2.806L-8.326,5.682L-6.056,3.388L0,1.914Z" style="fill:rgb(66,76,160);fill-rule:nonzero;"/>
                    </g>
                    <g transform="matrix(1,0,0,1,3916.69,325.348)">
                        <path d="M0,5.459L-0.056,5.384L-0.998,4.15L-1.435,3.577L-1.632,3.318L-2.848,1.722L-2.869,1.693L-3.141,1.308L-3.684,0.748L-3.631,0.828L-1.562,3.935L-3.631,0.828L-3.684,0.748L-4.082,0.153L-4.681,-0.747L-7.286,-4.66L-7.808,-5.29L-7.882,-5.288L-6.556,-1.865L-4.78,1.223L-5.062,3.62L-5.478,5.338L-4.766,5.319L-5.478,5.338L-4.466,6.487L-3.641,7.664L-2.559,10.749L-2.432,10.746L-2.168,10.739L-1.847,10.73L-1.71,10.115L0.233,6.621L0.377,6.362L0.391,6.337L0.508,6.124L0,5.459Z" style="fill:rgb(66,76,160);fill-rule:nonzero;"/>
                    </g>
                    <g transform="matrix(1,0,0,1,3897.72,360.353)">
                        <path d="M0,-28.957L1.424,-28.467L0,-28.957ZM19.356,-28.668L19.197,-28.384L17.255,-24.89L17.117,-24.275L16.797,-24.266L16.532,-24.259L16.406,-24.256L15.323,-27.342L14.498,-28.518L13.487,-29.667L13.903,-31.385L14.185,-33.782L12.408,-36.87L13.177,-34.877L12.408,-36.87L11.083,-40.293L10.808,-41.004L9,-43.88L9.486,-39.747L9,-43.88L8.739,-46.084L8.647,-46.88L6.444,-48.508L4.445,-49.459L-9.295,-50.202L-13.899,-49.725L-16.962,-49.408L-20.66,-49.025L-22.137,-48.873L-23.561,-48.725L-23.617,-48.709L-23.621,-48.707L-23.656,-48.697L-25.56,-47.664L-25.856,-47.421L-26.483,-46.904L-27.675,-45.923L-27.949,-44.705L-28.069,-44.186L-28.203,-43.592L-28.961,-40.251L-29.74,-36.618L-30.294,-34.039L-29.74,-36.618L-30.854,-32.566L-31.016,-30.877L-30.914,-28.815L-30.149,-27.956L-28.697,-27.176L-29.994,-21.331L-30.484,-16.739L-30.579,-13.384L-31.39,-13.363L-32.465,-14.241L-30.371,12.613L-32.483,-14.254L-32.539,-14.301L-32.701,-14.434L-32.726,-14.454L-32.913,-14.606L-33.078,-13.147L-33.371,10.601L-33.283,13.438L-32.775,21.245L-31.21,20.083L-31.066,19.976L-30.953,19.955L-27.911,19.383L-25.573,18.944L-24.883,18.814L-23.455,19.079L-21.319,19.477L-20.177,19.689L-19.754,19.97L-19.437,20.181L-18.404,20.866L-19.613,13.078L-18.122,10.199L-15.492,-6.658L-15.313,-7.807L-15.193,-8.593L-14.942,-10.186L-14.812,-11.023L-14.597,-12.407L-14.428,-13.485L-14.438,-13.49L-15.069,-13.855L-15.171,-13.915L-17.96,-15.533L-17.967,-17.231L-17.97,-18.257L-17.974,-19.241L-17.956,-19.584L-17.322,-20.414L-16.229,-20.754L-16.113,-20.791L-14.935,-20.834L-13.113,-20.785L-13.074,-20.784L-12.644,-20.772L-12.475,-20.764L-12.105,-22.129L-11.717,-23.563L-11.326,-25.009L-11.322,-25.019L-10.159,-29.318L-7.878,-31.795L-4.952,-30.741L-0.508,-25.926L1.438,-24.701L1.456,-24.69L3.744,-23.25L6.017,-21.82L6.567,-21.474L7.106,-21.134L7.808,-20.695L7.882,-20.646L8.15,-20.479L8.495,-20.261L8.15,-20.479L7.882,-20.646L7.808,-20.695L9.652,-16.533L6.669,-7.564L8.65,-11.494L9.8,-13.455L8.65,-11.494L8.781,-11.539L9.609,-11.82L9.951,-11.937L12.066,-12.655L13.963,-13.3L14.213,-13.228L16.434,-12.603L19.31,-11.792L19.363,-11.777L19.444,-11.655L19.916,-10.932L20.198,-10.502L21.538,-8.456L24.834,-16.933L25.366,-20.951L25.437,-21.48L19.356,-28.668Z" style="fill:rgb(66,76,160);fill-rule:nonzero;"/>
                    </g>
                    <g transform="matrix(1,0,0,1,3879.75,344.477)">
                        <path d="M0,-3.364L0.004,-2.38L0.008,-1.354L0.014,0.344L0.031,-0.058L0.018,-3.708L0,-3.364Z" style="fill:rgb(66,76,160);fill-rule:nonzero;"/>
                    </g>
                    <g transform="matrix(1,0,0,1,3865.02,330.019)">
                        <path d="M0,15.901L0.162,16.034L0.219,16.08L0.236,16.093L1.311,16.972L2.122,16.951L2.217,13.595L2.707,9.004L4.004,3.158L3.194,3.18L4.004,3.158L2.552,2.378L1.738,2.4L2.552,2.378L1.787,1.52L1.685,-0.543L1.678,-0.76L1.713,-1.071L1.558,-1.01L1.421,-0.956L1.001,-0.791L0.867,-0.739L0.751,0.27L0.649,1.154L0.37,3.576L0.353,3.733L0.194,5.117L0.028,6.585L0.018,6.677L-0.01,6.908L-0.148,8.102L-0.158,8.208L-0.254,9.047L-0.296,9.417L-0.758,13.441L-0.67,15.291L-0.649,15.212L-0.642,15.29L-0.635,15.372L-0.635,15.383L-0.211,15.728L-0.025,15.881L0,15.901Z" style="fill:rgb(66,76,160);fill-rule:nonzero;"/>
                    </g>
                    <g transform="matrix(1,0,0,1,3881.51,416.169)">
                        <path d="M0,-3.872L-0.039,-3.074L-0.046,-2.959L-0.071,-2.449L-0.117,-1.431L-0.141,-0.923L-0.148,-0.807L-0.202,0.326L-0.004,0.336L-0.004,0.301L0.049,-0.797L0.105,-1.931L0.158,-3.026L0.147,-3.066L0.042,-3.574L0.166,-4.202L0.018,-4.208L0,-3.872Z" style="fill:white;fill-rule:nonzero;"/>
                    </g>
                    <g transform="matrix(1,0,0,1,3898.03,414.327)">
                        <path d="M0,-18.073L0.032,-18.722L-0.028,-19.061L0.056,-19.222L0.078,-19.622L0.099,-20.073L-2.228,-20.186L-2.249,-19.734L-2.266,-19.334L-2.199,-19.166L-2.291,-18.834L-2.323,-18.185L-2.33,-18.034L-2.358,-17.467L-2.362,-17.405L-3.176,-0.472L-3.194,-0.105L-3.201,0.037L-3.25,1.055L-3.253,1.113L-3.275,1.564L-3.282,1.68L-3.007,2.029L-1.262,2.113L-0.955,1.792L-0.927,1.225L-0.871,0.007L-0.046,-17.106L-0.035,-17.292L-0.032,-17.355L-0.007,-17.922L0,-18.073Z" style="fill:white;fill-rule:nonzero;"/>
                    </g>
                    <g transform="matrix(1,0,0,1,3880.04,430.815)">
                        <path d="M0,-17.164L0.003,-17.18L0.025,-17.673L0.032,-17.789L-0.243,-18.138L-1.985,-18.222L-2.291,-17.901L-2.323,-17.292L-2.605,-11.404L-2.45,-10.83L-2.358,-10.497L-1.237,-6.391L-1.054,-3.862L-1.022,-1.981L-1.012,-1.475L-0.994,-0.416L-0.984,0.144L-0.888,1.058L-0.909,0.701L-0.86,0.736L-0.857,0.625L-0.071,-15.637L-0.046,-16.146L0,-17.164Z" style="fill:white;fill-rule:nonzero;"/>
                    </g>
                    <g transform="matrix(1,0,0,1,3879.13,434.618)">
                        <path d="M0,-2.756L-0.243,-3.023L-0.391,-3.03L-1.995,-2.958L-2.302,-2.654L-2.309,-2.497L-2.326,-2.156L-2.256,-1.986L-2.351,-1.656L-2.386,-0.856L-2.39,-0.805L-2.415,-0.289L-2.436,0.162L-0.113,0.274L-0.092,-0.177L-0.067,-0.693L-0.063,-0.744L-0.025,-1.544L-0.085,-1.881L0,-2.044L0.018,-2.444L0.028,-2.66L0.032,-2.693L0.021,-2.712L0,-2.756Z" style="fill:white;fill-rule:nonzero;"/>
                    </g>
                    <g transform="matrix(1,0,0,1,3908.75,382.157)">
                        <path d="M0,-8.738L-1.276,-8.643L-2.623,-8.086L-3.37,-0.519L-3.01,-1.899L-2.929,-1.973L-2.186,-2.624L-2.066,-2.731L-1.847,-2.922L-0.867,-2.96L-0.747,-2.965L-0.617,-2.97L-0.19,-2.986L0.708,-2.373L1.132,-2.086L1.167,-2.061L2.034,-0.659L2.291,-0.24L2.411,-0.045L2.453,0.007L2.492,-0.311L3.222,-8.299L1.392,-8.745L0,-8.738Z" style="fill:white;fill-rule:nonzero;"/>
                    </g>
                    <g transform="matrix(1,0,0,1,3911.04,394.936)">
                        <path d="M0,-13.019L-0.257,-13.437L-1.125,-14.839L-1.16,-14.865L-1.583,-15.152L-2.482,-15.765L-2.908,-15.749L-3.039,-15.743L-3.158,-15.739L-4.138,-15.701L-4.357,-15.51L-4.477,-15.403L-5.22,-14.752L-5.302,-14.678L-5.661,-13.298L-5.848,-12.594L-6.416,-7.475L-6.451,-5.435L-6.461,-4.862L-6.451,-5.435L-7.297,-0.53L-7.286,0.041L-6.821,0.064L-0.825,0.353L-0.853,0.919L-0.902,1.973L-0.906,2.054L-0.934,2.62L-6.556,2.349L-4.678,2.711L-3.06,2.746L0.398,2.613L1.872,2.459L3.909,1.788L3.849,-0.959L2.767,-5.217L0.518,-12.325L0.162,-12.772L0.12,-12.823L0,-13.019Z" style="fill:rgb(66,76,160);fill-rule:nonzero;"/>
                    </g>
                    <g transform="matrix(1,0,0,1,3883.89,256.654)">
                        <path d="M0,-3.003L6.073,-3.003L12.126,-1.526L14.396,0.836L14.396,-0.07L12.126,-2.365L6.073,-3.839L0,-3.839L-6.056,-2.365L-8.326,-0.07L-8.326,0.836L-6.056,-1.526L0,-3.003Z" style="fill:rgb(221,221,221);fill-rule:nonzero;"/>
                    </g>
                    <g transform="matrix(1,0,0,1,3879.32,439.959)">
                        <path d="M0,-6.072L-0.028,-5.505L-0.282,-5.518L-0.303,-5.066L-2.626,-5.178L-2.605,-5.63L-9.909,-5.982L-10.48,-6.009L-10.807,-3.895L-10.624,-1.365L-8.717,0.488L-7.268,0.765L-3.817,0.68L-2.182,0.327L0.501,-1.639L0.314,-4.169L0.039,-6.837L0.014,-6.319L0,-6.072Z" style="fill:rgb(66,76,160);fill-rule:nonzero;"/>
                    </g>
                    <g transform="matrix(1,0,0,1,3863.74,336.42)">
                        <path d="M0,-2.527L-0.504,-2.605L-1.184,-2.516L-1.688,-2.652L-2.7,-2.711L-2.76,-1.488L-2.831,-0.015L-2.623,-0.005L-2.517,0L-2.351,0.008L-1.893,0.03L-1.678,0.04L-1.082,0.069L-0.747,0.085L-0.169,0.113L0.307,0.136L0.677,0.154L1.223,0.18L1.308,0.184L1.473,-1.284L1.632,-2.668L0.952,-2.602L0,-2.527Z" style="fill:rgb(221,221,221);fill-rule:nonzero;"/>
                    </g>
                    <g transform="matrix(1,0,0,1,3879.18,432.068)">
                        <path d="M0,-0.516L-0.018,-0.143L-0.021,-0.109L0,0.108L0.08,0.112L0.002,-0.628L0,-0.516Z" style="fill:rgb(221,221,221);fill-rule:nonzero;"/>
                    </g>
                    <g transform="matrix(1,0,0,1,3879.15,431.567)">
                        <path d="M0,0.307L0,0.34L0.011,0.358L0.029,-0.015L-0.021,-0.051L0,0.307Z" style="fill:rgb(221,221,221);fill-rule:nonzero;"/>
                    </g>
                    <g transform="matrix(1,0,0,1,3869.6,417.306)">
                        <path d="M0,14.478L0.151,14.485L4.882,14.713L5.252,14.731L6.387,14.786L6.384,14.827L7.222,14.814L7.229,14.657L7.536,14.354L9.14,14.281L9.288,14.288L9.288,14.282L9.288,14.288L9.531,14.556L9.552,14.567L9.457,13.653L9.447,13.093L9.429,12.034L9.418,11.528L9.387,9.648L9.204,7.118L8.083,3.012L7.991,2.679L7.836,2.106L7.603,1.256L7.441,0.667L7.29,0.541L6.369,-0.22L6.317,-0.263L6.211,-0.349L5.291,-0.326L5.065,-0.321L5.009,-0.319L4.748,-0.313L4.558,-0.308L4.42,-0.19L3.627,0.473L3.423,0.643L3.271,0.77L2.513,2.473L2.146,3.3L2.133,3.329L2.051,3.612L1.6,5.161L0.063,11.35L-0.409,14.387L-0.011,14.406L0,14.478Z" style="fill:rgb(66,76,160);fill-rule:nonzero;"/>
                    </g>
                    <g transform="matrix(1,0,0,1,3871.75,412.243)">
                        <path d="M0,8.363L0.367,7.536L1.125,5.833L1.276,5.706L1.481,5.536L2.274,4.873L2.411,4.756L2.602,4.751L2.862,4.744L2.88,4.646L2.919,4.743L3.144,4.737L4.064,4.715L4.17,4.801L4.223,4.843L5.143,5.605L4.656,0.781L3.775,-0.15L2.524,-0.313L1.114,-0.074L-0.208,0.921L-0.162,8.387L-0.095,8.676L-0.014,8.393L0,8.363Z" style="fill:white;fill-rule:nonzero;"/>
                    </g>
                    <g transform="matrix(0.998916,0.0465596,0.0465596,-0.998916,3888.89,339.535)">
                        <rect x="0.013" y="-0.017" width="0.711" height="0.569" style="fill:rgb(221,221,221);"/>
                    </g>
                    <g transform="matrix(1,0,0,1,3893.06,364.459)">
                        <path d="M0,-1.865L-0.018,-1.458L-0.074,-0.339L1.414,0L2.922,-0.195L2.961,-1.009L2.996,-1.721L1.484,-1.526L0,-1.865Z" style="fill:rgb(221,221,221);fill-rule:nonzero;"/>
                    </g>
                    <g transform="matrix(1,0,0,1,3892.01,416.37)">
                        <path d="M0,-3.272L-0.155,-2.775L-0.166,-2.738L-0.218,-1.641L-0.275,-0.508L-0.327,0.591L-0.327,0.626L-0.131,0.635L-0.077,-0.499L-0.07,-0.614L-0.046,-1.123L0.004,-2.141L0.028,-2.651L0.032,-2.766L0.071,-3.564L0.089,-3.9L-0.06,-3.907L0,-3.272Z" style="fill:rgb(221,221,221);fill-rule:nonzero;"/>
                    </g>
                    <g transform="matrix(1,0,0,1,3892.02,415.258)">
                        <path d="M0,-1.029L-0.05,-0.011L-0.073,0.498L0.186,0.51L0.212,0.002L0.261,-1.018L0.285,-1.526L0.024,-1.539L0,-1.029Z" style="fill:rgb(221,221,221);fill-rule:nonzero;"/>
                    </g>
                    <g transform="matrix(1,0,0,1,3894.78,414.241)">
                        <path d="M0,1.141L0.049,0.123L0.056,-0.019L0.074,-0.386L-1.777,-0.475L-2.157,-0.494L-2.471,-0.509L-2.496,0L-2.545,1.018L-2.57,1.527L-2.256,1.543L-1.872,1.561L-0.025,1.65L-0.003,1.199L0,1.141Z" style="fill:rgb(221,221,221);fill-rule:nonzero;"/>
                    </g>
                    <g transform="matrix(0.99888,0.0473154,0.0473154,-0.99888,3892.62,413.739)">
                        <rect x="0.001" y="-0.009" width="0.383" height="0.031" style="fill:rgb(221,221,221);"/>
                    </g>
                    <g transform="matrix(1,0,0,1,3883.79,362.079)">
                        <path d="M0,1.865L1.512,1.67L1.565,0.551L1.583,0.144L0.074,0.339L-1.41,0L-1.445,0.711L-1.484,1.525L0,1.865Z" style="fill:rgb(221,221,221);fill-rule:nonzero;"/>
                    </g>
                    <g transform="matrix(1,0,0,1,3892.27,380.977)">
                        <path d="M0,-1.826L-0.071,-0.339L0.137,-0.291L1.414,0L2.707,-0.167L2.922,-0.195L2.993,-1.682L1.484,-1.487L0,-1.826Z" style="fill:rgb(221,221,221);fill-rule:nonzero;"/>
                    </g>
                    <g transform="matrix(1,0,0,1,3884.29,378.803)">
                        <path d="M0,1.492L0.215,1.465L0.286,-0.023L-1.223,0.172L-2.711,-0.167L-2.781,1.32L-2.57,1.368L-1.297,1.659L0,1.492Z" style="fill:rgb(221,221,221);fill-rule:nonzero;"/>
                    </g>
                    <g transform="matrix(1,0,0,1,3879.95,269.087)">
                        <path d="M0,-2.535L0.002,-1.968L0.01,-0.59L0.384,0.204L0.155,-2.499L0,-2.739L0,-2.535Z" style="fill:rgb(221,221,221);fill-rule:nonzero;"/>
                    </g>
                    <g transform="matrix(0.76941,0.638755,0.638755,-0.76941,3888.24,349.451)">
                        <path d="M0.082,-0.055L0.358,-0.055L0.049,0.355L-0.127,0.225L0.082,-0.055Z" style="fill:rgb(221,221,221);fill-rule:nonzero;"/>
                    </g>
                    <g transform="matrix(0.828135,-0.560528,-0.560528,-0.828135,3891.33,349.877)">
                        <path d="M-0.123,0.113L0.154,0.113L0.364,0.391L0.186,0.524L-0.123,0.113Z" style="fill:rgb(221,221,221);fill-rule:nonzero;"/>
                    </g>
                    <g transform="matrix(1,0,0,1,3888.5,347.935)">
                        <path d="M0,1.274L0.395,1.293L1.346,1.339L2.298,1.385L2.69,1.404L2.912,1.414L3.06,1.421L5.259,1.527L5.319,0.242L5.326,0.124L-2.496,-0.253L-2.503,-0.135L-2.566,1.15L-0.366,1.256L-0.219,1.263L0,1.274Z" style="fill:rgb(221,221,221);fill-rule:nonzero;"/>
                    </g>
                    <g transform="matrix(1,0,0,1,3891.12,360.806)">
                        <path d="M0,-1.768L-0.529,-1.413L-1.766,-1.314L-2.986,-1.531L-3.479,-1.936L-3.55,-0.453L-3.426,-0.351L-3.06,-0.049L-2.968,-0.033L-1.836,0.168L-0.691,0.077L-0.599,0.07L-0.204,-0.196L-0.071,-0.285L0,-1.768Z" style="fill:rgb(221,221,221);fill-rule:nonzero;"/>
                    </g>
                    <g transform="matrix(1,0,0,1,3888.05,350.105)">
                        <path d="M0,8.491L-0.014,8.785L0,8.491L-0.13,8.578L-0.409,8.766L0.085,9.17L1.304,9.387L2.542,9.289L3.07,8.934L2.809,8.72L2.69,8.621L2.676,8.915L2.69,8.621L2.845,5.42L3.01,1.997L3.053,1.128L3.067,0.798L3.102,0.084L3.116,-0.252L3.141,-0.766L2.75,-0.785L0.846,-0.877L0.451,-0.896L0.427,-0.382L0.413,-0.046L0.377,0.669L0.363,0.999L0.321,1.867L0.155,5.29L0,8.491Z" style="fill:rgb(221,221,221);fill-rule:nonzero;"/>
                    </g>
                    <g transform="matrix(1,0,0,1,3882.43,410.31)">
                        <path d="M0,-1.957L-0.008,-1.749L-0.018,-1.53L-0.046,-0.998L-0.071,-0.467L-0.081,-0.248L-0.093,-0.04L-0.109,0.357L0.046,0.365L0.739,0.398L0.758,0.001L0.769,-0.206L0.779,-0.426L0.806,-0.958L0.832,-1.489L0.842,-1.708L0.854,-1.916L0.87,-2.313L0.8,-2.317L0.313,-2.34L0.02,-2.355L0,-1.957Z" style="fill:rgb(221,221,221);fill-rule:nonzero;"/>
                    </g>
                    <g transform="matrix(1,0,0,1,3881.44,414.669)">
                        <path d="M0,-0.95L0.025,-1.459L-1.378,-1.527L-1.399,-1.033L-1.403,-1.018L-1.449,0L-1.473,0.51L-0.07,0.577L-0.046,0.068L0,-0.95Z" style="fill:rgb(221,221,221);fill-rule:nonzero;"/>
                    </g>
                    <g transform="matrix(1,0,0,1,3891.11,419.253)">
                        <path d="M0,-2.321L0.035,-3.043L0.084,-4.032L0.084,-4.063L0.123,-4.884L0.127,-4.905L0.127,-4.966L-0.345,-4.989L-1.262,-5.033L-1.262,-4.972L-1.304,-4.13L-1.311,-3.963L-1.354,-3.11L-1.371,-2.729L-1.392,-2.293L-1.537,0.705L-1.541,0.746L-1.354,0.463L-0.701,0.494L-0.782,2.15L-1.237,2.664L-0.243,2.712L-0.106,-0.089L-0.078,-0.687L0,-2.321Z" style="fill:rgb(221,221,221);fill-rule:nonzero;"/>
                    </g>
                    <g transform="matrix(1,0,0,1,3889.6,410.711)">
                        <path d="M0,5.807L0.134,5.813L0.152,5.433L0.194,4.579L0.201,4.413L0.243,3.571L0.243,3.51L1.16,3.554L1.301,3.379L1.347,2.435L1.361,2.145L1.361,2.124L1.378,1.791L1.41,1.125L1.428,0.792L1.445,0.378L1.463,0.017L0.969,-0.006L0.959,0.178L0.952,0.354L0.931,0.768L0.913,1.101L0.881,1.767L0.867,2.1L0.864,2.121L0.797,2.206L0.698,2.324L0.448,2.63L0.282,2.832L-0.056,3.246L-0.067,3.495L-0.113,4.435L-0.12,4.564L-0.18,5.798L-0.102,5.802L0,5.807Z" style="fill:rgb(221,221,221);fill-rule:nonzero;"/>
                    </g>
                    <g transform="matrix(1,0,0,1,3890.32,420.832)">
                        <path d="M0,0.572L0.081,-1.084L-0.571,-1.116L-0.758,-0.833L-1.093,-0.321L-1.149,0.859L-0.952,0.869L-0.931,0.451L-0.952,0.869L-0.98,1.516L-0.991,1.688L-0.455,1.086L0,0.572Z" style="fill:rgb(221,221,221);fill-rule:nonzero;"/>
                    </g>
                    <g transform="matrix(1,0,0,1,3889.14,426.162)">
                        <path d="M0,-3.824L-0.071,-2.38L-0.142,-0.907L-0.156,-0.597L-0.176,-0.181L-0.201,0.31L-0.216,0.637L-0.015,0.646L-0.004,0.413L0,0.319L0.01,0.131L0.024,-0.171L0.06,-0.897L0.129,-2.371L0.19,-3.643L0.2,-3.814L0.228,-4.462L0.031,-4.47L0,-3.824Z" style="fill:rgb(221,221,221);fill-rule:nonzero;"/>
                    </g>
                    <g transform="matrix(1,0,0,1,3889.42,419.174)">
                        <path d="M0,-2.543L-0.056,-1.412L0.128,-1.437L0.099,-1.1L0.063,-0.647L0.032,-0.481L0.103,0.011L0.16,-1.106L0.208,-2.154L0.107,-2.554L0,-2.543Z" style="fill:rgb(221,221,221);fill-rule:nonzero;"/>
                    </g>
                    <g transform="matrix(1,0,0,1,3890.64,410.041)">
                        <path d="M0,-2.173L-0.099,-0.12L-0.067,-0.026L-0.099,0.626L-0.077,0.849L-0.067,0.663L0.427,0.688L0.409,1.048L0.649,1.059L0.733,1.063L0.75,0.666L0.762,0.458L0.772,0.239L0.798,-0.293L0.825,-0.824L0.835,-1.043L0.843,-1.251L0.864,-1.648L0.645,-1.66L0.158,-1.682L0.067,-1.686L0.158,-1.682L0.237,-3.236L0,-2.173Z" style="fill:rgb(221,221,221);fill-rule:nonzero;"/>
                    </g>
                    <g transform="matrix(1,0,0,1,3890.51,411.809)">
                        <path d="M0,-0.327L-0.024,0L0.004,0.004L0.022,-0.329L0,-0.331L0,-0.327Z" style="fill:rgb(221,221,221);fill-rule:nonzero;"/>
                    </g>
                    <g transform="matrix(1,0,0,1,3889.52,419.852)">
                        <path d="M0,-3.233L0.101,-2.832L0.053,-1.785L-0.004,-0.668L-0.075,-1.16L-0.113,-0.967L-0.085,-0.763L0.046,0.106L0.19,-2.892L0.212,-3.328L0.077,-3.334L-0.025,-3.339L0,-3.233Z" style="fill:rgb(221,221,221);fill-rule:nonzero;"/>
                    </g>
                    <g transform="matrix(1,0,0,1,3895.22,365.873)">
                        <path d="M0,0.021L-0.814,0.052L-1.731,0.084L-0.828,0.29L0.776,0.083L1.111,0.04L1.117,-0.098L1.129,-0.269L0,0.021Z" style="fill:rgb(221,221,221);fill-rule:nonzero;"/>
                    </g>
                    <g transform="matrix(1,0,0,1,3895.58,266.056)">
                        <path d="M0,-3.924L-0.003,-3.924L-0.046,-3.797L-0.003,-3.924L-0.31,-3.078L-0.419,-2.778L-0.49,-2.581L-0.585,-2.324L-0.627,-2.204L-0.814,-1.686L-0.814,-1.58L-0.811,-1.182L-0.807,-0.187L-0.804,0.627L-0.574,-0.265L-0.338,-2.105L0.18,-4.153L0.229,-4.551L0.032,-4.023L-0.003,-3.924L0,-3.924Z" style="fill:rgb(221,221,221);fill-rule:nonzero;"/>
                    </g>
                    <g transform="matrix(1,0,0,1,3894.15,268.31)">
                        <path d="M0,-2.233L-0.067,0.477L0.173,-0.171L0.18,-1.684L0.18,-2.294L0.184,-2.589L0.184,-2.71L0,-2.233Z" style="fill:rgb(221,221,221);fill-rule:nonzero;"/>
                    </g>
                    <g transform="matrix(1,0,0,1,3881.81,365.477)">
                        <path d="M0,-0.402L-0.006,-0.264L0.325,-0.189L1.901,0.171L2.82,0.053L1.911,-0.069L1.101,-0.176L0.008,-0.573L0,-0.402Z" style="fill:rgb(221,221,221);fill-rule:nonzero;"/>
                    </g>
                    <g transform="matrix(1,0,0,1,3878.78,264.965)">
                        <path d="M0,-0.415L0.367,1.404L0.712,2.401L0.716,1.485L0.723,0.702L0.723,0.279L0.43,-0.38L0.391,-0.465L-0.381,-2.206L-0.687,-2.816L-0.638,-2.421L0,-0.415Z" style="fill:rgb(221,221,221);fill-rule:nonzero;"/>
                    </g>
                    <g transform="matrix(1,0,0,1,3889.95,405.786)">
                        <path d="M0,-0.14L-0.006,0.003L0.025,0.005L0.318,-0.099L0.014,-0.145L0,-0.14Z" style="fill:rgb(142,142,142);fill-rule:nonzero;"/>
                    </g>
                    <g transform="matrix(1,0,0,1,3889.78,410.221)">
                        <path d="M0,-1.085L-0.024,-0.554L-0.049,-0.023L-0.06,0.197L-0.057,0.198L0.412,0.22L0.434,0.221L0.444,0.002L0.455,-0.201L0.469,-0.53L0.497,-1.061L0.507,-1.282L0.01,-1.306L0,-1.085Z" style="fill:rgb(142,142,142);fill-rule:nonzero;"/>
                    </g>
                    <g transform="matrix(1,0,0,1,3883.67,409.927)">
                        <path d="M0,-1.085L-0.028,-0.554L-0.042,-0.225L-0.049,-0.069L-0.204,-0.121L-0.402,-0.213L-0.376,-0.572L-0.363,-1.103L-0.412,-1.105L-0.437,-0.574L-0.465,-0.043L-0.475,0.178L-0.198,0.191L-0.063,0.197L-0.038,0.198L0.426,0.221L0.434,0.221L0.444,0.002L0.469,-0.53L0.493,-1.061L0.505,-1.282L0.01,-1.306L0,-1.085Z" style="fill:rgb(142,142,142);fill-rule:nonzero;"/>
                    </g>
                    <g transform="matrix(1,0,0,1,3889.36,419.518)">
                        <path d="M0,-1.756L-0.036,-0.999L-0.085,0.025L0.008,-0.432L0.049,-0.632L0.087,-0.825L0.119,-0.991L0.155,-1.444L0.184,-1.781L0,-1.756Z" style="fill:rgb(142,142,142);fill-rule:nonzero;"/>
                    </g>
                    <g transform="matrix(0.999496,0.03173,0.03173,-0.999496,3889.69,410.752)">
                        <rect x="0.005" y="-0.001" width="0.01" height="0.333" style="fill:rgb(142,142,142);"/>
                    </g>
                    <g transform="matrix(1,0,0,1,3888.97,393.082)">
                        <path d="M0,32.9L0.021,32.484L0.035,32.173L0.106,30.701L0.176,29.257L0.208,28.609L0.264,27.429L0.31,26.461L0.36,25.437L0.395,24.681L0.451,23.549L0.455,23.427L0.515,22.193L0.522,22.064L0.567,21.124L0.578,20.875L0.656,19.304L0.733,17.67L0.751,17.336L0.761,17.116L0.811,16.054L0.821,15.834L0.906,14.09L0.966,12.84L0.973,12.708L0.98,12.565L1.05,11.107L1.17,8.597L1.551,0.686L1.696,-2.315L1.727,-2.964L1.812,-4.702L1.819,-4.822L1.829,-5.034L1.981,-8.178L2.291,-14.618L2.453,-18.004L2.154,-19.725L1.537,-20.178L1.361,-20.187L0.888,-20.21L-0.25,-20.265L-1.389,-20.319L-1.861,-20.342L-2.038,-20.351L-2.693,-19.958L-3.158,-18.274L-3.321,-14.889L-3.634,-8.448L-3.786,-5.304L-3.793,-5.093L-3.8,-4.973L-3.885,-3.235L-3.916,-2.585L-4.061,0.416L-4.442,8.327L-4.561,10.836L-4.706,13.819L-4.791,15.564L-4.801,15.784L-4.826,16.315L-4.85,16.846L-4.861,17.066L-4.879,17.4L-4.956,19.034L-5.065,21.266L-5.09,21.793L-5.171,23.498L-5.252,25.132L-5.281,25.73L-5.594,32.213L-6.021,41.077L-6.331,47.517L-6.493,50.921L-6.193,52.624L-5.577,53.078L-3.789,53.164L-2.006,53.251L-1.347,52.858L-0.881,51.192L-0.719,47.788L-0.409,41.348L-0.039,33.717L-0.025,33.39L0,32.9Z" style="fill:rgb(142,142,142);fill-rule:nonzero;"/>
                    </g>
                    <g transform="matrix(1,0,0,1,3882.77,446.332)">
                        <path d="M0,-0.608L0.617,-0.154L2.404,-0.068L4.188,0.018L4.848,-0.374L4.848,-0.392L4.188,0.001L2.404,-0.086L0.617,-0.172L0,-0.626L0,-0.608Z" style="fill:rgb(142,142,142);fill-rule:nonzero;"/>
                    </g>
                    <g transform="matrix(1,0,0,1,3859.85,333.339)">
                        <path d="M0,3.014L0.642,3.045L1.061,3.066L1.132,1.592L1.191,0.369L0.99,0.358L0.546,0.368L0.226,0.073L-0.095,0.057L-0.529,0.036L-2.369,-0.052L-2.439,1.42L-2.51,2.893L-0.687,2.981L-0.37,2.996L0,3.014Z" style="fill:rgb(142,142,142);fill-rule:nonzero;"/>
                    </g>
                    <g transform="matrix(0.998834,0.0482798,0.0482798,-0.998834,3867.79,433.314)">
                        <path d="M-0.002,-0.13L5.383,-0.13L5.244,-0.087L0.137,-0.087L-0.002,-0.13Z" style="fill:rgb(142,142,142);fill-rule:nonzero;"/>
                    </g>
                    <g transform="matrix(1,0,0,1,3874.85,433.748)">
                        <path d="M0,-1.711L-0.37,-1.729L-1.766,-1.339L-6.867,-1.586L-8.22,-2.107L-8.587,-2.125L-9.722,-2.18L-9.747,-1.684L-9.8,-0.55L-9.824,-0.054L-8.693,0.001L-8.323,0.018L-7.068,-0.305L-6.927,-0.34L-1.826,-0.095L-1.688,-0.045L-0.472,0.397L-0.102,0.415L1.033,0.469L1.054,-0.027L1.11,-1.162L1.131,-1.615L1.135,-1.656L0,-1.711Z" style="fill:rgb(142,142,142);fill-rule:nonzero;"/>
                    </g>
                    <g transform="matrix(1,0,0,1,3867.99,431.888)">
                        <path d="M0,0.275L5.1,0.521L6.496,0.132L1.765,-0.097L1.614,-0.104L-1.354,-0.246L0,0.275Z" style="fill:rgb(142,142,142);fill-rule:nonzero;"/>
                    </g>
                    <g transform="matrix(1,0,0,1,3876.72,431.477)">
                        <path d="M0,2.852L0.024,2.336L0.028,2.285L0.063,1.485L0.158,1.155L0.081,1.15L0.088,0.985L0.105,0.644L-0.733,0.657L-0.754,1.11L-0.811,2.245L-0.832,2.741L-1.967,2.686L-2.337,2.668L-3.553,2.226L-8.932,1.967L-10.187,2.29L-10.558,2.272L-11.689,2.217L-11.664,1.722L-11.611,0.588L-11.587,0.092L-10.452,0.146L-10.085,0.164L-7.117,0.307L-7.128,0.236L-7.526,0.217L-12.01,0L-12.038,0.567L-12.091,1.701L-12.119,2.268L-7.875,2.472L-7.304,2.5L0,2.852Z" style="fill:rgb(142,142,142);fill-rule:nonzero;"/>
                    </g>
                    <g transform="matrix(1,0,0,1,3921.32,339.42)">
                        <path d="M0,-3.056L1.125,-1.525L1.84,-0.547L1.77,-0.018L2.147,0L2.221,-1.473L2.291,-2.946L0,-3.056Z" style="fill:rgb(142,142,142);fill-rule:nonzero;"/>
                    </g>
                    <g transform="matrix(1,0,0,1,3893.89,377.373)">
                        <path d="M0,-0.883L-1.484,-1.222L-1.703,-1.5L-2.055,-1.134L-2.091,-0.399L-1.777,0L-1.558,0.278L-0.071,0.617L1.438,0.422L1.681,0.166L2.034,-0.2L2.069,-0.935L1.755,-1.334L1.509,-1.078L0,-0.883Z" style="fill:rgb(142,142,142);fill-rule:nonzero;"/>
                    </g>
                    <g transform="matrix(1,0,0,1,3893.82,378.872)">
                        <path d="M0,-0.882L-1.488,-1.221L-1.706,-1.5L-2.055,-1.133L-2.09,-0.398L-1.558,0.279L-0.074,0.618L1.435,0.423L2.03,-0.199L2.066,-0.934L1.752,-1.333L1.509,-1.077L0,-0.882Z" style="fill:rgb(142,142,142);fill-rule:nonzero;"/>
                    </g>
                    <g transform="matrix(1,0,0,1,3893.97,375.872)">
                        <path d="M0,-0.883L-1.488,-1.222L-1.706,-1.5L-2.055,-1.134L-2.09,-0.399L-1.777,0L-1.558,0.278L-0.074,0.617L1.435,0.422L1.681,0.166L2.03,-0.2L2.065,-0.935L1.752,-1.334L1.509,-1.078L0,-0.883Z" style="fill:rgb(142,142,142);fill-rule:nonzero;"/>
                    </g>
                    <g transform="matrix(1,0,0,1,3894.48,365.447)">
                        <path d="M0,-0.988L-1.488,-1.328L-1.431,-2.447L-3.409,-2.542L-3.521,-0.194L-3.789,-0.012L-3.821,0.625L-3.864,1.494L-2.615,1.554L-2.037,1.184L-1.889,1.088L-0.987,0.509L-0.071,0.477L0.744,0.447L1.872,0.156L2.027,0.116L2.513,-0.395L2.556,-1.265L2.15,-1.779L1.547,-1.998L1.509,-1.183L0,-0.988Z" style="fill:rgb(142,142,142);fill-rule:nonzero;"/>
                    </g>
                    <g transform="matrix(1,0,0,1,3894.33,368.37)">
                        <path d="M0,-0.882L-1.484,-1.221L-1.702,-1.5L-2.055,-1.133L-2.09,-0.398L-1.777,0.001L-1.558,0.279L-0.071,0.618L1.438,0.423L1.685,0.167L2.034,-0.199L2.069,-0.934L1.756,-1.333L1.512,-1.077L0,-0.882Z" style="fill:rgb(142,142,142);fill-rule:nonzero;"/>
                    </g>
                    <g transform="matrix(1,0,0,1,3894.04,374.372)">
                        <path d="M0,-0.883L-1.484,-1.222L-1.702,-1.5L-2.055,-1.134L-2.09,-0.399L-1.776,0L-1.558,0.278L-0.07,0.617L1.438,0.422L1.682,0.167L2.034,-0.2L2.069,-0.935L1.756,-1.334L1.512,-1.078L0,-0.883Z" style="fill:rgb(142,142,142);fill-rule:nonzero;"/>
                    </g>
                    <g transform="matrix(1,0,0,1,3895.99,367.306)">
                        <path d="M0,-1.35L-1.604,-1.143L-2.506,-1.35L-3.409,-0.771L-3.557,-0.674L-3.37,-0.436L-3.151,-0.157L-1.667,0.182L-0.155,-0.013L0.088,-0.269L0.437,-0.635L0.476,-1.371L0.342,-1.532L0.335,-1.393L0,-1.35Z" style="fill:rgb(142,142,142);fill-rule:nonzero;"/>
                    </g>
                    <g transform="matrix(1,0,0,1,3894.11,372.872)">
                        <path d="M0,-0.883L-1.488,-1.222L-1.706,-1.5L-2.055,-1.134L-2.09,-0.399L-1.777,0L-1.558,0.278L-0.074,0.617L1.438,0.422L1.681,0.167L2.03,-0.2L2.066,-0.935L1.752,-1.334L1.509,-1.078L0,-0.883Z" style="fill:rgb(142,142,142);fill-rule:nonzero;"/>
                    </g>
                    <g transform="matrix(1,0,0,1,3894.26,369.87)">
                        <path d="M0,-0.882L-1.487,-1.221L-1.706,-1.5L-2.055,-1.133L-2.09,-0.398L-1.776,-0L-1.558,0.279L-0.074,0.618L1.438,0.423L1.682,0.167L2.031,-0.199L2.066,-0.935L1.756,-1.333L1.509,-1.077L0,-0.882Z" style="fill:rgb(142,142,142);fill-rule:nonzero;"/>
                    </g>
                    <g transform="matrix(1,0,0,1,3894.18,371.371)">
                        <path d="M0,-0.882L-1.484,-1.221L-1.702,-1.5L-2.055,-1.133L-2.09,-0.398L-1.777,0.001L-1.558,0.279L-0.07,0.618L1.438,0.423L1.681,0.168L2.034,-0.199L2.069,-0.934L1.756,-1.333L1.512,-1.077L0,-0.882Z" style="fill:rgb(142,142,142);fill-rule:nonzero;"/>
                    </g>
                    <g transform="matrix(0.998843,0.0480945,0.0480945,-0.998843,3901.6,396.562)">
                        <path d="M-0.002,-0.129L5.383,-0.129L5.243,-0.087L0.137,-0.086L-0.002,-0.129Z" style="fill:rgb(142,142,142);fill-rule:nonzero;"/>
                    </g>
                    <g transform="matrix(0.998839,0.0481699,0.0481699,-0.998839,3901.79,395.287)">
                        <path d="M0.01,-0.124L5.117,-0.124L6.491,0.334L-1.368,0.332L0.01,-0.124Z" style="fill:rgb(142,142,142);fill-rule:nonzero;"/>
                    </g>
                    <g transform="matrix(1,0,0,1,3909.77,396.426)">
                        <path d="M0,-0.591L-0.056,0.543L-0.077,1.039L-1.213,0.984L-1.583,0.966L-2.799,0.524L-8.178,0.265L-9.433,0.588L-9.803,0.57L-10.934,0.516L-10.91,0.02L-10.857,-1.114L-10.832,-1.61L-9.697,-1.556L-9.331,-1.538L-1.48,-1.16L-1.11,-1.142L0.025,-1.087L0,-0.591ZM0.37,0.564L0.374,0.483L0.423,-0.57L0.451,-1.137L-5.545,-1.426L-6.01,-1.449L-11.664,-1.721L-11.685,-1.321L-11.77,-1.16L-11.71,-0.821L-11.742,-0.172L-11.749,-0.021L-11.773,0.546L-5.28,0.859L0.342,1.13L0.37,0.564Z" style="fill:rgb(142,142,142);fill-rule:nonzero;"/>
                    </g>
                    <g transform="matrix(1,0,0,1,3908.29,397.013)">
                        <path d="M0,-1.747L-1.396,-1.357L-6.497,-1.603L-7.85,-2.125L-8.217,-2.143L-9.352,-2.198L-9.376,-1.702L-9.429,-0.568L-9.454,-0.072L-8.323,-0.017L-7.952,0L-6.697,-0.322L-6.556,-0.358L-1.456,-0.112L-1.318,-0.063L-0.102,0.379L0.268,0.397L1.403,0.451L1.424,-0.045L1.48,-1.178L1.505,-1.674L0.37,-1.729L0,-1.747Z" style="fill:rgb(142,142,142);fill-rule:nonzero;"/>
                    </g>
                    <g transform="matrix(1,0,0,1,3895.49,396.293)">
                        <path d="M0,-1.146L-0.053,-0.012L-0.081,0.554L0.172,0.567L0.2,0L0.208,-0.151L0.24,-0.8L0.331,-1.131L0.265,-1.301L0.281,-1.7L0.028,-1.713L0,-1.146Z" style="fill:rgb(142,142,142);fill-rule:nonzero;"/>
                    </g>
                    <g transform="matrix(1,0,0,1,3891.94,426.571)">
                        <path d="M0,-1.975L-0.084,-1.979L-0.166,-1.818L-0.247,-1.65L-2.09,-0.739L-2.785,-0.278L-2.795,-0.09L-2.799,0.004L-1.709,-0.72L-0.18,-1.476L0.134,-1.632L0.204,-1.772L0.3,-1.956L0.3,-1.961L0,-1.975Z" style="fill:rgb(142,142,142);fill-rule:nonzero;"/>
                    </g>
                    <g transform="matrix(1,0,0,1,3892.52,424.585)">
                        <path d="M0,-8.767L-0.109,-6.705L-0.219,-4.808L-0.271,-3.954L-0.324,-3.094L-0.427,-1.686L-0.511,-0.648L-0.582,0.01L-0.283,0.025L-0.283,0.031L-0.201,0.034L-0.13,-0.63L-0.043,-1.669L0.056,-3.075L0.113,-3.934L0.165,-4.79L0.271,-6.687L0.381,-8.748L0.384,-8.782L0,-8.801L0,-8.767Z" style="fill:rgb(142,142,142);fill-rule:nonzero;"/>
                    </g>
                    <g transform="matrix(1,0,0,1,3882.14,409.843)">
                        <path d="M0,-1.075L-0.025,-0.544L-0.05,-0.057L-0.05,-0.013L-0.06,0.207L-0.053,0.207L0.208,0.22L0.218,0L0.243,-0.531L0.271,-1.062L0.281,-1.282L0.236,-1.284L0.01,-1.295L0,-1.075Z" style="fill:rgb(142,142,142);fill-rule:nonzero;"/>
                    </g>
                    <g transform="matrix(1,0,0,1,3895.01,361.863)">
                        <path d="M0,-8.562L-1.484,-8.901L-1.449,-9.632L-2.006,-9.561L-2.041,-8.829L-2.496,0.605L-1.949,0.731L-0.465,1.07L1.047,0.875L1.604,0.803L2.059,-8.632L2.094,-9.363L1.548,-9.488L1.512,-8.757L0,-8.562Z" style="fill:rgb(142,142,142);fill-rule:nonzero;"/>
                    </g>
                    <g transform="matrix(1,0,0,1,3883.35,370.856)">
                        <path d="M0,2.118L1.509,1.923L1.752,1.667L2.104,1.301L2.14,0.565L1.826,0.167L1.583,0.423L0.07,0.618L-1.414,0.279L-1.632,0L-1.985,0.367L-2.02,1.102L-1.706,1.501L-1.488,1.779L0,2.118Z" style="fill:rgb(142,142,142);fill-rule:nonzero;"/>
                    </g>
                    <g transform="matrix(1,0,0,1,3883.42,369.356)">
                        <path d="M0,2.118L1.512,1.923L1.756,1.667L2.104,1.301L2.14,0.565L1.83,0.167L1.583,0.423L0.074,0.618L-1.413,0.279L-1.632,0L-1.981,0.366L-2.016,1.102L-1.702,1.5L-1.484,1.779L0,2.118Z" style="fill:rgb(142,142,142);fill-rule:nonzero;"/>
                    </g>
                    <g transform="matrix(1,0,0,1,3883.72,364.007)">
                        <path d="M0,1.402L0.909,1.523L1.748,2.185L1.889,2.296L2.429,2.72L3.673,2.779L3.715,1.91L3.747,1.273L3.497,1.067L3.61,-1.282L1.635,-1.377L1.583,-0.258L0.071,-0.063L-1.414,-0.402L-1.375,-1.216L-1.995,-1.057L-2.446,-0.584L-2.489,0.285L-2.052,0.841L-1.904,0.896L-0.811,1.294L0,1.402Z" style="fill:rgb(142,142,142);fill-rule:nonzero;"/>
                    </g>
                    <g transform="matrix(1,0,0,1,3883.64,365.074)">
                        <path d="M0,1.899L1.509,1.704L1.755,1.448L1.963,1.228L1.822,1.118L0.983,0.455L0.063,0.574L-1.512,0.214L-1.844,0.139L-1.837,0L-1.985,0.147L-2.02,0.883L-1.706,1.281L-1.484,1.559L0,1.899Z" style="fill:rgb(142,142,142);fill-rule:nonzero;"/>
                    </g>
                    <g transform="matrix(1,0,0,1,3883.5,367.855)">
                        <path d="M0,2.118L1.509,1.923L1.755,1.667L2.104,1.301L2.14,0.565L1.826,0.167L1.583,0.423L0.071,0.618L-1.414,0.278L-1.632,0L-1.985,0.367L-2.02,1.102L-1.706,1.501L-1.488,1.779L0,2.118Z" style="fill:rgb(142,142,142);fill-rule:nonzero;"/>
                    </g>
                    <g transform="matrix(1,0,0,1,3883.28,372.356)">
                        <path d="M0,2.118L1.512,1.923L1.755,1.667L2.104,1.3L2.14,0.565L1.826,0.167L1.583,0.422L0.074,0.617L-1.414,0.278L-1.632,0L-1.981,0.366L-2.016,1.102L-1.703,1.5L-1.484,1.778L0,2.118Z" style="fill:rgb(142,142,142);fill-rule:nonzero;"/>
                    </g>
                    <g transform="matrix(1,0,0,1,3883.57,366.355)">
                        <path d="M0,2.118L1.512,1.923L1.755,1.667L2.104,1.301L2.143,0.566L1.829,0.167L1.583,0.423L0.074,0.618L-1.41,0.278L-1.632,0L-1.981,0.367L-2.016,1.102L-1.703,1.501L-1.484,1.779L0,2.118Z" style="fill:rgb(142,142,142);fill-rule:nonzero;"/>
                    </g>
                    <g transform="matrix(1,0,0,1,3883.21,373.857)">
                        <path d="M0,2.118L1.509,1.923L1.752,1.667L2.104,1.301L2.14,0.565L1.826,0.167L1.583,0.423L0.071,0.618L-1.414,0.278L-1.632,0L-1.985,0.366L-2.02,1.102L-1.706,1.5L-1.488,1.778L0,2.118Z" style="fill:rgb(142,142,142);fill-rule:nonzero;"/>
                    </g>
                    <g transform="matrix(1,0,0,1,3883.14,375.357)">
                        <path d="M0,2.118L1.509,1.923L1.755,1.667L2.104,1.3L2.14,0.565L1.826,0.167L1.583,0.423L0.074,0.618L-1.414,0.278L-1.632,0L-1.981,0.366L-2.016,1.102L-1.703,1.5L-1.484,1.778L0,2.118Z" style="fill:rgb(142,142,142);fill-rule:nonzero;"/>
                    </g>
                    <g transform="matrix(1,0,0,1,3884.57,377.052)">
                        <path d="M0,1.728L0.596,1.105L0.631,0.37L0.317,-0.028L0.07,0.228L-1.438,0.423L-2.922,0.083L-3.141,-0.195L-3.493,0.171L-3.529,0.907L-2.996,1.583L-1.509,1.923L0,1.728Z" style="fill:rgb(142,142,142);fill-rule:nonzero;"/>
                    </g>
                    <g transform="matrix(1,0,0,1,3892.74,405.057)">
                        <path d="M0,-0.277L-0.081,-0.187L-0.214,-0.153L-0.895,0.021L-0.906,0.139L-0.218,-0.036L-0.01,-0.089L0.152,-0.13L0.275,-0.162L0.299,-0.168L0.505,-0.399L0.12,-0.416L0,-0.277Z" style="fill:rgb(142,142,142);fill-rule:nonzero;"/>
                    </g>
                    <g transform="matrix(1,0,0,1,3893.04,413.504)">
                        <path d="M0,-8.615L-0.024,-8.609L-0.147,-8.577L-0.141,-7.958L-0.155,-6.906L-0.194,-5.484L-0.246,-3.916L-0.327,-1.833L-0.377,-0.752L-0.418,0.212L-0.034,0.231L0.011,-0.802L0.053,-1.815L0.138,-3.897L0.191,-5.465L0.226,-6.887L0.24,-7.94L0.233,-8.596L0.205,-8.846L0,-8.615Z" style="fill:rgb(142,142,142);fill-rule:nonzero;"/>
                    </g>
                    <g transform="matrix(1,0,0,1,3904.28,338.907)">
                        <path d="M0,0.286L0.553,0.313L0.014,-0.027L0,0.286Z" style="fill:rgb(142,142,142);fill-rule:nonzero;"/>
                    </g>
                    <g transform="matrix(1,0,0,1,3891.56,350.996)">
                        <path d="M0,-1.64L0.451,-1.269L0.416,-0.555L-0.247,-0.109L-0.444,-0.093L-0.458,0.236L-0.5,1.106L0.025,1.131L1.012,1.179L2.034,0.523L2.64,0.133L3.553,0.101L4.371,0.071L5.065,-0.108L5.65,-0.26L6.141,-0.771L6.179,-1.64L5.777,-2.155L4.625,-2.573L3.031,-2.782L2.26,-2.819L2.199,-1.534L0,-1.64Z" style="fill:rgb(142,142,142);fill-rule:nonzero;"/>
                    </g>
                    <g transform="matrix(1,0,0,1,3891.4,350.555)">
                        <path d="M0,-0.857L-0.229,-0.702L-0.243,-0.366L-0.279,0.349L-0.081,0.332L0.581,-0.113L0.616,-0.827L0.165,-1.198L0.018,-1.206L0,-0.857Z" style="fill:rgb(142,142,142);fill-rule:nonzero;"/>
                    </g>
                    <g transform="matrix(1,0,0,1,3886.23,339.858)">
                        <path d="M0,-0.221L8.143,0.171L7.272,-0.084L5.499,-0.17L4.791,-0.204L3.373,-0.273L2.665,-0.306L0.891,-0.392L0,-0.221Z" style="fill:rgb(142,142,142);fill-rule:nonzero;"/>
                    </g>
                    <g transform="matrix(1,0,0,1,3889.7,337.069)">
                        <path d="M0,0.722L-0.06,1.949L-0.088,2.517L1.329,2.585L1.417,0.79L1.329,2.585L2.038,2.619L2.062,2.051L4.473,2.167L4.501,1.63L4.572,0.178L4.572,0.16L4.643,-1.321L4.643,-1.332L4.653,-1.528L-3,-1.897L-3.01,-1.701L-3.01,-1.691L-3.081,-0.209L-3.084,-0.191L-3.151,1.261L-3.179,1.798L-0.768,1.914L-0.06,1.949L0,0.722Z" style="fill:rgb(142,142,142);fill-rule:nonzero;"/>
                    </g>
                    <g transform="matrix(1,0,0,1,3886.01,339.965)">
                        <path d="M0,7.717L7.822,8.094L9.253,8.163L14.312,5.846L14.681,2.157L14.699,1.814L14.149,0.927L12.979,0.435L11.812,0.279L9.528,0.12L8.368,0.064L0.226,-0.328L-0.761,-0.376L-0.931,-0.384L-1.361,-0.396L-1.399,-0.397L-3.222,-0.446L-4.399,-0.403L-4.516,-0.365L-5.608,-0.025L-6.243,0.805L-6.229,4.454L-6.246,4.855L-3.458,6.474L-2.725,6.898L-2.714,6.904L-1.431,7.648L0,7.717Z" style="fill:rgb(142,142,142);fill-rule:nonzero;"/>
                    </g>
                    <g transform="matrix(1,0,0,1,3882.38,352.054)">
                        <path d="M0,10.024L1.484,10.363L2.992,10.169L3.55,10.097L4.004,0.662L4.04,-0.07L3.493,-0.194L3.458,0.536L1.949,0.732L0.465,0.392L0.5,-0.339L0.151,-0.294L0.031,0.492L-0.148,1.641L-0.547,9.899L0,10.024Z" style="fill:rgb(142,142,142);fill-rule:nonzero;"/>
                    </g>
                    <g transform="matrix(1,0,0,1,3890.4,412.362)">
                        <path d="M0,0.555L0.067,0.47L0.071,0.45L0.028,0.447L0.05,0.04L0.043,0L0,0.555Z" style="fill:rgb(142,142,142);fill-rule:nonzero;"/>
                    </g>
                    <g transform="matrix(1,0,0,1,3890.48,412.604)">
                        <path d="M0,-0.914L-0.004,-0.794L-0.021,-0.461L-0.031,-0.201L-0.035,-0.128L-0.053,0.206L-0.01,0.208L0.004,-0.125L0.036,-0.791L0.008,-0.795L0.032,-1.122L0,-0.914Z" style="fill:rgb(142,142,142);fill-rule:nonzero;"/>
                    </g>
                    <g transform="matrix(1,0,0,1,3891.43,409.752)">
                        <path d="M0,-0.004L-0.025,0.527L0.048,0.531L0.073,-0L0.095,-0.369L0.101,-0.531L0.028,-0.535L0,-0.004Z" style="fill:rgb(142,142,142);fill-rule:nonzero;"/>
                    </g>
                    <g transform="matrix(1,0,0,1,3891.01,412.524)">
                        <path d="M0,-0.689L-0.032,-0.022L-0.05,0.31L0.38,0.332L0.394,-0.002L0.408,-0.323L0.426,-0.669L0.444,-1.001L0.328,-1.006L0.018,-1.021L0,-0.689Z" style="fill:rgb(142,142,142);fill-rule:nonzero;"/>
                    </g>
                    <g transform="matrix(1,0,0,1,3879.13,434.052)">
                        <path d="M0,-1.478L-0.011,-1.313L-0.085,-1.314L-0.025,-0.977L-0.063,-0.177L-0.067,-0.126L-0.093,0.39L0.161,0.401L0.19,-0.166L0.204,-0.412L0.228,-0.93L0.246,-1.299L0.274,-1.866L0.129,-1.872L0.05,-1.876L0.017,-1.879L0,-1.478Z" style="fill:rgb(142,142,142);fill-rule:nonzero;"/>
                    </g>
                    <g transform="matrix(1,0,0,1,3894.72,270.117)">
                        <path d="M0,-8.028L-0.377,-7.749L-0.384,-6.058L-0.387,-4.665L-0.387,-4.396L-0.391,-4.101L-0.391,-3.491L-0.398,-1.978L-0.398,-1.619L-0.462,-1.348L-0.775,-0.015L-0.434,0.006L-0.169,0.024L0.063,-2.046L0.063,-2.212L0.061,-2.472L0.061,-2.697L0.057,-3.434L0.053,-4.248L0.049,-5.242L0.047,-5.64L0.047,-5.747L0.043,-6.125L0.039,-7.143L0.031,-8.052L0,-8.028Z" style="fill:rgb(142,142,142);fill-rule:nonzero;"/>
                    </g>
                    <g transform="matrix(1,0,0,1,3895.34,259.999)">
                        <path d="M0,2.034L0.271,2.034L0.469,1.505L1.389,1.47L2.228,0L0.152,1.523L0,2.034Z" style="fill:rgb(142,142,142);fill-rule:nonzero;"/>
                    </g>
                    <g transform="matrix(1,0,0,1,3895.34,263.475)">
                        <path d="M0,-1.442L-0.089,-1.135L-0.116,-1.052L-0.251,0L-0.18,-0.198L-0.071,-0.497L0.028,-1.442L0,-1.442Z" style="fill:rgb(142,142,142);fill-rule:nonzero;"/>
                    </g>
                    <g transform="matrix(1,0,0,1,3879.52,270.335)">
                        <path d="M0,-7.477L-0.006,-6.261L-0.01,-5.774L-0.014,-5.091L-0.014,-4.667L-0.021,-3.885L-0.024,-2.968L-0.028,-2.354L-0.028,-2.263L-0.003,-2.15L0.592,0.476L0.768,0.44L0.958,0.405L0.839,-0.109L0.532,-1.421L0.437,-1.837L0.43,-3.215L0.427,-3.782L0.427,-4.417L0.42,-6.313L0.413,-7.903L0.071,-7.903L0.057,-7.913L0,-7.953L0,-7.477Z" style="fill:rgb(142,142,142);fill-rule:nonzero;"/>
                    </g>
                    <g transform="matrix(0.496369,0.868112,0.868112,-0.496369,3877.79,259.427)">
                        <path d="M-0.254,-1.597L2.089,-1.597L2.753,-0.437L2.507,-0.369L-0.254,-1.597Z" style="fill:rgb(142,142,142);fill-rule:nonzero;"/>
                    </g>
                    <g transform="matrix(1,0,0,1,3878.78,254.247)">
                        <path d="M0,7.589L0.25,7.772L0.504,7.959L0.74,8.135L0.797,8.174L0.811,8.185L3.603,8.072L12.683,8.072L15.478,8.185L15.563,8.121L15.94,7.843L15.972,7.818L16.472,7.455L16.712,7.275L18.788,5.753L19.504,3.243L17.234,0.881L11.181,-0.596L5.108,-0.596L-0.948,0.881L-3.218,3.243L-2.503,5.753L-0.067,7.54L0,7.589Z" style="fill:rgb(142,142,142);fill-rule:nonzero;"/>
                    </g>
                    <g transform="matrix(1,0,0,1,3883.62,349.261)">
                        <path d="M0,1.213L0.811,1.321L1.717,1.442L2.284,1.887L3.24,2.638L4.223,2.686L4.752,2.711L4.794,1.842L4.808,1.512L4.614,1.477L3.997,0.971L4.032,0.256L4.516,-0.07L2.316,-0.176L2.379,-1.461L1.607,-1.498L0.004,-1.443L-0.497,-1.315L-0.712,0.069L-0.843,0.906L-0.673,0.968L0,1.213Z" style="fill:rgb(142,142,142);fill-rule:nonzero;"/>
                    </g>
                    <g transform="matrix(1,0,0,1,3887.65,350.448)">
                        <path d="M0,-0.931L-0.034,-0.217L0.582,0.29L0.776,0.326L0.812,-0.389L0.825,-0.726L0.614,-0.902L0.631,-1.251L0.483,-1.257L0,-0.931Z" style="fill:rgb(142,142,142);fill-rule:nonzero;"/>
                    </g>
                </g>
            </g>
        </g>
    </g>
</svg>
