<?xml version="1.0" encoding="UTF-8" standalone="no"?>
<!DOCTYPE svg PUBLIC "-//W3C//DTD SVG 1.1//EN" "http://www.w3.org/Graphics/SVG/1.1/DTD/svg11.dtd">
<svg width="100%" height="100%" viewBox="0 0 188 122" version="1.1" xmlns="http://www.w3.org/2000/svg" xmlns:xlink="http://www.w3.org/1999/xlink" xml:space="preserve" xmlns:serif="http://www.serif.com/" style="fill-rule:evenodd;clip-rule:evenodd;stroke-linejoin:round;stroke-miterlimit:2;">
    <g id="Artboard1" transform="matrix(1,0,0,1,6.38566,1.17248)">
        <rect x="-6.386" y="-1.172" width="187.984" height="121.851" style="fill:none;"/>
        <g id="bike-rack-perpendicular-left" transform="matrix(1,0,0,1,-1411.2,-1152.53)">
            <g>
                <g transform="matrix(1,0,0,1,1561.65,1231.81)">
                    <path d="M0,7.315L-0.906,7.703L-1.815,8.092L-2.094,8.211L-1.971,8.452L-1.692,8.333L1.622,6.915L19.884,-0.895L19.761,-1.137L1.54,6.657L0,7.315Z" style="fill:rgb(226,226,226);fill-rule:nonzero;"/>
                </g>
                <g transform="matrix(1,0,0,1,1559.84,1227.81)">
                    <path d="M0,12.097L0.909,11.708L1.815,11.32L3.282,10.439L20.237,0.242L20.173,0.12L20.113,0L3.197,10.175L0,12.097Z" style="fill:rgb(226,226,226);fill-rule:nonzero;"/>
                </g>
                <g transform="matrix(1,0,0,1,1564.21,1246.2)">
                    <path d="M0,-3.588L-0.455,-3.692L-2.087,-4.063L-3.049,-4.283L-4.012,-4.502L-4.304,-4.569L-4.346,-4.301L-4.054,-4.234L-0.539,-3.433L0.049,-3.299L0.264,-3.25L18.827,0.981L18.869,0.713L0.215,-3.539L0,-3.588Z" style="fill:rgb(226,226,226);fill-rule:nonzero;"/>
                </g>
                <g transform="matrix(1,0,0,1,1562.13,1239.14)">
                    <path d="M0,1.46L-0.987,1.549L-1.97,1.637L-2.27,1.665L-2.228,1.932L-1.925,1.905L1.791,1.57L21.446,-0.205L21.4,-0.472L1.703,1.306L0,1.46Z" style="fill:rgb(226,226,226);fill-rule:nonzero;"/>
                </g>
                <g transform="matrix(1,0,0,1,1564.11,1243.66)">
                    <path d="M0,-1.622L-0.194,-1.639L-3.909,-1.962L-2.947,-1.743L-1.984,-1.523L-0.278,-1.375L0.049,-1.347L0.261,-1.328L19.43,0.34L19.451,0.207L19.472,0.073L0.212,-1.603L0,-1.622Z" style="fill:rgb(226,226,226);fill-rule:nonzero;"/>
                </g>
                <g transform="matrix(1,0,0,1,1560.16,1235.48)">
                    <path d="M0,5.29L0.984,5.202L1.97,5.113L3.602,4.735L22.912,0.268L22.87,0L3.518,4.477L0,5.29Z" style="fill:rgb(226,226,226);fill-rule:nonzero;"/>
                </g>
                <g transform="matrix(1,0,0,1,1558.04,1217.79)">
                    <path d="M0,18.691L-0.219,19.653L-0.441,20.617L-0.507,20.911L-0.24,20.953L-0.173,20.659L0.659,17.021L5.044,-2.22L4.776,-2.262L0.381,17.021L0,18.691Z" style="fill:rgb(226,226,226);fill-rule:nonzero;"/>
                </g>
                <g transform="matrix(1,0,0,1,1557.6,1215.03)">
                    <path d="M0,23.383L0.222,22.42L0.441,21.457L0.585,19.787L2.305,0.043L2.172,0.022L2.038,0L0.314,19.787L0,23.383Z" style="fill:rgb(226,226,226);fill-rule:nonzero;"/>
                </g>
                <g transform="matrix(1,0,0,1,1556.49,1217.51)">
                    <path d="M0,18.975L-0.384,17.309L-0.43,17.114L-0.483,16.892L-4.843,-1.967L-5.111,-1.925L-0.79,16.765L-0.737,16.987L-0.663,17.309L0.18,20.942L0.088,19.958L0,18.975Z" style="fill:rgb(226,226,226);fill-rule:nonzero;"/>
                </g>
                <g transform="matrix(1,0,0,1,1558.49,1217.05)">
                    <path d="M0,21.609L0.508,20.761L1.012,19.913L1.678,18.339L9.401,0.124L9.161,0L1.456,18.176L0,21.609Z" style="fill:rgb(226,226,226);fill-rule:nonzero;"/>
                </g>
                <g transform="matrix(1,0,0,1,1559.5,1220.59)">
                    <path d="M0,16.374L-0.504,17.222L-1.012,18.07L-1.167,18.329L-0.927,18.452L-0.772,18.193L1.079,15.098L11.259,-1.954L11.019,-2.078L0.857,14.938L0,16.374Z" style="fill:rgb(226,226,226);fill-rule:nonzero;"/>
                </g>
                <g transform="matrix(1,0,0,1,1559.26,1221.46)">
                    <path d="M0,17.72L0.744,17.07L1.487,16.42L2.587,15.155L15.58,0.191L15.485,0.095L15.39,0L2.365,14.995L0,17.72Z" style="fill:rgb(226,226,226);fill-rule:nonzero;"/>
                </g>
                <g transform="matrix(1,0,0,1,1556.97,1215.04)">
                    <path d="M0,23.661L-0.028,23.36L-0.352,19.77L-0.359,19.657L-2.136,-0.01L-2.404,0.032L-0.649,19.479L-0.627,19.697L-0.624,19.77L-0.472,21.436L-0.384,22.419L-0.293,23.403L-0.289,23.442L-0.063,23.671L0,23.661Z" style="fill:rgb(226,226,226);fill-rule:nonzero;"/>
                </g>
                <g transform="matrix(1,0,0,1,1545.2,1249.69)">
                    <path d="M0,5.402L0.278,5.08L2.732,2.256L3.225,1.686L3.772,1.06L4.226,0.536L5.58,-1.024L7.589,-3.337L7.674,-3.434L10.039,-6.159L9.295,-5.509L8.552,-4.86L7.455,-3.594L7.413,-3.545L5.58,-1.436L3.92,0.478L3.687,0.746L2.954,1.588L2.647,1.942L-0.057,5.052L-0.335,5.374L-0.61,5.69L-5.541,11.369L-5.351,11.561L-0.275,5.718L0,5.402Z" style="fill:rgb(226,226,226);fill-rule:nonzero;"/>
                </g>
                <g transform="matrix(1,0,0,1,1555.17,1259.25)">
                    <path d="M0,-7.35L0.092,-7.75L0.166,-8.071L0.247,-8.428L0.913,-11.35L1.294,-13.02L1.512,-13.983L1.734,-14.946L1.801,-15.24L1.534,-15.283L1.466,-14.988L0.638,-11.35L-0.155,-7.873L-0.243,-7.489L-0.307,-7.21L-0.405,-6.782L-0.462,-6.53L-3.75,7.891L-3.483,7.933L-0.063,-7.058L0,-7.35Z" style="fill:rgb(226,226,226);fill-rule:nonzero;"/>
                </g>
                <g transform="matrix(1,0,0,1,1551.12,1254.11)">
                    <path d="M0,1.487L0.141,1.154L0.434,0.469L1.364,-1.725L2.034,-3.306L2.785,-5.081L3.13,-5.893L3.44,-6.628L4.896,-10.061L4.392,-9.213L3.885,-8.366L3.218,-6.791L2.545,-5.206L1.907,-3.701L1.082,-1.759L0.166,0.404L-0.141,1.13L-0.282,1.463L-0.423,1.791L-4.505,11.425L-4.385,11.486L-4.265,11.548L-0.137,1.816L0,1.487Z" style="fill:rgb(226,226,226);fill-rule:nonzero;"/>
                </g>
                <g transform="matrix(1,0,0,1,1549.21,1252.43)">
                    <path d="M0,3.01L0.197,2.681L0.465,2.236L0.91,1.488L3.529,-2.898L4.156,-3.945L4.931,-5.245L5.788,-6.681L6.296,-7.529L6.8,-8.377L6.955,-8.636L6.715,-8.76L6.56,-8.5L4.709,-5.405L3.504,-3.381L0.797,1.151L0.18,2.184L-0.102,2.656L-0.3,2.985L-0.49,3.308L-5.471,11.647L-5.231,11.77L-0.19,3.334L0,3.01Z" style="fill:rgb(226,226,226);fill-rule:nonzero;"/>
                </g>
                <g transform="matrix(1,0,0,1,1558.61,1240.57)">
                    <path d="M0,1.56L-0.173,1.732L-0.737,2.54L-3.356,2.54L-3.328,2.57L-3.134,2.762L-2.936,2.96L-2.714,3.073L-2.675,3.092L-2.436,3.215L-2.186,3.343L-1.939,3.382L-1.896,3.389L-1.629,3.431L-1.35,3.475L-1.107,3.436L-1.065,3.43L-0.797,3.387L-0.518,3.343L-0.296,3.23L-0.261,3.211L-0.018,3.088L0.233,2.96L0.409,2.784L0.437,2.755L0.631,2.563L0.828,2.364L0.941,2.142L0.962,2.105L1.082,1.864L1.213,1.613L1.251,1.367L1.258,1.326L1.301,1.058L1.343,0.78L1.304,0.534L1.297,0.493L1.255,0.226L1.213,-0.052L1.1,-0.274L1.078,-0.311L0.955,-0.553L0.828,-0.803L0.652,-0.98L0.624,-1.009L0.43,-1.201L0.233,-1.4L0.01,-1.513L-0.028,-1.532L-0.268,-1.655L-0.518,-1.782L-0.765,-1.821L-0.807,-1.828L-1.075,-1.87L-1.35,-1.915L-1.597,-1.876L-1.639,-1.869L-1.703,-1.859L0.666,0.525L0.032,1.438L0,1.56Z" style="fill:rgb(226,226,226);fill-rule:nonzero;"/>
                </g>
                <g transform="matrix(1,0,0,1,1542.3,1247.27)">
                    <path d="M0,7.578L0.359,7.263L8.484,0.162L10.162,-1.304L10.169,-1.31L11.456,-2.438L12.2,-3.087L12.944,-3.737L13.173,-3.936L12.979,-4.128L12.753,-3.928L9.944,-1.473L8.484,-0.197L-0.014,7.231L-0.374,7.546L-0.73,7.856L-4.914,11.515L-4.724,11.706L-0.353,7.888L0,7.578Z" style="fill:rgb(226,226,226);fill-rule:nonzero;"/>
                </g>
                <g transform="matrix(1,0,0,1,1558.16,1263.74)">
                    <path d="M0,-15.845L-0.152,-17.511L-0.24,-18.494L-0.328,-19.478L-0.356,-19.779L-0.624,-19.737L-0.596,-19.435L-0.271,-15.845L-0.268,-15.793L-0.257,-15.662L-0.226,-15.312L1.512,3.934L1.78,3.892L0.018,-15.634L0,-15.845Z" style="fill:rgb(226,226,226);fill-rule:nonzero;"/>
                </g>
                <g transform="matrix(1,0,0,1,1559.48,1263.55)">
                    <path d="M0,-17.789L-0.388,-18.697L-0.776,-19.604L-0.895,-19.882L-1.139,-19.759L-1.019,-19.481L0.448,-16.051L8.209,2.093L8.453,1.97L0.673,-16.214L0,-17.789Z" style="fill:rgb(226,226,226);fill-rule:nonzero;"/>
                </g>
                <g transform="matrix(1,0,0,1,1558.71,1264.18)">
                    <path d="M0,-20.236L0.388,-19.328L0.776,-18.421L1.639,-16.984L11.854,0L11.974,-0.062L12.094,-0.123L1.857,-17.144L0,-20.236Z" style="fill:rgb(226,226,226);fill-rule:nonzero;"/>
                </g>
                <g transform="matrix(1,0,0,1,1563.65,1252.5)">
                    <path d="M0,-7.695L-0.539,-8.016L-2.009,-8.894L-2.855,-9.4L-3.705,-9.906L-3.966,-10.061L-4.085,-9.82L-3.828,-9.665L-0.624,-7.752L-0.212,-7.505L-0.053,-7.41L16.321,2.366L16.444,2.124L0.169,-7.593L0,-7.695Z" style="fill:rgb(226,226,226);fill-rule:nonzero;"/>
                </g>
                <g transform="matrix(1,0,0,1,1563.99,1250.28)">
                    <path d="M0,-5.973L-0.719,-6.279L-4.043,-7.688L-3.194,-7.181L-2.348,-6.675L-0.804,-6.021L-0.088,-5.717L0.099,-5.638L17.442,1.715L17.505,1.594L17.533,1.539L17.565,1.474L0.19,-5.894L0,-5.973Z" style="fill:rgb(226,226,226);fill-rule:nonzero;"/>
                </g>
                <g transform="matrix(1,0,0,1,1557.84,1267.17)">
                    <path d="M0,-22.909L0.088,-21.925L0.176,-20.942L0.561,-19.276L5.02,0L5.154,-0.021L5.287,-0.042L0.839,-19.276L0,-22.909Z" style="fill:rgb(226,226,226);fill-rule:nonzero;"/>
                </g>
                <g transform="matrix(1,0,0,1,1556.39,1261.79)">
                    <path d="M0,-11.596L0.021,-11.844L0.053,-12.184L0.07,-12.404L0.201,-13.893L0.515,-17.489L0.292,-16.526L0.074,-15.563L-0.071,-13.893L-0.236,-11.981L-0.257,-11.744L-0.286,-11.429L-0.307,-11.164L-0.335,-10.863L-1.791,5.851L-1.657,5.872L-1.59,5.883L-1.523,5.893L-0.028,-11.271L0,-11.596Z" style="fill:rgb(226,226,226);fill-rule:nonzero;"/>
                </g>
                <g transform="matrix(1,0,0,1,1559.43,1258.95)">
                    <path d="M0,-15.582L0.649,-14.838L1.301,-14.095L2.591,-12.974L17.53,0L17.625,-0.096L17.72,-0.191L2.817,-13.137L0,-15.582Z" style="fill:rgb(226,226,226);fill-rule:nonzero;"/>
                </g>
                <g transform="matrix(1,0,0,1,1543.82,1232.66)">
                    <path d="M0.12,-14.127L-0.12,-14.003L7.857,-0.743L8.256,-0.34L8.654,0.062L0.12,-14.127Z" style="fill:rgb(226,226,226);fill-rule:nonzero;"/>
                </g>
                <g transform="matrix(1,0,0,1,1531.46,1243.76)">
                    <path d="M-0.021,3.196L0.021,3.464L15.573,-0.134L14.149,-0.082L-0.021,3.196Z" style="fill:rgb(226,226,226);fill-rule:nonzero;"/>
                </g>
                <g transform="matrix(1,0,0,1,1458.64,1215.52)">
                    <path d="M0,20.017L0.176,19.523L1.917,-0.451L1.783,-0.472L1.65,-0.493L-0.18,20.51L0,20.017Z" style="fill:rgb(226,226,226);fill-rule:nonzero;"/>
                </g>
                <g transform="matrix(0.222385,-0.974959,-0.974959,-0.222385,1467.99,1227.47)">
                    <path d="M-5.639,6.792L10.657,6.792L10.64,7.063L-7.822,7.06L-5.639,6.792Z" style="fill:rgb(226,226,226);fill-rule:nonzero;"/>
                </g>
                <g transform="matrix(1,0,0,1,1460.53,1221.46)">
                    <path d="M0,17.188L0.138,17.07L0.881,16.42L14.974,0.191L14.879,0.095L14.784,0L0.106,16.899L0,17.188Z" style="fill:rgb(226,226,226);fill-rule:nonzero;"/>
                </g>
                <g transform="matrix(1,0,0,1,1460.66,1224.38)">
                    <path d="M0,14.15L-0.138,14.268L-0.328,14.794L17.114,-0.453L16.924,-0.644L0.744,13.5L0,14.15Z" style="fill:rgb(226,226,226);fill-rule:nonzero;"/>
                </g>
                <g transform="matrix(0.512664,-0.858589,-0.858589,-0.512664,1471.12,1234.32)">
                    <path d="M-4.457,7.79L13.619,7.79L13.601,8.059L-3.059,8.059L-4.457,7.79Z" style="fill:rgb(226,226,226);fill-rule:nonzero;"/>
                </g>
                <g transform="matrix(1,0,0,1,1467.74,1219.55)">
                    <path d="M0,-0.829L-0.049,-0.696L-0.906,1.673L0.811,-2.379L0.691,-2.44L0.571,-2.502L-0.12,-0.872L0,-0.829Z" style="fill:rgb(226,226,226);fill-rule:nonzero;"/>
                </g>
                <g transform="matrix(1,0,0,1,1549.39,1231.09)">
                    <path d="M-0.603,5.581L0.603,6.301L2.006,7.139L3.476,8.017L4.325,8.523L5.171,9.029L5.432,9.184L5.556,8.942L5.295,8.788L2.09,6.875L1.156,6.317L0.554,5.957L-0.049,5.597L-14.851,-3.243L-14.974,-3.001L-0.603,5.581Z" style="fill:rgb(226,226,226);fill-rule:nonzero;"/>
                </g>
                <g transform="matrix(0.754606,-0.656179,-0.656179,-0.754606,1555.95,1241.04)">
                    <path d="M-0.126,0.119L-0.065,0.119L0.29,0.306L0.264,0.384L-0.126,0.119Z" style="fill:rgb(226,226,226);fill-rule:nonzero;"/>
                </g>
                <g transform="matrix(1,0,0,1,1553.41,1242.02)">
                    <path d="M0,0.004L0.208,0.086L0.933,-0.082L0,0.004Z" style="fill:rgb(226,226,226);fill-rule:nonzero;"/>
                </g>
                <g transform="matrix(1,0,0,1,1553.77,1233.29)">
                    <path d="M0,4.566L0.652,5.31L1.301,6.053L1.502,6.28L1.692,6.089L1.495,5.861L-0.881,3.147L-2.482,1.315L-5.489,-1.714L-1.1,3.307L0,4.566Z" style="fill:rgb(226,226,226);fill-rule:nonzero;"/>
                </g>
                <g transform="matrix(1,0,0,1,1552.26,1226.21)">
                    <path d="M0,10.691L2.813,13.136L2.164,12.393L1.512,11.649L0.222,10.528L-14.713,-2.445L-14.812,-2.35L-14.907,-2.254L-0.155,10.559L0,10.691Z" style="fill:rgb(226,226,226);fill-rule:nonzero;"/>
                </g>
                <g transform="matrix(1,0,0,1,1554.96,1241.06)">
                    <path d="M0,-1.071L-0.018,-1.034L-0.141,-0.793L-0.268,-0.542L-0.307,-0.296L-0.314,-0.255L-0.356,0.012L-0.402,0.29L-0.363,0.536L-0.356,0.578L-0.314,0.846L-0.303,0.917L0.821,-0.035L0.941,-0.489L1.082,-0.63L1.234,-1.015L0.902,-1.988L0.708,-1.89L0.532,-1.714L0.504,-1.684L0.314,-1.492L0.113,-1.293L0,-1.071Z" style="fill:rgb(226,226,226);fill-rule:nonzero;"/>
                </g>
                <g transform="matrix(1,0,0,1,1554.3,1242)">
                    <path d="M0,-0.326L-1.441,-0.196L-0.891,0.027L0.042,-0.059L0.342,-0.085L0.3,-0.353L0,-0.326Z" style="fill:rgb(226,226,226);fill-rule:nonzero;"/>
                </g>
                <g transform="matrix(1,0,0,1,1547.12,1233.87)">
                    <path d="M-0.867,2.724L0.867,3.46L4.121,4.839L7.441,6.247L6.595,5.741L5.746,5.235L4.202,4.581L1.611,3.482L0.744,3.114L-0.124,2.746L-14.044,-3.155L-14.107,-3.034L-14.167,-2.914L-0.867,2.724Z" style="fill:rgb(226,226,226);fill-rule:nonzero;"/>
                </g>
                <g transform="matrix(1,0,0,1,1534.97,1240)">
                    <path d="M-1.724,-3.793L1.724,-3.007L15.778,0.197L17.41,0.569L18.372,0.788L19.334,1.008L19.631,1.075L19.673,0.808L19.377,0.741L15.862,-0.061L3.119,-2.966L1.396,-3.359L-0.328,-3.752L-3.5,-4.475L-3.543,-4.208L-1.724,-3.793Z" style="fill:rgb(226,226,226);fill-rule:nonzero;"/>
                </g>
                <g transform="matrix(1,0,0,1,1554.31,1238.71)">
                    <path d="M0,2.303L-0.962,2.083L-1.925,1.864L-3.627,1.716L-23.339,0L-23.36,0.134L-23.381,0.267L-3.715,1.98L0,2.303Z" style="fill:rgb(226,226,226);fill-rule:nonzero;"/>
                </g>
                <g transform="matrix(1,0,0,1,1556.5,1239.59)">
                    <path d="M0,1.769L0.102,1.392L0.381,1.115L0.758,1.014L1.135,1.115L1.41,1.392L1.512,1.769L1.41,2.147L1.135,2.423L0.758,2.524L0.381,2.423L0.102,2.147L0,1.769L-0.197,1.769L0,1.769ZM-0.454,0.849L-0.525,1.03L-0.669,1.403L-0.715,1.443L-1.84,2.395L-2.27,2.761L-0.081,2.22L-0.074,2.249L0.279,2.597L0.758,2.724L1.234,2.596L1.586,2.248L1.717,1.776L2.774,1.514L-0.797,-0.992L-0.634,-0.509L-0.303,0.464L-0.454,0.849Z" style="fill:rgb(226,226,226);fill-rule:nonzero;"/>
                </g>
                <g transform="matrix(1,0,0,1,1556.88,1240.7)">
                    <path d="M0,1.308L0.377,1.409L0.755,1.308L1.029,1.032L1.132,0.654L1.029,0.276L0.755,-0L0.377,-0.101L0,-0L-0.278,0.276L-0.381,0.654L-0.278,1.032L0,1.308Z" style="fill:rgb(226,226,226);fill-rule:nonzero;"/>
                </g>
                <g transform="matrix(1,0,0,1,1553.84,1218.12)">
                    <path d="M0,15.382L-7.025,-1.044L-7.265,-0.921L-0.356,15.234L-0.25,15.483L-0.067,15.906L0.448,16.426L0.109,15.63L0,15.382Z" style="fill:rgb(226,226,226);fill-rule:nonzero;"/>
                </g>
                <g transform="matrix(1,0,0,1,1459.75,1264.45)">
                    <path d="M0,-19.604L-0.388,-20.512L-0.504,-20.79L-0.747,-20.666L-0.628,-20.389L8.601,1.186L8.841,1.063L0.391,-18.696L0,-19.604Z" style="fill:rgb(226,226,226);fill-rule:nonzero;"/>
                </g>
                <g transform="matrix(1,0,0,1,1459.75,1263.27)">
                    <path d="M0,-18.42L0.391,-17.512L11.47,0.908L11.59,0.847L11.71,0.785L-0.388,-19.328L0,-18.42Z" style="fill:rgb(226,226,226);fill-rule:nonzero;"/>
                </g>
                <g transform="matrix(1,0,0,1,1456.07,1219.44)">
                    <path d="M0,18.42L-0.388,17.513L-11.467,-0.908L-11.587,-0.846L-11.707,-0.785L0.388,19.328L0,18.42Z" style="fill:rgb(226,226,226);fill-rule:nonzero;"/>
                </g>
                <g transform="matrix(1,0,0,1,1460.74,1260.25)">
                    <path d="M0,-16.144L-0.649,-16.888L-0.849,-17.115L-1.04,-16.923L-0.839,-16.696L14.604,0.971L14.794,0.78L0.652,-15.4L0,-16.144Z" style="fill:rgb(226,226,226);fill-rule:nonzero;"/>
                </g>
                <g transform="matrix(1,0,0,1,1458.58,1266.19)">
                    <path d="M0,-20.941L0.088,-19.958L4.931,0.984L5.199,0.942L-0.092,-21.925L0,-20.941Z" style="fill:rgb(226,226,226);fill-rule:nonzero;"/>
                </g>
                <g transform="matrix(1,0,0,1,1458.58,1266.39)">
                    <path d="M0,-21.144L-0.092,-22.128L-0.116,-22.429L-0.384,-22.386L-0.356,-22.085L1.752,1.285L2.02,1.243L0.088,-20.161L0,-21.144Z" style="fill:rgb(226,226,226);fill-rule:nonzero;"/>
                </g>
                <g transform="matrix(1,0,0,1,1461.4,1228.2)">
                    <path d="M0,11.319L0.909,10.931L19.331,-0.148L19.267,-0.269L19.239,-0.327L19.208,-0.389L-0.906,11.708L0,11.319Z" style="fill:rgb(226,226,226);fill-rule:nonzero;"/>
                </g>
                <g transform="matrix(1,0,0,1,1457.07,1243.98)">
                    <path d="M0,-5.192L-0.222,-5.079L-0.257,-5.06L-0.5,-4.937L-0.751,-4.81L-0.927,-4.633L-0.955,-4.604L-1.149,-4.412L-1.346,-4.213L-1.459,-3.991L-1.477,-3.954L-1.6,-3.713L-1.731,-3.462L-1.769,-3.216L-1.777,-3.175L-1.819,-2.907L-1.861,-2.629L-1.822,-2.383L-1.815,-2.342L-1.773,-2.074L-1.731,-1.796L-1.618,-1.575L-1.597,-1.538L-1.473,-1.296L-1.346,-1.046L-1.17,-0.869L-1.142,-0.84L-0.948,-0.648L-0.751,-0.449L-0.529,-0.337L-0.49,-0.317L-0.25,-0.194L0,-0.067L0.247,-0.027L0.289,-0.021L0.557,0.021L0.832,0.065L1.079,0.026L1.121,0.02L1.389,-0.023L1.667,-0.067L1.89,-0.18L1.925,-0.198L2.168,-0.321L2.418,-0.449L2.594,-0.626L2.623,-0.655L2.813,-0.846L3.014,-1.046L3.127,-1.268L3.144,-1.305L3.268,-1.546L3.395,-1.796L3.437,-2.043L3.44,-2.084L3.483,-2.352L3.529,-2.629L3.49,-2.876L3.483,-2.917L3.44,-3.184L3.395,-3.462L3.282,-3.684L3.264,-3.721L3.141,-3.963L3.031,-4.178L1.597,-0.214L1.206,-0.355L0.264,-0.696L-0.677,-1.037L-1.068,-1.178L-0.649,-2.336L-0.726,-2.629L-0.518,-3.409L-0.113,-3.814L0.409,-5.257L0.278,-5.236L0,-5.192Z" style="fill:rgb(226,226,226);fill-rule:nonzero;"/>
                </g>
                <g transform="matrix(1,0,0,1,1461.82,1243.78)">
                    <path d="M0,-1.864L0.962,-1.644L22.377,0.219L22.398,0.086L22.419,-0.048L-0.962,-2.083L0,-1.864Z" style="fill:rgb(226,226,226);fill-rule:nonzero;"/>
                </g>
                <g transform="matrix(1,0,0,1,1461.8,1239.05)">
                    <path d="M0,1.638L-0.984,1.726L-1.283,1.754L-1.241,2.021L-0.941,1.994L22.429,-0.115L22.387,-0.383L0.984,1.549L0,1.638Z" style="fill:rgb(226,226,226);fill-rule:nonzero;"/>
                </g>
                <g transform="matrix(1,0,0,1,1456.56,1241.25)">
                    <path d="M0,-0.672L-0.208,0.109L-0.13,0.402L-0.025,0.109L0.216,-0.548L0.405,-1.074L0,-0.672Z" style="fill:rgb(226,226,226);fill-rule:nonzero;"/>
                </g>
                <g transform="matrix(1,0,0,1,1461.4,1231.42)">
                    <path d="M0,8.091L-0.906,8.48L-1.184,8.598L-1.061,8.84L-0.783,8.721L20.79,-0.507L20.667,-0.749L0.909,7.703L0,8.091Z" style="fill:rgb(226,226,226);fill-rule:nonzero;"/>
                </g>
                <g transform="matrix(1,0,0,1,1460.74,1258.2)">
                    <path d="M0,-14.094L0.652,-13.35L16.878,0.744L16.976,0.649L17.072,0.553L-0.649,-14.838L0,-14.094Z" style="fill:rgb(226,226,226);fill-rule:nonzero;"/>
                </g>
                <g transform="matrix(1,0,0,1,1461.8,1235.57)">
                    <path d="M0,5.113L0.984,5.024L21.925,0.179L21.904,0.046L21.883,-0.088L-0.984,5.201L0,5.113Z" style="fill:rgb(226,226,226);fill-rule:nonzero;"/>
                </g>
                <g transform="matrix(1,0,0,1,1457.24,1216.52)">
                    <path d="M0.088,21.925L-0.088,19.959L-4.931,-0.983L-5.065,-0.963L-5.199,-0.941L0.088,21.925Z" style="fill:rgb(226,226,226);fill-rule:nonzero;"/>
                </g>
                <g transform="matrix(1,0,0,1,1461.45,1254.2)">
                    <path d="M0,-11.105L-0.846,-11.611L-1.107,-11.766L-1.23,-11.525L-0.969,-11.37L19.176,0.661L19.299,0.419L0.849,-10.599L0,-11.105Z" style="fill:rgb(226,226,226);fill-rule:nonzero;"/>
                </g>
                <g transform="matrix(1,0,0,1,1461.82,1246.9)">
                    <path d="M0,-4.977L-0.962,-5.196L-1.259,-5.264L-1.301,-4.996L-1.005,-4.929L21.872,0.287L21.915,0.019L0.962,-4.757L0,-4.977Z" style="fill:rgb(226,226,226);fill-rule:nonzero;"/>
                </g>
                <g transform="matrix(1,0,0,1,1457.24,1216.32)">
                    <path d="M-0.088,20.161L0.088,22.127L0.116,22.429L0.247,22.408L0.36,22.097L0.356,22.085L-1.752,-1.285L-2.02,-1.243L-0.088,20.161Z" style="fill:rgb(226,226,226);fill-rule:nonzero;"/>
                </g>
                <g transform="matrix(1,0,0,1,1461.45,1251.49)">
                    <path d="M0,-8.39L0.849,-7.884L20.639,0.506L20.702,0.386L20.762,0.265L-0.846,-8.896L0,-8.39Z" style="fill:rgb(226,226,226);fill-rule:nonzero;"/>
                </g>
                <g transform="matrix(1,0,0,1,1456.07,1218.26)">
                    <path d="M0,19.604L0.388,20.512L0.508,20.79L0.751,20.667L0.631,20.389L-8.598,-1.186L-8.841,-1.063L-0.388,18.697L0,19.604Z" style="fill:rgb(226,226,226);fill-rule:nonzero;"/>
                </g>
                <g transform="matrix(1,0,0,1,1454,1238.93)">
                    <path d="M0,1.863L-0.962,1.644L-22.377,-0.22L-22.398,-0.087L-22.419,0.047L0.962,2.083L0,1.863Z" style="fill:rgb(226,226,226);fill-rule:nonzero;"/>
                </g>
                <g transform="matrix(1,0,0,1,1454.41,1254.52)">
                    <path d="M0,-11.321L-0.906,-10.933L-19.328,0.146L-19.264,0.267L-19.204,0.388L0.909,-11.709L0,-11.321Z" style="fill:rgb(226,226,226);fill-rule:nonzero;"/>
                </g>
                <g transform="matrix(1,0,0,1,1454.41,1251.29)">
                    <path d="M0,-8.091L0.909,-8.479L1.188,-8.598L1.065,-8.84L0.786,-8.721L-20.79,0.508L-20.667,0.749L-0.906,-7.703L0,-8.091Z" style="fill:rgb(226,226,226);fill-rule:nonzero;"/>
                </g>
                <g transform="matrix(1,0,0,1,1454.02,1243.66)">
                    <path d="M0,-1.638L0.984,-1.727L1.283,-1.754L1.241,-2.021L0.938,-1.994L-22.433,0.115L-22.387,0.383L-0.983,-1.549L0,-1.638Z" style="fill:rgb(226,226,226);fill-rule:nonzero;"/>
                </g>
                <g transform="matrix(1,0,0,1,1454.02,1247.14)">
                    <path d="M0,-5.112L-0.983,-5.023L-21.929,-0.179L-21.887,0.089L0.984,-5.201L0,-5.112Z" style="fill:rgb(226,226,226);fill-rule:nonzero;"/>
                </g>
                <g transform="matrix(1,0,0,1,1455.15,1257.94)">
                    <path d="M0,-13.752L0.744,-14.402L0.973,-14.601L0.779,-14.793L0.553,-14.593L-17.114,0.85L-16.923,1.041L-0.744,-13.103L0,-13.752Z" style="fill:rgb(226,226,226);fill-rule:nonzero;"/>
                </g>
                <g transform="matrix(1,0,0,1,1456.16,1262.97)">
                    <path d="M0,-18.069L0.508,-18.917L0.663,-19.176L0.423,-19.299L0.268,-19.04L-11.763,1.107L-11.523,1.23L-0.504,-17.221L0,-18.069Z" style="fill:rgb(226,226,226);fill-rule:nonzero;"/>
                </g>
                <g transform="matrix(1,0,0,1,1456.16,1264.81)">
                    <path d="M0,-19.913L-0.504,-19.065L-8.893,0.725L-8.774,0.786L-8.654,0.848L0.508,-20.761L0,-19.913Z" style="fill:rgb(226,226,226);fill-rule:nonzero;"/>
                </g>
                <g transform="matrix(1,0,0,1,1455.15,1260.6)">
                    <path d="M0,-16.42L-0.744,-15.771L-14.837,0.458L-14.741,0.555L-14.646,0.65L0.744,-17.07L0,-16.42Z" style="fill:rgb(226,226,226);fill-rule:nonzero;"/>
                </g>
                <g transform="matrix(1,0,0,1,1454.36,1231.22)">
                    <path d="M0,8.39L-0.846,7.884L-20.635,-0.506L-20.699,-0.386L-20.759,-0.265L0.85,8.896L0,8.39Z" style="fill:rgb(226,226,226);fill-rule:nonzero;"/>
                </g>
                <g transform="matrix(1,0,0,1,1454.36,1228.51)">
                    <path d="M0,11.105L0.85,11.611L1.11,11.766L1.234,11.524L0.973,11.37L-19.176,-0.661L-19.299,-0.419L-0.846,10.599L0,11.105Z" style="fill:rgb(226,226,226);fill-rule:nonzero;"/>
                </g>
                <g transform="matrix(1,0,0,1,1455.08,1222.46)">
                    <path d="M0,16.145L0.649,16.888L0.846,17.116L1.04,16.924L0.839,16.697L-14.604,-0.971L-14.794,-0.779L-0.652,15.401L0,16.145Z" style="fill:rgb(226,226,226);fill-rule:nonzero;"/>
                </g>
                <g transform="matrix(1,0,0,1,1457.34,1265.88)">
                    <path d="M0,-20.616L0.222,-21.579L0.289,-21.873L0.021,-21.916L-0.046,-21.621L-5.263,1.258L-4.995,1.3L-0.219,-19.653L0,-20.616Z" style="fill:rgb(226,226,226);fill-rule:nonzero;"/>
                </g>
                <g transform="matrix(1,0,0,1,1457.34,1266.72)">
                    <path d="M0,-21.457L-0.219,-20.494L-2.083,0.92L-1.949,0.941L-1.815,0.963L0.222,-22.42L0,-21.457Z" style="fill:rgb(226,226,226);fill-rule:nonzero;"/>
                </g>
                <g transform="matrix(1,0,0,1,1454,1235.81)">
                    <path d="M0,4.977L0.962,5.197L1.255,5.264L1.297,4.996L1.005,4.929L-21.876,-0.287L-21.918,-0.019L-0.962,4.758L0,4.977Z" style="fill:rgb(226,226,226);fill-rule:nonzero;"/>
                </g>
                <g transform="matrix(1,0,0,1,1455.08,1224.51)">
                    <path d="M0,14.095L-0.652,13.351L-16.881,-0.743L-16.976,-0.648L-17.071,-0.552L0.649,14.838L0,14.095Z" style="fill:rgb(226,226,226);fill-rule:nonzero;"/>
                </g>
                <g transform="matrix(1,0,0,1,1553.08,1252.11)">
                    <path d="M0,1.914L0.173,1.568L0.173,-0.979L0.067,-1.31L-0.603,0.27L-0.395,0.539L-1.339,2.514L-1.533,2.465L-1.826,3.149L-0.952,3.224L0,1.914Z" style="fill:rgb(165,165,165);fill-rule:nonzero;"/>
                </g>
                <g transform="matrix(1,0,0,1,1550.12,1250.85)">
                    <path d="M0,3.059L0,3.513L-0.444,3.808L-0.712,4.253L0.853,4.385L1.16,3.659L0.574,3.513L0.522,2.712L2.076,1.497L2.901,-0.445L2.619,-1.326L0,3.059Z" style="fill:rgb(165,165,165);fill-rule:nonzero;"/>
                </g>
                <g transform="matrix(0,1,1,0,1551.38,1246.2)">
                    <path d="M1.237,-0.596L2.061,-0.596L-0.048,1.237L-0.229,1.083L1.237,-0.596Z" style="fill:rgb(165,165,165);fill-rule:nonzero;"/>
                </g>
                <g transform="matrix(1,0,0,1,1551.59,1247.07)">
                    <path d="M0,-1.982L-0.807,-1.295L-0.807,0L0.652,-1.275L0.099,-1.677L0,-1.982Z" style="fill:rgb(165,165,165);fill-rule:nonzero;"/>
                </g>
                <g transform="matrix(1,0,0,1,1552.72,1253.54)">
                    <path d="M0,-5.639L0.691,-6.456L0.074,-7.182L-1.935,-4.869L-1.935,-2.025L-4.455,-0.637L-5.559,-0.028L-5.559,0.65L-4.73,1.447L-3.606,1.543L-3.324,1.071L-4.068,0.678L-4.068,0.166L-2.707,0.038L0,-4.494L0,-5.639Z" style="fill:rgb(165,165,165);fill-rule:nonzero;"/>
                </g>
                <g transform="matrix(1,0,0,1,1477.78,1190.01)">
                    <path d="M0,-0.081L1.184,0.348L2.369,0.777L2.489,0.82L2.859,0.955L3.028,1.015L3.31,0.239L3.141,0.178L2.767,0.044L2.651,0.001L1.467,-0.429L0.279,-0.857L0.162,-0.9L-0.211,-1.035L-0.381,-1.096L-0.659,-0.319L-0.49,-0.259L-0.12,-0.124L0,-0.081Z" style="fill:rgb(66,76,160);fill-rule:nonzero;"/>
                </g>
                <g transform="matrix(1,0,0,1,1479.6,1200.74)">
                    <path d="M0,-8.151L-0.455,-7.177L-0.966,-6.694L-0.931,-6.632L-0.874,-6.516L-0.846,-6.057L3.007,-3.946L4.995,-3.005L5.918,-2.618L5.936,-2.617L5.918,-2.618L19.972,0.692L19.832,0.529L19.595,0.26L19.571,0.229L19.504,0.156L19.313,-0.064L19.296,-0.086L18.591,-0.892L18.242,-1.293L17.783,-1.82L17.466,-2.184L17.043,-2.598L16.772,-2.86L16.479,-3.147L15.989,-3.624L15.704,-3.901L0.705,-8.843L0,-8.151Z" style="fill:rgb(66,76,160);fill-rule:nonzero;"/>
                </g>
                <g transform="matrix(1,0,0,1,1509.79,1195.46)">
                    <path d="M0,42.833L0.067,42.163L0.233,40.43L0.24,40.354L0.296,39.791L0.381,38.93L0.388,38.3L0.406,37.15L0.413,36.824L0.413,36.648L-24.276,2.668L-25.2,2.281L-27.188,1.339L-31.041,-0.771L-31.129,-0.561L-31.249,-0.231L-31.95,2.046L-32.285,4.163L-0.137,43.604L-0.024,42.974L0,42.833Z" style="fill:rgb(66,76,160);fill-rule:nonzero;"/>
                </g>
                <g transform="matrix(1,0,0,1,1476.3,1201.67)">
                    <path d="M0,-0.262L-1.184,-0.691L-2.369,-1.12L-2.563,-1.19L-2.859,-1.298L-3.134,-1.396L-3.539,-0.277L-2.968,-0.07L-2.915,-0.051L-2.527,0.09L-1.59,0.428L-0.655,0.768L-0.268,0.908L-0.211,0.927L0.36,1.134L0.765,0.015L0.49,-0.084L0.194,-0.192L0,-0.262Z" style="fill:rgb(66,76,160);fill-rule:nonzero;"/>
                </g>
                <g transform="matrix(1,0,0,1,1478.54,1196.11)">
                    <path d="M0,-0.881L0.12,-1.211L0.095,-1.921L0.088,-2.059L0.599,-2.541L1.054,-3.515L1.759,-4.207L2.097,-5.145L1.727,-5.279L1.607,-5.323L-0.761,-6.181L-0.881,-6.224L-1.251,-6.359L-5.097,4.265L-4.801,4.373L-4.607,4.443L-3.423,4.871L-2.239,5.301L-2.045,5.371L-1.748,5.478L-1.036,3.513L-0.702,1.396L0,-0.881Z" style="fill:rgb(66,76,160);fill-rule:nonzero;"/>
                </g>
                <g transform="matrix(1,0,0,1,1460.11,1230.07)">
                    <path d="M0,1.392L-0.747,3.461L-1.297,4.975L-1.473,5.468L-1.653,5.961L-2.517,8.347L-2.63,8.658L-3.151,10.101L-3.342,10.628L-3.581,11.285L-3.687,11.579L-4.107,12.737L-3.715,12.878L-2.774,13.219L-1.833,13.559L-1.442,13.701L-0.007,9.736L0.222,9.099L0.412,8.574L0.518,8.285L2.038,4.086L2.524,2.747L6.719,-8.843L7.575,-11.212L7.625,-11.345L7.505,-11.389L7.462,-11.404L7.233,-11.486L7.121,-11.528L6.292,-11.827L5.467,-12.126L5.351,-12.168L5.122,-12.251L4.96,-12.309L0,1.392Z" style="fill:rgb(66,76,160);fill-rule:nonzero;"/>
                </g>
                <g transform="matrix(1,0,0,1,1516.22,1238.71)">
                    <path d="M0,7.262L-0.208,7.169L-0.261,7.177L-0.296,7.13L-0.663,6.965L-1.639,5.828L-1.565,5.609L-1.544,5.55L-1.516,5.476L-1.146,4.413L-0.666,4.323L-0.585,4.307L0.328,4.135L0.483,4.204L0.465,3.774L0.5,2.368L-0.324,1.232L-0.694,0.725L-0.913,0.423L-1.35,-0.18L-1.357,-0.138L-1.371,-0.06L-1.555,1.066L-1.805,2.6L-1.837,2.784L-1.84,2.809L-1.974,3.635L-2.2,4.553L-2.231,4.678L-2.256,4.778L-2.418,5.446L-0.79,7.442L0,7.262Z" style="fill:rgb(66,76,160);fill-rule:nonzero;"/>
                </g>
                <g transform="matrix(1,0,0,1,1557.87,1241.1)">
                    <path d="M0,2.015L0.564,1.207L0.698,1.014L0.768,0.913L1.403,0L0.345,0.262L0.215,0.734L-0.138,1.082L-0.613,1.21L-1.093,1.083L-1.445,0.735L-1.452,0.706L-3.641,1.247L-3.641,2.015L0,2.015Z" style="fill:rgb(66,76,160);fill-rule:nonzero;"/>
                </g>
                <g transform="matrix(1,0,0,1,1556.9,1240.35)">
                    <path d="M0,-1.634L-0.226,-1.863L-0.744,-2.384L-1.202,-1.756L2.369,0.75L0,-1.634Z" style="fill:rgb(66,76,160);fill-rule:nonzero;"/>
                </g>
                <g transform="matrix(1,0,0,1,1553.76,1241.82)">
                    <path d="M0,1.377L0.367,1.314L0.465,1.297L0.465,0.529L-0.141,0.287L-0.349,0.204L-0.899,-0.018L-1.449,-0.238L-1.435,0.21L-1.421,0.529L-1.41,0.843L-1.392,1.297L-1.382,1.615L-1.153,1.575L0,1.377Z" style="fill:rgb(66,76,160);fill-rule:nonzero;"/>
                </g>
                <g transform="matrix(1,0,0,1,1555.7,1235.98)">
                    <path d="M0,2.616L0.458,1.987L-0.434,0L-0.733,0.295L-0.98,0.541L-1.276,0.837L-1.526,1.083L-1.752,1.307L-0.007,2.612L0,2.616Z" style="fill:rgb(66,76,160);fill-rule:nonzero;"/>
                </g>
                <g transform="matrix(1,0,0,1,1528.56,1237.96)">
                    <path d="M0,-28.839L-1.297,-28.037L-1.829,-27.707L-10.12,-2.192L-10.233,-1.854L-10.328,-1.554L-10.899,0.197L-11.488,2.01L-11.844,3.11L-11.879,4.516L-11.861,4.946L-11.358,5.173L-11.09,5.293L-10.487,5.565L-10.363,5.162L-9.916,4.853L-9.471,4.812L-8.96,3.234L-8.347,1.344L-7.759,-0.463L-7.445,-1.429L-7.335,-1.768L-7.226,-2.107L0.867,-27.008L0.596,-27.496L0.173,-28.264L0.085,-28.854L0.458,-29.629L1.104,-29.983L1.459,-30.147L1.53,-29.995L1.713,-29.612L2.989,-33.545L2.602,-33.671L2.411,-33.732L1.667,-33.974L1.347,-34.078L0.733,-34.278L0.501,-34.354L0.345,-34.404L-0.821,-30.814L-0.582,-30.238L0,-28.839Z" style="fill:rgb(66,76,160);fill-rule:nonzero;"/>
                </g>
                <g transform="matrix(1,0,0,1,1532.3,1204.26)">
                    <path d="M0,-0.432L0,0.002L0.378,0.218L0.755,0.002L0.755,-0.432L0.378,-0.65L0,-0.432Z" style="fill:rgb(66,76,160);fill-rule:nonzero;"/>
                </g>
                <g transform="matrix(1,0,0,1,1532.3,1203.03)">
                    <path d="M0,0.799L0.377,0.582L0.754,0.799L0.754,1.234L0.377,1.451L0,1.234L0,0.799ZM-3.007,0.653L-2.393,0.853L-2.073,0.957L-1.329,1.199L-1.138,1.26L-0.751,1.386L-0.363,1.512L0.656,1.843L0.835,1.901L1.273,0.554L1.093,0.496L0.074,0.165L-0.356,0.026L-0.73,-0.097L-0.888,-0.148L-1.635,-0.39L-1.953,-0.494L-2.542,-0.684L-2.802,-0.77L-2.915,-0.806L-3.49,-0.993L-3.824,-1.102L-4.262,0.245L-3.927,0.354L-3.395,0.527L-3.239,0.577L-3.007,0.653Z" style="fill:rgb(66,76,160);fill-rule:nonzero;"/>
                </g>
                <g transform="matrix(1,0,0,1,1505.08,1209.88)">
                    <path d="M0,-9.536L0.257,-9.176L0.317,-9.093L0.564,-8.755L1.16,-7.927L1.336,-7.684L1.6,-7.253L2.034,-6.539L2.199,-6.268L2.295,-6.114L2.386,-5.96L21.654,0.374L22.186,0.044L23.483,-0.758L22.902,-2.157L22.662,-2.733L-0.272,-9.91L-0.018,-9.557L0,-9.536Z" style="fill:rgb(66,76,160);fill-rule:nonzero;"/>
                </g>
                <g transform="matrix(1,0,0,1,1530.02,1237.29)">
                    <path d="M0,-29.469L-0.356,-29.305L-1.001,-28.951L-1.375,-28.176L-1.287,-27.586L-0.864,-26.818L-0.592,-26.33L1.008,-23.434L1.625,-22.466L5.626,-18.434L6.253,-17.801L7.78,-16.264L9.017,-15.019L18.259,-5.707L21.266,-2.679L22.993,-0.938L23.924,0L24.15,-0.224L24.4,-0.47L24.696,-0.766L24.943,-1.012L25.242,-1.307L25.468,-1.531L24.774,-2.23L24.262,-2.744L23.748,-3.263L23.159,-3.854L22.814,-4.204L22.454,-4.563L22.056,-4.965L21.657,-5.368L10.547,-16.55L9.309,-17.795L7.787,-19.331L7.156,-19.965L3.31,-23.837L2.757,-24.487L0.324,-28.781L2.277,-24.658L0.324,-28.781L0.254,-28.934L0.071,-29.317L0,-29.469Z" style="fill:rgb(66,76,160);fill-rule:nonzero;"/>
                </g>
                <g transform="matrix(1,0,0,1,1520.26,1241.55)">
                    <path d="M0,2.96L0.356,3.12L0.635,3.245L2.506,3.1L4.054,2.98L4.399,2.957L5.901,2.855L6.137,2.838L6.8,2.814L8.978,2.734L10.744,2.669L25.352,2.135L26.064,2.108L26.776,2.083L30.812,1.935L32.123,1.886L32.113,1.568L32.095,1.114L32.084,0.801L32.07,0.481L32.056,0.033L32.046,-0.285L30.128,-0.214L10.402,0.509L8.636,0.573L6.458,0.653L5.989,0.67L5.559,0.7L4.036,0.805L3.916,0.813L2.2,0.946L0.377,1.086L0.328,1.09L-1.163,1.23L-1.607,1.271L-2.055,1.579L-2.178,1.982L-1.474,2.298L0,2.96Z" style="fill:rgb(66,76,160);fill-rule:nonzero;"/>
                </g>
                <g transform="matrix(1,0,0,1,1506.42,1198.81)">
                    <path d="M0,3.389L-0.176,3.146L-0.772,2.318L-1.019,1.98L-1.079,1.897L-1.336,1.537L-1.354,1.515L-1.608,1.163L-2.457,-0.012L-2.475,0.001L-0.018,3.401L0,3.389Z" style="fill:rgb(66,76,160);fill-rule:nonzero;"/>
                </g>
                <g transform="matrix(1,0,0,1,1563.06,1245.47)">
                    <path d="M0,-0.128L-0.361,0.012L-0.814,0.344L0.073,0.006L0.535,-0.378L0.378,-0.472L0,-0.128Z" style="fill:rgb(221,221,221);fill-rule:nonzero;"/>
                </g>
                <g transform="matrix(1,0,0,1,1564.33,1243.98)">
                    <path d="M0,-0.667L-0.338,0.329L-0.147,0.409L0.216,-0.623L0.145,-1.028L-0.069,-1.076L0,-0.667Z" style="fill:rgb(221,221,221);fill-rule:nonzero;"/>
                </g>
                <g transform="matrix(1,0,0,1,1563.9,1244.89)">
                    <path d="M0,-0.312L-0.245,-0.086L-0.078,0.015L0.17,-0.19L0.191,-0.25L0.004,-0.327L0,-0.312Z" style="fill:rgb(221,221,221);fill-rule:nonzero;"/>
                </g>
                <g transform="matrix(0.974239,0.225518,0.225518,-0.974239,1564.18,1242.59)">
                    <path d="M0.03,-0.015L0.252,-0.015L0.122,0.292L-0.088,0.263L0.03,-0.015Z" style="fill:rgb(221,221,221);fill-rule:nonzero;"/>
                </g>
                <g transform="matrix(1,0,0,1,1564.04,1241.82)">
                    <path d="M0,-0.175L0.069,0.225L0.281,0.244L0.197,-0.249L0.08,-0.419L0,-0.175Z" style="fill:rgb(221,221,221);fill-rule:nonzero;"/>
                </g>
                <g transform="matrix(1,0,0,1,1556.06,1234.52)">
                    <path d="M0,0.1L0.245,0.201L0.275,0.222L0.252,0.004L-0.055,-0.122L0,0.1Z" style="fill:rgb(221,221,221);fill-rule:nonzero;"/>
                </g>
                <g transform="matrix(0.923861,0.382728,0.382728,-0.923861,1554.11,1233.44)">
                    <path d="M-0.031,-0.344L1.926,-0.344L1.792,-0.158L-0.227,-0.157L-0.031,-0.344Z" style="fill:rgb(221,221,221);fill-rule:nonzero;"/>
                </g>
                <g transform="matrix(0.923683,0.383157,0.383157,-0.923683,1553.15,1233.41)">
                    <path d="M0.037,-0.004L0.475,-0.004L0.281,0.184L-0.416,0.184L0.037,-0.004Z" style="fill:rgb(221,221,221);fill-rule:nonzero;"/>
                </g>
                <g transform="matrix(1,0,0,1,1478.64,1194.82)">
                    <path d="M0,-0.633L0.023,0.076L0.111,-0.133L0.084,-0.593L0.027,-0.709L0,-0.633Z" style="fill:rgb(221,221,221);fill-rule:nonzero;"/>
                </g>
                <g transform="matrix(1,0,0,1,1529.76,1185.1)">
                    <path d="M0,17.246L0.589,17.436L0.906,17.54L1.653,17.782L1.812,17.834L2.186,17.956L8.027,-0.013L7.649,-0.135L6.747,-0.429L6.405,-0.54L5.813,-0.642L5.686,-0.664L5.421,-0.71L-0.374,17.124L-0.261,17.161L0,17.246Z" style="fill:rgb(221,221,221);fill-rule:nonzero;"/>
                </g>
                <g transform="matrix(1,0,0,1,1468.63,1207.72)">
                    <path d="M0,1.795L0.825,2.094L1.653,2.394L1.745,2.427L1.995,2.518L2.08,2.548L2.126,2.566L2.993,0.171L2.947,0.153L2.862,0.123L2.612,0.033L2.517,-0.001L1.692,-0.3L0.864,-0.6L0.772,-0.633L0.522,-0.724L0.391,-0.771L-0.476,1.623L-0.345,1.671L-0.095,1.761L0,1.795Z" style="fill:rgb(221,221,221);fill-rule:nonzero;"/>
                </g>
                <g transform="matrix(1,0,0,1,1469.5,1204.2)">
                    <path d="M0,2.915L0.828,3.214L1.653,3.514L1.748,3.548L1.999,3.638L3.268,0.124L3.035,0.039L2.926,-0.001L2.101,-0.3L1.272,-0.599L1.163,-0.638L0.931,-0.723L-0.342,2.791L-0.092,2.881L0,2.915Z" style="fill:rgb(221,221,221);fill-rule:nonzero;"/>
                </g>
                <g transform="matrix(1,0,0,1,1468.3,1210.11)">
                    <path d="M0,0.316L0.719,0.577L0.825,0.615L1.417,0.83L1.653,0.915L1.995,1.039L2.327,0.124L2.076,0.033L1.985,0L1.156,-0.3L0.331,-0.599L0.236,-0.633L-0.014,-0.723L-0.345,0.192L-0.127,0.271L0,0.316Z" style="fill:rgb(221,221,221);fill-rule:nonzero;"/>
                </g>
                <g transform="matrix(1,0,0,1,1475.35,1204.24)">
                    <path d="M0,0.188L-0.613,-0.034L-1.311,-0.287L-1.643,-0.407L-2.164,-0.596L-2.309,-0.195L-2.108,-0.123L-1.456,0.114L-0.8,0.351L-0.529,0.449L-0.144,0.588L0.398,0.784L0.543,0.384L0.134,0.236L0,0.188Z" style="fill:rgb(221,221,221);fill-rule:nonzero;"/>
                </g>
                <g transform="matrix(1,0,0,1,1473.9,1211.54)">
                    <path d="M0,-7.183L-0.652,-7.42L-0.853,-7.493L-0.976,-7.158L-1.047,-7.183L-2.316,-3.669L-2.27,-3.652L-3.137,-1.257L-3.183,-1.275L-3.514,-0.36L-3.243,-0.262L-2.922,-0.145L-2.591,-0.025L-1.935,0.212L-1.893,0.228L-1.664,0.31L0.927,-6.849L0.656,-6.947L0,-7.183Z" style="fill:rgb(221,221,221);fill-rule:nonzero;"/>
                </g>
                <g transform="matrix(1,0,0,1,1475.34,1203.15)">
                    <path d="M0,0.147L-0.934,-0.192L-1.872,-0.531L-1.907,-0.544L-1.984,-0.332L-1.346,-0.1L-1.011,0.021L-0.314,0.273L0.296,0.495L0.43,0.543L0.839,0.691L0.917,0.478L0.388,0.287L0.374,0.282L0,0.147Z" style="fill:rgb(221,221,221);fill-rule:nonzero;"/>
                </g>
                <g transform="matrix(1,0,0,1,1474.71,1202.96)">
                    <path d="M0,-0.858L-0.938,-1.197L-1.325,-1.337L-1.533,-0.757L-1.181,-0.629L-1.283,-0.352L-1.248,-0.339L-0.31,0L0.624,0.339L0.998,0.474L1.012,0.479L1.322,-0.379L0.934,-0.519L0,-0.858Z" style="fill:rgb(221,221,221);fill-rule:nonzero;"/>
                </g>
                <g transform="matrix(1,0,0,1,1471.2,1202.23)">
                    <path d="M0,-0.191L0.797,0.098L0.846,0.116L1.544,0.368L1.699,0.425L2.157,0.59L2.235,0.378L2.337,0.1L1.985,-0.027L1.879,-0.066L0.976,-0.391L0.155,-0.689L-0.099,-0.781L-0.278,-0.291L-0.021,-0.199L0,-0.191Z" style="fill:rgb(221,221,221);fill-rule:nonzero;"/>
                </g>
                <g transform="matrix(1,0,0,1,1543.7,1264.05)">
                    <path d="M0,-45.396L0.12,-45.458L0.24,-45.519L2.869,-46.858L3.109,-46.981L5.298,-48.095L7.677,-48.472L7.811,-48.494L7.945,-48.514L10.857,-48.976L11.125,-49.018L13.55,-49.402L15.929,-49.025L16.197,-48.983L19.109,-48.521L19.377,-48.479L21.802,-48.095L23.949,-47.001L24.069,-46.939L24.188,-46.877L26.818,-45.54L27.058,-45.416L29.247,-44.302L30.949,-42.598L31.045,-42.502L31.14,-42.406L33.227,-40.321L33.417,-40.13L35.155,-38.395L36.247,-36.247L36.307,-36.126L36.371,-36.005L37.71,-33.378L37.833,-33.136L38.948,-30.95L39.325,-28.569L39.346,-28.436L39.367,-28.302L39.825,-25.389L39.871,-25.122L40.252,-22.698L39.875,-20.317L39.854,-20.183L39.832,-20.05L39.374,-17.137L39.332,-16.869L38.948,-14.446L37.851,-12.298L37.819,-12.232L37.791,-12.177L37.728,-12.057L36.392,-9.429L36.269,-9.188L35.155,-7.001L33.449,-5.297L33.353,-5.201L33.258,-5.105L31.172,-3.02L30.981,-2.829L29.247,-1.093L27.096,0.001L26.977,0.062L26.857,0.124L24.231,1.463L23.987,1.586L21.802,2.7L19.419,3.077L19.151,3.119L16.24,3.581L15.972,3.623L13.55,4.007L11.167,3.63L11.1,3.619L11.033,3.609L10.899,3.587L7.988,3.126L7.72,3.084L5.298,2.7L3.148,1.606L2.908,1.482L0.278,0.144L0.039,0.021L-2.147,-1.093L-3.853,-2.797L-4.043,-2.989L-6.13,-5.074L-6.32,-5.266L-8.055,-7.001L-9.151,-9.148L-9.211,-9.27L-9.274,-9.39L-9.348,-9.537L-9.528,-9.892L-9.711,-10.253L-10.61,-12.017L-10.734,-12.259L-10.744,-12.277L-11.118,-12.277L-11.294,-11.778L-12.33,-11.521L-9.493,-5.957L-3.194,0.345L4.748,4.39L13.55,5.784L22.348,4.39L30.29,0.345L36.589,-5.957L40.636,-13.896L42.032,-22.698L40.636,-31.499L36.589,-39.439L30.29,-45.74L22.348,-49.785L13.55,-51.18L4.748,-49.785L-3.194,-45.74L-4.371,-44.563L-3.134,-43.317L-2.147,-44.302L0,-45.396Z" style="fill:rgb(221,221,221);fill-rule:nonzero;"/>
                </g>
                <g transform="matrix(1,0,0,1,1532.03,1252.62)">
                    <path d="M0.558,-0.843L-2.882,-0.843L-1.005,0L-0.655,-0.088L0.382,-0.344L0.558,-0.843Z" style="fill:rgb(221,221,221);fill-rule:nonzero;"/>
                </g>
                <g transform="matrix(1,0,0,1,1534.18,1254.18)">
                    <path d="M0,-0.016L0.178,0.338L0.457,0.361L0.954,0.064L1.458,-0.239L-0.185,-0.377L0,-0.016Z" style="fill:rgb(221,221,221);fill-rule:nonzero;"/>
                </g>
                <g transform="matrix(1,0,0,1,1540.51,1264.4)">
                    <path d="M0,-46.085L7.942,-50.13L16.744,-51.524L25.542,-50.13L33.484,-46.085L39.783,-39.784L43.83,-31.844L45.225,-23.043L43.83,-14.241L39.783,-6.301L33.484,0L25.542,4.045L16.744,5.439L7.942,4.045L0,0L-6.299,-6.301L-9.137,-11.866L-9.486,-11.778L-11.365,-12.622L-11.95,-12.622L-8.072,-5.013L-1.287,1.773L7.265,6.13L16.744,7.631L26.222,6.13L34.77,1.773L41.556,-5.013L45.913,-13.564L47.414,-23.043L45.913,-32.521L41.556,-41.072L34.77,-47.857L26.222,-52.214L16.744,-53.716L7.265,-52.214L-1.287,-47.857L-2.7,-46.443L-1.177,-44.907L0,-46.085Z" style="fill:rgb(221,221,221);fill-rule:nonzero;"/>
                </g>
                <g transform="matrix(1,0,0,1,1469.5,1218.03)">
                    <path d="M0,-6.493L-0.592,-6.707L-0.698,-6.745L-1.421,-7.007L-1.544,-7.052L-1.762,-7.13L-1.911,-6.717L-2.221,-5.862L-2.972,-3.789L-3.581,-2.109L-4.269,-0.209L-4.04,-0.127L-3.923,-0.085L-3.099,0.214L-2.27,0.513L-2.157,0.555L-1.928,0.637L-1.322,-1.041L-0.719,-2.704L0.021,-4.755L0.328,-5.601L0.575,-6.284L0.233,-6.408L0,-6.493Z" style="fill:rgb(221,221,221);fill-rule:nonzero;"/>
                </g>
                <g transform="matrix(1,0,0,1,1448.43,1270.53)">
                    <path d="M0,-58.344L-8.548,-53.987L-15.334,-47.201L-19.691,-38.651L-21.192,-29.172L-19.691,-19.693L-15.334,-11.143L-8.548,-4.357L0,-0L9.479,1.501L18.957,-0L27.509,-4.357L34.295,-11.143L38.651,-19.693L40.153,-29.172L38.651,-38.651L34.295,-47.201L27.509,-53.987L21.097,-57.254L20.357,-55.202L26.222,-52.215L32.522,-45.913L36.568,-37.973L37.961,-29.172L36.568,-20.371L32.522,-12.431L26.222,-6.13L18.281,-2.084L9.479,-0.69L0.68,-2.084L-7.261,-6.13L-13.561,-12.431L-17.607,-20.371L-19.003,-29.172L-17.607,-37.973L-13.561,-45.913L-7.261,-52.215L0.68,-56.26L9.479,-57.654L18.104,-56.288L18.855,-58.361L9.479,-59.845L0,-58.344Z" style="fill:rgb(221,221,221);fill-rule:nonzero;"/>
                </g>
                <g transform="matrix(1,0,0,1,1449.11,1268.44)">
                    <path d="M0,-54.174L-7.942,-50.129L-14.241,-43.828L-18.288,-35.888L-19.684,-27.087L-18.288,-18.285L-14.241,-10.345L-7.942,-4.044L0,0.001L8.798,1.395L17.6,0.001L25.542,-4.044L31.841,-10.345L35.888,-18.285L37.28,-27.087L35.888,-35.888L31.841,-43.828L25.542,-50.129L19.676,-53.117L19.074,-51.454L19.2,-51.39L19.32,-51.328L19.44,-51.267L22.07,-49.928L22.31,-49.805L24.495,-48.691L26.201,-46.987L26.296,-46.891L26.392,-46.795L28.478,-44.71L28.669,-44.519L30.403,-42.783L31.499,-40.635L31.531,-40.573L31.559,-40.515L31.623,-40.394L32.959,-37.767L33.082,-37.525L34.196,-35.339L34.573,-32.958L34.594,-32.824L34.615,-32.691L35.077,-29.778L35.119,-29.51L35.504,-27.087L35.126,-24.706L35.105,-24.572L35.084,-24.439L34.622,-21.526L34.58,-21.258L34.196,-18.835L33.103,-16.687L33.043,-16.566L32.98,-16.445L31.64,-13.818L31.517,-13.576L30.403,-11.39L28.7,-9.686L28.605,-9.59L28.507,-9.494L26.423,-7.409L26.233,-7.217L24.495,-5.482L22.348,-4.388L22.228,-4.326L22.109,-4.265L19.479,-2.926L19.239,-2.803L17.05,-1.689L14.671,-1.312L14.403,-1.27L11.491,-0.808L11.224,-0.766L8.798,-0.382L6.419,-0.758L6.285,-0.78L6.151,-0.801L3.239,-1.263L2.971,-1.305L0.546,-1.689L-1.6,-2.783L-1.72,-2.845L-1.84,-2.906L-4.47,-4.245L-4.709,-4.368L-6.899,-5.482L-8.601,-7.187L-8.792,-7.378L-10.878,-9.463L-11.069,-9.654L-12.806,-11.39L-13.899,-13.537L-13.959,-13.658L-14.022,-13.779L-15.362,-16.406L-15.485,-16.648L-16.599,-18.835L-16.976,-21.215L-16.998,-21.349L-17.019,-21.483L-17.477,-24.395L-17.523,-24.662L-17.903,-27.087L-17.526,-29.467L-17.484,-29.735L-17.026,-32.647L-16.983,-32.915L-16.599,-35.339L-15.503,-37.486L-15.443,-37.607L-15.38,-37.727L-14.044,-40.355L-13.92,-40.596L-12.806,-42.783L-11.1,-44.487L-11.005,-44.583L-10.91,-44.678L-8.823,-46.764L-8.633,-46.956L-6.899,-48.691L-4.748,-49.785L-4.628,-49.846L-4.508,-49.908L-1.882,-51.247L-1.639,-51.37L0.546,-52.484L2.929,-52.861L3.197,-52.903L6.109,-53.365L6.377,-53.407L8.798,-53.791L11.181,-53.414L11.315,-53.393L11.449,-53.371L14.361,-52.91L14.629,-52.868L16.814,-52.522L17.424,-54.202L8.798,-55.569L0,-54.174Z" style="fill:rgb(221,221,221);fill-rule:nonzero;"/>
                </g>
                <g transform="matrix(1,0,0,1,1542.3,1255.07)">
                    <path d="M0,-0.22L-0.352,0.09L2.295,0.315L2.57,-0.002L2.849,-0.323L0.361,-0.535L0,-0.22Z" style="fill:rgb(221,221,221);fill-rule:nonzero;"/>
                </g>
                <g transform="matrix(1,0,0,1,1545.2,1255.41)">
                    <path d="M0,-0.315L-0.275,0.001L3.522,0.323L3.713,-0.001L3.91,-0.33L2.786,-0.424L0.279,-0.638L0,-0.315Z" style="fill:rgb(221,221,221);fill-rule:nonzero;"/>
                </g>
                <g transform="matrix(1,0,0,1,1549.21,1255.57)">
                    <path d="M0,-0.135L-0.189,0.188L1.481,0.33L1.621,0.001L1.764,-0.332L0.199,-0.465L0,-0.135Z" style="fill:rgb(221,221,221);fill-rule:nonzero;"/>
                </g>
                <g transform="matrix(1,0,0,1,1508.28,1240.01)">
                    <path d="M0,5.216L-0.176,4.328L-0.162,4.251L-0.18,4.152L-0.141,4.153L0.169,2.589L0.455,1.155L0.504,1.079L0.525,0.993L0.553,1.006L1.191,0.052L1.195,0.039L1.336,-0.755L1.152,-0.49L0.208,0.854L-0.099,2.224L-0.525,4.144L-0.204,5.971L-0.19,5.934L0,5.216Z" style="fill:rgb(221,221,221);fill-rule:nonzero;"/>
                </g>
                <g transform="matrix(1,0,0,1,1496.54,1272.93)">
                    <rect x="-11.424" y="-0.635" width="12.689" height="0.635" style="fill:rgb(221,221,221);fill-rule:nonzero;"/>
                </g>
                <g transform="matrix(1,0,0,1,1509.43,1238.65)">
                    <path d="M0,0.868L-4.981,-1.369L-6.123,-1.882L-7.974,-2.714L-9.362,-2.369L-9.531,-1.882L-9.835,-1.02L-9.486,-0.566L-9.031,0.03L-8.964,0.116L-1.251,3.582L-0.945,2.212L0,0.868Z" style="fill:rgb(221,221,221);fill-rule:nonzero;"/>
                </g>
                <g transform="matrix(1,0,0,1,1464.11,1272.11)">
                    <path d="M0,-93.492L-4.181,-93.492L-4.184,-93.593L0.004,-93.593L0,-93.492ZM47.577,-21.142L47.816,-21.712L47.795,-21.72L49.114,-25.702L49.131,-25.696L49.688,-27.96L49.85,-28.628L49.875,-28.729L49.907,-28.853L50.132,-29.772L50.266,-30.597L50.27,-30.622L50.302,-30.806L50.552,-32.341L50.735,-33.466L50.749,-33.545L50.756,-33.586L50.809,-33.913L50.968,-35.806L50.992,-36.142L51.158,-38.095L51.176,-42.291L50.862,-46.476L50.221,-50.623L49.258,-54.707L47.975,-58.703L46.382,-62.585L44.485,-66.329L44.468,-66.319L42.286,-69.902L39.829,-73.302L37.115,-76.497L37.129,-76.512L34.168,-79.486L30.981,-82.217L27.59,-84.689L24.016,-86.888L24.005,-86.868L20.272,-88.778L16.398,-90.387L16.405,-90.407L12.623,-91.639L12.415,-91.707L11.96,-91.818L11.421,-91.947L11.199,-92L10.635,-92.136L10.293,-92.219L9.916,-92.309L9.158,-92.492L8.337,-92.69L8.199,-92.711L4.191,-93.348L4.188,-93.326L0.007,-93.657L0.007,-93.678L-4.188,-93.678L-8.372,-93.348L-12.517,-92.69L-12.514,-92.668L-16.589,-91.687L-20.579,-90.387L-24.453,-88.778L-24.46,-88.797L-28.196,-86.888L-31.771,-84.689L-35.162,-82.217L-38.348,-79.486L-41.309,-76.512L-44.027,-73.315L-46.484,-69.913L-46.466,-69.902L-48.648,-66.319L-50.541,-62.575L-50.562,-62.585L-52.156,-58.703L-52.135,-58.695L-53.418,-54.701L-54.38,-50.619L-54.401,-50.623L-55.043,-46.476L-55.021,-46.474L-55.335,-42.291L-55.314,-38.096L-54.969,-33.916L-54.292,-29.776L-53.294,-25.702L-51.976,-21.72L-51.997,-21.712L-50.369,-17.844L-48.444,-14.116L-48.426,-14.126L-46.213,-10.562L-43.727,-7.183L-40.981,-4.011L-37.999,-1.064L-36.579,0.186L-36.487,0.186L-37.886,-1.185L-36.371,0.186L-28.193,0.186L-30.163,-1.108L-28.168,0.186L-28.119,0.186L-30.125,-1.16L-33.223,-3.568L-36.113,-6.219L-38.782,-9.096L-41.204,-12.181L-43.368,-15.452L-45.261,-18.888L-46.868,-22.468L-48.18,-26.165L-49.184,-29.957L-49.879,-33.818L-50.259,-37.722L-50.319,-41.645L-50.058,-45.559L-49.484,-49.44L-48.595,-53.261L-47.397,-56.996L-45.899,-60.623L-44.115,-64.116L-42.05,-67.451L-39.723,-70.609L-37.146,-73.567L-34.337,-76.305L-31.312,-78.807L-28.098,-81.054L-24.71,-83.033L-21.174,-84.73L-17.512,-86.134L-13.747,-87.236L-9.905,-88.028L-6.01,-88.505L-2.09,-88.665L1.829,-88.505L5.724,-88.028L9.567,-87.236L13.332,-86.134L13.325,-86.114L14.735,-85.573L14.935,-85.495L15.119,-85.425L16.049,-85.069L16.98,-84.713L16.984,-84.71L17.354,-84.534L20.519,-83.014L20.53,-83.033L20.519,-83.014L23.906,-81.036L23.917,-81.054L27.132,-78.807L30.156,-76.305L30.142,-76.289L31.186,-75.269L31.471,-74.992L31.961,-74.515L32.254,-74.229L32.525,-73.967L32.948,-73.552L33.265,-73.189L33.724,-72.661L34.073,-72.26L34.777,-71.454L34.795,-71.432L34.986,-71.213L35.052,-71.139L35.077,-71.108L35.313,-70.84L35.454,-70.677L35.525,-70.596L35.542,-70.609L37.869,-67.451L39.935,-64.116L41.718,-60.623L43.216,-56.996L44.415,-53.261L45.303,-49.44L45.282,-49.436L45.857,-45.557L45.878,-45.559L46.139,-41.645L46.117,-41.645L46.089,-40.006L46.089,-39.83L46.082,-39.504L46.065,-38.354L46.057,-37.724L45.973,-36.863L45.917,-36.3L45.909,-36.224L45.744,-34.492L45.698,-34.032L45.677,-33.821L45.652,-33.68L45.539,-33.051L45.504,-32.86L45.363,-32.066L45.36,-32.053L44.982,-29.962L44.168,-26.889L43.978,-26.171L43.964,-26.134L42.667,-22.476L42.688,-22.468L41.08,-18.888L39.187,-15.452L37.023,-12.181L34.601,-9.096L31.933,-6.219L29.042,-3.568L25.944,-1.16L25.983,-1.108L24.224,0.186L32.19,0.186L33.773,-1.111L32.338,0.186L32.419,0.186L33.833,-1.048L33.128,-0.443L33.096,-0.416L33.089,-0.408L32.871,-0.222L32.797,-0.157L32.462,0.13L33.819,-1.064L33.833,-1.048L36.818,-3.996L39.564,-7.17L42.05,-10.55L44.263,-14.116L46.188,-17.844L47.439,-20.813L47.573,-21.133L47.577,-21.142Z" style="fill:rgb(221,221,221);fill-rule:nonzero;"/>
                </g>
                <g transform="matrix(1,0,0,1,1528.35,1251.69)">
                    <path d="M0,1.636L-9.366,0.841L-10.843,0.72L-11.95,0.941L-12.063,0.918L-14.195,0.494L-15.122,0.309L-15.172,0.278L-15.299,0.249L-15.277,0.205L-16.656,-0.716L-16.659,-0.706L-16.793,-0.386L-15.44,0.566L-12.147,1.298L-9.405,1.523L0.363,2.352L0.183,1.997L0,1.636Z" style="fill:rgb(221,221,221);fill-rule:nonzero;"/>
                </g>
                <g transform="matrix(1,0,0,1,1508.79,1244.2)">
                    <path d="M0,-3.11L-0.049,-3.034L-0.335,-1.6L-0.645,-0.036L-0.666,0.062L-0.68,0.139L-0.504,1.027L0.31,-2.046L0.687,-4.137L0.049,-3.183L0,-3.11Z" style="fill:rgb(221,221,221);fill-rule:nonzero;"/>
                </g>
                <g transform="matrix(1,0,0,1,1436.02,1272.93)">
                    <rect x="-9.777" y="-0.635" width="12.688" height="0.635" style="fill:rgb(221,221,221);fill-rule:nonzero;"/>
                </g>
                <g transform="matrix(1,0,0,1,1515.11,1236.15)">
                    <path d="M0,-0.182L-0.023,0.153L1.29,-0.109L1.412,-0.086L1.466,-0.094L1.47,-0.073L3.132,0.256L3.226,-0.041L3.339,-0.381L1.456,-0.438L0,-0.182Z" style="fill:rgb(221,221,221);fill-rule:nonzero;"/>
                </g>
                <g transform="matrix(1,0,0,1,1516.78,1250.3)">
                    <path d="M0,-6.717L0.458,-6.173L0.398,-5.464L-0.144,-5.005L-0.857,-5.066L-1.315,-5.611L-1.251,-6.32L-0.709,-6.778L0,-6.717ZM-1.149,-7.289L-1.22,-7.275L-1.23,-7.273L-1.71,-7.183L-2.08,-6.12L-2.108,-6.047L-2.129,-5.987L-2.203,-5.768L-1.227,-4.632L-0.86,-4.466L-0.811,-4.444L-0.797,-4.438L-0.772,-4.427L-0.564,-4.334L-0.462,-4.287L2.813,-2.817L4.561,-2.03L6.253,-1.27L10.402,0.593L10.698,0.726L10.741,0.744L10.741,-0.438L15.288,-0.438L15.231,-0.512L15.143,-0.551L14.928,-0.648L13.177,-1.435L10.818,-2.495L9.845,-2.933L7.508,-3.982L5.798,-4.751L4.107,-5.51L3.828,-5.636L3.472,-5.796L1.999,-6.458L1.294,-6.773L0.691,-7.046L0.423,-7.166L-0.081,-7.392L-0.236,-7.461L-1.149,-7.289Z" style="fill:rgb(221,221,221);fill-rule:nonzero;"/>
                </g>
                <g transform="matrix(0.156492,0.987679,0.987679,-0.156492,1530.47,1244.79)">
                    <path d="M-0.961,-3.301L2.528,-3.301L3.945,-1.137L-0.699,-1.138L-0.961,-3.301Z" style="fill:rgb(221,221,221);fill-rule:nonzero;"/>
                </g>
                <g transform="matrix(1,0,0,1,1515.31,1236.35)">
                    <path d="M0,2.782L0.219,3.084L1.174,1.578L2.358,1.814L2.929,0.063L1.269,-0.267L1.209,-0.279L1.089,-0.302L-0.226,-0.041L-0.384,1.852L0.726,1.634L0,2.782Z" style="fill:rgb(221,221,221);fill-rule:nonzero;"/>
                </g>
                <g transform="matrix(1,0,0,1,1531.48,1246.64)">
                    <path d="M0,0.584L-0.042,0.316L-0.479,-2.427L-2.245,-2.362L-1.519,2.224L0.233,3.011L0.377,2.964L0,0.584Z" style="fill:rgb(221,221,221);fill-rule:nonzero;"/>
                </g>
                <g transform="matrix(1,0,0,1,1515.43,1245.97)">
                    <path d="M0,0.181L0.891,0.047L0.789,0L0,0.181Z" style="fill:rgb(221,221,221);fill-rule:nonzero;"/>
                </g>
                <g transform="matrix(1,0,0,1,1516.76,1246.09)">
                    <path d="M0,4.601L1.371,2.434L3.874,2.997L2.097,4.184L0,4.601ZM5.499,4.109L6.278,2.943L4.586,2.183L4.23,2.72L1.724,2.157L2.816,1.426L2.838,1.397L-0.437,-0.074L-1.329,0.059L-2.958,-1.937L-3.515,0.328L-3.765,1.092L-3.542,1.426L-2.083,2.401L-0.363,2.743L0.927,2.487L-0.448,4.657L-2.824,4.184L-4.431,3.108L-4.829,4.312L-5.069,4.881L-3.691,5.802L-3.61,5.858L-3.585,5.875L-3.536,5.906L-2.609,6.091L-0.476,6.515L-0.363,6.538L0.744,6.317L2.809,5.906L5.499,4.109Z" style="fill:rgb(221,221,221);fill-rule:nonzero;"/>
                </g>
                <g transform="matrix(1,0,0,1,1524.31,1246.3)">
                    <path d="M0,-1.771L-1.548,-1.651L-1.727,-0.746L-0.018,0.023L0.345,-1.794L0,-1.771Z" style="fill:rgb(221,221,221);fill-rule:nonzero;"/>
                </g>
                <g transform="matrix(1,0,0,1,1515.53,1244.84)">
                    <path d="M0,-0.857L-0.063,-0.148L0.395,0.397L1.107,0.458L1.65,-0.001L1.71,-0.71L1.251,-1.254L0.543,-1.315L0,-0.857Z" style="fill:rgb(221,221,221);fill-rule:nonzero;"/>
                </g>
                <g transform="matrix(1,0,0,1,1474.28,1179.98)">
                    <path d="M0,-1.125L0.539,-0.481L0.486,-0.247L0.465,-0.003L1.029,0.132L1.075,0.062L1.202,-0.13L1.297,-0.271L1.329,-0.319L-0.095,-1.257L0,-1.125Z" style="fill:rgb(221,221,221);fill-rule:nonzero;"/>
                </g>
                <g transform="matrix(1,0,0,1,1470.98,1175.54)">
                    <path d="M0,2.518L-0.723,1.658L-0.631,0.564L0.226,-0.122L1.343,0L2.066,0.86L1.97,1.954L1.117,2.64L0,2.518ZM1.128,2.681L1.241,2.591L1.84,2.108L2.009,1.973L2.048,1.538L2.108,0.848L1.364,-0.037L0.215,-0.163L-0.275,0.23L-0.666,0.544L-0.765,1.67L-0.398,2.108L-0.021,2.555L0.444,2.606L0.532,2.615L1.128,2.681Z" style="fill:rgb(221,221,221);fill-rule:nonzero;"/>
                </g>
                <g transform="matrix(1,0,0,1,1478.39,1187.36)">
                    <path d="M0,1.648L0.937,1.986L1.872,2.325L2.122,2.415L2.259,2.465L3.074,0.222L2.704,0.046L2.7,0.043L1.769,-0.313L0.839,-0.669L0.655,-0.739L0.455,-0.817L-0.388,1.507L-0.247,1.558L0,1.648Z" style="fill:rgb(221,221,221);fill-rule:nonzero;"/>
                </g>
                <g transform="matrix(1,0,0,1,1474.41,1179.33)">
                    <path d="M0,-0.293L0.185,-0.031L0.34,0.187L0.409,0.166L-0.13,-0.48L0,-0.293Z" style="fill:rgb(221,221,221);fill-rule:nonzero;"/>
                </g>
                <g transform="matrix(1,0,0,1,1472.45,1177.63)">
                    <path d="M0,1.792L0.821,1.99L1.579,2.173L1.956,2.263L2.298,2.346L2.319,2.102L2.323,2.064L2.333,1.939L2.302,1.891L2.147,1.671L1.964,1.411L1.833,1.224L1.738,1.092L1.421,0.639L1.135,0.236L0.582,-0.554L0.543,-0.119L0.374,0.016L-0.226,0.499L-0.339,0.589L-0.934,0.523L-1.022,0.514L-0.571,1.157L-0.137,1.771L-0.046,1.785L0,1.792Z" style="fill:rgb(221,221,221);fill-rule:nonzero;"/>
                </g>
                <g transform="matrix(1,0,0,1,1475.49,1180.33)">
                    <path d="M0,-0.482L-0.126,-0.289L0.05,-0.168L0.589,-0.037L1.045,0.074L1.252,0.141L0.096,-0.623L0,-0.482Z" style="fill:rgb(221,221,221);fill-rule:nonzero;"/>
                </g>
                <g transform="matrix(1,0,0,1,1535.59,1254.82)">
                    <path d="M0,-0.544L-0.494,-0.246L5.978,0.303L6.334,-0.006L6.694,-0.321L0.504,-0.847L0,-0.544Z" style="fill:rgb(221,221,221);fill-rule:nonzero;"/>
                </g>
                <g transform="matrix(1,0,0,1,1552.13,1252.07)">
                    <path d="M0,3.272L-0.874,3.198L-1.015,3.531L-1.152,3.86L0.085,3.965L2.58,0.65L2.637,0.398L2.735,-0.03L2.799,-0.31L2.887,-0.693L0.952,1.962L0,3.272Z" style="fill:rgb(221,221,221);fill-rule:nonzero;"/>
                </g>
                <g transform="matrix(0.587621,0.809136,0.809136,-0.587621,1516.56,1239.67)">
                    <path d="M-0.176,-0.691L1.228,-0.691L0.547,0.243L0.037,-0.228L-0.176,-0.691Z" style="fill:rgb(221,221,221);fill-rule:nonzero;"/>
                </g>
                <g transform="matrix(1,0,0,1,1557.55,1250.52)">
                    <path d="M0,-2.623L-1.086,-1.134L-1.103,-0.914L-1.135,-0.574L-1.156,-0.326L-1.184,0L0.388,-2.09L0.356,-2.44L0.346,-2.571L0.342,-2.623L0,-2.623Z" style="fill:rgb(221,221,221);fill-rule:nonzero;"/>
                </g>
                <g transform="matrix(1,0,0,1,1558.16,1248.11)">
                    <path d="M0,-0.212L0.017,0L0.176,-0.212L0,-0.212Z" style="fill:rgb(221,221,221);fill-rule:nonzero;"/>
                </g>
                <g transform="matrix(1,0,0,1,1555.34,1250.82)">
                    <path d="M0,0.353L-0.074,0.674L-0.166,1.074L-0.229,1.366L0.719,0.104L0.747,-0.197L0.768,-0.462L0.797,-0.776L0.818,-1.013L0.081,-0.003L0,0.353Z" style="fill:rgb(221,221,221);fill-rule:nonzero;"/>
                </g>
                <g transform="matrix(1,0,0,1,1520.63,1237.64)">
                    <path d="M0,4.989L-0.049,4.957L0.515,2.455L1.699,4.232L1.823,4.848L3.539,4.715L3.659,4.707L3.423,3.518L1.625,0.828L0.173,-0.143L-0.416,1.664L0.236,2.099L-0.328,4.605L-1.029,3.553L-1.54,5.132L-0.049,4.993L0,4.989Z" style="fill:rgb(221,221,221);fill-rule:nonzero;"/>
                </g>
                <g transform="matrix(1,0,0,1,1530.17,1230.59)">
                    <path d="M0,1.967L-1.392,10.768L-1.272,11.533L0.494,11.468L0.384,10.768L0.761,8.388L0.783,8.254L0.804,8.12L1.1,6.248L1.153,5.907L1.206,5.567L1.266,5.208L1.308,4.94L1.692,2.516L2.785,0.369L2.845,0.248L2.908,0.128L4.248,-2.5L4.371,-2.741L5.485,-4.929L7.187,-6.633L7.283,-6.728L7.381,-6.824L8.876,-8.32L7.639,-9.566L4.047,-5.973L0,1.967Z" style="fill:rgb(221,221,221);fill-rule:nonzero;"/>
                </g>
                <g transform="matrix(1,0,0,1,1528.08,1229.81)">
                    <path d="M0,2.069L-1.502,11.548L-1.368,12.392L0.811,12.312L0.691,11.548L2.083,2.746L6.13,-5.194L9.722,-8.786L8.196,-10.323L4.357,-6.482L0,2.069Z" style="fill:rgb(221,221,221);fill-rule:nonzero;"/>
                </g>
                <g transform="matrix(1,0,0,1,1531.32,1236.66)">
                    <path d="M0,-0.165L-0.052,0.177L5.378,0.339L3.654,-0.056L1.932,-0.448L0.052,-0.504L0,-0.165Z" style="fill:rgb(221,221,221);fill-rule:nonzero;"/>
                </g>
                <g transform="matrix(1,0,0,1,1521.23,1236.36)">
                    <path d="M0,-0.161L-0.109,0.179L5.185,0.337L5.24,-0.006L5.292,-0.346L0.109,-0.498L0,-0.161Z" style="fill:rgb(221,221,221);fill-rule:nonzero;"/>
                </g>
                <g transform="matrix(1,0,0,1,1549.94,1237.08)">
                    <path d="M0,-0.035L0.602,0.326L1.71,0.358L1.747,0.234L2.033,0.026L2.318,-0.18L2.163,-0.312L-0.604,-0.393L0,-0.035Z" style="fill:rgb(221,221,221);fill-rule:nonzero;"/>
                </g>
                <g transform="matrix(1,0,0,1,1547.86,1237.02)">
                    <path d="M0,-0.038L0.868,0.329L2.129,0.367L1.527,0.008L0.923,-0.353L-0.866,-0.405L0,-0.038Z" style="fill:rgb(221,221,221);fill-rule:nonzero;"/>
                </g>
                <g transform="matrix(1,0,0,1,1547.12,1236.62)">
                    <path d="M0.867,0.711L-0.867,-0.025L-12.471,-0.368L-10.748,0.025L-9.024,0.418L0.867,0.711Z" style="fill:rgb(221,221,221);fill-rule:nonzero;"/>
                </g>
                <g transform="matrix(-0.0814891,0.996674,0.996674,0.0814891,1466.87,1176.31)">
                    <path d="M-0.092,-0.913L0.705,-0.913L0.982,-0.008L-0.304,-0.114L-0.092,-0.913Z" style="fill:rgb(142,142,142);fill-rule:nonzero;"/>
                </g>
                <g transform="matrix(1,0,0,1,1468.63,1175.99)">
                    <rect x="-1.847" y="0" width="3" height="1.291" style="fill:rgb(142,142,142);fill-rule:nonzero;"/>
                </g>
                <g transform="matrix(-0.609971,-0.792424,-0.792424,0.609971,1474.76,1177.85)">
                    <path d="M-1.953,0.431L-0.468,0.431L0.212,0.961L-0.341,0.987L-1.953,0.431Z" style="fill:rgb(142,142,142);fill-rule:nonzero;"/>
                </g>
                <g transform="matrix(1,0,0,1,1470.77,1203.46)">
                    <path d="M0,0.138L0.828,0.437L1.653,0.736L1.763,0.776L1.995,0.861L2.08,0.891L2.15,0.916L2.274,0.581L2.418,0.181L2.031,0.04L1.685,-0.084L1.093,-0.298L0.987,-0.336L0.159,-0.637L0.141,-0.643L-0.229,-0.778L-0.497,-0.042L-0.342,0.014L-0.109,0.098L0,0.138Z" style="fill:rgb(142,142,142);fill-rule:nonzero;"/>
                </g>
                <g transform="matrix(1,0,0,1,1475.63,1202.69)">
                    <path d="M0,0.955L-0.61,0.733L-1.308,0.481L-1.643,0.36L-2.281,0.129L-2.739,-0.037L-2.894,-0.093L-3.592,-0.346L-3.641,-0.363L-4.438,-0.652L-4.459,-0.66L-4.716,-0.753L-5.076,-0.883L-5.34,-0.98L-5.626,-0.195L-5.358,-0.098L-5.094,-0.003L-4.724,0.132L-4.706,0.138L-3.877,0.439L-3.772,0.477L-3.18,0.691L-2.834,0.815L-2.447,0.956L-1.925,1.145L-1.594,1.265L-0.895,1.518L-0.282,1.74L-0.148,1.788L0.261,1.935L0.543,1.151L0.134,1.003L0,0.955Z" style="fill:rgb(142,142,142);fill-rule:nonzero;"/>
                </g>
                <g transform="matrix(1,0,0,1,1528.8,1250.16)">
                    <path d="M0,1.321L-1.047,1.321L-1.047,0.001L0,0.001L0,1.321ZM3.455,-0.008L4.512,-0.008L4.512,1.33L3.455,1.33L3.455,-0.008ZM-1.272,1.616L4.734,1.616L4.734,-0.295L-1.272,-0.295L-1.272,1.616Z" style="fill:rgb(142,142,142);fill-rule:nonzero;"/>
                </g>
                <g transform="matrix(1,0,0,1,0,-5856.62)">
                    <rect x="1527.75" y="7106.78" width="0.166" height="1.319" style="fill:rgb(142,142,142);"/>
                </g>
                <g transform="matrix(1,0,0,1,0,-5856.62)">
                    <rect x="1533.15" y="7106.77" width="0.161" height="1.336" style="fill:rgb(142,142,142);"/>
                </g>
                <g transform="matrix(1,0,0,1,0,-5856.62)">
                    <rect x="1527.92" y="7106.78" width="0.881" height="1.319" style="fill:rgb(142,142,142);"/>
                </g>
                <g transform="matrix(1,0,0,1,0,-5856.62)">
                    <rect x="1532.25" y="7106.77" width="0.896" height="1.336" style="fill:rgb(142,142,142);"/>
                </g>
                <g transform="matrix(1,0,0,1,1587.28,1251.11)">
                    <path d="M0,-19.516L-4.484,-28.319L-11.47,-35.305L-20.272,-39.79L-30.029,-41.336L-39.79,-39.79L-48.592,-35.305L-50.104,-33.792L-49.473,-33.159L-48.06,-34.573L-39.508,-38.93L-30.029,-40.432L-20.551,-38.93L-12.003,-34.573L-5.217,-27.787L-0.86,-19.237L0.641,-9.758L-0.86,-0.279L-5.217,8.271L-12.003,15.057L-20.551,19.414L-30.029,20.915L-39.508,19.414L-48.06,15.057L-54.845,8.271L-58.723,0.663L-59.724,0.663L-58.938,2.208L-58.755,2.569L-58.575,2.924L-55.578,8.803L-48.592,15.789L-39.79,20.274L-30.029,21.82L-20.272,20.274L-11.47,15.789L-4.484,8.803L0,0L1.548,-9.758L0,-19.516Z" style="fill:rgb(142,142,142);fill-rule:nonzero;"/>
                </g>
                <g transform="matrix(1,0,0,1,1527.22,1251.49)">
                    <path d="M0,-0.376L0.304,0.218L0.304,-0.443L0.262,-0.459L-0.036,-0.594L0,-0.376Z" style="fill:rgb(142,142,142);fill-rule:nonzero;"/>
                </g>
                <g transform="matrix(1,0,0,1,1471.74,1212.26)">
                    <path d="M0,0.09L-0.652,-0.147L-0.987,-0.267L-1.308,-0.384L-1.579,-0.482L-1.717,-0.097L-1.445,0.001L-0.793,0.237L-0.138,0.474L0.134,0.572L0.271,0.188L0.046,0.106L0,0.09Z" style="fill:rgb(142,142,142);fill-rule:nonzero;"/>
                </g>
                <g transform="matrix(1,0,0,1,1471.96,1211.08)">
                    <path d="M0,0.667L-0.656,0.43L-0.987,0.31L-1.308,0.193L-1.579,0.095L-1.664,0.065L-2.006,-0.059L-2.242,-0.144L-2.834,-0.358L-2.94,-0.396L-3.659,-0.658L-3.786,-0.703L-4.005,-0.782L-4.42,-0.933L-4.688,-1.03L-4.907,-0.433L-4.639,-0.337L-4.219,-0.185L-4.001,-0.106L-3.878,-0.061L-3.155,0.2L-3.049,0.238L-2.457,0.453L-2.224,0.538L-1.882,0.662L-1.798,0.692L-1.526,0.79L-1.206,0.906L-0.871,1.027L-0.219,1.264L-0.173,1.28L0.053,1.362L0.571,1.549L0.98,1.697L1.195,1.101L0.786,0.952L0.271,0.765L0.042,0.683L0,0.667Z" style="fill:rgb(142,142,142);fill-rule:nonzero;"/>
                </g>
                <g transform="matrix(1,0,0,1,1478.06,1189.77)">
                    <path d="M0,-0.62L1.188,-0.192L2.372,0.237L2.488,0.28L2.862,0.415L2.947,0.178L2.594,0.05L2.457,0L2.207,-0.09L1.272,-0.429L0.335,-0.767L0.088,-0.857L-0.053,-0.908L-0.402,-1.035L-0.49,-0.798L-0.116,-0.663L0,-0.62Z" style="fill:rgb(142,142,142);fill-rule:nonzero;"/>
                </g>
                <g transform="matrix(1,0,0,1,1535.58,1183.8)">
                    <path d="M0,0.66L0.592,0.763L1.093,0.848L2.418,1.346L4.879,2.27L6.328,2.524L7.473,2.252L12.693,-0.756L12.693,-1.293L11.692,-1.709L7.67,-1.864L7.036,-1.843L6.091,-1.811L5.132,-1.779L3.236,-1.715L1.868,-1.67L-0.391,-1.594L-3.215,-1.5L-3.218,-1.5L-6.764,-1.381L-6.789,-1.38L-7.846,-1.344L-9.669,-1.283L-12.08,-0.461L-12.707,0.027L-12.993,0.559L-12.884,0.779L-12.274,0.86L-11.315,0.988L-10.261,1.128L-9.292,1.257L-9.161,1.139L-8.055,0.16L-2.897,0.16L-2.732,0.189L-0.391,0.593L-0.127,0.639L0,0.66Z" style="fill:rgb(142,142,142);fill-rule:nonzero;"/>
                </g>
                <g transform="matrix(1,0,0,1,1558.09,1247.78)">
                    <path d="M0,-3.865L-0.278,-3.821L-0.25,-3.52L0.589,0.113L1.29,0.113L1.844,-0.289L0.377,-3.719L0.222,-3.978L0,-3.865Z" style="fill:rgb(142,142,142);fill-rule:nonzero;"/>
                </g>
                <g transform="matrix(1,0,0,1,1558.31,1244.04)">
                    <path d="M0,-0.239L0.155,0.019L0.036,-0.258L0,-0.239Z" style="fill:rgb(142,142,142);fill-rule:nonzero;"/>
                </g>
                <g transform="matrix(1,0,0,1,1560.16,1245.76)">
                    <path d="M0,1.575L0.189,1.436L-0.673,0L0,1.575Z" style="fill:rgb(142,142,142);fill-rule:nonzero;"/>
                </g>
                <g transform="matrix(1,0,0,1,1559.01,1243.53)">
                    <path d="M0,-0.17L0.229,0.029L0.029,-0.199L0,-0.17Z" style="fill:rgb(142,142,142);fill-rule:nonzero;"/>
                </g>
                <g transform="matrix(1,0,0,1,1558.84,1246.86)">
                    <path d="M0,-3.322L-0.25,-3.194L-0.13,-2.916L1.727,0.176L2.778,-0.586L0.405,-3.3L0.176,-3.498L0,-3.322Z" style="fill:rgb(142,142,142);fill-rule:nonzero;"/>
                </g>
                <g transform="matrix(1,0,0,1,1562.02,1244.99)">
                    <path d="M0,0.983L-1.29,-0.138L-0.19,1.121L0,0.983Z" style="fill:rgb(142,142,142);fill-rule:nonzero;"/>
                </g>
                <g transform="matrix(1,0,0,1,1559.95,1241.37)">
                    <path d="M0,-0.019L-0.042,0.259L0.25,0.326L3.966,0.649L4.089,0.266L4.17,0.022L4.184,-0.019L3.973,-0.668L0.257,-0.333L-0.039,-0.265L0,-0.019Z" style="fill:rgb(142,142,142);fill-rule:nonzero;"/>
                </g>
                <g transform="matrix(1,0,0,1,1559.9,1241.08)">
                    <path d="M0,-0.015L0.006,0.027L0.302,-0.042L0,-0.015Z" style="fill:rgb(142,142,142);fill-rule:nonzero;"/>
                </g>
                <g transform="matrix(1,0,0,1,1562.13,1240.22)">
                    <path d="M0,0.377L1.701,0.222L1.632,0L0,0.377Z" style="fill:rgb(142,142,142);fill-rule:nonzero;"/>
                </g>
                <g transform="matrix(1,0,0,1,1559.82,1239)">
                    <path d="M0,1.518L0.042,1.796L0.342,1.768L3.86,0.955L3.458,-0.278L0.144,1.14L-0.113,1.296L0,1.518Z" style="fill:rgb(142,142,142);fill-rule:nonzero;"/>
                </g>
                <g transform="matrix(1,0,0,1,1559.68,1240.18)">
                    <path d="M0,0.084L0.021,0.12L0.279,-0.036L0,0.084Z" style="fill:rgb(142,142,142);fill-rule:nonzero;"/>
                </g>
                <g transform="matrix(1,0,0,1,1561.65,1238.24)">
                    <path d="M0,0.883L1.54,0.224L1.466,0L0,0.883Z" style="fill:rgb(142,142,142);fill-rule:nonzero;"/>
                </g>
                <g transform="matrix(1,0,0,1,1559.23,1239.4)">
                    <path d="M0,0.17L0.027,0.199L0.224,-0.029L0,0.17Z" style="fill:rgb(142,142,142);fill-rule:nonzero;"/>
                </g>
                <g transform="matrix(1,0,0,1,1559.43,1237.16)">
                    <path d="M0,2.61L0.127,2.86L0.406,2.742L3.603,0.82L3.384,0.151L2.831,-0.25L0.021,2.205L-0.176,2.434L0,2.61Z" style="fill:rgb(142,142,142);fill-rule:nonzero;"/>
                </g>
                <g transform="matrix(-0.99933,0.0365888,0.0365888,0.99933,1551.31,1243.96)">
                    <path d="M-1.089,-0.493L0.223,-0.493L0.077,0.016L-1.321,-0.523L-1.089,-0.493Z" style="fill:rgb(142,142,142);fill-rule:nonzero;"/>
                </g>
                <g transform="matrix(1,0,0,1,1557.8,1238.46)">
                    <path d="M0,0.284L0.044,0.293L0.067,-0.009L0,0.284Z" style="fill:rgb(142,142,142);fill-rule:nonzero;"/>
                </g>
                <g transform="matrix(1,0,0,1,1558.09,1234.94)">
                    <path d="M0,3.851L0.25,3.978L0.405,3.719L1.861,0.286L1.29,-0.127L0.61,-0.127L-0.222,3.511L-0.247,3.812L0,3.851Z" style="fill:rgb(142,142,142);fill-rule:nonzero;"/>
                </g>
                <g transform="matrix(1,0,0,1,1558.18,1236.48)">
                    <path d="M0,-1.669L-0.143,0L0.237,-1.669L0,-1.669Z" style="fill:rgb(142,142,142);fill-rule:nonzero;"/>
                </g>
                <g transform="matrix(1,0,0,1,1556.11,1236.48)">
                    <path d="M0,-1.666L0.386,0L0.233,-1.666L0,-1.666Z" style="fill:rgb(142,142,142);fill-rule:nonzero;"/>
                </g>
                <g transform="matrix(1,0,0,1,1556.68,1234.81)">
                    <path d="M0,3.672L-0.004,3.633L-0.846,0L-1.547,0L-1.879,0.241L-1.184,0.94L-1.41,1.164L-0.518,3.151L0,3.672Z" style="fill:rgb(142,142,142);fill-rule:nonzero;"/>
                </g>
                <g transform="matrix(1,0,0,1,1559.55,1242.8)">
                    <path d="M0,-0.084L0.279,0.036L0.021,-0.12L0,-0.084Z" style="fill:rgb(142,142,142);fill-rule:nonzero;"/>
                </g>
                <g transform="matrix(1,0,0,1,1559.43,1245.59)">
                    <path d="M0,-2.65L-0.197,-2.451L0,-2.224L2.817,0.222L3.271,-0.109L3.384,-0.192L3.596,-0.841L0.391,-2.754L0.113,-2.872L0,-2.65Z" style="fill:rgb(142,142,142);fill-rule:nonzero;"/>
                </g>
                <g transform="matrix(1,0,0,1,1563.11,1243.61)">
                    <path d="M0,0.879L0.076,0.655L-1.468,0L0,0.879Z" style="fill:rgb(142,142,142);fill-rule:nonzero;"/>
                </g>
                <g transform="matrix(1,0,0,1,1559.82,1243.76)">
                    <path d="M0,-1.568L-0.13,-1.318L0.13,-1.163L3.455,0.246L3.853,-0.987L0.338,-1.788L0.039,-1.814L0,-1.568Z" style="fill:rgb(142,142,142);fill-rule:nonzero;"/>
                </g>
                <g transform="matrix(1,0,0,1,1559.86,1241.93)">
                    <path d="M0,0.017L0.3,0.042L0.006,-0.025L0,0.017Z" style="fill:rgb(142,142,142);fill-rule:nonzero;"/>
                </g>
                <g transform="matrix(1,0,0,1,1563.75,1242.14)">
                    <path d="M0,0.372L0.076,0.149L-1.632,0L0,0.372Z" style="fill:rgb(142,142,142);fill-rule:nonzero;"/>
                </g>
                <g transform="matrix(1,0,0,1,1561.85,1237.88)">
                    <path d="M0,-1.266L-1.1,0L0.19,-1.127L0,-1.266Z" style="fill:rgb(142,142,142);fill-rule:nonzero;"/>
                </g>
                <g transform="matrix(1,0,0,1,1558.58,1238.8)">
                    <path d="M0,0.241L0.038,0.26L0.155,-0.019L0,0.241Z" style="fill:rgb(142,142,142);fill-rule:nonzero;"/>
                </g>
                <g transform="matrix(1,0,0,1,1558.84,1235.89)">
                    <path d="M0,3.287L0.197,3.486L0.427,3.287L2.792,0.563L1.745,-0.199L-0.106,2.896L-0.222,3.174L0,3.287Z" style="fill:rgb(142,142,142);fill-rule:nonzero;"/>
                </g>
                <g transform="matrix(1,0,0,1,1559.5,1235.39)">
                    <path d="M0,1.573L0.856,0.138L0.665,0L0,1.573Z" style="fill:rgb(142,142,142);fill-rule:nonzero;"/>
                </g>
                <g transform="matrix(1,0,0,1,1526.39,1247.78)">
                    <path d="M0,-3.398L-0.236,-3.382L0.236,-0.414L1.209,0.024L0.663,-3.422L0,-3.398Z" style="fill:rgb(142,142,142);fill-rule:nonzero;"/>
                </g>
                <g transform="matrix(1,0,0,1,1475.94,1266.17)">
                    <path d="M0,-49.63L6.786,-42.844L11.142,-34.294L12.644,-24.815L11.142,-15.336L6.786,-6.786L0,0L-8.552,4.357L-18.03,5.858L-27.509,4.357L-36.057,0L-42.843,-6.786L-47.2,-15.336L-48.701,-24.815L-47.2,-34.294L-42.843,-42.844L-36.057,-49.63L-27.509,-53.987L-18.03,-55.488L-8.654,-54.004L-8.344,-54.859L-18.03,-56.393L-27.787,-54.847L-36.589,-50.362L-43.576,-43.376L-48.06,-34.573L-49.607,-24.815L-48.06,-15.057L-43.576,-6.254L-36.589,0.732L-27.787,5.217L-18.03,6.763L-8.27,5.217L0.532,0.732L7.519,-6.254L12.003,-15.057L13.55,-24.815L12.003,-34.573L7.519,-43.376L0.532,-50.362L-6.105,-53.743L-6.412,-52.897L0,-49.63Z" style="fill:rgb(142,142,142);fill-rule:nonzero;"/>
                </g>
                <g transform="matrix(0.999335,0.0364499,0.0364499,-0.999335,1553.89,1249.02)">
                    <path d="M0.015,-0.01L0.344,-0.01L0.562,0.193L0.331,0.814L0.015,-0.01Z" style="fill:rgb(142,142,142);fill-rule:nonzero;"/>
                </g>
                <g transform="matrix(1,0,0,1,1554.25,1247.52)">
                    <path d="M0,0.696L0.208,0.511L0.896,0.736L1.129,0.532L1.145,0.373L0.881,0.373L0.31,-0.04L0,0.696Z" style="fill:rgb(142,142,142);fill-rule:nonzero;"/>
                </g>
                <g transform="matrix(1,0,0,1,1556.42,1247.77)">
                    <path d="M0,-3.85L-0.25,-3.978L-0.405,-3.718L-1.861,-0.286L-1.29,0.128L-0.606,0.128L0.222,-3.51L0.247,-3.811L0,-3.85Z" style="fill:rgb(142,142,142);fill-rule:nonzero;"/>
                </g>
                <g transform="matrix(1,0,0,1,1556.64,1243.96)">
                    <path d="M0,0.302L0.067,0.006L0.025,0L0,0.302Z" style="fill:rgb(142,142,142);fill-rule:nonzero;"/>
                </g>
                <g transform="matrix(0.567188,0.823588,0.823588,-0.567188,1553.22,1247.89)">
                    <path d="M0.57,-0.208L1.084,-0.208L0.16,1.246L-0.062,1.167L0.57,-0.208Z" style="fill:rgb(142,142,142);fill-rule:nonzero;"/>
                </g>
                <g transform="matrix(1,0,0,1,1554.14,1245.88)">
                    <path d="M0,1.297L0.191,1.435L0.858,-0.138L0,1.297Z" style="fill:rgb(142,142,142);fill-rule:nonzero;"/>
                </g>
                <g transform="matrix(-0.0878938,0.99613,0.99613,0.0878938,1547.99,1251.3)">
                    <path d="M0.175,-0.112L0.345,-0.112L-0.035,0.163L-0.06,0.069L0.175,-0.112Z" style="fill:rgb(142,142,142);fill-rule:nonzero;"/>
                </g>
                <g transform="matrix(-0.680874,0.7324,0.7324,0.680874,1549.05,1250.43)">
                    <rect x="-0.19" y="-0.165" width="0.302" height="0.054" style="fill:rgb(142,142,142);"/>
                </g>
                <g transform="matrix(1,0,0,1,1552.66,1244.83)">
                    <path d="M0,1.266L1.096,0L-0.19,1.128L0,1.266Z" style="fill:rgb(142,142,142);fill-rule:nonzero;"/>
                </g>
                <g transform="matrix(1,0,0,1,1555.05,1243.11)">
                    <path d="M0,0.229L0.227,0.03L0.197,0L0,0.229Z" style="fill:rgb(142,142,142);fill-rule:nonzero;"/>
                </g>
                <g transform="matrix(1,0,0,1,1551.59,1243.82)">
                    <path d="M0,1.271L0.099,1.576L0.652,1.978L3.462,-0.478L3.659,-0.706L2.637,-0.707L2.538,-0.689L-0.116,0.908L0,1.271Z" style="fill:rgb(142,142,142);fill-rule:nonzero;"/>
                </g>
                <g transform="matrix(1,0,0,1,1556.09,1246.23)">
                    <path d="M0,1.669L0.237,1.669L0.382,0L0,1.669Z" style="fill:rgb(142,142,142);fill-rule:nonzero;"/>
                </g>
                <g transform="matrix(1,0,0,1,1527.22,1229.5)">
                    <path d="M0,2.097L-0.701,6.51L-0.754,6.85L-0.807,7.191L-1.547,11.855L-1.406,12.746L-0.976,12.717L-0.508,12.7L-0.641,11.855L0.86,2.376L5.217,-6.174L9.056,-10.015L8.428,-10.649L4.484,-6.706L0,2.097Z" style="fill:rgb(142,142,142);fill-rule:nonzero;"/>
                </g>
                <g transform="matrix(1,0,0,1,1554.3,1241.6)">
                    <path d="M0,0.069L0.3,0.042L0.292,0L0,0.069Z" style="fill:rgb(142,142,142);fill-rule:nonzero;"/>
                </g>
                <g transform="matrix(1,0,0,1,1554.3,1240.82)">
                    <path d="M0,0.852L0.293,0.784L0.254,0.538L0.3,0.26L0.003,0.193L-3.712,-0.13L-3.92,0.515L-2.002,0.444L-1.992,0.762L-1.442,0.982L0,0.852Z" style="fill:rgb(142,142,142);fill-rule:nonzero;"/>
                </g>
                <g transform="matrix(1,0,0,1,1552.67,1237.86)">
                    <path d="M0,-1.259L-0.19,-1.121L1.1,0L0,-1.259Z" style="fill:rgb(142,142,142);fill-rule:nonzero;"/>
                </g>
                <g transform="matrix(1,0,0,1,1551.32,1238.88)">
                    <path d="M0,-0.431L1.544,0.223L0.073,-0.654L0,-0.431Z" style="fill:rgb(142,142,142);fill-rule:nonzero;"/>
                </g>
                <g transform="matrix(1,0,0,1,1554.65,1240.74)">
                    <path d="M0,0.067L0.006,0.025L-0.296,0L0,0.067Z" style="fill:rgb(142,142,142);fill-rule:nonzero;"/>
                </g>
                <g transform="matrix(1,0,0,1,1554.69,1238.95)">
                    <path d="M0,1.568L0.127,1.317L-0.134,1.162L-3.455,-0.246L-3.856,0.987L-0.342,1.788L-0.039,1.814L0,1.568Z" style="fill:rgb(142,142,142);fill-rule:nonzero;"/>
                </g>
                <g transform="matrix(1,0,0,1,1555.46,1239.15)">
                    <path d="M0,0.229L0.027,0.2L-0.197,0L0,0.229Z" style="fill:rgb(142,142,142);fill-rule:nonzero;"/>
                </g>
                <g transform="matrix(1,0,0,1,1555.27,1236.55)">
                    <path d="M0,2.608L0.226,2.806L0.402,2.629L0.596,2.532L0.434,2.049L0.427,2.045L-1.318,0.74L-2.249,-0.198L-2.376,-0.106L0,2.608Z" style="fill:rgb(142,142,142);fill-rule:nonzero;"/>
                </g>
                <g transform="matrix(1,0,0,1,1551.32,1243.81)">
                    <path d="M0,0.434L0.071,0.659L1.537,-0.225L0,0.434Z" style="fill:rgb(142,142,142);fill-rule:nonzero;"/>
                </g>
                <g transform="matrix(1,0,0,1,1551.97,1239.79)">
                    <path d="M0,-2.683L-0.286,-2.475L-0.324,-2.35L-0.497,-1.825L2.707,0.088L2.986,0.206L3.099,-0.016L3.299,-0.216L3.099,-0.443L0.286,-2.889L0,-2.683Z" style="fill:rgb(142,142,142);fill-rule:nonzero;"/>
                </g>
                <g transform="matrix(1,0,0,1,1554.94,1239.88)">
                    <path d="M0,0.153L0.019,0.117L-0.26,0L0,0.153Z" style="fill:rgb(142,142,142);fill-rule:nonzero;"/>
                </g>
                <g transform="matrix(1,0,0,1,1550.68,1240.35)">
                    <path d="M0,0.078L1.703,0.225L0.071,-0.147L0,0.078Z" style="fill:rgb(142,142,142);fill-rule:nonzero;"/>
                </g>
                <g transform="matrix(1,0,0,1,1557.25,1234.86)">
                    <path d="M0,3.802L0.275,3.846L0.342,3.552L0.656,-0.044L-0.642,-0.044L-0.317,3.547L-0.247,3.841L0,3.802Z" style="fill:rgb(142,142,142);fill-rule:nonzero;"/>
                </g>
                <g transform="matrix(1,0,0,1,1556.97,1238.41)">
                    <path d="M0,0.3L0.042,0.294L-0.029,0L0,0.3Z" style="fill:rgb(142,142,142);fill-rule:nonzero;"/>
                </g>
                <g transform="matrix(1,0,0,1,1554.35,1242.32)">
                    <path d="M0,-0.386L-0.726,-0.219L-0.12,0.025L0.311,-0.34L0.3,-0.411L0,-0.386Z" style="fill:rgb(142,142,142);fill-rule:nonzero;"/>
                </g>
                <g transform="matrix(1,0,0,1,1558.16,1246.23)">
                    <path d="M0,1.666L0.233,1.666L-0.151,0L0,1.666Z" style="fill:rgb(142,142,142);fill-rule:nonzero;"/>
                </g>
                <g transform="matrix(1,0,0,1,1499.6,1237.82)">
                    <path d="M0,-0.188L0.303,-1.05L-1.156,-1.05L-1.156,0.862L0.804,0.862L0.349,0.266L0,-0.188Z" style="fill:rgb(142,142,142);fill-rule:nonzero;"/>
                </g>
                <g transform="matrix(1,0,0,1,1557.5,1244.3)">
                    <path d="M0,-0.29L0.071,0.006L0.044,-0.296L0,-0.29Z" style="fill:rgb(142,142,142);fill-rule:nonzero;"/>
                </g>
                <g transform="matrix(1,0,0,1,1557.25,1247.85)">
                    <path d="M0,-3.802L-0.278,-3.846L-0.345,-3.552L-0.659,0.044L0.638,0.044L0.314,-3.546L0.243,-3.841L0,-3.802Z" style="fill:rgb(142,142,142);fill-rule:nonzero;"/>
                </g>
                <g transform="matrix(1,0,0,1,1555.67,1246.82)">
                    <path d="M0,-3.288L-0.198,-3.487L-0.427,-3.288L-2.792,-0.563L-1.745,0.199L0.106,-2.896L0.222,-3.175L0,-3.288Z" style="fill:rgb(142,142,142);fill-rule:nonzero;"/>
                </g>
                <g transform="matrix(1,0,0,1,1555.77,1243.65)">
                    <path d="M0,0.279L0.155,0.019L0.115,0L0,0.279Z" style="fill:rgb(142,142,142);fill-rule:nonzero;"/>
                </g>
                <g transform="matrix(1,0,0,1,1552.79,1248.34)">
                    <path d="M0,-1.987L0.617,-1.261L-0.074,-0.444L-0.074,0.094L0.286,0.098L1.131,-1.322L0.085,-2.085L0,-1.987Z" style="fill:rgb(142,142,142);fill-rule:nonzero;"/>
                </g>
                <g transform="matrix(1,0,0,1,1548.26,1249.9)">
                    <path d="M0,3.006L2.52,1.618L2.52,0L2.2,0.052L2.037,0.484L1.392,0.631L1.167,0.334L0.712,0.858L0.74,0.97L0.215,1.502L0.166,1.484L-0.328,2.054L0,2.305L0,3.006Z" style="fill:rgb(142,142,142);fill-rule:nonzero;"/>
                </g>
                <g transform="matrix(1,0,0,1,1503.31,1237.28)">
                    <path d="M0,-0.512L1.141,0L1.141,-0.512L0,-0.512Z" style="fill:rgb(142,142,142);fill-rule:nonzero;"/>
                </g>
                <g transform="matrix(1,0,0,1,1472.95,1176.1)">
                    <path d="M0,1.389L0.095,0.296L-0.627,-0.565L-1.745,-0.687L-2.601,-0L-2.693,1.093L-1.97,1.953L-0.853,2.076L0,1.389Z" style="fill:rgb(142,142,142);fill-rule:nonzero;"/>
                </g>
            </g>
        </g>
    </g>
</svg>
