<?xml version="1.0" encoding="UTF-8" standalone="no"?>
<!DOCTYPE svg PUBLIC "-//W3C//DTD SVG 1.1//EN" "http://www.w3.org/Graphics/SVG/1.1/DTD/svg11.dtd">
<svg width="100%" height="100%" viewBox="0 0 80 120" version="1.1" xmlns="http://www.w3.org/2000/svg" xmlns:xlink="http://www.w3.org/1999/xlink" xml:space="preserve" xmlns:serif="http://www.serif.com/" style="fill-rule:evenodd;clip-rule:evenodd;stroke-linejoin:round;stroke-miterlimit:2;">
    <g transform="matrix(1,0,0,1,-690.159,-1152.77)">
        <g id="bike-rack-parallel-right">
            <g>
                <g transform="matrix(1,0,0,1,746.796,1270.72)">
                    <path d="M0,1.582L0.038,1.582L0.017,0L0,1.582Z" style="fill:rgb(170,170,170);fill-rule:nonzero;"/>
                </g>
                <g transform="matrix(1,0,0,1,733.365,1242.64)">
                    <path d="M0,-0.505L0,0.065L0.006,0.063L0.256,-0.501L0.359,-0.57L0,-0.505Z" style="fill:rgb(226,226,226);fill-rule:nonzero;"/>
                </g>
                <g transform="matrix(1,0,0,1,733.207,1242.92)">
                    <path d="M0.157,-3.122L-0.692,-3.122L-0.692,0L0,0L0,-0.107L0.157,-0.206L0.157,-3.122Z" style="fill:rgb(226,226,226);fill-rule:nonzero;"/>
                </g>
                <g transform="matrix(1,0,0,1,733.365,1240.55)">
                    <path d="M0,-0.751L0,0.029L0.988,0.21L0.608,-0.35L0.256,-0.537L0.107,-0.711L0,-0.751Z" style="fill:rgb(226,226,226);fill-rule:nonzero;"/>
                </g>
                <g transform="matrix(1,0,0,1,727.46,1242.92)">
                    <path d="M0.111,-3.122L-0.512,-3.122L-0.512,-0.21L-0.348,-0.107L-0.348,0L0.111,0L0.111,-3.122Z" style="fill:rgb(226,226,226);fill-rule:nonzero;"/>
                </g>
                <g transform="matrix(1,0,0,1,726.696,1218.57)">
                    <path d="M0,23.575L0.251,24.139L0.251,22.788L-0.665,22.788L0.251,22.788L0.251,21.228L0.149,21.265L0,21.439L0,-0.665L-0.122,-0.682L-1.001,-0.806L-1.001,24.24L0,24.381L0,23.575Z" style="fill:rgb(226,226,226);fill-rule:nonzero;"/>
                </g>
                <g transform="matrix(1,0,0,1,724.748,1254.65)">
                    <path d="M0,-0.342L0,1.172L0.426,1.172L0.426,0.272L0,-0.342Z" style="fill:rgb(165,165,165);fill-rule:nonzero;"/>
                </g>
                <g transform="matrix(1,0,0,1,722.805,1237.43)">
                    <rect x="-1.303" y="-0.605" width="1.303" height="1.772" style="fill:rgb(165,165,165);fill-rule:nonzero;"/>
                </g>
                <g transform="matrix(1,0,0,1,724.909,1253.51)">
                    <path d="M0,-7.875L0,-3.615L0.195,-3.615L0.195,-0.609L-0.073,-0.609L-0.073,-0.886L-0.161,-0.886L-0.161,-0.401L0.117,0L0.264,0L0.264,-7.875L0,-7.875Z" style="fill:rgb(165,165,165);fill-rule:nonzero;"/>
                </g>
                <g transform="matrix(1,0,0,1,728.988,1178.12)">
                    <path d="M0,1.954L2.341,1.954L2.826,0.977L2.666,0.654L2.341,0L0,0L-0.325,0.654L-0.485,0.977L0,1.954Z" style="fill:rgb(250,192,41);fill-rule:nonzero;"/>
                </g>
                <g transform="matrix(1,0,0,1,0,-5856.62)">
                    <rect x="740.708" y="7106.85" width="1.05" height="1.173" style="fill:rgb(250,192,41);"/>
                </g>
                <g transform="matrix(1,0,0,1,0,-5882.81)">
                    <rect x="713.908" y="7119.95" width="5.774" height="1.173" style="fill:rgb(250,192,41);"/>
                </g>
                <g transform="matrix(1,0,0,1,733.151,1213.88)">
                    <path d="M0,-1.21L-0.447,-1.166L-0.468,-1.164L-0.52,-1.158L0.126,-0.094L0.229,0.017L0.229,-1.126L0.164,-1.227L0,-1.21Z" style="fill:rgb(66,76,160);fill-rule:nonzero;"/>
                </g>
                <g transform="matrix(1,0,0,1,735.502,1243.16)">
                    <path d="M0,-25.28L-0.879,-25.404L-1.758,-25.28L-1.881,-25.263L-2.123,-25.064L-2.295,-24.922L-2.295,-3.369L-2.137,-3.369L-2.03,-3.33L-1.881,-3.156L-1.529,-2.969L-1.148,-2.41L-2.137,-2.59L-2.137,-1.81L-1.218,-1.81L-2.137,-1.81L-2.137,-1.03L-1.778,-1.095L-1.881,-1.025L-2.131,-0.461L-2.137,-0.459L-2.137,-0.455L-2.295,-0.356L-2.295,0.124L-1.881,-0.217L-0.879,-0.358L0.122,-0.217L0.537,0.124L0.537,-24.922L0.364,-25.064L0.122,-25.263L0,-25.28Z" style="fill:rgb(66,76,160);fill-rule:nonzero;"/>
                </g>
                <g transform="matrix(1,0,0,1,736.038,1228.96)">
                    <path d="M0,-7.824L0,8.304L0.066,8.323L0.834,8.099L1.152,7.558L0,-7.824Z" style="fill:rgb(66,76,160);fill-rule:nonzero;"/>
                </g>
                <g transform="matrix(1,0,0,1,736.038,1242.1)">
                    <path d="M0,-0.792L0,0.93L0.507,0.93L0.652,0.776L0.652,0.738L0.948,0.738L1.152,0.245L0.834,-0.523L0.066,-0.841L0,-0.792Z" style="fill:rgb(66,76,160);fill-rule:nonzero;"/>
                </g>
                <g transform="matrix(1,0,0,1,732.983,1243.03)">
                    <path d="M0.224,-0.117L-0.203,-0.117L-0.323,-0.075L-0.31,0L0.224,0L0.224,-0.117Z" style="fill:rgb(66,76,160);fill-rule:nonzero;"/>
                </g>
                <g transform="matrix(1,0,0,1,731.418,1200.56)">
                    <path d="M0,-10.635L-1.259,-10.813L-2.519,-10.635L-3.041,-10.206L-3.041,0.178L-2.726,-0.081L-2.519,-0.11L-1.259,-0.288L0,-0.11L0.206,-0.081L0.522,0.178L0.522,-10.206L0,-10.635Z" style="fill:rgb(66,76,160);fill-rule:nonzero;"/>
                </g>
                <g transform="matrix(1,0,0,1,731.785,1202.21)">
                    <path d="M0,0.261L0,0.295L0.543,0.295L0.612,0.255L0.612,0.058L0.359,-0.034L0,0.261Z" style="fill:rgb(66,76,160);fill-rule:nonzero;"/>
                </g>
                <g transform="matrix(1,0,0,1,731.418,1202.32)">
                    <path d="M0,-1.869L-1.259,-2.047L-2.519,-1.869L-2.726,-1.84L-3.041,-1.581L-3.332,-1.342L-3.332,-0.222L-3.245,-0.15L-2.886,0.145L-2.845,0.178L-2.672,0.178L-2.667,0.174L-2.667,0.086L-2.726,0.038L-3.041,-0.222L-2.726,-0.481L-2.667,-0.529L-2.519,-0.651L-2.255,-0.688L-1.259,-0.828L-0.264,-0.688L0,-0.651L0.148,-0.529L0.206,-0.481L0.522,-0.222L0.206,0.038L0.148,0.086L0.148,0.174L0.153,0.178L0.326,0.178L0.366,0.145L0.727,-0.15L0.813,-0.222L0.813,-1.342L0.522,-1.581L0.206,-1.84L0,-1.869Z" style="fill:rgb(66,76,160);fill-rule:nonzero;"/>
                </g>
                <g transform="matrix(1,0,0,1,731.418,1190.33)">
                    <path d="M0,-1.236L-1.259,-1.414L-2.519,-1.236L-2.646,-1.218L-3.041,-0.893L-3.221,-0.746L-3.221,0.031L-3.041,0.178L-3.041,0.031L-2.519,-0.399L-1.259,-0.576L0,-0.399L0.522,0.031L0.522,0.178L0.701,0.031L0.701,-0.746L0.522,-0.893L0.127,-1.218L0,-1.236Z" style="fill:rgb(66,76,160);fill-rule:nonzero;"/>
                </g>
                <g transform="matrix(1,0,0,1,727.919,1202.41)">
                    <path d="M0,-0.145L0,0.052L0.069,0.092L0.612,0.092L0.612,0.058L0.254,-0.237L0,-0.145Z" style="fill:rgb(66,76,160);fill-rule:nonzero;"/>
                </g>
                <g transform="matrix(1,0,0,1,731.425,1209.88)">
                    <path d="M0,-0.512L0,0.172L0.124,0.243L0.124,-0.755L0,-0.512Z" style="fill:rgb(66,76,160);fill-rule:nonzero;"/>
                </g>
                <g transform="matrix(1,0,0,1,731.351,1210.04)">
                    <path d="M0,-5.188L-0.21,-5.158L-0.21,-0.153L-0.036,-0.055L0.073,0.008L0.073,-0.676L0.071,-5.196L0,-5.188Z" style="fill:rgb(66,76,160);fill-rule:nonzero;"/>
                </g>
                <g transform="matrix(1,0,0,1,731.422,1209.35)">
                    <path d="M0,-4.502L0.002,0.019L0.126,-0.225L0.126,-4.521L0,-4.502Z" style="fill:rgb(66,76,160);fill-rule:nonzero;"/>
                </g>
                <g transform="matrix(1,0,0,1,731.549,1210.72)">
                    <path d="M0,-2.28L0,-0.594L0.211,-0.472L0.497,-0.308L0.967,-0.037L0.967,0.021L1.123,-0.065L1.335,-0.181L1.49,-0.266L1.55,-0.283L0,-2.28Z" style="fill:rgb(66,76,160);fill-rule:nonzero;"/>
                </g>
                <g transform="matrix(1,0,0,1,726.696,1217.9)">
                    <path d="M0,22.105L0.149,21.931L0.252,21.893L0.415,21.893L0.415,0.342L0.241,0.199L0,0L0,22.105Z" style="fill:rgb(66,76,160);fill-rule:nonzero;"/>
                </g>
                <g transform="matrix(1,0,0,1,724.279,1231.59)">
                    <path d="M0,-13.346L0,11.7L0.415,11.359L1.416,11.218L1.416,-13.828L0.537,-13.704L0.415,-13.687L0.173,-13.488L0,-13.346Z" style="fill:rgb(66,76,160);fill-rule:nonzero;"/>
                </g>
                <g transform="matrix(1,0,0,1,723.568,1222.42)">
                    <path d="M-0.398,13.513L0.132,13.513L0.132,14.713L0.42,14.797L0.42,13.293L0.711,13.461L0.711,-1.284L-0.398,13.513Z" style="fill:rgb(66,76,160);fill-rule:nonzero;"/>
                </g>
                <g transform="matrix(1,0,0,1,727.112,1243.03)">
                    <path d="M0,-0.117L0,0L0.459,0L0.459,-0.088L0.222,-0.117L0,-0.117Z" style="fill:rgb(66,76,160);fill-rule:nonzero;"/>
                </g>
                <g transform="matrix(1,0,0,1,726.696,1242.48)">
                    <path d="M0,0.463L0.415,0.805L0.415,0.325L0.252,0.222L0,-0.342L0,0.463Z" style="fill:rgb(66,76,160);fill-rule:nonzero;"/>
                </g>
                <g transform="matrix(1,0,0,1,732.515,1212)">
                    <path d="M0,-0.471L0,-0.131L0.113,0.013L0.161,0.007L0.094,-0.052L0.094,-0.44L0.065,-0.484L0,-0.471Z" style="fill:rgb(66,76,160);fill-rule:nonzero;"/>
                </g>
                <g transform="matrix(1,0,0,1,728.769,1205.81)">
                    <path d="M0,2.552L0,3.318L0.107,3.53L0.107,-0.964L-0.002,-0.978L0,2.552Z" style="fill:rgb(66,76,160);fill-rule:nonzero;"/>
                </g>
                <g transform="matrix(1,0,0,1,728.768,1209.15)">
                    <path d="M0,0.771L0,-0.789L-1.577,1.279L-1.55,1.287L-1.489,1.304L-1.335,1.389L-1.136,1.498L-1.102,1.478L-0.248,0.985L-0.074,0.885L0,0.771Z" style="fill:rgb(66,76,160);fill-rule:nonzero;"/>
                </g>
                <g transform="matrix(1,0,0,1,728.769,1209.96)">
                    <path d="M0,-0.837L0,0.029L0.107,-0.034L0.107,-0.625L0,-0.837Z" style="fill:rgb(66,76,160);fill-rule:nonzero;"/>
                </g>
                <g transform="matrix(1,0,0,1,728.876,1205.43)">
                    <path d="M0,-0.591L0,4.493L0.111,4.43L0.126,4.422L0.262,4.342L0.3,4.342L0.3,-0.549L0.09,-0.579L0.073,-0.581L0,-0.591Z" style="fill:rgb(66,76,160);fill-rule:nonzero;"/>
                </g>
                <g transform="matrix(1,0,0,1,726.938,1213.93)">
                    <path d="M0,-1.172L0,0.101L0.103,-0.14L0.633,-1.015L0.633,-1.216L0.229,-1.256L0.065,-1.273L0,-1.172Z" style="fill:rgb(66,76,160);fill-rule:nonzero;"/>
                </g>
                <g transform="matrix(1,0,0,1,746.813,1272.18)">
                    <path d="M0,-1.463L0.021,0.119L0.021,-1.582L0,-1.463Z" style="fill:rgb(221,221,221);fill-rule:nonzero;"/>
                </g>
                <g transform="matrix(1,0,0,1,736.69,1243.41)">
                    <path d="M0,2.223L0,-0.381L-0.652,-0.381L-0.652,-0.125L-0.805,0.001L-1.067,0.216L-2.068,0.357L-3.069,0.216L-3.331,0.001L-3.484,-0.125L-3.484,-0.381L-4.175,-0.381L-4.175,2.223L0,2.223Z" style="fill:rgb(221,221,221);fill-rule:nonzero;"/>
                </g>
                <g transform="matrix(1,0,0,1,737.585,1250.56)">
                    <rect x="0" y="-0.606" width="1.304" height="1.773" style="fill:rgb(221,221,221);fill-rule:nonzero;"/>
                </g>
                <g transform="matrix(1,0,0,1,736.985,1252.62)">
                    <rect x="-0.296" y="-9.779" width="0.896" height="9.779" style="fill:rgb(221,221,221);fill-rule:nonzero;"/>
                </g>
                <g transform="matrix(1,0,0,1,728.19,1203.68)">
                    <path d="M0,0.269L0,0.67L0.577,0.196L1.969,-0.001L3.362,0.196L3.939,0.67L3.939,0.269L3.362,-0.205L1.969,-0.401L0.577,-0.205L0,0.269Z" style="fill:rgb(221,221,221);fill-rule:nonzero;"/>
                </g>
                <g transform="matrix(1,0,0,1,724.735,1201.89)">
                    <path d="M0,-0.355L-0.485,-0.06L-0.485,-0.005L-0.252,-0.089L0,-0.116L0.636,-0.185L0.961,-0.144L1.498,-0.078L1.831,0.016L2.104,0.092L2.104,0.043L1.831,-0.284L0.961,-0.447L0,-0.355Z" style="fill:rgb(221,221,221);fill-rule:nonzero;"/>
                </g>
                <g transform="matrix(1,0,0,1,742.25,1272.28)">
                    <path d="M0,-93.827L-0.022,-93.824L-0.175,-93.761L-0.307,-93.66L-0.407,-93.529L-0.466,-93.386L-0.471,-93.376L-0.492,-93.212L-0.492,-92.235L-0.471,-92.396L-0.471,-4.485L-0.492,-4.598L-0.492,-1.684L-0.461,0.019L-0.471,-1.563L-0.448,0.019L-0.022,0.019L0.142,-1.216L-0.015,0.019L4.546,0.019L4.562,-1.563L4.562,-22.045L4.584,-22.102L4.584,-30.066L4.562,-30.034L4.562,-46.59L4.584,-46.572L4.584,-54.705L4.562,-54.749L4.562,-82.015L4.584,-81.887L4.584,-84.33L4.562,-84.466L4.562,-93.376L4.499,-93.529L4.398,-93.66L4.266,-93.761L4.113,-93.824L3.949,-93.846L0.142,-93.846L0,-93.827Z" style="fill:rgb(221,221,221);fill-rule:nonzero;"/>
                </g>
                <g transform="matrix(1,0,0,1,731.202,1182.5)">
                    <path d="M0,-0.058L0.111,-0.045L0.44,0.009L0.596,0.013L0.237,-0.047L0,-0.071L0,-0.058Z" style="fill:rgb(221,221,221);fill-rule:nonzero;"/>
                </g>
                <g transform="matrix(1,0,0,1,747.64,1179.58)">
                    <path d="M0,-1.81L0,-3.75L-4.844,-3.75L-6.649,-3.032L-7.25,-1.659L-7.591,-0.891L-8.07,-0.705L-13.595,-0.695L-15.986,-0.815L-15.825,-0.492L-15.825,-0.336L-16.15,0.516L-16.25,1.162L-16.15,1.219L-16.09,1.251L-15.92,1.243L-13.595,1.136L-7.462,1.236L-5.882,0.623L-5.882,-0.516L-5.86,-0.68L-5.856,-0.69L-5.797,-0.833L-5.696,-0.964L-5.565,-1.065L-5.412,-1.128L-5.389,-1.131L-5.247,-1.15L-4.899,-1.15L-4.692,-1.623L-4.222,-1.81L0,-1.81Z" style="fill:rgb(221,221,221);fill-rule:nonzero;"/>
                </g>
                <g transform="matrix(1,0,0,1,733.119,1185.23)">
                    <path d="M0,-0.086L-0.296,-0.584L-0.567,-0.794L-0.921,-1.178L-1.14,-0.584L-1.291,-0.175L-1.552,-0.175L-1.552,1.092L1.058,1.092L0.714,0.838L0,-0.086Z" style="fill:rgb(221,221,221);fill-rule:nonzero;"/>
                </g>
                <g transform="matrix(1,0,0,1,746.834,1272.93)">
                    <rect x="-7.614" y="-0.635" width="10.152" height="0.635" style="fill:rgb(221,221,221);fill-rule:nonzero;"/>
                </g>
                <g transform="matrix(1,0,0,1,731.489,1179.9)">
                    <path d="M0,0.898L-0.1,0.841L0,0.195L0.325,-0.657L0.325,-0.812L-0.16,0.165L-2.501,0.165L-2.986,-0.812L-2.962,-0.62L-2.661,0.195L-2.561,0.841L-2.722,0.93L-2.892,0.922L-2.501,1.71L-0.16,1.71L0.231,0.922L0.061,0.93L0,0.898Z" style="fill:rgb(221,221,221);fill-rule:nonzero;"/>
                </g>
                <g transform="matrix(1,0,0,1,730.483,1184.92)">
                    <path d="M0.736,-3.302L-1.385,-3.302L-1.378,-2.981L-1.378,-2.977L-1.372,-2.722L-1.372,-2.709L-1.369,-2.575L-1.368,-2.567L-1.367,-2.485L-1.367,-2.479L-1.366,-2.466L-1.365,-2.405L-1.365,-2.389L-1.319,-0.325L-0.324,0L0.671,-0.325L0.717,-2.389L0.717,-2.405L0.718,-2.471L0.719,-2.485L0.719,-2.489L0.721,-2.573L0.721,-2.581L0.723,-2.697L0.724,-2.718L0.729,-2.977L0.729,-2.981L0.736,-3.302Z" style="fill:rgb(221,221,221);fill-rule:nonzero;"/>
                </g>
                <g transform="matrix(1,0,0,1,731.202,1182.44)">
                    <path d="M0,-0.015L1.487,0.084L0.002,-0.099L0,-0.015Z" style="fill:rgb(221,221,221);fill-rule:nonzero;"/>
                </g>
                <g transform="matrix(1,0,0,1,749.431,1177.78)">
                    <rect x="0" y="-0.493" width="1.416" height="0.493" style="fill:rgb(221,221,221);fill-rule:nonzero;"/>
                </g>
                <g transform="matrix(1,0,0,1,0,-6006.44)">
                    <rect x="709.471" y="7182.27" width="1.416" height="0.16" style="fill:rgb(221,221,221);"/>
                </g>
                <g transform="matrix(1,0,0,1,728.751,1185.32)">
                    <path d="M0,-0.265L-0.205,-0.265L-0.356,-0.673L-0.575,-1.267L-0.929,-0.883L-1.2,-0.673L-1.496,-0.176L-2.21,0.748L-2.554,1.002L0,1.002L0,-0.265Z" style="fill:rgb(221,221,221);fill-rule:nonzero;"/>
                </g>
                <g transform="matrix(1,0,0,1,749.43,1176.33)">
                    <rect x="-1.79" y="-0.655" width="1.79" height="2.267" style="fill:rgb(221,221,221);fill-rule:nonzero;"/>
                </g>
                <g transform="matrix(1,0,0,1,0,-6006.44)">
                    <rect x="749.431" y="7182.27" width="1.416" height="0.16" style="fill:rgb(221,221,221);"/>
                </g>
                <g transform="matrix(1,0,0,1,731.566,1186.51)">
                    <path d="M0,2.529L0,-3.677L-0.026,-3.698L-0.367,-3.979L-0.412,-1.915L-1.407,-1.59L-2.403,-1.915L-2.448,-3.979L-2.757,-3.725L-2.815,-3.677L-2.815,2.529L-2.667,2.407L-2.403,2.37L-1.436,2.234L-1.407,2.23L-1.379,2.234L-0.412,2.37L-0.148,2.407L0,2.529Z" style="fill:rgb(221,221,221);fill-rule:nonzero;"/>
                </g>
                <g transform="matrix(1,0,0,1,727.684,1182.35)">
                    <path d="M0,0.176L1.433,0.081L1.431,0L0,0.176Z" style="fill:rgb(221,221,221);fill-rule:nonzero;"/>
                </g>
                <g transform="matrix(1,0,0,1,709.471,1177.78)">
                    <rect x="0" y="-0.493" width="1.416" height="0.493" style="fill:rgb(221,221,221);fill-rule:nonzero;"/>
                </g>
                <g transform="matrix(1,0,0,1,728.928,1175.92)">
                    <path d="M0,4.823L-0.1,4.177L-0.4,3.363L-0.424,3.17L-0.264,2.846L-2.655,2.966L-8.18,2.957L-8.659,2.771L-8.999,2.003L-9.601,0.63L-11.406,-0.089L-16.25,-0.089L-16.25,1.852L-12.028,1.852L-11.558,2.038L-11.222,2.806L-10.609,4.191L-8.788,4.898L-8.631,4.812L-2.655,4.797L-0.331,4.905L-0.16,4.912L0,4.823Z" style="fill:rgb(221,221,221);fill-rule:nonzero;"/>
                </g>
                <g transform="matrix(1,0,0,1,728.935,1182.5)">
                    <path d="M0,-0.044L-0.359,0.017L-0.203,0.013L0.126,-0.042L0.182,-0.048L0.182,-0.061L0,-0.044Z" style="fill:rgb(221,221,221);fill-rule:nonzero;"/>
                </g>
                <g transform="matrix(1,0,0,1,712.678,1176.52)">
                    <rect x="-1.79" y="-0.852" width="1.79" height="2.267" style="fill:rgb(221,221,221);fill-rule:nonzero;"/>
                </g>
                <g transform="matrix(1,0,0,1,731.567,1184.82)">
                    <path d="M0,0.237L0.26,0.237L0.182,0.109L0,0L0,0.237Z" style="fill:rgb(221,221,221);fill-rule:nonzero;"/>
                </g>
                <g transform="matrix(1,0,0,1,733.751,1201.82)">
                    <path d="M0,-0.211L-0.273,0.116L-0.273,0.164L0,0.089L0.333,-0.005L0.87,-0.071L1.198,-0.112L1.831,-0.044L2.083,-0.016L2.316,0.068L2.316,0.013L1.831,-0.282L0.87,-0.375L0,-0.211Z" style="fill:rgb(221,221,221);fill-rule:nonzero;"/>
                </g>
                <g transform="matrix(1,0,0,1,724.815,1210.23)">
                    <path d="M0,-0.722L-0.363,-0.422L-0.363,-0.072L-0.331,-0.082L0,-0.118L0.556,-0.18L0.881,-0.139L1.418,-0.072L1.76,0.023L2.123,0.124L2.123,-0.422L1.76,-0.722L0.881,-0.846L0,-0.722Z" style="fill:rgb(221,221,221);fill-rule:nonzero;"/>
                </g>
                <g transform="matrix(1,0,0,1,724.716,1209.79)">
                    <path d="M0,-0.308L-0.405,0.025L-0.264,0.139L-0.264,0.025L0.099,-0.275L0.98,-0.398L1.859,-0.275L2.221,0.025L2.221,0.139L2.362,0.025L1.957,-0.308L0.98,-0.447L0,-0.308Z" style="fill:rgb(221,221,221);fill-rule:nonzero;"/>
                </g>
                <g transform="matrix(1,0,0,1,724.816,1203.71)">
                    <path d="M0,3.359L0.879,3.235L1.759,3.359L1.858,3.373L2.123,3.59L2.123,0.192L1.759,-0.107L0.879,-0.231L0,-0.107L-0.364,0.192L-0.364,3.59L-0.099,3.373L0,3.359Z" style="fill:rgb(221,221,221);fill-rule:nonzero;"/>
                </g>
                <g transform="matrix(1,0,0,1,725.695,1207.41)">
                    <path d="M0,1.924L0.979,2.062L1.384,2.395L1.384,0.001L1.244,-0.115L0.979,-0.332L0.879,-0.347L0,-0.471L-0.879,-0.347L-0.979,-0.332L-1.243,-0.115L-1.384,0.001L-1.384,2.395L-0.979,2.062L0,1.924Z" style="fill:rgb(221,221,221);fill-rule:nonzero;"/>
                </g>
                <g transform="matrix(1,0,0,1,726.938,1212.6)">
                    <path d="M0,0.05L0.065,0.056L0.229,0.073L0.633,0.113L0.633,-0L0,-0.063L0,0.05Z" style="fill:rgb(221,221,221);fill-rule:nonzero;"/>
                </g>
                <g transform="matrix(1,0,0,1,724.816,1211.11)">
                    <path d="M0,6.77L0.879,6.646L1.759,6.77L1.881,6.787L2.123,6.986L2.123,0.207L1.759,-0.093L0.879,-0.216L0,-0.093L-0.364,0.207L-0.364,6.986L-0.122,6.787L0,6.77Z" style="fill:rgb(221,221,221);fill-rule:nonzero;"/>
                </g>
                <g transform="matrix(1,0,0,1,732.515,1212.65)">
                    <path d="M0,-0.027L0,0.086L0.115,0.076L0.168,0.07L0.189,0.067L0.636,0.023L0.799,0.007L0.864,0L0.864,-0.113L0,-0.027Z" style="fill:rgb(221,221,221);fill-rule:nonzero;"/>
                </g>
                <g transform="matrix(1,0,0,1,735.502,1217.98)">
                    <path d="M0,-6.955L-0.879,-7.079L-1.758,-6.955L-2.123,-6.656L-2.123,0.124L-1.881,-0.075L-1.758,-0.092L-0.879,-0.216L0,-0.092L0.122,-0.075L0.364,0.124L0.364,-6.656L0,-6.955Z" style="fill:rgb(221,221,221);fill-rule:nonzero;"/>
                </g>
                <g transform="matrix(1,0,0,1,733.38,1213.79)">
                    <path d="M0,0.242L0,0.112L-0.103,0L0,0.242Z" style="fill:rgb(221,221,221);fill-rule:nonzero;"/>
                </g>
                <g transform="matrix(1,0,0,1,731.142,1209.55)">
                    <path d="M0,-5.2L-0.288,-5.437L-0.983,-5.535L-1.679,-5.437L-1.967,-5.2L-1.967,0.222L-0.194,0.222L0,0.335L0,-5.2Z" style="fill:rgb(221,221,221);fill-rule:nonzero;"/>
                </g>
                <g transform="matrix(1,0,0,1,735.502,1209.69)">
                    <path d="M0,-2.618L-0.879,-2.742L-1.758,-2.618L-1.858,-2.604L-2.123,-2.387L-2.263,-2.271L-2.263,0.124L-1.858,-0.21L-0.879,-0.347L0.099,-0.21L0.505,0.124L0.505,-2.271L0.364,-2.387L0.099,-2.604L0,-2.618Z" style="fill:rgb(221,221,221);fill-rule:nonzero;"/>
                </g>
                <g transform="matrix(1,0,0,1,733.742,1210.23)">
                    <path d="M0,-0.722L-0.363,-0.422L-0.363,0.124L0,0.023L0.342,-0.072L0.881,-0.139L1.206,-0.18L1.76,-0.118L2.091,-0.082L2.123,-0.072L2.123,-0.422L1.76,-0.722L0.881,-0.846L0,-0.722Z" style="fill:rgb(221,221,221);fill-rule:nonzero;"/>
                </g>
                <g transform="matrix(1,0,0,1,735.866,1206.88)">
                    <path d="M0,-2.975L-0.364,-3.274L-1.243,-3.398L-2.122,-3.274L-2.487,-2.975L-2.487,0.423L-2.222,0.206L-2.122,0.192L-1.243,0.068L-0.364,0.192L-0.265,0.206L0,0.423L0,-2.975Z" style="fill:rgb(221,221,221);fill-rule:nonzero;"/>
                </g>
                <g transform="matrix(1,0,0,1,733.644,1209.79)">
                    <path d="M0,-0.308L-0.405,0.025L-0.264,0.139L-0.264,0.025L0.099,-0.275L0.98,-0.398L1.859,-0.275L2.221,0.025L2.221,0.139L2.362,0.025L1.957,-0.308L0.98,-0.447L0,-0.308Z" style="fill:rgb(221,221,221);fill-rule:nonzero;"/>
                </g>
                <g transform="matrix(1,0,0,1,724.581,1239.81)">
                    <path d="M0,12.151L0,10.912L0,12.151ZM0,10.335L0,8.586L0,10.335ZM0,7.629L0,5.75L0,7.629ZM0.593,13.913L0.578,13.893L0.563,13.87L0.483,13.754L0.445,13.699L0.167,13.298L0,13.057L0,12.367L0,12.813L0.327,12.813L0.327,4.522L-0.05,4.522L0.327,4.522L0.327,3.847L0.112,3.817L0,3.725L0,4.445L0,3.725L-0.302,3.476L-0.302,-3.929L-0.593,-4.097L-0.593,13.396L0.167,14.494L0.593,15.108L1.362,16.219L1.951,15.874L1.357,15.017L0.593,13.913Z" style="fill:rgb(221,221,221);fill-rule:nonzero;"/>
                </g>
                <g transform="matrix(1,0,0,1,723.569,1245.71)">
                    <path d="M0.132,-9.779L-0.764,-9.779L-0.764,0L-0.52,0L-0.52,-0.482L-0.426,-0.619L0.132,-0.619L0.132,-9.779Z" style="fill:rgb(221,221,221);fill-rule:nonzero;"/>
                </g>
                <g transform="matrix(1,0,0,1,723.701,1247.66)">
                    <path d="M0,-2.63L0,-2.561L-0.558,-2.561L-0.652,-2.424L-0.652,-1.653L-0.575,-1.514L0.287,0L0.287,-2.63L0,-2.63Z" style="fill:rgb(221,221,221);fill-rule:nonzero;"/>
                </g>
                <g transform="matrix(1,0,0,1,727.57,1243.41)">
                    <path d="M0,2.223L0,-0.381L-0.459,-0.381L-0.459,-0.125L-0.612,0.001L-0.874,0.216L-1.876,0.357L-2.662,0.246L-2.662,2.223L0,2.223Z" style="fill:rgb(221,221,221);fill-rule:nonzero;"/>
                </g>
                <g transform="matrix(1,0,0,1,723.735,1243.2)">
                    <path d="M0,-1.74L-0.034,-1.679L-0.034,0.444L0.254,0.444L0.254,-2.184L0,-1.74Z" style="fill:rgb(221,221,221);fill-rule:nonzero;"/>
                </g>
                <g transform="matrix(1,0,0,1,723.701,1245.03)">
                    <rect x="0" y="-1.383" width="0.287" height="1.383" style="fill:rgb(221,221,221);fill-rule:nonzero;"/>
                </g>
                <g transform="matrix(1,0,0,1,726.399,1255.69)">
                    <path d="M0,-10.05L0,-9.314L-0.26,-9.314L-0.26,-10.05L-0.459,-10.05L-0.459,-0.856L0.134,0L0.134,-10.05L0,-10.05Z" style="fill:rgb(221,221,221);fill-rule:nonzero;"/>
                </g>
                <g transform="matrix(1,0,0,1,731.567,1201.79)">
                    <path d="M0,0.615L0.057,0.569L0.373,0.309L0.057,0.049L0,0L0,0.615Z" style="fill:rgb(221,221,221);fill-rule:nonzero;"/>
                </g>
                <g transform="matrix(1,0,0,1,729.163,1201.56)">
                    <path d="M0,0.867L0.995,0.727L1.991,0.867L2.388,0.923L2.403,0.935L2.403,0.232L2.255,0.11L1.991,0.073L0.995,-0.068L0,0.073L-0.264,0.11L-0.412,0.232L-0.412,0.935L-0.397,0.923L0,0.867Z" style="fill:rgb(221,221,221);fill-rule:nonzero;"/>
                </g>
                <g transform="matrix(1,0,0,1,729.163,1202.36)">
                    <path d="M0,0.068L-0.396,0.125L-0.396,0.141L2.387,0.141L2.387,0.125L1.991,0.068L0.996,-0.073L0,0.068Z" style="fill:rgb(221,221,221);fill-rule:nonzero;"/>
                </g>
                <g transform="matrix(1,0,0,1,728.693,1202.36)">
                    <path d="M0,-0.518L-0.317,-0.258L0,0.002L0.057,0.048L0.057,-0.566L0,-0.518Z" style="fill:rgb(221,221,221);fill-rule:nonzero;"/>
                </g>
                <g transform="matrix(1,0,0,1,712.669,1237.06)">
                    <rect x="0" y="-0.008" width="0.686" height="0.008" style="fill:rgb(142,142,142);fill-rule:nonzero;"/>
                </g>
                <g transform="matrix(1,0,0,1,713.349,1238.38)">
                    <rect x="-0.68" y="-1.139" width="0.686" height="1.139" style="fill:rgb(142,142,142);fill-rule:nonzero;"/>
                </g>
                <g transform="matrix(1,0,0,1,0,-5882.81)">
                    <path d="M719.682,7121.12L713.908,7121.12L713.908,7119.95L719.682,7119.95L719.682,7121.12ZM713.355,7119.87L713.355,7121.2L712.473,7121.2L712.473,7119.87L713.355,7119.87ZM721.502,7121.49L721.502,7119.58L712.289,7119.58L712.289,7121.49L721.502,7121.49Z" style="fill:rgb(142,142,142);fill-rule:nonzero;"/>
                </g>
                <g transform="matrix(1,0,0,1,712.472,1238.39)">
                    <rect x="0" y="-1.336" width="0.197" height="1.336" style="fill:rgb(142,142,142);fill-rule:nonzero;"/>
                </g>
                <g transform="matrix(1,0,0,1,0,-5881.48)">
                    <rect x="712.669" y="7119.87" width="0.686" height="0.006" style="fill:rgb(142,142,142);"/>
                </g>
                <g transform="matrix(1,0,0,1,747.041,1250.34)">
                    <path d="M0,1.139L0,-0.181L0.871,-0.181L0.871,1.139L0,1.139ZM-0.207,1.434L1.06,1.434L1.06,-0.478L-0.207,-0.478L-0.207,1.434Z" style="fill:rgb(142,142,142);fill-rule:nonzero;"/>
                </g>
                <g transform="matrix(1,0,0,1,0,-5856.8)">
                    <rect x="747.042" y="7106.96" width="0.673" height="1.137" style="fill:rgb(142,142,142);"/>
                </g>
                <g transform="matrix(1,0,0,1,747.715,1251.48)">
                    <rect x="0" y="-1.319" width="0.197" height="1.319" style="fill:rgb(142,142,142);fill-rule:nonzero;"/>
                </g>
                <g transform="matrix(1,0,0,1,733.621,1243.63)">
                    <path d="M0,-0.684L-0.413,-0.342L-0.262,-0.216L0,-0.002L1.003,0.141L2.003,-0.002L2.265,-0.216L2.419,-0.342L2.003,-0.684L1.003,-0.825L0,-0.684Z" style="fill:rgb(142,142,142);fill-rule:nonzero;"/>
                </g>
                <g transform="matrix(1,0,0,1,758.067,1177.14)">
                    <path d="M0,-0.998L-0.021,-0.203L0.283,0.146L0.283,-1.144L0,-0.998Z" style="fill:rgb(142,142,142);fill-rule:nonzero;"/>
                </g>
                <g transform="matrix(1,0,0,1,749.43,1177.19)">
                    <path d="M0,-1.2L0,0.091L8.92,0.091L8.616,-0.257L8.638,-1.051L8.92,-1.2L0,-1.2Z" style="fill:rgb(142,142,142);fill-rule:nonzero;"/>
                </g>
                <g transform="matrix(1,0,0,1,750.847,1177.93)">
                    <path d="M0,-2.255L0,-1.934L7.504,-1.934L7.504,-0.643L0,-0.643L0,0.012L12.96,0.294L12.96,-2.549L0,-2.255Z" style="fill:rgb(142,142,142);fill-rule:nonzero;"/>
                </g>
                <g transform="matrix(1,0,0,1,709.165,1177.28)">
                    <path d="M1.723,-1.291L-7.197,-1.291L-6.915,-1.143L-6.893,-0.349L-7.197,0L1.723,0L1.723,-1.291Z" style="fill:rgb(142,142,142);fill-rule:nonzero;"/>
                </g>
                <g transform="matrix(1,0,0,1,701.967,1177.13)">
                    <path d="M0,-1.135L0,0.155L0.304,-0.193L0.283,-0.989L0,-1.135Z" style="fill:rgb(142,142,142);fill-rule:nonzero;"/>
                </g>
                <g transform="matrix(1,0,0,1,709.471,1176.31)">
                    <path d="M0,0.969L-7.504,0.969L-7.504,-0.322L0,-0.322L0,-0.643L-12.96,-0.937L-12.96,1.906L0,1.624L0,0.969Z" style="fill:rgb(142,142,142);fill-rule:nonzero;"/>
                </g>
                <g transform="matrix(1,0,0,1,727.112,1239.79)">
                    <rect x="0" y="-0.795" width="0.086" height="0.795" style="fill:rgb(142,142,142);fill-rule:nonzero;"/>
                </g>
                <g transform="matrix(1,0,0,1,732.516,1237.46)">
                    <path d="M0,34.573L0,-26.774L-0.47,-27.045L-0.967,-27.331L-1.09,-27.403L-1.201,-27.467L-1.373,-27.566L-1.568,-27.678L-3.378,-27.678L-3.514,-27.599L-3.529,-27.591L-3.64,-27.527L-3.747,-27.465L-3.821,-27.422L-3.996,-27.322L-4.849,-26.829L-4.884,-26.809L-4.945,-26.774L-4.945,34.573L-3.378,35.478L-1.568,35.478L0,34.573Z" style="fill:rgb(142,142,142);fill-rule:nonzero;"/>
                </g>
                <g transform="matrix(1,0,0,1,727.198,1239.79)">
                    <rect x="0" y="-4.22" width="0.262" height="4.22" style="fill:rgb(142,142,142);fill-rule:nonzero;"/>
                </g>
                <g transform="matrix(0.73636,0.67659,0.67659,-0.73636,727.374,1211.46)">
                    <path d="M-0.03,-0.132L0.388,-0.132L0.163,0.113L0.051,0.042L-0.03,-0.132Z" style="fill:rgb(142,142,142);fill-rule:nonzero;"/>
                </g>
                <g transform="matrix(1,0,0,1,735.502,1211.28)">
                    <path d="M0,-1.162L-0.554,-1.223L-0.879,-1.182L-1.417,-1.115L-1.758,-1.02L-2.123,-0.919L-2.375,-0.848L-2.403,-0.841L-2.463,-0.824L-2.618,-0.739L-2.83,-0.622L-2.986,-0.536L-2.986,0.061L-2.463,-0.227L-1.417,-0.518L-0.554,-0.626L0.331,-0.53L0.969,-0.299L1.201,0.007L1.201,-0.589L0.969,-0.896L0.364,-1.114L0.331,-1.126L0,-1.162Z" style="fill:rgb(142,142,142);fill-rule:nonzero;"/>
                </g>
                <g transform="matrix(1,0,0,1,732.61,1211.9)">
                    <path d="M0,-0.388L0,0.048L0.445,-0.363L0.266,-0.436L0,-0.388Z" style="fill:rgb(142,142,142);fill-rule:nonzero;"/>
                </g>
                <g transform="matrix(1,0,0,1,724.484,1210.59)">
                    <path d="M0,0.156L0.885,0.06L1.748,0.168L2.795,0.458L3.086,0.619L3.086,0.092L3.147,0.056L2.949,-0.053L2.795,-0.138L2.734,-0.155L2.707,-0.162L2.454,-0.233L2.09,-0.334L1.748,-0.429L1.211,-0.496L0.885,-0.537L0.331,-0.476L0,-0.44L-0.033,-0.428L-0.638,-0.21L-0.87,0.096L-0.87,0.693L-0.638,0.387L0,0.156Z" style="fill:rgb(142,142,142);fill-rule:nonzero;"/>
                </g>
                <g transform="matrix(1,0,0,1,724.816,1211.97)">
                    <path d="M0,-0.948L0.879,-1.072L1.759,-0.948L2.123,-0.649L2.123,0.356L2.447,0.372L2.755,0.099L2.755,-0.15L2.447,-0.433L2.625,-0.507L2.755,-0.484L2.755,-0.761L2.463,-0.922L1.417,-1.212L0.554,-1.32L-0.331,-1.224L-0.969,-0.993L-1.201,-0.687L-1.201,-0.434L-0.426,0.019L-0.364,0.04L-0.364,-0.649L0,-0.948Z" style="fill:rgb(142,142,142);fill-rule:nonzero;"/>
                </g>
                <g transform="matrix(1,0,0,1,735.833,1212.25)">
                    <path d="M0,-1.5L-0.885,-1.596L-1.748,-1.488L-2.794,-1.198L-3.317,-0.91L-3.317,-0.718L-3.252,-0.729L-3.224,-0.735L-2.956,-0.783L-2.779,-0.709L-3.224,-0.298L-3.156,-0.239L-2.778,0.096L-2.454,0.08L-2.454,-0.925L-2.09,-1.224L-1.21,-1.348L-0.331,-1.224L0.033,-0.925L0.033,-0.236L0.094,-0.257L0.87,-0.71L0.87,-0.963L0.638,-1.269L0,-1.5Z" style="fill:rgb(142,142,142);fill-rule:nonzero;"/>
                </g>
                <g transform="matrix(1,0,0,1,727.263,1212.32)">
                    <path d="M0,0.019L-0.325,0.002L-0.325,0.21L0.308,0.273L0.308,-0.254L0,0.019Z" style="fill:rgb(142,142,142);fill-rule:nonzero;"/>
                </g>
                <g transform="matrix(1,0,0,1,727.46,1239.79)">
                    <rect x="0" y="-0.795" width="0.111" height="0.795" style="fill:rgb(142,142,142);fill-rule:nonzero;"/>
                </g>
                <g transform="matrix(1,0,0,1,732.629,1212.61)">
                    <path d="M0,-0.6L-0.113,-0.589L-0.113,0.006L0.751,-0.079L0.751,-0.288L0.426,-0.27L0.048,-0.606L0,-0.6Z" style="fill:rgb(142,142,142);fill-rule:nonzero;"/>
                </g>
                <g transform="matrix(1,0,0,1,730.13,1189.43)">
                    <path d="M0,-0.688L-0.967,-0.551L-1.231,-0.514L-1.38,-0.392L-1.754,-0.086L-1.754,0.004L-1.359,-0.318L-1.231,-0.337L0.029,-0.516L1.288,-0.337L1.416,-0.318L1.81,0.004L1.81,-0.086L1.437,-0.392L1.288,-0.514L1.024,-0.551L0.057,-0.688L0.029,-0.692L0,-0.688Z" style="fill:rgb(142,142,142);fill-rule:nonzero;"/>
                </g>
                <g transform="matrix(0,1,1,0,732.575,1203.31)">
                    <path d="M0.059,-0.293L0.293,-0.293L0.093,0.059L0.059,-0.282L0.059,-0.293Z" style="fill:rgb(142,142,142);fill-rule:nonzero;"/>
                </g>
                <g transform="matrix(1,0,0,1,732.004,1204.49)">
                    <path d="M0,0.05L-0.096,0.05L-0.203,0.138L0.036,0.138L1.376,0.004L1.376,-0.088L0,0.05Z" style="fill:rgb(142,142,142);fill-rule:nonzero;"/>
                </g>
                <g transform="matrix(1,0,0,1,724.699,1203.85)">
                    <path d="M0,-1.024L0.996,-1.164L1.991,-1.024L2.403,-0.685L2.403,0.006L2.511,0L3.032,-0.157L3.19,-0.204L3.211,-0.211L3.335,-0.248L2.982,-0.447L3.325,-0.479L4.163,-0.479L4.069,-0.465L4.047,-0.462L4.019,-0.459L3.869,-0.438L3.211,0.103L3.49,0.333L3.49,0.103L4.067,-0.37L5.46,-0.567L3.29,-0.567L2.58,-0.958L1.533,-1.249L0.67,-1.357L-0.215,-1.26L-0.853,-1.029L-1.085,-0.723L-1.085,-0.471L-0.412,-0.077L-0.412,-0.685L0,-1.024Z" style="fill:rgb(142,142,142);fill-rule:nonzero;"/>
                </g>
                <g transform="matrix(1,0,0,1,731.785,1202.49)">
                    <path d="M0.544,0.006L-0.214,0.006L-0.218,0.002L-0.233,0.006L-3.018,0.006L-3.034,0.002L-3.038,0.006L-3.795,0.006L-3.864,-0.032L-3.979,-0.096L-4.506,-0.385L-4.945,-0.507L-5.217,-0.583L-5.552,-0.676L-6.088,-0.743L-6.415,-0.784L-7.049,-0.715L-7.3,-0.687L-7.535,-0.603L-7.938,-0.457L-8.17,-0.15L-8.17,0.634L-7.938,0.328L-7.3,0.097L-6.415,0.001L-5.552,0.109L-4.506,0.4L-3.795,0.79L0.544,0.79L1.254,0.4L2.3,0.109L3.163,0.001L4.048,0.097L4.686,0.328L4.918,0.634L4.918,-0.15L4.686,-0.457L4.283,-0.603L4.048,-0.687L3.797,-0.715L3.163,-0.784L2.837,-0.743L2.3,-0.676L1.966,-0.583L1.693,-0.507L1.254,-0.385L0.728,-0.096L0.613,-0.032L0.544,0.006Z" style="fill:rgb(142,142,142);fill-rule:nonzero;"/>
                </g>
                <g transform="matrix(1,0,0,1,731.75,1203.95)">
                    <path d="M0,-0.583L0,-0.541L0.657,0L0.657,-0.314L0.533,-0.35L0.533,-0.583L0,-0.583Z" style="fill:rgb(142,142,142);fill-rule:nonzero;"/>
                </g>
                <g transform="matrix(1,0,0,1,724.452,1202.82)">
                    <path d="M0,1.078L0.364,0.779L1.243,0.655L2.123,0.779L2.487,1.078L2.487,1.214L2.651,1.078L2.651,0.343L2.239,0.004L1.243,-0.136L0.248,0.004L-0.164,0.343L-0.164,1.078L0,1.214L0,1.078Z" style="fill:rgb(142,142,142);fill-rule:nonzero;"/>
                </g>
                <g transform="matrix(1,0,0,1,728.035,1203.95)">
                    <path d="M0,-0.583L0,-0.35L-0.124,-0.314L-0.124,0L0.535,-0.541L0.535,-0.583L0,-0.583Z" style="fill:rgb(142,142,142);fill-rule:nonzero;"/>
                </g>
                <g transform="matrix(1,0,0,1,735.618,1203.9)">
                    <path d="M0,-1.07L-0.995,-1.21L-1.991,-1.07L-2.403,-0.731L-2.403,0.004L-2.239,0.14L-2.239,0.004L-1.875,-0.295L-0.995,-0.419L-0.116,-0.295L0.248,0.004L0.248,0.14L0.412,0.004L0.412,-0.731L0,-1.07Z" style="fill:rgb(142,142,142);fill-rule:nonzero;"/>
                </g>
                <g transform="matrix(1,0,0,1,732.477,1204.53)">
                    <path d="M0,-0.823L-0.071,-0.815L-0.071,-0.573L-0.35,-0.345L-0.35,-0.173L-0.474,-0.07L-0.474,0.01L0.902,-0.129L0.902,-0.491L0.736,-0.626L0.736,-0.67L0.629,-0.676L0.109,-0.833L0,-0.823Z" style="fill:rgb(142,142,142);fill-rule:nonzero;"/>
                </g>
                <g transform="matrix(1,0,0,1,727.21,1204.38)">
                    <path d="M0,-0.529L-0.107,-0.523L-0.107,-0.479L-0.273,-0.344L-0.273,0.018L1.105,0.157L1.105,0.077L0.98,-0.026L0.98,-0.198L0.701,-0.426L0.701,-0.668L0.629,-0.676L0.52,-0.686L0,-0.529Z" style="fill:rgb(142,142,142);fill-rule:nonzero;"/>
                </g>
                <g transform="matrix(1,0,0,1,726.938,1204.53)">
                    <path d="M0,-0.042L1.34,0.092L1.58,0.092L1.473,0.004L1.378,0.004L0,-0.134L0,-0.042Z" style="fill:rgb(142,142,142);fill-rule:nonzero;"/>
                </g>
                <g transform="matrix(1,0,0,1,728.411,1204.03)">
                    <path d="M0,0.504L0.106,0.591L0.355,0.796L0.465,0.811L0.538,0.821L0.555,0.824L0.764,0.853L0.764,0.322L1.052,0.085L1.748,-0.013L2.443,0.085L2.731,0.322L2.731,0.853L3.012,0.814L3.138,0.796L3.389,0.591L3.495,0.504L3.591,0.424L3.717,0.322L3.14,-0.152L1.748,-0.349L0.355,-0.152L-0.222,0.322L-0.096,0.424L0,0.504Z" style="fill:rgb(142,142,142);fill-rule:nonzero;"/>
                </g>
                <g transform="matrix(1,0,0,1,735.833,1204.09)">
                    <path d="M0,-1.496L-0.885,-1.593L-1.748,-1.485L-2.794,-1.194L-3.505,-0.803L-5.674,-0.803L-4.282,-0.606L-3.705,-0.133L-3.705,0.097L-3.426,-0.133L-4.084,-0.674L-4.234,-0.695L-4.262,-0.699L-4.284,-0.702L-4.378,-0.715L-3.539,-0.715L-3.197,-0.683L-3.55,-0.484L-3.426,-0.447L-3.405,-0.44L-3.247,-0.393L-2.726,-0.236L-2.618,-0.23L-2.618,-0.921L-2.206,-1.26L-1.21,-1.4L-0.215,-1.26L0.197,-0.921L0.197,-0.313L0.87,-0.707L0.87,-0.959L0.638,-1.266L0,-1.496Z" style="fill:rgb(142,142,142);fill-rule:nonzero;"/>
                </g>
                <g transform="matrix(-0.995095,0.0989275,0.0989275,0.995095,727.705,1203.62)">
                    <path d="M-0.343,-0.216L0.001,-0.216L-0.33,0.017L-0.353,-0.215L-0.343,-0.216Z" style="fill:rgb(142,142,142);fill-rule:nonzero;"/>
                </g>
                <g transform="matrix(1,0,0,1,733.072,1185.73)">
                    <path d="M0,-3.206L0.613,-3.071L0,-3.206L-1.803,-3.527L0,-3.206ZM0.047,-2.183L0.608,-3.059L0.047,-2.183ZM-1.866,-3.513L-1.869,-3.397L-1.869,-3.39L-0.384,-3.206L-0.474,-2.978L-0.442,-2.929L-0.573,-2.495L-0.7,-2.15L-0.735,-2.057L-0.875,-1.679L-0.52,-1.294L-0.249,-1.084L0.047,-0.587L0.761,0.337L1.105,0.591L3.017,-1.862L1.988,-3.744L1.801,-3.776L1.528,-3.797L1.444,-3.793L-1.86,-3.793L-1.866,-3.534L-1.866,-3.513Z" style="fill:rgb(142,142,142);fill-rule:nonzero;"/>
                </g>
                <g transform="matrix(1,0,0,1,732.631,1182.53)">
                    <path d="M0,0.273L-0.031,0.225L-0.092,0.132L-0.791,0L0,0.273Z" style="fill:rgb(142,142,142);fill-rule:nonzero;"/>
                </g>
                <g transform="matrix(1,0,0,1,731.566,1184.74)">
                    <path d="M0,-1.91L0,-0.523L0.03,-0.47L0,-0.283L0,0.079L0.184,0.188L0.262,0.317L0.412,-0.091L0.631,-0.685L0.771,-1.063L0.806,-1.157L0.933,-1.501L1.064,-1.935L0.274,-2.209L0.232,-2.223L0.076,-2.227L-0.367,-2.223L-0.367,-2.212L-0.026,-1.931L0,-1.91Z" style="fill:rgb(142,142,142);fill-rule:nonzero;"/>
                </g>
                <g transform="matrix(1,0,0,1,731.202,1182.66)">
                    <path d="M0,-0.227L0.237,-0.204L0.596,-0.143L0.638,-0.128L1.336,0.004L1.487,-0.132L0,-0.231L0,-0.227Z" style="fill:rgb(142,142,142);fill-rule:nonzero;"/>
                </g>
                <g transform="matrix(1,0,0,1,727.684,1182.57)">
                    <path d="M0,-0.041L0.151,0.095L0.85,-0.037L0.891,-0.052L1.25,-0.112L1.433,-0.129L1.433,-0.136L0,-0.041Z" style="fill:rgb(142,142,142);fill-rule:nonzero;"/>
                </g>
                <g transform="matrix(1,0,0,1,727.835,1182.67)">
                    <path d="M0,-0.009L-0.04,0.052L-0.061,0.083L-0.092,0.132L0.699,-0.141L0,-0.009Z" style="fill:rgb(142,142,142);fill-rule:nonzero;"/>
                </g>
                <g transform="matrix(1,0,0,1,727.301,1185.73)">
                    <path d="M0,-3.206L1.803,-3.527L0,-3.206L-0.613,-3.071L0,-3.206ZM-0.608,-3.059L-0.047,-2.183L-0.608,-3.059ZM-0.046,-0.587L0.249,-1.084L0.52,-1.294L0.875,-1.679L0.735,-2.057L0.7,-2.15L0.573,-2.495L0.442,-2.929L0.474,-2.978L0.384,-3.206L1.813,-3.383L1.813,-3.391L1.81,-3.525L1.809,-3.538L1.804,-3.793L-1.443,-3.793L-1.528,-3.797L-1.801,-3.776L-1.988,-3.744L-3.017,-1.862L-1.104,0.591L-0.761,0.337L-0.046,-0.587Z" style="fill:rgb(142,142,142);fill-rule:nonzero;"/>
                </g>
                <g transform="matrix(1,0,0,1,728.575,1185.05)">
                    <path d="M0,-2.536L-0.042,-2.522L-0.831,-2.248L-0.7,-1.814L-0.573,-1.47L-0.539,-1.376L-0.399,-0.998L-0.18,-0.404L-0.029,0.004L0.049,-0.125L0.176,-0.201L0.176,-2.223L0.234,-2.271L0.543,-2.525L0.543,-2.536L0.156,-2.54L0,-2.536Z" style="fill:rgb(142,142,142);fill-rule:nonzero;"/>
                </g>
                <g transform="matrix(-0.986313,0.164885,0.164885,0.986313,728.794,1182.53)">
                    <path d="M-0.274,-0.026L0.059,-0.026L-0.321,0.037L-0.331,-0.023L-0.274,-0.026Z" style="fill:rgb(142,142,142);fill-rule:nonzero;"/>
                </g>
                <g transform="matrix(1,0,0,1,731.2,1182.45)">
                    <path d="M0,0.067L0.443,0.067L0.113,0.012L0.002,0L0,0.067Z" style="fill:rgb(142,142,142);fill-rule:nonzero;"/>
                </g>
                <g transform="matrix(1,0,0,1,0,-5865.49)">
                    <rect x="727.198" y="7111.12" width="0.262" height="1.5" style="fill:rgb(142,142,142);"/>
                </g>
                <g transform="matrix(1,0,0,1,0,-5866.25)">
                    <rect x="726.138" y="7111.89" width="0.26" height="0.736" style="fill:rgb(142,142,142);"/>
                </g>
                <g transform="matrix(1,0,0,1,724.909,1252.9)">
                    <path d="M0,-1.437L0,-0.277L-0.073,-0.277L-0.073,0L0.195,0L0.195,-1.437L0,-1.437Z" style="fill:rgb(142,142,142);fill-rule:nonzero;"/>
                </g>
                <g transform="matrix(1,0,0,1,724.909,1251.25)">
                    <rect x="0" y="-0.866" width="0.195" height="0.866" style="fill:rgb(142,142,142);fill-rule:nonzero;"/>
                </g>
                <g transform="matrix(1,0,0,1,724.693,1243.63)">
                    <path d="M0,-0.684L-0.415,-0.342L-0.111,-0.095L0,-0.002L0.216,0.029L1.003,0.141L2.003,-0.002L2.265,-0.216L2.419,-0.342L2.003,-0.684L1.003,-0.825L0,-0.684Z" style="fill:rgb(142,142,142);fill-rule:nonzero;"/>
                </g>
                <g transform="matrix(1,0,0,1,738.889,1250.52)">
                    <path d="M0,-0.651L0,1.26L2.869,1.26L2.869,0.892L1.819,0.892L1.819,-0.282L2.869,-0.282L2.869,-0.651L0,-0.651Z" style="fill:rgb(142,142,142);fill-rule:nonzero;"/>
                </g>
            </g>
        </g>
    </g>
</svg>
