<?xml version="1.0" encoding="UTF-8" standalone="no"?>
<!DOCTYPE svg PUBLIC "-//W3C//DTD SVG 1.1//EN" "http://www.w3.org/Graphics/SVG/1.1/DTD/svg11.dtd">
<svg width="100%" height="100%" viewBox="0 0 188 122" version="1.1" xmlns="http://www.w3.org/2000/svg" xmlns:xlink="http://www.w3.org/1999/xlink" xml:space="preserve" xmlns:serif="http://www.serif.com/" style="fill-rule:evenodd;clip-rule:evenodd;stroke-linejoin:round;stroke-miterlimit:2;">
    <g id="Artboard1" transform="matrix(1,0,0,1,6.38566,1.17248)">
        <rect x="-6.386" y="-1.172" width="187.984" height="121.851" style="fill:none;"/>
        <g transform="matrix(1,0,0,1,-898.754,-1152.29)">
            <g id="bike-rack-perpendicular-right">
                <g>
                    <g transform="matrix(1,0,0,1,931.791,1246.09)">
                        <path d="M0,-1.354L-0.23,-1.434L-0.23,-0.83L0.739,0.08L1.512,-0.83L0.878,-1.049L0,-1.354Z" style="fill:rgb(43,43,42);fill-rule:nonzero;"/>
                    </g>
                    <g transform="matrix(1,0,0,1,987.345,1272.3)">
                        <path d="M0,-1.372L1.398,0L1.516,0L0,-1.372Z" style="fill:rgb(170,170,170);fill-rule:nonzero;"/>
                    </g>
                    <g transform="matrix(0.805516,-0.592574,-0.592574,-0.805516,1049.99,1272.64)">
                        <path d="M-0.231,0.592L1.953,0.592L-0.381,0.702L-0.231,0.592Z" style="fill:rgb(170,170,170);fill-rule:nonzero;"/>
                    </g>
                    <g transform="matrix(1,0,0,1,1059.01,1272.3)">
                        <path d="M0,-1.297L-1.583,0L-1.456,0L0,-1.297Z" style="fill:rgb(170,170,170);fill-rule:nonzero;"/>
                    </g>
                    <g transform="matrix(1,0,0,1,1049.58,1270.93)">
                        <path d="M0,1.079L1.597,0.018L1.586,0L0,1.079Z" style="fill:rgb(170,170,170);fill-rule:nonzero;"/>
                    </g>
                    <g transform="matrix(1,0,0,1,930.427,1250.54)">
                        <path d="M-0.134,17.143L0.134,17.101L-1.321,0.387L-1.628,-0.021L-0.134,17.143Z" style="fill:rgb(226,226,226);fill-rule:nonzero;"/>
                    </g>
                    <g transform="matrix(1,0,0,1,933.607,1252.21)">
                        <path d="M-0.134,14.97L0.134,14.928L-3.153,0.507L-3.551,-0.021L-0.134,14.97Z" style="fill:rgb(226,226,226);fill-rule:nonzero;"/>
                    </g>
                    <g transform="matrix(-0.390329,-0.920675,-0.920675,0.390329,939.895,1256.91)">
                        <path d="M-7.413,4.6L3.05,4.6L3.138,4.87L-7.433,4.87L-7.413,4.6Z" style="fill:rgb(226,226,226);fill-rule:nonzero;"/>
                    </g>
                    <g transform="matrix(1,0,0,1,941.302,1255.8)">
                        <path d="M-0.121,8.4L0.121,8.276L-4.859,-0.062L-5.009,-0.05L-5.158,-0.037L-0.121,8.4Z" style="fill:rgb(226,226,226);fill-rule:nonzero;"/>
                    </g>
                    <g transform="matrix(-0.655705,-0.755018,-0.755018,0.655705,943.216,1254.53)">
                        <path d="M-6.431,2.554L1.091,2.554L1.289,2.825L-6.451,2.825L-6.431,2.554Z" style="fill:rgb(226,226,226);fill-rule:nonzero;"/>
                    </g>
                    <g transform="matrix(1,0,0,1,947.686,1255.22)">
                        <path d="M-0.096,3.755L0.096,3.563L-4.09,-0.096L-4.278,-0.08L-4.465,-0.064L-0.096,3.755Z" style="fill:rgb(226,226,226);fill-rule:nonzero;"/>
                    </g>
                    <g transform="matrix(0.857213,0.514962,0.514962,-0.857213,950.191,1254.43)">
                        <path d="M-0.026,-0.191L0.605,-0.191L0.586,0.078L0.347,0.08L-0.026,-0.191Z" style="fill:rgb(226,226,226);fill-rule:nonzero;"/>
                    </g>
                    <g transform="matrix(1,0,0,1,925.355,1248.13)">
                        <path d="M-0.134,19.506L0.134,19.548L1.871,0.301L1.629,-0.021L-0.134,19.506Z" style="fill:rgb(226,226,226);fill-rule:nonzero;"/>
                    </g>
                    <g transform="matrix(0.225373,-0.974273,-0.974273,-0.225373,933.322,1261.75)">
                        <rect x="-7.767" y="9.507" width="19.723" height="0.27" style="fill:rgb(226,226,226);"/>
                    </g>
                    <g transform="matrix(1,0,0,1,917.232,1247.45)">
                        <path d="M0,18.062L0.121,18.124L0.241,18.185L8.002,0.041L7.89,-0.041L7.86,-0.041L7.86,-0.063L7.778,-0.123L0,18.062Z" style="fill:rgb(226,226,226);fill-rule:nonzero;"/>
                    </g>
                    <g transform="matrix(-0.515399,0.85695,0.85695,0.515399,924.356,1264.31)">
                        <rect x="-14.936" y="-8.698" width="19.843" height="0.271" style="fill:rgb(226,226,226);"/>
                    </g>
                    <g transform="matrix(1,0,0,1,923.442,1261.14)">
                        <path d="M0.11,-14.873L-0.11,-15.033L-13.153,-0.112L-12.961,0.08L0.11,-14.873Z" style="fill:rgb(226,226,226);fill-rule:nonzero;"/>
                    </g>
                    <g transform="matrix(-0.755003,0.655721,0.655721,0.755003,914.342,1262.15)">
                        <path d="M-17.189,-6.715L2.553,-6.715L2.534,-6.444L-17.252,-6.444L-17.189,-6.715Z" style="fill:rgb(226,226,226);fill-rule:nonzero;"/>
                    </g>
                    <g transform="matrix(1,0,0,1,921.455,1254.77)">
                        <path d="M0,-9.775L-0.11,-9.867L-16.384,-0.15L-16.323,-0.029L-16.261,0.092L0.11,-9.684L0,-9.775Z" style="fill:rgb(226,226,226);fill-rule:nonzero;"/>
                    </g>
                    <g transform="matrix(-0.920659,0.390368,0.390368,0.920659,905.871,1255.07)">
                        <rect x="-18.085" y="-3.933" width="18.855" height="0.27" style="fill:rgb(226,226,226);"/>
                    </g>
                    <g transform="matrix(1,0,0,1,920.716,1247.04)">
                        <path d="M0,-4.232L0.025,-4.376L-18.628,-0.124L-18.607,0.01L-18.585,0.144L-0.025,-4.087L0,-4.232Z" style="fill:rgb(226,226,226);fill-rule:nonzero;"/>
                    </g>
                    <g transform="matrix(-0.996231,0.0867435,0.0867435,0.996231,901.706,1244.83)">
                        <path d="M-19.308,-1.105L0.025,-1.105L0.006,-0.835L-19.236,-0.835L-19.308,-1.105Z" style="fill:rgb(226,226,226);fill-rule:nonzero;"/>
                    </g>
                    <g transform="matrix(1,0,0,1,921.289,1238.8)">
                        <path d="M-0.043,1.91L0.043,1.646L-19.655,-0.132L-19.677,0.002L-19.698,0.136L-0.043,1.91Z" style="fill:rgb(226,226,226);fill-rule:nonzero;"/>
                    </g>
                    <g transform="matrix(-0.974277,-0.225356,-0.225356,0.974277,902.82,1233.61)">
                        <rect x="-19.619" y="1.978" width="19.842" height="0.271" style="fill:rgb(226,226,226);"/>
                    </g>
                    <g transform="matrix(1,0,0,1,921.931,1230.8)">
                        <path d="M-0.042,7.923L0.042,7.665L-18.179,-0.129L-18.241,-0.008L-18.302,0.113L-0.042,7.923Z" style="fill:rgb(226,226,226);fill-rule:nonzero;"/>
                    </g>
                    <g transform="matrix(-0.856952,-0.515397,-0.515397,0.856952,908.863,1224.39)">
                        <rect x="-18.376" y="4.811" width="19.723" height="0.27" style="fill:rgb(226,226,226);"/>
                    </g>
                    <g transform="matrix(1,0,0,1,923.014,1223.81)">
                        <path d="M0,13.016L0.112,12.935L-14.779,-0.082L-14.97,0.109L-0.112,13.098L0,13.016Z" style="fill:rgb(226,226,226);fill-rule:nonzero;"/>
                    </g>
                    <g transform="matrix(-0.65572,-0.755004,-0.755004,0.65572,918.196,1219.18)">
                        <rect x="-16.541" y="7.294" width="19.842" height="0.27" style="fill:rgb(226,226,226);"/>
                    </g>
                    <g transform="matrix(1,0,0,1,924.694,1218.59)">
                        <path d="M-0.11,17.096L0.11,16.936L-10.05,-0.08L-10.171,-0.018L-10.292,0.043L-0.11,17.096Z" style="fill:rgb(226,226,226);fill-rule:nonzero;"/>
                    </g>
                    <g transform="matrix(-0.390334,-0.920673,-0.920673,0.390334,927.986,1219.05)">
                        <rect x="-13.817" y="8.864" width="19.722" height="0.27" style="fill:rgb(226,226,226);"/>
                    </g>
                    <g transform="matrix(1,0,0,1,926.609,1215.53)">
                        <path d="M-0.139,19.283L0.138,19.283L-4.257,0L-4.525,0.042L-0.139,19.283Z" style="fill:rgb(226,226,226);fill-rule:nonzero;"/>
                    </g>
                    <g transform="matrix(1,0,0,1,927.254,1215.03)">
                        <path d="M0,19.787L-1.722,0L-1.99,0.042L-0.271,19.787L0,19.787Z" style="fill:rgb(226,226,226);fill-rule:nonzero;"/>
                    </g>
                    <g transform="matrix(1,0,0,1,928.707,1215.14)">
                        <path d="M0,19.454L0.037,19.427L0.142,19.383L1.898,-0.064L1.63,-0.106L-0.146,19.56L0,19.454Z" style="fill:rgb(226,226,226);fill-rule:nonzero;"/>
                    </g>
                    <g transform="matrix(0.225351,-0.974278,-0.974278,-0.225351,940.079,1229.02)">
                        <path d="M-7.508,9.163L11.676,9.163L11.656,9.432L-7.701,9.433L-7.508,9.163Z" style="fill:rgb(226,226,226);fill-rule:nonzero;"/>
                    </g>
                    <g transform="matrix(1,0,0,1,931.504,1217.15)">
                        <path d="M-0.179,16.352L0.179,16.204L7.089,0.049L6.968,-0.012L6.847,-0.074L-0.179,16.352Z" style="fill:rgb(226,226,226);fill-rule:nonzero;"/>
                    </g>
                    <g transform="matrix(-0.51541,0.856944,0.856944,0.51541,941.017,1232.84)">
                        <path d="M-12.362,-7.198L4.195,-7.198L3.093,-6.928L-12.382,-6.927L-12.362,-7.198Z" style="fill:rgb(226,226,226);fill-rule:nonzero;"/>
                    </g>
                    <g transform="matrix(1,0,0,1,932.383,1231.66)">
                        <path d="M-0.11,4.78L0.11,4.94L4.499,-0.08L2.995,1.434L1.492,2.948L-0.11,4.78Z" style="fill:rgb(226,226,226);fill-rule:nonzero;"/>
                    </g>
                    <g transform="matrix(1,0,0,1,947.621,1236.78)">
                        <path d="M0,-13.013L-14.938,-0.039L-14.883,0L-14.561,-0.009L0.192,-12.822L0,-13.013Z" style="fill:rgb(226,226,226);fill-rule:nonzero;"/>
                    </g>
                    <g transform="matrix(1,0,0,1,950.693,1236.56)">
                        <path d="M0,-8.598L-0.061,-8.719L-14.866,0.121L-14.589,0.113L-14.311,0.105L0.062,-8.477L0,-8.598Z" style="fill:rgb(226,226,226);fill-rule:nonzero;"/>
                    </g>
                    <g transform="matrix(-0.920698,0.390276,0.390276,0.920698,939.993,1239.07)">
                        <path d="M-14.402,-2.975L0.718,-2.975L0.023,-2.704L-14.422,-2.705L-14.402,-2.975Z" style="fill:rgb(226,226,226);fill-rule:nonzero;"/>
                    </g>
                    <g transform="matrix(1,0,0,1,950.52,1235.53)">
                        <path d="M0,0.724L0.698,0.703L1.399,0.682L3.218,0.267L3.195,0.133L3.174,0L0,0.724Z" style="fill:rgb(226,226,226);fill-rule:nonzero;"/>
                    </g>
                    <g transform="matrix(-0.996231,0.0867343,0.0867343,0.996231,934.653,1241.54)">
                        <rect x="-19.716" y="-1.123" width="19.723" height="0.27" style="fill:rgb(226,226,226);"/>
                    </g>
                    <g transform="matrix(1,0,0,1,934.372,1237.12)">
                        <path d="M-0.042,2.817L0.042,3.075L14.098,-0.129L13.399,-0.108L12.7,-0.088L-0.042,2.817Z" style="fill:rgb(226,226,226);fill-rule:nonzero;"/>
                    </g>
                    <g transform="matrix(0.92069,-0.390295,-0.390295,-0.92069,934.324,1239.27)">
                        <path d="M-0.143,0.673L3.39,0.673L2.695,0.944L-0.12,0.943L-0.143,0.673Z" style="fill:rgb(226,226,226);fill-rule:nonzero;"/>
                    </g>
                    <g transform="matrix(1,0,0,1,934.898,1238.22)">
                        <path d="M0.277,-0.831L-0.277,-0.815L-1.21,-0.257L-1.168,-0.124L-1.126,0.008L0.277,-0.831Z" style="fill:rgb(226,226,226);fill-rule:nonzero;"/>
                    </g>
                    <g transform="matrix(1,0,0,1,1017.43,1219.55)">
                        <path d="M0,-0.829L0.12,-0.872L-0.571,-2.502L-0.811,-2.379L0.906,1.673L0,-0.829Z" style="fill:rgb(226,226,226);fill-rule:nonzero;"/>
                    </g>
                    <g transform="matrix(1,0,0,1,1022.77,1219.18)">
                        <path d="M0,14.305L-0.242,13.635L-8.783,-0.669L-8.904,-0.607L-9.025,-0.546L0.243,14.974L0,14.305Z" style="fill:rgb(226,226,226);fill-rule:nonzero;"/>
                    </g>
                    <g transform="matrix(1,0,0,1,1024.41,1221.89)">
                        <path d="M0,16.726L0.382,17.166L0.126,16.459L-14.551,-0.44L-14.743,-0.249L-0.648,15.98L0,16.726Z" style="fill:rgb(226,226,226);fill-rule:nonzero;"/>
                    </g>
                    <g transform="matrix(1,0,0,1,1024.79,1223.84)">
                        <path d="M0,15.223L-0.382,14.783L-1.03,14.037L-17.211,-0.107L-17.306,-0.011L-17.402,0.084L0.039,15.33L0,15.223Z" style="fill:rgb(226,226,226);fill-rule:nonzero;"/>
                    </g>
                    <g transform="matrix(1,0,0,1,1025.43,1216.57)">
                        <path d="M0,15.931L0.374,16.965L-3.729,-1.034L-3.997,-0.992L-0.375,14.896L0,15.931Z" style="fill:rgb(226,226,226);fill-rule:nonzero;"/>
                    </g>
                    <g transform="matrix(-0.0867033,-0.996234,-0.996234,0.0867033,1036.03,1223.57)">
                        <path d="M-11.601,10.369L9.482,10.369L9.462,10.639L-10.587,10.639L-11.601,10.369Z" style="fill:rgb(226,226,226);fill-rule:nonzero;"/>
                    </g>
                    <g transform="matrix(1,0,0,1,934.383,1254.36)">
                        <path d="M0,-7.281L0,-6.921L8.123,0.18L8.31,0.164L8.498,0.148L0,-7.281Z" style="fill:rgb(226,226,226);fill-rule:nonzero;"/>
                    </g>
                    <g transform="matrix(0.856947,0.515405,0.515405,-0.856947,937.142,1241.29)">
                        <path d="M-1.183,-4.724L16.762,-4.724L17.137,-4.454L-1.245,-4.454L-1.183,-4.724Z" style="fill:rgb(226,226,226);fill-rule:nonzero;"/>
                    </g>
                    <g transform="matrix(1,0,0,1,951.634,1244.46)">
                        <path d="M0,7.09L-17.699,-0.481L-17.741,-0.352L-17.783,-0.222L0.439,7.571L0.5,7.451L0.562,7.33L0.52,7.312L0,7.09Z" style="fill:rgb(226,226,226);fill-rule:nonzero;"/>
                    </g>
                    <g transform="matrix(1,0,0,1,937.338,1254.54)">
                        <path d="M0,-2.67L-0.106,-2.59L2.347,0.234L2.68,0.205L-0.021,-2.904L0,-2.67Z" style="fill:rgb(226,226,226);fill-rule:nonzero;"/>
                    </g>
                    <g transform="matrix(0.65585,0.754891,0.754891,-0.65585,936.45,1250.5)">
                        <path d="M0.023,-0.361L0.851,-0.361L0.956,-0.09L-0.159,-0.091L0.023,-0.361Z" style="fill:rgb(226,226,226);fill-rule:nonzero;"/>
                    </g>
                    <g transform="matrix(1,0,0,1,935.738,1248.26)">
                        <path d="M0,1.972L0.074,1.875L0.307,1.913L-1.355,0L-1.355,0.412L0,1.972Z" style="fill:rgb(226,226,226);fill-rule:nonzero;"/>
                    </g>
                    <g transform="matrix(1,0,0,1,929.216,1251.37)">
                        <path d="M0.138,-3.477L-0.139,-3.477L0.527,-0.555L0.729,-0.277L0.931,0L0.138,-3.477Z" style="fill:rgb(226,226,226);fill-rule:nonzero;"/>
                    </g>
                    <g transform="matrix(0.0869181,0.996215,0.996215,-0.0869181,929.723,1248.55)">
                        <path d="M-0.753,-1.092L0.743,-1.092L1.191,-0.821L-0.729,-0.82L-0.753,-1.092Z" style="fill:rgb(226,226,226);fill-rule:nonzero;"/>
                    </g>
                    <g transform="matrix(1,0,0,1,931.42,1250.69)">
                        <path d="M0,-1.666L-0.159,-1.657L0.594,0.117L0.72,-0.277L0.082,-1.783L0,-1.666Z" style="fill:rgb(226,226,226);fill-rule:nonzero;"/>
                    </g>
                    <g transform="matrix(1,0,0,1,931.932,1249.53)">
                        <path d="M0,-1.086L-0.109,-1.084L-0.134,-1.048L0.491,0L0.516,-0.082L0.516,-0.484L0.155,-1.086L0,-1.086Z" style="fill:rgb(226,226,226);fill-rule:nonzero;"/>
                    </g>
                    <g transform="matrix(1,0,0,1,921.515,1244.67)">
                        <path d="M0,0.132L0.103,0.227L0.208,0.321L0.621,0.073L0.537,-0.189L0,0.132Z" style="fill:rgb(226,226,226);fill-rule:nonzero;"/>
                    </g>
                    <g transform="matrix(0.32508,0.945687,0.945687,-0.32508,921.422,1243.91)">
                        <rect x="0.296" y="-0.364" width="0.217" height="0.778" style="fill:rgb(226,226,226);"/>
                    </g>
                    <g transform="matrix(1,0,0,1,920.957,1242.8)">
                        <path d="M0,-0.187L-0.05,0.103L0.537,-0.032L0.495,-0.16L0.453,-0.29L0,-0.187Z" style="fill:rgb(226,226,226);fill-rule:nonzero;"/>
                    </g>
                    <g transform="matrix(-0.171946,0.985106,0.985106,0.171946,921.321,1242.08)">
                        <path d="M0.008,-0.265L0.287,-0.265L0.205,0.053L-0.042,-0.076L0.008,-0.265Z" style="fill:rgb(226,226,226);fill-rule:nonzero;"/>
                    </g>
                    <g transform="matrix(-0.229596,0.973286,0.973286,0.229596,929.296,1234.54)">
                        <path d="M0.126,-0.169L0.327,-0.169L0.263,0.103L-0.067,0.1L0.126,-0.169Z" style="fill:rgb(226,226,226);fill-rule:nonzero;"/>
                    </g>
                    <g transform="matrix(1,0,0,1,931.397,1234.47)">
                        <path d="M0,-0.798L-0.178,-0.724L-0.518,0.073L-0.002,-0.447L0.178,-0.871L0,-0.798Z" style="fill:rgb(226,226,226);fill-rule:nonzero;"/>
                    </g>
                    <g transform="matrix(1,0,0,1,1030.81,1251.53)">
                        <path d="M0,-8.452L0.845,-7.943L20.606,0.509L20.666,0.388L20.73,0.267L-0.846,-8.961L0,-8.452Z" style="fill:rgb(226,226,226);fill-rule:nonzero;"/>
                    </g>
                    <g transform="matrix(1,0,0,1,1031.14,1235.61)">
                        <path d="M0,5.044L0.982,4.959L21.938,0.182L21.896,-0.086L-0.984,5.13L0,5.044Z" style="fill:rgb(226,226,226);fill-rule:nonzero;"/>
                    </g>
                    <g transform="matrix(1,0,0,1,1030.81,1254.24)">
                        <path d="M0,-11.165L-0.846,-11.674L-1.105,-11.83L-1.228,-11.588L-0.97,-11.433L19.144,0.665L19.267,0.423L0.845,-10.656L0,-11.165Z" style="fill:rgb(226,226,226);fill-rule:nonzero;"/>
                    </g>
                    <g transform="matrix(1,0,0,1,1023.35,1238.89)">
                        <path d="M0,1.933L-0.962,1.71L-22.366,-0.222L-22.408,0.046L0.962,2.155L0,1.933Z" style="fill:rgb(226,226,226);fill-rule:nonzero;"/>
                    </g>
                    <g transform="matrix(1,0,0,1,1029.99,1224.8)">
                        <path d="M0,13.704L-0.746,14.352L-0.974,14.55L-0.783,14.742L-0.555,14.543L17.166,-0.847L16.975,-1.038L0.745,13.057L0,13.704Z" style="fill:rgb(226,226,226);fill-rule:nonzero;"/>
                    </g>
                    <g transform="matrix(1,0,0,1,1030.74,1231.46)">
                        <path d="M0,8.03L-0.909,8.416L-1.188,8.534L-1.064,8.775L-0.786,8.657L20.822,-0.504L20.698,-0.745L0.909,7.645L0,8.03Z" style="fill:rgb(226,226,226);fill-rule:nonzero;"/>
                    </g>
                    <g transform="matrix(1,0,0,1,1028.39,1241.12)">
                        <path d="M0,-0.424L0.237,0.233L0.344,0.526L0.422,0.233L0.214,-0.548L-0.191,-0.95L0,-0.424Z" style="fill:rgb(226,226,226);fill-rule:nonzero;"/>
                    </g>
                    <g transform="matrix(1,0,0,1,1023.37,1243.62)">
                        <path d="M0,-1.571L1.285,-1.682L1.243,-1.95L0.942,-1.924L-22.44,0.112L-22.398,0.379L-0.984,-1.485L0,-1.571Z" style="fill:rgb(226,226,226);fill-rule:nonzero;"/>
                    </g>
                    <g transform="matrix(1,0,0,1,1027.79,1216.84)">
                        <path d="M0,20.605L-0.222,21.567L-0.225,21.579L-0.113,21.89L-0.023,21.904L0.045,21.609L5.334,-1.257L5.066,-1.299L0.223,19.643L0,20.605Z" style="fill:rgb(226,226,226);fill-rule:nonzero;"/>
                    </g>
                    <g transform="matrix(1,0,0,1,1027.79,1216)">
                        <path d="M0,21.446L0.223,20.484L2.155,-0.92L1.887,-0.962L-0.222,22.408L0,21.446Z" style="fill:rgb(226,226,226);fill-rule:nonzero;"/>
                    </g>
                    <g transform="matrix(1,0,0,1,1023.35,1235.77)">
                        <path d="M0,5.044L0.962,5.266L1.257,5.335L1.299,5.067L1.005,4.999L-21.862,-0.291L-21.904,-0.023L-0.962,4.821L0,5.044Z" style="fill:rgb(226,226,226);fill-rule:nonzero;"/>
                    </g>
                    <g transform="matrix(1,0,0,1,1031.17,1243.82)">
                        <path d="M0,-1.932L0.964,-1.709L22.368,0.223L22.41,-0.045L-0.962,-2.155L0,-1.932Z" style="fill:rgb(226,226,226);fill-rule:nonzero;"/>
                    </g>
                    <g transform="matrix(1,0,0,1,1031.17,1246.93)">
                        <path d="M0,-5.043L-0.962,-5.266L-1.257,-5.334L-1.299,-5.066L-1.005,-4.998L21.864,0.291L21.906,0.024L0.964,-4.82L0,-5.043Z" style="fill:rgb(226,226,226);fill-rule:nonzero;"/>
                    </g>
                    <g transform="matrix(1,0,0,1,1028.98,1217.92)">
                        <path d="M-0.509,20.728L0.509,19.036L8.962,-0.723L8.839,-0.785L8.719,-0.846L-0.509,20.728Z" style="fill:rgb(226,226,226);fill-rule:nonzero;"/>
                    </g>
                    <g transform="matrix(1,0,0,1,1023.7,1231.18)">
                        <path d="M0.846,8.96L-0.846,7.942L-20.605,-0.509L-20.667,-0.389L-20.728,-0.268L0.846,8.96Z" style="fill:rgb(226,226,226);fill-rule:nonzero;"/>
                    </g>
                    <g transform="matrix(1,0,0,1,1029.99,1222.13)">
                        <path d="M0,16.372L0.745,15.725L14.888,-0.456L14.698,-0.648L-0.746,17.02L0,16.372Z" style="fill:rgb(226,226,226);fill-rule:nonzero;"/>
                    </g>
                    <g transform="matrix(1,0,0,1,1028.98,1219.76)">
                        <path d="M0.509,17.191L-0.509,18.883L-0.665,19.143L-0.423,19.266L-0.268,19.007L11.828,-1.106L11.588,-1.229L0.509,17.191Z" style="fill:rgb(226,226,226);fill-rule:nonzero;"/>
                    </g>
                    <g transform="matrix(1,0,0,1,1031.14,1239.09)">
                        <path d="M0,1.571L-0.984,1.657L-1.285,1.683L-1.243,1.95L-0.942,1.925L22.439,-0.111L22.397,-0.379L0.982,1.486L0,1.571Z" style="fill:rgb(226,226,226);fill-rule:nonzero;"/>
                    </g>
                    <g transform="matrix(1,0,0,1,1024.93,1242.72)">
                        <path d="M0,-2.659L-0.123,-2.418L-0.236,-2.196L-0.28,-1.918L-0.287,-1.877L-0.329,-1.609L-0.368,-1.363L-0.324,-1.085L-0.318,-1.044L-0.275,-0.776L-0.236,-0.53L-0.109,-0.28L-0.089,-0.242L0.033,-0.001L0.147,0.221L0.345,0.42L0.375,0.449L0.566,0.641L0.743,0.817L0.993,0.945L1.03,0.964L1.272,1.087L1.494,1.2L1.772,1.244L1.812,1.251L2.08,1.293L2.327,1.332L2.604,1.288L2.645,1.281L2.913,1.239L3.159,1.2L3.41,1.072L3.447,1.053L3.688,0.93L3.911,0.817L4.109,0.618L4.139,0.589L4.33,0.397L4.507,0.221L4.634,-0.03L4.653,-0.067L4.776,-0.308L4.89,-0.53L4.933,-0.808L4.94,-0.849L4.982,-1.117L5.021,-1.363L4.977,-1.641L4.971,-1.682L4.928,-1.95L4.89,-2.196L4.762,-2.447L4.743,-2.483L4.62,-2.724L4.507,-2.947L4.307,-3.146L4.278,-3.175L4.087,-3.367L3.911,-3.543L3.66,-3.671L3.623,-3.689L3.381,-3.812L3.159,-3.926L2.881,-3.97L2.84,-3.976L2.75,-3.991L3.273,-2.547L3.677,-2.143L3.886,-1.363L3.808,-1.07L4.227,0.089L3.837,0.23L2.895,0.57L1.954,0.911L1.564,1.052L0.129,-2.912L0.019,-2.696L0,-2.659Z" style="fill:rgb(226,226,226);fill-rule:nonzero;"/>
                    </g>
                    <g transform="matrix(1,0,0,1,1026.72,1266.71)">
                        <path d="M0,-21.446L-0.223,-20.484L-2.155,0.92L-1.887,0.962L0.222,-22.408L0,-21.446Z" style="fill:rgb(226,226,226);fill-rule:nonzero;"/>
                    </g>
                    <g transform="matrix(1,0,0,1,1029.12,1264.47)">
                        <path d="M0.386,-18.725L-0.386,-20.543L-0.504,-20.822L-0.745,-20.699L-0.627,-20.42L8.535,1.188L8.774,1.065L0.386,-18.725Z" style="fill:rgb(226,226,226);fill-rule:nonzero;"/>
                    </g>
                    <g transform="matrix(1,0,0,1,1024.52,1257.91)">
                        <path d="M0,-13.706L0.745,-14.353L0.974,-14.552L0.782,-14.743L0.554,-14.545L-17.166,0.845L-16.974,1.037L-0.746,-13.058L0,-13.706Z" style="fill:rgb(226,226,226);fill-rule:nonzero;"/>
                    </g>
                    <g transform="matrix(1,0,0,1,1023.78,1254.48)">
                        <path d="M0,-11.259L-0.909,-10.874L-19.361,0.144L-19.299,0.264L-19.238,0.386L0.909,-11.645L0,-11.259Z" style="fill:rgb(226,226,226);fill-rule:nonzero;"/>
                    </g>
                    <g transform="matrix(1,0,0,1,1025.54,1262.95)">
                        <path d="M-0.509,-17.192L0.509,-18.884L0.665,-19.143L0.423,-19.267L0.268,-19.007L-11.829,1.106L-11.588,1.229L-0.509,-17.192Z" style="fill:rgb(226,226,226);fill-rule:nonzero;"/>
                    </g>
                    <g transform="matrix(1,0,0,1,1027.96,1266.4)">
                        <path d="M0.086,-20.172L-0.086,-22.14L-0.112,-22.441L-0.379,-22.399L-0.353,-22.098L1.682,1.285L1.95,1.242L0.086,-20.172Z" style="fill:rgb(226,226,226);fill-rule:nonzero;"/>
                    </g>
                    <g transform="matrix(1,0,0,1,1024.52,1260.58)">
                        <path d="M0,-16.373L-0.746,-15.725L-14.89,0.455L-14.698,0.647L0.745,-17.02L0,-16.373Z" style="fill:rgb(226,226,226);fill-rule:nonzero;"/>
                    </g>
                    <g transform="matrix(1,0,0,1,1029.12,1263.29)">
                        <path d="M-0.386,-19.361L0.386,-17.543L11.404,0.909L11.524,0.847L11.644,0.786L-0.386,-19.361Z" style="fill:rgb(226,226,226);fill-rule:nonzero;"/>
                    </g>
                    <g transform="matrix(1,0,0,1,1027.96,1266.19)">
                        <path d="M-0.086,-21.937L0.086,-19.969L4.862,0.984L5.13,0.942L-0.086,-21.937Z" style="fill:rgb(226,226,226);fill-rule:nonzero;"/>
                    </g>
                    <g transform="matrix(1,0,0,1,1023.7,1228.47)">
                        <path d="M-0.846,10.655L0.846,11.673L1.105,11.829L1.228,11.588L0.969,11.432L-19.144,-0.665L-19.267,-0.423L-0.846,10.655Z" style="fill:rgb(226,226,226);fill-rule:nonzero;"/>
                    </g>
                    <g transform="matrix(1,0,0,1,1030.74,1228.23)">
                        <path d="M0,11.259L0.909,10.874L19.362,-0.144L19.299,-0.265L19.239,-0.386L-0.909,11.645L0,11.259Z" style="fill:rgb(226,226,226);fill-rule:nonzero;"/>
                    </g>
                    <g transform="matrix(1,0,0,1,1023.37,1247.1)">
                        <path d="M0,-5.045L-0.984,-4.959L-21.937,-0.183L-21.916,-0.049L-21.894,0.085L0.984,-5.13L0,-5.045Z" style="fill:rgb(226,226,226);fill-rule:nonzero;"/>
                    </g>
                    <g transform="matrix(1,0,0,1,1030.11,1258.23)">
                        <path d="M0,-14.143L0.648,-13.398L16.828,0.746L16.923,0.65L17.019,0.555L-0.648,-14.889L0,-14.143Z" style="fill:rgb(226,226,226);fill-rule:nonzero;"/>
                    </g>
                    <g transform="matrix(1,0,0,1,1025.54,1264.79)">
                        <path d="M0.509,-20.729L-0.509,-19.037L-8.961,0.722L-8.719,0.846L0.509,-20.729Z" style="fill:rgb(226,226,226);fill-rule:nonzero;"/>
                    </g>
                    <g transform="matrix(1,0,0,1,1030.11,1260.28)">
                        <path d="M0,-16.192L-0.648,-16.938L-0.846,-17.166L-1.037,-16.974L-0.839,-16.746L14.551,0.974L14.741,0.782L0.648,-15.447L0,-16.192Z" style="fill:rgb(226,226,226);fill-rule:nonzero;"/>
                    </g>
                    <g transform="matrix(1,0,0,1,1026.72,1265.87)">
                        <path d="M0,-20.605L0.222,-21.567L0.291,-21.862L0.023,-21.904L-0.045,-21.61L-5.335,1.257L-5.067,1.299L-0.223,-19.643L0,-20.605Z" style="fill:rgb(226,226,226);fill-rule:nonzero;"/>
                    </g>
                    <g transform="matrix(1,0,0,1,1023.78,1251.25)">
                        <path d="M0,-8.03L0.909,-8.416L1.188,-8.534L1.065,-8.775L0.787,-8.657L-20.822,0.504L-20.699,0.745L-0.909,-7.645L0,-8.03Z" style="fill:rgb(226,226,226);fill-rule:nonzero;"/>
                    </g>
                    <g transform="matrix(0.974273,0.225372,0.225372,-0.974273,938.739,1241.92)">
                        <path d="M-0.205,-1.804L15.76,-1.804L15.74,-1.533L1.195,-1.533L-0.205,-1.804Z" style="fill:rgb(226,226,226);fill-rule:nonzero;"/>
                    </g>
                    <g transform="matrix(1,0,0,1,932.807,1254.58)">
                        <path d="M0,-2.352L-0.122,-2.195L0.808,0L1.074,-0.066L0.157,-2.229L0,-2.352Z" style="fill:rgb(226,226,226);fill-rule:nonzero;"/>
                    </g>
                    <g transform="matrix(1,0,0,1,935.041,1254.63)">
                        <path d="M0,-1.065L0,-0.719L0.447,0.03L0.529,0.084L0.61,0.04L0.73,-0.023L0.113,-1.055L0,-1.065Z" style="fill:rgb(226,226,226);fill-rule:nonzero;"/>
                    </g>
                    <g transform="matrix(1,0,0,1,936.515,1246.63)">
                        <path d="M0,7.585L-0.744,7.978L-0.863,8.042L-0.945,8.085L-1.028,8.03L-1.475,7.735L-1.475,6.935L-1.361,6.945L0,7.073L0,7.585ZM-2.048,7.735L-2.635,7.882L-2.9,7.948L-3.094,7.996L-4.04,6.021L-3.831,5.753L-3.709,5.596L-3.551,5.719L-1.997,6.935L-2.048,7.735ZM-3.28,-0.981L-3.145,-1.037L-3.01,-0.981L-2.954,-0.846L-3.01,-0.71L-3.145,-0.654L-3.28,-0.71L-3.336,-0.846L-3.28,-0.981ZM1.491,6.879L0.387,6.271L-2.132,4.882L-2.132,-0.853L-2.94,-1.54L-3.013,-1.603L-3.212,-1.368L-3.985,-0.458L-4.758,0.451L-4.067,1.268L-4.067,2.815L-4.093,2.897L-4.375,3.777L-4.501,4.172L-4.607,4.504L-4.607,7.05L-4.435,7.397L-3.824,8.631L-3.483,8.717L-1.616,9.188L0.151,8.846L0.662,8.355L1.491,7.557L1.491,6.879Z" style="fill:rgb(165,165,165);fill-rule:nonzero;"/>
                    </g>
                    <g transform="matrix(1,0,0,1,930.927,1244.17)">
                        <path d="M0,0.362L0.141,0.304L0.283,0.362L0.341,0.504L0.283,0.645L0.141,0.703L0,0.645L-0.058,0.504L0,0.362ZM-3.515,1.147L-3.502,1.118L-2.842,1.118L-2.832,1.147L-2.47,2.2L-2.3,2.696L-1.5,2.696L-1.297,2.377L-0.6,1.281L0.635,1.281L0.635,0.195L-0.022,-0.09L-1.618,-0.783L-1.63,-0.788L-3.22,-0.788L-3.556,-0.426L-4.479,0.57L-4.883,0.195L-4.116,-0.633L-3.67,-1.115L-2.974,-1.864L-3.26,-2.148L-3.436,-2.238L-3.595,-2.396L-3.682,-2.567L-3.913,-2.797L-3.995,-2.878L-4.053,-2.831L-4.575,-2.415L-5.272,-1.859L-6.543,-0.846L-6.547,-0.843L-6.72,-0.705L-6.72,0.12L-5.835,0.981L-5.835,3.24L-4.418,3.24L-4.195,2.724L-4.137,2.588L-3.969,2.2L-3.515,1.147Z" style="fill:rgb(165,165,165);fill-rule:nonzero;"/>
                    </g>
                    <g transform="matrix(-0.409056,0.912509,0.912509,0.409056,927.901,1245.01)">
                        <path d="M0.45,-0.321L0.482,-0.321L0.202,0.304L0.18,0.283L0.45,-0.321Z" style="fill:rgb(165,165,165);fill-rule:nonzero;"/>
                    </g>
                    <g transform="matrix(1,0,0,1,970.737,1243.36)">
                        <path d="M0,-0.438L0,-0.291L0.292,-0.291L0.292,-0.146L0.436,-0.146L0.436,-0.291L0.583,-0.291L0.583,0L0.73,0L0.73,-0.438L0,-0.438Z" style="fill:rgb(165,165,165);fill-rule:nonzero;"/>
                    </g>
                    <g transform="matrix(1,0,0,1,970.737,1243.65)">
                        <path d="M0,-0.438L0,0L0.73,0L0.73,-0.144L0.436,-0.144L0.436,-0.291L0.292,-0.291L0.292,-0.144L0.145,-0.144L0.145,-0.438L0,-0.438Z" style="fill:rgb(165,165,165);fill-rule:nonzero;"/>
                    </g>
                    <g transform="matrix(1,0,0,1,973.5,1240.99)">
                        <path d="M0,-0.925L-0.009,-0.938L-0.139,-1.133L-1.726,-0.776L-2.019,-0.71L-2.644,-0.57L-2.289,-0.333L-2.144,-0.235L-1.551,0.16L-1.519,0.208L-0.522,-0.239L-0.498,-0.251L-0.106,-0.426L0.232,-0.579L0.131,-0.728L0,-0.925Z" style="fill:rgb(66,76,160);fill-rule:nonzero;"/>
                    </g>
                    <g transform="matrix(1,0,0,1,1017.43,1242.81)">
                        <path d="M0,-24.083L0.906,-21.581L5.101,-9.991L5.344,-9.321L5.586,-8.651L7.106,-4.453L7.362,-3.746L7.401,-3.639L7.631,-3.001L9.066,0.963L9.456,0.822L10.398,0.481L11.339,0.14L11.729,-0.001L11.31,-1.159L11.204,-1.453L10.966,-2.109L10.775,-2.637L10.253,-4.08L10.14,-4.391L9.277,-6.776L8.919,-7.763L8.372,-9.277L7.997,-10.311L7.622,-11.346L2.663,-25.046L2.501,-24.988L2.273,-24.906L2.158,-24.864L1.331,-24.565L0.505,-24.266L0.39,-24.224L0.162,-24.142L0.12,-24.126L0,-24.083Z" style="fill:rgb(66,76,160);fill-rule:nonzero;"/>
                    </g>
                    <g transform="matrix(1,0,0,1,964.712,1236.7)">
                        <path d="M0,0.57L0.142,0.475L0.849,0.003L0.884,-0.021L1.267,-0.097L1.82,-0.207L1.811,-0.235L1.23,-0.218L0.783,-0.204L-0.05,-0.18L-0.242,-0.174L-0.666,-0.161L-0.352,0.805L0,0.57Z" style="fill:rgb(66,76,160);fill-rule:nonzero;"/>
                    </g>
                    <g transform="matrix(1,0,0,1,952.107,1204.26)">
                        <path d="M0,-0.432L0,0.002L0.375,0.218L0.753,0.002L0.753,-0.432L0.375,-0.65L0,-0.432Z" style="fill:rgb(66,76,160);fill-rule:nonzero;"/>
                    </g>
                    <g transform="matrix(1,0,0,1,945.831,1225.61)">
                        <path d="M0,-6.121L-1.237,-4.876L-12.346,6.306L-13.145,7.111L-13.501,7.47L-13.849,7.82L-14.436,8.411L-14.694,8.671L-14.952,8.93L-15.462,9.444L-16.004,9.989L-16.156,10.143L-15.931,10.367L-15.633,10.662L-15.386,10.908L-15.088,11.204L-14.841,11.45L-14.615,11.674L-14.141,11.196L-13.684,10.736L-11.956,8.995L-10.453,7.481L-8.949,5.967L0.294,-3.345L1.531,-4.59L3.056,-6.126L3.685,-6.76L7.687,-10.792L8.302,-11.76L9.904,-14.656L10.174,-15.143L10.599,-15.912L10.684,-16.501L10.311,-17.277L9.666,-17.631L9.311,-17.795L9.239,-17.643L9.058,-17.26L8.985,-17.106L7.035,-12.984L8.985,-17.106L6.554,-12.813L6.001,-12.163L2.155,-8.29L1.526,-7.657L0,-6.121Z" style="fill:rgb(66,76,160);fill-rule:nonzero;"/>
                    </g>
                    <g transform="matrix(1,0,0,1,1007.39,1201.41)">
                        <path d="M0,-11.481L-1.185,-11.052L-2.369,-10.623L-2.489,-10.58L-2.86,-10.445L-2.52,-9.507L-1.852,-8.883L-1.362,-7.841L-0.852,-7.359L-0.944,-7.181L-0.969,-6.721L-0.881,-6.511L-0.776,-6.382L-0.761,-6.181L-0.061,-3.904L0.274,-1.787L0.986,0.178L1.283,0.071L1.476,0L2.661,-0.429L3.845,-0.857L4.039,-0.927L4.336,-1.035L0.491,-11.659L0.119,-11.524L0,-11.481Z" style="fill:rgb(66,76,160);fill-rule:nonzero;"/>
                    </g>
                    <g transform="matrix(1,0,0,1,952.86,1202.6)">
                        <path d="M0,1.669L-0.376,1.886L-0.753,1.669L-0.753,1.234L-0.376,1.018L0,1.234L0,1.669ZM1.328,1.634L2.073,1.392L2.393,1.288L3.24,1.013L3.396,0.962L3.928,0.79L4.263,0.68L3.826,-0.667L3.49,-0.558L2.916,-0.371L2.803,-0.334L2.541,-0.249L1.955,-0.059L1.636,0.045L0.891,0.287L0.731,0.339L0.356,0.461L-0.073,0.6L-1.092,0.931L-1.271,0.989L-0.833,2.336L-0.654,2.278L0.365,1.947L0.751,1.822L1.138,1.696L1.328,1.634Z" style="fill:rgb(66,76,160);fill-rule:nonzero;"/>
                    </g>
                    <g transform="matrix(1,0,0,1,955.142,1231.6)">
                        <path d="M0,-23.784L0.355,-23.62L1,-23.266L1.373,-22.491L1.288,-21.901L0.863,-21.133L0.593,-20.645L8.684,4.257L9.108,4.244L9.32,4.237L10.132,4.214L10.594,4.2L11.161,4.183L11.58,4.171L3.29,-21.344L2.755,-21.674L1.46,-22.476L2.04,-23.875L2.281,-24.451L1.114,-28.041L0.959,-27.991L0.727,-27.915L0.111,-27.715L-0.208,-27.611L-0.954,-27.369L-1.144,-27.307L-1.531,-27.181L-0.253,-23.249L-0.072,-23.632L0,-23.784Z" style="fill:rgb(66,76,160);fill-rule:nonzero;"/>
                    </g>
                    <g transform="matrix(1,0,0,1,930.743,1237.76)">
                        <path d="M0,-0.942L-0.298,-1.238L-0.545,-1.484L-0.843,-1.779L-1.052,-1.313L-1.244,-0.885L-1.492,-0.332L-1.734,0.208L-1.276,0.837L-0.59,0.324L0.166,-0.243L0.473,-0.472L0.247,-0.696L0,-0.942Z" style="fill:rgb(66,76,160);fill-rule:nonzero;"/>
                    </g>
                    <g transform="matrix(1,0,0,1,930.94,1241.9)">
                        <path d="M0,1.217L0.54,1.31L1.589,1.49L1.846,1.535L1.858,1.217L1.875,0.763L1.886,0.449L1.898,0.13L1.914,-0.318L0.943,0.071L0,0.449L0,1.217Z" style="fill:rgb(66,76,160);fill-rule:nonzero;"/>
                    </g>
                    <g transform="matrix(1,0,0,1,925.893,1239.98)">
                        <path d="M0,1.119L0.458,1.777L0.98,1.362L1.039,1.315L1.12,1.396L1.352,1.626L1.337,1.596L1.312,1.444L1.301,1.374L1.337,1.153L1.439,0.952L1.597,0.794L1.797,0.692L2.019,0.657L2.241,0.692L2.441,0.794L2.6,0.952L2.702,1.153L2.737,1.374L2.702,1.596L2.616,1.766L2.6,1.796L2.441,1.955L2.241,2.057L2.019,2.092L1.797,2.057L1.773,2.045L2.059,2.328L1.364,3.078L1.403,3.134L5.046,3.134L5.046,2.367L4.423,1.838L3.444,1.009L3.081,0.069L3.341,-0.698L3.574,-1.386L3.115,-2.015L2.183,-1.077L0,1.119Z" style="fill:rgb(66,76,160);fill-rule:nonzero;"/>
                    </g>
                    <g transform="matrix(1,0,0,1,1007.11,1190.78)">
                        <path d="M0,-1.633L-1.184,-1.205L-2.369,-0.776L-2.488,-0.733L-2.86,-0.598L-3.029,-0.537L-2.747,0.239L-2.579,0.179L-2.207,0.044L-2.088,0.001L-0.904,-0.428L0.281,-0.857L0.4,-0.9L0.772,-1.035L0.941,-1.095L0.66,-1.872L0.491,-1.811L0.12,-1.676L0,-1.633Z" style="fill:rgb(66,76,160);fill-rule:nonzero;"/>
                    </g>
                    <g transform="matrix(1,0,0,1,932.825,1243.42)">
                        <path d="M0,-1.07L-0.011,-0.757L-0.028,-0.302L-0.04,0.015L0.484,0.034L1.274,0.064L5.307,0.212L6.732,0.264L21.338,0.799L23.106,0.864L25.284,0.943L25.947,0.968L26.182,0.984L27.686,1.086L27.652,0.918L27.668,0.841L27.685,0.758L27.723,0.562L27.836,-0.006L27.873,-0.19L27.987,-0.762L27.997,-0.815L28.047,-1.066L26.523,-1.171L26.095,-1.2L25.627,-1.217L23.448,-1.298L21.681,-1.362L1.957,-2.085L1.148,-2.115L0.337,-2.145L0.04,-2.156L0.028,-1.838L0.012,-1.39L0,-1.07Z" style="fill:rgb(66,76,160);fill-rule:nonzero;"/>
                    </g>
                    <g transform="matrix(1,0,0,1,956.602,1193.03)">
                        <path d="M0,16.092L1.294,16.894L1.83,17.224L21.096,10.89L21.127,10.879L21.22,10.849L21.367,10.8L21.56,10.737L21.784,10.663L22.024,10.585L27.809,8.682L28.029,8.631L28.276,8.572L28.506,8.518L28.704,8.471L28.855,8.436L28.863,8.434L28.96,8.411L28.996,8.403L43.05,5.093L43.031,5.094L43.05,5.093L43.972,4.707L45.96,3.765L49.815,1.654L49.84,1.195L49.932,1.017L49.422,0.534L48.932,-0.507L48.264,-1.132L33.263,3.81L33.216,3.826L33.079,3.871L32.861,3.943L32.577,4.036L32.246,4.145L31.891,4.262L24.778,6.605L24.512,6.693L24.265,6.774L24.052,6.844L23.889,6.898L23.788,6.929L23.754,6.94L0.821,14.117L0.579,14.693L0,16.092Z" style="fill:rgb(66,76,160);fill-rule:nonzero;"/>
                    </g>
                    <g transform="matrix(1,0,0,1,1006.62,1238.59)">
                        <path d="M0,-43.36L-0.014,-43.561L-0.119,-43.69L-0.208,-43.9L-4.063,-41.79L-6.05,-40.848L-6.972,-40.461L-31.664,-6.481L-31.685,-6.451L-31.747,-6.366L-31.846,-6.23L-31.974,-6.053L-32.124,-5.847L-32.285,-5.626L-34.713,-2.284L-34.665,-2.253L-34.573,-2.194L-33.916,-1.777L-33.053,-1.229L-32.781,-1.055L-31.885,-0.485L-31.793,-0.354L-31.781,-0.337L-31.604,-0.085L-31.458,0.124L-31.166,0.54L-31.112,0.474L1.036,-38.966L0.701,-41.083L0,-43.36Z" style="fill:rgb(66,76,160);fill-rule:nonzero;"/>
                    </g>
                    <g transform="matrix(1,0,0,1,1011.23,1202.53)">
                        <path d="M0,-1.978L-1.184,-1.549L-2.369,-1.12L-2.563,-1.05L-2.86,-0.942L-3.134,-0.843L-2.728,0.276L-2.157,0.069L-2.103,0.05L-1.715,-0.09L-0.779,-0.43L0.157,-0.769L0.545,-0.909L0.599,-0.928L1.17,-1.135L0.765,-2.254L0.491,-2.156L0.194,-2.048L0,-1.978Z" style="fill:rgb(66,76,160);fill-rule:nonzero;"/>
                    </g>
                    <g transform="matrix(1,0,0,1,972.312,1239.28)">
                        <path d="M0,-0.164L-0.886,-0.755L-1.084,-0.888L-1.709,-1.012L-1.78,-1.026L-2.44,-0.136L-2.415,-0.096L-1.939,0.656L-1.808,0.862L-0.528,0.574L-0.206,0.502L0.693,0.299L0.203,-0.029L0,-0.164Z" style="fill:rgb(66,76,160);fill-rule:nonzero;"/>
                    </g>
                    <g transform="matrix(1,0,0,1,967.101,1241.12)">
                        <path d="M0,-2.879L-0.59,-2.762L-0.792,-2.722L-0.953,-2.614L-1.706,-2.11L-1.802,-2.046L-2.154,-1.811L-1.54,0.079L-1.512,0.036L-1.195,-0.176L-1.147,-0.208L-0.345,-0.743L-0.053,-0.939L-0.039,-0.942L0.589,-1.067L0.986,-1.146L0.397,-2.958L0,-2.879Z" style="fill:rgb(66,76,160);fill-rule:nonzero;"/>
                    </g>
                    <g transform="matrix(1,0,0,1,969.285,1239.6)">
                        <path d="M0,0.34L0.029,0.344L0.774,0.493L0.386,-0.119L0.365,-0.153L0,0.34Z" style="fill:rgb(66,76,160);fill-rule:nonzero;"/>
                    </g>
                    <g transform="matrix(1,0,0,1,963.038,1243.86)">
                        <path d="M0,0.131L-0.526,0.464L-0.679,0.561L-0.661,0.655L-0.634,0.79L1.237,0.935L1.326,0.942L1.266,0.637L1.259,0.603L1.24,0.507L1.234,0.478L1.362,-0.166L1.491,-0.811L0.567,-0.227L0,0.131Z" style="fill:rgb(66,76,160);fill-rule:nonzero;"/>
                    </g>
                    <g transform="matrix(1,0,0,1,962.682,1243.72)">
                        <path d="M0,-1.097L-0.033,-0.931L-0.128,-0.455L-0.183,-0.178L-0.235,0.087L-0.084,0.133L0.344,-0.138L1.119,-0.628L1.42,-0.818L1.49,-0.863L1.848,-1.089L0.026,-1.23L0,-1.097Z" style="fill:rgb(66,76,160);fill-rule:nonzero;"/>
                    </g>
                    <g transform="matrix(1,0,0,1,972.912,1246.46)">
                        <path d="M0,2.69L0.087,2.632L0.2,2.556L0.332,2.468L0.33,2.462L-0.038,0.825L-0.232,-0.037L-0.293,0.055L-0.409,0.227L-0.516,0.389L-0.609,0.527L-0.68,0.633L-0.725,0.7L-0.055,2.727L0,2.69Z" style="fill:rgb(221,221,221);fill-rule:nonzero;"/>
                    </g>
                    <g transform="matrix(0.580182,-0.814487,-0.814487,-0.580182,970.436,1238.44)">
                        <path d="M-0.12,0.064L-0.03,0.064L0.121,0.214L0.094,0.275L-0.12,0.064Z" style="fill:rgb(221,221,221);fill-rule:nonzero;"/>
                    </g>
                    <g transform="matrix(1,0,0,1,950.611,1227.81)">
                        <path d="M0,27.098L-1.094,29.245L-2.83,30.981L-2.925,31.077L-3.021,31.172L-5.107,33.257L-5.298,33.449L-7.002,35.154L-9.189,36.267L-9.31,36.329L-9.43,36.39L-12.058,37.729L-12.299,37.852L-14.447,38.946L-16.871,39.33L-17.005,39.352L-17.138,39.373L-20.051,39.834L-20.185,39.855L-20.318,39.877L-22.699,40.253L-25.123,39.869L-25.391,39.827L-28.303,39.366L-28.57,39.324L-30.951,38.946L-33.138,37.832L-33.258,37.771L-33.379,37.709L-36.006,36.37L-36.248,36.247L-38.395,35.154L-40.227,33.322L-40.322,33.226L-42.407,31.141L-42.599,30.95L-44.303,29.245L-45.417,27.059L-45.479,26.938L-45.54,26.817L-46.879,24.19L-47.002,23.949L-48.096,21.801L-48.48,19.377L-48.502,19.243L-48.523,19.109L-48.984,16.197L-49.026,15.93L-49.403,13.549L-49.02,11.125L-48.998,10.991L-48.977,10.857L-48.516,7.945L-48.474,7.677L-48.096,5.297L-46.982,3.11L-46.921,2.989L-46.859,2.869L-45.52,0.242L-45.398,0L-44.303,-2.148L-38.395,-8.056L-36.209,-9.17L-36.088,-9.232L-35.967,-9.293L-33.34,-10.631L-33.099,-10.755L-30.951,-11.849L-28.527,-12.233L-28.259,-12.275L-25.347,-12.736L-25.213,-12.757L-25.079,-12.779L-22.699,-13.156L-20.275,-12.772L-20.007,-12.73L-17.095,-12.268L-16.827,-12.226L-14.447,-11.849L-12.26,-10.735L-12.139,-10.673L-12.019,-10.612L-9.391,-9.273L-9.149,-9.15L-7.002,-8.056L-6.018,-7.071L-4.78,-8.316L-5.958,-9.494L-13.897,-13.539L-22.699,-14.933L-31.5,-13.539L-39.44,-9.494L-45.741,-3.193L-49.787,4.747L-51.181,13.549L-49.787,22.35L-45.741,30.29L-39.44,36.591L-31.5,40.637L-22.699,42.031L-13.897,40.637L-5.958,36.591L0.344,30.29L2.257,26.535L0.197,26.71L0.123,26.856L0,27.098Z" style="fill:rgb(221,221,221);fill-rule:nonzero;"/>
                    </g>
                    <g transform="matrix(1,0,0,1,944.654,1218.31)">
                        <path d="M0,46.085L-7.94,50.13L-16.741,51.524L-25.542,50.13L-33.482,46.085L-39.783,39.784L-43.829,31.844L-45.223,23.043L-43.829,14.241L-39.783,6.301L-33.482,0L-25.542,-4.045L-16.741,-5.439L-7.94,-4.045L0,0L1.177,1.178L2.703,-0.358L1.288,-1.772L-7.263,-6.129L-16.741,-7.631L-26.22,-6.129L-34.77,-1.772L-41.556,5.013L-45.913,13.564L-47.415,23.043L-45.913,32.522L-41.556,41.072L-34.77,47.858L-26.22,52.215L-16.741,53.716L-7.263,52.215L1.288,47.858L8.074,41.072L10.753,35.814L8.214,36.029L6.301,39.784L0,46.085Z" style="fill:rgb(221,221,221);fill-rule:nonzero;"/>
                    </g>
                    <g transform="matrix(1,0,0,1,968.769,1248.52)">
                        <path d="M0,-2.375L-0.691,-2.513L-1.653,-0.191L0,0.138L1.653,-0.191L0.692,-2.513L0,-2.375Z" style="fill:rgb(221,221,221);fill-rule:nonzero;"/>
                    </g>
                    <g transform="matrix(1,0,0,1,968.769,1242.66)">
                        <path d="M0,-2.65L-1.653,-2.321L-0.691,0L0,-0.137L0.181,-0.101L0.86,-0.406L1.653,-2.321L0,-2.65Z" style="fill:rgb(221,221,221);fill-rule:nonzero;"/>
                    </g>
                    <g transform="matrix(1,0,0,1,969.629,1240.34)">
                        <path d="M0,1.915L2.188,0.932L0.794,0L0,1.915Z" style="fill:rgb(221,221,221);fill-rule:nonzero;"/>
                    </g>
                    <g transform="matrix(1,0,0,1,967.492,1247.74)">
                        <path d="M0,-2.127L-0.392,-2.713L-2.713,-1.752L-1.777,-0.35L-0.375,0.586L0.586,-1.735L0,-2.127Z" style="fill:rgb(221,221,221);fill-rule:nonzero;"/>
                    </g>
                    <g transform="matrix(1,0,0,1,969.461,1247.42)">
                        <path d="M0,-1.414L0.962,0.908L2.363,-0.029L3.299,-1.43L1.145,-2.322L0.84,-2.185L0.586,-1.806L0,-1.414Z" style="fill:rgb(221,221,221);fill-rule:nonzero;"/>
                    </g>
                    <g transform="matrix(1,0,0,1,976.711,1254.1)">
                        <path d="M0,-9.93L-0.535,-6.878L-2.198,-4.263L-4.735,-2.483L-7.895,-1.786L-9.05,-1.691L-10.525,-1.57L-19.892,-0.775L-20.939,-0.686L-23.479,-0.471L-25.538,-0.297L-27.18,-0.158L-27.64,-0.118L-33.83,0.407L-34.018,0.423L-34.205,0.439L-36.693,0.65L-37.027,0.678L-39.534,0.89L-40.045,1.382L-41.812,1.724L-43.679,1.253L-44.02,1.167L-44.631,-0.068L-46.564,-2.723L-46.766,-3.001L-46.968,-3.278L-47.703,-4.288L-48.011,-4.711L-49.095,-6.201L-49.648,-6.96L-49.921,-7.336L-49.98,-7.2L-50.203,-6.683L-50.25,-6.683L-49.887,-6.201L-49.728,-5.99L-49.606,-5.828L-49.486,-5.667L-47.912,-3.578L-47.606,-3.17L-46.656,-1.909L-46.457,-1.644L-46.258,-1.38L-43.763,1.935L-42.526,1.83L-42.242,1.805L-40.568,1.664L-40.268,1.638L-36.472,1.316L-36.139,1.288L-33.49,1.063L-33.303,1.048L-33.116,1.031L-26.641,0.482L-26.181,0.443L-25.903,0.42L-23.843,0.245L-21.304,0.029L-20.256,-0.059L-10.486,-0.888L-7.744,-1.113L-4.454,-1.846L-3.097,-2.797L-3.079,-2.81L-3.026,-2.847L-2.942,-2.906L-2.832,-2.984L-2.703,-3.074L-2.566,-3.17L-1.694,-3.781L0.114,-6.625L0.153,-6.848L0.211,-7.177L0.265,-7.484L0.311,-7.746L0.368,-8.075L0.376,-8.118L0.697,-9.946L0.269,-11.865L-0.367,-11.579L0,-9.93Z" style="fill:rgb(221,221,221);fill-rule:nonzero;"/>
                    </g>
                    <g transform="matrix(1,0,0,1,962.584,1247.51)">
                        <path d="M0,-1.96L0.247,-0.717L1.234,0.76L2.986,-0.026L2.03,-1.456L1.78,-2.713L1.691,-2.72L0,-1.96Z" style="fill:rgb(221,221,221);fill-rule:nonzero;"/>
                    </g>
                    <g transform="matrix(1,0,0,1,977.022,1271.97)">
                        <path d="M0,-25.619L-0.046,-25.357L-0.1,-25.05L-0.158,-24.722L-0.197,-24.498L-2.005,-21.654L-2.877,-21.043L-3.014,-20.947L-3.143,-20.857L-3.253,-20.779L-3.337,-20.72L-3.39,-20.683L-2.14,-17.71L-0.215,-13.984L1.998,-10.42L4.483,-7.041L7.228,-3.869L10.213,-0.922L10.255,-0.969L11.632,0.329L11.722,0.329L10.323,-1.043L11.84,0.329L20.018,0.329L18.048,-0.966L20.043,0.329L20.092,0.329L18.085,-1.017L14.988,-3.425L12.096,-6.077L9.43,-8.954L7.006,-12.038L4.841,-15.309L2.949,-18.746L1.342,-22.325L0.057,-25.948L0,-25.619Z" style="fill:rgb(221,221,221);fill-rule:nonzero;"/>
                    </g>
                    <g transform="matrix(1,0,0,1,971.466,1239.63)">
                        <path d="M0,3.732L-0.146,3.732L-0.146,3.44L-0.292,3.44L-0.292,3.586L-0.438,3.586L-0.438,3.44L-0.73,3.44L-0.73,3.294L0,3.294L0,3.732ZM0,4.024L-0.73,4.024L-0.73,3.586L-0.584,3.586L-0.584,3.878L-0.438,3.878L-0.438,3.732L-0.292,3.732L-0.292,3.878L0,3.878L0,4.024ZM-2,5.339L-2.709,5.4L-3.253,4.942L-3.314,4.233L-2.856,3.689L-2.147,3.628L-1.602,4.086L-1.541,4.795L-2,5.339ZM2.426,0.713L2.266,0.785L1.928,0.938L1.536,1.113L1.512,1.125L0.515,1.572L0.351,1.646L-1.837,2.628L-2.516,2.934L-3.229,3.253L-4.206,4.391L-3.71,5.805L-2.237,6.083L-1.165,5.602L-0.86,5.465L1.558,4.379L1.721,4.305L3.492,3.509L3.655,3.437L4.878,2.887L5.515,2.601L13.23,-0.865L13.296,-0.951L9.246,-0.951L9.246,-2.351L4.267,-0.113L3.632,0.172L2.426,0.713Z" style="fill:rgb(221,221,221);fill-rule:nonzero;"/>
                    </g>
                    <g transform="matrix(1,0,0,1,997.136,1272.93)">
                        <rect x="-9.779" y="-0.635" width="12.69" height="0.635" style="fill:rgb(221,221,221);fill-rule:nonzero;"/>
                    </g>
                    <g transform="matrix(1,0,0,1,957.979,1246.32)">
                        <path d="M0,4.575L4.148,2.712L3.13,1.188L2.894,0L0.559,1.049L0,4.575Z" style="fill:rgb(221,221,221);fill-rule:nonzero;"/>
                    </g>
                    <g transform="matrix(1,0,0,1,955.931,1253.73)">
                        <path d="M0,-9.454L-1.767,-9.519L-2.202,-6.776L-2.244,-6.508L-2.621,-4.128L-2.694,-3.984L-3.505,-2.393L-3.726,-1.959L-3.735,-1.941L-3.797,-1.82L-3.858,-1.699L-4.758,0.065L-2.698,-0.109L-0.931,-3.579L0,-9.454Z" style="fill:rgb(221,221,221);fill-rule:nonzero;"/>
                    </g>
                    <g transform="matrix(1,0,0,1,950.955,1232.56)">
                        <path d="M0,-7.947L-3.593,-11.54L-4.83,-10.294L-3.334,-8.798L-3.142,-8.607L-1.438,-6.903L-0.324,-4.716L-0.262,-4.595L-0.201,-4.474L1.138,-1.846L1.261,-1.605L2.355,0.542L2.739,2.966L2.76,3.1L2.782,3.234L2.838,3.593L4.607,3.54L4.045,-0.007L0,-7.947Z" style="fill:rgb(221,221,221);fill-rule:nonzero;"/>
                    </g>
                    <g transform="matrix(1,0,0,1,969.319,1245.03)">
                        <path d="M0,-1.773L-0.709,-1.712L-1.167,-1.168L-1.106,-0.459L-0.561,0L0.147,-0.061L0.606,-0.606L0.545,-1.315L0,-1.773Z" style="fill:rgb(221,221,221);fill-rule:nonzero;"/>
                    </g>
                    <g transform="matrix(1,0,0,1,974.914,1207.3)">
                        <path d="M0,23.164L0.259,19.249L0.835,15.369L1.724,11.548L2.921,7.812L4.418,4.185L6.204,0.693L8.268,-2.643L10.596,-5.8L10.551,-5.836L10.543,-5.835L10.392,-5.799L10.194,-5.753L9.964,-5.698L9.717,-5.64L9.497,-5.588L3.712,-3.686L3.472,-3.607L3.248,-3.534L3.055,-3.471L2.908,-3.422L2.815,-3.392L1.669,-1.51L-0.223,2.233L-1.816,6.114L-3.099,10.107L-4.063,14.189L-4.703,18.335L-5.015,22.518L-4.997,26.713L-4.834,28.671L-4.77,28.682L-4.667,28.7L-4.534,28.724L-4.378,28.751L-4.211,28.781L-3.019,28.99L-3.003,29L-0.574,25.658L-0.413,25.437L-0.264,25.231L-0.135,25.054L-0.037,24.918L0.025,24.832L0.047,24.803L0.022,23.164L0,23.164Z" style="fill:rgb(221,221,221);fill-rule:nonzero;"/>
                    </g>
                    <g transform="matrix(0.195126,-0.980778,-0.980778,-0.195126,974.326,1246.01)">
                        <path d="M-0.693,-0.526L1.444,-0.526L-0.324,1.333L-2.668,0.292L-0.693,-0.526Z" style="fill:rgb(221,221,221);fill-rule:nonzero;"/>
                    </g>
                    <g transform="matrix(1,0,0,1,953.15,1251.3)">
                        <path d="M0,-1.512L-0.059,-1.437L-0.868,-0.377L-0.724,0.04L0.088,-1.552L0,-1.512Z" style="fill:rgb(221,221,221);fill-rule:nonzero;"/>
                    </g>
                    <g transform="matrix(1,0,0,1,952.727,1232.26)">
                        <path d="M0,-8.934L-3.841,-12.775L-5.366,-11.239L-1.773,-7.646L2.273,0.294L2.834,3.841L5.016,3.777L4.357,-0.383L0,-8.934Z" style="fill:rgb(221,221,221);fill-rule:nonzero;"/>
                    </g>
                    <g transform="matrix(1,0,0,1,956.273,1236.8)">
                        <path d="M0,5.322L2.179,5.402L2.313,4.557L1.578,-0.08L-0.603,-0.015L0.121,4.557L0,5.322Z" style="fill:rgb(221,221,221);fill-rule:nonzero;"/>
                    </g>
                    <g transform="matrix(1,0,0,1,965.978,1252.21)">
                        <path d="M0,-15.608L-0.382,-15.532L-0.417,-15.509L-1.124,-15.036L-1.267,-14.941L-1.618,-14.706L-3.072,-13.735L-4.869,-11.045L-5.106,-9.856L-5.156,-9.605L-5.166,-9.552L-5.28,-8.98L-5.316,-8.796L-5.43,-8.228L-5.468,-8.032L-5.485,-7.949L-5.5,-7.872L-5.467,-7.704L-5.105,-5.887L-4.869,-4.699L-3.851,-3.175L-3.072,-2.009L-0.382,-0.212L1.682,0.198L2.838,0.103L5.998,-0.594L8.535,-2.373L10.197,-4.988L10.733,-8.041L10.366,-9.69L9.143,-9.14L9.395,-7.872L8.892,-5.345L7.461,-3.202L5.318,-1.771L2.791,-1.268L0.264,-1.771L-1.879,-3.202L-3.311,-5.345L-3.813,-7.872L-3.311,-10.4L-1.879,-12.542L0.264,-13.974L2.791,-14.476L5.318,-13.974L7.461,-12.542L7.914,-11.863L9.119,-12.405L8.28,-13.602L5.665,-15.264L2.576,-15.806L0.719,-15.752L0.554,-15.718L0,-15.608Z" style="fill:rgb(221,221,221);fill-rule:nonzero;"/>
                    </g>
                    <g transform="matrix(1,0,0,1,972.106,1248.88)">
                        <path d="M0,-9.096L-0.321,-9.024L-1.602,-8.736L-1.733,-8.942L-2.208,-9.694L-2.234,-9.734L-2.247,-9.755L-2.973,-10.903L-1.862,-10.682L-1.84,-10.678L-1.773,-10.664L-1.668,-10.643L-1.61,-10.632L-1.574,-10.624L-1.502,-10.61L-0.877,-10.486L-0.679,-10.353L0.206,-9.762L0.409,-9.627L0.9,-9.299L0,-9.096ZM-2.792,-8.937L-2.82,-8.943L-2.835,-8.946L-3.337,-9.045L-4.018,-8.91L-4.415,-8.831L-5.043,-8.706L-5.058,-8.703L-5.35,-8.508L-6.151,-7.972L-6.199,-7.94L-6.516,-7.728L-6.545,-7.686L-7.247,-6.635L-7.811,-9.14L-7.159,-9.575L-6.807,-9.811L-6.711,-9.875L-5.957,-10.378L-5.796,-10.486L-5.595,-10.526L-5.005,-10.643L-4.607,-10.722L-3.42,-10.958L-2.467,-9.452L-2.434,-9.401L-2.047,-8.788L-2.792,-8.937ZM-7.576,-6.25L-7.934,-6.024L-8.004,-5.979L-8.305,-5.789L-9.08,-5.299L-9.507,-5.028L-9.691,-4.912L-9.659,-5.074L-9.606,-5.339L-9.551,-5.617L-9.457,-6.092L-9.423,-6.258L-9.397,-6.391L-9.274,-7.008L-8.087,-8.784L-7.524,-6.283L-7.576,-6.25ZM-7.705,-5.192L-7.834,-4.548L-7.828,-4.519L-7.802,-4.389L-7.741,-4.085L-7.491,-2.827L-6.536,-1.398L-6.516,-1.368L-5.423,-0.638L-7.928,-0.075L-8.287,-0.612L-9.274,-2.089L-9.522,-3.332L-9.702,-4.237L-9.728,-4.371L-9.747,-4.465L-9.594,-4.562L-9.068,-4.895L-8.501,-5.254L-7.577,-5.838L-7.705,-5.192ZM-3.7,1.806L-5.796,1.389L-7.573,0.202L-5.071,-0.361L-3.7,1.806ZM-3.337,-0.052L-1.616,-0.394L-0.157,-1.368L0.066,-1.702L0.081,-1.725L0.126,-1.792L0.197,-1.898L0.397,-2.198L0.513,-2.37L0.573,-2.462L0.767,-1.6L1.136,0.037L1.137,0.043L1.006,0.131L0.892,0.207L0.806,0.265L0.751,0.301L0.732,0.314L-0.877,1.389L-3.254,1.862L-4.626,-0.308L-3.337,-0.052ZM3.018,-4.185L2.601,-2.089L1.414,-0.312L0.851,-2.814L3.018,-4.185ZM-0.809,-10.65L-3.337,-11.152L-5.864,-10.65L-8.006,-9.218L-9.438,-7.075L-9.941,-4.548L-9.438,-2.021L-8.006,0.122L-5.864,1.553L-3.337,2.056L-0.809,1.553L1.333,0.122L2.765,-2.021L3.267,-4.548L3.015,-5.816L2.852,-5.743L3.074,-4.632L0.904,-3.259L1.16,-4.548L1.081,-4.948L0.918,-4.874L0.983,-4.548L0.654,-2.895L-0.282,-1.494L-1.684,-0.557L-3.337,-0.229L-4.99,-0.557L-6.391,-1.494L-7.327,-2.895L-7.656,-4.548L-7.327,-6.201L-6.391,-7.603L-4.99,-8.539L-3.337,-8.868L-1.684,-8.539L-0.289,-7.607L-0.125,-7.68L-0.157,-7.728L-0.749,-8.124L-0.895,-8.221L-1.25,-8.458L-0.625,-8.599L-0.332,-8.665L1.255,-9.022L1.385,-8.827L1.394,-8.814L1.526,-8.617L1.626,-8.468L1.786,-8.539L1.333,-9.218L-0.809,-10.65Z" style="fill:rgb(221,221,221);fill-rule:nonzero;"/>
                    </g>
                    <g transform="matrix(1,0,0,1,966.962,1244.33)">
                        <path d="M0,0L0.137,-0.692L-2.184,-1.653L-2.513,0L-2.184,1.653L0.137,0.691L0,0Z" style="fill:rgb(221,221,221);fill-rule:nonzero;"/>
                    </g>
                    <g transform="matrix(1,0,0,1,967.492,1240.93)">
                        <path d="M0,2.127L0.586,1.735L-0.375,-0.586L-1.777,0.35L-2.713,1.752L-0.392,2.713L0,2.127Z" style="fill:rgb(221,221,221);fill-rule:nonzero;"/>
                    </g>
                    <g transform="matrix(-0.195538,-0.980696,-0.980696,0.195538,970.954,1243.91)">
                        <path d="M-0.834,-2.011L-0.501,-2.011L-1.094,0.573L-2.39,-1.365L-0.834,-2.011Z" style="fill:rgb(221,221,221);fill-rule:nonzero;"/>
                    </g>
                    <g transform="matrix(1,0,0,1,975.021,1237.02)">
                        <path d="M0,1.487L-0.177,1.235L-0.189,1.217L-0.281,1.086L-1.177,0.516L-1.45,0.343L-2.312,-0.205L-2.969,-0.623L-3.061,-0.681L-3.109,-0.712L-3.126,-0.722L-4.318,-0.931L-4.485,-0.961L-4.641,-0.988L-4.774,-1.012L-4.877,-1.03L-4.941,-1.041L-4.963,-1.045L-6.418,-1.3L-8.299,-1.244L-8.718,-1.232L-9.285,-1.215L-9.747,-1.201L-10.559,-1.178L-10.771,-1.171L-11.195,-1.159L-16.378,-1.005L-17.278,-0.979L-19.459,-0.914L-21.228,-0.862L-23.103,-0.806L-23.802,-0.785L-24.501,-0.765L-36.104,-0.422L-36.849,-0.4L-38.64,-0.347L-38.917,-0.338L-39.195,-0.33L-41.961,-0.248L-42.283,-0.239L-43.331,-0.208L-43.805,0.27L-44.112,0.499L-43.866,0.492L-42.62,0.455L-41.504,0.422L-40.4,0.39L-40.122,0.381L-39.845,0.373L-38.583,0.336L-37.839,0.314L-27.949,0.021L-27.25,0.001L-26.551,-0.02L-21.12,-0.181L-19.351,-0.233L-17.17,-0.298L-16.27,-0.325L-10.975,-0.481L-10.551,-0.494L-10.359,-0.499L-9.527,-0.524L-9.079,-0.537L-8.498,-0.555L-8.323,-0.56L-6.467,-0.615L-3.378,-0.073L-0.763,1.59L0.077,2.787L0.712,2.502L0.526,2.237L0.497,2.195L0.438,2.112L0.146,1.695L0,1.487Z" style="fill:rgb(221,221,221);fill-rule:nonzero;"/>
                    </g>
                    <g transform="matrix(1,0,0,1,958.11,1253.55)">
                        <path d="M0,-9.185L-2.179,-9.265L-3.11,-3.389L-4.877,0.08L-2.338,-0.135L-1.025,-2.711L0,-9.185Z" style="fill:rgb(221,221,221);fill-rule:nonzero;"/>
                    </g>
                    <g transform="matrix(1,0,0,1,954.24,1239.93)">
                        <path d="M0,-0.953L0.377,1.427L0.266,2.128L2.033,2.192L2.154,1.427L1.43,-3.145L-0.339,-3.093L-0.043,-1.221L0,-0.953Z" style="fill:rgb(221,221,221);fill-rule:nonzero;"/>
                    </g>
                    <g transform="matrix(1,0,0,1,973.01,1243.14)">
                        <path d="M0,2.484L2.17,1.111L1.949,0L0.177,0.796L0.256,1.195L0,2.484Z" style="fill:rgb(221,221,221);fill-rule:nonzero;"/>
                    </g>
                    <g transform="matrix(1,0,0,1,1009.81,1180.3)">
                        <path d="M0,-0.254L0.306,0.211L0.392,0.342L0.476,0.468L0.786,0.939L0.915,1.134L1.005,1.27L1.037,1.319L3.38,-0.227L3.332,-0.299L3.233,-0.449L3.141,-0.589L3.062,-0.71L3.001,-0.802L2.992,-0.816L2.79,-0.529L2.623,-0.292L2.633,-0.196L2.09,0.45L1.252,0.538L1.034,0.357L0.734,0.117L0.641,0.042L0.595,-0.49L0.545,-0.698L0.536,-0.797L1.077,-1.441L1.17,-1.573L-0.252,-0.635L-0.22,-0.587L-0.127,-0.446L0,-0.254Z" style="fill:rgb(221,221,221);fill-rule:nonzero;"/>
                    </g>
                    <g transform="matrix(1,0,0,1,1057.66,1272.93)">
                        <rect x="-11.424" y="-0.635" width="12.691" height="0.635" style="fill:rgb(221,221,221);fill-rule:nonzero;"/>
                    </g>
                    <g transform="matrix(1,0,0,1,1025.23,1272.13)">
                        <path d="M0,-93.513L-4.182,-93.513L-4.186,-93.614L0.004,-93.614L0,-93.513ZM50.84,-46.495L50.199,-50.64L49.236,-54.722L47.953,-58.716L46.36,-62.596L44.467,-66.34L42.285,-69.923L39.828,-73.323L37.114,-76.518L34.153,-79.491L30.97,-82.221L27.579,-84.693L24.005,-86.889L20.272,-88.799L16.398,-90.408L12.407,-91.708L8.333,-92.689L4.188,-93.347L0.006,-93.678L-4.188,-93.678L-8.37,-93.347L-12.396,-92.708L-12.435,-92.653L-12.426,-92.639L-12.365,-92.547L-12.286,-92.427L-12.194,-92.286L-12.095,-92.136L-12.047,-92.064L-14.39,-90.518L-14.422,-90.567L-19.503,-87.217L-19.131,-86.19L-19.076,-86.035L-19.024,-85.892L-18.979,-85.768L-18.945,-85.674L-18.923,-85.614L-17.512,-86.155L-13.747,-87.257L-9.904,-88.049L-6.011,-88.526L-2.091,-88.686L1.829,-88.526L5.723,-88.049L9.566,-87.257L13.331,-86.155L16.993,-84.751L20.529,-83.054L23.916,-81.075L27.131,-78.828L30.156,-76.326L32.965,-73.588L35.542,-70.63L37.868,-67.472L39.934,-64.137L41.718,-60.644L43.216,-57.017L44.414,-53.282L45.302,-49.461L45.877,-45.58L46.138,-41.666L46.078,-37.743L45.697,-33.839L45.003,-29.978L43.998,-26.186L42.687,-22.489L41.08,-18.909L39.187,-15.473L37.022,-12.202L34.601,-9.117L31.932,-6.24L29.042,-3.589L25.943,-1.181L24.036,0.165L25.982,-1.129L24.223,0.165L32.189,0.165L33.772,-1.132L32.338,0.165L32.398,0.165L33.818,-1.085L36.8,-4.032L39.546,-7.204L42.031,-10.583L44.245,-14.147L46.17,-17.874L47.795,-21.741L49.113,-25.723L50.111,-29.797L50.787,-33.937L51.133,-38.117L51.154,-42.312L50.84,-46.495Z" style="fill:rgb(221,221,221);fill-rule:nonzero;"/>
                    </g>
                    <g transform="matrix(1,0,0,1,1012.34,1180.79)">
                        <path d="M0,-0.655L-0.201,-0.414L-0.472,-0.095L-0.508,-0.051L-1.17,0.02L-1.282,0.048L-0.443,-0.041L0.099,-0.687L0.034,-0.703L0,-0.655Z" style="fill:rgb(221,221,221);fill-rule:nonzero;"/>
                    </g>
                    <g transform="matrix(1,0,0,1,1010.34,1178.87)">
                        <path d="M0,0.625L0.071,0.646L0.227,0.428L0.409,0.166L0.541,-0.021L0,0.625Z" style="fill:rgb(221,221,221);fill-rule:nonzero;"/>
                    </g>
                    <g transform="matrix(1,0,0,1,1007.84,1183.77)">
                        <path d="M0,-2.908L-0.414,-2.635L-0.896,-2.317L-1.414,-1.976L-2.892,-1.002L-3.044,-0.21L-2.669,0.825L-2.113,1.15L2.968,-2.201L2.878,-2.337L2.75,-2.532L2.439,-3.003L2.356,-3.129L2.27,-3.26L1.963,-3.725L1.836,-3.917L1.743,-4.058L0.586,-3.294L0.517,-3.249L0.318,-3.117L0,-2.908Z" style="fill:rgb(221,221,221);fill-rule:nonzero;"/>
                    </g>
                    <g transform="matrix(1,0,0,1,980.655,1180.6)">
                        <path d="M0,19.274L0.213,19.204L0.46,19.123L0.726,19.035L7.839,16.692L8.194,16.575L8.524,16.466L8.809,16.373L9.026,16.301L9.164,16.256L9.21,16.24L10.256,15.22L10.242,15.204L13.264,12.703L16.479,10.455L19.867,8.477L23.037,6.956L23.015,6.896L22.981,6.801L22.936,6.676L22.884,6.532L22.827,6.377L21.536,2.809L21.499,2.707L21.887,2.566L22.823,2.227L23.758,1.889L24.146,1.748L24.296,2.163L25.774,1.189L26.292,0.847L26.774,0.529L27.188,0.256L27.506,0.047L27.705,-0.085L24,1.123L20.126,2.732L16.391,4.641L12.818,6.838L9.428,9.309L6.244,12.04L3.284,15.012L0.568,18.208L-0.264,19.359L-0.163,19.328L0,19.274Z" style="fill:rgb(221,221,221);fill-rule:nonzero;"/>
                    </g>
                    <g transform="matrix(1,0,0,1,1006.25,1185.81)">
                        <path d="M0,0.557L-0.045,0.433L-0.097,0.29L-0.153,0.135L-0.525,-0.891L-1.08,-1.216L-1.455,-2.251L-1.303,-3.043L-1.453,-3.457L-1.841,-3.317L-3.713,-2.639L-4.101,-2.499L-4.064,-2.396L-2.772,1.172L-2.716,1.327L-2.664,1.471L-2.619,1.596L-2.584,1.691L-2.563,1.75L-2.555,1.771L-1.743,4.014L-1.604,3.964L-1.355,3.874L-0.419,3.535L0.517,3.197L0.765,3.106L0.904,3.056L0.063,0.732L0.056,0.711L0.034,0.652L0,0.557Z" style="fill:rgb(221,221,221);fill-rule:nonzero;"/>
                    </g>
                    <g transform="matrix(1,0,0,1,1010.88,1179.04)">
                        <path d="M0,-0.188L-0.131,-0.001L-0.314,0.259L-0.469,0.479L-0.503,0.527L-0.492,0.652L-0.489,0.69L-0.482,0.763L-0.436,1.295L-0.343,1.37L-0.043,1.611L0.165,1.778L0.181,1.776L0.285,1.765L0.95,1.692L0.985,1.649L1.255,1.329L1.457,1.088L1.491,1.04L1.546,0.962L1.713,0.724L1.915,0.438L1.954,0.382L1.971,0.358L2.403,-0.255L2.855,-0.898L2.766,-0.889L2.171,-0.823L2.059,-0.913L1.458,-1.396L1.29,-1.531L1.252,-1.966L0.695,-1.176L0.412,-0.773L0.093,-0.32L0,-0.188Z" style="fill:rgb(221,221,221);fill-rule:nonzero;"/>
                    </g>
                    <g transform="matrix(1,0,0,1,1012.12,1177.2)">
                        <path d="M0,-0.797L0.723,-1.657L1.84,-1.779L2.696,-1.093L2.79,-0L2.067,0.861L0.95,0.983L0.095,0.296L0,-0.797ZM0.225,0.451L0.827,0.933L0.938,1.023L1.534,0.958L1.623,0.949L2.087,0.898L2.462,0.451L2.831,0.013L2.733,-1.113L2.342,-1.427L1.852,-1.82L0.703,-1.694L-0.04,-0.81L0.02,-0.12L0.057,0.316L0.225,0.451Z" style="fill:rgb(221,221,221);fill-rule:nonzero;"/>
                    </g>
                    <g transform="matrix(1,0,0,1,1014.95,1176.21)">
                        <path d="M0,1.003L-0.368,1.44L0.63,1.076L0.434,1.076L0.434,-0.214L0.842,-0.214L-0.489,-0.437L-0.097,-0.123L0,1.003Z" style="fill:rgb(221,221,221);fill-rule:nonzero;"/>
                    </g>
                    <g transform="matrix(1,0,0,1,953.751,1184.57)">
                        <path d="M0,18.318L0.745,18.076L1.065,17.972L1.65,17.782L1.912,17.696L2.025,17.66L-3.769,-0.174L-4.036,-0.128L-4.162,-0.106L-4.753,-0.004L-5.094,0.107L-5.999,0.401L-6.374,0.523L-0.535,18.492L-0.16,18.37L0,18.318Z" style="fill:rgb(221,221,221);fill-rule:nonzero;"/>
                    </g>
                    <g transform="matrix(1,0,0,1,981.905,1235.96)">
                        <path d="M0,0.81L3.335,0.81L3.172,0.34L1.802,0L0,0.81Z" style="fill:rgb(221,221,221);fill-rule:nonzero;"/>
                    </g>
                    <g transform="matrix(1,0,0,1,1013.21,1204.14)">
                        <path d="M0,7.607L0.654,7.37L0.987,7.25L1.308,7.133L1.579,7.035L1.247,6.12L1.2,6.138L0.333,3.743L0.381,3.726L-0.891,0.212L-0.961,0.237L-1.083,-0.098L-1.283,-0.025L-1.937,0.212L-2.592,0.448L-2.862,0.546L-0.271,7.705L-0.044,7.623L0,7.607Z" style="fill:rgb(221,221,221);fill-rule:nonzero;"/>
                    </g>
                    <g transform="matrix(1,0,0,1,1014.4,1207.71)">
                        <path d="M0,-4.112L-0.827,-3.813L-1.653,-3.514L-1.763,-3.474L-1.996,-3.389L-0.724,0.124L-0.475,0.034L-0.381,-0L0.445,-0.299L1.272,-0.598L1.365,-0.632L1.614,-0.722L0.343,-4.236L0.109,-4.152L0,-4.112Z" style="fill:rgb(221,221,221);fill-rule:nonzero;"/>
                    </g>
                    <g transform="matrix(1,0,0,1,1011.27,1204.31)">
                        <path d="M0,0.04L0.654,-0.197L0.854,-0.27L0.71,-0.67L0.188,-0.481L-0.145,-0.361L-0.844,-0.108L-1.454,0.114L-1.588,0.162L-1.997,0.31L-1.852,0.71L-1.31,0.514L-0.925,0.374L-0.654,0.276L0,0.04Z" style="fill:rgb(221,221,221);fill-rule:nonzero;"/>
                    </g>
                    <g transform="matrix(1,0,0,1,1016.53,1211.02)">
                        <path d="M0,-1.514L-0.827,-1.215L-1.654,-0.915L-1.747,-0.882L-1.996,-0.791L-1.664,0.124L-1.322,0L-1.087,-0.085L-0.496,-0.3L-0.39,-0.338L0.331,-0.599L0.457,-0.644L0.674,-0.723L0.342,-1.638L0.093,-1.548L0,-1.514Z" style="fill:rgb(221,221,221);fill-rule:nonzero;"/>
                    </g>
                    <g transform="matrix(1,0,0,1,1015.67,1210.11)">
                        <path d="M0,-2.993L-0.827,-2.694L-1.654,-2.394L-1.747,-2.36L-1.996,-2.27L-2.08,-2.24L-2.128,-2.222L-1.262,0.172L-1.214,0.154L-1.129,0.124L-0.88,0.034L-0.787,0L0.867,-0.598L0.96,-0.633L1.209,-0.722L1.341,-0.77L0.475,-3.165L0.342,-3.117L0.093,-3.027L0,-2.993Z" style="fill:rgb(221,221,221);fill-rule:nonzero;"/>
                    </g>
                    <g transform="matrix(1,0,0,1,1009.83,1203.15)">
                        <path d="M0,0.147L-0.373,0.282L-0.388,0.287L-0.916,0.478L-0.839,0.691L-0.429,0.543L-0.296,0.495L0.315,0.273L1.013,0.021L1.346,-0.1L1.985,-0.332L1.908,-0.544L1.872,-0.531L0,0.147Z" style="fill:rgb(221,221,221);fill-rule:nonzero;"/>
                    </g>
                    <g transform="matrix(1,0,0,1,1009.52,1202.76)">
                        <path d="M0,-0.32L-0.388,-0.18L-0.077,0.678L-0.063,0.673L0.31,0.538L1.247,0.199L2.183,-0.14L1.872,-0.998L0,-0.32Z" style="fill:rgb(221,221,221);fill-rule:nonzero;"/>
                    </g>
                    <g transform="matrix(1,0,0,1,1012.27,1201.61)">
                        <path d="M0,1.04L0.157,0.983L0.854,0.731L0.902,0.713L1.701,0.424L1.721,0.416L1.977,0.324L1.8,-0.166L1.544,-0.074L0.725,0.223L-0.178,0.55L-0.283,0.588L-0.635,0.715L-0.534,0.993L-0.458,1.206L0,1.04Z" style="fill:rgb(221,221,221);fill-rule:nonzero;"/>
                    </g>
                    <g transform="matrix(1,0,0,1,1002.44,1259.38)">
                        <path d="M0,-36.059L-4.357,-27.508L-5.858,-18.03L-4.357,-8.551L0,-0L6.786,6.786L15.336,11.143L24.815,12.644L34.295,11.143L42.843,6.786L49.629,-0L53.986,-8.551L55.487,-18.03L53.986,-27.508L49.629,-36.059L42.843,-42.845L34.295,-47.202L24.815,-48.703L15.44,-47.218L16.191,-45.145L24.815,-46.512L33.615,-45.117L41.557,-41.072L47.856,-34.771L51.903,-26.831L53.299,-18.03L51.903,-9.228L47.856,-1.288L41.557,5.013L33.615,9.058L24.815,10.452L16.014,9.058L8.074,5.013L1.773,-1.288L-2.273,-9.228L-3.667,-18.03L-2.273,-26.831L1.773,-34.771L8.074,-41.072L13.939,-44.06L13.196,-46.111L6.786,-42.845L0,-36.059Z" style="fill:rgb(221,221,221);fill-rule:nonzero;"/>
                    </g>
                    <g transform="matrix(1,0,0,1,1017.08,1218.54)">
                        <path d="M0,-7.52L-0.721,-7.259L-0.827,-7.221L-1.418,-7.006L-1.653,-6.921L-1.996,-6.797L-1.749,-6.115L-1.442,-5.269L-0.7,-3.217L-0.098,-1.554L0.51,0.124L0.737,0.042L0.852,0L2.506,-0.598L2.621,-0.64L2.848,-0.723L2.16,-2.622L1.552,-4.303L0.802,-6.375L0.492,-7.23L0.343,-7.644L0.125,-7.565L0,-7.52Z" style="fill:rgb(221,221,221);fill-rule:nonzero;"/>
                    </g>
                    <g transform="matrix(1,0,0,1,1004.22,1258.1)">
                        <path d="M0,-33.482L-4.046,-25.542L-5.44,-16.741L-4.046,-7.94L0,-0L6.301,6.302L14.241,10.347L23.042,11.741L31.842,10.347L39.784,6.302L46.083,-0L50.13,-7.94L51.526,-16.741L50.13,-25.542L46.083,-33.482L39.784,-39.783L31.842,-43.828L23.042,-45.223L14.418,-43.857L15.026,-42.176L17.214,-42.523L17.482,-42.565L20.394,-43.025L20.662,-43.068L23.042,-43.445L25.466,-43.061L25.734,-43.019L28.645,-42.557L28.913,-42.515L31.296,-42.138L33.481,-41.024L33.601,-40.962L33.724,-40.901L36.35,-39.562L36.59,-39.439L38.74,-38.345L40.475,-36.61L40.665,-36.418L42.752,-34.333L42.942,-34.142L44.648,-32.438L45.762,-30.251L45.822,-30.13L45.885,-30.009L47.221,-27.381L47.345,-27.14L48.441,-24.993L48.825,-22.569L48.846,-22.435L48.868,-22.301L49.326,-19.389L49.368,-19.121L49.745,-16.741L49.365,-14.316L49.343,-14.183L49.322,-14.049L48.861,-11.137L48.818,-10.869L48.441,-8.489L47.327,-6.302L47.264,-6.181L47.204,-6.06L45.864,-3.433L45.741,-3.191L44.648,-1.044L42.91,0.691L42.72,0.883L40.633,2.968L40.443,3.16L38.74,4.864L36.551,5.978L36.431,6.039L36.312,6.101L33.682,7.439L33.442,7.562L31.296,8.657L28.87,9.041L28.602,9.083L25.69,9.544L25.423,9.587L23.042,9.964L20.618,9.58L20.35,9.538L17.438,9.076L17.171,9.034L14.79,8.657L12.603,7.543L12.483,7.481L12.362,7.42L9.735,6.081L9.493,5.958L7.346,4.864L5.419,2.937L3.334,0.851L3.142,0.66L1.438,-1.044L0.324,-3.231L0.262,-3.352L0.201,-3.472L-1.138,-6.1L-1.261,-6.341L-2.355,-8.489L-2.739,-10.912L-2.76,-11.046L-2.782,-11.18L-3.243,-14.093L-3.285,-14.36L-3.662,-16.741L-3.279,-19.165L-3.257,-19.298L-3.236,-19.432L-2.774,-22.345L-2.733,-22.612L-2.355,-24.993L-1.241,-27.179L-1.18,-27.3L-1.118,-27.421L0.221,-30.048L0.343,-30.29L1.438,-32.438L3.269,-34.269L3.365,-34.364L5.45,-36.449L5.641,-36.641L7.346,-38.345L9.532,-39.46L9.653,-39.521L9.774,-39.583L12.403,-40.921L12.642,-41.044L12.768,-41.108L12.166,-42.771L6.301,-39.783L0,-33.482Z" style="fill:rgb(221,221,221);fill-rule:nonzero;"/>
                    </g>
                    <g transform="matrix(1,0,0,1,931.504,1245.52)">
                        <path d="M0.179,-12.172L-0.179,-12.024L-2.043,-11.251L-2.35,-11.124L-2.655,-10.997L-2.76,-10.954L-2.797,-10.927L-2.943,-10.82L-3.097,-10.707L-4.13,-9.947L-5.168,-9.185L-7.887,-7.187L-8.811,-6.508L-8.997,-6.239L-10.456,-4.125L-10.574,-3.954L-10.659,-3.462L-10.706,-3.187L-10.763,-2.858L-10.788,-2.714L-10.813,-2.569L-10.883,-2.164L-10.518,-1.134L-10.427,-0.878L-10.407,-0.821L-10.159,-0.615L-10.049,-0.523L-9.939,-0.432L-9.478,-0.049L-8.587,0.289L-8.446,0.342L-6.412,0.342L-6.412,0.173L-8.495,0.173L-9.042,-0.041L-9.4,-0.182L-9.78,-0.527L-9.885,-0.621L-9.99,-0.717L-10.238,-0.942L-10.243,-0.957L-10.33,-1.213L-10.669,-2.208L-10.597,-2.619L-10.572,-2.763L-10.546,-2.907L-10.494,-3.205L-10.446,-3.481L-10.376,-3.881L-10.366,-3.938L-9.241,-5.487L-8.558,-6.427L-8,-6.841L-4.831,-9.185L-3.801,-9.947L-2.774,-10.707L-2.675,-10.78L-2.648,-10.801L-2.402,-10.902L-2.095,-11.029L-0.285,-11.776L-0.106,-11.849L0.072,-11.923L0.478,-12.09L0.826,-12.44L0.179,-12.172Z" style="fill:rgb(221,221,221);fill-rule:nonzero;"/>
                    </g>
                    <g transform="matrix(1,0,0,1,923.058,1247.34)">
                        <path d="M0,-1.474L-0.141,-1.527L0.083,-1.364L0.273,-1.226L0.493,-1.066L1.542,-0.305L1.762,-0.145L1.952,-0.007L2.034,0.053L2.034,-0.886L1.225,-1.474L0,-1.474Z" style="fill:rgb(221,221,221);fill-rule:nonzero;"/>
                    </g>
                    <g transform="matrix(1,0,0,1,923.767,1243.8)">
                        <path d="M0,-5.125L-0.805,-2.443L0.121,0.199L1.183,1.61L1.324,1.798L1.324,1.358L0.44,0.498L0.44,-0.328L0.612,-0.466L-0.086,-2.46L0.591,-4.716L0.756,-4.842L0.772,-4.892L1.803,-5.641L2.461,-6.143L2.495,-6.144L2.857,-6.406L5.433,-6.406L5.483,-6.37L5.732,-6.923L2.221,-6.819L0,-5.125Z" style="fill:rgb(221,221,221);fill-rule:nonzero;"/>
                    </g>
                    <g transform="matrix(1,0,0,1,1016.87,1212.41)">
                        <path d="M0,-1.982L-0.721,-1.721L-0.827,-1.683L-1.418,-1.468L-1.653,-1.383L-1.995,-1.259L-2.08,-1.229L-2.351,-1.131L-2.672,-1.015L-3.005,-0.894L-3.659,-0.657L-3.703,-0.641L-3.93,-0.559L-4.447,-0.372L-4.857,-0.224L-4.641,0.373L-4.231,0.225L-3.714,0.038L-3.487,-0.045L-3.443,-0.061L-2.789,-0.297L-2.456,-0.418L-2.135,-0.534L-1.864,-0.632L-1.78,-0.663L-1.437,-0.787L-1.202,-0.872L-0.611,-1.086L-0.505,-1.124L0.216,-1.385L0.342,-1.43L0.559,-1.509L0.978,-1.661L1.245,-1.757L1.029,-2.355L0.762,-2.257L0.343,-2.106L0.126,-2.027L0,-1.982Z" style="fill:rgb(142,142,142);fill-rule:nonzero;"/>
                    </g>
                    <g transform="matrix(1,0,0,1,1014.41,1212.62)">
                        <path d="M0,-0.626L-0.333,-0.505L-0.987,-0.269L-1.031,-0.252L-1.258,-0.17L-1.119,0.214L-0.848,0.116L0.46,-0.358L0.731,-0.456L0.592,-0.84L0.321,-0.742L0,-0.626Z" style="fill:rgb(142,142,142);fill-rule:nonzero;"/>
                    </g>
                    <g transform="matrix(1,0,0,1,968.078,1246)">
                        <path d="M0,-3.338L-0.586,-2.946L-0.978,-2.36L-1.115,-1.669L-0.978,-0.978L-0.586,-0.391L0,0L0.691,0.138L1.383,0L1.969,-0.391L2.223,-0.771L1.152,-0.29L-0.321,-0.568L-0.817,-1.983L0.16,-3.12L0.872,-3.44L0.691,-3.476L0,-3.338Z" style="fill:rgb(142,142,142);fill-rule:nonzero;"/>
                    </g>
                    <g transform="matrix(0.929784,-0.368106,-0.368106,-0.929784,1018.65,1177.4)">
                        <path d="M-0.207,0.207L0.739,0.207L0.973,0.97L0.268,1.406L-0.207,0.207Z" style="fill:rgb(142,142,142);fill-rule:nonzero;"/>
                    </g>
                    <g transform="matrix(1,0,0,1,1015.38,1177.28)">
                        <rect x="0" y="-1.291" width="2.998" height="1.291" style="fill:rgb(142,142,142);fill-rule:nonzero;"/>
                    </g>
                    <g transform="matrix(1,0,0,1,1013.97,1203.05)">
                        <path d="M0,-1.016L-0.799,-0.727L-0.847,-0.709L-1.544,-0.457L-1.26,0.327L-0.668,0.113L-0.563,0.075L0.268,-0.226L0.284,-0.231L0.656,-0.366L0.92,-0.462L1.187,-0.558L0.903,-1.343L0.636,-1.246L0.276,-1.116L0.02,-1.024L0,-1.016Z" style="fill:rgb(142,142,142);fill-rule:nonzero;"/>
                    </g>
                    <g transform="matrix(1,0,0,1,1009.81,1202.79)">
                        <path d="M0,1.637L0.611,1.415L1.31,1.162L1.643,1.042L2.164,0.853L2.552,0.713L2.896,0.588L2.612,-0.196L2.455,-0.139L1.997,0.026L1.359,0.258L1.025,0.378L0.327,0.631L-0.284,0.852L-0.417,0.9L-0.826,1.049L-0.542,1.833L-0.133,1.685L0,1.637Z" style="fill:rgb(142,142,142);fill-rule:nonzero;"/>
                    </g>
                    <g transform="matrix(1,0,0,1,1014.24,1204.24)">
                        <path d="M0,-1.414L-0.831,-1.113L-0.936,-1.075L-1.528,-0.861L-1.872,-0.736L-2.26,-0.596L-2.115,-0.195L-1.993,0.14L-1.923,0.114L-1.839,0.084L-1.606,-0.001L-1.496,-0.04L-0.67,-0.34L0.157,-0.639L0.266,-0.678L0.5,-0.763L0.654,-0.819L0.388,-1.554L0.016,-1.419L0,-1.414Z" style="fill:rgb(142,142,142);fill-rule:nonzero;"/>
                    </g>
                    <g transform="matrix(1,0,0,1,1006.77,1189.92)">
                        <path d="M0,-0.914L-0.936,-0.576L-1.872,-0.237L-2.121,-0.147L-2.26,-0.097L-2.611,0.031L-2.526,0.268L-2.154,0.133L-2.035,0.09L-0.85,-0.339L0.334,-0.767L0.454,-0.81L0.825,-0.945L0.739,-1.182L0.388,-1.055L0.249,-1.004L0,-0.914Z" style="fill:rgb(142,142,142);fill-rule:nonzero;"/>
                    </g>
                    <g transform="matrix(-0.968835,0.247707,0.247707,0.968835,1009.75,1179.85)">
                        <path d="M-1.887,-1.155L-1.023,-1.155L0.145,-0.237L-1.466,-0.794L-1.887,-1.155Z" style="fill:rgb(142,142,142);fill-rule:nonzero;"/>
                    </g>
                    <g transform="matrix(1,0,0,1,952.727,1223.33)">
                        <path d="M0,36.058L-6.786,42.844L-15.337,47.201L-24.815,48.702L-34.294,47.201L-42.844,42.844L-49.63,36.058L-53.987,27.508L-55.489,18.029L-53.987,8.55L-49.63,-0.001L-42.844,-6.786L-34.294,-11.143L-24.815,-12.645L-15.337,-11.143L-6.786,-6.786L-5.371,-5.372L-4.741,-6.005L-6.254,-7.518L-15.057,-12.004L-24.815,-13.549L-34.573,-12.004L-43.376,-7.518L-50.362,-0.532L-54.847,8.271L-56.393,18.029L-54.847,27.787L-50.362,36.59L-43.376,43.576L-34.573,48.061L-24.815,49.607L-15.057,48.061L-6.254,43.576L0.732,36.59L3.727,30.711L2.679,30.8L0,36.058Z" style="fill:rgb(142,142,142);fill-rule:nonzero;"/>
                    </g>
                    <g transform="matrix(1,0,0,1,949.715,1183.82)">
                        <path d="M0,0.617L0.267,0.571L2.607,0.167L2.772,0.139L7.93,0.139L9.035,1.117L9.168,1.235L10.136,1.106L11.189,0.966L12.15,0.838L12.757,0.757L12.869,0.537L12.581,0.006L11.957,-0.482L9.545,-1.305L7.722,-1.366L6.665,-1.402L6.64,-1.403L3.094,-1.521L3.088,-1.521L0.267,-1.615L-1.994,-1.692L-3.363,-1.737L-5.258,-1.8L-6.216,-1.833L-7.161,-1.864L-7.794,-1.885L-11.817,-1.73L-12.817,-1.314L-12.817,-0.778L-7.599,2.231L-6.452,2.502L-5.003,2.248L-2.543,1.325L-1.217,0.827L-0.717,0.741L-0.126,0.638L0,0.617Z" style="fill:rgb(142,142,142);fill-rule:nonzero;"/>
                    </g>
                    <g transform="matrix(1,0,0,1,953.459,1232.09)">
                        <path d="M0,-9.3L-3.943,-13.243L-4.573,-12.609L-0.732,-8.768L3.625,-0.217L4.284,3.943L5.184,3.916L4.485,-0.497L0,-9.3Z" style="fill:rgb(142,142,142);fill-rule:nonzero;"/>
                    </g>
                    <g transform="matrix(1,0,0,1,958.452,1236.74)">
                        <path d="M0,5.463L0.468,5.48L0.897,5.509L1.038,4.618L0.299,-0.046L-0.601,-0.019L0.134,4.618L0,5.463Z" style="fill:rgb(142,142,142);fill-rule:nonzero;"/>
                    </g>
                    <g transform="matrix(1,0,0,1,922.995,1237.07)">
                        <path d="M0,0.708L-0.487,2.208L-0.302,1.939L0.622,1.26L0.649,1.179L3.287,-0.738L3.341,-0.738L4.379,-1.5L3.039,-1.5L0,0.708Z" style="fill:rgb(142,142,142);fill-rule:nonzero;"/>
                    </g>
                    <g transform="matrix(1,0,0,1,926.983,1241.4)">
                        <path d="M1.424,-6.582L-1.196,-6.582L-1.765,-6.169L-1.989,-6.006L-2.179,-5.868L-2.399,-5.708L-3.448,-4.946L-3.667,-4.787L-3.857,-4.648L-3.969,-4.567L-4.082,-4.485L-4.635,-4.084L-4.852,-3.415L-4.937,-3.151L-5.01,-2.928L-5.094,-2.67L-5.495,-1.437L-5.578,-1.178L-5.651,-0.955L-5.737,-0.691L-5.948,-0.041L-5.935,0L-4.476,-2.114L-3.989,-3.614L-0.949,-5.822L0.391,-5.822L1.424,-6.582Z" style="fill:rgb(142,142,142);fill-rule:nonzero;"/>
                    </g>
                    <g transform="matrix(-0.305629,0.952151,0.952151,0.305629,924.51,1235.78)">
                        <path d="M2.615,-0.071L2.7,-0.071L-0.033,1.907L-0.016,1.855L2.615,-0.071Z" style="fill:rgb(142,142,142);fill-rule:nonzero;"/>
                    </g>
                    <g transform="matrix(1,0,0,1,1027.26,1272.03)">
                        <path d="M0,-61.347L9.48,-59.846L18.028,-55.489L24.814,-48.703L29.171,-40.152L30.672,-30.674L29.171,-21.195L24.814,-12.644L18.028,-5.858L9.48,-1.501L0,0L-9.479,-1.501L-18.029,-5.858L-24.815,-12.644L-29.172,-21.195L-30.673,-30.674L-29.172,-40.152L-24.815,-48.703L-18.029,-55.489L-11.619,-58.755L-11.925,-59.601L-18.561,-56.221L-25.547,-49.235L-30.032,-40.431L-31.578,-30.674L-30.032,-20.916L-25.547,-12.113L-18.561,-5.126L-9.758,-0.641L0,0.904L9.758,-0.641L18.56,-5.126L25.547,-12.113L30.031,-20.916L31.578,-30.674L30.031,-40.431L25.547,-49.235L18.56,-56.221L9.758,-60.706L0,-62.251L-9.684,-60.717L-9.375,-59.862L0,-61.347Z" style="fill:rgb(142,142,142);fill-rule:nonzero;"/>
                    </g>
                    <g transform="matrix(1,0,0,1,935.738,1252.57)">
                        <path d="M0,-2.338L-0.227,-2.041L-0.871,-2.188L-1.035,-2.619L-1.355,-2.672L-1.355,-1.054L1.164,0.334L1.164,-0.366L1.494,-0.618L1.6,-0.698L1.579,-0.932L1.564,-1.103L1.362,-1.32L1.271,-1.287L0.999,-1.188L0.95,-1.17L0.424,-1.702L0.455,-1.814L0.54,-2.129L0.556,-2.188L0.373,-2.386L0.307,-2.397L0.074,-2.435L0,-2.338Z" style="fill:rgb(142,142,142);fill-rule:nonzero;"/>
                    </g>
                    <g transform="matrix(-0.395918,0.918286,0.918286,0.395918,928.307,1245.78)">
                        <path d="M-0.071,-1.006L1.076,-1.006L0.482,0.37L-0.342,-0.378L-0.071,-1.006Z" style="fill:rgb(142,142,142);fill-rule:nonzero;"/>
                    </g>
                    <g transform="matrix(1,0,0,1,931.561,1248.85)">
                        <path d="M0,-3.399L-1.234,-3.399L-1.932,-2.303L-1.902,-2.021L-1.488,-1.922L-1.285,-1.874L-1.174,-1.535L-1.803,-1.089L-1.79,-0.957L-1.773,-0.797L-1.538,-0.595L-0.852,-0.819L-0.644,-0.635L-0.852,-0.005L-0.625,0.19L-0.299,0.176L-0.141,0.169L-0.059,0.051L0.236,-0.372L0.262,-0.408L0.371,-0.409L0.527,-0.411L0.888,-0.415L0.888,-0.953L0.196,-1.77L0.969,-2.679L0,-3.589L0,-3.399Z" style="fill:rgb(142,142,142);fill-rule:nonzero;"/>
                    </g>
                    <g transform="matrix(1,0,0,1,926.957,1247.14)">
                        <path d="M0,-0.763L-0.168,-0.375L0.107,0L2.834,0L3.117,-0.205L2.702,-0.304L2.672,-0.587L2.469,-0.266L1.67,-0.266L1.5,-0.763L0,-0.763Z" style="fill:rgb(142,142,142);fill-rule:nonzero;"/>
                    </g>
                    <g transform="matrix(1,0,0,1,929.791,1247.69)">
                        <path d="M0,-0.553L-2.727,-0.553L-2.175,0.206L-0.019,0.206L-0.034,0.074L0.596,-0.37L0.484,-0.71L0.283,-0.759L0,-0.553Z" style="fill:rgb(142,142,142);fill-rule:nonzero;"/>
                    </g>
                    <g transform="matrix(1,0,0,1,926.229,1238.15)">
                        <path d="M0,-0.501L-0.659,0L0.034,-0.501L0,-0.501Z" style="fill:rgb(142,142,142);fill-rule:nonzero;"/>
                    </g>
                    <g transform="matrix(1,0,0,1,928.076,1242.29)">
                        <path d="M0,-3.385L-0.164,-3.411L-0.93,-3.29L-1.62,-2.937L-2.168,-2.39L-2.52,-1.699L-2.642,-0.933L-2.52,-0.168L-2.422,0.026L-1.725,-0.531L-2.183,-1.189L0,-3.385Z" style="fill:rgb(142,142,142);fill-rule:nonzero;"/>
                    </g>
                    <g transform="matrix(1,0,0,1,924.358,1243.21)">
                        <path d="M0,-4.127L-0.675,-1.87L0.021,0.125L0.025,0.121L-0.615,-1.851L0.166,-4.252L0,-4.127Z" style="fill:rgb(142,142,142);fill-rule:nonzero;"/>
                    </g>
                    <g transform="matrix(1,0,0,1,926.624,1243.33)">
                        <path d="M0,-5.937L-0.361,-5.674L-1.053,-5.172L-2.085,-4.422L-2.101,-4.373L-2.881,-1.972L-2.24,0L-0.969,-1.013L-1.068,-1.206L-1.189,-1.972L-1.068,-2.737L-0.716,-3.428L-0.168,-3.976L0.523,-4.328L1.288,-4.449L1.452,-4.423L2.385,-5.361L2.626,-5.901L2.577,-5.937L0,-5.937Z" style="fill:rgb(142,142,142);fill-rule:nonzero;"/>
                    </g>
                    <g transform="matrix(1,0,0,1,929.615,1244.08)">
                        <path d="M0,-0.967L-0.245,-0.721L-0.306,-0.692L1.29,0L1.672,-0.277L1.865,-0.875L1.326,-0.967L0,-0.967Z" style="fill:rgb(142,142,142);fill-rule:nonzero;"/>
                    </g>
                    <g transform="matrix(1,0,0,1,926.81,1243.26)">
                        <path d="M0,0.276L0.338,0.446L0.56,0.482L0.896,0.121L2.488,0.121L2.498,0.125L2.559,0.096L2.805,-0.15L0.487,-0.15L0.447,-0.206L0,0.276Z" style="fill:rgb(142,142,142);fill-rule:nonzero;"/>
                    </g>
                    <g transform="matrix(1,0,0,1,932.181,1243.49)">
                        <path d="M0,0.965L0.347,-0.103L-0.701,-0.284L-0.896,0.314L-1.277,0.591L-0.62,0.876L-0.62,1.169L-0.39,1.249L0,0.965Z" style="fill:rgb(142,142,142);fill-rule:nonzero;"/>
                    </g>
                    <g transform="matrix(1,0,0,1,931.791,1243.69)">
                        <path d="M0,1.047L0.878,1.352L1.039,1.235L1.518,-0.242L0.994,-0.261L0.737,-0.305L0.39,0.763L0,1.047Z" style="fill:rgb(142,142,142);fill-rule:nonzero;"/>
                    </g>
                    <g transform="matrix(1,0,0,1,926.811,1244.74)">
                        <path d="M0,-1.202L-0.767,-0.375L-0.363,0L0.56,-0.995L0.336,-1.031L0,-1.202Z" style="fill:rgb(142,142,142);fill-rule:nonzero;"/>
                    </g>
                    <g transform="matrix(1,0,0,1,933.935,1244.73)">
                        <path d="M0,-0.749L0.164,-1.251L-0.626,-1.281L-1.105,0.196L-1.266,0.313L-0.632,0.532L-0.433,0.297L-0.36,0.36L-0.242,-0.003L-0.156,-0.267L-0.084,-0.491L0,-0.749Z" style="fill:rgb(142,142,142);fill-rule:nonzero;"/>
                    </g>
                    <g transform="matrix(1,0,0,1,933.974,1237.47)">
                        <path d="M0,3.835L0.809,3.865L0.599,3.22L0.513,2.956L0.441,2.732L0.357,2.474L-0.044,1.241L-0.128,0.983L-0.201,0.759L-0.244,0.627L-0.286,0.496L-0.457,-0.03L-1.572,0.003L-1.143,0.315L0,3.835Z" style="fill:rgb(142,142,142);fill-rule:nonzero;"/>
                    </g>
                    <g transform="matrix(1,0,0,1,930.269,1240.51)">
                        <path d="M0,0.078L-0.352,-0.613L-0.9,-1.16L-1.035,-1.229L-1.295,-0.462L-0.931,0.478L0.047,1.307L0.121,0.844L0,0.078Z" style="fill:rgb(142,142,142);fill-rule:nonzero;"/>
                    </g>
                    <g transform="matrix(1,0,0,1,931.285,1240.57)">
                        <path d="M0,-1.669L0.796,0.782L0.597,1.396L1.568,1.006L1.58,0.688L1.877,0.699L0.896,-2.32L-0.131,-3.065L-0.376,-3.059L-1.133,-2.492L0,-1.669Z" style="fill:rgb(142,142,142);fill-rule:nonzero;"/>
                    </g>
                    <g transform="matrix(1,0,0,1,929.369,1241.08)">
                        <path d="M0,-1.726L0.548,-1.179L0.9,-0.488L1.021,0.278L0.948,0.742L1.571,1.27L2.514,0.892L2.713,0.278L1.917,-2.173L0.784,-2.996L0.098,-2.483L-0.135,-1.795L0,-1.726Z" style="fill:rgb(142,142,142);fill-rule:nonzero;"/>
                    </g>
                    <g transform="matrix(1,0,0,1,933.162,1237.5)">
                        <path d="M0,3.772L0.811,3.802L-0.332,0.282L-0.761,-0.03L-2.008,0.007L-0.981,0.753L0,3.772Z" style="fill:rgb(142,142,142);fill-rule:nonzero;"/>
                    </g>
                    <g transform="matrix(1,0,0,1,929.335,1235.6)">
                        <path d="M0.703,-0.787L-0.606,-0.787L-1.632,-0.028L0.455,-0.028L0.491,0L1.034,-0.546L0.703,-0.787Z" style="fill:rgb(142,142,142);fill-rule:nonzero;"/>
                    </g>
                    <g transform="matrix(1,0,0,1,923.643,1239.92)">
                        <path d="M0,4.538L-1.008,1.436L-0.139,-1.238L-0.698,-0.824L-1.38,0.116L-1.809,1.436L-0.649,5.01L0.407,5.776L1.448,5.776L1.448,5.675L1.307,5.488L0,4.538Z" style="fill:rgb(142,142,142);fill-rule:nonzero;"/>
                    </g>
                    <g transform="matrix(1,0,0,1,921.834,1244.37)">
                        <path d="M0,-3.019L0.429,-4.34L-0.696,-2.79L-0.706,-2.734L-0.582,-2.351L-0.496,-2.086L-0.423,-1.863L-0.339,-1.605L0.061,-0.372L0.145,-0.114L0.218,0.11L0.304,0.374L0.515,1.023L0.628,1.106L1.176,1.321L2.216,1.321L1.161,0.554L0,-3.019Z" style="fill:rgb(142,142,142);fill-rule:nonzero;"/>
                    </g>
                    <g transform="matrix(1,0,0,1,926.673,1245.41)">
                        <path d="M0,-9.07L-3.168,-6.726L-4.037,-4.051L-3.029,-0.95L-1.722,0L-2.785,-1.411L-3.71,-4.054L-2.905,-6.736L-0.684,-8.43L2.826,-8.534L3.018,-8.962L2.87,-9.07L0,-9.07Z" style="fill:rgb(142,142,142);fill-rule:nonzero;"/>
                    </g>
                    <g transform="matrix(1,0,0,1,927.704,1236.44)">
                        <path d="M0,-0.871L-1.03,-0.107L1.84,-0.107L1.987,0L2.196,-0.466L1.972,-0.691L2.123,-0.844L2.087,-0.871L0,-0.871Z" style="fill:rgb(142,142,142);fill-rule:nonzero;"/>
                    </g>
                    <g transform="matrix(1,0,0,1,953.092,1251.78)">
                        <path d="M0,-1.912L-1.458,-1.912L-1.458,-0.222L-0.938,0L-0.888,0L-0.666,-0.435L-0.811,-0.851L0,-1.912Z" style="fill:rgb(142,142,142);fill-rule:nonzero;"/>
                    </g>
                    <g transform="matrix(1,0,0,1,957.642,1246.06)">
                        <path d="M0,5.642L0.302,5.049L0.337,4.831L0.895,1.305L1.365,-1.663L1.13,-1.679L0.467,-1.704L-0.558,4.77L-1.87,7.346L-0.823,7.257L-0.036,5.712L0,5.642Z" style="fill:rgb(142,142,142);fill-rule:nonzero;"/>
                    </g>
                    <g transform="matrix(1,0,0,1,924.284,1246.45)">
                        <path d="M0,-0.589L0.808,0L0.808,-0.589L0,-0.589Z" style="fill:rgb(142,142,142);fill-rule:nonzero;"/>
                    </g>
                    <g transform="matrix(1,0,0,1,0,-5882.81)">
                        <rect x="986.335" y="7119.87" width="0.164" height="1.336" style="fill:rgb(142,142,142);"/>
                    </g>
                    <g transform="matrix(1,0,0,1,0,-5882.81)">
                        <rect x="985.439" y="7119.87" width="0.896" height="1.336" style="fill:rgb(142,142,142);"/>
                    </g>
                    <g transform="matrix(1,0,0,1,0,-5882.81)">
                        <rect x="980.94" y="7119.88" width="0.164" height="1.319" style="fill:rgb(142,142,142);"/>
                    </g>
                    <g transform="matrix(1,0,0,1,0,-5882.81)">
                        <rect x="981.103" y="7119.88" width="0.883" height="1.319" style="fill:rgb(142,142,142);"/>
                    </g>
                    <g transform="matrix(1,0,0,1,980.939,1238.38)">
                        <path d="M0,-1.32L1.047,-1.32L1.047,-0.001L0,-0.001L0,-1.32ZM4.5,-1.329L5.56,-1.329L5.56,0.008L4.5,0.008L4.5,-1.329ZM-0.227,0.296L5.781,0.296L5.781,-1.616L-0.227,-1.616L-0.227,0.296Z" style="fill:rgb(142,142,142);fill-rule:nonzero;"/>
                    </g>
                    <g transform="matrix(1,0,0,1,925.121,1247.89)">
                        <path d="M0,-0.482L0.113,-0.4L0.665,0L1.703,0L1.34,-0.482L0,-0.482Z" style="fill:rgb(142,142,142);fill-rule:nonzero;"/>
                    </g>
                    <g transform="matrix(1,0,0,1,931.689,1236.35)">
                        <path d="M0,0.459L1.049,0.427L0.994,0.388L0.803,0.251L0.694,0.169L0.585,0.09L0.457,0L0,0.459Z" style="fill:rgb(142,142,142);fill-rule:nonzero;"/>
                    </g>
                    <g transform="matrix(1,0,0,1,1013.07,1175.42)">
                        <path d="M0,2.762L1.117,2.64L1.84,1.78L1.746,0.686L0.89,0L-0.227,0.122L-0.95,0.982L-0.855,2.075L0,2.762Z" style="fill:rgb(142,142,142);fill-rule:nonzero;"/>
                    </g>
                </g>
            </g>
        </g>
    </g>
</svg>
