<?xml version="1.0" encoding="UTF-8" standalone="no"?>
<!DOCTYPE svg PUBLIC "-//W3C//DTD SVG 1.1//EN" "http://www.w3.org/Graphics/SVG/1.1/DTD/svg11.dtd">
<svg width="100%" height="100%" viewBox="0 0 80 120" version="1.1" xmlns="http://www.w3.org/2000/svg" xmlns:xlink="http://www.w3.org/1999/xlink" xml:space="preserve" xmlns:serif="http://www.serif.com/" style="fill-rule:evenodd;clip-rule:evenodd;stroke-linejoin:round;stroke-miterlimit:2;">
    <g transform="matrix(1,0,0,1,-1201.37,-1153.01)">
        <g id="bike-rack-parallel-left">
            <g>
                <g transform="matrix(1,0,0,1,1230.95,1270.72)">
                    <path d="M0,1.582L0.034,1.582L0.013,0L0,1.582Z" style="fill:rgb(170,170,170);fill-rule:nonzero;"/>
                </g>
                <g transform="matrix(1,0,0,1,1238.12,1242.58)">
                    <path d="M0,-2.33L-0.391,-2.188L-0.391,-1.483L-0.395,-1.281L-0.391,-1.227L-0.402,-0.749L-0.409,-0.401L-0.412,-0.274L-0.412,-0.242L-0.427,0.457L-0.398,-0.235L-0.395,-0.268L-0.409,-0.273L-0.395,-0.268L0.173,-0.062L0.656,0.113L0.687,0.126L0.846,0.183L1.258,0.333L1.258,-2.787L1.001,-2.694L0,-2.33Z" style="fill:rgb(226,226,226);fill-rule:nonzero;"/>
                </g>
                <g transform="matrix(1,0,0,1,1239.53,1242.92)">
                    <rect x="-0.155" y="-3.122" width="0.845" height="3.122" style="fill:rgb(226,226,226);fill-rule:nonzero;"/>
                </g>
                <g transform="matrix(1,0,0,1,1237.67,1242.3)">
                    <path d="M0,-1.888L-0.503,-1.703L-0.503,-0.193L0.04,0.004L0.042,-0.122L0.05,-0.47L0.061,-0.948L0.057,-1.001L0.04,-1.425L0.025,-1.768L0.015,-1.892L0,-1.888Z" style="fill:rgb(226,226,226);fill-rule:nonzero;"/>
                </g>
                <g transform="matrix(1,0,0,1,1236.9,1242.11)">
                    <path d="M0,-0.077L0.812,0.235L0.812,0.202L0.269,0.005L0.269,-0.312L0,-0.077Z" style="fill:rgb(226,226,226);fill-rule:nonzero;"/>
                </g>
                <g transform="matrix(1,0,0,1,1249.94,1237.99)">
                    <rect x="0" y="-1.167" width="1.304" height="1.772" style="fill:rgb(165,165,165);fill-rule:nonzero;"/>
                </g>
                <g transform="matrix(1,0,0,1,1247.79,1247.41)">
                    <path d="M0,-6.117L0,-1.55L-0.12,-1.55L-0.12,-6.117L-0.222,-6.117L-0.222,0L0.203,0L0.203,-6.117L0,-6.117Z" style="fill:rgb(165,165,165);fill-rule:nonzero;"/>
                </g>
                <g transform="matrix(1,0,0,1,1247.82,1255.82)">
                    <path d="M0,-8.408L0,-6.778L-0.159,-6.778L-0.159,-8.408L-0.254,-8.408L-0.254,0L0.172,0L0.172,-8.408L0,-8.408Z" style="fill:rgb(165,165,165);fill-rule:nonzero;"/>
                </g>
                <g transform="matrix(-1,0,0,1,2511.89,-5882.82)">
                    <rect x="1253.06" y="7119.95" width="5.774" height="1.173" style="fill:rgb(250,192,41);"/>
                </g>
                <g transform="matrix(1,0,0,1,0,-5856.62)">
                    <rect x="1226.26" y="7106.85" width="5.774" height="1.173" style="fill:rgb(250,192,41);"/>
                </g>
                <g transform="matrix(-0.00326529,0.999995,0.999995,0.00326529,1247.45,1238.11)">
                    <path d="M-0.458,-0.647L0.767,-0.647L0.767,-0.452L-0.58,-0.456L-0.458,-0.647Z" style="fill:rgb(66,76,160);fill-rule:nonzero;"/>
                </g>
                <g transform="matrix(1,0,0,1,1247.38,1244.37)">
                    <path d="M0,-2.301L0,-0.541L-0.12,-0.541L-0.12,0L-0.027,-0.038L0.191,-0.128L0.191,-1.215L0.036,-1.259L0.067,-2.026L0.063,-2.301L0,-2.301Z" style="fill:rgb(66,76,160);fill-rule:nonzero;"/>
                </g>
                <g transform="matrix(1,0,0,1,1247.44,1243.11)">
                    <path d="M0,-1.042L0.004,-0.767L-0.027,0L0.031,0L0.031,-0.075L0.019,-0.773L0.019,-0.807L0.015,-1.042L0,-1.042Z" style="fill:rgb(66,76,160);fill-rule:nonzero;"/>
                </g>
                <g transform="matrix(1,0,0,1,1247.56,1243.04)">
                    <path d="M0,-0.967L-0.099,-0.732L-0.099,-0.698L-0.086,0L0.01,-0.122L0.01,-0.967L0,-0.967Z" style="fill:rgb(66,76,160);fill-rule:nonzero;"/>
                </g>
                <g transform="matrix(1,0,0,1,1247.45,1242.31)">
                    <path d="M0,-0.235L0.004,0L0.103,-0.235L0,-0.235Z" style="fill:rgb(66,76,160);fill-rule:nonzero;"/>
                </g>
                <g transform="matrix(1,0,0,1,1245.17,1244.18)">
                    <path d="M0,-0.29L0,0.508L0.113,0.463L0.113,-0.261L0,-0.29Z" style="fill:rgb(66,76,160);fill-rule:nonzero;"/>
                </g>
                <g transform="matrix(1,0,0,1,1246.8,1244.53)">
                    <path d="M0,-0.694L-0.002,-0.53L0,-0.319L0,-0.033L0.029,0L0.195,-0.058L0.195,-0.694L0,-0.694Z" style="fill:rgb(66,76,160);fill-rule:nonzero;"/>
                </g>
                <g transform="matrix(1,0,0,1,1245.54,1244.71)">
                    <path d="M0,-0.877L0,0L0.667,-0.094L0.667,-0.877L0,-0.877Z" style="fill:rgb(66,76,160);fill-rule:nonzero;"/>
                </g>
                <g transform="matrix(1,0,0,1,1248.26,1220.97)">
                    <path d="M0,-2.559L0.206,0.168L0.206,-2.727L0,-2.559Z" style="fill:rgb(66,76,160);fill-rule:nonzero;"/>
                </g>
                <g transform="matrix(1,0,0,1,1237.69,1242.42)">
                    <path d="M0,0.616L0,0.692L0.059,0.692L0.027,-0.076L0,0.616Z" style="fill:rgb(66,76,160);fill-rule:nonzero;"/>
                </g>
                <g transform="matrix(1,0,0,1,1237.6,1240.67)">
                    <path d="M0,-2.079L0.063,-0.623L0.073,-0.258L0.088,-0.263L0.099,-0.139L0.113,0.205L0.13,0.629L0.134,0.425L0.134,-0.279L0.13,-2.708L0,-2.079Z" style="fill:rgb(66,76,160);fill-rule:nonzero;"/>
                </g>
                <g transform="matrix(1,0,0,1,1236.7,1237.56)">
                    <path d="M0,3.725L0.415,3.895L0.462,3.914L0.462,3.035L0.965,2.85L0.954,2.485L0.891,1.03L0.415,0.377L0,-0.189L0,3.725Z" style="fill:rgb(66,76,160);fill-rule:nonzero;"/>
                </g>
                <g transform="matrix(1,0,0,1,1240.91,1204.48)">
                    <path d="M0.285,-0.869L-0.405,-0.869L-0.405,0L0.466,0L0.663,-0.217L0.571,-0.651L0.285,-0.869Z" style="fill:rgb(66,76,160);fill-rule:nonzero;"/>
                </g>
                <g transform="matrix(1,0,0,1,1242.35,1204.56)">
                    <rect x="0" y="-0.08" width="0.472" height="0.08" style="fill:rgb(66,76,160);fill-rule:nonzero;"/>
                </g>
                <g transform="matrix(1,0,0,1,1236.7,1218.24)">
                    <path d="M0,2.895L0.203,0.168L0,0L0,2.895Z" style="fill:rgb(66,76,160);fill-rule:nonzero;"/>
                </g>
                <g transform="matrix(1,0,0,1,1236.82,1236.77)">
                    <path d="M0,-0.493L0.585,-0.788L-0.183,-1.012L-0.952,-0.788L-1.269,-0.247L-0.952,0.295L-0.183,0.519L-0.25,0.049L0,-0.493Z" style="fill:rgb(66,76,160);fill-rule:nonzero;"/>
                </g>
                <g transform="matrix(1,0,0,1,1237.6,1235.98)">
                    <path d="M0,2.616L0.13,1.987L-0.19,0L-0.776,0.295L-1.026,0.837L-0.959,1.307L-0.892,1.397L-0.476,1.963L0,2.616Z" style="fill:rgb(66,76,160);fill-rule:nonzero;"/>
                </g>
                <g transform="matrix(1,0,0,1,1237.73,1235.98)">
                    <path d="M0,1.986L-0.004,0.541L-0.321,0L0,1.986Z" style="fill:rgb(66,76,160);fill-rule:nonzero;"/>
                </g>
                <g transform="matrix(1,0,0,1,1237.73,1218.24)">
                    <path d="M0,22.151L0.391,22.009L1.392,21.646L1.65,21.552L1.805,21.552L1.805,0L1.392,0.341L1.311,0.352L0.391,12.884L-0.007,18.276L-0.004,19.722L0,22.151Z" style="fill:rgb(66,76,160);fill-rule:nonzero;"/>
                </g>
                <g transform="matrix(1,0,0,1,1237.69,1242.37)">
                    <path d="M0,0.745L0,0.67L0.014,-0.029L-0.797,-0.342L-1.082,0.291L-1.057,1.063L-0.25,0.833L-0.19,0.816L0.06,0.745L0,0.745Z" style="fill:rgb(66,76,160);fill-rule:nonzero;"/>
                </g>
                <g transform="matrix(1,0,0,1,1247.44,1237.18)">
                    <path d="M0,0.783L0.132,1.412L0.231,1.242L0.231,-0.629L0,0.783Z" style="fill:rgb(66,76,160);fill-rule:nonzero;"/>
                </g>
                <g transform="matrix(1,0,0,1,1247.57,1240.5)">
                    <path d="M0,-1.909L-0.065,-0.453L-0.082,0.134L0.099,0.134L0.099,-2.043L0,-1.909Z" style="fill:rgb(66,76,160);fill-rule:nonzero;"/>
                </g>
                <g transform="matrix(1,0,0,1,1247.79,1240.58)">
                    <path d="M0,-2.286L0,0.059L0.046,0.059L0.046,-2.345L0,-2.286Z" style="fill:rgb(66,76,160);fill-rule:nonzero;"/>
                </g>
                <g transform="matrix(1,0,0,1,1247.44,1238.67)">
                    <path d="M0,1.965L0,2.46L0.002,2.672L0.01,2.46L0.021,2.261L0.027,2.102L0.034,2.001L0.048,2.001L0.052,1.965L0.038,1.965L0.052,1.965L0.069,1.378L0.134,-0.078L0.002,-0.707L0,1.965Z" style="fill:rgb(66,76,160);fill-rule:nonzero;"/>
                </g>
                <g transform="matrix(1,0,0,1,1247.05,1236.83)">
                    <path d="M0,-0.055L-0.441,0.231L-0.441,0.256L-0.25,0.147L0.399,-0.271L0.399,-0.311L0,-0.055Z" style="fill:rgb(66,76,160);fill-rule:nonzero;"/>
                </g>
                <g transform="matrix(1,0,0,1,1247.44,1237.58)">
                    <path d="M0,-1.061L0,-1.021L-0.004,-0.337L-0.004,0.384L0.227,-1.027L0.227,-1.445L0,-1.061Z" style="fill:rgb(66,76,160);fill-rule:nonzero;"/>
                </g>
                <g transform="matrix(1,0,0,1,1242.82,1204.48)">
                    <path d="M0.076,-0.869L-0.545,-0.869L-0.638,-0.651L-0.665,-0.217L-0.602,0L0.134,0L0.195,-0.217L0.166,-0.651L0.076,-0.869Z" style="fill:rgb(66,76,160);fill-rule:nonzero;"/>
                </g>
                <g transform="matrix(1,0,0,1,1248.35,1236.77)">
                    <path d="M0,-0.493L0.25,0.049L0.183,0.519L0.208,0.511L0.406,0.454L0.409,0.453L0.694,0.369L0.952,0.295L1.269,-0.247L0.952,-0.788L0.183,-1.012L-0.557,-0.796L-0.557,-0.773L0,-0.493Z" style="fill:rgb(66,76,160);fill-rule:nonzero;"/>
                </g>
                <g transform="matrix(1,0,0,1,1247.22,1240.49)">
                    <path d="M0,-3.1L0.042,-3.1L0.042,-1.613L0.161,-1.613L0.161,0.147L0.222,0.147L0.224,-2.525L0.224,-3.247L0,-3.1Z" style="fill:rgb(66,76,160);fill-rule:nonzero;"/>
                </g>
                <g transform="matrix(1,0,0,1,1240.11,1204.85)">
                    <path d="M0,-2.312L0,-0.965L0.282,-0.619L0.395,-0.55L0.395,-1.235L1.086,-1.235L1.371,-1.019L1.463,-0.584L1.266,-0.367L0.8,-0.367L0.8,-0.306L0.976,-0.226L1.082,-0.178L1.488,0.008L1.526,0.025L1.533,0.026L1.981,0.084L1.981,-1.264L1.526,-1.322L0.8,-1.653L0.282,-1.966L0,-2.312Z" style="fill:rgb(66,76,160);fill-rule:nonzero;"/>
                </g>
                <g transform="matrix(1,0,0,1,1240.51,1201.93)">
                    <path d="M0,-0.952L0,0.168L0.088,0.239L0.447,0.107L0.606,0.088L0.684,0.078L0.684,-0.631L0.292,-0.952L0.292,-1.191L0,-0.952Z" style="fill:rgb(66,76,160);fill-rule:nonzero;"/>
                </g>
                <g transform="matrix(1,0,0,1,1241.19,1201.85)">
                    <path d="M0,-7.796L0,0.164L0.042,0.16L0.042,-7.96L0,-7.796Z" style="fill:rgb(66,76,160);fill-rule:nonzero;"/>
                </g>
                <g transform="matrix(1,0,0,1,1236.61,1242.03)">
                    <path d="M0,0.627L0.285,-0.006L0.553,-0.241L0.553,-0.555L0.508,-0.573L0.092,-0.745L0.025,-0.772L-0.744,-0.454L-1.061,0.314L-0.857,0.807L-0.744,1.081L0.025,1.399L0,0.627Z" style="fill:rgb(66,76,160);fill-rule:nonzero;"/>
                </g>
                <g transform="matrix(1,0,0,1,1240.8,1191.06)">
                    <path d="M0,-0.56L0,9.916L0.392,10.237L0.392,2.986L0.434,2.822L0.434,-0.23L0.394,-0.235L0,-0.56Z" style="fill:rgb(66,76,160);fill-rule:nonzero;"/>
                </g>
                <g transform="matrix(1,0,0,1,1240.62,1190.68)">
                    <path d="M0,-1.103L0,-0.325L0.18,-0.178L0.575,0.147L0.575,-0.631L0.615,-0.625L0.615,-0.745L0.18,-1.103L0.18,-1.25L0,-1.103Z" style="fill:rgb(66,76,160);fill-rule:nonzero;"/>
                </g>
                <g transform="matrix(1,0,0,1,1247.79,1236.97)">
                    <path d="M0,-0.977L0,1.322L0.046,1.263L0.74,0.315L0.808,-0.155L0.556,-0.698L0,-0.977Z" style="fill:rgb(66,76,160);fill-rule:nonzero;"/>
                </g>
                <g transform="matrix(1,0,0,1,1248.25,1226.06)">
                    <path d="M0,-7.783L-0.324,-12.119L-1.061,-13.433L-4.184,-17.581L-4.276,-17.702L-4.681,-18.243L-4.967,-18.033L-5.28,-17.54L-5.206,-16.666L-4.974,-16.283L-4.642,-16.283L-4.621,-16.269L-4.392,-16.137L-3.803,-15.797L-3.151,-15.422L-3.077,-15.378L-3.077,-13.149L-2.549,-12.274L-2.443,-11.783L-2.432,-11.732L-2.125,-7.556L-2.122,-7.465L-1.202,5.068L-0.804,10.46L-0.578,10.076L-0.578,6.808L-0.458,6.808L-0.458,9.91L0.282,9.695L1.05,9.919L1.368,10.46L1.325,9.876L0.215,-4.922L0.01,-7.649L0,-7.783Z" style="fill:rgb(66,76,160);fill-rule:nonzero;"/>
                </g>
                <g transform="matrix(1,0,0,1,1244.05,1203.57)">
                    <path d="M0,-1.552L-0.078,-1.562L-0.12,-1.567L-0.12,-0.929L-0.515,-0.635L-1.466,-0.513L-2.418,-0.635L-2.813,-0.929L-2.813,-1.567L-2.855,-1.562L-2.933,-1.552L-3.091,-1.532L-3.451,-1.401L-3.705,-1.309L-3.821,-1.174L-3.938,-1.033L-3.655,-0.687L-3.137,-0.374L-2.411,-0.043L-1.956,0.015L-1.703,-0.356L-1.23,-0.356L-0.976,0.015L-0.522,-0.043L0.204,-0.374L0.723,-0.687L1.005,-1.033L0.888,-1.174L0.772,-1.309L0.518,-1.401L0.159,-1.532L0,-1.552Z" style="fill:rgb(66,76,160);fill-rule:nonzero;"/>
                </g>
                <g transform="matrix(1,0,0,1,1244.36,1201.93)">
                    <path d="M0,-0.952L-0.39,-0.631L-0.39,0.078L-0.313,0.088L-0.155,0.107L0.206,0.239L0.294,0.168L0.294,-0.952L0,-1.191L0,-0.952Z" style="fill:rgb(66,76,160);fill-rule:nonzero;"/>
                </g>
                <g transform="matrix(1,0,0,1,1243.97,1200.98)">
                    <path d="M0,-10.147L-0.038,-10.143L-0.038,-7.091L0.004,-6.927L0.004,0.325L0.394,0.004L0.394,-10.472L0,-10.147Z" style="fill:rgb(66,76,160);fill-rule:nonzero;"/>
                </g>
                <g transform="matrix(1,0,0,1,1243.93,1197.55)">
                    <path d="M0,-3.663L0,4.457L0.042,4.462L0.042,-3.499L0,-3.663Z" style="fill:rgb(66,76,160);fill-rule:nonzero;"/>
                </g>
                <g transform="matrix(1,0,0,1,1243.97,1209.67)">
                    <path d="M0,-4.996L-0.405,-4.81L-0.444,-4.792L-0.451,-4.792L-0.899,-4.734L-1.153,-5.105L-1.625,-5.105L-1.879,-4.734L-2.327,-4.792L-2.334,-4.792L-2.372,-4.81L-2.778,-4.996L-2.781,-4.839L-2.778,-1.31L-2.372,-1.851L-2.087,-1.642L-1.773,-1.148L-1.847,-0.274L-2.08,0.109L-0.698,0.109L-0.931,-0.274L-1.005,-1.148L-0.691,-1.642L-0.405,-1.851L0,-1.31L0.004,-4.839L0,-4.996Z" style="fill:rgb(66,76,160);fill-rule:nonzero;"/>
                </g>
                <g transform="matrix(1,0,0,1,1242.2,1235.82)">
                    <path d="M0,-27.297L-0.314,-27.79L-0.599,-28L-1.005,-27.459L-1.096,-27.338L-4.219,-23.19L-4.442,-22.952L-4.956,-21.876L-5.281,-17.54L-5.291,-17.406L-5.495,-14.678L-6.648,0.703L-6.331,0.162L-5.562,-0.062L-4.794,0.162L-4.477,0.703L-4.078,-4.689L-3.158,-17.221L-3.155,-17.313L-2.848,-21.489L-2.838,-21.54L-2.732,-22.031L-1.974,-23.496L-1.974,-25.135L-1.699,-25.292L-1.019,-25.684L-0.758,-25.836L-0.406,-26.039L-0.307,-26.039L-0.074,-26.423L0,-27.297Z" style="fill:rgb(66,76,160);fill-rule:nonzero;"/>
                </g>
                <g transform="matrix(1,0,0,1,1244.25,1204.48)">
                    <path d="M0.363,-0.869L-0.281,-0.869L-0.571,-0.651L-0.663,-0.217L-0.466,0L0.363,0L0.363,-0.869Z" style="fill:rgb(66,76,160);fill-rule:nonzero;"/>
                </g>
                <g transform="matrix(1,0,0,1,1238.97,1244.34)">
                    <path d="M0,-1.576L-0.158,-1.633L-0.141,-1.549L-0.13,-1.494L0.057,-1.045L0.014,-0.899L-0.204,-0.136L0.014,-0.899L0.057,-1.045L-0.13,-1.494L-0.151,-1.551L-0.19,-1.646L-0.673,-1.822L-1.241,-2.028L-1.244,-1.994L-1.213,-1.227L-1.463,-1.156L-1.523,-1.139L-2.33,-0.909L-3.098,-1.227L-2.915,-1.093L-2.689,-0.928L-2.111,-0.505L-1.794,-0.271L-1.149,-0.007L-1.029,0.043L-0.631,0.185L1.259,0.452L1.259,-1.427L0.412,-1.427L0,-1.576Z" style="fill:rgb(66,76,160);fill-rule:nonzero;"/>
                </g>
                <g transform="matrix(1,0,0,1,0,-5951.43)">
                    <rect x="1242.35" y="7154.65" width="0.472" height="0.398" style="fill:rgb(66,76,160);"/>
                </g>
                <g transform="matrix(1,0,0,1,1244.36,1190.68)">
                    <path d="M0,-1.103L-0.432,-0.745L-0.432,-0.625L-0.394,-0.631L-0.394,0.147L0,-0.178L0.18,-0.325L0.18,-1.103L0,-1.25L0,-1.103Z" style="fill:rgb(66,76,160);fill-rule:nonzero;"/>
                </g>
                <g transform="matrix(1,0,0,1,1242.09,1204.56)">
                    <path d="M0,-0.976L0,0.371L0.254,0L0.254,-0.08L0.124,-0.08L0.061,-0.296L0.088,-0.73L0.18,-0.949L0.254,-0.949L0.254,-1.347L0,-0.976Z" style="fill:rgb(66,76,160);fill-rule:nonzero;"/>
                </g>
                <g transform="matrix(1,0,0,1,1242.82,1204.53)">
                    <path d="M0,-0.921L0.076,-0.921L0.166,-0.703L0.195,-0.269L0.134,-0.052L0,-0.052L0,0.027L0.254,0.398L0.254,-0.948L0,-1.319L0,-0.921Z" style="fill:rgb(66,76,160);fill-rule:nonzero;"/>
                </g>
                <g transform="matrix(1,0,0,1,1243.52,1202.6)">
                    <path d="M0,2.28L0.007,2.28L0.046,2.262L0.451,2.076L0.557,2.029L0.733,1.948L0.733,1.887L0.268,1.887L0.071,1.67L0.162,1.236L0.451,1.019L1.096,1.019L1.096,1.729L1.251,1.635L1.533,1.289L1.533,-0.058L1.251,0.288L0.733,0.601L0.007,0.932L-0.448,0.99L-0.448,2.338L0,2.28Z" style="fill:rgb(66,76,160);fill-rule:nonzero;"/>
                </g>
                <g transform="matrix(1,0,0,1,1245.63,1238.88)">
                    <path d="M0,-20.635L0,0L0.578,0L0.578,-1.563L0.712,-1.649L0.712,-2.541L0.973,-2.541L0.973,-1.817L1.414,-2.103L1.812,-2.358L1.414,-7.75L0.494,-20.282L0.412,-20.294L0,-20.635Z" style="fill:rgb(66,76,160);fill-rule:nonzero;"/>
                </g>
                <g transform="matrix(1,0,0,1,1248.11,1243.38)">
                    <path d="M0,-1.496L0,-1.307L-0.113,-1.307L-0.113,-0.099L0.424,0.053L0.447,-0.719L0.161,-1.351L0,-1.496Z" style="fill:rgb(66,76,160);fill-rule:nonzero;"/>
                </g>
                <g transform="matrix(1,0,0,1,1248.53,1243.75)">
                    <path d="M0,-0.321L-0.537,-0.472L-0.537,0.317L0.023,-0.094L0.044,-0.11L0.602,-0.518L0.768,-0.638L0,-0.321Z" style="fill:rgb(66,76,160);fill-rule:nonzero;"/>
                </g>
                <g transform="matrix(1,0,0,1,1248.55,1243.42)">
                    <path d="M0,-2.149L-0.025,-2.16L-0.448,-1.985L-0.448,-1.538L-0.286,-1.394L0,-0.761L-0.025,0.011L0.744,-0.307L0.899,-0.686L1.019,-0.97L1.061,-1.074L0.744,-1.842L0.486,-1.947L0.451,-1.962L0,-2.149Z" style="fill:rgb(66,76,160);fill-rule:nonzero;"/>
                </g>
                <g transform="matrix(1,0,0,1,1230.9,1272.3)">
                    <path d="M0.085,-20.522L-4.967,-20.522L-4.967,-14.533L-4.991,-14.614L-4.991,-7.752L-4.967,-7.649L-4.967,-4.503L-4.991,-4.616L-4.991,-1.703L-4.96,0L-4.967,-1.581L-4.946,0L-4.519,0L-4.459,-0.411L-4.512,0L0.049,0L0.063,-1.581L0.085,0L0.085,-20.522Z" style="fill:rgb(221,221,221);fill-rule:nonzero;"/>
                </g>
                <g transform="matrix(1,0,0,1,1230.98,1272.93)">
                    <rect x="-7.612" y="-0.635" width="10.15" height="0.635" style="fill:rgb(221,221,221);fill-rule:nonzero;"/>
                </g>
                <g transform="matrix(1,0,0,1,1240.22,1243.63)">
                    <path d="M0,2.007L0,1.165L-1.889,0.897L-2.288,0.755L-2.408,0.706L-3.053,0.441L-3.37,0.207L-3.948,-0.215L-4.174,-0.381L-4.174,2.007L0,2.007Z" style="fill:rgb(221,221,221);fill-rule:nonzero;"/>
                </g>
                <g transform="matrix(1,0,0,1,1235.16,1250.76)">
                    <rect x="-1.304" y="-0.805" width="1.304" height="1.773" style="fill:rgb(221,221,221);fill-rule:nonzero;"/>
                </g>
                <g transform="matrix(1,0,0,1,1235.16,1252.62)">
                    <path d="M0,-9.779L0,0L0.896,0L0.896,-9.37L0.711,-9.504L0.6,-9.779L0,-9.779Z" style="fill:rgb(221,221,221);fill-rule:nonzero;"/>
                </g>
                <g transform="matrix(1,0,0,1,1245.17,1245.54)">
                    <rect x="0" y="-0.705" width="0.113" height="0.705" style="fill:rgb(221,221,221);fill-rule:nonzero;"/>
                </g>
                <g transform="matrix(1,0,0,1,1247.57,1238.87)">
                    <path d="M0,14.86L-0.765,15.964L-0.765,16.473L-0.765,5.341L-0.768,5.13L-0.765,4.967L-0.765,2.489L-0.768,2.487L-0.765,2.47L-0.765,0.012L-0.761,-1.212L-0.571,-1.334L-0.571,-1.476L-0.353,-1.476L-0.127,-1.621L-0.123,-2.306L-0.772,-1.889L-0.962,-1.779L-0.962,6.782L-1.223,7.105L-1.223,-1.628L-1.357,-1.551L-1.357,16.821L-0.768,17.166L0,16.055L0,14.86Z" style="fill:rgb(221,221,221);fill-rule:nonzero;"/>
                </g>
                <g transform="matrix(1,0,0,1,1247.35,1245.64)">
                    <path d="M0,-1.301L-0.092,-1.263L-0.092,-0.317L-0.352,-0.317L-0.352,-1.169L-0.518,-1.11L-0.547,-1.106L-0.547,0L0.218,0L0.218,-1.301L0,-1.301Z" style="fill:rgb(221,221,221);fill-rule:nonzero;"/>
                </g>
                <g transform="matrix(1,0,0,1,1245.54,1245.54)">
                    <path d="M0,-0.833L0,0.094L0.667,0.094L0.667,-0.927L0,-0.833Z" style="fill:rgb(221,221,221);fill-rule:nonzero;"/>
                </g>
                <g transform="matrix(1,0,0,1,1249.3,1242.98)">
                    <path d="M0,0.135L-0.166,0.256L-0.723,0.663L0.395,0.663L0.395,-0.314L0.338,-0.416L0.317,-0.452L0.275,-0.528L0.155,-0.244L0,0.135Z" style="fill:rgb(221,221,221);fill-rule:nonzero;"/>
                </g>
                <g transform="matrix(1,0,0,1,1249.57,1245.71)">
                    <path d="M0,-9.779L0.042,-9.194L-0.275,-8.653L-0.533,-8.579L-0.533,-4.239L-0.275,-4.134L0.042,-3.366L0,-3.262L0.042,-3.186L0.12,-3.186L0.12,0L0.363,0L0.363,-9.779L0,-9.779Z" style="fill:rgb(221,221,221);fill-rule:nonzero;"/>
                </g>
                <g transform="matrix(1,0,0,1,1248.55,1251.97)">
                    <path d="M0,-3.962L0,0.219L0.199,0.344L0.199,-0.354L0.201,-1.65L0.199,-2.133L0.199,-4.306L0,-3.962Z" style="fill:rgb(221,221,221);fill-rule:nonzero;"/>
                </g>
                <g transform="matrix(1,0,0,1,1249.69,1247.59)">
                    <path d="M0,-1.591L0,-2.569L-1.139,-2.569L-1.139,0.41L-0.941,0.067L-0.078,-1.453L0,-1.591Z" style="fill:rgb(221,221,221);fill-rule:nonzero;"/>
                </g>
                <g transform="matrix(1,0,0,1,1247.99,1253.89)">
                    <path d="M0,-9.825L0,-9.418L0.061,-9.418L0.061,-9.017L0,-9.017L0,-8.3L0.061,-8.3L0.061,-7.916L0,-7.916L0,-1.269L0.208,-1.269L0.166,-1.246L0.166,-1.026L0,-0.784L0,0.411L0.761,-0.686L0.761,-0.91L0.759,-1.367L0.759,-1.584L0.56,-1.472L0.56,-10.236L0,-9.825Z" style="fill:rgb(221,221,221);fill-rule:nonzero;"/>
                </g>
                <g transform="matrix(1,0,0,1,1248.55,1245.01)">
                    <path d="M0,-1.351L0,0.016L1.139,0.016L1.139,-1.367L0.021,-1.367L0,-1.351Z" style="fill:rgb(221,221,221);fill-rule:nonzero;"/>
                </g>
                <g transform="matrix(1,0,0,1,1247.67,1245.86)">
                    <rect x="0" y="-12.995" width="0.12" height="12.995" style="fill:rgb(221,221,221);fill-rule:nonzero;"/>
                </g>
                <g transform="matrix(1,0,0,1,1243.93,1189.39)">
                    <path d="M0,-3.071L0,0L0.059,-0.052L0.059,-3.071L0,-3.071Z" style="fill:rgb(221,221,221);fill-rule:nonzero;"/>
                </g>
                <g transform="matrix(1,0,0,1,1241.24,1199.68)">
                    <path d="M0,-13.357L0,2.961L0.395,3.255L1.347,3.377L2.298,3.255L2.693,2.961L2.693,-13.357L0,-13.357Z" style="fill:rgb(221,221,221);fill-rule:nonzero;"/>
                </g>
                <g transform="matrix(0,1,1,0,1244.33,1190.42)">
                    <rect x="-0.366" y="-0.404" width="0.772" height="0.038" style="fill:rgb(221,221,221);"/>
                </g>
                <g transform="matrix(1,0,0,1,1241.18,1189.39)">
                    <path d="M0,-3.071L0,-0.052L0.061,0L0.061,-3.071L0,-3.071Z" style="fill:rgb(221,221,221);fill-rule:nonzero;"/>
                </g>
                <g transform="matrix(1,0,0,1,1243.45,1186.32)">
                    <path d="M0,-3.28L-0.451,-3.28L-0.899,-2.707L-1.346,-3.28L-1.798,-3.28L-4.544,-0.272L-4.889,0L3.091,0L2.746,-0.272L0,-3.28Z" style="fill:rgb(221,221,221);fill-rule:nonzero;"/>
                </g>
                <g transform="matrix(0.995037,0.0995037,0.0995037,-0.995037,1241.16,1190.82)">
                    <path d="M0.039,-0L0.079,-0L0.002,0.772L-0.039,0.774L0.039,-0Z" style="fill:rgb(221,221,221);fill-rule:nonzero;"/>
                </g>
                <g transform="matrix(1,0,0,1,1246.39,1201.54)">
                    <path d="M0,1.186L0.959,1.279L1.829,1.113L2.101,0.787L2.101,0.296L1.614,-0.001L0.656,-0.093L-0.215,0.073L-0.486,0.399L-0.486,0.89L0,1.186Z" style="fill:rgb(221,221,221);fill-rule:nonzero;"/>
                </g>
                <g transform="matrix(1,0,0,1,1260.06,1179.37)">
                    <path d="M0,-1.595L0,-3.536L-4.843,-3.536L-6.648,-2.817L-7.251,-1.444L-7.589,-0.676L-8.069,-0.49L-13.596,-0.481L-15.986,-0.6L-16.053,-0.604L-16.127,-0.607L-16.285,-0.517L-16.187,0.129L-16.151,0.228L-16.116,0.308L-16.053,0.469L-16.053,0.466L-16.053,0.469L-15.824,1.039L-15.824,1.268L-15.919,1.458L-13.596,1.35L-7.462,1.451L-5.64,0.744L-5.026,-0.641L-4.692,-1.409L-4.223,-1.595L0,-1.595Z" style="fill:rgb(221,221,221);fill-rule:nonzero;"/>
                </g>
                <g transform="matrix(1,0,0,1,1263.27,1176.32)">
                    <rect x="-1.417" y="-0.483" width="1.417" height="1.941" style="fill:rgb(221,221,221);fill-rule:nonzero;"/>
                </g>
                <g transform="matrix(1,0,0,1,1261.85,1176.32)">
                    <rect x="-1.791" y="-0.646" width="1.791" height="2.267" style="fill:rgb(221,221,221);fill-rule:nonzero;"/>
                </g>
                <g transform="matrix(1,0,0,1,1243.75,1179.09)">
                    <path d="M0,0.568L0.485,1.546L0.485,1.315L0.256,0.747L0.193,0.585L0.157,0.506L0.122,0.407L0.023,-0.24L0.182,-0.332L0.256,-0.328L0,-0.978L0,0.568Z" style="fill:rgb(221,221,221);fill-rule:nonzero;"/>
                </g>
                <g transform="matrix(1,0,0,1,1241.54,1179.71)">
                    <path d="M-0.014,2.227L2.08,2.227L2.119,0.798L1.886,0.333L1.329,0.141L1.04,0L0.751,0.141L0.194,0.333L-0.039,0.798L-0.032,1.072L-0.039,1.055L-0.021,1.906L-0.014,2.227Z" style="fill:rgb(221,221,221);fill-rule:nonzero;"/>
                </g>
                <g transform="matrix(1,0,0,1,1236.95,1201.61)">
                    <path d="M0,1.04L0.871,1.206L1.829,1.113L2.316,0.816L2.316,0.326L2.045,-0.001L1.174,-0.166L0.215,-0.074L-0.271,0.223L-0.271,0.713L0,1.04Z" style="fill:rgb(221,221,221);fill-rule:nonzero;"/>
                </g>
                <g transform="matrix(1,0,0,1,1248.29,1207.77)">
                    <path d="M0,-0.356L-0.363,-0.056L-1.244,0.067L-2.121,-0.056L-2.484,-0.356L-2.484,-0.472L-2.626,-0.356L-2.219,-0.023L-1.244,0.116L-0.264,-0.023L0.143,-0.356L0,-0.472L0,-0.356Z" style="fill:rgb(221,221,221);fill-rule:nonzero;"/>
                </g>
                <g transform="matrix(1,0,0,1,1247.05,1209.81)">
                    <path d="M0,-1.924L-0.976,-2.062L-1.382,-2.395L-1.382,-0.001L-1.241,0.115L-0.976,0.332L-0.878,0.347L0,0.471L0.881,0.347L0.98,0.332L1.244,0.115L1.385,-0.001L1.385,-2.395L0.98,-2.062L0,-1.924Z" style="fill:rgb(221,221,221);fill-rule:nonzero;"/>
                </g>
                <g transform="matrix(1,0,0,1,1247.93,1207.62)">
                    <path d="M0,-3.362L-0.881,-3.238L-1.251,-3.29L-1.759,-3.187L-1.985,-3.142L-2.122,-3.128L-2.122,-0.203L-1.759,0.096L-0.881,0.22L0,0.096L0.363,-0.203L0.363,-3.582L0.116,-3.379L0,-3.362Z" style="fill:rgb(221,221,221);fill-rule:nonzero;"/>
                </g>
                <g transform="matrix(1,0,0,1,1247.93,1210.92)">
                    <path d="M0,-0.759L-0.881,-0.635L-1.759,-0.759L-1.858,-0.773L-2.122,-0.991L-2.122,-0.191L-1.759,0.108L-0.881,0.232L0,0.108L0.363,-0.191L0.363,-0.991L0.099,-0.773L0,-0.759Z" style="fill:rgb(221,221,221);fill-rule:nonzero;"/>
                </g>
                <g transform="matrix(1,0,0,1,1247.27,1217.92)">
                    <path d="M0,-5.561L-0.208,-5.519L0.141,-5.06L0.656,-3.983L0.98,0.353L1.022,0.319L1.022,-5.914L0.659,-5.788L0,-5.561Z" style="fill:rgb(221,221,221);fill-rule:nonzero;"/>
                </g>
                <g transform="matrix(1,0,0,1,1247.19,1209.79)">
                    <path d="M0,2.835L0.737,4.148L0.222,3.072L-0.127,2.613L-0.522,2.097L-0.606,1.988L-0.67,1.903L-1.636,0.636L-3.123,-1.313L0,2.835Z" style="fill:rgb(221,221,221);fill-rule:nonzero;"/>
                </g>
                <g transform="matrix(1,0,0,1,1245.81,1214.68)">
                    <path d="M0,-0.403L0,3.564L0.317,3.824L0.01,-0.352L0,-0.403Z" style="fill:rgb(221,221,221);fill-rule:nonzero;"/>
                </g>
                <g transform="matrix(1,0,0,1,1237.24,1207.54)">
                    <path d="M0,2.618L0.881,2.742L1.759,2.618L1.858,2.604L2.122,2.386L2.263,2.271L2.263,-0.124L1.858,0.21L0.881,0.347L-0.099,0.21L-0.504,-0.124L-0.504,2.271L-0.363,2.386L-0.099,2.604L0,2.618Z" style="fill:rgb(221,221,221);fill-rule:nonzero;"/>
                </g>
                <g transform="matrix(1,0,0,1,1237.24,1210.05)">
                    <path d="M0,0.975L0.881,1.099L1.759,0.975L2.122,0.676L2.122,-0.124L1.858,0.094L1.759,0.108L0.881,0.232L0,0.108L-0.099,0.094L-0.363,-0.124L-0.363,0.676L0,0.975Z" style="fill:rgb(221,221,221);fill-rule:nonzero;"/>
                </g>
                <g transform="matrix(1,0,0,1,1237.24,1204.16)">
                    <path d="M0,3.554L0.881,3.678L1.759,3.554L2.122,3.255L2.122,0.33L1.984,0.316L1.759,0.271L1.251,0.168L0.881,0.22L0,0.096L-0.116,0.079L-0.363,-0.124L-0.363,3.255L0,3.554Z" style="fill:rgb(221,221,221);fill-rule:nonzero;"/>
                </g>
                <g transform="matrix(1,0,0,1,1239.36,1207.77)">
                    <path d="M0,-0.356L-0.363,-0.056L-1.242,0.067L-2.123,-0.056L-2.486,-0.356L-2.486,-0.472L-2.626,-0.356L-2.221,-0.023L-1.242,0.116L-0.264,-0.023L0.141,-0.356L0,-0.472L0,-0.356Z" style="fill:rgb(221,221,221);fill-rule:nonzero;"/>
                </g>
                <g transform="matrix(1,0,0,1,1239.35,1218.45)">
                    <path d="M0,-4.126L-0.306,0.05L0.01,-0.21L0.01,-4.176L0,-4.126Z" style="fill:rgb(221,221,221);fill-rule:nonzero;"/>
                </g>
                <g transform="matrix(1,0,0,1,1241.09,1179.98)">
                    <path d="M0,-1.214L0.141,-1.223L0.3,-1.131L0.201,-0.484L-0.161,0.424L-0.161,0.655L0.325,-0.323L0.325,-1.869L0,-1.214Z" style="fill:rgb(221,221,221);fill-rule:nonzero;"/>
                </g>
                <g transform="matrix(1,0,0,1,1223.31,1176.32)">
                    <rect x="-1.417" y="-0.483" width="1.417" height="1.941" style="fill:rgb(221,221,221);fill-rule:nonzero;"/>
                </g>
                <g transform="matrix(1,0,0,1,1225.99,1175.83)">
                    <path d="M-0.088,74.031L4.967,74.031L4.967,62.523L4.988,62.545L4.988,45.777L4.967,45.746L4.967,11.98L4.988,12.116L4.988,5.182L4.967,5.024L4.967,4.365L4.988,4.374L6.571,4.987L12.704,4.886L15.027,4.994L14.932,4.804L14.932,4.575L15.295,3.665L15.394,3.019L15.235,2.929L12.704,3.136L7.177,3.046L6.697,2.86L6.359,2.092L5.756,0.719L3.951,0L-0.892,0L-0.892,1.941L3.331,1.941L3.8,2.128L4.008,2.601L4.135,2.895L4.152,2.931L4.353,3.391L4.448,3.601L4.519,3.762L4.551,3.829L4.519,3.762L4.448,3.601L4.353,3.589L4.353,3.391L4.152,2.931L4.135,2.895L4.008,2.601L0.546,2.601L0.384,2.622L0.229,2.686L0.099,2.787L0,2.918L-0.064,3.071L-0.064,5.024L-0.088,5.182L-0.088,6.467L-0.064,6.313L-0.064,11.98L-0.088,12.116L-0.088,14.559L-0.064,14.431L-0.064,17.138L-0.088,17.258L-0.088,37.794L-0.064,37.738L-0.064,45.746L-0.088,45.777L-0.088,58.156L-0.064,58.163L-0.064,62.308L-0.088,62.288L-0.088,74.031Z" style="fill:rgb(221,221,221);fill-rule:nonzero;"/>
                </g>
                <g transform="matrix(1,0,0,1,1225.1,1176.32)">
                    <rect x="-1.791" y="-0.646" width="1.791" height="2.267" style="fill:rgb(221,221,221);fill-rule:nonzero;"/>
                </g>
                <g transform="matrix(1,0,0,1,1236.92,1212.01)">
                    <path d="M0,6.267L0.324,1.931L0.839,0.854L1.188,0.395L0.98,0.353L0.321,0.126L-0.042,0L-0.042,6.233L0,6.267Z" style="fill:rgb(221,221,221);fill-rule:nonzero;"/>
                </g>
                <g transform="matrix(-0.915957,0.401276,0.401276,0.915957,1244.16,1204.81)">
                    <path d="M0.001,-0.204L0.116,-0.204L0.176,-0.058L-0.135,-0.144L0.001,-0.204Z" style="fill:rgb(221,221,221);fill-rule:nonzero;"/>
                </g>
                <g transform="matrix(0.774785,0.632225,0.632225,-0.774785,1241.03,1204.57)">
                    <path d="M-0.036,-0.103L0.287,-0.103L0.19,0.022L0.078,-0.01L-0.036,-0.103Z" style="fill:rgb(221,221,221);fill-rule:nonzero;"/>
                </g>
                <g transform="matrix(0.51698,-0.855997,-0.855997,-0.51698,1240.28,1213.76)">
                    <path d="M-0.445,0.678L0.797,0.678L1.022,0.679L1.202,0.788L-0.445,0.678Z" style="fill:rgb(221,221,221);fill-rule:nonzero;"/>
                </g>
                <g transform="matrix(1,0,0,1,1248.55,1240.95)">
                    <path d="M0,-3.675L0,-0.287L0.199,0.057L0.201,-0.092L0.199,-2.347L0.201,-2.85L0.199,-3.732L0,-3.675Z" style="fill:rgb(221,221,221);fill-rule:nonzero;"/>
                </g>
                <g transform="matrix(1,0,0,1,1248.55,1240.96)">
                    <path d="M0,-0.298L0,0.31L0.451,0.497L0.199,0.048L0.199,0.046L0,-0.298Z" style="fill:rgb(221,221,221);fill-rule:nonzero;"/>
                </g>
                <g transform="matrix(1,0,0,1,1248.53,1241.43)">
                    <path d="M0,-4.143L-0.694,-3.195L-0.694,-0.791L-0.424,-0.791L-0.424,0.008L0,-0.168L0.023,-0.155L0.023,-4.151L0,-4.143Z" style="fill:rgb(221,221,221);fill-rule:nonzero;"/>
                </g>
                <g transform="matrix(1,0,0,1,0,-5863.08)">
                    <rect x="1247.66" y="7110.5" width="0.159" height="0.351" style="fill:rgb(142,142,142);"/>
                </g>
                <g transform="matrix(1,0,0,1,0,-5861.15)">
                    <rect x="1247.66" y="7109.41" width="0.159" height="0.589" style="fill:rgb(142,142,142);"/>
                </g>
                <g transform="matrix(1,0,0,1,0,-5882.81)">
                    <path d="M1253.06,7119.95L1258.83,7119.95L1258.83,7121.12L1253.06,7121.12L1253.06,7119.95ZM1259.39,7121.2L1259.39,7119.88L1260.26,7119.88L1260.26,7121.2L1259.39,7121.2ZM1251.24,7119.58L1251.24,7121.49L1260.45,7121.49L1260.45,7119.58L1251.24,7119.58Z" style="fill:rgb(142,142,142);fill-rule:nonzero;"/>
                </g>
                <g transform="matrix(1,0,0,1,1260.07,1238.38)">
                    <rect x="0" y="-1.319" width="0.197" height="1.319" style="fill:rgb(142,142,142);fill-rule:nonzero;"/>
                </g>
                <g transform="matrix(1,0,0,1,0,-5882.63)">
                    <rect x="1259.39" y="7119.88" width="0.673" height="1.137" style="fill:rgb(142,142,142);"/>
                </g>
                <g transform="matrix(1,0,0,1,1225.02,1251.3)">
                    <rect x="0" y="-1.137" width="0.684" height="1.137" style="fill:rgb(142,142,142);fill-rule:nonzero;"/>
                </g>
                <g transform="matrix(1,0,0,1,0,-5857.95)">
                    <rect x="1225.02" y="7108.1" width="0.684" height="0.008" style="fill:rgb(142,142,142);"/>
                </g>
                <g transform="matrix(1,0,0,1,0,-5856.62)">
                    <path d="M1232.03,7108.03L1226.26,7108.03L1226.26,7106.85L1232.03,7106.85L1232.03,7108.03ZM1225.7,7106.77L1225.7,7108.11L1224.82,7108.11L1224.82,7106.77L1225.7,7106.77ZM1233.85,7108.4L1233.85,7106.48L1224.64,7106.48L1224.64,7108.4L1233.85,7108.4Z" style="fill:rgb(142,142,142);fill-rule:nonzero;"/>
                </g>
                <g transform="matrix(1,0,0,1,1225.7,1251.49)">
                    <rect x="-0.68" y="-0.008" width="0.684" height="0.008" style="fill:rgb(142,142,142);fill-rule:nonzero;"/>
                </g>
                <g transform="matrix(1,0,0,1,1224.82,1251.49)">
                    <rect x="0" y="-1.336" width="0.197" height="1.336" style="fill:rgb(142,142,142);fill-rule:nonzero;"/>
                </g>
                <g transform="matrix(1,0,0,1,1245.05,1202.92)">
                    <path d="M0,0.768L0.476,0.72L0.784,0.688L2.051,0.433L2.054,0.43L2.054,0.225L0.476,0.145L0,0L0,0.768Z" style="fill:rgb(142,142,142);fill-rule:nonzero;"/>
                </g>
                <g transform="matrix(1,0,0,1,1245.05,1203.05)">
                    <path d="M0,-0.434L0.007,-0.433L0,-0.431L0,-0.13L0.476,0.014L2.055,0.093L2.172,0.259L2.055,0.299L2.052,0.3L0.786,0.558L0.476,0.589L0,0.637L0,0.728L0.888,0.639L2.214,0.37L3.299,-0.003L4.075,-0.457L4.075,-0.709L3.842,-1.016L3.437,-1.162L3.437,-0.727L3.166,-0.4L2.295,-0.235L1.336,-0.328L0.85,-0.624L0.85,-1.066L0.409,-0.944L-0.116,-0.655L0,-0.515L0,-0.434Z" style="fill:rgb(142,142,142);fill-rule:nonzero;"/>
                </g>
                <g transform="matrix(1,0,0,1,1247.27,1203.8)">
                    <path d="M0,-0.375L-1.326,-0.105L-2.214,-0.017L-2.214,0.088L-2.496,0.434L-2.651,0.527L-2.651,0.686L-2.802,0.686L-2.802,0.827L-1.463,0.693L-1.326,0.679L-1.1,0.634L-0.592,0.531L-0.222,0.455L0,0.41L0.775,0.143L1.086,0.037L1.188,-0.024L1.861,-0.417L1.861,-1.202L1.086,-0.748L0,-0.375Z" style="fill:rgb(142,142,142);fill-rule:nonzero;"/>
                </g>
                <g transform="matrix(1,0,0,1,1248.35,1204.32)">
                    <path d="M0,-0.484L-0.31,-0.377L-1.087,-0.11L-1.309,-0.067L-1.678,0.009L-1.309,0.061L-0.428,-0.062L-0.31,-0.079L-0.065,-0.282L0.101,-0.417L0.101,-0.545L0,-0.484Z" style="fill:rgb(142,142,142);fill-rule:nonzero;"/>
                </g>
                <g transform="matrix(1,0,0,1,1246.52,1211.77)">
                    <path d="M0,-0.071L0.063,0.015L0.338,-0.041L0.338,-0.086L0,-0.071Z" style="fill:rgb(142,142,142);fill-rule:nonzero;"/>
                </g>
                <g transform="matrix(1,0,0,1,1247.27,1211.58)">
                    <path d="M0,0.188L-0.603,0.311L-0.208,0.827L0,0.785L0.659,0.558L1.022,0.432L1.086,0.411L1.861,-0.042L1.861,-0.639L1.086,-0.186L0,0.188Z" style="fill:rgb(142,142,142);fill-rule:nonzero;"/>
                </g>
                <g transform="matrix(1,0,0,1,1247.93,1211.03)">
                    <path d="M0,-0.003L-0.881,0.121L-1.759,-0.003L-2.122,-0.302L-2.122,-0.67L-2.376,-0.599L-1.41,0.668L-1.072,0.652L-1.036,0.69L-1.05,0.693L-1.072,0.697L-1.347,0.753L-1.262,0.862L-0.659,0.739L0.427,0.366L1.202,-0.088L1.202,-0.34L0.969,-0.647L0.363,-0.865L0.363,-0.302L0,-0.003Z" style="fill:rgb(142,142,142);fill-rule:nonzero;"/>
                </g>
                <g transform="matrix(1,0,0,1,1221.89,1176.3)">
                    <path d="M0,1.634L0,-0.633L-12.961,-0.928L-12.961,1.916L0,1.634Z" style="fill:rgb(142,142,142);fill-rule:nonzero;"/>
                </g>
                <g transform="matrix(1,0,0,1,1237.9,1210.98)">
                    <path d="M0,1.382L0.208,1.424L0.603,0.908L0,0.785L-1.086,0.412L-1.861,-0.042L-1.861,0.555L-1.086,1.008L-1.022,1.029L-0.659,1.155L0,1.382Z" style="fill:rgb(142,142,142);fill-rule:nonzero;"/>
                </g>
                <g transform="matrix(1,0,0,1,1238.65,1209.65)">
                    <path d="M0,2.048L-0.063,2.132L-0.148,2.241L-0.543,2.758L-0.892,3.217L-0.67,2.98L2.453,-1.169L0.966,0.78L0,2.048Z" style="fill:rgb(142,142,142);fill-rule:nonzero;"/>
                </g>
                <g transform="matrix(1,0,0,1,1237.9,1210.28)">
                    <path d="M0,1.481L0.603,1.604L0.687,1.495L0.412,1.439L0.377,1.432L0.412,1.394L0.751,1.41L1.717,0.143L1.463,0.072L1.463,0.439L1.1,0.739L0.222,0.863L-0.659,0.739L-1.022,0.439L-1.022,-0.123L-1.629,0.095L-1.861,0.401L-1.861,0.654L-1.086,1.107L0,1.481Z" style="fill:rgb(142,142,142);fill-rule:nonzero;"/>
                </g>
                <g transform="matrix(0.979187,0.202959,0.202959,-0.979187,1238.32,1211.69)">
                    <rect x="0.002" y="-0.034" width="0.325" height="0.098" style="fill:rgb(142,142,142);"/>
                </g>
                <g transform="matrix(1,0,0,1,1263.27,1177.93)">
                    <path d="M0,-2.255L0,0.012L12.961,0.294L12.961,-2.549L0,-2.255Z" style="fill:rgb(142,142,142);fill-rule:nonzero;"/>
                </g>
                <g transform="matrix(1,0,0,1,1239.36,1218.45)">
                    <path d="M0,-0.21L-0.317,0.05L-0.321,0.143L-0.241,0.13L0.172,-0.21L0,-0.353L0,-0.21Z" style="fill:rgb(142,142,142);fill-rule:nonzero;"/>
                </g>
                <g transform="matrix(1,0,0,1,1245.63,1218.45)">
                    <path d="M0,-0.21L0.413,0.13L0.495,0.143L0.491,0.05L0.174,-0.21L0.174,-0.353L0,-0.21Z" style="fill:rgb(142,142,142);fill-rule:nonzero;"/>
                </g>
                <g transform="matrix(1,0,0,1,1248.29,1218.27)">
                    <path d="M0,-0.025L-0.042,0.009L-0.031,0.143L0.174,-0.025L0,-0.168L0,-0.025Z" style="fill:rgb(142,142,142);fill-rule:nonzero;"/>
                </g>
                <g transform="matrix(1,0,0,1,1243.99,1189.39)">
                    <path d="M0,-0.053L-0.059,0L-0.059,0.306L0.373,-0.053L0,-0.359L0,-0.053Z" style="fill:rgb(142,142,142);fill-rule:nonzero;"/>
                </g>
                <g transform="matrix(1,0,0,1,1243.93,1189.58)">
                    <path d="M0,0.122L0,0.359L0.432,-0L0.432,-0.237L0,0.122Z" style="fill:rgb(142,142,142);fill-rule:nonzero;"/>
                </g>
                <g transform="matrix(1,0,0,1,1240.8,1189.85)">
                    <path d="M0,-0.505L0,-0.268L0.434,0.09L0.434,-0.146L0,-0.505Z" style="fill:rgb(142,142,142);fill-rule:nonzero;"/>
                </g>
                <g transform="matrix(1,0,0,1,1240.8,1189.39)">
                    <path d="M0,-0.053L0.434,0.306L0.434,0L0.373,-0.053L0.373,-0.359L0,-0.053Z" style="fill:rgb(142,142,142);fill-rule:nonzero;"/>
                </g>
                <g transform="matrix(-1,0,0,1,2485.16,-6000.49)">
                    <rect x="1241.41" y="7178.6" width="2.341" height="1.545" style="fill:rgb(142,142,142);"/>
                </g>
                <g transform="matrix(1,0,0,1,1243.75,1181.61)">
                    <path d="M0,-1.954L-2.341,-1.954L-2.827,-0.977L-2.732,-0.787L-2.341,0L-2.231,0L-2.249,-0.85L-2.249,-1.107L-2.016,-1.573L-1.459,-1.765L-1.17,-1.906L-0.881,-1.765L-0.324,-1.573L-0.092,-1.107L-0.092,-0.85L-0.109,0L0,0L0.391,-0.787L0.486,-0.977L0,-1.954Z" style="fill:rgb(142,142,142);fill-rule:nonzero;"/>
                </g>
                <g transform="matrix(1,0,0,1,1243.51,1186.32)">
                    <path d="M3.458,-4.388L-5.369,-4.388L-5.644,-4.367L-5.83,-4.335L-6.856,-2.453L-4.946,0L-4.6,-0.272L-1.854,-3.28L-1.403,-3.28L-0.955,-2.707L-0.508,-3.28L-0.057,-3.28L2.689,-0.272L3.035,0L4.946,-2.453L3.92,-4.335L3.733,-4.367L3.458,-4.388Z" style="fill:rgb(142,142,142);fill-rule:nonzero;"/>
                </g>
                <g transform="matrix(1,0,0,1,1243.62,1180.51)">
                    <path d="M0,1.431L0.015,1.431L0.023,1.108L0.04,0.258L0.04,0L0,1.431Z" style="fill:rgb(142,142,142);fill-rule:nonzero;"/>
                </g>
                <g transform="matrix(1,0,0,1,1247.26,1243.71)">
                    <rect x="0" y="-4.711" width="0.12" height="4.711" style="fill:rgb(142,142,142);fill-rule:nonzero;"/>
                </g>
                <g transform="matrix(1,0,0,1,1246.8,1243.71)">
                    <path d="M0,-4.711L0,-2.374L-0.002,-2.357L0,-2.355L0,0L0.195,0L0.195,-4.711L0,-4.711Z" style="fill:rgb(142,142,142);fill-rule:nonzero;"/>
                </g>
                <g transform="matrix(1,0,0,1,1247.22,1245.32)">
                    <rect x="-0.218" y="-7.929" width="0.26" height="7.929" style="fill:rgb(142,142,142);fill-rule:nonzero;"/>
                </g>
                <g transform="matrix(1,0,0,1,1245.17,1243.71)">
                    <rect x="0" y="-4.711" width="0.113" height="4.711" style="fill:rgb(142,142,142);fill-rule:nonzero;"/>
                </g>
                <g transform="matrix(1,0,0,1,1245.28,1247.14)">
                    <rect x="0" y="-11.562" width="0.26" height="11.562" style="fill:rgb(142,142,142);fill-rule:nonzero;"/>
                </g>
                <g transform="matrix(1,0,0,1,1246.04,1243.83)">
                    <rect x="-0.501" y="-4.955" width="0.667" height="4.955" style="fill:rgb(142,142,142);fill-rule:nonzero;"/>
                </g>
                <g transform="matrix(1,0,0,1,1245.17,1237.88)">
                    <path d="M0,34.151L0,-27.195L-0.074,-27.239L-0.726,-27.614L-1.315,-27.955L-1.544,-28.086L-1.565,-28.1L-3.377,-28.1L-3.729,-27.896L-3.99,-27.744L-4.671,-27.353L-4.945,-27.195L-4.945,34.151L-3.377,35.056L-1.565,35.056L0,34.151Z" style="fill:rgb(142,142,142);fill-rule:nonzero;"/>
                </g>
                <g transform="matrix(1,0,0,1,1239.64,1203.54)">
                    <path d="M0,-0.478L-1.579,-0.398L-1.579,-0.19L-1.575,-0.19L-0.31,0.065L0,0.097L0.476,0.145L0.476,-0.623L0,-0.478Z" style="fill:rgb(142,142,142);fill-rule:nonzero;"/>
                </g>
                <g transform="matrix(1,0,0,1,1236.71,1204.25)">
                    <path d="M0,-0.35L0.166,-0.216L0.413,-0.013L0.529,0.004L1.41,0.128L1.781,0.076L1.41,0L1.187,-0.044L0.413,-0.31L0.103,-0.417L0,-0.478L0,-0.35Z" style="fill:rgb(142,142,142);fill-rule:nonzero;"/>
                </g>
                <g transform="matrix(1,0,0,1,1237.12,1203.28)">
                    <path d="M0,0.661L0.776,0.928L0.998,0.973L1.368,1.049L1.875,1.152L2.101,1.197L2.238,1.211L3.578,1.345L3.578,1.204L3.384,1.204L3.384,1.02L3.271,0.952L2.989,0.606L2.989,0.501L2.101,0.412L0.776,0.143L-0.31,-0.23L-1.086,-0.684L-1.086,0.1L-0.412,0.494L-0.31,0.555L0,0.661Z" style="fill:rgb(142,142,142);fill-rule:nonzero;"/>
                </g>
                <g transform="matrix(1,0,0,1,1239.26,1203.68)">
                    <path d="M0,-1.698L0,-1.256L-0.487,-0.959L-1.445,-0.866L-2.316,-1.032L-2.588,-1.359L-2.588,-1.794L-2.993,-1.648L-3.225,-1.341L-3.225,-1.089L-2.45,-0.635L-1.364,-0.262L-0.039,0.008L0.849,0.096L0.849,0.005L0.374,-0.043L0.063,-0.073L-1.202,-0.331L-1.206,-0.33L-1.322,-0.372L-1.206,-0.538L0.374,-0.618L0.849,-0.761L0.849,-1.062L0.842,-1.065L0.849,-1.066L0.849,-1.146L0.966,-1.286L0.441,-1.576L0,-1.698Z" style="fill:rgb(142,142,142);fill-rule:nonzero;"/>
                </g>
                <g transform="matrix(1,0,0,1,1236.7,1218.27)">
                    <path d="M0,-0.025L0.203,0.143L0.214,0.009L0.172,-0.025L0.172,-0.168L0,-0.025Z" style="fill:rgb(142,142,142);fill-rule:nonzero;"/>
                </g>
                <g transform="matrix(1,0,0,1,1246.34,1245.97)">
                    <path d="M0,-9.632L0,0L0.26,-0.323L0.26,-9.632L0,-9.632Z" style="fill:rgb(142,142,142);fill-rule:nonzero;"/>
                </g>
                <g transform="matrix(1,0,0,1,1247.84,1241.36)">
                    <path d="M0,-0.718L0,-0.682L-0.046,-0.682L-0.046,-0.059L0.157,-0.059L0.157,0L0.271,0L0.271,-0.718L0,-0.718Z" style="fill:rgb(142,142,142);fill-rule:nonzero;"/>
                </g>
            </g>
        </g>
    </g>
</svg>
