<?xml version="1.0" encoding="UTF-8" standalone="no"?>
<!DOCTYPE svg PUBLIC "-//W3C//DTD SVG 1.1//EN" "http://www.w3.org/Graphics/SVG/1.1/DTD/svg11.dtd">
<svg width="100%" height="100%" viewBox="0 0 108 241" version="1.1" xmlns="http://www.w3.org/2000/svg" xmlns:xlink="http://www.w3.org/1999/xlink" xml:space="preserve" xmlns:serif="http://www.serif.com/" style="fill-rule:evenodd;clip-rule:evenodd;stroke-linejoin:round;stroke-miterlimit:2;">
    <g id="Artboard1" transform="matrix(1,0,0,1,17.4709,59.2733)">
        <rect x="-17.471" y="-59.273" width="107.558" height="240.916" style="fill:none;"/>
        <g transform="matrix(1,0,0,1,-3325.35,-791.064)">
            <g id="biker-02-outbound">
                <g>
                    <g transform="matrix(1,0,0,1,3353.59,832.008)">
                        <path d="M0,-2.739L-0.242,-1.282L-0.76,-0.532L-1.689,0L-0.665,-0.414L-0.14,-1.073L0.221,-1.874L0.19,-1.994L0,-2.739Z" style="fill:rgb(120,71,34);fill-rule:nonzero;"/>
                    </g>
                    <g transform="matrix(1,0,0,1,3367.48,832.576)">
                        <path d="M0,-0.988L0.5,-0.203L1.737,0.178L0.552,-0.359L0.07,-1.166L0.016,-1.056L0,-0.988Z" style="fill:rgb(120,71,34);fill-rule:nonzero;"/>
                    </g>
                    <g transform="matrix(1,0,0,1,3367.71,826.023)">
                        <path d="M0,-1.39L-0.002,-1.335L-0.036,-0.356L-0.052,0.121L-0.079,0.896L0.049,0.564L0.18,0.078L0.326,-0.433L0.443,-0.738L0.503,-0.614L1.069,-2.081L0.832,-2.286L0.178,-1.581L0,-1.39Z" style="fill:rgb(120,71,34);fill-rule:nonzero;"/>
                    </g>
                    <g transform="matrix(1,0,0,1,3367.16,830.208)">
                        <path d="M0,-2.068L0.203,-2.595L0.206,-2.602L0.223,-3.005L0.275,-4.276L0.325,-5.471L-2.65,-5.471L0.454,-5.471L-1.565,-5.565L-9.169,-5.565L-11.742,-5.471L-8.909,-5.471L-11.742,-5.471L-11.763,-4.845L-11.818,-3.234L-11.872,-1.646L-11.888,-1.166L-10.247,1.661L-8.353,3.259L-6.233,3.497L-4.402,3.447L-2.427,3.097L-1.282,1.417L-1.077,-0.494L-1.337,-2.488L-1.077,-0.494L-1.282,1.417L-0.064,-1.902L0,-2.068Z" style="fill:rgb(120,71,34);fill-rule:nonzero;"/>
                    </g>
                    <g transform="matrix(1,0,0,1,3353.26,826.22)">
                        <path d="M0,-0.623L0.02,-0.683L0.22,-0.397L0.494,0.421L0.583,0.771L0.924,1.241L0.963,1.296L0.979,1.316L1.529,2.077L1.567,1.231L1.612,0.23L1.698,-1.694L1.181,-1.984L-0.09,-2.7L-0.204,-2.584L-0.732,-2.153L-1.142,-1.819L-1.237,-1.742L-1.229,-1.731L-0.568,-0.819L-0.101,-0.174L0,-0.623Z" style="fill:rgb(120,71,34);fill-rule:nonzero;"/>
                    </g>
                    <g transform="matrix(1,0,0,1,3353.01,825.641)">
                        <path d="M0,0.432L0.113,0.672L0.106,0.599L0.15,0.405L-0.317,-0.24L0,0.432Z" style="fill:rgb(120,71,34);fill-rule:nonzero;"/>
                    </g>
                    <g transform="matrix(1,0,0,1,3352.67,823.807)">
                        <path d="M0,-0.182L-0.142,0.261L0.387,-0.171L0.417,-0.333L0.222,-0.443L0,-0.182Z" style="fill:rgb(120,71,34);fill-rule:nonzero;"/>
                    </g>
                    <g transform="matrix(-0.441003,-0.897506,-0.897506,0.441003,3371.21,896.033)">
                        <path d="M-6.396,3.968L2.055,3.968L2.471,3.984L-0.601,4.441L-6.396,3.968Z" style="fill:rgb(66,76,160);fill-rule:nonzero;"/>
                    </g>
                    <g transform="matrix(1,0,0,1,3374.07,941.688)">
                        <path d="M0,-65.537L-0.25,-65.628L-2.642,-66.505L-3.878,-66.957L-4.104,-66.979L-8.187,-67.37L-11.94,-67.729L-12.015,-67.729L-16.045,-67.683L-19.939,-67.64L-20.123,-67.638L-21.251,-67.713L-23.87,-64.97L-26.564,-58.089L-30.658,-55.626L-33.824,-55.052L-35.166,-55.526L-33.313,-50.899L-32.511,-49.596L-31.383,-49.199L-29.645,-48.588L-29.288,-48.462L-29.246,-48.448L-29.197,-48.431L-27.066,-47.681L-26.202,-47.746L-25.927,-47.767L-24.793,-47.853L-24.406,-47.882L-18.831,-48.99L-18.165,-49.575L-18.382,-49.701L-19.981,-50.638L-20.259,-50.801L-21.09,-51.403L-21.168,-51.459L-21.163,-52.08L-21.158,-53.285L-20.79,-53.562L-20.05,-54.625L-19.626,-54.875L-19.158,-54.919L-18.342,-54.891L-17.129,-55.223L-17.094,-55.221L-17.091,-55.226L-15.002,-55.154L-14.544,-55.153L-13.007,-55.322L-12.859,-55.314L-12.666,-55.304L-12.652,-55.57L-12.666,-55.304L-12.472,-55.294L-12.324,-55.286L-10.813,-54.957L-10.357,-54.91L-8.326,-54.767L-8.323,-54.762L-8.281,-54.759L-7.071,-54.287L-6.264,-54.185L-5.818,-54.098L-5.515,-53.869L-4.825,-52.497L-4.52,-52.064L-4.653,-50.794L-4.658,-50.704L-4.728,-50.671L-5.787,-50.104L-6.659,-49.644L-7.053,-49.394L-8.247,-48.853L-8.742,-48.629L-8.89,-48.637L-8.816,-48.5L-8.01,-47.006L-7.684,-46.401L-7.656,-46.349L-7.531,-46.116L-7.332,-45.748L-3.606,-38.164L-0.35,-33.258L-3.606,-38.164L-6.586,-43.157L-3.776,-35.164L-3.137,-31.252L-2.484,-24.295L-3.368,-17.135L-4.396,-0.914L-3.271,1.984L-3.416,1.267L-2.976,1.04L-2.521,0.806L-2.127,0.603L-2.115,0.591L-2.109,0.586L-1.366,-0.137L-0.223,-0.077L-0.168,-0.074L-0.108,-0.071L0.364,-0.046L0.992,0.531L1.475,0.631L1.53,0.642L1.879,0.714L2.589,1.056L2.667,1.093L3.249,1.373L3.461,1.475L3.606,2.192L4.439,-0.777L6.806,-16.638L7.448,-23.621L7.928,-30.05L8.763,-34.633L7.808,-43.193L5.43,-51.031L5.101,-52.117L2.19,-60.741L0,-65.537Z" style="fill:rgb(66,76,160);fill-rule:nonzero;"/>
                    </g>
                    <g transform="matrix(1,0,0,1,3341.56,915.196)">
                        <path d="M0,-13.942L1.687,10.103L1.958,10.149L2.925,10.312L3.756,10.451L3.839,10.465L4.524,10.376L5.404,10.261L5.458,10.254L5.758,10.215L5.817,10.207L7.161,9.641L8.052,9.038L7.627,5.707L7.716,-12.987L7.716,-21.361L6.582,-21.275L6.308,-21.254L5.443,-21.189L3.312,-21.938L3.263,-21.956L3.221,-21.97L2.865,-22.096L1.126,-22.707L-0.002,-23.104L-0.803,-24.407L-1.007,-22.257L0,-13.942Z" style="fill:rgb(66,76,160);fill-rule:nonzero;"/>
                    </g>
                    <g transform="matrix(1,0,0,1,3346.11,882.258)">
                        <path d="M0,-3.322L-0.845,-2.615L-1.4,-2.152L-1.667,-1.929L-1.789,-1.827L-2.233,-1.456L-2.81,-0.974L-2.964,-0.845L-2.995,-0.819L-4.22,0.205L-1.091,0.27L1.513,-3.592L0,-3.322Z" style="fill:rgb(66,76,160);fill-rule:nonzero;"/>
                    </g>
                    <g transform="matrix(1,0,0,1,3350.2,882.528)">
                        <path d="M0,-8.729L-0.571,-8.403L-0.682,-8.34L-0.712,-8.236L-1.121,-6.835L-1.28,-6.288L-2.486,-3.995L-2.576,-3.862L-5.179,0L-2.996,-2.045L-0.07,-8.062L1.25,-8.646L0.483,-8.697L0,-8.729Z" style="fill:rgb(66,76,160);fill-rule:nonzero;"/>
                    </g>
                    <g transform="matrix(1,0,0,1,3359.61,815.019)">
                        <path d="M0,1.612L5.086,1.612L9.434,2.856L9.264,2.363L8.378,0.963L7.889,0.405L6.02,-0.553L5.978,-0.574L5.511,-1.438L5.346,-1.743L4.673,-2.228L2.311,-3.177L0.809,-3.153L-0.695,-3.177L-2.641,-2.228L-3.922,-1.57L-4.371,-1.142L-4.957,0.202L-6.858,1.316L-7.481,2.363L-8.58,4.789L-5.793,2.856L0,1.612Z" style="fill:rgb(66,76,160);fill-rule:nonzero;"/>
                    </g>
                    <g transform="matrix(1,0,0,1,3341.14,881.016)">
                        <path d="M0,0.32L1.06,0.376L1.737,0.41L1.739,0.403L1.775,0.207L1.533,0.007L1.482,-0.035L-0.048,-0.09L0,0.32Z" style="fill:rgb(242,211,173);fill-rule:nonzero;"/>
                    </g>
                    <g transform="matrix(1,0,0,1,3339.47,881.192)">
                        <path d="M0,-0.368L-0.037,0.054L0.713,0.094L1.469,0.133L1.485,-0.021L1.51,-0.269L1.08,-0.286L0.612,-0.302L0.014,-0.501L0,-0.368Z" style="fill:rgb(242,211,173);fill-rule:nonzero;"/>
                    </g>
                    <g transform="matrix(1,0,0,1,3341.03,881.079)">
                        <path d="M0,0.102L-0.001,0.25L0.104,0.257L0.056,-0.153L0.003,-0.155L0,0.102Z" style="fill:rgb(242,211,173);fill-rule:nonzero;"/>
                    </g>
                    <g transform="matrix(1,0,0,1,3339.31,878.718)">
                        <path d="M0,2.522L0.105,2.078L0.133,1.961L0.008,1.919L-0.382,1.789L-1.165,1.527L-0.382,1.789L0.008,1.919L0.136,1.962L0.141,1.963L0.167,1.972L0.765,2.172L0.708,2.127L0.115,1.709L0.112,1.708L0.092,1.694L0.072,1.678L-0.51,1.267L-0.982,0L-1.094,0.194L-1.283,1.094L-1.326,1.903L-1.326,2.453L-0.518,2.495L0,2.522Z" style="fill:rgb(242,211,173);fill-rule:nonzero;"/>
                    </g>
                    <g transform="matrix(1,0,0,1,3343.03,861.067)">
                        <path d="M0,17.118L-1.256,17.545L0,17.118ZM-3.648,19.33L-3.629,19.345L-3.609,19.359L-3.605,19.36L-3.012,19.778L-2.956,19.823L-2.488,19.84L-2.058,19.855L-1.999,19.857L-1.946,19.859L-0.415,19.914L-0.365,19.956L-0.122,20.155L0.109,20.346L0.264,20.217L0.84,19.735L1.284,19.364L1.407,19.261L1.673,19.039L2.228,18.576L1.762,17.331L0.085,15.484L-3.207,6.181L-3.658,7.066L-3.207,6.181L0.132,-0.372L-3.315,0.806L-6.01,0.665L-6.956,-1.186L-6.208,-3.228L-8.618,2.84L-9.295,4.631L-9.453,6.625L-9.039,9.499L-4.998,16.856L-4.702,17.651L-4.23,18.919L-3.648,19.33Z" style="fill:rgb(242,211,173);fill-rule:nonzero;"/>
                    </g>
                    <g transform="matrix(1,0,0,1,3340.04,883.976)">
                        <path d="M0,0.745L0.098,0.621L0.271,0.402L0.679,-0.115L0.689,-0.233L0.693,-0.29L-0.484,-0.352L-0.575,-0.254L-0.583,0.397L-0.596,1.092L-0.278,1.097L-0.206,1.006L0,0.745Z" style="fill:rgb(242,211,173);fill-rule:nonzero;"/>
                    </g>
                    <g transform="matrix(0.0215004,-0.999769,-0.999769,-0.0215004,3339.91,884.087)">
                        <path d="M-0.481,0.451L0.357,0.451L0.459,0.461L0.46,0.509L-0.481,0.451Z" style="fill:rgb(242,211,173);fill-rule:nonzero;"/>
                    </g>
                    <g transform="matrix(1,0,0,1,3337.97,884.829)">
                        <path d="M0,-1.288L-0.066,-1.291L-0.071,-1.167L0.077,-0.061L0.353,-0.014L0.745,0.003L1.019,-0.006L1.031,-0.663L1.036,-1.234L0.677,-1.252L0,-1.288Z" style="fill:rgb(242,211,173);fill-rule:nonzero;"/>
                    </g>
                    <g transform="matrix(0.514496,0.857493,0.857493,-0.514496,3354.03,831.315)">
                        <path d="M0.157,-0.037L0.285,-0.037L0.891,-0.037L-0.669,0.278L0.157,-0.037Z" style="fill:rgb(242,211,173);fill-rule:nonzero;"/>
                    </g>
                    <g transform="matrix(0.0478554,-0.998854,-0.998854,-0.0478554,3355.99,828.9)">
                        <path d="M-1.633,1.223L-0.651,1.223L0.545,1.228L1.279,1.813L-1.633,1.223Z" style="fill:rgb(242,211,173);fill-rule:nonzero;"/>
                    </g>
                    <g transform="matrix(1,0,0,1,3354.46,825.538)">
                        <path d="M0,6.56L0.099,6.557L0.16,6.555L0.244,6.479L0.211,5.972L0.19,5.881L0.221,5.228L0.235,4.936L-0.216,1.999L-0.231,1.978L-0.271,1.924L-0.611,1.454L-0.7,1.104L-0.974,0.286L-1.175,0L-1.194,0.06L-1.295,0.509L-1.339,0.703L-1.332,0.776L-1.287,1.296L-1.18,2.513L-0.87,3.731L-0.68,4.476L-0.649,4.596L-0.531,5.062L-0.353,5.317L0,6.56Z" style="fill:rgb(242,211,173);fill-rule:nonzero;"/>
                    </g>
                    <g transform="matrix(1,0,0,1,3382.19,887.31)">
                        <path d="M0,-1.395L-0.013,-0.755L-0.073,-0.06L0.349,-0.013L0.753,0.022L1.139,0.057L1.2,-0.635L1.26,-1.284L1.179,-1.39L0.002,-1.452L0,-1.395Z" style="fill:rgb(242,211,173);fill-rule:nonzero;"/>
                    </g>
                    <g transform="matrix(1,0,0,1,3384.28,887.215)">
                        <path d="M0,-1.247L-0.36,-1.266L-0.414,-0.698L-0.47,-0.044L-0.199,-0.005L0.193,0.019L0.472,0.001L0.735,-1.083L0.743,-1.208L0.677,-1.211L0,-1.247Z" style="fill:rgb(242,211,173);fill-rule:nonzero;"/>
                    </g>
                    <g transform="matrix(1,0,0,1,3383.88,882.086)">
                        <path d="M0,0.643L-0.021,0.656L-0.043,0.668L-0.046,0.669L-0.68,1.023L-0.741,1.061L-0.125,0.925L-0.098,0.919L-0.09,0.917L0.038,0.889L0.44,0.8L1.245,0.622L0.44,0.8L0.038,0.889L-0.09,0.917L-0.075,1.036L-0.017,1.489L0.501,1.517L1.309,1.559L1.366,1.012L1.409,0.203L1.315,-0.711L1.223,-0.916L0.622,0.295L0,0.643Z" style="fill:rgb(242,211,173);fill-rule:nonzero;"/>
                    </g>
                    <g transform="matrix(1,0,0,1,3380.55,883.444)">
                        <path d="M0,-0.435L-0.261,-0.263L-0.245,-0.064L-0.245,-0.055L0.432,-0.019L1.492,0.037L1.584,-0.367L0.055,-0.472L0,-0.435Z" style="fill:rgb(242,211,173);fill-rule:nonzero;"/>
                    </g>
                    <g transform="matrix(1,0,0,1,3380.75,887.262)">
                        <path d="M0,-1.451L0.026,-1.354L-0.185,-0.961L-0.223,-0.952L-0.23,-0.846L-0.237,-0.744L-0.264,-0.058L0.144,-0.04L0.95,0.028L1.03,-0.432L1.07,-1.386L1.071,-1.423L-0.008,-1.479L0,-1.451Z" style="fill:rgb(242,211,173);fill-rule:nonzero;"/>
                    </g>
                    <g transform="matrix(1,0,0,1,3378.45,887.255)">
                        <path d="M0,-0.875L0.119,-0.394L0.185,-0.123L0.224,0.037L0.279,0.041L0.281,0.236L0.702,0.072L0.834,-0.942L0.696,-0.346L0.775,-1.055L0.259,-1.089L-0.057,-1.111L0,-0.875Z" style="fill:rgb(242,211,173);fill-rule:nonzero;"/>
                    </g>
                    <g transform="matrix(1,0,0,1,3380.48,866.809)">
                        <path d="M0,13.339L1.205,13.895L0,13.339ZM8.764,0.04L7.002,-6.247L7.532,-4.138L6.399,-2.395L3.703,-2.537L0.398,-4.069L3.132,3.054L3.39,3.724L3.132,3.054L0.086,11.705L-1.775,13.367L-2.9,15.622L-2.952,15.728L-3.076,15.977L-3.268,16.358L-3.187,16.548L-2.972,17.051L-2.927,17.156L-2.88,17.264L-2.737,17.599L-2.221,18.803L-2.176,18.987L-2.09,19.336L-1.774,19.357L-1.259,19.391L-1.199,19.395L-1.006,19.407L-0.297,19.586L0.041,19.503L0.048,19.501L0.086,19.492L0.297,19.099L0.271,19.002L0.263,18.974L0.195,18.718L0.058,18.619L-0.017,18.6L-1.255,18.243L-1.331,18.224L-1.333,18.212L-1.519,17.695L-1.551,17.268L-1.911,17.506L-1.551,17.268L-0.485,16.564L-0.196,16.373L0.066,16.199L0.121,16.163L1.649,16.269L1.702,16.272L1.76,16.276L2.19,16.306L2.656,16.338L2.718,16.3L3.351,15.945L3.355,15.945L3.376,15.933L3.397,15.92L4.019,15.572L4.621,14.36L4.999,13.601L8.487,6.706L9.199,3.892L9.251,1.892L8.764,0.04Z" style="fill:rgb(242,211,173);fill-rule:nonzero;"/>
                    </g>
                    <g transform="matrix(1,0,0,1,3383.14,883.433)">
                        <path d="M0,-0.286L-0.467,-0.318L-0.896,-0.348L-0.898,-0.097L-0.898,0.058L-0.141,0.097L0.609,0.136L0.616,-0.289L0.616,-0.422L0,-0.286Z" style="fill:rgb(242,211,173);fill-rule:nonzero;"/>
                    </g>
                    <g transform="matrix(1,0,0,1,3382.04,883.082)">
                        <path d="M0,0.398L0.105,0.403L0.121,0.255L0.143,-0.001L0.091,-0.005L0,0.398Z" style="fill:rgb(242,211,173);fill-rule:nonzero;"/>
                    </g>
                    <g transform="matrix(1,0,0,1,3368.04,831.45)">
                        <path d="M0,-5.859L-0.146,-5.349L-0.277,-4.862L-0.405,-4.531L-0.417,-4.2L-0.494,-1.957L-0.581,-1.655L-0.775,-0.98L-1.037,-0.068L-1.069,0.019L-1.148,0.27L-1.135,0.274L-1.118,0.278L-1.016,0.306L-0.856,0.301L-0.597,-0.364L-0.557,-0.468L-0.363,-0.965L0.388,-3.901L0.333,-5.718L0.177,-6.04L0.117,-6.165L0,-5.859Z" style="fill:rgb(242,211,173);fill-rule:nonzero;"/>
                    </g>
                    <g transform="matrix(1,0,0,1,3357.69,829.535)">
                        <path d="M0,8.582L0.875,8.488L1.711,8.398L3.213,8.236L3.283,8.059L3.393,8.217L4.718,8.074L5.669,8.086L7.103,8.104L7.1,8.056L7.268,8.106L7.448,8.108L7.849,8.113L9.439,8.349L9.937,8.437L10.015,8.451L8.89,6.502L8.534,4.263L8.531,4.247L8.486,3.958L8.469,3.858L8.463,3.816L8.188,2.09L7.044,3.77L5.068,4.12L3.237,4.17L1.117,3.931L-0.777,2.334L-2.418,-0.493L-2.442,0.214L-2.445,0.318L-2.523,2.343L-2.55,3.038L-2.612,3.038L-2.554,3.165L-2.561,3.341L-2.568,3.53L-2.571,3.603L-1.884,5.132L-1.742,5.291L-1.851,4.953L-1.742,5.291L-1.734,5.314L-1.579,5.794L-1.547,5.894L-1.516,5.991L-1.482,6.094L-1.559,4.847L-1.482,6.094L-1.387,7.632L-1.927,8.881L-1.895,8.87L-1.771,8.823L-1.895,8.87L-1.927,8.881L-2.445,9.075L-2.316,9.049L0,8.582Z" style="fill:rgb(242,211,173);fill-rule:nonzero;"/>
                    </g>
                    <g transform="matrix(1,0,0,1,3366.44,829.178)">
                        <path d="M0,3.277L0.094,2.985L0.228,2.482L0.338,1.248L0.724,-1.038L0.66,-0.872L-0.558,2.447L-0.284,4.173L-0.277,4.215L-0.261,4.315L0.01,3.299L0,3.277Z" style="fill:rgb(242,211,173);fill-rule:nonzero;"/>
                    </g>
                    <g transform="matrix(1,0,0,1,3366.53,831.661)">
                        <path d="M0,0.503L0.16,0.006L0.135,0L0,0.503Z" style="fill:rgb(242,211,173);fill-rule:nonzero;"/>
                    </g>
                    <g transform="matrix(1,0,0,1,3367.16,831.139)">
                        <path d="M0,-2.999L-0.387,-0.714L-0.497,0.521L-0.472,0.527L-0.271,-0.093L-0.081,-0.686L0.113,-1.286L0.204,-3.5L0.203,-3.526L0,-2.999Z" style="fill:rgb(242,211,173);fill-rule:nonzero;"/>
                    </g>
                    <g transform="matrix(1,0,0,1,3377.32,944.368)">
                        <path d="M0,-1.307L-0.582,-1.587L-0.533,-1.347L-0.695,-0.052L-0.734,0.261L-0.729,0.28L0.357,-0.488L0.212,-1.205L0,-1.307Z" style="fill:rgb(51,51,51);fill-rule:nonzero;"/>
                    </g>
                    <g transform="matrix(1,0,0,1,3371.1,943.553)">
                        <path d="M0,-0.825L-0.44,-0.598L-0.294,0.118L-0.099,0.235L0.276,-0.445L0.463,-0.779L0.455,-1.06L0,-0.825Z" style="fill:rgb(51,51,51);fill-rule:nonzero;"/>
                    </g>
                    <g transform="matrix(1,0,0,1,3354.54,834.844)">
                        <path d="M0,-1.157L1.166,0L0.546,-0.829L0,-1.157Z" style="fill:rgb(51,51,51);fill-rule:nonzero;"/>
                    </g>
                    <g transform="matrix(1,0,0,1,3343.41,874.457)">
                        <path d="M0,11.605L4.094,9.142L6.788,2.261L9.406,-0.482L8.032,-0.574L6.712,0.009L3.786,6.026L1.603,8.071L-1.527,8.006L-1.605,8.1L-2.553,9.235L-2.638,9.337L-2.66,9.365L-2.684,9.394L-2.691,9.404L-3.1,9.921L-3.272,10.14L-3.37,10.264L-3.576,10.525L-3.648,10.616L-4.508,11.705L-3.166,12.179L0,11.605Z" style="fill:white;fill-rule:nonzero;"/>
                    </g>
                    <g transform="matrix(1,0,0,1,3342.6,886.414)">
                        <path d="M0,38.633L0.212,38.716L0.648,38.885L-1.039,14.84L-2.047,6.524L-1.843,4.375L-3.696,-0.252L-3.771,3.623L-4.08,6.56L-3.504,15.431L-1.542,34.378L-0.998,38.245L-0.217,38.548L-0.019,38.626L0,38.633Z" style="fill:white;fill-rule:nonzero;"/>
                    </g>
                    <g transform="matrix(1,0,0,1,3374.66,880.77)">
                        <path d="M0,-4.442L-0.043,-4.42L-0.542,-4.603L-0.587,-4.619L1.604,0.177L0.23,-3.168L0,-4.442Z" style="fill:white;fill-rule:nonzero;"/>
                    </g>
                    <g transform="matrix(1,0,0,1,3377.74,886.108)">
                        <path d="M0,-1.7L-0.143,-2.035L-0.189,-2.143L-0.234,-2.248L-0.45,-2.751L-0.531,-2.941L-0.801,-3.571L-0.846,-3.677L-1.482,-5.162L1.428,3.462L0.561,-0.312L0.516,-0.496L0,-1.7Z" style="fill:white;fill-rule:nonzero;"/>
                    </g>
                    <g transform="matrix(1,0,0,1,3341.36,859.882)">
                        <path d="M0,-9.181L-4.531,-2.042L-5.279,0L0,-9.181Z" style="fill:white;fill-rule:nonzero;"/>
                    </g>
                    <g transform="matrix(1,0,0,1,3337.02,843.694)">
                        <path d="M0,18.039L2.696,18.18L6.143,17.002L10.052,10.206L10.043,9.826L9.724,9.012L9.664,7.879L9.591,6.51L9.553,5.794L9.542,5.71L9.326,4.112L9.137,2.709L9.12,2.583L9.083,2.289L8.963,1.314L8.88,0.643L8.877,0.605L8.818,-0.015L8.806,-0.141L7.255,1.631L4.653,6.453L4.334,7.007L-0.945,16.188L0,18.039Z" style="fill:white;fill-rule:nonzero;"/>
                    </g>
                    <g transform="matrix(1,0,0,1,3352.87,938.15)">
                        <path d="M0,7.798L0.001,7.79L0.035,7.129L0.043,6.989L0.346,1.194L0.35,1.115L0.38,0.541L0.394,0.291L0.408,0.018L0.421,-0.236L0.371,-0.458L0.433,-0.455L0.449,-0.765L0.231,-1.054L-1.169,-1.128L-1.417,-0.863L-1.433,-0.553L-1.371,-0.55L-1.444,-0.333L-1.458,-0.079L-1.472,0.193L-1.485,0.443L-1.515,1.017L-1.519,1.097L-1.823,6.891L-1.865,7.692L-1.908,8.517L-1.913,8.602L-1.692,8.852L-0.292,8.926L-0.047,8.7L-0.042,8.615L-0.042,8.61L-0.039,8.539L0,7.798Z" style="fill:white;fill-rule:nonzero;"/>
                    </g>
                    <g transform="matrix(1,0,0,1,3377.86,863.855)">
                        <path d="M0,-21.555L-0.063,-20.622L-0.08,-20.381L-0.156,-19.28L-0.205,-18.552L-0.214,-18.431L-0.253,-17.943L-0.301,-17.651L-0.446,-16.831L-0.568,-15.599L-0.56,-15.376L-0.51,-14.751L-0.471,-13.217L-0.469,-11.979L-0.51,-11.376L-0.528,-11.106L-0.487,-10.562L3.019,-1.115L6.323,0.417L9.02,0.558L10.153,-1.184L6.928,-9.71L5.866,-12.521L3.781,-17.589L0.854,-21.741L0.038,-22.113L0.013,-21.75L0,-21.555Z" style="fill:white;fill-rule:nonzero;"/>
                    </g>
                    <g transform="matrix(1,0,0,1,3387.48,856.254)">
                        <path d="M0,4.308L-2.694,-2.109L0.53,6.417L0,4.308Z" style="fill:white;fill-rule:nonzero;"/>
                    </g>
                    <g transform="matrix(0.0736134,0.997287,0.997287,-0.0736134,3377.47,852.253)">
                        <path d="M-0.086,-0.173L0.484,-0.173L0.218,-0.135L-0.381,-0.051L-0.086,-0.173Z" style="fill:white;fill-rule:nonzero;"/>
                    </g>
                    <g transform="matrix(1,0,0,1,3377.14,954.922)">
                        <path d="M0,-5.757L0.374,-3.255L0.43,-2.827L0.457,0.011L0.261,-1.018L0.363,1.316L0.509,2.424L0.553,-2.444L-0.171,-8.181L0,-5.757Z" style="fill:white;fill-rule:nonzero;"/>
                    </g>
                    <g transform="matrix(1,0,0,1,3376.54,950.903)">
                        <path d="M0,-6.454L-0.022,-6.542L-0.701,-6.586L-2.16,-6.068L-5.234,-6.199L-5.744,-6.752L-7.725,-3.103L-5.98,-4.518L-2.189,-4.32L-0.227,-2.855L0.745,0.298L0.329,-2.446L0.126,-4.668L0.248,-4.136L0.511,-2.889L0.35,-5.077L0.051,-6.255L0.046,-6.274L0,-6.454Z" style="fill:white;fill-rule:nonzero;"/>
                    </g>
                    <g transform="matrix(1,0,0,1,3366.05,946.057)">
                        <path d="M0,6.654L0.008,6.671L0.209,7.126L0.58,0.053L0.59,-0.149L0.37,-0.399L-1.03,-0.472L-1.275,-0.247L-1.28,-0.157L-1.315,0.513L-1.354,1.253L-1.358,1.325L-1.654,7.024L-1.4,6.581L0,6.654Z" style="fill:white;fill-rule:nonzero;"/>
                    </g>
                    <g transform="matrix(1,0,0,1,3366.21,954.117)">
                        <path d="M0,0.042L0.01,-0.151L0.028,-0.484L-0.022,-0.707L0.039,-0.703L0.051,-0.934L-0.15,-1.39L-0.158,-1.406L-1.557,-1.479L-1.812,-1.036L-1.814,-1.032L-1.826,-0.801L-1.765,-0.798L-1.838,-0.582L-1.855,-0.249L-1.865,-0.056L-1.909,0.769L-1.913,0.849L-1.929,1.158L-1.711,1.448L-0.311,1.521L-0.063,1.256L-0.047,0.946L-0.043,0.867L0,0.042Z" style="fill:white;fill-rule:nonzero;"/>
                    </g>
                    <g transform="matrix(1,0,0,1,3340.02,926.113)">
                        <path d="M0,7.186L-0.162,5.554L0.269,3.971L0.385,3.738L1.038,3.287L1.257,3.066L1.658,2.855L1.838,2.766L1.237,5.015L0.413,6.769L1.603,7.816L3.702,7.846L7.497,7.96L9.096,8.045L8.753,6.095L8.635,5.426L8.577,5.102L8.104,2.414L7.836,0.896L7.896,2.835L7.144,5.164L4.072,5.022L2.862,2.626L2.335,0.731L1.838,0.523L1.782,-0.859L0.207,2.774L-0.529,6.558L-0.357,7.546L0,7.186Z" style="fill:white;fill-rule:nonzero;"/>
                    </g>
                    <g transform="matrix(1,0,0,1,3347.86,928.338)">
                        <path d="M0,-1.328L0.268,0.19L0.096,-1.518L0,-1.328Z" style="fill:white;fill-rule:nonzero;"/>
                    </g>
                    <g transform="matrix(1,0,0,1,3357.9,886.756)">
                        <path d="M0,5.914L6.279,6.243L7.28,6.295L7.427,6.303L7.923,6.079L9.116,5.539L9.511,5.288L10.383,4.828L11.442,4.261L11.512,4.228L11.517,4.138L11.65,2.868L11.345,2.435L10.655,1.063L10.352,0.834L9.906,0.747L9.099,0.646L7.889,0.173L7.847,0.17L7.844,0.165L5.813,0.022L5.357,-0.025L3.845,-0.354L3.698,-0.362L3.504,-0.372L3.311,-0.382L3.163,-0.389L1.626,-0.221L1.167,-0.222L-0.921,-0.294L-0.924,-0.289L-0.959,-0.291L-2.172,0.042L-2.988,0.013L-3.457,0.058L-3.88,0.307L-4.62,1.37L-4.988,1.647L-4.989,3.273L-4.998,3.473L-4.92,3.529L-4.089,4.131L-3.811,4.294L-2.212,5.231L-1.995,5.357L-1.148,5.854L0,5.914Z" style="fill:rgb(142,142,142);fill-rule:nonzero;"/>
                    </g>
                    <g transform="matrix(1,0,0,1,3357.34,896.05)">
                        <path d="M0,8.291L0.447,8.235L0.844,0.662L0.874,0.076L0.436,-0.027L0.405,0.56L-0.808,0.712L-1.998,0.434L-1.968,-0.152L-2.414,-0.097L-2.445,0.49L-2.842,8.063L-2.404,8.165L-1.213,8.443L0,8.291Z" style="fill:rgb(142,142,142);fill-rule:nonzero;"/>
                    </g>
                    <g transform="matrix(1,0,0,1,3350.28,938.379)">
                        <path d="M0,-0.095L-0.038,0.627L0,-0.095L0.017,-0.41L-7.787,-0.819L-7.803,-0.504L-7.841,0.218L-7.803,-0.504L-7.787,-0.819L0.017,-0.41L0,-0.095ZM-0.047,0.809L-0.098,1.776L-0.047,0.809L-7.851,0.4L-7.901,1.367L-7.851,0.4L-7.847,0.331L-7.851,0.4L-0.047,0.809L-0.044,0.74L-0.047,0.809ZM-0.86,1.959L-7.162,1.628L-7.913,1.589L-7.162,1.628L-0.86,1.959L-0.11,1.998L-0.86,1.959ZM1.113,0.214L1.126,-0.036L1.141,-0.308L1.154,-0.562L1.227,-0.778L1.165,-0.781L0.494,-0.817L0.486,-0.663L0.455,-0.071L0.417,0.65L0.455,-0.071L0.486,-0.663L0.494,-0.817L0.559,-2.061L-0.136,-3.063L-0.289,-3.283L-0.585,-3.299L-1.191,-3.178L-1.2,-3.177L-1.243,-2.093L-1.253,-1.831L-0.672,-1.64L0.028,-0.631L-0.672,-1.64L-1.253,-1.831L-1.276,-1.246L-1.82,-1.171L-7.515,-1.342L-7.775,-1.041L-7.515,-1.342L-7.759,-1.35L-8.023,-1.357L-8.215,-1.363L-8.219,-1.273L-8.227,-1.12L-8.258,-0.528L-8.296,0.194L-8.258,-0.528L-8.227,-1.12L-8.219,-1.273L-8.561,-1.291L-8.6,-0.546L-8.643,0.279L-8.647,0.358L-8.306,0.376L-8.302,0.307L-8.306,0.376L-8.371,1.621L-7.522,2.843L-7.227,2.858L-6.108,2.616L-2.012,2.831L-0.925,3.188L-0.629,3.204L0.343,2.077L0.408,0.833L0.411,0.763L0.408,0.833L1.079,0.868L1.083,0.789L1.113,0.214Z" style="fill:rgb(142,142,142);fill-rule:nonzero;"/>
                    </g>
                    <g transform="matrix(1,0,0,1,3363.11,938.75)">
                        <path d="M0,-0.219L-0.063,-0.147L-0.17,-0.12L-0.719,0.017L-0.727,0.112L-0.175,-0.026L-0.008,-0.068L0.123,-0.101L0.22,-0.125L0.243,-0.13L0.407,-0.314L0.099,-0.331L0,-0.219Z" style="fill:rgb(142,142,142);fill-rule:nonzero;"/>
                    </g>
                    <g transform="matrix(1,0,0,1,3363.24,945.798)">
                        <path d="M0,-7.149L0.002,-6.652L-0.013,-5.806L-0.047,-4.665L-0.095,-3.406L-0.167,-1.735L-0.209,-0.867L-0.247,-0.094L-0.252,0.009L0.054,0.024L0.061,-0.077L0.1,-0.905L0.139,-1.718L0.213,-3.391L0.26,-4.65L0.294,-5.79L0.309,-6.635L0.307,-7.162L0.097,-7.173L0,-7.149Z" style="fill:rgb(142,142,142);fill-rule:nonzero;"/>
                    </g>
                    <g transform="matrix(1,0,0,1,3367.23,952.693)">
                        <path d="M0,3.618L0.751,3.658L7.053,3.988L7.804,4.027L7.053,3.988L0.751,3.658L0,3.618ZM0.062,2.429L0.066,2.36L0.062,2.429L7.866,2.838L7.87,2.769L7.866,2.838L7.815,3.805L7.866,2.838L0.062,2.429L0.012,3.396L0.062,2.429ZM0.11,1.525L0.126,1.211L7.93,1.619L7.913,1.934L7.875,2.656L7.913,1.934L7.93,1.619L0.126,1.211L0.11,1.525L0.072,2.247L0.11,1.525ZM0.939,0.059L1.602,-0.084L2.059,-0.183L6.154,0.032L6.598,0.178L7.241,0.389L7.941,1.397L7.241,0.389L6.598,0.178L1.602,-0.084L0.939,0.059L0.138,0.988L0.939,0.059ZM0.569,4.881L0.686,4.887L0.755,4.872L1.805,4.646L5.9,4.86L6.988,5.218L7.284,5.233L7.94,4.473L8.256,4.106L8.298,3.309L8.321,2.862L8.325,2.793L8.321,2.862L8.662,2.88L8.666,2.801L8.687,2.405L8.709,1.976L8.724,1.706L8.728,1.622L8.749,1.23L8.407,1.213L8.399,1.366L8.368,1.958L8.33,2.68L8.368,1.958L8.399,1.366L8.407,1.213L8.47,0.019L8.346,-0.213L7.624,-1.254L7.328,-1.269L6.21,-1.048L2.115,-1.262L1.286,-1.519L1.026,-1.6L0.73,-1.615L-0.241,-0.489L-0.306,0.756L-0.314,0.909L-0.345,1.501L-0.383,2.223L-0.345,1.501L-0.314,0.909L-0.306,0.756L-0.978,0.721L-1.039,0.717L-0.989,0.94L-1.006,1.274L-1.017,1.466L-1.06,2.291L-1.064,2.37L-0.393,2.405L-0.389,2.336L-0.393,2.405L-0.458,3.65L0.258,4.681L0.391,4.872L0.569,4.881Z" style="fill:rgb(142,142,142);fill-rule:nonzero;"/>
                    </g>
                    <g transform="matrix(1,0,0,1,3359.22,894.9)">
                        <path d="M0,-0.752L-0.031,-0.178L0.463,0.231L0.619,0.26L0.649,-0.313L0.663,-0.583L0.493,-0.725L0.507,-1.006L0.39,-1.012L0,-0.752Z" style="fill:rgb(142,142,142);fill-rule:nonzero;"/>
                    </g>
                    <g transform="matrix(1,0,0,1,3356.63,893.861)">
                        <path d="M0,1.131L0.729,1.231L1.181,1.591L1.945,2.197L2.737,2.239L3.159,2.261L3.196,1.563L3.209,1.298L3.053,1.27L2.56,0.861L2.591,0.287L2.98,0.027L1.215,-0.065L1.269,-1.097L0.649,-1.13L-0.639,-1.09L-1.593,-0.85L-1.958,-0.471L-1.994,0.226L-1.646,0.675L-1.19,0.843L-0.65,1.042L0,1.131Z" style="fill:rgb(142,142,142);fill-rule:nonzero;"/>
                    </g>
                    <g transform="matrix(1,0,0,1,3362.4,956.012)">
                        <path d="M0,-1.575L-0.065,-1.579L-0.131,-1.449L-0.199,-1.315L-1.682,-0.589L-2.241,-0.222L-2.249,-0.071L-2.253,0.004L-1.375,-0.574L-0.145,-1.175L0.108,-1.299L0.165,-1.411L0.242,-1.558L0.241,-1.562L0,-1.575Z" style="fill:rgb(142,142,142);fill-rule:nonzero;"/>
                    </g>
                    <g transform="matrix(1,0,0,1,3362.9,954.353)">
                        <path d="M0,-6.961L-0.093,-5.306L-0.186,-3.783L-0.232,-3.097L-0.279,-2.408L-0.363,-1.278L-0.436,-0.445L-0.496,0.084L-0.255,0.097L-0.254,0.101L-0.189,0.104L-0.129,-0.429L-0.056,-1.263L0.028,-2.391L0.075,-3.081L0.121,-3.768L0.214,-5.291L0.308,-6.945L0.313,-7.048L0.006,-7.065L0,-6.961Z" style="fill:rgb(142,142,142);fill-rule:nonzero;"/>
                    </g>
                    <g transform="matrix(1,0,0,1,3364.14,954.141)">
                        <path d="M0,-0.09L-0.044,0.735L0.161,0.746L0.204,-0.079L0.214,-0.271L0.232,-0.605L0.243,-0.824L0.039,-0.836L0,-0.09Z" style="fill:rgb(142,142,142);fill-rule:nonzero;"/>
                    </g>
                    <g transform="matrix(1,0,0,1,3356,905.786)">
                        <path d="M0,1.107L0.729,1.207L1.181,1.566L1.945,2.173L2.945,2.225L2.982,1.528L3.009,1.016L2.808,0.849L2.907,-1.035L1.322,-1.118L1.275,-0.22L0.062,-0.069L-1.129,-0.346L-1.095,-1L-1.593,-0.874L-1.958,-0.495L-1.994,0.202L-1.646,0.65L-1.526,0.695L-0.65,1.018L0,1.107Z" style="fill:rgb(142,142,142);fill-rule:nonzero;"/>
                    </g>
                    <g transform="matrix(1,0,0,1,3363.48,904.3)">
                        <path d="M0,-7.311L-0.397,0.262L0.041,0.364L1.232,0.642L2.445,0.49L2.892,0.434L3.289,-7.139L3.319,-7.725L2.881,-7.827L2.85,-7.241L1.637,-7.089L0.447,-7.367L0.477,-7.953L0.031,-7.898L0,-7.311Z" style="fill:rgb(142,142,142);fill-rule:nonzero;"/>
                    </g>
                    <g transform="matrix(1,0,0,1,3353.3,939.057)">
                        <path d="M0,-1.143L-0.014,-0.888L-0.028,-0.617L-0.041,-0.366L-0.071,0.209L0.135,0.219L0.177,-0.605L0.216,-1.351L0.061,-1.36L0.011,-1.362L0,-1.143Z" style="fill:rgb(142,142,142);fill-rule:nonzero;"/>
                    </g>
                    <g transform="matrix(1,0,0,1,3364.64,906.94)">
                        <path d="M0,-0.773L-1.191,-1.05L-1.143,-1.949L-2.729,-2.032L-2.827,-0.147L-3.044,-0.002L-3.071,0.509L-3.107,1.207L-2.107,1.259L-1.284,0.736L-0.797,0.426L-0.062,0.403L0.595,0.382L1.499,0.152L1.624,0.12L2.016,-0.289L2.053,-0.987L1.73,-1.401L1.248,-1.578L1.213,-0.924L0,-0.773Z" style="fill:rgb(142,142,142);fill-rule:nonzero;"/>
                    </g>
                    <g transform="matrix(1,0,0,1,3361.3,944.169)">
                        <path d="M0,-0.268L-0.001,-0.265L-0.027,-0.098L-0.031,-0.002L0.001,0L0.015,-0.268L0,-0.268Z" style="fill:rgb(142,142,142);fill-rule:nonzero;"/>
                    </g>
                    <g transform="matrix(-0.084039,0.996462,0.996462,0.084039,3361.49,943.761)">
                        <rect x="-0.178" y="-0.168" width="0.332" height="0.015" style="fill:rgb(142,142,142);"/>
                    </g>
                    <g transform="matrix(1,0,0,1,3361.21,944.61)">
                        <path d="M0,0.446L0.056,0.378L0.057,0.361L0.024,0.359L0.038,0.091L0.042,0.033L0.037,0L0,0.446Z" style="fill:rgb(142,142,142);fill-rule:nonzero;"/>
                    </g>
                    <g transform="matrix(1,0,0,1,3361.7,944.743)">
                        <path d="M0,-0.554L-0.028,-0.019L-0.042,0.249L0.301,0.266L0.314,-0.001L0.329,-0.257L0.344,-0.535L0.356,-0.803L0.264,-0.808L0.014,-0.82L0,-0.554Z" style="fill:rgb(142,142,142);fill-rule:nonzero;"/>
                    </g>
                    <g transform="matrix(1,0,0,1,3362.05,942.519)">
                        <path d="M0.023,-0.43L-0.023,0.422L0.037,0.426L0.06,-0.001L0.075,-0.297L0.083,-0.428L0.023,-0.43Z" style="fill:rgb(142,142,142);fill-rule:nonzero;"/>
                    </g>
                    <g transform="matrix(1,0,0,1,3362.2,949.576)">
                        <path d="M0,-3.418L-0.167,-3.077L-0.368,-2.667L-0.41,-1.874L-0.44,-1.294L-0.509,0.017L-0.534,0.498L-0.067,0.522L-0.043,0.041L0.027,-1.27L0.081,-2.321L0.085,-2.392L0.12,-3.062L0.124,-3.133L0.158,-3.802L0.166,-3.94L0,-3.418Z" style="fill:rgb(142,142,142);fill-rule:nonzero;"/>
                    </g>
                    <g transform="matrix(1,0,0,1,3362.32,943.932)">
                        <path d="M0,-0.529L0.094,0.267L0.114,0.484L0.166,-0.52L0.191,-1.001L-0.057,-1.013L0,-0.529Z" style="fill:rgb(142,142,142);fill-rule:nonzero;"/>
                    </g>
                    <g transform="matrix(1,0,0,1,3354.57,942.134)">
                        <path d="M0,-0.01L-0.02,0.381L-0.021,0.416L0.194,0.427L0.217,0.001L0.24,-0.426L0.023,-0.437L0,-0.01Z" style="fill:rgb(142,142,142);fill-rule:nonzero;"/>
                    </g>
                    <g transform="matrix(1,0,0,1,3354.32,943.508)">
                        <path d="M0,-0.525L-0.053,0.479L-0.01,0.266L0.166,-0.516L0.227,-0.781L0.219,-0.782L0.228,-0.959L0.229,-0.994L0.025,-1.004L0,-0.525Z" style="fill:rgb(142,142,142);fill-rule:nonzero;"/>
                    </g>
                    <g transform="matrix(1,0,0,1,3347.19,926.212)">
                        <path d="M0,0.074L0.004,0.097L0.035,0.354L0.185,0.466L0.376,0.596L0.671,0.798L0.767,0.608L0.123,-0.724L0,0.074Z" style="fill:rgb(142,142,142);fill-rule:nonzero;"/>
                    </g>
                    <g transform="matrix(1,0,0,1,3341.8,926.552)">
                        <path d="M0,-1.298L0.056,0.084L0.553,0.292L0.938,0.188L0.815,0.107L0.721,-0.418L0.787,-1.1L0.784,-1.274L0.78,-1.512L0.582,-1.59L0,-1.298Z" style="fill:rgb(142,142,142);fill-rule:nonzero;"/>
                    </g>
                    <g transform="matrix(1,0,0,1,3364.18,896.298)">
                        <path d="M0,-3.205L-0.054,-2.174L-1.819,-2.266L-1.458,-1.966L-1.489,-1.393L-2.021,-1.038L-2.18,-1.026L-2.194,-0.761L-2.23,-0.063L-1.808,-0.041L-1.017,0L-0.194,-0.523L0.294,-0.833L1.029,-0.856L1.685,-0.877L2.212,-1.011L1.885,-1.616L1.08,-3.11L0.62,-3.173L0,-3.205Z" style="fill:rgb(142,142,142);fill-rule:nonzero;"/>
                    </g>
                    <g transform="matrix(1,0,0,1,3362.22,894.993)">
                        <path d="M0,-0.686L-0.184,-0.563L-0.198,-0.293L-0.228,0.28L-0.07,0.267L0.463,-0.087L0.493,-0.661L0.132,-0.96L0.015,-0.966L0,-0.686Z" style="fill:rgb(142,142,142);fill-rule:nonzero;"/>
                    </g>
                    <g transform="matrix(1,0,0,1,3354.87,832.091)">
                        <path d="M0,-5.641L-0.044,-4.639L-0.083,-3.794L-0.136,-2.599L-0.183,-1.618L-0.197,-1.325L-0.227,-0.673L-0.207,-0.582L-0.174,-0.074L-0.258,0.002L-0.278,0.392L-0.336,1.596L0.21,1.924L0.245,1.046L0.247,0.974L0.255,0.785L0.261,0.609L0.204,0.482L0.266,0.481L0.293,-0.214L0.37,-2.238L0.374,-2.342L0.398,-3.049L0.415,-3.53L0.468,-5.117L0.524,-6.729L0.544,-7.354L0.458,-7.354L0.131,-7.539L0.086,-7.565L0,-5.641Z" style="fill:rgb(142,142,142);fill-rule:nonzero;"/>
                    </g>
                    <g transform="matrix(1,0,0,1,3366.97,826.946)">
                        <path d="M0,4.522L0.032,4.436L0.294,3.524L0.488,2.849L0.575,2.546L0.652,0.304L0.664,-0.027L0.691,-0.802L0.707,-1.279L0.741,-2.258L0.743,-2.313L0.714,-2.282L0.647,-2.21L0.518,-2.21L0.469,-1.014L0.416,0.256L0.399,0.66L0.396,0.666L0.397,0.693L0.306,2.907L0.113,3.507L-0.078,4.1L-0.278,4.72L-0.437,5.217L-0.531,5.508L-0.521,5.531L-0.792,6.547L-0.746,6.835L-0.63,6.741L-0.066,4.777L-0.079,4.774L0,4.522Z" style="fill:rgb(142,142,142);fill-rule:nonzero;"/>
                    </g>
                    <g transform="matrix(1,0,0,1,3354.54,831.956)">
                        <path d="M0,1.731L0.058,0.528L-0.011,0.145L-0.081,0.142L-0.108,0.145L-0.251,0L0,1.731Z" style="fill:rgb(142,142,142);fill-rule:nonzero;"/>
                    </g>
                    <g transform="matrix(1,0,0,1,3352.89,818.709)">
                        <path d="M0,4.654L0.196,4.764L0.218,4.777L0.28,4.811L1.55,5.527L2.067,5.818L2.112,5.843L2.439,6.027L2.525,6.027L5.099,5.933L12.703,5.933L14.722,6.027L14.789,5.955L14.817,5.924L14.995,5.733L15.65,5.028L16.624,3.977L17.178,1.862L16.163,-0.13L11.815,-1.373L6.729,-1.373L0.936,-0.13L-1.85,1.862L-1.61,3.53L-0.938,5.692L-1.203,3.977L0,4.654Z" style="fill:rgb(142,142,142);fill-rule:nonzero;"/>
                    </g>
                    <g transform="matrix(1,0,0,1,3352.67,823.463)">
                        <path d="M0,0.162L0.222,-0.1L-0.981,-0.776L-0.716,0.938L-0.551,0.938L-0.141,0.605L0,0.162Z" style="fill:rgb(142,142,142);fill-rule:nonzero;"/>
                    </g>
                    <g transform="matrix(1,0,0,1,3355.81,835.317)">
                        <path d="M0,-0.263L0.359,0.209L0.329,0.112L0.296,0.012L-0.11,-0.472L0,-0.263Z" style="fill:rgb(142,142,142);fill-rule:nonzero;"/>
                    </g>
                    <g transform="matrix(1,0,0,1,3359.3,921.446)">
                        <path d="M0,41.837L0.391,34.372L0.851,25.596L1.335,16.369L1.794,7.593L2.186,0.128L2.47,-5.295L2.486,-5.599L2.62,-8.147L2.125,-8.513L1.985,-8.521L1.606,-8.541L0.692,-8.588L0.541,-5.704L0.253,-0.217L-0.143,7.335L-0.608,16.213L-1.097,25.548L-1.562,34.426L-1.958,41.978L-2.245,47.465L-2.397,50.35L-0.963,50.425L-0.434,50.112L-0.284,47.261L0,41.837Z" style="fill:rgb(142,142,142);fill-rule:nonzero;"/>
                    </g>
                    <g transform="matrix(1,0,0,1,3356.84,935.63)">
                        <path d="M0,-8.425L-0.576,-5.429L-0.292,-0.399L-0.308,0.167L0.025,-6.183L0.151,-8.592L0,-8.425Z" style="fill:rgb(142,142,142);fill-rule:nonzero;"/>
                    </g>
                    <g transform="matrix(1,0,0,1,3360.01,929.318)">
                        <path d="M0,26.222L0.018,25.888L0.031,25.639L0.093,24.457L0.153,23.298L0.18,22.779L0.23,21.831L0.271,21.054L0.314,20.232L0.346,19.625L0.393,18.717L0.398,18.619L0.45,17.628L0.456,17.524L0.495,16.77L0.506,16.571L0.572,15.31L0.641,13.998L0.659,13.73L0.655,13.73L0.659,13.73L0.664,13.554L0.686,13.127L0.708,12.701L0.718,12.524L0.791,11.124L0.844,10.121L0.849,10.014L0.855,9.9L0.917,8.73L1.022,6.715L1.355,0.366L1.481,-2.043L1.509,-2.564L1.582,-3.959L1.587,-4.056L1.596,-4.225L1.728,-6.749L1.999,-11.918L2.141,-14.636L1.906,-16.018L1.772,-13.471L1.756,-13.167L1.472,-7.743L1.081,-0.278L0.621,8.497L0.137,17.725L-0.323,26.5L-0.714,33.965L-0.998,39.389L-1.147,42.24L-0.77,40.904L-0.626,38.172L-0.355,33.003L-0.034,26.878L-0.021,26.615L0,26.222Z" style="fill:rgb(142,142,142);fill-rule:nonzero;"/>
                    </g>
                    <g transform="matrix(1,0,0,1,3355.82,942.636)">
                        <path d="M0,-0.875L-0.021,-0.449L-0.035,-0.185L-0.042,-0.06L-0.166,-0.101L-0.323,-0.175L-0.302,-0.463L-0.29,-0.89L-0.33,-0.891L-0.353,-0.465L-0.374,-0.039L-0.384,0.137L-0.16,0.15L-0.053,0.155L-0.034,0.156L0.34,0.175L0.344,0.176L0.354,-0.001L0.375,-0.427L0.398,-0.853L0.407,-1.031L0.01,-1.051L0,-0.875Z" style="fill:rgb(142,142,142);fill-rule:nonzero;"/>
                    </g>
                    <g transform="matrix(1,0,0,1,3361.09,945.072)">
                        <path d="M0,-2.344L-0.009,-2.18L-0.019,-2.004L-0.019,-1.979L-0.106,-0.334L-0.127,0.069L0.044,0.077L0.122,-0.016L0.245,-2.421L0,-2.344Z" style="fill:rgb(142,142,142);fill-rule:nonzero;"/>
                    </g>
                    <g transform="matrix(0.998633,0.0522662,0.0522662,-0.998633,3355.47,971.698)">
                        <rect x="-0.001" y="-0.038" width="1.435" height="0.015" style="fill:rgb(142,142,142);"/>
                    </g>
                    <g transform="matrix(1,0,0,1,3360.72,942.892)">
                        <path d="M0,-0.874L-0.021,-0.448L-0.044,-0.021L-0.049,0.156L0.326,0.175L0.344,0.176L0.354,0L0.363,-0.164L0.375,-0.426L0.398,-0.854L0.407,-1.03L0.01,-1.05L0,-0.874Z" style="fill:rgb(142,142,142);fill-rule:nonzero;"/>
                    </g>
                    <g transform="matrix(1,0,0,1,3360.36,950.352)">
                        <path d="M0,-1.409L-0.032,-0.803L-0.075,0.02L0.001,-0.346L0.034,-0.509L0.066,-0.663L0.094,-0.795L0.124,-1.159L0.147,-1.429L0,-1.409Z" style="fill:rgb(142,142,142);fill-rule:nonzero;"/>
                    </g>
                    <g transform="matrix(1,0,0,1,3355.89,944.869)">
                        <path d="M0,3.105L0.072,1.737L0.094,1.314L0.187,-0.478L0.256,-1.79L0.207,-1.792L-0.061,-0.61L-0.084,-0.492L-0.202,0.1L-0.158,0.22L0.041,1.188L-0.05,1.306L-0.514,1.942L-1.279,1.699L-1.45,1.232L-1.58,0.875L-1.692,0.338L-1.698,0.477L-1.734,1.146L-1.738,1.217L-1.773,1.887L-1.776,1.958L-1.832,3.009L-1.9,4.321L-1.925,4.801L-0.094,4.897L-0.069,4.417L0,3.105Z" style="fill:rgb(142,142,142);fill-rule:nonzero;"/>
                    </g>
                    <g transform="matrix(1,0,0,1,3357.34,921.154)">
                        <path d="M0,42.27L0.396,34.718L0.861,25.84L1.35,16.505L1.815,7.627L2.211,0.075L2.499,-5.412L2.65,-8.296L1.736,-8.344L1.357,-8.364L1.217,-8.372L0.687,-8.058L0.553,-5.511L0.537,-5.207L0.253,0.216L-0.138,7.681L-0.598,16.457L-1.082,25.684L-1.541,34.46L-1.932,41.925L-2.217,47.348L-2.366,50.2L-1.872,50.566L-0.439,50.642L-0.288,47.757L0,42.27Z" style="fill:rgb(142,142,142);fill-rule:nonzero;"/>
                    </g>
                    <g transform="matrix(1,0,0,1,3360.59,944.578)">
                        <path d="M0,0.049L-0.067,1.311L0.207,0.978L0.27,0.779L0.326,0.665L0.271,0.064L0.26,-0.056L0.118,-1.26L0.068,-1.262L0,0.049Z" style="fill:rgb(142,142,142);fill-rule:nonzero;"/>
                    </g>
                    <g transform="matrix(1,0,0,1,3355.41,921.371)">
                        <path d="M0,41.708L0.391,34.243L0.851,25.467L1.334,16.24L1.794,7.464L2.186,-0L2.47,-5.424L2.486,-5.728L2.619,-8.275L2.24,-6.925L2.24,-6.91L2.098,-4.207L1.827,0.962L1.695,3.485L1.686,3.655L1.681,3.751L1.608,5.147L1.581,5.668L1.454,8.077L1.122,14.426L1.016,16.44L0.891,18.835L0.817,20.235L0.808,20.411L0.786,20.838L0.763,21.264L0.754,21.441L0.74,21.709L0.671,23.02L0.577,24.812L0.555,25.235L0.483,26.603L0.415,27.915L0.389,28.395L0.117,33.599L-0.256,40.714L-0.528,45.897L-0.67,48.615L-0.434,49.983L-0.285,47.132L0,41.708Z" style="fill:rgb(142,142,142);fill-rule:nonzero;"/>
                    </g>
                    <g transform="matrix(1,0,0,1,3345.9,869.66)">
                        <path d="M0,-25.361L0.003,-25.323L0.086,-24.652L0.207,-23.678L0.243,-23.383L0.26,-23.257L0.449,-21.854L0.665,-20.256L0.676,-20.172L0.714,-19.456L0.787,-18.087L0.847,-16.954L1.166,-16.14L1.152,-16.712L1.049,-21.03L1.152,-16.712L1.166,-16.14L1.175,-15.76L1.326,-9.417L2.834,1.256L1.923,3.98L2.028,3.988L3.461,4.083L3.674,4.098L4.295,4.139L4.778,4.171L5.545,4.223L6.92,4.315L8.049,4.39L8.233,4.388L12.127,4.345L16.157,4.3L16.231,4.299L19.985,4.659L24.067,5.049L24.293,5.071L25.529,5.524L27.922,6.4L28.171,6.491L28.216,6.508L28.715,6.69L28.758,6.669L30.393,5.837L29.672,2.663L31.936,-10.098L31.473,-16.366L31.433,-16.911L31.391,-17.48L31.299,-18.726L31.069,-21.842L31.299,-18.726L31.391,-17.48L31.491,-17.783L31.49,-19.022L31.451,-20.556L31.4,-21.181L31.393,-21.403L31.514,-22.635L31.66,-23.456L31.708,-23.747L31.747,-24.236L31.755,-24.357L31.805,-25.085L31.881,-26.186L31.897,-26.427L31.961,-27.36L31.974,-27.555L31.999,-27.918L32.006,-28.018L30.503,-28.928L30.2,-29.111L29,-29.838L24.013,-31.285L21.804,-31.674L21.726,-31.688L21.229,-31.775L19.638,-32.011L19.238,-32.016L19.058,-32.019L18.892,-32.021L17.458,-32.039L16.508,-32.051L15.182,-31.908L15.002,-31.889L13.501,-31.727L12.665,-31.637L11.789,-31.543L9.473,-31.076L9.345,-31.05L8.822,-30.945L6.815,-30.486L2.683,-29.114L0.797,-28.254L-0.23,-27.785L-0.071,-26.107L-0.059,-25.981L0,-25.361Z" style="fill:rgb(68,114,37);fill-rule:nonzero;"/>
                    </g>
                    <g transform="matrix(1,0,0,1,3349.08,873.64)">
                        <path d="M0,2.053L0.408,0.652L0.438,0.548L0.55,0.484L1.121,0.159L0.5,0.117L0.286,0.103L-1.146,0.007L-1.251,0L-1.49,1.173L0,2.053Z" style="fill:rgb(68,114,37);fill-rule:nonzero;"/>
                    </g>
                    <g transform="matrix(1,0,0,1,3377.91,840.732)">
                        <path d="M0,0.91L-0.274,0.563L-1.503,0L0,0.91Z" style="fill:rgb(68,114,37);fill-rule:nonzero;"/>
                    </g>
                    <g transform="matrix(1,0,0,1,3345.91,841.598)">
                        <path d="M0,0.086L-0.237,0.278L0.79,-0.192L0,0.086Z" style="fill:rgb(68,114,37);fill-rule:nonzero;"/>
                    </g>
                    <g transform="matrix(0.186016,0.982547,0.982547,-0.186016,3376.61,953.185)">
                        <path d="M0.853,0.643L1.902,0.643L-0.892,1.145L-1.825,1.03L0.853,0.643Z" style="fill:rgb(68,114,37);fill-rule:nonzero;"/>
                    </g>
                    <g transform="matrix(1,0,0,1,3374.35,960.559)">
                        <path d="M0,-13.976L-3.791,-14.175L-5.536,-12.76L-5.885,-10.456L-4.14,-11.872L-0.349,-11.673L1.613,-10.209L2.456,-6.2L2.464,-6.114L2.609,-5.405L2.74,-5.835L2.867,-4.467L2.823,-3.286L2.948,-0.875L3.048,0.199L3.282,-1.353L3.153,-4.322L3.052,-6.656L2.934,-9.359L1.962,-12.512L0,-13.976Z" style="fill:rgb(68,114,37);fill-rule:nonzero;"/>
                    </g>
                    <g transform="matrix(1,0,0,1,3375.89,955.322)">
                        <path d="M0,0.172L-0.004,0.251L-0.345,0.233L-0.369,0.68L1.324,0.77L1.198,-0.598L1.067,-0.168L0.021,-0.224L0,0.172Z" style="fill:rgb(68,114,37);fill-rule:nonzero;"/>
                    </g>
                    <g transform="matrix(1,0,0,1,3367.7,959.265)">
                        <path d="M0,-1.072L0.28,-1.7L0.211,-1.685L0.094,-1.691L-0.084,-1.7L-0.217,-1.891L-1.002,-0.779L-1.244,0.819L-0.579,-0.123L0,-1.072Z" style="fill:rgb(68,114,37);fill-rule:nonzero;"/>
                    </g>
                    <g transform="matrix(1,0,0,1,3376.87,948.977)">
                        <path d="M0,-0.52L0.416,2.223L0.183,-0.964L-0.081,-2.21L-0.203,-2.743L0,-0.52Z" style="fill:rgb(68,114,37);fill-rule:nonzero;"/>
                    </g>
                    <g transform="matrix(0.0285598,0.999592,0.999592,-0.0285598,3371.78,942.334)">
                        <path d="M0.153,-0.235L0.433,-0.235L0.205,-0.101L-0.038,0.166L0.153,-0.235Z" style="fill:rgb(68,114,37);fill-rule:nonzero;"/>
                    </g>
                    <g transform="matrix(1,0,0,1,3371.56,943.612)">
                        <path d="M0,-0.838L-0.186,-0.502L-0.561,0.177L-0.76,0.539L-0.251,1.092L2.823,1.223L4.282,0.705L4.961,0.749L4.208,-0.632L4.083,-0.862L4.037,-0.904L3.506,-1.392L2.878,-1.97L2.406,-1.995L2.346,-1.998L2.291,-2.001L1.148,-2.061L0.405,-1.338L0.399,-1.333L0.387,-1.321L0.127,-1.069L0,-0.838Z" style="fill:rgb(68,114,37);fill-rule:nonzero;"/>
                    </g>
                    <g transform="matrix(1,0,0,1,3375.64,944.099)">
                        <path d="M0,-1.349L0.126,-1.119L0.878,0.262L0.901,0.35L0.947,0.53L0.985,0.217L1.147,-1.078L1.098,-1.318L1.02,-1.355L0.31,-1.697L-0.039,-1.768L-0.093,-1.78L-0.577,-1.879L-0.046,-1.391L0,-1.349Z" style="fill:rgb(68,114,37);fill-rule:nonzero;"/>
                    </g>
                    <g transform="matrix(1,0,0,1,3363.11,944.93)">
                        <path d="M0,-6.248L-0.329,0.033L-0.079,0.001L-0.037,-0.867L0.035,-2.538L0.083,-3.797L0.118,-4.938L0.133,-5.784L0.131,-6.281L0,-6.248Z" style="fill:rgb(68,114,37);fill-rule:nonzero;"/>
                    </g>
                    <g transform="matrix(1,0,0,1,3362.93,944.892)">
                        <path d="M0,-25.705L-0.345,-19.119L-0.05,-18.715L0.167,-17.859L0.45,-14.557L0.499,-13.986L0.383,-13.271L-0.316,-8.978L-0.534,-6.125L0.015,-6.262L0.121,-6.289L0.186,-6.361L0.216,-6.943L0.186,-6.361L0.284,-6.473L0.592,-6.456L0.615,-6.256L0.618,-5.73L0.603,-4.884L0.568,-3.743L0.521,-2.484L0.448,-0.812L0.409,0L0.723,-0.039L2.063,-25.597L1.022,-25.467L0,-25.705Z" style="fill:rgb(68,114,37);fill-rule:nonzero;"/>
                    </g>
                    <g transform="matrix(1,0,0,1,3362.94,944.941)">
                        <path d="M0,-6.217L-0.552,-6.079L-0.705,-4.073L-0.77,-2.828L-0.675,-2.022L-0.426,-2.01L-0.451,-1.529L-0.503,-0.525L-0.454,0.013L-0.328,0.042L-0.161,0.022L0.167,-6.259L0,-6.217Z" style="fill:rgb(68,114,37);fill-rule:nonzero;"/>
                    </g>
                    <g transform="matrix(1,0,0,1,3361.18,931.01)">
                        <path d="M0,9.98L0.048,9.059L0,9.98L-0.046,10.852L-0.055,11.029L-0.077,11.455L-0.091,11.719L0.154,11.64L0.031,14.046L0.069,13.6L0.083,13.424L0.097,13.157L0.103,13.06L0.128,12.893L0.129,12.891L0.157,12.558L0.168,12.418L0.153,12.238L0.18,11.716L0.193,11.469L0.233,10.699L0.295,10.383L0.368,10.387L0.756,10.407L0.933,10.417L0.916,10.735L0.907,10.902L0.967,10.905L0.958,11.082L0.951,11.212L0.936,11.508L0.913,11.934L0.904,12.111L0.844,12.108L0.835,12.274L0.819,12.593L0.752,12.59L0.56,12.58L0.543,12.912L0.792,12.925L0.885,12.93L0.871,13.197L0.856,13.475L0.843,13.732L0.829,13.999L0.487,13.982L0.486,13.998L0.474,14.231L0.434,14.988L0.318,15.129L0.699,15.149L0.697,15.197L0.696,15.214L0.661,15.873L0.66,15.898L0.86,15.489L1.027,15.148L1.195,14.625L1.331,14.197L1.308,13.943L1.258,13.406L1.238,13.188L1.144,12.392L1.087,11.908L0.992,11.103L1.057,9.857L1.21,7.852L1.218,7.757L1.436,4.904L2.134,0.611L2.25,-0.105L2.202,-0.675L1.918,-3.977L1.701,-4.833L1.406,-5.237L1.058,-5.715L0.435,-5.918L0.426,-5.749L0.42,-5.652L0.347,-4.257L0.32,-3.736L0.452,-3.554L0.398,-4.187L0.452,-3.554L0.713,-0.514L-0.096,4.459L-0.139,5.022L-0.244,7.037L-0.306,8.207L-0.294,8.203L-0.05,8.241L-0.287,8.323L-0.317,8.428L-0.37,9.431L-0.443,10.831L-0.046,10.852L0,9.98Z" style="fill:rgb(68,114,37);fill-rule:nonzero;"/>
                    </g>
                    <g transform="matrix(1,0,0,1,3360.7,945.125)">
                        <path d="M0,-1.807L0.142,-0.604L0.153,-0.483L0.208,0.118L0.223,0.27L0.425,0.024L0.253,0.016L0.274,-0.387L0.361,-2.031L0.344,-2.058L-0.032,-2.077L0,-1.807Z" style="fill:rgb(68,114,37);fill-rule:nonzero;"/>
                    </g>
                    <g transform="matrix(1,0,0,1,3360.66,943.052)">
                        <path d="M0,0.264L0.05,0.267L0.018,-0.003L0,0.264Z" style="fill:rgb(68,114,37);fill-rule:nonzero;"/>
                    </g>
                    <g transform="matrix(1,0,0,1,3343.31,925.194)">
                        <path d="M0,1.392L0.103,1.365L0.775,1.078L1.46,0.787L2.012,0.804L2.997,0.833L3.192,0.839L3.83,1.312L3.912,1.372L3.88,1.115L3.877,1.092L3.999,0.294L4.011,0.216L3.712,0.256L3.657,0.263L2.777,0.377L2.093,0.467L2.009,0.453L1.178,0.313L0.212,0.151L-0.06,0.105L-0.496,-0.065L-0.707,-0.147L-0.727,-0.154L-0.722,0.083L-0.718,0.258L-0.784,0.939L-0.69,1.465L-0.568,1.546L-0.527,1.535L0,1.392Z" style="fill:rgb(68,114,37);fill-rule:nonzero;"/>
                    </g>
                    <g transform="matrix(1,0,0,1,3347.37,930.58)">
                        <path d="M0,-3.902L-0.15,-4.013L-0.232,-4.074L-0.87,-4.546L-1.066,-4.552L-2.051,-4.582L-2.602,-4.599L-3.287,-4.307L-3.96,-4.021L-4.062,-3.994L-4.59,-3.851L-4.631,-3.84L-5.016,-3.736L-4.489,-1.841L-3.278,0.556L-0.207,0.697L0.546,-1.631L0.486,-3.57L0.191,-3.772L0,-3.902Z" style="fill:rgb(68,114,37);fill-rule:nonzero;"/>
                    </g>
                    <g transform="matrix(0.998205,0.0598923,0.0598923,-0.998205,3356.09,943.075)">
                        <rect x="0.008" y="-0.002" width="0.047" height="0.268" style="fill:rgb(68,114,37);"/>
                    </g>
                    <g transform="matrix(1,0,0,1,3355.79,946.746)">
                        <path d="M0,-3.955L-0.02,-3.931L-0.125,-3.961L-0.349,-3.973L-0.358,-3.807L-0.375,-3.488L-0.93,-3.517L-1.057,-3.523L-1.04,-3.842L-1.031,-4.009L-1.24,-4.02L-1.3,-3.754L-1.477,-2.972L-1.519,-2.758L-1.625,-2.229L-1.674,-1.979L-1.583,-1.539L-1.472,-1.002L-1.341,-0.645L-1.171,-0.179L-0.406,0.065L0.059,-0.571L0.15,-0.689L-0.05,-1.657L-0.093,-1.777L-0.148,-1.503L-0.093,-1.777L0.025,-2.369L0.048,-2.487L0.315,-3.669L0.375,-3.935L0,-3.955Z" style="fill:rgb(68,114,37);fill-rule:nonzero;"/>
                    </g>
                    <g transform="matrix(1,0,0,1,3353.47,924.821)">
                        <path d="M0,13.63L-0.043,14.455L-0.048,14.534L-0.203,14.526L-0.462,19.474L0.559,19.713L0.688,19.697L0.793,19.167L0.846,18.162L0.871,17.682L1.076,17.693L1.096,17.302L1.119,16.876L1.128,16.699L1.309,16.709L1.364,15.659L1.506,10.694L1.26,6.35L1.219,5.627L1.327,5.065L1.954,1.811L2.259,0.982L2.594,0.61L2.939,-5.975L1.899,-5.845L0.877,-6.083L-0.116,12.876L0.039,12.885L0,13.63Z" style="fill:rgb(68,114,37);fill-rule:nonzero;"/>
                    </g>
                    <g transform="matrix(1,0,0,1,3356.07,941.959)">
                        <path d="M0,-16.528L-0.335,-16.157L-0.641,-15.328L-1.267,-12.074L-1.376,-11.511L-1.335,-10.788L-1.089,-6.445L-1.231,-1.479L-1.286,-0.43L-1.25,-0.428L-1.242,-0.594L-1.225,-0.913L-0.989,-0.901L-0.6,-0.881L-0.542,-0.877L-0.559,-0.559L-0.568,-0.392L-0.553,-0.391L-0.537,-0.213L-0.549,0.214L-0.571,0.501L-0.414,0.575L-0.283,0.492L-0.269,0.228L-0.247,-0.198L-0.237,-0.375L-0.192,-1.247L-0.144,-2.168L-0.192,-1.247L-0.237,-0.375L0.16,-0.354L0.234,-1.754L0.359,-4.148L0.465,-6.162L0.481,-6.728L0.196,-11.758L0.773,-14.754L0.893,-15.378L0.773,-14.754L0.924,-14.921L0.951,-15.442L1.024,-16.837L1.029,-16.934L1.038,-17.103L0.396,-16.967L0,-16.528Z" style="fill:rgb(68,114,37);fill-rule:nonzero;"/>
                    </g>
                    <g transform="matrix(1,0,0,1,3341.86,933.299)">
                        <path d="M0,-4.42L-0.18,-4.331L-0.581,-4.12L-0.801,-3.899L-1.453,-3.448L-1.57,-3.215L-2,-1.632L-1.838,0L-1.426,-0.417L-0.602,-2.171L0,-4.42Z" style="fill:rgb(68,114,37);fill-rule:nonzero;"/>
                    </g>
                    <g transform="matrix(1,0,0,1,3349.11,935.122)">
                        <path d="M0,-0.528L-0.009,-0.538L-0.033,0.081L-0.024,0.078L0.582,-0.042L0.877,-0.026L1.03,0.194L1.066,-0.722L0,-0.528Z" style="fill:rgb(68,114,37);fill-rule:nonzero;"/>
                    </g>
                    <g transform="matrix(1,0,0,1,3343.61,933.081)">
                        <path d="M0,3.853L3.796,3.967L5.395,4.052L5.418,3.467L5.428,3.205L5.471,2.121L5.496,1.503L5.496,1.491L5.512,1.077L3.914,0.992L0.118,0.878L-1.98,0.848L-3.171,-0.199L-3.584,0.218L-3.94,0.579L-4.394,1.037L-4.473,3.041L-4.282,3.181L-3.903,2.927L-3.772,2.19L-3.528,2.37L-3.521,2.938L-3.518,3.204L-3.516,3.309L-3.348,3.87L-3.332,3.881L-2.098,3.823L0,3.853Z" style="fill:rgb(68,114,37);fill-rule:nonzero;"/>
                    </g>
                    <g transform="matrix(1,0,0,1,3358.91,898.149)">
                        <path d="M0,6.602L-0.099,8.486L0.101,8.652L0.304,4.781L0.205,4.699L0.269,3.508L0.492,3.358L0.62,0.93L0.731,0.72L0.876,-2.027L0.454,-2.05L0,6.602Z" style="fill:rgb(68,114,37);fill-rule:nonzero;"/>
                    </g>
                    <g transform="matrix(0.770794,0.637085,0.637085,-0.770794,3360.9,901.194)">
                        <path d="M0.818,0.214L0.945,0.214L-0.504,2.166L-0.715,2.279L0.818,0.214Z" style="fill:rgb(68,114,37);fill-rule:nonzero;"/>
                    </g>
                    <g transform="matrix(1,0,0,1,3361.8,904.192)">
                        <path d="M0,-5.21L0.09,-4.988L-0.037,-2.56L0.17,-2.387L0.108,-1.198L0.001,-1.127L-0.201,2.746L0.015,2.601L0.114,0.717L0.567,-7.935L0.145,-7.956L0,-5.21Z" style="fill:rgb(68,114,37);fill-rule:nonzero;"/>
                    </g>
                    <g transform="matrix(-0.0526452,0.998613,0.998613,0.0526452,3360.63,900.255)">
                        <path d="M-1.116,-1.159L1.315,-1.159L1.241,-1.058L-1.331,-1.059L-1.116,-1.159Z" style="fill:rgb(68,114,37);fill-rule:nonzero;"/>
                    </g>
                    <g transform="matrix(1,0,0,1,3361.57,908.406)">
                        <path d="M0,-0.957L0.027,-1.469L0.23,-5.341L-0.088,-5.129L-0.162,-5.123L-1.082,-5.054L-1.99,-5.219L-2.062,-5.232L-2.356,-5.476L-2.559,-1.604L-2.586,-1.093L-2.623,-0.395L-2.873,4.383L-2.494,4.403L-0.666,4.499L-0.287,4.519L-0.037,-0.259L0,-0.957Z" style="fill:rgb(68,114,37);fill-rule:nonzero;"/>
                    </g>
                    <g transform="matrix(1,0,0,1,3363.52,906.167)">
                        <path d="M0,-1.502L-0.017,-1.176L-0.064,-0.277L1.126,0L2.339,-0.151L2.374,-0.805L2.404,-1.376L1.191,-1.225L0,-1.502Z" style="fill:rgb(221,221,221);fill-rule:nonzero;"/>
                    </g>
                    <g transform="matrix(1,0,0,1,3369.34,952.411)">
                        <path d="M0,-0.98L4.095,-0.765L5.213,-0.987L5.509,-0.972L6.231,0.069L6.355,0.301L6.292,1.495L6.634,1.512L6.613,1.904L6.609,1.988L6.594,2.258L6.572,2.687L7.618,2.743L7.473,2.034L7.465,1.948L6.622,-2.06L4.66,-3.524L0.869,-3.723L-0.876,-2.308L-0.829,-1.237L0,-0.98Z" style="fill:rgb(221,221,221);fill-rule:nonzero;"/>
                    </g>
                    <g transform="matrix(0.998628,0.05237,0.05237,-0.998628,3368.84,952.478)">
                        <path d="M-0.001,-0.131L5.002,-0.131L4.551,-0.009L0.449,-0.008L-0.001,-0.131Z" style="fill:rgb(221,221,221);fill-rule:nonzero;"/>
                    </g>
                    <g transform="matrix(1,0,0,1,3383.86,885.961)">
                        <path d="M0,-2.386L-0.005,-2.386L-0.109,-2.392L-0.116,-2.392L-0.865,-2.431L-1.622,-2.471L-1.717,-2.476L-1.822,-2.481L-2.882,-2.537L-3.559,-2.572L-3.663,-2.578L-3.865,-2.588L-4.931,-1.884L-4.899,-1.457L-4.714,-0.94L-4.711,-0.928L-4.635,-0.909L-3.397,-0.552L-3.323,-0.533L-3.186,-0.434L-3.117,-0.178L-2.038,-0.122L-2.032,-0.122L-1.964,-0.118L-1.695,-0.104L-1.671,-0.103L-0.493,-0.041L-0.394,-0.036L-0.347,-0.033L0.059,-0.012L0.418,0.007L1.095,0.042L1.161,0.046L4.141,0.202L4.265,-2.162L1.326,-2.316L0.518,-2.359L0,-2.386Z" style="fill:rgb(221,221,221);fill-rule:nonzero;"/>
                    </g>
                    <g transform="matrix(0.998777,0.0494444,0.0494444,-0.998777,3379.99,883.365)">
                        <path d="M0.005,-0.007L0.207,-0.007L0.311,-0L0.284,0.199L0.005,-0.007Z" style="fill:rgb(221,221,221);fill-rule:nonzero;"/>
                    </g>
                    <g transform="matrix(1,0,0,1,3354.46,830.599)">
                        <path d="M0,1.499L-0.354,0.256L-0.531,0L0,1.499Z" style="fill:rgb(221,221,221);fill-rule:nonzero;"/>
                    </g>
                    <g transform="matrix(1,0,0,1,3376.9,883.166)">
                        <path d="M0,-0.734L0.046,-0.629L0.316,0.001L0.507,-0.38L0.631,-0.629L0.683,-0.735L0,-0.734Z" style="fill:rgb(221,221,221);fill-rule:nonzero;"/>
                    </g>
                    <g transform="matrix(0.225576,-0.974226,-0.974226,-0.225576,3379.54,886.702)">
                        <path d="M-0.292,0.342L0.32,0.342L0.426,0.366L0.417,0.425L-0.292,0.342Z" style="fill:rgb(221,221,221);fill-rule:nonzero;"/>
                    </g>
                    <g transform="matrix(1,0,0,1,3377.64,956.237)">
                        <path d="M0,2.969L0.017,1.109L-0.129,0L0,2.969Z" style="fill:rgb(221,221,221);fill-rule:nonzero;"/>
                    </g>
                    <g transform="matrix(1,0,0,1,3377.18,962.743)">
                        <path d="M0,-5.47L0.044,-6.651L-1.649,-6.741L-1.691,-5.943L-2.007,-5.577L-2.663,-4.817L-2.958,-4.832L-4.046,-5.189L-8.141,-5.404L-9.191,-5.177L-9.472,-4.55L-10.051,-3.6L-10.716,-2.659L-10.918,-0.333L-10.141,0.704L-9.865,0.82L-1.246,1.271L-0.262,0.225L0.225,-1.985L0.125,-3.059L0,-5.47Z" style="fill:rgb(221,221,221);fill-rule:nonzero;"/>
                    </g>
                    <g transform="matrix(0.305355,0.952239,0.952239,-0.305355,3376.79,950.735)">
                        <path d="M0.593,0.327L1.533,0.327L1.108,0.405L-1.389,0.813L0.593,0.327Z" style="fill:rgb(221,221,221);fill-rule:nonzero;"/>
                    </g>
                    <g transform="matrix(1,0,0,1,3356.07,904.216)">
                        <path d="M0,1.502L1.213,1.35L1.26,0.452L1.277,0.125L0.064,0.277L-1.126,0L-1.157,0.571L-1.191,1.225L0,1.502Z" style="fill:rgb(221,221,221);fill-rule:nonzero;"/>
                    </g>
                    <g transform="matrix(1,0,0,1,3365.21,897.056)">
                        <path d="M0,-1.614L-0.735,-1.591L-1.223,-1.281L-1.252,-0.709L-1.283,-0.123L-0.093,0.155L1.121,0.004L1.151,-0.583L1.211,-1.717L1.183,-1.769L0.656,-1.635L0,-1.614Z" style="fill:rgb(221,221,221);fill-rule:nonzero;"/>
                    </g>
                    <g transform="matrix(1,0,0,1,3362.33,946.604)">
                        <path d="M0,-0.16L-0.004,-0.089L-0.039,0.58L-0.043,0.652L0.327,0.67L0.331,0.6L0.37,-0.141L0.405,-0.811L0.034,-0.83L0,-0.16Z" style="fill:rgb(221,221,221);fill-rule:nonzero;"/>
                    </g>
                    <g transform="matrix(1,0,0,1,3364.74,946.606)">
                        <path d="M0,-0.036L0.035,-0.705L-1.449,-0.783L-1.756,-0.799L-2.007,-0.812L-2.042,-0.143L-2.081,0.598L-2.084,0.669L-1.833,0.682L-1.526,0.698L-0.043,0.776L-0.039,0.705L0,-0.036Z" style="fill:rgb(221,221,221);fill-rule:nonzero;"/>
                    </g>
                    <g transform="matrix(1,0,0,1,3365.24,907.306)">
                        <path d="M0,0.016L-0.656,0.038L-1.391,0.06L-0.666,0.229L0.546,0.078L0.891,0.035L0.904,-0.213L0,0.016Z" style="fill:rgb(221,221,221);fill-rule:nonzero;"/>
                    </g>
                    <g transform="matrix(1,0,0,1,3363.85,919.426)">
                        <path d="M0,-12.06L-0.488,-11.75L-1.089,-0.278L-0.92,-0.239L0.102,0L1.143,-0.13L1.315,-0.152L1.938,-12.042L0.725,-11.891L0,-12.06Z" style="fill:rgb(221,221,221);fill-rule:nonzero;"/>
                    </g>
                    <g transform="matrix(0.831355,-0.555742,-0.555742,-0.831355,3362.17,894.45)">
                        <path d="M-0.098,0.09L0.124,0.09L0.292,0.314L0.149,0.421L-0.098,0.09Z" style="fill:rgb(221,221,221);fill-rule:nonzero;"/>
                    </g>
                    <g transform="matrix(0.767481,0.641072,0.641072,-0.767481,3359.69,894.098)">
                        <path d="M0.066,-0.045L0.288,-0.045L0.039,0.285L-0.102,0.179L0.066,-0.045Z" style="fill:rgb(221,221,221);fill-rule:nonzero;"/>
                    </g>
                    <g transform="matrix(1,0,0,1,3362.04,901.637)">
                        <path d="M0,-7.207L0.021,-7.619L-0.294,-7.636L-1.058,-7.676L-1.821,-7.716L-2.137,-7.733L-2.159,-7.32L-2.173,-7.05L-2.203,-6.477L-2.217,-6.212L-2.253,-5.514L-2.397,-2.768L-2.532,-0.198L-2.544,0.038L-2.532,-0.198L-2.637,-0.129L-2.861,0.021L-2.468,0.348L-1.488,0.526L-0.494,0.451L-0.069,0.168L-0.276,-0.005L-0.373,-0.085L-0.386,0.151L-0.373,-0.085L-0.239,-2.655L-0.094,-5.401L-0.058,-6.099L-0.044,-6.364L-0.014,-6.937L0,-7.207Z" style="fill:rgb(221,221,221);fill-rule:nonzero;"/>
                    </g>
                    <g transform="matrix(1,0,0,1,3359.61,892.906)">
                        <path d="M0,0.982L0.117,0.988L0.295,0.998L0.611,1.014L1.374,1.054L2.138,1.094L2.454,1.111L2.749,1.126L4.514,1.219L4.568,0.187L4.573,0.093L-1.706,-0.237L-1.711,-0.142L-1.765,0.89L0,0.982Z" style="fill:rgb(221,221,221);fill-rule:nonzero;"/>
                    </g>
                    <g transform="matrix(1,0,0,1,3361.97,903.206)">
                        <path d="M0,-1.402L-0.425,-1.119L-1.418,-1.044L-2.399,-1.222L-2.792,-1.548L-2.854,-0.358L-2.755,-0.276L-2.461,-0.032L-2.389,-0.019L-1.481,0.146L-0.561,0.077L-0.487,0.072L-0.169,-0.141L-0.062,-0.212L0,-1.402Z" style="fill:rgb(221,221,221);fill-rule:nonzero;"/>
                    </g>
                    <g transform="matrix(1,0,0,1,3356.41,906.938)">
                        <path d="M0,11.908L0.172,11.887L0.774,0.414L0.321,0.055L-0.418,0.147L-1.608,-0.13L-2.231,11.761L-2.063,11.8L-1.041,12.038L0,11.908Z" style="fill:rgb(221,221,221);fill-rule:nonzero;"/>
                    </g>
                    <g transform="matrix(1,0,0,1,3354.47,906.836)">
                        <path d="M0,-0.107L0.339,-0.028L1.529,0.249L2.267,0.157L1.539,0.057L0.889,-0.032L0.013,-0.356L0,-0.107Z" style="fill:rgb(221,221,221);fill-rule:nonzero;"/>
                    </g>
                    <g transform="matrix(1,0,0,1,3361.41,943.286)">
                        <path d="M0,-1.576L-0.039,-0.806L-0.053,-0.56L-0.08,-0.038L-0.065,0.142L-0.056,-0.006L0.343,0.014L0.327,0.304L0.519,0.313L0.586,0.317L0.602,-0.001L0.611,-0.169L0.62,-0.345L0.666,-1.197L0.675,-1.373L0.684,-1.541L0.7,-1.859L0.524,-1.869L0.136,-1.889L0.062,-1.893L0,-1.576Z" style="fill:rgb(221,221,221);fill-rule:nonzero;"/>
                    </g>
                    <g transform="matrix(1,0,0,1,3360.56,943.286)">
                        <path d="M0,4.658L0.106,4.664L0.122,4.358L0.158,3.673L0.166,3.539L0.201,2.863L0.203,2.815L0.937,2.853L1.053,2.713L1.093,1.955L1.104,1.722L1.105,1.706L1.12,1.439L1.147,0.904L1.162,0.637L1.179,0.304L1.194,0.015L0.796,-0.006L0.787,0.142L0.781,0.283L0.763,0.616L0.75,0.883L0.721,1.418L0.707,1.685L0.707,1.702L0.65,1.77L0.573,1.864L0.371,2.109L0.237,2.27L-0.037,2.602L-0.047,2.802L-0.087,3.556L-0.092,3.66L-0.144,4.651L-0.084,4.654L0,4.658Z" style="fill:rgb(221,221,221);fill-rule:nonzero;"/>
                    </g>
                    <g transform="matrix(1,0,0,1,3360.52,952.534)">
                        <path d="M0,-1.796L-0.273,-1.386L-0.322,-0.438L-0.161,-0.43L-0.189,0.09L-0.195,0.226L0.236,-0.254L0.604,-0.665L0.673,-1.995L0.151,-2.022L0,-1.796Z" style="fill:rgb(221,221,221);fill-rule:nonzero;"/>
                    </g>
                    <g transform="matrix(1,0,0,1,3360.41,950.075)">
                        <path d="M0,-2.04L-0.048,-1.132L0.099,-1.152L0.076,-0.882L0.046,-0.518L0.018,-0.387L0.075,0.009L0.122,-0.887L0.166,-1.727L0.086,-2.049L0,-2.04Z" style="fill:rgb(221,221,221);fill-rule:nonzero;"/>
                    </g>
                    <g transform="matrix(1,0,0,1,3361.26,944.703)">
                        <path d="M0,-0.268L-0.01,-0.06L-0.014,-0.002L-0.028,0.266L0.005,0.268L0.019,0.001L0.047,-0.534L0.014,-0.536L0,-0.268Z" style="fill:rgb(221,221,221);fill-rule:nonzero;"/>
                    </g>
                    <g transform="matrix(1,0,0,1,3360.17,955.685)">
                        <path d="M0,-3.07L-0.06,-1.911L-0.122,-0.729L-0.135,-0.479L-0.152,-0.146L-0.174,0.248L-0.187,0.51L-0.025,0.519L-0.017,0.331L-0.011,0.256L-0.004,0.105L0.009,-0.137L0.039,-0.72L0.101,-1.902L0.155,-2.924L0.161,-3.061L0.189,-3.581L0.028,-3.589L0,-3.07Z" style="fill:rgb(221,221,221);fill-rule:nonzero;"/>
                    </g>
                    <g transform="matrix(1,0,0,1,3360.49,950.619)">
                        <path d="M0,-2.593L0.08,-2.271L0.035,-1.432L-0.011,-0.535L-0.069,-0.931L-0.1,-0.776L-0.076,-0.611L0.024,0.086L0.151,-2.32L0.168,-2.669L0.062,-2.675L-0.022,-2.679L0,-2.593Z" style="fill:rgb(221,221,221);fill-rule:nonzero;"/>
                    </g>
                    <g transform="matrix(1,0,0,1,3361.76,950.141)">
                        <path d="M0,-1.859L0.03,-2.439L0.072,-3.232L0.073,-3.257L0.108,-3.916L0.109,-3.933L0.111,-3.982L-0.27,-4.002L-1.004,-4.04L-1.006,-3.992L-1.041,-3.316L-1.048,-3.182L-1.084,-2.497L-1.1,-2.191L-1.119,-1.842L-1.245,0.565L-1.247,0.598L-1.096,0.371L-0.573,0.399L-0.642,1.728L-1.011,2.139L-0.212,2.181L-0.094,-0.067L-0.069,-0.547L0,-1.859Z" style="fill:rgb(221,221,221);fill-rule:nonzero;"/>
                    </g>
                    <g transform="matrix(1,0,0,1,3354.83,942.939)">
                        <path d="M0,-1.574L-0.009,-1.408L-0.018,-1.232L-0.041,-0.804L-0.063,-0.378L-0.072,-0.202L-0.081,-0.035L-0.098,0.284L0.029,0.29L0.585,0.319L0.601,0.001L0.61,-0.167L0.62,-0.343L0.642,-0.769L0.665,-1.195L0.673,-1.372L0.682,-1.538L0.699,-1.857L0.64,-1.86L0.252,-1.881L0.017,-1.893L0,-1.574Z" style="fill:rgb(221,221,221);fill-rule:nonzero;"/>
                    </g>
                    <g transform="matrix(1,0,0,1,3356.54,894.705)">
                        <path d="M0,2.057L1.213,1.906L1.244,1.319L1.274,0.747L0.821,0.388L0.093,0.288L-0.558,0.199L-1.097,0L-1.16,1.193L-1.19,1.78L0,2.057Z" style="fill:rgb(221,221,221);fill-rule:nonzero;"/>
                    </g>
                    <g transform="matrix(1,0,0,1,3339.7,935.549)">
                        <path d="M0,0.459L-0.379,0.714L0.385,0.737L0.382,0.47L0.374,-0.099L0.131,-0.278L0,0.459Z" style="fill:rgb(221,221,221);fill-rule:nonzero;"/>
                    </g>
                    <g transform="matrix(1,0,0,1,3339.21,932.671)">
                        <path d="M0,1.446L0.453,0.988L0.28,0L0,1.446Z" style="fill:rgb(221,221,221);fill-rule:nonzero;"/>
                    </g>
                    <g transform="matrix(1,0,0,1,3354.16,946.02)">
                        <path d="M0,0.067L0.004,-0.004L0.039,-0.674L-1.246,-0.741L-1.281,-0.08L-1.282,-0.072L-1.321,0.669L-1.324,0.741L-0.039,0.808L-0.035,0.737L0,0.067Z" style="fill:rgb(221,221,221);fill-rule:nonzero;"/>
                    </g>
                    <g transform="matrix(1,0,0,1,3339.56,881.085)">
                        <path d="M0,2.539L1.177,2.601L1.201,2.602L1.301,2.607L2.249,1.471L2.328,1.378L3.552,0.354L3.417,0.347L3.313,0.341L2.637,0.306L1.576,0.251L1.471,0.245L1.376,0.24L0.619,0.2L-0.13,0.161L-0.137,0.161L-0.24,0.155L-0.246,0.155L-0.764,0.128L-1.572,0.086L-4.51,-0.068L-4.634,2.296L-1.654,2.452L-1.589,2.456L-0.912,2.491L-0.552,2.51L-0.146,2.531L-0.099,2.534L0,2.539Z" style="fill:rgb(221,221,221);fill-rule:nonzero;"/>
                    </g>
                    <g transform="matrix(1,0,0,1,3342.88,881.244)">
                        <path d="M0,0.175L0.103,0.189L0.237,0.195L0.269,0.17L0.037,-0.02L0,0.175Z" style="fill:rgb(221,221,221);fill-rule:nonzero;"/>
                    </g>
                    <g transform="matrix(-0.720531,-0.693423,-0.693423,0.720531,3349.16,932.564)">
                        <path d="M0.192,-0.586L1.336,-0.586L1.07,-0.393L-1.38,-0.078L0.192,-0.586Z" style="fill:rgb(221,221,221);fill-rule:nonzero;"/>
                    </g>
                    <g transform="matrix(1,0,0,1,3350.18,931.734)">
                        <path d="M0,2.666L0.028,1.731L-1.52,-0.195L-1.402,0.474L-1.058,2.424L-1.074,2.838L-1.067,2.861L0,2.666Z" style="fill:rgb(221,221,221);fill-rule:nonzero;"/>
                    </g>
                    <g transform="matrix(1,0,0,1,3367.44,831.842)">
                        <path d="M0,-0.756L-0.259,-0.092L-0.42,-0.087L-0.522,-0.114L-0.525,-0.108L-0.355,0.034L0.015,-0.236L0.036,-0.277L0.057,-0.322L0.11,-0.433L0.216,-0.648L0.05,-0.789L0.047,-0.79L0,-0.756Z" style="fill:rgb(221,221,221);fill-rule:nonzero;"/>
                    </g>
                    <g transform="matrix(1,0,0,1,3354.04,832.1)">
                        <path d="M0,-0.521L0.129,-0.261L0.233,-0.155L0.243,-0.144L0.387,0L0.413,-0.002L0.103,-0.521L0,-0.521Z" style="fill:rgb(221,221,221);fill-rule:nonzero;"/>
                    </g>
                    <g transform="matrix(1,0,0,1,3340.27,937.15)">
                        <path d="M0,-0.188L1.788,-0.133L1.981,-0.128L2.244,-0.121L2.488,-0.113L8.183,0.058L8.727,-0.017L7.127,-0.102L3.332,-0.216L1.234,-0.246L0,-0.188Z" style="fill:rgb(221,221,221);fill-rule:nonzero;"/>
                    </g>
                    <g transform="matrix(1,0,0,1,3359.62,819.866)">
                        <path d="M0,-2.53L5.086,-2.53L9.434,-1.286L10.449,0.705L10.432,-0.059L9.418,-1.991L5.07,-3.235L-0.016,-3.235L-5.809,-1.991L-8.596,-0.059L-8.579,0.705L-5.793,-1.286L0,-2.53Z" style="fill:rgb(221,221,221);fill-rule:nonzero;"/>
                    </g>
                    <g transform="matrix(0.992465,0.122527,0.122527,-0.992465,3340.94,881.165)">
                        <rect x="0.015" y="-0.004" width="0.053" height="0.255" style="fill:rgb(221,221,221);"/>
                    </g>
                    <g transform="matrix(0.999922,-0.012499,-0.012499,-0.999922,3382.16,883.338)">
                        <rect x="-0.002" y="0.001" width="0.084" height="0.251" style="fill:rgb(221,221,221);"/>
                    </g>
                </g>
            </g>
        </g>
    </g>
</svg>
