<?xml version="1.0" encoding="UTF-8" standalone="no"?>
<!DOCTYPE svg PUBLIC "-//W3C//DTD SVG 1.1//EN" "http://www.w3.org/Graphics/SVG/1.1/DTD/svg11.dtd">
<svg width="100%" height="100%" viewBox="0 0 108 241" version="1.1" xmlns="http://www.w3.org/2000/svg" xmlns:xlink="http://www.w3.org/1999/xlink" xml:space="preserve" xmlns:serif="http://www.serif.com/" style="fill-rule:evenodd;clip-rule:evenodd;stroke-linejoin:round;stroke-miterlimit:2;">
    <g id="Artboard1" transform="matrix(1,0,0,1,17.4709,59.2733)">
        <rect x="-17.471" y="-59.273" width="107.558" height="240.916" style="fill:none;"/>
        <g transform="matrix(1,0,0,1,-3304.51,-265.209)">
            <g id="biker-01-inbound">
                <g>
                    <g transform="matrix(1,0,0,1,3348.47,266.132)">
                        <path d="M0,-4.099L-0.071,-3.077L0.157,0L0.837,-3.788L0.893,-4.099L0,-4.099Z" style="fill:rgb(63,38,19);fill-rule:nonzero;"/>
                    </g>
                    <g transform="matrix(1,0,0,1,3349.42,267.349)">
                        <path d="M0,-5.098L-0.734,-0.367L-0.7,0.109L-0.581,-0.639L-0.457,-1.428L-0.261,-2.662L-0.232,-2.848L0.139,-5.207L0,-5.098Z" style="fill:rgb(63,38,19);fill-rule:nonzero;"/>
                    </g>
                    <g transform="matrix(1,0,0,1,3333.61,266.283)">
                        <path d="M0.318,-4.25L-0.366,-4.25L-0.293,-3.256L-0.241,-2.551L-0.221,-2.27L-0.164,-1.505L-0.164,-1.49L0.03,0L0.27,-3.789L0.318,-4.25Z" style="fill:rgb(63,38,19);fill-rule:nonzero;"/>
                    </g>
                    <g transform="matrix(0.129665,0.991558,0.991558,-0.129665,3333.68,262.353)">
                        <path d="M-0.394,-0.546L-0,-0.546L0.622,-0.448L-0.373,-0.392L-0.394,-0.546Z" style="fill:rgb(63,38,19);fill-rule:nonzero;"/>
                    </g>
                    <g transform="matrix(-0.18569,0.982608,0.982608,0.18569,3350.13,274.743)">
                        <path d="M1.271,0.915L1.53,0.915L-0.028,1.24L-0.936,0.628L1.271,0.915Z" style="fill:rgb(0,188,218);fill-rule:nonzero;"/>
                    </g>
                    <g transform="matrix(1,0,0,1,3332.66,270.292)">
                        <path d="M0,0.131L1.177,0.032L1.173,0L0,0.131Z" style="fill:rgb(0,188,218);fill-rule:nonzero;"/>
                    </g>
                    <g transform="matrix(1,0,0,1,3320.75,311.081)">
                        <path d="M0,-33.288L1.068,-28.843L2.574,-22.046L1.749,-21.307L1.159,-22.003L1.905,-20.765L7.016,-12.271L1.905,-20.765L1.159,-22.003L0.879,-22.47L0.553,-21.63L1.432,-16.642L0.537,0.319L0.272,1.762L1.156,3.188L1.715,4.09L4.498,5.756L7.521,6.618L7.606,6.642L7.742,6.681L8.884,7.007L14.265,7.382L14.446,7.395L18.142,7.653L21.477,7.577L21.752,7.571L24.157,7.516L24.272,7.514L24.566,7.476L27.039,7.166L30.965,6.661L27.039,7.166L28.17,7.331L30.95,7.22L31.529,7.135L31.554,7.131L34.146,6.537L34.461,6.37L35.105,6.609L36.163,6.453L37.199,6.039L37.39,5.963L38.019,5.712L38.097,5.681L38.95,5.34L39.586,3.852L40.477,0.195L40.502,-19.427L40.001,-21.741L39.399,-21.815L39.138,-20.992L37.402,-13.881L39.138,-20.992L38.543,-21.92L38.991,-24.594L39.541,-29.837L39.992,-31.843L41.036,-35.738L41.483,-35.921L33.43,-38.576L28.942,-40L29.152,-39.517L29.535,-38.625L29.715,-38.209L29.913,-37.751L30.122,-37.264L30.139,-37.226L30.175,-37.141L30.608,-36.136L30,-34.666L27.731,-29.189L27.429,-28.457L27.398,-28.381L22.269,-25.384L20.583,-24.399L17.496,-26.181L12.533,-29.044L12.013,-29.344L11.973,-29.478L10.561,-34.25L9.83,-36.725L9.947,-36.944L10.163,-37.352L11.084,-39.097L11.4,-39.693L11.911,-40.659L13.084,-40.789L13.067,-40.941L9.664,-40.74L4.118,-38.308L-1.688,-35.565L0.099,-35.586L0,-33.288Z" style="fill:rgb(0,188,218);fill-rule:nonzero;"/>
                    </g>
                    <g transform="matrix(1,0,0,1,3348.57,263.055)">
                        <path d="M0,3.391L0.056,3.078L-0.173,0L0,3.391Z" style="fill:rgb(51,51,51);fill-rule:nonzero;"/>
                    </g>
                    <g transform="matrix(1,0,0,1,3331.23,272.999)">
                        <path d="M0,1.156L0.028,0.666L0.06,0.113L1.825,-1.04L2.726,-1.629L2.691,-1.939L2.608,-2.676L1.432,-2.577L0.921,-1.611L0.605,-1.015L-0.317,0.729L-0.533,1.138L-0.65,1.357L0.082,3.832L-0.072,2.415L0,1.156Z" style="fill:rgb(51,51,51);fill-rule:nonzero;"/>
                    </g>
                    <g transform="matrix(1,0,0,1,3348.05,272.978)">
                        <path d="M0,-1.301L0.196,-1.153L1.412,-0.226L2.238,0.402L2.814,0.839L2.605,0.352L2.407,-0.106L2.227,-0.522L1.844,-1.414L1.634,-1.897L0.19,-2.14L0.112,-1.791L0,-1.301Z" style="fill:rgb(51,51,51);fill-rule:nonzero;"/>
                    </g>
                    <g transform="matrix(-0.999189,0.0402551,0.0402551,0.999189,3349.5,318.597)">
                        <path d="M-2.204,-0.207L0.578,-0.207L-0.943,0.079L-2.787,-0.268L-2.204,-0.207Z" style="fill:rgb(51,51,51);fill-rule:nonzero;"/>
                    </g>
                    <g transform="matrix(1,0,0,1,3347.14,274.064)">
                        <path d="M0,-0.409L-0.037,-0.353L-0.102,-0.25L-0.376,0.18L-0.647,0.606L-0.384,0.356L-0.205,0.109L0.197,-0.451L0.267,-0.55L0.602,-1.015L0.182,-0.694L0.169,-0.673L0,-0.409Z" style="fill:rgb(51,51,51);fill-rule:nonzero;"/>
                    </g>
                    <g transform="matrix(0.999609,0.0279461,0.0279461,-0.999609,3363.51,345.372)">
                        <rect x="0.001" y="-0.006" width="0.471" height="0.083" style="fill:rgb(51,51,51);"/>
                    </g>
                    <g transform="matrix(1,0,0,1,3333.12,262.132)">
                        <path d="M0,1.04L-0.02,0.846L-0.326,0L0,1.04Z" style="fill:rgb(205,152,99);fill-rule:nonzero;"/>
                    </g>
                    <g transform="matrix(1,0,0,1,3333.56,268.053)">
                        <path d="M0,-0.451L-0.011,-0.264L0.025,-0.109L0.063,0.057L0.077,0.113L0.039,-0.253L0.008,-0.564L0,-0.451Z" style="fill:rgb(205,152,99);fill-rule:nonzero;"/>
                    </g>
                    <g transform="matrix(1,0,0,1,3333.47,262.467)">
                        <path d="M0,4.138L-0.138,2.802L-0.148,2.717L-0.274,2.221L-0.391,1.755L-0.422,1.635L-0.477,1.417L-1.16,-0.353L-0.477,1.417L-0.422,1.635L-0.391,1.755L-0.274,2.221L-0.148,2.717L-0.282,1.427L-0.356,0.705L-0.683,-0.335L-0.719,-0.434L-1.514,-0.434L-1.779,-0.899L-1.893,-0.998L-1.824,-0.6L-1.189,1.452L-0.473,3.31L-0.03,4.949L0.085,5.136L0.092,5.023L0,4.138Z" style="fill:rgb(205,152,99);fill-rule:nonzero;"/>
                    </g>
                    <g transform="matrix(1,0,0,1,3359.53,414.154)">
                        <path d="M0,-30.175L-2.452,-29.794L-4.155,-29.53L-5.118,-29.732L-7.752,-30.284L-8.554,-12.016L-7.575,-1.13L-6.883,-0.153L-4.884,0.595L-2.96,-0.041L-2.709,-0.99L-0.168,-11.81L1.748,-30.77L1.272,-30.373L0,-30.175Z" style="fill:rgb(205,152,99);fill-rule:nonzero;"/>
                    </g>
                    <g transform="matrix(1,0,0,1,3363.06,339.956)">
                        <path d="M0,-3.383L-0.945,-3.256L-0.989,-2.804L-1.055,-2.118L-1.059,-2.081L-1.093,-1.732L-1.121,-1.446L-1.146,-1.189L-1.121,-1.446L-1.093,-1.732L-1.059,-2.081L-1.137,-2.064L-1.413,-1.41L-0.82,-0.321L-0.512,-0.215L0.116,0L0.583,-0.519L0.71,-0.66L1.717,-3.081L1.048,-3.3L0,-3.383Z" style="fill:rgb(205,152,99);fill-rule:nonzero;"/>
                    </g>
                    <g transform="matrix(1,0,0,1,3359.6,337.315)">
                        <path d="M0,0.034L0.018,-0.274L0.033,-0.534L-0.282,-0.519L-0.584,-0.504L-1.341,-0.467L-1.4,-0.465L-1.404,-0.144L-0.685,0.327L-0.317,0.568L-0.065,0.143L0,0.034Z" style="fill:rgb(205,152,99);fill-rule:nonzero;"/>
                    </g>
                    <g transform="matrix(1,0,0,1,3359.62,337.569)">
                        <path d="M0,-0.527L-0.018,-0.219L-0.083,-0.11L-0.334,0.315L-0.524,0.636L-0.057,1.529L1.07,1.763L1.364,1.429L1.662,1.09L1.841,0.669L2.404,-0.66L2.493,-0.869L1.771,-1.571L0.735,-2.29L0.083,-1.93L0.015,-0.787L0,-0.527Z" style="fill:rgb(205,152,99);fill-rule:nonzero;"/>
                    </g>
                    <g transform="matrix(1,0,0,1,3319.12,353.239)">
                        <path d="M0,21.811L2.456,21.318L3.113,20.833L3.809,11.482L2.343,0.807L1.962,0.998L-0.227,0.985L-2.63,0.972L-2.779,0.945L-5.152,0.518L-5.967,0.372L-6.844,0L-4.595,11.158L-2.729,20.62L-2.44,21.142L0,21.811Z" style="fill:rgb(205,152,99);fill-rule:nonzero;"/>
                    </g>
                    <g transform="matrix(1,0,0,1,3367.83,340.124)">
                        <path d="M0,-3.741L-0.711,-3.601L-0.737,-0.874L-0.869,-0.523L-0.473,-0.009L0.538,0L1.052,-0.522L1.169,-0.89L1.396,-3.34L0.995,-3.611L0,-3.741Z" style="fill:rgb(205,152,99);fill-rule:nonzero;"/>
                    </g>
                    <g transform="matrix(1,0,0,1,3359.89,289.161)">
                        <path d="M0,0.928L0.26,0.105L-0.596,0L0,0.928Z" style="fill:rgb(205,152,99);fill-rule:nonzero;"/>
                    </g>
                    <g transform="matrix(-0.537383,0.843338,0.843338,0.537383,3346.52,275.482)">
                        <path d="M-0.671,-0.457L0.603,-0.457L0.058,-0.428L-1.024,-0.368L-0.671,-0.457Z" style="fill:rgb(205,152,99);fill-rule:nonzero;"/>
                    </g>
                    <g transform="matrix(1,0,0,1,3335.7,273.292)">
                        <path d="M0,1.135L-0.006,1.128L-0.067,1.075L-1.139,0.078L-1.558,-0.243L-1.247,0.032L-0.53,0.673L0.006,1.153L0.259,1.378L0,1.135Z" style="fill:rgb(205,152,99);fill-rule:nonzero;"/>
                    </g>
                    <g transform="matrix(1,0,0,1,3336.67,275.348)">
                        <path d="M0,1.085L0.096,1.325L0.275,1.762L0.217,1.529L0.116,1.293L-0.714,-0.677L0,1.085Z" style="fill:rgb(205,152,99);fill-rule:nonzero;"/>
                    </g>
                    <g transform="matrix(1,0,0,1,3345,275.453)">
                        <path d="M0,1.424L1.156,-0.279L1.498,-0.783L1.77,-1.209L1.195,-0.476L-0.177,1.276L-0.696,1.935L-1.545,2.633L-0.064,1.477L0,1.424Z" style="fill:rgb(205,152,99);fill-rule:nonzero;"/>
                    </g>
                    <g transform="matrix(1,0,0,1,3335.2,275.833)">
                        <path d="M0,-2.397L0.492,-1.414L0.498,-1.407L0.756,-1.163L1.586,0.807L1.692,0.634L0.437,-1.868L0.165,-2.411L-0.135,-3.204L-0.168,-3.113L0,-2.397Z" style="fill:rgb(205,152,99);fill-rule:nonzero;"/>
                    </g>
                    <g transform="matrix(1,0,0,1,3349.47,285.3)">
                        <path d="M0,-12.547L-1.217,-13.474L-1.412,-13.622L-1.723,-12.251L-2.057,-11.786L-2.127,-11.687L-2.529,-11.127L-2.708,-10.88L-3.339,-9.998L-3.657,-9.554L-4.477,-8.271L-4.528,-8.19L-6.85,-6.41L-7.023,-6.28L-7.422,-5.973L-7.53,-5.973L-7.713,-5.821L-8.257,-5.652L-9.333,-5.694L-9.864,-5.906L-9.935,-5.973L-9.958,-5.973L-10.312,-6.28L-10.736,-6.646L-12.521,-8.19L-12.7,-8.627L-12.796,-8.867L-13.763,-10.855L-14.299,-11.334L-15.016,-11.976L-15.327,-12.251L-15.327,-12.258L-15.516,-13.929L-16.416,-13.34L-18.182,-12.187L-18.213,-11.634L-18.241,-11.144L-18.313,-9.886L-18.159,-8.469L-16.748,-3.696L-16.708,-3.562L-16.187,-3.262L-11.225,-0.399L-8.137,1.382L-6.452,0.397L-1.323,-2.599L-1.291,-2.675L-0.989,-3.407L1.279,-8.885L1.327,-9.138L1.455,-11.359L1.419,-11.444L1.402,-11.483L0.825,-11.92L0,-12.547Z" style="fill:rgb(205,152,99);fill-rule:nonzero;"/>
                    </g>
                    <g transform="matrix(1,0,0,1,3348.62,268.974)">
                        <path d="M0,-1.548L-0.146,-0.61L-0.309,0.444L0.047,-0.631L0.104,-1.516L0.07,-1.992L0,-1.548Z" style="fill:rgb(205,152,99);fill-rule:nonzero;"/>
                    </g>
                    <g transform="matrix(1,0,0,1,3349.19,264.18)">
                        <path d="M0,0.321L-0.029,0.507L-0.225,1.741L0.067,0.299L0.773,-1.42L0,0.321Z" style="fill:rgb(205,152,99);fill-rule:nonzero;"/>
                    </g>
                    <g transform="matrix(1,0,0,1,3348.96,264.719)">
                        <path d="M0,1.202L-0.124,1.992L0.065,1.442L0.209,1.026L0.345,0.631L0.487,0.219L0.531,0.092L0.641,-0.225L1.475,-1.942L0.641,-0.225L0.531,0.092L0.487,0.219L0.345,0.631L0.209,1.026L0.065,1.442L-0.124,1.992L-0.243,2.739L-0.3,3.624L-0.343,3.772L-0.117,3.465L0.03,3.264L0.611,1.664L1.457,-0.138L2.114,-2.143L2.183,-2.534L1.306,-2.57L0.998,-1.96L0.292,-0.24L0,1.202Z" style="fill:rgb(205,152,99);fill-rule:nonzero;"/>
                    </g>
                    <g transform="matrix(1,0,0,1,3316.9,337.904)">
                        <path d="M0,1.129L-0.009,0.938L-0.074,-0.535L-0.092,-0.945L-1.029,-1.122L-2.079,-1.094L-2.759,-0.911L-2.583,-0.414L-2.067,1.037L-1.881,1.559L-1.323,2.251L-0.371,1.979L-0.302,1.867L0.277,0.924L-0.009,0.938L0,1.129Z" style="fill:rgb(205,152,99);fill-rule:nonzero;"/>
                    </g>
                    <g transform="matrix(1,0,0,1,3319.28,337.965)">
                        <path d="M0,-0.226L-0.003,-0.715L-0.01,-1.844L-0.077,-1.916L-0.516,-1.918L-0.579,-1.919L-1.308,-1.922L-1.715,-1.67L-2.473,-1.007L-2.326,-0.603L-1.8,0.848L-1.747,0.993L-1.19,1.696L-0.577,1.602L-0.052,1.522L0.409,0.742L0.461,0.655L0,-0.226Z" style="fill:rgb(205,152,99);fill-rule:nonzero;"/>
                    </g>
                    <g transform="matrix(1,0,0,1,3320.64,334.563)">
                        <path d="M0,0.381L0.094,0.482L0.176,-0.101L0,0.381Z" style="fill:rgb(205,152,99);fill-rule:nonzero;"/>
                    </g>
                    <g transform="matrix(1,0,0,1,3365.17,340.325)">
                        <path d="M0,-3.586L-0.401,-3.451L-0.55,-2.004L-0.569,-1.823L-0.578,-1.74L-0.635,-1.187L-0.651,-1.024L-0.761,-1.069L-0.362,-0.085L0.926,0L1.384,-0.89L1.635,-3.327L1.295,-3.508L0,-3.586Z" style="fill:rgb(205,152,99);fill-rule:nonzero;"/>
                    </g>
                    <g transform="matrix(0.732588,-0.680672,-0.680672,-0.732588,3364.68,339.223)">
                        <path d="M-0.221,0.159L-0.048,0.159L0.37,0.526L0.284,0.677L-0.221,0.159Z" style="fill:rgb(205,152,99);fill-rule:nonzero;"/>
                    </g>
                    <g transform="matrix(1,0,0,1,3364.43,338.321)">
                        <path d="M0,0.213L0.175,0.182L0.193,0L0,0.213Z" style="fill:rgb(205,152,99);fill-rule:nonzero;"/>
                    </g>
                    <g transform="matrix(1,0,0,1,3314.25,337.899)">
                        <path d="M0,1.406L-0.002,1.367L-0.017,1.071L-0.09,-0.402L-0.115,-0.907L-0.509,-1.063L-1.806,-1.053L-2.155,-0.891L-2.126,-0.304L-2.053,1.169L-2.033,1.557L-1.623,2.469L-0.509,2.455L-0.333,2.452L0.006,1.53L0,1.406Z" style="fill:rgb(205,152,99);fill-rule:nonzero;"/>
                    </g>
                    <g transform="matrix(0.0504408,0.998727,0.998727,-0.0504408,3314.51,339.093)">
                        <path d="M-0.137,-0.27L0.16,-0.27L0.289,-0.157L-0.136,-0.123L-0.137,-0.27Z" style="fill:rgb(205,152,99);fill-rule:nonzero;"/>
                    </g>
                    <g transform="matrix(1,0,0,1,3311.81,339.914)">
                        <path d="M0,-3.396L-0.703,-3.574L-1.703,-3.497L-2.118,-3.247L-2.077,-2.204L-2.021,-0.788L-2.006,-0.731L-1.924,-0.415L-1.437,0.133L-0.686,0.167L-0.427,0.178L-0.005,-0.315L-0.09,-0.582L-0.119,-0.672L-0.112,-0.822L-0.048,-2.301L0,-3.396Z" style="fill:rgb(205,152,99);fill-rule:nonzero;"/>
                    </g>
                    <g transform="matrix(1,0,0,1,3337.84,350.654)">
                        <path d="M0,12.225L2.646,12.097L3.194,12.071L2.674,1.293L2.634,0.462L2.066,0.079L0.735,-0.026L-0.579,0.207L-1.108,0.642L-1.067,1.473L-0.548,12.251L0,12.225Z" style="fill:rgb(250,192,41);fill-rule:nonzero;"/>
                    </g>
                    <g transform="matrix(1,0,0,1,3343.98,349.266)">
                        <path d="M0,2.255L1.51,2.45L1.438,0.963L1.385,-0.143L-0.125,-0.339L-1.61,0.001L-1.519,1.882L-1.484,2.594L0,2.255Z" style="fill:rgb(250,192,41);fill-rule:nonzero;"/>
                    </g>
                    <g transform="matrix(1,0,0,1,3344.46,387.79)">
                        <path d="M0,20.86L0.556,20.833L0.551,20.733L0.53,20.297L0.519,20.076L0.494,19.551L0.45,18.648L0.295,15.418L0.72,15.398L0.661,14.166L0.352,7.762L0.132,3.203L0.127,3.097L0.043,1.359L0.012,0.709L-0.48,0.161L-1.278,-0.013L-1.233,0.928L-1.176,2.106L-1.169,2.243L-1.147,2.706L-0.96,2.915L-0.731,3.171L-0.96,2.915L-0.257,6.65L-0.638,12.914L-0.621,13.618L-0.499,16.146L-0.335,19.55L-0.271,20.873L-0.192,20.869L0,20.86Z" style="fill:rgb(250,192,41);fill-rule:nonzero;"/>
                    </g>
                    <g transform="matrix(1,0,0,1,3346.8,413.566)">
                        <path d="M0,1.806L-0.055,0.672L-0.109,-0.463L-0.15,-1.295L-1.188,-1.429L-1.192,-1.51L-1.21,-1.888L-1.635,-1.867L-1.682,-2.83L-1.696,-3.124L-1.711,-3.44L-2.538,-3.4L-2.523,-3.084L-2.444,-1.45L-2.336,0.782L-2.31,1.327L-2.229,3.014L-2.15,4.648L-2.121,5.246L0.161,5.136L0.132,4.538L0.054,2.94L0.053,2.904L0,1.806Z" style="fill:rgb(250,192,41);fill-rule:nonzero;"/>
                    </g>
                    <g transform="matrix(1,0,0,1,3348.18,379.761)">
                        <path d="M0,32.252L-0.022,31.794L-1.535,0.411L-1.561,-0.124L-2.857,-0.291L-4.13,-0L-4.104,0.534L-3.709,8.739L-3.677,9.388L-3.594,11.127L-3.589,11.233L-3.369,15.792L-3.06,22.196L-3.001,23.428L-2.845,26.657L-2.802,27.56L-2.745,28.742L-2.74,28.843L-2.617,28.837L-2.627,28.629L-2.646,28.232L-1.796,28.191L-1.777,28.588L-1.767,28.796L-1.497,28.783L-1.487,29.003L-1.461,29.534L-1.436,30.065L-1.425,30.285L-1.694,30.298L-1.684,30.505L-1.665,30.903L-2.515,30.944L-2.535,30.547L-2.545,30.339L-2.667,30.345L-2.638,30.955L-2.592,31.918L-2.573,32.295L-2.569,32.376L-1.531,32.51L-1.331,32.536L-1.274,32.543L0,32.252Z" style="fill:rgb(250,192,41);fill-rule:nonzero;"/>
                    </g>
                    <g transform="matrix(1,0,0,1,3344.75,411.678)">
                        <path d="M0,-8.469L0.155,-5.24L0.199,-4.337L0.224,-3.812L0.235,-3.591L0.256,-3.155L0.261,-3.055L0.271,-2.834L0.297,-2.303L0.314,-1.939L0.322,-1.773L0.333,-1.552L0.349,-1.236L0.363,-0.942L0.41,0.02L0.834,0L0.787,-0.962L0.758,-1.572L0.748,-1.793L0.739,-1.959L0.721,-2.323L0.696,-2.854L0.686,-3.075L0.681,-3.175L0.624,-4.357L0.581,-5.26L0.425,-8.489L0,-8.469Z" style="fill:rgb(250,192,41);fill-rule:nonzero;"/>
                    </g>
                    <g transform="matrix(1,0,0,1,3333.29,349.781)">
                        <path d="M0,2.255L1.51,2.45L1.476,1.738L1.385,-0.144L-0.125,-0.339L-1.609,0.001L-1.556,1.107L-1.484,2.594L0,2.255Z" style="fill:rgb(250,192,41);fill-rule:nonzero;"/>
                    </g>
                    <g transform="matrix(1,0,0,1,3337.06,412.05)">
                        <path d="M0,-8.471L0.156,-5.241L0.199,-4.338L0.256,-3.155L0.261,-3.055L0.271,-2.836L0.298,-2.304L0.316,-1.94L0.323,-1.773L0.333,-1.554L0.363,-0.943L0.41,0.02L0.834,-0.001L0.789,-0.964L0.774,-1.258L0.758,-1.574L0.748,-1.794L0.741,-1.961L0.723,-2.325L0.698,-2.856L0.686,-3.075L0.682,-3.177L0.661,-3.612L0.651,-3.834L0.625,-4.359L0.581,-5.262L0.52,-6.544L0.512,-6.7L0.426,-8.491L0,-8.471Z" style="fill:rgb(250,192,41);fill-rule:nonzero;"/>
                    </g>
                    <g transform="matrix(1,0,0,1,3337.84,418.836)">
                        <path d="M0,-8.044L0.014,-7.75L0.061,-6.787L-0.364,-6.767L-0.346,-6.389L-0.342,-6.308L-1.363,-6.075L-1.323,-5.242L-1.213,-2.974L-1.161,-1.876L-1.159,-1.84L-1.082,-0.242L-1.053,0.356L-0.472,0.329L0.35,0.289L0.455,0.284L0.524,0.28L1.088,0.253L1.159,0.25L1.229,0.246L1.2,-0.352L1.121,-1.986L1.04,-3.672L1.013,-4.218L0.906,-6.45L0.827,-8.084L0.812,-8.4L-0.015,-8.36L0,-8.044Z" style="fill:rgb(250,192,41);fill-rule:nonzero;"/>
                    </g>
                    <g transform="matrix(1,0,0,1,3336.35,408.131)">
                        <path d="M0,-19.24L0.031,-18.591L0.115,-16.852L0.12,-16.747L0.34,-12.187L0.648,-5.783L0.708,-4.552L1.133,-4.572L1.219,-2.781L1.793,-2.579L1.865,-2.554L1.794,-2.566L1.43,-2.554L1.227,-2.625L1.289,-1.342L1.333,-0.439L1.358,0.085L1.368,0.307L1.389,0.743L1.394,0.843L1.95,0.816L2.142,0.807L2.221,0.803L2.157,-0.52L1.993,-3.924L1.871,-6.452L1.821,-7.154L0.839,-13.352L1.179,-17.138L0.976,-16.861L1.179,-17.138L1.345,-17.364L1.323,-17.827L1.316,-17.964L1.26,-19.142L1.214,-20.083L0.437,-19.833L0,-19.24Z" style="fill:rgb(250,192,41);fill-rule:nonzero;"/>
                    </g>
                    <g transform="matrix(1,0,0,1,3336.22,379.985)">
                        <path d="M0,32.834L0.056,32.821L0.253,32.776L1.274,32.543L1.27,32.461L1.252,32.084L1.205,31.122L1.176,30.511L1.053,30.517L1.063,30.725L1.083,31.122L0.232,31.163L0.213,30.766L0.203,30.558L-0.066,30.571L-0.077,30.351L-0.103,29.82L-0.128,29.289L-0.139,29.069L0.13,29.056L0.12,28.849L0.101,28.451L0.952,28.41L0.971,28.808L0.98,29.015L1.103,29.009L1.099,28.909L1.042,27.727L0.998,26.824L0.842,23.594L0.783,22.363L0.474,15.959L0.254,11.399L0.25,11.293L0.166,9.555L0.134,8.906L-0.261,0.701L-0.287,0.167L-1.583,0L-2.857,0.291L-2.831,0.825L-1.318,32.208L-1.296,32.667L-0.905,32.717L-0.519,32.767L-0.207,32.807L0,32.834Z" style="fill:rgb(250,192,41);fill-rule:nonzero;"/>
                    </g>
                    <g transform="matrix(1,0,0,1,3334.1,337.014)">
                        <path d="M0,0.232L-0.002,0.193L-0.073,-1.278L-4.895,-1.362L-7.383,-1.405L-9.382,-1.439L-10.184,-1.453L-10.114,0.01L-10.113,0.017L-10.053,1.271L-10.042,1.499L-10.041,1.509L-9.474,1.519L0.07,1.685L0.07,1.674L0,0.232Z" style="fill:rgb(250,192,41);fill-rule:nonzero;"/>
                    </g>
                    <g transform="matrix(1,0,0,1,3351.86,335.605)">
                        <path d="M0,1.34L-0.06,0.086L-0.061,0.078L-0.132,-1.385L-5.09,-0.819L-6.2,-0.692L-9.893,-0.27L-10.179,-0.237L-10.108,1.233L-10.106,1.273L-10.036,2.715L-10.036,2.725L-9.11,2.619L-6.355,2.305L-4.353,2.076L0.012,1.578L0.011,1.567L0,1.34Z" style="fill:rgb(250,192,41);fill-rule:nonzero;"/>
                    </g>
                    <g transform="matrix(1,0,0,1,3340.49,372.89)">
                        <path d="M0,-6.08L-0.82,-6.041L-1.442,-6.011L-2.262,-5.971L-2.601,-5.955L-2.313,0.017L-1.974,0.001L-1.154,-0.039L-0.843,-0.054L-0.531,-0.069L0.288,-0.108L0.627,-0.125L0.34,-6.097L0,-6.08Z" style="fill:rgb(250,192,41);fill-rule:nonzero;"/>
                    </g>
                    <g transform="matrix(1,0,0,1,3337.75,372.907)">
                        <path d="M0,-5.966L0.287,-0.013L0.288,0.006L0.429,-0.001L0.141,-5.972L0,-5.966Z" style="fill:rgb(250,192,41);fill-rule:nonzero;"/>
                    </g>
                    <g transform="matrix(1,0,0,1,3340.83,372.759)">
                        <path d="M0,-5.966L0.288,0.006L0.429,-0.001L0.427,-0.019L0.141,-5.972L0,-5.966Z" style="fill:rgb(250,192,41);fill-rule:nonzero;"/>
                    </g>
                    <g transform="matrix(1,0,0,1,3334.09,247.133)">
                        <path d="M0,11.907L4.558,11.674L10.154,11.674L14.712,11.907L17.547,11.371L18.718,9.45L17.354,6.574L16.496,5.329L15.575,4.681L14.994,4.251L13.973,3.655L13.997,3.704L14.014,3.74L14.142,4.007L14.014,3.74L13.997,3.704L13.973,3.655L13.379,2.414L12.814,1.907L11.723,1.124L9.15,0L7.356,0.028L5.562,0L2.988,1.124L1.898,1.907L1.333,2.414L0.738,3.655L0.715,3.704L0.698,3.74L0.57,4.007L0.698,3.74L0.715,3.704L0.738,3.655L-0.282,4.251L-0.863,4.681L-1.785,5.329L-2.642,6.574L-4.006,9.45L-2.835,11.371L0,11.907Z" style="fill:rgb(66,76,160);fill-rule:nonzero;"/>
                    </g>
                    <g transform="matrix(0.999718,0.0237514,0.0237514,-0.999718,3363.51,345.385)">
                        <rect x="0" y="-0.005" width="0.464" height="0.01" style="fill:rgb(66,76,160);"/>
                    </g>
                    <g transform="matrix(1,0,0,1,3362.54,342.268)">
                        <path d="M0,-2.528L-0.308,-2.634L-0.901,-3.723L-0.625,-4.377L-0.543,-4.431L-0.477,-5.116L-0.433,-5.569L-0.522,-5.359L-1.084,-4.03L-0.184,0.86L0.628,0.882L-0.184,0.86L0.745,1.17L0.958,3.028L1.439,3.041L1.468,3.041L1.556,1.191L1.095,-2.832L0.628,-2.312L0,-2.528Z" style="fill:rgb(66,76,160);fill-rule:nonzero;"/>
                    </g>
                    <g transform="matrix(1,0,0,1,3363.51,376.096)">
                        <path d="M0,-30.717L-0.009,-30.8L-0.222,-32.657L-1.151,-32.967L-2.051,-37.858L-2.23,-37.437L-2.529,-37.098L-2.823,-36.764L-3.95,-36.998L-4.417,-37.891L-4.227,-38.212L-4.596,-38.454L-5.314,-38.925L-5.311,-39.245L-7.526,-39.138L-7.505,-38.707L-8.399,-38.664L-9.433,-38.614L-9.42,-38.35L-9.651,-38.338L-11.029,-38.272L-11.611,-38.244L-11.643,-38.913L-16.008,-38.415L-18.01,-38.186L-20.765,-37.872L-20.395,-36.507L-20.327,-36.257L-20.271,-36.047L-20.059,-35.267L-19.07,-31.615L-18.723,-30.333L-18.491,-29.479L-18.465,-29.381L-18.273,-28.149L-17.585,-27.973L-17.133,-27.5L-17.091,-26.63L-17.527,-26.074L-17.927,-25.929L-17.678,-24.335L-17.469,-24.308L-17.377,-22.4L-14.75,-5.543L-13.258,-2.665L-14.467,5.124L-13.508,7.401L-11.728,7.774L-9.095,8.326L-8.132,8.528L-6.429,8.264L-3.976,7.883L-2.704,7.686L-2.228,7.288L-0.094,5.503L0.414,-2.304L0.501,-5.141L0.209,-28.889L0.042,-30.349L0.001,-30.706L0,-30.717Z" style="fill:rgb(66,76,160);fill-rule:nonzero;"/>
                    </g>
                    <g transform="matrix(1,0,0,1,3363.55,345.39)">
                        <path d="M0,0.358L0.422,0.012L-0.041,0L0,0.358Z" style="fill:rgb(66,76,160);fill-rule:nonzero;"/>
                    </g>
                    <g transform="matrix(1,0,0,1,3309.59,332.562)">
                        <path d="M0,3.679L0.151,3.672L0.216,3.068L-0.129,3.022L-0.393,2.988L-0.446,1.902L-0.4,1.771L-0.375,1.774L0.344,1.869L0.488,0.534L0.525,0.184L0.558,-0.123L-0.52,1.039L-2.546,3.802L-1.265,3.74L0,3.679Z" style="fill:rgb(66,76,160);fill-rule:nonzero;"/>
                    </g>
                    <g transform="matrix(-0.707107,0.707107,0.707107,0.707107,3323.4,339.502)">
                        <path d="M0.045,-0.414L0.186,-0.414L0.51,-0.289L-0.294,-0.106L0.045,-0.414Z" style="fill:rgb(66,76,160);fill-rule:nonzero;"/>
                    </g>
                    <g transform="matrix(1,0,0,1,3314.26,340.312)">
                        <path d="M0,-0.883L-0.339,0.039L0.112,-0.922L0,-0.883Z" style="fill:rgb(66,76,160);fill-rule:nonzero;"/>
                    </g>
                    <g transform="matrix(1,0,0,1,3313.97,339.174)">
                        <path d="M0,14.583L2.373,15.01L2.522,15.036L4.925,15.05L7.114,15.062L7.495,14.872L10.004,13.616L7.022,4.646L8.867,0.485L9.008,0.168L8.854,0.08L7.929,0.125L7.917,-0.14L5.989,-0.047L5.968,-0.479L5.727,-0.467L5.719,-0.467L5.257,0.313L4.732,0.394L4.119,0.488L3.562,-0.215L3.51,-0.36L3.206,-0.345L2.626,0.597L2.557,0.709L1.605,0.981L1.047,0.29L0.861,-0.232L0.415,-0.211L0.403,0.217L-0.048,1.178L-0.224,1.18L-1.338,1.195L-1.749,0.282L-1.768,-0.106L-2.045,-0.092L-2.267,-0.082L-2.273,0.069L-2.245,0.158L-2.16,0.426L-2.582,0.919L-2.841,0.907L-3.592,0.874L-4.078,0.325L-4.161,0.01L-4.498,0.026L-5.5,0.074L-5.612,0.08L-8.694,0.228L-8.16,4.246L-4.863,12.724L-1.692,14.065L-0.815,14.436L0,14.583Z" style="fill:rgb(66,76,160);fill-rule:nonzero;"/>
                    </g>
                    <g transform="matrix(1,0,0,1,3320.74,334.521)">
                        <path d="M0,0.525L0.056,0.583L0.083,-0.058L0,0.525Z" style="fill:rgb(66,76,160);fill-rule:nonzero;"/>
                    </g>
                    <g transform="matrix(1,0,0,1,3319.83,315.172)">
                        <path d="M0,4.177L1.406,3.183L5.412,1.665L2.629,0L1.81,1.301L0,4.177Z" style="fill:rgb(66,76,160);fill-rule:nonzero;"/>
                    </g>
                    <g transform="matrix(0.999659,0.0261105,0.0261105,-0.999659,3319.54,320.038)">
                        <path d="M0.022,-0.022L0.559,-0.022L1.658,1.728L0.279,0.696L0.022,-0.022Z" style="fill:rgb(66,76,160);fill-rule:nonzero;"/>
                    </g>
                    <g transform="matrix(1,0,0,1,3360.87,330.808)">
                        <path d="M0,-2.249L-0.221,-2.371L-1.033,-2.393L-0.975,-1.041L-0.757,0.144L-0.091,-0.631L0.911,-1.799L0.755,-1.86L0.573,-1.932L0,-2.249Z" style="fill:rgb(66,76,160);fill-rule:nonzero;"/>
                    </g>
                    <g transform="matrix(1,0,0,1,3321.64,314.269)">
                        <path d="M0,2.204L0.819,0.903L0.259,0L0,2.204Z" style="fill:rgb(66,76,160);fill-rule:nonzero;"/>
                    </g>
                    <g transform="matrix(1,0,0,1,3320.94,317.153)">
                        <path d="M0,18.109L0.76,18.072L0.747,17.807L2.938,17.702L2.972,18.408L3.773,18.422L5.773,18.456L11.601,12.639L5.773,18.456L8.26,18.5L10.207,17.275L14.653,12.459L17.473,9.405L14.653,12.459L17.579,11.405L19.857,13.882L19.705,13.321L18.823,10.062L19.705,13.321L19.857,13.882L21.022,18.182L24.715,17.76L25.825,17.633L30.783,17.067L30.75,16.361L31.159,16.341L32.567,16.274L32.94,16.255L32.953,16.52L33.367,16.5L33.712,16.484L33.916,16.22L34.02,16.085L34.415,15.936L34.476,15.933L35.411,15.888L37.636,15.662L37.758,15.65L37.875,15.351L37.901,15.284L39.176,13.799L38.958,12.613L38.899,11.262L39.711,11.284L39.932,11.406L40.505,11.723L40.688,11.795L40.554,10.635L39.441,6.582L38.492,3.131L39.441,6.582L38.662,2.95L37.903,-0.391L37.824,-0.36L37.195,-0.109L37.004,-0.032L35.969,0.381L34.91,0.537L34.266,0.299L33.951,0.466L31.36,1.059L31.334,1.063L31.337,1.065L31.334,1.063L29.506,1.484L27.976,1.26L26.844,1.094L24.371,1.404L24.659,1.393L24.371,1.404L24.078,1.442L23.962,1.444L21.557,1.499L21.282,1.505L17.947,1.581L14.251,1.323L14.071,1.311L8.689,0.935L7.548,0.61L7.411,0.571L7.327,0.547L4.303,-0.316L0.297,1.202L-0.848,2.921L-1.269,3.554L-3.769,7.715L-3.63,7.565L-3.769,7.715L-3.971,7.933L-4.488,8.49L-4.331,10.188L-4.3,10.253L-3.908,11.083L-3.41,12.138L-1.093,15.145L-0.649,15.721L-0.602,15.861L-0.121,17.309L-0.147,17.951L0,18.109Z" style="fill:rgb(66,76,160);fill-rule:nonzero;"/>
                    </g>
                    <g transform="matrix(1,0,0,1,3317.17,320.833)">
                        <path d="M0,4.035L2.5,-0.126L2.922,-0.759L2.386,-0.773L2.313,-0.775L1.791,-0.145L-0.815,3.768L-0.781,4.135L-0.771,4.237L-0.719,4.81L-0.202,4.253L0,4.035Z" style="fill:rgb(66,76,160);fill-rule:nonzero;"/>
                    </g>
                    <g transform="matrix(1,0,0,1,3324.07,338.524)">
                        <path d="M0,0.356L0.55,0.01L-0.016,0L0,0.356Z" style="fill:rgb(66,76,160);fill-rule:nonzero;"/>
                    </g>
                    <g transform="matrix(1,0,0,1,3349.31,413.812)">
                        <path d="M0,16.409L0.092,16.124L1.585,10.85L1.612,10.747L1.702,10.581L1.848,10.278L1.82,9.681L1.802,9.317L1.72,7.623L1.694,7.078L1.674,6.663L1.65,6.167L1.627,5.681L1.623,5.6L1.406,1.101L1.396,0.888L1.337,-0.331L1.31,-0.898L1.003,-1.219L-0.74,-1.134L-1.015,-0.786L-1.009,-0.67L-0.987,-0.219L-0.984,-0.161L-0.935,0.857L-0.928,0.999L-0.911,1.367L-0.127,17.628L-0.118,17.544L0,16.409Z" style="fill:white;fill-rule:nonzero;"/>
                    </g>
                    <g transform="matrix(1,0,0,1,3333.59,395.199)">
                        <path d="M0,20.183L-0.05,19.165L-0.074,18.656L-0.863,2.283L-0.881,1.91L-0.893,1.661L-0.912,1.261L-0.997,1.098L-0.937,0.76L-0.975,-0.04L-0.978,-0.091L-1.003,-0.607L-1.024,-1.058L-3.348,-0.946L-3.327,-0.494L-3.302,0.021L-3.3,0.072L-3.261,0.872L-3.168,1.202L-3.237,1.373L-3.217,1.773L-3.205,2.022L-3.188,2.395L-2.324,20.311L-2.294,20.92L-1.988,21.241L-0.244,21.157L0.03,20.808L0.024,20.692L0,20.199L0,20.183Z" style="fill:white;fill-rule:nonzero;"/>
                    </g>
                    <g transform="matrix(1,0,0,1,3346.69,415.672)">
                        <path d="M0,-2.569L0.054,-1.434L0.109,-0.3L0.162,0.798L0.164,0.833L0.363,0.823L0.308,-0.311L0.302,-0.426L0.278,-0.934L0.228,-1.953L0.204,-2.463L0.198,-2.578L0.16,-3.375L-0.041,-3.402L0,-2.569Z" style="fill:white;fill-rule:nonzero;"/>
                    </g>
                    <g transform="matrix(1,0,0,1,3348.99,433.12)">
                        <path d="M0,-0.367L0.018,0.002L0.057,-0.369L0,-0.367Z" style="fill:rgb(221,221,221);fill-rule:nonzero;"/>
                    </g>
                    <g transform="matrix(1,0,0,1,3354.65,420.796)">
                        <path d="M0,-6.047L-1.999,-6.795L-2.691,-7.772L-3.491,-2.234L-3.504,-2.143L-3.695,-0.817L-3.671,-0.321L-3.651,0.095L-3.625,0.639L-3.298,1.528L-1.739,1.651L1.306,1.725L2.511,1.671L2.062,0.122L2.048,0.182L2.062,0.122L2.128,-0.167L2.175,-7.632L1.924,-6.683L0,-6.047Z" style="fill:white;fill-rule:nonzero;"/>
                    </g>
                    <g transform="matrix(1,0,0,1,3352.91,439.713)">
                        <path d="M0,-17.266L-1.558,-17.389L-1.886,-18.277L-1.804,-16.583L-1.787,-16.219L-1.758,-15.622L-1.905,-15.32L-1.995,-15.153L-2.021,-15.05L-3.515,-9.777L-3.606,-9.491L-3.725,-8.356L-3.733,-8.272L-3.81,-7.534L-3.869,-6.963L-3.908,-6.591L-4.185,-3.923L-4.369,-1.393L-1.69,0.573L-0.054,0.926L3.398,1.011L4.846,0.734L6.753,-1.119L6.937,-3.649L6.61,-5.763L6.54,-6.214L6.533,-6.257L6.392,-7.169L6.365,-7.342L6.332,-7.495L6.341,-7.495L6.271,-7.949L6.26,-8.019L6.175,-8.569L6.002,-9.686L5.789,-11.056L5.058,-13.995L4.25,-17.245L3.045,-17.191L0,-17.266Z" style="fill:rgb(66,76,160);fill-rule:nonzero;"/>
                    </g>
                    <g transform="matrix(1,0,0,1,3350.93,419.139)">
                        <path d="M0,0.354L0.024,0.841L0.216,-0.487L0,0.354Z" style="fill:rgb(221,221,221);fill-rule:nonzero;"/>
                    </g>
                    <g transform="matrix(1,0,0,1,3334.09,256.583)">
                        <path d="M0,3.377L4.558,3.032L10.154,3.032L14.712,3.377L17.547,2.884L18.718,0.906L18.718,0L17.547,1.921L14.712,2.457L10.154,2.224L4.558,2.224L0,2.457L-2.835,1.921L-4.006,0L-4.006,0.906L-2.835,2.884L0,3.377Z" style="fill:rgb(221,221,221);fill-rule:nonzero;"/>
                    </g>
                    <g transform="matrix(1,0,0,1,3348.37,413.72)">
                        <path d="M0,0.95L-0.049,-0.068L-0.052,-0.126L-0.074,-0.577L-1.477,-0.51L-1.452,-0L-1.403,1.018L-1.379,1.527L0.024,1.459L0.007,1.092L0,0.95Z" style="fill:rgb(221,221,221);fill-rule:nonzero;"/>
                    </g>
                    <g transform="matrix(1,0,0,1,3317.74,374.392)">
                        <path d="M0,7.909L0.16,7.856L0.187,7.847L0.382,7.783L1.79,7.837L2.03,7.846L2.289,7.856L3.434,7.9L3.983,8.106L4.059,8.135L4.315,8.231L4.882,8.443L5.426,7.95L5.242,7.246L5.285,7.682L5.241,7.943L5.22,8.064L5.241,7.943L5.285,7.682L5.242,7.246L4.492,-0.321L3.835,0.164L1.379,0.657L-1.061,-0.012L-1.349,-0.534L-0.621,7.454L-0.581,7.772L-0.573,7.841L-0.581,7.772L-0.94,8.219L-0.189,7.971L0,7.909Z" style="fill:white;fill-rule:nonzero;"/>
                    </g>
                    <g transform="matrix(1,0,0,1,3323.17,389.501)">
                        <path d="M0,-7.159L-0.544,-6.666L0.54,-0.378L0.605,0L0.568,-2.04L0,-7.159Z" style="fill:rgb(221,221,221);fill-rule:nonzero;"/>
                    </g>
                    <g transform="matrix(1,0,0,1,3324.57,383.061)">
                        <path d="M0,13.737L0.001,13.694L0.028,12.445L0.038,11.988L0.04,11.917L0.052,11.346L-0.794,6.441L-0.859,6.063L-1.944,-0.225L-2.51,-0.437L-2.766,-0.534L-2.843,-0.562L-3.392,-0.768L-4.537,-0.812L-4.795,-0.822L-5.035,-0.831L-6.444,-0.885L-6.639,-0.821L-6.825,-0.759L-7.014,-0.697L-7.765,-0.449L-8.346,1.536L-8.672,2.649L-10.013,6.659L-10.213,7.446L-10.376,8.089L-10.58,8.893L-11.094,10.917L-11.155,13.664L-9.117,14.335L-7.644,14.489L-4.186,14.622L-2.567,14.587L-0.691,14.225L-0.008,14.093L0,13.737Z" style="fill:rgb(66,76,160);fill-rule:nonzero;"/>
                    </g>
                    <g transform="matrix(1,0,0,1,3334.56,380.81)">
                        <path d="M0,-2.388L-1.484,-2.049L-1.459,-1.514L-1.413,-0.561L-1.387,-0.027L-1.173,0L-1.198,-0.534L0.075,-0.825L1.371,-0.658L1.397,-0.124L1.608,-0.171L1.582,-0.706L1.536,-1.659L1.51,-2.193L0,-2.388Z" style="fill:rgb(221,221,221);fill-rule:nonzero;"/>
                    </g>
                    <g transform="matrix(1,0,0,1,3343.85,361.353)">
                        <path d="M0,1.236L0.662,1.259L1.604,1.291L2.171,1.437L2.137,0.725L2.102,-0.006L0.591,-0.201L-0.893,0.139L-0.858,0.87L-0.838,1.277L0,1.236Z" style="fill:rgb(221,221,221);fill-rule:nonzero;"/>
                    </g>
                    <g transform="matrix(1,0,0,1,3346.51,365.01)">
                        <path d="M0,-0.955L-0.429,-1.01L-1.939,-1.205L-3.423,-0.866L-3.845,-0.769L-3.823,-0.298L-3.796,0.25L-3.394,-0.242L-1.909,-0.582L-0.399,-0.387L0.049,0.065L0.041,-0.107L0.022,-0.483L0,-0.955Z" style="fill:rgb(221,221,221);fill-rule:nonzero;"/>
                    </g>
                    <g transform="matrix(1,0,0,1,3343.08,363.804)">
                        <path d="M0,0.28L0.004,0.34L1.487,-0L2.998,0.195L2.995,0.135L1.485,-0.06L0,0.28Z" style="fill:rgb(221,221,221);fill-rule:nonzero;"/>
                    </g>
                    <g transform="matrix(1,0,0,1,3309.74,337.771)">
                        <path d="M0,-0.06L-0.041,-1.103L0.005,-1.537L-0.146,-1.529L-1.41,-1.468L-1.339,0.004L-1.268,1.477L-0.267,1.429L0.071,1.413L0.056,1.356L0,-0.06Z" style="fill:rgb(221,221,221);fill-rule:nonzero;"/>
                    </g>
                    <g transform="matrix(1,0,0,1,3366.3,334.616)">
                        <path d="M0,-2.291L-0.036,-3.034L-0.273,-2.979L-1.083,-2.792L-1.789,-2.629L-2.637,-2.434L-2.863,-2.382L-3.659,-2.282L-4.312,-2.201L-5.034,-2.111L-6.666,-1.908L-7.107,-1.863L-7.389,-1.834L-7.499,-1.823L-7.598,-1.813L-7.719,-1.801L-9.944,-1.575L-9.908,-0.832L-10.905,-0.784L-12.082,0.743L-10.632,0.673L-10.407,0.381L-9.833,-0.363L-7.108,-0.64L-6.556,-0.696L-5.911,-0.776L-5.221,-0.862L-4.242,-0.984L-3.997,-1.014L-2.752,-1.169L-2.595,-1.206L-2.287,-1.277L-1.249,-1.517L-0.059,-1.791L0.074,-1.822L0,-2.291Z" style="fill:rgb(221,221,221);fill-rule:nonzero;"/>
                    </g>
                    <g transform="matrix(1,0,0,1,3355.89,335.937)">
                        <path d="M0,-0.941L0.024,-0.453L0.095,1.02L2.31,0.913L2.369,0.91L3.126,0.874L3.428,0.859L3.743,0.844L3.811,-0.299L3.664,-0.629L3.591,-0.793L3.491,-1.306L3.298,-1.961L0.573,-1.684L0,-0.941Z" style="fill:rgb(221,221,221);fill-rule:nonzero;"/>
                    </g>
                    <g transform="matrix(1,0,0,1,3317.31,336.599)">
                        <path d="M0,-0.559L-0.455,-0.561L-1.019,-0.564L-1.408,-0.565L-1.609,-0.571L-2.334,-0.591L-2.738,-0.602L-3.169,-0.614L-3.718,-0.629L-3.933,-0.635L-4.816,-0.659L-5.031,-0.665L-5.24,-0.671L-5.306,-0.68L-5.466,-0.701L-5.9,-0.758L-6.368,-0.819L-7.061,-0.91L-7.265,-0.937L-7.506,-0.969L-7.571,-0.365L-7.618,0.068L-7.203,-0.182L-6.203,-0.258L-5.5,-0.081L-5.216,0.41L-4.867,0.248L-3.57,0.238L-3.176,0.394L-2.496,0.211L-1.446,0.183L-0.509,0.359L0.249,-0.304L0.656,-0.556L0.327,-0.557L0,-0.559Z" style="fill:rgb(205,152,99);fill-rule:nonzero;"/>
                    </g>
                    <g transform="matrix(1,0,0,1,3320.75,332.646)">
                        <path d="M0,-54.853L0.1,-57.151L-1.688,-57.13L-4.527,-55.357L-7.661,-49.776L-12.183,-38.291L-15.415,-26.693L-12.847,-15.406L-9.096,-5.351L-10.471,-1.388L-10.598,-0.207L-10.631,0.1L-10.668,0.45L-10.811,1.785L-10.29,1.853L-10.229,1.678L-10.112,1.876L-8.834,2.044L-8.68,2.064L-8.351,2.073L-8.255,2.076L-8.182,2.078L-7.879,2.086L-7.805,2.088L-6.594,2.122L-5.642,2.148L-5.522,2.151L-5.307,2.157L-5.131,2.162L-4.848,2.17L-3.816,2.175L-2.76,2.18L-2.692,2.057L-2.578,2.181L-2.091,2.183L-1.553,2.186L-0.925,2.155L-0.557,2.138L-0.31,2.205L-0.158,2.245L-0.149,2.248L-0.102,2.298L0.074,1.815L-0.407,0.367L-0.454,0.228L-0.898,-0.349L-3.215,-3.356L-3.713,-4.41L-4.105,-5.241L-4.136,-5.305L-4.293,-7.003L-4.346,-7.576L-4.355,-7.678L-4.389,-8.045L-5.05,-15.2L-5.385,-17.036L-7.054,-26.472L-5.05,-15.2L-6.253,-24.02L-2.194,-36.099L0.553,-43.194L0.879,-44.035L1.16,-43.568L1.749,-42.872L2.574,-43.611L1.068,-50.408L0,-54.853Z" style="fill:rgb(205,152,99);fill-rule:nonzero;"/>
                    </g>
                    <g transform="matrix(1,0,0,1,3367.11,277.804)">
                        <path d="M0,56.55L-1.548,51.304L-1.548,51.303L0,56.55ZM-0.654,56.253L-0.821,55.328L-0.654,56.253L-0.164,56.476L-0.654,56.253ZM9.777,32.466L7.056,18.33L1.361,4.951L-2.117,-0.762L-4.885,-2.644L-5.332,-2.461L-6.375,1.434L-6.828,3.44L-7.377,8.683L-7.825,11.357L-6.969,11.462L-6.367,11.536L-5.996,11.582L-2.959,18.476L0.848,32.231L-1.654,40.953L-4.304,49.309L-5.326,51.199L-5.33,51.204L-6.332,52.372L-6.997,53.147L-8.272,54.633L-8.298,54.699L-8.416,54.998L-8.317,54.988L-8.207,54.977L-7.925,54.948L-7.484,54.904L-5.852,54.7L-5.13,54.611L-4.477,54.529L-3.68,54.43L-3.455,54.378L-2.607,54.182L-1.901,54.019L-1.091,53.832L-0.854,53.778L-0.796,53.904L-0.761,54.628L-0.796,53.904L-0.854,53.778L-0.818,54.52L-0.743,54.989L-0.877,55.02L-2.066,55.295L-3.105,55.534L-3.412,55.606L-3.57,55.642L-4.815,55.797L-5.06,55.828L-6.039,55.95L-6.729,56.035L-7.374,56.116L-7.926,56.172L-7.733,56.827L-7.634,57.341L-7.56,57.505L-7.414,57.834L-6.762,57.474L-5.725,58.193L-5.003,58.895L-4.059,58.768L-3.011,58.851L-2.342,59.071L-1.94,58.935L-0.646,59.013L-0.305,59.194L0.004,58.718L0.715,58.578L1.71,58.708L2.111,58.979L2.086,58.516L2.036,57.607L1.753,57.055L1.572,55.588L1.926,55.571L1.816,53.547L1.786,49.554L6.271,41.162L9.777,32.466Z" style="fill:rgb(205,152,99);fill-rule:nonzero;"/>
                    </g>
                    <g transform="matrix(1,0,0,1,3345.25,380.295)">
                        <path d="M0,-2.388L-1.485,-2.049L-1.459,-1.514L-1.413,-0.562L-1.387,-0.027L-1.173,0L-1.198,-0.534L0.075,-0.825L1.371,-0.658L1.397,-0.123L1.608,-0.172L1.582,-0.706L1.536,-1.659L1.51,-2.193L0,-2.388Z" style="fill:rgb(221,221,221);fill-rule:nonzero;"/>
                    </g>
                    <g transform="matrix(1,0,0,1,3345.53,410.662)">
                        <path d="M0,-2.669L0.019,-2.272L0.029,-2.065L0.039,-1.845L0.065,-1.314L0.091,-0.782L0.102,-0.563L0.11,-0.355L0.131,0.042L0.98,0.001L0.961,-0.397L0.951,-0.603L0.941,-0.824L0.916,-1.355L0.89,-1.885L0.879,-2.106L0.869,-2.314L0.85,-2.711L0,-2.669Z" style="fill:rgb(221,221,221);fill-rule:nonzero;"/>
                    </g>
                    <g transform="matrix(1,0,0,1,3335.39,415.382)">
                        <path d="M0,-1.107L-0.025,-1.616L-1.873,-1.527L-1.849,-1.018L-1.799,-0L-1.799,0.016L-1.775,0.509L0.074,0.42L0.049,-0.089L0,-1.107Z" style="fill:rgb(221,221,221);fill-rule:nonzero;"/>
                    </g>
                    <g transform="matrix(1,0,0,1,3333.82,361.991)">
                        <path d="M0,1.136L0.656,1.05L1.495,1.01L1.475,0.603L1.44,-0.128L-0.07,-0.323L-1.555,0.016L-1.52,0.747L-1.485,1.459L-0.935,1.259L0,1.136Z" style="fill:rgb(221,221,221);fill-rule:nonzero;"/>
                    </g>
                    <g transform="matrix(1,0,0,1,3336.32,411.106)">
                        <path d="M0,-2.669L0.019,-2.272L0.029,-2.064L0.039,-1.845L0.065,-1.314L0.09,-0.782L0.102,-0.563L0.112,-0.355L0.131,0.042L0.981,0.001L0.961,-0.396L0.952,-0.603L0.941,-0.823L0.916,-1.354L0.89,-1.885L0.879,-2.106L0.869,-2.313L0.85,-2.711L0,-2.669Z" style="fill:rgb(221,221,221);fill-rule:nonzero;"/>
                    </g>
                    <g transform="matrix(1,0,0,1,3336.28,416.959)">
                        <path d="M0,-4.152L0.039,-3.354L0.044,-3.239L0.069,-2.729L0.118,-1.711L0.142,-1.203L0.148,-1.087L0.203,0.046L0.401,0.037L0.399,0.002L0.346,-1.096L0.292,-2.23L0.237,-3.365L0.197,-4.198L0,-4.152Z" style="fill:rgb(221,221,221);fill-rule:nonzero;"/>
                    </g>
                    <g transform="matrix(1,0,0,1,3335.74,415.769)">
                        <path d="M0,-2.021L0.025,-1.513L0.075,-0.493L0.099,0.015L0.412,0L0.387,-0.508L0.339,-1.528L0.313,-2.036L0,-2.021Z" style="fill:rgb(221,221,221);fill-rule:nonzero;"/>
                    </g>
                    <g transform="matrix(1,0,0,1,3336.06,415.755)">
                        <path d="M0,-2.023L0.025,-1.514L0.073,-0.495L0.099,0.013L0.36,0.001L0.336,-0.508L0.287,-1.526L0.262,-2.036L0,-2.023Z" style="fill:rgb(221,221,221);fill-rule:nonzero;"/>
                    </g>
                    <g transform="matrix(1,0,0,1,3310.25,335.648)">
                        <path d="M0,0.041L0.693,0.132L1.161,0.193L1.595,0.25L1.755,0.272L1.822,0.28L2.031,0.286L2.245,0.292L3.128,0.316L3.343,0.322L3.892,0.337L4.323,0.349L4.727,0.36L5.452,0.38L5.653,0.386L6.042,0.387L6.607,0.39L7.061,0.393L7.389,0.394L7.718,0.396L8.447,0.399L8.51,0.4L8.948,0.402L9.016,0.474L9.59,1.087L9.843,1.356L11.292,1.286L9.974,-0.12L8.977,-0.073L8.941,-0.815L8.404,-0.818L7.917,-0.821L7.734,-0.821L6.678,-0.826L5.646,-0.831L5.364,-0.839L5.188,-0.844L4.972,-0.85L4.853,-0.853L3.901,-0.879L2.689,-0.913L2.615,-0.915L2.313,-0.923L2.239,-0.925L2.144,-0.928L1.815,-0.937L1.661,-0.957L0.383,-1.125L0.322,-1.133L0.231,-1.145L0.205,-1.148L-0.317,-1.217L-1.036,-1.312L-1.061,-1.315L-1.107,-1.183L-1.054,-0.097L-0.79,-0.063L-0.445,-0.017L-0.204,0.014L0,0.041Z" style="fill:rgb(221,221,221);fill-rule:nonzero;"/>
                    </g>
                    <g transform="matrix(1,0,0,1,3319.27,337.58)">
                        <path d="M0,-0.329L0.002,0.161L0.463,1.041L0.412,1.128L0.42,1.127L0.662,1.115L0.591,-0.357L0.567,-0.845L-0.008,-1.457L0,-0.329Z" style="fill:rgb(221,221,221);fill-rule:nonzero;"/>
                    </g>
                    <g transform="matrix(1,0,0,1,3332.39,364.319)">
                        <path d="M0,0.28L0.002,0.34L1.487,0.001L2.998,0.195L2.995,0.135L1.485,-0.06L0,0.28Z" style="fill:rgb(221,221,221);fill-rule:nonzero;"/>
                    </g>
                    <g transform="matrix(1,0,0,1,3333.91,365.152)">
                        <path d="M0,-0.209L1.51,-0.014L1.958,0.437L1.932,-0.11L1.909,-0.582L1.48,-0.637L-0.03,-0.832L-1.515,-0.493L-1.936,-0.396L-1.913,0.075L-1.896,0.452L-1.887,0.623L-1.485,0.131L0,-0.209Z" style="fill:rgb(221,221,221);fill-rule:nonzero;"/>
                    </g>
                    <g transform="matrix(1,0,0,1,3311.77,337.996)">
                        <path d="M0,-0.383L-0.065,1.096L0.157,1.085L0.434,1.071L0.36,-0.401L0.331,-0.988L0.047,-1.479L0,-0.383Z" style="fill:rgb(221,221,221);fill-rule:nonzero;"/>
                    </g>
                    <g transform="matrix(1,0,0,1,3337.46,420.028)">
                        <path d="M0,1.035L0.041,1.877L0.044,1.938L1.039,1.89L1.433,1.871L1.43,1.81L1.417,1.55L1.389,0.968L1.352,0.199L1.341,-0.029L1.34,-0.052L1.336,-0.052L0.773,-0.025L0.73,-0.903L-0.091,-0.863L-0.049,0.015L0,1.035Z" style="fill:rgb(221,221,221);fill-rule:nonzero;"/>
                    </g>
                    <g transform="matrix(1,0,0,1,3338.81,426.203)">
                        <path d="M0,-5.976L0.038,-5.206L0.066,-4.624L0.079,-4.364L0.081,-4.305L-0.313,-4.286L0.222,-3.684L0.405,0.09L0.613,0.228L0.571,-0.619L0.424,-3.694L0.396,-4.253L0.358,-5.052L0.327,-5.692L-0.01,-6.204L0,-5.976Z" style="fill:rgb(221,221,221);fill-rule:nonzero;"/>
                    </g>
                    <g transform="matrix(1,0,0,1,3338.36,419.977)">
                        <path d="M0,-0.861L-0.07,-0.857L-0.175,-0.852L-0.132,0.027L0.431,-0.001L0.434,-0.019L0.563,-0.888L0,-0.861Z" style="fill:rgb(221,221,221);fill-rule:nonzero;"/>
                    </g>
                    <g transform="matrix(0.0426961,0.999088,0.999088,-0.0426961,3336.72,347.809)">
                        <rect x="0.147" y="-0.251" width="0.115" height="0.404" style="fill:rgb(221,221,221);"/>
                    </g>
                    <g transform="matrix(1,0,0,1,3337.31,347.961)">
                        <path d="M0,-8.876L-0.708,-8.842L-0.681,-8.273L-0.658,-7.801L-0.656,-7.752L-0.644,-7.493L-0.479,-4.085L-0.644,-7.493L-0.787,-7.375L-0.765,-6.917L-0.64,-4.329L-0.618,-3.861L-0.432,-0.015L-0.427,0.103L0.032,0.081L1.139,0.027L2.247,-0.026L2.705,-0.048L2.7,-0.166L2.514,-4.012L2.492,-4.48L2.367,-7.067L2.345,-7.526L2.191,-7.63L2.355,-4.222L2.191,-7.63L2.178,-7.889L2.176,-7.938L2.153,-8.41L2.127,-8.979L1.417,-8.944L0,-8.876Z" style="fill:rgb(221,221,221);fill-rule:nonzero;"/>
                    </g>
                    <g transform="matrix(0.0423349,0.999103,0.999103,-0.0423349,3341.36,346.816)">
                        <rect x="0.92" y="-0.984" width="0.106" height="1.943" style="fill:rgb(221,221,221);"/>
                    </g>
                    <g transform="matrix(0.0507819,0.99871,0.99871,-0.0507819,3340.25,347.638)">
                        <rect x="0.145" y="-0.252" width="0.12" height="0.404" style="fill:rgb(221,221,221);"/>
                    </g>
                    <g transform="matrix(0.0507819,0.99871,0.99871,-0.0507819,3335.47,347.098)">
                        <rect x="0.912" y="-0.985" width="0.123" height="1.944" style="fill:rgb(221,221,221);"/>
                    </g>
                    <g transform="matrix(1,0,0,1,3316.82,338.433)">
                        <path d="M0,-1.064L0.065,0.409L0.351,0.395L0.654,0.382L0.128,-1.07L-0.019,-1.473L0,-1.064Z" style="fill:rgb(221,221,221);fill-rule:nonzero;"/>
                    </g>
                    <g transform="matrix(1,0,0,1,3314.16,338.465)">
                        <path d="M0,-0.967L0.074,0.505L0.221,0.499L0.667,0.476L0.151,-0.975L-0.025,-1.472L0,-0.967Z" style="fill:rgb(221,221,221);fill-rule:nonzero;"/>
                    </g>
                    <g transform="matrix(0.05547,0.99846,0.99846,-0.05547,3337.32,372.843)">
                        <path d="M0.51,-0.103L0.528,-0.103L0.109,0.539L0.091,0.538L0.51,-0.103Z" style="fill:rgb(142,142,142);fill-rule:nonzero;"/>
                    </g>
                    <g transform="matrix(1,0,0,1,3344.46,410.138)">
                        <path d="M0,-1.488L-0.191,-1.478L-0.27,-1.474L-0.26,-1.255L-0.235,-0.723L-0.209,-0.192L-0.198,0.027L0.629,-0.012L0.617,-0.233L0.61,-0.399L0.592,-0.763L0.567,-1.294L0.557,-1.515L0,-1.488Z" style="fill:rgb(142,142,142);fill-rule:nonzero;"/>
                    </g>
                    <g transform="matrix(1,0,0,1,3344.57,402.52)">
                        <path d="M0,14.06L-0.081,12.373L-0.107,11.828L-0.215,9.596L-0.294,7.961L-0.309,7.646L-0.32,7.426L-0.345,6.895L-0.371,6.364L-0.381,6.144L-0.445,4.821L-0.609,1.416L-0.731,-1.112L-1.112,-9.004L-1.257,-12.023L-1.28,-12.487L-1.286,-12.623L-1.343,-13.802L-1.388,-14.742L-1.539,-17.868L-1.85,-24.308L-2.013,-27.694L-2.016,-27.704L-2.014,-27.712L-2.478,-29.378L-3.136,-29.771L-3.311,-29.762L-3.451,-29.755L-3.79,-29.739L-4.61,-29.7L-4.921,-29.685L-5.233,-29.669L-6.052,-29.63L-6.392,-29.614L-6.532,-29.607L-6.707,-29.599L-7.324,-29.145L-7.626,-27.442L-7.623,-27.433L-7.625,-27.423L-7.462,-24.038L-7.151,-17.597L-7,-14.472L-6.955,-13.531L-6.898,-12.353L-6.892,-12.216L-6.869,-11.753L-6.724,-8.733L-6.344,-0.841L-6.221,1.687L-6.058,5.091L-5.994,6.414L-5.983,6.634L-5.958,7.165L-5.932,7.696L-5.921,7.916L-5.906,8.232L-5.827,9.866L-5.72,12.098L-5.694,12.644L-5.612,14.331L-5.533,15.965L-5.505,16.562L-5.482,17.023L-5.436,17.991L-5.405,18.631L-5.366,19.43L-5.339,19.99L-5.191,23.064L-5.15,23.911L-5.136,24.192L-5.133,24.279L-4.764,31.928L-4.453,38.368L-4.29,41.754L-3.825,43.438L-3.167,43.831L-1.381,43.745L0.404,43.659L1.021,43.205L1.322,41.483L1.159,38.098L0.849,31.657L0.421,22.794L0.108,16.292L0.079,15.694L0,14.06Z" style="fill:rgb(142,142,142);fill-rule:nonzero;"/>
                    </g>
                    <g transform="matrix(1,0,0,1,3336.48,424.9)">
                        <path d="M0,-0.113L-0.259,-0.102L-0.189,0.039L0.127,0.195L0.119,0.025L0.11,-0.146L0.029,-0.308L0,-0.113Z" style="fill:rgb(142,142,142);fill-rule:nonzero;"/>
                    </g>
                    <g transform="matrix(1,0,0,1,3338.5,410.472)">
                        <path d="M0,-1.534L-0.192,-1.524L-0.748,-1.497L-0.737,-1.278L-0.711,-0.746L-0.694,-0.383L-0.686,-0.215L-0.676,0.004L0.152,-0.035L0.141,-0.256L0.115,-0.787L0.09,-1.317L0.079,-1.538L0,-1.534Z" style="fill:rgb(142,142,142);fill-rule:nonzero;"/>
                    </g>
                    <g transform="matrix(1,0,0,1,3336.43,412.907)">
                        <path d="M0,11.694L-0.001,11.689L-0.072,11.03L-0.159,9.992L-0.258,8.585L-0.312,7.725L-0.366,6.87L-0.474,4.973L-0.583,2.912L-0.584,2.877L-0.608,2.368L-0.657,1.35L-0.682,0.841L-0.684,0.809L-0.726,-0.154L-1.112,-0.204L-1.066,0.828L-1.065,0.859L-1.04,1.368L-0.991,2.386L-0.967,2.896L-0.965,2.93L-0.857,4.991L-0.748,6.888L-0.695,7.744L-0.641,8.603L-0.542,10.01L-0.455,11.048L-0.383,11.712L-0.332,11.898L-0.207,11.892L0.051,11.88L0,11.694Z" style="fill:rgb(142,142,142);fill-rule:nonzero;"/>
                    </g>
                    <g transform="matrix(1,0,0,1,3339.21,425.34)">
                        <path d="M0,0.953L-0.694,0.492L-2.538,-0.419L-2.614,-0.415L-2.605,-0.245L-1.077,0.511L0.014,1.234L0.222,1.372L0.208,1.091L0,0.953Z" style="fill:rgb(142,142,142);fill-rule:nonzero;"/>
                    </g>
                    <g transform="matrix(1,0,0,1,3337.19,397.668)">
                        <path d="M0,-2.889L0.982,3.309L1.032,4.011L0.652,-3.881L0.507,-6.9L0.341,-6.675L0,-2.889Z" style="fill:rgb(142,142,142);fill-rule:nonzero;"/>
                    </g>
                    <g transform="matrix(1,0,0,1,3333.81,270.971)">
                        <path d="M0,-0.83L0.016,-0.679L0.02,-0.647L0.103,0.089L0.138,0.4L0.326,2.07L-0.18,-2.804L-0.194,-2.86L-0.233,-2.9L0,-0.83Z" style="fill:rgb(142,142,142);fill-rule:nonzero;"/>
                    </g>
                    <g transform="matrix(1,0,0,1,3335.03,270.913)">
                        <path d="M0,1.808L-0.112,1.332L-0.885,-0.716L-0.496,2.28L0.168,2.524L0,1.808Z" style="fill:rgb(142,142,142);fill-rule:nonzero;"/>
                    </g>
                    <g transform="matrix(1,0,0,1,3334.42,258.099)">
                        <path d="M0,3.324L4.343,2.309L9.693,2.309L14.035,3.324L16.501,3.934L17.662,1.9L18.38,-0.61L17.209,1.368L14.374,1.861L9.816,1.516L4.22,1.516L-0.338,1.861L-3.173,1.368L-4.344,-0.61L-3.627,1.9L-2.787,3.37L-2.73,3.469L-2.466,3.934L0,3.324Z" style="fill:rgb(142,142,142);fill-rule:nonzero;"/>
                    </g>
                    <g transform="matrix(-0.1541,0.988055,0.988055,0.1541,3348.11,268.836)">
                        <path d="M0.546,0.281L0.876,0.281L-0.419,0.447L-0.571,0.467L0.546,0.281Z" style="fill:rgb(142,142,142);fill-rule:nonzero;"/>
                    </g>
                    <g transform="matrix(1,0,0,1,3335.69,273.193)">
                        <path d="M0,1.227L-0.492,0.244L-1.156,0L-1.133,0.177L-0.061,1.174L0,1.227Z" style="fill:rgb(142,142,142);fill-rule:nonzero;"/>
                    </g>
                    <g transform="matrix(1,0,0,1,3349.36,273.256)">
                        <path d="M0,-11.223L-0.056,-10.913L-0.735,-7.123L-0.792,-6.81L-1.141,-4.864L-1.353,-3.68L-1.53,-2.696L-1.623,-2.174L-1.754,-1.441L-1.846,-0.934L-2.033,0.113L-1.614,-0.208L-1.101,-3.51L-1.051,-3.838L-0.887,-4.892L-0.741,-5.83L-0.672,-6.274L0.063,-11.004L0.096,-11.22L0.096,-11.223L0.021,-11.336L0,-11.223Z" style="fill:rgb(142,142,142);fill-rule:nonzero;"/>
                    </g>
                    <g transform="matrix(1,0,0,1,3335.03,272.244)">
                        <path d="M0,0.477L0.033,0.384L-0.112,0L0,0.477Z" style="fill:rgb(142,142,142);fill-rule:nonzero;"/>
                    </g>
                    <g transform="matrix(1,0,0,1,3334.56,261.921)">
                        <path d="M0,11.449L-0.022,11.273L-0.412,8.276L-0.42,8.206L-0.435,8.097L-0.454,7.949L-0.491,7.663L-0.716,5.929L-0.919,4.364L-1.113,2.873L-1.114,2.858L-1.229,1.977L-1.238,1.907L-1.284,1.554L-1.42,0.504L-1.471,0.113L-1.486,0L-1.562,0.113L-1.464,1.057L-1.444,1.251L-1.369,1.974L-1.235,3.264L-1.226,3.348L-1.087,4.684L-0.996,5.569L-0.963,5.879L-0.926,6.246L-0.419,11.121L-0.419,11.128L0,11.449Z" style="fill:rgb(142,142,142);fill-rule:nonzero;"/>
                    </g>
                    <g transform="matrix(0.793606,-0.608432,-0.608432,-0.793606,3347.62,273.4)">
                        <path d="M-0.312,0.194L-0.237,0.194L-0.214,0.203L0.572,0.921L-0.312,0.194Z" style="fill:rgb(142,142,142);fill-rule:nonzero;"/>
                    </g>
                    <g transform="matrix(1,0,0,1,3344.12,262.033)">
                        <path d="M0,-1.625L-5.35,-1.625L-9.693,-0.61L-12.158,0L-11.119,0L-11.043,-0.113L-11.028,0L-9.565,0L-9.031,-0.169L-7.464,-0.377L-5.663,-0.476L-4.117,-0.504L-1.539,-0.504L-0.287,-0.487L2.005,-0.353L2.998,-0.215L3.711,0L5.242,0L5.263,-0.113L5.339,0L6.809,0L4.343,-0.61L0,-1.625Z" style="fill:rgb(142,142,142);fill-rule:nonzero;"/>
                    </g>
                    <g transform="matrix(1,0,0,1,3347.25,273.608)">
                        <path d="M0,-0.172L-0.029,-0.112L-0.041,-0.091L-0.109,0.046L0.06,-0.218L0,-0.172Z" style="fill:rgb(142,142,142);fill-rule:nonzero;"/>
                    </g>
                    <g transform="matrix(1,0,0,1,3347.19,272.389)">
                        <path d="M0,1.04L-0.013,1.101L0.034,1.107L0.063,1.048L0.323,-0.067L0,1.04Z" style="fill:rgb(142,142,142);fill-rule:nonzero;"/>
                    </g>
                    <g transform="matrix(1,0,0,1,3348.26,271.487)">
                        <path d="M0,-1.741L-0.513,1.562L-0.202,0.191L-0.091,-0.299L-0.013,-0.648L-0.006,-0.677L0.589,-3.303L0.364,-2.996L0,-1.741Z" style="fill:rgb(142,142,142);fill-rule:nonzero;"/>
                    </g>
                    <g transform="matrix(1,0,0,1,3308.47,336.474)">
                        <path d="M0,2.774L-0.142,-0.172L-1.424,-0.11L-3.714,0.001L-3.643,1.473L-3.572,2.946L-3.194,2.928L-0.112,2.78L0,2.774Z" style="fill:rgb(142,142,142);fill-rule:nonzero;"/>
                    </g>
                    <g transform="matrix(1,0,0,1,3368.87,334.747)">
                        <path d="M0,0.113L0.283,0.664L0.333,1.573L2.157,1.485L2.086,0.012L2.015,-1.46L0.173,-1.372L-0.181,-1.355L0,0.113Z" style="fill:rgb(142,142,142);fill-rule:nonzero;"/>
                    </g>
                    <g transform="matrix(1,0,0,1,3343.98,362.223)">
                        <path d="M0,-10.702L-1.484,-10.363L-2.031,-10.238L-1.576,-0.803L-1.541,-0.072L-0.985,0L-1.02,-0.731L0.464,-1.07L1.975,-0.876L2.01,-0.144L2.556,-0.269L2.521,-1L2.158,-8.527L2.066,-10.435L1.857,-10.462L1.51,-10.507L0,-10.702Z" style="fill:rgb(142,142,142);fill-rule:nonzero;"/>
                    </g>
                    <g transform="matrix(1,0,0,1,3343.13,352.175)">
                        <path d="M0,-4.412L-0.772,-4.375L-2.714,-4.281L-3.118,-4.262L-3.577,-4.24L-4.684,-4.186L-5.792,-4.133L-6.25,-4.111L-6.654,-4.091L-8.596,-3.997L-9.368,-3.961L-10.96,-3.751L-12.112,-3.333L-12.516,-2.819L-12.474,-1.95L-11.987,-1.438L-11.4,-1.287L-11.454,-2.393L-9.969,-2.732L-8.459,-2.537L-8.369,-0.656L-7.346,0L-6.36,-0.047L-6.4,-0.879L-5.872,-1.314L-4.557,-1.547L-3.226,-1.442L-2.658,-1.059L-2.618,-0.228L-1.632,-0.276L-0.677,-1.027L-0.768,-2.908L0.716,-3.247L2.227,-3.052L2.28,-1.946L2.449,-2.008L2.849,-2.153L3.285,-2.709L3.243,-3.579L2.791,-4.052L2.104,-4.228L1.604,-4.357L0,-4.412Z" style="fill:rgb(142,142,142);fill-rule:nonzero;"/>
                    </g>
                    <g transform="matrix(1,0,0,1,3330.42,395.589)">
                        <path d="M0,0.813L-0.093,0.483L-0.132,-0.317L-0.134,-0.368L-0.159,-0.884L-5.814,-0.611L-5.816,-0.54L-2.494,-0.7L-2.125,-0.718L-0.992,-0.773L-0.968,-0.278L-0.913,0.857L-0.889,1.353L-2.023,1.408L-2.391,1.425L-3.647,1.103L-5.855,1.209L-5.863,1.565L-6.546,1.697L-0.049,1.384L-0.069,0.984L0,0.813Z" style="fill:rgb(142,142,142);fill-rule:nonzero;"/>
                    </g>
                    <g transform="matrix(1,0,0,1,3324.59,396.324)">
                        <path d="M0,-0.818L-0.028,0.431L2.04,0.332L2.179,0.368L3.435,0.69L3.804,0.673L4.937,0.618L4.913,0.122L4.859,-1.013L4.835,-1.508L3.701,-1.453L3.333,-1.435L1.98,-0.913L0,-0.818Z" style="fill:rgb(142,142,142);fill-rule:nonzero;"/>
                    </g>
                    <g transform="matrix(-0.0218289,0.999762,0.999762,0.0218289,3326.45,393.545)">
                        <path d="M1.543,-1.808L2.001,-1.808L1.863,0.169L1.311,1.51L1.543,-1.808Z" style="fill:rgb(142,142,142);fill-rule:nonzero;"/>
                    </g>
                    <g transform="matrix(0,1,1,0,3325.64,395.622)">
                        <path d="M1.133,-1.076L1.176,-1.076L1.07,1.133L1.033,0.992L1.133,-1.076Z" style="fill:rgb(142,142,142);fill-rule:nonzero;"/>
                    </g>
                    <g transform="matrix(1,0,0,1,3332.59,396.847)">
                        <path d="M0,-2.254L0.025,-1.738L0.028,-1.687L0.066,-0.887L0.006,-0.55L0.091,-0.386L0.11,0.013L0.365,0.001L0.339,-0.566L0.283,-1.7L0.256,-2.267L0,-2.254Z" style="fill:rgb(142,142,142);fill-rule:nonzero;"/>
                    </g>
                    <g transform="matrix(0.141421,0.989949,0.989949,-0.141421,3359.93,432.894)">
                        <path d="M0.489,-0.558L0.531,-0.558L0.636,0.565L0.582,0.432L0.489,-0.558Z" style="fill:rgb(142,142,142);fill-rule:nonzero;"/>
                    </g>
                    <g transform="matrix(1,0,0,1,3360.58,431.892)">
                        <path d="M0,1.552L1.256,1.875L1.624,1.857L2.758,1.802L2.734,1.307L2.679,0.173L2.655,-0.323L1.521,-0.269L1.153,-0.251L-0.199,0.271L-1.325,0.325L-1.335,0.326L-1.302,0.478L-1.274,0.652L-1.133,1.564L-0.14,1.516L0,1.552Z" style="fill:rgb(142,142,142);fill-rule:nonzero;"/>
                    </g>
                    <g transform="matrix(1,0,0,1,3361.73,433.785)">
                        <path d="M0,-2.144L0.368,-2.162L1.502,-2.217L1.526,-1.721L1.581,-0.587L1.604,-0.091L0.471,-0.036L0.103,-0.019L-1.153,-0.341L-2.28,-0.287L-2.21,0.164L2.033,-0.04L2.006,-0.607L1.951,-1.741L1.924,-2.308L-2.56,-2.092L-2.549,-2.021L0,-2.144Z" style="fill:rgb(142,142,142);fill-rule:nonzero;"/>
                    </g>
                    <g transform="matrix(0.152384,0.988321,0.988321,-0.152384,3360.43,430.645)">
                        <path d="M0.916,-1.4L1.376,-1.4L1.493,-0.279L1.184,1.138L0.916,-1.4Z" style="fill:rgb(142,142,142);fill-rule:nonzero;"/>
                    </g>
                    <g transform="matrix(1,0,0,1,3346.15,278.822)">
                        <path d="M0,-3.648L-1.156,-1.945L-1.22,-1.893L-2.701,-0.736L-3.523,-0.063L-4.025,0.349L-4.108,0.504L-3.709,0.198L-3.536,0.067L-1.214,-1.713L-1.163,-1.794L-0.343,-3.077L0.342,-4.152L0,-3.648Z" style="fill:rgb(142,142,142);fill-rule:nonzero;"/>
                    </g>
                    <g transform="matrix(1,0,0,1,3338.44,277.924)">
                        <path d="M0,0.356L-0.731,-0.342L-1.547,-1.047L-1.49,-0.814L0.296,0.73L0.72,1.096L1.073,1.403L1.052,1.361L0,0.356Z" style="fill:rgb(142,142,142);fill-rule:nonzero;"/>
                    </g>
                    <g transform="matrix(1,0,0,1,3336.79,277.41)">
                        <path d="M0,-0.769L0.1,-0.533L0.917,0.172L0.431,-0.293L0.105,-0.941L0,-0.769Z" style="fill:rgb(142,142,142);fill-rule:nonzero;"/>
                    </g>
                    <g transform="matrix(1,0,0,1,3346.41,410.046)">
                        <path d="M0,-1.49L0.011,-1.269L0.037,-0.739L0.062,-0.208L0.072,0.013L0.343,0L0.331,-0.221L0.306,-0.752L0.28,-1.283L0.27,-1.503L0,-1.49Z" style="fill:rgb(142,142,142);fill-rule:nonzero;"/>
                    </g>
                    <g transform="matrix(1,0,0,1,3345.45,409.879)">
                        <path d="M0,-1.055L0.025,-0.524L0.043,-0.16L0.052,0.006L0.175,0.001L0.148,-0.53L0.123,-1.061L0,-1.055Z" style="fill:rgb(142,142,142);fill-rule:nonzero;"/>
                    </g>
                    <g transform="matrix(1,0,0,1,3337.21,410.277)">
                        <path d="M0,-1.056L0.025,-0.525L0.051,0.006L0.174,0L0.166,-0.167L0.148,-0.531L0.122,-1.062L0,-1.056Z" style="fill:rgb(142,142,142);fill-rule:nonzero;"/>
                    </g>
                    <g transform="matrix(0.0475651,0.998868,0.998868,-0.0475651,3349.31,432.381)">
                        <path d="M-0.212,-0.339L0.356,-0.339L0.355,-0.282L-0.211,-0.195L-0.212,-0.339Z" style="fill:rgb(142,142,142);fill-rule:nonzero;"/>
                    </g>
                    <g transform="matrix(1,0,0,1,3355.36,335.311)">
                        <path d="M0,-2.222L-0.395,-2.073L-0.499,-1.938L-0.702,-1.674L-1.193,-1.037L-1.141,0.048L0.035,-1.479L1.032,-1.527L0.996,-2.27L0.061,-2.225L0,-2.222Z" style="fill:rgb(142,142,142);fill-rule:nonzero;"/>
                    </g>
                    <g transform="matrix(1,0,0,1,3355.89,336.263)">
                        <path d="M0,-1.267L-0.225,-0.975L-1.675,-0.905L-1.727,-1.99L-1.236,-2.627L-1.582,-2.611L-1.995,-2.59L-2.008,-2.855L-2.382,-2.837L-3.79,-2.769L-4.199,-2.749L-4.166,-2.043L-4.095,-0.58L-4.094,-0.573L-4.034,0.681L-4.023,0.909L-4.022,0.919L-3.99,1.588L-3.408,1.56L-2.03,1.494L-1.799,1.483L-1.812,1.218L-1.843,0.576L-1.904,-0.686L-1.843,0.576L-1.812,1.218L-0.779,1.168L0.115,1.125L0.095,0.694L0.024,-0.779L0,-1.267Z" style="fill:rgb(142,142,142);fill-rule:nonzero;"/>
                    </g>
                    <g transform="matrix(1,0,0,1,3333.75,353.106)">
                        <path d="M0,8.562L1.51,8.757L1.545,9.488L2.092,9.363L2.056,8.632L1.602,-0.803L1.046,-0.875L-0.465,-1.07L-1.949,-0.731L-2.495,-0.605L-2.041,8.83L-2.005,9.56L-1.449,9.632L-1.485,8.901L0,8.562Z" style="fill:rgb(142,142,142);fill-rule:nonzero;"/>
                    </g>
                    <g transform="matrix(1,0,0,1,3336.08,410.545)">
                        <path d="M0,-1.49L0.011,-1.269L0.037,-0.739L0.062,-0.208L0.074,0.013L0.343,-0.001L0.331,-0.221L0.306,-0.752L0.28,-1.283L0.27,-1.503L0,-1.49Z" style="fill:rgb(142,142,142);fill-rule:nonzero;"/>
                    </g>
                    <g transform="matrix(1,0,0,1,3336.88,339.87)">
                        <path d="M0,8.076L-0.186,4.231L-0.208,3.763L-2.167,3.857L-0.208,3.763L-0.333,1.175L-0.355,0.716L-0.232,0.345L-0.224,0.339L-0.226,0.29L-0.249,-0.182L-0.93,-0.149L-2.021,-0.097L-2.892,0.159L-4.71,0.692L-7.488,0.826L-4.71,0.692L-2.892,0.159L-4.051,0.215L-6.335,0.373L-7.502,0.53L-8.673,1.022L-9.223,1.909L-9.207,2.252L-8.836,5.941L-3.776,8.258L-2.942,8.218L-2.346,8.189L-0.404,8.096L0,8.076Z" style="fill:rgb(142,142,142);fill-rule:nonzero;"/>
                    </g>
                    <g transform="matrix(-0.316228,0.948683,0.948683,0.316228,3336.75,340.506)">
                        <path d="M-0.243,-0.191L0.149,-0.191L-0.01,-0.093L-0.251,-0.185L-0.243,-0.191Z" style="fill:rgb(142,142,142);fill-rule:nonzero;"/>
                    </g>
                    <g transform="matrix(1,0,0,1,3337.58,405.422)">
                        <path d="M0,0.085L0.203,0.156L0.565,0.143L0.636,0.156L0.565,0.131L-0.008,-0.071L0,0.085Z" style="fill:rgb(142,142,142);fill-rule:nonzero;"/>
                    </g>
                    <g transform="matrix(1,0,0,1,3321.79,337.222)">
                        <path d="M0,-0.093L-0.092,-1.997L-0.851,-1.96L-0.301,-1.374L-0.249,-0.288L-1.698,-0.218L-1.951,-0.488L-1.927,0L-1.856,1.473L-1.835,1.904L0.092,1.812L0.061,1.169L0,-0.093Z" style="fill:rgb(142,142,142);fill-rule:nonzero;"/>
                    </g>
                    <g transform="matrix(1,0,0,1,3323.02,334.909)">
                        <path d="M0,4.335L0.055,4.332L0.512,4.31L1.067,4.283L1.052,3.97L1.035,3.614L1.034,3.604L1.024,3.376L0.963,2.122L0.963,2.115L0.893,0.652L0.858,-0.054L-1.333,0.051L-1.32,0.316L-1.228,2.22L-1.167,3.482L-1.136,4.125L-1.124,4.389L-0.199,4.345L-0.107,4.34L0,4.335Z" style="fill:rgb(142,142,142);fill-rule:nonzero;"/>
                    </g>
                    <g transform="matrix(1,0,0,1,3320.23,336.191)">
                        <path d="M0,-0.664L1.318,0.743L1.265,-0.342L0.716,-0.929L0.568,-1.087L0.513,-1.146L0.418,-1.247L0.371,-1.297L0.363,-1.299L0.211,-1.341L-0.036,-1.407L-0.404,-1.389L-1.033,-1.359L-0.997,-0.616L0,-0.664Z" style="fill:rgb(142,142,142);fill-rule:nonzero;"/>
                    </g>
                    <g transform="matrix(1,0,0,1,3334.01,338.867)">
                        <path d="M0,-3.326L0.009,-3.131L0.08,-1.66L0.082,-1.621L0.152,-0.179L0.152,-0.168L0.178,0.369L2.588,0.253L3.296,0.218L4.713,0.15L5.423,0.116L7.831,-0.001L7.805,-0.537L7.805,-0.547L7.735,-1.989L7.733,-2.029L7.663,-3.499L7.653,-3.695L0,-3.326Z" style="fill:rgb(142,142,142);fill-rule:nonzero;"/>
                    </g>
                    <g transform="matrix(1,0,0,1,3344.96,374.023)">
                        <path d="M0,-2.118L-1.484,-1.778L-1.704,-1.5L-2.017,-1.102L-1.982,-0.367L-1.631,0L-1.412,-0.278L0.072,-0.618L1.583,-0.423L1.827,-0.167L2.141,-0.565L2.105,-1.301L1.755,-1.667L1.51,-1.923L0,-2.118Z" style="fill:rgb(142,142,142);fill-rule:nonzero;"/>
                    </g>
                    <g transform="matrix(1,0,0,1,3334.06,370.038)">
                        <path d="M0,-2.118L-1.485,-1.779L-1.704,-1.501L-2.018,-1.102L-1.982,-0.367L-1.632,0L-1.413,-0.278L0.072,-0.618L1.582,-0.423L1.827,-0.167L2.141,-0.565L2.105,-1.301L1.755,-1.667L1.51,-1.923L0,-2.118Z" style="fill:rgb(142,142,142);fill-rule:nonzero;"/>
                    </g>
                    <g transform="matrix(1,0,0,1,3345.18,378.78)">
                        <path d="M0,-2.374L-1.484,-2.035L-1.703,-1.756L-2.017,-1.358L-1.981,-0.623L-1.386,0L-1.412,-0.534L0.073,-0.874L1.583,-0.678L1.608,-0.145L2.141,-0.821L2.106,-1.557L1.755,-1.923L1.51,-2.179L0,-2.374Z" style="fill:rgb(142,142,142);fill-rule:nonzero;"/>
                    </g>
                    <g transform="matrix(1,0,0,1,3333.98,368.538)">
                        <path d="M0,-2.118L-1.484,-1.779L-1.703,-1.501L-2.017,-1.102L-1.981,-0.367L-1.631,0L-1.412,-0.278L0.073,-0.618L1.583,-0.423L1.828,-0.167L2.141,-0.565L2.106,-1.301L1.755,-1.667L1.51,-1.923L0,-2.118Z" style="fill:rgb(142,142,142);fill-rule:nonzero;"/>
                    </g>
                    <g transform="matrix(1,0,0,1,3336.02,366.244)">
                        <path d="M0,-0.508L-0.146,-0.655L-0.594,-1.106L-2.104,-1.301L-3.589,-0.962L-3.991,-0.47L-4.123,-0.309L-4.087,0.427L-3.737,0.793L-3.518,0.515L-2.033,0.175L-0.523,0.37L-0.278,0.626L-0.09,0.388L0.036,0.228L0,-0.508Z" style="fill:rgb(142,142,142);fill-rule:nonzero;"/>
                    </g>
                    <g transform="matrix(1,0,0,1,3334.13,371.538)">
                        <path d="M0,-2.118L-1.485,-1.779L-1.704,-1.501L-2.017,-1.102L-1.982,-0.367L-1.631,0L-1.412,-0.278L0.072,-0.618L1.583,-0.423L1.827,-0.167L2.141,-0.565L2.106,-1.301L1.755,-1.667L1.51,-1.923L0,-2.118Z" style="fill:rgb(142,142,142);fill-rule:nonzero;"/>
                    </g>
                    <g transform="matrix(1,0,0,1,3334.42,377.539)">
                        <path d="M0,-2.118L-1.485,-1.779L-1.704,-1.501L-2.017,-1.102L-1.982,-0.367L-1.631,0L-1.413,-0.279L0.072,-0.618L1.582,-0.423L1.827,-0.167L2.141,-0.565L2.105,-1.301L1.755,-1.667L1.51,-1.923L0,-2.118Z" style="fill:rgb(142,142,142);fill-rule:nonzero;"/>
                    </g>
                    <g transform="matrix(1,0,0,1,3334.35,376.039)">
                        <path d="M0,-2.118L-1.484,-1.779L-1.704,-1.5L-2.017,-1.102L-1.981,-0.367L-1.631,0L-1.412,-0.279L0.073,-0.618L1.583,-0.423L1.828,-0.167L2.141,-0.565L2.105,-1.301L1.755,-1.667L1.51,-1.923L0,-2.118Z" style="fill:rgb(142,142,142);fill-rule:nonzero;"/>
                    </g>
                    <g transform="matrix(1,0,0,1,3345.1,377.024)">
                        <path d="M0,-2.118L-1.484,-1.779L-1.704,-1.5L-2.017,-1.102L-1.982,-0.367L-1.631,0L-1.412,-0.278L0.072,-0.618L1.583,-0.423L1.827,-0.167L2.141,-0.565L2.105,-1.301L1.755,-1.667L1.51,-1.923L0,-2.118Z" style="fill:rgb(142,142,142);fill-rule:nonzero;"/>
                    </g>
                    <g transform="matrix(1,0,0,1,3344.67,368.022)">
                        <path d="M0,-2.118L-1.484,-1.779L-1.704,-1.5L-2.017,-1.102L-1.982,-0.366L-1.631,0L-1.412,-0.278L0.072,-0.618L1.583,-0.422L1.827,-0.167L2.141,-0.565L2.105,-1.301L1.755,-1.667L1.51,-1.923L0,-2.118Z" style="fill:rgb(142,142,142);fill-rule:nonzero;"/>
                    </g>
                    <g transform="matrix(1,0,0,1,3334.49,379.296)">
                        <path d="M0,-2.374L-1.485,-2.035L-1.704,-1.757L-2.017,-1.358L-1.982,-0.623L-1.386,0L-1.412,-0.534L0.072,-0.874L1.582,-0.679L1.608,-0.145L2.141,-0.821L2.105,-1.557L1.755,-1.923L1.51,-2.179L0,-2.374Z" style="fill:rgb(142,142,142);fill-rule:nonzero;"/>
                    </g>
                    <g transform="matrix(1,0,0,1,3344.6,366.522)">
                        <path d="M0,-2.094L-1.484,-1.755L-1.887,-1.262L-2.018,-1.102L-1.983,-0.366L-1.843,-0.219L-1.632,0L-1.413,-0.278L0.071,-0.618L1.582,-0.422L1.826,-0.167L2.14,-0.565L2.104,-1.301L1.958,-1.448L1.51,-1.899L0,-2.094Z" style="fill:rgb(142,142,142);fill-rule:nonzero;"/>
                    </g>
                    <g transform="matrix(1,0,0,1,3334.27,374.539)">
                        <path d="M0,-2.118L-1.484,-1.779L-1.704,-1.5L-2.017,-1.102L-1.982,-0.367L-1.631,0L-1.412,-0.278L0.072,-0.618L1.583,-0.423L1.827,-0.167L2.141,-0.565L2.105,-1.301L1.755,-1.667L1.51,-1.923L0,-2.118Z" style="fill:rgb(142,142,142);fill-rule:nonzero;"/>
                    </g>
                    <g transform="matrix(1,0,0,1,3334.2,373.038)">
                        <path d="M0,-2.118L-1.484,-1.779L-1.704,-1.5L-2.017,-1.102L-1.982,-0.367L-1.631,0L-1.412,-0.278L0.072,-0.618L1.583,-0.422L1.827,-0.167L2.141,-0.565L2.105,-1.301L1.755,-1.667L1.51,-1.923L0,-2.118Z" style="fill:rgb(142,142,142);fill-rule:nonzero;"/>
                    </g>
                    <g transform="matrix(1,0,0,1,3345.03,375.524)">
                        <path d="M0,-2.118L-1.484,-1.779L-1.704,-1.5L-2.017,-1.102L-1.982,-0.366L-1.631,0L-1.412,-0.278L0.072,-0.618L1.583,-0.423L1.827,-0.167L2.141,-0.565L2.105,-1.301L1.755,-1.667L1.51,-1.923L0,-2.118Z" style="fill:rgb(142,142,142);fill-rule:nonzero;"/>
                    </g>
                    <g transform="matrix(1,0,0,1,3344.89,372.523)">
                        <path d="M0,-2.118L-1.485,-1.779L-1.704,-1.5L-2.017,-1.102L-1.982,-0.366L-1.631,0L-1.412,-0.278L0.072,-0.618L1.583,-0.423L1.827,-0.167L2.141,-0.565L2.105,-1.301L1.755,-1.667L1.51,-1.923L0,-2.118Z" style="fill:rgb(142,142,142);fill-rule:nonzero;"/>
                    </g>
                    <g transform="matrix(1,0,0,1,3344.74,369.523)">
                        <path d="M0,-2.118L-1.484,-1.779L-1.703,-1.5L-2.017,-1.102L-1.981,-0.366L-1.631,0L-1.412,-0.279L0.073,-0.618L1.583,-0.423L1.828,-0.167L2.141,-0.565L2.106,-1.301L1.755,-1.667L1.51,-1.923L0,-2.118Z" style="fill:rgb(142,142,142);fill-rule:nonzero;"/>
                    </g>
                    <g transform="matrix(1,0,0,1,3344.81,371.023)">
                        <path d="M0,-2.118L-1.485,-1.779L-1.704,-1.5L-2.017,-1.102L-1.982,-0.366L-1.631,0L-1.412,-0.278L0.072,-0.618L1.583,-0.423L1.827,-0.167L2.141,-0.565L2.105,-1.301L1.755,-1.667L1.51,-1.923L0,-2.118Z" style="fill:rgb(142,142,142);fill-rule:nonzero;"/>
                    </g>
                    <g transform="matrix(1,0,0,1,3344.51,366.978)">
                        <path d="M0,-4.366L-0.662,-4.389L-1.5,-4.348L-3.475,-4.253L-4.023,-4.227L-5.346,-4.163L-6.668,-4.099L-7.216,-4.073L-9.191,-3.978L-10.03,-3.937L-10.686,-3.851L-11.621,-3.728L-12.171,-3.529L-12.773,-3.31L-13.178,-2.796L-13.136,-1.926L-12.649,-1.415L-12.494,-1.375L-12.511,-1.751L-12.534,-2.223L-12.113,-2.319L-12.116,-2.379L-10.631,-2.719L-9.121,-2.523L-9.118,-2.464L-8.689,-2.408L-8.667,-1.937L-8.64,-1.389L-8.494,-1.242L-8.458,-0.506L-8.584,-0.346L-8.008,0.023L-6.761,-0.037L-6.621,-0.043L-6.281,-0.06L-5.462,-0.099L-4.839,-0.129L-4.02,-0.169L-3.68,-0.185L-3.539,-0.192L-2.293,-0.252L-1.755,-0.676L-1.895,-0.823L-1.931,-1.558L-1.8,-1.719L-1.826,-2.266L-1.848,-2.738L-1.427,-2.835L-1.43,-2.894L0.055,-3.234L1.565,-3.039L1.568,-2.979L1.997,-2.924L2.019,-2.452L2.038,-2.075L2.188,-2.13L2.624,-2.686L2.582,-3.555L2.13,-4.029L1.51,-4.188L0.943,-4.334L0,-4.366Z" style="fill:rgb(142,142,142);fill-rule:nonzero;"/>
                    </g>
                    <g transform="matrix(1,0,0,1,3342.13,339.791)">
                        <path d="M0,-0.154L1.056,0.048L0.989,-0.202L0,-0.154Z" style="fill:rgb(142,142,142);fill-rule:nonzero;"/>
                    </g>
                    <g transform="matrix(0.828724,0.559658,0.559658,-0.828724,3339.47,340.279)">
                        <path d="M0.055,-0.026L0.241,-0.026L-0.091,0.182L-0.1,0.181L0.055,-0.026Z" style="fill:rgb(142,142,142);fill-rule:nonzero;"/>
                    </g>
                    <g transform="matrix(1,0,0,1,3341.24,347.795)">
                        <path d="M0,-8.329L-1.091,-8.277L-1.771,-8.243L-1.749,-7.771L-1.746,-7.722L-1.738,-7.717L-1.58,-7.36L-1.558,-6.901L-1.433,-4.313L0.526,-4.408L-1.433,-4.313L-1.41,-3.845L-1.225,0L-0.821,-0.019L1.121,-0.113L1.718,-0.141L2.551,-0.182L3.835,-0.926L3.811,-1.08L3.784,-1.178L3.552,-2.033L3.205,-3.314L2.216,-6.966L2.005,-7.746L1.948,-7.956L0.892,-8.158L0,-8.329Z" style="fill:rgb(142,142,142);fill-rule:nonzero;"/>
                    </g>
                    <g transform="matrix(1,0,0,1,3336.67,274.445)">
                        <path d="M0,1.988L-0.714,0.226L-0.966,0L0,1.988Z" style="fill:rgb(142,142,142);fill-rule:nonzero;"/>
                    </g>
                    <g transform="matrix(1,0,0,1,3333.45,263.898)">
                        <path d="M0,0.88L-0.057,0.115L-0.103,0L0,0.88Z" style="fill:rgb(142,142,142);fill-rule:nonzero;"/>
                    </g>
                    <g transform="matrix(1,0,0,1,3348.39,278.122)">
                        <path d="M0,-15.066L0.072,-16.088L-0.568,-16.088L-1.281,-16.303L-2.273,-16.441L-4.565,-16.575L-5.817,-16.592L-8.396,-16.592L-9.941,-16.565L-11.742,-16.465L-13.31,-16.258L-13.843,-16.088L-14.467,-16.088L-14.514,-15.627L-14.754,-11.837L-14.551,-10.272L-14.326,-8.538L-14.289,-8.253L-14.27,-8.105L-14.255,-7.995L-14.247,-7.924L-13.473,-5.877L-13.328,-5.492L-13.029,-4.699L-12.756,-4.156L-11.501,-1.654L-11.175,-1.005L-10.69,-0.54L-9.959,0.158L-8.907,1.163L-8.862,1.205L-8.791,1.272L-9.087,0.775L-8.791,1.272L-8.26,1.484L-7.185,1.526L-6.64,1.357L-6.64,1.356L-6.457,1.205L-6.442,1.194L-6.266,1.05L-5.764,0.638L-4.942,-0.036L-4.093,-0.734L-3.574,-1.393L-2.202,-3.145L-1.627,-3.878L-1.353,-4.308L-1.288,-4.41L-1.25,-4.541L-1.221,-4.639L-1.206,-4.692L-0.882,-5.799L-0.79,-6.307L-0.659,-7.04L-0.565,-7.562L-0.507,-7.889L-0.389,-8.545L-0.177,-9.73L0.173,-11.675L0,-15.066Z" style="fill:rgb(205,152,99);fill-rule:nonzero;"/>
                    </g>
                </g>
            </g>
        </g>
    </g>
</svg>
