<?xml version="1.0" encoding="UTF-8" standalone="no"?>
<!DOCTYPE svg PUBLIC "-//W3C//DTD SVG 1.1//EN" "http://www.w3.org/Graphics/SVG/1.1/DTD/svg11.dtd">
<svg width="100%" height="100%" viewBox="0 0 420 180" version="1.1" xmlns="http://www.w3.org/2000/svg" xmlns:xlink="http://www.w3.org/1999/xlink" xml:space="preserve" xmlns:serif="http://www.serif.com/" style="fill-rule:evenodd;clip-rule:evenodd;stroke-linejoin:round;stroke-miterlimit:2;">
    <g transform="matrix(1,0,0,1,-1004.06,-353.131)">
        <g id="car-angled-front-right">
            <g>
                <g transform="matrix(1,0,0,1,1067.09,505.992)">
                    <path d="M0,-35.574L-5.034,-35.574L-12.605,-33.671L-16.793,-30.244L-19.247,-28.256L-23.223,-21.573L-24.196,-19.923L-24.703,-18.992L-26.818,-10.744L-27.157,-9.39L-27.157,0.846L-26.818,2.2L-28.468,2.2L-30.245,-2.876L-31.217,-10.744L-29.06,-21.573L-23.688,-30.244L-16.582,-35.87L-8.545,-37.774L-0.465,-35.87L-0.381,-35.828L0,-35.574Z" style="fill:rgb(85,88,90);fill-rule:nonzero;"/>
                </g>
                <g transform="matrix(1,0,0,1,1022.94,456.646)">
                    <path d="M0,0.644L0.122,0.652L0.88,-0.008L0,0.644Z" style="fill:rgb(106,102,103);fill-rule:nonzero;"/>
                </g>
                <g transform="matrix(1,0,0,1,1035.43,431.094)">
                    <path d="M0,-5.483L0.063,-6.007L-3.591,0.524L0,-5.483Z" style="fill:rgb(239,163,194);fill-rule:nonzero;"/>
                </g>
                <g transform="matrix(1,0,0,1,1023.69,453.152)">
                    <path d="M0,3.477L0.131,3.486L1.062,3.502L2.513,0.063L0.068,-0.025L0,3.477Z" style="fill:rgb(239,163,194);fill-rule:nonzero;"/>
                </g>
                <g transform="matrix(1,0,0,1,1406.93,514.622)">
                    <path d="M0,-6.134L-1.819,-5.415L-6.979,-3.807L-14.17,-1.947L-24.619,-1.947L-25.126,-1.904L-28.172,-1.819L-65.734,-0.381L-75.929,0L-126.096,0L-125.673,-1.608L-125.589,-1.947L-126.942,-1.947L-118.736,-3.807L-107.527,-5.415L-97.205,-6.134L0,-6.134Z" style="fill:rgb(85,88,90);fill-rule:nonzero;"/>
                </g>
                <g transform="matrix(1,0,0,1,1260.11,509.588)">
                    <path d="M0,-39.17L-9.179,-39.17L-16.751,-37.267L-18.273,-36.04L-23.434,-31.852L-26.48,-26.734L-28.341,-23.519L-28.848,-22.588L-30.71,-15.228L-31.302,-12.986L-31.302,-2.75L-31.175,-2.2L-29.314,5.034L-33.671,5.034L-35.49,-2.2L-36.928,-15.228L-34.052,-26.734L-28.595,-36.04L-21.108,-42.089L-12.521,-44.204L-9.179,-43.4L-9.137,-43.4L-8.925,-43.358L-8.714,-43.273L-8.672,-43.273L-8.206,-43.189L-7.952,-43.104L-3.807,-42.089L0,-39.17Z" style="fill:rgb(85,88,90);fill-rule:nonzero;"/>
                </g>
                <g transform="matrix(0.666638,0.745381,0.745381,-0.666638,1397.04,455.583)">
                    <path d="M-1.308,-2.925L6.54,-2.925L1.266,-3.632L-0.714,-3.009L-1.308,-2.925Z" style="fill:rgb(106,102,103);fill-rule:nonzero;"/>
                </g>
                <g transform="matrix(1,0,0,1,1388.45,500.63)">
                    <path d="M0,-8.718L8.803,-8.739L10.418,-7.018L10.799,-2.288L10.596,-1.214L9.513,-0.064L-0.673,0.021L-0.63,-0.504L9.416,-0.698L10.253,-1.586L10.435,-2.564L10.093,-6.721L8.887,-8.041L-0.051,-8.041L0,-8.718Z" style="fill:rgb(106,102,103);fill-rule:nonzero;"/>
                </g>
                <g transform="matrix(0.999996,0.00268331,0.00268331,-0.999996,1367.27,500.569)">
                    <rect x="0.001" y="-0.028" width="20.539" height="0.525" style="fill:rgb(106,102,103);"/>
                </g>
                <g transform="matrix(1,0,0,1,1367.31,500.064)">
                    <path d="M0,0.042L20.502,0.063L19.835,-0.021L0,0.042Z" style="fill:rgb(106,102,103);fill-rule:nonzero;"/>
                </g>
                <g transform="matrix(-0.0797452,0.996815,0.996815,0.0797452,1356.66,488.636)">
                    <path d="M12.49,-12.035L13.017,-12.035L11.076,11.532L10.584,11.531L12.49,-12.035Z" style="fill:rgb(106,102,103);fill-rule:nonzero;"/>
                </g>
                <g transform="matrix(0.992209,0.124582,0.124582,-0.992209,1397.15,499.751)">
                    <path d="M0.056,-0.091L0.73,-0.091L1.45,0.894L0.777,0.897L0.056,-0.091Z" style="fill:rgb(106,102,103);fill-rule:nonzero;"/>
                </g>
                <g transform="matrix(1,0,0,1,1395.64,498.524)">
                    <path d="M0,1.315L-0.838,1.21L-1.654,0L-1.045,0L-0.876,0.021L0,1.315Z" style="fill:rgb(106,102,103);fill-rule:nonzero;"/>
                </g>
                <g transform="matrix(1,0,0,1,1395.64,492.762)">
                    <path d="M0,7.077L-0.876,5.783L-1.079,3.63L-0.541,1.447L0.537,0.059L1.743,0L2.479,1.096L2.618,1.295L2.821,3.448L2.525,4.658L2.284,5.635L1.206,7.018L0,7.077ZM2.584,3.456L2.403,1.574L1.637,0.436L1.485,0.445L0.579,0.487L-0.368,1.705L-0.842,3.621L-0.66,5.508L0.089,6.612L0.106,6.641L1.163,6.591L2.111,5.377L2.584,3.456Z" style="fill:rgb(106,102,103);fill-rule:nonzero;"/>
                </g>
                <g transform="matrix(1,0,0,1,1394.77,496.37)">
                    <path d="M0,2.174L-0.169,2.153L-0.233,1.502L-0.897,1.421L-1.011,0.266L-0.351,0.266L-0.376,0L-0.203,0.021L0,2.174Z" style="fill:rgb(106,102,103);fill-rule:nonzero;"/>
                </g>
                <g transform="matrix(0.992163,0.12495,0.12495,-0.992163,1387.18,499.372)">
                    <path d="M0.049,-0.669L0.721,-0.669L10.665,0.779L9.991,0.779L0.049,-0.669Z" style="fill:rgb(106,102,103);fill-rule:nonzero;"/>
                </g>
                <g transform="matrix(0.99165,0.128959,0.128959,-0.99165,1397.98,498.899)">
                    <rect x="0.061" y="-0.051" width="0.728" height="0.994" style="fill:rgb(106,102,103);"/>
                </g>
                <g transform="matrix(1,0,0,1,1398.26,497.867)">
                    <path d="M0,-3.812L0.205,-1.658L-0.093,-0.447L-0.046,0.114L0.622,0.198L0.281,-3.959L-0.139,-4.01L0,-3.812Z" style="fill:rgb(106,102,103);fill-rule:nonzero;"/>
                </g>
                <g transform="matrix(1,0,0,1,1388.13,496.638)">
                    <path d="M0,-0.652L-0.051,0L6.286,0L6.261,-0.268L6.354,-0.652L0,-0.652Z" style="fill:rgb(106,102,103);fill-rule:nonzero;"/>
                </g>
                <g transform="matrix(-0.0785816,0.996908,0.996908,0.0785816,1388.39,496.328)">
                    <rect x="-0.311" y="-0.355" width="0.644" height="0.068" style="fill:rgb(106,102,103);"/>
                </g>
                <g transform="matrix(1,0,0,1,1394.39,494.208)">
                    <path d="M0,2.162L0.093,1.777L-0.571,1.697L-0.283,0.537L0.402,0.537L0.537,-0.021L0.711,0L0.173,2.183L0,2.162Z" style="fill:rgb(106,102,103);fill-rule:nonzero;"/>
                </g>
                <g transform="matrix(0.992841,0.11944,0.11944,-0.992841,1387.49,495.487)">
                    <path d="M0.02,-0.419L0.69,-0.419L6.998,0.339L6.329,0.34L0.02,-0.419Z" style="fill:rgb(106,102,103);fill-rule:nonzero;"/>
                </g>
                <g transform="matrix(1,0,0,1,1367.9,491.917)">
                    <path d="M0,0.618L19.82,0.668L20.497,0.673L20.548,-0.005L0.051,-0.055L0,0.618Z" style="fill:rgb(106,102,103);fill-rule:nonzero;"/>
                </g>
                <g transform="matrix(1,0,0,1,1344.3,492.538)">
                    <path d="M0,-0.626L-0.051,0.051L23.029,0L23.596,-0.003L23.647,-0.677L0,-0.626Z" style="fill:rgb(106,102,103);fill-rule:nonzero;"/>
                </g>
                <g transform="matrix(1,0,0,1,1395.1,492.716)">
                    <path d="M0,1.493L-0.173,1.472L-0.106,1.383L-0.77,1.303L0.241,0L1.079,0.105L0,1.493Z" style="fill:rgb(106,102,103);fill-rule:nonzero;"/>
                </g>
                <g transform="matrix(0.992461,0.122563,0.122563,-0.992461,1387.64,493.566)">
                    <path d="M0.023,-0.453L0.692,-0.453L7.362,0.371L6.693,0.371L0.023,-0.453Z" style="fill:rgb(106,102,103);fill-rule:nonzero;"/>
                </g>
                <g transform="matrix(1,0,0,1,1395.34,492.766)">
                    <path d="M0,-0.05L0.837,0.055L2.042,-0.004L1.502,-0.067L1.204,-0.105L0,-0.05Z" style="fill:rgb(106,102,103);fill-rule:nonzero;"/>
                </g>
                <g transform="matrix(1,0,0,1,1396.84,493.798)">
                    <path d="M0,-1.1L-0.101,-1.21L0.491,-1.21L1.696,0.11L1.277,0.059L0.542,-1.037L0,-1.1Z" style="fill:rgb(106,102,103);fill-rule:nonzero;"/>
                </g>
                <g transform="matrix(1,0,0,1,1388.27,494.746)">
                    <path d="M0,-0.646L-0.046,0L6.518,0L6.653,-0.557L6.721,-0.646L0,-0.646Z" style="fill:rgb(106,102,103);fill-rule:nonzero;"/>
                </g>
                <g transform="matrix(0.988975,0.148082,0.148082,-0.988975,1367.34,492.464)">
                    <path d="M0.109,-1.555L0.677,-1.555L20.88,1.471L20.277,1.465L0.109,-1.555Z" style="fill:rgb(106,102,103);fill-rule:nonzero;"/>
                </g>
                <g transform="matrix(0.989052,0.147567,0.147567,-0.989052,1367.04,496.243)">
                    <path d="M0.109,-1.549L0.678,-1.549L20.884,1.465L20.283,1.461L0.109,-1.549Z" style="fill:rgb(106,102,103);fill-rule:nonzero;"/>
                </g>
                <g transform="matrix(0.992663,0.120911,0.120911,-0.992663,1387.35,497.356)">
                    <path d="M0.022,-0.436L0.691,-0.436L7.19,0.355L6.522,0.355L0.022,-0.436Z" style="fill:rgb(106,102,103);fill-rule:nonzero;"/>
                </g>
                <g transform="matrix(1,0,0,1,1367.78,494.75)">
                    <path d="M0,-0.648L-0.051,0L20.381,0L20.428,-0.648L0,-0.648Z" style="fill:rgb(106,102,103);fill-rule:nonzero;"/>
                </g>
                <g transform="matrix(1,0,0,1,1344.24,494.75)">
                    <path d="M0,-0.648L-0.046,0L23.489,0L23.539,-0.648L0,-0.648Z" style="fill:rgb(106,102,103);fill-rule:nonzero;"/>
                </g>
                <g transform="matrix(-0.0708095,0.99749,0.99749,0.0708095,1388.54,494.437)">
                    <rect x="-0.31" y="-0.357" width="0.641" height="0.067" style="fill:rgb(106,102,103);"/>
                </g>
                <g transform="matrix(0.987057,0.160373,0.160373,-0.987057,1343.88,492.089)">
                    <path d="M0.149,-1.93L0.673,-1.93L23.907,1.846L23.34,1.838L0.149,-1.93Z" style="fill:rgb(106,102,103);fill-rule:nonzero;"/>
                </g>
                <g transform="matrix(1,0,0,1,1367.63,496.637)">
                    <path d="M0,-0.647L-0.051,0L20.381,0L20.432,-0.647L0,-0.647Z" style="fill:rgb(106,102,103);fill-rule:nonzero;"/>
                </g>
                <g transform="matrix(0.988897,0.1486,0.1486,-0.988897,1367.19,494.346)">
                    <path d="M0.11,-1.56L0.676,-1.56L20.881,1.476L20.278,1.47L0.11,-1.56Z" style="fill:rgb(106,102,103);fill-rule:nonzero;"/>
                </g>
                <g transform="matrix(0.987057,0.160373,0.160373,-0.987057,1343.74,493.977)">
                    <path d="M0.149,-1.929L0.673,-1.929L23.903,1.845L23.338,1.838L0.149,-1.929Z" style="fill:rgb(106,102,103);fill-rule:nonzero;"/>
                </g>
                <g transform="matrix(1,0,0,1,1367.31,500.022)">
                    <path d="M0,0.084L19.835,0.021L-0.559,0L0,0.084Z" style="fill:rgb(106,102,103);fill-rule:nonzero;"/>
                </g>
                <g transform="matrix(1,0,0,1,1343.26,500.084)">
                    <path d="M0,-0.042L24.056,0.021L23.497,-0.063L0,-0.042Z" style="fill:rgb(106,102,103);fill-rule:nonzero;"/>
                </g>
                <g transform="matrix(1,0,0,1,1367.49,498.528)">
                    <path d="M0,-0.652L-0.051,0L20.379,0L20.43,-0.652L0,-0.652Z" style="fill:rgb(106,102,103);fill-rule:nonzero;"/>
                </g>
                <g transform="matrix(1,0,0,1,1343.95,498.528)">
                    <path d="M0,-0.652L-0.051,0L23.484,0L23.535,-0.652L0,-0.652Z" style="fill:rgb(106,102,103);fill-rule:nonzero;"/>
                </g>
                <g transform="matrix(-0.0779827,0.996955,0.996955,0.0779827,1388.25,498.215)">
                    <rect x="-0.313" y="-0.359" width="0.644" height="0.069" style="fill:rgb(106,102,103);"/>
                </g>
                <g transform="matrix(0.987251,0.159173,0.159173,-0.987251,1343.59,495.877)">
                    <path d="M0.147,-1.915L0.674,-1.915L23.909,1.831L23.34,1.824L0.147,-1.915Z" style="fill:rgb(106,102,103);fill-rule:nonzero;"/>
                </g>
                <g transform="matrix(1,0,0,1,1387.99,498.523)">
                    <path d="M0,-0.651L-0.051,0L6.611,0L6.548,-0.651L0,-0.651Z" style="fill:rgb(106,102,103);fill-rule:nonzero;"/>
                </g>
                <g transform="matrix(1,0,0,1,1344.09,496.637)">
                    <path d="M0,-0.647L-0.051,0L23.484,0L23.535,-0.647L0,-0.647Z" style="fill:rgb(106,102,103);fill-rule:nonzero;"/>
                </g>
                <g transform="matrix(0.999339,0.0363396,0.0363396,-0.999339,1344.07,494.742)">
                    <rect x="0.012" y="-0.003" width="0.132" height="0.649" style="fill:rgb(106,102,103);"/>
                </g>
                <g transform="matrix(1,0,0,1,1344.13,494.02)">
                    <path d="M0,0.08L0.105,0.082L-0.411,-0.002L0,0.08Z" style="fill:rgb(106,102,103);fill-rule:nonzero;"/>
                </g>
                <g transform="matrix(1,0,0,1,1333.29,494.746)">
                    <path d="M0,-0.646L0.116,-0.536L0.226,0L10.796,0L10.847,-0.646L0,-0.646Z" style="fill:rgb(106,102,103);fill-rule:nonzero;"/>
                </g>
                <g transform="matrix(-0.460878,-0.887464,-0.887464,0.460878,1400.96,467.678)">
                    <path d="M3.102,-2.655L4.56,-2.655L-3.071,-1.884L-0.884,-2.658L3.102,-2.655Z" style="fill:rgb(244,197,63);fill-rule:nonzero;"/>
                </g>
                <g transform="matrix(0.163967,0.986466,0.986466,-0.163967,1283.01,438.191)">
                    <path d="M2.888,-11.233L6.266,-11.233L11.287,-7.213L13.254,3.407L2.888,-11.233Z" style="fill:rgb(244,197,63);fill-rule:nonzero;"/>
                </g>
                <g transform="matrix(1,0,0,1,1289.97,469.332)">
                    <path d="M0,-17.406L-10.871,-17.609L-2.263,-9.889L2.344,-5.558L8.24,-2.093L15.055,0.203L9.966,-6.924L0,-17.406Z" style="fill:rgb(244,197,63);fill-rule:nonzero;"/>
                </g>
                <g transform="matrix(1,0,0,1,1022.94,456.629)">
                    <path d="M0,0.661L0.88,0.009L0.749,0L0,0.661Z" style="fill:rgb(230,230,230);fill-rule:nonzero;"/>
                </g>
                <g transform="matrix(1,0,0,1,1023.76,455.915)">
                    <path d="M0,-2.788L2.445,-2.699L0.994,0.74L0.063,0.723L-0.694,1.383L0.893,1.4L0.968,1.197L0.973,1.201L3.037,-4.108L0.596,-4.188L0,-2.788Z" style="fill:rgb(230,230,230);fill-rule:nonzero;"/>
                </g>
                <g transform="matrix(1,0,0,1,1035.33,447.023)">
                    <path d="M0,-18.185L-0.063,-19.462L-0.258,-17.809L-0.516,-15.406L-3.485,-15.406L-4.348,-13.629L-1.29,-13.629L-2.487,-10.355L-4.886,-4.234L-8.295,-4.31L-8.752,-2.788L-5.469,-2.746L-7.039,1.277L-2.136,-10.896L0.093,-16.248L0.038,-17.424L0,-18.185Z" style="fill:rgb(230,230,230);fill-rule:nonzero;"/>
                </g>
                <g transform="matrix(1,0,0,1,1379.5,441.622)">
                    <path d="M0,1.379L0.437,1.687L0.677,1.856L0.863,1.155L0.491,-0.477L0,1.379Z" style="fill:rgb(230,230,230);fill-rule:nonzero;"/>
                </g>
                <g transform="matrix(1,0,0,1,1402.75,466.773)">
                    <path d="M0,-2.589L-0.372,-3.165L-4.116,-7.885L-4.171,-7.83L-1.535,-4.366L-0.863,-3.071L0.977,0.465L1.299,2.762L-5.368,4.229L-5.363,4.272L-5.249,5.296L2.5,3.299L2.145,0.752L0,-2.589Z" style="fill:rgb(230,230,230);fill-rule:nonzero;"/>
                </g>
                <g transform="matrix(1,0,0,1,1391.55,452.078)">
                    <path d="M0,-0.999L-1.13,-0.876L-0.8,-0.377L-0.301,0.372L1.032,0.245L1.688,-0.153L0.313,-1.371L0,-0.999Z" style="fill:rgb(230,230,230);fill-rule:nonzero;"/>
                </g>
                <g transform="matrix(1,0,0,1,1322.31,441.833)">
                    <path d="M0,29.267L-17.284,27.702L-24.099,25.405L-29.995,21.94L-34.602,17.609L-43.21,9.889L-32.339,10.092L-19.492,10.49L-12.919,10.693L-6.184,16.099L-2.394,20.447L0,29.267ZM-49.352,4.382L-49.906,1.048L-47.253,0.676L-41.014,0.943L-30.575,2.664L-14.458,9.462L-21.561,9.246L-33.764,8.874L-44.563,8.675L-49.352,4.382ZM-4.848,15.223L-13.359,8.396L-30.498,1.167L-41.759,-0.69L-48.324,-0.969L-51.323,-0.55L-50.663,3.434L-35.473,17.055L-30.456,21.775L-23.786,25.692L-16.226,28.239L1.865,30.236L-1.024,19.61L-4.848,15.223Z" style="fill:rgb(230,230,230);fill-rule:nonzero;"/>
                </g>
                <g transform="matrix(1,0,0,1,1209.37,394.499)">
                    <path d="M0,41.716L-4.12,41.712L-9.234,41.226L-9.56,41.226L-12.732,40.748L-13.523,40.6L-14.467,40.109L-15.317,37.829L-15.11,34.652L-14.509,32.643L-13.608,30.655L-12.661,29.969L-10.613,29.272L-5.262,28.857L-0.051,29.161L1.176,29.399L2.36,29.821L3.49,31.323L3.287,30.997L3.033,20.816L-7.589,12.144L-19.877,4.234L-31.078,-0.537L-51.526,-2.077L-54.457,18.595L-55.413,39.271L3.6,43.793L3.557,42.012L0,41.716Z" style="fill:rgb(224,247,251);fill-rule:nonzero;"/>
                </g>
                <g transform="matrix(1,0,0,1,1220.58,418.335)">
                    <path d="M0,20.554L6.637,18.984L10.397,16.92L10.681,14.42L-3.913,0L0,20.554Z" style="fill:rgb(224,247,251);fill-rule:nonzero;"/>
                </g>
                <g transform="matrix(1,0,0,1,1319.78,411.021)">
                    <path d="M0,2.297L-19.928,-9.293L-35.803,-16.188L-38.484,-16.886L-43.615,-17.287L-59.643,-17.685L-73.987,-17.787L-89.321,-17.685L-108.389,-17.287L-115.894,-16.886L-116.976,-16.188L-104.858,-9.293L-89.799,2.297L-74.753,14.788L-69.808,16.988L-60.184,19.285L-43.028,20.084L7.466,20.084L18.836,19.285L19.995,16.988L18.417,14.788L0,2.297Z" style="fill:rgb(224,247,251);fill-rule:nonzero;"/>
                </g>
                <g transform="matrix(1,0,0,1,1100.81,425.945)">
                    <path d="M0,-26.421L-10.499,-11.324L-19.445,3.773L41.585,7.102L45.003,-13.211L50.113,-33.523L29.284,-32.478L0,-26.421Z" style="fill:rgb(224,247,251);fill-rule:nonzero;"/>
                </g>
                <g transform="matrix(1,0,0,1,1091.75,425.725)">
                    <path d="M0,-19.238L-20.469,-10.697L-22.203,-8.451L-19.708,-4.331L-12.322,0L-6.002,-10.642L0,-19.238Z" style="fill:rgb(224,247,251);fill-rule:nonzero;"/>
                </g>
                <g transform="matrix(1,0,0,1,1218.95,411.085)">
                    <path d="M0,78.716L-0.254,94.062L-124.819,94.062L-129.468,78.716L-138.088,62.244L-141.468,56.893L-148.333,48.23L-147.834,40.781L-144.899,25.693L-140.504,20.388L-151.616,13.874L-157.043,4.906L-154.509,1.629L-118.042,-13.587L-89.249,-19.547L-68.632,-20.579L-60.295,-20.579L-40.185,-19.065L-28.502,-14.086L-15.862,-5.952L-2.957,4.585L-1.358,5.888L15.084,22.14L14.805,24.94L10.084,27.533L2.001,29.474L2.022,33.942L1.527,45.858L0.229,62.244L0,78.716ZM52.697,34.182L52.037,30.198L55.036,29.779L43.713,24.8L36.903,22.402L35.799,20.503L29.957,20.405L24.12,16.861L6.831,2.216L-8.1,-9.331L-22.021,-17.762L-35.705,-23.071L-50.916,-24.809L-63.281,-24.809L-87.214,-23.472L-114.878,-18.261L-153.638,-4.416L-173.324,3.946L-173.54,4.039L-175.224,4.754L-183.024,8.528L-183.159,11.586L-183.451,14.001L-183.514,14.526L-183.7,16.082L-183.684,16.476L-183.62,17.753L-183.582,18.515L-183.527,19.691L-185.756,25.042L-190.659,37.216L-192.148,40.722L-194.212,46.03L-194.292,46.23L-177.406,49.326L-169.327,55.692L-168.443,59.05L-160.385,57.122L-152.31,59.05L-152.221,59.072L-151.865,59.339L-149.404,61.204L-149.349,61.246L-148.613,61.804L-144.81,64.685L-144.476,65.18L-143.249,66.995L-138.947,73.374L-138.266,75.167L-136.46,79.913L-134.823,84.211L-134.615,85.196L-132.754,94.033L-132.238,96.063L-130.352,103.525L7.5,103.525L5.66,96.292L4.247,83.267L7.098,71.787L12.58,62.468L20.055,56.407L28.654,54.3L32.013,55.109L32.233,55.159L32.474,55.218L32.491,55.222L32.952,55.333L33.193,55.392L37.372,56.399L37.376,56.399L41.171,59.339L43.607,61.225L45.193,62.456L46.72,59.711L64.262,59.025L70.375,52.922L72.904,52.524L67.887,47.803L52.697,34.182Z" style="fill:rgb(130,195,65);fill-rule:nonzero;"/>
                </g>
                <g transform="matrix(1,0,0,1,1343.94,495.985)">
                    <rect x="0" y="0.005" width="0.156" height="0.647" style="fill:rgb(106,102,103);"/>
                </g>
                <g transform="matrix(1,0,0,1,1343.99,495.91)">
                    <path d="M0,0.076L0.11,0.08L-0.407,-0.004L0,0.076Z" style="fill:rgb(106,102,103);fill-rule:nonzero;"/>
                </g>
                <g transform="matrix(1,0,0,1,1333.76,496.638)">
                    <path d="M0,-0.652L0.08,-0.247L-0.004,0L10.182,0L10.229,-0.652L0,-0.652Z" style="fill:rgb(106,102,103);fill-rule:nonzero;"/>
                </g>
                <g transform="matrix(0.207859,0.978159,0.978159,-0.207859,1337.84,490.926)">
                    <path d="M4.019,-5.043L4.101,-5.043L6.227,4.963L6.064,4.58L4.019,-5.043Z" style="fill:rgb(106,102,103);fill-rule:nonzero;"/>
                </g>
                <g transform="matrix(1,0,0,1,1231.26,398.309)">
                    <path d="M0,34.446L-0.283,36.946L-4.044,39.01L-10.681,40.58L-14.593,20.026L0,34.446ZM-77.303,35.461L-76.347,14.785L-73.416,-5.887L-52.968,-4.347L-41.767,0.424L-29.479,8.334L-18.857,17.006L-18.603,27.187L-18.4,27.513L-17.609,30.601L-17.093,32.322L-16.886,32.403L-13.265,33.778L-12.47,35.343L-12.792,37.208L-13.549,38.063L-15.016,38.473L-17.965,38.232L-18.333,38.202L-18.29,39.983L-77.303,35.461ZM-149.894,31.409L-140.948,16.312L-130.449,1.215L-101.165,-4.842L-80.336,-5.887L-85.446,14.425L-88.864,34.738L-149.894,31.409ZM-161.717,18.964L-159.983,16.718L-139.514,8.178L-145.516,16.773L-151.836,27.416L-159.221,23.084L-161.717,18.964ZM-15.27,17.361L-28.176,6.824L-40.815,-1.31L-52.499,-6.289L-72.608,-7.804L-80.945,-7.804L-101.562,-6.771L-130.356,-0.811L-166.823,14.404L-169.356,17.682L-163.929,26.65L-152.817,33.164L-82.849,36.98L-10.313,42.25L-2.229,40.309L2.492,37.716L2.771,34.915L-13.671,18.664L-15.27,17.361Z" style="fill:rgb(221,221,221);fill-rule:nonzero;"/>
                </g>
                <g transform="matrix(1,0,0,1,1339.78,389.648)">
                    <path d="M0,38.361L-1.159,40.658L-12.529,41.458L-63.023,41.458L-80.18,40.658L-89.803,38.361L-94.748,36.161L-109.794,23.67L-124.853,12.08L-136.972,5.185L-135.889,4.487L-128.385,4.085L-109.316,3.688L-93.982,3.586L-79.638,3.688L-63.611,4.085L-58.48,4.487L-55.798,5.185L-39.923,12.08L-19.995,23.67L-1.578,36.161L0,38.361ZM-18.062,23.653L-38.083,12.106L-56.665,3.675L-73.877,-1.634L-75.624,-1.803L-58.412,3.472L-65.717,2.575L-81.757,2.186L-96.385,2.089L-111.858,2.186L-130.652,2.575L-140.521,3.472L-154.56,-1.803L-169.67,-3.478L-182.08,-3.579L-206.217,-2.247L-208.048,-2.035L-184.115,-3.372L-171.751,-3.372L-156.54,-1.634L-142.856,3.675L-128.935,12.106L-114.003,23.653L-96.715,38.298L-90.877,41.842L-85.036,41.94L7.965,41.94L8.147,41.842L4.738,38.298L-18.062,23.653Z" style="fill:rgb(221,221,221);fill-rule:nonzero;"/>
                </g>
                <g transform="matrix(1,0,0,1,1343.84,497.795)">
                    <path d="M0,0.077L0.11,0.081L-0.411,-0.004L0,0.077Z" style="fill:rgb(106,102,103);fill-rule:nonzero;"/>
                </g>
                <g transform="matrix(1,0,0,1,1343.67,500.043)">
                    <path d="M0,0.084L23.643,0.063L-0.413,0L0,0.084Z" style="fill:rgb(106,102,103);fill-rule:nonzero;"/>
                </g>
                <g transform="matrix(-0.347314,0.937749,0.937749,0.347314,1340.43,492.934)">
                    <path d="M7.019,-4.966L7.105,-4.966L3.446,4.913L3.513,4.5L7.019,-4.966Z" style="fill:rgb(106,102,103);fill-rule:nonzero;"/>
                </g>
                <g transform="matrix(1,0,0,1,1343.67,499.023)">
                    <path d="M0,1.103L-0.042,1.628L-16.59,1.543L-17.838,0.604L-17.643,-0.348L-17.538,-0.525L-17.483,0.02L-16.408,0.828L-16.302,0.909L0,1.103Z" style="fill:rgb(106,102,103);fill-rule:nonzero;"/>
                </g>
                <g transform="matrix(-0.727808,-0.685781,-0.685781,0.727808,1328.54,498.24)">
                    <path d="M-1.267,0.782L0.756,0.782L0.308,0.505L-1.712,0.503L-1.267,0.782Z" style="fill:rgb(106,102,103);fill-rule:nonzero;"/>
                </g>
                <g transform="matrix(1,0,0,1,1327.15,497.795)">
                    <path d="M0,-0.989L0.295,0.496L0.812,0.601L0.375,-1.586L0.363,-1.59L0,-0.989Z" style="fill:rgb(106,102,103);fill-rule:nonzero;"/>
                </g>
                <g transform="matrix(1,0,0,1,1329.44,492.83)">
                    <path d="M0,6.95L-1.472,5.567L-1.908,3.38L-1.891,3.321L-0.926,1.726L-1.523,3.388L-1.138,5.309L0.135,6.506L0.152,6.523L1.865,6.574L3.338,5.44L4.01,3.554L3.629,1.637L2.335,0.419L2.25,0.419L0.626,0.368L-0.745,1.426L-0.182,0.491L0.013,0.339L0.791,-0.059L2.491,-0.008L3.76,1.189L3.849,1.269L3.964,1.379L4.073,1.916L4.302,3.075L4.319,3.156L4.399,3.562L4.315,3.807L3.9,4.962L3.87,5.042L3.638,5.694L3.629,5.715L1.95,7.009L0,6.95Z" style="fill:rgb(106,102,103);fill-rule:nonzero;"/>
                </g>
                <g transform="matrix(0.99955,0.0299865,0.0299865,-0.99955,1330.23,492.745)">
                    <path d="M0.001,-0.025L1.702,-0.025L1.182,0.065L0.163,0.063L0.001,-0.025Z" style="fill:rgb(106,102,103);fill-rule:nonzero;"/>
                </g>
                <g transform="matrix(-0.728519,-0.685025,-0.685025,0.728519,1332.36,493.029)">
                    <path d="M-1.411,0.617L0.336,0.617L0.275,0.559L-1.503,0.559L-1.411,0.617Z" style="fill:rgb(106,102,103);fill-rule:nonzero;"/>
                </g>
                <g transform="matrix(0.979061,0.203567,0.203567,-0.979061,1333.15,496.37)">
                    <path d="M0.19,0.049L0.293,0.049L-0.471,1.846L-0.578,1.845L0.19,0.049Z" style="fill:rgb(106,102,103);fill-rule:nonzero;"/>
                </g>
                <g transform="matrix(0.999929,0.0118995,0.0118995,-0.999929,1327.37,499.836)">
                    <path d="M-0,-0.096L16.303,-0.096L15.888,-0.017L-0.106,-0.018L-0,-0.096Z" style="fill:rgb(106,102,103);fill-rule:nonzero;"/>
                </g>
                <g transform="matrix(0.980581,0.196116,0.196116,-0.980581,1332.49,498.155)">
                    <path d="M0.191,-0.058L0.298,-0.058L0.587,1.925L0.484,1.926L0.191,-0.058Z" style="fill:rgb(106,102,103);fill-rule:nonzero;"/>
                </g>
                <g transform="matrix(-0.792184,0.610283,0.610283,0.792184,1331.7,499.748)">
                    <path d="M-1.754,-0.516L0.104,-0.516L0.176,-0.597L-1.682,-0.597L-1.754,-0.516Z" style="fill:rgb(106,102,103);fill-rule:nonzero;"/>
                </g>
                <g transform="matrix(1,0,0,1,1330.59,491.896)">
                    <path d="M0,0.694L13.663,0.694L13.714,0.017L1.358,0L0,0.694Z" style="fill:rgb(106,102,103);fill-rule:nonzero;"/>
                </g>
                <g transform="matrix(0.999557,0.0297591,0.0297591,-0.999557,1329.59,499.327)">
                    <path d="M-0,-0.025L1.714,-0.025L1.607,-0.007L-0.018,-0.009L-0,-0.025Z" style="fill:rgb(106,102,103);fill-rule:nonzero;"/>
                </g>
                <g transform="matrix(0.999339,0.0363396,0.0363396,-0.999339,1343.78,498.52)">
                    <rect x="0.012" y="-0.003" width="0.136" height="0.652" style="fill:rgb(106,102,103);"/>
                </g>
                <g transform="matrix(1,0,0,1,1333.31,498.523)">
                    <path d="M0,-0.651L-0.232,0L10.484,0L10.535,-0.651L0,-0.651Z" style="fill:rgb(106,102,103);fill-rule:nonzero;"/>
                </g>
                <g transform="matrix(0.735437,0.677593,0.677593,-0.735437,1334.67,490.324)">
                    <path d="M1.419,-3.716L1.54,-3.716L9.516,3.634L9.158,3.415L1.419,-3.716Z" style="fill:rgb(106,102,103);fill-rule:nonzero;"/>
                </g>
                <g transform="matrix(1,0,0,1,1041.54,505.088)">
                    <path d="M0,-44.677L-16.886,-47.773L-18.472,-47.79L-18.595,-47.799L-20.604,-45.654L-21.526,-44.567L-23.709,-36.695L-25.473,-21.865L-22.182,-17.744L-21.581,-9.462L-19.073,-3.075L-16.607,0.605L-14.302,1.299L-8.828,2.28L-2.906,3.122L-4.674,-1.975L-5.664,-9.856L-3.498,-20.684L1.874,-29.356L8.964,-34.952L8.079,-38.311L0,-44.677Z" style="fill:rgb(130,195,65);fill-rule:nonzero;"/>
                </g>
                <g transform="matrix(1,0,0,1,1345.14,501.853)">
                    <path d="M0,-29.619L-2.28,-30.072L-17.707,-33.117L-18.883,-35.774L-19.098,-36.26L-19.445,-37.047L-19.521,-37.212L-20.566,-39.577L-20.769,-40.025L-0.681,-39.429L20.765,-38.836L39.182,-39.429L49.952,-40.025L50.083,-36.26L50.104,-35.774L50.197,-33.117L41.179,-29.399L24.331,-27.601L1.125,-29.399L0,-29.619ZM53.721,-8.241L54.102,-3.511L53.899,-2.437L52.816,-1.286L42.63,-1.202L22.131,-1.257L-1.514,-1.202L-18.062,-1.286L-19.31,-2.225L-19.115,-3.177L-19.009,-3.355L-17.99,-5.047L-17.626,-5.647L-17.597,-5.702L-16.632,-7.297L-16.45,-7.598L-15.888,-8.533L-15.845,-8.604L-15.693,-8.685L-14.915,-9.082L-14.75,-9.167L-14.555,-9.264L-13.198,-9.958L-0.842,-9.941L22.804,-9.992L43.302,-9.941L52.105,-9.962L53.721,-8.241ZM62.067,-32.694L57.609,-37.669L59.753,-34.327L60.108,-31.78L52.359,-29.784L52.245,-30.807L52.241,-30.85L52.118,-31.941L51.263,-39.555L51.171,-40.41L49.94,-40.452L38.891,-40.177L20.52,-39.678L-0.96,-40.177L-20.955,-40.452L-23.861,-40.41L-20.972,-29.784L-39.064,-31.78L-46.623,-34.327L-53.294,-38.244L-55.823,-37.846L-61.936,-31.743L-79.477,-31.057L-81.004,-28.312L-78.001,-24.107L-74.355,-19.001L-73.018,-15.783L-69.583,-7.525L-69.089,-5.571L-67.392,1.142L-66.424,5.296L-65.134,10.833L-56.953,8.955L-45.73,7.334L-35.405,6.636L61.805,6.636L62.655,1.142L61.593,-0.407L66.424,-11.286L66.919,-27.796L64.571,-29.796L62.067,-32.694Z" style="fill:rgb(130,195,65);fill-rule:nonzero;"/>
                </g>
                <g transform="matrix(1,0,0,1,1274.06,385.018)">
                    <path d="M0,7.205L7.305,8.101L-9.907,2.827L-11.1,2.7L-24.581,1.245L-34.559,0.17L-49.804,-0.532L-63.856,-0.896L-77.21,-0.896L-91.867,-0.629L-115.953,0.382L-130.893,1.296L-140.5,2.383L-116.363,1.05L-103.952,1.152L-88.843,2.827L-74.803,8.101L-64.935,7.205L-46.141,6.816L-30.667,6.718L-16.04,6.816L0,7.205Z" style="fill:rgb(130,195,65);fill-rule:nonzero;"/>
                </g>
                <g transform="matrix(1,0,0,1,1394.33,436.706)">
                    <path d="M0,20.35L-0.334,19.851L-3.075,15.744L-3.574,14.995L-3.904,14.496L-4.556,13.523L-5.672,12.736L-7.855,11.201L-14.154,6.772L-14.395,6.602L-14.83,6.294L-14.34,4.437L-28.028,-1.62L-41.932,-5.119L-139.581,-5.119L-138.477,-3.219L-131.667,-0.821L-120.344,4.158L-113.779,4.437L-102.518,6.294L-85.378,13.523L-76.868,20.35L-73.044,24.737L-70.138,24.694L-50.142,24.969L-28.662,25.469L-10.292,24.969L0.757,24.694L1.988,24.737L0.855,22.241L0,20.35Z" style="fill:rgb(130,195,65);fill-rule:nonzero;"/>
                </g>
                <g transform="matrix(1,0,0,1,1166.29,489.953)">
                    <path d="M0,-39.47L-1.146,-38.688L-2.606,-38.341L-3.591,-38.45L-13.291,-38.45L-13.502,-38.341L-14.877,-38.59L-15.571,-39.038L-15.626,-39.428L-15.418,-40.963L-14.285,-41.53L-12.826,-41.86L-3.13,-41.86L-2.141,-41.75L-0.762,-41.517L0.173,-40.739L0,-39.47ZM-17.876,-54.664L-19.661,-49.106L-21.353,-35.752L-22.681,-16.624L-21.687,-0.152L-21.586,0.588L-21.112,15.194L52.405,15.194L52.659,-0.152L52.888,-16.624L54.186,-33.011L54.681,-44.927L54.66,-49.394L-17.876,-54.664Z" style="fill:rgb(130,195,65);fill-rule:nonzero;"/>
                </g>
                <g transform="matrix(1,0,0,1,1078.4,445.568)">
                    <path d="M0,0.909L2.048,0.143L2.208,0L0,0.909Z" style="fill:rgb(106,102,103);fill-rule:nonzero;"/>
                </g>
                <g transform="matrix(1,0,0,1,1079.92,487.72)">
                    <path d="M0,-38.819L-0.22,-38.654L-1.582,-38.903L-2.25,-39.343L-2.276,-39.8L-1.967,-41.298L-0.795,-41.852L0.685,-42.152L10.401,-42.152L11.383,-41.987L12.749,-41.763L13.638,-41.002L13.38,-39.758L12.178,-38.997L10.693,-38.654L9.716,-38.819L0,-38.819ZM-5.875,-50.942L-8.811,-35.854L-9.31,-28.405L-2.445,-19.742L0.935,-14.391L9.556,2.081L14.204,17.428L65.252,17.428L64.778,2.821L64.677,2.081L63.683,-14.391L65.011,-33.519L66.703,-46.873L68.488,-52.431L-1.48,-56.247L-5.875,-50.942Z" style="fill:rgb(130,195,65);fill-rule:nonzero;"/>
                </g>
                <g transform="matrix(0.994979,0.100087,0.100087,-0.994979,1397.96,496.197)">
                    <path d="M0.094,0.005L0.263,0.005L-0.106,1.86L-0.275,1.864L0.094,0.005Z" style="fill:rgb(106,102,103);fill-rule:nonzero;"/>
                </g>
                <g transform="matrix(0.559345,0.828935,0.828935,-0.559345,1397.79,493.072)">
                    <path d="M-0.263,-0.628L1.076,-0.628L1.188,-0.5L-0.185,-0.497L-0.263,-0.628Z" style="fill:rgb(106,102,103);fill-rule:nonzero;"/>
                </g>
                <g transform="matrix(1,0,0,1,1214.37,429.426)">
                    <path d="M0,1.286L-0.207,1.205L-0.723,-0.516L-1.514,-3.604L-2.644,-5.106L-3.828,-5.528L-5.055,-5.766L-10.266,-6.07L-15.617,-5.655L-17.665,-4.958L-18.612,-4.272L-19.513,-2.284L-20.114,-0.275L-20.321,2.902L-19.471,5.182L-18.527,5.673L-17.736,5.821L-14.564,6.299L-14.238,6.299L-9.124,6.785L-5.004,6.789L-1.447,7.085L-1.079,7.115L1.87,7.356L3.338,6.946L4.095,6.091L4.416,4.225L3.621,2.661L0,1.286Z" style="fill:rgb(130,195,65);fill-rule:nonzero;"/>
                </g>
                <g transform="matrix(1,0,0,1,1037.51,417.566)">
                    <path d="M0,-0.487L-1.015,0.333L-1.586,2.047L6.214,-1.727L7.897,-2.442L8.113,-2.534L5.423,-2.01L0,-0.487Z" style="fill:rgb(224,247,251);fill-rule:nonzero;"/>
                </g>
                <g transform="matrix(1,0,0,1,1031.84,425.61)">
                    <path d="M0,6.007L2.969,6.007L3.227,3.604L3.422,1.95L3.405,1.557L3.591,0L0,6.007Z" style="fill:rgb(224,247,251);fill-rule:nonzero;"/>
                </g>
                <g transform="matrix(1,0,0,1,1024.36,444.316)">
                    <path d="M0,7.411L2.441,7.492L3.981,3.837L5.499,-0.038L2.216,-0.081L0,7.411Z" style="fill:rgb(224,247,251);fill-rule:nonzero;"/>
                </g>
                <g transform="matrix(1,0,0,1,1027.03,433.47)">
                    <path d="M0,9.243L3.409,9.319L5.808,3.198L7.005,-0.076L3.947,-0.076L0,9.243Z" style="fill:rgb(224,247,251);fill-rule:nonzero;"/>
                </g>
                <g transform="matrix(1,0,0,1,1070.5,517.812)">
                    <path d="M0,-32.195L-4.467,-35.841L-9.551,-37.11L-14.631,-35.841L-19.099,-32.195L-22.419,-26.603L-24.183,-19.746L-24.183,-12.449L-22.419,-5.588L-19.099,-0.001L-14.631,3.65L-9.551,4.915L-4.467,3.65L0,-0.001L3.316,-5.588L5.084,-12.449L5.084,-19.746L3.316,-26.603L0,-32.195Z" style="fill:white;fill-rule:nonzero;"/>
                </g>
                <g transform="matrix(1,0,0,1,1259.36,517.812)">
                    <path d="M0,-32.195L-4.467,-35.841L-9.551,-37.11L-14.631,-35.841L-19.099,-32.195L-22.419,-26.603L-24.183,-19.746L-24.183,-12.449L-22.419,-5.588L-19.099,-0.001L-14.631,3.65L-9.551,4.915L-4.467,3.65L0,-0.001L3.316,-5.588L5.084,-12.449L5.084,-19.746L3.316,-26.603L0,-32.195Z" style="fill:white;fill-rule:nonzero;"/>
                </g>
                <g transform="matrix(1,0,0,1,1398.58,463.985)">
                    <path d="M0,-5.042L-0.211,-5.321L-5.343,-12.06L-5.998,-11.662L-7.33,-11.535L-4.589,-7.428L0.643,-1.578L-3.401,-5.038L-2.267,-2.542L-2.174,-1.688L-1.32,5.926L-1.197,7.018L5.469,5.55L2.635,-1.578L0,-5.042Z" style="fill:white;fill-rule:nonzero;"/>
                </g>
                <g transform="matrix(1,0,0,1,1388.65,444.536)">
                    <path d="M0,4.907L1.117,5.694L1.768,6.667L2.897,6.544L3.211,6.172L-8.295,-1.76L-8.481,-1.057L-2.183,3.371L0,4.907Z" style="fill:rgb(224,247,251);fill-rule:nonzero;"/>
                </g>
                <g transform="matrix(1,0,0,1,1395.25,470)">
                    <path d="M0,-3.921L-0.021,-4.407L-0.152,-8.172L-10.922,-7.576L-29.339,-6.984L-50.786,-7.576L-70.874,-8.172L-70.671,-7.724L-52.384,-7.085L-31.708,-6.209L-12.491,-7.085L-2.809,-7.745L-3.139,-5.278L-11.814,-4.263L-12.491,-4.221L-29.691,-3.189L-31.708,-3.286L-51.741,-4.263L-52.384,-4.301L-69.626,-5.359L-69.55,-5.194L-69.203,-4.407L-68.987,-3.921L-52.384,-1.323L-50.016,-0.951L-31.708,0.305L-27.356,0.605L-12.491,-0.731L-10.025,-0.951L-3.46,-2.897L-3.634,-1.611L-12.491,2.044L-31.708,3.752L-25.773,4.251L-8.925,2.454L0.093,-1.264L0,-3.921Z" style="fill:rgb(142,142,142);fill-rule:nonzero;"/>
                </g>
                <g transform="matrix(1,0,0,1,1338.87,426.007)">
                    <path d="M0,-1.704L1.163,-0.955L2.271,-0.24L2.771,0.086L3.025,0.246L3.329,0.445L3.316,0.352L3.359,0.462L3.524,0.567L3.198,-0.389L2.585,-1.01L2.212,-1.328L0.948,-2L-0.875,-2.271L-0.359,-1.936L0,-1.704Z" style="fill:rgb(224,247,251);fill-rule:nonzero;"/>
                </g>
                <g transform="matrix(1,0,0,1,1346.27,474.031)">
                    <path d="M0,-1.577L23.206,0.22L-1.125,-1.797L0,-1.577Z" style="fill:rgb(224,247,251);fill-rule:nonzero;"/>
                </g>
                <g transform="matrix(1,0,0,1,1307.85,442.509)">
                    <path d="M0,8.786L-16.116,1.989L-26.556,0.267L-32.795,0L-35.448,0.372L-19.306,8.198L-7.102,8.57L0,8.786Z" style="fill:white;fill-rule:nonzero;"/>
                </g>
                <g transform="matrix(1,0,0,1,1316.12,465.093)">
                    <path d="M0,-7.161L-6.734,-12.567L-13.308,-12.77L-26.154,-13.168L-16.188,-2.686L-11.1,4.442L6.184,6.007L3.79,-2.813L0,-7.161Z" style="fill:white;fill-rule:nonzero;"/>
                </g>
                <g transform="matrix(1,0,0,1,1331.69,499.33)">
                    <path d="M0,-6.082L-1.625,-6.133L-2.995,-5.075L-3.177,-4.775L-3.773,-3.112L-3.388,-1.192L-2.115,0.005L-0.491,0.051L0.981,-1.082L1.658,-2.969L1.273,-4.885L0,-6.082Z" style="fill:white;fill-rule:nonzero;"/>
                </g>
                <g transform="matrix(1,0,0,1,1164.15,451.503)">
                    <path d="M0,-3.3L-0.99,-3.41L-10.685,-3.41L-12.144,-3.08L-13.278,-2.513L-13.485,-0.978L-13.43,-0.588L-12.736,-0.14L-11.362,0.11L-11.15,0L-1.451,0L-0.465,0.11L0.994,-0.237L2.141,-1.02L2.314,-2.289L1.379,-3.067L0,-3.3Z" style="fill:rgb(130,195,65);fill-rule:nonzero;"/>
                </g>
                <g transform="matrix(1,0,0,1,1091.31,448.901)">
                    <path d="M0,-3.168L-0.981,-3.333L-10.698,-3.333L-10.859,-3.189L-12.906,-2.423L-10.698,-3.333L-12.178,-3.033L-13.35,-2.478L-13.659,-0.981L-13.633,-0.524L-12.965,-0.084L-11.603,0.165L-11.383,0L-1.667,0L-0.69,0.165L0.795,-0.177L1.996,-0.939L2.254,-2.182L1.366,-2.944L0,-3.168Z" style="fill:rgb(130,195,65);fill-rule:nonzero;"/>
                </g>
                <g transform="matrix(1,0,0,1,1397.13,499.403)">
                    <path d="M0,-6.197L-0.905,-6.155L-1.853,-4.937L-2.327,-3.021L-2.145,-1.134L-1.396,-0.03L-1.379,0L-0.322,-0.051L-0.491,-0.072L0.457,-1.286L0.931,-3.202L0.749,-5.089L0,-6.197Z" style="fill:white;fill-rule:nonzero;"/>
                </g>
                <g transform="matrix(0.615468,-0.788162,-0.788162,-0.615468,1397.32,499.542)">
                    <path d="M-0.255,0.67L1.285,0.67L1.372,0.523L-0.168,0.523L-0.255,0.67Z" style="fill:rgb(106,102,103);fill-rule:nonzero;"/>
                </g>
                <g transform="matrix(0.991075,0.133303,0.133303,-0.991075,1397.46,498.065)">
                    <path d="M0.129,-0.034L0.302,-0.034L0.513,1.932L0.344,1.928L0.129,-0.034Z" style="fill:rgb(106,102,103);fill-rule:nonzero;"/>
                </g>
                <g transform="matrix(1,0,0,1,1381.81,532.968)">
                    <path d="M0,-20.25L-3.046,-20.165L-40.608,-18.727L-50.802,-18.346L-40.481,-18.346L-40.016,-16.527L-38.913,-14.655L-40.03,-16.539L-39.548,-15.604L-34.607,-7.28L-27.949,-1.844L-20.382,0.042L-10.555,0.042L-2.988,-1.844L3.666,-7.28L8.606,-15.604L8.591,-15.604L9.095,-16.527L10.067,-20.292L0.508,-20.292L0,-20.25Z" style="fill:rgb(142,142,142);fill-rule:nonzero;"/>
                </g>
                <g transform="matrix(1,0,0,1,1075.6,498.082)">
                    <path d="M0,7.276L-1.776,14.129L-5.118,19.712L-9.56,23.392L-14.636,24.661L-19.712,23.392L-24.195,19.712L-27.537,14.129L-29.271,7.276L-29.271,-0L-27.537,-6.852L-24.195,-12.478L-19.712,-16.116L-14.636,-17.385L-9.56,-16.116L-5.118,-12.478L-1.776,-6.852L0,-0L0,7.276ZM12.986,16.54L11.125,9.052L10.575,7.022L8.714,-1.819L8.545,-2.792L6.895,-7.064L5.076,-11.844L4.399,-13.62L0.085,-20.008L-1.142,-21.827L-1.48,-22.292L-5.245,-25.211L-6.006,-25.761L-6.049,-25.803L-8.502,-27.664L-13.536,-27.664L-21.108,-25.761L-25.295,-22.334L-27.749,-20.346L-31.725,-13.663L-32.698,-12.013L-33.205,-11.082L-35.32,-2.834L-35.659,-1.48L-35.659,8.756L-35.32,10.11L-33.205,18.359L-32.994,18.697L-32.698,19.289L-27.749,27.622L-21.108,33.037L-13.536,34.94L-3.722,34.94L3.849,33.037L10.491,27.622L15.44,19.289L15.947,18.359L16.412,16.54L12.986,16.54Z" style="fill:rgb(142,142,142);fill-rule:nonzero;"/>
                </g>
                <g transform="matrix(1,0,0,1,1264.42,498.082)">
                    <path d="M0,7.276L-1.734,14.129L-5.076,19.712L-9.517,23.392L-14.636,24.661L-19.712,23.392L-24.153,19.712L-27.495,14.129L-29.229,7.276L-29.229,-0L-27.495,-6.852L-24.153,-12.478L-19.712,-16.116L-14.636,-17.385L-9.517,-16.116L-5.076,-12.478L-1.734,-6.852L0,-0L0,7.276ZM14.297,9.052L13.325,4.907L11.633,-1.819L11.125,-3.765L7.699,-12.013L6.345,-15.228L2.707,-20.346L-0.296,-24.534L-1.861,-25.761L-4.315,-27.664L-13.494,-27.664L-21.065,-25.761L-22.588,-24.534L-27.749,-20.346L-30.794,-15.228L-32.655,-12.013L-33.163,-11.082L-35.024,-3.722L-35.616,-1.48L-35.616,8.756L-35.49,9.306L-33.629,16.54L-33.163,18.359L-33.036,18.57L-32.655,19.289L-27.749,27.622L-21.065,33.037L-13.494,34.94L-3.68,34.94L3.892,33.037L10.533,27.622L15.482,19.289L15.947,18.359L16.412,16.54L16.835,14.932L16.92,14.593L15.566,14.593L14.297,9.052Z" style="fill:rgb(142,142,142);fill-rule:nonzero;"/>
                </g>
                <g transform="matrix(1,0,0,1,1152.92,531.192)">
                    <path d="M0,-14.763L0.486,-13.828L5.423,-5.504L12.081,-0.068L19.648,1.819L29.475,1.819L37.042,-0.068L43.696,-5.504L48.636,-13.828L49.119,-14.763L49.588,-16.582L-0.465,-16.582L0,-14.763Z" style="fill:rgb(142,142,142);fill-rule:nonzero;"/>
                </g>
                <g transform="matrix(1,0,0,1,1347.74,431.492)">
                    <path d="M0,0.097L4.649,0.097L0.183,0L0,0.097Z" style="fill:rgb(221,221,221);fill-rule:nonzero;"/>
                </g>
                <g transform="matrix(1,0,0,1,1343.51,463.33)">
                    <path d="M0,2.407L20.033,3.384L22.051,3.481L39.25,2.449L39.927,2.407L48.603,1.392L48.933,-1.074L39.25,-0.414L20.033,0.461L-0.643,-0.414L-18.929,-1.053L-17.884,1.311L-0.643,2.369L0,2.407Z" style="fill:rgb(221,221,221);fill-rule:nonzero;"/>
                </g>
                <g transform="matrix(1,0,0,1,1345.14,467.599)">
                    <path d="M0,4.635L18.396,6.154L37.613,4.445L46.471,0.79L46.644,-0.496L40.079,1.45L37.613,1.67L22.749,3.007L18.396,2.706L0.089,1.45L-2.28,1.078L-18.883,-1.519L-17.707,1.137L-2.28,4.183L0,4.635Z" style="fill:rgb(221,221,221);fill-rule:nonzero;"/>
                </g>
                <g transform="matrix(1,0,0,1,1397.93,498.452)">
                    <path d="M0,-0.056L-1.079,1.327L-2.284,1.386L-3.122,1.281L-3.938,0.071L-9.991,0.071L-10.059,0.075L-54.026,0.075L-54.135,0.071L-64.85,0.071L-64.859,0.092L-66.538,1.386L-68.488,1.327L-69.004,1.226L-70.476,-0.161L-70.772,-1.646L-71.792,0.046L-71.737,0.591L-70.662,1.399L-54.668,1.59L-31.171,1.569L-10.778,1.59L-0.732,1.395L0.106,0.506L0.288,-0.471L0.241,-1.033L0,-0.056Z" style="fill:rgb(221,221,221);fill-rule:nonzero;"/>
                </g>
                <g transform="matrix(1,0,0,1,1387.72,493.967)">
                    <path d="M0,-1.383L-19.822,-1.434L-20.389,-1.429L-43.467,-1.379L-57.13,-1.379L-57.325,-1.281L-56.306,-1.252L-55.79,-1.146L-54.521,0.051L6.611,0.051L7.622,-1.252L8.828,-1.307L9.124,-1.269L9.023,-1.379L0.677,-1.379L0,-1.383Z" style="fill:rgb(221,221,221);fill-rule:nonzero;"/>
                </g>
                <g transform="matrix(1,0,0,1,1388.23,495.905)">
                    <path d="M0,-1.159L-0.068,-1.155L-44.034,-1.155L-44.144,-1.159L-54.715,-1.159L-54.487,0L5.592,0L5.88,-1.159L0,-1.159Z" style="fill:rgb(221,221,221);fill-rule:nonzero;"/>
                </g>
                <g transform="matrix(-0.338142,0.941095,0.941095,0.338142,1374.24,469.317)">
                    <path d="M39.401,-28.865L40.629,-28.865L20.16,28.101L19.112,27.603L39.401,-28.865Z" style="fill:rgb(221,221,221);fill-rule:nonzero;"/>
                </g>
            </g>
        </g>
    </g>
</svg>
