<?xml version="1.0" encoding="UTF-8" standalone="no"?>
<!DOCTYPE svg PUBLIC "-//W3C//DTD SVG 1.1//EN" "http://www.w3.org/Graphics/SVG/1.1/DTD/svg11.dtd">
<svg width="100%" height="100%" viewBox="0 0 420 180" version="1.1" xmlns="http://www.w3.org/2000/svg" xmlns:xlink="http://www.w3.org/1999/xlink" xml:space="preserve" xmlns:serif="http://www.serif.com/" style="fill-rule:evenodd;clip-rule:evenodd;stroke-linecap:round;stroke-miterlimit:10;">
    <g transform="matrix(1,0,0,1,-1438.89,-353.633)">
        <g id="car-angled-rear-left">
            <g>
                <g transform="matrix(1,0,0,1,1837.72,514.157)">
                    <path d="M0,-8.46L-2.327,-7.783L-7.783,-6.768L-13.705,-5.964L-26.099,-5.964L-28.51,-5.668L-67.384,-0.846L-67.088,0.465L-127.535,0.465L-126.223,-4.568L-125.885,-5.964L-127.535,-5.964L-120.217,-6.768L-110.234,-7.783L-101.605,-8.46L-94.118,-8.925L-1.734,-8.925L0,-8.46Z" style="fill:rgb(77,77,77);fill-rule:nonzero;"/>
                </g>
                <g transform="matrix(1,0,0,1,1843.28,483.223)">
                    <path d="M0,4.12L-0.102,4.12L3.295,0L0,4.12Z" style="fill:rgb(106,102,103);fill-rule:nonzero;stroke:black;stroke-width:0.13px;"/>
                </g>
                <g transform="matrix(1,0,0,1,1460.26,459.286)">
                    <path d="M0,4.323L3.744,-0.398L-0.207,4.721L0,4.323Z" style="fill:rgb(106,102,103);fill-rule:nonzero;stroke:black;stroke-width:0.13px;"/>
                </g>
                <g transform="matrix(1,0,0,1,1686.92,512.422)">
                    <path d="M0,-42.004L-6.683,-42.004L-14.213,-40.101L-18.485,-36.632L-20.896,-34.686L-24.872,-27.961L-25.845,-26.353L-26.31,-25.422L-28.425,-17.132L-28.764,-15.82L-28.764,-5.584L-26.776,2.2L-30.16,2.2L-32.571,-7.318L-33.248,-17.132L-30.456,-27.961L-24.788,-36.632L-17.385,-42.258L-8.968,-44.204L-5.541,-43.442L-5.034,-43.316L-4.738,-43.231L-4.653,-43.231L-4.399,-43.189L-0.423,-42.3L-0.38,-42.258L0,-42.004Z" style="fill:rgb(77,77,77);fill-rule:nonzero;"/>
                </g>
                <g transform="matrix(1,0,0,1,1483.86,445.267)">
                    <path d="M0,-3.984L-2.783,-0.135L-3.359,0L-2.322,-1.231L-1.349,-2.385L-1.129,-2.643L-0.685,-3.168L0,-3.984Z" style="fill:rgb(106,102,103);fill-rule:nonzero;stroke:black;stroke-width:0.13px;"/>
                </g>
                <g transform="matrix(1,0,0,1,1500.92,507.641)">
                    <path d="M0,-37.223L-9.518,-37.223L-17.089,-35.32L-18.612,-34.093L-23.773,-29.905L-26.776,-24.787L-28.68,-21.572L-29.187,-20.641L-31.048,-13.324L-31.641,-11.039L-31.641,-0.803L-30.16,5.034L-31.048,5.034L-33.29,-4.652L-34.348,-13.324L-32.825,-24.787L-28.087,-34.093L-20.727,-40.142L-12.267,-42.257L-3.765,-40.142L-3.722,-40.142L-3.638,-40.099L0,-37.223Z" style="fill:rgb(77,77,77);fill-rule:nonzero;"/>
                </g>
                <g transform="matrix(1,0,0,1,1533.49,428.089)">
                    <path d="M0,2.445L-0.313,-1.294L-0.503,-2.288L-0.672,-3.168L-1.011,-3.705L-1.29,-4.141L-1.464,-4.213L-1.992,-4.429L-3.617,-4.577L-5.321,-4.733L-5.351,-4.733L-8.659,-4.319L-9.873,-3.621L-10.389,-2.935L-10.731,-0.948L-10.879,1.062L-10.655,4.238L-9.843,6.519L-9.192,7.009L-7.089,7.178L-3.968,7.064L-1.354,7.009L-0.508,6.459L0.047,2.995L0,2.445Z" style="fill:rgb(240,253,253);fill-rule:nonzero;stroke:black;stroke-width:0.13px;"/>
                </g>
                <g transform="matrix(1,0,0,1,1827.14,430.027)">
                    <path d="M0,-4.941L-0.275,-5.432L-0.664,-6.129L-0.888,-6.531L2.187,1.59L3.655,1.59L0,-4.941Z" style="fill:rgb(239,163,194);fill-rule:nonzero;"/>
                </g>
                <g transform="matrix(-0.999937,-0.0112352,-0.0112352,0.999937,1833.82,451.6)">
                    <path d="M-0.03,-7.412L2.195,-7.412L0.97,-0.019L-2.267,0L-0.03,-7.412Z" style="fill:rgb(239,163,194);fill-rule:nonzero;"/>
                </g>
                <g transform="matrix(-1,0,0,1,1832.08,442.624)">
                    <path d="M0.672,-9.23L2.208,-9.23L0.609,-0.051L-1.536,0L0.672,-9.23Z" style="fill:rgb(239,163,194);fill-rule:nonzero;"/>
                </g>
                <g transform="matrix(1,0,0,1,1838.88,456.464)">
                    <path d="M0,-3.337L-2.487,-3.442L-5.812,-3.502L-5.249,0.14L-1.802,0.157L0.068,0.165L0,-3.337Z" style="fill:rgb(239,163,194);fill-rule:nonzero;"/>
                </g>
                <g transform="matrix(-0.378375,-0.925652,-0.925652,0.378375,1740.75,421.779)">
                    <path d="M-10.073,1.357L-1.299,1.357L-0.921,7.514L-8.327,5.629L-10.073,1.357Z" style="fill:rgb(239,163,194);fill-rule:nonzero;"/>
                </g>
                <g transform="matrix(0.999939,-0.0110097,-0.0110097,-0.999939,1741.27,442.638)">
                    <path d="M-0.051,0.015L4.582,0.015L2.729,9.215L-1.874,9.266L-0.051,0.015Z" style="fill:rgb(239,163,194);fill-rule:nonzero;"/>
                </g>
                <g transform="matrix(1,0,0,1,1743.16,456.594)">
                    <path d="M0,-3.573L-10.211,-3.468L-15.575,-3.379L-14.446,0.06L-10.833,0.044L-5.622,0.035L0.08,0.027L5.414,0.01L4.712,-3.633L0,-3.573Z" style="fill:rgb(239,163,194);fill-rule:nonzero;"/>
                </g>
                <g transform="matrix(0.999933,-0.0115879,-0.0115879,-0.999933,1742.9,451.645)">
                    <path d="M-0.043,0.02L4.703,0.02L3.355,7.443L-1.264,7.472L-0.043,0.02Z" style="fill:rgb(239,163,194);fill-rule:nonzero;"/>
                </g>
                <g transform="matrix(1,0,0,1,1470.78,444.036)">
                    <path d="M0,6.671L3.308,6.527L7.035,3.452L9.72,1.232L10.757,0L0,6.671Z" style="fill:rgb(244,197,63);fill-rule:nonzero;stroke:black;stroke-width:0.13px;"/>
                </g>
                <g transform="matrix(0.771195,-0.636599,-0.636599,-0.771195,1467.42,460.53)">
                    <path d="M-1.237,3.441L0.962,3.441L9.574,3.441L7.007,5.373L-1.237,3.441Z" style="fill:rgb(244,197,63);fill-rule:nonzero;stroke:black;stroke-width:0.13px;"/>
                </g>
                <g transform="matrix(1,0,0,1,1838.95,422.823)">
                    <path d="M0,33.806L-1.87,33.798L-5.317,33.781L-5.88,30.139L-2.555,30.198L-0.068,30.304L-0.664,28.904L-2.86,28.802L-6.096,28.747L-7.238,21.34L-5.013,21.366L-2.881,21.412L-3.342,19.889L-5.338,19.801L-7.483,19.75L-9.082,10.571L-7.288,10.571L-8.151,8.794L-9.619,8.794L-12.694,0.673L-13.604,-0.66L-9.306,10.046L-5.317,34.436L-1.392,34.453L0.744,34.466L0,33.806Z" style="fill:rgb(230,230,230);fill-rule:nonzero;"/>
                </g>
                <g transform="matrix(1,0,0,1,1482.66,442.497)">
                    <path d="M0,-1.354L-0.372,0.279L0.072,0.126L0.516,-0.398L1.201,-1.214L0.825,-1.633L0,-1.354Z" style="fill:rgb(230,230,230);fill-rule:nonzero;"/>
                </g>
                <g transform="matrix(1,0,0,1,1469.4,450.564)">
                    <path d="M0,1.362L3.21,1.218L4.255,0.355L4.687,0L1.379,0.144L0,1.362Z" style="fill:rgb(230,230,230);fill-rule:nonzero;"/>
                </g>
                <g transform="matrix(1,0,0,1,1745.86,436.905)">
                    <path d="M0,5.668L-4.632,5.719L-14.991,5.808L-21.531,5.884L-23.358,-0.237L-23.117,-3.511L-1.954,-3.511L0,5.668ZM-3.003,14.72L-13.223,14.822L-18.735,14.902L-19.932,11.248L-21.087,7.373L-14.53,7.331L-4.311,7.284L0.309,7.258L1.743,14.665L-3.003,14.72ZM-2.619,19.716L-8.321,19.724L-13.532,19.733L-17.144,19.75L-18.274,16.311L-12.91,16.222L-2.699,16.116L2.013,16.057L2.715,19.699L-2.619,19.716ZM-18.616,-7.69L-11.709,-11.43L-5.867,-13.409L-2.547,-5.288L-22.965,-5.288L-18.616,-7.69ZM-5.432,-14.742L-12.039,-12.64L-19.843,-8.68L-24.75,-6.129L-25.207,-0.778L-21.522,11.396L-18.79,20.41L-14.158,20.393L-8.274,20.384L-1.823,20.372L4.221,20.355L-0.796,-4.036L-5.432,-14.742Z" style="fill:rgb(230,230,230);fill-rule:nonzero;"/>
                </g>
                <g transform="matrix(1,0,0,1,1804.62,392.303)">
                    <path d="M0,19.091L-13.346,13.558L-16.264,12.344L-39.534,4.383L-45.367,2.391L-45.583,2.315L-48.243,1.405L-53.611,0.407L-67.375,-0.693L-81.681,-0.896L-96.892,-0.693L-112.467,0.407L-116.025,1.405L-115.53,2.602L-84.795,13.393L-68.547,19.091L-64.063,19.987L-55.916,19.091L-42.215,18.389L-28.641,18.139L-15.211,18.389L-3.562,19.091L0.339,19.975L0.376,19.984L0,19.091Z" style="fill:rgb(224,247,251);fill-rule:nonzero;"/>
                </g>
                <g transform="matrix(1,0,0,1,1666.78,425.945)">
                    <path d="M0,-26.421L-27.266,-32.478L-48.095,-33.523L-54.089,-13.211L-58.382,7.102L4.624,3.773L1.536,-11.324L0,-26.421Z" style="fill:rgb(224,247,251);fill-rule:nonzero;"/>
                </g>
                <g transform="matrix(1,0,0,1,1590.31,436.753)">
                    <path d="M0,-42.791L-13.642,-38.02L-30.46,-30.109L-45.637,-21.438L-53.518,1.54L6.785,-2.982L13.13,-23.659L21.455,-44.331L0,-42.791Z" style="fill:rgb(224,247,251);fill-rule:nonzero;"/>
                </g>
                <g transform="matrix(1,0,0,1,1524.75,435.408)">
                    <path d="M0,0.803L-1.256,0.578L-2.703,0.317L-4.234,-0.326L-4.653,-0.999L-5.101,-1.722L-5.376,-2.678L-5.414,-2.653L-5.698,-0.153L-2.5,1.911L4.323,3.481L5.592,1.078L2.445,0.807L0,0.803Z" style="fill:rgb(224,247,251);fill-rule:nonzero;"/>
                </g>
                <g transform="matrix(1,0,0,1,1672.36,425.725)">
                    <path d="M0,-19.238L0.723,-10.642L2.728,0L13.409,-4.331L19.281,-8.451L18.802,-10.697L0,-19.238Z" style="fill:rgb(224,247,251);fill-rule:nonzero;"/>
                </g>
                <g transform="matrix(1,0,0,1,1532.03,424.993)">
                    <path d="M0,-1.117L0.174,-1.045L0.453,-0.609L0.791,-0.072L0.96,0.808L1.151,1.802L1.464,5.541L7.919,-6.658L0,-1.117Z" style="fill:rgb(224,247,251);fill-rule:nonzero;"/>
                </g>
                <g transform="matrix(1,0,0,1,1826.85,422.027)">
                    <path d="M0,0.644L-0.135,-2.415L-1.506,0.136L-0.596,1.468L-0.372,1.871L0.017,2.568L0.292,3.059L0,0.644Z" style="fill:rgb(102,215,233);fill-rule:nonzero;"/>
                </g>
                <g transform="matrix(1,0,0,1,1608.39,398.017)">
                    <path d="M0,35.03L4.293,14.718L10.287,-5.595L31.116,-4.55L58.382,1.507L59.918,16.604L63.006,31.701L0,35.03ZM-71.606,40.275L-63.725,17.298L-48.548,8.626L-31.729,0.716L-18.088,-4.055L3.367,-5.595L-4.958,15.077L-11.302,35.753L-71.606,40.275ZM66.699,27.708L64.694,17.065L63.97,8.47L82.773,17.01L83.25,19.256L77.379,23.376L66.699,27.708ZM60.087,-0.519L33.273,-6.479L12.656,-7.512L4.175,-7.512L-16.924,-5.997L-31.15,-1.018L-48.451,7.116L-66.889,17.653L-69.173,18.956L-78.517,25.495L-76.893,25.643L-76.364,25.86L-68.446,20.318L-74.901,32.517L-74.854,33.067L-72.705,33.989L-72.422,35.821L-72.925,38.35L-74.6,38.765L-78.048,38.469L-79.317,40.872L-86.14,39.302L-89.338,37.238L-89.054,34.738L-89.016,34.713L-89.105,34.404L-89.063,32.872L-92.4,35.207L-92.684,38.008L-88.674,40.601L-80.379,42.542L-6.781,37.272L65.451,33.456L81.508,26.942L94.282,17.974L93.584,14.696L60.087,-0.519Z" style="fill:rgb(221,221,221);fill-rule:nonzero;"/>
                </g>
                <g transform="matrix(1,0,0,1,1825.35,430.212)">
                    <path d="M0,-8.049L-2.805,-9.284L-9.801,-9.872L-23.274,-10.397L-37.579,-10.706L-52.097,-10.397L-67.591,-9.872L-77.502,-9.284L-84.922,-8.049L-80.286,2.657L-42.905,2.657L-40.748,-0.524L-38.341,-1.987L-31.89,-1.987L-29.344,-0.524L-25.731,2.657L4.298,2.657L0,-8.049Z" style="fill:rgb(221,221,221);fill-rule:nonzero;"/>
                </g>
                <g transform="matrix(1,0,0,1,1740.56,389.617)">
                    <path d="M0,22.673L-4.484,21.777L-20.731,16.078L-51.466,5.288L-51.961,4.091L-48.404,3.092L-32.829,1.993L-17.618,1.79L-3.312,1.993L10.452,3.092L15.82,4.091L18.481,5L18.697,5.076L24.53,7.069L47.799,15.029L50.718,16.243L64.063,21.777L64.44,22.669L64.402,22.66L60.502,21.777L48.852,21.074L35.422,20.824L21.848,21.074L8.147,21.777L0,22.673ZM11.971,23.189L25.236,22.589L39.381,22.276L52.955,22.589L65.032,23.189L73.352,24.687L73.678,24.767L75.725,25.275L76.461,25.414L56.775,17.051L18.015,3.207L-9.649,-2.005L-11.485,-2.216L16.4,2.974L7.106,1.485L-7.157,0.571L-21.569,0.373L-36.221,0.571L-51.594,1.485L-62.3,2.974L-90.421,-2.216L-113.254,-3.549L-125.669,-3.447L-127.404,-3.354L-127.619,-3.342L-115.255,-3.342L-92.311,-2.005L-64.647,3.207L-26.734,17.051L-5.148,26.222L1.95,24.687L11.971,23.189Z" style="fill:rgb(221,221,221);fill-rule:nonzero;"/>
                </g>
                <g transform="matrix(1,0,0,1,1651.4,447.388)">
                    <path d="M0,0.015L0.021,0.346L0.16,-0.331L0,0.015Z" style="fill:rgb(106,102,103);fill-rule:nonzero;"/>
                </g>
                <g transform="matrix(1,0,0,1,1651.4,447.387)">
                    <path d="M0,0.017L0.161,-0.33L0.021,0.347L0,0.017Z" style="fill:none;fill-rule:nonzero;stroke:black;stroke-width:0.13px;"/>
                </g>
                <g transform="matrix(1,0,0,1,1846.58,482.246)">
                    <path d="M0,0.977L-1.764,-13.854L-3.947,-21.725L-4.869,-22.813L-6.882,-24.957L-9.018,-24.97L-12.944,-24.987L-14.746,-21.818L-17.601,-18.942L-21.886,-17.242L-29.199,-16.265L-73.598,-16.265L-81.905,-17.242L-88.17,-18.942L-91.956,-21.265L-92.679,-21.856L-96.499,-24.987L-102.543,-24.97L-108.994,-24.957L-114.878,-24.949L-119.51,-24.932L-146.853,-21.835L-159.335,-15.469L-160.063,-12.111L-160.033,-12.089L-159.665,-11.823L-157.051,-9.937L-152.318,-6.515L-150.897,-4.501L-146.193,2.157L-145.457,3.824L-141.417,12.986L-140.986,14.035L-138.169,20.866L-136.768,24.902L-136.4,25.964L-129.07,25.122L-119.083,24.14L-110.47,23.447L-102.996,22.965L-10.6,22.965L-8.87,23.447L-6.4,19.767L-5.224,16.573L-3.896,13.379L-3.295,5.097L-3.397,5.097L0,0.977Z" style="fill:rgb(102,215,233);fill-rule:nonzero;"/>
                </g>
                <g transform="matrix(1,0,0,1,1472.85,503.152)">
                    <path d="M0,-29.611L-1.658,-32.356L-12.817,-33.042L-12.796,-39.145L-12.956,-38.968L-17.419,-33.993L-19.919,-31.095L-22.271,-29.095L-21.776,-12.585L-16.945,-1.706L-18.003,-0.157L-17.157,5.337L-15.308,6.035L-10.169,7.656L-2.953,9.534L-5.211,-0.157L-6.273,-8.824L-4.75,-20.3L0,-29.611Z" style="fill:rgb(102,215,233);fill-rule:nonzero;"/>
                </g>
                <g transform="matrix(1,0,0,1,1663.6,487.719)">
                    <path d="M0,-38.818L-9.636,-38.818L-9.818,-38.653L-11.15,-38.996L-12.182,-39.985L-12.204,-40.316L-12.043,-40.662L-11.924,-41.225L-11.734,-41.314L-11.104,-41.61L-10.414,-41.872L-8.942,-42.151L0.694,-42.151L1.7,-41.986L3.024,-41.627L3.689,-41.187L3.304,-39.342L2.462,-38.902L1.011,-38.653L0.241,-38.78L0,-38.818ZM-1.933,-37.067L-1.362,-37.312L-1.362,-37.308L-1.933,-37.067ZM-65.569,-46.872L-67.524,-33.518L-69.228,-14.39L-68.56,2.082L-68.471,2.822L-65.151,17.428L-14.103,17.428L-13.439,2.082L-6.48,-14.39L-2.25,-19.741L5.99,-28.404L6.671,-35.853L9.974,-50.941L10.245,-56.246L-61.986,-52.43L-65.569,-46.872Z" style="fill:rgb(102,215,233);fill-rule:nonzero;"/>
                </g>
                <g transform="matrix(1,0,0,1,1589.62,488.934)">
                    <path d="M0,-37.431L-9.657,-37.431L-9.835,-37.321L-11.193,-37.668L-12.123,-38.451L-12.288,-38.603L-12.14,-39.69L-12.115,-39.872L-12.06,-39.897L-10.803,-40.498L-10.647,-40.532L-9.192,-40.841L0.465,-40.841L1.485,-40.731L2.834,-40.358L3.528,-39.91L3.27,-38.019L2.453,-37.571L1.015,-37.321L0.199,-37.41L0,-37.431ZM5.423,0.867L4.755,-15.604L6.459,-34.732L8.414,-48.087L11.996,-53.645L-61.601,-48.374L-65.929,-43.907L-69.511,-31.991L-70.81,-15.604L-68.919,0.867L-64.685,16.214L8.832,16.214L5.512,1.608L5.423,0.867Z" style="fill:rgb(102,215,233);fill-rule:nonzero;"/>
                </g>
                <g transform="matrix(1,0,0,1,1729.08,389.313)">
                    <path d="M0,-1.912L-9.606,-2.999L-24.547,-3.913L-48.628,-4.924L-63.285,-5.19L-76.639,-5.19L-90.696,-4.827L-105.936,-4.124L-115.919,-3.05L-114.185,-3.143L-101.77,-3.245L-78.936,-1.912L-50.815,3.278L-40.109,1.789L-24.737,0.876L-10.084,0.677L4.327,0.876L18.591,1.789L27.884,3.278L0,-1.912Z" style="fill:rgb(102,215,233);fill-rule:nonzero;"/>
                </g>
                <g transform="matrix(1,0,0,1,1483.48,431.588)">
                    <path d="M0,9.276L11.319,4.297L20.075,1.899L26.767,0L12.863,3.498L0,9.276Z" style="fill:rgb(102,215,233);fill-rule:nonzero;"/>
                </g>
                <g transform="matrix(1,0,0,1,1735.41,485.047)">
                    <path d="M0,-69.207L-21.585,-78.378L-59.499,-92.223L-87.163,-97.434L-110.107,-98.771L-122.471,-98.771L-138.672,-97.032L-155.888,-91.724L-174.47,-83.293L-196.048,-70.81L-210.768,-61.31L-212.595,-61.039L-210.578,-61.276L-209.216,-61.538L-208.645,-61.585L-207.27,-61.69L-207.24,-61.69L-205.536,-61.534L-196.192,-68.074L-193.907,-69.376L-175.469,-79.914L-158.168,-88.047L-143.943,-93.026L-122.843,-94.541L-114.362,-94.541L-93.745,-93.509L-66.931,-87.548L-33.434,-72.333L-32.736,-69.055L-45.51,-60.087L-61.568,-53.573L-61.838,-48.269L-65.142,-33.18L-65.823,-25.731L-74.063,-17.068L-78.293,-11.717L-85.251,4.754L-85.915,20.101L-210.48,20.101L-214.714,4.754L-216.605,-11.717L-215.307,-28.104L-211.724,-40.02L-207.397,-44.487L-215.692,-46.429L-219.702,-49.021L-219.418,-51.822L-216.081,-54.157L-216.073,-54.538L-216.034,-55.904L-215.916,-56.259L-215.167,-58.471L-217.291,-57.101L-220.7,-53.556L-225.163,-53.459L-231.854,-51.56L-240.611,-49.161L-251.93,-44.183L-251.554,-43.764L-254.337,-39.915L-254.912,-39.779L-257.598,-37.559L-261.325,-34.483L-261.756,-34.128L-262.801,-33.265L-269.443,-27.783L-271.139,-26.383L-271.409,-26.159L-275.36,-21.04L-275.381,-14.936L-264.223,-14.251L-262.564,-11.506L-255.221,-17.563L-246.774,-19.661L-238.238,-17.563L-238.204,-17.555L-238.145,-17.508L-234.49,-14.624L-232.096,-12.737L-230.518,-11.493L-227.857,-7.301L-224.604,-2.174L-223.644,1.023L-221.157,9.306L-220.738,11.235L-218.382,22.102L-218.331,22.33L-216.495,29.564L-78.648,29.564L-81.051,20.071L-81.749,10.249L-78.936,-0.588L-73.302,-9.276L-65.874,-14.89L-57.443,-16.84L-54.017,-16.066L-53.526,-15.956L-53.133,-15.867L-52.892,-15.812L-48.899,-14.911L-48.171,-18.269L-35.688,-24.636L-8.346,-27.732L-11.078,-36.746L-14.763,-48.92L-14.306,-54.271L-9.399,-56.822L-1.594,-60.781L5.013,-62.883L7.09,-65.434L0,-69.207Z" style="fill:rgb(102,215,233);fill-rule:nonzero;"/>
                </g>
                <g transform="matrix(1,0,0,1,1533.54,429.469)">
                    <path d="M0,1.615L-0.554,5.079L-1.4,5.63L-4.014,5.684L-7.136,5.799L-9.238,5.63L-9.89,5.138L-10.702,2.859L-10.926,-0.318L-10.778,-2.327L-10.435,-4.315L-9.92,-5.001L-8.705,-5.698L-10.723,-5.462L-11.531,-4.937L-11.984,-4.789L-12.36,-4.472L-12.974,-3.85L-13.295,-2.894L-14.044,-0.682L-14.162,-0.326L-14.2,1.04L-14.209,1.421L-14.251,2.952L-14.162,3.261L-13.887,4.217L-13.439,4.94L-13.02,5.613L-11.489,6.256L-10.042,6.517L-8.786,6.742L-6.341,6.746L-3.194,7.017L0.254,7.313L1.929,6.898L2.432,4.369L2.149,2.537L0,1.615Z" style="fill:rgb(224,247,251);fill-rule:nonzero;"/>
                </g>
                <g transform="matrix(1,0,0,1,1799.61,461.336)">
                    <path d="M0,-28.467L-3.612,-31.648L-6.159,-33.112L-12.609,-33.112L-15.016,-31.648L-17.174,-28.467L-54.554,-28.467L-49.537,-4.077L-45.718,-0.946L-44.994,-0.355L-41.209,1.968L-34.944,3.668L-26.636,4.645L17.762,4.645L25.076,3.668L29.361,1.968L32.216,-0.908L34.018,-4.077L30.029,-28.467L0,-28.467Z" style="fill:rgb(102,215,233);fill-rule:nonzero;"/>
                </g>
                <g transform="matrix(-0.390004,-0.920813,-0.920813,0.390004,1836.98,434.3)">
                    <path d="M-7.213,4.541L2.907,4.541L3.008,4.778L-6.352,6.345L-7.213,4.541Z" style="fill:rgb(224,247,251);fill-rule:nonzero;"/>
                </g>
                <g transform="matrix(-0.999767,-0.021571,-0.021571,0.999767,1836.07,451.681)">
                    <path d="M0.164,-7.444L2.297,-7.444L-0.016,-0.056L-2.213,-0.002L0.164,-7.444Z" style="fill:rgb(224,247,251);fill-rule:nonzero;"/>
                </g>
                <g transform="matrix(1,0,0,1,1499.83,517.812)">
                    <path d="M0,-32.195L-4.467,-35.841L-9.551,-37.11L-14.631,-35.841L-19.099,-32.195L-22.419,-26.603L-24.183,-19.746L-24.183,-12.449L-22.419,-5.588L-19.099,-0.001L-14.631,3.65L-9.551,4.915L-4.467,3.65L0,-0.001L3.321,-5.588L5.085,-12.449L5.085,-19.746L3.321,-26.603L0,-32.195Z" style="fill:white;fill-rule:nonzero;"/>
                </g>
                <g transform="matrix(1,0,0,1,1688.7,517.812)">
                    <path d="M0,-32.195L-4.467,-35.841L-9.551,-37.11L-14.631,-35.841L-19.099,-32.195L-22.419,-26.603L-24.183,-19.746L-24.183,-12.449L-22.419,-5.588L-19.099,-0.001L-14.631,3.65L-9.551,4.915L-4.467,3.65L0,-0.001L3.316,-5.588L5.085,-12.449L5.085,-19.746L3.316,-26.603L0,-32.195Z" style="fill:white;fill-rule:nonzero;"/>
                </g>
                <g transform="matrix(1,0,0,1,1482.51,450.45)">
                    <path d="M0,-7.568L0.22,-7.826L-0.224,-7.673L-11.73,0.258L-0.973,-6.413L0,-7.568Z" style="fill:rgb(224,247,251);fill-rule:nonzero;"/>
                </g>
                <g transform="matrix(-0.879443,0.476004,0.476004,0.879443,1729.3,432.844)">
                    <path d="M-7.766,-4.175L0.089,-4.175L5.056,-4.131L-8.842,3.391L-7.766,-4.175Z" style="fill:white;fill-rule:nonzero;"/>
                </g>
                <g transform="matrix(1,0,0,1,1740.42,411.892)">
                    <path d="M0,10.271L7.42,9.036L17.33,8.448L32.825,7.923L47.342,7.614L61.648,7.923L75.12,8.448L82.117,9.036L84.922,10.271L86.292,7.72L85.725,6.007L84.71,5.187L79.283,3.664L76.597,3.139L75.861,3L73.814,2.492L73.488,2.412L65.167,0.914L53.091,0.313L39.517,0L25.371,0.313L12.106,0.914L2.085,2.412L-5.012,3.947L2.077,7.72L0,10.271Z" style="fill:rgb(102,215,233);fill-rule:nonzero;"/>
                </g>
                <g transform="matrix(1,0,0,1,1731.33,451.761)">
                    <path d="M0,-7.526L-6.556,-7.484L-5.402,-3.609L-4.205,0.046L1.307,-0.034L11.527,-0.136L10.22,-7.572L0,-7.526Z" style="fill:white;fill-rule:nonzero;"/>
                </g>
                <g transform="matrix(1,0,0,1,1741.22,433.559)">
                    <path d="M0,9.065L-1.925,-0.165L-18.485,-0.165L-18.726,3.109L-16.899,9.23L-10.359,9.154L0,9.065Z" style="fill:white;fill-rule:nonzero;"/>
                </g>
                <g transform="matrix(-0.996473,0.0839135,0.0839135,0.996473,1526.22,423.689)">
                    <path d="M-0.565,-0.181L0.007,-0.181L1.387,-0.034L-1.944,-0.171L-0.565,-0.181Z" style="fill:rgb(224,247,251);fill-rule:nonzero;"/>
                </g>
                <g transform="matrix(1,0,0,1,1666.06,445.818)">
                    <path d="M0,2.999L0.842,2.559L1.227,0.715L0.562,0.275L-0.761,-0.085L-1.768,-0.25L-11.404,-0.25L-12.876,0.029L-13.566,0.291L-14.196,0.588L-14.386,0.677L-14.505,1.239L-14.644,1.916L-13.612,2.906L-12.28,3.249L-12.098,3.083L-2.462,3.083L-2.221,3.122L-1.451,3.249L0,2.999Z" style="fill:rgb(102,215,233);fill-rule:nonzero;"/>
                </g>
                <g transform="matrix(1,0,0,1,1591.1,451.503)">
                    <path d="M0,-3.3L-1.019,-3.41L-10.676,-3.41L-12.131,-3.101L-12.288,-3.067L-13.544,-2.467L-13.599,-2.441L-13.625,-2.259L-13.773,-1.172L-12.677,-0.237L-11.319,0.11L-11.142,0L-1.484,0L-1.286,0.021L-0.469,0.11L0.969,-0.14L1.785,-0.588L2.043,-2.479L1.35,-2.927L0,-3.3Z" style="fill:rgb(102,215,233);fill-rule:nonzero;"/>
                </g>
                <g transform="matrix(1,0,0,1,1504.9,498.082)">
                    <path d="M0,7.276L-1.734,14.129L-5.076,19.712L-9.517,23.392L-14.636,24.661L-19.712,23.392L-24.153,19.712L-27.495,14.129L-29.229,7.276L-29.229,-0L-27.495,-6.852L-24.153,-12.478L-19.712,-16.116L-14.636,-17.385L-9.517,-16.116L-5.076,-12.478L-1.734,-6.852L0,-0L0,7.276ZM12.182,9.306L12.14,9.052L9.771,-1.819L9.348,-3.722L6.853,-12.013L5.922,-15.228L2.665,-20.346L0,-24.534L-1.565,-25.761L-3.976,-27.664L-13.494,-27.664L-21.066,-25.761L-22.588,-24.534L-27.749,-20.346L-30.752,-15.228L-32.656,-12.013L-33.163,-11.082L-35.025,-3.765L-35.617,-1.48L-35.617,8.756L-34.136,14.593L-33.163,18.359L-33.036,18.57L-32.656,19.289L-27.749,27.622L-21.066,33.037L-13.494,34.94L-3.68,34.94L3.891,33.037L10.533,27.622L15.482,19.289L15.947,18.359L16.412,16.54L14.001,16.54L12.182,9.306Z" style="fill:rgb(142,142,142);fill-rule:nonzero;"/>
                </g>
                <g transform="matrix(1,0,0,1,1811.62,533.022)">
                    <path d="M0,-24.83L-2.411,-24.534L-41.285,-19.712L-40.989,-18.4L-40.523,-16.581L-40.312,-16.243L-40.016,-15.651L-35.067,-7.318L-28.425,-1.903L-20.854,0L-11.04,0L-3.468,-1.903L3.172,-7.318L8.122,-15.651L8.629,-16.581L10.744,-24.83L0,-24.83Z" style="fill:rgb(142,142,142);fill-rule:nonzero;"/>
                </g>
                <g transform="matrix(1,0,0,1,1582.26,531.192)">
                    <path d="M0,-14.763L0.482,-13.828L5.419,-5.504L12.077,-0.068L19.644,1.819L29.47,1.819L37.038,-0.068L43.692,-5.504L48.632,-13.828L49.115,-14.763L49.584,-16.582L-0.47,-16.582L0,-14.763Z" style="fill:rgb(142,142,142);fill-rule:nonzero;"/>
                </g>
                <g transform="matrix(1,0,0,1,1693.77,498.082)">
                    <path d="M0,7.276L-1.777,14.129L-5.076,19.712L-9.56,23.392L-14.636,24.661L-19.712,23.392L-24.153,19.712L-27.495,14.129L-29.272,7.276L-29.272,-0L-27.495,-6.852L-24.153,-12.478L-19.712,-16.116L-14.636,-17.385L-9.56,-16.116L-5.076,-12.478L-1.777,-6.852L0,-0L0,7.276ZM16.032,9.052L14.636,5.034L11.802,-1.819L11.379,-2.834L7.36,-12.013L6.599,-13.663L1.904,-20.346L0.508,-22.334L-4.23,-25.761L-6.853,-27.664L-13.536,-27.664L-21.065,-25.761L-25.338,-22.292L-27.749,-20.346L-31.725,-13.62L-32.698,-12.013L-33.163,-11.082L-35.278,-2.792L-35.617,-1.48L-35.617,8.756L-33.629,16.54L-33.163,18.359L-33.079,18.485L-32.698,19.289L-27.749,27.622L-21.065,33.037L-13.536,34.94L-3.68,34.94L3.891,33.037L10.533,27.622L15.482,19.289L15.947,18.359L16.412,16.54L17.724,11.506L18.062,10.11L16.412,10.11L16.032,9.052Z" style="fill:rgb(142,142,142);fill-rule:nonzero;"/>
                </g>
            </g>
        </g>
    </g>
</svg>
