<?xml version="1.0" encoding="UTF-8" standalone="no"?>
<!DOCTYPE svg PUBLIC "-//W3C//DTD SVG 1.1//EN" "http://www.w3.org/Graphics/SVG/1.1/DTD/svg11.dtd">
<svg width="100%" height="100%" viewBox="0 0 360 180" version="1.1" xmlns="http://www.w3.org/2000/svg" xmlns:xlink="http://www.w3.org/1999/xlink" xml:space="preserve" xmlns:serif="http://www.serif.com/" style="fill-rule:evenodd;clip-rule:evenodd;stroke-linejoin:round;stroke-miterlimit:2;">
    <g transform="matrix(1,0,0,1,-359.697,-1823.88)">
        <g id="car-inbound">
            <g>
                <g transform="matrix(1,0,0,1,611.314,1929.16)">
                    <path d="M0,3.557L-1.592,10.684L2.998,8.387L5.596,4.925L6.424,0.593L5.9,-7.127L1.407,-6.926L0,3.557Z" style="fill:white;fill-rule:nonzero;"/>
                </g>
                <g transform="matrix(1,0,0,1,612.721,1941.41)">
                    <path d="M0,-19.176L-9.547,-18.774L-15.746,-18.573L-17.96,-13.169L-19.248,-8.82L-20.243,0L-2.999,-1.565L-1.407,-8.693L0,-19.176Z" style="fill:white;fill-rule:nonzero;"/>
                </g>
                <g transform="matrix(-0.0676296,-0.99771,-0.99771,0.0676296,618.501,1914.67)">
                    <path d="M-6.04,1.783L-1.737,1.783L1.698,3.149L-5.945,6.16L-6.04,1.783Z" style="fill:white;fill-rule:nonzero;"/>
                </g>
                <g transform="matrix(1,0,0,1,602.043,1919.62)">
                    <path d="M0,-4.808L-4.563,1.988L1.865,1.776L10.714,1.403L13.201,-6.426L11.562,-6.796L7.705,-6.532L0,-4.808Z" style="fill:white;fill-rule:nonzero;"/>
                </g>
                <g transform="matrix(1,0,0,1,469.673,1923.8)">
                    <path d="M0,16.046L17.243,17.611L16.248,8.792L14.96,4.442L12.747,-0.962L6.547,-1.163L-3,-1.565L-1.592,8.919L0,16.046Z" style="fill:white;fill-rule:nonzero;"/>
                </g>
                <g transform="matrix(1,0,0,1,469.673,1922.04)">
                    <path d="M0,17.812L-1.592,10.685L-3,0.201L-7.492,0L-8.016,7.72L-7.189,12.052L-4.59,15.514L0,17.812Z" style="fill:white;fill-rule:nonzero;"/>
                </g>
                <g transform="matrix(1,0,0,1,475.487,1913.03)">
                    <path d="M0,8.362L6.427,8.573L1.865,1.778L-5.841,0.053L-9.698,-0.211L-11.337,0.159L-8.85,7.988L0,8.362Z" style="fill:white;fill-rule:nonzero;"/>
                </g>
                <g transform="matrix(-0.431781,0.901978,0.901978,0.431781,468.11,1918.53)">
                    <path d="M-3.101,-5.875L0.595,-5.875L4.594,-4.284L2.886,-0.252L-3.101,-5.875Z" style="fill:white;fill-rule:nonzero;"/>
                </g>
                <g transform="matrix(-0.909688,0.415292,0.415292,0.909688,493.884,1969.35)">
                    <path d="M1.64,-0.424L1.69,-0.424L0.05,0.376L0.065,0.346L1.64,-0.424Z" style="fill:white;fill-rule:nonzero;"/>
                </g>
                <g transform="matrix(-0.304367,0.952555,0.952555,0.304367,490.201,1966.45)">
                    <rect x="-0.211" y="-0.184" width="0.321" height="0.037" style="fill:white;"/>
                </g>
                <g transform="matrix(1,0,0,1,494.127,1969.65)">
                    <path d="M0,-6.084L-1.941,-6.133L-3.494,-5.02L-4.006,-3.422L-4.099,-3.134L-3.494,-1.216L-1.911,0L-0.159,0.046L0.03,0.049L1.583,-1.064L2.188,-2.95L1.583,-4.868L0,-6.084Z" style="fill:white;fill-rule:nonzero;"/>
                </g>
                <g transform="matrix(-0.812692,0.582694,0.582694,0.812692,491.08,1965)">
                    <rect x="-1.751" y="-0.572" width="1.898" height="0.01" style="fill:white;"/>
                </g>
                <g transform="matrix(1,0,0,1,587.208,1969.7)">
                    <path d="M0,-6.183L-1.941,-6.134L-3.524,-4.917L-4.129,-3L-3.524,-1.114L-1.971,0L-1.782,-0.004L-0.03,-0.05L1.553,-1.266L2.158,-3.183L1.553,-5.069L0,-6.183Z" style="fill:white;fill-rule:nonzero;"/>
                </g>
                <g transform="matrix(1,0,0,1,587.224,1966.53)">
                    <path d="M0,-3.021L-0.016,-3.021L1.537,-1.907L2.142,-0.021L2.188,0L1.583,-1.886L0,-3.021Z" style="fill:white;fill-rule:nonzero;"/>
                </g>
                <g transform="matrix(1,0,0,1,627.086,1990.16)">
                    <path d="M0,11.294L0,-36.403L-0.659,-33.11L-2.179,-25.521L-2.301,-25.062L-2.698,-23.564L-4.477,-16.853L-5.849,-12.697L-7.675,-7.162L-18.496,-7.162L-18.496,11.294L-16.195,13.163L-2.301,13.163L0,11.294Z" style="fill:rgb(142,142,142);fill-rule:nonzero;"/>
                </g>
                <g transform="matrix(0.196288,0.980546,0.980546,-0.196288,458.518,1957.06)">
                    <path d="M-4.46,-5.441L-1.102,-5.441L6.639,-5.441L5.354,-5.41L-4.46,-5.441Z" style="fill:rgb(142,142,142);fill-rule:nonzero;"/>
                </g>
                <g transform="matrix(1,0,0,1,468.503,1974.08)">
                    <path d="M2.301,8.915L-8.521,8.915L-10.347,3.381L-11.718,-0.775L-13.498,-7.487L-13.894,-8.985L-14.016,-9.443L-15.536,-17.033L-16.196,-20.325L-16.196,27.372L-13.894,29.24L0,29.24L2.301,27.372L2.301,8.915Z" style="fill:rgb(142,142,142);fill-rule:nonzero;"/>
                </g>
                <g transform="matrix(1,0,0,1,599.751,1892.92)">
                    <path d="M0,-20.882L-2.655,-27.777L-5.319,-28.479L-14.254,-28.877L-39.071,-29.275L-60.054,-29.377L-81.038,-29.275L-105.855,-28.877L-114.79,-28.479L-117.453,-27.777L-120.109,-20.882L-123.553,-9.292L-125.934,3.197L-123.553,5.397L-115.929,7.695L-95.756,8.495L-24.353,8.495L-4.179,7.695L3.444,5.397L5.825,3.197L3.444,-9.292L0,-20.882Z" style="fill:rgb(214,238,246);fill-rule:nonzero;"/>
                </g>
                <g transform="matrix(1,0,0,1,473.197,1872.2)">
                    <path d="M0,-7.924L-3.002,0L-1.725,-3.151L0,-7.924Z" style="fill:rgb(214,238,246);fill-rule:nonzero;"/>
                </g>
                <g transform="matrix(1,0,0,1,454.278,1924.45)">
                    <path d="M0,-3.007L-0.135,-2.556L-0.149,-2.507L-0.207,-2.549L-0.065,-3.049L-0.092,-3.067L-0.324,-2.277L-0.586,0.06L0.005,-3.004L0,-3.007Z" style="fill:rgb(89,85,86);fill-rule:nonzero;"/>
                </g>
                <g transform="matrix(0.98257,-0.185892,-0.185892,-0.98257,453.853,1924.57)">
                    <path d="M-0.144,0.046L-0.107,0.046L0.491,1.54L0.444,1.546L-0.144,0.046Z" style="fill:rgb(89,85,86);fill-rule:nonzero;"/>
                </g>
                <g transform="matrix(1,0,0,1,573.091,1967.43)">
                    <path d="M9.798,0.671L-2.138,0.671L-2.144,0.752L9.979,0.752L10.187,1.4L10.234,1.421L9.545,-0.728L9.497,-0.75L9.582,-0.485L9.427,-0.485L9.798,0.671Z" style="fill:rgb(89,85,86);fill-rule:nonzero;"/>
                </g>
                <g transform="matrix(1,0,0,1,559.894,1968.19)">
                    <rect x="-51.23" y="-0.084" width="62.066" height="0.084" style="fill:rgb(89,85,86);fill-rule:nonzero;"/>
                </g>
                <g transform="matrix(1,0,0,1,570.73,1968.11)">
                    <path d="M0,0.084L0.056,0.084L0,0L0,0.084Z" style="fill:rgb(89,85,86);fill-rule:nonzero;"/>
                </g>
                <g transform="matrix(1,0,0,1,508.608,1968.11)">
                    <path d="M0,0.084L0.056,0.084L0.056,0L0,0.084Z" style="fill:rgb(89,85,86);fill-rule:nonzero;"/>
                </g>
                <g transform="matrix(1,0,0,1,571.189,1964.33)">
                    <path d="M-0.277,0.081L12.203,0.081L12.021,0L-0.459,0L-0.277,0.081Z" style="fill:rgb(89,85,86);fill-rule:nonzero;"/>
                </g>
                <g transform="matrix(1,0,0,1,571.073,1966.3)">
                    <path d="M11.456,-0.084L-0.343,-0.084L-0.162,0L11.637,0L11.456,-0.084Z" style="fill:rgb(89,85,86);fill-rule:nonzero;"/>
                </g>
                <g transform="matrix(1,0,0,1,515.36,1964.33)">
                    <rect x="-6.696" y="0" width="62.066" height="0.084" style="fill:rgb(89,85,86);fill-rule:nonzero;"/>
                </g>
                <g transform="matrix(1,0,0,1,570.786,1964.33)">
                    <path d="M0,0.084L-0.056,0L-0.056,0.084L0,0.084Z" style="fill:rgb(89,85,86);fill-rule:nonzero;"/>
                </g>
                <g transform="matrix(1,0,0,1,508.664,1964.33)">
                    <path d="M0,0.084L0,0L-0.056,0.084L0,0.084Z" style="fill:rgb(89,85,86);fill-rule:nonzero;"/>
                </g>
                <g transform="matrix(1,0,0,1,508.608,1966.22)">
                    <path d="M0,0.088L0.056,0.088L0.056,0L0,0.088Z" style="fill:rgb(89,85,86);fill-rule:nonzero;"/>
                </g>
                <g transform="matrix(1,0,0,1,562.012,1966.3)">
                    <path d="M0,-0.088L-3.992,-0.085L-40.638,-0.085L-44.631,-0.088L-53.348,-0.088L-53.348,0L8.718,0L8.718,-0.088L0,-0.088Z" style="fill:rgb(89,85,86);fill-rule:nonzero;"/>
                </g>
                <g transform="matrix(1,0,0,1,570.73,1966.22)">
                    <path d="M0,0.088L0.056,0.088L0,0L0,0.088Z" style="fill:rgb(89,85,86);fill-rule:nonzero;"/>
                </g>
                <g transform="matrix(1,0,0,1,508.321,1966.3)">
                    <path d="M0.343,-0.084L-11.456,-0.084L-11.637,0L0.162,0L0.343,-0.084Z" style="fill:rgb(89,85,86);fill-rule:nonzero;"/>
                </g>
                <g transform="matrix(1,0,0,1,506.408,1967.35)">
                    <path d="M-10.084,0.833L2.039,0.833L2.034,0.752L-9.903,0.752L-9.532,-0.404L-9.687,-0.404L-9.602,-0.669L-9.649,-0.647L-10.339,1.502L-10.292,1.481L-10.084,0.833Z" style="fill:rgb(89,85,86);fill-rule:nonzero;"/>
                </g>
                <g transform="matrix(1,0,0,1,501.611,1964.33)">
                    <path d="M-5.608,0.081L6.872,0.081L7.053,0L-5.427,0L-5.608,0.081Z" style="fill:rgb(89,85,86);fill-rule:nonzero;"/>
                </g>
                <g transform="matrix(1,0,0,1,452.24,1906.53)">
                    <path d="M0,-0.092L-1.69,0L0.898,-0.014L0,-0.092Z" style="fill:rgb(89,85,86);fill-rule:nonzero;"/>
                </g>
                <g transform="matrix(1,0,0,1,453.64,1906.31)">
                    <path d="M0,0.176L-1.361,0.094L-2.969,0L-3.021,0.094L-1.4,0.134L0,0.176Z" style="fill:rgb(89,85,86);fill-rule:nonzero;"/>
                </g>
                <g transform="matrix(1,0,0,1,539.697,1970.44)">
                    <path d="M0,-0.103L-18.178,-0.092L-31.033,-0.082L-31.109,-0.046L-31.106,0L-18.173,-0.008L-18.176,-0.057L0,-0.018L18.176,-0.057L18.173,-0.008L31.106,0L31.109,-0.046L31.033,-0.082L18.178,-0.092L0,-0.103Z" style="fill:rgb(89,85,86);fill-rule:nonzero;"/>
                </g>
                <g transform="matrix(-0.1856,-0.982625,-0.982625,0.1856,626.264,1923.44)">
                    <rect x="-0.986" y="0.769" width="1.623" height="0.048" style="fill:rgb(89,85,86);"/>
                </g>
                <g transform="matrix(0.902481,0.43073,0.43073,-0.902481,454.869,1916.66)">
                    <path d="M0.353,0.003L0.402,0.003L-0.005,1.54L-0.048,1.566L0.353,0.003Z" style="fill:rgb(89,85,86);fill-rule:nonzero;"/>
                </g>
                <g transform="matrix(1,0,0,1,511.465,1933.64)">
                    <path d="M0,2.404L0.025,2.407L28.232,3.479L56.439,2.407L56.464,2.404L76.003,1.294L76.672,-1.075L56.439,-0.416L28.232,0.458L0.025,-0.416L-20.208,-1.075L-19.54,1.294L0,2.404Z" style="fill:rgb(221,221,221);fill-rule:nonzero;"/>
                </g>
                <g transform="matrix(1,0,0,1,511.49,1938.32)">
                    <path d="M0,4.042L28.207,5.752L56.414,4.042L74.916,0.383L75.508,-1.71L56.484,1.046L56.414,1.049L28.207,2.601L0,1.049L-0.069,1.046L-19.094,-1.71L-18.502,0.383L0,4.042Z" style="fill:rgb(221,221,221);fill-rule:nonzero;"/>
                </g>
                <g transform="matrix(1,0,0,1,628.948,1961.43)">
                    <path d="M0,-17.565L0.15,-23.628L0.129,-25.732L-0.062,-23.635L-0.062,-23.628L-0.399,-17.579L-0.401,-17.565L-1.742,-8.27L-1.747,-8.248L-1.862,-7.674L-1.862,8.167L-1.757,7.716L-1.097,4.847L-0.726,3.233L-0.303,-8.248L0,-17.565Z" style="fill:rgb(221,221,221);fill-rule:nonzero;"/>
                </g>
                <g transform="matrix(1,0,0,1,628.64,1955.71)">
                    <path d="M0,-14.601L-0.091,-11.855L0.246,-17.904L0.246,-17.911L0.437,-20.009L0.458,-17.904L0.308,-11.841L0.005,-2.524L-0.418,8.957L-0.339,7.694L-0.244,5.132L-0.24,5.005L0.005,-1.647L0.104,-4.351L0.128,-5.073L0.366,-12.37L0.385,-12.955L0.438,-14.583L0.536,-18.567L0.54,-18.694L0.546,-18.944L0.603,-21.242L0.579,-23.558L0.37,-21.253L0,-14.601Z" style="fill:rgb(221,221,221);fill-rule:nonzero;"/>
                </g>
                <g transform="matrix(1,0,0,1,454.278,1918.57)">
                    <path d="M0,2.873L0.005,2.876L0.014,2.884L0.059,2.912L0.061,2.898L0.106,2.665L0.146,2.464L0.225,2.055L0.359,1.361L0.489,0.684L0.567,0.275L0.597,0.12L0.627,-0.039L0.027,0.092L-0.606,1.248L-0.632,1.248L-0.472,2.556L-0.092,2.813L-0.065,2.831L0,2.873Z" style="fill:rgb(221,221,221);fill-rule:nonzero;"/>
                </g>
                <g transform="matrix(1,0,0,1,452.308,1938.38)">
                    <path d="M0,31.221L0,15.379L-0.115,14.805L-0.119,14.784L-1.46,5.488L-1.463,5.474L-1.799,-0.575L-1.8,-0.582L-1.99,-2.679L-2.011,-0.575L-1.862,5.488L-1.558,14.805L-1.135,26.286L-0.764,27.9L-0.104,30.77L0,31.221Z" style="fill:rgb(221,221,221);fill-rule:nonzero;"/>
                </g>
                <g transform="matrix(1,0,0,1,615.244,1940.37)">
                    <path d="M0,-27.173L1.596,-23.839L1.887,-19.545L-2.487,-19.344L-11.336,-18.97L-17.764,-18.759L-13.201,-25.555L-5.496,-27.279L-1.639,-27.543L0,-27.173ZM2.493,-10.609L1.666,-6.277L-0.932,-2.815L-5.522,-0.517L-22.766,1.048L-21.77,-7.772L-20.483,-12.121L-18.269,-17.525L-12.07,-17.726L-2.523,-18.128L1.969,-18.329L2.493,-10.609ZM-13.545,-27.053L-18.397,-19.823L-21.195,-12.995L-22.494,-8.611L-23.693,2.017L-5.422,0.022L-0.328,-2.526L2.609,-6.443L3.511,-11.163L2.587,-24.783L0.679,-28.77L-1.175,-29.19L-5.234,-28.911L-13.545,-27.053Z" style="fill:rgb(221,221,221);fill-rule:nonzero;"/>
                </g>
                <g transform="matrix(1,0,0,1,606.839,1895.32)">
                    <path d="M0,-28.013L3.297,-19.877L7.21,-9.341L7.681,-8.072L7.694,-8.037L8.479,-5.376L7.508,-9.694L6.67,-11.95L4.288,-18.365L3.87,-19.398L2.359,-23.124L1.082,-26.275L-0.643,-31.048L-1.354,-32.589L-0.643,-31.048L2.359,-23.124L3.87,-19.398L4.288,-18.365L6.67,-11.95L7.508,-9.694L8.515,-5.33L8.595,-4.984L9.768,-1.008L11.982,6.493L6.967,-12.105L-0.954,-32.589L-2.498,-34.506L-1.799,-32.991L0,-28.013Z" style="fill:rgb(221,221,221);fill-rule:nonzero;"/>
                </g>
                <g transform="matrix(1,0,0,1,607.921,1867.43)">
                    <path d="M0,1.622L1.277,4.773L-1.724,-3.151L0,1.622Z" style="fill:rgb(221,221,221);fill-rule:nonzero;"/>
                </g>
                <g transform="matrix(0.219394,0.975636,0.975636,-0.219394,617.068,1886.94)">
                    <path d="M-1.873,-2.368L2.553,-2.368L2.96,-2.341L2.606,-2.342L-1.873,-2.368Z" style="fill:rgb(221,221,221);fill-rule:nonzero;"/>
                </g>
                <g transform="matrix(1,0,0,1,608.59,1980.73)">
                    <path d="M-3.949,2.271L10.822,2.271L10.14,0.396L5.842,-1.226L-0.156,-1.924L-137.63,-1.924L-143.628,-1.226L-147.926,0.396L-148.607,2.271L-133.837,2.271L-133.837,4.195L-3.949,4.195L-3.949,2.271Z" style="fill:rgb(221,221,221);fill-rule:nonzero;"/>
                </g>
                <g transform="matrix(1,0,0,1,0,-4437.34)">
                    <rect x="470.804" y="6420.34" width="3.949" height="1.924" style="fill:rgb(221,221,221);"/>
                </g>
                <g transform="matrix(1,0,0,1,0,-4437.34)">
                    <rect x="604.641" y="6420.34" width="3.949" height="1.924" style="fill:rgb(221,221,221);"/>
                </g>
                <g transform="matrix(1,0,0,1,624.437,1916.64)">
                    <path d="M0,1.308L0.034,1.484L0.109,1.872L0.114,1.904L0.222,1.925L0.388,1.791L0.435,1.791L0.473,0.473L0.423,0.473L-0.317,-0.617L-0.37,-0.609L-0.299,-0.243L-0.211,-0.222L-0.288,-0.187L0,1.308Z" style="fill:rgb(221,221,221);fill-rule:nonzero;"/>
                </g>
                <g transform="matrix(1,0,0,1,625.748,1921.13)">
                    <path d="M0,-1.308L-0.184,0L-0.16,0L0,-1.308Z" style="fill:rgb(221,221,221);fill-rule:nonzero;"/>
                </g>
                <g transform="matrix(1,0,0,1,624.549,1921.16)">
                    <path d="M0,-2.309L0.079,-1.9L0.208,-1.224L0.343,-0.529L0.422,-0.12L0.461,0.081L0.506,0.314L1.015,-0.029L1.174,-1.336L0.54,-2.493L-0.06,-2.623L-0.03,-2.464L0,-2.309Z" style="fill:rgb(221,221,221);fill-rule:nonzero;"/>
                </g>
                <g transform="matrix(1,0,0,1,461.657,1923.8)">
                    <path d="M0,5.955L0.524,-1.765L5.016,-1.564L14.563,-1.162L20.763,-0.961L22.976,4.443L24.264,8.792L25.259,17.612L8.016,16.047L3.426,13.749L0.827,10.287L0,5.955ZM0.897,-7.274L2.493,-10.609L4.132,-10.979L7.989,-10.715L15.695,-8.991L20.257,-2.195L13.83,-2.406L4.98,-2.78L0.606,-2.981L0.897,-7.274ZM7.916,16.586L26.186,18.581L24.987,7.954L23.688,3.569L20.89,-3.259L16.038,-10.489L7.727,-12.347L3.668,-12.626L1.814,-12.206L-0.093,-8.219L-1.017,5.401L-0.116,10.122L2.822,14.038L7.916,16.586Z" style="fill:rgb(221,221,221);fill-rule:nonzero;"/>
                </g>
                <g transform="matrix(1,0,0,1,603.196,1865.63)">
                    <path d="M0,32.69L-7.623,34.988L-27.797,35.789L-99.2,35.789L-119.373,34.988L-126.997,32.69L-129.378,30.49L-126.997,18.002L-123.553,6.411L-120.898,-0.484L-118.234,-1.185L-109.299,-1.583L-84.482,-1.982L-63.499,-2.084L-42.515,-1.982L-17.698,-1.583L-8.763,-1.185L-6.1,-0.484L-3.444,6.411L0,18.002L2.381,30.49L0,32.69ZM4.343,17.984L0.746,6.44L-2.551,-1.996L-5.437,-2.201L-17.581,-3.096L-42.214,-3.48L-63.499,-3.582L-84.783,-3.48L-109.417,-3.096L-121.56,-2.201L-124.446,-1.996L-127.743,6.44L-131.34,17.984L-135.237,32.63L-133.521,36.173L-132.546,36.272L5.548,36.272L6.524,36.173L8.24,32.63L4.343,17.984Z" style="fill:rgb(221,221,221);fill-rule:nonzero;"/>
                </g>
                <g transform="matrix(1,0,0,1,478.75,1856.38)">
                    <path d="M0,7.251L2.886,7.046L5.131,1.773L6.05,0.099L6.05,0L3.198,0.205L2.498,1.946L0,7.251Z" style="fill:rgb(221,221,221);fill-rule:nonzero;"/>
                </g>
                <g transform="matrix(1,0,0,1,595.513,1861.86)">
                    <path d="M0,-3.705L2.245,1.568L5.131,1.773L2.633,-3.533L1.933,-5.274L-0.919,-5.478L-0.919,-5.38L0,-3.705Z" style="fill:rgb(221,221,221);fill-rule:nonzero;"/>
                </g>
                <g transform="matrix(-0.222595,0.974911,0.974911,0.222595,462.648,1887.09)">
                    <path d="M2.526,2.004L2.881,2.004L2.473,2.029L-1.953,2.014L2.526,2.004Z" style="fill:rgb(221,221,221);fill-rule:nonzero;"/>
                </g>
                <g transform="matrix(1,0,0,1,463.96,1872.3)">
                    <path d="M0,18.045L0.079,17.699L1.087,13.336L1.924,11.08L4.307,4.664L4.725,3.631L6.235,-0.095L9.237,-8.019L9.948,-9.559L9.237,-8.019L7.512,-3.246L6.235,-0.095L4.725,3.631L4.307,4.664L1.924,11.08L1.087,13.336L0.116,17.653L0.901,14.992L0.914,14.957L1.385,13.688L5.297,3.152L8.595,-4.984L10.393,-9.961L11.092,-11.477L9.549,-9.559L1.627,10.924L-3.387,29.522L-1.173,22.021L0,18.045Z" style="fill:rgb(221,221,221);fill-rule:nonzero;"/>
                </g>
                <g transform="matrix(1,0,0,1,570.911,1966.22)">
                    <path d="M0,-1.16L-0.125,-1.157L-62.303,-1.157L-62.428,-1.16L-74.411,-1.16L-74.046,-0.004L-53.53,-0.004L-49.537,0L-12.891,0L-8.899,-0.004L11.618,-0.004L11.983,-1.16L0,-1.16Z" style="fill:rgb(221,221,221);fill-rule:nonzero;"/>
                </g>
                <g transform="matrix(1,0,0,1,506.304,1966.95)">
                    <path d="M-9.798,1.156L76.585,1.156L76.214,0L64.608,0L64.482,0.003L2.305,0.003L2.18,0L-9.428,0L-9.798,1.156Z" style="fill:rgb(221,221,221);fill-rule:nonzero;"/>
                </g>
                <g transform="matrix(1,0,0,1,589.167,1964.5)">
                    <path d="M0,4.208L-1.805,5.593L-4.037,5.65L-4.265,5.547L-5.955,4.335L-18.256,4.335L-18.381,4.338L-80.559,4.338L-80.684,4.335L-92.985,4.335L-94.675,5.547L-94.903,5.65L-97.134,5.593L-98.939,4.208L-99.629,2.022L-98.939,-0.128L-97.134,-1.421L-96.906,-1.527L-94.675,-1.471L-92.983,-0.17L-5.957,-0.17L-4.265,-1.471L-2.033,-1.527L-1.805,-1.421L0,-0.128L0.69,2.022L0,4.208ZM-1.681,-1.598L-18.437,-1.598L-49.47,-1.65L-80.503,-1.598L-97.258,-1.598L-99.53,-0.36L-100.755,3.795L-100.562,4.772L-99.135,5.66L-80.503,5.858L-67.648,5.847L-49.47,5.836L-31.292,5.847L-18.437,5.858L0.195,5.66L1.623,4.772L1.816,3.795L0.591,-0.36L-1.681,-1.598Z" style="fill:rgb(221,221,221);fill-rule:nonzero;"/>
                </g>
                <g transform="matrix(1,0,0,1,583.07,1968.84)">
                    <path d="M0,-0.652L-12.159,-0.652L-12.284,-0.649L-74.462,-0.649L-74.587,-0.652L-86.746,-0.652L-86.954,-0.004L-74.587,-0.004L-74.462,0L-12.284,0L-12.159,-0.004L0.208,-0.004L0,-0.652Z" style="fill:rgb(221,221,221);fill-rule:nonzero;"/>
                </g>
                <g transform="matrix(1,0,0,1,589.366,1966.61)">
                    <path d="M0,-0.099L-0.605,1.819L-2.188,3.035L-3.941,3.081L-3.966,3.102L-4.099,3.106L-4.129,3.084L-5.682,1.97L-6.287,0.085L-5.682,-1.833L-4.099,-3.049L-2.158,-3.099L-2.142,-3.099L-0.559,-1.963L0.046,-0.078L0,-0.099ZM-6.657,-0.31L-18.455,-0.31L-18.581,-0.307L-80.758,-0.307L-80.883,-0.31L-92.682,-0.31L-92.501,-0.395L-92.866,-1.551L-93.073,-1.551L-80.883,-1.551L-80.758,-1.548L-18.581,-1.548L-18.455,-1.551L-6.266,-1.551L-6.473,-1.551L-6.837,-0.395L-6.657,-0.31ZM-93.656,1.97L-95.21,3.084L-95.24,3.106L-95.373,3.102L-97.197,3.056L-97.15,3.035L-98.734,1.819L-99.338,-0.099L-99.385,-0.078L-99.276,-0.416L-99.246,-0.388L-98.734,-1.985L-98.78,-1.963L-97.197,-3.099L-97.18,-3.099L-95.24,-3.049L-93.656,-1.833L-93.052,0.085L-93.656,1.97ZM-2.005,-3.532L-2.233,-3.638L-4.464,-3.581L-6.156,-2.281L-5.975,-2.2L-18.455,-2.2L-18.581,-2.196L-80.758,-2.196L-80.883,-2.2L-93.363,-2.2L-93.182,-2.281L-94.874,-3.581L-97.106,-3.638L-97.334,-3.532L-99.139,-2.239L-99.828,-0.088L-99.139,2.097L-97.334,3.483L-95.102,3.539L-94.874,3.437L-93.184,2.224L-93.25,2.224L-93.297,2.245L-92.607,0.095L-92.561,0.074L-92.645,0.338L-80.883,0.338L-80.758,0.342L-18.581,0.342L-18.455,0.338L-6.694,0.338L-6.778,0.074L-6.731,0.095L-6.042,2.245L-6.088,2.224L-6.154,2.224L-4.464,3.437L-4.236,3.539L-2.005,3.483L-0.2,2.097L0.49,-0.088L-0.2,-2.239L-2.005,-3.532Z" style="fill:rgb(221,221,221);fill-rule:nonzero;"/>
                </g>
                <g transform="matrix(1,0,0,1,590.789,1963.87)">
                    <path d="M0,5.403L-1.427,6.291L-20.059,6.489L-19.984,6.524L-19.877,6.57L-19.987,6.57L-32.92,6.563L-32.916,6.513L-51.092,6.552L-69.268,6.513L-69.265,6.563L-82.198,6.57L-82.307,6.57L-82.201,6.524L-82.125,6.489L-100.758,6.291L-102.185,5.403L-102.378,4.426L-101.153,0.271L-98.881,-0.967L-98.91,-0.967L-82.125,-0.967L-51.092,-1.019L-20.059,-0.967L-3.274,-0.967L-3.304,-0.967L-1.032,0.271L0.194,4.426L0,5.403ZM-3.536,-1.664L-19.877,-1.643L-51.092,-1.696L-82.307,-1.643L-98.649,-1.664L-101.893,0.059L-103.276,4.786L-103.057,5.861L-101.211,7.01L-82.307,7.099L-51.092,7.039L-19.877,7.099L-0.974,7.01L0.872,5.861L1.092,4.786L-0.292,0.059L-3.536,-1.664Z" style="fill:rgb(221,221,221);fill-rule:nonzero;"/>
                </g>
                <g transform="matrix(1,0,0,1,455.5,1914.48)">
                    <path d="M0,0.755L0.028,0.797L0.767,-3.317L-0.169,1.537L-0.17,1.545L-0.173,1.559L-0.243,1.925L-0.254,1.982L-0.542,3.476L-0.577,3.652L-0.651,4.04L-0.657,4.072L-0.646,4.068L-0.311,2.338L0,0.755Z" style="fill:rgb(221,221,221);fill-rule:nonzero;"/>
                </g>
                <g transform="matrix(1,0,0,1,454.924,1916.47)">
                    <path d="M0,1.661L0.034,1.485L0.322,-0.01L0.245,-0.045L0.333,-0.067L0.404,-0.433L0.351,-0.44L0.303,-0.44L-0.388,0.649L-0.439,0.649L-0.354,1.968L-0.188,2.101L-0.08,2.08L-0.075,2.049L0,1.661Z" style="fill:rgb(221,221,221);fill-rule:nonzero;"/>
                </g>
                <g transform="matrix(1,0,0,1,627.086,1969.15)">
                    <path d="M0,0.561L0.104,0L0,0.452L0,0.561Z" style="fill:rgb(66,76,160);fill-rule:nonzero;"/>
                </g>
                <g transform="matrix(1,0,0,1,629.22,1936.76)">
                    <path d="M0,0.353L-0.034,0L-0.04,0.25L0,0.353Z" style="fill:rgb(66,76,160);fill-rule:nonzero;"/>
                </g>
                <g transform="matrix(1,0,0,1,629.078,1956.83)">
                    <path d="M0,-15.707L-0.053,-14.079L-0.072,-13.494L-0.31,-6.197L-0.334,-5.474L-0.433,-2.77L-0.678,3.881L-0.682,4.008L-0.17,-2.058L-0.025,-4.022L0.156,-13.553L0.142,-19.715L0.098,-19.69L0,-15.707Z" style="fill:rgb(66,76,160);fill-rule:nonzero;"/>
                </g>
                <g transform="matrix(0.995307,0.096766,0.096766,-0.995307,625.228,1921.9)">
                    <path d="M0.023,0.004L0.096,0.004L-0.094,0.488L-0.155,0.44L0.023,0.004Z" style="fill:rgb(66,76,160);fill-rule:nonzero;"/>
                </g>
                <g transform="matrix(1,0,0,1,591.661,1944.98)">
                    <path d="M0,24.749L-1.846,25.898L-20.75,25.986L-51.965,25.926L-83.179,25.986L-102.083,25.898L-103.929,24.749L-104.149,23.674L-102.765,18.947L-99.521,17.223L-83.179,17.244L-51.965,17.191L-20.75,17.244L-4.408,17.223L-1.164,18.947L0.22,23.674L0,24.749ZM-80.152,-12.243L-51.965,-11.65L-23.777,-12.243L-1.957,-12.842L-3.045,-9.074L-3.184,-8.591L-3.951,-5.933L-23.642,-2.214L-51.965,-0.413L-80.287,-2.214L-99.978,-5.933L-100.745,-8.591L-100.884,-9.074L-101.972,-12.842L-80.152,-12.243ZM18.16,-4.593L-0.11,-2.598L1.089,-13.226L-1.834,-13.268L-23.787,-12.993L-51.965,-12.493L-80.142,-12.993L-102.094,-13.268L-105.018,-13.226L-103.819,-2.598L-122.089,-4.593L-127.183,-7.142L-130.12,-11.058L-132.059,-10.663L-136.393,-4.558L-140.907,-3.874L-140.817,-1.128L-140.814,-1.114L-139.473,8.181L-139.469,8.203L-139.354,8.777L-137.397,18.393L-137.175,19.659L-137.053,20.117L-136.656,21.615L-134.876,28.327L-133.505,32.483L-131.679,38.017L-130.997,36.142L-126.7,34.52L-120.701,33.822L16.772,33.822L22.771,34.52L27.068,36.142L27.75,38.017L29.576,32.483L30.948,28.327L32.727,21.615L33.124,20.117L33.246,19.659L34.766,12.069L35.425,8.777L35.54,8.203L35.544,8.181L36.886,-1.114L36.888,-1.128L36.978,-3.874L32.464,-4.558L28.129,-10.663L26.192,-11.058L23.254,-7.142L18.16,-4.593Z" style="fill:rgb(66,76,160);fill-rule:nonzero;"/>
                </g>
                <g transform="matrix(1,0,0,1,596.728,1932.49)">
                    <path d="M12.016,-30.586L-126.078,-30.586L-130.03,-28.686L-131.404,-26.289L-131.404,-21.312L-127.345,-21.033L-119.034,-19.176L-114.181,-11.946L-111.384,-5.118L-110.085,-0.733L-107.161,-0.775L-85.209,-0.5L-57.031,0L-28.854,-0.5L-6.901,-0.775L-3.978,-0.733L-2.679,-5.118L0.119,-11.946L4.971,-19.176L13.282,-21.033L17.341,-21.312L17.341,-26.289L15.967,-28.686L12.016,-30.586Z" style="fill:rgb(66,76,160);fill-rule:nonzero;"/>
                </g>
                <g transform="matrix(1,0,0,1,450.446,1922.6)">
                    <path d="M0,21.265L-0.15,15.202L-0.128,13.098L0.062,15.195L0.062,15.202L0.399,21.251L0.308,18.505L4.822,17.821L9.157,11.716L11.095,11.321L10.193,6.601L11.117,-7.02L13.025,-11.006L14.879,-11.426L14.879,-16.403L16.253,-18.8L20.204,-20.7L19.229,-20.798L12.325,-19.381L9.219,-16.265L9.106,-16.082L9.021,-15.941L8.802,-15.589L8.783,-15.557L6.278,-11.485L5.822,-10.745L2.939,4.655L2.836,5.572L3.551,4.655L2.836,5.572L-0.271,9.548L-0.294,11.864L-0.238,14.162L-0.232,14.412L-0.228,14.539L-0.13,18.523L-0.077,20.151L-0.058,20.736L0.18,28.033L0.204,28.756L0.303,31.459L0.548,38.111L0.553,38.238L0.647,40.801L0.726,42.063L0.304,30.582L0,21.265Z" style="fill:rgb(66,76,160);fill-rule:nonzero;"/>
                </g>
                <g transform="matrix(1,0,0,1,586.998,1944.35)">
                    <path d="M0,-7.748L-0.592,-5.654L-19.094,-1.996L-47.301,-0.286L-75.508,-1.996L-94.01,-5.654L-94.602,-7.748L-95.483,-7.875L-96.081,-7.963L-95.314,-5.305L-75.623,-1.586L-47.301,0.215L-18.979,-1.586L0.712,-5.305L1.479,-7.963L0.882,-7.875L0,-7.748Z" style="fill:rgb(66,76,160);fill-rule:nonzero;"/>
                </g>
                <g transform="matrix(1,0,0,1,620.165,1927.24)">
                    <path d="M0,-20.195L2.505,-16.124L2.962,-15.383L5.843,0.007L5.537,-2.725L5.537,-2.729L4.947,-5.789L4.937,-5.781L4.893,-5.753L5.176,-4.29L5.179,-4.273L5.228,-4.269L5.527,-2.687L5.499,-2.644L5.489,-2.694L5.179,-4.273L5.176,-4.29L4.893,-5.753L4.89,-5.767L4.845,-6L4.806,-6.201L4.727,-6.61L4.592,-7.304L4.463,-7.981L4.384,-8.39L4.354,-8.545L4.324,-8.704L4.323,-8.707L4.013,-10.321L3.997,-10.406L3.702,-11.968L2.962,-16.082L0.146,-20.202L0,-20.195Z" style="fill:rgb(66,76,160);fill-rule:nonzero;"/>
                </g>
                <g transform="matrix(1,0,0,1,600.644,1899.29)">
                    <path d="M0,-35.656L3.297,-27.22L6.895,-15.676L10.791,-1.03L9.076,2.513L15.979,3.93L19.085,7.046L19.006,6.492L18.781,4.917L18.724,4.522L18.685,4.251L18.647,4.12L18.275,2.862L18.273,2.851L18.177,2.527L15.963,-4.974L14.79,-8.95L14.674,-9.342L13.889,-12.003L13.876,-12.038L13.405,-13.307L9.492,-23.843L6.195,-31.979L4.396,-36.957L3.697,-38.472L1.049,-41.187L-3.198,-42.702L-2.498,-40.961L0,-35.656Z" style="fill:rgb(66,76,160);fill-rule:nonzero;"/>
                </g>
                <g transform="matrix(1,0,0,1,622.67,1931.79)">
                    <path d="M0,-20.678L-2.505,-24.749L-2.524,-24.781L-2.743,-25.134L-2.828,-25.275L-2.94,-25.458L-6.047,-28.574L-12.95,-29.991L-13.926,-29.892L-9.974,-27.992L-8.601,-25.595L-8.601,-20.618L-6.746,-20.199L-4.839,-16.212L-3.915,-2.592L-4.817,2.129L-2.879,2.524L1.456,8.629L5.97,9.313L6.34,2.661L6.549,0.356L3.442,-3.624L2.727,-4.537L3.442,-3.624L3.34,-4.537L3.338,-4.544L3.338,-4.548L0.457,-19.938L0,-20.678Z" style="fill:rgb(66,76,160);fill-rule:nonzero;"/>
                </g>
                <g transform="matrix(1,0,0,1,458.655,1911.14)">
                    <path d="M0,-4.131L-0.231,-4.145L-0.289,-4.054L-2.388,0.014L0.429,-4.107L0,-4.131Z" style="fill:rgb(66,76,160);fill-rule:nonzero;"/>
                </g>
                <g transform="matrix(1,0,0,1,643.752,1898.62)">
                    <path d="M0,3.464L-0.141,0.831L0,3.464L0.019,0.714L-2.033,-3.149L-3.316,-3.78L-3.426,-3.843L-4.911,-4.301L-5.732,-4.541L-11.875,-4.957L-17.915,-4.65L-19.16,-4.365L-20.163,-3.392L-20.578,-1.516L-20.846,2.474L-20.831,2.47L-20.272,2.322L-20.831,2.47L-20.846,2.474L-24.734,3.5L-24.833,3.527L-24.461,4.786L-24.423,4.917L-24.384,5.188L-24.328,5.583L-24.103,7.158L-24.023,7.712L-23.91,7.895L-23.826,8.036L-23.607,8.389L-23.588,8.421L-23.442,8.413L-23.014,8.389L-22.783,8.375L-22.767,8.371L-14.909,7.906L-10.268,7.902L-4.74,7.416L-1.571,6.767L-0.452,5.417L0.03,4.028L0,3.464Z" style="fill:rgb(66,76,160);fill-rule:nonzero;"/>
                </g>
                <g transform="matrix(1,0,0,1,624.178,1916.86)">
                    <path d="M0,0.063L0.31,1.677L0.362,1.688L0.027,-0.043L-0.284,-1.625L-0.312,-1.583L-0.017,-0.022L0,0.063Z" style="fill:rgb(66,76,160);fill-rule:nonzero;"/>
                </g>
                <g transform="matrix(1,0,0,1,620.31,1911.12)">
                    <path d="M0,-4.082L2.816,0.039L0.718,-4.029L0.659,-4.121L0.428,-4.106L0,-4.082Z" style="fill:rgb(66,76,160);fill-rule:nonzero;"/>
                </g>
                <g transform="matrix(1,0,0,1,460.065,1859.38)">
                    <path d="M0,44.158L-0.039,44.429L-0.096,44.824L-0.321,46.4L-0.4,46.953L2.706,43.837L9.61,42.42L7.894,38.877L11.79,24.231L15.388,12.687L18.685,4.251L21.183,-1.054L21.883,-2.795L17.636,-1.28L14.988,1.435L14.289,2.95L12.49,7.928L9.193,16.064L5.28,26.6L4.81,27.869L4.796,27.904L4.011,30.565L3.895,30.957L2.722,34.933L0.509,42.434L0.412,42.759L0.41,42.769L0.038,44.028L0,44.158Z" style="fill:rgb(66,76,160);fill-rule:nonzero;"/>
                </g>
                <g transform="matrix(1,0,0,1,455.233,1918.52)">
                    <path d="M0,-1.689L-0.044,-1.71L-0.379,0.021L-0.326,0.01L-0.016,-1.604L0,-1.689Z" style="fill:rgb(66,76,160);fill-rule:nonzero;"/>
                </g>
                <g transform="matrix(1,0,0,1,511.49,1939.83)">
                    <path d="M0,-6.599L28.207,-5.725L56.414,-6.599L76.647,-7.258L75.979,-4.89L76.352,-4.911L75.979,-4.89L56.439,-3.779L56.414,-3.776L28.207,-2.704L0,-3.776L-0.025,-3.779L-19.564,-4.89L-19.938,-4.911L-19.564,-4.89L-20.232,-7.258L0,-6.599ZM-20.573,-3.437L-19.975,-3.349L-19.094,-3.222L-0.069,-0.466L0,-0.462L28.207,1.089L56.414,-0.462L56.484,-0.466L75.508,-3.222L76.39,-3.349L76.987,-3.437L77.127,-3.92L78.214,-7.688L56.394,-7.089L28.207,-6.497L0.02,-7.089L-21.8,-7.688L-20.713,-3.92L-20.573,-3.437Z" style="fill:rgb(66,76,160);fill-rule:nonzero;"/>
                </g>
                <g transform="matrix(1,0,0,1,450.208,1937.12)">
                    <path d="M0,-0.353L-0.034,0L0.006,-0.103L0,-0.353Z" style="fill:rgb(66,76,160);fill-rule:nonzero;"/>
                </g>
                <g transform="matrix(1,0,0,1,456.724,1923.18)">
                    <path d="M0,-12.062L2.505,-16.133L2.36,-16.141L-0.456,-12.02L-1.196,-7.906L-1.491,-6.345L-1.508,-6.26L-1.817,-4.645L-1.819,-4.642L-1.849,-4.483L-1.879,-4.328L-1.957,-3.919L-2.087,-3.243L-2.221,-2.548L-2.3,-2.139L-2.34,-1.938L-2.385,-1.706L-2.387,-1.691L-2.671,-0.229L-2.674,-0.211L-2.984,1.368L-2.993,1.417L-3.021,1.375L-2.722,-0.208L-2.674,-0.211L-2.671,-0.229L-2.387,-1.691L-2.432,-1.72L-2.441,-1.727L-3.032,1.336L-3.339,4.079L-0.456,-11.322L0,-12.062Z" style="fill:rgb(66,76,160);fill-rule:nonzero;"/>
                </g>
                <g transform="matrix(1,0,0,1,450.65,1946.47)">
                    <path d="M0,4.886L-0.023,4.163L-0.262,-3.134L-0.281,-3.718L-0.333,-5.347L-0.432,-9.33L-0.476,-9.355L-0.489,-3.193L-0.309,6.338L0.344,14.241L0.1,7.59L0,4.886Z" style="fill:rgb(66,76,160);fill-rule:nonzero;"/>
                </g>
                <g transform="matrix(1,0,0,1,459.084,1893.67)">
                    <path d="M0,13.363L0.146,13.37L0.165,13.339L0.384,12.986L0.468,12.845L0.581,12.662L0.66,12.108L0.885,10.532L0.942,10.138L0.981,9.866L1.019,9.736L1.391,8.477L1.292,8.449L-2.596,7.424L-2.611,7.42L-3.17,7.272L-2.611,7.42L-2.596,7.424L-2.864,3.433L-3.279,1.558L-4.282,0.585L-5.526,0.3L-11.567,-0.007L-17.71,0.409L-18.531,0.649L-20.126,1.17L-21.409,1.801L-23.461,5.664L-23.442,8.414L-23.302,5.781L-23.442,8.414L-23.472,8.978L-22.99,10.367L-21.871,11.717L-18.703,12.365L-13.174,12.852L-8.533,12.856L-8.497,12.788L-8.464,12.725L-8.412,12.63L-6.804,12.725L-5.443,12.806L-6.843,12.764L-5.945,12.842L-8.533,12.856L-0.675,13.321L-0.659,13.324L-0.429,13.339L0,13.363Z" style="fill:rgb(66,76,160);fill-rule:nonzero;"/>
                </g>
                <g transform="matrix(1,0,0,1,594.595,1855.6)">
                    <path d="M0,0.782L-12.085,-0.099L0,0.881L0,0.782Z" style="fill:rgb(66,76,160);fill-rule:nonzero;"/>
                </g>
                <g transform="matrix(1,0,0,1,496.884,1856.48)">
                    <path d="M0,-0.98L-12.085,-0.099L-12.085,0L0,-0.98Z" style="fill:rgb(66,76,160);fill-rule:nonzero;"/>
                </g>
                <g transform="matrix(1,0,0,1,483.881,1859.71)">
                    <path d="M0,-1.55L-2.245,3.723L9.898,2.828L34.532,2.444L55.816,2.342L77.101,2.444L101.734,2.828L113.877,3.723L111.632,-1.55L110.714,-3.225L98.629,-4.205L76.367,-5.005L55.816,-5.273L76.367,-4.906L55.816,-5.273L35.265,-4.906L55.816,-5.273L35.265,-5.005L13.003,-4.205L0.918,-3.225L0,-1.55Z" style="fill:rgb(66,76,160);fill-rule:nonzero;"/>
                </g>
                <g transform="matrix(0.995307,-0.096766,-0.096766,-0.995307,454.095,1921.92)">
                    <path d="M-0.024,0.011L0.049,0.011L0.227,0.447L0.166,0.495L-0.024,0.011Z" style="fill:rgb(66,76,160);fill-rule:nonzero;"/>
                </g>
                <g transform="matrix(1,0,0,1,452.203,1969.71)">
                    <path d="M0,-0.561L0.104,0L0.104,-0.11L0,-0.561Z" style="fill:rgb(66,76,160);fill-rule:nonzero;"/>
                </g>
            </g>
        </g>
    </g>
</svg>
