<?xml version="1.0" encoding="UTF-8" standalone="no"?>
<!DOCTYPE svg PUBLIC "-//W3C//DTD SVG 1.1//EN" "http://www.w3.org/Graphics/SVG/1.1/DTD/svg11.dtd">
<svg width="100%" height="100%" viewBox="0 0 360 180" version="1.1" xmlns="http://www.w3.org/2000/svg" xmlns:xlink="http://www.w3.org/1999/xlink" xml:space="preserve" xmlns:serif="http://www.serif.com/" style="fill-rule:evenodd;clip-rule:evenodd;stroke-linejoin:round;stroke-miterlimit:2;">
    <g transform="matrix(1,0,0,1,-308.419,-1326.09)">
        <g id="car-inbound-door-right">
            <g>
                <g transform="matrix(1,0,0,1,422.872,1360.9)">
                    <path d="M0,36.424L17.914,37.432L35.823,37.816L52.299,37.996L68.775,37.816L86.684,37.432L104.598,36.424L110.921,35.158L117.255,33.516L117.386,32.927L117.705,30.935L117.945,28.729L118.151,26.681L117.137,22.394L114.408,11.721L113.751,9.722L112.164,4.061L111.432,2.108L110.456,-0.479L104.171,-0.705L99.45,-0.891L88.368,-1.23L83.677,-1.307L72.599,-1.501L67.938,-1.498L57.294,-1.505L56.933,-1.509L52.311,-1.572L52.286,-1.572L47.665,-1.509L47.304,-1.505L36.66,-1.498L31.999,-1.501L20.921,-1.307L16.23,-1.23L5.148,-0.891L0.427,-0.705L-5.858,-0.479L-6.834,2.108L-7.566,4.061L-9.153,9.722L-9.81,11.721L-12.539,22.394L-13.553,26.681L-13.347,28.729L-13.107,30.935L-12.788,32.927L-12.657,33.516L-6.323,35.158L0,36.424Z" style="fill:rgb(214,238,246);fill-rule:nonzero;"/>
                </g>
                <g transform="matrix(1,0,0,1,583.385,1366.5)">
                    <path d="M0,15.943L2.221,17.388L3.863,19.299L4.558,21.594L3.87,25.02L3.292,26.878L1.573,27.896L-0.581,28.735L-1.894,29.222L-5.215,30.026L-5.224,30.142L14.415,29.257L46.921,27.219L71.948,25.203L73.37,6.567L73.84,-14.199L62.252,-14.055L44.702,-13.268L31.855,-11.072L20.702,-7.523L11.204,-3.353L-3.701,6.154L-3.816,11.695L-4.083,15.196L-3.218,15.284L0,15.943Z" style="fill:rgb(214,238,246);fill-rule:nonzero;"/>
                </g>
                <g transform="matrix(1,0,0,1,556.449,1395.94)">
                    <path d="M0,0.832L0.036,0.832L-0.465,0L-0.254,0.405L0,0.832Z" style="fill:rgb(204,196,182);fill-rule:nonzero;"/>
                </g>
                <g transform="matrix(-0.515858,0.856674,0.856674,0.515858,394.334,1396.78)">
                    <path d="M-0.736,-0.416L0.235,-0.416L0.216,-0.384L-0.281,-0.387L-0.736,-0.416Z" style="fill:rgb(204,196,182);fill-rule:nonzero;"/>
                </g>
                <g transform="matrix(1,0,0,1,410.434,1357.39)">
                    <path d="M0,-2.873L-1.637,0L-0.539,-1.756L0,-2.873Z" style="fill:rgb(204,196,182);fill-rule:nonzero;"/>
                </g>
                <g transform="matrix(1,0,0,1,541.545,1354.52)">
                    <path d="M0,2.873L-0.353,2.073L-0.484,1.861L-0.486,1.858L-1.637,0L-1.098,1.118L0,2.873Z" style="fill:rgb(204,196,182);fill-rule:nonzero;"/>
                </g>
                <g transform="matrix(1,0,0,1,559.829,1415.13)">
                    <path d="M0,-9.82L-1.045,-10.892L-1.043,-10.877L1.404,-8.375L3.272,1.034L3.286,1.072L1.408,-8.382L0.409,-9.401L0,-9.82Z" style="fill:rgb(204,196,182);fill-rule:nonzero;"/>
                </g>
                <g transform="matrix(1,0,0,1,558.787,1416.17)">
                    <path d="M0,-11.911L1.084,-6.452L2.237,-4.841L2.688,-4.21L3.493,-3.085L4.076,-0.667L4.315,0L2.446,-9.409L0,-11.911Z" style="fill:rgb(204,196,182);fill-rule:nonzero;"/>
                </g>
                <g transform="matrix(1,0,0,1,557.448,1402.68)">
                    <path d="M0,2.837L-0.229,1.586L-0.289,1.095L-0.227,1.025L-0.129,0.916L0.24,0.504L0.227,0.439L-1.298,-1.121L-1.237,-0.868L-0.953,0.306L-0.945,0.337L-0.324,2.907L-0.218,3.348L0.218,3.958L0,2.837Z" style="fill:rgb(204,196,182);fill-rule:nonzero;"/>
                </g>
                <g transform="matrix(1,0,0,1,557.673,1401.56)">
                    <path d="M0,1.549L-0.819,0.71L-0.941,0.587L-1.478,0.037L-1.526,-0.013L-1.522,0.002L0.003,1.562L0,1.549Z" style="fill:rgb(204,196,182);fill-rule:nonzero;"/>
                </g>
                <g transform="matrix(1,0,0,1,558.78,1407.25)">
                    <path d="M0,-2.046L-0.251,-3.26L-1.068,-4.096L-1.092,-4.069L-1.461,-3.657L-1.559,-3.547L-1.621,-3.477L-1.561,-2.987L-1.332,-1.735L-1.114,-0.615L-0.778,-0.146L0.617,1.804L0.795,2.05L0.753,1.825L0,-2.046Z" style="fill:rgb(204,196,182);fill-rule:nonzero;"/>
                </g>
                <g transform="matrix(1,0,0,1,558.529,1403.15)">
                    <path d="M0,0.841L-0.003,0.828L-0.222,0.603L-0.635,0.18L-0.813,0L-0.817,0.005L0,0.841Z" style="fill:rgb(204,196,182);fill-rule:nonzero;"/>
                </g>
                <g transform="matrix(-0.191009,-0.981588,-0.981588,0.191009,560.38,1406.73)">
                    <path d="M-1.504,1.128L0.794,1.128L1.361,1.184L-1.935,1.184L-1.504,1.128Z" style="fill:rgb(204,196,182);fill-rule:nonzero;"/>
                </g>
                <g transform="matrix(1,0,0,1,387.023,1413.04)">
                    <path d="M0,2.912L0.448,0.66L0.548,0.155L0.557,0.109L-0.102,-0.07L-0.472,-0.172L-0.03,-0.43L-0.955,-0.106L-1.405,0.155L-1.85,2.412L-1.111,3.06L-0.085,3.342L-0.078,3.307L0,2.912Z" style="fill:rgb(221,221,221);fill-rule:nonzero;"/>
                </g>
                <g transform="matrix(0.19683,-0.980438,-0.980438,-0.19683,387.602,1412.64)">
                    <path d="M-0.507,-0.08L-0.238,-0.08L-0.094,0.601L-0.46,0.6L-0.507,-0.08Z" style="fill:rgb(221,221,221);fill-rule:nonzero;"/>
                </g>
                <g transform="matrix(1,0,0,1,387.676,1412.83)">
                    <path d="M0,-0.163L-0.683,-0.219L-0.043,0.056L0,-0.163Z" style="fill:rgb(221,221,221);fill-rule:nonzero;"/>
                </g>
                <g transform="matrix(1,0,0,1,386.922,1412.61)">
                    <path d="M0,0.359L0.071,0L-0.37,0.257L0,0.359Z" style="fill:rgb(221,221,221);fill-rule:nonzero;"/>
                </g>
                <g transform="matrix(-0.941785,0.336215,0.336215,0.941785,389.441,1406.61)">
                    <path d="M-0.821,-0.909L-0.298,-0.909L0.157,-0.142L-0.572,-0.713L-0.821,-0.909Z" style="fill:rgb(221,221,221);fill-rule:nonzero;"/>
                </g>
                <g transform="matrix(-0.1918,-0.981434,-0.981434,0.1918,561.217,1405.58)">
                    <path d="M-0.911,0.3L-0.02,0.3L0.247,0.751L-0.048,0.636L-0.911,0.3Z" style="fill:rgb(221,221,221);fill-rule:nonzero;"/>
                </g>
                <g transform="matrix(1,0,0,1,466.208,1401.46)">
                    <path d="M0,-0.747L-1.414,-0.162L-1.393,-0.014L0.102,-0.007L1.435,0L1.412,-0.162L0,-0.747Z" style="fill:rgb(221,221,221);fill-rule:nonzero;"/>
                </g>
                <g transform="matrix(1,0,0,1,416.338,1356.98)">
                    <path d="M0,-4.512L-1.269,-2.704L-2.528,-0.352L-3.468,1.791L-1.543,1.72L-0.604,-0.423L0.655,-2.771L1.924,-4.579L2.843,-5.531L4.042,-6.303L2.118,-6.236L0.919,-5.464L0,-4.512Z" style="fill:rgb(221,221,221);fill-rule:nonzero;"/>
                </g>
                <g transform="matrix(1,0,0,1,449.121,1401.03)">
                    <path d="M0,-0.635L-1.291,-0.103L-0.586,-0.067L0.081,-0.046L1.419,0L1.412,-0.05L0,-0.635Z" style="fill:rgb(221,221,221);fill-rule:nonzero;"/>
                </g>
                <g transform="matrix(1,0,0,1,532.08,1357.04)">
                    <path d="M0,-4.646L1.269,-2.838L2.528,-0.49L3.467,1.653L5.391,1.724L4.452,-0.419L3.193,-2.771L1.924,-4.579L1.005,-5.531L-0.194,-6.303L-2.118,-6.37L-0.919,-5.598L0,-4.646Z" style="fill:rgb(221,221,221);fill-rule:nonzero;"/>
                </g>
                <g transform="matrix(1,0,0,1,433.145,1400.25)">
                    <path d="M0,-0.599L-1.05,-0.165L0.07,-0.091L1.414,0L1.412,-0.017L0,-0.599Z" style="fill:rgb(221,221,221);fill-rule:nonzero;"/>
                </g>
                <g transform="matrix(1,0,0,1,484.135,1401.46)">
                    <path d="M0,-0.747L-1.412,-0.162L-1.435,0L-0.102,-0.007L1.393,-0.014L1.414,-0.162L0,-0.747Z" style="fill:rgb(221,221,221);fill-rule:nonzero;"/>
                </g>
                <g transform="matrix(1,0,0,1,515.785,1399.67)">
                    <path d="M0,0.564L-0.002,0.582L1.342,0.49L2.463,0.416L1.412,-0.018L0,0.564Z" style="fill:rgb(221,221,221);fill-rule:nonzero;"/>
                </g>
                <g transform="matrix(1,0,0,1,499.809,1400.44)">
                    <path d="M0,0.536L-0.007,0.585L1.331,0.539L1.998,0.518L2.703,0.483L1.412,-0.049L0,0.536Z" style="fill:rgb(221,221,221);fill-rule:nonzero;"/>
                </g>
                <g transform="matrix(1,0,0,1,410.084,1365.11)">
                    <path d="M0,28.717L-0.319,26.725L-0.558,24.519L-0.765,22.471L0.249,18.184L2.978,7.511L3.636,5.512L5.222,-0.149L5.954,-2.102L6.93,-4.689L13.216,-4.915L17.936,-5.101L29.019,-5.44L33.709,-5.517L44.787,-5.711L49.448,-5.708L60.092,-5.715L60.453,-5.719L65.075,-5.782L65.1,-5.782L69.722,-5.719L70.083,-5.715L80.726,-5.708L85.387,-5.711L96.465,-5.517L101.156,-5.44L112.239,-5.101L116.959,-4.915L123.244,-4.689L124.22,-2.102L124.953,-0.149L126.539,5.512L127.196,7.511L129.925,18.184L130.939,22.471L130.733,24.519L130.494,26.725L130.174,28.717L130.044,29.306L123.709,30.948L117.386,32.214L99.472,33.222L81.563,33.606L65.087,33.786L48.612,33.606L30.702,33.222L12.788,32.214L6.465,30.948L0.131,29.306L0,28.717ZM5.387,33.423L5.943,33.487L13.158,34.308L14.602,34.473L17.317,34.653L22.011,34.97L23.061,34.537L24.473,35.118L24.48,35.136L26.772,35.291L31.027,35.492L34.688,35.668L37.747,35.813L39.037,35.28L40.45,35.866L40.471,35.915L48.923,36.204L50.49,36.257L52.234,36.313L54.648,36.327L54.71,36.179L56.124,35.594L57.536,36.179L57.604,36.342L65.087,36.381L72.571,36.342L72.639,36.179L74.051,35.594L75.465,36.179L75.527,36.327L77.94,36.313L79.684,36.257L81.252,36.204L89.704,35.915L89.725,35.866L91.137,35.28L92.428,35.813L95.486,35.668L99.147,35.492L103.403,35.291L105.695,35.136L105.701,35.118L107.113,34.537L108.164,34.97L112.858,34.653L115.573,34.473L117.017,34.308L124.232,33.487L124.788,33.423L127.445,32.884L130.155,32.337L134.712,30.878L135.332,28.625L135.602,25.841L135.881,23.056L132.054,8.078L129.806,0.059L127.388,-6.346L125.464,-6.416L111.813,-6.907L96.238,-7.386L80.663,-7.654L65.087,-7.664L49.512,-7.654L33.937,-7.386L18.362,-6.907L4.711,-6.416L2.786,-6.346L0.369,0.059L-1.88,8.078L-5.707,23.056L-5.427,25.841L-5.157,28.625L-4.538,30.878L0.02,32.337L2.73,32.884L5.387,33.423Z" style="fill:rgb(221,221,221);fill-rule:nonzero;"/>
                </g>
                <g transform="matrix(1,0,0,1,523.519,1483.28)">
                    <path d="M0,-1.83L-2.374,-2.274L-94.321,-2.274L-96.696,-1.83L-98.181,-0.815L-99.465,0.444L2.769,0.444L1.486,-0.815L0,-1.83Z" style="fill:rgb(221,221,221);fill-rule:nonzero;"/>
                </g>
                <g transform="matrix(1,0,0,1,526.288,1487.13)">
                    <rect x="-113.462" y="-3.398" width="124.691" height="3.398" style="fill:rgb(221,221,221);fill-rule:nonzero;"/>
                </g>
                <g transform="matrix(1,0,0,1,562.8,1434.46)">
                    <path d="M0,0.663L-1.126,-0.779L-3.979,-4.434L-4.199,-0.444L3.46,5.097L3.297,4.886L0,0.663Z" style="fill:rgb(221,221,221);fill-rule:nonzero;"/>
                </g>
                <g transform="matrix(1,0,0,1,561.762,1429.14)">
                    <path d="M-0.088,4.544L0.165,4.544L-0.085,4.227L-0.096,4.212L-2.824,0.754L-3.99,0.381L-4.561,0.198L-5.182,0L-5.182,0.173L-4.551,0.374L-3.935,0.571L-2.941,0.889L-0.088,4.544Z" style="fill:rgb(221,221,221);fill-rule:nonzero;"/>
                </g>
                <g transform="matrix(1,0,0,1,566.377,1440.4)">
                    <path d="M0,-1.082L-3.312,-5.28L-4.45,-6.722L-4.704,-6.722L-3.578,-5.28L-0.281,-1.058L-0.117,-0.846L1.49,5.407L1.55,5.64L1.668,5.407L0.006,-1.058L0,-1.082Z" style="fill:rgb(221,221,221);fill-rule:nonzero;"/>
                </g>
                <g transform="matrix(1,0,0,1,424.095,1469.92)">
                    <path d="M0,-0.744L-0.31,0.412L0,-0.744ZM102.461,0.412L102.152,-0.744L102.461,0.412ZM0.152,2.108L12.203,3.532L29.099,4.818L45.928,5.231L56.224,5.231L73.052,4.818L89.949,3.532L102,2.108L103.007,1.839L103.564,0.962L103.314,0.038L100.536,-5.975L1.615,-5.975L-1.163,0.038L-1.412,0.962L-0.856,1.839L0.152,2.108Z" style="fill:rgb(221,221,221);fill-rule:nonzero;"/>
                </g>
                <g transform="matrix(1,0,0,1,427.617,1460.87)">
                    <path d="M-1.906,3.074L97.015,3.074L95.596,0L-0.487,0L-1.906,3.074Z" style="fill:rgb(221,221,221);fill-rule:nonzero;"/>
                </g>
                <g transform="matrix(1,0,0,1,455.955,1450.57)">
                    <path d="M-28.825,10.3L67.258,10.3L65.766,7.752L61.601,3.86L56.473,1.153L50.449,0L-12.017,0L-18.041,1.153L-23.168,3.86L-27.333,7.752L-28.825,10.3Z" style="fill:rgb(221,221,221);fill-rule:nonzero;"/>
                </g>
                <g transform="matrix(1,0,0,1,393.688,1397.55)">
                    <path d="M0,6.098L0.16,5.439L0.219,5.192L0.748,3.003L0.789,2.834L1.053,1.745L1.112,1.498L1.332,0.589L0.131,0.454L-0.087,0.433L-0.319,0.409L-0.477,0.391L-0.734,0.363L-2.595,0L-2.778,0.899L-3.11,2.376L-3.554,4.554L-3.738,5.453L-2.857,5.569L-1.852,5.696L-1.63,5.745L-1.276,5.823L-1.268,5.823L-0.318,6.028L0,6.098Z" style="fill:rgb(221,221,221);fill-rule:nonzero;"/>
                </g>
                <g transform="matrix(1,0,0,1,393.142,1433.48)">
                    <path d="M0,-4.148L-0.572,-3.965L-1.737,-3.591L-4.465,-0.133L-4.476,-0.119L-4.727,0.198L-4.473,0.198L-1.62,-3.457L-0.626,-3.774L-0.01,-3.972L0.621,-4.173L0.621,-4.346L0,-4.148Z" style="fill:rgb(221,221,221);fill-rule:nonzero;"/>
                </g>
                <g transform="matrix(1,0,0,1,384.082,1440.17)">
                    <path d="M0,-0.61L0.163,-0.821L3.46,-5.044L4.586,-6.486L4.333,-6.486L3.195,-5.044L-0.117,-0.846L-0.124,-0.821L-1.785,5.643L-1.668,5.876L-1.607,5.643L0,-0.61Z" style="fill:rgb(221,221,221);fill-rule:nonzero;"/>
                </g>
                <g transform="matrix(1,0,0,1,402.613,1460.91)">
                    <path d="M0,7.882L2.561,7.882L4.633,6.377L5.424,3.941L4.633,1.506L2.561,0L0,0L-2.072,1.506L-2.863,3.941L-2.072,6.377L0,7.882Z" style="fill:rgb(250,192,41);fill-rule:nonzero;"/>
                </g>
                <g transform="matrix(1,0,0,1,545.169,1460.91)">
                    <path d="M0,7.882L2.561,7.882L4.632,6.377L5.424,3.941L4.632,1.506L2.561,0L0,0L-2.072,1.506L-2.863,3.941L-2.072,6.377L0,7.882Z" style="fill:rgb(250,192,41);fill-rule:nonzero;"/>
                </g>
                <g transform="matrix(1,0,0,1,405.678,1493.27)">
                    <path d="M0.747,-9.542L-18.487,-9.542L-18.675,-10.159L-18.958,-11.093L-20.78,-17.1L-21.016,-17.875L-21.292,-20.484L-21.535,-22.771L-21.535,9.926L-20.78,11.883L-18.958,12.891L-16.339,13.229L-4.449,13.229L-1.804,12.714L0,11.597L0.747,9.591L0.747,-9.542Z" style="fill:rgb(142,142,142);fill-rule:nonzero;"/>
                </g>
                <g transform="matrix(1,0,0,1,566.199,1503.38)">
                    <path d="M0,-0.18L0,-32.878L-0.243,-30.59L-0.52,-27.982L-0.755,-27.206L-2.577,-21.2L-2.86,-20.266L-3.048,-19.649L-22.282,-19.649L-22.282,-0.515L-21.535,1.491L-19.731,2.608L-17.087,3.123L-5.196,3.123L-2.577,2.784L-0.755,1.776L0,-0.18Z" style="fill:rgb(142,142,142);fill-rule:nonzero;"/>
                </g>
                <g transform="matrix(1,0,0,1,630.675,1353.7)">
                    <path d="M0,42.152L32.116,39.565L32.632,18.929L31.676,-3.525L14.547,-3.313L-3.141,-2.52L-16.206,-0.286L-27.546,3.321L-37.227,7.572L-52.943,17.597L-53.089,24.626L-53.363,28.207L-52.711,27.861L-51.374,27.996L-51.106,24.495L-50.991,18.954L-36.086,9.447L-26.588,5.277L-15.435,1.728L-2.588,-0.469L14.961,-1.255L26.55,-1.399L26.08,19.366L24.658,38.003L24.656,38.024L24.658,38.003L-0.369,40.019L-32.875,42.057L-52.514,42.942L-52.517,42.98L-52.514,42.942L-52.505,42.825L-52.546,42.836L-54.048,42.652L-54.817,42.617L-54.899,42.614L-55.784,42.857L-54.899,42.614L-57.624,41.712L-58.925,39.536L-58.886,38.521L-58.882,38.423L-58.877,38.306L-58.83,37.066L-60.747,38.606L-63.439,41.866L-65.493,45.677L-32.536,44.19L0,42.152Z" style="fill:rgb(142,142,142);fill-rule:nonzero;"/>
                </g>
                <g transform="matrix(-1,0,0,1,463.639,1420.87)">
                    <path d="M-3.62,-0.201L0.167,-0.201L0.167,0L-3.787,0L-3.62,-0.201Z" style="fill:white;fill-rule:nonzero;"/>
                </g>
                <g transform="matrix(1,0,0,1,469.047,1420.67)">
                    <path d="M-1.621,0.201L13.87,0.201L14.036,0L-1.788,0L-1.621,0.201Z" style="fill:white;fill-rule:nonzero;"/>
                </g>
                <g transform="matrix(1,0,0,1,464.411,1440.58)">
                    <path d="M0,-0.271L-0.939,-0.43L-0.939,-0.211L-0.154,-0.077L3.147,0.159L3.147,-0.049L0,-0.271Z" style="fill:white;fill-rule:nonzero;"/>
                </g>
                <g transform="matrix(1,0,0,1,518.62,1428.54)">
                    <path d="M0,-7.744L-9.835,-5.435L-15.987,-4.886L-19.634,-4.476L-20.161,-6.077L-21.888,-7.208L-24.813,-7.868L-31.749,-7.868L-31.749,-7.667L-25.076,-7.667L-22.192,-7.018L-20.49,-5.908L-19.97,-4.339L-20.247,-3.662L-21.985,0.575L-22.551,1.759L-22.256,1.759L-21.677,0.54L-19.965,-3.662L-19.737,-4.223L-16.09,-4.632L-9.938,-5.185L-0.103,-7.491L8.103,-9.249L8.206,-9.503L0,-7.744Z" style="fill:white;fill-rule:nonzero;"/>
                </g>
                <g transform="matrix(1,0,0,1,549.587,1408.1)">
                    <path d="M0,15.098L1.374,12.613L2.823,8.115L3.227,4.558L3.319,2.74L3.048,-0.704L1.226,-4.677L-1.656,-8.583L-3.023,-8.167L-4.103,-8.057L-7.758,-6.489L-11.973,-4.293L-16.868,-1.015L-20.678,4.918L-22.762,10.931L-22.865,11.185L-24.407,16.307L-26.308,23.681L-15.566,21.655L-6.594,19.381L-2.073,17.471L-1.956,17.336L0,15.098Z" style="fill:white;fill-rule:nonzero;"/>
                </g>
                <g transform="matrix(1,0,0,1,482.917,1420.67)">
                    <path d="M0,0.201L3.954,0.201L3.954,0L0.167,0L0,0.201Z" style="fill:white;fill-rule:nonzero;"/>
                </g>
                <g transform="matrix(1,0,0,1,494.285,1436.64)">
                    <path d="M0,-2.608L-3.185,2.154L-5.291,3.159L-7.414,3.515L-7.414,3.733L-5.094,3.342L-2.957,2.316L0.274,-2.545L2.078,-6.341L1.784,-6.341L0,-2.608Z" style="fill:white;fill-rule:nonzero;"/>
                </g>
                <g transform="matrix(1,0,0,1,552.36,1426.96)">
                    <path d="M0,0.833L-4.729,-1.519L-4.846,-1.384L-0.117,0.967L4.219,2.352L4.219,2.179L0,0.833Z" style="fill:white;fill-rule:nonzero;"/>
                </g>
                <g transform="matrix(1,0,0,1,421.433,1418.28)">
                    <path d="M0,-5.264L-3.809,-11.197L-8.704,-14.474L-12.919,-16.671L-16.574,-18.239L-17.655,-18.348L-19.022,-18.764L-21.904,-14.859L-23.726,-10.886L-23.997,-7.442L-23.904,-5.623L-23.5,-2.067L-22.051,2.431L-20.678,4.916L-18.722,7.154L-18.605,7.289L-14.083,9.199L-5.111,11.473L5.63,13.5L3.729,6.125L2.188,1.004L2.084,0.75L0,-5.264Z" style="fill:white;fill-rule:nonzero;"/>
                </g>
                <g transform="matrix(1,0,0,1,485.932,1440.58)">
                    <path d="M0,-0.271L-3.146,-0.049L-3.146,0.159L0.154,-0.077L0.939,-0.211L0.939,-0.43L0,-0.271Z" style="fill:white;fill-rule:nonzero;"/>
                </g>
                <g transform="matrix(1,0,0,1,453.708,1420.22)">
                    <path d="M0,8.894L-1.737,4.657L-2.015,3.98L-1.495,2.412L0.207,1.301L3.091,0.652L9.764,0.652L9.764,0.452L2.828,0.452L-0.097,1.111L-1.823,2.242L-2.351,3.843L-5.998,3.434L-12.15,2.884L-21.985,0.575L-30.191,-1.184L-30.088,-0.93L-21.882,0.829L-12.047,3.134L-5.895,3.687L-2.248,4.097L-2.02,4.657L-0.307,8.859L0.272,10.078L0.566,10.078L0,8.894Z" style="fill:white;fill-rule:nonzero;"/>
                </g>
                <g transform="matrix(1,0,0,1,461.348,1430.87)">
                    <path d="M0,8.925L-2.106,7.921L-5.291,3.158L-7.075,-0.575L-7.369,-0.575L-5.565,3.222L-2.335,8.083L-0.198,9.109L2.123,9.5L2.123,9.281L0,8.925Z" style="fill:white;fill-rule:nonzero;"/>
                </g>
                <g transform="matrix(1,0,0,1,397.982,1426.96)">
                    <path d="M0,0.833L-4.219,2.179L-4.219,2.352L0.117,0.967L4.846,-1.384L4.729,-1.519L0,0.833Z" style="fill:white;fill-rule:nonzero;"/>
                </g>
                <g transform="matrix(1,0,0,1,418.262,1354.76)">
                    <path d="M0,-2.365L-1.269,-0.557L-2.528,1.791L-3.467,3.934L10.184,3.444L25.759,2.965L41.334,2.697L56.909,2.686L72.485,2.697L88.06,2.965L103.635,3.444L117.286,3.934L116.347,1.791L115.088,-0.557L113.819,-2.365L112.899,-3.317L111.7,-4.089L99.449,-5.051L89.127,-5.534L83.331,-5.809L70.09,-6.172L69.986,-6.172L69.726,-6.176L66.12,-6.211L56.909,-6.299L47.699,-6.211L44.093,-6.176L43.832,-6.172L43.728,-6.172L31.245,-5.851L30.488,-5.809L24.692,-5.534L14.369,-5.051L2.118,-4.089L0.919,-3.317L0,-2.365Z" style="fill:rgb(0,188,218);fill-rule:nonzero;"/>
                </g>
                <g transform="matrix(1,0,0,1,384.143,1467.96)">
                    <path d="M0,5.661L-0.297,3.708L-1.349,-3.211L-0.19,7.434L0,8.872L0,5.661Z" style="fill:rgb(0,188,218);fill-rule:nonzero;"/>
                </g>
                <g transform="matrix(1,0,0,1,391.836,1406.62)">
                    <path d="M0,-3.38L-1.005,-3.507L-1.57,-1.709L-1.915,-1.163L-1.927,-1.145L-2.096,-0.877L-2.591,-0.094L-2.732,0.127L-1.733,-0.891L-1.323,-1.311L-0.278,-2.382L-0.021,-2.643L0.199,-2.869L0.576,-3.253L0.222,-3.331L0,-3.38Z" style="fill:rgb(0,188,218);fill-rule:nonzero;"/>
                </g>
                <g transform="matrix(1,0,0,1,481.295,1440.61)">
                    <path d="M12.248,-19.74L-24.496,-19.74L-27.38,-19.091L-29.082,-17.981L-29.602,-16.412L-29.325,-15.736L-27.588,-11.498L-27.022,-10.314L-25.238,-6.581L-22.053,-1.819L-19.947,-0.814L-17.824,-0.458L-16.885,-0.3L-13.738,-0.077L-12.621,0L0.373,0L1.49,-0.077L4.636,-0.3L5.575,-0.458L7.699,-0.814L9.805,-1.819L12.99,-6.581L14.774,-10.314L15.34,-11.498L17.077,-15.736L17.354,-16.412L16.834,-17.981L15.132,-19.091L12.248,-19.74Z" style="fill:rgb(0,188,218);fill-rule:nonzero;"/>
                </g>
                <g transform="matrix(1,0,0,1,409.283,1355.53)">
                    <path d="M0,0.842L-0.002,0.845L-0.133,1.057L-0.486,1.857L1.151,-1.015L0,0.842Z" style="fill:rgb(0,188,218);fill-rule:nonzero;"/>
                </g>
                <g transform="matrix(1,0,0,1,566.199,1467.96)">
                    <path d="M0,5.661L0,8.872L0.19,7.434L1.349,-3.211L0.297,3.708L0,5.661Z" style="fill:rgb(0,188,218);fill-rule:nonzero;"/>
                </g>
                <g transform="matrix(1,0,0,1,392.057,1460.71)">
                    <path d="M0,-18.398L0.054,-15.066L0.071,-14.009L0.073,-13.911L0.074,-13.865L0.062,-12.236L0.024,-6.998L0.062,-12.236L0.074,-13.865L0.073,-13.911L0.071,-14.009L0.054,-15.066L0,-18.398L-0.016,-19.413L0,-18.398ZM8.484,1.712L10.555,0.207L13.116,0.207L15.188,1.712L15.979,4.148L15.188,6.584L13.116,8.089L10.555,8.089L8.484,6.584L7.692,4.148L8.484,1.712ZM30.875,9.248L33.653,3.235L35.072,0.161L36.564,-2.387L40.729,-6.279L45.857,-8.986L51.881,-10.139L114.347,-10.139L120.371,-8.986L125.498,-6.279L129.664,-2.387L131.155,0.161L132.574,3.235L135.352,9.248L135.602,10.172L135.045,11.05L134.038,11.318L121.987,12.742L105.09,14.029L88.262,14.441L77.966,14.441L61.137,14.029L44.241,12.742L32.189,11.318L31.182,11.05L30.625,10.172L30.875,9.248ZM151.04,1.712L153.112,0.207L155.672,0.207L157.744,1.712L158.535,4.148L157.744,6.584L155.672,8.089L153.112,8.089L151.04,6.584L150.249,4.148L151.04,1.712ZM166.154,-13.911L166.156,-14.009L166.173,-15.066L166.227,-18.398L166.244,-19.413L166.227,-18.398L166.173,-15.066L166.156,-14.009L166.154,-13.911L166.154,-13.865L166.166,-12.236L166.204,-6.998L166.166,-12.236L166.154,-13.865L166.154,-13.911ZM-8.524,4.042L-7.914,9.791L-7.671,12.079L-7.395,14.688L-7.159,15.463L-5.337,21.47L-5.054,22.404L-4.867,23.021L31.997,23.021L33.28,21.762L34.766,20.747L37.14,20.303L129.087,20.303L131.462,20.747L132.947,21.762L134.23,23.021L171.094,23.021L171.282,22.404L171.565,21.47L173.387,15.463L173.622,14.688L173.899,12.079L174.142,9.791L174.751,4.042L175.441,-5.986L175.87,-14.665L175.81,-14.898L174.203,-21.151L166.544,-26.692L166.764,-30.682L165.77,-31L165.153,-31.197L164.522,-31.398L160.186,-32.783L155.457,-35.134L150.936,-33.224L141.964,-30.95L131.222,-28.923L133.123,-36.298L134.665,-41.419L126.459,-39.661L116.624,-37.355L110.472,-36.802L106.825,-36.393L106.597,-35.833L104.885,-31.63L104.306,-30.411L102.502,-26.614L99.271,-21.753L97.134,-20.728L94.813,-20.336L94.028,-20.203L90.728,-19.966L89.704,-19.896L76.524,-19.896L75.5,-19.966L72.199,-20.203L71.414,-20.336L69.093,-20.728L66.956,-21.753L63.726,-26.614L61.922,-30.411L61.343,-31.63L59.63,-35.833L59.402,-36.393L55.755,-36.802L49.603,-37.355L39.769,-39.661L31.563,-41.419L33.105,-36.298L35.005,-28.923L24.264,-30.95L15.292,-33.224L10.771,-35.134L6.042,-32.783L1.705,-31.398L1.074,-31.197L0.458,-31L-0.536,-30.682L-3.389,-27.027L-4.515,-25.585L-7.812,-21.362L-7.975,-21.151L-9.583,-14.898L-9.643,-14.665L-9.213,-5.986L-8.524,4.042Z" style="fill:rgb(0,188,218);fill-rule:nonzero;"/>
                </g>
                <g transform="matrix(1,0,0,1,390.578,1391.55)">
                    <path d="M0,8.376L0.332,6.899L0.515,6L-1.917,-2.037L-5.044,-3.299L-9.52,-3.077L-14.221,-1.466L-17.689,0.607L-19.163,3.233L-17.663,6.659L-16.43,8.905L-12.777,10.181L-8.194,11.147L-5.396,11.675L-2.256,11.496L-0.627,11.453L-0.443,10.554L0,8.376Z" style="fill:rgb(0,188,218);fill-rule:nonzero;"/>
                </g>
                <g transform="matrix(1,0,0,1,571.793,1385.98)">
                    <path d="M0,6.148L-0.004,6.247L-0.043,7.262L1.258,9.437L3.983,10.339L4.065,10.343L4.834,10.378L6.336,10.561L6.377,10.551L9.698,9.747L11.011,9.261L13.164,8.421L14.884,7.403L15.462,5.545L16.15,2.119L15.455,-0.176L13.813,-2.086L11.592,-3.532L8.374,-4.191L7.508,-4.279L6.171,-4.413L5.519,-4.067L1.418,-1.91L0.115,3.18L0.052,4.791L0.005,6.032L0,6.148Z" style="fill:rgb(0,188,218);fill-rule:nonzero;"/>
                </g>
                <g transform="matrix(1,0,0,1,387.479,1405.68)">
                    <path d="M0,9.82L0.583,7.402L0.657,7.296L5.411,0.659L5.633,0.349L5.739,-0.092L5.805,-0.364L5.872,-0.638L6.196,-1.981L6.209,-2.034L5.891,-2.105L4.941,-2.309L4.561,-1.922L4.334,-1.689L4.077,-1.425L3.031,-0.356L2.622,0.063L1.63,1.078L1.613,1.134L0.841,3.743L0.197,6.989L0.154,7.208L0.101,7.472L0.092,7.518L-0.008,8.023L-0.456,10.275L-0.534,10.67L-0.541,10.705L-0.823,12.129L-0.017,9.869L0,9.82Z" style="fill:rgb(0,188,218);fill-rule:nonzero;"/>
                </g>
                <g transform="matrix(1,0,0,1,561.475,1409.57)">
                    <path d="M0,2.387L-0.451,1.756L-1.604,0.145L-1.9,-0.267L-2.078,-0.514L-3.474,-2.463L-3.809,-2.932L-4.245,-3.542L-4.054,-2.752L-3.238,-1.586L0.734,4.096L1.388,5.929L0.805,3.512L0,2.387Z" style="fill:rgb(0,188,218);fill-rule:nonzero;"/>
                </g>
                <g transform="matrix(1,0,0,1,385.84,1424.46)">
                    <path d="M0,-4.368L-2.187,0L-0.754,-2.253L0,-4.368Z" style="fill:rgb(0,188,218);fill-rule:nonzero;"/>
                </g>
                <g transform="matrix(0.235055,-0.971982,-0.971982,-0.235055,394.342,1392.74)">
                    <path d="M0.518,-1.926L1.62,-1.926L-3.106,-0.767L-3.549,-0.658L0.518,-1.926Z" style="fill:rgb(0,188,218);fill-rule:nonzero;"/>
                </g>
                <g transform="matrix(1,0,0,1,404.858,1421.47)">
                    <path d="M0,-21.421L3.655,-19.853L7.87,-17.656L12.765,-14.379L16.574,-8.446L18.659,-2.432L26.865,-0.673L36.699,1.636L42.851,2.185L46.499,2.595L47.026,0.994L48.752,-0.137L51.678,-0.796L88.948,-0.796L91.874,-0.137L93.6,0.994L94.128,2.595L97.775,2.185L103.927,1.636L113.762,-0.673L121.967,-2.432L124.052,-8.446L127.861,-14.379L132.756,-17.656L136.971,-19.853L140.626,-21.421L141.707,-21.53L143.074,-21.946L139.09,-23.568L135.381,-24.016L132.671,-23.469L130.014,-22.93L129.458,-22.866L122.243,-22.045L120.798,-21.879L118.083,-21.7L113.39,-21.382L112.269,-21.308L110.925,-21.217L110.92,-21.217L108.629,-21.062L104.373,-20.861L100.712,-20.685L97.654,-20.54L96.949,-20.504L96.283,-20.484L94.944,-20.438L94.93,-20.438L86.478,-20.149L84.91,-20.096L83.166,-20.04L80.752,-20.025L80.67,-20.025L79.175,-20.018L77.842,-20.011L77.796,-20.011L70.313,-19.972L62.83,-20.011L62.784,-20.011L61.451,-20.018L59.956,-20.025L59.874,-20.025L57.46,-20.04L55.716,-20.096L54.148,-20.149L45.697,-20.438L45.682,-20.438L44.344,-20.484L43.677,-20.504L42.972,-20.54L39.914,-20.685L36.253,-20.861L31.997,-21.062L29.706,-21.217L29.701,-21.217L28.357,-21.308L27.237,-21.382L22.543,-21.7L19.828,-21.879L18.383,-22.045L11.169,-22.866L10.612,-22.93L7.956,-23.469L5.246,-24.016L1.536,-23.568L-2.447,-21.946L-1.08,-21.53L0,-21.421Z" style="fill:rgb(0,188,218);fill-rule:nonzero;"/>
                </g>
                <g transform="matrix(-0.462042,-0.886858,-0.886858,0.462042,556.501,1391.8)">
                    <path d="M-3.886,2.37L-3.429,2.37L1.438,2.357L0.367,2.622L-3.886,2.37Z" style="fill:rgb(0,188,218);fill-rule:nonzero;"/>
                </g>
                <g transform="matrix(1,0,0,1,388.136,1408.55)">
                    <path d="M0,4.423L-0.074,4.529L-0.657,6.947L-0.002,5.114L3.969,-0.568L4.786,-1.735L4.976,-2.524L4.755,-2.214L0,4.423Z" style="fill:rgb(0,188,218);fill-rule:nonzero;"/>
                </g>
                <g transform="matrix(1,0,0,1,554.006,1406.75)">
                    <path d="M0,-14.061L0.123,-13.55L0.551,-11.78L0.558,-11.752L1.282,-8.756L1.322,-8.59L1.66,-7.194L1.859,-6.37L1.876,-6.299L2.083,-5.442L2.14,-5.206L2.188,-5.157L2.725,-4.607L2.847,-4.483L3.666,-3.644L3.71,-3.599L3.888,-3.419L4.301,-2.996L4.521,-2.77L4.777,-2.51L5.823,-1.438L6.232,-1.019L7.231,0L7.091,-0.222L6.596,-1.004L6.427,-1.272L6.415,-1.29L6.07,-1.836L5.184,-4.656L3.835,-7.254L3.078,-8.918L2.496,-9.891L2.443,-9.979L2.188,-10.406L0,-14.061Z" style="fill:rgb(0,188,218);fill-rule:nonzero;"/>
                </g>
                <g transform="matrix(1,0,0,1,393.601,1392.84)">
                    <path d="M0,5.136L0.218,5.157L1.419,5.291L1.453,5.15L2.177,2.154L2.184,2.126L2.612,0.356L2.735,-0.155L0.547,3.5L0.293,3.927L0.239,4.015L-0.343,4.988L-0.39,5.094L-0.231,5.112L0,5.136Z" style="fill:rgb(0,188,218);fill-rule:nonzero;"/>
                </g>
                <g transform="matrix(1,0,0,1,534.005,1444.09)">
                    <path d="M0,-91.621L1.269,-89.813L2.528,-87.461L3.467,-85.318L5.885,-78.913L8.134,-70.894L11.96,-55.916L11.681,-53.132L11.411,-50.347L10.791,-48.094L6.234,-46.635L9.943,-46.187L13.927,-44.566L16.809,-40.66L18.631,-36.687L18.902,-33.244L18.809,-31.425L18.405,-27.868L16.956,-23.37L15.583,-20.885L13.627,-18.647L18.356,-16.295L22.575,-14.949L23.196,-14.751L23.768,-14.568L24.933,-14.195L27.661,-10.737L27.672,-10.723L27.923,-10.405L29.061,-8.963L32.373,-4.765L32.379,-4.741L34.04,1.724L33.967,-2.323L33.928,-4.444L33.923,-4.741L33.923,-10.405L32.685,-19.626L31.831,-20.97L31.252,-21.879L27.093,-28.418L31.252,-21.879L29.794,-25.965L29.11,-27.882L29.097,-27.92L29.098,-27.914L29.097,-27.92L28.858,-28.587L28.204,-30.42L24.233,-36.102L23.417,-37.269L23.225,-38.058L23.119,-38.499L22.498,-41.069L22.49,-41.101L22.206,-42.275L22.145,-42.528L22.142,-42.542L22.085,-42.779L21.878,-43.635L21.861,-43.706L21.661,-44.531L21.324,-45.927L21.284,-46.092L20.56,-49.088L20.552,-49.117L20.125,-50.886L20.002,-51.397L19.742,-52.469L19.681,-52.723L18.288,-58.486L11.456,-76.509L9.82,-80.803L8.424,-84.44L7.54,-86.697L6.443,-88.452L5.903,-89.569L5.901,-89.569L5.633,-90.003L2.697,-91.639L-2.118,-93.345L-0.919,-92.573L0,-91.621Z" style="fill:rgb(0,188,218);fill-rule:nonzero;"/>
                </g>
                <g transform="matrix(1,0,0,1,383.965,1357.23)">
                    <path d="M0,82.091L3.312,77.893L4.45,76.451L4.7,76.133L4.712,76.119L7.439,72.661L8.605,72.288L9.177,72.105L9.798,71.907L14.017,70.561L18.746,68.209L16.79,65.971L15.416,63.486L13.967,58.988L13.563,55.431L13.47,53.612L13.742,50.169L15.564,46.196L18.446,42.29L22.429,40.669L26.138,40.221L21.581,38.762L20.962,36.509L20.692,33.724L20.412,30.94L24.239,15.962L26.487,7.943L28.905,1.538L29.845,-0.605L31.104,-2.957L32.373,-4.765L33.292,-5.717L34.491,-6.489L29.675,-4.783L26.74,-3.147L26.472,-2.713L26.469,-2.713L25.93,-1.596L24.832,0.159L23.949,2.416L22.552,6.053L20.917,10.347L14.085,28.37L12.691,34.133L12.63,34.387L12.371,35.459L12.248,35.97L11.82,37.739L11.813,37.768L11.089,40.764L11.055,40.905L10.835,41.814L10.776,42.061L10.512,43.15L10.471,43.32L9.942,45.508L9.883,45.755L9.723,46.414L9.71,46.467L9.386,47.81L9.319,48.085L9.253,48.357L9.147,48.798L8.956,49.587L8.14,50.754L4.168,56.436L3.514,58.269L3.497,58.318L2.691,60.578L1.875,62.862L1.12,64.977L5.279,58.438L1.12,64.977L-0.313,67.23L-1.551,76.451L-1.551,82.115L-1.668,88.58L-0.007,82.115L0,82.091Z" style="fill:rgb(0,188,218);fill-rule:nonzero;"/>
                </g>
                <g transform="matrix(1,0,0,1,657.558,1453.84)">
                    <path d="M0,-44.609L-2.749,-44.683L-3.164,-44.672L-4.67,-44.637L-12.948,-44.436L-13.382,-44.426L-13.476,-44.426L-16.641,-44.126L-18.626,-44.56L-18.89,-46.812L-17.02,-47.359L-13.855,-47.658L-13.762,-47.662L-13.775,-47.771L-13.677,-47.662L-13.15,-47.676L-5.211,-47.866L-3.967,-47.898L-3.543,-47.908L-3.129,-47.916L-0.38,-47.845L0.359,-47.612L0.8,-47.306L0.993,-45.663L0,-44.609ZM7.664,-12.081L7.566,-35.857L7.744,-53.771L5.232,-60.577L-26.884,-57.99L-59.42,-55.952L-92.377,-54.465L-93.624,-47.475L-93.759,-35.723L-92.301,-31.637L-91.723,-30.728L-90.868,-29.384L-89.63,-20.163L-89.63,-14.499L-89.625,-14.202L-89.587,-12.081L-89.513,-8.034L-89.63,-7.801L-89.63,0.877L-89.639,1.11L-89.656,1.554L-89.935,8.911L-89.971,9.859L-89.052,13.416L-85.833,15.968L8.598,14.632L9.172,8.706L7.664,-12.081Z" style="fill:rgb(0,188,218);fill-rule:nonzero;"/>
                </g>
                <g transform="matrix(1,0,0,1,657.558,1408.18)">
                    <path d="M0,1.054L0.993,0L0.623,0.303L0,1.054Z" style="fill:rgb(0,188,218);fill-rule:nonzero;"/>
                </g>
                <g transform="matrix(1,0,0,1,384.143,1446.04)">
                    <path d="M0,27.579L0,24.456L-0.609,18.707L-1.299,8.678L-1.729,0L-1.729,8.678L-1.349,18.707L-0.297,25.626L0,27.579Z" style="fill:rgb(221,221,221);fill-rule:nonzero;"/>
                </g>
                <g transform="matrix(1,0,0,1,406.453,1487.13)">
                    <rect x="-0.027" y="-3.398" width="6.4" height="3.398" style="fill:rgb(221,221,221);fill-rule:nonzero;"/>
                </g>
                <g transform="matrix(1,0,0,1,481.668,1440.73)">
                    <path d="M0,-0.123L-12.993,-0.123L-14.111,-0.201L-14.111,0.007L-13.087,0.078L0.093,0.078L1.117,0.007L1.117,-0.201L0,-0.123Z" style="fill:rgb(221,221,221);fill-rule:nonzero;"/>
                </g>
                <g transform="matrix(1,0,0,1,543.889,1487.13)">
                    <rect x="-6.373" y="-3.398" width="6.4" height="3.398" style="fill:rgb(221,221,221);fill-rule:nonzero;"/>
                </g>
                <g transform="matrix(1,0,0,1,567.902,1464.27)">
                    <path d="M0,-8.869L0.017,-9.313L0.026,-9.546L0.026,-18.224L-0.404,-9.546L-1.093,0.483L-1.703,6.232L-1.703,9.355L-1.406,7.402L-0.354,0.483L-0.314,-0.564L-0.278,-1.512L0,-8.869Z" style="fill:rgb(221,221,221);fill-rule:nonzero;"/>
                </g>
                <g transform="matrix(1,0,0,1,657.917,1409.41)">
                    <path d="M0,-3.183L-0.738,-3.415L-3.487,-3.486L-3.901,-3.479L-4.325,-3.469L-5.569,-3.437L-13.508,-3.246L-14.035,-3.232L-14.12,-3.232L-14.214,-3.229L-17.379,-2.929L-19.249,-2.383L-18.985,-0.13L-16.999,0.303L-13.834,0.004L-13.74,0.004L-13.306,-0.007L-5.029,-0.208L-3.522,-0.243L-3.108,-0.254L-0.359,-0.18L0.264,-0.931L0.634,-1.234L0.441,-2.876L0,-3.183Z" style="fill:rgb(221,221,221);fill-rule:nonzero;"/>
                </g>
            </g>
        </g>
    </g>
</svg>
