<?xml version="1.0" encoding="UTF-8" standalone="no"?>
<!DOCTYPE svg PUBLIC "-//W3C//DTD SVG 1.1//EN" "http://www.w3.org/Graphics/SVG/1.1/DTD/svg11.dtd">
<svg width="100%" height="100%" viewBox="0 0 360 180" version="1.1" xmlns="http://www.w3.org/2000/svg" xmlns:xlink="http://www.w3.org/1999/xlink" xml:space="preserve" xmlns:serif="http://www.serif.com/" style="fill-rule:evenodd;clip-rule:evenodd;stroke-linejoin:round;stroke-miterlimit:2;">
    <g transform="matrix(1,0,0,1,-1412.24,-1823.88)">
        <g id="car-outbound">
            <g>
                <g>
                    <g transform="matrix(1,0,0,1,1679.63,1995.04)">
                        <path d="M0,6.416L0,-37.714L-1.403,-29.493L-1.826,-28.376L-2.302,-27.128L-4.399,-21.615L-6.38,-17.575L-6.898,-16.518L-18.499,-16.518L-18.499,6.416L-16.197,8.284L-2.302,8.284L0,6.416Z" style="fill:rgb(142,142,142);fill-rule:nonzero;"/>
                    </g>
                    <g transform="matrix(1,0,0,1,1521.05,1982.13)">
                        <path d="M2.298,-3.606L-9.299,-3.606L-9.821,-4.663L-11.798,-8.703L-13.896,-14.216L-14.371,-15.464L-14.798,-16.582L-16.197,-24.802L-16.197,19.328L-13.896,21.196L0,21.196L2.298,19.328L2.298,-3.606Z" style="fill:rgb(142,142,142);fill-rule:nonzero;"/>
                    </g>
                    <g transform="matrix(1,0,0,1,1664.56,1893.81)">
                        <path d="M-11.488,8.122L1.886,8.122L-1.371,5.718L-6.567,1.981L-11.319,0L-11.488,8.122Z" style="fill:rgb(229,101,154);fill-rule:nonzero;"/>
                    </g>
                    <g transform="matrix(1,0,0,1,1666.95,1914.56)">
                        <path d="M0,7.48L2.168,7.561L1.928,3.909L1.671,0.035L-0.641,-0.007L-9.38,-0.057L-14.216,-0.081L-14.421,7.325L-8.777,7.381L0,7.48Z" style="fill:rgb(229,101,154);fill-rule:nonzero;"/>
                    </g>
                    <g transform="matrix(1,0,0,1,1663.95,1923.3)">
                        <path d="M0,3.644L3.592,3.651L5.489,3.669L5.263,0.228L3.201,0.14L-5.777,0.034L-11.46,-0.025L-11.562,3.616L-5.351,3.633L0,3.644Z" style="fill:rgb(229,101,154);fill-rule:nonzero;"/>
                    </g>
                    <g transform="matrix(1,0,0,1,1666.3,1903.79)">
                        <path d="M0,9.238L2.214,9.316L1.812,3.196L0.793,-0.078L-13.279,-0.078L-13.529,9.101L-8.738,9.15L0,9.238Z" style="fill:rgb(229,101,154);fill-rule:nonzero;"/>
                    </g>
                    <g transform="matrix(1,0,0,1,1527.11,1893.81)">
                        <path d="M-9.073,8.122L4.301,8.122L4.131,0L-0.624,1.981L-5.816,5.718L-9.073,8.122Z" style="fill:rgb(229,101,154);fill-rule:nonzero;"/>
                    </g>
                    <g transform="matrix(1,0,0,1,1520.53,1923.3)">
                        <path d="M0,3.644L5.351,3.633L11.565,3.616L11.463,-0.025L5.781,0.034L-3.197,0.14L-5.259,0.228L-5.485,3.669L-3.589,3.651L0,3.644Z" style="fill:rgb(229,101,154);fill-rule:nonzero;"/>
                    </g>
                    <g transform="matrix(1,0,0,1,1526.31,1914.66)">
                        <path d="M0,7.282L5.644,7.225L5.436,-0.18L0.599,-0.156L-8.136,-0.107L-10.448,-0.064L-10.705,3.81L-10.949,7.462L-8.777,7.381L0,7.282Z" style="fill:rgb(229,101,154);fill-rule:nonzero;"/>
                    </g>
                    <g transform="matrix(1,0,0,1,1526.91,1903.87)">
                        <path d="M0,9.063L4.794,9.014L4.544,-0.166L-9.528,-0.166L-10.547,3.109L-10.952,9.229L-8.735,9.151L0,9.063Z" style="fill:rgb(229,101,154);fill-rule:nonzero;"/>
                    </g>
                    <g transform="matrix(1,0,0,1,1633.86,1881.31)">
                        <path d="M0,-18.284L-20.745,-19.384L-41.62,-19.585L-62.491,-19.384L-83.236,-18.284L-89.546,-17.286L-91.287,-16.084L-91.287,-5.294L-90.088,0.402L-87.187,1.301L-78.639,0.402L-60.711,-0.3L-41.62,-0.55L-22.525,-0.3L-4.6,0.402L3.948,1.301L6.853,0.402L8.051,-5.294L8.051,-16.084L6.306,-17.286L0,-18.284Z" style="fill:rgb(214,238,246);fill-rule:nonzero;"/>
                    </g>
                    <g transform="matrix(1,0,0,1,1677.07,1894.39)">
                        <path d="M0,10.476L1.618,11.026L6.401,11.079L12.115,11.195L15.929,11.026L17.054,10.536L18.231,8.252L18.245,5.079L17.71,3.07L16.832,1.079L15.799,0.394L13.494,-0.303L7.349,-0.719L1.308,-0.413L0.063,-0.127L-0.938,0.846L-1.354,2.721L-1.621,6.711L-1.643,7.007L0,10.476Z" style="fill:rgb(214,238,246);fill-rule:nonzero;"/>
                    </g>
                    <g transform="matrix(1,0,0,1,1691.38,1894.54)">
                        <path d="M0,-0.218L-0.818,-0.458L1.488,0.24L0,-0.218Z" style="fill:rgb(214,238,246);fill-rule:nonzero;"/>
                    </g>
                    <g transform="matrix(1,0,0,1,1518.24,1867.69)">
                        <path d="M0,17.709L0.427,16.719L1.914,13.257L6.25,3.168L6.789,2.15L8.213,-3.91L8.213,-4.953L0.363,15.358L-1.382,22.662L0,17.709Z" style="fill:rgb(214,238,246);fill-rule:nonzero;"/>
                    </g>
                    <g transform="matrix(1,0,0,1,1520.5,1885.25)">
                        <path d="M0,2.33L0.892,0.088L2.069,-8.453L-1.66,0.144L-4.713,10.783L-2.386,6.451L0,2.33Z" style="fill:rgb(214,238,246);fill-rule:nonzero;"/>
                    </g>
                    <g transform="matrix(1,0,0,1,1489.16,1899.78)">
                        <path d="M0,-0.318L0.014,2.855L1.192,5.139L2.316,5.629L6.13,5.798L11.844,5.682L16.627,5.629L18.242,5.079L19.888,1.61L19.867,1.314L19.599,-2.676L19.183,-4.551L18.182,-5.524L16.938,-5.81L10.896,-6.116L4.752,-5.7L2.446,-5.003L1.41,-4.318L0.536,-2.327L0,-0.318Z" style="fill:rgb(214,238,246);fill-rule:nonzero;"/>
                    </g>
                    <g transform="matrix(1,0,0,1,1493.09,1894.54)">
                        <path d="M0,-0.218L-1.484,0.24L0.821,-0.458L0,-0.218Z" style="fill:rgb(214,238,246);fill-rule:nonzero;"/>
                    </g>
                    <g transform="matrix(1,0,0,1,1658.03,1900.29)">
                        <path d="M0,-37.556L0,-36.513L1.421,-30.453L1.964,-29.434L6.299,-19.346L7.787,-15.884L8.213,-14.894L9.592,-9.941L12.225,-0.501L12.345,-0.293L12.475,0L7.85,-17.245L0,-37.556Z" style="fill:rgb(214,238,246);fill-rule:nonzero;"/>
                    </g>
                    <g transform="matrix(1,0,0,1,1661.91,1896.04)">
                        <path d="M0,-19.236L1.177,-10.695L2.066,-8.453L4.456,-4.332L6.782,0L3.729,-10.639L0,-19.236Z" style="fill:rgb(214,238,246);fill-rule:nonzero;"/>
                    </g>
                    <g transform="matrix(0.0976869,-0.995217,-0.995217,-0.0976869,1508.92,1925.74)">
                        <path d="M-2.58,2.762L3.306,2.762L-2.726,2.843L-2.84,2.846L-2.58,2.762Z" style="fill:rgb(89,85,86);fill-rule:nonzero;"/>
                    </g>
                    <g transform="matrix(1,0,0,1,1684.06,1906.53)">
                        <path d="M0,-0.194L-2.743,-0.131L-2.711,-0.068L-2.676,0L-1.833,-0.057L1.967,-0.004L0.099,-0.187L0,-0.194Z" style="fill:rgb(89,85,86);fill-rule:nonzero;"/>
                    </g>
                    <g transform="matrix(1,0,0,1,1503.16,1906.47)">
                        <path d="M0,-0.068L-2.746,-0.131L-2.845,-0.124L-4.709,0.059L-0.909,0.006L-0.067,0.063L-0.032,-0.005L0,-0.068Z" style="fill:rgb(89,85,86);fill-rule:nonzero;"/>
                    </g>
                    <g transform="matrix(1,0,0,1,1661.13,1981.93)">
                        <path d="M-5.947,-3.405L11.601,-3.405L10.603,-4.247L7.41,-5.227L2.954,-5.922L-3.557,-6.401L-134.225,-6.401L-140.736,-5.922L-145.195,-5.227L-148.385,-4.247L-149.382,-3.405L-131.839,-3.405L-131.839,2.996L-5.947,2.996L-5.947,-3.405Z" style="fill:rgb(221,221,221);fill-rule:nonzero;"/>
                    </g>
                    <g transform="matrix(1,0,0,1,0,-4441.81)">
                        <rect x="1523.35" y="6420.34" width="5.947" height="6.401" style="fill:rgb(221,221,221);"/>
                    </g>
                    <g transform="matrix(1,0,0,1,0,-4441.81)">
                        <rect x="1655.18" y="6420.34" width="5.947" height="6.401" style="fill:rgb(221,221,221);"/>
                    </g>
                    <g transform="matrix(1,0,0,1,1677.17,1921.01)">
                        <path d="M0,-2.049L0.014,-1.978L0.078,-1.647L0.257,-0.723L0.367,-0.339L0.465,-0.001L0.835,-0.544L0.469,0.01L0.578,0.38L0.959,0.122L1.117,-1.185L0.483,-2.341L0.067,-2.429L-0.053,-2.331L0,-2.049Z" style="fill:rgb(221,221,221);fill-rule:nonzero;"/>
                    </g>
                    <g transform="matrix(1,0,0,1,1676.28,1918.36)">
                        <path d="M0,-1.985L0.021,-1.922L0.113,-1.604L0.486,-0.321L0.599,0.056L0.952,-0.579L0.603,0.07L0.705,0.419L0.835,0.313L0.955,0.215L1.128,0.07L1.167,-1.248L0.427,-2.338L0.321,-2.352L-0.12,-2.404L0,-1.985Z" style="fill:rgb(221,221,221);fill-rule:nonzero;"/>
                    </g>
                    <g transform="matrix(1,0,0,1,1504.85,1943.02)">
                        <path d="M0,27.089L0,14.307L-0.434,11.756L-0.444,11.699L-0.973,3.066L-0.976,3.028L-1.438,-2.549L-1.442,-2.57L-1.784,-4.498L-1.974,-2.549L-1.985,3.066L-1.823,11.756L-0.899,22.591L-0.825,22.951L-0.765,23.261L0,27.089Z" style="fill:rgb(221,221,221);fill-rule:nonzero;"/>
                    </g>
                    <g transform="matrix(1,0,0,1,1522.69,1882.85)">
                        <path d="M0,1.049L-1.142,3.933L-5.228,10.983L-7.97,16.091L-5.178,11.275L-2.587,6.813L0.208,3.457L1.509,0.175L3.606,-15.042L1.798,-11.993L0,1.049Z" style="fill:rgb(221,221,221);fill-rule:nonzero;"/>
                    </g>
                    <g transform="matrix(1,0,0,1,1527.6,1862.74)">
                        <path d="M0,-1.917L-1.544,0L0.042,-1.917L0,-1.917Z" style="fill:rgb(221,221,221);fill-rule:nonzero;"/>
                    </g>
                    <g transform="matrix(1,0,0,1,1518.84,1885.25)">
                        <path d="M0,0.148L3.729,-8.449L2.552,0.092L1.66,2.334L-0.726,6.455L-3.053,10.787L0,0.148ZM2.711,1.534L3.853,-1.35L5.651,-14.393L1.315,-4.304L-0.173,-0.842L-0.599,0.148L-1.981,5.101L-4.611,14.541L-4.547,14.432L-4.117,13.691L-1.375,8.584L2.711,1.534Z" style="fill:rgb(221,221,221);fill-rule:nonzero;"/>
                    </g>
                    <g transform="matrix(1,0,0,1,1513.83,1862.97)">
                        <path d="M0,37.644L0.141,37.323L4.769,20.079L12.62,-0.232L12.62,0.811L11.195,6.871L10.656,7.889L12.464,4.84L13.864,-1.117L13.864,-2.15L13.807,-2.15L12.221,-0.232L4.297,20.251L-0.716,38.849L-0.804,39.177L-0.969,39.794L0,37.644Z" style="fill:rgb(221,221,221);fill-rule:nonzero;"/>
                    </g>
                    <g transform="matrix(1,0,0,1,1518.6,1900.29)">
                        <path d="M0,-17.245L-4.628,0L-4.494,-0.293L-4.375,-0.501L-1.745,-9.941L0,-17.245Z" style="fill:rgb(221,221,221);fill-rule:nonzero;"/>
                    </g>
                    <g transform="matrix(1,0,0,1,1507.49,1915.96)">
                        <path d="M0,2.823L0.102,2.474L-0.247,1.825L0.106,2.46L0.215,2.083L0.592,0.8L0.684,0.483L0.701,0.419L0.825,0L0.384,0.052L0.278,0.067L-0.462,1.156L-0.427,2.474L-0.25,2.619L-0.13,2.718L0,2.823Z" style="fill:rgb(221,221,221);fill-rule:nonzero;"/>
                    </g>
                    <g transform="matrix(1,0,0,1,1506.47,1919.5)">
                        <path d="M0,0.963L0.367,1.506L0.465,1.168L0.578,0.783L0.758,-0.141L0.821,-0.472L0.835,-0.542L0.888,-0.824L0.768,-0.923L0.353,-0.835L-0.282,0.321L-0.123,1.629L0.257,1.886L0.367,1.517L0,0.963Z" style="fill:rgb(221,221,221);fill-rule:nonzero;"/>
                    </g>
                    <g transform="matrix(1,0,0,1,1652.49,1896.83)">
                        <path d="M0,26.444L5.682,26.504L14.661,26.61L16.723,26.698L16.948,30.138L15.052,30.12L11.46,30.113L6.109,30.103L-0.102,30.085L0,26.444ZM0.243,17.646L5.08,17.67L13.818,17.719L16.13,17.762L16.388,21.636L16.627,25.288L14.459,25.207L5.682,25.108L0.039,25.051L0.243,17.646ZM0.539,6.877L14.611,6.877L15.63,10.152L16.032,16.271L13.818,16.193L5.08,16.105L0.289,16.056L0.539,6.877ZM0.751,-3.022L5.503,-1.04L10.698,2.696L13.955,5.1L0.582,5.1L0.751,-3.022ZM-1.167,30.741L5.883,30.762L11.957,30.769L16.032,30.779L18.185,30.798L17.547,21.784L16.687,9.609L14.787,4.257L11.09,1.709L5.196,-2.253L-0.201,-4.354L-0.441,6.355L-1.167,30.741Z" style="fill:rgb(221,221,221);fill-rule:nonzero;"/>
                    </g>
                    <g transform="matrix(1,0,0,1,1515.27,1896.58)">
                        <path d="M0,26.952L2.062,26.864L11.04,26.758L16.723,26.698L16.825,30.339L10.61,30.357L5.259,30.368L1.671,30.374L-0.226,30.392L0,26.952ZM0.335,21.89L0.592,18.016L2.905,17.973L11.64,17.924L16.476,17.9L16.684,25.306L11.04,25.362L2.263,25.461L0.092,25.542L0.335,21.89ZM1.093,10.406L2.111,7.131L16.183,7.131L16.434,16.31L11.64,16.359L2.905,16.447L0.687,16.525L1.093,10.406ZM6.024,2.95L11.217,-0.786L15.972,-2.768L16.141,5.354L2.767,5.354L6.024,2.95ZM4.766,31.023L10.836,31.016L17.886,30.995L17.16,6.609L16.923,-4.1L11.527,-1.999L5.629,1.963L1.935,4.512L0.035,9.863L-0.825,22.038L-1.463,31.052L0.691,31.034L4.766,31.023Z" style="fill:rgb(221,221,221);fill-rule:nonzero;"/>
                    </g>
                    <g transform="matrix(1,0,0,1,1633.1,1902.35)">
                        <path d="M0,-11.697L-20.484,-12.218L-40.865,-12.532L-61.243,-12.218L-81.727,-11.697L-93.684,-11.108L-100.91,-9.874L-100.674,0.835L-53.009,0.835L-48.927,-2.348L-45.427,-3.815L-36.3,-3.815L-32.8,-2.348L-28.718,0.835L18.943,0.835L19.183,-9.874L11.957,-11.108L0,-11.697Z" style="fill:rgb(221,221,221);fill-rule:nonzero;"/>
                    </g>
                    <g transform="matrix(1,0,0,1,1533.79,1856.38)">
                        <path d="M0,6.754L2.799,6.522L2.633,1.329L3.553,0L0.702,0.205L0,1.541L0,6.754Z" style="fill:rgb(221,221,221);fill-rule:nonzero;"/>
                    </g>
                    <g transform="matrix(1,0,0,1,1647.89,1856.62)">
                        <path d="M0,6.289L2.799,6.521L2.799,1.308L2.098,-0.028L-0.754,-0.232L0.166,1.097L0,6.289Z" style="fill:rgb(221,221,221);fill-rule:nonzero;"/>
                    </g>
                    <g transform="matrix(1,0,0,1,1641.91,1870.44)">
                        <path d="M0,5.567L-1.198,11.263L-4.103,12.162L-12.651,11.263L-30.576,10.562L-49.671,10.312L-68.762,10.562L-86.69,11.263L-95.238,12.162L-98.139,11.263L-99.338,5.567L-99.338,-5.223L-97.597,-6.425L-91.287,-7.423L-70.542,-8.522L-49.671,-8.724L-28.796,-8.522L-8.051,-7.423L-1.745,-6.425L0,-5.223L0,5.567ZM-8.164,-9.027L-29.12,-9.943L-49.671,-10.141L-70.221,-9.943L-91.174,-9.027L-105.32,-7.539L-108.119,-7.307L-108.718,6.54L-108.718,15.708L-100.159,14.171L-87.191,12.673L-69.27,12.074L-49.671,11.76L-30.068,12.074L-12.151,12.673L0.821,14.171L9.38,15.708L9.38,6.54L8.781,-7.307L5.982,-7.539L-8.164,-9.027Z" style="fill:rgb(221,221,221);fill-rule:nonzero;"/>
                    </g>
                    <g transform="matrix(1,0,0,1,1681.6,1968.16)">
                        <path d="M0,-27.689L-0.187,-29.638L-0.532,-27.71L-0.532,-27.689L-0.994,-22.112L-0.998,-22.074L-1.526,-13.441L-1.537,-13.384L-1.97,-10.833L-1.97,1.949L-1.209,-1.879L-1.146,-2.189L-1.075,-2.549L-0.151,-13.384L0.014,-22.074L0,-27.689Z" style="fill:rgb(221,221,221);fill-rule:nonzero;"/>
                    </g>
                    <g transform="matrix(1,0,0,1,1662.93,1879.97)">
                        <path d="M0,6.817L-1.142,3.933L-2.94,-9.109L-4.748,-12.158L-2.651,3.059L-1.354,6.341L1.445,9.697L4.036,14.159L6.828,18.975L4.085,13.867L0,6.817Z" style="fill:rgb(221,221,221);fill-rule:nonzero;"/>
                    </g>
                    <g transform="matrix(1,0,0,1,1656.78,1901.73)">
                        <path d="M0,-39.878L1.4,-33.92L3.208,-30.872L2.665,-31.89L1.244,-37.95L1.244,-38.993L9.095,-18.682L13.719,-1.438L13.864,-1.117L14.833,1.033L14.668,0.416L14.579,0.088L9.563,-18.509L1.643,-38.993L0.057,-40.911L0,-40.911L0,-39.878Z" style="fill:rgb(221,221,221);fill-rule:nonzero;"/>
                    </g>
                    <g transform="matrix(1,0,0,1,1666.37,1878.94)">
                        <path d="M0,12.761L-2.39,8.64L-3.278,6.398L-4.456,-2.143L-0.726,6.454L2.326,17.093L0,12.761ZM-0.127,6.454L-0.553,5.464L-2.041,2.003L-6.377,-8.086L-4.579,4.956L-3.437,7.84L0.649,14.89L3.391,19.998L3.821,20.738L3.885,20.847L1.251,11.407L-0.127,6.454Z" style="fill:rgb(221,221,221);fill-rule:nonzero;"/>
                    </g>
                    <g transform="matrix(1,0,0,1,1511.12,1895.22)">
                        <path d="M0,11.409L0.113,11.166L0.211,10.944L1.047,9.093L1.396,8.318L1.745,7.546L1.911,6.929L1.903,6.926L1.801,6.908L-2.066,6.178L-3.712,9.647L-5.326,10.197L-10.11,10.249L-15.824,10.366L-19.638,10.197L-20.762,9.707L-21.94,7.423L-21.954,4.25L-21.418,2.241L-20.544,0.249L-19.617,-0.371L-20.9,0.26L-22.951,4.123L-22.934,6.872L-22.93,7.43L-22.483,8.826L-21.361,10.176L-18.193,10.824L-12.665,11.31L-10.801,11.127L-10.702,11.12L-7.956,11.183L-7.988,11.247L-8.023,11.314L-0.166,11.78L-0.148,11.741L0,11.409Z" style="fill:rgb(66,76,160);fill-rule:nonzero;"/>
                    </g>
                    <g transform="matrix(1,0,0,1,1502.88,1870.89)">
                        <path d="M0,69.576L0.19,67.627L0.532,69.555L0.427,66.199L3.536,59.833L10.931,56.735L11.569,47.721L12.429,35.546L14.329,30.195L18.023,27.646L23.921,23.684L29.317,21.583L29.814,19.031L30.315,15.259L30.315,6.091L30.914,-7.756L30.914,-12.969L31.616,-14.305L27.417,-12.789L27.368,-12.789L24.721,-10.075L24.819,-10.075L24.819,-9.042L23.42,-3.085L21.323,12.133L20.022,15.414L17.227,18.77L14.636,23.233L11.844,28.048L11.414,28.788L11.35,28.897L11.231,29.105L11.097,29.398L10.956,29.719L9.986,31.869L9.637,32.641L9.288,33.416L8.453,35.267L8.354,35.489L8.241,35.732L8.093,36.064L8.076,36.103L8.033,36.198L5.439,45.067L5.316,45.486L5.298,45.55L5.206,45.867L4.829,47.15L4.72,47.527L4.716,47.541L4.614,47.89L4.174,49.392L4.061,49.776L3.962,50.115L3.962,50.125L3.853,50.495L3.62,51.285L3.046,57.143L2.936,57.394L2.178,59.145L0.271,63.57L0.049,64.084L-0.123,65.871L-0.159,66.224L-0.173,72.386L0.007,81.917L0.151,83.881L-0.011,75.191L0,69.576Z" style="fill:rgb(66,76,160);fill-rule:nonzero;"/>
                    </g>
                    <g transform="matrix(1,0,0,1,1503.15,1930.48)">
                        <path d="M0,3.987L1.907,-0.437L2.665,-2.189L2.679,-2.302L-0.43,1.674L-0.455,3.99L-0.395,6.289L-0.222,4.502L0,3.987Z" style="fill:rgb(66,76,160);fill-rule:nonzero;"/>
                    </g>
                    <g transform="matrix(1,0,0,1,1629.76,1891.56)">
                        <path d="M0,-8.446L-17.918,-9.046L-37.52,-9.359L-57.119,-9.046L-75.04,-8.446L-88.009,-6.948L-96.567,-5.411L-97.068,-1.639L-97.565,0.913L-90.339,-0.321L-78.382,-0.91L-57.898,-1.431L-37.52,-1.745L-17.138,-1.431L3.345,-0.91L15.302,-0.321L22.528,0.913L22.031,-1.639L21.531,-5.411L12.972,-6.948L0,-8.446Z" style="fill:rgb(66,76,160);fill-rule:nonzero;"/>
                    </g>
                    <g transform="matrix(1,0,0,1,1664.44,1978.49)">
                        <path d="M0,-50.894L-6.074,-50.901L-13.124,-50.922L-16.969,-47.75L-22.306,-44.873L-29.765,-43.174L-40.812,-42.198L-103.596,-42.198L-114.647,-43.174L-122.103,-44.873L-127.439,-47.75L-131.289,-50.922L-138.339,-50.901L-144.409,-50.894L-148.484,-50.884L-150.637,-50.866L-158.033,-47.768L-161.142,-41.401L-161.036,-38.045L-161.033,-38.024L-160.571,-32.448L-160.567,-32.409L-160.038,-23.776L-160.028,-23.72L-159.594,-21.168L-158.195,-12.948L-157.768,-11.83L-157.293,-10.582L-155.195,-5.069L-153.218,-1.029L-152.696,0.028L-151.698,-0.814L-148.508,-1.794L-144.049,-2.489L-137.538,-2.968L-6.87,-2.968L-0.359,-2.489L4.096,-1.794L7.29,-0.814L8.287,0.028L8.806,-1.029L10.786,-5.069L12.884,-10.582L13.36,-11.83L13.783,-12.948L15.186,-21.168L15.619,-23.72L15.63,-23.776L16.158,-32.409L16.162,-32.448L16.624,-38.024L16.624,-38.045L16.733,-41.401L13.624,-47.768L6.229,-50.866L4.075,-50.884L0,-50.894Z" style="fill:rgb(66,76,160);fill-rule:nonzero;"/>
                    </g>
                    <g transform="matrix(1,0,0,1,1537,1908.74)">
                        <path d="M0,22.006L5.337,24.882L12.792,26.582L23.843,27.558L86.627,27.558L97.674,26.582L105.133,24.882L110.47,22.006L114.316,18.834L115.042,-5.552L91.361,-5.552L90.3,2.696L20.17,2.696L19.109,-5.552L-4.575,-5.552L-3.849,18.834L0,22.006Z" style="fill:rgb(66,76,160);fill-rule:nonzero;"/>
                    </g>
                    <g transform="matrix(-0.458882,0.888497,0.888497,0.458882,1512.66,1914.95)">
                        <path d="M-6.177,-5.16L-1.599,-5.16L3.142,-3.762L2.893,-3.395L-6.177,-5.16Z" style="fill:rgb(66,76,160);fill-rule:nonzero;"/>
                    </g>
                    <g transform="matrix(1,0,0,1,1512.92,1901.1)">
                        <path d="M0,1.026L-3.888,0L-3.867,0.296L0,1.026Z" style="fill:rgb(66,76,160);fill-rule:nonzero;"/>
                    </g>
                    <g transform="matrix(1,0,0,1,1507.31,1920)">
                        <path d="M0,-1.044L-0.014,-0.973L-0.078,-0.642L-0.257,0.282L0.183,-1.22L0.053,-1.326L0,-1.044Z" style="fill:rgb(66,76,160);fill-rule:nonzero;"/>
                    </g>
                    <g transform="matrix(1,0,0,1,1675.45,1902.12)">
                        <path d="M0,-1.026L-3.888,0L-0.021,-0.73L0,-1.026Z" style="fill:rgb(66,76,160);fill-rule:nonzero;"/>
                    </g>
                    <g transform="matrix(-0.189733,-0.981836,-0.981836,0.189733,1679.18,1909.22)">
                        <path d="M-6.185,3.817L-1.242,3.817L3.15,5.105L-6.05,4.24L-6.185,3.817Z" style="fill:rgb(66,76,160);fill-rule:nonzero;"/>
                    </g>
                    <g transform="matrix(1,0,0,1,1677.19,1919.93)">
                        <path d="M0,-0.902L-0.014,-0.973L-0.067,-1.255L-0.198,-1.149L0.243,0.353L0.063,-0.571L0,-0.902Z" style="fill:rgb(66,76,160);fill-rule:nonzero;"/>
                    </g>
                    <g transform="matrix(1,0,0,1,1681.33,1930.48)">
                        <path d="M0,3.987L0.222,4.502L0.395,6.289L0.451,3.99L0.43,1.674L-2.679,-2.302L-2.665,-2.189L-1.911,-0.437L0,3.987Z" style="fill:rgb(66,76,160);fill-rule:nonzero;"/>
                    </g>
                </g>
                <g transform="matrix(1,0,0,1,1673.36,1904.74)">
                    <path d="M0,1.889L-0.109,1.646L-0.208,1.424L-1.043,-0.427L-1.392,-1.202L-1.741,-1.974L-2.711,-4.124L-2.855,-4.445L-2.986,-4.738L-3.105,-4.946L-3.169,-5.055L-3.599,-5.795L-6.391,-10.611L-8.982,-15.073L-11.781,-18.429L-13.078,-21.711L-15.175,-36.928L-16.575,-42.885L-16.575,-43.918L-16.476,-43.918L-19.123,-46.632L-23.371,-48.148L-22.669,-46.812L-22.669,-41.599L-22.07,-27.753L-22.07,-18.584L-21.569,-14.812L-21.072,-12.26L-15.676,-10.159L-9.782,-6.197L-6.084,-3.649L-4.184,1.702L-3.324,13.878L-2.686,22.891L4.709,25.99L7.818,32.356L7.709,35.712L8.055,33.784L8.241,35.733L8.255,41.348L8.09,50.037L8.238,48.074L8.418,38.542L8.404,32.381L8.368,32.028L8.196,30.241L7.974,29.726L6.063,25.302L5.309,23.551L5.199,23.3L4.625,17.442L4.392,16.652L4.283,16.282L4.279,16.271L4.181,15.933L4.071,15.549L3.631,14.047L3.529,13.698L3.525,13.684L3.412,13.306L3.039,12.024L2.947,11.706L2.926,11.643L2.806,11.223L0.212,2.354L0.169,2.26L0.152,2.221L0,1.889Z" style="fill:rgb(66,76,160);fill-rule:nonzero;"/>
                </g>
                <g transform="matrix(1,0,0,1,1559.9,1898.54)">
                    <path d="M-2.721,12.898L67.409,12.898L68.47,4.65L44.489,4.65L40.407,1.467L36.907,0L27.781,0L24.28,1.467L20.198,4.65L-3.782,4.65L-2.721,12.898Z" style="fill:rgb(66,76,160);fill-rule:nonzero;"/>
                </g>
                <g transform="matrix(1,0,0,1,1696.3,1899.75)">
                    <path d="M0,2.337L-0.004,2.894L0,2.337L0.018,-0.413L-2.034,-4.276L-3.317,-4.907L-2.393,-4.286L-1.516,-2.295L-0.98,-0.286L-0.994,2.887L-2.171,5.171L-3.296,5.661L-7.11,5.831L-12.824,5.714L-17.607,5.661L-19.225,5.111L-20.868,1.643L-24.735,2.373L-24.837,2.39L-24.844,2.394L-24.679,3.01L-24.33,3.782L-23.981,4.558L-23.145,6.409L-23.046,6.63L-22.937,6.874L-22.786,7.205L-22.768,7.244L-14.911,6.779L-14.946,6.712L-14.978,6.648L-12.235,6.585L-12.137,6.592L-10.268,6.775L-4.741,6.289L-1.572,5.64L-0.455,4.29L0.028,2.901L0,2.337Z" style="fill:rgb(66,76,160);fill-rule:nonzero;"/>
                </g>
                <g transform="matrix(1,0,0,1,1503.79,1961.31)">
                    <path d="M0,2.524L-0.053,1.882L-0.25,-0.469L-0.159,2.094L0.042,2.993L0.028,2.862L0,2.524Z" style="fill:rgb(66,76,160);fill-rule:nonzero;"/>
                </g>
                <g transform="matrix(1,0,0,1,1536.59,1854.43)">
                    <path d="M0,8.471L14.146,6.983L35.099,6.067L55.649,5.869L76.2,6.067L97.156,6.983L111.302,8.471L111.468,3.279L110.548,1.95L98.464,1.068L76.2,0.268L55.649,0L35.099,0.268L12.838,1.068L0.754,1.95L-0.166,3.279L0,8.471Z" style="fill:rgb(66,76,160);fill-rule:nonzero;"/>
                </g>
                <g transform="matrix(1,0,0,1,1680.76,1962.14)">
                    <path d="M0,2.521L0.078,1.259L0.173,-1.304L-0.025,1.047L-0.081,1.689L-0.109,2.027L-0.12,2.158L-0.24,3.465L-0.31,3.825L0,2.521Z" style="fill:rgb(66,76,160);fill-rule:nonzero;"/>
                </g>
            </g>
        </g>
    </g>
</svg>
