<?xml version="1.0" encoding="UTF-8" standalone="no"?>
<!DOCTYPE svg PUBLIC "-//W3C//DTD SVG 1.1//EN" "http://www.w3.org/Graphics/SVG/1.1/DTD/svg11.dtd">
<svg width="100%" height="100%" viewBox="0 0 360 180" version="1.1" xmlns="http://www.w3.org/2000/svg" xmlns:xlink="http://www.w3.org/1999/xlink" xml:space="preserve" xmlns:serif="http://www.serif.com/" style="fill-rule:evenodd;clip-rule:evenodd;stroke-linejoin:round;stroke-miterlimit:2;">
    <g transform="matrix(1.27,0,0,1.27,10.3009,29.9065)">
        <g id="rideshare-outbound-door-right">
            <g>
                <g transform="matrix(0.787402,0,0,0.787402,80.1611,35.2607)">
                    <path d="M0,23.691L12.027,23.61L26.501,23.533L20.427,13.451L13.497,3.179L11.262,1.107L9.098,-0.159L4.949,1.667L0.8,7.846L-3.93,20.145L-5.351,23.85L-4.304,23.769L0,23.691Z" style="fill:rgb(229,101,154);fill-rule:nonzero;"/>
                </g>
                <g transform="matrix(0.787402,0,0,0.787402,134.898,34.1865)">
                    <path d="M-12.084,1.424L12.084,1.424L22.722,0.857L22.645,0.261L12.027,0L-12.027,0L-22.645,0.261L-22.722,0.857L-12.084,1.424Z" style="fill:rgb(229,101,154);fill-rule:nonzero;"/>
                </g>
                <g transform="matrix(0.787402,0,0,0.787402,179.005,51.4113)">
                    <path d="M0,-17.332L-6.927,-7.06L-13,3.022L1.474,3.099L13.501,3.18L17.805,3.257L18.852,3.338L17.431,-0.366L12.701,-12.665L8.552,-18.844L4.403,-20.67L2.238,-19.405L0,-17.332Z" style="fill:rgb(229,101,154);fill-rule:nonzero;"/>
                </g>
                <g transform="matrix(0.787402,0,0,0.787402,106.776,6.57252)">
                    <path d="M0,26.19L22.694,25.816L35.715,25.7L48.736,25.816L71.43,26.19L88.23,26.525L92.862,25.711L92.055,19.961L85.844,8.11L83.253,3.51L77.479,2.562L68.635,1.043L48.25,-0.166L35.715,-0.335L23.18,-0.166L2.795,1.043L-6.049,2.562L-11.823,3.51L-14.414,8.11L-20.625,19.961L-21.432,25.711L-16.8,26.525L0,26.19Z" style="fill:rgb(214,238,246);fill-rule:nonzero;"/>
                </g>
                <g transform="matrix(0.787402,0,0,0.787402,56.5742,32.0017)">
                    <path d="M0,-0.338L0.01,3.025L1.213,5.439L2.362,5.961L6.25,6.141L12.077,6.017L16.959,5.961L18.605,5.38L20.124,-0L19.99,-2.834L19.564,-4.818L18.541,-5.847L17.272,-6.154L11.111,-6.479L4.847,-6.034L2.492,-5.297L1.438,-4.571L0.543,-2.463L0,-0.338Z" style="fill:rgb(214,238,246);fill-rule:nonzero;"/>
                </g>
                <g transform="matrix(0.787402,0,0,0.787402,59.73,27.6338)">
                    <path d="M0,-0.237L-1.516,0.25L0.839,-0.487L0,-0.237Z" style="fill:rgb(214,238,246);fill-rule:nonzero;"/>
                </g>
                <g transform="matrix(0.787402,0,0,0.787402,199.869,27.4051)">
                    <path d="M0,11.799L0.864,11.809L0.698,11.016L0.42,9.655L-0.342,5.947L-0.768,3.885L-1.156,1.992L-1.565,0.008L-1.583,-0.01L-2.609,1.019L-3.031,3.004L-3.165,5.838L-1.646,11.217L0,11.799Z" style="fill:rgb(214,238,246);fill-rule:nonzero;"/>
                </g>
                <g transform="matrix(0.787402,0,0,0.787402,79.1009,14.3409)">
                    <path d="M0,24.64L1.22,23.649L1.889,22.303L6.179,12.807L11.505,3.931L13.807,0L5.682,12.792L0,24.64Z" style="fill:rgb(214,238,246);fill-rule:nonzero;"/>
                </g>
                <g transform="matrix(0.398721,-0.678987,-0.678987,-0.398721,84.4384,14.0549)">
                    <path d="M3.246,-6.245L4.263,-6.245L-11.926,-5.67L-11.899,-5.716L3.246,-6.245Z" style="fill:rgb(214,238,246);fill-rule:nonzero;"/>
                </g>
                <g transform="matrix(0.787402,0,0,0.787402,76.217,8.06551)">
                    <path d="M0,35.581L1.163,34.637L1.699,34.013L2.46,33.586L3.564,32.687L9.292,20.762L17.984,7.092L19.461,4.572L20.646,2.14L20.938,0L17.403,5.051L7.11,20.702L6.151,22.683L6.123,22.743L0.543,34.302L0,35.581Z" style="fill:rgb(214,238,246);fill-rule:nonzero;"/>
                </g>
                <g transform="matrix(0.787402,0,0,0.787402,242.233,14.3409)">
                    <path d="M0,24.64L15.461,23.649L15.514,22.303L6.881,12.807L-3.624,3.931L-9.433,0L-3.814,12.792L0,24.64Z" style="fill:rgb(214,238,246);fill-rule:nonzero;"/>
                </g>
                <g transform="matrix(0.787402,0,0,0.787402,204.235,9.07236)">
                    <path d="M0,33.023L1.953,34.302L47.044,31.408L43.336,19.483L37.531,5.814L33.801,3.293L25.151,0.861L-11.453,-1.279L-9.345,3.773L-3.419,19.423L0,33.023Z" style="fill:rgb(214,238,246);fill-rule:nonzero;"/>
                </g>
                <g transform="matrix(0.787402,0,0,0.787402,98.4577,1.31543)">
                    <path d="M0,7.991L13.36,6.521L33.745,5.612L46.28,5.446L58.814,5.612L79.199,6.521L92.559,7.991L91.191,3.616L90.479,1.48L90.042,1.417L87.413,1.043L67.704,0.257L46.28,0L24.855,0.257L5.146,1.043L2.517,1.417L2.08,1.48L1.368,3.616L0,7.991Z" style="fill:rgb(130,195,65);fill-rule:nonzero;"/>
                </g>
                <g transform="matrix(0.787402,0,0,0.787402,69.5723,95.5629)">
                    <path d="M0,5.858L0,1.674L-1.258,-1.198L-2.242,3.197L-1.629,5.858L0,5.858Z" style="fill:rgb(130,195,65);fill-rule:nonzero;"/>
                </g>
                <g transform="matrix(0.787402,0,0,0.787402,56.5742,30.5364)">
                    <path d="M0,1.523L0.543,-0.602L1.438,-2.71L2.383,-3.37L1.072,-2.704L-1.019,1.393L-1.001,4.304L-0.998,4.893L0.01,4.886L0,1.523Z" style="fill:rgb(130,195,65);fill-rule:nonzero;"/>
                </g>
                <g transform="matrix(0.447017,0.64821,0.64821,-0.447017,201.029,93.0811)">
                    <path d="M-0.48,-0.915L1.742,-0.915L-0.075,-0.326L-0.48,-0.915Z" style="fill:rgb(130,195,65);fill-rule:nonzero;"/>
                </g>
                <g transform="matrix(0.787402,0,0,0.787402,200.222,95.5629)">
                    <path d="M0,1.674L0,5.858L1.632,5.858L2.245,3.197L1.262,-1.198L0,1.674Z" style="fill:rgb(130,195,65);fill-rule:nonzero;"/>
                </g>
                <g transform="matrix(0.787402,0,0,0.787402,200.022,54.665)">
                    <path d="M0,-6.825L0.004,-6.804L0.219,-4.995L0.222,-4.974L0.363,-3.804L0.367,-3.793L0.462,-3L0.479,-2.838L0.539,-2.341L0.627,-1.612L0.8,-0.194L0.938,0.204L0.976,0.313L0.635,-2.492L0.508,-3.37L0.078,-6.36L0.296,-4.544L0.416,-3.536L0.479,-2.969L0.409,-3.543L0.381,-3.779L0.286,-4.551L0.286,-4.565L0.067,-6.363L0.063,-6.377L0.06,-6.416L0.014,-6.807L-0.035,-7.138L-0.004,-6.864L0,-6.825Z" style="fill:rgb(130,195,65);fill-rule:nonzero;"/>
                </g>
                <g transform="matrix(0.787402,0,0,0.787402,200.977,53.6987)">
                    <path d="M0,0.476L0.592,2.619L0.419,0.117L-0.705,-2.143L-0.578,-1.265L0,0.476Z" style="fill:rgb(130,195,65);fill-rule:nonzero;"/>
                </g>
                <g transform="matrix(0.787402,0,0,0.787402,201.454,77.7524)">
                    <path d="M0,-21.288L0,-21.045L0.247,-19.004L0.381,-17.879L0.479,-14.023L0.546,-11.309L0.853,0.856L0.761,-15.842L0.099,-21.281L-0.007,-22.144L0,-21.288Z" style="fill:rgb(130,195,65);fill-rule:nonzero;"/>
                </g>
                <g transform="matrix(0.787402,0,0,0.787402,175.88,3.22221)">
                    <path d="M0,4.272L0.388,4.713L0.296,4.568L-1.667,2.249L-1.614,2.249L-4.145,-0.441L-4.448,-0.441L-1.209,2.904L0,4.272Z" style="fill:rgb(130,195,65);fill-rule:nonzero;"/>
                </g>
                <g transform="matrix(0.787402,0,0,0.787402,71.3209,41.029)">
                    <path d="M0,9.273L3.564,-1.104L7.917,-7.851L7.381,-7.227L6.74,-6.477L5.982,-5.599L4.554,-3.935L3.966,-3.251L3.247,-2.412L2.993,-2.116L1.717,-0.628L0.388,3.277L1.019,3.39L1.533,3.481L1.569,3.376L1.576,3.362L1.576,3.358L1.738,3.348L2.15,2.079L2.217,1.864L2.573,0.746L2.549,0.633L2.605,0.648L2.587,0.704L2.573,0.746L2.217,1.864L2.15,2.079L1.738,3.348L1.685,3.51L1.77,3.524L1.093,5.508L1.015,5.508L1.008,5.505L0.945,5.699L0.656,6.517L0.596,6.696L0.3,7.528L0.116,8.04L0.099,8.086L0.049,8.219L-0.289,9.09L0.049,8.219L0.099,8.086L-0.014,8.131L0.116,8.04L0.3,7.528L0.596,6.696L0.656,6.517L0.945,5.699L1.008,5.505L0.885,5.42L0.874,5.417L0.68,5.346L0.677,5.343L-0.13,4.796L-1.509,8.857L-1.512,8.868L-1.907,10.024L-1.928,10.179L-2.764,17.124L0,9.273Z" style="fill:rgb(130,195,65);fill-rule:nonzero;"/>
                </g>
                <g transform="matrix(-0.787402,0,0,0.787402,68.6146,94.6196)">
                    <path d="M-1.216,-1.83L-0.504,-1.83L0.042,0L-1.216,-1.83Z" style="fill:rgb(130,195,65);fill-rule:nonzero;"/>
                </g>
                <g transform="matrix(0.787402,0,0,0.787402,173.965,61.0736)">
                    <path d="M0,-67.063L3.384,-61.014L9.295,-49.163L11.079,-40.731L12.154,-39.032L12.355,-35.352L10.804,-32.941L14.953,-31.115L19.102,-24.936L23.832,-12.637L25.253,-8.933L28.376,1.611L31.309,3.525L33.928,4.822L34.083,6.849L34.478,0.895L34.767,-1.16L34.915,0.895L34.915,0.691L34.911,0.137L34.911,-0.106L34.904,-0.962L34.89,-3.677L34.725,-5.964L34.436,-6.786L34.069,-7.826L34.03,-7.935L33.893,-8.333L33.103,-10.572L32.349,-12.722L31.129,-16.184L30.861,-16.966L30.815,-17.096L29.511,-20.9L28.581,-23.604L27.981,-25.348L27.565,-26.561L25.99,-29L25.813,-29.275L25.581,-29.635L25.574,-29.646L24.982,-30.562L23.212,-33.308L22.842,-33.516L20.773,-34.679L20.269,-34.964L19.201,-35.564L20.269,-34.964L19.426,-36.738L19.208,-37.221L18.341,-39.142L17.625,-40.724L15.277,-45.934L15.002,-46.544L9.789,-55.254L9.161,-56.301L9.073,-56.453L8.037,-58.219L4.656,-63.989L3.934,-65.456L3.839,-65.643L3.419,-66.496L3.261,-67.299L3.222,-67.486L3.024,-68.473L3.014,-68.537L3.01,-68.543L2.986,-68.572L2.82,-68.758L2.432,-69.199L1.223,-70.567L-2.016,-73.912L-1.304,-71.779L0,-67.063Z" style="fill:rgb(130,195,65);fill-rule:nonzero;"/>
                </g>
                <g transform="matrix(0.787402,0,0,0.787402,69.0061,49.0439)">
                    <path d="M0,7.452L0.039,7.343L0.176,6.945L1.012,0L0.962,0.331L0.916,0.723L0.909,0.762L0.909,0.776L0.691,2.574L0.691,2.588L0.596,3.36L0.567,3.596L0.497,4.17L0.56,3.603L0.68,2.595L0.899,0.779L0.469,3.768L0.342,4.646L0,7.452Z" style="fill:rgb(130,195,65);fill-rule:nonzero;"/>
                </g>
                <g transform="matrix(-0.0955981,0.781577,0.781577,0.0955981,76.002,71.4651)">
                    <path d="M-10.652,-11.365L-6.525,-11.365L10.06,-9.429L-8.594,-11.235L-10.652,-11.365Z" style="fill:rgb(130,195,65);fill-rule:nonzero;"/>
                </g>
                <g transform="matrix(0.787402,0,0,0.787402,68.6952,68.3952)">
                    <path d="M0,18.517L-0.127,17.033L-0.18,11.305L-0.293,6.828L-0.328,4.664L-0.377,1.798L-0.448,-2.45L-0.451,-6.313L-0.451,-8.403L-0.427,-12.958L-0.55,-10.839L-0.708,-8.054L-0.828,-5.996L-1.301,12.74L0.402,31.475L1.072,31.475L0,18.517Z" style="fill:rgb(130,195,65);fill-rule:nonzero;"/>
                </g>
                <g transform="matrix(0.787402,0,0,0.787402,97.4197,6.58606)">
                    <path d="M0,-4.713L-0.303,-4.713L-2.781,-2.024L-4.448,0L-3.24,-1.368L0,-4.713Z" style="fill:rgb(130,195,65);fill-rule:nonzero;"/>
                </g>
                <g transform="matrix(0.787402,0,0,0.787402,200.802,81.8355)">
                    <path d="M0,-19.519L-0.155,-21.546L-2.774,-22.843L-5.707,-24.757L-8.83,-35.3L-9.877,-35.381L-14.181,-35.459L-26.208,-35.54L-40.682,-35.617L-46.35,-28.804L-49.681,-25.966L-52.381,-24.901L-66.474,-24.302L-100.92,-24.302L-115.013,-24.901L-117.713,-25.966L-121.045,-28.804L-126.713,-35.617L-141.186,-35.54L-153.214,-35.459L-157.518,-35.381L-158.565,-35.3L-161.688,-24.757L-164.62,-22.843L-167.24,-21.546L-167.395,-19.519L-166.926,-10.241L-166.661,-8.183L-166.351,-5.803L-165.414,1.448L-165.131,2.618L-164.62,4.737L-164.056,7.081L-163.207,12.746L-162.703,16.098L-162.442,15.354L-161.109,14.924L-154.729,13.997L-147.859,13.803L-137.644,13.722L-140.665,11.23L-140.665,5.354L-139.949,4.187L-139.075,3.337L-137.644,2.865L-29.754,2.865L-28.32,3.337L-27.446,4.187L-26.73,5.354L-26.73,11.23L-29.751,13.722L-19.536,13.803L-12.665,13.997L-6.289,14.924L-4.953,15.354L-4.695,16.098L-4.191,12.746L-3.338,7.081L-2.774,4.737L-2.263,2.618L-1.981,1.448L-1.043,-5.803L-0.737,-8.183L-0.469,-10.241L0,-19.519Z" style="fill:rgb(130,195,65);fill-rule:nonzero;"/>
                </g>
                <g transform="matrix(0.787402,0,0,0.787402,106.03,25.4393)">
                    <path d="M0,-3.648L-0.709,-3.983L-1.037,-4.067L-1.592,-4.18L-2.588,-4.23L-12.287,-3.645L-13.329,-3.556L-14.346,-3.335L-15.067,-3.073L-15.267,-2.985L-16.032,-2.495L-16.587,-1.945L-16.895,-1.371L-16.934,-0.814L-16.703,-0.31L-16.216,0.106L-15.507,0.406L-14.624,0.568L-13.628,0.582L-9.099,0.113L-3.929,-0.201L-2.887,-0.289L-1.87,-0.507L-1.015,-0.821L-0.949,-0.842L-0.184,-1.233L0.371,-1.702L0.679,-2.213L0.718,-2.731L0.487,-3.218L0,-3.648Z" style="fill:rgb(229,101,154);fill-rule:nonzero;"/>
                </g>
                <g transform="matrix(0.787402,0,0,0.787402,97.3822,18.5425)">
                    <path d="M0,3.292L0.836,3.62L1.878,3.817L2.019,3.821L3.054,3.874L4.283,3.768L5.212,3.567L5.483,3.51L6.571,3.137L7.473,2.657L8.128,2.111L8.491,1.533L8.538,0.959L8.264,0.433L7.69,-0.007L6.854,-0.339L5.812,-0.533L4.636,-0.582L3.407,-0.476L2.207,-0.229L1.119,0.147L0.217,0.624L-0.438,1.173L-0.802,1.751L-0.848,2.323L-0.575,2.848L0,3.292Z" style="fill:rgb(250,192,41);fill-rule:nonzero;"/>
                </g>
                <g transform="matrix(0.787402,0,0,0.787402,68.3594,54.384)">
                    <path d="M0,4.819L0.166,2.531L0.455,1.71L0.821,0.67L1.163,-2.136L0.585,-0.394L-0.007,1.749L-0.123,6.557L-0.123,6.955L0,4.837L0,4.819Z" style="fill:rgb(130,195,65);fill-rule:nonzero;"/>
                </g>
                <g transform="matrix(0.787402,0,0,0.787402,111.506,49.6121)">
                    <path d="M0,-10.214L10.406,-10.881L49.011,-10.881L59.414,-10.214L61.388,-8.268L61.282,-5.124L59.308,0.794L54.44,8.419L51.105,10.862L41.634,11.771L17.784,11.771L8.312,10.862L4.974,8.419L0.109,0.794L-1.865,-5.124L-1.97,-8.268L0,-10.214ZM7.064,-19.33L17.681,-19.59L41.736,-19.59L52.353,-19.33L52.431,-18.734L41.792,-18.167L17.625,-18.167L6.987,-18.734L7.064,-19.33ZM-26.31,-15.047L-19.38,-4.775L-13.307,5.307L-7.639,12.12L-4.307,14.958L-1.607,16.022L12.485,16.621L46.932,16.621L61.025,16.022L63.725,14.958L67.056,12.12L72.724,5.307L78.797,-4.775L85.724,-15.047L87.963,-17.12L90.127,-18.385L91.678,-20.796L91.477,-24.476L90.402,-26.175L82.224,-25.699L67.775,-26.32L42.73,-26.835L29.709,-26.824L16.687,-26.835L-8.358,-26.32L-22.807,-25.699L-30.985,-26.175L-32.06,-24.476L-32.261,-20.796L-30.71,-18.385L-28.545,-17.12L-26.31,-15.047Z" style="fill:rgb(130,195,65);fill-rule:nonzero;"/>
                </g>
                <g transform="matrix(0.787402,0,0,0.787402,200.521,60.9961)">
                    <path d="M0,-10.533L0.342,-7.727L0.708,-6.687L0.998,-5.866L1.163,-3.578L1.177,-0.864L1.283,0L1.287,-1.841L1.17,-6.649L0.578,-8.792L0,-10.533Z" style="fill:rgb(130,195,65);fill-rule:nonzero;"/>
                </g>
                <g transform="matrix(0.787402,0,0,0.787402,68.5952,78.4654)">
                    <path d="M0,4.244L0.127,5.728L-0.053,-1.484L0,4.244Z" style="fill:rgb(130,195,65);fill-rule:nonzero;"/>
                </g>
                <g transform="matrix(0.787402,0,0,0.787402,201.648,61.1817)">
                    <path d="M0,2.041L-0.247,0L-0.243,0.554L0,2.041Z" style="fill:rgb(130,195,65);fill-rule:nonzero;"/>
                </g>
                <g transform="matrix(0.787402,0,0,0.787402,114.401,56.1001)">
                    <path d="M0,-15.588L1.266,-15.951L9.44,-15.951L8.802,-3.177L5.125,-3.177L3.666,-3.892L0.835,-7.615L-0.444,-12.5L-0.511,-14.693L0,-15.588ZM11.023,-15.951L41.042,-15.951L41.042,-0.385L11.023,-0.385L11.023,-15.951ZM50.799,-15.951L52.064,-15.588L52.575,-14.693L52.508,-12.5L51.229,-7.615L48.398,-3.892L46.939,-3.177L43.262,-3.177L42.621,-15.951L50.799,-15.951ZM-3.567,-7.445L1.297,0.179L4.635,2.622L14.107,3.532L37.957,3.532L47.429,2.622L50.763,0.179L55.631,-7.445L57.605,-13.364L57.711,-16.508L55.737,-18.454L45.335,-19.12L6.729,-19.12L-3.677,-18.454L-5.647,-16.508L-5.541,-13.364L-3.567,-7.445Z" style="fill:rgb(130,195,65);fill-rule:nonzero;"/>
                </g>
                <g transform="matrix(0.787402,0,0,0.787402,92.1654,58.6529)">
                    <path d="M0,-60.915L-4.505,-53.227L-10.346,-43.47L-14.77,-33.664L-15.612,-31.89L-14.544,-32.49L-15.612,-31.89L-17.794,-30.66L-18.556,-30.233L-22.909,-23.487L-26.473,-13.109L-29.236,-5.259L-29.374,-4.861L-29.412,-4.751L-29.779,-3.711L-30.068,-2.89L-30.234,-0.602L-30.234,-0.585L-30.258,3.969L-30.11,1.915L-29.821,3.969L-29.427,9.923L-29.271,7.896L-26.652,6.599L-23.72,4.685L-20.597,-5.858L-19.176,-9.563L-14.445,-21.862L-10.296,-28.041L-6.147,-29.867L-7.699,-32.278L-7.498,-35.958L-6.422,-37.657L-4.639,-46.089L1.272,-57.94L4.656,-63.989L5.961,-68.705L6.673,-70.838L3.433,-67.493L2.224,-66.125L1.837,-65.684L1.671,-65.498L1.646,-65.469L1.237,-63.421L0,-60.915Z" style="fill:rgb(130,195,65);fill-rule:nonzero;"/>
                </g>
                <g transform="matrix(0.787402,0,0,0.787402,69.2753,55.0694)">
                    <path d="M0,-3.006L0.127,-3.884L-0.998,-1.624L-1.17,0.878L-0.578,-1.265L0,-3.006Z" style="fill:rgb(130,195,65);fill-rule:nonzero;"/>
                </g>
                <g transform="matrix(0.787402,0,0,0.787402,201.201,78.5565)">
                    <path d="M0,4.012L0.053,-1.6L-0.127,5.612L-0.095,5.242L0,4.128L0,4.012Z" style="fill:rgb(130,195,65);fill-rule:nonzero;"/>
                </g>
                <g transform="matrix(0.787402,0,0,0.787402,194.29,37.7001)">
                    <path d="M0,0.409L-0.194,0L-0.233,0.05L0,0.409Z" style="fill:rgb(221,221,221);fill-rule:nonzero;"/>
                </g>
                <g transform="matrix(0.787402,0,0,0.787402,171.339,3.14142)">
                    <path d="M0,5.672L3.335,6.511L2.03,1.795L1.318,-0.338L-2.08,-0.839L-1.368,1.297L0,5.672Z" style="fill:rgb(221,221,221);fill-rule:nonzero;"/>
                </g>
                <g transform="matrix(0.787402,0,0,0.787402,99.8539,2.87465)">
                    <path d="M0,-0.5L-3.091,0L0.307,-0.5L0,-0.5Z" style="fill:rgb(221,221,221);fill-rule:nonzero;"/>
                </g>
                <g transform="matrix(0.787402,0,0,0.787402,169.94,2.87465)">
                    <path d="M0,-0.5L-0.303,-0.5L3.095,0L0,-0.5Z" style="fill:rgb(221,221,221);fill-rule:nonzero;"/>
                </g>
                <g transform="matrix(0.787402,0,0,0.787402,90.5361,12.6902)">
                    <path d="M0,12.192L6.211,0.341L8.802,-4.259L14.576,-5.207L23.42,-6.726L43.805,-7.935L56.34,-8.105L68.875,-7.935L89.26,-6.726L98.104,-5.207L103.878,-4.259L106.469,0.341L112.68,12.192L113.487,17.942L108.855,18.755L92.055,18.421L69.361,18.047L56.34,17.931L43.319,18.047L20.625,18.421L3.825,18.755L-0.807,17.942L0,12.192ZM18.274,20.571L43.319,20.056L56.34,20.067L69.361,20.056L94.406,20.571L108.855,21.192L117.033,20.715L115.25,12.284L109.338,0.433L105.954,-5.616L102.62,-6.455L89.26,-7.925L68.875,-8.834L56.34,-9L43.805,-8.834L23.42,-7.925L10.06,-6.455L6.726,-5.616L3.342,0.433L-2.57,12.284L-4.353,20.715L3.825,21.192L18.274,20.571Z" style="fill:rgb(221,221,221);fill-rule:nonzero;"/>
                </g>
                <g transform="matrix(0.787402,0,0,0.787402,95.832,2.48071)">
                    <path d="M0,7.35L3.335,6.511L4.702,2.137L5.414,0L2.016,0.501L1.304,2.634L0,7.35Z" style="fill:rgb(221,221,221);fill-rule:nonzero;"/>
                </g>
                <g transform="matrix(0.787402,0,0,0.787402,68.995,86.8733)">
                    <path d="M0,-25.917L-0.395,-31.871L-0.684,-33.925L-0.832,-31.871L-0.832,-29.78L-0.828,-25.917L-0.758,-21.669L-0.708,-18.803L-0.673,-16.639L-0.561,-12.162L-0.381,-4.95L0.733,8.008L0.733,-14.581L0.469,-16.639L0,-25.917Z" style="fill:rgb(221,221,221);fill-rule:nonzero;"/>
                </g>
                <g transform="matrix(0.787402,0,0,0.787402,69.539,82.9755)">
                    <path d="M0,12.958L0.042,12.958L-1.072,0L0,12.958Z" style="fill:rgb(221,221,221);fill-rule:nonzero;"/>
                </g>
                <g transform="matrix(0,-0.787402,-0.787402,0,68.6664,94.5346)">
                    <path d="M-2.98,-1.151L1.723,-1.151L-0.107,0.107L-2.98,-1.151Z" style="fill:rgb(221,221,221);fill-rule:nonzero;"/>
                </g>
                <g transform="matrix(0.787402,0,0,0.787402,93.6837,7.08039)">
                    <path d="M0,-0.332L-0.257,0L-0.092,-0.187L0,-0.332Z" style="fill:rgb(221,221,221);fill-rule:nonzero;"/>
                </g>
                <g transform="matrix(0.787402,0,0,0.787402,87.1361,100.175)">
                    <rect x="-1.921" y="-7.194" width="1.921" height="7.194" style="fill:rgb(221,221,221);fill-rule:nonzero;"/>
                </g>
                <g transform="matrix(0.787402,0,0,0.787402,74.4433,26.6338)">
                    <path d="M0,15.031L0.589,14.347L2.016,12.683L2.253,11.999L2.795,10.72L8.375,-0.839L0.793,11.362L2.912,7.882L-2.57,6.818L-4.089,12.197L-5.735,12.779L-10.617,12.835L-16.444,12.958L-20.332,12.779L-21.481,12.257L-22.683,9.842L-23.691,9.849L-23.233,11.326L-22.091,12.757L-18.859,13.653L-13.222,14.699L-8.488,15.126L-1.741,15.461L-1.868,15.411L-1.741,15.461L-1.11,15.711L-0.719,15.87L0,15.031Z" style="fill:rgb(221,221,221);fill-rule:nonzero;"/>
                </g>
                <g transform="matrix(0.514555,-0.596015,-0.596015,-0.514555,76.707,36.8155)">
                    <path d="M-0.374,0.812L0.786,0.812L1.773,0.816L0.298,1.08L-0.374,0.812Z" style="fill:rgb(221,221,221);fill-rule:nonzero;"/>
                </g>
                <g transform="matrix(0.787402,0,0,0.787402,73.5691,39.3631)">
                    <path d="M0,-0.455L0.137,0L0.391,-0.296L0,-0.455Z" style="fill:rgb(221,221,221);fill-rule:nonzero;"/>
                </g>
                <g transform="matrix(0.787402,0,0,0.787402,70.1302,49.3162)">
                    <path d="M0,-1.657L0.004,-1.667L-1.77,-1.981L-1.977,-1.907L-2.376,-0.733L-1.061,0.158L-0.853,0.236L-0.723,0.324L-0.645,0.324L-0.416,-0.345L-0.395,-0.501L0,-1.657Z" style="fill:rgb(221,221,221);fill-rule:nonzero;"/>
                </g>
                <g transform="matrix(0.787402,0,0,0.787402,176.316,6.81866)">
                    <path d="M0,0.332L-0.257,0L-0.166,0.145L0,0.332Z" style="fill:rgb(221,221,221);fill-rule:nonzero;"/>
                </g>
                <g transform="matrix(0.787402,0,0,0.787402,93.8169,86.0532)">
                    <path d="M0,5.873L0.448,-0.095L1.079,-1.061L2.221,-1.709L3.691,-1.938L5.259,-1.709L6.676,-1.061L7.716,-0.095L7.861,5.873L0,5.873ZM96.63,-0.095L97.67,-1.061L99.087,-1.709L100.656,-1.938L102.126,-1.709L103.268,-1.061L103.899,-0.095L104.347,5.873L96.486,5.873L96.63,-0.095ZM-1.773,8.365L106.12,8.365L109.141,5.873L109.141,-0.003L108.425,-1.17L107.551,-2.019L106.116,-2.492L-1.773,-2.492L-3.204,-2.019L-4.078,-1.17L-4.794,-0.003L-4.794,5.873L-1.773,8.365Z" style="fill:rgb(221,221,221);fill-rule:nonzero;"/>
                </g>
                <g transform="matrix(0.787402,0,0,0.787402,201.304,78.4507)">
                    <path d="M0,-4.525L0.035,-5.942L0.127,-11.41L0.19,-15.22L0.194,-21.174L0.046,-23.229L-0.243,-21.174L-0.638,-15.22L-1.107,-5.942L-1.375,-3.884L-1.375,18.704L-0.257,5.746L-0.078,-1.465L0,-4.525Z" style="fill:rgb(221,221,221);fill-rule:nonzero;"/>
                </g>
                <g transform="matrix(0.787402,0,0,0.787402,182.66,100.067)">
                    <rect x="0" y="-7.057" width="1.921" height="7.195" style="fill:rgb(221,221,221);fill-rule:nonzero;"/>
                </g>
                <g transform="matrix(0,0.787402,0.787402,0,201.129,94.5331)">
                    <path d="M-1.721,-1.153L2.983,-1.153L0.109,0.109L-1.721,-1.153Z" style="fill:rgb(221,221,221);fill-rule:nonzero;"/>
                </g>
                <g transform="matrix(0.787402,0,0,0.787402,199.977,48.4061)">
                    <path d="M0,0.655L0.021,0.81L0.25,1.48L0.328,1.48L0.458,1.392L0.666,1.314L1.981,0.423L1.583,-0.751L1.371,-0.825L-0.398,-0.512L-0.395,-0.501L0,0.655Z" style="fill:rgb(221,221,221);fill-rule:nonzero;"/>
                </g>
                <g transform="matrix(0.787402,0,0,0.787402,199.816,48.406)">
                    <path d="M0,0.144L0.011,0.176L0.204,0.655L-0.19,-0.501L-0.194,-0.511L-0.004,0.13L0,0.144Z" style="fill:rgb(221,221,221);fill-rule:nonzero;"/>
                </g>
                <g transform="matrix(0.787402,0,0,0.787402,71.8565,43.6788)">
                    <path d="M0,1.981L0.194,2.052L0.204,2.055L0.328,2.14L0.335,2.143L0.412,2.143L1.089,0.159L1.005,0.145L0.987,0.141L0.853,0.116L0.339,0.025L-0.292,-0.088L-0.708,-0.162L-0.92,-0.084L-1.318,1.086L-0.811,1.431L-0.004,1.978L0,1.981Z" style="fill:rgb(221,221,221);fill-rule:nonzero;"/>
                </g>
                <g transform="matrix(-0.485585,0.619846,0.619846,0.485585,90.3185,25.5277)">
                    <path d="M-19.326,-11.292L-14.629,-11.292L5.498,-9.41L-13.169,-10.96L-19.326,-11.292Z" style="fill:rgb(221,221,221);fill-rule:nonzero;"/>
                </g>
                <g transform="matrix(0.787402,0,0,0.787402,91.5409,29.948)">
                    <path d="M0,-23.219L-1.477,-20.698L-1.992,-19.821L-4.293,-15.89L-9.62,-7.014L-13.91,2.482L-14.579,3.828L-15.799,4.819L-10.117,-7.029L-10.17,-7.029L-15.898,4.896L-17.001,5.795L-14.819,4.565L-13.977,2.792L-9.553,-7.014L-3.712,-16.772L0.793,-24.46L2.03,-26.966L2.439,-29.014L1.477,-27.791L1.184,-25.651L0,-23.219Z" style="fill:rgb(221,221,221);fill-rule:nonzero;"/>
                </g>
                <g transform="matrix(0.787402,0,0,0.787402,201.088,26.4477)">
                    <path d="M0,15.239L-0.014,15.207L-0.427,14.291L-0.627,13.304L-0.684,13.025L-1.547,13.015L-3.194,12.433L-4.713,7.054L-10.194,8.118L-15.877,-0.966L-15.855,-0.92L-8.834,14.28L-8.827,14.291L-7.829,15.239L-7.41,15.634L-6.81,16.205L-6.172,15.947L-5.541,15.697L-5.414,15.648L0.078,15.412L0.028,15.296L0,15.239Z" style="fill:rgb(221,221,221);fill-rule:nonzero;"/>
                </g>
                <g transform="matrix(0.787402,0,0,0.787402,196.069,39.0047)">
                    <path d="M0,0.67L0.201,0L-0.437,0.257L0,0.67Z" style="fill:rgb(221,221,221);fill-rule:nonzero;"/>
                </g>
                <g transform="matrix(0.787402,0,0,0.787402,188.753,35.6857)">
                    <path d="M0,-11.753L1.216,-9.208L2.817,-5.856L4.42,-2.503L6.394,1.628L6.831,2.548L-0.19,-12.652L-0.212,-12.698L-0.952,-14.301L-1.216,-14.301L0,-11.753Z" style="fill:rgb(221,221,221);fill-rule:nonzero;"/>
                </g>
                <g transform="matrix(0.787402,0,0,0.787402,196.877,32.7074)">
                    <path d="M0,-26.244L-2.108,-31.295L34.495,-29.156L43.146,-26.723L46.875,-24.203L52.681,-10.533L56.389,1.392L11.298,4.286L9.345,3.006L5.925,-10.593L0,-26.244ZM53.978,-19.395L64.483,-10.519L73.115,-1.023L73.062,0.324L57.602,1.315L53.788,-10.533L48.169,-23.326L53.978,-19.395ZM3.031,-2.848L3.458,-0.786L4.219,2.922L4.498,4.282L4.664,5.075L4.72,5.354L4.921,6.341L48.409,3.475L75.854,1.498L74.973,-0.713L65.882,-10.519L54.045,-20.276L42.723,-27.964L34.094,-30.471L-3.021,-32.518L-6.895,-32.585L-4.544,-27.598L1.456,-10.519L2.231,-6.747L2.235,-6.726L2.644,-4.742L3.031,-2.848Z" style="fill:rgb(221,221,221);fill-rule:nonzero;"/>
                </g>
                <g transform="matrix(0.787402,0,0,0.787402,253.743,81.6994)">
                    <path d="M0,-46.143L-0.025,-46.231L-0.19,-46.876L-0.272,-47.193L-0.515,-48.127L3.134,-48.127L3.377,-47.19L3.395,-47.126L3.43,-46.992L3.648,-46.143L0,-46.143ZM-8.358,-46.721L-8.428,-48.275L-8.432,-48.293L-8.411,-48.307L-8.277,-48.406L-8.28,-48.318L-8.284,-48.293L-8.287,-48.208L-8.291,-48.11L-8.291,-48.099L-8.312,-47.651L-8.39,-48.06L-8.397,-48.102L-8.397,-48.11L-8.411,-48.177L-8.428,-48.275L-8.358,-46.721L-7.42,-44.958L-8.358,-46.721ZM6.391,-59.502L3.634,-60.722L-23.811,-58.745L-67.299,-55.879L-66.887,-54.962L-66.873,-54.931L-66.844,-54.874L-66.795,-54.758L-66.792,-54.751L-65.678,-52.28L-64.328,-41.627L-63.263,-22.892L-63.2,-4.157L-64.243,14.579L-12.792,14.579L-10.159,0.137L-5.908,-12.892L0.698,-23.23L8.858,-29.872L13.123,-42.378L12.232,-52.756L6.391,-59.502Z" style="fill:rgb(221,221,221);fill-rule:nonzero;"/>
                </g>
                <g transform="matrix(0.787402,0,0,0.787402,98.985,86.3779)">
                    <path d="M0,3.117L-1.1,4.259L-2.601,4.675L-4.099,4.259L-5.199,3.117L-5.601,1.559L-5.199,0.001L-4.099,-1.141L-2.601,-1.557L-1.1,-1.141L0,0.001L0.402,1.559L0,3.117ZM-0.92,-1.466L-2.601,-1.935L-4.283,-1.466L-5.513,-0.186L-5.964,1.559L-5.513,3.304L-4.283,4.583L-2.601,5.052L-0.92,4.583L0.314,3.304L0.761,1.559L0.314,-0.186L-0.92,-1.466Z" style="fill:rgb(221,221,221);fill-rule:nonzero;"/>
                </g>
                <g transform="matrix(0.787402,0,0,0.787402,174.906,86.3779)">
                    <path d="M0,3.117L-1.1,4.259L-2.598,4.675L-4.099,4.259L-5.199,3.117L-5.601,1.559L-5.199,0.001L-4.099,-1.141L-2.598,-1.557L-1.1,-1.141L0,0.001L0.402,1.559L0,3.117ZM-0.917,-1.466L-2.598,-1.935L-4.279,-1.466L-5.513,-0.186L-5.964,1.559L-5.513,3.304L-4.279,4.583L-2.598,5.052L-0.917,4.583L0.314,3.304L0.765,1.559L0.314,-0.186L-0.917,-1.466Z" style="fill:rgb(221,221,221);fill-rule:nonzero;"/>
                </g>
                <g transform="matrix(0.787402,0,0,0.787402,115.058,47.0349)">
                    <path d="M0,3.898L2.831,7.621L4.29,8.336L7.966,8.336L8.604,-4.438L0.43,-4.438L-0.835,-4.075L-1.347,-3.18L-1.28,-0.987L0,3.898Z" style="fill:rgb(250,192,41);fill-rule:nonzero;"/>
                </g>
                <g transform="matrix(0.787402,0,0,0.787402,151.36,43.5404)">
                    <path d="M0,12.774L1.459,12.059L4.29,8.336L5.569,3.451L5.636,1.258L5.125,0.363L3.86,0L-4.318,0L-3.677,12.774L0,12.774Z" style="fill:rgb(250,192,41);fill-rule:nonzero;"/>
                </g>
                <g transform="matrix(0.787402,0,0,0.787402,146.717,43.5404)">
                    <rect x="-30.019" y="0" width="30.019" height="15.566" style="fill:white;fill-rule:nonzero;"/>
                </g>
                <g transform="matrix(0.787402,0,0,0.787402,199.816,50.612)">
                    <path d="M0,1.273L-1.928,-3.651L-1.97,-3.68L-1.703,-2.897L-0.483,0.565L0.271,2.714L1.061,4.953L0.888,3.536L0.705,3.067L0,1.273Z" style="fill:rgb(142,142,142);fill-rule:nonzero;"/>
                </g>
                <g transform="matrix(0.787402,0,0,0.787402,198.229,48.2727)">
                    <path d="M0,-0.839L0.088,-0.68L2.016,4.244L2.721,6.038L2.905,6.507L2.816,5.777L2.757,5.28L2.739,5.118L2.538,4.79L2.09,4.057L1.819,3.613L1.762,3.282L1.699,2.922L1.681,2.816L1.474,1.487L1.28,0.218L0.088,-3.733L-2.235,-7.346L-1.304,-4.643L0,-0.839Z" style="fill:rgb(142,142,142);fill-rule:nonzero;"/>
                </g>
                <g transform="matrix(0.787402,0,0,0.787402,195.253,51.2454)">
                    <path d="M0,-15.859L-0.419,-16.254L-1.417,-17.202L-1.223,-16.794L-1.047,-16.518L0.529,-14.079L0.945,-12.866L1.544,-11.122L3.867,-7.508L5.058,-3.557L5.044,-3.652L4.822,-5.129L4.755,-5.605L4.73,-5.785L4.434,-7.283L4.73,-5.785L4.762,-5.63L4.822,-5.129L5.044,-3.652L5.058,-3.557L5.252,-2.288L5.46,-0.959L5.478,-0.853L5.541,-0.494L5.598,-0.162L5.869,0.282L6.317,1.015L6.518,1.343L6.422,0.55L6.419,0.539L6.278,-0.631L6.275,-0.652L6.059,-2.461L6.056,-2.482L6.052,-2.521L6.021,-2.796L6,-2.951L5.806,-3.43L5.795,-3.462L5.792,-3.476L5.601,-4.117L2.376,-13.603L1.036,-14.876L0.599,-15.288L0,-15.859Z" style="fill:rgb(142,142,142);fill-rule:nonzero;"/>
                </g>
                <g transform="matrix(0.787402,0,0,0.787402,99.232,86.2255)">
                    <path d="M0,3.497L-1.234,4.777L-2.915,5.246L-4.597,4.777L-5.827,3.497L-6.278,1.752L-5.827,0.007L-4.597,-1.272L-2.915,-1.741L-1.234,-1.272L0,0.007L0.448,1.752L0,3.497ZM-0.201,-1.279L-1.618,-1.928L-3.187,-2.157L-4.656,-1.928L-5.799,-1.279L-6.43,-0.314L-6.877,5.654L0.984,5.654L0.839,-0.314L-0.201,-1.279Z" style="fill:rgb(142,142,142);fill-rule:nonzero;"/>
                </g>
                <g transform="matrix(0.787402,0,0,0.787402,175.153,86.2255)">
                    <path d="M0,3.497L-1.23,4.777L-2.912,5.246L-4.593,4.777L-5.827,3.497L-6.278,1.752L-5.827,0.007L-4.593,-1.272L-2.912,-1.741L-1.23,-1.272L0,0.007L0.451,1.752L0,3.497ZM0.603,-0.314L-0.028,-1.279L-1.17,-1.928L-2.64,-2.157L-4.209,-1.928L-5.626,-1.279L-6.666,-0.314L-6.81,5.654L1.051,5.654L0.603,-0.314Z" style="fill:rgb(142,142,142);fill-rule:nonzero;"/>
                </g>
                <g transform="matrix(0.787402,0,0,0.787402,201.457,82.5232)">
                    <path d="M0,-26.346L-0.004,-20.392L-0.067,-16.582L-0.159,-11.115L-0.194,-9.697L-0.271,-6.638L-0.324,-1.026L-0.324,-0.909L-0.42,0.204L-0.152,-2.651L0.543,-17.367L0.476,-20.082L0.377,-23.938L0.243,-25.063L0,-26.55L0,-26.346Z" style="fill:rgb(142,142,142);fill-rule:nonzero;"/>
                </g>
                <g transform="matrix(0.0650666,-0.784709,-0.784709,-0.0650666,205.712,88.9012)">
                    <path d="M-5.986,6.455L-3.167,6.455L7.016,6.457L-5.99,6.501L-5.986,6.455Z" style="fill:rgb(142,142,142);fill-rule:nonzero;"/>
                </g>
                <g transform="matrix(0.787402,0,0,0.787402,201.337,81.5904)">
                    <path d="M0,-1.466L-0.268,1.389L-0.3,1.759L-1.139,11.908L-1.371,14.717L-0.702,14.717L1.001,-4.018L0.694,-16.183L0,-1.466Z" style="fill:rgb(142,142,142);fill-rule:nonzero;"/>
                </g>
                <g transform="matrix(0.787402,0,0,0.787402,-1107.98,-4608.66)">
                    <rect x="1518.12" y="5980.23" width="120.674" height="0.049" style="fill:rgb(142,142,142);"/>
                </g>
                <g transform="matrix(0.787402,0,0,0.787402,87.1361,100.214)">
                    <rect x="-1.921" y="-0.049" width="2.242" height="0.049" style="fill:rgb(142,142,142);fill-rule:nonzero;"/>
                </g>
                <g transform="matrix(0.787402,0,0,0.787402,182.66,100.214)">
                    <rect x="-0.321" y="-0.049" width="2.242" height="0.049" style="fill:rgb(142,142,142);fill-rule:nonzero;"/>
                </g>
                <g transform="matrix(0.787402,0,0,0.787402,85.6235,93.992)">
                    <path d="M0,28.563L0,0.659L-16.427,0.659L-16.931,-2.693L-17.78,-8.358L-18.344,-10.702L-18.855,-12.821L-19.137,-13.991L-20.075,-21.242L-20.385,-23.621L-20.385,28.563L-18.344,30.586L-2.037,30.586L0,28.563Z" style="fill:rgb(142,142,142);fill-rule:nonzero;"/>
                </g>
                <g transform="matrix(0.787402,0,0,0.787402,200.222,94.2361)">
                    <path d="M0,28.253L0,-23.931L-0.307,-21.552L-1.244,-14.301L-1.526,-13.131L-2.037,-11.012L-2.602,-8.668L-3.455,-3.003L-3.959,0.349L-20.381,0.349L-20.381,28.253L-18.344,30.276L-2.037,30.276L0,28.253Z" style="fill:rgb(142,142,142);fill-rule:nonzero;"/>
                </g>
                <g transform="matrix(0.787402,0,0,0.787402,195.85,99.2291)">
                    <path d="M0,-7.166L-6.377,-8.093L-13.247,-8.287L-23.462,-8.368L-131.355,-8.368L-141.571,-8.287L-148.441,-8.093L-154.821,-7.166L-156.153,-6.736L-156.414,-5.992L-138.067,-5.992L-138.067,1.202L-16.751,1.202L-16.751,-5.992L1.593,-5.992L1.336,-6.736L0,-7.166Z" style="fill:rgb(142,142,142);fill-rule:nonzero;"/>
                </g>
                <g transform="matrix(-0.0943246,-0.781731,-0.781731,0.0943246,200.865,50.1954)">
                    <rect x="-1.031" y="0.905" width="1.833" height="0.009" style="fill:rgb(142,142,142);"/>
                </g>
                <g transform="matrix(0.787402,0,0,0.787402,176.649,9.25291)">
                    <path d="M0,-1.656L0.095,-1.536L-0.148,-1.487L0.01,-0.683L0.43,0.17L1.896,0.759L2.517,1.005L2.108,0.484L0.451,-1.607L0.419,-1.6L0.335,-1.586L0.31,-1.628L0.405,-1.617L0.444,-1.614L-0.384,-2.661L-0.187,-1.674L0,-1.656Z" style="fill:rgb(142,142,142);fill-rule:nonzero;"/>
                </g>
                <g transform="matrix(0.787402,0,0,0.787402,177.004,10.1469)">
                    <path d="M0,-2.742L1.657,-0.652L3.01,1.054L-0.113,-2.918L-0.208,-3.042L-0.835,-3.796L-0.007,-2.749L0,-2.742Z" style="fill:rgb(142,142,142);fill-rule:nonzero;"/>
                </g>
                <g transform="matrix(0.787402,0,0,0.787402,192.234,13.4034)">
                    <path d="M0,25.795L-1.604,22.443L-3.204,19.09L-4.42,16.545L-5.636,13.997L-9.274,8.252L-13.853,1.022L-16.871,-3.744L-17.276,-4.266L-17.896,-4.513L-19.363,-5.101L-19.268,-4.914L-18.545,-3.448L-15.165,2.322L-14.128,4.088L-14.04,4.24L-13.413,5.287L-8.199,13.997L-7.924,14.607L-5.577,19.817L-4.861,21.399L-3.994,23.32L-3.775,23.803L-2.933,25.577L-2.429,25.862L-0.36,27.025L0.01,27.233L1.78,29.979L2.372,30.896L2.418,30.857L2.411,30.846L1.974,29.926L0,25.795Z" style="fill:rgb(142,142,142);fill-rule:nonzero;"/>
                </g>
                <g transform="matrix(0.787402,0,0,0.787402,178.63,24.0144)">
                    <path d="M0,-17.742L0.405,-17.22L3.423,-12.454L8.002,-5.224L11.64,0.521L11.904,0.521L0.945,-16.557L-0.409,-18.263L0,-17.742Z" style="fill:rgb(142,142,142);fill-rule:nonzero;"/>
                </g>
                <g transform="matrix(0.787402,0,0,0.787402,247.198,43.8259)">
                    <path d="M0,0.448L0.021,0L-0.078,0.039L0,0.448Z" style="fill:rgb(142,142,142);fill-rule:nonzero;"/>
                </g>
                <g transform="matrix(0.787402,0,0,0.787402,98.1191,89.7312)">
                    <path d="M0,-5.4L-1.502,-5.816L-3,-5.4L-4.1,-4.258L-4.501,-2.7L-4.1,-1.142L-3,0L-1.502,0.416L0,0L1.1,-1.142L1.502,-2.7L1.1,-4.258L0,-5.4Z" style="fill:rgb(142,142,142);fill-rule:nonzero;"/>
                </g>
                <g transform="matrix(0.787402,0,0,0.787402,174.04,89.7312)">
                    <path d="M0,-5.4L-1.498,-5.816L-3,-5.4L-4.1,-4.258L-4.501,-2.7L-4.1,-1.142L-3,0L-1.498,0.416L0,0L1.1,-1.142L1.502,-2.7L1.1,-4.258L0,-5.4Z" style="fill:rgb(142,142,142);fill-rule:nonzero;"/>
                </g>
                <g transform="matrix(0.787402,0,0,0.787402,256.416,44.5778)">
                    <path d="M0,0.018L-0.018,-0.045L-0.261,-0.983L-3.909,-0.983L-3.666,-0.049L-3.585,0.268L-3.419,0.914L-3.296,0.914L-3.395,1.001L0.254,1.001L0.035,0.152L0,0.018Z" style="fill:rgb(142,142,142);fill-rule:nonzero;"/>
                </g>
            </g>
        </g>
    </g>
</svg>
