<?xml version="1.0" encoding="UTF-8" standalone="no"?>
<!DOCTYPE svg PUBLIC "-//W3C//DTD SVG 1.1//EN" "http://www.w3.org/Graphics/SVG/1.1/DTD/svg11.dtd">
<svg width="100%" height="100%" viewBox="0 0 360 180" version="1.1" xmlns="http://www.w3.org/2000/svg" xmlns:xlink="http://www.w3.org/1999/xlink" xml:space="preserve" xmlns:serif="http://www.serif.com/" style="fill-rule:evenodd;clip-rule:evenodd;stroke-linejoin:round;stroke-miterlimit:2;">
    <g transform="matrix(1,0,0,1,-360.594,-2268.07)">
        <g id="rideshare-inbound-door-left">
            <g>
                <g transform="matrix(1,0,0,1,498.265,2339.98)">
                    <path d="M0,-3.648L-0.709,-3.983L-1.037,-4.067L-1.592,-4.18L-2.588,-4.23L-12.287,-3.645L-13.329,-3.556L-14.346,-3.335L-15.067,-3.073L-15.267,-2.985L-16.032,-2.495L-16.587,-1.945L-16.895,-1.371L-16.934,-0.814L-16.703,-0.31L-16.216,0.106L-15.507,0.406L-14.624,0.568L-13.628,0.582L-9.099,0.113L-3.929,-0.201L-2.887,-0.289L-1.87,-0.507L-1.015,-0.821L-0.949,-0.842L-0.184,-1.233L0.371,-1.702L0.679,-2.213L0.718,-2.731L0.487,-3.218L0,-3.648Z" style="fill:rgb(229,101,154);fill-rule:nonzero;"/>
                </g>
                <g transform="matrix(1,0,0,1,498.944,2313.88)">
                    <path d="M0,23.881L-0.308,24.392L-0.863,24.861L-1.628,25.252L-1.694,25.274L-2.55,25.587L-3.567,25.806L-4.609,25.894L-9.778,26.208L-14.308,26.676L-15.304,26.662L-16.186,26.5L-16.895,26.2L-17.382,25.785L-17.614,25.28L-17.575,24.724L-17.266,24.149L-16.712,23.599L-15.947,23.109L-15.746,23.021L-15.025,22.76L-14.008,22.538L-12.966,22.45L-3.267,21.865L-2.271,21.914L-1.716,22.027L-1.388,22.111L-0.679,22.446L-0.192,22.877L0.039,23.363L0,23.881ZM-12.464,19.087L-12.101,18.509L-11.446,17.959L-10.543,17.483L-9.455,17.106L-8.256,16.86L-7.026,16.754L-5.85,16.803L-4.809,16.997L-3.972,17.328L-3.398,17.769L-3.125,18.294L-3.171,18.869L-3.534,19.446L-4.189,19.993L-5.091,20.472L-6.18,20.846L-6.45,20.902L-7.379,21.103L-8.609,21.209L-9.644,21.156L-9.785,21.153L-10.826,20.955L-11.662,20.628L-12.237,20.183L-12.51,19.658L-12.464,19.087ZM23.287,30.12L23.429,30.12L41.201,30.11L58.973,30.12L59.115,30.12L59.124,30.124L69.88,30.357L84.061,30.543L105.236,31.083L107.565,30.776L104.555,23.162L95.9,3.538L90.801,-5.309L84.347,-5.972L63.283,-6.906L41.201,-7.202L19.118,-6.906L-1.945,-5.972L-8.4,-5.309L-13.498,3.538L-22.153,23.162L-25.163,30.776L-22.834,31.083L-1.659,30.543L12.522,30.357L23.278,30.124L23.287,30.12Z" style="fill:rgb(214,238,246);fill-rule:nonzero;"/>
                </g>
                <g transform="matrix(1,0,0,1,439.654,2313.02)">
                    <path d="M0,24.918L2.093,20.822L3.401,20.156L3.513,20.089L5.028,19.602L5.866,19.352L12.131,18.908L15.005,19.06L15.853,15.689L21.779,0.039L23.887,-5.013L-12.717,-2.873L-21.367,-0.441L-25.096,2.08L-30.905,15.75L-34.611,27.674L0.508,29.931L0.48,29.895L-0.012,28.425L0.019,27.83L0,24.918Z" style="fill:rgb(214,238,246);fill-rule:nonzero;"/>
                </g>
                <g transform="matrix(1,0,0,1,413.264,2340.61)">
                    <path d="M0,-24.64L-5.809,-20.709L-16.314,-11.833L-24.948,-2.337L-24.894,-0.991L-9.432,0L-5.618,-11.848L0,-24.64Z" style="fill:rgb(214,238,246);fill-rule:nonzero;"/>
                </g>
                <g transform="matrix(1,0,0,1,624.368,2422.13)">
                    <path d="M0,-4.202L-0.144,-4.396L0.984,0.194L0,-4.202Z" style="fill:rgb(130,195,65);fill-rule:nonzero;"/>
                </g>
                <g transform="matrix(1,0,0,1,459.629,2356.45)">
                    <path d="M0,-1.114L2.548,-5.08L3.352,-6.765L3.254,-7.086L2.83,-8.481L1.488,-7.209L-1.737,2.277L-1.709,2.281L-1.925,2.918L-1.931,2.932L-1.941,2.964L-2.156,3.599L-2.204,3.93L-2.086,3.775L-1.71,2.538L-1.663,2.4L-1.129,0.821L-1.127,0.677L-1.106,0.754L-0.725,-0.385L-0.57,-0.888L-0.725,-0.385L-1.106,0.754L-1.129,0.821L-1.663,2.4L-1.71,2.538L-2.086,3.775L-2.138,3.948L-2.251,4.322L-2.269,4.378L-2.699,7.367L-2.346,6.655L0,-1.114Z" style="fill:rgb(130,195,65);fill-rule:nonzero;"/>
                </g>
                <g transform="matrix(1,0,0,1,455.974,2309.12)">
                    <path d="M0,64.264L0.368,69.506L0.774,69.337L3.45,70.655L6.432,71.973L5.489,63.192L7.222,54.197L8.241,53.668L13.745,54.771L18.229,57.306L23.733,60.598L27.912,64.416L30.663,67.796L37.328,68.014L34.267,62.47L30.798,57.623L26.204,51.18L21.712,45.821L17.322,42.021L14.053,39.068L12.822,36.501L16.904,28.02L26.994,8.453L32.446,-1.248L33.925,-4.777L36.269,-7.709L33.74,-5.02L31.828,-2.7L31.549,-2.34L31.545,-2.334L30.905,-1.516L30.675,-1.223L28.632,1.396L28.225,1.918L25.208,6.683L20.63,13.913L16.992,19.659L14.558,24.752L11.357,31.457L10.875,32.465L9.383,35.588L8.944,36.508L7.007,40.562L6.203,42.247L8.635,37.799L12.532,31.207L8.635,37.799L6.203,42.247L3.655,46.213L1.309,53.982L3.655,49.265L1.309,53.982L0.956,54.694L-0.168,56.953L-0.341,59.456L-0.457,64.264L-0.304,62.029L0,64.264Z" style="fill:rgb(130,195,65);fill-rule:nonzero;"/>
                </g>
                <g transform="matrix(1,0,0,1,604.18,2376.65)">
                    <path d="M0,-31.456L-21.175,-32.101L-35.356,-32.408L-46.112,-32.641L-46.121,-32.644L-46.263,-32.644L-64.035,-32.655L-81.806,-32.644L-81.949,-32.644L-81.958,-32.641L-92.713,-32.408L-106.895,-32.101L-128.069,-31.456L-129.435,-31.375L-135.383,-31.022L-134.153,-28.456L-130.884,-25.502L-126.494,-21.703L-122.002,-16.344L-117.408,-9.901L-113.939,-5.054L-110.878,0.491L-109.482,1.182L-100.493,1.185L-86.758,1.189L-64.035,1.199L-41.311,1.189L-27.576,1.185L-18.588,1.182L-17.192,0.491L-14.131,-5.054L-10.661,-9.901L-6.068,-16.344L-1.576,-21.703L2.815,-25.502L6.083,-28.456L7.314,-31.022L1.366,-31.375L0,-31.456Z" style="fill:rgb(130,195,65);fill-rule:nonzero;"/>
                </g>
                <g transform="matrix(1,0,0,1,620.662,2324.12)">
                    <path d="M0,34.267L2.346,38.983L0,31.214L-2.548,27.248L-4.98,22.8L-8.877,16.208L-4.98,22.8L-2.548,27.248L-3.352,25.563L-5.289,21.51L-5.728,20.59L-7.22,17.467L-7.702,16.458L-10.904,9.754L-13.337,4.661L-16.976,-1.085L-21.554,-8.315L-24.57,-13.081L-24.977,-13.603L-27.021,-16.222L-27.25,-16.514L-30.086,-20.018L-32.615,-22.708L-30.271,-19.775L-28.791,-16.246L-23.34,-6.546L-13.25,13.022L-9.168,21.503L-10.398,24.069L-13.667,27.023L-18.057,30.823L-22.549,36.181L-27.143,42.624L-30.612,47.472L-33.674,53.016L-27.009,52.798L-24.257,49.417L-20.078,45.6L-14.575,42.307L-10.09,39.773L-4.587,38.669L-3.567,39.198L-1.835,48.194L-2.777,56.975L0.204,55.656L2.88,54.338L3.287,54.507L3.655,49.266L3.958,47.031L4.112,49.266L3.995,44.457L3.823,41.955L2.699,39.695L2.346,38.983L0,34.267Z" style="fill:rgb(130,195,65);fill-rule:nonzero;"/>
                </g>
                <g transform="matrix(1,0,0,1,597.15,2400.35)">
                    <path d="M0,1.262L1.085,0.472L16.295,0.472L17.098,0.973L15.559,8.347L13.579,9.411L5.591,9.866L-3.402,10.325L-4.12,9.616L0,1.262ZM-21.303,11.854L-22.332,13.077L-24.735,14.17L-30.26,15.118L-83.75,15.118L-89.275,14.17L-91.679,13.077L-92.707,11.854L-97.435,1.392L-16.576,1.392L-21.303,11.854ZM-110.609,10.325L-119.601,9.866L-127.59,9.411L-129.57,8.347L-131.109,0.973L-130.305,0.472L-115.095,0.472L-114.01,1.262L-109.89,9.616L-110.609,10.325ZM-12.497,-21.214L-17.098,-15.989L-20.719,-14.061L-37.328,-13.691L-57.005,-13.508L-76.683,-13.691L-93.292,-14.061L-96.912,-15.989L-101.513,-21.214L-102.452,-22.518L-103.848,-23.209L-110.513,-23.427L-107.455,-18.778L-106.028,-16.152L-106.13,-15.295L-123.476,-16.285L-128.782,-16.719L-132.681,-17.932L-134.745,-19.25L-137.726,-20.569L-140.402,-21.886L-140.808,-21.717L-140.749,-20.487L-140.258,-10.466L-139.967,-7.734L-139.621,-4.48L-138.925,2.055L-138.65,4.033L-137.929,9.193L-137.245,14.093L-137.014,15.753L-135.993,18.774L-133.773,24.375L-133.648,24.689L-130.041,24.689L-124.72,23.949L-112.979,22.679L-98.5,22.045L-15.51,22.045L-1.031,22.679L10.71,23.949L16.03,24.689L19.638,24.689L19.762,24.375L21.982,18.774L23.004,15.753L23.235,14.093L23.919,9.193L24.915,2.055L25.611,-4.48L25.957,-7.734L26.248,-10.466L26.738,-20.487L26.798,-21.717L26.392,-21.886L23.716,-20.569L20.734,-19.25L18.67,-17.932L14.772,-16.719L9.465,-16.285L-7.88,-15.295L-7.982,-16.152L-6.555,-18.778L-3.498,-23.427L-10.162,-23.209L-11.558,-22.518L-12.497,-21.214Z" style="fill:rgb(130,195,65);fill-rule:nonzero;"/>
                </g>
                <g transform="matrix(1,0,0,1,617.407,2362.42)">
                    <path d="M0,-13.057L-0.098,-12.736L0.706,-11.051L3.254,-7.085L5.601,0.684L5.953,1.396L5.523,-1.594L5.506,-1.65L5.392,-2.024L5.34,-2.196L4.964,-3.433L4.917,-3.571L4.383,-5.15L4.36,-5.217L3.979,-6.356L3.824,-6.86L3.979,-6.356L4.36,-5.217L4.381,-5.295L4.383,-5.15L4.917,-3.571L4.964,-3.433L5.34,-2.196L5.445,-2.059L5.458,-2.041L5.411,-2.372L5.195,-3.007L5.185,-3.039L5.18,-3.053L4.963,-3.691L4.991,-3.694L3.611,-7.755L3.583,-7.84L3.513,-8.044L3.193,-8.985L3.162,-9.077L3.132,-9.165L3.106,-9.239L3.096,-9.271L3.095,-9.274L1.766,-13.18L0.424,-14.453L0,-13.057Z" style="fill:rgb(130,195,65);fill-rule:nonzero;"/>
                </g>
                <g transform="matrix(0.725782,0.687925,0.687925,-0.725782,618.379,2347.65)">
                    <path d="M-0.18,-0.607L1.669,-0.607L-0.28,-0.406L-0.192,-0.584L-0.18,-0.607Z" style="fill:rgb(130,195,65);fill-rule:nonzero;"/>
                </g>
                <g transform="matrix(1,0,0,1,624.76,2411.47)">
                    <path d="M0,-31.608L-0.103,-25.806L-0.178,-21.587L-0.276,-17.822L-0.503,-9.066L-0.939,4.632L-0.55,-4.325L-0.236,-11.551L0.672,-30.801L0.173,-34.897L0.01,-36.24L0.007,-34.879L0,-31.608Z" style="fill:rgb(130,195,65);fill-rule:nonzero;"/>
                </g>
                <g transform="matrix(1,0,0,1,624.21,2389.62)">
                    <path d="M0,17.519L-0.39,26.476L1.315,7.741L1.221,-8.957L0.314,10.293L0,17.519Z" style="fill:rgb(130,195,65);fill-rule:nonzero;"/>
                </g>
                <g transform="matrix(1,0,0,1,640.474,2336.69)">
                    <path d="M0,1.36L0.143,4.152L0.163,1.24L-1.93,-2.856L-3.239,-3.522L-4.866,-4.076L-5.703,-4.326L-11.969,-4.77L-18.13,-4.446L-19.399,-4.139L-20.423,-3.11L-20.846,-1.125L-20.759,1.716L-20.738,2.411L-19.006,6.13L-15.333,5.985L-9.346,5.604L-3.494,5.143L-0.564,4.832L0.174,4.748L0.143,4.152L0,1.36Z" style="fill:rgb(130,195,65);fill-rule:nonzero;"/>
                </g>
                <g transform="matrix(1,0,0,1,491.711,2299.43)">
                    <path d="M0,8.136L5.288,7.646L26.351,6.716L48.434,6.416L70.516,6.716L91.579,7.646L96.867,8.136L95.283,4.417L92.939,1.481L92.197,1.417L91.759,1.382L88.767,1.132L91.759,1.382L92.197,1.417L89.566,1.044L88.767,1.044L69.858,0.258L48.434,0L27.009,0.258L8.101,1.044L5.109,1.382L8.101,1.132L5.109,1.382L4.671,1.417L3.929,1.481L1.585,4.417L0,8.136Z" style="fill:rgb(130,195,65);fill-rule:nonzero;"/>
                </g>
                <g transform="matrix(1,0,0,1,499.013,2299.69)">
                    <path d="M0,0.786L0.799,0.786L19.707,0L0,0.786Z" style="fill:rgb(130,195,65);fill-rule:nonzero;"/>
                </g>
                <g transform="matrix(1,0,0,1,455.806,2397.68)">
                    <path d="M0,-4.036L-0.098,-7.801L-0.173,-12.02L-0.276,-17.822L-0.282,-21.094L-0.285,-22.454L-0.947,-17.015L-0.04,2.235L0.274,9.461L0.664,18.418L0.227,4.72L0,-4.036Z" style="fill:rgb(130,195,65);fill-rule:nonzero;"/>
                </g>
                <g transform="matrix(1,0,0,1,455.766,2396.85)">
                    <path d="M0,3.067L-0.907,-16.183L-1.001,0.515L0.704,19.25L0.314,10.293L0,3.067Z" style="fill:rgb(130,195,65);fill-rule:nonzero;"/>
                </g>
                <g transform="matrix(1,0,0,1,455.923,2422.13)">
                    <path d="M0,-4.202L-0.985,0.194L0.144,-4.396L0,-4.202Z" style="fill:rgb(130,195,65);fill-rule:nonzero;"/>
                </g>
                <g transform="matrix(1,0,0,1,457.947,2342.5)">
                    <path d="M0,-10.251L-3.287,-10.423L-6.161,-10.575L-12.427,-10.131L-13.264,-9.881L-14.78,-9.394L-14.891,-9.327L-16.2,-8.661L-18.293,-4.565L-18.274,-1.653L-18.13,-4.445L-18.274,-1.653L-18.304,-1.058L-17.566,-0.973L-14.636,-0.663L-8.784,-0.201L-2.797,0.18L0.876,0.324L2.608,-3.395L2.853,-4.096L2.716,-6.93L2.293,-8.915L1.269,-9.944L1.255,-9.948L0.005,-10.247L0,-10.251Z" style="fill:rgb(130,195,65);fill-rule:nonzero;"/>
                </g>
                <g transform="matrix(1,0,0,1,400.434,2401.93)">
                    <path d="M0,-46.967L-2.936,-46.72L-3.153,-46.717L-3.157,-46.696L-3.802,-45.37L-3.157,-46.696L-3.153,-46.717L-8.488,-46.668L-8.862,-46.664L-9.998,-46.654L-10.899,-46.646L-11.197,-46.643L-11.22,-46.555L-14.869,-46.555L-15.503,-47.598L-15.666,-48.254L-15.23,-48.86L-10.027,-48.825L-7.573,-48.811L-7.328,-48.835L-7.349,-48.807L-3.63,-48.782L-2.94,-48.73L-2.944,-48.818L-2.811,-48.719L-2.795,-48.719L-0.486,-48.536L0.321,-48.328L0,-46.967ZM49.713,-55.646L44.074,-56.693L42.237,-57.2L12.591,-59.156L-14.856,-61.134L-17.611,-59.914L-23.455,-53.168L-24.344,-42.79L-20.081,-30.283L-11.92,-23.642L-5.314,-13.303L-1.061,-0.275L1.573,14.167L53.021,14.167L51.979,-4.569L52.04,-23.304L53.105,-42.039L54.457,-52.692L55.569,-55.163L54.447,-55.219L49.713,-55.646Z" style="fill:rgb(130,195,65);fill-rule:nonzero;"/>
                </g>
                <g transform="matrix(1,0,0,1,499.716,2415.46)">
                    <path d="M0,-13.726L4.727,-3.264L5.756,-2.041L8.159,-0.948L13.684,0L67.174,0L72.699,-0.948L75.102,-2.041L76.131,-3.264L80.859,-13.726L0,-13.726Z" style="fill:rgb(221,221,221);fill-rule:nonzero;"/>
                </g>
                <g transform="matrix(1,0,0,1,602.741,2401.28)">
                    <path d="M0,8.936L7.989,8.481L9.969,7.416L11.508,0.042L10.704,-0.458L-4.506,-0.458L-5.591,0.332L-9.711,8.686L-8.992,9.394L0,8.936Z" style="fill:rgb(221,221,221);fill-rule:nonzero;"/>
                </g>
                <g transform="matrix(1,0,0,1,534.683,2383.46)">
                    <path d="M0,-3.235L-1.077,-4.183L-16.958,-4.751L-18.258,-4.797L-30.616,-4.797L-30.979,-4.779L-31.462,-4.751L-37.831,-4.413L-33.72,-0.693L-33.629,-0.652L-30.87,0.611L-29.548,1.213L-28.288,1.242L-14.789,1.531L-14.225,1.541L-10.545,1.548L0.633,1.562L0.008,-3.179L0,-3.235Z" style="fill:rgb(221,221,221);fill-rule:nonzero;"/>
                </g>
                <g transform="matrix(1,0,0,1,500.238,2380.31)">
                    <path d="M0,4.046L3.62,5.974L20.229,6.344L39.907,6.528L39.907,6.302L37.396,6.281L20.71,6.129L20.426,6.126L20.152,6.119L3.983,5.77L3.965,5.759L3.612,5.576L0.399,3.909L0.194,3.679L-4.156,-1.136L-4.232,-1.238L-5.085,-2.394L2.907,-2.391L3.449,-2.479L-5.54,-2.482L-4.601,-1.178L0,4.046Z" style="fill:rgb(221,221,221);fill-rule:nonzero;"/>
                </g>
                <g transform="matrix(1,0,0,1,576.239,2377.83)">
                    <path d="M0,0.085L0.363,0.085L0.365,-0.003L-13.37,0.001L-13.23,0.088L0,0.085Z" style="fill:rgb(221,221,221);fill-rule:nonzero;"/>
                </g>
                <g transform="matrix(1,0,0,1,504.051,2377.83)">
                    <path d="M0,0.085L13.23,0.088L13.37,0.001L-0.364,-0.003L-0.363,0.085L0,0.085Z" style="fill:rgb(221,221,221);fill-rule:nonzero;"/>
                </g>
                <g transform="matrix(1,0,0,1,517.649,2377.85)">
                    <path d="M0,0.077L16.44,0.084L22.301,0.088L22.496,-0.001L-0.227,-0.011L-0.197,0.077L0,0.077Z" style="fill:rgb(221,221,221);fill-rule:nonzero;"/>
                </g>
                <g transform="matrix(1,0,0,1,559.833,2378.69)">
                    <path d="M0,6.317L0.564,6.307L14.062,6.018L15.322,5.989L16.644,5.387L19.403,4.125L19.495,4.083L23.605,0.363L17.236,0.025L16.754,-0.003L16.391,-0.021L4.032,-0.021L2.733,0.025L-13.149,0.593L-14.225,1.541L-14.233,1.597L-14.859,6.338L-3.68,6.324L0,6.317Z" style="fill:rgb(221,221,221);fill-rule:nonzero;"/>
                </g>
                <g transform="matrix(1,0,0,1,546.202,2377.84)">
                    <path d="M0,0.092L16.44,0.085L16.637,0.085L16.667,-0.003L-6.057,0.007L-5.861,0.095L0,0.092Z" style="fill:rgb(221,221,221);fill-rule:nonzero;"/>
                </g>
                <g transform="matrix(1,0,0,1,524.138,2379.52)">
                    <path d="M0,5.496L-3.68,5.489L-4.244,5.478L-17.743,5.189L-19.002,5.161L-20.324,4.559L-23.083,3.296L-23.175,3.254L-27.286,-0.465L-27.463,-0.814L-27.286,-0.465L-20.916,-0.803L-20.434,-0.831L-20.071,-0.849L-7.712,-0.849L-6.413,-0.803L9.469,-0.235L10.545,0.713L10.553,0.769L11.178,5.51L0,5.496ZM21.462,0.769L21.47,0.713L22.546,-0.235L38.428,-0.803L39.727,-0.849L52.086,-0.849L52.449,-0.831L52.931,-0.803L59.3,-0.465L59.478,-0.814L59.3,-0.465L55.19,3.254L55.098,3.296L52.339,4.559L51.017,5.161L49.757,5.189L36.259,5.478L35.695,5.489L32.015,5.496L20.836,5.51L21.462,0.769ZM35.204,6.924L35.488,6.92L35.762,6.913L51.931,6.564L51.95,6.554L52.302,6.37L55.515,4.703L55.721,4.474L60.07,-0.341L60.146,-0.443L61,-1.6L53.008,-1.596L52.101,-1.596L38.872,-1.593L38.504,-1.593L22.064,-1.586L16.203,-1.582L15.812,-1.582L9.951,-1.586L-6.489,-1.593L-6.857,-1.593L-20.086,-1.596L-20.993,-1.596L-28.985,-1.6L-28.131,-0.443L-28.055,-0.341L-23.706,4.474L-23.5,4.703L-20.287,6.37L-19.935,6.554L-19.917,6.564L-3.747,6.913L-3.473,6.92L-3.189,6.924L13.496,7.075L16.007,7.096L18.519,7.075L35.204,6.924Z" style="fill:rgb(221,221,221);fill-rule:nonzero;"/>
                </g>
                <g transform="matrix(1,0,0,1,585.138,2386.75)">
                    <path d="M0,-8.834L-0.854,-7.678L-0.93,-7.576L-5.279,-2.761L-5.484,-2.531L-8.698,-0.864L-9.05,-0.681L-9.068,-0.67L-25.237,-0.321L-25.512,-0.314L-25.796,-0.311L-42.481,-0.159L-44.993,-0.138L-44.993,0.088L-25.315,-0.096L-8.706,-0.466L-5.085,-2.394L-0.484,-7.618L0.455,-8.922L-8.534,-8.919L-7.992,-8.831L0,-8.834Z" style="fill:rgb(221,221,221);fill-rule:nonzero;"/>
                </g>
                <g transform="matrix(1,0,0,1,624.316,2422.75)">
                    <path d="M0,-49.364L-0.368,-44.122L-0.428,-42.892L-0.918,-32.87L-1.209,-30.138L-1.209,2.235L0.422,2.235L1.036,-0.426L-0.093,-5.016L-0.496,-6.652L-0.059,-20.35L0.168,-29.106L0.266,-32.87L0.341,-37.09L0.444,-42.892L0.451,-46.163L0.453,-47.524L0.456,-48.966L0.457,-49.364L0.304,-51.599L0,-49.364Z" style="fill:rgb(221,221,221);fill-rule:nonzero;"/>
                </g>
                <g transform="matrix(1,0,0,1,636.98,2336.63)">
                    <path d="M0,5.211L-5.853,5.672L-11.84,6.053L-15.513,6.198L-17.244,2.479L-17.489,1.777L-22.958,2.891L-22.968,2.842L-28.462,-5.939L-28.499,-5.998L-28.651,-6.242L-29.656,-7.846L-27.222,-2.752L-24.021,3.952L-23.539,4.961L-22.047,8.084L-21.607,9.003L-19.671,13.057L-19.573,12.736L-19.149,11.341L-19.142,11.316L-19.084,11.126L-18.947,10.671L-18.879,10.449L-18.318,10.421L-11.57,10.086L-6.836,9.659L-1.197,8.612L2.035,7.717L3.176,6.286L3.668,4.816L2.93,4.9L0,5.211Z" style="fill:rgb(221,221,221);fill-rule:nonzero;"/>
                </g>
                <g transform="matrix(1,0,0,1,608.481,2311.76)">
                    <path d="M0,18.866L0.037,18.926L-0.92,16.945L-11.852,-0.06L-0.894,17.019L0,18.866Z" style="fill:rgb(221,221,221);fill-rule:nonzero;"/>
                </g>
                <g transform="matrix(1,0,0,1,603.686,2318.39)">
                    <path d="M0,4.647L3.638,10.393L4.643,11.996L3.901,10.393L-7.057,-6.686L-7.595,-7.349L-4.578,-2.583L0,4.647Z" style="fill:rgb(221,221,221);fill-rule:nonzero;"/>
                </g>
                <g transform="matrix(1,0,0,1,618.034,2347.05)">
                    <path d="M0,0.25L0.629,0L0.068,0.028L0,0.25Z" style="fill:rgb(221,221,221);fill-rule:nonzero;"/>
                </g>
                <g transform="matrix(1,0,0,1,622.857,2360.2)">
                    <path d="M0,-1.442L0.06,-1.393L0.224,-1.262L0.577,0.014L0.601,0.102L0.603,0.232L0.605,0.278L0.606,0.349L1.92,-0.543L1.522,-1.717L1.311,-1.791L-0.254,-1.499L0,-1.442Z" style="fill:rgb(221,221,221);fill-rule:nonzero;"/>
                </g>
                <g transform="matrix(1,0,0,1,583.291,2344.39)">
                    <path d="M0,-37.316L-21.063,-38.246L-43.146,-38.546L-65.228,-38.246L-86.292,-37.316L-91.579,-36.826L-94.871,-36.519L-100.322,-26.818L-110.412,-7.251L-114.494,1.23L-108.546,0.877L-107.18,0.796L-86.005,0.151L-71.824,-0.155L-86.005,0.031L-107.18,0.571L-109.51,0.264L-106.5,-7.35L-97.844,-26.974L-92.746,-35.821L-86.292,-36.484L-65.228,-37.418L-43.146,-37.714L-21.063,-37.418L0,-36.484L6.455,-35.821L11.553,-26.974L20.209,-7.35L23.219,0.264L20.889,0.571L-0.286,0.031L-14.467,-0.155L-0.286,0.151L20.889,0.796L22.255,0.877L28.203,1.23L24.121,-7.251L14.031,-26.818L8.58,-36.519L5.288,-36.826L0,-37.316Z" style="fill:rgb(221,221,221);fill-rule:nonzero;"/>
                </g>
                <g transform="matrix(1,0,0,1,588.579,2301.22)">
                    <path d="M0,6.348L3.292,6.655L1.813,3.126L-0.532,0.193L-3.929,-0.307L-1.584,2.629L0,6.348Z" style="fill:rgb(221,221,221);fill-rule:nonzero;"/>
                </g>
                <g transform="matrix(1,0,0,1,488.42,2300.91)">
                    <path d="M0,6.962L3.292,6.655L4.876,2.937L7.221,0L3.824,0.501L1.479,3.433L0,6.962Z" style="fill:rgb(221,221,221);fill-rule:nonzero;"/>
                </g>
                <g transform="matrix(1,0,0,1,482.055,2410.67)">
                    <path d="M0,-9.852L-15.21,-9.852L-16.013,-9.352L-14.474,-1.977L-12.494,-0.913L-4.506,-0.458L4.487,0L5.205,-0.708L1.085,-9.062L0,-9.852Z" style="fill:rgb(221,221,221);fill-rule:nonzero;"/>
                </g>
                <g transform="matrix(1,0,0,1,457.183,2373.81)">
                    <path d="M0,51.172L0,18.799L-0.291,16.067L-0.781,6.046L-0.841,4.815L-1.209,-0.427L-1.513,-2.661L-1.666,-0.427L-1.662,1.414L-1.66,2.774L-1.653,6.046L-1.55,11.847L-1.475,16.067L-1.377,19.832L-1.15,28.588L-0.713,42.286L-1.116,43.921L-2.245,48.511L-1.631,51.172L0,51.172Z" style="fill:rgb(221,221,221);fill-rule:nonzero;"/>
                </g>
                <g transform="matrix(1,0,0,1,456.856,2358.82)">
                    <path d="M0,1.395L0.354,0.119L0.517,-0.011L0.577,-0.061L-0.77,-0.304L-0.944,-0.335L-1.342,0.838L-0.028,1.73L-0.027,1.66L-0.026,1.614L-0.024,1.483L0,1.395Z" style="fill:rgb(221,221,221);fill-rule:nonzero;"/>
                </g>
                <g transform="matrix(1,0,0,1,461.628,2347.3)">
                    <path d="M0,-0.25L0.629,0L0.561,-0.222L0,-0.25Z" style="fill:rgb(221,221,221);fill-rule:nonzero;"/>
                </g>
                <g transform="matrix(1,0,0,1,462.981,2328.78)">
                    <path d="M0,20.903L1.937,16.849L2.376,15.929L3.868,12.806L4.35,11.798L7.551,5.093L9.985,0L8.981,1.604L3.287,10.737L-2.182,9.623L-2.427,10.325L-4.158,14.044L-7.831,13.899L-13.818,13.518L-19.671,13.057L-22.601,12.746L-23.339,12.662L-22.847,14.132L-22.819,14.167L-22.477,14.593L-21.705,15.563L-20.311,15.95L-18.473,16.458L-12.834,17.505L-8.101,17.932L-6.978,17.988L-1.353,18.267L-0.792,18.295L-0.724,18.517L-0.522,19.187L-0.098,20.582L0,20.903Z" style="fill:rgb(221,221,221);fill-rule:nonzero;"/>
                </g>
                <g transform="matrix(1,0,0,1,476.604,2318.39)">
                    <path d="M0,4.647L4.578,-2.583L7.595,-7.349L7.057,-6.686L-3.901,10.393L-4.643,11.996L-3.638,10.393L0,4.647Z" style="fill:rgb(221,221,221);fill-rule:nonzero;"/>
                </g>
                <g transform="matrix(1,0,0,1,388.369,2311.82)">
                    <path d="M0,27.802L-0.054,26.455L8.58,16.959L19.086,8.083L24.894,4.153L19.276,16.945L15.462,28.793L0,27.802ZM54.301,32.909L52.906,32.522L52.135,31.552L51.792,31.126L16.674,28.87L20.38,16.945L26.189,3.275L29.918,0.755L38.568,-1.677L75.172,-3.817L73.064,1.234L67.138,16.885L66.29,20.255L69.577,20.427L69.582,20.431L70.832,20.731L71.607,16.959L77.606,-0.119L79.959,-5.107L76.084,-5.04L38.968,-2.992L30.341,-0.486L19.017,7.202L7.18,16.959L-1.912,26.765L-2.792,28.976L24.655,30.953L54.301,32.909Z" style="fill:rgb(221,221,221);fill-rule:nonzero;"/>
                </g>
                <g transform="matrix(1,0,0,1,457.687,2358.47)">
                    <path d="M0,0.235L0.154,0.26L0.233,0.26L0.205,0.256L-1.565,-0.057L-0.254,0.292L0,0.235Z" style="fill:rgb(221,221,221);fill-rule:nonzero;"/>
                </g>
                <g transform="matrix(1,0,0,1,620.6,2354.38)">
                    <path d="M0,-0.944L0.32,-0.003L0.39,0.202L0.418,0.286L0.927,-0.059L0.529,-1.23L0.363,-1.173L-0.031,-1.036L0,-0.944Z" style="fill:rgb(221,221,221);fill-rule:nonzero;"/>
                </g>
                <g transform="matrix(1,0,0,1,397.639,2355.24)">
                    <path d="M0,-2.023L-0.017,-2.023L-0.145,-2.034L-0.835,-2.086L-4.554,-2.111L-4.778,-2.115L-7.233,-2.129L-12.435,-2.164L-12.871,-1.558L-12.709,-0.902L-12.074,0.141L-8.426,0.141L-8.525,0.053L-8.403,0.053L-8.104,0.05L-7.203,0.042L-6.067,0.032L-5.694,0.028L-0.359,-0.021L-0.141,-0.024L2.795,-0.271L3.116,-1.632L2.309,-1.84L0,-2.023Z" style="fill:rgb(221,221,221);fill-rule:nonzero;"/>
                </g>
                <g transform="matrix(1,0,0,1,618.439,2377.61)">
                    <path d="M0,-5.065L-0.045,-5.717L-0.673,-8.809L-2.31,-7.941L-1.886,-3.719L-2.578,3.744L-0.802,2.46L0,-5.065Z" style="fill:rgb(250,192,41);fill-rule:nonzero;"/>
                </g>
                <g transform="matrix(1,0,0,1,464.162,2380.48)">
                    <path d="M0,-10.818L-1.637,-11.685L-2.265,-8.594L-2.31,-7.942L-1.508,-0.416L0.268,0.867L-0.424,-6.595L0,-10.818Z" style="fill:rgb(250,192,41);fill-rule:nonzero;"/>
                </g>
                <g transform="matrix(1,0,0,1,487.282,2331.22)">
                    <path d="M0,3.292L0.836,3.62L1.878,3.817L2.019,3.821L3.054,3.874L4.283,3.768L5.212,3.567L5.483,3.51L6.571,3.137L7.473,2.657L8.128,2.111L8.491,1.533L8.538,0.959L8.264,0.433L7.69,-0.007L6.854,-0.339L5.812,-0.533L4.636,-0.582L3.407,-0.476L2.207,-0.229L1.119,0.147L0.217,0.624L-0.438,1.173L-0.802,1.751L-0.848,2.323L-0.575,2.848L0,3.292Z" style="fill:rgb(250,192,41);fill-rule:nonzero;"/>
                </g>
                <g transform="matrix(1,0,0,1,616.553,2373.95)">
                    <path d="M0,-0.067L-0.424,-4.29L1.213,-5.157L1.841,-2.066L1.886,-1.413L1.084,6.112L-0.692,7.395L0,-0.067ZM-27.384,10.24L-27.282,11.097L-9.937,10.106L-4.63,9.673L-0.732,8.46L1.332,7.141L2.274,-1.639L0.542,-10.635L-0.478,-11.164L-5.981,-10.06L-10.466,-7.526L-15.969,-4.234L-20.148,-0.416L-22.9,2.965L-25.957,7.614L-27.384,10.24Z" style="fill:white;fill-rule:nonzero;"/>
                </g>
                <g transform="matrix(1,0,0,1,462.654,2367.77)">
                    <path d="M0,12.292L-0.802,4.767L-0.757,4.114L-0.129,1.023L1.508,1.89L1.084,6.113L1.776,13.575L0,12.292ZM5.714,15.853L11.021,16.286L28.366,17.276L28.468,16.42L27.041,13.794L23.984,9.145L21.232,5.764L17.053,1.946L11.55,-1.346L7.065,-3.88L1.562,-4.984L0.542,-4.455L-1.19,4.541L-0.248,13.321L1.816,14.64L5.714,15.853Z" style="fill:white;fill-rule:nonzero;"/>
                </g>
                <g transform="matrix(1,0,0,1,613.181,2422.39)">
                    <path d="M0,2.644L-5.32,1.904L-17.061,0.635L-31.54,0L-114.53,0L-129.01,0.635L-140.751,1.904L-146.071,2.644L0,2.644Z" style="fill:rgb(142,142,142);fill-rule:nonzero;"/>
                </g>
                <g transform="matrix(1,0,0,1,623.107,2418.01)">
                    <path d="M0,27.689L0,-25.394L-0.346,-22.14L-1.042,-15.605L-1.318,-13.628L-2.038,-8.467L-2.722,-3.567L-2.953,-1.907L-3.975,1.114L-6.195,6.715L-6.319,7.028L-20.384,7.028L-20.384,27.689L-18.345,29.712L-2.038,29.712L0,27.689Z" style="fill:rgb(142,142,142);fill-rule:nonzero;"/>
                </g>
                <g transform="matrix(1,0,0,1,467.11,2415.3)">
                    <path d="M10.457,9.738L-3.608,9.738L-3.732,9.425L-5.952,3.823L-6.973,0.802L-7.205,-0.858L-7.889,-5.758L-8.885,-12.896L-9.581,-19.431L-9.927,-22.684L-9.927,30.398L-7.889,32.422L8.419,32.422L10.457,30.398L10.457,9.738Z" style="fill:rgb(142,142,142);fill-rule:nonzero;"/>
                </g>
                <g transform="matrix(1,0,0,1,577.145,2377.83)">
                    <path d="M0,0.088L-0.542,0L-0.496,0.088L0,0.088Z" style="fill:rgb(142,142,142);fill-rule:nonzero;"/>
                </g>
                <g transform="matrix(-0.0306087,-0.999531,-0.999531,0.0306087,620.683,2337.2)">
                    <path d="M-1.178,1.005L1.665,1.005L-1.164,1.229L-1.872,1.005L-1.178,1.005Z" style="fill:rgb(142,142,142);fill-rule:nonzero;"/>
                </g>
                <g transform="matrix(1,0,0,1,623.435,2359.2)">
                    <path d="M0,1.012L-0.354,-0.264L-0.517,-0.394L-0.577,-0.444L-0.832,-0.5L-0.986,-0.475L-1.065,-0.475L-0.848,0.162L-0.843,0.177L-0.832,0.208L-0.617,0.843L-0.39,1.512L0.026,1.231L0.024,1.1L0,1.012Z" style="fill:rgb(142,142,142);fill-rule:nonzero;"/>
                </g>
                <g transform="matrix(1,0,0,1,622.449,2358.41)">
                    <path d="M0,0.317L0.154,0.292L1.719,0L-0.051,0.314L-0.079,0.317L0,0.317Z" style="fill:rgb(142,142,142);fill-rule:nonzero;"/>
                </g>
                <g transform="matrix(1,0,0,1,623.255,2360.48)">
                    <path d="M0,0.148L0.208,0.07L0.207,0L0,0.148Z" style="fill:rgb(142,142,142);fill-rule:nonzero;"/>
                </g>
                <g transform="matrix(1,0,0,1,503.64,2377.83)">
                    <path d="M0,0.088L0.047,0L-0.495,0.088L0,0.088Z" style="fill:rgb(142,142,142);fill-rule:nonzero;"/>
                </g>
                <g transform="matrix(1,0,0,1,457.036,2360.48)">
                    <path d="M0,0.148L-0.207,0L-0.208,0.07L0,0.148Z" style="fill:rgb(142,142,142);fill-rule:nonzero;"/>
                </g>
                <g transform="matrix(1,0,0,1,456.122,2358.76)">
                    <path d="M0,-0.349L-0.036,-0.243L1.311,0L0,-0.349Z" style="fill:rgb(142,142,142);fill-rule:nonzero;"/>
                </g>
                <g transform="matrix(1,0,0,1,457.698,2360.04)">
                    <path d="M0,-0.659L0.005,-0.673L0.222,-1.311L0.143,-1.311L-0.011,-1.336L-0.265,-1.279L-0.325,-1.23L-0.489,-1.099L-0.843,0.176L-0.867,0.265L-0.869,0.395L-0.453,0.677L-0.226,0.008L-0.011,-0.627L0,-0.659Z" style="fill:rgb(142,142,142);fill-rule:nonzero;"/>
                </g>
                <g transform="matrix(1,0,0,1,620.569,2353.07)">
                    <path d="M0,0.271L0.394,0.133L0.385,0.109L0.349,0L-0.056,0.109L-0.031,0.183L0,0.271Z" style="fill:rgb(142,142,142);fill-rule:nonzero;"/>
                </g>
            </g>
        </g>
    </g>
</svg>
