<?xml version="1.0" encoding="UTF-8" standalone="no"?>
<!DOCTYPE svg PUBLIC "-//W3C//DTD SVG 1.1//EN" "http://www.w3.org/Graphics/SVG/1.1/DTD/svg11.dtd">
<svg width="100%" height="100%" viewBox="0 0 453 507" version="1.1" xmlns="http://www.w3.org/2000/svg" xmlns:xlink="http://www.w3.org/1999/xlink" xml:space="preserve" xmlns:serif="http://www.serif.com/" style="fill-rule:evenodd;clip-rule:evenodd;stroke-linejoin:round;stroke-miterlimit:2;">
    <g id="Artboard1" transform="matrix(1,0,0,1,152.442,68.2558)">
        <rect x="-152.442" y="-68.256" width="452.035" height="506.228" style="fill:none;"/>
        <g transform="matrix(1,0,0,1,-2719.63,-5117.37)">
            <g id="truck-outbound">
                <g>
                    <g transform="matrix(1,0,0,1,2855.85,5484.34)">
                        <rect x="0" y="-11.989" width="4.597" height="11.989" style="fill:rgb(142,142,142);fill-rule:nonzero;"/>
                    </g>
                    <g transform="matrix(1,0,0,1,2932.88,5485.38)">
                        <path d="M0,65.071L0,-54.486L-3.232,-57.715L-3.232,18.432L-36.403,18.432L-36.403,65.071L-32.881,68.593L-3.525,68.593L0,65.071Z" style="fill:rgb(142,142,142);fill-rule:nonzero;"/>
                    </g>
                    <g transform="matrix(1,0,0,1,2896.47,5515.87)">
                        <path d="M0,34.581L0,-7.635L-4.227,-7.635L-4.227,34.581L-3.999,36.576L-3.463,37.341L-2.835,38.102L3.521,38.102L0,34.581Z" style="fill:rgb(142,142,142);fill-rule:nonzero;"/>
                    </g>
                    <g transform="matrix(1,0,0,1,2700.1,5435.3)">
                        <path d="M0,115.152L0,68.512L-33.17,68.512L-33.17,-7.635L-36.403,-4.406L-36.403,115.152L-32.878,118.673L-3.521,118.673L0,115.152Z" style="fill:rgb(142,142,142);fill-rule:nonzero;"/>
                    </g>
                    <g transform="matrix(1,0,0,1,2704.33,5511.75)">
                        <path d="M0,38.694L0,-3.521L-4.23,-3.521L-4.23,38.694L-7.751,42.215L-1.576,42.215L-0.548,41.454L0.058,40.689L0,38.694Z" style="fill:rgb(142,142,142);fill-rule:nonzero;"/>
                    </g>
                    <g transform="matrix(1,0,0,1,2740.74,5478.01)">
                        <rect x="-4.597" y="-5.661" width="4.597" height="11.988" style="fill:rgb(142,142,142);fill-rule:nonzero;"/>
                    </g>
                    <g transform="matrix(1,0,0,1,2736.14,5427.37)">
                        <path d="M0,21.478L4.597,21.478L4.597,3.522L3.864,2.792L3.557,2.486L1.643,0.571L1.072,0L0,0L0,21.478Z" style="fill:rgb(142,142,142);fill-rule:nonzero;"/>
                    </g>
                    <g transform="matrix(1,0,0,1,2859.37,5427.37)">
                        <path d="M-3.522,21.478L1.075,21.478L1.075,0L0,0L-0.571,0.571L-2.485,2.486L-2.792,2.792L-3.522,3.522L-3.522,21.478Z" style="fill:rgb(142,142,142);fill-rule:nonzero;"/>
                    </g>
                    <g transform="matrix(1,0,0,1,2942.92,5275)">
                        <path d="M0,48.092L3.222,47.429L5.577,45.614L6.44,43.136L6.44,4.96L5.577,2.478L3.222,0.666L0,0L-6.831,0L-6.831,48.092L0,48.092Z" style="fill:rgb(214,238,246);fill-rule:nonzero;"/>
                    </g>
                    <g transform="matrix(1,0,0,1,2650.44,5322.43)">
                        <path d="M0,-46.76L-2.358,-44.948L-3.222,-42.466L-3.222,-4.291L-2.358,-1.813L0,0.003L3.219,0.666L10.05,0.666L10.05,-47.426L3.219,-47.426L0,-46.76Z" style="fill:rgb(214,238,246);fill-rule:nonzero;"/>
                    </g>
                    <g transform="matrix(1,0,0,1,2652.45,5354.72)">
                        <path d="M0,-26.497L-1.911,-25.027L-2.608,-23.018L-2.608,-3.479L-1.911,-1.469L0,0L2.605,0.536L8.041,0.536L8.041,-27.033L2.605,-27.033L0,-26.497Z" style="fill:rgb(214,238,246);fill-rule:nonzero;"/>
                    </g>
                    <g transform="matrix(1,0,0,1,2941.53,5327.68)">
                        <path d="M0,27.569L2.609,27.033L4.516,25.563L5.214,23.554L5.214,4.015L4.516,2.006L2.609,0.536L0,0L-5.435,0L-5.435,27.569L0,27.569Z" style="fill:rgb(214,238,246);fill-rule:nonzero;"/>
                    </g>
                    <g transform="matrix(1,0,0,1,2936.09,5506.8)">
                        <path d="M0,-106.508L0,-81.132L-15.196,-81.132L-15.196,-80.966L-6.447,-80.966L-6.447,-79.14L-3.215,-75.911L-3.215,1.431L0.039,1.431L0.039,-61.318L0.606,-75.4L1.082,-87.276L1.442,-96.275L1.667,-101.883L1.745,-103.79L0,-106.508Z" style="fill:rgb(130,195,65);fill-rule:nonzero;"/>
                    </g>
                    <g transform="matrix(1,0,0,1,2663.7,5412.27)">
                        <path d="M0,95.961L0,18.619L3.232,15.39L3.232,13.564L11.981,13.564L11.981,13.398L-3.215,13.398L-3.215,-11.978L-4.96,-9.26L-4.882,-7.353L-4.656,-1.745L-4.297,7.254L-3.818,19.13L-3.254,33.212L-3.254,95.961L0,95.961Z" style="fill:rgb(130,195,65);fill-rule:nonzero;"/>
                    </g>
                    <g transform="matrix(1,0,0,1,2918.14,5441.27)">
                        <path d="M2.753,-15.602L-242.46,-15.602L-242.46,-15.436L-182.003,-15.436L-182.003,-13.903L-180.931,-13.903L-178.139,-11.111L-177.406,-10.382L-177.406,0L-165.086,0L-165.086,-15.228L-163.912,-15.228L-163.912,-15.436L-152.16,-15.436L-152.16,-15.228L-87.547,-15.228L-87.547,-15.436L-75.794,-15.436L-75.794,-15.228L-74.621,-15.228L-74.621,0L-62.297,0L-62.297,-10.382L-58.776,-13.903L-57.701,-13.903L-57.701,-15.436L2.753,-15.436L2.753,-15.602Z" style="fill:rgb(130,195,65);fill-rule:nonzero;"/>
                    </g>
                    <g transform="matrix(-1,0,0,1,5850.47,1874.47)">
                        <rect x="2921.01" y="3262.79" width="8.443" height="5.213" style="fill:rgb(250,192,41);"/>
                    </g>
                    <g transform="matrix(-1,0,0,1,5632.25,1874.47)">
                        <rect x="2811.9" y="3262.79" width="8.439" height="5.213" style="fill:rgb(250,192,41);"/>
                    </g>
                    <g transform="matrix(1,0,0,1,0,1874.47)">
                        <rect x="2667.12" y="3262.79" width="8.439" height="5.213" style="fill:rgb(250,192,41);"/>
                    </g>
                    <g transform="matrix(1,0,0,1,0,1874.47)">
                        <rect x="2776.24" y="3262.79" width="8.439" height="5.213" style="fill:rgb(250,192,41);"/>
                    </g>
                    <g transform="matrix(1,0,0,1,2671.23,5212.44)">
                        <rect x="0" y="-50.591" width="254.124" height="50.591" style="fill:rgb(242,242,241);fill-rule:nonzero;"/>
                    </g>
                    <g transform="matrix(1,0,0,1,2891.66,5454.41)">
                        <path d="M0,12.376L0.469,13.895L1.456,14.97L2.728,15.358L7.586,15.358L8.862,14.97L9.845,13.895L10.318,12.376L10.772,9.306L10.924,6.186L10.772,3.07L10.318,0L10.159,-0.635L9.602,-1.858L8.693,-2.69L7.586,-2.982L2.728,-2.982L1.625,-2.69L0.712,-1.858L0.158,-0.635L0,0L-0.455,3.07L-0.606,6.186L-0.455,9.306L0,12.376Z" style="fill:rgb(229,101,154);fill-rule:nonzero;"/>
                    </g>
                    <g transform="matrix(1,0,0,1,2704.21,5468.65)">
                        <path d="M0,-16.091L-0.913,-16.923L-2.016,-17.216L-6.874,-17.216L-7.98,-16.923L-8.89,-16.091L-9.447,-14.868L-9.605,-14.233L-10.06,-11.163L-10.212,-8.047L-10.06,-4.927L-9.605,-1.857L-9.133,-0.338L-8.15,0.737L-6.874,1.125L-2.016,1.125L-0.744,0.737L0.243,-0.338L0.716,-1.857L1.167,-4.927L1.318,-8.047L1.167,-11.163L0.716,-14.233L0.553,-14.868L0,-16.091Z" style="fill:rgb(229,101,154);fill-rule:nonzero;"/>
                    </g>
                    <g transform="matrix(1,0,0,1,2936.09,5257.55)">
                        <rect x="-0.751" y="-83" width="0.751" height="236.133" style="fill:rgb(221,221,221);fill-rule:nonzero;"/>
                    </g>
                    <g transform="matrix(1,0,0,1,2935.34,5397.82)">
                        <rect x="-9.99" y="-247.959" width="9.99" height="260.825" style="fill:rgb(221,221,221);fill-rule:nonzero;"/>
                    </g>
                    <g transform="matrix(1,0,0,1,2660.49,5139.86)">
                        <path d="M0,0.641L0,-7.991L-0.36,-5.037L-0.342,-1.354L-0.12,2.996L0,0.641Z" style="fill:rgb(221,221,221);fill-rule:nonzero;"/>
                    </g>
                    <g transform="matrix(1,0,0,1,2660.49,5183.51)">
                        <rect x="0" y="-8.957" width="0.751" height="236.133" style="fill:rgb(221,221,221);fill-rule:nonzero;"/>
                    </g>
                    <g transform="matrix(1,0,0,1,2661.24,5155.96)">
                        <rect x="-0.751" y="-6.102" width="0.751" height="24.693" style="fill:rgb(221,221,221);fill-rule:nonzero;"/>
                    </g>
                    <g transform="matrix(1,0,0,1,2798.29,5149.86)">
                        <rect x="-127.062" y="0" width="254.124" height="11.992" style="fill:rgb(221,221,221);fill-rule:nonzero;"/>
                    </g>
                    <g transform="matrix(1,0,0,1,2798.29,5131.87)">
                        <rect x="-137.803" y="0" width="275.606" height="2.996" style="fill:rgb(221,221,221);fill-rule:nonzero;"/>
                    </g>
                    <g transform="matrix(1,0,0,1,2935.34,5173.32)">
                        <rect x="0" y="-23.459" width="0.751" height="24.693" style="fill:rgb(221,221,221);fill-rule:nonzero;"/>
                    </g>
                    <g transform="matrix(1,0,0,1,2671.23,5348.1)">
                        <rect x="-9.99" y="-198.242" width="9.99" height="260.825" style="fill:rgb(221,221,221);fill-rule:nonzero;"/>
                    </g>
                    <g transform="matrix(1,0,0,1,2921.1,5425.67)">
                        <rect x="-260.617" y="-14.988" width="275.606" height="14.988" style="fill:rgb(221,221,221);fill-rule:nonzero;"/>
                    </g>
                    <g transform="matrix(1,0,0,1,2936.09,5141.51)">
                        <path d="M0,-9.641L0,4.032L0.12,1.346L0.342,-3.004L0.359,-6.688L0,-9.641Z" style="fill:rgb(221,221,221);fill-rule:nonzero;"/>
                    </g>
                    <g transform="matrix(1,0,0,1,0,1874.47)">
                        <path d="M2784.68,3268L2776.24,3268L2776.24,3262.79L2784.68,3262.79L2784.68,3268ZM2675.56,3268L2667.12,3268L2667.12,3262.79L2675.56,3262.79L2675.56,3268ZM2811.9,3262.79L2820.34,3262.79L2820.34,3268L2811.9,3268L2811.9,3262.79ZM2921.01,3262.79L2929.46,3262.79L2929.46,3268L2921.01,3268L2921.01,3262.79ZM2936.09,3270.39L2936.09,3260.4L2660.49,3260.4L2660.49,3270.39L2936.09,3270.39Z" style="fill:rgb(221,221,221);fill-rule:nonzero;"/>
                    </g>
                    <g transform="matrix(1,0,0,1,2671.23,5144.86)">
                        <rect x="-10.741" y="0" width="275.606" height="4.995" style="fill:rgb(221,221,221);fill-rule:nonzero;"/>
                    </g>
                    <g transform="matrix(1,0,0,1,2705.13,5467.04)">
                        <path d="M0,-12.887L-0.211,-12.63L0.24,-9.559L0.391,-6.443L0.24,-3.324L-0.211,-0.253L-0.684,1.266L-1.671,2.341L-2.943,2.729L-7.801,2.729L-9.077,2.341L-10.06,1.266L-10.533,-0.253L-10.988,-3.324L-11.139,-6.443L-10.988,-9.559L-10.533,-12.63L-10.374,-13.264L-9.817,-14.487L-8.908,-15.319L-7.801,-15.612L-2.943,-15.612L-1.84,-15.319L-0.927,-14.487L-0.374,-13.264L-0.166,-13.55L-0.744,-14.822L-1.692,-15.689L-2.845,-15.996L-7.903,-15.996L-9.056,-15.689L-10.004,-14.822L-10.582,-13.55L-10.748,-12.887L-11.22,-9.69L-11.379,-6.443L-11.22,-3.197L-10.748,0.004L-10.258,1.587L-9.229,2.707L-7.903,3.109L-2.845,3.109L-1.516,2.707L-0.49,1.587L0,0.004L0.472,-3.197L0.631,-6.443L0.472,-9.69L0,-12.887Z" style="fill:rgb(221,221,221);fill-rule:nonzero;"/>
                    </g>
                    <g transform="matrix(1,0,0,1,2948.9,5321.28)">
                        <path d="M0,-44.467L-2.432,-46.335L-5.749,-47.023L-12.81,-47.023L-12.81,-46.279L-5.979,-46.279L-2.757,-45.613L-0.402,-43.801L0.462,-41.319L0.462,-3.144L-0.402,-0.665L-2.757,1.15L-5.979,1.813L-12.81,1.813L-12.81,2.556L-5.749,2.556L-2.432,1.873L0,0.004L0.888,-2.551L0.888,-41.911L0,-44.467Z" style="fill:rgb(221,221,221);fill-rule:nonzero;"/>
                    </g>
                    <g transform="matrix(1,0,0,1,2936.09,5327.08)">
                        <rect x="0" y="-3.243" width="1.241" height="3.243" style="fill:rgb(221,221,221);fill-rule:nonzero;"/>
                    </g>
                    <g transform="matrix(1,0,0,1,2936.09,5272.71)">
                        <path d="M0,-5.932L0,1.548L1.241,1.548L1.241,-7.48L0.723,-6.232L0,-5.932Z" style="fill:rgb(221,221,221);fill-rule:nonzero;"/>
                    </g>
                    <g transform="matrix(1,0,0,1,2936.09,5265.23)">
                        <path d="M0,-1.548L0,1.544L0.723,1.244L1.241,-0.004L0.723,-1.248L0,-1.548Z" style="fill:rgb(221,221,221);fill-rule:nonzero;"/>
                    </g>
                    <g transform="matrix(1,0,0,1,2936.09,5355.85)">
                        <path d="M0,-28.775L0,-28.172L5.435,-28.172L8.044,-27.636L9.951,-26.166L10.649,-24.157L10.649,-4.618L9.951,-2.609L8.044,-1.139L5.435,-0.603L0,-0.603L0,0L5.619,0L8.308,-0.554L10.275,-2.069L10.994,-4.139L10.994,-24.637L10.275,-26.706L8.308,-28.222L5.619,-28.775L0,-28.775Z" style="fill:rgb(221,221,221);fill-rule:nonzero;"/>
                    </g>
                    <g transform="matrix(1,0,0,1,2659.76,5265.23)">
                        <path d="M-0.518,9.028L0.723,9.028L0.723,1.548L0,1.248L-0.518,0L-0.518,9.028Z" style="fill:rgb(221,221,221);fill-rule:nonzero;"/>
                    </g>
                    <g transform="matrix(1,0,0,1,2660.49,5263.69)">
                        <path d="M0,3.092L0,0L-0.723,0.3L-1.241,1.544L-0.723,2.792L0,3.092Z" style="fill:rgb(221,221,221);fill-rule:nonzero;"/>
                    </g>
                    <g transform="matrix(1,0,0,1,2660.49,5274.26)">
                        <path d="M0,49.579L0,48.835L-6.831,48.835L-10.05,48.173L-12.408,46.357L-13.271,43.879L-13.271,5.704L-12.408,3.222L-10.05,1.41L-6.831,0.744L0,0.744L0,0L-7.061,0L-10.378,0.687L-12.806,2.556L-13.698,5.111L-13.698,44.471L-12.806,47.027L-10.378,48.895L-7.061,49.579L0,49.579Z" style="fill:rgb(221,221,221);fill-rule:nonzero;"/>
                    </g>
                    <g transform="matrix(1,0,0,1,2660.49,5323.84)">
                        <rect x="-1.241" y="0" width="1.241" height="3.243" style="fill:rgb(221,221,221);fill-rule:nonzero;"/>
                    </g>
                    <g transform="matrix(1,0,0,1,2655.05,5327.68)">
                        <path d="M0,27.569L-2.605,27.033L-4.516,25.563L-5.213,23.554L-5.213,4.015L-4.516,2.006L-2.605,0.536L0,0L5.436,0L5.436,-0.603L-0.183,-0.603L-2.873,-0.049L-4.84,1.466L-5.559,3.536L-5.559,24.033L-4.84,26.103L-2.873,27.618L-0.183,28.172L5.436,28.172L5.436,27.569L0,27.569Z" style="fill:rgb(221,221,221);fill-rule:nonzero;"/>
                    </g>
                    <g transform="matrix(1,0,0,1,2754.23,5426.04)">
                        <rect x="-1.174" y="0" width="1.174" height="22.803" style="fill:rgb(221,221,221);fill-rule:nonzero;"/>
                    </g>
                    <g transform="matrix(1,0,0,1,2854.78,5496.03)">
                        <path d="M0,-3.416L0,-0.621L-15.993,-0.621L-15.993,0.539L1.061,0.539L1.061,-3.416L0,-3.416Z" style="fill:rgb(221,221,221);fill-rule:nonzero;"/>
                    </g>
                    <g transform="matrix(-1,0,0,1,5493.79,2484.86)">
                        <rect x="2740.74" y="2956.41" width="12.32" height="7.575" style="fill:rgb(221,221,221);"/>
                    </g>
                    <g transform="matrix(1,0,0,1,0,2589.26)">
                        <rect x="2740.74" y="2907.31" width="17.05" height="1.389" style="fill:rgb(221,221,221);"/>
                    </g>
                    <g transform="matrix(1,0,0,1,2851.16,5477.26)">
                        <path d="M0,-3.493L0,-1.142L-7.642,-1.142L-7.642,-0.553L3.62,-0.553L3.62,1.417L4.681,1.417L4.681,-4.91L-7.054,-4.91L-7.054,-3.493L0,-3.493Z" style="fill:rgb(221,221,221);fill-rule:nonzero;"/>
                    </g>
                    <g transform="matrix(1,0,0,1,2891.2,5463.72)">
                        <path d="M0,-6.232L0.455,-9.302L0.613,-9.937L1.167,-11.16L2.08,-11.992L3.183,-12.284L8.041,-12.284L9.147,-11.992L10.057,-11.16L10.614,-9.937L10.772,-9.302L11.227,-6.232L11.379,-3.116L11.227,0.004L10.772,3.074L10.3,4.593L9.317,5.668L8.041,6.056L3.183,6.056L1.911,5.668L0.924,4.593L0.455,3.074L0,0.004L-0.152,-3.116L0,-6.232ZM0.24,3.331L0.73,4.914L1.755,6.035L3.084,6.437L8.143,6.437L9.472,6.035L10.497,4.914L10.988,3.331L11.46,0.131L11.618,-3.116L11.46,-6.362L10.988,-9.56L10.822,-10.222L10.244,-11.495L9.295,-12.362L8.143,-12.669L3.084,-12.669L1.932,-12.362L0.984,-11.495L0.405,-10.222L0.24,-9.56L-0.233,-6.362L-0.391,-3.116L-0.233,0.131L0.24,3.331Z" style="fill:rgb(221,221,221);fill-rule:nonzero;"/>
                    </g>
                    <g transform="matrix(1,0,0,1,2890.97,5463.85)">
                        <path d="M0,-6.493L0.472,-9.69L0.638,-10.353L1.216,-11.626L2.164,-12.493L3.317,-12.799L8.375,-12.799L9.528,-12.493L10.476,-11.626L11.054,-10.353L11.22,-9.69L11.692,-6.493L11.851,-3.247L11.692,0L11.22,3.201L10.73,4.783L9.704,5.904L8.375,6.306L3.317,6.306L1.988,5.904L0.962,4.783L0.472,3.201L0,0L-0.158,-3.247L0,-6.493ZM14.611,-14.999L-48.624,-14.999L-48.624,8.506L14.611,8.506L14.611,-14.999Z" style="fill:rgb(242,242,241);fill-rule:nonzero;"/>
                    </g>
                    <g transform="matrix(1,0,0,1,2918.14,5503.81)">
                        <path d="M11.502,-77.973L-57.701,-77.973L-57.701,-54.962L-12.56,-54.962L-12.56,-31.457L-57.701,-31.457L-57.701,-19.469L-11.005,-19.469L-9.831,-18.291L-9.831,-12.373L-11.005,-11.199L-57.701,-11.199L-57.701,0L11.502,0L11.502,-77.973Z" style="fill:rgb(221,221,221);fill-rule:nonzero;"/>
                    </g>
                    <g transform="matrix(1,0,0,1,2855.85,5484.34)">
                        <rect x="-1.061" y="-5.661" width="1.061" height="5.661" style="fill:rgb(221,221,221);fill-rule:nonzero;"/>
                    </g>
                    <g transform="matrix(1,0,0,1,2854.78,5482.37)">
                        <path d="M0,1.97L0,-5.661L-11.262,-5.661L-11.262,-5.076L-12.436,-5.076L-12.436,1.97L0,1.97Z" style="fill:rgb(221,221,221);fill-rule:nonzero;"/>
                    </g>
                    <g transform="matrix(-1,0,0,1,5699.37,2484.86)">
                        <rect x="2843.52" y="2956.41" width="12.323" height="7.575" style="fill:rgb(221,221,221);"/>
                    </g>
                    <g transform="matrix(1,0,0,1,2851.16,5472.35)">
                        <path d="M0,3.768L0,1.417L-7.054,1.417L-7.054,0L-7.642,0L-7.642,3.768L0,3.768Z" style="fill:rgb(221,221,221);fill-rule:nonzero;"/>
                    </g>
                    <g transform="matrix(1,0,0,1,2828.91,5504.21)">
                        <rect x="0" y="-0.148" width="9.884" height="3.522" style="fill:rgb(221,221,221);fill-rule:nonzero;"/>
                    </g>
                    <g transform="matrix(1,0,0,1,0,2606.78)">
                        <rect x="2892.25" y="2897.03" width="4.227" height="4.424" style="fill:rgb(221,221,221);"/>
                    </g>
                    <g transform="matrix(1,0,0,1,2828.91,5476.12)">
                        <path d="M-1.667,0.589L0.395,0.589L0.395,0L-3.377,0L-1.667,0.589Z" style="fill:rgb(221,221,221);fill-rule:nonzero;"/>
                    </g>
                    <g transform="matrix(1,0,0,1,2842.35,5426.04)">
                        <rect x="0" y="0" width="1.174" height="22.803" style="fill:rgb(221,221,221);fill-rule:nonzero;"/>
                    </g>
                    <g transform="matrix(1,0,0,1,2767.67,5476.12)">
                        <path d="M-0.398,0.589L1.664,0.589L3.373,0L-0.398,0L-0.398,0.589Z" style="fill:rgb(221,221,221);fill-rule:nonzero;"/>
                    </g>
                    <g transform="matrix(1,0,0,1,2705.61,5457.35)">
                        <path d="M0,6.493L-0.472,9.694L-0.962,11.276L-1.988,12.397L-3.317,12.799L-8.375,12.799L-9.701,12.397L-10.73,11.276L-11.22,9.694L-11.693,6.493L-11.851,3.246L-11.693,0L-11.22,-3.197L-11.054,-3.86L-10.477,-5.132L-9.528,-6L-8.375,-6.306L-3.317,-6.306L-2.165,-6L-1.216,-5.132L-0.638,-3.86L-0.472,-3.197L0,0L0.159,3.246L0,6.493ZM48.624,-8.506L-14.611,-8.506L-14.611,14.999L48.624,14.999L48.624,-8.506Z" style="fill:rgb(242,242,241);fill-rule:nonzero;"/>
                    </g>
                    <g transform="matrix(1,0,0,1,2843.52,5472.94)">
                        <rect x="-1.174" y="-0.585" width="1.174" height="4.942" style="fill:rgb(221,221,221);fill-rule:nonzero;"/>
                    </g>
                    <g transform="matrix(1,0,0,1,2757.79,5504.21)">
                        <rect x="0" y="-0.148" width="9.888" height="3.522" style="fill:rgb(221,221,221);fill-rule:nonzero;"/>
                    </g>
                    <g transform="matrix(1,0,0,1,0,2606.78)">
                        <rect x="2700.1" y="2897.03" width="4.23" height="4.424" style="fill:rgb(221,221,221);"/>
                    </g>
                    <g transform="matrix(1,0,0,1,2757.79,5493.77)">
                        <path d="M0,1.635L-15.993,1.635L-15.993,-1.16L-17.05,-1.16L-17.05,2.795L0,2.795L0,1.635Z" style="fill:rgb(221,221,221);fill-rule:nonzero;"/>
                    </g>
                    <g transform="matrix(1,0,0,1,0,2589.26)">
                        <rect x="2838.79" y="2907.31" width="17.054" height="1.389" style="fill:rgb(221,221,221);"/>
                    </g>
                    <g transform="matrix(1,0,0,1,2828.91,5505.67)">
                        <path d="M0,-7.702L0,-13.056L-14.361,-13.056L-16.155,-7.536L-17.907,-6.263L-18.517,-5.819L-25.094,-1.039L-36.142,-1.039L-42.719,-5.819L-43.329,-6.263L-45.081,-7.536L-46.875,-13.056L-61.233,-13.056L-61.233,-7.702L-52.293,-4.624L-42.719,1.403L-18.517,1.403L-8.943,-4.624L0,-7.702Z" style="fill:rgb(142,142,142);fill-rule:nonzero;"/>
                    </g>
                    <g transform="matrix(1,0,0,1,2838.79,5504.07)">
                        <rect x="-9.884" y="-8.661" width="9.884" height="8.661" style="fill:rgb(221,221,221);fill-rule:nonzero;"/>
                    </g>
                    <g transform="matrix(1,0,0,1,2753.06,5484.34)">
                        <path d="M0,-7.632L-11.262,-7.632L-11.262,0L1.174,0L1.174,-7.047L0,-7.047L0,-7.632Z" style="fill:rgb(221,221,221);fill-rule:nonzero;"/>
                    </g>
                    <g transform="matrix(1,0,0,1,2741.79,5484.34)">
                        <rect x="-1.057" y="-5.661" width="1.057" height="5.661" style="fill:rgb(221,221,221);fill-rule:nonzero;"/>
                    </g>
                    <g transform="matrix(1,0,0,1,2785.58,5497.83)">
                        <path d="M0,1.569L0.61,2.013L7.187,6.793L18.235,6.793L24.812,2.013L25.422,1.569L27.174,0.297L28.968,-5.224L-3.546,-5.224L-1.752,0.297L0,1.569Z" style="fill:rgb(221,221,221);fill-rule:nonzero;"/>
                    </g>
                    <g transform="matrix(1,0,0,1,2908.31,5427.01)">
                        <path d="M0,64.426L0,58.508L-1.174,57.33L-65.963,57.33L-65.963,58.508L-65.963,-1.174L-77.716,-1.174L-77.716,58.508L-77.716,57.33L-142.329,57.33L-142.329,58.508L-142.329,-1.174L-154.081,-1.174L-154.081,58.508L-154.081,57.33L-218.871,57.33L-220.044,58.508L-220.044,64.426L-218.871,65.6L-1.174,65.6L0,64.426Z" style="fill:rgb(142,142,142);fill-rule:nonzero;"/>
                    </g>
                    <g transform="matrix(1,0,0,1,2741.79,5492.61)">
                        <rect x="0" y="0" width="25.881" height="2.795" style="fill:rgb(142,142,142);fill-rule:nonzero;"/>
                    </g>
                    <g transform="matrix(1,0,0,1,2757.79,5504.07)">
                        <rect x="0" y="-8.661" width="9.888" height="8.661" style="fill:rgb(221,221,221);fill-rule:nonzero;"/>
                    </g>
                    <g transform="matrix(1,0,0,1,2753.06,5473.53)">
                        <rect x="0" y="-1.174" width="1.174" height="4.942" style="fill:rgb(221,221,221);fill-rule:nonzero;"/>
                    </g>
                    <g transform="matrix(0.634547,-0.772884,-0.772884,-0.634547,2705.29,5454.26)">
                        <path d="M-0.347,0.187L-0.014,0.187L0.394,0.735L0.041,0.715L-0.347,0.187Z" style="fill:rgb(221,221,221);fill-rule:nonzero;"/>
                    </g>
                    <g transform="matrix(1,0,0,1,2828.91,5492.61)">
                        <rect x="0" y="0" width="25.877" height="2.795" style="fill:rgb(142,142,142);fill-rule:nonzero;"/>
                    </g>
                    <g transform="matrix(1,0,0,1,2688.27,5438.21)">
                        <path d="M0,53.227L0,47.309L1.174,46.131L47.873,46.131L47.873,34.143L2.728,34.143L2.728,10.638L47.873,10.638L47.873,-12.373L-21.333,-12.373L-21.333,65.6L47.873,65.6L47.873,54.401L1.174,54.401L0,53.227Z" style="fill:rgb(221,221,221);fill-rule:nonzero;"/>
                    </g>
                    <g transform="matrix(1,0,0,1,2785.19,5484.34)">
                        <path d="M0,-8.22L-14.146,-8.22L-15.855,-7.631L-11.41,-7.631L-11.41,0L-3.715,0L-1.368,-7.226L0,-8.22Z" style="fill:rgb(221,221,221);fill-rule:nonzero;"/>
                    </g>
                    <g transform="matrix(1,0,0,1,2822.79,5483.75)">
                        <path d="M0,-7.043L4.445,-7.043L2.735,-7.632L-11.41,-7.632L-10.043,-6.638L-7.695,0.589L0,0.589L0,-7.043Z" style="fill:rgb(221,221,221);fill-rule:nonzero;"/>
                    </g>
                    <g transform="matrix(1,0,0,1,2773.78,5484.34)">
                        <path d="M0,-7.632L-6.507,-7.632L-6.507,-7.047L-7.801,-7.047L-7.801,0L0,0L0,-7.632Z" style="fill:rgb(221,221,221);fill-rule:nonzero;"/>
                    </g>
                    <g transform="matrix(1,0,0,1,2811.38,5484.34)">
                        <path d="M0,-8.22L-26.191,-8.22L-27.559,-7.226L-29.906,0L3.715,0L1.368,-7.226L0,-8.22Z" style="fill:rgb(221,221,221);fill-rule:nonzero;"/>
                    </g>
                    <g transform="matrix(1,0,0,1,2838.79,5508.23)">
                        <path d="M0,-10.279L0,-0.645L-9.884,-0.645L-9.884,-10.269L-18.827,-7.191L-28.401,-1.164L-52.604,-1.164L-62.177,-7.191L-71.117,-10.269L-71.117,-0.645L-81.005,-0.645L-81.005,-10.279L-98.055,-10.279L-98.055,0L17.054,0L17.054,-10.279L0,-10.279Z" style="fill:rgb(221,221,221);fill-rule:nonzero;"/>
                    </g>
                    <g transform="matrix(1,0,0,1,2741.79,5472.35)">
                        <path d="M0,6.327L0,4.357L11.262,4.357L11.262,3.768L3.624,3.768L3.624,1.417L10.674,1.417L10.674,0L-1.057,0L-1.057,6.327L0,6.327Z" style="fill:rgb(221,221,221);fill-rule:nonzero;"/>
                    </g>
                    <g transform="matrix(1,0,0,1,2767.28,5476.7)">
                        <rect x="-1.294" y="-0.585" width="1.294" height="1.174" style="fill:rgb(221,221,221);fill-rule:nonzero;"/>
                    </g>
                    <g transform="matrix(1,0,0,1,2765.98,5466.78)">
                        <rect x="0" y="-21.626" width="64.613" height="21.626" style="fill:rgb(221,221,221);fill-rule:nonzero;"/>
                    </g>
                    <g transform="matrix(1,0,0,1,2765.98,5426.04)">
                        <rect x="0" y="0" width="64.613" height="19.109" style="fill:rgb(221,221,221);fill-rule:nonzero;"/>
                    </g>
                    <g transform="matrix(1,0,0,1,2745.42,5474.7)">
                        <path d="M0,-0.934L0,1.417L7.639,1.417L7.639,-2.351L7.05,-2.351L7.05,-0.934L0,-0.934Z" style="fill:rgb(221,221,221);fill-rule:nonzero;"/>
                    </g>
                    <g transform="matrix(1,0,0,1,2829.3,5476.7)">
                        <rect x="0" y="-0.585" width="1.293" height="1.174" style="fill:rgb(221,221,221);fill-rule:nonzero;"/>
                    </g>
                    <g transform="matrix(1,0,0,1,2829.3,5484.34)">
                        <path d="M0,-7.632L-6.507,-7.632L-6.507,0L1.293,0L1.293,-7.047L0,-7.047L0,-7.632Z" style="fill:rgb(221,221,221);fill-rule:nonzero;"/>
                    </g>
                    <g transform="matrix(1,0,0,1,2765.98,5476.12)">
                        <rect x="0" y="-9.341" width="64.613" height="9.341" style="fill:rgb(221,221,221);fill-rule:nonzero;"/>
                    </g>
                    <g transform="matrix(1,0,0,1,0,2217.86)">
                        <rect x="2671.23" y="2994.58" width="4.248" height="198.242" style="fill:rgb(221,221,221);"/>
                    </g>
                    <g transform="matrix(1,0,0,1,2798.29,5410.68)">
                        <rect x="-122.815" y="-198.242" width="245.629" height="198.242" style="fill:rgb(242,242,241);fill-rule:nonzero;"/>
                    </g>
                    <g transform="matrix(1,0,0,1,0,2217.86)">
                        <rect x="2921.1" y="2994.58" width="4.248" height="198.242" style="fill:rgb(221,221,221);"/>
                    </g>
                </g>
            </g>
        </g>
    </g>
</svg>
