<?xml version="1.0" encoding="UTF-8" standalone="no"?>
<!DOCTYPE svg PUBLIC "-//W3C//DTD SVG 1.1//EN" "http://www.w3.org/Graphics/SVG/1.1/DTD/svg11.dtd">
<svg width="100%" height="100%" viewBox="0 0 453 507" version="1.1" xmlns="http://www.w3.org/2000/svg" xmlns:xlink="http://www.w3.org/1999/xlink" xml:space="preserve" xmlns:serif="http://www.serif.com/" style="fill-rule:evenodd;clip-rule:evenodd;stroke-linejoin:round;stroke-miterlimit:2;">
    <g id="Artboard1" transform="matrix(1,0,0,1,152.442,68.2558)">
        <rect x="-152.442" y="-68.256" width="452.035" height="506.228" style="fill:none;"/>
        <g transform="matrix(1,0,0,1,-456.221,-5117.37)">
            <g id="truck-inbound">
                <g>
                    <g>
                        <g transform="matrix(1,0,0,1,513.875,5171.69)">
                            <path d="M0,-0.137L-6.192,-0.137L-6.701,0.134L0.509,0.134L1.02,-0.003L0.511,-0.271L0,-0.137Z" style="fill:rgb(22,22,22);fill-rule:nonzero;"/>
                        </g>
                        <g transform="matrix(1,0,0,1,507.683,5167.05)">
                            <path d="M0,0.137L6.192,0.137L6.703,0.271L7.212,0L6.701,-0.134L-0.509,-0.134L-1.02,0L-0.511,0.271L0,0.137Z" style="fill:rgb(22,22,22);fill-rule:nonzero;"/>
                        </g>
                        <g transform="matrix(1,0,0,1,548.62,5167.05)">
                            <path d="M0,0.137L6.192,0.137L6.703,0.271L7.211,0L6.701,-0.134L-0.509,-0.134L-1.02,0L-0.511,0.271L0,0.137Z" style="fill:rgb(22,22,22);fill-rule:nonzero;"/>
                        </g>
                        <g transform="matrix(-0.882689,0.469958,0.469958,0.882689,554.513,5170.35)">
                            <path d="M5.765,-1.71L6.342,-1.71L-0.022,1.678L0.3,1.2L5.765,-1.71Z" style="fill:rgb(22,22,22);fill-rule:nonzero;"/>
                        </g>
                        <g transform="matrix(1,0,0,1,411.884,5410.84)">
                            <path d="M0,0.324L-0.096,0L-0.491,0.13L-0.897,0.268L-0.491,0.292L0,0.324Z" style="fill:rgb(90,80,70);fill-rule:nonzero;"/>
                        </g>
                        <g transform="matrix(1,0,0,1,651.508,5410.9)">
                            <path d="M0,0.212L-0.406,0.075L-0.801,-0.056L-0.897,0.268L-0.406,0.237L0,0.212Z" style="fill:rgb(90,80,70);fill-rule:nonzero;"/>
                        </g>
                        <g transform="matrix(1,0,0,1,589.532,5350.44)">
                            <rect x="-10.121" y="-0.261" width="10.121" height="0.261" style="fill:rgb(90,80,70);fill-rule:nonzero;"/>
                        </g>
                        <g transform="matrix(1,0,0,1,579.411,5350.44)">
                            <rect x="-5.305" y="-0.261" width="5.305" height="0.261" style="fill:rgb(90,80,70);fill-rule:nonzero;"/>
                        </g>
                        <g transform="matrix(1,0,0,1,564.334,5350.44)">
                            <path d="M0,-0.261L-14.303,-0.261L-14.337,0L-0.034,0L-0.003,-0.236L0,-0.261Z" style="fill:rgb(90,80,70);fill-rule:nonzero;"/>
                        </g>
                        <g transform="matrix(1,0,0,1,565.656,5350.44)">
                            <rect x="-0.305" y="-0.261" width="0.305" height="0.261" style="fill:rgb(90,80,70);fill-rule:nonzero;"/>
                        </g>
                        <g transform="matrix(1,0,0,1,565.351,5350.44)">
                            <path d="M0,-0.261L-1.017,-0.261L-1.02,-0.236L-1.051,0L0,0L0,-0.261Z" style="fill:rgb(90,80,70);fill-rule:nonzero;"/>
                        </g>
                        <g transform="matrix(1,0,0,1,541.781,5350.44)">
                            <path d="M0.198,-0.261L-21.264,-0.261L-21.299,0L0.233,0L0.198,-0.261Z" style="fill:rgb(90,80,70);fill-rule:nonzero;"/>
                        </g>
                        <g transform="matrix(0,1,1,0,497.625,5349.64)">
                            <rect x="0.57" y="-0.786" width="0.226" height="1.356" style="fill:rgb(90,80,70);"/>
                        </g>
                        <g transform="matrix(1,0,0,1,512.265,5350.44)">
                            <path d="M0.199,-0.261L-10.926,-0.261L-14.101,-0.236L-14.07,0L0.233,0L0.199,-0.261Z" style="fill:rgb(90,80,70);fill-rule:nonzero;"/>
                        </g>
                        <g transform="matrix(1,0,0,1,488.389,5350.44)">
                            <rect x="-15.426" y="-0.261" width="15.426" height="0.261" style="fill:rgb(90,80,70);fill-rule:nonzero;"/>
                        </g>
                        <g transform="matrix(1,0,0,1,654.966,5450.74)">
                            <rect x="-2.401" y="0" width="3.522" height="0.18" style="fill:rgb(142,142,142);fill-rule:nonzero;"/>
                        </g>
                        <g transform="matrix(1,0,0,1,656.087,5494.13)">
                            <path d="M0,56.323L0,-7.635L-1.632,-4.931L-3.521,-3.493L-3.521,-3.458L-3.567,-3.458L-4.036,-3.098L-36.401,-3.098L-36.401,56.323L-34.405,58.318L-33.642,59.083L-32.878,59.844L-3.521,59.844L0,56.323Z" style="fill:rgb(142,142,142);fill-rule:nonzero;"/>
                        </g>
                        <g transform="matrix(1,0,0,1,660.648,5553.97)">
                            <path d="M0,-45.737L0,-45.451L-2.376,-44.704L-4.36,-41.317L-4.561,-40.975L-4.561,-3.522L-8.083,0L1.664,0L5.185,-3.522L5.185,-45.737L0,-45.737Z" style="fill:rgb(142,142,142);fill-rule:nonzero;"/>
                        </g>
                        <g transform="matrix(1,0,0,1,407.529,5450.74)">
                            <rect x="-1.122" y="0" width="3.523" height="0.18" style="fill:rgb(142,142,142);fill-rule:nonzero;"/>
                        </g>
                        <g transform="matrix(1,0,0,1,442.809,5490.01)">
                            <path d="M0,60.437L0,1.016L-32.364,1.016L-32.834,0.657L-32.88,0.657L-32.88,0.621L-34.768,-0.817L-36.402,-3.521L-36.402,60.437L-32.88,63.958L-3.523,63.958L-2.759,63.197L-1.996,62.432L0,60.437Z" style="fill:rgb(142,142,142);fill-rule:nonzero;"/>
                        </g>
                        <g transform="matrix(1,0,0,1,406.407,5515.87)">
                            <path d="M0,34.581L0,-2.873L-0.199,-3.214L-2.184,-6.602L-4.56,-7.349L-4.56,-7.635L-9.747,-7.635L-9.747,34.581L-6.224,38.102L3.522,38.102L0,34.581Z" style="fill:rgb(142,142,142);fill-rule:nonzero;"/>
                        </g>
                        <g transform="matrix(1,0,0,1,505.488,5264.47)">
                            <path d="M0,81.501L51.518,81.501L55.958,81.505L84.84,81.501L89.437,81.466L110.168,82.051L113.277,82.1L128.875,82.58L131.258,82.506L137.213,82.104L136.315,73.09L134.748,57.126L132.225,41.136L130.176,28.126L130.067,27.498L126.073,7.324L125.048,2.094L123.842,1.554L122.556,0.969L111.021,0.186L108.883,-0.011L94.043,-0.748L91.334,-0.942L64.869,-0.977L60.569,-1.047L56.09,-1.069L25.759,-1.079L-4.572,-1.069L-9.051,-1.047L-13.351,-0.977L-39.816,-0.942L-42.525,-0.748L-57.365,-0.011L-59.503,0.186L-71.038,0.969L-72.325,1.554L-73.53,2.094L-74.555,7.324L-78.549,27.498L-78.658,28.126L-80.707,41.136L-83.23,57.126L-84.797,73.09L-85.695,82.104L-79.739,82.506L-77.357,82.58L-61.758,82.1L-58.65,82.051L-37.919,81.466L-33.322,81.501L-4.44,81.505L0,81.501Z" style="fill:rgb(214,238,246);fill-rule:nonzero;"/>
                        </g>
                        <g transform="matrix(1,0,0,1,649.933,5282.62)">
                            <path d="M0,44.405L-1.307,28.43L-4.535,10.036L-7.763,-8.354L-9.04,-15.629L-9.13,-16.144L-9.349,-17.392L-9.491,-18.203L-9.568,-18.636L-9.658,-19.154L-9.946,-20.793L-10.325,-22.951L-10.611,-24.583L-12.607,-27.209L-15.625,-29.606L-22.789,-30.72L-53.398,-31.749L-86.063,-32.211L-151.309,-32.211L-183.974,-31.749L-214.582,-30.72L-221.747,-29.606L-224.765,-27.209L-226.76,-24.583L-227.047,-22.951L-227.426,-20.793L-227.713,-19.154L-227.804,-18.636L-227.88,-18.203L-228.023,-17.392L-228.242,-16.144L-228.332,-15.629L-229.609,-8.354L-232.836,10.036L-236.064,28.43L-237.372,44.405L-238.494,58.128L-238.871,62.732L-238.871,62.731L-238.871,62.732L-239.651,72.252L-239.657,72.337L-239.725,72.771L-239.921,74.015L-240.117,75.263L-240.199,75.778L-240.331,76.616L-238.249,73.666L-233.119,71.163L-224.94,70.201L-207.159,69.006L-183.596,67.814L-182.137,67.554L-206.255,68.234L-224.443,68.798L-234.554,68.118L-231.716,39.202L-227.162,10.287L-221.492,-18.633L-214.825,-21.622L-201.444,-22.284L-184.25,-23.134L-153.675,-23.18L-118.686,-23.187L-83.697,-23.18L-53.122,-23.134L-35.928,-22.284L-22.547,-21.622L-15.88,-18.633L-10.209,10.287L-5.656,39.202L-2.818,68.118L-12.929,68.798L-31.117,68.234L-55.235,67.554L-53.776,67.814L-30.213,69.006L-12.432,70.201L-4.253,71.163L0.877,73.666L2.96,76.616L2.826,75.778L2.745,75.263L2.551,74.015L2.353,72.771L2.286,72.337L2.279,72.252L1.123,58.128L0,44.405Z" style="fill:rgb(130,195,65);fill-rule:nonzero;"/>
                        </g>
                        <g transform="matrix(1,0,0,1,653.855,5378.96)">
                            <path d="M0,-0.359L0,0.152L0.448,0.138L0.694,0.131L0.208,-0.334L0.021,-0.511L0,-0.359Z" style="fill:rgb(130,195,65);fill-rule:nonzero;"/>
                        </g>
                        <g transform="matrix(1,0,0,1,400.164,5409.16)">
                            <path d="M0,14.048L0.093,8.077L0.743,6.085L1.18,5.179L3.218,2.44L6.039,0.65L10.842,-0.327L16.93,0.322L27.002,2.056L29.587,2.768L36.368,5.02L39.975,7.541L43.067,11.739L44.756,15.014L45.887,17.901L46.008,21.535L44.376,23.668L41.614,25.057L33.961,25.501L26.872,25.307L15.977,24.655L6.844,23.594L2.044,21.623L0.978,20.104L-0.095,15.677L0,14.048ZM-6.758,36.322L52.78,36.322L52.78,14.337L50.57,5.976L47.186,-0.729L43.138,-5.907L38.664,-10.447L34.706,-13.771L30.359,-17.413L25.208,-20.663L20.674,-22.274L12.718,-22.274L9.304,-21.685L8.475,-21.378L8.269,-21.301L7.675,-21.082L7.617,-21.061L7.145,-20.885L6.839,-20.772L5.4,-20.24L2.533,-18.749L1.379,-18.149L-0.569,-16.542L-2.329,-14.73L-4.164,-12.844L-5.578,-10.641L-6.719,-8.868L-8.464,-6.15L-8.387,-4.243L-8.162,1.365L-7.801,10.364L-7.324,22.24L-6.93,32.04L-6.758,36.322Z" style="fill:rgb(130,195,65);fill-rule:nonzero;"/>
                        </g>
                        <g transform="matrix(1,0,0,1,598.918,5370.78)">
                            <path d="M0,54.362L-1.603,68.018L-3.114,70.524L-5.866,71.508L-129.476,71.508L-132.227,70.524L-133.738,68.018L-135.341,54.362L-136.139,40.696L-136.13,27.022L-135.589,24.245L-134.046,21.872L-131.726,20.258L-128.971,19.634L-123.201,19.465L-117.417,19.292L-99.304,18.746L-97.314,20.853L-93.864,22.158L-88.953,22.665L-46.388,22.665L-41.478,22.158L-38.027,20.853L-36.037,18.746L-17.925,19.292L-12.14,19.465L-6.371,19.634L-3.615,20.258L-1.296,21.872L0.248,24.245L0.789,27.022L0.797,40.696L0,54.362ZM54.937,17.004L54.937,4.177L53.975,-7.593L53.975,-11.541L51.893,-14.492L46.762,-16.994L38.583,-17.957L20.802,-19.152L-2.761,-20.343L-132.581,-20.343L-156.144,-19.152L-173.925,-17.957L-182.104,-16.994L-187.234,-14.492L-189.315,-11.541L-189.315,-7.593L-190.279,4.177L-190.279,17.004L-189.45,16.697L-186.036,16.109L-178.081,16.109L-173.547,17.72L-168.396,20.97L-164.049,24.611L-160.09,27.935L-155.616,32.475L-151.568,37.654L-148.185,44.358L-145.974,52.719L-145.974,74.705L10.633,74.705L10.633,52.719L12.843,44.358L16.227,37.654L20.275,32.475L24.749,27.935L28.707,24.611L33.054,20.97L38.205,17.72L42.739,16.109L50.695,16.109L54.109,16.697L54.937,17.004Z" style="fill:rgb(130,195,65);fill-rule:nonzero;"/>
                        </g>
                        <g transform="matrix(1,0,0,1,661.353,5403.11)">
                            <path d="M0,26.158L-1.065,27.677L-5.866,29.648L-14.999,30.709L-25.894,31.361L-32.983,31.555L-40.636,31.111L-43.398,29.722L-45.03,27.589L-44.909,23.955L-43.778,21.068L-42.089,17.793L-38.997,13.595L-35.39,11.075L-28.609,8.822L-26.024,8.11L-15.952,6.376L-9.863,5.727L-5.062,6.704L-2.238,8.494L-0.201,11.233L0.236,12.139L0.885,14.131L0.976,20.102L1.072,21.731L0,26.158ZM5.143,-6.79L3.306,-8.676L1.547,-10.488L-0.402,-12.095L-8.326,-15.631L-11.74,-16.219L-19.696,-16.219L-24.229,-14.609L-29.381,-11.359L-33.728,-7.717L-37.686,-4.393L-42.16,0.147L-46.208,5.325L-49.591,12.03L-51.802,20.391L-51.802,42.377L7.737,42.377L7.907,38.094L8.301,28.294L8.777,16.418L9.14,7.419L9.366,1.811L9.443,-0.096L7.699,-2.814L6.556,-4.587L5.143,-6.79Z" style="fill:rgb(130,195,65);fill-rule:nonzero;"/>
                        </g>
                        <g transform="matrix(1,0,0,1,654.656,5383.54)">
                            <path d="M0,4.537L0.06,4.558L-0.067,0.226L-0.074,-0.021L-0.12,0.314L0,4.537Z" style="fill:rgb(130,195,65);fill-rule:nonzero;"/>
                        </g>
                        <g transform="matrix(1,0,0,1,395.072,5165.92)">
                            <path d="M0,5.908L7.325,5.908L7.325,0L0,0L-0.486,0.307L-0.891,0.564L-0.891,5.34L-0.486,5.598L0,5.908Z" style="fill:rgb(250,192,41);fill-rule:nonzero;"/>
                        </g>
                        <g transform="matrix(1,0,0,1,667.423,5165.92)">
                            <path d="M0,5.908L0.486,5.598L0.892,5.34L0.892,0.564L0.486,0.307L0,0L-7.325,0L-7.325,5.908L0,5.908Z" style="fill:rgb(250,192,41);fill-rule:nonzero;"/>
                        </g>
                        <g transform="matrix(1,0,0,1,506.663,5167.19)">
                            <path d="M0,4.501L0.511,4.639L1.02,4.367L7.212,4.367L7.723,4.233L8.232,4.501L8.605,4.135L8.742,3.63L8.742,0.733L8.605,0.232L8.232,-0.138L7.723,0.134L7.212,0L1.02,0L0.509,0.134L0,-0.138L-0.374,0.232L-0.51,0.733L-0.51,3.63L-0.374,4.135L0,4.501Z" style="fill:rgb(250,192,41);fill-rule:nonzero;"/>
                        </g>
                        <g transform="matrix(1,0,0,1,547.601,5167.19)">
                            <path d="M0,4.501L0.511,4.639L1.02,4.367L7.212,4.367L7.721,4.639L8.231,4.501L8.605,4.135L8.742,3.63L8.742,0.733L8.605,0.232L8.231,-0.138L7.723,0.134L7.212,0L1.02,0L0.509,0.134L0,-0.138L-0.374,0.232L-0.511,0.733L-0.511,3.63L-0.374,4.135L0,4.501Z" style="fill:rgb(250,192,41);fill-rule:nonzero;"/>
                        </g>
                        <g transform="matrix(1,0,0,1,658.272,5493.09)">
                            <path d="M0,16.177L0,-10.215L-0.543,-9.312L-2.185,-6.598L-2.185,19.906L-1.985,19.565L0,16.177Z" style="fill:rgb(244,244,244);fill-rule:nonzero;"/>
                        </g>
                        <g transform="matrix(1,0,0,1,658.935,5504.78)">
                            <path d="M0,-23.001L-0.663,-21.905L-0.663,4.487L1.713,3.74L1.713,-27.488L1.149,-26.015L0,-23.001Z" style="fill:rgb(244,244,244);fill-rule:nonzero;"/>
                        </g>
                        <g transform="matrix(1,0,0,1,404.223,5512.99)">
                            <path d="M0,-30.121L0,-3.729L1.985,-0.342L2.184,0L2.184,-26.504L0.544,-29.218L0,-30.121Z" style="fill:rgb(244,244,244);fill-rule:nonzero;"/>
                        </g>
                        <g transform="matrix(1,0,0,1,404.223,5483.78)">
                            <path d="M0,25.489L0,-0.903L-0.662,-1.999L-1.813,-5.013L-2.376,-6.486L-2.376,24.742L0,25.489Z" style="fill:rgb(244,244,244);fill-rule:nonzero;"/>
                        </g>
                        <g transform="matrix(1,0,0,1,402.639,5415.77)">
                            <path d="M0,11.604L0.774,12.658L1.495,12.961L13.366,15.383L20.064,15.837L31.367,16.264L38.63,15.869L39.565,15.4L40.405,14.939L41.121,14.001L41.051,11.886L39.487,8.643L36.596,4.06L35.778,2.954L33.737,1.491L32.368,0.529L28.26,-0.836L23.471,-2.189L10.782,-4.361L9.245,-4.604L8.754,-4.636L8.349,-4.66L3.054,-3.814L1.295,-2.7L0.895,-2.161L-0.116,-0.353L-0.224,0.081L-0.479,0.898L-1,7.892L-0.946,8.065L0,11.604Z" style="fill:white;fill-rule:nonzero;"/>
                        </g>
                        <g transform="matrix(1,0,0,1,660.081,5427.29)">
                            <path d="M0,-11.442L-0.109,-11.876L-1.121,-13.684L-1.519,-14.223L-3.278,-15.337L-8.573,-16.183L-8.979,-16.159L-9.47,-16.127L-11.007,-15.884L-23.695,-13.712L-28.484,-12.359L-32.592,-10.994L-33.962,-10.032L-36.003,-8.569L-36.82,-7.463L-39.711,-2.88L-41.275,0.363L-41.346,2.478L-40.629,3.416L-39.789,3.878L-38.854,4.346L-31.591,4.741L-20.288,4.315L-13.591,3.86L-1.72,1.438L-0.998,1.135L-0.226,0.081L0.723,-3.458L0.776,-3.631L0.254,-10.624L0,-11.442Z" style="fill:white;fill-rule:nonzero;"/>
                        </g>
                        <g transform="matrix(1,0,0,1,402.697,5354.87)">
                            <path d="M5.736,-87.882L-6.967,-87.882L-6.967,-80.617L-1.148,-80.617L0,-80.381L2.171,-79.93L4.601,-78.061L5.49,-75.506L5.49,-36.146L4.601,-33.59L2.171,-31.722L0,-31.274L-1.148,-31.038L-6.967,-31.038L-6.967,-27.795L-2.588,-27.795L0,-27.263L0.1,-27.242L2.068,-25.726L2.788,-23.657L2.788,-3.159L2.068,-1.09L0.652,0L5.736,0L5.736,-87.882Z" style="fill:rgb(221,221,221);fill-rule:nonzero;"/>
                        </g>
                        <g transform="matrix(0,1,1,0,427.335,5298.91)">
                            <path d="M-19.148,-19.431L19.431,-19.431L19.822,-19.148L-19.539,-19.148L-19.148,-19.431Z" style="fill:rgb(221,221,221);fill-rule:nonzero;"/>
                        </g>
                        <g transform="matrix(0,1,1,0,415.303,5341.35)">
                            <path d="M-9.818,-10.047L10.047,-10.047L10.364,-9.818L-10.135,-9.818L-9.818,-10.047Z" style="fill:rgb(221,221,221);fill-rule:nonzero;"/>
                        </g>
                        <g transform="matrix(1,0,0,1,411.062,5276.51)">
                            <path d="M0,68.847L0,68.844L0.377,64.24L1.5,50.517L2.807,34.542L6.035,16.148L9.263,-2.242L10.539,-9.517L-2.629,-9.517L-2.629,78.364L-0.779,78.364L0,68.844L0,68.847Z" style="fill:rgb(242,242,241);fill-rule:nonzero;"/>
                        </g>
                        <g transform="matrix(1,0,0,1,653.855,5388.37)">
                            <path d="M0,-9.26L0,-5.516L0.726,-4.847L0.733,-4.6L0.86,-0.268L1.332,-0.092L1.636,0.021L1.484,-5.971L0.694,-9.281L0.448,-9.274L0,-9.26Z" style="fill:rgb(221,221,221);fill-rule:nonzero;"/>
                        </g>
                        <g transform="matrix(1,0,0,1,652.893,5373.84)">
                            <path d="M0,-10.649L0.962,1.121L0.962,4.597L0.983,4.611L1.17,4.787L1.17,-15.436L-0.134,-15.436L0,-14.597L0,-10.649Z" style="fill:rgb(221,221,221);fill-rule:nonzero;"/>
                        </g>
                        <g transform="matrix(0,1,1,0,656.268,5385.45)">
                            <path d="M-2.205,-2.413L2.335,-2.413L2.413,-2.205L-2.018,-2.205L-2.205,-2.413Z" style="fill:rgb(221,221,221);fill-rule:nonzero;"/>
                        </g>
                        <g transform="matrix(0,1,1,0,656.684,5385.46)">
                            <path d="M-2.029,-2.621L2.403,-2.621L2.621,-2.028L-1.602,-2.149L-2.029,-2.621Z" style="fill:rgb(221,221,221);fill-rule:nonzero;"/>
                        </g>
                        <g transform="matrix(1,0,0,1,654.063,5383.28)">
                            <path d="M0,0.151L0.472,0.578L0.518,0.243L-0.208,-0.427L-0.208,-0.036L0,0.151Z" style="fill:rgb(221,221,221);fill-rule:nonzero;"/>
                        </g>
                        <g transform="matrix(1,0,0,1,668.195,5399.85)">
                            <path d="M0,-43.544L-0.286,-43.424L-3.536,-42.078L-5.062,-41.447L-14.132,-41.447L-14.132,-21.224L-13.645,-20.758L-12.856,-17.449L-12.704,-11.456L-11.262,-10.924L-8.397,-9.433L-7.244,-8.833L-5.295,-7.226L-3.536,-5.414L-1.699,-3.528L-0.286,-1.325L0.857,0.448L0.857,-43.992L0.183,-43.992L0,-43.544Z" style="fill:rgb(221,221,221);fill-rule:nonzero;"/>
                        </g>
                        <g transform="matrix(1,0,0,1,581.531,5480.99)">
                            <path d="M0,-13.229L-0.864,-13.811L-1.891,-14.019L-98.675,-14.019L-99.702,-13.811L-100.566,-13.229L-101.133,-12.355L-101.314,-11.329L-101.062,-1.519L-100.863,-0.634L-100.341,0.116L-99.573,0.614L-98.675,0.79L-1.891,0.79L-0.993,0.614L-0.226,0.116L0.297,-0.634L0.496,-1.519L0.747,-11.329L0.567,-12.355L0,-13.229Z" style="fill:rgb(221,221,221);fill-rule:nonzero;"/>
                        </g>
                        <g transform="matrix(0,-1,-1,0,667.057,5341.35)">
                            <path d="M-10.047,9.818L9.818,9.818L10.135,10.047L-10.364,10.047L-10.047,9.818Z" style="fill:rgb(221,221,221);fill-rule:nonzero;"/>
                        </g>
                        <g transform="matrix(1,0,0,1,664.659,5354.87)">
                            <path d="M2.104,-87.882L-10.596,-87.882L-10.596,0L-5.513,0L-6.93,-1.09L-7.649,-3.159L-7.649,-23.657L-6.93,-25.726L-4.963,-27.242L-4.861,-27.263L-2.274,-27.795L2.104,-27.795L2.104,-31.038L-3.715,-31.038L-4.861,-31.274L-7.032,-31.722L-9.461,-33.59L-10.353,-36.146L-10.353,-75.506L-9.461,-78.061L-7.032,-79.93L-4.861,-80.381L-3.715,-80.617L2.104,-80.617L2.104,-87.882Z" style="fill:rgb(221,221,221);fill-rule:nonzero;"/>
                        </g>
                        <g transform="matrix(1,0,0,1,640.894,5354.87)">
                            <path d="M0,-87.882L1.277,-80.607L4.505,-62.216L7.732,-43.823L9.04,-27.848L10.163,-14.125L11.319,0L13.17,0L13.17,-87.882L0,-87.882Z" style="fill:rgb(242,242,241);fill-rule:nonzero;"/>
                        </g>
                        <g transform="matrix(1,0,0,1,660.803,5419.66)">
                            <path d="M0,4.17L-0.948,7.709L-1.72,8.763L-2.443,9.066L-14.313,11.488L-21.01,11.942L-32.314,12.369L-39.577,11.974L-40.512,11.505L-41.351,11.044L-42.068,10.106L-41.998,7.991L-40.433,4.748L-37.543,0.165L-36.725,-0.941L-34.684,-2.404L-33.314,-3.366L-29.207,-4.731L-24.417,-6.084L-11.729,-8.256L-10.192,-8.499L-10.096,-8.823L-9.701,-8.693L-9.295,-8.555L-4.001,-7.709L-2.242,-6.595L-1.844,-6.056L-0.832,-4.248L-0.723,-3.814L-0.469,-2.997L0.053,3.997L0,4.17ZM1.435,-2.425L0.786,-4.417L0.349,-5.323L-1.688,-8.062L-4.512,-9.852L-9.313,-10.829L-15.402,-10.18L-25.474,-8.446L-28.059,-7.734L-34.84,-5.482L-38.447,-2.961L-41.539,1.237L-43.228,4.512L-44.359,7.399L-44.48,11.033L-42.848,13.166L-40.086,14.555L-32.433,14.999L-25.344,14.805L-14.449,14.153L-5.316,13.092L-0.515,11.121L0.55,9.602L1.622,5.175L1.526,3.546L1.435,-2.425Z" style="fill:rgb(221,221,221);fill-rule:nonzero;"/>
                        </g>
                        <g transform="matrix(1,0,0,1,402.16,5426.83)">
                            <path d="M0,-10.162L0.255,-10.98L0.363,-11.413L1.374,-13.222L1.774,-13.761L3.533,-14.875L8.828,-15.721L9.233,-15.858L9.629,-15.989L9.724,-15.664L11.261,-15.421L23.95,-13.25L28.739,-11.896L32.847,-10.532L34.216,-9.57L36.258,-8.107L37.075,-7L39.966,-2.418L41.53,0.826L41.6,2.941L40.884,3.878L40.044,4.34L39.109,4.809L31.846,5.203L20.543,4.777L13.846,4.322L1.974,1.901L1.253,1.598L0.479,0.544L-0.467,-2.995L-0.521,-3.168L0,-10.162ZM0.048,3.956L4.849,5.926L13.981,6.987L24.876,7.639L31.965,7.833L39.618,7.389L42.38,6L44.012,3.868L43.892,0.233L42.76,-2.654L41.071,-5.928L37.979,-10.127L34.373,-12.647L27.592,-14.9L25.006,-15.611L14.934,-17.346L8.846,-17.995L4.043,-17.018L1.222,-15.227L-0.815,-12.488L-1.252,-11.582L-1.903,-9.591L-1.996,-3.62L-2.091,-1.991L-1.018,2.436L0.048,3.956Z" style="fill:rgb(221,221,221);fill-rule:nonzero;"/>
                        </g>
                        <g transform="matrix(1,0,0,1,552.53,5440.28)">
                            <path d="M42.642,-1.808L-85.207,-1.808L-84.494,-0.624L-82.742,0L40.176,0L41.928,-0.624L42.642,-1.808Z" style="fill:rgb(221,221,221);fill-rule:nonzero;"/>
                        </g>
                        <g transform="matrix(1,0,0,1,552.53,5433.86)">
                            <path d="M43.54,-1.65L-86.106,-1.65L-85.912,0L43.346,0L43.54,-1.65Z" style="fill:rgb(221,221,221);fill-rule:nonzero;"/>
                        </g>
                        <g transform="matrix(1,0,0,1,509.965,5407.18)">
                            <path d="M-45.18,1.653L87.745,1.653L87.744,0L-45.179,0L-45.18,1.653Z" style="fill:rgb(221,221,221);fill-rule:nonzero;"/>
                        </g>
                        <g transform="matrix(1,0,0,1,552.53,5427.61)">
                            <path d="M44.275,-1.653L-86.84,-1.653L-86.647,0L44.081,0L44.275,-1.653Z" style="fill:rgb(221,221,221);fill-rule:nonzero;"/>
                        </g>
                        <g transform="matrix(1,0,0,1,597.594,5418.38)">
                            <path d="M0,-4.942L-0.097,-3.289L-0.164,-2.14L-0.365,1.318L-0.462,2.968L-0.529,4.117L-0.673,6.588L-0.789,7.575L-0.983,9.229L-1.117,10.378L-1.523,13.836L-1.717,15.485L-1.852,16.635L-2.218,19.754L-2.422,20.093L-3.135,21.277L-4.888,21.901L-127.805,21.901L-129.558,21.277L-130.271,20.093L-130.474,19.754L-130.841,16.635L-130.975,15.485L-131.169,13.836L-131.575,10.378L-131.71,9.229L-131.904,7.575L-132.02,6.588L-132.164,4.117L-132.231,2.968L-132.327,1.318L-132.529,-2.14L-132.596,-3.289L-132.693,-4.942L-132.81,-6.958L-132.809,-8.396L-132.809,-9.546L-132.808,-11.199L-132.805,-14.657L-132.805,-15.806L-132.804,-17.456L-132.802,-20.378L-132.698,-20.914L-132.474,-22.063L-132.373,-22.585L-131.257,-24.298L-129.579,-25.468L-127.394,-25.962L-116.092,-26.296L-100.786,-26.758L-97.132,-25.031L-93.006,-23.466L-87.629,-22.923L-45.064,-22.923L-39.687,-23.466L-35.56,-25.031L-31.907,-26.758L-16.6,-26.296L-5.299,-25.962L-3.114,-25.468L-1.436,-24.298L-0.32,-22.585L-0.219,-22.063L0.005,-20.914L0.109,-20.378L0.111,-17.456L0.112,-15.806L0.113,-14.657L0.115,-11.199L0.116,-9.546L0.117,-8.396L0.117,-6.958L0,-4.942ZM1.572,-23.353L0.029,-25.725L-2.291,-27.34L-5.046,-27.964L-10.816,-28.133L-16.6,-28.306L-34.713,-28.852L-36.703,-26.744L-40.153,-25.44L-45.064,-24.932L-87.629,-24.932L-92.539,-25.44L-95.99,-26.744L-97.98,-28.852L-116.092,-28.306L-121.877,-28.133L-127.647,-27.964L-130.402,-27.34L-132.721,-25.725L-134.265,-23.353L-134.806,-20.575L-134.814,-6.902L-134.017,6.765L-132.414,20.421L-130.903,22.927L-128.152,23.91L-4.541,23.91L-1.79,22.927L-0.279,20.421L1.324,6.765L2.122,-6.902L2.113,-20.575L1.572,-23.353Z" style="fill:rgb(221,221,221);fill-rule:nonzero;"/>
                        </g>
                        <g transform="matrix(1,0,0,1,509.965,5400.92)">
                            <path d="M-45.176,1.65L87.741,1.65L87.74,0L-45.175,0L-45.176,1.65Z" style="fill:rgb(221,221,221);fill-rule:nonzero;"/>
                        </g>
                        <g transform="matrix(1,0,0,1,552.53,5415.09)">
                            <path d="M45.064,-1.653L-87.629,-1.653L-87.532,0L44.967,0L45.064,-1.653Z" style="fill:rgb(221,221,221);fill-rule:nonzero;"/>
                        </g>
                        <g transform="matrix(1,0,0,1,509.965,5391.62)">
                            <path d="M-44.845,4.695L87.41,4.695L87.309,4.173L86.193,2.46L84.515,1.29L82.33,0.796L71.029,0.461L55.722,0L52.069,1.727L47.942,3.292L42.565,3.835L0,3.835L-5.377,3.292L-9.503,1.727L-13.157,0L-28.463,0.461L-39.765,0.796L-41.95,1.29L-43.628,2.46L-44.744,4.173L-44.845,4.695Z" style="fill:rgb(221,221,221);fill-rule:nonzero;"/>
                        </g>
                        <g transform="matrix(1,0,0,1,552.53,5421.35)">
                            <path d="M44.698,-1.65L-87.264,-1.65L-87.168,0L44.602,0L44.698,-1.65Z" style="fill:rgb(221,221,221);fill-rule:nonzero;"/>
                        </g>
                        <g transform="matrix(1,0,0,1,396,5359.83)">
                            <path d="M0,36.487L1.835,34.601L3.594,32.789L5.543,31.182L6.697,30.583L9.564,29.092L11.003,28.559L11.157,22.567L11.947,19.257L12.433,18.792L12.433,-1.431L3.363,-1.431L1.835,-2.062L-1.414,-3.409L-1.699,-3.529L-1.885,-3.976L-2.555,-3.976L-2.555,40.463L-1.414,38.69L0,36.487Z" style="fill:rgb(221,221,221);fill-rule:nonzero;"/>
                        </g>
                        <g transform="matrix(1,0,0,1,408.639,5358.59)">
                            <path d="M0,19.842L0,16.366L0.963,4.596L0.963,0.648L1.095,-0.19L-0.206,-0.19L-0.206,20.032L-0.021,19.856L0,19.842Z" style="fill:rgb(221,221,221);fill-rule:nonzero;"/>
                        </g>
                        <g transform="matrix(1,0,0,1,408.639,5384.63)">
                            <path d="M0,-1.773L0,-5.517L-0.448,-5.531L-0.692,-5.538L-1.483,-2.228L-1.636,3.765L-1.331,3.652L-0.858,3.476L-0.725,-1.103L0,-1.773Z" style="fill:rgb(221,221,221);fill-rule:nonzero;"/>
                        </g>
                        <g transform="matrix(1,0,0,1,408.433,5387.52)">
                            <path d="M0,-4.092L0.206,-4.279L0.206,-4.67L-0.519,-4L-0.652,0.578L-0.595,0.557L-0.472,-3.665L0,-4.092Z" style="fill:rgb(221,221,221);fill-rule:nonzero;"/>
                        </g>
                        <g transform="matrix(-0.0288774,0.999583,0.999583,0.0288774,410.038,5385.63)">
                            <path d="M-1.717,-2.128L2.508,-2.128L2.272,-1.54L-2.158,-1.668L-1.717,-2.128Z" style="fill:rgb(221,221,221);fill-rule:nonzero;"/>
                        </g>
                        <g transform="matrix(0,1,1,0,410.658,5385.45)">
                            <path d="M-2.019,-2.225L2.412,-2.225L2.334,-2.019L-2.206,-2.019L-2.019,-2.225Z" style="fill:rgb(221,221,221);fill-rule:nonzero;"/>
                        </g>
                        <g transform="matrix(1,0,0,1,394.586,5174.77)">
                            <path d="M-0.619,88.699L13.847,88.699L13.847,-0.219L-1.141,-0.219L-1.141,88.918L-0.619,88.699Z" style="fill:rgb(221,221,221);fill-rule:nonzero;"/>
                        </g>
                        <g transform="matrix(1,0,0,1,394.181,5139.94)">
                            <path d="M0,26.539L0.405,26.282L0.891,25.975L8.216,25.975L8.216,31.883L0.891,31.883L0.405,31.573L0,31.315L0,26.539ZM111.971,27.977L112.108,27.477L112.482,27.107L112.992,26.973L120.203,26.973L120.713,27.107L121.087,27.477L121.224,27.977L121.224,30.875L121.087,31.379L120.713,31.745L120.203,31.883L112.992,31.883L112.482,31.745L112.108,31.379L111.971,30.875L111.971,27.977ZM152.908,27.977L153.046,27.477L153.419,27.107L153.93,26.973L161.14,26.973L161.65,27.107L162.024,27.477L162.161,27.977L162.161,30.875L162.024,31.379L161.65,31.745L161.14,31.883L153.93,31.883L153.419,31.745L153.046,31.379L152.908,30.875L152.908,27.977ZM265.917,25.975L273.242,25.975L273.728,26.282L274.134,26.539L274.134,31.315L273.728,31.573L273.242,31.883L265.917,31.883L265.917,25.975ZM-0.736,34.608L274.87,34.608L274.87,5.604L274.99,2.918L275.212,-1.432L275.226,-5.116L275.156,-5.778L274.87,-8.069L-0.736,-8.069L-1.025,-5.778L-1.095,-5.116L-1.08,-1.432L-0.857,2.918L-0.736,5.604L-0.736,34.608Z" style="fill:rgb(221,221,221);fill-rule:nonzero;"/>
                        </g>
                        <g transform="matrix(1,0,0,1,664.659,5263.69)">
                            <path d="M4.392,-89.136L-10.596,-89.136L-10.596,-0.218L3.867,-0.218L4.392,0L4.392,-89.136Z" style="fill:rgb(221,221,221);fill-rule:nonzero;"/>
                        </g>
                        <g transform="matrix(1,0,0,1,422.508,5176.19)">
                            <path d="M0,85.64L0.378,83.483L0.665,81.851L2.661,79.224L5.678,76.827L12.843,75.714L43.452,74.684L76.116,74.223L141.363,74.223L174.028,74.684L204.636,75.714L211.801,76.827L214.819,79.224L216.814,81.851L217.101,83.483L217.479,85.64L217.767,87.279L231.556,87.279L231.556,-1.639L-14.075,-1.639L-14.075,87.279L-0.288,87.279L0,85.64Z" style="fill:rgb(242,242,241);fill-rule:nonzero;"/>
                        </g>
                        <g transform="matrix(1,0,0,1,472.736,5350.22)">
                            <path d="M-0.006,0.215L0.028,-0.046L-4.94,-0.046L-6.399,0.215L-0.006,0.215Z" style="fill:rgb(221,221,221);fill-rule:nonzero;"/>
                        </g>
                        <g transform="matrix(0.129177,0.991622,0.991622,-0.129177,545.614,5346.3)">
                            <path d="M3.377,-4.106L3.64,-4.106L4.671,3.811L4.417,3.879L3.377,-4.106Z" style="fill:rgb(221,221,221);fill-rule:nonzero;"/>
                        </g>
                        <g transform="matrix(0.129177,0.991622,0.991622,-0.129177,516.099,5346.3)">
                            <path d="M3.377,-4.106L3.64,-4.106L4.672,3.811L4.417,3.879L3.377,-4.106Z" style="fill:rgb(221,221,221);fill-rule:nonzero;"/>
                        </g>
                        <g transform="matrix(1,0,0,1,573.907,5350.44)">
                            <path d="M0,-0.261L-3.381,-0.261L-3.381,0L-0.034,0L-0.012,-0.166L0,-0.261Z" style="fill:rgb(221,221,221);fill-rule:nonzero;"/>
                        </g>
                        <g transform="matrix(1,0,0,1,570.526,5350.44)">
                            <path d="M0,-0.261L-4.671,-0.261L-4.666,-0.226L-4.637,0L0,0L0,-0.261Z" style="fill:rgb(221,221,221);fill-rule:nonzero;"/>
                        </g>
                        <g transform="matrix(1,0,0,1,589.731,5350.44)">
                            <path d="M0,-0.261L0.028,-0.046L0.034,0L6.426,0L4.968,-0.261L0,-0.261Z" style="fill:rgb(221,221,221);fill-rule:nonzero;"/>
                        </g>
                        <g transform="matrix(1,0,0,1,496.64,5350.44)">
                            <path d="M0,-0.261L-4.671,-0.261L-4.671,0L-0.034,0L-0.005,-0.226L0,-0.261Z" style="fill:rgb(221,221,221);fill-rule:nonzero;"/>
                        </g>
                        <g transform="matrix(1,0,0,1,491.969,5350.44)">
                            <path d="M0,-0.261L-3.381,-0.261L-3.369,-0.166L-3.347,0L0,0L0,-0.261Z" style="fill:rgb(221,221,221);fill-rule:nonzero;"/>
                        </g>
                        <g transform="matrix(1,0,0,1,681.858,5345.05)">
                            <path d="M0,-68.24L-2.429,-70.108L-5.749,-70.796L-11.569,-70.796L-11.569,-54.665L-11.569,-79.823L-12.084,-81.067L-12.806,-81.367L-13.332,-81.586L-14.576,-81.067L-15.094,-79.823L-15.094,-54.665L-15.094,-70.796L-20.914,-70.796L-22.059,-70.559L-24.231,-70.108L-26.66,-68.24L-27.551,-65.684L-27.551,-26.324L-26.66,-23.769L-24.231,-21.9L-22.059,-21.453L-20.914,-21.217L-15.094,-21.217L-15.094,-37.343L-15.094,-6.672L-15.094,-17.974L-19.472,-17.974L-22.059,-17.441L-22.162,-17.42L-24.129,-15.904L-24.848,-13.835L-24.619,-13.518L-24.619,6.345L-24.848,6.663L-24.129,8.732L-22.712,9.821L-19.426,9.821L-18.961,9.627L-16.363,8.552L-15.094,5.485L-15.094,-0.5L-15.094,5.485L-16.363,8.552L-18.961,9.627L-19.426,9.821L-29.645,9.821L-29.638,9.906L-29.571,10.339L-29.374,11.584L-29.18,12.832L-29.099,13.346L-18.725,13.346L-17.198,12.715L-13.948,11.369L-13.663,11.249L-13.48,10.801L-13.314,10.403L-11.569,6.187L-11.569,-0.5L-11.569,6.187L-13.314,10.403L-13.48,10.801L-7.187,10.801L-4.501,10.248L-2.531,8.732L-1.812,6.663L-1.812,-13.835L-2.531,-15.904L-4.501,-17.42L-7.187,-17.974L-11.569,-17.974L-11.569,-6.672L-11.569,-37.343L-11.569,-21.217L-5.749,-21.217L-2.429,-21.9L0,-23.769L0.888,-26.324L0.888,-65.684L0,-68.24Z" style="fill:rgb(221,221,221);fill-rule:nonzero;"/>
                        </g>
                        <g transform="matrix(1,0,0,1,666.743,5266.99)">
                            <path d="M1.784,-3.525L-26.468,-3.525L-26.377,-3.007L-26.301,-2.573L-26.158,-1.763L-25.94,-0.515L-25.849,0L0,0L0.021,-0.011L0.021,-1.763L0.539,-3.007L1.784,-3.525Z" style="fill:rgb(221,221,221);fill-rule:nonzero;"/>
                        </g>
                        <g transform="matrix(1,0,0,1,501.339,5350.2)">
                            <path d="M0,-0.025L-3.178,-0.025L-3.175,0L0,-0.025Z" style="fill:rgb(221,221,221);fill-rule:nonzero;"/>
                        </g>
                        <g transform="matrix(1,0,0,1,467.57,5264.92)">
                            <path d="M0,81.022L-20.731,81.607L-23.84,81.657L-39.438,82.136L-41.821,82.062L-47.776,81.66L-46.878,72.647L-45.311,56.682L-42.788,40.692L-40.739,27.682L-40.63,27.054L-36.636,6.881L-35.611,1.65L-34.406,1.11L-33.12,0.525L-21.584,-0.258L-19.446,-0.455L-4.606,-1.192L-1.898,-1.385L24.568,-1.421L28.868,-1.491L33.347,-1.512L63.678,-1.523L94.009,-1.512L98.488,-1.491L102.788,-1.421L129.253,-1.385L131.962,-1.192L146.802,-0.455L148.94,-0.258L160.475,0.525L161.761,1.11L162.966,1.65L163.992,6.881L167.986,27.054L168.095,27.682L170.144,40.692L172.667,56.682L174.234,72.647L175.132,81.66L169.176,82.062L166.794,82.136L151.195,81.657L148.086,81.607L127.356,81.022L122.758,81.057L93.877,81.061L89.437,81.057L37.919,81.057L33.479,81.061L4.597,81.057L0,81.022ZM0.227,85.259L127.129,85.259L151.247,85.939L169.434,86.503L179.546,85.823L176.708,56.907L172.154,27.992L166.484,-0.927L159.816,-3.916L146.436,-4.579L129.242,-5.429L98.667,-5.475L63.678,-5.481L28.689,-5.475L-1.886,-5.429L-19.08,-4.579L-32.461,-3.916L-39.128,-0.927L-44.798,27.992L-49.352,56.907L-52.19,85.823L-42.079,86.503L-23.891,85.939L0.227,85.259Z" style="fill:rgb(221,221,221);fill-rule:nonzero;"/>
                        </g>
                        <g transform="matrix(-0.119145,-0.992877,-0.992877,0.119145,497.43,5349.53)">
                            <path d="M-0.749,-0.649L-0.724,-0.649L-0.566,0.663L-0.601,0.667L-0.749,-0.649Z" style="fill:rgb(221,221,221);fill-rule:nonzero;"/>
                        </g>
                        <g transform="matrix(1,0,0,1,408.639,5378.45)">
                            <path d="M0,0.663L0,0.152L-0.021,0L-0.206,0.177L-0.692,0.642L-0.448,0.649L0,0.663Z" style="fill:rgb(221,221,221);fill-rule:nonzero;"/>
                        </g>
                        <g transform="matrix(1,0,0,1,654.716,5390.39)">
                            <path d="M0,-2.288L-0.06,-2.309L-0.652,-2.528L-0.86,-2.605L-1.688,-2.912L6.236,0.624L5.083,0.025L2.217,-1.466L0.776,-1.999L0.472,-2.112L0,-2.288Z" style="fill:rgb(221,221,221);fill-rule:nonzero;"/>
                        </g>
                        <g transform="matrix(1,0,0,1,509.965,5396.31)">
                            <path d="M-45.175,4.607L87.74,4.607L87.738,1.685L87.634,1.149L87.41,0L-44.845,0L-45.069,1.149L-45.173,1.685L-45.175,4.607Z" style="fill:rgb(221,221,221);fill-rule:nonzero;"/>
                        </g>
                        <g transform="matrix(1,0,0,1,509.965,5402.57)">
                            <path d="M-45.179,4.607L87.744,4.607L87.742,1.149L87.741,0L-45.176,0L-45.176,1.149L-45.179,4.607Z" style="fill:rgb(221,221,221);fill-rule:nonzero;"/>
                        </g>
                        <g transform="matrix(1,0,0,1,442.809,5508.23)">
                            <rect x="0" y="-17.205" width="15.377" height="17.205" style="fill:rgb(221,221,221);fill-rule:nonzero;"/>
                        </g>
                        <g transform="matrix(1,0,0,1,582.026,5462.3)">
                            <path d="M0,17.17L-0.199,18.055L-0.721,18.805L-1.489,19.303L-2.387,19.479L-99.171,19.479L-100.069,19.303L-100.836,18.805L-101.359,18.055L-101.558,17.17L-101.809,7.36L-101.629,6.334L-101.062,5.46L-100.198,4.878L-99.171,4.67L-2.387,4.67L-1.36,4.878L-0.496,5.46L0.071,6.334L0.252,7.36L0,17.17ZM74.06,-11.559L74.06,-11.379L70.539,-11.379L70.539,-11.559L37.659,-11.559L37.659,-11.379L37.659,-11.559L22.282,-11.559L22.282,-11.379L22.282,-11.559L-6.72,-11.559L-6.72,-11.379L-6.72,-11.559L-18.472,-11.559L-18.472,-11.379L-18.472,-11.559L-19.764,-11.559L-19.764,-11.379L-19.764,-11.559L-81.793,-11.559L-81.793,-11.379L-81.793,-11.559L-83.086,-11.559L-83.086,-11.379L-83.086,-11.559L-94.838,-11.559L-94.838,-11.379L-94.838,-11.559L-123.84,-11.559L-123.84,-11.379L-123.84,-11.559L-139.217,-11.559L-139.217,-11.379L-139.217,-11.559L-172.097,-11.559L-172.097,-11.379L-175.619,-11.379L-175.619,-11.559L-185.942,-11.559L-187.023,-11.379L-187.794,-10.872L-188.138,-10.11L-188.004,-9.211L-185.915,-1.742L-184.12,4.67L-183.886,5.284L-180.179,14.992L-179.617,16.465L-178.466,19.479L-177.804,20.575L-177.26,21.478L-175.619,24.192L-173.985,26.895L-172.097,28.334L-172.051,28.369L-171.581,28.729L70.024,28.729L70.493,28.369L70.539,28.334L72.428,26.895L74.06,24.192L75.703,21.478L76.246,20.575L76.909,19.479L78.058,16.465L78.622,14.992L82.33,5.284L82.563,4.67L84.357,-1.742L86.447,-9.211L86.581,-10.11L86.236,-10.872L85.464,-11.379L84.385,-11.559L74.06,-11.559Z" style="fill:rgb(221,221,221);fill-rule:nonzero;"/>
                        </g>
                        <g transform="matrix(1,0,0,1,401.847,5445.48)">
                            <path d="M0,62.749L0,31.807L-3.707,22.099L-3.941,21.486L-5.736,15.073L-7.824,7.604L-7.959,6.705L-7.615,5.944L-6.843,5.436L-5.763,5.256L-0.227,5.256L-1.978,0L-8.441,0L-8.441,62.749L0,62.749Z" style="fill:rgb(221,221,221);fill-rule:nonzero;"/>
                        </g>
                        <g transform="matrix(1,0,0,1,604.308,5491.03)">
                            <rect x="-146.122" y="0" width="146.122" height="17.205" style="fill:rgb(221,221,221);fill-rule:nonzero;"/>
                        </g>
                        <g transform="matrix(1,0,0,1,604.308,5508.23)">
                            <rect x="0" y="-17.205" width="15.377" height="17.205" style="fill:rgb(221,221,221);fill-rule:nonzero;"/>
                        </g>
                        <g transform="matrix(1,0,0,1,660.874,5502.98)">
                            <path d="M0,-52.237L5.538,-52.237L6.616,-52.057L7.388,-51.55L7.734,-50.788L7.6,-49.889L5.51,-42.42L3.715,-36.008L3.483,-35.394L-0.226,-25.687L-0.226,5.256L8.217,5.256L8.217,-57.493L1.752,-57.493L0,-52.237Z" style="fill:rgb(221,221,221);fill-rule:nonzero;"/>
                        </g>
                        <g transform="matrix(1,0,0,1,601.582,5450.74)">
                            <path d="M61.043,-5.256L-201.713,-5.256L-199.962,0L59.291,0L61.043,-5.256Z" style="fill:rgb(221,221,221);fill-rule:nonzero;"/>
                        </g>
                        <g transform="matrix(1,0,0,1,552.53,5419.7)">
                            <path d="M44.967,-4.607L-87.532,-4.607L-87.465,-3.458L-87.264,0L44.698,0L44.9,-3.458L44.967,-4.607Z" style="fill:rgb(221,221,221);fill-rule:nonzero;"/>
                        </g>
                        <g transform="matrix(1,0,0,1,552.53,5438.47)">
                            <path d="M43.346,-4.607L-85.912,-4.607L-85.777,-3.458L-85.411,-0.338L-85.207,0L42.642,0L42.845,-0.338L43.212,-3.458L43.346,-4.607Z" style="fill:rgb(221,221,221);fill-rule:nonzero;"/>
                        </g>
                        <g transform="matrix(1,0,0,1,552.53,5432.21)">
                            <path d="M44.081,-4.607L-86.647,-4.607L-86.512,-3.458L-86.106,0L43.54,0L43.946,-3.458L44.081,-4.607Z" style="fill:rgb(221,221,221);fill-rule:nonzero;"/>
                        </g>
                        <g transform="matrix(1,0,0,1,552.53,5425.95)">
                            <path d="M44.602,-4.607L-87.168,-4.607L-87.1,-3.458L-86.957,-0.987L-86.84,0L44.275,0L44.391,-0.987L44.535,-3.458L44.602,-4.607Z" style="fill:rgb(221,221,221);fill-rule:nonzero;"/>
                        </g>
                        <g transform="matrix(1,0,0,1,597.71,5413.44)">
                            <path d="M0,-4.604L-132.925,-4.604L-132.925,-3.455L-132.926,-2.017L-132.809,0L-0.116,0L0.001,-2.017L0.001,-3.455L0,-4.604Z" style="fill:rgb(221,221,221);fill-rule:nonzero;"/>
                        </g>
                        <g transform="matrix(1,0,0,1,397.835,5263.47)">
                            <path d="M-2.105,3.525L23.766,3.525L23.857,3.01L24.076,1.762L24.218,0.952L24.295,0.518L24.385,0L-3.868,0L-2.621,0.518L-2.105,1.762L-2.105,3.525Z" style="fill:rgb(221,221,221);fill-rule:nonzero;"/>
                        </g>
                        <g transform="matrix(1,0,0,1,393.95,5266.41)">
                            <path d="M0,89.046L-1.746,84.83L-1.746,78.143L-1.746,84.83L0,89.046L0.165,89.444L0.351,89.892L0.636,90.012L3.885,91.358L5.413,91.989L15.785,91.989L15.866,91.475L16.062,90.227L16.258,88.983L16.326,88.549L16.333,88.464L6.115,88.464L5.65,88.27L3.049,87.195L1.78,84.129L1.78,78.143L1.78,84.129L3.049,87.195L5.65,88.27L6.115,88.464L9.4,88.464L10.815,87.375L11.536,85.306L11.306,84.989L11.306,65.125L11.536,64.808L10.815,62.739L8.847,61.223L8.747,61.202L6.159,60.67L1.78,60.67L1.78,71.971L1.78,41.3L1.78,57.427L7.6,57.427L8.747,57.191L10.918,56.743L13.348,54.875L14.238,52.319L13.954,51.928L13.954,13.35L14.238,12.959L13.348,10.403L10.918,8.535L8.747,8.084L7.6,7.848L1.78,7.848L1.78,23.978L1.78,-1.18L1.264,-2.424L0.017,-2.943L-0.505,-2.724L-1.229,-2.424L-1.746,-1.18L-1.746,23.978L-1.746,7.848L-7.565,7.848L-10.884,8.535L-13.314,10.403L-14.203,12.959L-14.203,52.319L-13.314,54.875L-10.884,56.743L-7.565,57.427L-1.746,57.427L-1.746,41.3L-1.746,71.971L-1.746,60.67L-6.124,60.67L-8.813,61.223L-10.781,62.739L-11.501,64.808L-11.501,85.306L-10.781,87.375L-8.813,88.891L-6.124,89.444L0.165,89.444L0,89.046Z" style="fill:rgb(221,221,221);fill-rule:nonzero;"/>
                        </g>
                    </g>
                </g>
            </g>
        </g>
    </g>
</svg>
