<?xml version="1.0" encoding="UTF-8" standalone="no"?>
<!DOCTYPE svg PUBLIC "-//W3C//DTD SVG 1.1//EN" "http://www.w3.org/Graphics/SVG/1.1/DTD/svg11.dtd">
<svg width="100%" height="100%" viewBox="0 0 100 80" version="1.1" xmlns="http://www.w3.org/2000/svg" xmlns:xlink="http://www.w3.org/1999/xlink" xml:space="preserve" xmlns:serif="http://www.serif.com/" style="fill-rule:evenodd;clip-rule:evenodd;stroke-linejoin:round;stroke-miterlimit:2;">
    <g transform="matrix(1,0,0,1,36.3824,30.0775)">
        <g id="bush">
            <path d="M-15.642,32.779L-16.477,33.12L-17.094,33.301L-15.642,32.779ZM-7.099,17L-7.985,16.796L-8.168,16.738L-7.099,17ZM-7.099,17L-7.56,16.779L-6.912,16.904L-6.174,17.035L-7.099,17ZM-15.568,36.695L-17.218,36.807L-17.188,36.789L-17.156,36.771L-17.816,36.819L-17.681,36.781L-17.576,36.709L-17.462,36.614L-17.035,36.388L-17.006,36.398L-17.002,36.392L-16.991,36.383L-16.927,36.334L-16.892,36.329L-16.914,36.317L-16.882,36.275L-16.762,36.119L-16.535,35.919L-16.406,35.802L-15.934,35.475L-15.745,35.37L-15.594,35.355L-15.599,35.257L-15.354,35.059L-14.667,34.597L-13.873,34.142L-13.709,34.059L-13.682,34.045L-12.99,33.567L-12.013,32.972L-10.989,32.417L-10.948,32.389L-10.654,32.207L-9.816,31.646L-8.876,31.11L-8.018,30.715L-7.873,30.259L-7.864,30.231L-7.859,30.216L-7.859,30.213L-7.851,30.189L-7.83,30.145L-7.822,30.128L-7.8,30.08L-7.791,30.062L-7.788,30.053L-7.772,30.006L-7.767,29.992L-7.591,29.495L-7.52,29.348L-8.526,29.903L-7.994,29.945L-7.998,30.007L-8,30.103L-7.999,30.189L-7.997,30.224L-8.86,30.088L-9.505,30.443L-9.733,30.567L-9.794,30.593L-9.799,30.602L-9.809,30.606L-12.074,32.338L-14.952,34.11L-18.159,35.714L-18.55,35.867L-21.616,37.109L-21.814,37.187L-22.35,37.357L-23.173,37.602L-23.668,37.746L-24.186,37.888L-25.237,38.263L-25.298,38.235L-25.452,38.281L-25.708,38.358L-26.193,38.456L-25.736,38.305L-25.222,38.124L-24.781,37.969L-24.399,37.834L-24.117,37.736L-24.086,37.727L-23.559,37.585L-23.298,37.516L-23.032,37.407L-22.757,37.292L-21.041,36.399L-21.15,36.428L-20.881,36.289L-20.432,36.048L-19.327,35.48L-18.178,34.91L-17.96,34.805L-17.925,34.788L-17.023,34.241L-15.846,33.553L-14.696,32.903L-14.65,32.872L-14.345,32.671L-13.808,32.294L-14.146,32.405L-14.728,32.594L-15.642,32.779L-13.284,31.933L-12.982,31.731L-15.642,32.779L-17.686,33.477L-17.331,33.327L-17.013,33.179L-16.878,33.092L-16.749,32.96L-16.608,32.8L-16.172,32.417L-15.937,32.162L-15.643,31.895L-15.477,31.739L-14.927,31.29L-14.724,31.14L-14.601,31.1L-14.57,30.998L-14.314,30.753L-13.63,30.164L-12.867,29.566L-12.713,29.455L-12.688,29.436L-12.063,28.861L-11.199,28.128L-10.308,27.429L-10.273,27.396L-10.028,27.179L-9.337,26.529L-8.575,25.889L-7.752,25.294L-7.747,25.291L-7.716,25.249L-7.106,24.535L-6.445,23.85L-6.419,23.817L-6.231,23.604L-5.703,22.961L-5.084,22.323L-4.37,21.721L-4.146,21.566L-3.694,21.195L-3.602,21.11L-3.333,20.905L-3.317,20.893L-3.228,20.826L-3.334,20.8L-3.473,20.64L-3.662,20.479L-3.074,20.709L-3.003,20.655L-2.975,20.634L-2.806,20.505L-1.98,20.004L-1.15,19.624L-0.364,19.291L0.375,19.097L0.874,19.06L-0.65,18.609L-1.803,18.354L-2.846,18.248L-2.824,18.22L-2.818,18.211L-2.779,18.159L-2.73,18.092L-2.7,18.052L-1.815,18.073L-0.646,18.318L-0.638,18.248L0.987,18.637L2.696,19.327L2.777,19.274L3.119,19.056L3.799,18.721L4.405,18.528L4.43,18.525L4.895,18.404L5.28,18.426L5.548,18.597L5.664,18.833L5.65,19.209L5.509,19.713L5.477,19.789L5.241,20.074L5.308,20.116L5.266,20.18L5.255,20.197L5.244,20.217L5.241,20.221L5.22,20.251L5.163,20.326L5.153,20.339L5.068,20.448L5.012,20.522L5.005,20.532L5.001,20.535L4.998,20.539L5.065,20.564L5.068,20.565L5.075,20.569L6.08,21.196L6.147,21.24L6.249,21.319L6.436,21.463L6.577,21.376L6.732,21.46L7.116,21.797L7.229,21.895L7.56,22.189L7.37,22.193L7.395,22.211L7.571,22.197L8.791,23.271L8.914,23.306L6.732,21.46L6.852,21.494L5.177,20.599L5.273,20.524L5.318,20.38L5.294,20.233L7.014,21.065L6.919,20.972L7.201,21.209L7.261,21.259L7.578,21.235L7.93,21.226L7.997,21.229L8.375,21.224L9.069,21.174L10.158,21.119L11.061,21.094L11.092,21.045L11.625,20.528L12.27,20.127L12.319,20.103L12.33,20.097L11.667,19.518L11.73,19.542L10.444,18.618L10.497,18.637L9.587,18.066L9.545,18.05L8.977,17.785L6.792,18.13L6.855,18.044L3.531,18.301L0.072,18.166L-3.501,17.729L-3.794,17.71L-4.407,17.609L-5.282,17.435L-6.33,17.205L-6.889,17.076L-7.099,17L-5.596,17.139L-6.057,17.056L-5.886,17.073L-5.643,17.103L-5.517,17.131L-5.445,17.102L-5.112,17.093L-4.248,17.097L-3.311,17.125L-3.126,17.134L-3.096,17.135L-2.282,17.072L-1.186,17.018L-0.081,16.988L-0.035,16.982L0.282,16.951L1.197,16.826L2.171,16.733L3.175,16.687L3.461,16.688L4.071,16.641L4.197,16.623L5.206,16.54L6.154,16.523L6.898,16.565L6.492,16.303L6.164,16.052L5.939,15.837L6.013,15.827L5.854,15.741L5.681,15.355L5.586,14.985L5.579,14.721L5.583,14.708L5.586,14.626L5.696,14.211L5.893,13.837L6.013,13.695L6.164,13.672L6.083,13.607L6.182,13.469L6.573,13.082L6.746,12.958L7.049,12.735L7.402,12.542L7.444,12.543L7.433,12.525L7.606,12.408L7.899,12.257L8.237,12.081L8.713,11.885L9.132,11.704L9.337,11.561L9.534,11.287L9.672,11L10.017,11.336L10.423,11.672L10.747,11.868L11.35,12.154L12.037,12.469L13.355,13.149L13.983,13.441L14.575,13.755L14.913,13.931L15.784,14.447L16.045,14.622L16.256,14.739L16.609,14.929L17.377,15.402L18.068,15.897L18.181,15.992L18.199,16.006L18.706,16.321L19.267,16.739L19.725,17.154L19.619,17.213L19.852,17.255L19.996,17.311L20.797,17.777L21.396,17.474L22.087,17.313L22.845,17.298L22.883,17.304L23.666,17.352L24.505,17.546L24.671,17.612L25.439,17.204L26.398,16.729L26.638,16.579L27.79,15.905L28.953,15.265L29.45,15.008L29.747,14.853L30.099,14.632L31.192,13.988L31.583,13.771L32.27,13.384L32.947,13.029L34.251,12.248L34.875,11.898L35.418,11.581L35.746,11.357L36.243,10.964L36.712,10.564L36.451,10.952L36.222,11.331L36.123,11.541L36.028,11.832L35.915,12.154L35.788,12.433L35.676,12.673L35.573,12.853L35.549,12.875L35.552,12.881L35.305,13.212L35.009,13.576L34.84,13.781L34.297,14.394L34.103,14.605L34.001,14.683L33.934,14.754L33.645,14.998L32.901,15.615L32.101,16.269L31.943,16.396L31.918,16.416L30.578,17.256L30.286,17.44L30.194,17.497L28.805,18.321L28.872,18.289L29.168,18.139L29.211,18.118L29.059,18.214L27.6,19.036L27.364,19.149L27.607,19.365L27.681,19.45L28.033,19.821L28.21,19.977L28.71,20.578L29.077,21.216L29.197,21.512L29.729,21.503L31.273,21.376L32.055,21.324L32.743,21.27L33.134,21.215L33.666,21.097L34.146,20.968L34.118,21.134L34.149,21.3L34.251,21.395L34.519,21.53L34.83,21.672L35.023,21.788L35.193,21.887L35.281,21.959L35.26,21.965L35.298,21.967L35.478,22.057L35.598,22.156L35.665,22.21L35.76,22.371L35.76,22.426L35.658,22.448L35.76,22.446L35.757,22.473L35.658,22.549L35.464,22.638L35.411,22.657L35.404,22.659L33.917,22.829L30.885,22.988L29.778,22.952L29.937,23.503L30.029,24.06L30.032,24.078L30.057,24.185L30.11,24.755L30.067,25.312L30.036,25.437L30.085,25.443L31.474,24.872L31.551,24.888L32.944,24.496L32.883,24.483L32.703,24.533L32.65,24.325L32.657,24.061L32.781,23.85L32.999,23.762L33.292,23.797L33.309,23.795L33.715,23.893L34.187,24.112L34.473,24.293L34.808,24.284L34.897,24.137L35.172,23.944L35.538,23.875L35.559,23.877L36,23.869L36.529,23.983L37.1,24.218L37.724,24.504L38.355,24.898L38.978,25.385L39.049,25.455L39.412,25.761L39.592,25.891L40.18,26.403L40.706,26.955L41.168,27.515L41.213,27.686L41.354,27.731L41.947,28.35L42.507,28.999L42.902,29.509L42.916,29.525L43.015,29.627L43.487,30.174L43.896,30.713L44.04,30.938L44.033,31.032L44.128,31.068L44.245,31.211L44.544,31.641L44.625,31.79L44.774,32.048L44.872,32.294L44.858,32.304L44.879,32.314L44.936,32.41L44.982,32.541L45.038,32.69L45.063,32.861L45.091,33.006L45.151,33.099L44.118,32.72L45.556,33.415L45.108,33.249L44.64,33.081L44.329,32.979L43.818,32.817L43.244,32.627L42.059,32.194L41.499,31.931L40.931,31.659L40.611,31.502L39.715,31.05L39.426,30.901L39.387,30.867L39.204,30.766L38.837,30.534L37.974,29.979L37.124,29.418L36.969,29.315L36.945,29.297L36.314,28.779L35.535,28.123L34.808,27.499L34.791,27.458L34.6,27.282L34.096,26.72L33.628,26.17L33.229,25.666L33.138,25.539L33.148,25.468L32.965,25.238L32.93,25.17L32.813,24.877L32.908,24.845L32.965,24.814L31.594,25.279L31.523,25.317L30.808,25.645L30.892,25.672L31.558,25.937L32.196,26.311L32.782,26.782L32.845,26.851L33.159,27.15L33.314,27.277L33.776,27.782L34.139,28.332L34.421,28.894L34.389,29.069L34.533,29.111L34.858,29.734L35.122,30.391L35.207,30.67L35.975,31.044L36.084,31.105L36.613,31.36L36.871,31.461L37.808,31.885L38.753,32.364L39.666,32.864L39.987,33.028L40.036,33.054L41.224,33.581L42.429,34.144L43.349,34.596L43.385,34.61L43.603,34.694L44.745,35.159L45.835,35.628L46.272,35.828L46.536,35.944L46.871,36.063L47.851,36.431L48.179,36.563L48.76,36.79L49.289,37.015L50.332,37.36L50.78,37.516L51.182,37.646L51.464,37.72L51.982,37.831L50.114,37.551L46.705,36.684L46.423,36.707L50.114,37.551L51.006,37.743L50.498,37.676L49.92,37.59L49.434,37.511L49.011,37.441L48.704,37.389L48.679,37.383L48.672,37.382L48.648,37.376L48.154,37.267L47.336,37.038L47.22,37.007L46.952,36.937L46.709,36.873L45.835,36.645L45.461,36.547L45.355,36.523L44.548,36.315L43.878,36.126L43.018,35.82L39.754,34.637L39.095,34.336L39.366,34.597L39.729,35.059L39.832,35.257L39.758,35.355L39.895,35.37L39.976,35.475L40.114,35.802L40.121,35.919L40.135,36.119L40.071,36.317L40.036,36.329L40.064,36.334L40.039,36.392L39.944,36.476L39.835,36.569L39.624,36.677L39.444,36.762L38.926,36.739L38.964,36.774L39.405,36.807L39.504,36.869L39.669,36.927L39.077,36.879L39.179,36.978L39.733,37.644L40.18,38.316L40.343,38.54L40.364,38.574L40.924,39.296L41.418,40.048L41.735,40.636L41.749,40.655L41.834,40.769L42.193,41.377L42.458,41.972L42.528,42.218L42.454,42.317L42.57,42.361L42.637,42.511L42.747,42.957L42.754,43.109L42.761,43.372L42.708,43.62L42.546,43.982L42.387,44.128L42.257,44.25L40.97,43.894L42.239,44.331L42.345,44.476L42.503,44.624L41.954,44.432L41.358,44.232L40.945,44.103L40.247,43.889L39.454,43.636L38.834,43.424L38.295,43.239L37.932,43.107L37.914,43.097L37.868,43.079L37.124,42.742L36.388,42.398L35.972,42.199L34.833,41.639L34.477,41.456L34.202,41.288L33.744,40.999L32.697,40.316L31.685,39.635L31.509,39.511L31.481,39.49L30.755,38.857L29.88,38.062L29.091,37.315L29.112,37.28L28.872,37.053L28.351,36.372L27.896,35.716L27.557,35.128L27.529,35.057L26.648,35.381L26.556,35.416L24.456,36.884L26.648,35.381L24.614,36.803L22.862,38.43L21.759,39.778L21.914,40.584L21.949,40.778L22.474,44.27L22.912,48.553L22.88,49.798L21.357,49.798L21.435,48.539L21.244,44.302L20.924,41.014L20.356,42.145L19.778,49.798L19.115,49.798L19.126,49.226L19.112,49.798L18.481,49.798L18.502,49.605L18.407,49.798L18.206,49.798L18.044,49.748L18.019,49.798L17.007,49.798L17.458,38.673L17.455,38.644L17.455,38.618L17.3,38.817L17.455,38.644L17.441,38.959L17.437,39.065L17.434,39.081L17.42,39.501L17.416,39.578L17.413,39.62L17.406,39.8L17.064,40.42L17.332,41.62L17.296,42.488L17.233,44.076L17.173,45.557L17.166,45.702L17.162,45.76L17.159,45.915L17.131,46.527L17.12,46.81L17.067,48.123L17.035,48.933L17.028,49.1L17,49.797L16.412,49.797L16.553,49.273L16.249,46.101L15.566,43.647L14.857,45.55L13.683,49.798L8.089,49.798L8.043,49.483L7.077,45.407L5.755,41.982L3.905,38.54L1.822,36.106L-0.401,34.056L-1.401,33.328L-2.308,33.722L-3.408,34.195L-3.45,34.209L-3.71,34.29L-5.156,34.736L-6.627,35.187L-7.259,35.378L-7.575,35.47L-7.637,35.488L-8.116,35.589L-9.618,35.901L-10.161,36.012L-11.768,36.32L-12.066,36.388L-14.028,36.614L-15.568,36.695ZM-15.568,36.695L-17.809,36.927L-17.485,36.869L-15.568,36.695ZM-15.642,32.779L-15.446,32.817L-16.081,33.005L-15.642,32.779ZM-15.568,36.695L-14.984,36.708L-15.826,36.78L-16.334,36.819L-17.094,36.875L-15.568,36.695ZM2.449,19.484L2.294,19.435L2.364,19.501L2.389,19.523L2.403,19.513L2.449,19.484ZM15.093,36.422L15.16,36.738L14.737,37.333L15.164,36.757L15.178,36.822L14.674,37.537L14.624,37.651L14.66,37.75L14.688,37.818L15.611,39.468L15.647,39.53L15.506,38.359L15.52,38.421L15.608,38.823L15.516,38.36L15.217,36.844L15.093,36.422ZM27.177,25.91L27.233,25.937L27.223,25.956L27.24,26.023L27.293,26.076L27.353,26.093L27.367,26.089L27.424,26.06L27.434,26.034L27.448,25.998L27.448,25.984L27.434,25.932L27.385,25.894L27.325,25.901L27.177,25.91ZM19.129,36.194L19.161,36.151L19.161,36.021L19.129,36.194ZM23.395,30.186L23.564,30.147L24.332,29.965L24.459,29.954L24.477,29.934L24.547,29.851L24.635,29.751L24.456,29.753L24.463,29.855L24.413,29.939L23.472,30.161L23.532,30.053L23.521,29.951L23.451,30.078L23.447,30.086L23.395,30.186ZM23.254,29.245L24.089,28.188L24.054,28.118L24.001,28.015L23.821,27.503L23.803,27.373L23.768,27.066L23.765,26.997L23.825,26.51L23.92,26.292L23.62,26.178L23.627,26.122L23.595,26.165L23.529,26.254L23.338,26.393L23.402,26.421L23.239,26.603L22.651,27.168L22.411,27.37L21.988,27.72L21.519,28.067L21.41,28.128L21.403,28.13L21.396,28.136L21.22,28.232L21.357,28.254L21.484,28.17L21.241,28.967L21.678,28.913L22.39,28.977L22.425,28.974L23.299,29.077L23.363,29.092L23.254,29.245ZM20.264,37.234L20.236,37.14L20.211,37.226L20.264,37.234ZM27.364,21.506L27.251,21.595L27.413,21.586L27.603,21.574L27.364,21.506ZM16.122,42.185L16.207,42.355L16.214,42.357L16.122,42.185ZM19.602,35L19.503,34.748L19.496,34.751L19.602,35ZM24.727,32.248L24.748,32.238L24.709,32.24L24.727,32.248ZM17.226,19.981L17.275,19.972L17.261,19.935L17.215,19.908L17.201,19.9L17.138,19.912L17.095,19.966L17.095,19.987L17.226,19.981ZM-8.127,31.599L-8.127,31.74L-8.022,31.702L-8.127,31.599ZM20.434,18.108L20.486,18.031L20.486,17.933L20.43,17.86L20.402,17.855L20.405,17.869L20.419,17.945L20.423,17.959L20.426,17.967L20.395,18.039L20.388,18.051L20.374,18.085L20.363,18.104L20.342,18.146L20.335,18.156L20.434,18.108ZM19.115,39.693L19.165,39.04L19.108,39.643L19.115,39.693ZM19.165,37.433L19.165,37.287L19.076,37.403L19.165,37.433ZM15.477,18.979L15.795,19.278L15.706,19.064L15.601,18.594L16.045,18.623L16.168,18.631L17.021,18.682L16.292,18.577L14.152,18.465L14.399,18.507L13.789,18.42L13.084,18.317L12.298,18.201L12.259,18.195L11.935,18.133L9.869,17.632L9.806,17.617L9.774,17.659L9.429,17.714L9.647,17.793L9.675,17.84L9.672,17.929L10.634,18.352L11.914,19.196L10.595,18.293L11.871,19.125L12.781,19.877L13.003,19.77L13.807,19.549L14.617,19.473L14.656,19.466L15.417,19.453L15.231,19.234L15.361,19.364L15.365,19.366L15.435,19.452L15.449,19.452L15.506,19.451L15.336,19.265L14.822,18.857L14.423,18.63L14.483,18.648L14.536,18.619L14.564,18.558L14.557,18.516L14.614,18.524L14.646,18.526L14.734,18.532L14.938,18.601L15.009,18.657L15.477,18.979ZM15.477,18.979L15.026,18.752L15.499,19.099L15.477,18.979ZM0.95,19.014L0.95,19.054L1.015,19.049L1.031,19.045L1.045,19.043L0.95,19.014ZM20.13,37.798L20.303,37.372L20.134,37.779L20.13,37.798ZM20.13,37.798L20.06,37.962L19.986,38.153L19.788,38.641L19.838,38.539L19.975,38.189L20.056,37.989L20.13,37.798ZM11.86,28.355L11.854,28.382L11.72,28.841L11.723,28.84L11.727,28.84L11.86,28.384L11.86,28.355ZM-6.826,28.089L-6.64,28.041L-6.68,27.845L-6.763,27.981L-6.809,28.057L-6.826,28.089ZM13.694,37.815L13.546,37.537L13.489,37.471L13.123,37.056L13.123,37.078L13.084,38.872L13.606,37.712L13.616,37.732L13.651,37.798L13.662,37.791L13.694,37.815ZM10.641,36.695L8.308,36.569L7.906,36.476L7.557,36.392L7.349,36.334L7.366,36.329L7.314,36.317L6.876,36.119L6.506,35.919L6.298,35.802L5.819,35.475L5.703,35.37L5.805,35.355L5.607,35.257L5.449,35.059L5.184,34.597L5.033,34.142L5.022,34.059L5.022,34.045L4.987,33.567L5.054,32.972L5.227,32.417L5.428,32.399L5.308,32.207L5.523,31.646L5.822,31.177L4.402,30.633L3.577,30.407L3.288,30.679L3.133,30.795L2.428,31.275L1.585,31.812L0.674,32.372L0.323,32.561L0.303,32.582L-0.836,33.082L-0.203,33.523L2.114,35.525L4.331,37.895L6.341,41.483L7.828,44.955L8.212,46.318L8.078,44.542L8.301,40.081L8.882,36.677L8.896,36.681L10.641,36.695ZM10.641,36.695L9.83,36.869L9.968,36.927L10.641,36.695ZM-8.881,30.085L-8.962,30.072L-9.018,30.063L-9.026,30.107L-9.447,30.297L-9.589,30.436L-9.299,30.313L-8.881,30.085ZM18.875,36.519L19.076,34.957L18.608,35.187L18.53,35.222L18.773,36.553L18.784,36.638L18.875,36.519ZM19.306,18.704L19.069,18.912L19.087,18.907L19.306,18.704ZM14.3,36.997L14.339,36.908L14.251,36.9L14.297,36.99L14.3,36.997ZM21.621,34.099L21.787,33.979L21.791,33.97L22.605,32.393L22.608,32.39L22.577,32.372L22.446,32.274L22.393,32.372L22.281,32.553L22.259,32.582L22.214,32.63L21.71,33.808L21.621,34.099ZM18.551,36.532L18.59,36.525L18.537,36.309L18.551,36.532ZM20.035,36.46L19.901,36.888L20.042,36.483L20.035,36.46ZM9.598,43.882L9.897,41.318L9.873,41.047L9.714,39.072L9.506,37.72L9.161,40.346L9.125,44.573L9.577,49.043L9.598,43.882ZM-11.509,36.246L-7.264,35.339L-11.294,36.121L-11.509,36.246ZM8.082,29.574L7.902,29.47L7.987,29.611L8.082,29.574ZM23.511,32.921L23.225,32.768L22.993,33.233L23.511,32.921ZM15.171,42.215L15.132,42.08L14.092,38.902L14.085,38.888L14.081,38.869L13.246,40.825L13.197,40.991L13.028,41.573L13.028,41.586L12.883,48.487L13.895,45.211L15.171,42.215ZM13.874,36.6L13.814,36.499L13.778,36.503L13.874,36.6ZM10.458,21.698L10.645,21.784L10.659,21.748L10.69,21.662L10.701,21.645L10.458,21.698ZM21.555,34.334L21.639,34.267L21.65,34.247L21.653,34.236L21.565,34.299L21.558,34.318L21.555,34.334ZM-12.518,31.426L-12.317,31.303L-12.544,31.425L-12.518,31.426ZM11.618,42.628L11.924,36.727L11.357,36.781L11.219,36.794L11.032,39.958L10.969,41.014L10.98,41.089L11.24,43.107L11.244,43.715L11.618,42.628ZM21.555,38.722L22.15,38.084L21.551,38.708L21.555,38.722ZM21.547,38.687L22.252,37.934L24.029,36.493L24.128,36.358L26.207,35.05L26.313,34.923L27.254,34.627L26.285,34.29L26.059,34.209L26.021,34.195L25.065,33.722L24.054,33.205L24.191,33.117L24.441,32.954L24.389,32.923L22.52,34.188L22.513,34.205L21.815,35.614L21.241,37.101L21.258,37.188L21.269,37.268L21.547,38.687ZM7.155,28.232L8.124,29.082L8.082,29.038L7.155,28.232ZM20.412,39.899L20.426,39.882L20.434,39.872L20.691,39.603L20.691,39.598L20.599,39.077L20.43,39.818L20.412,39.899ZM14.244,37.028L13.747,36.508L13.74,36.509L14.244,37.028ZM22.823,29.968L22.58,30.042L22.591,30.055L22.616,30.09L22.668,30.168L22.675,30.175L22.69,30.195L22.707,30.166L22.714,30.155L22.771,30.061L22.806,29.997L22.823,29.968ZM6.697,27.083L6.933,26.878L7.536,26.565L8.23,26.374L9.006,26.223L9.827,26.201L10.634,26.302L10.659,26.303L10.514,26.063L8.304,23.728L6.566,22.278L5.449,22.369L3.323,22.419L2.558,23.054L1.617,23.817L1.54,23.88L1.691,23.932L2.22,24.285L3.038,23.871L3.841,23.592L4.596,23.455L4.628,23.455L5.269,23.385L5.854,23.459L6.337,23.678L6.679,23.954L6.891,24.364L6.968,24.895L6.961,24.973L6.915,25.31L6.891,25.449L6.661,26.014L6.298,26.637L6.245,26.714L6.697,27.083ZM20.842,36.015L20.899,35.871L20.842,36.012L20.842,36.015ZM33.194,24.772L33.853,24.604L33.913,24.589L33.959,24.565L33.194,24.772ZM-8.412,29.169L-8.347,29.043L-8.35,29.044L-8.485,29.177L-8.445,29.184L-8.462,29.232L-8.412,29.169ZM19.926,18.358L19.958,18.339L19.933,18.348L19.926,18.358ZM10.341,37.09L10.366,36.881L10.31,36.888L10.299,36.889L10.306,36.918L10.341,37.09ZM23.944,29.236L24.269,29.317L24.836,29.521L24.879,29.472L24.769,29.343L24.808,29.297L24.625,29.127L24.332,28.653L23.944,29.236ZM-7.68,33.014L-7.716,33.003L-7.701,33.025L-7.68,33.014ZM23.606,32.864L24.152,32.545L24.159,32.54L24.265,32.477L24.3,32.447L24.128,32.551L24.015,32.618L23.606,32.864ZM23.465,32.278L23.387,32.441L23.631,32.379L23.465,32.278ZM2.206,24.398L2.216,24.368L2.199,24.34L2.195,24.336L2.192,24.33L2.149,24.327L2.093,24.332L2.054,24.38L2.054,24.403L2.164,24.409L2.206,24.405L2.206,24.398ZM6.126,27.696L5.84,27.299L5.696,27.493L5.671,27.526L4.994,28.224L4.307,28.886L4.345,28.893L4.437,29.089L4.331,29.316L4.19,29.487L4.035,29.816L3.933,29.954L3.93,29.96L3.926,29.963L4.79,30.167L6.288,30.717L6.305,30.702L6.312,30.695L6.302,30.692L6.235,30.563L5.995,29.973L5.851,29.424L5.988,29.407L5.833,29.223L5.794,28.693L5.865,28.189L6.083,27.743L6.126,27.696ZM5.988,21.795L5.978,21.788L5.942,21.764L5.889,21.795L5.988,21.795ZM5.082,21.202L4.68,20.94L4.469,21.185L4.423,21.242L4.761,21.234L5.04,21.203L5.082,21.202ZM17.451,38.38L17.451,38.356L17.398,35.65L16.535,35.901L16.122,36.012L16.059,36.028L16.024,36.038L16.003,36.043L16.189,36.532L16.189,36.537L16.193,36.549L16.602,38.124L16.556,38.159L16.669,38.669L16.813,39.315L17.205,38.673L17.451,38.38ZM18.837,18.585L18.826,18.586L18.008,19.225L17.888,19.32L17.779,19.468L17.899,19.387L17.913,19.379L17.931,19.366L17.938,19.362L18.022,19.227L18.837,18.585ZM19.147,48.34L19.186,48.339L19.147,48.22L19.147,48.34ZM-9.005,29.865L-9.002,29.866L-8.985,29.867L-8.984,29.857L-8.996,29.857L-9.005,29.865ZM2.347,19.634L2.361,19.615L2.364,19.603L2.364,19.596L2.361,19.58L2.357,19.574L2.357,19.567L2.297,19.566L2.255,19.576L2.227,19.627L2.227,19.649L2.315,19.647L2.347,19.64L2.347,19.634ZM20.585,29.018L20.772,28.482L20.465,28.652L20.243,28.757L20.338,28.976L20.472,28.987L20.585,29.018ZM7.902,21.797L7.909,21.803L7.934,21.824L7.952,21.797L7.902,21.797ZM19.355,18.514L19.281,18.532L19.295,18.549L19.355,18.514ZM20.476,35.05L20.504,34.96L20.508,34.951L20.821,33.947L20.518,34.195L20.493,34.209L20.359,34.29L20.187,34.382L20.352,34.727L20.455,34.994L20.455,34.997L20.476,35.05ZM20.821,40.336L20.691,40.485L20.853,40.517L20.821,40.336ZM35.531,32.424L35.531,32.378L35.446,32.479L35.528,32.513L35.531,32.424ZM31.005,33.906L31.051,33.926L31.044,33.916L31.005,33.906ZM-9.863,28.591L-9.836,28.58L-9.86,28.572L-9.863,28.591ZM20.395,34.94L20.148,34.402L20.137,34.408L20.395,34.94ZM23.913,25.682L23.839,25.809L23.99,25.715L23.92,25.676L23.913,25.682ZM-9.33,27.419L-9.212,27.377L-9.252,27.286L-9.33,27.419ZM11.247,44.145L11.286,43.973L11.247,44L11.247,44.145ZM14.159,36.722L14.406,36.418L14.395,36.419L14.029,36.469L14.159,36.719L14.159,36.722ZM13.045,40.714L13.073,40.625L13.049,40.614L13.045,40.688L13.045,40.714ZM31.199,34.171L31.269,34.204L31.213,34.166L31.209,34.166L31.199,34.171ZM28.516,32.68L28.516,32.644L28.319,32.55L28.516,32.68ZM19.221,34.886L19.288,34.952L19.284,34.855L19.221,34.886ZM29.059,33.221L29.655,33.374L29.087,33.222L29.059,33.221ZM8.248,22.086L8.255,22.093L9.048,22.757L9.139,22.852L9.143,22.855L10.486,24.272L10.461,24.154L10.324,23.518L10.296,22.883L10.423,22.28L10.504,22.123L10.549,22.007L10.557,21.994L10.126,21.744L10.126,21.735L8.248,22.086ZM19.64,43.59L19.672,43.5L19.647,43.51L19.64,43.59ZM-2.585,17.865L-3.291,18.786L-4.943,20.489L-6.969,22.168L-7.23,22.289L-9.444,23.835L-11.868,25.245L-12.215,25.399L-12.784,25.649L-13.135,25.803L-14.444,26.485L-14.386,26.391L-14.532,26.462L-14.781,26.582L-14.832,26.606L-14.9,26.627L-14.557,26.455L-14.258,26.306L-13.999,26.176L-13.805,26.079L-13.97,26.187L-13.506,25.959L-13.448,25.924L-13.325,25.848L-12.966,25.555L-12.728,25.406L-12.019,24.976L-11.777,24.833L-11.693,24.797L-11.593,24.702L-11.287,24.478L-10.524,23.94L-9.723,23.392L-9.57,23.291L-9.546,23.274L-8.924,22.765L-8.105,22.116L-7.297,21.496L-7.266,21.468L-7.053,21.28L-6.456,20.72L-5.837,20.168L-5.217,19.656L-5.046,19.526L-4.705,19.22L-4.637,19.15L-4.114,18.663L-3.64,18.27L-3.229,17.983L-3.002,17.812L-2.82,17.835L-2.815,17.836L-2.585,17.865ZM-11.252,24.632L-11.134,24.531L-11.227,24.595L-11.331,24.667L-11.252,24.632ZM-6.582,21.223L-6.43,21.047L-6.598,21.194L-6.644,21.235L-6.675,21.264L-6.582,21.223Z" style="fill:rgb(130,195,65);"/>
        </g>
    </g>
</svg>
