<?xml version="1.0" encoding="UTF-8" standalone="no"?>
<!DOCTYPE svg PUBLIC "-//W3C//DTD SVG 1.1//EN" "http://www.w3.org/Graphics/SVG/1.1/DTD/svg11.dtd">
<svg width="100%" height="100%" viewBox="0 0 120 30" version="1.1" xmlns="http://www.w3.org/2000/svg" xmlns:xlink="http://www.w3.org/1999/xlink" xml:space="preserve" xmlns:serif="http://www.serif.com/" style="fill-rule:evenodd;clip-rule:evenodd;stroke-linejoin:round;stroke-miterlimit:2;">
    <g transform="matrix(1.38003,2.69492e-17,2.69492e-17,1.27,-14.7564,-58.8141)">
        <g id="grass">
            <path d="M14.847,69.932L10.693,69.932L10.717,61.942L13.661,61.137L13.631,61.045L13.592,60.901L13.553,60.753L14.201,60.99L14.575,60.887L14.151,60.763L14.174,60.756L12.648,60.539L12.688,60.533L11.197,60.558L11.2,60.542L11.099,60.542L11.049,60.515L11.206,60.515L11.207,60.512L11.235,60.381L11.272,60.193L11.31,60.002L12.816,59.979L14.333,60.205L15.629,60.599L15.701,60.579L15.808,60.653L18.541,62.071L18.969,62.408L19.606,60.619L18.735,60.044L17.566,59.595L16.297,59.373L16.311,59.341L16.343,59.157L16.379,58.951L16.415,58.738L17.786,58.957L19.155,59.452L19.857,59.913L20.008,59.487L21.303,59.781L21.191,59.536L20.652,58.407L20.853,58.347L21.054,58.284L21.261,58.214L21.497,58.094L21.535,58.074L21.332,57.815L21.3,57.64L21.282,57.451L21.268,57.258L21.799,57.937L21.973,57.846L22.522,58.996L22.493,59.011L22.583,59.154L22.62,59.212L23.172,60.095L23.164,60.137L23.213,60.215L23.392,60.255L23.34,60.076L23.628,60.277L24.001,59.226L23.019,56.782L21.532,54.254L20.615,53.092L20.684,53.002L20.755,52.911L20.833,52.814L21.02,52.622L21.224,52.416L21.431,52.206L22.413,53.455L24.087,56.295L24.595,57.556L24.781,57.032L25.208,57.202L25.263,57.029L28.078,57.813L29.453,58.447L29.582,58.329L29.55,58.491L30.464,58.912L30.705,57.785L28.514,56.746L28.603,56.736L27.339,56.358L27.296,56.235L27.256,56.104L27.217,55.97L28.429,56.371L30.77,57.481L30.849,57.113L29.28,56.382L29.288,56.372L27.815,55.979L27.838,55.972L26.312,55.775L26.352,55.77L24.861,55.792L24.865,55.778L24.763,55.778L24.713,55.754L24.871,55.754L24.871,55.751L24.9,55.632L24.937,55.461L24.974,55.288L26.48,55.267L27.997,55.473L29.472,55.879L30.963,56.581L31.043,56.21L31.402,54.979L31.23,54.919L29.961,54.717L29.975,54.688L30.008,54.521L30.043,54.335L30.079,54.142L31.45,54.34L31.577,54.382L32.381,51.633L32.685,51.775L32.99,51.915L33.295,52.048L33.597,52.134L33.898,52.218L34.2,52.301L33.375,55.121L33.59,55.249L34.002,54.128L34.198,54.267L34.387,54.405L34.558,54.536L34.602,54.625L34.637,54.71L34.669,54.795L34.338,55.696L35.206,56.214L35.461,56.462L35.422,56.461L35.15,56.459L35.134,56.459L35.047,56.458L35.762,56.514L35.67,56.495L34.856,54.865L34.317,53.841L34.517,53.787L34.719,53.73L34.925,53.667L35.161,53.558L35.2,53.539L34.996,53.304L34.964,53.145L34.946,52.974L34.932,52.799L35.463,53.415L35.637,53.333L36.186,54.375L36.158,54.389L36.247,54.519L36.284,54.572L36.836,55.372L36.828,55.411L36.931,55.559L36.971,55.618L37.116,55.829L37.223,56.023L37.099,55.651L37.005,55.356L37.302,55.544L37.601,55.73L37.779,55.833L38.054,55.46L36.683,52.367L35.196,50.074L34.279,49.019L34.348,48.938L34.419,48.855L34.497,48.767L34.685,48.593L34.888,48.406L35.095,48.216L36.077,49.349L37.751,51.925L38.516,53.648L38.621,53.642L38.887,53.626L39.398,54.138L40.25,55.614L40.461,56.21L40.527,56.17L40.738,56.041L40.687,55.704L40.926,55.7L41.166,55.694L41.403,55.683L41.406,55.68L41.506,54.688L41.563,54.425L41.872,54.407L42.181,54.386L42.486,54.357L42.744,54.178L42.997,53.977L43.247,53.77L43.187,54.045L43.071,55.2L42.968,56.871L42.964,56.956L43.065,57.026L43.309,57.19L43.429,57.262L44.707,51.848L46.045,47.696L46.35,47.825L46.654,47.952L46.959,48.072L47.261,48.151L47.562,48.227L47.864,48.302L46.549,52.381L46.317,53.289L46.361,53.181L47.667,49.959L47.862,50.086L48.052,50.21L48.223,50.33L48.266,50.41L48.301,50.487L48.333,50.564L46.939,54.003L45.779,57.121L46.341,56.172L48.048,54.104L50.17,52.36L51.21,51.794L51.772,51.102L52.592,50.219L52.682,50.468L52.771,50.715L52.851,50.96L52.795,51.157L52.72,51.347L52.639,51.535L51.998,52.225L52.123,52.238L52.276,52.244L52.427,52.249L51.597,52.699L50.363,54.218L48.873,56.309L47.65,58.188C48.025,58.486 48.453,58.826 48.909,59.187L49.123,58.935L52.254,55.902L55.423,53.22L56.484,52.434L56.729,52.588L56.973,52.737L57.208,52.865L57.382,52.855L57.552,52.834L57.721,52.812L56.632,53.62L53.312,56.428L52.105,57.597L53.044,56.76L55.1,55.052L55.244,55.212L55.387,55.371L55.524,55.524L55.586,55.582L55.636,55.627L55.683,55.668L54.44,56.701L54.631,56.635L54.855,56.553L55.08,56.47L56.064,59.147L56.092,59.251L57.567,59.156L57.615,59.228L57.62,59.236L57.842,59.221L57.79,59.308L57.672,59.312L57.681,59.325L57.738,59.386L56.156,59.489L56.554,60.964L57.199,60.704L57.183,60.563L57.139,60.386L57.323,60.519L57.446,60.605L59.425,59.806L59.665,59.915L59.903,60.019L60.107,60.09L60.135,60.099L58.378,60.809L58.42,60.978L58.493,61.617L58.495,61.618L58.67,61.626L58.846,61.63L59.023,61.632L58.985,61.849L59.14,61.933L59.189,61.958L59.344,61.574L59.971,60.623L60.347,60.292L60.543,60.303L60.62,60.307L61.183,59.196L62.415,57.536L63.138,56.805L63.29,56.928L63.44,57.048L63.577,57.16L63.635,57.217L63.687,57.271L63.738,57.323L63.064,58.003L61.969,59.481L60.809,61.775L61.071,61.762L61.294,61.649L61.514,61.529L61.733,61.408L61.663,61.598L61.572,61.838L61.65,61.713L61.787,61.539L61.862,61.443L61.856,61.419L62.263,60.903L62.29,60.868L62.356,60.785L62.335,60.776L62.739,60.104L62.867,60.157L63.258,59.76L63.247,59.872L63.234,59.983L63.211,60.085L63.061,60.237L63.089,60.249L63.263,60.319L63.415,60.36L63.563,60.396L63.711,60.432L63.314,61.092L62.714,62.143L62.647,62.155L63.173,62.119L63.109,62.119L63.097,62.119L62.897,62.121L62.869,62.121L63.056,61.961L64.812,61.042L65.82,60.753L66.829,60.625L66.856,60.75L66.882,60.87L66.905,60.978L66.916,60.996L65.982,61.126L65.122,61.389L63.585,62.195L63.5,62.345L63.431,62.448C64.672,62.233 65.939,62.011 67.154,61.795L67.275,61.745L68.361,61.483L69.477,61.351L69.631,61.353C70.245,61.242 70.826,61.137 71.359,61.041L70.894,60.76L70.884,60.76L70.607,60.765L69.939,60.893L69.761,60.86L69.584,60.823L69.412,60.774L69.272,60.644L69.134,60.509L68.996,60.373L69.721,60.236L69.972,60.232L70.006,60.232L70.053,60.231L68.883,59.76L68.917,59.759L68.972,59.759L69.107,59.756L69.253,59.75L68.38,59.764L68.998,59.747L68.958,59.744L68.443,59.752L68.517,59.739L68.37,59.754L67.405,59.934L67.248,59.95L66.351,60.299L66.187,60.309L66,60.21L65.809,60.095L65.616,59.976L66.561,59.611L67.638,59.41L67.917,59.404L67.939,59.404L67.951,59.404L67.98,59.404L67.997,59.404L66.774,58.911L66.734,58.914L64.261,58.316L64.279,58.307L64.302,58.282L64.352,58.147L64.404,58.003L64.457,57.858L67.075,58.493L69.555,59.491L69.904,59.536L71.141,59.936L71.178,59.948L71.492,59.787L71.5,59.785L71.393,59.7L70.93,59.338L71.529,59.791L71.07,59.433L70.93,59.338L70.897,59.237L70.884,59.198L69.609,58.509L67.48,57.628L67.563,57.62L66.388,57.313L66.348,57.213L66.311,57.107L66.275,56.998L67.401,57.324L69.65,58.254L70.804,58.906L70.797,58.881L70.895,58.958L71.734,59.431L71.77,59.458L72.184,59.284L72.284,59.346L72.305,59.359L72.349,59.386L72.466,59.46L72.538,59.504L72.634,59.564L72.647,59.573L72.073,59.678L72.077,59.681L73.428,60.664C73.603,60.632 73.761,60.603 73.9,60.578L72.973,59.776L72.945,59.75L70.706,58.353L68.193,57.333L68.201,57.324L66.831,57.005L66.852,57L65.433,56.84L65.47,56.836L64.084,56.854L64.087,56.842L63.993,56.842L63.946,56.822L64.093,56.822L64.093,56.82L64.12,56.724L64.154,56.585L64.189,56.445L65.59,56.428L67,56.594L68.372,56.924L70.913,57.968L72.388,58.888L72.497,58.844L72.662,58.775L73.22,58.79L73.058,58.666L72.853,58.505L73.561,58.968L73.387,58.83L73.82,58.937L73.986,59.01L74.212,59.02L74.175,59.059L74.298,59.069L74.212,59.02L75.07,59.338L74.738,58.922L73.85,58.144L73.785,58.115L73.762,58.104L73.715,58.083L73.492,57.983L73.274,57.876L73.142,57.68L73.035,57.491L71.093,56.476L70.006,56.145L68.826,55.981L68.839,55.958L68.869,55.822L68.902,55.671L68.936,55.514L70.211,55.675L71.484,56.04L73.703,57.196L73.94,57.397L73.904,57.397L73.651,57.395L73.636,57.395L73.556,57.394L74.22,57.44L74.135,57.424L73.377,56.102L72.876,55.271L73.063,55.226L73.25,55.18L73.442,55.129L73.661,55.04L73.697,55.026L73.508,54.835L73.478,54.706L73.462,54.566L73.449,54.425L73.942,54.925L74.104,54.858L74.614,55.704L74.588,55.715L74.671,55.82L74.706,55.863L75.219,56.513L75.212,56.544L75.307,56.665L75.345,56.712L75.48,56.884L75.579,57.041L75.463,56.739L75.376,56.5L75.652,56.652L75.93,56.803L76.211,56.946L76.543,56.961L75.077,54.074L73.694,52.213L72.841,51.357L72.906,51.291L72.972,51.224L73.044,51.153L73.219,51.011L73.407,50.859L73.6,50.705L74.513,51.625L76.07,53.715L76.781,55.114L76.879,55.109L77.126,55.095L77.601,55.511L78.394,56.709L78.545,57.083L78.676,57.147L78.847,57.055L78.8,56.782L79.022,56.779L79.245,56.774L79.466,56.765L79.469,56.763L79.561,55.958L79.614,55.744L79.902,55.729L80.189,55.713L80.472,55.689L80.713,55.544L80.947,55.381L81.18,55.213L81.125,55.436L81.016,56.373L80.92,57.729L80.895,58.224L81.255,58.398L82.538,53.653L83.782,50.283L84.065,50.388L84.349,50.491L84.632,50.589L84.913,50.652L85.193,50.714L85.473,50.775L84.251,54.085L84.035,54.822L84.076,54.735L85.29,52.12L85.472,52.222L85.648,52.324L85.807,52.421L85.847,52.486L85.88,52.548L85.91,52.611L84.614,55.402L83.535,57.932L84.058,57.162L85.645,55.483L87.618,54.068L88.585,53.609L89.107,53.047L89.87,52.331L89.954,52.533L90.036,52.734L90.11,52.932L90.058,53.092L89.988,53.246L89.913,53.399L89.317,53.959L89.434,53.97L89.576,53.974L89.717,53.978L88.945,54.343L87.797,55.576L86.412,57.273L84.55,59.77L84.597,59.765L84.753,59.747L84.959,59.843L84.753,59.888L84.546,59.933L84.465,59.948L84.461,59.954L85.255,60.339L85.419,60.282L85.802,60.227L85.848,60.22L86.644,59.404L89.555,56.943L92.502,54.766L93.489,54.129L93.717,54.254L93.943,54.374L94.162,54.479L94.324,54.47L94.482,54.453L94.639,54.435L93.626,55.091L90.539,57.37L89.417,58.318L90.29,57.639L92.202,56.253L92.336,56.383L92.468,56.512L92.596,56.636L92.654,56.683L92.7,56.72L92.744,56.753L90.926,58.071L87.788,60.513L88.598,60.226L89.529,60.093L90.402,60.123L90.433,60.131L92.193,59.713L92.71,59.684L94.496,59.584L94.54,59.642L94.545,59.649L94.751,59.637L94.703,59.707L94.593,59.711L94.602,59.721L94.654,59.77L92.322,59.902L90.884,60.243L91.215,60.326L91.933,60.704L92.507,61.223L92.276,61.419L92.042,61.612L92.031,61.62L93.245,61.16L96.224,60.111L96.447,60.2L96.668,60.284L96.858,60.341L96.884,60.349L93.97,61.376L93.826,61.426L91.545,62.294L97.668,63.729L97.648,69.932L58.856,69.932L58.854,69.939L58.828,69.932L43.545,69.932L44.122,70.315L45.119,71.226L45.045,71.319L44.974,71.411L44.908,71.495L43.914,70.587L42.924,69.932L36.86,69.932L37.478,70.306L38.036,70.851L38.503,71.542L38.864,72.342L38.607,72.389L38.353,72.431L38.106,72.457L37.915,72.376L37.726,72.287L37.539,72.196L37.189,71.417L36.747,70.764L36.219,70.249L36.175,70.222L36.165,70.216L30.278,73.275L30.259,73.293L29.238,74.245L29.25,74.287L29.186,74.294L29.141,74.298L29.141,74.301L29.15,74.3L29.148,74.314L29.093,74.624L28.779,74.544L28.796,74.471L28.793,74.47L28.76,74.466L28.762,74.436L28.79,74.439L28.802,74.385L28.767,74.386L28.769,74.368L28.764,74.369L28.701,74.372L28.647,74.269L28.642,74.27L28.581,74.283L28.578,74.274L28.574,74.279L28.621,74.374L28.626,74.387L28.643,74.425L28.654,74.452L28.681,74.512L28.503,74.469L28.439,74.323L28.454,74.306L28.435,74.312L28.412,74.259L28.445,74.244L28.417,74.207L28.482,74.077L28.487,74.066L28.505,74.03L28.513,74.014L28.52,74L28.601,73.92L28.625,73.896L28.597,73.844L28.635,73.768L28.591,73.831L28.567,73.864L28.512,73.944L28.486,73.965L28.5,73.921L28.453,73.988L28.455,73.991L28.459,74L28.469,74.024L28.48,74.05L28.473,74.059L28.45,74.087L28.449,74.089L28.444,74.095L28.439,74.101L28.383,74.162L28.351,74.119L28.349,74.113L28.401,74.036L28.338,74.087L28.313,74.007L28.312,74.011L28.308,74.019L28.305,74.013L28.3,74.025L28.294,74.043L28.266,74.006L28.265,74.012L28.23,74.131L28.196,74.089L28.19,74.083L28.188,74.079L28.187,74.088L28.126,74.168L28.112,74.152L28.112,74.157L28.117,74.181L28.074,74.241L27.883,74.489L27.738,74.54L27.766,74.505L27.557,74.57L27.537,74.46L27.529,74.46L27.557,74.57L27.252,74.663L27.181,74.382L27.114,74.381L27.078,73.975L27.061,73.79L26.979,73.587L27.039,73.627L27.05,73.657L27.047,73.632L27.046,73.625L27.191,73.721L27.282,73.782L27.27,73.834L27.252,73.822L27.235,73.81L27.262,73.874L27.23,74.024L27.286,73.785L27.384,73.848L27.413,73.876L27.413,73.873L27.257,73.72L27.234,73.701L27.284,73.75L27.308,73.774L24.482,71.913L24.504,71.896L27.428,73.817L27.429,73.811L27.384,73.78L27.366,73.768L27.184,73.647L27.165,73.635L27.04,73.551L26.121,72.938L24.508,71.802L24.488,71.857L24.528,71.875L24.504,71.896L21.502,70.57L21.538,70.56L19.488,70.046L17.507,69.932L17.211,69.932L15.261,70.284L13.444,71.166L13.307,71.053L13.167,70.933L13.028,70.811L14.847,69.932ZM23.37,69.932L20.552,69.932L21.503,70.17L24.597,71.563L26.216,72.708L26.002,72.5L23.37,69.932ZM19.637,60.529L18.857,59.995L18.814,60.018L19.628,60.556L19.637,60.529ZM33.281,58.568L33.275,58.585L33.136,58.997L33.572,58.787L33.679,58.863L33.702,58.879L33.749,58.913L33.875,59.003L33.952,59.058L34.057,59.133L34.062,59.126L33.281,58.568ZM33.179,55.793L32.885,56.797L32.715,57.53L32.744,57.55L33.352,55.897L33.179,55.793ZM33.382,55.816L33.204,55.706L33.196,55.733L33.373,55.839L33.382,55.816ZM35.624,57.573L35.51,57.457L35.491,57.447L35.62,57.577L35.624,57.573ZM35.587,57.606L35.364,57.382L35.294,57.346L35.269,57.332L35.218,57.307L34.979,57.183L34.745,57.052L34.603,56.81L34.487,56.577L34.099,56.345L33.466,58.066L33.791,58.298L33.909,58.244L34.086,58.16L34.686,58.178L34.512,58.025L34.292,57.827L34.868,58.258L34.883,58.244L34.866,58.228L34.893,58.235L35.587,57.606ZM34.12,56.287L34.439,56.478L34.436,56.471L34.124,56.277L34.12,56.287ZM42.217,57.348L42.218,57.33L42.209,57.331L42.211,57.353L42.217,57.348ZM47.635,58.176L48.889,56.204L47.613,58.159C47.621,58.165 47.628,58.171 47.635,58.176ZM47.036,57.7L48.24,55.806L47.728,56.426L46.994,57.666C47.008,57.677 47.022,57.688 47.036,57.7ZM53.86,57.183L53.728,57.293L51.545,59.239L52.044,59.477L52.485,59.794L53.164,59.821L53.197,59.83L53.995,59.614L53.395,58.319L53.419,58.269L53.445,58.22L53.477,58.168L53.603,58.091L53.742,58.01L53.886,57.929L54.591,59.452L54.685,59.426L53.86,57.183ZM51.011,59.714L50.353,60.301L51.224,59.947L51.227,59.947L51.011,59.714ZM52.655,61.6L52.429,61.613L52.664,61.611L52.655,61.6ZM53.605,62.839L53.59,62.845C53.605,62.856 53.62,62.867 53.634,62.878L53.605,62.839ZM51.257,61.037L51.436,60.984L51.958,60.98L51.816,60.94L51.234,60.918L51.152,60.955C51.187,60.982 51.222,61.01 51.257,61.037ZM49.713,59.823L49.977,59.523L49.711,59.821C49.712,59.822 49.713,59.822 49.713,59.823ZM49.633,59.759L49.876,59.483L49.63,59.757C49.631,59.758 49.632,59.759 49.633,59.759ZM54.271,60.211L54.106,59.854L53.683,59.969L54.038,60.07L54.271,60.211ZM54.702,59.692L54.847,60.006L54.879,60.075L54.762,59.675L54.702,59.692ZM57.263,61.26L57.001,61.365L56.846,61.426L56.696,61.491L57.228,63.467C57.284,63.458 57.341,63.45 57.398,63.441L57.344,62.384L57.268,61.308L57.263,61.26ZM74.841,60.234L74.294,59.636L74.11,59.493L74.123,59.507L74.832,60.243L74.841,60.234ZM74.633,60.419L74.346,60.193L73.942,60.042L74.445,60.478C74.546,60.459 74.599,60.449 74.599,60.449L74.633,60.419ZM84.224,59.839L84.249,59.833L84.179,59.781L84.162,59.809L84.224,59.839ZM83.988,59.724L84.023,59.668L83.986,59.723L83.988,59.724ZM87.407,61.323L87.822,61.089L87.601,61.121L87.181,61.27L87.407,61.323ZM87.156,61.262L88.019,60.955L88.223,60.864L87.133,61.251L87.156,61.262ZM17.517,69.932L19.387,70.027L19.133,70.011L17.755,69.932L17.517,69.932ZM33.343,59.871L32.96,59.519L32.882,59.75L33.259,59.889L33.343,59.871ZM34.046,59.147L33.451,59.272L33.453,59.272L33.457,59.276L33.761,59.529L34.046,59.147ZM55.119,62.179L55.048,62.21L55.275,62.546L55.119,62.179ZM54.638,63.277L54.174,62.591L54.127,62.611L54.605,63.269L54.638,63.277ZM53.727,62.949L53.635,62.825L53.623,62.831L53.685,62.916C53.699,62.927 53.713,62.938 53.727,62.949ZM54.871,63.637L54.944,63.737C54.946,63.737 54.947,63.737 54.949,63.737L54.883,63.639L54.871,63.637ZM55.611,63.009L55.617,63.01L55.532,62.802L55.611,63.009ZM55.459,62.88L55.43,62.803L55.383,62.801L55.387,62.811L55.432,62.855L55.459,62.88ZM39.5,56.508L39.52,56.509L39.483,56.489L39.417,56.468L39.401,56.479L39.381,56.493L39.366,56.503L39.5,56.508ZM40.975,56.041L40.979,56.048L40.978,56.041L40.975,56.041ZM37.804,57.747L37.749,57.767L37.835,57.84L37.804,57.747ZM39.189,56.425L39.194,56.439L39.236,56.41L39.185,56.411L39.189,56.425ZM39.219,56.513L39.228,56.541L39.252,56.499L39.215,56.496L39.213,56.496L39.219,56.513ZM38.042,58.461L38.018,58.46L38.077,58.57L38.063,58.529L38.042,58.461ZM21.953,58.325L21.968,58.344L21.917,58.262L21.918,58.28L21.953,58.325ZM35.617,53.767L35.633,53.784L35.581,53.71L35.583,53.726L35.617,53.767ZM35.839,56.571L35.56,56.558L35.835,56.825L35.711,56.577L35.8,56.588L35.804,56.588L35.839,56.571ZM83.302,58.353L83.336,58.322L83.393,58.266L83.398,58.254L83.339,58.255L83.302,58.353ZM83.111,58.515L83.21,58.254L83.103,58.517L83.111,58.515ZM84.546,59.771L86.426,57.188L84.49,59.778L84.495,59.777L84.546,59.771ZM85.347,57.368L83.865,59.553L85.823,56.865L85.347,57.368ZM70.438,60.187L69.63,59.822L69.484,59.803L70.438,60.187ZM70.438,60.187L70.392,60.226L70.497,60.224L70.503,60.224L70.438,60.187ZM71.27,59.251L71.343,59.292L71.249,59.234L71.27,59.251ZM71.695,59.567L71.59,59.507L71.603,59.518L71.679,59.579L71.695,59.567ZM72.514,60.708L72.559,60.722L72.271,60.573L71.168,60.216L71.376,60.336L71.384,60.339L72.514,60.708ZM71.341,59.987L71.316,59.993L72.055,60.231L71.609,59.874L71.341,59.987ZM71.751,60.782L71.817,60.799L71.619,60.734L71.751,60.782ZM71.378,59.604L71.646,59.813L71.348,59.553L71.361,59.594L71.378,59.604ZM72.225,60.397L72.187,60.374L72.191,60.386L72.225,60.397ZM69.104,59.744L69.389,59.736L69.101,59.741L69.104,59.744ZM69.632,58.351L69.68,58.37L69.634,58.342L69.632,58.351ZM70.1,59.795L70.075,59.786L70.081,59.792L70.1,59.795ZM30.897,70.514L31.069,70.286L30.876,70.534L30.897,70.514ZM27.675,73.916L27.66,73.836L27.655,73.831L27.675,73.916ZM27.675,73.916L27.665,73.968L27.611,73.932L27.64,73.957L27.663,73.976L27.645,74.067L27.655,74.076L27.662,74.079L27.722,74.12L27.695,74.004L27.692,73.991L27.691,73.985L27.689,73.975L27.675,73.916ZM27.787,74.049L27.742,73.933L27.738,73.924L27.732,73.917L27.735,73.915L27.747,73.909L27.793,73.885L27.804,73.879L27.733,73.801L27.706,73.763L27.685,73.866L27.709,73.894L27.736,73.925L27.787,74.049ZM27.79,74.051L27.741,74.019L27.757,74.034L27.795,74.068L27.791,74.056L27.789,74.054L27.79,74.051ZM28.808,74.027L28.851,73.978L28.8,74.011L28.808,74.027ZM28.808,74.027L28.817,74.044L28.828,74.015L28.808,74.027ZM27.719,73.693L27.717,73.705L27.748,73.74L27.749,73.737L27.719,73.693ZM27.929,74.297L27.94,74.282L27.874,74.251L27.879,74.273L27.888,74.277L27.915,74.303L27.897,74.296L27.886,74.352L27.891,74.346L27.922,74.306L27.929,74.297ZM29.599,73.626L29.675,73.555L29.52,73.64L29.464,73.696L29.599,73.626ZM27.358,74.094L27.38,74.009L27.312,73.977L27.302,73.972L27.341,74.068L27.356,74.103L27.358,74.094ZM28.045,74.149L28.046,74.147L27.839,73.914L27.854,73.936L28.045,74.149ZM29.233,72.631L29.281,72.57L29.235,72.621L29.233,72.631ZM27.647,74.139L27.72,74.176L27.677,74.134L27.655,74.111L27.639,74.096L27.637,74.108L27.579,74.071L27.583,74.107L27.632,74.131L27.647,74.139ZM28.087,74.096L28.089,74.092L28.03,74.014L28.033,74.024L28.055,74.087L28.075,74.11L28.087,74.096ZM27.421,73.845L27.422,73.842L27.387,73.819L27.421,73.845ZM27.994,74.019L27.996,74.021L28.025,74.006L28.023,74.003L27.994,74.019ZM27.589,74.372L27.695,74.375L27.59,74.366L27.585,74.365L27.458,74.352L27.464,74.367L27.584,74.372L27.567,74.456L27.589,74.372ZM31.927,71.737L35.388,69.938L34.156,69.971L33.306,70.451L31.927,71.737ZM28.341,73.771L28.353,73.756L28.336,73.717L28.329,73.743L28.313,73.807L28.341,73.771ZM28.209,73.94L28.212,73.935L28.151,73.854L28.151,73.866L28.209,73.94ZM28.89,74.182L28.933,74.12L28.87,74.144L28.89,74.182ZM27.277,74.412L27.289,74.366L27.243,74.363L27.241,74.363L27.241,74.382L27.24,74.413L27.277,74.412ZM28.006,73.859L28.142,74.025L28.005,73.852L28.006,73.859ZM29.062,74.506L29.066,74.464L29.064,74.464L29.062,74.506ZM28.547,74.204L28.578,74.171L28.541,74.191L28.547,74.204ZM28.443,73.963L28.46,73.939L28.429,73.893L28.419,73.909L28.443,73.963ZM29.19,74.07L29.203,74.01L29.177,74.02L29.19,74.07ZM28.008,74.196L28.019,74.182L28.01,74.169L27.932,74.052L27.88,74.081L27.875,74.076L27.879,74.09L27.882,74.095L27.89,74.118L27.808,74.063L27.82,74.075L27.907,74.16L27.909,74.162L27.912,74.171L27.914,74.172L27.915,74.179L27.917,74.181L27.952,74.268L27.981,74.23L28.007,74.197L28.008,74.196ZM26.904,73.194L27.009,73.293L26.99,73.256L26.904,73.194ZM28.396,73.856L28.42,73.803L28.443,73.75L28.384,73.828L28.39,73.842L28.396,73.856ZM27.432,73.801L27.449,73.73L27.443,73.736L27.421,73.717L27.405,73.702L27.384,73.684L27.365,73.666L27.378,73.759L27.401,73.776L27.412,73.785L27.412,73.787L27.431,73.803L27.432,73.801ZM57.899,62.732L57.9,62.707L57.902,62.681L57.896,62.681L57.899,62.732ZM60.103,62.154L60.107,62.143L60.078,62.145L60.096,62.172L60.103,62.154ZM58.811,61.85L58.808,61.85L58.807,61.854L58.811,61.85ZM62.753,60.384L62.779,60.357L62.78,60.347L62.742,60.395L62.753,60.384ZM60.121,62.106L60.128,62.088L60.09,62.088L60.121,62.106ZM59.896,62.151L59.995,62.147L59.984,62.141L59.969,62.132L59.957,62.125L59.908,62.139L59.881,62.152L59.896,62.151ZM65.064,61.374L65.032,61.36L63.623,62.127L63.62,62.131L65.064,61.374ZM62.591,62.191L62.616,62.202L62.619,62.202L62.684,62.195L62.593,62.355L62.795,62.183L62.591,62.191ZM77.696,57.435L77.715,57.436L77.68,57.42L77.618,57.402L77.604,57.411L77.585,57.422L77.571,57.431L77.696,57.435ZM76.119,58.44L76.068,58.457L76.148,58.516L76.119,58.44ZM77.435,57.439L77.443,57.462L77.466,57.427L77.431,57.425L77.429,57.425L77.435,57.439ZM72.73,59.101L72.939,59.063L72.877,59.034L72.869,59.033L72.682,58.985L72.537,58.981L72.73,59.101ZM71.167,56.457L72.99,57.41L72.987,57.404L71.207,56.44L71.167,56.457ZM73.596,58.995L73.645,59.003L73.588,58.989L73.596,58.995ZM72.351,58.903L72.357,58.901L72.254,58.874L72.351,58.903ZM74.291,57.486L74.032,57.476L74.288,57.692L74.173,57.491L74.255,57.5L74.259,57.5L74.291,57.486ZM74.086,55.21L74.1,55.224L74.052,55.164L74.053,55.177L74.086,55.21ZM73.434,59.603L73.439,59.602L73.433,59.602L73.434,59.603ZM73.968,58.197L74.636,58.784L73.986,58.205L73.968,58.197ZM77.403,57.356L77.412,57.379L77.451,57.355L77.403,57.356ZM79.068,57.056L79.072,57.061L79.071,57.056L79.068,57.056ZM87.002,60.666L86.733,60.888L86.75,60.881L87.002,60.666ZM87.002,60.666L87.028,60.647L87.027,60.646L87.002,60.666ZM87.344,59.849L86.79,60.39L86.797,60.393L87.344,59.849ZM88.084,61.22L88,61.271L88.008,61.269L88.084,61.22ZM86.886,60.429L87.438,59.882L86.88,60.427L86.886,60.429ZM87.264,60.617L87.1,60.595L87.094,60.594L87.084,60.593L87.089,60.597L87.093,60.6L87.264,60.617ZM90.281,61.609L90.536,61.607L90.532,61.603L90.281,61.609ZM91.804,61.789L91.865,61.743L91.747,61.737L91.804,61.789ZM90.786,61.603L90.84,61.605L90.816,61.597L90.692,61.6L90.786,61.603ZM87.96,61.269L87.932,61.279L87.901,61.292L87.886,61.3L87.907,61.295L87.925,61.29L87.96,61.269ZM87.884,61.234L87.666,61.357L87.682,61.353L87.884,61.234ZM88.795,61.068L89.28,61.064L89.148,61.031L88.607,61.013L88.164,61.188L88.05,61.259L88.795,61.068ZM89.718,61.577L90.731,61.571L90.613,61.534L89.718,61.577ZM33.752,58.317L33.758,58.314L33.647,58.282L33.752,58.317ZM34.159,58.561L34.384,58.515L34.318,58.479L34.309,58.477L34.108,58.418L33.952,58.413L34.159,58.561Z" style="fill:rgb(130,195,65);"/>
        </g>
    </g>
</svg>
