<?xml version="1.0" encoding="UTF-8" standalone="no"?>
<!DOCTYPE svg PUBLIC "-//W3C//DTD SVG 1.1//EN" "http://www.w3.org/Graphics/SVG/1.1/DTD/svg11.dtd">
<svg width="100%" height="100%" viewBox="0 0 360 320" version="1.1" xmlns="http://www.w3.org/2000/svg" xmlns:xlink="http://www.w3.org/1999/xlink" xml:space="preserve" xmlns:serif="http://www.serif.com/" style="fill-rule:evenodd;clip-rule:evenodd;stroke-linejoin:round;stroke-miterlimit:2;">
    <g transform="matrix(1,0,0,1,-2895.89,-6555.8)">
        <g id="bus-outbound">
            <g>
                <g transform="matrix(1,0,0,1,3152.41,6875.4)">
                    <path d="M21.023,-20.604L-2.425,-20.604L-2.425,-2.426L0,0L18.598,0L21.023,-2.426L21.023,-20.604Z" style="fill:rgb(142,142,142);fill-rule:nonzero;"/>
                </g>
                <g transform="matrix(1,0,0,1,2976.56,6875.4)">
                    <path d="M21.023,-20.604L-2.425,-20.604L-2.425,-2.426L0,0L18.598,0L21.023,-2.426L21.023,-20.604Z" style="fill:rgb(142,142,142);fill-rule:nonzero;"/>
                </g>
                <g transform="matrix(1,0,0,1,3054.33,6609.21)">
                    <path d="M0,-0.177L-1.386,-0.168L-1.616,0L5.39,0L5.312,-0.177L0,-0.177Z" style="fill-rule:nonzero;"/>
                </g>
                <g transform="matrix(1,0,0,1,3068.49,6608.62)">
                    <path d="M0,-0.547L-0.068,-0.429L0.061,0.042L0.103,0.022L0.209,-0.195L0.103,-0.589L0,-0.547Z" style="fill-rule:nonzero;"/>
                </g>
                <g transform="matrix(1,0,0,1,3203.82,6628.54)">
                    <path d="M0,-0.553L0,-0.028L0.268,0.141L0.268,-0.243L0,-0.553Z" style="fill-rule:nonzero;"/>
                </g>
                <g transform="matrix(1,0,0,1,3203.82,6632.61)">
                    <path d="M0,-0.858L0,0.055L0.268,-0.225L0.268,-0.913L0,-0.858Z" style="fill-rule:nonzero;"/>
                </g>
                <g transform="matrix(0.690169,0.723648,0.723648,-0.690169,2943.52,6632.29)">
                    <path d="M0.04,-0.098L0.428,-0.098L0.147,0.171L-0.16,0.093L0.04,-0.098Z" style="fill-rule:nonzero;"/>
                </g>
                <g transform="matrix(0.649194,0.760623,0.760623,-0.649194,2943.6,6780.67)">
                    <path d="M-0.03,-0.137L0.383,-0.137L0.276,-0.046L-0.115,-0.065L-0.03,-0.137Z" style="fill-rule:nonzero;"/>
                </g>
                <g transform="matrix(1,0,0,1,3078.35,6608.77)">
                    <path d="M0,0.008L0.032,0.082L0.074,0.183L0.257,0.297L0.555,0L0.451,-0.218L0.371,-0.258L0.319,-0.289L0,0.008Z" style="fill-rule:nonzero;"/>
                </g>
                <g transform="matrix(1,0,0,1,3087.92,6609.21)">
                    <path d="M0,-0.177L-0.078,0L6.93,0L6.698,-0.168L5.312,-0.177L0,-0.177Z" style="fill-rule:nonzero;"/>
                </g>
                <g transform="matrix(1,0,0,1,3202.7,6632.24)">
                    <path d="M0,-4.403L0,0.557L1.128,0.423L1.128,-0.49L1.396,-0.547L1.396,-3.564L1.128,-3.733L1.128,-4.258L0,-4.403Z" style="fill:rgb(255,140,0);fill-rule:nonzero;"/>
                </g>
                <g transform="matrix(0,1,1,0,3203.89,6632.46)">
                    <path d="M0.204,-0.064L0.345,-0.064L0.031,0.204L-0.077,0.204L0.204,-0.064Z" style="fill:rgb(255,140,0);fill-rule:nonzero;"/>
                </g>
                <g transform="matrix(1,0,0,1,2948.58,6875.4)">
                    <path d="M21.023,-20.604L-2.425,-20.604L-2.425,-2.426L0,0L18.598,0L21.023,-2.426L21.023,-20.604Z" style="fill:rgb(142,142,142);fill-rule:nonzero;"/>
                </g>
                <g transform="matrix(1,0,0,1,3180.39,6875.4)">
                    <path d="M21.023,-20.604L-2.429,-20.604L-2.429,-2.426L0,0L18.594,0L21.023,-2.426L21.023,-20.604Z" style="fill:rgb(142,142,142);fill-rule:nonzero;"/>
                </g>
                <g transform="matrix(1,0,0,1,3148.24,6730.36)">
                    <path d="M0,1.622L0.092,1.749L1.9,-0.01L1.738,-0.127L1.674,-0.01L0,1.622Z" style="fill:rgb(10,19,19);fill-rule:nonzero;"/>
                </g>
                <g transform="matrix(1,0,0,1,3143.58,6733.62)">
                    <path d="M0.015,-0.108L-67.009,-0.108L-67.009,0L0.025,0L0.015,-0.108Z" style="fill:rgb(10,19,19);fill-rule:nonzero;"/>
                </g>
                <g transform="matrix(1,0,0,1,3070.46,6733.62)">
                    <path d="M0.536,-0.108L-66.492,-0.108L-66.498,0L0.536,0L0.536,-0.108Z" style="fill:rgb(10,19,19);fill-rule:nonzero;"/>
                </g>
                <g transform="matrix(1,0,0,1,3063.14,6722.89)">
                    <path d="M7.854,-0.12L-68.481,-0.12L-68.439,0L7.854,0L7.854,-0.12Z" style="fill:rgb(10,19,19);fill-rule:nonzero;"/>
                </g>
                <g transform="matrix(1,0,0,1,3147.13,6722.89)">
                    <path d="M5.776,-0.12L-70.557,-0.12L-70.557,0L5.733,0L5.776,-0.12Z" style="fill:rgb(10,19,19);fill-rule:nonzero;"/>
                </g>
                <g transform="matrix(-0.827677,0.561205,0.561205,0.827677,3178.36,6738.58)">
                    <rect x="-0.213" y="-0.087" width="0.255" height="0.011" style="fill:rgb(10,19,19);"/>
                </g>
                <g transform="matrix(0.823933,0.566687,0.566687,-0.823933,3188.21,6738.34)">
                    <rect x="-0.024" y="-0.076" width="0.261" height="0.011" style="fill:rgb(10,19,19);"/>
                </g>
                <g transform="matrix(-0.821156,0.570704,0.570704,0.821156,2959.28,6738.58)">
                    <rect x="-0.206" y="-0.087" width="0.251" height="0.011" style="fill:rgb(10,19,19);"/>
                </g>
                <g transform="matrix(0.823933,0.566687,0.566687,-0.823933,2969.13,6738.34)">
                    <rect x="-0.024" y="-0.076" width="0.261" height="0.011" style="fill:rgb(10,19,19);"/>
                </g>
                <g transform="matrix(0.808304,0.588765,0.588765,-0.808304,3061.1,6608.8)">
                    <path d="M0.066,-0.24L0.367,-0.24L0.732,0.208L0.408,0.184L0.066,-0.24Z" style="fill:rgb(229,101,154);fill-rule:nonzero;"/>
                </g>
                <g transform="matrix(1,0,0,1,3052.05,6604.92)">
                    <path d="M0,3.595L-0.141,3.066L-0.141,0.352L-0.032,-0.067L0,-0.177L0.204,-0.071L0.317,-0.011L0.208,0.398L0.208,3.003L0.317,3.415L0,3.595L0.384,3.979L0.141,4.131L0.109,4.149L0.67,4.297L0.899,4.127L0.909,4.12L8.968,4.12L8.872,3.799L9.285,3.687L9.493,3.979L9.881,3.595L9.56,3.415L9.669,3.003L9.669,0.398L9.56,-0.011L9.881,-0.177L9.662,-0.392L9.493,-0.561L8.968,-0.702L0.909,-0.702L0.384,-0.561L0.109,-0.663L-0.296,-0.254L-0.448,0.303L-0.448,3.183L-0.296,3.74L0,3.595Z" style="fill:rgb(229,101,154);fill-rule:nonzero;"/>
                </g>
                <g transform="matrix(1,0,0,1,3061.93,6608.58)">
                    <path d="M0,-3.839L0.141,-3.31L0.141,-0.595L0,-0.067L0.295,0.078L0.445,-0.479L0.445,-3.36L0.295,-3.917L0,-3.839Z" style="fill:rgb(229,101,154);fill-rule:nonzero;"/>
                </g>
                <g transform="matrix(1,0,0,1,3068.95,6609.04)">
                    <path d="M0,0.023L0.557,0.171L0.802,-0.007L0.633,-0.051L0.272,-0.148L0,0.023Z" style="fill:rgb(229,101,154);fill-rule:nonzero;"/>
                </g>
                <g transform="matrix(1,0,0,1,3078.72,6605.19)">
                    <path d="M0,-0.451L0.105,-0.059L0.131,0.028L0.141,0.078L0.175,0.072L0.194,0.068L0.443,0.028L0.295,-0.529L0,-0.451Z" style="fill:rgb(229,101,154);fill-rule:nonzero;"/>
                </g>
                <g transform="matrix(1,0,0,1,3078.74,6608.22)">
                    <path d="M0,0.213L-0.021,0.297L0.059,0.338L0.274,0.443L0.422,-0.114L0.363,-0.139L0.169,-0.209L0.12,-0.23L0,0.213Z" style="fill:rgb(229,101,154);fill-rule:nonzero;"/>
                </g>
                <g transform="matrix(1,0,0,1,3077.86,6609.09)">
                    <path d="M0,-0.061L-0.049,-0.048L0.03,0.009L0.19,0.129L0.747,-0.019L0.563,-0.133L0.477,-0.19L0,-0.061Z" style="fill:rgb(229,101,154);fill-rule:nonzero;"/>
                </g>
                <g transform="matrix(1,0,0,1,3068.59,6605.23)">
                    <path d="M0,2.799L0.113,2.757L0.113,0.043L0.465,0.088L0.465,2.693L0.575,3.106L0.254,3.285L0.638,3.67L0.849,3.377L1.258,3.49L1.167,3.811L9.225,3.811L9.13,3.49L9.539,3.377L9.813,3.106L9.923,2.693L10.275,2.757L10.275,0.043L9.923,0.088L9.817,-0.314L9.813,-0.321L9.539,-0.596L9.75,-0.871L9.225,-1.012L1.167,-1.012L0.638,-0.871L0.849,-0.596L0.635,-0.384L0.575,-0.321L0.511,-0.352L0.384,-0.419L0.254,-0.486L0.638,-0.871L0.366,-0.973L-0.042,-0.564L-0.19,-0.007L-0.19,2.873L-0.102,2.841L0,2.799Z" style="fill:rgb(229,101,154);fill-rule:nonzero;"/>
                </g>
                <g transform="matrix(1,0,0,1,3085.34,6604.33)">
                    <path d="M0,0.329L0.295,0.407L0.51,0.192L0.681,0.023L0.405,-0.078L0,0.329Z" style="fill:rgb(229,101,154);fill-rule:nonzero;"/>
                </g>
                <g transform="matrix(1,0,0,1,3095.52,6608.69)">
                    <path d="M0,-3.948L-0.208,-3.842L-0.321,-3.782L-0.596,-4.057L-0.388,-4.332L-0.913,-4.473L-8.971,-4.473L-9.496,-4.332L-9.401,-4.205L-9.288,-4.057L-9.56,-3.782L-9.881,-3.948L-10.021,-3.419L-10.021,-0.705L-9.673,-0.768L-9.56,-0.356L-9.881,-0.176L-10.177,-0.032L-9.771,0.377L-9.211,0.525L-8.971,0.349L-9.496,0.208L-9.288,-0.085L-8.876,0.028L-8.971,0.349L-0.913,0.349L-1.008,0.028L-0.596,-0.085L-0.388,0.208L-0.913,0.349L-0.902,0.356L-0.67,0.525L-0.113,0.377L0.296,-0.032L0.444,-0.589L0.444,-3.469L0.296,-4.026L-0.113,-4.435L-0.388,-4.332L0,-3.948Z" style="fill:rgb(229,101,154);fill-rule:nonzero;"/>
                </g>
                <g transform="matrix(0.464959,-0.885332,-0.885332,-0.464959,3181.51,6655.39)">
                    <path d="M-3.74,2.348L-3.426,2.348L3.704,6.093L3.818,6.318L-3.74,2.348Z" style="fill:rgb(229,101,154);fill-rule:nonzero;"/>
                </g>
                <g transform="matrix(1,0,0,1,3182.25,6658.57)">
                    <path d="M0,-10.469L-0.557,-10.617L-3.44,-10.617L-3.997,-10.469L-3.885,-10.208L-3.359,-10.349L-0.641,-10.349L-0.113,-10.208L-0.285,-9.895L-0.694,-10.007L-3.303,-10.007L-3.712,-9.895L-3.885,-10.208L-4.269,-9.824L-3.987,-9.623L-4.096,-9.21L-4.096,-1.346L-3.987,-0.934L-4.269,-0.715L-3.885,-0.331L-3.712,-0.659L-3.303,-0.55L-0.694,-0.55L-0.285,-0.659L-0.113,-0.331L-0.641,-0.19L-3.359,-0.19L-3.885,-0.331L-3.997,0L-3.44,0.148L-0.557,0.148L0,0L0.409,-0.409L0.557,-0.966L0.557,-9.503L0.409,-10.06L0,-10.469Z" style="fill:rgb(229,101,154);fill-rule:nonzero;"/>
                </g>
                <g transform="matrix(1,0,0,1,3179.62,6756.78)">
                    <path d="M0,0.129L-0.614,0.542L-0.593,0.538L0,0.144L2.732,-0.4L2.732,-0.413L0,0.129Z" style="fill:rgb(229,101,154);fill-rule:nonzero;"/>
                </g>
                <g transform="matrix(1,0,0,1,3187.39,6756.76)">
                    <path d="M0,1.713L0,1.699L-2.316,0.151L-3.081,0L-3.127,0.003L-2.316,0.166L0,1.713Z" style="fill:rgb(229,101,154);fill-rule:nonzero;"/>
                </g>
                <g transform="matrix(-0.982339,0.187112,0.187112,0.982339,3177.43,6758.62)">
                    <path d="M-1.813,-0.982L-1.791,-0.982L0.09,-0.185L0.093,-0.171L-1.813,-0.982Z" style="fill:rgb(229,101,154);fill-rule:nonzero;"/>
                </g>
                <g transform="matrix(1,0,0,1,3177.3,6758.47)">
                    <path d="M0,10.074L2.312,11.618L5.044,12.161L7.772,11.618L10.088,10.074L11.636,7.762L12.179,5.03L11.636,2.315L10.621,0.8L10.617,0.793L10.088,0.003L7.772,-1.544L6.962,-1.707L5.044,-2.087L2.312,-1.544L1.72,-1.15L0,0.003L-1.315,1.97L-1.325,1.984L-1.548,2.315L-2.091,5.03L-1.548,7.762L0,10.074Z" style="fill:rgb(229,101,154);fill-rule:nonzero;"/>
                </g>
                <g transform="matrix(1,0,0,1,3187.96,6786.15)">
                    <path d="M0,-5.442L-0.984,-6.912L-1.548,-7.758L-3.864,-9.302L-6.592,-9.845L-9.324,-9.302L-11.64,-7.758L-11.735,-7.61L-12.225,-6.88L-12.581,-6.344L-12.715,-6.147L-13.184,-5.442L-13.607,-3.317L-13.727,-2.728L-13.184,0.001L-11.64,2.316L-9.324,3.86L-6.592,4.403L-3.864,3.86L-1.548,2.316L0,0.001L0.542,-2.728L0.423,-3.317L0,-5.442Z" style="fill:rgb(229,101,154);fill-rule:nonzero;"/>
                </g>
                <g transform="matrix(0.980829,0.194871,0.194871,-0.980829,3181.45,6776.05)">
                    <rect x="-0.025" y="-0.271" width="2.778" height="0.015" style="fill:rgb(229,101,154);"/>
                </g>
                <g transform="matrix(1,0,0,1,2965.05,6648.75)">
                    <path d="M0,9.109L0.384,9.493L0.557,9.165L0.969,9.275L3.574,9.275L3.987,9.165L4.258,8.89L4.54,9.109L4.681,8.58L4.681,0.526L4.54,0L4.258,0.201L3.987,-0.07L3.574,-0.183L0.969,-0.183L0.557,-0.07L0.384,-0.384L0,0L0.282,0.201L0.173,0.614L-0.141,0.526L0,0L-0.134,-0.236L-0.285,0.321L-0.285,8.859L-0.134,9.416L0,9.109Z" style="fill:rgb(229,101,154);fill-rule:nonzero;"/>
                </g>
                <g transform="matrix(1,0,0,1,2965.88,6648.75)">
                    <path d="M0,-0.793L-0.561,-0.645L-0.447,-0.386L0.082,-0.525L2.799,-0.525L3.324,-0.386L3.708,0L3.845,-0.236L3.436,-0.645L2.879,-0.793L0,-0.793Z" style="fill:rgb(229,101,154);fill-rule:nonzero;"/>
                </g>
                <g transform="matrix(1,0,0,1,2969.21,6658.34)">
                    <path d="M0,-0.095L-0.525,0.046L-3.242,0.046L-3.772,-0.095L-3.886,0.236L-3.324,0.384L-0.445,0.384L0.112,0.236L0.521,-0.173L0.384,-0.479L0,-0.095Z" style="fill:rgb(229,101,154);fill-rule:nonzero;"/>
                </g>
                <g transform="matrix(-0.831553,-0.555446,-0.555446,0.831553,2969.55,6776.34)">
                    <rect x="-2.548" y="0.763" width="2.777" height="0.012" style="fill:rgb(229,101,154);"/>
                </g>
                <g transform="matrix(1,0,0,1,2961.15,6778.4)">
                    <path d="M0,10.074L2.316,11.618L5.048,12.161L7.776,11.618L10.092,10.074L11.64,7.758L12.182,5.03L12.063,4.441L11.64,2.316L11.167,1.611L11.037,1.413L10.677,0.877L10.191,0.148L10.092,-0L7.776,-1.544L5.048,-2.087L2.316,-1.544L0,-0L-1.544,2.316L-1.97,4.441L-1.967,4.441L-1.97,4.441L-2.087,5.03L-1.544,7.758L0,10.074Z" style="fill:rgb(229,101,154);fill-rule:nonzero;"/>
                </g>
                <g transform="matrix(0.995495,0.0948091,0.0948091,-0.995495,2963.25,6756.66)">
                    <path d="M0.023,-0.092L0.065,-0.092L1.938,0.47L1.937,0.482L0.023,-0.092Z" style="fill:rgb(229,101,154);fill-rule:nonzero;"/>
                </g>
                <g transform="matrix(1,0,0,1,2971.59,6766.56)">
                    <path d="M0,-6.106L-0.01,-6.12L-1.325,-8.087L-3.641,-9.634L-6.373,-10.177L-8.291,-9.797L-9.102,-9.634L-11.417,-8.087L-11.946,-7.297L-11.95,-7.29L-12.965,-5.775L-13.508,-3.06L-12.965,-0.328L-11.417,1.984L-9.102,3.528L-6.373,4.071L-3.641,3.528L-1.325,1.984L0.219,-0.328L0.761,-3.06L0.219,-5.775L0,-6.106Z" style="fill:rgb(229,101,154);fill-rule:nonzero;"/>
                </g>
                <g transform="matrix(0,-1,-1,0,2960.57,6756.53)">
                    <path d="M-0.391,-1.924L-0.377,-1.924L-1.924,0.391L-1.938,0.391L-0.391,-1.924Z" style="fill:rgb(229,101,154);fill-rule:nonzero;"/>
                </g>
                <g transform="matrix(-0.0401217,-0.999195,-0.999195,0.0401217,3001.8,6616.36)">
                    <path d="M-18.525,13.633L12.93,13.633L12.723,17.811L-18.357,17.811L-18.525,13.633Z" style="fill:rgb(0,188,218);fill-rule:nonzero;"/>
                </g>
                <g transform="matrix(1,0,0,1,3013.77,6709.37)">
                    <path d="M0,-60.566L0.441,-64.045L2.242,-67.056L5.101,-69.093L8.537,-69.812L111.485,-69.812L114.922,-69.093L117.78,-67.056L119.582,-64.045L120.026,-60.566L120.026,-60.538L115.753,-7.272L115.753,-7.243L115.112,-4.353L113.706,-1.748L111.643,0.374L109.38,1.678L109.073,1.855L109.38,1.678L108.697,2.006L101.777,4.301L94.621,5.69L87.346,6.158L32.677,6.158L25.401,5.69L18.245,4.301L11.326,2.006L10.642,1.678L10.949,1.855L10.642,1.678L8.382,0.374L6.317,-1.748L4.91,-4.353L4.269,-7.243L4.269,-7.272L0,-60.538L0,-60.566ZM-19.123,13.353L-19.109,13.395L139.131,13.395L139.145,13.353L141.363,13.353L144.873,-73.961L-24.851,-73.961L-21.34,13.353L-19.123,13.353Z" style="fill:rgb(0,188,218);fill-rule:nonzero;"/>
                </g>
                <g transform="matrix(-1,0,0,1,2988.25,6722.73)">
                    <path d="M-0.67,-87.314L3.511,-87.314L0.003,0L-4.181,0L-0.67,-87.314Z" style="fill:rgb(0,188,218);fill-rule:nonzero;"/>
                </g>
                <g transform="matrix(0.124035,0.992278,0.992278,-0.124035,3075.28,6714.36)">
                    <path d="M1.005,-1.171L1.037,-1.171L1.326,1.139L1.294,1.142L1.005,-1.171Z" style="fill:rgb(0,188,218);fill-rule:nonzero;"/>
                </g>
                <g transform="matrix(1,0,0,1,3039.17,6711.85)">
                    <path d="M0,3.187L-7.156,1.795L-14.075,-0.497L-14.075,-0.468L-7.156,1.826L0,3.215L7.275,3.684L7.275,3.652L0,3.187Z" style="fill:rgb(0,188,218);fill-rule:nonzero;"/>
                </g>
                <g transform="matrix(1,0,0,1,3022.15,6706.32)">
                    <path d="M0,3.394L-2.065,1.272L-3.472,-1.333L-3.472,-1.305L-2.065,1.3L0,3.422L2.26,4.727L2.26,4.698L0,3.394Z" style="fill:rgb(0,188,218);fill-rule:nonzero;"/>
                </g>
                <g transform="matrix(1,0,0,1,3122.47,6715.2)">
                    <path d="M0,-3.853L-6.92,-1.562L-14.075,-0.169L-21.351,0.296L-45.899,0.296L-45.899,0.328L-21.351,0.328L-14.075,-0.141L-6.92,-1.53L0,-3.825L0.684,-4.153L0.684,-4.181L0,-3.853Z" style="fill:rgb(0,188,218);fill-rule:nonzero;"/>
                </g>
                <g transform="matrix(1,0,0,1,2964.76,6682.4)">
                    <path d="M0,-33.336L0.152,-33.893L0.557,-34.302L1.117,-34.45L3.997,-34.45L4.554,-34.302L4.963,-33.893L5.111,-33.336L5.111,-24.799L4.963,-24.242L4.554,-23.833L3.997,-23.685L1.117,-23.685L0.557,-23.833L0.152,-24.242L0,-24.799L0,-33.336ZM-4.078,41.947L1.156,41.073L6.437,40.544L11.742,40.364L19.948,40.364L19.948,40.322L23.483,40.322L19.976,-46.992L18.728,-78.047L6.423,-76.944L-9.035,-75.149L-11.026,-74.311L-12.626,-72.957L-13.748,-71.184L-14.318,-69.03L-14.318,44.711L-9.246,43.16L-4.078,41.947Z" style="fill:rgb(0,188,218);fill-rule:nonzero;"/>
                </g>
                <g transform="matrix(1,0,0,1,2991.7,6625.4)">
                    <path d="M0,-0.013L0.011,0L49.893,0L49.903,-0.013L0,-0.013Z" style="fill:rgb(0,188,218);fill-rule:nonzero;"/>
                </g>
                <g transform="matrix(1,0,0,1,3158.65,6603.98)">
                    <path d="M0,31.429L4.184,31.429L5.432,0.374L1.262,0L0,31.429Z" style="fill:rgb(0,188,218);fill-rule:nonzero;"/>
                </g>
                <g transform="matrix(1,0,0,1,3155.13,6635.41)">
                    <path d="M0,87.314L4.184,87.314L7.695,0L3.511,0L0,87.314Z" style="fill:rgb(0,188,218);fill-rule:nonzero;"/>
                </g>
                <g transform="matrix(1,0,0,1,3199.91,6738.74)">
                    <path d="M0,-125.729L-2.788,-125.366L-2.788,-11.625L0,-7.505L2.041,-2.686L2.383,-0.754L2.785,0.363L2.785,-126.092L2.041,-125.997L0,-125.729Z" style="fill:rgb(0,188,218);fill-rule:nonzero;"/>
                </g>
                <g transform="matrix(1,0,0,1,3182.8,6673.87)">
                    <path d="M0,-16.261L-0.148,-15.704L-0.557,-15.295L-1.114,-15.147L-3.998,-15.147L-4.554,-15.295L-4.963,-15.704L-5.111,-16.261L-5.111,-24.798L-4.963,-25.355L-4.554,-25.764L-3.998,-25.912L-1.114,-25.912L-0.557,-25.764L-0.148,-25.355L0,-24.798L0,-16.261ZM13.751,-62.646L12.63,-64.419L11.026,-65.773L9.034,-66.612L-6.419,-68.406L-18.725,-69.509L-19.973,-38.454L-23.484,48.86L-19.945,48.86L-19.945,48.902L-11.738,48.902L-6.437,49.082L-1.156,49.61L4.078,50.485L9.246,51.697L14.322,53.248L14.322,-60.493L13.751,-62.646Z" style="fill:rgb(0,188,218);fill-rule:nonzero;"/>
                </g>
                <g transform="matrix(1,0,0,1,3073.79,6619.51)">
                    <path d="M0,-0.01L0,0L24.938,0L24.948,-0.01L0,-0.01Z" style="fill:rgb(0,188,218);fill-rule:nonzero;"/>
                </g>
                <g transform="matrix(1,0,0,1,3073.79,6625.4)">
                    <path d="M0,-0.013L0,0L24.938,0L24.948,-0.013L0,-0.013Z" style="fill:rgb(0,188,218);fill-rule:nonzero;"/>
                </g>
                <g transform="matrix(1,0,0,1,2944.87,6649.93)">
                    <path d="M0,-37.287L0,87.906L0.747,85.805L2.788,81.251L5.577,77.18L5.577,-36.561L2.788,-36.924L0.747,-37.192L0,-37.287Z" style="fill:rgb(0,188,218);fill-rule:nonzero;"/>
                </g>
                <g transform="matrix(1,0,0,1,3056.12,6607.07)">
                    <path d="M41.595,22.07L-6.278,22.07L-6.553,22.014L-7.198,21.887L-7.977,21.365L-8.499,20.586L-8.679,19.666L-8.679,18.605L-8.101,18.326L-7.293,18.312L42.61,18.312L43.421,18.326L43.999,18.605L43.999,19.666L43.815,20.586L43.294,21.365L42.515,21.887L41.595,22.07ZM-8.679,12.722L-8.101,12.443L-7.293,12.433L42.61,12.433L43.421,12.443L43.999,12.722L43.999,13.786L43.815,14.706L43.294,15.485L42.515,16.007L41.595,16.187L-6.278,16.187L-7.198,16.007L-7.977,15.485L-8.499,14.706L-8.679,13.786L-8.679,12.722ZM-8.679,7.907L-8.679,6.564L-8.101,6.564L-7.293,6.549L42.61,6.549L43.421,6.564L43.999,6.564L43.999,7.907L43.815,8.827L43.294,9.606L42.515,10.124L41.595,10.307L-6.278,10.307L-7.198,10.124L-7.977,9.606L-8.499,8.827L-8.679,7.907ZM-4.523,-1.851L-4.371,-2.408L-3.966,-2.816L-3.405,-2.964L5.136,-2.964L5.693,-2.816L6.031,-2.478L6.102,-2.408L6.25,-1.851L6.25,1.029L6.102,1.586L5.693,1.995L5.136,2.143L-3.405,2.143L-3.966,1.995L-3.983,1.978L-4.371,1.586L-4.523,1.029L-4.523,-1.851ZM12.274,-1.851L12.422,-2.408L12.831,-2.816L13.388,-2.964L21.929,-2.964L22.486,-2.816L22.895,-2.408L23.043,-1.851L23.043,1.029L22.895,1.586L22.486,1.995L21.929,2.143L13.388,2.143L12.831,1.995L12.422,1.586L12.295,1.117L12.274,1.029L12.274,-1.851ZM29.067,1.029L29.067,-1.851L29.219,-2.408L29.624,-2.816L30.184,-2.964L38.725,-2.964L39.282,-2.816L39.691,-2.408L39.839,-1.851L39.839,1.029L39.691,1.586L39.282,1.995L38.725,2.143L30.184,2.143L29.624,1.995L29.219,1.586L29.067,1.029ZM-13.131,7.907L-13.314,8.827L-13.836,9.606L-14.615,10.124L-15.535,10.307L-63.407,10.307L-64.327,10.124L-65.107,9.606L-65.628,8.827L-65.808,7.907L-65.808,6.842L-65.23,6.564L-64.423,6.549L-14.52,6.549L-13.709,6.564L-13.131,6.842L-13.131,7.907ZM-13.131,13.786L-13.314,14.706L-13.836,15.485L-14.615,16.007L-15.535,16.187L-63.407,16.187L-64.327,16.007L-65.107,15.485L-65.628,14.706L-65.808,13.786L-65.808,12.722L-65.23,12.443L-64.423,12.433L-14.52,12.433L-13.709,12.443L-13.131,12.722L-13.131,13.786ZM-13.131,19.666L-13.314,20.586L-13.836,21.365L-14.615,21.887L-15.535,22.07L-63.407,22.07L-64.327,21.887L-65.107,21.365L-65.628,20.586L-65.808,19.666L-65.808,18.605L-65.23,18.326L-65.1,18.326L-64.423,18.312L-14.52,18.312L-13.709,18.326L-13.131,18.605L-13.131,19.666ZM48.807,-1.537L95.157,-1.537L95.157,26.416L48.807,26.416L48.807,-1.537ZM102.521,28.341L103.782,-3.088L95.647,-3.814L70.986,-5.368L46.322,-6.271L-11.001,-6.271L-35.669,-5.368L-60.327,-3.814L-68.466,-3.088L-67.204,28.341L102.521,28.341Z" style="fill:rgb(0,188,218);fill-rule:nonzero;"/>
                </g>
                <g transform="matrix(1,0,0,1,2991.7,6619.51)">
                    <path d="M0,-0.01L0.011,0L49.893,0L49.903,-0.01L0,-0.01Z" style="fill:rgb(0,188,218);fill-rule:nonzero;"/>
                </g>
                <g transform="matrix(1,0,0,1,3051.75,6608.9)">
                    <path d="M0,-0.244L0.388,0.146L0.437,0.146L0.679,-0.006L0.295,-0.39L0,-0.244Z" style="fill:rgb(221,221,221);fill-rule:nonzero;"/>
                </g>
                <g transform="matrix(0.850068,0.526673,0.526673,-0.850068,3061.54,6608.7)">
                    <path d="M0.107,-0.164L0.432,-0.164L0.563,0.398L0.235,0.367L0.107,-0.164Z" style="fill:rgb(221,221,221);fill-rule:nonzero;"/>
                </g>
                <g transform="matrix(1,0,0,1,3052.02,6608.51)">
                    <path d="M0,-3.658L-0.11,-3.238L-0.11,-0.523L0.032,0.004L0.348,-0.175L0.24,-0.587L0.24,-3.192L0.348,-3.601L0.236,-3.662L0,-3.658Z" style="fill:rgb(221,221,221);fill-rule:nonzero;"/>
                </g>
                <g transform="matrix(1,0,0,1,3059.01,6604.74)">
                    <path d="M2.251,-0.635L-6.291,-0.635L-6.849,-0.485L-6.575,-0.384L-6.05,-0.525L2.008,-0.525L2.533,-0.384L2.702,-0.215L2.922,0L3.217,-0.078L2.81,-0.485L2.251,-0.635Z" style="fill:rgb(221,221,221);fill-rule:nonzero;"/>
                </g>
                <g transform="matrix(0.283783,0.958888,0.958888,-0.283783,3061.24,6608.49)">
                    <path d="M0.122,-0.372L0.457,-0.372L0.469,0.172L0.131,0.054L0.122,-0.372Z" style="fill:rgb(221,221,221);fill-rule:nonzero;"/>
                </g>
                <g transform="matrix(1,0,0,1,3061.61,6608.35)">
                    <path d="M0,-3.438L0.11,-3.029L0.11,-0.424L0,-0.012L0.321,0.167L0.462,-0.36L0.462,-3.075L0.321,-3.605L0,-3.438Z" style="fill:rgb(221,221,221);fill-rule:nonzero;"/>
                </g>
                <g transform="matrix(1,0,0,1,3059.65,6609.21)">
                    <path d="M0,-0.177L0.078,0L0.451,0L0.673,-0.052L0.614,-0.177L0,-0.177Z" style="fill:rgb(221,221,221);fill-rule:nonzero;"/>
                </g>
                <g transform="matrix(1,0,0,1,3060.46,6609.21)">
                    <path d="M0,-0.177L-0.139,-0.052L-0.361,0L0.802,0L0.559,-0.177L0,-0.177Z" style="fill:rgb(221,221,221);fill-rule:nonzero;"/>
                </g>
                <g transform="matrix(1,0,0,1,3099.55,6613.91)">
                    <path d="M0,-0.278L0.578,0L0.578,-0.278L0,-0.278Z" style="fill:rgb(221,221,221);fill-rule:nonzero;"/>
                </g>
                <g transform="matrix(0.967149,0.254211,0.254211,-0.967149,3098.3,6615.56)">
                    <path d="M0.095,-0.075L0.618,-0.075L0.561,0.822L0.046,0.732L0.095,-0.075Z" style="fill:rgb(221,221,221);fill-rule:nonzero;"/>
                </g>
                <g transform="matrix(-0.606416,0.795148,0.795148,0.606416,3098.93,6613.79)">
                    <path d="M-0.001,-0.262L0.323,-0.262L0.011,0.156L-0.016,-0.242L-0.001,-0.262Z" style="fill:rgb(221,221,221);fill-rule:nonzero;"/>
                </g>
                <g transform="matrix(1,0,0,1,3175.76,6766.22)">
                    <path d="M0,-5.442L0,-5.456L0.211,-5.77L0.222,-5.787L1.548,-7.769L3.247,-8.904L3.86,-9.316L6.592,-9.859L6.592,-9.845L8.509,-9.464L8.555,-9.468L9.32,-9.316L11.636,-7.769L12.175,-6.965L12.179,-6.961L13.183,-5.456L13.183,-5.442L13.726,-2.728L13.183,0.004L11.636,2.317L9.32,3.86L6.592,4.403L3.86,3.86L1.548,2.317L0,0.004L-0.543,-2.728L0,-5.442ZM0.409,3.455L3.243,5.348L3.243,5.362L6.592,6.028L9.937,5.362L9.937,5.348L12.775,3.455L14.671,0.617L15.337,-2.714L15.337,-2.728L14.671,-6.073L12.775,-8.907L9.937,-10.803L6.592,-11.47L3.243,-10.803L0.409,-8.907L-1.488,-6.073L-2.154,-2.728L-2.154,-2.714L-1.872,-1.29L-1.868,-1.29L-1.872,-1.29L-1.488,0.617L-1.488,0.632L-1.036,1.308L-1.036,1.294L0.409,3.455Z" style="fill:rgb(221,221,221);fill-rule:nonzero;"/>
                </g>
                <g transform="matrix(1,0,0,1,2944.87,6811.97)">
                    <path d="M0,42.829L0,-30.773L-0.046,-30.78L-1.128,-30.917L-1.396,-31.231L-1.396,-34.055L-2.732,-31.594L-2.732,42.829L0,42.829Z" style="fill:rgb(221,221,221);fill-rule:nonzero;"/>
                </g>
                <g transform="matrix(1,0,0,1,3201.95,6854.55)">
                    <path d="M0,-9.56L-2.041,-9.743L-4.829,-9.81L-251.508,-9.81L-254.296,-9.743L-256.337,-9.56L-257.084,-9.313L-257.084,0.25L0.744,0.25L0.744,-9.313L0,-9.56Z" style="fill:rgb(221,221,221);fill-rule:nonzero;"/>
                </g>
                <g transform="matrix(1,0,0,1,3203.82,6780.89)">
                    <path d="M0,-0.361L0,0.169L0.268,-0.146L0.268,-0.53L0,-0.361Z" style="fill:rgb(221,221,221);fill-rule:nonzero;"/>
                </g>
                <g transform="matrix(1,0,0,1,3204.09,6852.77)">
                    <path d="M0,-74.857L0,-72.033L-0.268,-71.72L-1.35,-71.582L-1.396,-71.575L-1.396,2.027L1.339,2.027L1.339,-72.396L0,-74.857Z" style="fill:rgb(221,221,221);fill-rule:nonzero;"/>
                </g>
                <g transform="matrix(0.685046,0.7285,0.7285,-0.685046,2943.52,6780.53)">
                    <path d="M0.037,-0.1L0.429,-0.1L0.146,0.166L-0.161,0.087L0.037,-0.1Z" style="fill:rgb(221,221,221);fill-rule:nonzero;"/>
                </g>
                <g transform="matrix(0.749838,0.661622,0.661622,-0.749838,3097.38,6622.24)">
                    <path d="M0.178,-0.343L0.632,-0.343L0.863,0.522L0.379,0.405L0.178,-0.343Z" style="fill:rgb(221,221,221);fill-rule:nonzero;"/>
                </g>
                <g transform="matrix(1,0,0,1,3047.45,6613.91)">
                    <path d="M0,-0.278L0,0L0.578,-0.278L0,-0.278Z" style="fill:rgb(221,221,221);fill-rule:nonzero;"/>
                </g>
                <g transform="matrix(1,0,0,1,3073.79,6609.21)">
                    <path d="M0,-0.177L0,0L4.149,0L4.107,-0.12L4.029,-0.177L0,-0.177Z" style="fill:rgb(221,221,221);fill-rule:nonzero;"/>
                </g>
                <g transform="matrix(-0.810592,0.585611,0.585611,0.810592,3073.23,6608.09)">
                    <path d="M3.374,-1.268L3.676,-1.268L0.212,1.235L0.108,1.091L3.374,-1.268Z" style="fill:rgb(221,221,221);fill-rule:nonzero;"/>
                </g>
                <g transform="matrix(-0.753198,0.657793,0.657793,0.753198,3048.84,6613.89)">
                    <path d="M-0.155,-0.204L0.243,-0.204L-0.153,0.135L-0.173,-0.189L-0.155,-0.204Z" style="fill:rgb(221,221,221);fill-rule:nonzero;"/>
                </g>
                <g transform="matrix(0.985249,0.171128,0.171128,-0.985249,3096.76,6622.93)">
                    <path d="M0.015,-0.162L1.002,-0.162L1.877,0.172L0.853,0.163L0.015,-0.162Z" style="fill:rgb(221,221,221);fill-rule:nonzero;"/>
                </g>
                <g transform="matrix(1,0,0,1,3048.93,6623.09)">
                    <path d="M0,-0.012L0.922,0.167L1.717,0.03L1.717,-0.037L1.013,-0.179L0,-0.012Z" style="fill:rgb(221,221,221);fill-rule:nonzero;"/>
                </g>
                <g transform="matrix(1,0,0,1,3095.41,6623.26)">
                    <path d="M1.333,-0.169L-44.592,-0.169L-44.771,-0.137L-45.566,0L2.306,0L1.333,-0.169Z" style="fill:rgb(221,221,221);fill-rule:nonzero;"/>
                </g>
                <g transform="matrix(1,0,0,1,3098.75,6619.79)">
                    <path d="M0.797,-0.278L-50.724,-0.278L-51.302,0L-50.23,-0.018L-49.709,-0.023L-0.221,-0.023L0.3,-0.018L1.375,0L0.797,-0.278Z" style="fill:rgb(221,221,221);fill-rule:nonzero;"/>
                </g>
                <g transform="matrix(1,0,0,1,3048.83,6619.51)">
                    <path d="M0,-0.01L0.011,0L24.955,0L24.955,-0.01L0,-0.01Z" style="fill:rgb(221,221,221);fill-rule:nonzero;"/>
                </g>
                <g transform="matrix(1,0,0,1,3098.75,6625.68)">
                    <path d="M0.797,-0.281L-50.724,-0.281L-51.302,0L-50.23,-0.019L-49.709,-0.026L-0.221,-0.026L0.3,-0.019L1.375,0L0.797,-0.281Z" style="fill:rgb(221,221,221);fill-rule:nonzero;"/>
                </g>
                <g transform="matrix(1,0,0,1,3048.83,6625.4)">
                    <path d="M0,-0.013L0.011,0L24.955,0L24.955,-0.013L0,-0.013Z" style="fill:rgb(221,221,221);fill-rule:nonzero;"/>
                </g>
                <g transform="matrix(1,0,0,1,3199.91,6845.24)">
                    <path d="M2.785,-28.076L-255.043,-28.076L-255.043,0L-254.296,-0.246L-252.255,-0.43L-249.467,-0.497L-249.467,-1.018L-249.344,-1.032L-249.001,-1.043L-248.54,-1.046L-3.719,-1.046L-3.253,-1.043L-2.915,-1.032L-2.788,-1.018L-2.788,-0.497L0,-0.43L2.041,-0.246L2.785,0L2.785,-28.076Z" style="fill:rgb(221,221,221);fill-rule:nonzero;"/>
                </g>
                <g transform="matrix(1,0,0,1,2971.81,6760.78)">
                    <path d="M0,5.45L-1.544,7.762L-3.86,9.306L-6.592,9.849L-9.32,9.306L-11.636,7.762L-13.183,5.45L-13.726,2.718L-13.183,0.004L-13.183,-0.01L-12.179,-1.512L-12.172,-1.519L-11.636,-2.323L-9.32,-3.87L-9.32,-3.856L-8.509,-4.018L-8.552,-4.022L-6.592,-4.413L-6.592,-4.399L-3.86,-3.856L-1.544,-2.309L-1.544,-2.323L-0.222,-0.342L-0.211,-0.324L0,-0.01L0,0.004L0.543,2.718L0,5.45ZM1.488,6.077L1.488,6.063L1.872,4.156L1.868,4.156L1.872,4.156L2.154,2.732L2.154,2.718L1.488,-0.627L-0.405,-3.461L-3.243,-5.358L-6.592,-6.024L-9.937,-5.358L-12.775,-3.461L-14.671,-0.627L-15.337,2.718L-15.337,2.732L-14.671,6.063L-12.775,8.901L-9.937,10.794L-6.592,11.46L-6.592,11.474L-3.243,10.808L-3.243,10.794L-0.405,8.901L-0.405,8.915L-0.296,8.749L1.036,6.754L1.488,6.077Z" style="fill:rgb(221,221,221);fill-rule:nonzero;"/>
                </g>
                <g transform="matrix(1,0,0,1,3077.82,6608.05)">
                    <path d="M0,0.857L0.042,0.973L0.518,0.847L0.564,0.8L0.532,0.727L0.85,0.43L0.917,0.363L0.924,0.378L1.044,-0.067L0.691,-0.13L0.582,0.282L0.307,0.554L-0.102,0.667L-0.007,0.987L0.042,0.973L0,0.857Z" style="fill:rgb(221,221,221);fill-rule:nonzero;"/>
                </g>
                <g transform="matrix(1,0,0,1,3069.23,6608.75)">
                    <path d="M0,0.15L0.361,0.247L0.39,0.169L0.361,0.247L0.53,0.291L0.62,-0.029L0.211,-0.141L0,0.15Z" style="fill:rgb(221,221,221);fill-rule:nonzero;"/>
                </g>
                <g transform="matrix(1,0,0,1,3068.7,6608.73)">
                    <path d="M0,-3.459L0,-0.744L-0.112,-0.701L-0.006,-0.307L-0.112,-0.09L-0.133,-0.05L0.253,0.338L0.525,0.168L0.141,-0.216L0.462,-0.396L0.352,-0.807L0.352,-3.412L0,-3.459Z" style="fill:rgb(221,221,221);fill-rule:nonzero;"/>
                </g>
                <g transform="matrix(1,0,0,1,3068.84,6604.49)">
                    <path d="M0,0.249L0.131,0.317L0.257,0.384L0.38,0.352L0.595,0.139L0.384,-0.135L0,0.249Z" style="fill:rgb(221,221,221);fill-rule:nonzero;"/>
                </g>
                <g transform="matrix(1,0,0,1,3073.79,6812.83)">
                    <rect x="-15.665" y="-0.046" width="31.33" height="0.046" style="fill:rgb(221,221,221);fill-rule:nonzero;"/>
                </g>
                <g transform="matrix(1,0,0,1,0,5220.35)">
                    <rect x="3171.01" y="1592.43" width="2.426" height="0.046" style="fill:rgb(221,221,221);"/>
                </g>
                <g transform="matrix(1,0,0,1,3174.72,6812.83)">
                    <rect x="-1.287" y="-0.046" width="4.525" height="0.046" style="fill:rgb(221,221,221);fill-rule:nonzero;"/>
                </g>
                <g transform="matrix(1,0,0,1,3180.39,6812.83)">
                    <rect x="-2.43" y="-0.046" width="10.857" height="0.046" style="fill:rgb(221,221,221);fill-rule:nonzero;"/>
                </g>
                <g transform="matrix(1,0,0,1,2967.18,6812.83)">
                    <rect x="-8.431" y="-0.046" width="10.855" height="0.046" style="fill:rgb(221,221,221);fill-rule:nonzero;"/>
                </g>
                <g transform="matrix(1,0,0,1,2976.56,6812.83)">
                    <rect x="-2.426" y="-0.046" width="6.791" height="0.046" style="fill:rgb(221,221,221);fill-rule:nonzero;"/>
                </g>
                <g transform="matrix(1,0,0,1,2972.85,6812.83)">
                    <rect x="-3.24" y="-0.046" width="4.527" height="0.046" style="fill:rgb(221,221,221);fill-rule:nonzero;"/>
                </g>
                <g transform="matrix(1,0,0,1,3153.63,6808.77)">
                    <path d="M0,-1.005L0,-1.047L-1.223,-0.666L-3.352,0L-3.352,0.042L-1.223,-0.621L0,-1.005Z" style="fill:rgb(221,221,221);fill-rule:nonzero;"/>
                </g>
                <g transform="matrix(0,1,1,0,2996.15,6806.6)">
                    <path d="M1.131,-2.22L1.173,-2.22L2.22,1.132L2.178,1.132L1.131,-2.22Z" style="fill:rgb(221,221,221);fill-rule:nonzero;"/>
                </g>
                <g transform="matrix(1,0,0,1,2980.54,6810.6)">
                    <rect x="0" y="0.011" width="0.279" height="0.042" style="fill:rgb(221,221,221);"/>
                </g>
                <g transform="matrix(0.0508087,0.998708,0.998708,-0.0508087,2981.21,6812.14)">
                    <path d="M-0.302,-0.596L0.328,-0.596L0.627,-0.317L-0.288,-0.322L-0.302,-0.596Z" style="fill:rgb(221,221,221);fill-rule:nonzero;"/>
                </g>
                <g transform="matrix(1,0,0,1,2980.55,6811.87)">
                    <path d="M0,-0.989L0.025,-0.519L0.051,0L0.325,0L0.3,-0.519L0.281,-0.989L0,-0.989Z" style="fill:rgb(221,221,221);fill-rule:nonzero;"/>
                </g>
                <g transform="matrix(1,0,0,1,3073.79,6643.3)">
                    <rect x="-51.091" y="-0.027" width="102.177" height="0.027" style="fill:rgb(221,221,221);fill-rule:nonzero;"/>
                </g>
                <g transform="matrix(1,0,0,1,3058.19,6715.53)">
                    <rect x="-11.745" y="-0.032" width="24.547" height="0.032" style="fill:rgb(221,221,221);fill-rule:nonzero;"/>
                </g>
                <g transform="matrix(1,0,0,1,3017.8,6708.46)">
                    <path d="M0,-61.867L0,-61.895L1.001,-63.573L2.591,-64.705L4.889,-65.187L107.068,-65.187L109.366,-64.705L110.956,-63.573L111.96,-61.895L110.956,-63.573L109.366,-64.705L109.366,-64.676L110.956,-63.545L111.96,-61.867L112.257,-59.569L108.037,-6.916L107.565,-4.78L106.648,-3.084L105.305,-1.706L103.61,-0.73L103.268,-0.564L96.8,1.579L90.113,2.88L83.193,3.321L28.764,3.321L21.844,2.88L15.157,1.579L8.689,-0.564L8.347,-0.73L6.652,-1.706L5.309,-3.084L4.396,-4.78L3.92,-6.916L-0.296,-59.569L0,-61.867ZM0.877,-3.472L2.284,-0.867L4.35,1.255L6.609,2.559L7.293,2.887L14.213,5.178L21.368,6.571L28.644,7.036L83.313,7.036L90.588,6.571L97.744,5.178L104.664,2.887L105.348,2.559L107.611,1.255L109.673,-0.867L111.079,-3.472L111.721,-6.362L115.993,-59.629L115.993,-59.657L115.549,-63.136L113.748,-66.146L110.889,-68.184L107.452,-68.903L4.505,-68.903L1.068,-68.184L-1.791,-66.146L-3.592,-63.136L-4.033,-59.657L-4.033,-59.629L0.236,-6.362L0.877,-3.472Z" style="fill:rgb(221,221,221);fill-rule:nonzero;"/>
                </g>
                <g transform="matrix(0.901173,0.433459,0.433459,-0.901173,3024.51,6710.92)">
                    <rect x="-0.032" y="-0.163" width="0.746" height="0.026" style="fill:rgb(221,221,221);"/>
                </g>
                <g transform="matrix(1,0,0,1,3073.79,6715.53)">
                    <path d="M0.454,-0.032L-2.789,-0.032L-2.789,0L0.458,0L0.454,-0.032Z" style="fill:rgb(221,221,221);fill-rule:nonzero;"/>
                </g>
                <g transform="matrix(1,0,0,1,3127.48,6708.45)">
                    <path d="M0,-0.85L-2.062,1.272L-4.325,2.576L-4.325,2.605L-2.062,1.3L0,-0.822L1.406,-3.427L1.406,-3.455L0,-0.85Z" style="fill:rgb(221,221,221);fill-rule:nonzero;"/>
                </g>
                <g transform="matrix(1,0,0,1,3073.79,6733.62)">
                    <path d="M2.7,-0.108L-2.704,-0.108L-2.715,0L2.713,0L2.7,-0.108Z" style="fill:rgb(221,221,221);fill-rule:nonzero;"/>
                </g>
                <g transform="matrix(0.845864,0.533399,0.533399,-0.845864,3203.79,6776.67)">
                    <path d="M0.079,-0.055L0.396,-0.055L0.251,0.175L-0.128,0.274L0.079,-0.055Z" style="fill:rgb(221,221,221);fill-rule:nonzero;"/>
                </g>
                <g transform="matrix(0.993058,0.117624,0.117624,-0.993058,3202.69,6776.2)">
                    <path d="M0.007,-0.03L0.526,-0.03L0.423,0.115L-0.011,0.119L0.007,-0.03Z" style="fill:rgb(221,221,221);fill-rule:nonzero;"/>
                </g>
                <g transform="matrix(1,0,0,1,3202.7,6775.41)">
                    <path d="M0,0.675L0.43,0.73L0,-0.055L0,0.675Z" style="fill:rgb(221,221,221);fill-rule:nonzero;"/>
                </g>
                <g transform="matrix(1,0,0,1,3202.7,6764.93)">
                    <rect x="0" y="-16.656" width="0.93" height="16.656" style="fill:rgb(221,221,221);fill-rule:nonzero;"/>
                </g>
                <g transform="matrix(1,0,0,1,3202.7,6748.28)">
                    <rect x="0" y="-88.544" width="0.93" height="88.544" style="fill:rgb(221,221,221);fill-rule:nonzero;"/>
                </g>
                <g transform="matrix(1,0,0,1,3227.06,6660.53)">
                    <path d="M-1.174,11.287L0.43,11.287L0.43,4.773L-1.153,4.445L-22.55,0L-22.55,9.426L-23.431,9.426L-23.431,9.486L-1.174,11.287Z" style="fill:rgb(221,221,221);fill-rule:nonzero;"/>
                </g>
                <g transform="matrix(1,0,0,1,3204.41,6669.96)">
                    <rect x="-0.785" y="-10.222" width="0.882" height="10.222" style="fill:rgb(221,221,221);fill-rule:nonzero;"/>
                </g>
                <g transform="matrix(0,1,1,0,3227.16,6664.05)">
                    <path d="M0.329,-1.253L0.924,-1.253L1.253,0.329L0.329,0.329L0.329,-1.253Z" style="fill:rgb(221,221,221);fill-rule:nonzero;"/>
                </g>
                <g transform="matrix(1,0,0,1,3228.24,6671.82)">
                    <rect x="-0.751" y="-7.438" width="0.844" height="7.438" style="fill:rgb(221,221,221);fill-rule:nonzero;"/>
                </g>
                <g transform="matrix(1,0,0,1,3237.5,6679.4)">
                    <path d="M0,30.192L-0.68,32.152L-2.542,33.587L-5.079,34.112L-16.684,34.112L-19.225,33.587L-21.083,32.152L-21.763,30.192L-21.763,0L-21.083,-1.959L-19.225,-3.394L-16.684,-3.919L-5.079,-3.919L-2.542,-3.394L-0.68,-1.959L0,0L0,30.192ZM-0.306,-2.488L-2.224,-3.969L-4.84,-4.508L-16.804,-4.508L-19.423,-3.969L-21.34,-2.488L-22.042,-0.468L-22.042,30.661L-21.34,32.681L-19.423,34.161L-16.804,34.7L-4.84,34.7L-2.224,34.161L-0.306,32.681L0.395,30.661L0.395,-0.468L-0.306,-2.488Z" style="fill:rgb(221,221,221);fill-rule:nonzero;"/>
                </g>
                <g transform="matrix(1,0,0,1,3227.06,6671.82)">
                    <rect x="-1.174" y="0" width="2.531" height="3.077" style="fill:rgb(221,221,221);fill-rule:nonzero;"/>
                </g>
                <g transform="matrix(1,0,0,1,3069.51,6604.36)">
                    <path d="M0,-0.251L-0.557,-0.101L-0.285,0L0.245,-0.141L4.274,-0.141L4.274,-0.251L0,-0.251Z" style="fill:rgb(221,221,221);fill-rule:nonzero;"/>
                </g>
                <g transform="matrix(1,0,0,1,3077.81,6605.11)">
                    <path d="M0,-0.896L0.525,-0.755L0.314,-0.48L0.589,-0.205L0.673,-0.251L0.483,-0.533L0.673,-0.251L0.733,-0.163L1.04,0.109L1.015,0.021L0.871,-0.184L1.015,0.021L0.909,-0.371L1.206,-0.448L0.797,-0.857L0.24,-1.005L-4.029,-1.005L-4.029,-0.896L0,-0.896Z" style="fill:rgb(221,221,221);fill-rule:nonzero;"/>
                </g>
                <g transform="matrix(1,0,0,1,3078.51,6604.91)">
                    <path d="M0,0.403L0.352,0.356L0.342,0.306L0.034,0.036L-0.108,0L0,0.403Z" style="fill:rgb(221,221,221);fill-rule:nonzero;"/>
                </g>
                <g transform="matrix(1,0,0,1,2919.27,6714.69)">
                    <path d="M0,38.038L-2.545,37.513L-4.406,36.074L-5.09,34.115L-5.09,3.923L-4.406,1.963L-2.545,0.529L0,0.003L11.622,0.003L14.164,0.529L16.025,1.963L16.708,3.923L16.708,34.115L16.025,36.074L14.164,37.513L11.622,38.038L0,38.038ZM-0.145,38.623L11.837,38.623L14.459,38.084L16.377,36.603L17.082,34.583L17.082,3.458L16.377,1.434L14.459,-0.042L11.837,-0.585L-0.145,-0.585L-2.767,-0.042L-4.685,1.434L-5.39,3.458L-5.39,34.583L-4.685,36.603L-2.767,38.084L-0.145,38.623Z" style="fill:rgb(221,221,221);fill-rule:nonzero;"/>
                </g>
                <g transform="matrix(1,0,0,1,2926.6,6763.35)">
                    <rect x="0" y="0.002" width="0.017" height="0.473" style="fill:rgb(221,221,221);"/>
                </g>
                <g transform="matrix(1,0,0,1,2924.47,6763.83)">
                    <rect x="-0.215" y="-7.434" width="0.675" height="7.434" style="fill:rgb(221,221,221);fill-rule:nonzero;"/>
                </g>
                <g transform="matrix(1,0,0,1,2924.93,6753.31)">
                    <rect x="-0.79" y="0" width="2.535" height="3.081" style="fill:rgb(221,221,221);fill-rule:nonzero;"/>
                </g>
                <g transform="matrix(1,0,0,1,2924.93,6762.9)">
                    <path d="M0,0.922L1.671,0.922L1.671,0.447L0,0L0,0.922Z" style="fill:rgb(221,221,221);fill-rule:nonzero;"/>
                </g>
                <g transform="matrix(1,0,0,1,2943.48,6765.81)">
                    <path d="M-0.673,-7.564L0.458,-7.564L0.458,-7.624L-16.86,-9.422L-18.549,-9.422L-18.549,-2.911L-16.878,-2.463L-16.86,-2.46L-0.673,1.858L-0.673,-7.564Z" style="fill:rgb(221,221,221);fill-rule:nonzero;"/>
                </g>
                <g transform="matrix(1,0,0,1,2943.94,6748.28)">
                    <rect x="0" y="-88.544" width="0.93" height="88.544" style="fill:rgb(221,221,221);fill-rule:nonzero;"/>
                </g>
                <g transform="matrix(1,0,0,1,2943.94,6764.93)">
                    <rect x="0" y="-16.656" width="0.93" height="16.656" style="fill:rgb(221,221,221);fill-rule:nonzero;"/>
                </g>
                <g transform="matrix(1,0,0,1,2944.87,6761.79)">
                    <path d="M0,3.144L-0.931,3.144L-0.931,-3.539L-2.062,-3.539L-2.062,6.683L0,6.683L0,3.144Z" style="fill:rgb(221,221,221);fill-rule:nonzero;"/>
                </g>
                <g transform="matrix(1,0,0,1,3075.15,6722.89)">
                    <rect x="-4.149" y="-0.12" width="5.573" height="0.12" style="fill:rgb(221,221,221);fill-rule:nonzero;"/>
                </g>
                <g transform="matrix(1,0,0,1,3096.89,6617.25)">
                    <path d="M0,0.103L0.797,0.12L0.017,-0.017L0,0.103Z" style="fill:rgb(221,221,221);fill-rule:nonzero;"/>
                </g>
                <g transform="matrix(1,0,0,1,3096.92,6617.36)">
                    <path d="M0,0.021L0.534,0.021L-0.028,0L0,0.021Z" style="fill:rgb(221,221,221);fill-rule:nonzero;"/>
                </g>
                <g transform="matrix(1,0,0,1,3073.83,6617.38)">
                    <path d="M4.854,-0.169L-0.044,-0.169L-0.034,0L16.3,0L16.31,-0.072L4.854,-0.169Z" style="fill:rgb(221,221,221);fill-rule:nonzero;"/>
                </g>
                <g transform="matrix(1,0,0,1,3090.42,6617.36)">
                    <path d="M6.33,-0.148L-11.733,-0.148L-0.276,-0.051L6.478,0L6.489,-0.121L6.33,-0.148Z" style="fill:rgb(221,221,221);fill-rule:nonzero;"/>
                </g>
                <g transform="matrix(1,0,0,1,3090.16,6617.31)">
                    <rect x="0" y="0.051" width="6.733" height="0.021" style="fill:rgb(221,221,221);"/>
                </g>
                <g transform="matrix(1,0,0,1,3049.85,6617.24)">
                    <path d="M0,0.141L0.264,0.141L0.825,0.12L0.806,0L0,0.141Z" style="fill:rgb(221,221,221);fill-rule:nonzero;"/>
                </g>
                <g transform="matrix(1,0,0,1,3050.11,6617.36)">
                    <path d="M0,0.021L0.561,0.021L0.561,0L0,0.021Z" style="fill:rgb(221,221,221);fill-rule:nonzero;"/>
                </g>
                <g transform="matrix(1,0,0,1,3061.02,6617.36)">
                    <path d="M7.864,-0.148L-10.199,-0.148L-10.36,-0.121L-10.349,0L-3.597,-0.051L7.864,-0.148Z" style="fill:rgb(221,221,221);fill-rule:nonzero;"/>
                </g>
                <g transform="matrix(0.464007,0.885832,0.885832,-0.464007,3052.47,6614.36)">
                    <path d="M1.823,-2.983L1.847,-2.983L4.972,2.984L4.911,3.022L1.823,-2.983Z" style="fill:rgb(221,221,221);fill-rule:nonzero;"/>
                </g>
                <g transform="matrix(1,0,0,1,3068.89,6617.38)">
                    <path d="M0,-0.169L-11.461,-0.072L-11.362,0L4.9,0L4.9,-0.169L0,-0.169Z" style="fill:rgb(221,221,221);fill-rule:nonzero;"/>
                </g>
                <g transform="matrix(1,0,0,1,2944.44,6775.35)">
                    <path d="M0,0.785L0.426,0.73L0.426,0L0,0.785Z" style="fill:rgb(221,221,221);fill-rule:nonzero;"/>
                </g>
                <g transform="matrix(-0.495539,0.868586,0.868586,0.495539,2944.74,6776.07)">
                    <path d="M0.208,-0.222L0.388,-0.222L0.08,0.195L-0.051,0.121L0.208,-0.222Z" style="fill:rgb(221,221,221);fill-rule:nonzero;"/>
                </g>
                <g transform="matrix(0.984559,0.175055,0.175055,-0.984559,3096.76,6628.8)">
                    <path d="M0.015,-0.166L1.003,-0.166L1.876,0.175L0.853,0.159L0.015,-0.166Z" style="fill:rgb(221,221,221);fill-rule:nonzero;"/>
                </g>
                <g transform="matrix(1,0,0,1,3049.28,6629.03)">
                    <path d="M0,-0.13L-0.356,-0.075L0.289,0.053L0.565,0.108L1.333,-0.029L1.333,-0.103L0.656,-0.238L0,-0.13Z" style="fill:rgb(221,221,221);fill-rule:nonzero;"/>
                </g>
                <g transform="matrix(1,0,0,1,3093.98,6629.14)">
                    <path d="M2.517,-0.489L-42.91,-0.489L-43.157,-0.173L-43.364,-0.137L-44.132,0L3.74,0L2.768,-0.173L2.517,-0.489Z" style="fill:rgb(221,221,221);fill-rule:nonzero;"/>
                </g>
                <g transform="matrix(1,0,0,1,3078.92,6608.06)">
                    <path d="M0,-2.801L0.038,-2.744L0.12,-2.48L0.19,-2.248L0.19,0.015L0.249,0.04L0.249,-2.841L0,-2.801Z" style="fill:rgb(221,221,221);fill-rule:nonzero;"/>
                </g>
                <g transform="matrix(1,0,0,1,3078.87,6608.07)">
                    <path d="M0,-2.8L0,-2.614L0.095,-2.475L0,-2.462L0,-0.085L0.048,-0.064L0.242,0.006L0.242,-2.258L0.173,-2.49L0.091,-2.753L0.034,-2.806L0,-2.8Z" style="fill:rgb(221,221,221);fill-rule:nonzero;"/>
                </g>
                <g transform="matrix(1,0,0,1,3086.55,6609.21)">
                    <path d="M0,-0.177L-0.24,0L0.92,0L0.696,-0.052L0.563,-0.177L0,-0.177Z" style="fill:rgb(221,221,221);fill-rule:nonzero;"/>
                </g>
                <g transform="matrix(1,0,0,1,3087.31,6609.21)">
                    <path d="M0,-0.177L-0.061,-0.052L0.162,0L0.536,0L0.614,-0.177L0,-0.177Z" style="fill:rgb(221,221,221);fill-rule:nonzero;"/>
                </g>
                <g transform="matrix(0.965775,0.25938,0.25938,-0.965775,3086.02,6608.81)">
                    <path d="M0.03,-0.078L0.574,-0.078L0.582,0.256L0.154,0.257L0.03,-0.078Z" style="fill:rgb(221,221,221);fill-rule:nonzero;"/>
                </g>
                <g transform="matrix(1,0,0,1,3085.19,6608.1)">
                    <path d="M0,-2.881L0,0L0.152,0.557L0.447,0.412L0.77,0.233L0.656,-0.179L0.308,-0.116L0.308,-2.83L0.447,-3.36L0.152,-3.438L0,-2.881Z" style="fill:rgb(221,221,221);fill-rule:nonzero;"/>
                </g>
                <g transform="matrix(0.289262,0.95725,0.95725,-0.289262,3094.83,6608.49)">
                    <path d="M0.121,-0.372L0.456,-0.372L0.472,0.172L0.133,0.056L0.121,-0.372Z" style="fill:rgb(221,221,221);fill-rule:nonzero;"/>
                </g>
                <g transform="matrix(1,0,0,1,3088.56,6604.36)">
                    <path d="M6.292,-0.251L-2.249,-0.251L-2.81,-0.101L-2.533,0L-2.008,-0.141L6.05,-0.141L6.575,0L6.849,-0.101L6.292,-0.251Z" style="fill:rgb(221,221,221);fill-rule:nonzero;"/>
                </g>
                <g transform="matrix(1,0,0,1,3094.92,6604.57)">
                    <path d="M0,0.059L0.215,0.274L0.388,0.274L0.595,0.169L0.209,-0.215L0,0.059Z" style="fill:rgb(221,221,221);fill-rule:nonzero;"/>
                </g>
                <g transform="matrix(1,0,0,1,3085.85,6604.74)">
                    <path d="M0,-0.213L-0.215,0.002L0.108,0.169L0.378,-0.108L0.266,-0.255L0.171,-0.382L0,-0.213Z" style="fill:rgb(221,221,221);fill-rule:nonzero;"/>
                </g>
                <g transform="matrix(1,0,0,1,3187.96,6780.7)">
                    <path d="M0,5.456L-1.548,7.772L-3.864,9.316L-6.592,9.859L-9.324,9.316L-11.64,7.772L-13.184,5.456L-13.727,2.728L-13.607,2.139L-13.61,2.139L-13.607,2.139L-13.184,0.013L-13.184,-0.001L-12.722,-0.691L-12.592,-0.889L-12.236,-1.425L-11.745,-2.154L-11.64,-2.313L-11.64,-2.302L-9.324,-3.846L-6.592,-4.389L-6.592,-4.403L-3.864,-3.861L-3.864,-3.846L-1.548,-2.302L-1.548,-2.313L-0.977,-1.46L0,-0.001L0,0.013L0.423,2.139L0.542,2.728L0,5.456ZM-0.409,-3.452L-3.247,-5.348L-6.592,-6.014L-9.941,-5.348L-12.778,-3.452L-14.675,-0.617L-15.337,2.728L-15.337,2.742L-15.204,3.408L-14.936,4.772L-14.932,4.772L-14.936,4.772L-14.897,4.956L-14.794,5.456L-14.675,6.073L-14.632,6.136L-13.959,7.141L-13.97,7.141L-13.244,8.227L-12.958,8.653L-12.951,8.653L-12.958,8.653L-12.778,8.925L-11.876,9.527L-11.858,9.524L-11.876,9.527L-10.977,10.127L-10.959,10.123L-10.702,10.296L-10.004,10.765L-9.941,10.803L-7.575,11.276L-6.592,11.47L-3.247,10.803L-0.409,8.911L1.487,6.073L2.154,2.742L2.154,2.728L1.487,-0.617L-0.409,-3.452Z" style="fill:rgb(221,221,221);fill-rule:nonzero;"/>
                </g>
                <g transform="matrix(1,0,0,1,3177.84,6658.16)">
                    <path d="M0,-9.651L-0.148,-9.094L-0.002,-8.89L-0.002,-0.836L-0.148,-0.557L0,0L0.409,0.409L0.523,0.078L0.139,-0.306L0.42,-0.526L0.312,-0.939L0.312,-8.803L0.42,-9.214L0.139,-9.415L0.523,-9.801L0.409,-10.06L0,-9.651Z" style="fill:rgb(221,221,221);fill-rule:nonzero;"/>
                </g>
                <g transform="matrix(1,0,0,1,3181.55,6658.27)">
                    <path d="M0,-0.251L-2.609,-0.251L-3.017,-0.361L-3.189,-0.032L-2.664,0.11L0.053,0.11L0.582,-0.032L0.409,-0.361L0,-0.251Z" style="fill:rgb(221,221,221);fill-rule:nonzero;"/>
                </g>
                <g transform="matrix(1,0,0,1,3178.89,6648.68)">
                    <path d="M0,-0.453L-0.525,-0.314L-0.352,0L0.055,-0.111L2.664,-0.111L3.073,0L3.247,-0.314L2.717,-0.453L0,-0.453Z" style="fill:rgb(221,221,221);fill-rule:nonzero;"/>
                </g>
                <g transform="matrix(1,0,0,1,3184.4,6800.57)">
                    <path d="M0,3.264L-0.927,4.653L-2.316,5.58L-3.955,5.904L-5.594,5.58L-6.983,4.653L-7.91,3.264L-8.234,1.625L-7.91,-0.011L-6.983,-1.4L-5.594,-2.327L-3.955,-2.654L-2.316,-2.327L-0.927,-1.4L0,-0.011L0.328,1.625L0,3.264ZM0.211,-2.538L-1.699,-3.814L-3.955,-4.265L-6.211,-3.814L-8.122,-2.538L-9.397,-0.628L-9.845,1.625L-9.845,1.639L-9.599,2.89L-9.595,2.89L-9.599,2.89L-9.397,3.881L-8.122,5.791L-6.44,6.916L-6.44,6.93L-6.211,7.082L-4.896,7.342L-4.861,7.335L-4.011,7.504L-3.955,7.515L-3.955,7.529L-1.699,7.082L0.211,5.806L1.488,3.895L1.488,3.881L1.939,1.639L1.939,1.625L1.488,-0.628L0.211,-2.538Z" style="fill:rgb(221,221,221);fill-rule:nonzero;"/>
                </g>
                <g transform="matrix(1,0,0,1,2971.08,6800.56)">
                    <path d="M0,3.274L-0.927,4.663L-2.316,5.59L-3.955,5.914L-5.594,5.59L-6.983,4.663L-7.91,3.274L-8.234,1.635L-7.91,-0.001L-6.983,-1.39L-5.594,-2.317L-3.955,-2.644L-2.316,-2.317L-0.927,-1.39L0,-0.001L0.328,1.635L0,3.274ZM1.488,-0.618L0.211,-2.528L-1.699,-3.804L-3.955,-4.255L-6.211,-3.804L-8.122,-2.528L-9.398,-0.618L-9.845,1.635L-9.845,1.649L-9.398,3.891L-8.122,5.801L-6.211,7.077L-6.211,7.092L-4.033,7.525L-4.015,7.514L-3.955,7.525L-3.895,7.514L-3.895,7.529L-3.014,7.352L-3.046,7.345L-1.699,7.077L-1.47,6.926L-1.47,6.94L0.211,5.816L1.488,3.905L1.488,3.891L1.688,2.9L1.685,2.9L1.688,2.9L1.939,1.649L1.935,1.642L1.939,1.635L1.488,-0.618Z" style="fill:rgb(221,221,221);fill-rule:nonzero;"/>
                </g>
                <g transform="matrix(1,0,0,1,2959.18,6784.02)">
                    <path d="M0,-1.178L0.427,-3.303L0.427,-3.318L1.97,-5.63L1.97,-5.619L4.287,-7.163L7.018,-7.706L9.747,-7.163L9.747,-7.178L12.063,-5.63L12.168,-5.471L12.658,-4.742L13.014,-4.206L13.145,-4.008L13.61,-3.318L13.61,-3.303L14.033,-1.178L14.153,-0.589L13.61,2.139L12.063,4.455L9.747,5.999L7.018,6.542L4.287,5.999L1.97,4.455L0.427,2.139L-0.116,-0.589L0,-1.178ZM0.832,5.594L1.558,6.077L3.67,7.486L7.018,8.153L8.002,7.959L8.002,7.973L10.364,7.501L10.364,7.486L10.427,7.448L10.427,7.462L11.143,6.982L11.125,6.979L11.143,6.982L11.4,6.81L12.299,6.21L12.281,6.207L12.299,6.21L13.201,5.608L13.381,5.336L13.374,5.336L13.381,5.336L13.667,4.91L14.393,3.824L15.062,2.823L15.055,2.819L15.098,2.756L15.764,-0.575L15.764,-0.589L15.098,-3.934L13.201,-6.769L10.364,-8.665L7.018,-9.331L3.67,-8.665L0.832,-6.769L-1.064,-3.934L-1.727,-0.589L-1.727,-0.575L-1.064,2.756L0.832,5.594Z" style="fill:rgb(221,221,221);fill-rule:nonzero;"/>
                </g>
                <g transform="matrix(1,0,0,1,3189.92,6740.84)">
                    <path d="M0,5.46L-1.547,7.772L-3.86,9.32L-6.592,9.863L-9.32,9.32L-11.636,7.772L-13.184,5.46L-13.726,2.728L-13.184,0.014L-13.184,0L-11.636,-2.313L-11.431,-2.45L-11.414,-2.45L-9.32,-3.846L-6.592,-4.389L-3.86,-3.846L-1.77,-2.45L-1.749,-2.45L-1.547,-2.313L0,0L0,0.014L0.543,2.728L0,5.46ZM-0.406,-3.451L-3.243,-5.348L-6.592,-6.01L-9.937,-5.348L-12.774,-3.451L-14.671,-0.617L-15.337,2.728L-15.334,2.735L-15.337,2.742L-15.196,3.437L-15.196,3.451L-14.671,6.073L-14.671,6.087L-12.774,8.925L-9.937,10.821L-9.937,10.807L-6.592,11.47L-3.243,10.807L-0.406,8.911L1.488,6.073L2.154,2.742L2.154,2.728L1.488,-0.617L-0.406,-3.451Z" style="fill:rgb(221,221,221);fill-rule:nonzero;"/>
                </g>
                <g transform="matrix(0.703624,0.710573,0.710573,-0.703624,2965.03,6657.99)">
                    <path d="M0.04,-0.2L0.616,-0.2L0.461,0.114L-0.082,0.112L0.04,-0.2Z" style="fill:rgb(221,221,221);fill-rule:nonzero;"/>
                </g>
                <g transform="matrix(0.496535,0.868017,0.868017,-0.496535,2964.97,6648.24)">
                    <path d="M0.206,-0.182L0.478,-0.182L0.333,0.343L0.052,0.373L0.206,-0.182Z" style="fill:rgb(221,221,221);fill-rule:nonzero;"/>
                </g>
                <g transform="matrix(1,0,0,1,2969.59,6657.93)">
                    <path d="M0,-9.178L0.141,-8.653L0.141,-0.599L0,-0.069L0.137,0.236L0.285,-0.32L0.285,-8.857L0.137,-9.414L0,-9.178Z" style="fill:rgb(221,221,221);fill-rule:nonzero;"/>
                </g>
                <g transform="matrix(1,0,0,1,2969.04,6658.11)">
                    <path d="M0,-0.196L-0.414,-0.086L-3.019,-0.086L-3.43,-0.196L-3.603,0.133L-3.073,0.274L-0.357,0.274L0.169,0.133L0.552,-0.251L0.27,-0.47L0,-0.196Z" style="fill:rgb(221,221,221);fill-rule:nonzero;"/>
                </g>
                <g transform="matrix(0.96448,0.264157,0.264157,-0.96448,2964.86,6649.21)">
                    <path d="M0.066,-0.048L0.391,-0.048L0.389,0.377L0.063,0.495L0.066,-0.048Z" style="fill:rgb(221,221,221);fill-rule:nonzero;"/>
                </g>
                <g transform="matrix(1,0,0,1,2965.96,6648.95)">
                    <path d="M0,-0.726L-0.53,-0.587L-0.356,-0.273L0.055,-0.384L2.66,-0.384L3.073,-0.273L3.344,0L3.626,-0.201L3.242,-0.587L2.717,-0.726L0,-0.726Z" style="fill:rgb(221,221,221);fill-rule:nonzero;"/>
                </g>
                <g transform="matrix(-1,0,0,1,6256.21,4833.76)">
                    <rect x="3104.93" y="1771.77" width="46.35" height="27.953" style="fill:rgb(221,221,221);"/>
                </g>
                <g transform="matrix(1,0,0,1,2970.83,6740.84)">
                    <path d="M0,5.46L-1.548,7.772L-3.86,9.32L-6.592,9.863L-9.324,9.32L-11.636,7.772L-13.184,5.46L-13.726,2.728L-13.184,0.014L-13.184,0L-11.636,-2.313L-11.435,-2.45L-9.324,-3.86L-9.324,-3.846L-6.592,-4.389L-3.86,-3.846L-1.77,-2.45L-1.749,-2.45L-1.548,-2.313L0,0L0,0.014L0.543,2.728L0,5.46ZM-0.409,-3.451L-3.247,-5.348L-6.592,-6.01L-9.937,-5.348L-12.775,-3.451L-14.671,-0.617L-15.337,2.728L-15.337,2.742L-14.671,6.073L-12.775,8.911L-9.937,10.807L-6.592,11.47L-3.247,10.807L-0.409,8.911L1.488,6.073L2.013,3.451L2.013,3.437L2.154,2.742L2.154,2.728L1.488,-0.617L-0.409,-3.451Z" style="fill:rgb(221,221,221);fill-rule:nonzero;"/>
                </g>
                <g transform="matrix(-0.610306,0.792165,0.792165,0.610306,3041.8,6613.8)">
                    <path d="M-0.003,-0.26L0.321,-0.26L0.007,0.155L-0.017,-0.242L-0.003,-0.26Z" style="fill:rgb(221,221,221);fill-rule:nonzero;"/>
                </g>
                <g transform="matrix(-0.753198,0.657793,0.657793,0.753198,2991.7,6613.89)">
                    <path d="M-0.155,-0.204L0.243,-0.204L-0.153,0.135L-0.174,-0.187L-0.155,-0.204Z" style="fill:rgb(221,221,221);fill-rule:nonzero;"/>
                </g>
                <g transform="matrix(1,0,0,1,3030.55,6617.38)">
                    <path d="M9.066,-0.169L-6.356,-0.169L-6.335,0L10.039,0L9.066,-0.169Z" style="fill:rgb(221,221,221);fill-rule:nonzero;"/>
                </g>
                <g transform="matrix(1,0,0,1,2999.25,6617.38)">
                    <path d="M24.934,-0.169L-1.426,-0.169L-1.413,0L24.955,0L24.934,-0.169Z" style="fill:rgb(221,221,221);fill-rule:nonzero;"/>
                </g>
                <g transform="matrix(-0.985367,0.170447,0.170447,0.985367,2996.16,6617.17)">
                    <path d="M2.441,-0.379L3.433,-0.379L1.389,-0.025L-0.959,0.21L2.441,-0.379Z" style="fill:rgb(221,221,221);fill-rule:nonzero;"/>
                </g>
                <g transform="matrix(-0.997433,0.0716084,0.0716084,0.997433,2995.44,6617.44)">
                    <path d="M-1.717,-0.107L0.643,-0.107L-2.344,0.107L-2.342,-0.063L-1.717,-0.107Z" style="fill:rgb(221,221,221);fill-rule:nonzero;"/>
                </g>
                <g transform="matrix(0.196757,0.980452,0.980452,-0.196757,2992.07,6620.79)">
                    <rect x="-0.137" y="-0.669" width="0.866" height="0.519" style="fill:rgb(221,221,221);"/>
                </g>
                <g transform="matrix(-1,0,0,1,2999.89,6619.74)">
                    <path d="M-2.455,-0.228L1.875,-0.228L1.858,0L-2.455,-0.228Z" style="fill:rgb(221,221,221);fill-rule:nonzero;"/>
                </g>
                <g transform="matrix(1,0,0,1,3041.62,6619.79)">
                    <path d="M0.797,-0.278L-39.271,-0.278L-43.585,-0.05L-43.558,-0.023L-0.221,-0.023L0.3,-0.018L1.375,0L0.797,-0.278Z" style="fill:rgb(221,221,221);fill-rule:nonzero;"/>
                </g>
                <g transform="matrix(0.981593,0.190984,0.190984,-0.981593,2991.82,6622.9)">
                    <path d="M0.016,-0.181L0.954,-0.181L1.879,0.171L0.976,0.176L0.016,-0.181Z" style="fill:rgb(221,221,221);fill-rule:nonzero;"/>
                </g>
                <g transform="matrix(1,0,0,1,3040.12,6623.18)">
                    <path d="M0,-0.19L-0.504,-0.091L0.399,0.067L0.468,0.078L1.39,-0.101L0.377,-0.268L0,-0.19Z" style="fill:rgb(221,221,221);fill-rule:nonzero;"/>
                </g>
                <g transform="matrix(1,0,0,1,3032.17,6623.26)">
                    <path d="M7.451,-0.169L-38.472,-0.169L-39.449,0L8.375,0L8.354,-0.011L7.451,-0.169Z" style="fill:rgb(221,221,221);fill-rule:nonzero;"/>
                </g>
                <g transform="matrix(1,0,0,1,2991.71,6619.79)">
                    <path d="M4.74,-0.278L-0.819,-0.278L-1.396,0L-0.325,-0.018L0.196,-0.023L1.183,-0.023L4.74,-0.278Z" style="fill:rgb(221,221,221);fill-rule:nonzero;"/>
                </g>
                <g transform="matrix(1,0,0,1,2997.66,6619.74)">
                    <path d="M0,0.027L0.388,0.027L0.378,0L0,0.027Z" style="fill:rgb(221,221,221);fill-rule:nonzero;"/>
                </g>
                <g transform="matrix(1,0,0,1,2996.77,6619.77)">
                    <path d="M0,-0.255L-2.791,0L0.882,0L1.259,-0.027L1.207,-0.255L0,-0.255Z" style="fill:rgb(221,221,221);fill-rule:nonzero;"/>
                </g>
                <g transform="matrix(0.196757,0.980452,0.980452,-0.196757,2992.07,6626.67)">
                    <rect x="-0.137" y="-0.669" width="0.866" height="0.519" style="fill:rgb(221,221,221);"/>
                </g>
                <g transform="matrix(1,0,0,1,3041.62,6625.68)">
                    <path d="M0.797,-0.281L-50.724,-0.281L-51.302,0L-50.23,-0.019L-49.962,-0.021L-49.709,-0.026L-0.221,-0.026L0.3,-0.019L1.375,0L0.797,-0.281Z" style="fill:rgb(221,221,221);fill-rule:nonzero;"/>
                </g>
                <g transform="matrix(0.984528,0.17523,0.17523,-0.984528,3039.63,6628.8)">
                    <path d="M0.015,-0.166L1.002,-0.166L1.878,0.176L0.853,0.159L0.015,-0.166Z" style="fill:rgb(221,221,221);fill-rule:nonzero;"/>
                </g>
                <g transform="matrix(0.980785,0.195091,0.195091,-0.980785,2991.82,6628.77)">
                    <path d="M0.016,-0.185L0.954,-0.185L1.878,0.175L0.975,0.171L0.016,-0.185Z" style="fill:rgb(221,221,221);fill-rule:nonzero;"/>
                </g>
                <g transform="matrix(1,0,0,1,3031.87,6629.14)">
                    <path d="M7.495,-0.489L-37.932,-0.489L-38.179,-0.173L-39.156,0L8.716,0L7.744,-0.173L7.495,-0.489Z" style="fill:rgb(221,221,221);fill-rule:nonzero;"/>
                </g>
                <g transform="matrix(0.978636,0.205603,0.205603,-0.978636,3124.94,6643.07)">
                    <rect x="-0.022" y="-0.241" width="2.344" height="0.026" style="fill:rgb(214,238,246);"/>
                </g>
                <g transform="matrix(1,0,0,1,3022.2,6651.4)">
                    <path d="M0,52.28L0.913,53.975L2.256,55.354L3.951,56.33L4.293,56.496L10.761,58.639L17.448,59.94L24.368,60.38L78.797,60.38L85.717,59.94L92.404,58.639L98.872,56.496L99.214,56.33L100.909,55.354L102.252,53.975L103.169,52.28L103.641,50.144L107.861,-2.509L107.565,-4.807L106.56,-6.485L104.97,-7.617L102.672,-8.1L0.493,-8.1L-1.805,-7.617L-3.395,-6.485L-4.396,-4.807L-4.692,-2.509L-0.476,50.144L0,52.28Z" style="fill:rgb(214,238,246);fill-rule:nonzero;"/>
                </g>
                <g transform="matrix(1,0,0,1,3020.4,6646.09)">
                    <path d="M0,-2.298L2.298,-2.781L2.298,-2.809L0,-2.326L-1.59,-1.195L-2.591,0.483L-2.591,0.511L-1.59,-1.166L0,-2.298Z" style="fill:rgb(214,238,246);fill-rule:nonzero;"/>
                </g>
                <g transform="matrix(1,0,0,1,3234.96,6712.99)">
                    <path d="M0,-36.981L-2.538,-37.506L-14.142,-37.506L-16.684,-36.981L-18.542,-35.546L-19.222,-33.586L-19.222,-3.395L-18.542,-1.435L-16.684,-0L-14.142,0.525L-2.538,0.525L0,-0L1.861,-1.435L2.542,-3.395L2.542,-33.586L1.861,-35.546L0,-36.981Z" style="fill:rgb(214,238,246);fill-rule:nonzero;"/>
                </g>
                <g transform="matrix(1,0,0,1,2933.43,6715.22)">
                    <path d="M0,36.984L1.861,35.546L2.545,33.586L2.545,3.394L1.861,1.434L0,0L-2.542,-0.525L-14.164,-0.525L-16.709,0L-18.57,1.434L-19.254,3.394L-19.254,33.586L-18.57,35.546L-16.709,36.984L-14.164,37.509L-2.542,37.509L0,36.984Z" style="fill:rgb(214,238,246);fill-rule:nonzero;"/>
                </g>
                <g transform="matrix(1,0,0,1,3073.79,6844.74)">
                    <path d="M122.409,-0.551L-122.413,-0.551L-122.875,-0.547L-123.217,-0.536L-123.339,-0.524L-123.339,0L123.339,0L123.339,-0.524L123.213,-0.536L122.873,-0.547L122.409,-0.551Z" style="fill:rgb(242,242,241);fill-rule:nonzero;"/>
                </g>
                <g transform="matrix(1,0,0,1,3098.53,6616.14)">
                    <path d="M0,-1.276L0.521,-1.23L0.349,-0.349L-0.159,-0.483L0,-1.276ZM-50.379,0.539L-49.6,1.058L-48.68,1.241L-47.873,1.1L-47.866,1.1L-47.704,1.072L-1.78,1.072L-1.622,1.1L-1.615,1.1L-0.835,1.237L-0.807,1.241L0.113,1.058L0.892,0.539L1.413,-0.24L1.597,-1.16L1.597,-2.224L1.019,-2.503L0.208,-2.517L0.222,-2.503L0.521,-2.242L0,-2.245L0.197,-2.503L0.208,-2.517L-49.695,-2.517L-49.685,-2.503L-49.487,-2.245L-50.009,-2.242L-49.709,-2.503L-49.695,-2.517L-50.503,-2.503L-51.081,-2.224L-51.081,-1.16L-50.901,-0.24L-50.379,0.539Z" style="fill:rgb(242,242,241);fill-rule:nonzero;"/>
                </g>
                <g transform="matrix(1,0,0,1,3048.15,6620.3)">
                    <path d="M0,2.253L0.779,2.775L1.791,2.609L2.496,2.75L2.675,2.785L48.599,2.785L49.48,2.609L49.142,2.309L49.787,1.879L50.228,2.112L49.48,2.609L50.492,2.775L51.271,2.253L51.792,1.474L51.976,0.554L51.976,-0.511L50.901,-0.528L50.379,-0.532L0.892,-0.532L0.37,-0.528L-0.702,-0.511L-0.702,0.554L-0.522,1.474L0,2.253Z" style="fill:rgb(242,242,241);fill-rule:nonzero;"/>
                </g>
                <g transform="matrix(1,0,0,1,3049.94,6625.82)">
                    <path d="M0,2.971L0.677,3.105L0.885,3.144L1.131,2.827L46.558,2.827L46.808,3.144L47.689,2.971L48.701,3.133L49.48,2.611L50.002,1.832L50.185,0.912L50.185,-0.149L49.11,-0.166L48.588,-0.173L-0.899,-0.173L-1.421,-0.166L-2.492,-0.149L-2.492,0.912L-2.313,1.832L-1.791,2.611L-1.012,3.133L-0.656,3.077L0,2.971Z" style="fill:rgb(242,242,241);fill-rule:nonzero;"/>
                </g>
                <g transform="matrix(1,0,0,1,3201.72,6598.13)">
                    <path d="M0,0.183L-2.038,-3.035L-4.946,-5.496L-8.46,-6.969L-24.77,-8.866L-49.53,-11.083L-49.974,-11.111L-50.238,-11.844L-52.251,-13.533L-55.268,-14.664L-58.825,-15.059L-197.057,-15.059L-200.614,-14.664L-203.632,-13.533L-205.644,-11.844L-205.905,-11.111L-206.353,-11.083L-208.725,-10.868L-231.109,-8.866L-247.422,-6.969L-250.937,-5.496L-253.845,-3.035L-255.879,0.183L-256.855,3.866L-256.855,14.516L-256.108,14.611L-254.067,14.879L-251.279,15.242L-250.708,13.088L-249.587,11.315L-247.986,9.961L-245.995,9.122L-230.538,7.328L-218.232,6.225L-214.065,5.851L-205.926,5.125L-181.269,3.57L-156.601,2.668L-99.278,2.668L-74.614,3.57L-49.953,5.125L-41.817,5.851L-37.647,6.225L-25.341,7.328L-9.888,9.122L-7.896,9.961L-6.292,11.315L-5.171,13.088L-4.6,15.242L-1.812,14.879L0.229,14.611L0.973,14.516L0.973,3.866L0,0.183Z" style="fill:rgb(0,188,218);fill-rule:nonzero;"/>
                </g>
                <g transform="matrix(1,0,0,1,3190.12,6756.61)">
                    <path d="M0,26.832L-0.666,30.163L-2.563,33.001L-5.4,34.894L-8.745,35.56L-9.729,35.366L-12.094,34.894L-12.094,34.908L-12.158,34.869L-12.873,34.39L-13.131,34.217L-14.03,33.618L-14.932,33.015L-15.112,32.743L-15.397,32.317L-16.123,31.231L-16.793,30.23L-16.828,30.177L-16.828,30.163L-16.948,29.546L-17.05,29.046L-17.089,28.863L-17.357,27.498L-17.491,26.832L-17.491,26.818L-16.828,23.473L-14.932,20.639L-12.094,18.742L-8.745,18.076L-5.4,18.742L-2.563,20.639L-0.666,23.473L0,26.818L0,26.832ZM-3.779,45.603L-4.23,47.844L-4.23,47.859L-5.506,49.769L-7.417,51.045L-9.673,51.493L-9.729,51.482L-10.614,51.306L-11.928,51.045L-12.158,50.894L-12.158,50.88L-13.839,49.755L-15.115,47.844L-15.316,46.854L-15.563,45.603L-15.563,45.589L-15.115,43.336L-13.839,41.426L-11.928,40.149L-9.673,39.698L-7.417,40.149L-5.506,41.426L-4.23,43.336L-3.779,45.589L-3.779,45.603ZM-16.514,6.902L-16.514,6.888L-15.848,3.542L-13.952,0.708L-11.118,-1.188L-7.769,-1.854L-4.424,-1.188L-1.586,0.708L0.31,3.542L0.977,6.888L0.977,6.902L0.31,10.233L-1.586,13.071L-4.424,14.963L-4.424,14.978L-7.769,15.644L-11.118,14.978L-13.952,13.085L-14.065,12.919L-15.397,10.924L-15.848,10.247L-15.848,10.233L-16.233,8.326L-16.514,6.902ZM-15.538,-13.043L-14.872,-16.388L-12.975,-19.222L-10.138,-21.118L-6.793,-21.781L-3.444,-21.118L-0.606,-19.222L1.287,-16.388L1.953,-13.043L1.953,-13.028L1.287,-9.697L-0.606,-6.86L-3.444,-4.963L-6.793,-4.301L-10.138,-4.963L-10.138,-4.949L-12.975,-6.846L-14.872,-9.683L-14.872,-9.697L-15.397,-12.32L-15.397,-12.334L-15.538,-13.028L-15.535,-13.036L-15.538,-13.043ZM5.256,-20.159L2.654,-22.86L-0.596,-24.739L-4.237,-25.644L-19.38,-27.213L-21.351,12.926L-21.351,12.972L-21.576,17.572L-21.58,17.618L-23.364,54.003L-23.085,53.992L3.684,53.992L4.184,54.003L4.184,54.045L4.572,53.788L6.373,51.094L7.008,47.915L7.008,-16.839L5.256,-20.159Z" style="fill:rgb(221,221,221);fill-rule:nonzero;"/>
                </g>
                <g transform="matrix(0.830797,0.556576,0.556576,-0.830797,3177.44,6790.84)">
                    <rect x="-0.072" y="-0.239" width="0.852" height="0.012" style="fill:rgb(242,242,241);"/>
                </g>
                <g transform="matrix(0.829559,0.558419,0.558419,-0.829559,3177.06,6790.76)">
                    <rect x="-0.024" y="-0.091" width="0.322" height="0.013" style="fill:rgb(242,242,241);"/>
                </g>
                <g transform="matrix(1,0,0,1,3186.88,6738.19)">
                    <path d="M0,-13.835L-5.235,-14.709L-10.515,-15.238L-15.817,-15.418L-16.145,-8.791L-1.001,-7.222L2.64,-6.316L5.89,-4.437L8.491,-1.737L10.244,1.583L10.244,-11.071L5.167,-12.622L0,-13.835Z" style="fill:rgb(242,242,241);fill-rule:nonzero;"/>
                </g>
                <g transform="matrix(1,0,0,1,2944.87,6801.68)">
                    <path d="M0,-34.418L0,8.971L8.396,8.971L8.009,8.714L6.208,6.021L5.577,2.841L5.577,-32.102L2.788,-32.867L0.747,-33.717L0,-34.418Z" style="fill:rgb(242,242,241);fill-rule:nonzero;"/>
                </g>
                <g transform="matrix(1,0,0,1,3179,6767.52)">
                    <path d="M0,4.068L0,4.054L-2.834,2.161L-4.28,0L-4.28,0.014L-2.947,2.009L-2.834,2.175L0,4.068Z" style="fill:rgb(242,242,241);fill-rule:nonzero;"/>
                </g>
                <g transform="matrix(0,1,1,0,2969.05,6769.21)">
                    <path d="M2.358,-0.479L2.372,-0.479L0.479,2.358L0.465,2.358L2.358,-0.479Z" style="fill:rgb(242,242,241);fill-rule:nonzero;"/>
                </g>
                <g transform="matrix(0.555275,0.831667,0.831667,-0.555275,3173.89,6786.78)">
                    <rect x="-0.264" y="-0.504" width="1.21" height="0.008" style="fill:rgb(242,242,241);"/>
                </g>
                <g transform="matrix(1,0,0,1,3202.7,6775.36)">
                    <path d="M0,35.296L0,-36.254L-0.402,-37.372L-0.744,-39.303L-2.785,-44.122L-5.573,-48.243L-5.573,29.166L-6.208,32.345L-8.009,35.039L-8.397,35.296L0,35.296Z" style="fill:rgb(242,242,241);fill-rule:nonzero;"/>
                </g>
                <g transform="matrix(1,0,0,1,3160.56,6774.22)">
                    <path d="M0,-4.685L-0.279,-4.692L-173.274,-4.692L-173.553,-4.685L-173.553,-4.639L-181.755,-4.639L-181.53,-0.039L-181.53,0.007L-173.324,0.007L-173.324,-0.039L-173.045,-0.046L-0.508,-0.046L-0.226,-0.039L-0.226,0.007L7.977,0.007L7.98,-0.039L8.206,-4.639L0,-4.639L0,-4.685Z" style="fill:rgb(242,242,241);fill-rule:nonzero;"/>
                </g>
                <g transform="matrix(1,0,0,1,2950.45,6756.93)">
                    <path d="M0,12.655L0,-29.811L-2.788,-25.739L-4.829,-21.185L-5.577,-19.084L-5.577,10.339L-4.829,11.04L-2.788,11.89L0,12.655Z" style="fill:rgb(242,242,241);fill-rule:nonzero;"/>
                </g>
                <g transform="matrix(1,0,0,1,2952.19,6726.09)">
                    <path d="M0,10.359L2.605,7.659L5.852,5.78L9.493,4.874L24.636,3.306L24.312,-3.321L19.007,-3.142L13.726,-2.613L8.492,-1.739L3.324,-0.526L-1.748,1.025L-1.748,13.68L0,10.359Z" style="fill:rgb(242,242,241);fill-rule:nonzero;"/>
                </g>
                <g transform="matrix(0.980623,0.195903,0.195903,-0.980623,3179.53,6807.83)">
                    <rect x="-0.008" y="-0.088" width="0.901" height="0.015" style="fill:rgb(242,242,241);"/>
                </g>
                <g transform="matrix(1,0,0,1,3058.02,6806.36)">
                    <rect x="0" y="-15.383" width="31.524" height="15.383" style="fill:rgb(242,242,241);fill-rule:nonzero;"/>
                </g>
                <g transform="matrix(1,0,0,1,3130.86,6812.83)">
                    <path d="M0,-2.228L-114.157,-2.228L-117.195,-2.217L-117.195,-2.175L-107.456,-1.276L-90.113,-0.321L-72.742,0L-72.742,-0.046L-41.412,-0.046L-41.412,0L-24.044,-0.321L-6.698,-1.276L3.039,-2.175L3.039,-2.217L0,-2.228Z" style="fill:rgb(242,242,241);fill-rule:nonzero;"/>
                </g>
                <g transform="matrix(1,0,0,1,3073.79,6806.4)">
                    <rect x="-15.764" y="-0.044" width="31.524" height="0.044" style="fill:rgb(242,242,241);fill-rule:nonzero;"/>
                </g>
                <g transform="matrix(1,0,0,1,3073.78,6778.2)">
                    <path d="M16.039,28.428L-16.042,28.428L-16.042,12.439L-15.764,12.728L15.76,12.728L15.76,28.157L16.039,28.428ZM86.549,-4.02L86.267,-4.026L-86.271,-4.026L-86.549,-4.02L-86.549,-3.974L-94.755,-3.974L-92.968,32.411L-92.968,32.454L-60.119,32.454L-67.68,31.759L-76.499,30.617L-79.852,29.57L-82.647,27.445L-84.543,24.491L-84.741,23.623L-84.744,23.616L-85.323,21.068L-84.744,23.616L-84.744,23.571L-84.73,23.623L-84.741,23.623L-84.543,24.491L-82.647,27.445L-79.852,29.57L-79.852,29.528L-76.499,30.575L-76.499,30.617L-67.68,31.759L-60.119,32.454L-60.119,32.411L-57.08,32.401L57.077,32.401L60.115,32.411L60.115,32.454L67.676,31.759L76.496,30.617L76.496,30.575L78.625,29.909L79.848,29.528L79.848,29.57L82.643,27.445L84.543,24.491L84.737,23.623L84.727,23.623L84.741,23.571L84.741,23.616L85.319,21.068L84.741,23.616L84.737,23.623L84.543,24.491L82.643,27.445L79.848,29.57L78.625,29.954L76.496,30.617L67.676,31.759L60.115,32.454L92.964,32.454L92.968,32.411L94.751,-3.974L86.549,-3.974L86.549,-4.02Z" style="fill:rgb(242,242,241);fill-rule:nonzero;"/>
                </g>
                <g transform="matrix(1,0,0,1,2969.38,6807.76)">
                    <path d="M0,-0.122L-1.348,0.146L-1.314,0.152L0,-0.107L0.228,-0.259L0.228,-0.274L0,-0.122Z" style="fill:rgb(242,242,241);fill-rule:nonzero;"/>
                </g>
                <g transform="matrix(1,0,0,1,2947.66,6810.65)">
                    <rect x="-2.788" y="0" width="5.576" height="6.507" style="fill:rgb(242,242,241);fill-rule:nonzero;"/>
                </g>
                <g transform="matrix(1,0,0,1,3193.8,6812.83)">
                    <path d="M0,-2.228L-26.769,-2.228L-27.047,-2.217L-27.051,-2.175L-27.156,-0.046L-4.984,-0.046L-4.984,0L-1.805,-0.631L0.5,-2.175L0.5,-2.217L0,-2.228Z" style="fill:rgb(242,242,241);fill-rule:nonzero;"/>
                </g>
                <g transform="matrix(1,0,0,1,2958.75,6810.65)">
                    <path d="M0,2.175L-3.176,1.544L-5.485,0L-8.305,0L-8.305,2.175L0,2.175Z" style="fill:rgb(242,242,241);fill-rule:nonzero;"/>
                </g>
                <g transform="matrix(1,0,0,1,3135.68,6733.35)">
                    <path d="M17.177,-10.459L-140.978,-10.459L-139.181,-5.309L-138.035,-3.162L-136.29,-1.463L-134.108,-0.374L-131.7,0L7.899,0L10.311,-0.374L12.489,-1.463L14.234,-3.162L15.383,-5.309L17.177,-10.459Z" style="fill:rgb(242,242,241);fill-rule:nonzero;"/>
                </g>
                <g transform="matrix(1,0,0,1,2966.2,6790.11)">
                    <path d="M0,2.062L-3.349,1.396L-5.46,-0.014L-5.481,-0.014L-3.349,1.41L0,2.076L0.984,1.882L0.984,1.868L0,2.062Z" style="fill:rgb(242,242,241);fill-rule:nonzero;"/>
                </g>
                <g transform="matrix(1,0,0,1,3073.79,6733.51)">
                    <rect x="-69.802" y="-0.162" width="139.599" height="0.162" style="fill:rgb(242,242,241);fill-rule:nonzero;"/>
                </g>
                <g transform="matrix(1,0,0,1,2974.94,6756.61)">
                    <path d="M0,26.832L-0.666,30.163L-0.666,30.177L-0.702,30.23L-1.371,31.231L-2.097,32.317L-2.383,32.743L-2.563,33.015L-3.465,33.618L-4.364,34.217L-4.621,34.39L-5.337,34.869L-5.4,34.908L-7.762,35.38L-8.746,35.574L-12.094,34.908L-14.227,33.484L-14.206,33.484L-14.932,33.001L-16.828,30.163L-17.491,26.832L-17.491,26.818L-16.828,23.473L-14.932,20.639L-12.094,18.742L-8.746,18.076L-5.4,18.742L-2.563,20.639L-0.666,23.473L0,26.818L0,26.832ZM-1.928,45.603L-2.178,46.854L-2.379,47.844L-2.379,47.859L-3.656,49.769L-5.337,50.894L-5.566,51.045L-6.881,51.306L-7.762,51.482L-7.822,51.493L-7.9,51.479L-10.078,51.045L-10.078,51.031L-11.989,49.755L-13.265,47.844L-13.712,45.603L-13.712,45.589L-13.265,43.336L-11.989,41.426L-10.078,40.149L-7.822,39.698L-5.566,40.149L-3.656,41.426L-2.379,43.336L-1.928,45.589L-1.932,45.596L-1.928,45.603ZM-19.448,-13.043L-18.781,-16.388L-16.885,-19.222L-14.047,-21.118L-10.702,-21.781L-7.357,-21.118L-4.519,-19.222L-2.623,-16.388L-1.957,-13.043L-1.957,-13.028L-2.097,-12.334L-2.097,-12.32L-2.623,-9.697L-4.519,-6.86L-7.357,-4.963L-10.702,-4.301L-14.047,-4.963L-16.885,-6.86L-18.781,-9.697L-19.448,-13.028L-19.448,-13.043ZM-0.98,6.888L-0.98,6.902L-1.262,8.326L-1.646,10.233L-1.646,10.247L-2.097,10.924L-3.43,12.919L-3.539,13.085L-6.377,14.978L-9.726,15.644L-9.726,15.63L-13.071,14.963L-15.908,13.071L-17.805,10.233L-18.471,6.902L-18.471,6.888L-17.805,3.542L-15.908,0.708L-13.071,-1.188L-9.726,-1.854L-6.377,-1.188L-3.539,0.708L-1.646,3.542L-0.98,6.888ZM4.085,17.618L4.085,17.572L3.86,12.972L3.856,12.926L1.886,-27.213L-13.258,-25.644L-16.899,-24.739L-20.146,-22.86L-22.75,-20.159L-24.499,-16.839L-24.499,47.915L-23.868,51.094L-22.066,53.788L-21.679,54.045L-21.679,54.003L-21.178,53.992L5.591,53.992L5.873,54.003L4.085,17.618Z" style="fill:rgb(221,221,221);fill-rule:nonzero;"/>
                </g>
                <g transform="matrix(1,0,0,1,2958.75,6810.6)">
                    <path d="M0,2.228L0,2.182L22.172,2.182L21.88,1.897L21.848,1.269L21.823,0.751L21.799,0.279L21.788,0.053L21.784,0L-4.984,0L-5.485,0.011L-5.485,0.053L-3.176,1.597L0,2.228Z" style="fill:rgb(242,242,241);fill-rule:nonzero;"/>
                </g>
                <g transform="matrix(1,0,0,1,3188.82,6814.99)">
                    <path d="M0,-2.157L-22.172,-2.157L-22.172,-2.203L-22.067,-4.332L-54.916,-4.332L-64.652,-3.433L-81.998,-2.478L-99.366,-2.157L-130.696,-2.157L-148.067,-2.478L-165.41,-3.433L-175.15,-4.332L-207.999,-4.332L-207.988,-4.106L-207.967,-3.634L-207.943,-3.116L-207.893,-2.203L-207.893,-2.157L-238.37,-2.157L-238.37,2.175L13.881,2.175L13.881,-4.332L5.485,-4.332L3.179,-2.788L0,-2.157Z" style="fill:rgb(242,242,241);fill-rule:nonzero;"/>
                </g>
                <g transform="matrix(1,0,0,1,3166.64,6812.83)">
                    <path d="M0,-0.046L0,0L0.004,-0.046L0,-0.046Z" style="fill:rgb(242,242,241);fill-rule:nonzero;"/>
                </g>
                <g transform="matrix(-0.0866296,0.996241,0.996241,0.0866296,3169.04,6810.64)">
                    <path d="M2.344,-2.195L2.39,-2.195L2.012,2.153L1.966,2.149L2.344,-2.195Z" style="fill:rgb(242,242,241);fill-rule:nonzero;"/>
                </g>
                <g transform="matrix(1,0,0,1,3183.47,6805.22)">
                    <path d="M0,-6.049L-1.389,-6.976L-3.028,-7.304L-4.667,-6.976L-6.056,-6.049L-6.983,-4.66L-7.307,-3.025L-6.983,-1.385L-6.056,0.003L-4.667,0.93L-3.028,1.255L-1.389,0.93L0,0.003L0.927,-1.385L1.255,-3.025L0.927,-4.66L0,-6.049Z" style="fill:white;fill-rule:nonzero;"/>
                </g>
                <g transform="matrix(1,0,0,1,2970.15,6805.22)">
                    <path d="M0,-6.049L-1.389,-6.976L-3.028,-7.304L-4.667,-6.976L-6.056,-6.049L-6.983,-4.66L-7.307,-3.025L-6.983,-1.385L-6.056,0.003L-4.667,0.93L-3.028,1.255L-1.389,0.93L0,0.003L0.927,-1.385L1.255,-3.025L0.927,-4.66L0,-6.049Z" style="fill:white;fill-rule:nonzero;"/>
                </g>
                <g transform="matrix(1,0,0,1,3041.61,6617.38)">
                    <path d="M0,-3.758L0.014,-3.744L0.314,-3.483L-0.208,-3.487L-0.01,-3.744L0,-3.758L-49.903,-3.758L-49.893,-3.744L-49.695,-3.487L-50.217,-3.483L-49.917,-3.744L-49.903,-3.758L-50.71,-3.744L-51.289,-3.465L-51.289,-2.401L-51.109,-1.481L-50.587,-0.702L-49.808,-0.184L-48.888,0L-47.912,-0.17L-1.988,-0.17L-1.015,0L-0.095,-0.184L0.684,-0.702L1.206,-1.481L1.389,-2.401L1.389,-3.465L0.811,-3.744L0,-3.758Z" style="fill:rgb(242,242,241);fill-rule:nonzero;"/>
                </g>
                <g transform="matrix(1,0,0,1,2991.56,6621.19)">
                    <path d="M0,0.476L-0.176,-0.405L0.345,-0.451L0.504,0.342L0,0.476ZM49.833,-1.421L0.345,-1.421L-0.176,-1.417L-1.248,-1.399L-1.248,-0.335L-1.068,0.585L-0.547,1.364L0.233,1.886L1.244,1.72L2.129,1.897L48.052,1.897L48.557,1.798L48.934,1.72L49.945,1.886L50.724,1.364L51.246,0.585L51.429,-0.335L51.429,-1.399L50.354,-1.417L49.833,-1.421Z" style="fill:rgb(242,242,241);fill-rule:nonzero;"/>
                </g>
                <g transform="matrix(1,0,0,1,2991.56,6627.07)">
                    <path d="M0,0.475L-0.176,-0.406L0.345,-0.452L0.504,0.341L0,0.475ZM49.833,-1.421L0.345,-1.421L0.092,-1.418L-0.176,-1.414L-1.248,-1.397L-1.248,-0.336L-1.068,0.584L-0.547,1.363L0.233,1.885L1.244,1.723L2.129,1.896L2.376,1.578L47.802,1.578L48.052,1.896L48.934,1.723L49.945,1.885L50.724,1.363L51.246,0.584L51.429,-0.336L51.429,-1.397L50.354,-1.414L49.833,-1.421Z" style="fill:rgb(242,242,241);fill-rule:nonzero;"/>
                </g>
                <g transform="matrix(1,0,0,1,3073.79,6790.97)">
                    <rect x="-15.764" y="-0.046" width="31.524" height="0.046" style="fill:rgb(242,242,241);fill-rule:nonzero;"/>
                </g>
                <g transform="matrix(1,0,0,1,3089.55,6790.86)">
                    <path d="M0,15.538L-31.524,15.538L-31.524,0.063L-31.802,-0.226L-31.802,15.764L0.278,15.764L0,15.492L0,15.538Z" style="fill:rgb(242,242,241);fill-rule:nonzero;"/>
                </g>
                <g transform="matrix(0.649194,0.760623,0.760623,-0.649194,2943.6,6632.43)">
                    <path d="M-0.031,-0.138L0.381,-0.138L0.274,-0.047L-0.113,-0.068L-0.031,-0.138Z" style="fill:rgb(242,242,241);fill-rule:nonzero;"/>
                </g>
                <g transform="matrix(1,0,0,1,2944.87,6628.81)">
                    <path d="M0,3.994L0,-0.966L-1.128,-0.821L-1.396,-0.511L-1.396,3.303L-1.128,3.472L-1.128,3.86L0,3.994Z" style="fill:rgb(242,242,241);fill-rule:nonzero;"/>
                </g>
                <g transform="matrix(1,0,0,1,3202.7,6780.79)">
                    <path d="M0,-4.554L0,0.409L0.046,0.402L1.128,0.265L1.128,-0.264L1.396,-0.433L1.396,-3.863L1.128,-4.032L1.128,-4.42L0.514,-4.494L0,-4.554Z" style="fill:rgb(242,242,241);fill-rule:nonzero;"/>
                </g>
                <g transform="matrix(0.685046,0.7285,0.7285,-0.685046,3203.92,6776.29)">
                    <path d="M-0.01,-0.12L0.381,-0.12L0.299,-0.044L-0.113,-0.024L-0.01,-0.12Z" style="fill:rgb(242,242,241);fill-rule:nonzero;"/>
                </g>
                <g transform="matrix(0,1,1,0,2943.51,6776.31)">
                    <path d="M0.235,-0.033L0.347,-0.033L0.062,0.235L-0.079,0.235L0.235,-0.033Z" style="fill:rgb(242,242,241);fill-rule:nonzero;"/>
                </g>
                <g transform="matrix(1,0,0,1,2943.47,6777.49)">
                    <path d="M0,-0.564L0,2.865L0.268,3.035L0.268,3.563L1.35,3.701L1.396,3.708L1.396,-1.255L0.881,-1.195L0.268,-1.121L0.268,-0.734L0,-0.564Z" style="fill:rgb(242,242,241);fill-rule:nonzero;"/>
                </g>
                <g transform="matrix(1,0,0,1,3188.37,6748.61)">
                    <path d="M0,-10.071L-0.222,-10.222L-2.313,-11.618L-5.044,-12.161L-7.773,-11.618L-9.866,-10.222L-10.089,-10.071L-11.636,-7.759L-12.179,-5.044L-11.636,-2.312L-10.089,0L-7.773,1.547L-5.044,2.09L-2.313,1.547L0,0L1.547,-2.312L2.09,-5.044L1.547,-7.759L0,-10.071Z" style="fill:white;fill-rule:nonzero;"/>
                </g>
                <g transform="matrix(0,-1,-1,0,2959.76,6736.63)">
                    <path d="M-0.364,-1.747L-0.35,-1.747L-1.761,0.364L-1.761,0.343L-0.364,-1.747Z" style="fill:rgb(242,242,241);fill-rule:nonzero;"/>
                </g>
                <g transform="matrix(1,0,0,1,2969.29,6748.61)">
                    <path d="M0,-10.071L-0.222,-10.222L-2.313,-11.618L-5.044,-12.161L-7.776,-11.618L-9.866,-10.222L-10.089,-10.071L-11.636,-7.759L-12.179,-5.044L-11.636,-2.312L-10.089,0L-7.776,1.547L-5.044,2.09L-2.313,1.547L0,0L1.548,-2.312L2.09,-5.044L1.548,-7.759L0,-10.071Z" style="fill:white;fill-rule:nonzero;"/>
                </g>
                <g transform="matrix(1,0,0,1,3152.92,6769.58)">
                    <path d="M0,-46.854L-0.014,-46.812L-0.056,-46.692L-1.851,-41.542L-3,-39.395L-2.936,-39.349L-2.774,-39.233L-4.583,-37.474L-4.674,-37.601L-3,-39.233L-3,-39.395L-4.745,-37.696L-6.923,-36.607L-9.334,-36.233L-9.32,-36.071L-9.309,-35.962L-148.955,-35.962L-148.948,-36.071L-148.934,-36.233L-151.342,-36.607L-153.524,-37.696L-155.269,-39.395L-156.414,-41.542L-158.212,-46.692L-158.254,-46.812L-158.268,-46.854L-168.205,-46.854L-168.205,-46.812L-176.411,-46.812L-176.087,-40.185L-174.117,-0.046L-174.113,0L-165.91,0L-165.91,-0.046L-165.632,-0.053L7.364,-0.053L7.642,-0.046L7.642,0L15.848,0L15.848,-0.046L17.819,-40.185L18.147,-46.812L9.94,-46.812L9.94,-46.854L0,-46.854Z" style="fill:rgb(242,242,241);fill-rule:nonzero;"/>
                </g>
            </g>
        </g>
    </g>
</svg>
