<?xml version="1.0" encoding="UTF-8" standalone="no"?>
<!DOCTYPE svg PUBLIC "-//W3C//DTD SVG 1.1//EN" "http://www.w3.org/Graphics/SVG/1.1/DTD/svg11.dtd">
<svg width="100%" height="100%" viewBox="0 0 360 320" version="1.1" xmlns="http://www.w3.org/2000/svg" xmlns:xlink="http://www.w3.org/1999/xlink" xml:space="preserve" xmlns:serif="http://www.serif.com/" style="fill-rule:evenodd;clip-rule:evenodd;stroke-linejoin:round;stroke-miterlimit:2;">
    <g transform="matrix(1,0,0,1,-377.284,-6555.59)">
        <g id="bus-inbound">
            <g>
                <g transform="matrix(1,0,0,1,683.347,6659.55)">
                    <path d="M1.033,-28.172L-248.952,-28.172L-248.952,0L-245.384,-0.007L-224.998,-0.011L-22.919,-0.011L-2.534,-0.007L1.036,0L1.033,-28.172Z" style="fill:rgb(81,81,81);fill-rule:nonzero;"/>
                </g>
                <g transform="matrix(1,0,0,1,462.166,6875.4)">
                    <path d="M21.023,-20.604L-2.426,-20.604L-2.426,-2.426L0,0L18.597,0L21.023,-2.426L21.023,-20.604Z" style="fill:rgb(142,142,142);fill-rule:nonzero;"/>
                </g>
                <g transform="matrix(1,0,0,1,644.13,6875.4)">
                    <path d="M14.909,-20.604L-8.541,-20.604L-8.541,-2.426L-6.116,0L12.482,0L14.909,-2.426L14.909,-20.604Z" style="fill:rgb(142,142,142);fill-rule:nonzero;"/>
                </g>
                <g transform="matrix(1,0,0,1,656.613,6810.69)">
                    <path d="M0,-0.034L0,0L0.302,-0.034L0,-0.034Z" style="fill:rgb(86,86,86);fill-rule:nonzero;"/>
                </g>
                <g transform="matrix(1,0,0,1,670.048,6803.85)">
                    <path d="M0,2.199L2.608,0.176L4.494,-3.61L-0.451,-2.789L-5.34,-1.664L-10.148,-0.233L-14.859,1.494L-19.454,3.51L-23.915,5.809L-15.14,5.809L-9.948,5.213L-4.36,3.937L0,2.199Z" style="fill:rgb(250,192,41);fill-rule:nonzero;"/>
                </g>
                <g transform="matrix(1,0,0,1,463.87,6800.24)">
                    <path d="M0,9.419L8.774,9.419L4.313,7.121L-0.281,5.104L-4.992,3.377L-9.801,1.946L-14.689,0.822L-19.637,0L-17.749,3.786L-15.14,5.809L-10.779,7.547L-5.193,8.823L0,9.419Z" style="fill:rgb(250,192,41);fill-rule:nonzero;"/>
                </g>
                <g transform="matrix(1,0,0,1,429.08,6781.09)">
                    <path d="M0,-0.346L0.268,-0.032L1.35,0.105L1.394,0.112L1.394,-0.04L0.268,-0.173L0,-0.458L0,-0.346Z" style="fill:rgb(255,140,0);fill-rule:nonzero;"/>
                </g>
                <g transform="matrix(1,0,0,1,429.079,6776.92)">
                    <path d="M0,-0.38L0,3.433L0.268,3.603L1.394,3.715L1.394,-0.687L0.882,-0.627L0.268,-0.553L0.268,-0.694L0,-0.38Z" style="fill:rgb(255,140,0);fill-rule:nonzero;"/>
                </g>
                <g transform="matrix(1,0,0,1,434.189,6875.4)">
                    <path d="M21.023,-20.604L-2.426,-20.604L-2.426,-2.426L0,0L18.597,0L21.023,-2.426L21.023,-20.604Z" style="fill:rgb(142,142,142);fill-rule:nonzero;"/>
                </g>
                <g transform="matrix(1,0,0,1,665.99,6875.4)">
                    <path d="M21.023,-20.604L-2.425,-20.604L-2.425,-2.426L0,0L18.598,0L21.023,-2.426L21.023,-20.604Z" style="fill:rgb(142,142,142);fill-rule:nonzero;"/>
                </g>
                <g transform="matrix(1,0,0,1,637.092,6583.81)">
                    <path d="M0,2.482L-2.014,0.794L-5.03,-0.338L-8.586,-0.733L-146.822,-0.733L-150.107,-0.338L-150.378,-0.338L-153.393,0.794L-155.408,2.482L-155.669,3.215L-154.982,3.173L-153.036,3.049L-150.16,2.87L-146.822,2.658L-143.982,2.482L-131.308,1.682L-106.99,0.794L-106.468,0.772L-48.94,0.772L-48.418,0.794L-24.1,1.682L-11.426,2.482L-8.586,2.658L-5.248,2.87L-2.372,3.049L-0.426,3.173L0.261,3.215L0,2.482Z" style="fill:rgb(0,188,218);fill-rule:nonzero;"/>
                </g>
                <g transform="matrix(1,0,0,1,559.388,6586.38)">
                    <path d="M0,-0.202L-27.916,-0.35L-27.798,-0.097L-27.786,-0.076L-27.724,0.055L0,0.148L27.724,0.055L27.786,-0.076L27.798,-0.097L27.916,-0.35L0,-0.202Z" style="fill:rgb(0,188,218);fill-rule:nonzero;"/>
                </g>
                <g transform="matrix(1,0,0,1,682.727,6669.72)">
                    <path d="M0,85.139L0.402,84.998L1.611,84.06L2.556,83.028L2.556,68.667L2.552,42.222L2.542,15.968L2.531,-7.223L1.611,-7.251L0,-7.254L-2.143,-7.258L-120.55,-7.258L-120.551,11.763L-120.55,11.96L-120.551,15.81L-120.55,15.979L-120.551,42.117L-120.55,42.229L-120.551,64.49L-120.55,64.574L-120.55,92.397L-105.321,92.397L-77.649,91.607L-77.616,91.607L-49.997,90.208L-49.931,90.204L-22.401,88.037L-22.303,88.03L-2.143,85.9L-0.278,85.238L0,85.139Z" style="fill:rgb(214,238,246);fill-rule:nonzero;"/>
                </g>
                <g transform="matrix(1,0,0,1,436.049,6755.61)">
                    <path d="M0,-0.741L0.278,-0.636L1.909,-0.013L2.145,0.01L0.278,-0.652L0,-0.751L0,-0.741Z" style="fill:rgb(214,238,246);fill-rule:nonzero;"/>
                </g>
                <g transform="matrix(1,0,0,1,556.601,6742.9)">
                    <path d="M0,19.218L0,-80.437L-118.406,-80.437L-120.551,-80.434L-122.163,-80.43L-123.082,-80.402L-123.094,-57.211L-123.101,-30.957L-123.105,-4.512L-123.106,9.848L-122.163,10.881L-120.952,11.819L-120.551,11.96L-120.272,12.058L-118.406,12.721L-98.248,14.85L-98.148,14.857L-70.62,17.025L-70.553,17.029L-42.935,18.428L-42.901,18.428L-15.229,19.218L0,19.218Z" style="fill:rgb(214,238,246);fill-rule:nonzero;"/>
                </g>
                <g transform="matrix(1,0,0,1,400.672,6714.1)">
                    <path d="M11.602,-0.392L-0.124,-0.392L-0.158,0L11.804,0L11.602,-0.392Z" style="fill:rgb(214,238,246);fill-rule:nonzero;"/>
                </g>
                <g transform="matrix(0.478654,-0.878004,-0.878004,-0.478654,710.532,6741.23)">
                    <path d="M-13.621,8.188L-13.268,8.188L13.518,22.79L13.709,23.087L-13.621,8.188Z" style="fill:rgb(214,238,246);fill-rule:nonzero;"/>
                </g>
                <g transform="matrix(0,1,1,0,711.734,6750.61)">
                    <path d="M2.316,-2.704L2.704,-2.704L2.704,2.316L2.316,2.143L2.316,-2.704Z" style="fill:rgb(214,238,246);fill-rule:nonzero;"/>
                </g>
                <g transform="matrix(1,0,0,1,702.212,6753.31)">
                    <path d="M4.284,-0.388L-0.076,-0.388L-0.143,0L4.284,0L4.284,-0.388Z" style="fill:rgb(214,238,246);fill-rule:nonzero;"/>
                </g>
                <g transform="matrix(1,0,0,1,605.078,6777.81)">
                    <path d="M0,5.51L25.749,4.505L27.183,-0.095L0,0.864L-12.021,0.959L-12.021,5.605L0,5.51Z" style="fill:rgb(0,188,218);fill-rule:nonzero;"/>
                </g>
                <g transform="matrix(1,0,0,1,499.63,6785.75)">
                    <path d="M0,19.87L1.717,19.87L1.717,19.828L1.79,19.842L1.96,19.87L26.09,19.87L26.09,-2.33L14.069,-2.426L-6.734,-3.155L-11.661,-3.37L-3.372,23.24L0,19.87Z" style="fill:rgb(0,188,218);fill-rule:nonzero;"/>
                </g>
                <g transform="matrix(1,0,0,1,431.703,6810.65)">
                    <path d="M-1.23,6.973L8.404,6.973L8.404,6.698L8.552,6.141L8.957,5.732L9.51,5.584L17.984,5.584L18.538,5.732L18.943,6.141L19.091,6.698L19.091,6.973L64.25,6.973L66.782,6.969L65.666,3.388L64.393,2.115L64.393,0L57.347,0L57.238,0.385L54.492,1.217L32.049,1.217L26.75,0.61L26.588,0.593L23.899,0L-1.23,0L-1.23,6.973Z" style="fill:rgb(0,188,218);fill-rule:nonzero;"/>
                </g>
                <g transform="matrix(1,0,0,1,687.073,6809.83)">
                    <path d="M0,-34.785L-2.735,-32.924L-6.489,-31.545L-15.408,-30.481L-16.285,-30.439L-16.303,-30.439L-16.941,-30.425L-17.188,-30.425L-15.623,-28.606L-17.276,-26.36L-19.62,-25.521L-26.896,-24.566L-30.502,-24.09L-38.758,-22.388L-46.455,-20.269L-48.751,-20.269L-48.841,-20.082L-49.059,-20.361L-49.604,-21.059L-49.766,-21.267L-49.546,-21.288L-45.816,-28.532L-46.186,-28.222L-46.884,-27.975L-47.725,-27.862L-50.865,-27.724L-54.344,-27.591L-55.776,-27.534L-64.392,0.123L-64.392,0.821L-57.346,0.821L-57.972,-1.375L-56.492,-5.306L-54.344,-8.052L-52.892,-9.913L-47.954,-13.681L-41.799,-16.519L-34.979,-18.856L-26.748,-20.445L-16.525,-21.651L-9.109,-22.148L-7.24,-21.284L-7.625,-14.016L-9.049,-9.172L-11.315,-4.636L-14.548,-2.137L-19.666,-0.11L-23.899,0.821L1.23,0.821L1.23,-35.606L1.121,-35.606L0,-34.785Z" style="fill:rgb(0,188,218);fill-rule:nonzero;"/>
                </g>
                <g transform="matrix(1,0,0,1,687.073,6781.48)">
                    <path d="M0,-11.076L-2.735,-9.514L-6.489,-8.08L-26.748,-5.767L-54.344,-3.779L-55.776,0.821L-54.344,0.764L-50.865,0.63L-47.725,0.493L-46.884,0.38L-46.186,0.133L-45.933,-0.357L-45.816,-0.177L-26.896,-1.428L-17.188,-2.07L-17.11,-2.26L-16.941,-2.07L-16.303,-2.084L-16.285,-2.084L-15.408,-2.126L-6.489,-3.191L-2.735,-4.569L0,-6.43L1.121,-7.251L1.23,-7.251L1.23,-11.897L1.121,-11.897L0,-11.076Z" style="fill:rgb(0,188,218);fill-rule:nonzero;"/>
                </g>
                <g transform="matrix(1,0,0,1,676.509,6611.74)">
                    <path d="M0,-0.223L0.409,-0.105L0.683,0.152L0.913,0.142L0.96,0.142L0.572,-0.221L0.049,-0.375L0,-0.223Z" style="fill:rgb(0,188,218);fill-rule:nonzero;"/>
                </g>
                <g transform="matrix(1,0,0,1,687.073,6822.02)">
                    <path d="M0,-4.794L-2.735,-4.759L-6.489,-4.741L-8.421,-4.734L-8.404,-4.667L-8.404,-1.784L-8.552,-1.227L-8.957,-0.818L-9.51,-0.67L-17.984,-0.67L-18.538,-0.818L-18.943,-1.227L-19.091,-1.784L-19.091,-4.667L-19.081,-4.706L-26.748,-4.685L-54.344,-4.618L-66.72,-4.593L-68.17,0.063L1.23,0.063L1.23,-4.857L1.121,-4.836L0,-4.794Z" style="fill:rgb(0,188,218);fill-rule:nonzero;"/>
                </g>
                <g transform="matrix(1,0,0,1,431.703,6817.63)">
                    <path d="M-1.23,4.455L68.17,4.455L66.783,0L19.091,0L19.091,2.608L18.943,3.165L18.538,3.574L17.984,3.722L9.51,3.722L8.957,3.574L8.552,3.165L8.404,2.608L8.404,0L-1.23,0L-1.23,4.455Z" style="fill:rgb(0,188,218);fill-rule:nonzero;"/>
                </g>
                <g transform="matrix(1,0,0,1,621.408,6814.04)">
                    <path d="M0,0.004L-1.054,3.388L11.322,3.363L38.918,3.296L46.584,3.275L46.627,3.124L46.722,2.757L47.127,2.348L47.681,2.2L56.155,2.2L56.708,2.348L57.114,2.757L57.244,3.247L59.176,3.24L62.93,3.222L65.665,3.187L66.786,3.145L66.895,3.124L66.895,-3.384L41.766,-3.384L39.076,-2.791L38.918,-2.774L33.617,-2.167L11.174,-2.167L8.428,-2.999L8.319,-3.384L1.273,-3.384L1.273,-1.269L0,0.004Z" style="fill:rgb(0,188,218);fill-rule:nonzero;"/>
                </g>
                <g transform="matrix(1,0,0,1,492.896,6778.54)">
                    <path d="M0,4.05L20.803,4.78L32.824,4.875L32.824,0.229L20.803,0.134L-6.379,-0.825L-4.927,3.835L0,4.05Z" style="fill:rgb(0,188,218);fill-rule:nonzero;"/>
                </g>
                <g transform="matrix(1,0,0,1,448.892,6800.82)">
                    <path d="M0,-21.417L9.708,-20.775L28.628,-19.524L32.358,-12.28L31.562,-11.261L29.267,-11.261L21.57,-13.38L13.314,-15.083L9.707,-15.558L2.432,-16.514L0.087,-17.353L-1.566,-19.598L0,-21.417ZM-18.419,-26.599L-18.419,9.828L6.71,9.828L2.477,8.898L-2.642,6.871L-5.872,4.372L-8.141,-0.165L-9.564,-5.008L-9.947,-12.277L-8.079,-13.14L-0.664,-12.643L9.56,-11.438L17.791,-9.848L24.611,-7.511L30.765,-4.673L35.704,-0.905L37.156,0.956L39.304,3.702L40.784,7.632L40.158,9.828L47.204,9.828L47.204,9.131L38.606,-18.467L37.156,-18.53L30.509,-18.907L29.627,-19.101L28.745,-19.704L29.627,-19.101L30.509,-18.907L37.156,-18.53L38.606,-18.467L37.156,-23.127L9.56,-25.115L-10.698,-27.427L-14.455,-28.862L-17.189,-30.349L-18.309,-31.245L-18.419,-31.245L-18.419,-26.599L-18.309,-26.623L-17.189,-25.414L-14.455,-23.92L-10.698,-22.538L-1.782,-21.473L-0.835,-21.509L-0.08,-21.607L-0.835,-21.509L-1.782,-21.473L-10.698,-22.538L-14.455,-23.92L-17.189,-25.414L-18.309,-26.623L-18.419,-26.599Z" style="fill:rgb(0,188,218);fill-rule:nonzero;"/>
                </g>
                <g transform="matrix(1,0,0,1,668.588,6611.16)">
                    <path d="M0,-0.236L-0.521,-0.137L-0.268,0L0.135,-0.074L0,-0.236ZM0,-0.236L-0.12,-0.126L0,-0.236Z" style="fill:rgb(0,188,218);fill-rule:nonzero;"/>
                </g>
                <g transform="matrix(1,0,0,1,441.124,6748.58)">
                    <path d="M0,-133.808L0.039,-136.219L0.021,-136.156L0.017,-136.141L0.021,-136.156L0.039,-136.219L0.186,-136.691L0.573,-137.055L1.096,-137.21L9.067,-137.65L9.585,-137.551L9.72,-137.435L9.961,-137.231L10.114,-137.097L10.002,-137.086L9.961,-137.231L9.72,-137.435L9.585,-137.551L9.067,-137.65L9.185,-137.541L9.067,-137.65L8.93,-137.488L9.335,-137.414L9.602,-137.185L9.64,-137.055L9.705,-136.829L10.092,-136.772L10.277,-136.603L10.378,-133.963L10.251,-133.434L9.905,-133.889L9.519,-133.526L9.862,-133.032L9.316,-132.87L7.038,-132.779L0.978,-132.522L0.443,-132.638L0.061,-133.004L-0.066,-133.519L0,-133.808ZM118.265,-162.396L146.181,-162.544L146.063,-162.29L146.051,-162.269L145.99,-162.138L118.265,-162.047L90.539,-162.138L90.479,-162.269L90.467,-162.29L90.348,-162.544L118.265,-162.396ZM123.353,-140.157L123.261,-140.343L123.402,-140.812L123.049,-140.981L122.939,-140.615L122.665,-140.371L122.876,-139.998L122.967,-139.793L122.876,-139.998L122.35,-139.871L122.431,-139.663L122.35,-139.871L118.265,-139.86L114.292,-139.85L114.227,-139.67L114.292,-139.85L113.766,-139.973L113.693,-139.801L113.309,-140.164L113.381,-140.315L113.24,-140.784L113.177,-140.661L113.24,-140.784L113.589,-140.957L113.589,-143.276L113.24,-143.206L113.218,-143.174L113.24,-143.206L113.381,-143.674L113.363,-143.65L113.381,-143.674L113.766,-144.02L114.292,-144.147L118.265,-144.157L122.35,-144.168L122.876,-144.045L123.261,-143.703L123.296,-143.653L123.261,-143.703L122.876,-144.045L122.904,-144.006L122.876,-144.045L122.35,-144.168L122.372,-144.136L122.35,-144.168L122.254,-144.009L122.665,-143.914L122.939,-143.671L123.049,-143.304L123.402,-143.234L123.443,-143.178L123.402,-143.234L123.402,-140.812L123.486,-140.654L123.353,-140.157ZM105.052,-140.075L104.661,-139.702L104.492,-140.047L103.966,-139.913L104.118,-139.564L101.634,-139.554L95.822,-139.526L95.287,-139.66L95.386,-139.924L95.002,-140.262L94.902,-140.026L94.77,-140.53L94.799,-141.82L94.804,-142.049L94.813,-143.065L94.864,-143.149L95.006,-143.622L94.959,-143.548L95.006,-143.622L95.391,-143.971L95.917,-144.101L103.971,-144.21L104.497,-144.09L104.882,-143.752L104.992,-143.618L105.14,-143.135L105.022,-143.287L105.021,-142.109L105.019,-140.865L105.186,-140.579L105.019,-140.865L104.878,-140.393L105.052,-140.075ZM226.252,-136.603L226.414,-137.097L226.569,-137.231L226.943,-137.551L227.465,-137.65L235.435,-137.21L235.956,-137.055L236.344,-136.691L236.488,-136.219L236.51,-136.156L236.513,-136.141L236.538,-135.285L236.594,-133.519L236.531,-133.808L236.397,-133.35L236.467,-133.004L236.087,-132.638L235.551,-132.522L229.491,-132.779L227.214,-132.87L226.668,-133.032L227.01,-133.526L226.626,-133.889L226.28,-133.434L226.15,-133.963L226.252,-136.603ZM247.18,21.002L247.18,-88.843L246.655,-88.843L246.658,-62.998L246.658,-62.889L246.662,-36.709L246.662,5.626L245.949,6.412L243.926,8.654L243.514,8.665L243.214,8.767L239.696,9.962L239.46,9.987L219.202,11.999L191.606,14.167L163.954,15.567L136.274,16.356L100.256,16.356L72.576,15.567L44.924,14.167L17.329,11.999L-2.929,9.987L-3.165,9.962L-6.686,8.767L-6.984,8.665L-7.398,8.654L-9.421,6.412L-10.133,5.626L-10.133,-10.226L-10.131,-36.638L-10.131,-36.709L-10.128,-62.889L-10.128,-62.998L-10.123,-88.843L-10.123,-88.998L-9.997,-94.198L-9.891,-98.498L-9.878,-99.023L-9.771,-103.352L-9.651,-108.217L-9.631,-109.017L-9.624,-109.288L-9.593,-110.434L-9.569,-111.297L-9.507,-113.758L-9.405,-117.85L-9.378,-118.908L-9.112,-119.81L-8.631,-121.442L-7.822,-124.188L-7.7,-124.368L-6.68,-125.859L-6.17,-126.606L-5.865,-126.74L-5.664,-126.825L-2.28,-128.295L-2.222,-128.302L-2.037,-128.316L15.378,-129.807L16.07,-129.867L16.165,-129.874L41.206,-131.679L42.223,-131.749L42.288,-131.753L67.451,-133.128L68.438,-133.181L68.473,-133.184L93.723,-134.115L94.701,-134.15L117.364,-134.344L118.265,-134.351L143.534,-134.073C143.698,-134.075 142.997,-134.684 143.046,-134.841L144.497,-139.416C144.576,-139.666 144.385,-139.918 144.124,-139.911L132.411,-139.564L132.563,-139.913L132.037,-140.047L131.868,-139.702L132.037,-140.047L131.652,-140.393L131.477,-140.075L131.343,-140.579L131.38,-142.109L131.389,-143.135L131.508,-143.287L131.509,-142.109L131.51,-140.865L131.652,-140.393L131.981,-140.664L131.87,-141.031L131.869,-142.106L131.867,-143.354L131.977,-143.72L132.251,-143.96L132.033,-144.09L131.935,-143.971L132.033,-144.09L131.648,-143.752L131.538,-143.618L131.648,-143.752L132.033,-144.09L132.558,-144.21L140.612,-144.101L141.139,-143.971L141.524,-143.622L141.571,-143.548L141.524,-143.622L141.665,-143.149L141.716,-143.065L141.725,-142.049L141.73,-141.82L142.763,-134.43C142.788,-134.247 142.941,-134.11 143.125,-134.103L168.057,-133.184L168.092,-133.181L169.079,-133.128L194.242,-131.753L194.307,-131.749L195.324,-131.679L220.365,-129.874L220.46,-129.867L221.151,-129.807L238.565,-128.316L238.751,-128.302L238.811,-128.295L242.195,-126.825L242.393,-126.74L242.699,-126.606L243.211,-125.859L244.229,-124.368L244.353,-124.188L245.16,-121.442L245.643,-119.81L245.907,-118.908L245.935,-117.85L246.038,-113.758L246.098,-111.297L246.122,-110.434L246.154,-109.288L246.161,-109.017L246.179,-108.217L246.302,-103.352L246.408,-99.023L246.422,-98.498L246.528,-94.198L246.655,-88.998L246.655,-88.843L247.18,-88.843L247.18,-146.53C247.18,-146.562 247.175,-146.595 247.167,-146.627L246.218,-150.206C246.208,-150.244 246.193,-150.279 246.172,-150.312L244.201,-153.432C244.18,-153.464 244.154,-153.494 244.125,-153.519L241.306,-155.904C241.276,-155.929 241.243,-155.949 241.207,-155.964L237.796,-157.394C237.764,-157.408 237.729,-157.417 237.694,-157.421L221.433,-159.311L196.676,-161.528L196.23,-161.557L195.543,-161.599L193.597,-161.722L190.721,-161.902L187.382,-162.114L184.543,-162.29L171.869,-163.09L147.551,-163.978L147.029,-164L89.501,-164L88.979,-163.978L64.661,-163.09L51.986,-162.29L49.147,-162.114L45.809,-161.902L42.933,-161.722L40.987,-161.599L40.299,-161.557L39.853,-161.528L15.096,-159.311L-1.164,-157.421C-1.2,-157.417 -1.234,-157.408 -1.267,-157.394L-4.676,-155.964C-4.712,-155.949 -4.745,-155.929 -4.775,-155.904L-7.594,-153.519C-7.624,-153.494 -7.649,-153.464 -7.67,-153.432L-9.643,-150.312C-9.664,-150.279 -9.68,-150.244 -9.69,-150.206L-10.638,-146.627C-10.646,-146.595 -10.65,-146.563 -10.65,-146.53L-10.65,21.002L-10.541,21.002L-9.447,21.877C-9.43,21.891 -9.411,21.903 -9.391,21.914L-6.708,23.373C-6.694,23.381 -6.678,23.388 -6.663,23.394L-2.974,24.803C-2.944,24.814 -2.913,24.822 -2.882,24.825L17.329,27.132L44.924,29.12L45.393,29.138L72.576,30.097L84.596,30.192L84.596,29.498L58.663,29.498C58.563,29.498 58.466,29.458 58.395,29.386L55.083,26.077C55.012,26.006 54.972,25.909 54.972,25.808L54.972,22.503C54.972,22.402 55.012,22.305 55.083,22.234L58.395,18.921C58.466,18.85 58.563,18.81 58.664,18.81L177.866,18.81C177.967,18.81 178.063,18.85 178.135,18.921L181.446,22.234C181.517,22.305 181.557,22.402 181.557,22.503L181.557,25.808C181.557,25.909 181.517,26.006 181.446,26.077L178.135,29.386C178.063,29.458 177.967,29.498 177.866,29.498L151.933,29.498L151.933,30.192L163.954,30.097L191.137,29.138L191.606,29.12L219.202,27.132L239.412,24.825C239.444,24.822 239.475,24.814 239.505,24.803L243.187,23.396C243.205,23.389 243.223,23.38 243.239,23.371L245.931,21.834C245.943,21.827 245.955,21.819 245.967,21.811L247.07,21.002L247.18,21.002Z" style="fill:rgb(0,188,218);fill-rule:nonzero;"/>
                </g>
                <g transform="matrix(1,0,0,1,582.062,6604.73)">
                    <path d="M0,0.007L0.274,0.257L0.586,0.229L0.201,-0.12L0.242,-0.049L0.201,-0.12L-0.326,-0.25L-0.289,-0.183L-0.326,-0.25L-0.411,-0.095L0,0.007Z" style="fill:rgb(0,188,218);fill-rule:nonzero;"/>
                </g>
                <g transform="matrix(-0.274721,0.961524,0.961524,0.274721,594.692,6751.1)">
                    <path d="M18.019,-12.83L18.048,-12.83L9.686,13.568L9.649,13.592L18.019,-12.83Z" style="fill:rgb(0,188,218);fill-rule:nonzero;"/>
                </g>
                <g transform="matrix(1,0,0,1,513.666,6759.38)">
                    <path d="M0,4.734L-27.685,3.338L-55.313,1.167L-75.471,-0.818L-55.213,1.195L-27.618,3.363L0.033,4.762L27.714,5.552L27.705,5.524L0,4.734Z" style="fill:rgb(0,188,218);fill-rule:nonzero;"/>
                </g>
                <g transform="matrix(1,0,0,1,441.861,6611.63)">
                    <path d="M0,0.014L0.408,-0.106L0.358,-0.257L0.349,-0.201L0.358,-0.257L-0.164,-0.102L-0.178,-0.046L-0.164,-0.102L-0.551,0.261L-0.275,0.271L0,0.014Z" style="fill:rgb(0,188,218);fill-rule:nonzero;"/>
                </g>
                <g transform="matrix(-0.666016,0.745938,0.745938,0.666016,576.258,6762.41)">
                    <path d="M5.606,-2.538L5.643,-2.538L1.12,2.529L1.099,2.51L5.606,-2.538Z" style="fill:rgb(0,188,218);fill-rule:nonzero;"/>
                </g>
                <g transform="matrix(1,0,0,1,545.403,6605.04)">
                    <path d="M0,-0.423L0.274,-0.183L0.383,0.183L0.743,0.25L0.603,-0.215L0.218,-0.553L0.316,-0.434L0.218,-0.553L-0.308,-0.673L-0.223,-0.557L-0.308,-0.673L-0.411,-0.515L0,-0.423Z" style="fill:rgb(0,188,218);fill-rule:nonzero;"/>
                </g>
                <g transform="matrix(1,0,0,1,617.187,6785.69)">
                    <path d="M0,19.93L0.17,19.902L0.242,19.888L0.242,19.93L1.96,19.93L5.332,23.3L13.64,-3.37L-12.109,-2.366L-24.13,-2.27L-24.13,19.93L0,19.93Z" style="fill:rgb(0,188,218);fill-rule:nonzero;"/>
                </g>
                <g transform="matrix(1,0,0,1,536.715,6604.73)">
                    <path d="M0,0.007L0.411,-0.095L0.325,-0.25L0.289,-0.183L0.325,-0.25L-0.201,-0.12L-0.242,-0.049L-0.201,-0.12L-0.586,0.229L-0.274,0.257L0,0.007Z" style="fill:rgb(0,188,218);fill-rule:nonzero;"/>
                </g>
                <g transform="matrix(1,0,0,1,555.097,6604.68)">
                    <path d="M0,0.01L0.411,-0.089L0.318,-0.247L0.308,-0.23L0.318,-0.247L-0.208,-0.12L-0.221,-0.099L-0.208,-0.12L-0.593,0.225L-0.274,0.257L0,0.01Z" style="fill:rgb(0,188,218);fill-rule:nonzero;"/>
                </g>
                <g transform="matrix(1,0,0,1,498.948,6822.05)">
                    <path d="M0,-4.424L1.389,0.035L26.772,0.035L26.772,-4.459L14.751,-4.442L0,-4.424Z" style="fill:rgb(0,188,218);fill-rule:nonzero;"/>
                </g>
                <g transform="matrix(1,0,0,1,499.63,6816.03)">
                    <path d="M0,0.272L-1.587,-1.318L-0.682,1.59L14.069,1.573L26.09,1.555L26.09,0.272L0,0.272Z" style="fill:rgb(0,188,218);fill-rule:nonzero;"/>
                </g>
                <g transform="matrix(1,0,0,1,454.069,6797.38)">
                    <path d="M0,4.798L4.809,6.229L9.52,7.956L14.114,9.973L18.575,12.271L29.999,12.271L31.382,11.707L31.822,10.156L30.659,7.061L27.62,3.155L23.407,-0.074L18.075,-2.538L12.125,-4.582L4.218,-6.126L-4.099,-7.046L-10.433,-7.473L-11.35,-7.046L-11.047,-1.283L-9.836,2.852L-4.888,3.673L0,4.798Z" style="fill:white;fill-rule:nonzero;"/>
                </g>
                <g transform="matrix(1,0,0,1,607.707,6800.11)">
                    <path d="M10.733,21.975L-14.649,21.975L-14.649,16.198L11.441,16.198L13.028,14.608L12.183,17.322L10.733,21.975ZM-17.075,21.975L-79.561,21.975L-79.561,16.198L-17.075,16.198L-17.075,21.975ZM-81.986,21.975L-107.369,21.975L-108.758,17.516L-109.663,14.608L-108.076,16.198L-81.986,16.198L-81.986,21.975ZM-109.752,11.894L-109.752,9.814L-107.307,7.368L-106.359,7.368L-106.359,9.186L-106.287,9.186L-106.287,7.368L-81.986,7.368L-81.986,14.336L-107.307,14.336L-109.752,11.894ZM-81.986,-23.889L-107.307,-23.889L-109.752,-26.335L-109.752,-28.415L-107.307,-30.857L-81.986,-30.857L-81.986,-23.889ZM-79.561,-30.857L-17.075,-30.857L-17.075,-23.889L-79.561,-23.889L-79.561,-30.857ZM-14.649,-30.857L10.671,-30.857L13.116,-28.415L13.116,-26.335L10.671,-23.889L-14.649,-23.889L-14.649,-30.857ZM-79.561,14.336L-79.561,7.368L-17.075,7.368L-17.075,14.336L-79.561,14.336ZM-79.561,-22.031L-17.075,-22.031L-17.075,5.51L-79.561,5.51L-79.561,-22.031ZM-14.649,7.368L10.671,7.368L13.116,9.814L13.116,11.894L10.671,14.336L-14.649,14.336L-14.649,7.368ZM81.993,-22.19L81.993,-20.163L81.721,-20.106L81.721,-19.581L81.993,-19.75L81.993,-19.366L81.721,-19.052L80.639,-18.915L80.597,-18.908L80.597,21.975L11.197,21.975L12.647,17.319L13.702,13.934L14.974,12.662L14.974,9.849L23.59,-17.808L25.023,-22.408L24.554,-22.39L23.12,-17.79L14.812,8.88L11.441,5.51L-14.649,5.51L-14.649,-22.031L11.441,-22.031L14.974,-25.563L14.974,-29.183L11.441,-32.719L-108.076,-32.719L-111.611,-29.183L-111.611,-25.563L-108.076,-22.031L-81.986,-22.031L-81.986,5.51L-108.076,5.51L-111.448,8.88L-119.737,-17.73L-121.19,-22.39L-121.659,-22.408L-120.208,-17.748L-111.611,9.849L-111.611,12.662L-110.337,13.934L-109.222,17.516L-109.221,17.519L-107.833,21.975L-177.233,21.975L-177.233,-18.908L-177.277,-18.915L-178.359,-19.052L-178.627,-19.366L-178.627,-19.479L-178.359,-19.193L-177.233,-19.059L-177.233,-19.468L-178.359,-19.581L-178.627,-19.75L-178.627,-22.19L-179.966,-19.729L-179.966,54.694L-177.233,54.694L-177.233,53.079L80.597,53.079L80.597,54.694L83.329,54.694L83.329,-19.729L81.993,-22.19Z" style="fill:rgb(221,221,221);fill-rule:nonzero;"/>
                </g>
                <g transform="matrix(1,0,0,1,451.324,6784.66)">
                    <path d="M0,-0.349L7.275,0.606L10.882,1.082L19.138,2.785L26.835,4.903L29.13,4.903L29.926,3.885L26.196,-3.359L7.276,-4.611L-2.432,-5.252L-3.998,-3.433L-2.345,-1.188L0,-0.349Z" style="fill:rgb(221,221,221);fill-rule:nonzero;"/>
                </g>
                <g transform="matrix(1,0,0,1,446.121,6795.53)">
                    <path d="M0,8.491L-1.887,4.705L-3.099,0.57L-3.401,-5.193L-2.485,-5.62L3.849,-5.193L12.167,-4.273L20.073,-2.729L26.024,-0.685L31.355,1.779L35.568,5.008L38.608,8.914L39.77,12.009L39.33,13.56L37.948,14.124L17.749,14.124L12.556,13.528L6.97,12.252L2.609,10.514L0,8.491ZM9.481,15.121L12.17,15.714L12.332,15.731L17.631,16.338L40.074,16.338L42.821,15.506L42.929,15.121L43.555,12.925L42.075,8.995L39.927,6.249L38.475,4.388L33.537,0.62L27.382,-2.218L20.562,-4.555L12.332,-6.145L2.108,-7.35L-5.307,-7.847L-7.176,-6.984L-6.793,0.285L-5.369,5.128L-3.101,9.665L0.13,12.164L5.248,14.191L9.481,15.121Z" style="fill:rgb(221,221,221);fill-rule:nonzero;"/>
                </g>
                <g transform="matrix(1,0,0,1,640.888,6781.12)">
                    <path d="M0,0.49L0.37,0.18L0.253,0L0,0.49Z" style="fill:rgb(221,221,221);fill-rule:nonzero;"/>
                </g>
                <g transform="matrix(1,0,0,1,669.963,6779.41)">
                    <path d="M0,-0.19L-0.077,0L0.169,0L0,-0.19Z" style="fill:rgb(221,221,221);fill-rule:nonzero;"/>
                </g>
                <g transform="matrix(1,0,0,1,675.755,6803.45)">
                    <path d="M0,-7.349L-1.213,-3.214L-3.099,0.572L-5.707,2.595L-10.067,4.333L-15.655,5.609L-20.847,6.204L-41.046,6.204L-42.428,5.641L-42.868,4.089L-41.706,0.995L-38.667,-2.911L-34.453,-6.14L-29.122,-8.604L-23.172,-10.649L-15.267,-12.192L-6.948,-13.112L-0.613,-13.539L0.303,-13.112L0,-7.349ZM-19.143,7.237L-19.143,7.202L-23.121,7.202L-23.133,7.428L-23.409,7.428L-23.398,7.202L-43.758,7.202L-18.84,7.202L-19.143,7.237ZM4.078,-14.903L2.21,-15.767L-5.207,-15.27L-15.429,-14.064L-23.66,-12.474L-30.481,-10.137L-36.635,-7.3L-41.573,-3.531L-43.025,-1.67L-45.174,1.076L-46.654,5.006L-46.028,7.202L-45.919,7.586L-43.172,8.418L-20.729,8.418L-15.429,7.812L-15.27,7.794L-12.581,7.202L-8.347,6.271L-3.229,4.245L0.004,1.745L2.27,-2.791L3.694,-7.635L4.078,-14.903Z" style="fill:rgb(221,221,221);fill-rule:nonzero;"/>
                </g>
                <g transform="matrix(1,0,0,1,637.307,6780.59)">
                    <path d="M0,7.973L0.163,8.181L0.708,8.879L0.925,9.158L1.016,8.971L3.311,8.971L11.008,6.852L19.264,5.15L22.871,4.674L30.146,3.718L32.49,2.879L34.144,0.634L32.579,-1.185L22.871,-0.543L3.95,0.708L0.22,7.952L0,7.973Z" style="fill:rgb(221,221,221);fill-rule:nonzero;"/>
                </g>
                <g transform="matrix(1,0,0,1,432.784,6640.81)">
                    <path d="M0,97.543L0.006,71.06L0.016,44.771L0.029,21.558L0.478,21.548L0.924,21.535L0.478,21.548L0.029,21.558L0.016,44.771L0.006,71.06L0,97.543L-0.001,111.921L0,97.543ZM0.809,16.193L0.815,15.897L0.809,16.193L0.749,18.791L0.755,18.792L0.749,18.791L0.809,16.193ZM1.356,-2.366L1.389,-3.493L1.356,-2.366L1.341,-1.699L1.116,5.376L1.341,-1.699L1.356,-2.366ZM1.612,-9.43L251.597,-9.43L251.6,18.742L248.029,18.735L227.644,18.731L25.566,18.731L5.179,18.735L1.612,18.742L1.612,-9.43ZM118.133,-23.569L114.914,-23.542L118.133,-23.569ZM249.577,-16.836L249.196,-16.487L249.577,-16.836ZM250.571,-15.648L251.227,-14.287L251.664,-13.279L251.738,-13.036L251.664,-13.279L251.227,-14.287L250.571,-15.648L250.312,-15.957L250.571,-15.648ZM252.531,-1.9L252.759,5.062L252.531,-1.9L252.513,-2.566L252.461,-4.236L252.513,-2.566L252.531,-1.9ZM253.077,15.418L253.098,16.01L253.165,18.77L252.492,18.791L253.165,18.77L253.098,16.01L253.077,15.418L252.848,8.424L253.077,15.418ZM253.193,44.771L253.179,21.558L252.731,21.548L252.277,21.534L252.731,21.548L253.179,21.558L253.193,44.771ZM252.266,112.958L252.508,112.693L252.266,112.958ZM250.976,113.666L251.903,112.947L252.001,112.949L251.903,112.947L250.976,113.666ZM250.693,113.885L249.943,114.139L249.943,114.125L250.693,113.885ZM251.896,21.477L252.074,21.5L251.896,21.477L251.554,21.477L249.943,21.47L248.029,21.46L247.8,21.46L238.79,21.458L247.8,21.46L248.029,21.46L249.943,21.47L251.554,21.477L251.896,21.477ZM252.4,16.193L252.167,8.618L252.386,15.608L252.4,16.193L251.621,18.742L251.611,18.742L252.4,16.193ZM250.194,-15.295L250.031,-15.489L250.194,-15.295L250.729,-13.952L250.194,-15.295ZM249.443,-11.051L251.336,-11.989L249.443,-11.051ZM248.036,114.787L247.8,114.812L227.641,116.941L227.542,116.948L200.013,119.116L199.946,119.119L172.327,120.519L172.294,120.519L144.622,121.309L129.393,121.309L129.393,21.654L142.723,21.654L142.722,21.46L142.858,21.46L142.723,21.654L144.614,21.654L144.614,21.456L144.635,21.456L144.619,21.654L172.294,21.654L172.294,21.456L172.327,21.456L172.294,21.654L181.797,21.654L181.797,21.646L181.797,21.654L199.946,21.654L199.946,21.456L200.011,21.456L199.946,21.654L227.542,21.654L227.542,21.456L227.637,21.456L227.542,21.654L247.8,21.654L249.943,21.657L251.554,21.661L252.474,21.689L252.485,44.88L252.495,71.134L252.499,97.578L252.499,111.939L251.554,112.972L250.345,113.91L249.943,114.051L249.665,114.149L247.8,114.812L248.036,114.787L249.665,114.234L249.851,114.17L249.665,114.234L248.036,114.787ZM1.654,21.477L1.312,21.477L1.157,21.497L1.312,21.477L1.654,21.477L3.266,21.47L5.179,21.46L5.411,21.46L14.417,21.458L5.411,21.46L5.179,21.46L3.266,21.47L1.654,21.477ZM108.587,121.309L80.916,120.519L80.882,120.519L53.264,119.119L53.197,119.116L25.669,116.948L25.569,116.941L5.411,114.812L5.175,114.787L3.545,114.234L3.266,114.139L3.545,114.234L5.175,114.787L3.545,114.167L3.266,114.061L2.865,113.91L1.654,112.972L0.711,111.939L0.712,97.578L0.716,71.134L0.723,44.88L0.735,21.689L1.654,21.661L3.266,21.657L5.411,21.654L25.669,21.654L25.571,21.456L25.669,21.456L25.669,21.654L53.264,21.654L53.199,21.456L53.264,21.456L53.264,21.654L71.413,21.654L71.405,21.555L71.413,21.654L80.916,21.654L80.883,21.456L80.916,21.456L80.916,21.654L108.591,21.654L108.575,21.456L108.596,21.456L108.596,21.654L110.487,21.654L110.352,21.46L110.487,21.46L110.487,21.654L123.817,21.654L123.817,121.309L108.587,121.309ZM1.306,112.947L1.208,112.949L1.306,112.947L1.781,113.315L1.306,112.947ZM0.448,112.415L0.942,112.958L0.448,112.415ZM0.942,116.423L1.11,116.419L1.306,116.416L1.341,116.43L1.356,116.434L1.654,116.536L5.175,117.731L5.411,117.755L25.569,119.74L53.197,121.911L80.882,123.307L108.587,124.097L108.596,124.097L108.596,124.125L137.822,124.125L137.847,124.097L144.622,124.097L172.327,123.307L172.294,123.335L199.946,121.936L227.542,119.768L247.8,117.755L248.036,117.731L251.554,116.536L251.854,116.434L251.868,116.43L251.903,116.416L252.101,116.419L252.266,116.423L254.29,114.181L255.002,113.395L255.002,71.06L254.998,44.88L254.998,44.771L254.995,18.925L254.995,18.77L254.868,13.571L254.762,9.27L254.748,8.745L254.642,4.416L254.519,-0.448L254.501,-1.248L254.494,-1.52L254.462,-2.665L254.438,-3.529L254.378,-5.989L254.275,-10.082L254.247,-11.139L253.983,-12.042L253.5,-13.674L252.693,-16.42L252.569,-16.599L251.551,-18.091L251.04,-18.838L250.733,-18.972L250.535,-19.056L247.152,-20.526L247.092,-20.533L246.905,-20.548L229.491,-22.039L228.801,-22.098L228.705,-22.105L203.664,-23.91L202.647,-23.981L202.582,-23.984L177.419,-25.359L176.432,-25.412L176.397,-25.415L151.147,-26.346L150.169,-26.381L127.506,-26.575L126.605,-26.582L125.704,-26.575L103.041,-26.381L103.044,-26.381L110.232,-23.811L116.549,-23.865L110.232,-23.811L103.044,-26.381L103.041,-26.381L102.063,-26.346L76.813,-25.415L76.778,-25.412L75.791,-25.359L50.628,-23.984L50.563,-23.981L49.546,-23.91L24.505,-22.105L24.41,-22.098L23.718,-22.039L6.303,-20.548L6.118,-20.533L6.06,-20.526L2.676,-19.056L2.475,-18.972L2.17,-18.838L1.66,-18.091L0.641,-16.599L0.518,-16.42L-0.291,-13.674L-0.772,-12.042L-1.038,-11.139L-1.064,-10.082L-1.167,-5.989L-1.229,-3.529L-1.252,-2.665L-1.283,-1.52L-1.291,-1.248L-1.311,-0.448L-1.431,4.416L-1.538,8.745L-1.551,9.27L-1.656,13.571L-1.783,18.77L-1.783,18.925L-1.788,44.771L-1.788,44.88L-1.791,71.06L-1.791,71.13L-1.792,97.543L-1.792,97.578L-1.793,113.395L-1.081,114.181L0.942,116.423Z" style="fill:rgb(221,221,221);fill-rule:nonzero;"/>
                </g>
                <g transform="matrix(1,0,0,1,415.096,6749.23)">
                    <path d="M0,-73.8L-2.618,-74.339L-7.807,-74.339L-7.807,-77.417L14.448,-79.218L14.448,15.7L15.378,15.7L15.378,-89.5L13.569,-89.5L13.569,-88.704L-7.828,-84.258L-7.828,-84.854L-10.254,-84.854L-10.254,-77.417L-10.338,-77.417L-10.338,-74.339L-14.582,-74.339L-17.199,-73.8L-19.116,-72.32L-19.818,-70.3L-19.818,-39.17L-19.116,-37.151L-17.199,-35.67L-14.582,-35.131L-14.547,-35.522L-2.822,-35.522L-2.618,-35.131L0,-35.67L1.917,-37.151L2.618,-39.17L2.618,-70.3L1.917,-72.32L0,-73.8Z" style="fill:rgb(221,221,221);fill-rule:nonzero;"/>
                </g>
                <g transform="matrix(1,0,0,1,688.73,6775.51)">
                    <path d="M0,0.631L-0.427,-0.155L-0.427,0.726L0.085,0.786L0,0.631Z" style="fill:rgb(221,221,221);fill-rule:nonzero;"/>
                </g>
                <g transform="matrix(1,0,0,1,677.464,6820.78)">
                    <path d="M0,0.423L0.521,0.282L0.349,0L-0.06,0.109L-7.868,0.109L-8.273,0L-8.517,0.282L-7.995,0.423L0,0.423Z" style="fill:rgb(221,221,221);fill-rule:nonzero;"/>
                </g>
                <g transform="matrix(1,0,0,1,677.813,6816.95)">
                    <path d="M0,-0.148L0.271,0.127L0.557,-0.046L0.328,-0.275L0.077,-0.275L0,-0.148Z" style="fill:rgb(221,221,221);fill-rule:nonzero;"/>
                </g>
                <g transform="matrix(1,0,0,1,668.567,6816.7)">
                    <path d="M0,0.211L0.349,0.384L0.624,0.109L0.515,-0.018L0.381,-0.173L0.226,-0.018L0,0.211Z" style="fill:rgb(221,221,221);fill-rule:nonzero;"/>
                </g>
                <g transform="matrix(1,0,0,1,677.464,6816.38)">
                    <path d="M0,0.004L0.521,0.145L0.652,0.008L0.099,-0.141L-8.375,-0.141L-8.929,0.008L-8.517,0.145L-7.995,0.004L0,0.004Z" style="fill:rgb(221,221,221);fill-rule:nonzero;"/>
                </g>
                <g transform="matrix(1,0,0,1,668.13,6820.51)">
                    <path d="M0,0.285L0.405,0.694L0.818,0.556L0.437,0.172L0.786,-0.001L0.677,-0.409L0.296,-0.353L-0.148,-0.272L0,0.285Z" style="fill:rgb(221,221,221);fill-rule:nonzero;"/>
                </g>
                <g transform="matrix(1,0,0,1,668.035,6817.07)">
                    <path d="M0,0.091L-0.042,0.243L-0.053,0.281L0.391,0.366L0.465,0.091L0.532,-0.163L0.095,-0.275L0,0.091Z" style="fill:rgb(221,221,221);fill-rule:nonzero;"/>
                </g>
                <g transform="matrix(-0.802527,-0.596616,-0.596616,0.802527,677.95,6820.9)">
                    <path d="M-0.395,-0.427L-0.205,-0.427L-0.126,0.111L-0.314,0.143L-0.395,-0.427Z" style="fill:rgb(221,221,221);fill-rule:nonzero;"/>
                </g>
                <g transform="matrix(1,0,0,1,449.307,6820.78)">
                    <path d="M0,0.423L0.522,0.282L0.281,0L-0.127,0.109L-7.935,0.109L-8.343,0L-8.517,0.282L-7.995,0.423L0,0.423Z" style="fill:rgb(221,221,221);fill-rule:nonzero;"/>
                </g>
                <g transform="matrix(0.688332,-0.725396,-0.725396,-0.688332,440.807,6821.02)">
                    <rect x="-0.232" y="-0.018" width="0.205" height="0.542" style="fill:rgb(221,221,221);"/>
                </g>
                <g transform="matrix(1,0,0,1,449.588,6816.8)">
                    <path d="M0,0.007L0.272,0.282L0.624,0.109L0.396,-0.12L0.241,-0.275L0.108,-0.12L0,0.007Z" style="fill:rgb(221,221,221);fill-rule:nonzero;"/>
                </g>
                <g transform="matrix(-0.984563,0.175033,0.175033,0.984563,440.43,6820.69)">
                    <path d="M-0.255,-0.559L0.065,-0.559L0.019,-0.017L-0.291,-0.138L-0.255,-0.559Z" style="fill:rgb(221,221,221);fill-rule:nonzero;"/>
                </g>
                <g transform="matrix(1,0,0,1,449.688,6816.8)">
                    <path d="M0,-0.568L-8.474,-0.568L-9.027,-0.42L-8.897,-0.282L-8.801,-0.127L-8.723,0L-8.315,-0.11L-8.319,-0.127L-8.375,-0.423L-0.38,-0.423L0.142,-0.282L0.553,-0.42L0,-0.568Z" style="fill:rgb(221,221,221);fill-rule:nonzero;"/>
                </g>
                <g transform="matrix(-0.967736,-0.251968,-0.251968,0.967736,449.805,6820.98)">
                    <path d="M-0.766,-0.394L-0.317,-0.394L-0.044,0.074L-0.477,0.104L-0.766,-0.394Z" style="fill:rgb(221,221,221);fill-rule:nonzero;"/>
                </g>
                <g transform="matrix(1,0,0,1,440.341,6817.23)">
                    <path d="M0,-0.074L-0.073,0.201L0.242,0.254L0.33,-0.074L0.352,-0.155L0.067,-0.328L0,-0.074Z" style="fill:rgb(221,221,221);fill-rule:nonzero;"/>
                </g>
                <g transform="matrix(1,0,0,1,718.59,6712.08)">
                    <path d="M0,4.039L-1.918,2.562L-4.54,2.019L-16.522,2.019L-19.144,2.562L-21.065,4.039L-21.767,6.062L-21.598,6.372L-21.598,36.878L-21.767,37.188L-21.065,39.208L-19.144,40.688L-16.522,41.228L-16.455,40.84L-12.094,40.84L-12.094,44.308L-12.038,44.308L-29.356,46.106L-29.356,-52.35L-30.287,-52.35L-30.287,56.389L-28.225,56.389L-28.225,55.588L-12.038,51.27L-12.038,51.743L-9.676,51.743L-9.676,44.308L-9.56,44.308L-9.56,40.84L-4.713,40.84L-4.54,41.228L-1.918,40.688L0,39.208L0.701,37.188L0.701,6.062L0,4.039Z" style="fill:rgb(221,221,221);fill-rule:nonzero;"/>
                </g>
                <g transform="matrix(1,0,0,1,430.473,6775.41)">
                    <path d="M0,0.821L0,-0.06L-0.427,0.726L-0.512,0.881L0,0.821Z" style="fill:rgb(221,221,221);fill-rule:nonzero;"/>
                </g>
                <g transform="matrix(1,0,0,1,509.653,6810.6)">
                    <path d="M-0.024,0.053L0.032,0.053L-0.292,0L-0.323,0L-0.024,0.053Z" style="fill:rgb(221,221,221);fill-rule:nonzero;"/>
                </g>
                <g transform="matrix(1,0,0,1,644.13,6853.19)">
                    <rect x="-213.657" y="0" width="213.657" height="1.615" style="fill:rgb(142,142,142);fill-rule:nonzero;"/>
                </g>
                <g transform="matrix(1,0,0,1,668.222,6854.8)">
                    <rect x="-24.091" y="-1.615" width="44.173" height="1.615" style="fill:rgb(142,142,142);fill-rule:nonzero;"/>
                </g>
                <g transform="matrix(1,0,0,1,655.189,6794.23)">
                    <path d="M0,11.114L4.711,9.387L9.519,7.956L14.408,6.831L19.354,6.01L20.566,1.875L20.869,-3.888L19.953,-4.315L13.618,-3.888L5.299,-2.968L-2.605,-1.424L-8.556,0.62L-13.887,3.084L-18.101,6.313L-21.14,10.219L-22.302,13.314L-21.862,14.865L-20.48,15.429L-9.056,15.429L-4.595,13.13L0,11.114Z" style="fill:white;fill-rule:nonzero;"/>
                </g>
                <g transform="matrix(1,0,0,1,559.388,6816.35)">
                    <path d="M0,1.188L18.009,1.156L31.243,1.135L31.243,-0.046L-31.242,-0.046L-31.242,1.234L-18.009,1.216L0,1.188Z" style="fill:rgb(0,188,218);fill-rule:nonzero;"/>
                </g>
                <g transform="matrix(1,0,0,1,559.388,6817.48)">
                    <path d="M-31.242,4.597L31.243,4.597L31.243,0L18.009,0.022L0,0.053L-18.009,0.081L-31.242,0.099L-31.242,4.597Z" style="fill:rgb(0,188,218);fill-rule:nonzero;"/>
                </g>
                <g transform="matrix(1,0,0,1,607.707,6817.43)">
                    <path d="M-14.65,4.653L10.733,4.653L12.183,0L-2.629,0.028L-14.65,0.049L-14.65,4.653Z" style="fill:rgb(0,188,218);fill-rule:nonzero;"/>
                </g>
                <g transform="matrix(1,0,0,1,619.889,6814.76)">
                    <path d="M0,2.665L0.845,-0.049L-0.742,1.541L-26.833,1.541L-26.833,2.714L-14.812,2.693L0,2.665Z" style="fill:rgb(0,188,218);fill-rule:nonzero;"/>
                </g>
                <g transform="matrix(1,0,0,1,667.563,6613.76)">
                    <path d="M0,-1.953L0.039,0.458L0.423,0.303L0.388,-2.009L0.451,-2.235L0.49,-2.366L0.13,-2.411L0.088,-2.267L0,-1.953Z" style="fill:rgb(0,188,218);fill-rule:nonzero;"/>
                </g>
                <g transform="matrix(0.306164,0.951979,0.951979,-0.306164,450.35,6614.6)">
                    <path d="M0.093,-0.406L0.511,-0.406L0.524,0.139L0.104,0.019L0.093,-0.406Z" style="fill:rgb(0,188,218);fill-rule:nonzero;"/>
                </g>
                <g transform="matrix(-0.296805,0.954938,0.954938,0.296805,451.265,6614.34)">
                    <path d="M-0.124,-0.536L0.264,-0.536L0.404,-0.122L-0.09,-0.121L-0.124,-0.536Z" style="fill:rgb(0,188,218);fill-rule:nonzero;"/>
                </g>
                <g transform="matrix(0.505899,0.862593,0.862593,-0.505899,545.601,6607.93)">
                    <path d="M0.096,-0.29L0.525,-0.29L0.423,0.217L0.021,0.071L0.096,-0.29Z" style="fill:rgb(0,188,218);fill-rule:nonzero;"/>
                </g>
                <g transform="matrix(-0.75741,0.65294,0.65294,0.75741,554.985,6608.54)">
                    <path d="M-0.241,-0.527L0.18,-0.527L0.112,-0.017L-0.29,-0.165L-0.241,-0.527Z" style="fill:rgb(0,188,218);fill-rule:nonzero;"/>
                </g>
                <g transform="matrix(1,0,0,1,605.078,6769.25)">
                    <path d="M-12.021,6.969L13.299,6.969L15.744,4.523L15.744,2.443L13.299,0L-12.021,0L-12.021,6.969Z" style="fill:rgb(0,188,218);fill-rule:nonzero;"/>
                </g>
                <g transform="matrix(1,0,0,1,559.388,6769.25)">
                    <rect x="-31.242" y="0" width="62.485" height="6.969" style="fill:rgb(0,188,218);fill-rule:nonzero;"/>
                </g>
                <g transform="matrix(1,0,0,1,513.699,6776.22)">
                    <path d="M12.021,-6.969L-13.299,-6.969L-15.745,-4.526L-15.745,-2.447L-13.299,0L12.021,0L12.021,-6.969Z" style="fill:rgb(0,188,218);fill-rule:nonzero;"/>
                </g>
                <g transform="matrix(1,0,0,1,598.492,6812.92)">
                    <path d="M0,-0.751L0.054,-0.751L0,-0.751ZM19.885,1.519L22.33,-0.924L22.33,-2.27L10.632,-2.27L6.586,-1.6L4.521,-1.333L0.658,-0.832L4.447,-1.329L4.457,-1.329L6.537,-1.6L10.599,-2.27L-5.435,-2.27L-5.435,-0.162L-2.629,-0.409L-5.435,-0.162L-5.435,1.519L19.885,1.519Z" style="fill:rgb(0,188,218);fill-rule:nonzero;"/>
                </g>
                <g transform="matrix(1,0,0,1,617.43,6808.83)">
                    <path d="M0,0.458L-7.983,1.766L-8.014,1.766L-8.338,1.819L3.392,1.819L3.392,1.085L0.948,-1.361L-0.073,-1.361L-0.073,0.458L0,0.458Z" style="fill:rgb(0,188,218);fill-rule:nonzero;"/>
                </g>
                <g transform="matrix(1,0,0,1,605.03,6808.9)">
                    <path d="M0,-1.287L0.048,-1.294L0.86,-1.428L-11.973,-1.428L-11.973,0.141L-9.142,-0.103L0,-1.287Z" style="fill:rgb(0,188,218);fill-rule:nonzero;"/>
                </g>
                <g transform="matrix(1,0,0,1,609.091,6807.47)">
                    <path d="M0,3.179L0.324,3.126L8.266,1.818L8.266,0L-3.202,0L-4.014,0.133L-4.062,0.14L-13.203,1.325L-16.034,1.568L-16.034,3.179L0,3.179Z" style="fill:rgb(0,188,218);fill-rule:nonzero;"/>
                </g>
                <g transform="matrix(1,0,0,1,550.86,6800.31)">
                    <path d="M0,-11.576L-0.003,-11.576L0,-11.576ZM30.524,-3.691L30.501,-3.754L30.524,-3.691ZM-22.714,5.302L39.771,5.302L39.771,-16.878L26.538,-16.772L-9.48,-16.772L-22.714,-16.878L-22.714,5.302Z" style="fill:rgb(0,188,218);fill-rule:nonzero;"/>
                </g>
                <g transform="matrix(1,0,0,1,559.388,6778.79)">
                    <path d="M-18.009,4.755L18.009,4.755L31.243,4.649L31.243,0L18.009,0.106L-18.009,0.106L-31.242,0L-31.242,4.649L-18.009,4.755Z" style="fill:rgb(0,188,218);fill-rule:nonzero;"/>
                </g>
                <g transform="matrix(1,0,0,1,559.388,6778.07)">
                    <path d="M-18.009,0.818L18.009,0.818L31.243,0.712L31.243,0L-31.242,0L-31.242,0.712L-18.009,0.818Z" style="fill:rgb(0,188,218);fill-rule:nonzero;"/>
                </g>
                <g transform="matrix(1,0,0,1,532.122,6811.78)">
                    <path d="M0,1.533L0.024,1.533L9.258,1.935L45.276,1.935L54.51,1.533L54.534,1.533L54.51,1.533L45.276,1.935L9.258,1.935L0.024,1.533L0,1.533ZM-3.976,2.661L58.51,2.661L58.51,-1.128L-3.976,-1.128L-3.976,2.661Z" style="fill:rgb(0,188,218);fill-rule:nonzero;"/>
                </g>
                <g transform="matrix(1,0,0,1,559.388,6809.25)">
                    <path d="M-31.242,1.399L31.243,1.399L31.243,0L27.267,0.342L18.009,0.747L-18.009,0.747L-27.267,0.342L-31.242,0L-31.242,1.399Z" style="fill:rgb(0,188,218);fill-rule:nonzero;"/>
                </g>
                <g transform="matrix(1,0,0,1,559.388,6809.63)">
                    <path d="M0,-1.78L-0.035,-1.776L0,-1.78ZM-18.009,0.374L18.009,0.374L27.267,-0.032L31.243,-0.374L31.243,-2.154L-31.242,-2.154L-31.242,-0.374L-27.267,-0.032L-18.009,0.374Z" style="fill:rgb(0,188,218);fill-rule:nonzero;"/>
                </g>
                <g transform="matrix(1,0,0,1,513.748,6810.51)">
                    <path d="M0,-2.898L-0.048,-2.905L-0.86,-3.039L-12.328,-3.039L-12.328,-1.22L-4.386,0.088L-4.062,0.141L11.973,0.141L11.973,-1.47L9.142,-1.714L0,-2.898Z" style="fill:rgb(0,188,218);fill-rule:nonzero;"/>
                </g>
                <g transform="matrix(1,0,0,1,512.888,6809.04)">
                    <path d="M0,-1.569L0.812,-1.435L0.86,-1.428L10.002,-0.244L12.833,0L12.833,-1.569L0,-1.569Z" style="fill:rgb(0,188,218);fill-rule:nonzero;"/>
                </g>
                <g transform="matrix(1,0,0,1,520.285,6812.92)">
                    <path d="M0,-0.751L-0.054,-0.751L0,-0.751ZM-10.599,-2.27L-6.537,-1.6L-4.457,-1.329L-4.447,-1.329L-0.658,-0.832L-4.522,-1.333L-6.586,-1.6L-10.632,-2.27L-22.33,-2.27L-22.33,-0.924L-19.885,1.519L5.435,1.519L5.435,-0.162L2.628,-0.409L5.435,-0.162L5.435,-2.27L-10.599,-2.27Z" style="fill:rgb(0,188,218);fill-rule:nonzero;"/>
                </g>
                <g transform="matrix(1,0,0,1,509.33,6807.53)">
                    <path d="M0,3.074L-0.026,3.074L-7.983,1.766L-7.983,-0.053L-8.93,-0.053L-11.375,2.394L-11.375,3.127L0.299,3.127L0,3.074Z" style="fill:rgb(0,188,218);fill-rule:nonzero;"/>
                </g>
                <g transform="matrix(1,0,0,1,667.749,6612.3)">
                    <path d="M0,2.393L0.384,2.756L0.042,3.25L0.589,3.412L2.866,3.503L8.925,3.761L9.461,3.644L9.842,3.278L9.771,2.932L9.905,2.474L9.969,2.763L9.912,0.997L9.888,0.141L9.884,0.127L9.863,0.063L9.718,-0.409L9.673,-0.409L9.443,-0.399L9.169,-0.656L8.76,-0.776L8.809,-0.927L0.839,-1.368L0.973,-1.206L0.571,-1.132L0.317,-1.269L-0.056,-0.949L0.303,-0.903L0.264,-0.772L0.201,-0.547L0.236,1.766L-0.148,1.921L-0.187,-0.49L-0.099,-0.804L-0.056,-0.949L-0.212,-0.815L-0.374,-0.321L-0.476,2.319L-0.345,2.848L0,2.393Z" style="fill:rgb(245,103,32);fill-rule:nonzero;"/>
                </g>
                <g transform="matrix(1,0,0,1,581.741,6604.65)">
                    <path d="M0,4.128L0.526,4.008L0.624,4.272L1.01,3.906L0.91,3.67L1.05,3.204L1.142,3.402L1.112,2.112L1.108,1.883L1.099,0.867L1.048,0.783L0.906,0.31L0.594,0.339L0.32,0.088L-0.091,-0.014L-0.005,-0.169L-8.06,-0.278L-8.585,-0.158L-8.367,-0.028L-8.64,0.212L-8.75,0.578L-8.749,1.826L-8.748,2.901L-8.637,3.268L-8.966,3.539L-8.581,3.885L-8.055,4.019L-8.207,4.368L-5.722,4.378L0.089,4.406L0,4.128Z" style="fill:rgb(245,103,32);fill-rule:nonzero;"/>
                </g>
                <g transform="matrix(1,0,0,1,572.633,6607.33)">
                    <path d="M0,-0.857L-0.001,-2.034L-0.12,-1.883L-0.129,-0.857L-0.166,0.673L-0.032,1.177L0.143,0.86L0.001,0.387L0,-0.857Z" style="fill:rgb(245,103,32);fill-rule:nonzero;"/>
                </g>
                <g transform="matrix(0.441446,0.897288,0.897288,-0.441446,564.321,6608.05)">
                    <path d="M0.189,-0.022L0.398,-0.022L0.011,0.317L-0.169,0.311L0.189,-0.022Z" style="fill:rgb(245,103,32);fill-rule:nonzero;"/>
                </g>
                <g transform="matrix(1,0,0,1,441.567,6611.04)">
                    <path d="M0,4.897L0.535,5.013L6.595,4.756L8.873,4.664L9.419,4.502L9.076,4.009L8.553,4.164L8.425,3.766L8.834,3.646L9.076,4.009L9.462,3.646L9.108,3.388L9.223,3.018L9.609,3.173L9.462,3.646L9.808,4.1L9.935,3.572L9.834,0.931L9.649,0.762L9.262,0.706L9.197,0.48L9.159,0.35L8.891,0.121L8.487,0.047L8.623,-0.116L0.652,0.325L0.702,0.477L0.294,0.596L0.019,0.854L-0.257,0.843L-0.404,1.316L-0.443,3.727L-0.509,4.016L-0.382,4.53L0,4.897Z" style="fill:rgb(245,103,32);fill-rule:nonzero;"/>
                </g>
                <g transform="matrix(-0.292973,-0.956121,-0.956121,0.292973,546.392,6604.92)">
                    <path d="M-0.462,0.275L0.043,0.275L0.203,0.342L-0.283,0.344L-0.462,0.275Z" style="fill:rgb(245,103,32);fill-rule:nonzero;"/>
                </g>
                <g transform="matrix(0.726698,0.686957,0.686957,-0.726698,554.568,6608.29)">
                    <path d="M-0.01,-0.185L0.518,-0.185L0.452,-0.01L-0.063,-0.026L-0.01,-0.185Z" style="fill:rgb(245,103,32);fill-rule:nonzero;"/>
                </g>
                <g transform="matrix(0.722642,-0.691223,-0.691223,-0.722642,546.055,6608.86)">
                    <path d="M-0.208,0.173L0.333,0.173L0.426,0.523L-0.092,0.539L-0.208,0.173Z" style="fill:rgb(245,103,32);fill-rule:nonzero;"/>
                </g>
                <g transform="matrix(1,0,0,1,688.303,6780.79)">
                    <path d="M0,-4.554L0,0.409L0.042,0.402L1.124,0.265L1.396,-0.049L1.396,-0.433L1.124,-0.264L1.124,-0.789L1.396,-0.846L1.396,-3.863L1.124,-4.032L1.124,-4.42L0.511,-4.494L0,-4.554Z" style="fill:rgb(245,103,32);fill-rule:nonzero;"/>
                </g>
                <g transform="matrix(-0.653369,-0.75704,-0.75704,0.653369,689.551,6776.27)">
                    <path d="M-0.3,0.064L0.115,0.064L0.008,0.156L-0.386,0.137L-0.3,0.064Z" style="fill:rgb(245,103,32);fill-rule:nonzero;"/>
                </g>
                <g transform="matrix(1,0,0,1,546.144,6606.95)">
                    <path d="M0,-0.483L0.001,-1.66L-0.359,-1.728L-0.468,-2.094L-0.742,-2.334L-1.152,-2.425L-1.049,-2.584L-9.104,-2.475L-9.018,-2.32L-9.429,-2.217L-9.703,-1.967L-10.015,-1.995L-10.156,-1.523L-10.208,-1.438L-10.216,-0.423L-10.221,-0.194L-10.25,1.096L-10.118,1.6L-10.019,1.364L-9.634,1.702L-9.733,1.967L-9.198,2.101L-3.386,2.073L-0.902,2.062L-1.054,1.713L-0.528,1.579L-0.746,1.209L-0.472,0.962L-0.143,1.234L-0.001,0.761L0,-0.483Z" style="fill:rgb(245,103,32);fill-rule:nonzero;"/>
                </g>
                <g transform="matrix(1,0,0,1,564.526,6607.54)">
                    <path d="M0,0.226L0,-2.196L-0.353,-2.266L-0.463,-2.633L-0.737,-2.876L-1.148,-2.971L-1.052,-3.13L-5.138,-3.119L-9.11,-3.109L-9.018,-2.95L-9.429,-2.851L-9.703,-2.605L-10.022,-2.636L-10.162,-2.167L-9.813,-2.238L-9.813,0.081L-10.162,0.254L-10.022,0.723L-9.703,0.448L-9.429,0.691L-9.637,1.065L-9.11,1.188L-5.138,1.178L-1.052,1.167L-0.526,1.04L-0.737,0.667L-0.463,0.423L-0.353,0.057L0,0.226Z" style="fill:rgb(245,103,32);fill-rule:nonzero;"/>
                </g>
                <g transform="matrix(1,0,0,1,668.793,6816.61)">
                    <path d="M0,0.063L0.155,-0.092L-0.257,-0.229L-0.663,0.179L-0.226,0.292L0,0.063Z" style="fill:rgb(245,103,32);fill-rule:nonzero;"/>
                </g>
                <g transform="matrix(1,0,0,1,678.141,6820.77)">
                    <path d="M-0.155,-4.244L0.229,-3.86L-0.056,-3.687L-0.328,-3.962L-0.25,-4.089L-0.155,-4.244L-0.677,-4.385L-8.671,-4.385L-9.193,-4.244L-9.059,-4.089L-8.95,-3.962L-9.225,-3.687L-9.574,-3.86L-9.641,-3.606L-9.715,-3.331L-10.159,-3.416L-10.159,-0.532L-9.715,-0.613L-9.334,-0.67L-9.225,-0.261L-9.574,-0.088L-9.193,0.296L-8.95,0.014L-8.544,0.123L-0.737,0.123L-0.328,0.014L-0.155,0.296L0.229,-0.088L0.381,0.025L0.529,-0.532L0.529,-3.416L0.511,-3.483L0.381,-3.973L-0.025,-4.381L-0.155,-4.244Z" style="fill:rgb(245,103,32);fill-rule:nonzero;"/>
                </g>
                <g transform="matrix(1,0,0,1,677.464,6821.21)">
                    <path d="M0,-0.004L-7.995,-0.004L-8.516,-0.145L-8.929,-0.008L-8.375,0.141L0.099,0.141L0.652,-0.008L0.522,-0.145L0,-0.004Z" style="fill:rgb(245,103,32);fill-rule:nonzero;"/>
                </g>
                <g transform="matrix(1,0,0,1,449.307,6821.21)">
                    <path d="M0,-0.004L-7.995,-0.004L-8.517,-0.145L-8.647,-0.008L-8.094,0.141L0.38,0.141L0.933,-0.008L0.522,-0.145L0,-0.004Z" style="fill:rgb(245,103,32);fill-rule:nonzero;"/>
                </g>
                <g transform="matrix(1,0,0,1,440.67,6820.28)">
                    <path d="M0,-3.123L-0.087,-2.795L-0.402,-2.848L-0.33,-3.123L-0.263,-3.377L0.022,-3.204L0,-3.123ZM9.975,-3.49L9.57,-3.899L9.159,-3.761L9.314,-3.606L9.541,-3.377L9.189,-3.204L8.917,-3.479L9.025,-3.606L9.159,-3.761L8.637,-3.902L0.642,-3.902L0.698,-3.606L0.701,-3.588L0.294,-3.479L0.216,-3.606L0.12,-3.761L-0.01,-3.899L-0.415,-3.49L-0.564,-2.933L-0.564,-0.049L-0.415,0.508L-0.263,0.395L-0.402,-0.13L-0.087,-0.187L0.022,0.222L-0.263,0.395L0.12,0.779L0.294,0.497L0.701,0.606L8.509,0.606L8.917,0.497L9.159,0.779L9.541,0.395L9.975,0.508L10.123,-0.049L10.123,-2.933L9.975,-3.49Z" style="fill:rgb(245,103,32);fill-rule:nonzero;"/>
                </g>
            </g>
        </g>
    </g>
</svg>
