<?xml version="1.0" encoding="UTF-8" standalone="no"?>
<!DOCTYPE svg PUBLIC "-//W3C//DTD SVG 1.1//EN" "http://www.w3.org/Graphics/SVG/1.1/DTD/svg11.dtd">
<svg width="100%" height="100%" viewBox="0 0 749 798" version="1.1" xmlns="http://www.w3.org/2000/svg" xmlns:xlink="http://www.w3.org/1999/xlink" xml:space="preserve" xmlns:serif="http://www.serif.com/" style="fill-rule:evenodd;clip-rule:evenodd;stroke-linejoin:round;stroke-miterlimit:2;">
    <g id="Artboard1" transform="matrix(9.01961,0,0,2.36198,727.861,3.60476)">
        <rect x="-80.698" y="-1.526" width="83.023" height="337.689" style="fill:none;"/>
        <clipPath id="_clip1">
            <rect x="-80.698" y="-1.526" width="83.023" height="337.689"/>
        </clipPath>
        <g clip-path="url(#_clip1)">
            <g transform="matrix(0.0759661,0,0,0.29009,-317.868,-1705.99)">
                <g id="tree">
                    <g>
                        <g opacity="0.6">
                            <g transform="matrix(1,0,0,1,3981.49,6396.43)">
                                <path d="M0,59.02L18.73,25.823L42.186,-70.295L-23.269,-82.918L-17.88,-92.786L-39.546,-86.056L-70.125,-91.949L-83.999,-137.506L-115.923,-135.408L-115.179,-161.135L-124.083,-152.45L-128.461,-218.768L-144.894,-218.646L-144.835,-271.17L-199.686,-271.089L-199.593,-271.229L-204.144,-280.852L-204.11,-283.597L-368.594,-283.851L-368.746,-270.848L-369.343,-270.848L-369.321,-273.031L-419.937,-272.684L-421.295,-283.272L-588.845,-231.048L-580.745,-167.784L-602.712,-171.418L-603.059,-165.458L-624.746,-168.613L-630.57,-94.508L-628.671,-44.535L-678.792,-2.015L-672.456,10.519L-686.076,6.83L-654.115,101.032L-625.075,136.137L-611.265,174.52L-567.344,270.874L-524.165,342.871L-407.176,302.99L-380.302,312.279L-381.846,310.062L-409.21,283.34L-410.094,281.863L-433.271,238.287L-444.214,187.269L-469.353,146.408L-479.268,135.304L-479.17,134.927L-478.844,134.479L-478.413,134.14L-478.041,134.035L-466.569,143.523L-466.176,143.908L-439.704,182.358L-425.271,235.623L-401.888,276.359L-372.448,301.899L-364.905,311.807L-363.607,288.139L-339.677,279.98L-339.605,273.824L-339.398,272.889L-345.786,247.427L-365.476,191.432L-391.766,151.644L-398.677,142.685L-434.569,98.304L-477.698,65.898L-477.199,64.324L-432.915,93.109L-393.674,136.036L-357.46,181.885L-332.74,239.429L-331.133,231.38L-329.805,205.843L-329.948,202.958L-370.079,142.186L-401.351,77.784L-426.778,21.229L-455.973,-38.689L-452.678,-40.486L-419.701,20.709L-391.419,77.124L-357.668,140.921L-331.179,178.505L-334.229,117.825L-336.031,97.238L-338.392,87.395L-345.654,22.76L-346.039,-0.691L-345.849,-0.754L-348.053,-20.267L-358.776,-62.838L-367.388,-132.295L-367.282,-132.337L-367.062,-132.392L-366.809,-132.447L-366.618,-132.476L-366.563,-132.468L-352.088,-64.242L-337.694,-22.42L-335.219,-8.601L-328.739,24.541L-323.295,66.02L-320.063,55.97L-306.227,-1.3L-290.115,-65.042L-287.72,-59.653L-287.192,-56.865L-301.54,5.375L-302.991,11.957L-308.739,38.737L-313.612,61.706L-316.687,118.54L-315.457,132.182L-314.64,134.927L-314.213,145.925L-309.082,202.734L-310.029,269.874L-231.394,243.067L-223.407,214.011L-209.715,142.254L-208.983,142.008L-207.845,142.148L-217.232,213.665L-223.374,240.335L-202.156,233.101L-203.061,231.595L-186.814,234.726L-197.245,245.216L-227.777,259.473L-237.096,263.823L-310.427,298.06L-310.427,298.244L-274.658,298.244L-242.421,283.194L-232.134,278.392L-161.079,245.216L-156.468,240.576L-116.541,248.275L-38.256,218.546L30.253,156.479L77.786,74.015L0,59.02Z" style="fill:rgb(130,195,65);fill-rule:nonzero;"/>
                            </g>
                        </g>
                        <g transform="matrix(1,0,0,1,3657.94,6609.27)">
                            <path d="M0,87.262L0,87.102L0.009,87.116L0,87.262ZM80.683,71.977L44.28,135.383L6.248,197.376L0.884,210.429L3.071,174.476L13.071,88.82L13.122,85.405L12.728,85.405L13.122,85.221L13.519,57.035L14.467,-10.105L9.336,-66.914L8.908,-77.912L8.092,-80.657L6.861,-94.299L9.936,-151.133L14.809,-174.102L20.558,-200.882L22.009,-207.464L36.357,-269.704L35.828,-272.492L33.434,-277.881L17.322,-214.139L3.486,-156.869L0.254,-146.819L-5.19,-188.298L-11.67,-221.44L-14.145,-235.259L-28.54,-277.081L-43.015,-345.307L-43.07,-345.315L-43.26,-345.286L-43.514,-345.231L-43.734,-345.176L-43.84,-345.134L-35.228,-275.677L-24.504,-233.106L-22.301,-213.593L-22.491,-213.53L-22.106,-190.079L-14.843,-125.444L-12.483,-115.601L-10.681,-95.014L-7.631,-34.334L-34.119,-71.918L-67.87,-135.715L-96.152,-192.13L-129.129,-253.326L-132.424,-251.528L-103.229,-191.61L-77.802,-135.055L-46.53,-70.653L-6.4,-9.881L-6.256,-6.996L-7.584,18.541L-9.192,26.59L-33.912,-30.954L-70.125,-76.804L-109.367,-119.73L-153.65,-148.515L-154.149,-146.941L-111.021,-114.535L-75.129,-70.154L-68.217,-61.195L-41.928,-21.407L-22.237,34.588L-15.85,60.05L-16.057,60.985L-16.129,67.141L-16.412,91.975L-17.148,129.691L-17.296,130.839L-17.605,130.168L-41.357,98.968L-48.899,89.06L-78.339,63.52L-101.723,22.783L-116.156,-30.481L-142.627,-68.931L-143.021,-69.316L-154.492,-78.804L-154.865,-78.699L-155.296,-78.36L-155.622,-77.912L-155.719,-77.535L-145.804,-66.431L-120.665,-25.57L-109.722,25.448L-86.546,69.024L-85.662,70.501L-58.298,97.223L-56.754,99.44L-30.486,137.138L-20.837,158.563L-22.026,167.874L-29.576,245.304L-26.763,336.341L-29.788,432.577L6.646,432.577L3.621,335.63L-1.392,261.275L-1.041,266.368L21.391,207.14L55.887,141.037L89.685,73.059L91.415,65.553L81.127,70.355L80.683,71.977Z" style="fill:rgb(242,211,173);fill-rule:nonzero;"/>
                        </g>
                        <g transform="matrix(1,0,0,1,3670.67,6694.49)">
                            <path d="M0,0.185L0.392,0.185L0.392,0L0,0.185Z" style="fill:rgb(205,152,99);fill-rule:nonzero;"/>
                        </g>
                        <g transform="matrix(1,0,0,1,3764.26,6567.85)">
                            <path d="M0,42.253L9.386,-29.264L8.249,-29.403L7.517,-29.158L-6.176,42.6L-14.162,71.656L-6.142,68.923L0,42.253Z" style="fill:rgb(242,211,173);fill-rule:nonzero;"/>
                        </g>
                        <g transform="matrix(0.224209,-0.974541,-0.974541,-0.224209,3759.01,6647.78)">
                            <path d="M-9.112,3.34L10.526,3.34L6.064,10.543L-15.442,11.447L-9.112,3.34Z" style="fill:rgb(242,211,173);fill-rule:nonzero;"/>
                        </g>
                    </g>
                </g>
            </g>
        </g>
    </g>
</svg>
