<?xml version="1.0" encoding="UTF-8" standalone="no"?>
<!DOCTYPE svg PUBLIC "-//W3C//DTD SVG 1.1//EN" "http://www.w3.org/Graphics/SVG/1.1/DTD/svg11.dtd">
<svg width="100%" height="100%" viewBox="0 0 120 200" version="1.1" xmlns="http://www.w3.org/2000/svg" xmlns:xlink="http://www.w3.org/1999/xlink" xml:space="preserve" xmlns:serif="http://www.serif.com/" style="fill-rule:evenodd;clip-rule:evenodd;stroke-linejoin:round;stroke-miterlimit:2;">
    <g transform="matrix(1,0,0,1,-3360.1,-1267.43)">
        <g id="scooter-right-rider">
            <g>
                <g>
                    <g transform="matrix(1,0,0,1,3457.54,1462.52)">
                        <path d="M0,-8.252L0.017,-8.232L1.017,-7.074L1.046,-7.04L1.375,-6.659L1.489,-6.528L2.034,-4.172L1.493,-1.836L1.489,-1.817L0.017,-0.112L0,-0.093L-0.948,0.202L-0.957,0.205L-2.025,0.536L-2.034,0.539L-4.067,-0.093L-5.556,-1.817L-6.101,-4.172L-5.843,-5.285L-6.001,-5.612L-6.334,-4.172L-5.758,-1.682L-5.755,-1.679L-4.184,0.141L-4.178,0.143L-2.034,0.808L-2.027,0.808L0.116,0.141L1.69,-1.682L2.267,-4.172L1.69,-6.663L0.116,-8.486L-1.735,-9.06L-1.666,-8.769L0,-8.252Z" style="fill:rgb(66,76,160);fill-rule:nonzero;"/>
                    </g>
                    <g transform="matrix(1,0,0,1,3451.98,1458.96)">
                        <path d="M0,1.745L1.489,3.469L1.507,3.469L0.018,1.745L-0.527,-0.61L-0.275,-1.699L-0.287,-1.724L-0.545,-0.61L0,1.745Z" style="fill:rgb(66,76,160);fill-rule:nonzero;"/>
                    </g>
                    <g transform="matrix(1,0,0,1,3396.61,1308.18)">
                        <path d="M0,11.276L-0.198,11.066L-0.756,10.475L-0.944,9.844L-1.113,9.347L-1.758,8.755L-1.357,8.627L-1.433,8.4L-1.26,7.418L-1.196,7.055L-1.153,6.905L-1.053,6.861L-0.711,6.711L-0.078,6.432L0.403,6.599L1.066,6.828L2.057,7.95L2.929,7.849L6.037,5.632L8.206,4.595L8.28,2.903L8.961,1.085L11.307,0.362L13.135,-0.005L13.914,0.362L14.479,1.462L14.606,-0.128L14.054,-1.099L11.941,-2.978L13.742,-0.734L11.941,-2.978L11.89,-3.042L10.999,-3.816L7.827,-5.13L5.848,-5.24L3.186,-5.24L1.359,-4.718L-1.703,-2.825L-2.632,-1.734L-2.729,-1.524L-3.071,-0.794L-3.118,-0.693L-3.396,-0.099L-3.441,-0.002L-3.606,0.997L-3.812,2.244L-3.835,2.389L-3.904,2.806L-4.192,3.5L-4.27,3.687L-4.414,4.034L-5.308,6.189L-5.614,8.494L-5.67,8.92L-4.717,10.492L-3.948,11.76L-3.777,11.812L-2.571,12.178L-3.777,11.812L-3.114,12.617L-2.638,13.196L-0.042,16.352L0.33,16.516L0.451,14.525L0,11.276Z" style="fill:rgb(51,51,51);fill-rule:nonzero;"/>
                    </g>
                    <g transform="matrix(1,0,0,1,3395.86,1318.08)">
                        <path d="M0,0.531L-0.197,-0.05L-0.009,0.581L0,0.531Z" style="fill:rgb(63,38,19);fill-rule:nonzero;"/>
                    </g>
                    <g transform="matrix(1,0,0,1,3392.84,1317.5)">
                        <path d="M0,2.501L-0.172,2.449L-0.941,1.181L-1.894,-0.392L-1.837,-0.818L-1.531,-3.123L-0.637,-5.278L-0.493,-5.624L-0.919,-5.86L-1.439,-7.056L-1.141,-7.722L-0.931,-10.043L-0.353,-10.823L0.844,-10.834L-0.747,-10.981L-1.983,-10.981L-3.467,-10.357L-6.728,-5.455L-7.707,-1.431L-7.978,1.512L-7.529,3.106L-7.702,1.84L-7.529,3.106L-6.94,7.385L-4.86,13.101L-4.406,13.482L-3.869,13.335L-0.574,9.197L1.137,3.899L1.139,3.885L0.662,3.306L0,2.501Z" style="fill:rgb(51,51,51);fill-rule:nonzero;"/>
                    </g>
                    <g transform="matrix(1,0,0,1,3399.98,1316.03)">
                        <path d="M0,0.995L-0.44,0L-1.313,0.101L0,0.995Z" style="fill:rgb(63,38,19);fill-rule:nonzero;"/>
                    </g>
                    <g transform="matrix(1,0,0,1,3392.99,1308.15)">
                        <path d="M0,0.817L0.179,0.028L0.167,0L0,0.817Z" style="fill:rgb(63,38,19);fill-rule:nonzero;"/>
                    </g>
                    <g transform="matrix(0.95499,0.296637,0.296637,-0.95499,3453.65,1461.98)">
                        <path d="M-0.024,-0.473L2.097,-0.473L3.017,0.161L2.015,0.161L-0.024,-0.473Z" style="fill:rgb(51,51,51);fill-rule:nonzero;"/>
                    </g>
                    <g transform="matrix(1,0,0,1,3452.23,1457.26)">
                        <path d="M0,1.088L-0.523,0L-0.775,1.088L0,1.088Z" style="fill:rgb(51,51,51);fill-rule:nonzero;"/>
                    </g>
                    <g transform="matrix(-0.652746,-0.757577,-0.757577,0.652746,3456.41,1458.22)">
                        <path d="M0.264,-1.075L0.979,-1.075L-1.101,0.004L-0.669,-0.586L0.264,-1.075Z" style="fill:rgb(51,51,51);fill-rule:nonzero;"/>
                    </g>
                    <g transform="matrix(1,0,0,1,3453.78,1457.37)">
                        <path d="M0,1.963L0.489,2.115L0.979,1.963L1.337,1.548L1.468,0.982L1.337,0.415L0.979,0L0.489,-0.152L0,0L-0.358,0.415L-0.489,0.982L-0.358,1.548L0,1.963Z" style="fill:rgb(51,51,51);fill-rule:nonzero;"/>
                    </g>
                    <g transform="matrix(1,0,0,1,3455.11,1458.91)">
                        <path d="M0,-1.133L0.131,-0.566L0,0L-0.358,0.415L-0.847,0.567L-0.536,0.567L-0.044,0.415L0.3,0L0.404,-0.566L0.24,-1.133L-0.147,-1.548L-0.654,-1.7L-0.847,-1.7L-0.358,-1.548L0,-1.133Z" style="fill:rgb(51,51,51);fill-rule:nonzero;"/>
                    </g>
                    <g transform="matrix(1,0,0,1,3399.97,1464.61)">
                        <path d="M0,-6.54L-1.095,-7.87L-2.07,-7.651L-2.078,-7.649L-2.199,-7.537L-3.25,-6.558L-5.369,-4.585L-7.251,-3.906L-10.143,-4.925L-11.918,-6.417L-12.483,-4.641L-12.656,-4.095L-12.737,-3.844L-12.96,-3.142L-12.996,-3.03L-13.17,-2.481L-13.64,-1.004L-13.73,-0.722L-13.502,-0.395L-8,1.175L-2.561,0.491L0.418,0.767L4.534,1.33L7.453,0.601L8.141,0.319L7.483,-0.931L3.115,-2.758L2.547,-3.447L1.808,-4.344L0,-6.54Z" style="fill:rgb(0,188,218);fill-rule:nonzero;"/>
                    </g>
                    <g transform="matrix(1,0,0,1,3420.44,1449.94)">
                        <path d="M0,-2.33L-0.019,-2.37L-0.506,0.04L0,-2.33Z" style="fill:rgb(0,188,218);fill-rule:nonzero;"/>
                    </g>
                    <g transform="matrix(1,0,0,1,3417.47,1452.48)">
                        <path d="M0,-1.008L-4.255,-1.576L-7.389,-2.825L-7.794,-3.129L-9.433,3.038L-9.206,2.952L-4.222,2.867L0.801,3.492L8.726,3.866L12.723,3.319L13.562,3.166L12.935,1.899L8.564,-0.049L2.978,-4.874L2.471,-2.503L0,-1.008Z" style="fill:rgb(0,188,218);fill-rule:nonzero;"/>
                    </g>
                    <g transform="matrix(1,0,0,1,3410.23,1414.69)">
                        <path d="M0,-2.831L-0.683,-2.579L-2.43,-1.818L-2.436,-1.778L-2.71,0L0.878,-1.254L0,-2.831Z" style="fill:rgb(0,188,218);fill-rule:nonzero;"/>
                    </g>
                    <g transform="matrix(1,0,0,1,3414.4,1412.87)">
                        <path d="M3.467,-18.971L-2.646,-18.971L-2.925,-18.161L-3.922,-15.273L-4.389,-13.921L-6.092,-3.242L-6.609,0L-4.863,-0.761L-4.18,-1.013L-2.696,-1.563L-1.585,-1.974L0.154,-2.617L1.99,-3.297L3.185,-3.739L3.502,-3.856L5.436,-4.432L5.77,-4.532L5.86,-4.558L6.15,-4.645L6.958,-4.736L7.453,-4.791L7.497,-4.797L7.516,-4.798L8.335,-4.891L9.163,-4.984L6.113,-12.473L3.467,-18.971Z" style="fill:rgb(0,188,218);fill-rule:nonzero;"/>
                    </g>
                    <g transform="matrix(1,0,0,1,3395.16,1395.13)">
                        <path d="M0,24.525L0.951,24.646L1.696,24.74L2.903,24.893L5.197,25.183L5.426,25.196L7.049,25.284L7.3,25.298L7.901,25.33L8.894,25.385L10.244,25.617L11.405,25.757L12.359,19.557L12.634,17.779L12.64,17.738L13.157,14.497L14.861,3.818L15.327,2.466L16.324,-0.422L16.604,-1.232L-6.412,-1.232L-6.412,-1.223L-6.413,-1.209L-8.606,22.563L-8.246,22.96L-6.531,23.353L-1.327,24.287L-1.155,24.318L0,24.525Z" style="fill:rgb(0,188,218);fill-rule:nonzero;"/>
                    </g>
                    <g transform="matrix(1,0,0,1,3421.92,1409.23)">
                        <path d="M0,-1.156L-0.019,-1.154L-0.063,-1.149L-0.557,-1.094L-1.365,-1.003L-1.656,-0.916L-1.252,0.185L0.185,-0.6L0.979,-0.968L1.647,-1.341L0.82,-1.248L0,-1.156Z" style="fill:rgb(0,188,218);fill-rule:nonzero;"/>
                    </g>
                    <g transform="matrix(1,0,0,1,3388.91,1450.27)">
                        <path d="M0,0.689L0.44,0.861L0.466,0.615L0.522,0.081L0.447,0.056L-0.771,-0.172L-2.576,0.072L-1.119,0.253L0,0.689Z" style="fill:rgb(250,192,41);fill-rule:nonzero;"/>
                    </g>
                    <g transform="matrix(1,0,0,1,3386.6,1455.97)">
                        <path d="M0,-3.528L0.104,-2.966L0.143,-2.758L0.25,-2.177L0.385,-1.45L0.385,2.101L1.477,2.101L2.363,-1.222L2.743,-4.84L2.303,-5.012L1.185,-5.448L-0.273,-5.629L-0.273,-5L-0.119,-4.172L-0.116,-4.153L-0.075,-3.933L0,-3.528Z" style="fill:rgb(250,192,41);fill-rule:nonzero;"/>
                    </g>
                    <g transform="matrix(1,0,0,1,3443.82,1384.28)">
                        <path d="M0,39.925L0.652,39.633L0.785,39.59L1.875,39.24L1.88,39.238L2.983,38.983L3.128,38.95L3.808,38.873L4.061,38.845L4.104,38.858L-6.752,-0.068L-7.08,-0.162L-7.909,-0.069L-9.017,0.187L-10.107,0.537L-10.888,0.887L-11.151,1.144L-0.289,40.087L-0.228,40.027L0,39.925Z" style="fill:rgb(250,192,41);fill-rule:nonzero;"/>
                    </g>
                    <g transform="matrix(1,0,0,1,3446.54,1423.49)">
                        <path d="M0,11.392L0.88,10.997L2.108,10.603L3.356,10.315L4.289,10.21L4.657,10.316L1.709,-0.253L1.385,-0.346L1.341,-0.359L1.088,-0.33L0.408,-0.254L0.263,-0.22L-0.839,0.034L-0.845,0.036L-1.935,0.386L-2.068,0.429L-2.72,0.721L-2.948,0.823L-3.009,0.883L-3.243,1.112L-2.947,2.174L-0.257,11.751L0,11.392Z" style="fill:rgb(250,192,41);fill-rule:nonzero;"/>
                    </g>
                    <g transform="matrix(1,0,0,1,3443.59,1435.45)">
                        <path d="M0,-9.785L-0.914,-8.321L1.374,0L2.541,0L2.69,-0.208L0,-9.785Z" style="fill:rgb(250,192,41);fill-rule:nonzero;"/>
                    </g>
                    <g transform="matrix(1,0,0,1,3389.35,1459.59)">
                        <path d="M0,-8.462L-0.381,-4.844L-1.266,-1.521L-1.299,-1.399L0.476,0.093L3.368,1.112L5.25,0.434L7.369,-1.54L8.42,-2.518L8.54,-2.63L8.549,-2.632L7.865,-4.881L7.895,-5.069L8.419,-8.933L8.059,-8.747L5.458,-8.739L3.402,-8.897L5.458,-8.739L8.059,-8.747L8.419,-8.933L7.527,-9.162L7.467,-8.863L7.399,-8.825L6.212,-8.847L5.442,-8.811L3.177,-8.986L2.326,-9.071L1.433,-9.234L0.887,-9.34L0.918,-9.572L0.745,-9.574L0.093,-9.348L0.087,-9.288L0.083,-9.256L0.083,-9.248L0.082,-9.242L0.026,-8.707L0,-8.462Z" style="fill:white;fill-rule:nonzero;"/>
                    </g>
                    <g transform="matrix(1,0,0,1,3393.01,1308.18)">
                        <path d="M0,0.999L0.165,0L-0.014,0.789L0,0.999Z" style="fill:white;fill-rule:nonzero;"/>
                    </g>
                    <g transform="matrix(1,0,0,1,3391.9,1311.08)">
                        <path d="M0,-3.627L-0.21,-1.305L-0.508,-0.64L0.012,0.556L0.438,0.792L0.516,0.605L0.804,-0.089L0.873,-0.506L0.896,-0.651L1.102,-1.898L1.089,-2.108L1.256,-2.925L1.312,-2.995L1.59,-3.588L1.637,-3.689L1.979,-4.419L1.775,-4.418L0.579,-4.407L0,-3.627Z" style="fill:rgb(0,188,218);fill-rule:nonzero;"/>
                    </g>
                    <g transform="matrix(0.635858,0.771806,0.771806,-0.635858,3409.24,1445.35)">
                        <path d="M6.769,-15.244L7.931,-15.244L32.309,14.347L29.918,12.855L6.769,-15.244Z" style="fill:white;fill-rule:nonzero;"/>
                    </g>
                    <g transform="matrix(1,0,0,1,3457.54,1461.9)">
                        <path d="M0,0.141L-0.005,0L-0.36,0.141L0,0.141Z" style="fill:white;fill-rule:nonzero;"/>
                    </g>
                    <g transform="matrix(1,0,0,1,3454.92,1450.65)">
                        <path d="M0,-0.921L0.218,0L2.541,-0.921L0,-0.921Z" style="fill:white;fill-rule:nonzero;"/>
                    </g>
                    <g transform="matrix(1,0,0,1,3387.23,1460.51)">
                        <path d="M0,0.252L0.08,0L-1.837,0.146L0,0.252Z" style="fill:white;fill-rule:nonzero;"/>
                    </g>
                    <g transform="matrix(1,0,0,1,3455.65,1461.28)">
                        <path d="M0,0.36L1.171,-0.105L1.63,-0.286L1.914,-0.399L1.279,-0.399L-1.642,0.759L-1.006,0.759L0,0.36Z" style="fill:white;fill-rule:nonzero;"/>
                    </g>
                    <g transform="matrix(1,0,0,1,3420.42,1449.98)">
                        <path d="M0,-2.41L-0.871,-1.499L-0.487,0L0,-2.41Z" style="fill:white;fill-rule:nonzero;"/>
                    </g>
                    <g transform="matrix(1,0,0,1,3417.1,1451.35)">
                        <path d="M0,-9.679L-4.049,-9.723L-6.253,-9.798L-6.583,-5.212L-7.426,-2.002L-7.02,-1.697L-3.886,-0.449L0.368,0.119L2.84,-1.376L1.495,-5.65L1.685,-5.886L2.098,-9.754L1.769,-9.705L0,-9.679Z" style="fill:white;fill-rule:nonzero;"/>
                    </g>
                    <g transform="matrix(1,0,0,1,3407.45,1334.18)">
                        <path d="M0,0.265L0.387,1.305L0.298,1.654L0.347,1.691L0.465,1.229L0.562,0.847L0.173,-0.197L-1.68,-1.426L-0.645,-0.384L0,0.265Z" style="fill:white;fill-rule:nonzero;"/>
                    </g>
                    <g transform="matrix(1,0,0,1,3393.95,1384.66)">
                        <path d="M0,1.75L0.101,2.136L-0.237,-0.386L0,1.75Z" style="fill:white;fill-rule:nonzero;"/>
                    </g>
                    <g transform="matrix(1,0,0,1,3399.99,1349.41)">
                        <path d="M0,-1.628L-0.119,-0.698L-0.122,-0.683L-0.346,0.532L0.887,-0.383L0.584,-1.719L0.504,-1.799L0.297,-2.003L0.139,-2.16L0.058,-2.081L0,-1.628Z" style="fill:rgb(148,48,41);fill-rule:nonzero;"/>
                    </g>
                    <g transform="matrix(0.624695,0.780869,0.780869,-0.624695,3407.53,1336.2)">
                        <path d="M0.147,0L0.217,0L-0.031,0.329L-0.078,0.298L0.147,0Z" style="fill:white;fill-rule:nonzero;"/>
                    </g>
                    <g transform="matrix(1,0,0,1,3412.74,1379.96)">
                        <path d="M0,6.566L0.069,7.127L0.121,7.547L0.907,13.943L5.993,13.943L2.316,3.413L0.435,-0.551L-0.021,-7.377L-0.933,-1.028L0,6.566Z" style="fill:rgb(148,48,41);fill-rule:nonzero;"/>
                    </g>
                    <g transform="matrix(1,0,0,1,3411.93,1377.03)">
                        <path d="M0,-31.001L0.771,-28.749L1.015,-27.967L0.771,-28.749L0,-31.001L-3.21,-37.004L0,-31.001ZM-24.158,16.868L1.714,16.868L0.928,10.472L0.876,10.051L0.807,9.491L-0.126,1.897L0.786,-4.452L1.365,-8.484L1.477,-9.889L1.509,-10.306L1.565,-11.011L1.583,-11.229L1.636,-11.904L1.743,-13.246L1.856,-14.665L1.913,-15.389L1.948,-15.823L1.978,-16.201L2.667,-24.882L2.854,-27.235L2.667,-24.882L3.167,-27.625L2.209,-31.001L1.441,-32.344L-1.516,-36.807L-3.924,-42.008L-4.022,-41.627L-4.139,-41.165L-4.166,-41.064L-4.267,-40.665L-4.312,-40.719L-5.35,-42.008L-6.306,-43.052L-6.616,-43.234L-6.743,-43.308L-6.781,-43.33L-7.012,-43.464L-7.083,-43.506L-7.246,-43.601L-10.192,-45.32L-10.375,-45.427L-11.548,-46.395L-12.17,-46.908L-12.656,-47.131L-14.19,-47.834L-14.266,-47.869L-15.105,-47.576L-15.644,-47.387L-17.279,-46.175L-17.694,-45.867L-18.394,-45.27L-21.65,-38.626L-22.523,-33.003L-21.427,-21.608L-21.204,-19.588L-21.167,-19.966L-21.165,-19.981L-21.097,-20.673L-21.004,-21.619L-20.793,-23.759L-20.226,-29.51L-20.544,-29.67L-20.891,-30.78L-20.693,-32.052L-19.222,-41.493L-20.693,-32.052L-20.891,-30.78L-20.398,-30.972L-20.229,-31.037L-20.074,-31.061L-19.918,-31.084L-19.791,-31.103L-18.441,-31.305L-17.481,-31.449L-16.513,-31.594L-15.912,-31.396L-14.357,-30.885L-13.974,-30.759L-13.649,-30.652L-12.207,-30.178L-12.06,-30.032L-11.865,-29.839L-11.802,-29.777L-11.644,-29.62L-11.437,-29.415L-11.357,-29.336L-11.054,-27.999L-10.143,-30.254L-9.898,-30.861L-8.024,-35.5L-9.898,-30.861L-10.143,-30.254L-11.054,-27.999L-12.287,-27.084L-12.333,-26.839L-12.943,-23.54L-13.244,-21.912L-13.749,-19.181L-13.951,-18.085L-13.621,-14.723L-13.448,-12.969L-13.61,-8.297L-13.665,-6.693L-13.833,-1.833L-13.101,2.155L-12.653,2.807L-12.587,2.797L-12.588,2.902L-12.413,3.156L-10.547,4.909L-10.43,5.176L-10.262,5.563L-10.065,6.075L-9.489,7.794L-9.775,9.815L-10.308,9.919L-10.59,9.908L-10.401,10.85L-10.43,11.132L-10.549,12.302L-11.567,12.528L-11.848,12.42L-11.992,12.316L-11.948,11.606L-12.982,12.087L-13.021,12.082L-14.475,11.877L-15.602,10.953L-15.713,10.977L-16.601,10.807L-17.882,9.768L-17.983,9.383L-18.22,7.247L-18.683,3.791L-18.74,3.738L-18.703,3.637L-18.764,3.183L-18.954,1.769L-19.798,-0.988L-20.309,-4.633L-20.344,-4.882L-20.391,-5.218L-21.697,-1.484L-22.335,2.709L-22.496,3.768L-22.969,7.494L-24.158,16.868Z" style="fill:rgb(148,48,41);fill-rule:nonzero;"/>
                    </g>
                    <g transform="matrix(1,0,0,1,3391.86,1347.52)">
                        <path d="M0,-1.551L-0.156,-1.528L-0.325,-1.462L-0.817,-1.271L-0.47,-0.16L-0.153,0L-0.104,-0.494L0,-1.551Z" style="fill:rgb(148,48,41);fill-rule:nonzero;"/>
                    </g>
                    <g transform="matrix(-0.374769,0.927118,0.927118,0.374769,3391.34,1383.35)">
                        <path d="M-2.691,-2.97L-0.855,-2.97L1.983,-1.765L-1.649,-2.723L-2.691,-2.97Z" style="fill:white;fill-rule:nonzero;"/>
                    </g>
                    <g transform="matrix(1,0,0,1,3390.78,1419.84)">
                        <path d="M0,30.516L0.893,30.678L1.745,30.763L4.009,30.939L4.779,30.903L5.967,30.925L6.034,30.886L6.094,30.588L9.6,13.202L11.952,6.622L12.19,1.14L12.276,0.621L11.674,0.588L11.424,0.575L9.8,0.486L9.572,0.474L7.278,0.183L6.07,0.03L5.326,-0.064L4.375,-0.185L3.22,-0.392L3.048,-0.423L3.246,2.657L-0.018,13.867L-0.225,14.401L-0.209,27.875L-0.514,30.177L-0.545,30.41L0,30.516Z" style="fill:rgb(120,71,34);fill-rule:nonzero;"/>
                    </g>
                    <g transform="matrix(1,0,0,1,3397.01,1315.97)">
                        <path d="M0,-1.185L-0.481,-1.351L-1.114,-1.073L-1.456,-0.923L-1.556,-0.879L-1.599,-0.728L-0.667,-1.191L0.389,-0.786L1.654,0.166L0.663,-0.955L0,-1.185Z" style="fill:rgb(120,71,34);fill-rule:nonzero;"/>
                    </g>
                    <g transform="matrix(1,0,0,1,3411.91,1325.97)">
                        <path d="M0,-7.447L-0.659,-8.44L-0.704,-8.605L-0.562,-10.335L-0.264,-11.734L-0.139,-12.658L-0.43,-15.326L-0.819,-16.323L-1.385,-17.423L-2.163,-17.79L-3.991,-17.423L-6.337,-16.699L-7.019,-14.882L-7.092,-13.19L-9.262,-12.153L-12.369,-9.936L-11.929,-8.941L-13.242,-9.835L-14.507,-10.787L-15.563,-11.192L-16.495,-10.73L-16.559,-10.367L-16.732,-9.385L-16.655,-9.158L-16.411,-8.438L-16.243,-7.941L-16.046,-7.36L-16.055,-7.31L-15.497,-6.719L-15.299,-6.509L-14.848,-3.26L-14.969,-1.27L-14.975,-1.215L-15.373,2.532L-15.378,2.344L-15.426,2.43L-16.399,4.217L-15.62,3.675L-15.082,3.486L-14.242,3.193L-14.166,3.228L-12.632,3.931L-12.146,4.154L-11.524,4.667L-10.351,5.635L-10.168,5.742L-7.222,7.461L-7.059,7.556L-6.988,7.597L-6.757,7.732L-6.719,7.755L-6.593,7.828L-6.281,8.01L-5.326,9.054L-4.288,10.343L-4.195,9.982L-4.164,9.861L-4.075,9.511L-4.462,8.471L-5.107,7.822L-6.142,6.78L-6.301,6.621L-5.162,0.84L-1.86,0.772L-0.996,-0.258L-0.983,-0.652L-0.923,-2.471L-0.753,-3.034L-0.57,-3.869L-0.169,-6.631L-0.254,-6.943L0,-7.447Z" style="fill:rgb(120,71,34);fill-rule:nonzero;"/>
                    </g>
                    <g transform="matrix(1,0,0,1,3420.18,1441.65)">
                        <path d="M0,-33.309L-0.334,-33.209L-2.269,-32.634L-2.585,-32.516L-3.78,-32.074L-5.616,-31.394L-7.355,-30.751L-8.466,-30.34L-9.95,-29.79L-9.072,-28.213L-6.378,-23.373L-8.96,-16.162L-9.006,-14.358L-8.303,-2.01L-8.497,-0.161L-8.504,-0.096L-8.497,-0.161L-9.097,-0.158L-9.33,-0.092L-7.127,-0.018L-3.077,0.026L-1.309,0L-0.98,-0.049L-1.74,-0.078L-1.744,-0.052L-1.74,-0.078L1.157,-20.164L0.5,-17.8L1.157,-20.164L2.347,-24.449L2.168,-25.394L1.929,-28.331L0.494,-32.235L0.089,-33.335L0,-33.309Z" style="fill:rgb(120,71,34);fill-rule:nonzero;"/>
                    </g>
                    <g transform="matrix(1,0,0,1,3391.62,1362.6)">
                        <path d="M0,9.8L0.512,13.444L1.356,16.202L1.545,17.616L1.606,18.07L1.618,18.163L1.627,18.224L2.089,21.68L2.427,24.201L3.708,25.24L4.596,25.41L4.708,25.386L3.489,24.387L4.708,25.386L5.834,26.31L7.288,26.514L7.328,26.52L8.361,26.039L8.374,25.844L7.673,23.779L8.374,25.844L8.361,26.039L8.317,26.748L8.461,26.853L8.742,26.961L9.76,26.735L9.88,25.565L9.908,25.282L9.719,24.341L9.717,24.329L9.691,24.202L9.415,22.826L9.46,22.196L9.478,21.939L9.54,21.083L9.541,21.064L10.244,20.508L10.048,19.996L9.879,19.609L9.762,19.341L7.896,17.589L8.518,18.494L7.896,17.589L7.722,17.335L7.656,17.24L7.208,16.588L6.476,12.599L6.644,7.74L6.7,6.136L6.861,1.464L6.689,-0.29L6.358,-3.652L6.561,-4.748L7.066,-7.479L7.367,-9.107L7.977,-12.406L8.022,-12.652L8.247,-13.867L8.249,-13.882L8.368,-14.812L8.426,-15.265L8.444,-15.406L8.249,-15.599L8.102,-15.745L6.661,-16.219L6.336,-16.326L5.952,-16.452L4.398,-16.963L3.796,-17.161L2.829,-17.016L1.868,-16.872L0.518,-16.67L0.392,-16.651L0.236,-16.628L0.132,-15.57L0.083,-15.077L-0.484,-9.326L-0.694,-7.186L-0.787,-6.241L-0.855,-5.548L-0.857,-5.533L-0.895,-5.155L-1.393,-0.124L-0.099,9.096L-0.082,9.215L-0.035,9.551L0,9.8Z" style="fill:rgb(120,71,34);fill-rule:nonzero;"/>
                    </g>
                    <g transform="matrix(1,0,0,1,3401.1,1385.52)">
                        <path d="M0,-0.982L-0.018,-0.725L-0.064,-0.095L0.213,1.281L0.238,1.408L0.241,1.42L0.523,1.431L1.056,1.327L1.342,-0.693L0.766,-2.413L0.062,-1.838L0,-0.982Z" style="fill:rgb(120,71,34);fill-rule:nonzero;"/>
                    </g>
                    <g transform="matrix(1,0,0,1,3426.01,1364.88)">
                        <path d="M0,-0.531L0.038,-0.123L0.044,-0.053L0.051,0.024L0.129,0.105L0.099,-0.636L0.044,-0.578L0,-0.531Z" style="fill:rgb(120,71,34);fill-rule:nonzero;"/>
                    </g>
                    <g transform="matrix(1,0,0,1,3427.54,1367.15)">
                        <path d="M0,-4.917L-1.798,-5.482L0,-4.917ZM-13.695,-5.51L-13.752,-4.786L-13.865,-3.367L-13.972,-2.025L-14.025,-1.35L-14.042,-1.133L-14.099,-0.427L-14.131,-0.01L-9.992,0.473L-7.177,0.314L-9.536,-0.123L-7.177,0.314L-6.28,0.48L-1.157,1.405L-0.516,1.363L0.339,0.421L0.353,-0.119L-0.42,-1.178L0.353,-0.119L0.339,0.421L1.39,-0.974L1.88,-2.206L1.785,-2.969L1.427,-2.992L1.379,-3.646L1.378,-3.663L0.992,-3.649L0.677,-3.605L0.507,-3.582L0.213,-3.541L0.204,-3.537L-1.302,-2.962L-1.433,-2.912L-1.403,-2.171L-0.103,-2.36L-0.261,-1.769L-0.103,-2.36L-0.14,-2.34L-1.403,-2.171L-1.481,-2.252L-1.488,-2.329L-1.494,-2.399L-1.967,-2.325L-1.96,-1.637L-1.963,-1.606L-1.977,-1.469L-0.673,-1.181L-0.62,-0.919L-2.231,-0.824L-2.667,-0.798L-2.752,-0.337L-2.759,-0.299L-2.539,-0.196L-1.281,0.422L-0.74,0.687L-1.281,0.422L-1.364,0.608L-1.281,0.422L-2.539,-0.196L-2.759,-0.299L-2.752,-0.337L-2.667,-0.798L-2.231,-0.824L-0.62,-0.919L-0.673,-1.181L-1.977,-1.469L-1.975,-1.609L-1.967,-2.325L-1.494,-2.399L-1.532,-2.807L-1.488,-2.854L-1.433,-2.912L-1.302,-2.962L0.204,-3.537L0.213,-3.541L0.507,-3.582L0.54,-3.67L1.377,-3.668L1.376,-3.685L1.842,-4.552L1.376,-3.685L1.377,-3.668L1.378,-3.663L1.379,-3.646L1.427,-2.992L1.785,-2.969L1.988,-2.956L2.648,-3.332L2.627,-4.253L1.722,-3.721L2.627,-4.253L2.465,-4.645L2.15,-4.834L0.634,-5.092L0.232,-5.158L0.092,-4.63L-0.38,-4.618L-0.652,-4.611L-1.846,-4.582L-2.253,-4.572L-2.638,-4.563L-2.253,-4.572L-1.846,-4.582L-0.652,-4.611L-0.38,-4.618L0.092,-4.63L0.232,-5.158L0.307,-5.443L-1.291,-6.172L-2.43,-6.15L-3.142,-6.061L-3.162,-6.058L-3.245,-6.048L-5.448,-4.614L-5.813,-4.377L-5.448,-4.614L-9.03,-4.913L-13.63,-6.322L-13.66,-5.944L-13.695,-5.51Z" style="fill:rgb(120,71,34);fill-rule:nonzero;"/>
                    </g>
                    <g transform="matrix(1,0,0,1,3404.5,1465.76)">
                        <path d="M0,0.181L-4.115,-0.382L-7.095,-0.658L-12.533,0.026L-18.035,-1.544L-18.264,-1.871L-18.277,-1.653L-18.277,-1.648L-18.292,-1.383L-18.338,-0.6L-18.38,0.108L-18.4,0.451L-18.163,0.619L-17.624,0.679L-16.901,0.759L-15.557,0.908L-14.624,1.011L-14.166,1.062L-12.604,1.235L-7.237,1.75L-4.009,2.052L0.049,1.95L2.984,1.799L3.676,1.645L3.608,-0.83L2.919,-0.548L0,0.181Z" style="fill:rgb(221,221,221);fill-rule:nonzero;"/>
                    </g>
                    <g transform="matrix(1,0,0,1,3395.5,1316.81)">
                        <path d="M0,0.721L-0.244,0L-0.645,0.128L0,0.721Z" style="fill:rgb(221,221,221);fill-rule:nonzero;"/>
                    </g>
                    <g transform="matrix(1,0,0,1,3440.87,1374.32)">
                        <path d="M0,0.079L-0.501,0.909L-0.438,0.909L0.062,0.079L0.091,-0.83L0.029,-0.83L0,0.079Z" style="fill:rgb(221,221,221);fill-rule:nonzero;"/>
                    </g>
                    <g transform="matrix(1,0,0,1,3440.9,1372.79)">
                        <path d="M0,0.692L0.062,0.692L-0.475,0L-0.537,0L0,0.692Z" style="fill:rgb(221,221,221);fill-rule:nonzero;"/>
                    </g>
                    <g transform="matrix(1,0,0,1,3433.71,1373.74)">
                        <path d="M0,11.082L1.09,10.732L2.198,10.476L3.028,10.383L3.355,10.477L2.943,10.191L2.807,10.097L2.943,10.191L5.509,3.563L5.515,3.548L6.148,1.912L6.173,1.848L6.26,1.622L6.647,0.796L6.763,0.547L6.647,0.796L6.797,0.547L6.818,-0.125L6.443,-0.607L6.375,-0.607L5.809,0.603L2.261,9.769L1.815,9.01L1.392,8.289L1.105,7.801L1.032,7.676L-3.123,0.603L-5.312,-0.284L-5.32,0.122L-5.335,0.826L-5.339,1.052L-5.541,1.563L-5.783,2.176L-5.874,2.408L-5.967,2.512L-5.689,2.626L-0.667,11.176L-0.656,11.194L-0.667,11.176L-1.043,11.689L-0.781,11.432L0,11.082Z" style="fill:rgb(221,221,221);fill-rule:nonzero;"/>
                    </g>
                    <g transform="matrix(1,0,0,1,3440.87,1373.77)">
                        <path d="M0,0.629L0.029,-0.28L-0.509,-0.972L-1.39,-1.189L-2.333,-0.951L-3.141,-0.357L-3.642,0.473L-3.669,1.337L-3.317,0.584L-2.924,-0.096L-2.246,-0.604L-1.464,-0.802L-1.389,-0.802L-0.719,-0.637L-0.345,-0.155L-0.366,0.517L-0.516,0.766L-0.902,1.592L-0.99,1.818L-0.501,1.459L0,0.629Z" style="fill:rgb(221,221,221);fill-rule:nonzero;"/>
                    </g>
                    <g transform="matrix(1,0,0,1,3435.1,1374.44)">
                        <path d="M0,7.581L0.423,8.301L0.869,9.061L4.417,-0.105L4.984,-1.315L5.052,-1.315L4.382,-1.48L4.307,-1.48L3.525,-1.282L2.847,-0.775L2.454,-0.094L2.102,0.659L1.989,0.899L1.545,2.046L-0.36,6.968L-0.287,7.093L0,7.581Z" style="fill:rgb(221,221,221);fill-rule:nonzero;"/>
                    </g>
                    <g transform="matrix(-0.225464,-0.974252,-0.974252,0.225464,3460.38,1456.5)">
                        <path d="M-1.615,1.203L0.803,1.203L0.957,1.284L-1.599,1.271L-1.615,1.203Z" style="fill:rgb(221,221,221);fill-rule:nonzero;"/>
                    </g>
                    <g transform="matrix(1,0,0,1,3459.19,1456.51)">
                        <path d="M0,0.815L0.238,1.841L0.311,1.841L-0.279,-0.645L-0.608,-1.026L-0.649,0.063L0,0.815Z" style="fill:rgb(221,221,221);fill-rule:nonzero;"/>
                    </g>
                    <g transform="matrix(1,0,0,1,3457.54,1461.14)">
                        <path d="M0,0.764L-0.02,0.145L-0.259,-0.141L-0.718,0.041L-0.355,0.905L0,0.764Z" style="fill:rgb(221,221,221);fill-rule:nonzero;"/>
                    </g>
                    <g transform="matrix(1,0,0,1,3381.13,1460.37)">
                        <path d="M0,-0.829L0.579,-0.677L1.277,-0.495L1.525,-0.43L1.544,-0.425L3.327,0.042L3.959,0.207L4.016,0.222L4.26,0.286L6.177,0.14L6.35,-0.405L-1.093,-1.115L-0.58,-0.98L-0.57,-0.978L-0.375,-0.927L-0.072,-0.848L0,-0.829Z" style="fill:rgb(221,221,221);fill-rule:nonzero;"/>
                    </g>
                    <g transform="matrix(1,0,0,1,3388.05,1459.84)">
                        <path d="M0,-1.653L0.033,-1.776L-8.009,-1.776L-8.009,-0.586L-0.565,0.123L0,-1.653Z" style="fill:rgb(221,221,221);fill-rule:nonzero;"/>
                    </g>
                    <g transform="matrix(1,0,0,1,3442.33,1371.61)">
                        <path d="M0,1.432L-0.195,1.18L-0.331,1.005L-1.11,0L-1.163,0L-0.053,1.432L0,1.432Z" style="fill:rgb(221,221,221);fill-rule:nonzero;"/>
                    </g>
                    <g transform="matrix(1,0,0,1,3454.25,1460.62)">
                        <path d="M0,-13.704L1.365,-13.858L1.902,-13.703L1.512,-13.321L1.902,-13.703L1.365,-13.858L0,-13.704L-1.656,-13.321L0,-13.704ZM-1.669,-13.321L-0.603,-10.889L2.676,0.263L3.312,0.263L2.971,-1.175L2.879,-1.562L2.339,-3.842L2.289,-4.052L2.263,-4.162L1.915,-5.628L1.621,-6.87L1.552,-7.162L1.341,-8.05L1.312,-8.173L1.175,-8.747L1.044,-9.302L0.949,-9.701L0.898,-9.917L0.894,-9.936L0.886,-9.968L0.668,-10.889L3.208,-10.889L3.408,-10.049L4.703,-9.647L4.479,-10.889L1.608,-13.26L1.533,-13.321L1.608,-13.26L1.766,-13.331L2.243,-13.797L1.656,-13.967L0.164,-13.798L-1.863,-13.33L-3.883,-12.682L-5.325,-12.035L-5.802,-11.569L-5.215,-11.399L-4.859,-11.439L-4.763,-11.45L-4.747,-11.528L-4.924,-11.508L-5.461,-11.663L-5.024,-12.09L-3.704,-12.682L-1.855,-13.276L-1.691,-13.313L-1.855,-13.276L-3.704,-12.682L-5.024,-12.09L-5.461,-11.663L-4.924,-11.508L-4.747,-11.528L-4.605,-12.198L-3.677,-12.565L-4.605,-12.198L-4.747,-11.528L-4.763,-11.45L-5.275,-9.036L-0.603,-10.889L-1.669,-13.321Z" style="fill:rgb(221,221,221);fill-rule:nonzero;"/>
                    </g>
                    <g transform="matrix(1,0,0,1,3455.37,1449.02)">
                        <path d="M0,-3.151L-1.181,-3.018L-1.359,-2.976L-3.208,-2.55L-3.214,-2.547L-5.064,-1.954L-5.228,-1.901L-6.389,-1.38L-6.67,-1.255L-6.858,-1.07L-7.146,-0.788L-6.917,0.035L-6.44,-0.431L-4.998,-1.078L-2.978,-1.727L-0.951,-2.195L0.541,-2.363L1.128,-2.194L0.898,-3.016L0.499,-3.132L0.311,-3.186L0,-3.151Z" style="fill:rgb(221,221,221);fill-rule:nonzero;"/>
                    </g>
                    <g transform="matrix(1,0,0,1,3447,1454.87)">
                        <path d="M0,-14.207L0.002,-14.211L-0.386,-15.601L0.002,-14.211L0,-14.207L0.785,-11.393L0,-14.207ZM1.444,-5.814L1.215,-6.637L1.503,-6.919L1.067,-8.482L1.503,-6.919L1.692,-7.103L1.972,-7.229L3.134,-7.75L3.298,-7.803L5.147,-8.396L5.154,-8.399L7.002,-8.825L7.18,-8.867L8.361,-9L8.673,-9.035L8.86,-8.981L6.976,-15.736L7.474,-12.182L6.875,-13.072L6.704,-13.326L5.071,-15.749L5.588,-17.326L5.645,-17.5L5.685,-17.624L5.832,-18.07L6.976,-15.736L5.69,-20.345L5.154,-20.501L3.789,-20.347L1.934,-19.918L0.084,-19.325L-1.236,-18.733L-1.672,-18.306L-1.068,-16.138L-0.74,-16.858L-1.068,-16.138L-9.882,3.202L-4.874,3.202L1.138,-10.127L-4.874,3.202L-7.428,3.202L-8.823,5.397L-6.152,6.294L-2.898,6.294L-0.461,5.181L0.934,3.202L-1.621,3.202L2.387,-5.685L2.031,-5.644L1.444,-5.814Z" style="fill:rgb(221,221,221);fill-rule:nonzero;"/>
                    </g>
                    <g transform="matrix(1,0,0,1,3447.09,1434.71)">
                        <path d="M0,0.828L1.849,0.234L3.705,-0.194L5.069,-0.348L5.606,-0.193L4.106,-0.913L3.738,-1.019L2.805,-0.914L1.557,-0.626L0.329,-0.231L-0.551,0.163L-0.808,0.523L-0.957,0.73L-0.965,0.742L-1.757,1.847L-1.32,1.42L0,0.828Z" style="fill:rgb(221,221,221);fill-rule:nonzero;"/>
                    </g>
                    <g transform="matrix(0.558352,0.829604,0.829604,-0.558352,3453.18,1441.33)">
                        <path d="M0.781,0.319L1.854,0.319L-1.372,1.891L-1.672,1.468L0.781,0.319Z" style="fill:rgb(221,221,221);fill-rule:nonzero;"/>
                    </g>
                    <g transform="matrix(0.95508,-0.296347,-0.296347,-0.95508,3455.25,1450.91)">
                        <path d="M-0.037,0.223L1.175,0.223L1.472,0.242L-0.035,0.242L-0.037,0.223Z" style="fill:rgb(221,221,221);fill-rule:nonzero;"/>
                    </g>
                    <g transform="matrix(1,0,0,1,3426.17,1460.26)">
                        <path d="M13.405,-2.196L-26.205,-2.196L-24.396,0L12.01,0L13.405,-2.196Z" style="fill:rgb(221,221,221);fill-rule:nonzero;"/>
                    </g>
                    <g transform="matrix(1,0,0,1,3455.14,1449.77)">
                        <path d="M0,0.889L0.008,0.921L1.447,0.474L2.522,0.808L2.323,-0.032L0,0.889Z" style="fill:rgb(221,221,221);fill-rule:nonzero;"/>
                    </g>
                    <g transform="matrix(1,0,0,1,3452.69,1438.68)">
                        <path d="M0,-1.441L-0.041,-1.317L0.772,0.434L1.291,0.447L0.146,-1.888L0,-1.441Z" style="fill:rgb(221,221,221);fill-rule:nonzero;"/>
                    </g>
                    <g transform="matrix(1,0,0,1,3452.65,1441.8)">
                        <path d="M0,-4.428L-0.057,-4.254L-0.573,-2.677L1.059,-0.254L1.23,0L0.813,-2.677L0,-4.428Z" style="fill:rgb(221,221,221);fill-rule:nonzero;"/>
                    </g>
                    <g transform="matrix(1,0,0,1,3426.19,1457.07)">
                        <path d="M0,-0.725L-7.924,-1.099L-12.948,-1.724L-17.931,-1.639L-18.158,-1.553L-18.186,0.781L-17.961,0.811L-12.979,0.911L-7.948,0.936L-3.985,0.999L4.807,0.999L4.836,-1.425L3.997,-1.272L0,-0.725Z" style="fill:rgb(221,221,221);fill-rule:nonzero;"/>
                    </g>
                    <g transform="matrix(1,0,0,1,3453.42,1453.99)">
                        <path d="M0,3.788L0.358,3.373L0.847,3.221L1.041,3.221L1.548,3.373L1.935,3.788L2.098,4.355L1.994,4.921L1.65,5.336L1.159,5.488L0.847,5.488L0.358,5.336L0,4.921L-0.131,4.355L0,3.788ZM-2.869,0.866L-2.693,1.231L-2.326,1.994L-1.884,2.914L-1.726,3.242L-1.714,3.267L-1.19,4.355L-0.293,6.22L0.538,7.947L0.587,8.049L3.507,6.891L0.228,-4.261L-4.444,-2.408L-3.104,0.379L-3.102,0.382L-3.07,0.449L-2.939,0.719L-2.869,0.866Z" style="fill:rgb(221,221,221);fill-rule:nonzero;"/>
                    </g>
                    <g transform="matrix(1,0,0,1,3419.94,1445.47)">
                        <path d="M0,4.51L-0.384,3.011L-0.385,3.004L-1.155,0L-1.345,0.237L0,4.51Z" style="fill:rgb(221,221,221);fill-rule:nonzero;"/>
                    </g>
                    <g transform="matrix(1,0,0,1,3428.08,1363.55)">
                        <path d="M0,-0.065L0.137,0L0.453,-0.044L0.838,-0.058L0.837,-0.063L0,-0.065Z" style="fill:rgb(221,221,221);fill-rule:nonzero;"/>
                    </g>
                    <g transform="matrix(1,0,0,1,3417.44,1374.28)">
                        <path d="M0,0.681L0.041,0.681L0.31,0L0.269,0L0,0.681Z" style="fill:rgb(221,221,221);fill-rule:nonzero;"/>
                    </g>
                    <g transform="matrix(1,0,0,1,3452,1460.07)">
                        <path d="M0,0.631L1.489,2.355L1.959,1.868L1.128,0.141L0.23,-1.724L-0.545,-1.724L0,0.631Z" style="fill:rgb(142,142,142);fill-rule:nonzero;"/>
                    </g>
                    <g transform="matrix(1,0,0,1,3455.62,1461.64)">
                        <path d="M0,0.784L0.001,0.764L0.025,0L-0.981,0.399L-1.616,0.399L-1.665,0.297L-2.135,0.784L0,0.784Z" style="fill:rgb(142,142,142);fill-rule:nonzero;"/>
                    </g>
                    <g transform="matrix(1,0,0,1,3458.98,1460.04)">
                        <path d="M0,-1.694L-1.687,-1.694L-1.851,-0.983L-1.76,-0.596L-0.392,0L0,-1.694Z" style="fill:rgb(142,142,142);fill-rule:nonzero;"/>
                    </g>
                    <g transform="matrix(1,0,0,1,3457.52,1459.45)">
                        <path d="M0,1.836L1.071,0.596L-0.297,0L0.044,1.438L-0.239,1.55L0,1.836Z" style="fill:rgb(142,142,142);fill-rule:nonzero;"/>
                    </g>
                    <g transform="matrix(0.694375,-0.719613,-0.719613,-0.694375,3458.46,1456.6)">
                        <path d="M-0.653,0.733L0.892,0.733L1.031,2.257L0.197,1.501L-0.653,0.733Z" style="fill:rgb(142,142,142);fill-rule:nonzero;"/>
                    </g>
                    <g transform="matrix(1,0,0,1,3459.43,1462.41)">
                        <path d="M0.142,-4.06L-0.448,-4.06L-0.84,-2.366L-1.911,-1.125L-1.891,-0.506L-1.886,-0.366L-1.875,0L-0.403,-1.705L-0.399,-1.724L0.142,-4.06Z" style="fill:rgb(142,142,142);fill-rule:nonzero;"/>
                    </g>
                    <g transform="matrix(1,0,0,1,3457.47,1455.42)">
                        <path d="M-0.003,1.154L0.009,1.142L0.046,-0.003L-0.959,1.044L-0.933,1.154L-0.003,1.154Z" style="fill:rgb(142,142,142);fill-rule:nonzero;"/>
                    </g>
                    <g transform="matrix(1,0,0,1,3456.17,1456.46)">
                        <path d="M0,-1.466L0.348,0L1.353,-1.047L0,-1.466Z" style="fill:rgb(142,142,142);fill-rule:nonzero;"/>
                    </g>
                    <g transform="matrix(1,0,0,1,3457.48,1455.45)">
                        <path d="M0,1.124L1.062,1.124L1.103,0.034L1.073,0L0,1.112L0,1.124Z" style="fill:rgb(142,142,142);fill-rule:nonzero;"/>
                    </g>
                    <g transform="matrix(1,0,0,1,3457.55,1454.88)">
                        <path d="M0,-0.588L-0.017,-0.608L-1.683,-1.125L-1.389,0.117L-0.036,0.537L0,-0.588Z" style="fill:rgb(142,142,142);fill-rule:nonzero;"/>
                    </g>
                    <g transform="matrix(1,0,0,1,3457.29,1456.57)">
                        <path d="M0,1.778L2.135,1.778L1.897,0.752L1.248,0L-0.755,0L-0.705,0.21L-0.238,0.752L0,1.778Z" style="fill:rgb(142,142,142);fill-rule:nonzero;"/>
                    </g>
                    <g transform="matrix(1,0,0,1,3384.6,1457.17)">
                        <path d="M0,-1.722L2.034,-2.353L2.042,-2.35L2.054,-2.347L2.394,-2.241L2.394,-2.511L2.046,-2.621L2.042,-2.62L2.034,-2.623L-0.111,-1.957L-0.116,-1.956L-1.688,-0.136L-1.69,-0.133L-1.93,0.901L-1.697,0.901L-1.489,0.002L0,-1.722Z" style="fill:rgb(142,142,142);fill-rule:nonzero;"/>
                    </g>
                    <g transform="matrix(1,0,0,1,3386.99,1456.62)">
                        <path d="M0,0.962L0,0L-0.342,0.856L0,0.962Z" style="fill:rgb(142,142,142);fill-rule:nonzero;"/>
                    </g>
                    <g transform="matrix(1,0,0,1,3385.26,1456.64)">
                        <path d="M0,0.532L0.018,0.532L0.46,0.019L0.46,0L0,0.532Z" style="fill:rgb(142,142,142);fill-rule:nonzero;"/>
                    </g>
                    <g transform="matrix(1,0,0,1,3385.72,1456.88)">
                        <path d="M0,-0.239L-0.002,-0.286L-1.106,-1.431L-2.595,0.293L-2.803,1.192L-0.668,1.192L-0.46,0.293L0,-0.239Z" style="fill:rgb(142,142,142);fill-rule:nonzero;"/>
                    </g>
                    <g transform="matrix(1,0,0,1,3386.65,1458.07)">
                        <path d="M0,-0.597L-0.886,-0.322L-1.164,0L0.342,0L0.342,-0.491L0,-0.597Z" style="fill:rgb(142,142,142);fill-rule:nonzero;"/>
                    </g>
                    <g transform="matrix(1,0,0,1,3384.61,1458.07)">
                        <path d="M0,-2.623L-0.018,-2.623L-1.506,-0.899L-1.714,0L-1.697,0L-1.489,-0.899L0,-2.623Z" style="fill:rgb(142,142,142);fill-rule:nonzero;"/>
                    </g>
                    <g transform="matrix(1,0,0,1,3386.64,1456.59)">
                        <path d="M0,-1.773L-2.025,-1.145L-0.92,0L0.351,-0.394L0.351,-1.664L0.011,-1.769L0,-1.773Z" style="fill:rgb(142,142,142);fill-rule:nonzero;"/>
                    </g>
                    <g transform="matrix(1,0,0,1,3381.47,1451.82)">
                        <path d="M-0.596,6.253L1.2,6.253L1.439,5.219L1.441,5.216L3.013,3.396L3.019,3.394L5.163,2.729L5.17,2.729L5.172,2.732L5.175,2.731L5.523,2.841L5.523,2.702L5.389,1.976L5.281,1.394L5.242,1.187L5.138,0.624L5.063,0.219L5.023,0L2.511,0.779L2.387,1.05L-0.043,3.864L-0.596,6.253Z" style="fill:rgb(142,142,142);fill-rule:nonzero;"/>
                    </g>
                    <g transform="matrix(1,0,0,1,3385.72,1457.31)">
                        <path d="M0,-0.668L0.001,-0.648L0.041,0.442L0.927,0.166L1.27,-0.689L1.27,-1.11L-0.002,-0.715L0,-0.668Z" style="fill:rgb(142,142,142);fill-rule:nonzero;"/>
                    </g>
                    <g transform="matrix(0.969805,-0.24388,-0.24388,-0.969805,3439.27,1377.42)">
                        <rect x="-0.016" y="0.128" width="0.997" height="0.013" style="fill:rgb(142,142,142);"/>
                    </g>
                    <g transform="matrix(-0.971042,-0.238907,-0.238907,0.971042,3439.52,1372.47)">
                        <rect x="-0.956" y="0.101" width="0.969" height="0.015" style="fill:rgb(142,142,142);"/>
                    </g>
                    <g transform="matrix(1,0,0,1,3442.29,1374.91)">
                        <path d="M0,-0.515L-0.012,-0.122L-0.276,0.315L-0.635,0.909L-0.377,0.909L0.431,0.315L0.932,-0.515L0.961,-1.424L0.028,-1.424L0,-0.515Z" style="fill:rgb(142,142,142);fill-rule:nonzero;"/>
                    </g>
                    <g transform="matrix(1,0,0,1,3442.72,1372.62)">
                        <path d="M0,0.175L-0.712,0L-0.577,0.175L0,0.175Z" style="fill:rgb(142,142,142);fill-rule:nonzero;"/>
                    </g>
                    <g transform="matrix(1,0,0,1,3437.2,1373.4)">
                        <path d="M0,1.707L0.027,0.843L0.528,0.013L1.337,-0.581L2.279,-0.819L2.342,-0.819L3.223,-0.602L3.76,0.09L3.732,0.999L3.231,1.829L2.654,2.253L2.021,3.889L2.98,3.647L4.204,2.748L5.022,1.393L5.077,-0.35L3.966,-1.782L2.337,-2.182L0.841,-1.805L-0.383,-0.906L-1.201,0.449L-1.255,2.192L-0.556,3.094L-0.113,1.948L0,1.707Z" style="fill:rgb(142,142,142);fill-rule:nonzero;"/>
                    </g>
                    <g transform="matrix(-0.80609,0.591792,0.591792,0.80609,3440.09,1375.74)">
                        <rect x="-0.534" y="-0.249" width="0.665" height="0.038" style="fill:rgb(142,142,142);"/>
                    </g>
                    <g transform="matrix(1,0,0,1,3442.33,1373.24)">
                        <path d="M0,-0.189L-0.014,0.252L0.919,0.252L0.382,-0.441L-0.195,-0.441L0,-0.189Z" style="fill:rgb(142,142,142);fill-rule:nonzero;"/>
                    </g>
                    <g transform="matrix(1,0,0,1,3442.28,1374.4)">
                        <path d="M0,0.388L0.012,-0.005L0.041,-0.914L0.054,-1.355L0.001,-1.355L-0.053,0.388L-0.871,1.743L-0.818,1.743L-0.668,1.495L-0.622,1.418L-0.264,0.824L0,0.388Z" style="fill:rgb(142,142,142);fill-rule:nonzero;"/>
                    </g>
                    <g transform="matrix(1,0,0,1,3417.71,1373.61)">
                        <rect x="0" y="0" width="0.055" height="0.672" style="fill:rgb(142,142,142);"/>
                    </g>
                    <g transform="matrix(1,0,0,1,3417.72,1373.13)">
                        <path d="M0,0.483L0.042,0.483L-0.203,0L-0.245,0L0,0.483Z" style="fill:rgb(142,142,142);fill-rule:nonzero;"/>
                    </g>
                    <g transform="matrix(1,0,0,1,3417.44,1375.67)">
                        <path d="M0,-0.705L-0.451,-0.198L-0.965,0L-0.923,0L-0.41,-0.198L0.041,-0.705L0,-0.705Z" style="fill:rgb(142,142,142);fill-rule:nonzero;"/>
                    </g>
                    <g transform="matrix(1,0,0,1,3426.45,1373.72)">
                        <path d="M0,2.095L0.529,1.501L0.856,0.671L0.875,-0.238L-8.445,-0.238L-8.463,0.671L-8.79,1.501L-9.319,2.095L-9.935,2.333L-0.616,2.333L0,2.095Z" style="fill:rgb(142,142,142);fill-rule:nonzero;"/>
                    </g>
                    <g transform="matrix(1,0,0,1,3427.62,1372.49)">
                        <path d="M0,3.654L0.535,2.299L0.57,0.556L-0.156,-0.876L-1.22,-1.276L-2.198,-0.899L-2.999,0L-3.033,0.087L-1.218,0.087L-0.642,0.304L-0.29,0.996L-0.309,1.905L-0.636,2.735L-1.165,3.329L-1.781,3.566L-3.332,3.566L-2.844,4.53L-1.779,4.93L-0.8,4.553L0,3.654Z" style="fill:rgb(142,142,142);fill-rule:nonzero;"/>
                    </g>
                    <g transform="matrix(-0.935801,-0.352528,-0.352528,0.935801,3417.08,1372.89)">
                        <rect x="-0.493" y="0.075" width="0.506" height="0.014" style="fill:rgb(142,142,142);"/>
                    </g>
                    <g transform="matrix(1,0,0,1,3427.93,1374.55)">
                        <path d="M0,1.358L0.242,0.745L0.443,0.235L0.448,0.008L0.462,-0.696L0.471,-1.102L0.479,-1.508L0.258,-1.508L0.222,0.235L-0.312,1.59L-1.113,2.489L-2.091,2.866L-1.87,2.866L-0.892,2.489L-0.185,1.695L-0.091,1.59L0,1.358Z" style="fill:rgb(142,142,142);fill-rule:nonzero;"/>
                    </g>
                    <g transform="matrix(1,0,0,1,3417.44,1373.67)">
                        <path d="M0,1.295L0.269,0.614L0.282,-0.058L0.038,-0.541L-0.4,-0.705L-0.914,-0.507L-1.365,0L-1.634,0.681L-1.647,1.353L-1.403,1.836L-0.965,2L-0.451,1.802L0,1.295Z" style="fill:rgb(142,142,142);fill-rule:nonzero;"/>
                    </g>
                    <g transform="matrix(1,0,0,1,3416.51,1372.96)">
                        <path d="M0,2.706L-0.042,2.706L-0.479,2.541L-0.724,2.058L-0.71,1.387L-0.442,0.706L0.01,0.198L0.523,0.001L0.564,0.001L1.002,0.165L1.247,0.648L1.234,1.32L0.965,2.001L0.513,2.508L0,2.706ZM1.146,2.261L1.473,1.431L1.491,0.523L1.14,-0.17L0.564,-0.387L-0.052,-0.149L-0.581,0.445L-0.908,1.275L-0.927,2.184L-0.576,2.876L0,3.093L0.617,2.855L1.146,2.261Z" style="fill:rgb(142,142,142);fill-rule:nonzero;"/>
                    </g>
                    <g transform="matrix(1,0,0,1,3428.19,1371.61)">
                        <path d="M0,1.432L0.221,1.432L-0.505,0L-0.726,0L0,1.432Z" style="fill:rgb(142,142,142);fill-rule:nonzero;"/>
                    </g>
                    <g transform="matrix(1,0,0,1,3426.97,1372.58)">
                        <path d="M0,0.217L-0.576,0L-9.895,0L-9.319,0.217L0,0.217Z" style="fill:rgb(142,142,142);fill-rule:nonzero;"/>
                    </g>
                    <g transform="matrix(-0.936148,-0.351605,-0.351605,0.936148,3426.51,1371)">
                        <path d="M-1.315,0.161L-0.178,0.161L0.029,0.239L-1.108,0.239L-1.315,0.161Z" style="fill:rgb(142,142,142);fill-rule:nonzero;"/>
                    </g>
                    <g transform="matrix(1,0,0,1,3418.01,1372.79)">
                        <path d="M0,0.692L9.32,0.692L8.968,0L-0.351,0L0,0.692Z" style="fill:rgb(142,142,142);fill-rule:nonzero;"/>
                    </g>
                    <g transform="matrix(0.0595273,-0.998227,-0.998227,-0.0595273,3385.76,1463.12)">
                        <path d="M-0.958,-0.517L-0.74,-0.517L-0.453,-0.59L-0.555,1.12L-0.958,-0.517Z" style="fill:rgb(142,142,142);fill-rule:nonzero;"/>
                    </g>
                    <g transform="matrix(1,0,0,1,3383.11,1462.37)">
                        <path d="M0,-0.491L-0.448,-2.429L-0.697,-2.494L-0.202,-0.356L-0.199,-0.353L1.372,1.467L1.378,1.469L3.101,2.003L3.116,1.738L1.489,1.233L0,-0.491Z" style="fill:rgb(142,142,142);fill-rule:nonzero;"/>
                    </g>
                    <g transform="matrix(1,0,0,1,3386.65,1463.59)">
                        <path d="M0,-2.007L-0.061,-2.026L-0.929,-1.125L-2.034,0.019L-0.321,0.019L0.149,-1.458L0.167,-2.007L0,-2.007Z" style="fill:rgb(142,142,142);fill-rule:nonzero;"/>
                    </g>
                    <g transform="matrix(1,0,0,1,3384.61,1459.95)">
                        <path d="M0,3.657L1.104,2.512L0.034,1.272L-0.153,0.467L-1.936,0L-1.489,1.933L0,3.657Z" style="fill:rgb(142,142,142);fill-rule:nonzero;"/>
                    </g>
                    <g transform="matrix(1,0,0,1,3386.8,1461.58)">
                        <path d="M0,0.549L0.175,0L0.018,0L0,0.549Z" style="fill:rgb(142,142,142);fill-rule:nonzero;"/>
                    </g>
                    <g transform="matrix(1,0,0,1,3385.72,1460.58)">
                        <path d="M0,1.88L0.043,0.723L-0.569,0.015L-0.625,0L-1.071,0.64L0,1.88Z" style="fill:rgb(142,142,142);fill-rule:nonzero;"/>
                    </g>
                    <g transform="matrix(1,0,0,1,3386.59,1462.2)">
                        <path d="M0,-0.644L-0.825,-0.9L-0.869,0.256L0,-0.644Z" style="fill:rgb(142,142,142);fill-rule:nonzero;"/>
                    </g>
                    <g transform="matrix(1,0,0,1,3385.09,1461.05)">
                        <path d="M0,-0.474L-0.632,-0.639L-0.446,0.165L0,-0.474Z" style="fill:rgb(142,142,142);fill-rule:nonzero;"/>
                    </g>
                    <g transform="matrix(1,0,0,1,3384.6,1459.94)">
                        <path d="M0,3.662L0.018,3.662L-1.471,1.938L-1.918,0.005L-1.937,0L-1.489,1.938L0,3.662Z" style="fill:rgb(142,142,142);fill-rule:nonzero;"/>
                    </g>
                    <g transform="matrix(1,0,0,1,3388.94,1460.41)">
                        <path d="M0,6.251L-1.344,6.102L-2.067,6.022L-2.606,5.962L-2.844,5.794L-2.823,5.451L-2.781,4.743L-2.736,3.96L-4.458,3.426L-4.464,3.424L-6.036,1.604L-6.038,1.601L-6.533,-0.536L-7.231,-0.719L-7.81,-0.871L-7.882,-0.889L-8.185,-0.969L-8.203,-0.889L-8.41,-0.889L-7.521,2.955L-5.09,5.77L-4.967,6.041L-4.735,6.133L-1.234,7.22L1.391,6.405L0.933,6.354L0,6.251Z" style="fill:rgb(142,142,142);fill-rule:nonzero;"/>
                    </g>
                    <g transform="matrix(1,0,0,1,3385.15,1461.58)">
                        <path d="M0,-0.984L0.612,-0.276L1.437,-0.019L1.498,0L1.857,-0.112L2.081,-0.814L0.244,-0.92L0,-0.984Z" style="fill:rgb(142,142,142);fill-rule:nonzero;"/>
                    </g>
                    <g transform="matrix(1,0,0,1,3386.81,1461.47)">
                        <path d="M-0.167,0.111L0.157,0.111L0.193,0L-0.167,0.111Z" style="fill:rgb(142,142,142);fill-rule:nonzero;"/>
                    </g>
                    <g transform="matrix(1,0,0,1,3462.84,1462.35)">
                        <path d="M0,-8.002L-2.529,-10.931L-2.761,-11.023L-3.891,-11.374L-5.186,-11.776L-6.261,-12.11L-6.539,-12.003L-7.696,-11.644L-7.645,-11.428L-7.55,-11.029L-7.419,-10.475L-7.282,-9.9L-7.253,-9.777L-7.042,-8.889L-5.191,-8.314L-5.184,-8.314L-3.61,-6.491L-3.034,-4.001L-3.61,-1.51L-5.184,0.312L-5.191,0.312L-7.334,0.98L-7.342,0.98L-9.485,0.315L-9.491,0.312L-11.063,-1.507L-11.065,-1.51L-11.642,-4.001L-11.309,-5.441L-11.751,-6.361L-12.118,-7.125L-12.294,-7.49L-12.398,-7.597L-12.365,-7.636L-12.495,-7.907L-12.548,-7.846L-13.437,-4.001L-13.448,-4.001L-12.522,0L-9.994,2.929L-9.762,3.022L-6.261,4.108L-2.761,3.022L-2.529,2.929L0,0L0.926,-4.001L0,-8.002Z" style="fill:rgb(142,142,142);fill-rule:nonzero;"/>
                    </g>
                </g>
            </g>
        </g>
    </g>
</svg>
