<?xml version="1.0" encoding="UTF-8" standalone="no"?>
<!DOCTYPE svg PUBLIC "-//W3C//DTD SVG 1.1//EN" "http://www.w3.org/Graphics/SVG/1.1/DTD/svg11.dtd">
<svg width="100%" height="100%" viewBox="0 0 120 200" version="1.1" xmlns="http://www.w3.org/2000/svg" xmlns:xlink="http://www.w3.org/1999/xlink" xml:space="preserve" xmlns:serif="http://www.serif.com/" style="fill-rule:evenodd;clip-rule:evenodd;stroke-linejoin:round;stroke-miterlimit:2;">
    <g transform="matrix(1,0,0,1,-3788.62,-1268.32)">
        <g id="scooter-left-rider">
            <g>
                <g transform="matrix(1,0,0,1,3865.94,1318.42)">
                    <path d="M0,1.726L1.089,0L0.892,0.238L0,1.726Z" style="fill:rgb(63,38,19);fill-rule:nonzero;"/>
                </g>
                <g transform="matrix(1,0,0,1,3876.16,1329.14)">
                    <path d="M0,-20.782L-0.219,-20.331L0.018,-18.687L0.194,-17.442L0.268,-16.928L0.268,-16.917L0.24,-16.702L0.229,-16.604L0.201,-16.385L0,-14.764L-0.145,-13.606L-0.226,-12.96L-0.113,-12.023L0.141,-9.891L0.211,-9.293L0.391,-7.756L0.395,-7.743L2.104,-2.444L5.4,1.693L5.936,1.84L6.391,1.46L8.47,-4.256L9.059,-8.535L7.984,-4.724L9.059,-8.535L9.51,-10.13L9.239,-13.073L8.259,-17.096L7.124,-18.809L4.999,-21.998L3.514,-22.622L2.277,-22.622L0.687,-22.475L0.574,-22.464L0,-20.782Z" style="fill:rgb(51,51,51);fill-rule:nonzero;"/>
                </g>
                <g transform="matrix(0.128554,-0.991703,-0.991703,-0.128554,3876.39,1312.21)">
                    <path d="M-0.225,-0.029L-0.007,-0.029L0.004,-0.028L-0.066,0.28L-0.225,-0.029Z" style="fill:rgb(63,38,19);fill-rule:nonzero;"/>
                </g>
                <g transform="matrix(1,0,0,1,3859.88,1315.17)">
                    <path d="M0,-2.525L0.983,-1.35L3.458,0.867L4.17,0.968L4.174,0.943L4.181,0.944L4.695,0.015L4.808,-0.154L5.369,-0.415L5.657,-0.55L6.274,-0.197L6.25,-0.296L6.331,-0.164L6.482,-0.078L6.542,0.173L6.782,1.166L7.025,0.943L6.782,1.166L6.849,1.433L6.884,2.205L7.145,3.254L8.485,7.274L10.212,9.533L13.525,9.697L13.705,9.588L14.072,9.37L16.666,6.214L16.486,4.677L16.416,4.079L16.162,1.948L16.049,1.01L16.13,0.365L16.275,-0.794L16.476,-2.414L16.504,-2.633L15.376,-3.366L14.689,-4.562L14.354,-6.196L14.459,-7.829L15.605,-8.517L16.187,-8.512L16.328,-8.51L16.645,-8.508L16.663,-8.716L15.732,-9.808L12.672,-11.701L11.636,-11.989L10.843,-12.222L8.181,-12.222L6.204,-12.112L3.031,-10.798L2.09,-9.961L-0.025,-8.082L-0.574,-7.111L-0.451,-5.522L-0.345,-4.191L0,-2.525Z" style="fill:rgb(51,51,51);fill-rule:nonzero;"/>
                </g>
                <g transform="matrix(-0.555835,0.831293,0.831293,0.555835,3865.17,1314.53)">
                    <path d="M0.667,-0.129L0.87,-0.129L-0.134,0.356L0.138,0.192L0.667,-0.129Z" style="fill:rgb(63,38,19);fill-rule:nonzero;"/>
                </g>
                <g transform="matrix(1,0,0,1,3816.91,1458.91)">
                    <path d="M0,-0.561L-0.539,1.775L-0.543,1.794L-2.016,3.499L-2.034,3.518L-2.982,3.813L-2.989,3.816L-4.057,4.147L-4.068,4.15L-6.098,3.518L-7.589,1.794L-8.132,-0.561L-7.589,-2.916L-6.098,-4.641L-5.929,-4.694L-5.876,-4.98L-6.2,-4.879L-6.218,-4.874L-7.783,-3.059L-7.79,-3.051L-8.368,-0.561L-7.79,1.929L-7.783,1.937L-6.218,3.752L-6.2,3.757L-4.068,4.419L-1.917,3.752L-0.342,1.929L0.233,-0.561L-0.342,-3.051L-0.768,-3.544L-0.871,-3.296L-0.543,-2.916L0,-0.561Z" style="fill:rgb(51,51,51);fill-rule:nonzero;"/>
                </g>
                <g transform="matrix(1,0,0,1,3809.34,1456.62)">
                    <path d="M0,-0.631L-0.543,1.724L0.899,1.724L1.322,-0.631L1.611,-2.23L1.491,-2.355L0,-0.631Z" style="fill:rgb(51,51,51);fill-rule:nonzero;"/>
                </g>
                <g transform="matrix(-0.955239,-0.295835,-0.295835,0.955239,3810.9,1462.3)">
                    <path d="M-3.017,-0.49L-2.013,-0.49L0.024,0.14L-2.095,0.142L-3.017,-0.49Z" style="fill:rgb(51,51,51);fill-rule:nonzero;"/>
                </g>
                <g transform="matrix(1,0,0,1,3808.8,1458.35)">
                    <path d="M0,0.001L0.543,-2.354L2.034,-4.079L2.016,-4.079L0.525,-2.354L-0.018,0.001L0.525,2.356L2.016,4.08L2.034,4.08L0.543,2.356L0,0.001Z" style="fill:rgb(51,51,51);fill-rule:nonzero;"/>
                </g>
                <g transform="matrix(-1,0,0,1,3814.45,1460.04)">
                    <path d="M-1.875,-1.694L-0.44,-1.694L0,-0.646L-1.484,0L-1.875,-1.694Z" style="fill:rgb(51,51,51);fill-rule:nonzero;"/>
                </g>
                <g transform="matrix(-0.916893,-0.399133,-0.399133,0.916893,3813.98,1460.23)">
                    <path d="M-1.712,-0.95L-0.094,-0.95L-0.108,0.149L-1.224,0.614L-1.712,-0.95Z" style="fill:rgb(51,51,51);fill-rule:nonzero;"/>
                </g>
                <g transform="matrix(1,0,0,1,3870.63,1456.74)">
                    <path d="M0,1.33L1.23,1.33L1.019,0L0,1.33Z" style="fill:rgb(0,188,218);fill-rule:nonzero;"/>
                </g>
                <g transform="matrix(1,0,0,1,3883.28,1463.32)">
                    <path d="M0,-1.344L-0.377,-1.739L-0.385,-1.746L-0.659,-1.746L-1.396,-0.865L-1.435,0.26L-1.417,0.28L-1.022,0.402L0.148,0.383L0.398,0.306L0.409,0.303L0.479,0.28L0.497,0.26L0.462,-0.865L0,-1.344Z" style="fill:rgb(0,188,218);fill-rule:nonzero;"/>
                </g>
                <g transform="matrix(1,0,0,1,3866.26,1461.16)">
                    <path d="M0,4.276L7.78,3.732L10.804,2.964L10.286,2.366L10.156,1.798L9.912,0.745L9.74,0L1.745,0L1.177,0.69L-3.194,2.517L-3.849,3.767L-3.398,3.809L0,4.276Z" style="fill:rgb(0,188,218);fill-rule:nonzero;"/>
                </g>
                <g transform="matrix(1,0,0,1,3876,1463.34)">
                    <path d="M0,-2.182L0.173,-1.438L0.416,-0.384L0.546,0.183L0.522,0.027L-0.032,-2.365L-0.042,-2.364L0,-2.182Z" style="fill:rgb(0,188,218);fill-rule:nonzero;"/>
                </g>
                <g transform="matrix(1,0,0,1,3842.22,1447.93)">
                    <path d="M0,8.314L4.005,7.587L7.371,7.55L13.229,8.71L19.539,7.722L20.269,7.59L18.63,1.423L18.415,1.667L15.961,2.834L12.718,3.579L10.769,2.756L8.918,0.726L8.749,0.543L7.893,-0.396L2.27,4.503L-2.101,6.451L-2.725,7.718L-2.566,7.802L0,8.314Z" style="fill:rgb(0,188,218);fill-rule:nonzero;"/>
                </g>
                <g transform="matrix(1,0,0,1,3851.06,1399.56)">
                    <path d="M0,10.509L0.307,10.677L1.727,11.288L3.218,11.93L4.346,12.416L5.005,12.7L6.75,13.309L7.138,13.445L7.519,13.578L7.628,13.616L8.358,13.871L11.946,15.125L12.063,15.166L13.659,15.635L13.977,15.729L14.209,15.798L14.562,15.842L15.461,15.958L16.257,16.06L17.304,16.173L18.245,13.475L24.4,-4.175L24.566,-4.647L24.918,-5.664L1.59,-5.664L-1.058,0.834L-4.107,8.323L-3.437,8.697L-2.644,9.065L-1.209,9.849L-1.086,9.916L0,10.509Z" style="fill:rgb(0,188,218);fill-rule:nonzero;"/>
                </g>
                <g transform="matrix(1,0,0,1,3881.24,1420.89)">
                    <path d="M0.536,-26.989L-5.263,-26.989L-5.615,-25.972L-5.781,-25.501L-11.936,-7.851L-12.877,-5.153L-13.924,-5.265L-14.72,-5.367L-15.619,-5.483L-15.972,-5.528L-16.205,-5.596L-16.522,-5.69L-18.119,-6.159L-18.235,-6.2L-17.28,0L-16.116,-0.643L-15.796,-0.82L-14.967,-1.003L-14.869,-1.024L-14.777,-1.045L-14.343,-1.14L-13.91,-1.236L-13.867,-1.245L-13.772,-1.266L-11.633,-1.619L-11.192,-1.692L-10.201,-1.855L-7.861,-2.242L-6.465,-2.472L-5.601,-2.615L-4.738,-2.722L-4.607,-2.738L-4.466,-2.755L-1.653,-3.104L0.571,-3.273L0.969,-3.303L1.107,-3.143L2.295,-3.18L2.337,-3.181L2.732,-3.193L0.536,-26.989Z" style="fill:rgb(0,188,218);fill-rule:nonzero;"/>
                </g>
                <g transform="matrix(1,0,0,1,3880.81,1458.07)">
                    <path d="M0,-1.411L-0.441,-0.898L-0.648,0L-0.236,0L0.042,-0.321L0,-1.411Z" style="fill:rgb(250,192,41);fill-rule:nonzero;"/>
                </g>
                <g transform="matrix(1,0,0,1,3823.45,1423.93)">
                    <path d="M0,-0.011L1.23,0.384L2.478,0.671L3.409,0.777L3.779,0.67L3.543,0.441L3.5,0.594L3.172,0.688L2.344,0.595L1.237,0.339L0.145,-0.011L-0.635,-0.361L-0.899,-0.618L-0.85,-0.788L-1.174,-0.694L-0.878,-0.405L0,-0.011Z" style="fill:rgb(250,192,41);fill-rule:nonzero;"/>
                </g>
                <g transform="matrix(1,0,0,1,3822.81,1385.26)">
                    <path d="M0,38.304L0.779,38.654L1.872,39.004L2.979,39.26L3.807,39.353L4.135,39.259L4.177,39.106L15.041,0.163L14.713,0.258L13.882,0.164L12.775,-0.092L11.685,-0.442L10.903,-0.792L10.642,-1.049L-0.215,37.877L-0.264,38.047L0,38.304Z" style="fill:rgb(250,192,41);fill-rule:nonzero;"/>
                </g>
                <g transform="matrix(1,0,0,1,3820.5,1424.21)">
                    <path d="M0,10.277L1.23,10.671L2.397,11.243L2.432,11.243L2.436,11.249L3.451,11.249L3.694,11.252L3.698,11.249L3.694,11.252L3.75,11.249L6.038,2.929L5.125,1.464L6.038,2.929L7.343,2.916L6.429,1.452L6.726,0.39L6.355,0.496L5.425,0.391L4.177,0.103L2.947,-0.292L2.069,-0.686L1.773,-0.975L-1.174,9.594L-0.881,9.882L0,10.277Z" style="fill:rgb(250,192,41);fill-rule:nonzero;"/>
                </g>
                <g transform="matrix(1,0,0,1,3824.25,1427.12)">
                    <path d="M0,8.333L0.145,8.332L1.304,8.32L3.592,0L2.288,0.013L0,8.333Z" style="fill:rgb(250,192,41);fill-rule:nonzero;"/>
                </g>
                <g transform="matrix(1,0,0,1,3881.17,1450.34)">
                    <rect x="0" y="0" width="3.017" height="0.628" style="fill:rgb(250,192,41);fill-rule:nonzero;"/>
                </g>
                <g transform="matrix(1,0,0,1,3881.01,1451.97)">
                    <path d="M0,-0.781L-0.712,0.224L1.801,-0.556L3.024,-0.176L3.176,-1.005L0.571,-1.005L0,-0.781Z" style="fill:rgb(250,192,41);fill-rule:nonzero;"/>
                </g>
                <g transform="matrix(1,0,0,1,3880.19,1450.17)">
                    <path d="M0,0.271L-0.483,0.348L0.977,0.167L3.994,0.167L2.189,-0.077L0.892,0.129L0.324,0.22L0,0.271Z" style="fill:rgb(250,192,41);fill-rule:nonzero;"/>
                </g>
                <g transform="matrix(1,0,0,1,3881.17,1457.44)">
                    <path d="M0,-6.473L0,-7.101L-1.459,-6.921L-3.493,-6.127L-3.694,-6.048L-5.474,-4.761L-5.615,-4.66L-6.169,-3.982L-7.089,-2.851L-7.325,-2.318L-7.667,-1.544L-8.016,-0.744L-8.21,0.628L-3.715,0.628L-3.328,-0.527L-2.912,-1.752L-2.517,-2.923L-2.094,-3.52L-2.03,-3.61L-1.488,-4.372L-1.1,-4.921L-0.888,-5.218L-0.871,-5.244L-0.159,-6.249L0,-6.473Z" style="fill:rgb(250,192,41);fill-rule:nonzero;"/>
                </g>
                <g transform="matrix(1,0,0,1,3881.58,1451.19)">
                    <path d="M0,-0.224L-0.412,-0.224L-0.571,0L0,-0.224Z" style="fill:rgb(250,192,41);fill-rule:nonzero;"/>
                </g>
                <g transform="matrix(1,0,0,1,3872.63,1457.85)">
                    <path d="M0,-0.891L-0.451,-0.992L-0.976,-1.111L-0.765,0.22L-0.338,0.22L-0.06,-0.705L0,-0.891Z" style="fill:white;fill-rule:nonzero;"/>
                </g>
                <g transform="matrix(1,0,0,1,3879.07,1458.06)">
                    <path d="M0,-8.026L-1.378,-8.012L-1.703,-7.984L-3.208,-7.854L-4.805,-7.715L-5.094,-7.69L-5.213,-7.68L-5.421,-7.627L-6.313,-7.398L-5.756,-3.346L-6.44,-1.097L-6.5,-0.911L-6.779,0.013L-6.105,0.013L-5.911,-1.359L-5.562,-2.159L-5.22,-2.933L-4.984,-3.465L-4.064,-4.597L-3.511,-5.274L-3.37,-5.376L-1.59,-6.663L-1.389,-6.742L0.645,-7.535L1.128,-7.612L1.452,-7.663L2.02,-7.754L2.013,-7.814L1.361,-8.039L1.188,-8.038L0.716,-8.033L0,-8.026Z" style="fill:white;fill-rule:nonzero;"/>
                </g>
                <g transform="matrix(1,0,0,1,3889.94,1458.07)">
                    <path d="M0,1.189L0.543,1.189L0.543,0L-0.039,0L-0.039,1.029L0,1.189Z" style="fill:white;fill-rule:nonzero;"/>
                </g>
                <g transform="matrix(1,0,0,1,3889.96,1459.32)">
                    <path d="M0,0.009L0.014,0.072L0.525,-0.063L0,0.009Z" style="fill:white;fill-rule:nonzero;"/>
                </g>
                <g transform="matrix(1,0,0,1,3889.96,1459.26)">
                    <path d="M0,0.072L0.525,0L-0.018,0L0,0.072Z" style="fill:white;fill-rule:nonzero;"/>
                </g>
                <g transform="matrix(1,0,0,1,3889.9,1459.1)">
                    <path d="M0,-1.029L-0.236,-1.029L0,0L0,-1.029Z" style="fill:white;fill-rule:nonzero;"/>
                </g>
                <g transform="matrix(1,0,0,1,3886.88,1458.07)">
                    <rect x="-0.582" y="0" width="0.582" height="1.189" style="fill:white;fill-rule:nonzero;"/>
                </g>
                <g transform="matrix(1,0,0,1,3877.97,1460.37)">
                    <path d="M0,0.46L1.65,0.341L2.14,0.306L2.33,0.292L2.446,0.284L-6.408,-0.327L-4.533,0.787L-2.013,0.605L-2.002,0.604L-1.798,0.59L-1.414,0.562L-0.881,0.523L-0.247,0.478L-0.018,0.461L0,0.46Z" style="fill:white;fill-rule:nonzero;"/>
                </g>
                <g transform="matrix(1,0,0,1,3880.91,1459.41)">
                    <path d="M0,1.097L0.025,1.069L0.011,1.097L0,1.097L-0.49,1.249L0.148,1.097L1.622,0.746L2.506,0.535L4.269,0.116L4.537,0.052L5.39,-0.152L-9.345,0.638L-0.49,1.249L0,1.097Z" style="fill:white;fill-rule:nonzero;"/>
                </g>
                <g transform="matrix(1,0,0,1,3873.44,1460.98)">
                    <path d="M0,0.182L2.563,0.182L2.521,0L0,0.182Z" style="fill:white;fill-rule:nonzero;"/>
                </g>
                <g transform="matrix(1,0,0,1,3868.79,1460.05)">
                    <path d="M-42.378,1.114L4.646,1.114L2.771,0L-44.817,0L-42.378,1.114Z" style="fill:white;fill-rule:nonzero;"/>
                </g>
                <g transform="matrix(1,0,0,1,3819.55,1461.58)">
                    <path d="M0,-12.629L-0.448,-11.113L-0.571,-12.218L-0.55,-12.756L-1.586,-12.995L-1.882,-13.09L-3.088,-9.995L-6.849,0.461L-6.215,0.461L-5.852,-0.403L-5.531,-1.171L-5.104,-2.185L-4.664,-3.233L-4.23,-4.26L-3.913,-5.011L-3.645,-5.656L-3.511,-5.968L-3.409,-6.216L-3.402,-6.23L-3.077,-7.002L-2.75,-7.779L-2.447,-8.507L-2.178,-9.137L-1.974,-9.626L-1.844,-9.94L-1.819,-9.995L0.722,-9.995L-0.085,-8.079L0.645,-7.234L0.652,-7.209L1.991,-9.995L1.48,-12.41L0.441,-12.527L0,-12.629Z" style="fill:white;fill-rule:nonzero;"/>
                </g>
                <g transform="matrix(1,0,0,1,3852.99,1442.3)">
                    <path d="M0,8.384L1.949,9.206L5.192,8.462L7.646,7.295L7.861,7.051L7.018,3.841L6.687,-0.745L6.454,-0.811L5.855,-0.814L5.813,-0.814L5.048,-0.818L4.258,-0.822L3.824,-0.818L2.887,-0.811L2.425,-0.807L0.567,-0.783L0.321,-0.779L0.092,-0.77L-0.902,-0.731L-1.66,-0.701L-1.251,3.167L-2.02,6.171L-1.851,6.354L0,8.384Z" style="fill:white;fill-rule:nonzero;"/>
                </g>
                <g transform="matrix(1,0,0,1,3857.45,1352.42)">
                    <path d="M0,8.155L-1.262,1.201L-1.526,-0.257L-0.839,8.412L-0.423,8.285L0,8.155Z" style="fill:white;fill-rule:nonzero;"/>
                </g>
                <g transform="matrix(1,0,0,1,3853.82,1329.16)">
                    <path d="M-2.037,64.737L27.569,64.737L27.731,55.363L27.788,52.28L27.097,50.578L26.568,49.264L26.124,48.163L26.568,49.264L27.097,50.578L26.462,46.386L25.172,42.533L24.844,41.549L24.587,40.784L24.587,42.474L24.587,40.784L24.583,40.777L24.583,40.442L24.569,32.982L24.16,39.74L24.569,32.982L24.598,32.532L24.925,27.125L24.939,26.674L25.073,21.77L25.169,18.381L25.264,14.866L24.823,11.553L24.421,9.243L23.032,3.962L24.421,9.243L24.823,11.553L25.264,14.866L25.169,18.381L25.073,21.77L24.939,26.674L24.925,27.125L24.598,32.532L24.569,32.982L24.583,40.442L24.583,40.773L24.767,39.163L25.334,34.004L25.588,31.73L25.969,28.282L26.191,26.261L27.287,14.866L26.413,9.243L23.159,2.599L22.042,1.694L21.415,1.184L21.383,1.232L21.337,1.303L21.175,1.551L21.087,1.519L21.023,1.495L20.191,1.19L20.174,1.184L18.591,0.606L18.253,0.483L18.154,0.458L16.659,0.089L16.296,0L15.799,0.244L14.34,0.961L13.719,1.507L12.87,2.254L12.655,2.442L10.931,3.587L9.077,4.817L8.689,5.861L6.278,11.063L3.324,15.525L2.556,16.868L1.597,20.244L2.098,23L2.362,24.458L3.624,31.412L7.72,30.158L7.79,29.911L7.843,29.72L8.309,28.058L8.231,27.741L8.34,26.622L8.552,24.45L8.703,22.895L7.522,22.215L7.403,21.472L7.406,20.768L7.417,19.349L7.413,19.148L7.382,17.71L7.237,10.762L7.382,17.71L7.413,19.148L7.417,19.349L7.406,20.768L7.403,21.472L7.494,21.427L7.611,21.37L7.995,21.179L8.865,21.227L8.922,21.23L9.37,21.254L9.987,21.288L11.234,21.356L11.992,21.397L12.225,21.469L14.269,22.102L14.9,22.297L15.944,22.621L16.057,22.656L16.317,22.727L16.73,22.84L16.969,22.904L17.428,23.453L19.109,16.648L20.262,11.99L19.109,16.648L17.428,23.453L16.85,23.689L16.43,23.86L16.85,23.689L17.428,23.453L16.969,22.904L16.73,22.84L16.317,22.727L16.057,22.656L15.944,22.621L15.524,26.06L15.352,27.471L15.013,30.23L14.777,32.2L14.777,32.203L14.347,35.519L14.333,35.639L12.976,36.329L11.647,37.004L11.481,37.023L10.674,37.117L5.369,37.737L4.784,37.805L4.805,37.919L4.784,37.805L4.251,37.868L3.955,37.902L3.289,37.98L3.398,39.385L3.976,43.417L4.206,40.024L3.976,43.417L3.522,50.243L1.639,54.207L-2.037,64.737Z" style="fill:rgb(148,48,41);fill-rule:nonzero;"/>
                </g>
                <g transform="matrix(1,0,0,1,3861.82,1352.06)">
                    <path d="M0,-1.716L-0.384,-1.526L-0.5,-1.468L-0.592,-1.424L-0.472,-0.68L0.708,0L0.871,-1.669L0,-1.716Z" style="fill:rgb(148,48,41);fill-rule:nonzero;"/>
                </g>
                <g transform="matrix(0.5547,-0.83205,-0.83205,-0.5547,3875.26,1330.28)">
                    <path d="M-0.123,-0.023L-0.066,-0.023L-0.06,0.257L-0.112,0.159L-0.123,-0.023Z" style="fill:white;fill-rule:nonzero;"/>
                </g>
                <g transform="matrix(1,0,0,1,3881.78,1384.52)">
                    <path d="M-0.384,9.374L0.969,9.374L-0.222,0L-0.384,9.374Z" style="fill:white;fill-rule:nonzero;"/>
                </g>
                <g transform="matrix(1,0,0,1,3879.16,1365.97)">
                    <path d="M0,-2.807L-0.567,2.352L-0.751,3.962L-0.751,3.966L-0.747,3.973L-0.49,4.738L-0.162,5.722L1.132,-3.498L0.635,-8.529L0.254,-5.081L0,-2.807Z" style="fill:rgb(120,71,34);fill-rule:nonzero;"/>
                </g>
                <g transform="matrix(1,0,0,1,3876.63,1450.41)">
                    <path d="M0,-32.26L-0.13,-32.244L-0.994,-32.137L-1.857,-31.995L-3.253,-31.764L-5.594,-31.378L-6.584,-31.214L-7.025,-31.141L-9.165,-30.788L-9.26,-30.767L-9.302,-30.758L-9.168,-29.949L-9.084,-29.43L-8.844,-23.947L-6.493,-17.368L-2.989,0.018L-2.781,-0.034L-2.661,-0.045L-3.313,-7.78L-2.661,-0.045L-2.372,-0.07L-0.775,-0.208L0.73,-0.339L1.054,-0.367L2.432,-0.381L3.148,-0.388L3.62,-0.392L3.317,-2.694L3.331,-16.168L-0.137,-27.912L0.06,-30.992L0.141,-32.278L0,-32.26Z" style="fill:rgb(120,71,34);fill-rule:nonzero;"/>
                </g>
                <g transform="matrix(1,0,0,1,3866.83,1317.37)">
                    <path d="M0,1.287L0.198,1.049L-0.063,0L0,1.287Z" style="fill:rgb(120,71,34);fill-rule:nonzero;"/>
                </g>
                <g transform="matrix(0.253475,-0.967342,-0.967342,-0.253475,3859.64,1318.52)">
                    <path d="M-0.662,0.616L-0.468,0.616L0.865,0.605L-0.263,0.991L-0.662,0.616Z" style="fill:rgb(120,71,34);fill-rule:nonzero;"/>
                </g>
                <g transform="matrix(1,0,0,1,3864.95,1322.75)">
                    <path d="M0,-3.101L0.363,-2.689L0.423,-2.613L0,-3.101ZM10.11,7.536L10.057,7.439L9.084,5.652L8.633,2.007L8.453,2.116L5.139,1.952L3.412,-0.307L2.073,-4.326L0.983,-2.601L1.875,-4.088L1.812,-5.376L1.777,-6.148L1.71,-6.415L1.47,-7.407L1.41,-7.659L1.258,-7.745L1.202,-7.777L0.585,-8.131L-0.377,-7.565L-0.892,-6.637L-0.902,-6.613L-1.615,-6.714L-4.089,-8.931L-5.073,-10.105L-5.418,-11.771L-5.524,-13.103L-5.908,-12.108L-5.911,-12.104L-6.204,-9.436L-6.077,-8.512L-5.781,-7.113L-5.636,-5.383L-5.682,-5.218L-6.031,-3.931L-6.081,-3.744L-6.088,-3.721L-6.172,-3.409L-5.771,-0.647L-5.354,2.596L-5.344,2.964L-4.84,3.603L-4.48,3.994L-1.177,4.062L-0.039,9.843L-0.198,10.002L1.526,8.857L1.741,8.669L2.591,7.921L3.211,7.376L4.671,6.658L5.167,6.415L5.531,6.504L7.025,6.873L7.124,6.898L7.462,7.021L9.045,7.599L9.063,7.605L9.895,7.91L9.958,7.933L10.046,7.966L10.208,7.717L10.11,7.536Z" style="fill:rgb(120,71,34);fill-rule:nonzero;"/>
                </g>
                <g transform="matrix(1,0,0,1,3853.31,1409.46)">
                    <path d="M0,32.061L0.247,32.057L2.104,32.033L2.566,32.029L3.504,32.022L3.937,32.018L4.727,32.022L5.492,32.026L5.534,32.026L5.34,30.177L6.042,17.83L5.996,16.025L3.416,8.814L6.109,3.974L5.379,3.719L5.27,3.681L4.889,3.548L4.501,3.412L2.756,2.803L2.097,2.519L0.969,2.033L-0.522,1.391L-1.942,0.78L-2.249,0.612L-3.335,0.019L-3.458,-0.048L-4.893,3.856L-5.129,6.794L-5.309,7.738L-4.121,12.024L-4.346,10.444L-4.121,12.024L-1.223,32.109L-0.229,32.07L0,32.061Z" style="fill:rgb(120,71,34);fill-rule:nonzero;"/>
                </g>
                <g transform="matrix(1,0,0,1,3840.99,1363.81)">
                    <path d="M0,0.39L0.201,0.377L0.247,0L0,0.39Z" style="fill:rgb(120,71,34);fill-rule:nonzero;"/>
                </g>
                <g transform="matrix(1,0,0,1,3843.67,1361.13)">
                    <path d="M0,0.707L0.092,0.692L1.012,0.54L1.738,-0.132L0.599,-0.153L-1.001,0.575L-0.924,0.86L-0.49,0.788L0,0.707Z" style="fill:rgb(120,71,34);fill-rule:nonzero;"/>
                </g>
                <g transform="matrix(1,0,0,1,3858.08,1351.92)">
                    <path d="M0,15.114L0.532,15.052L1.117,14.983L6.423,14.364L7.23,14.269L7.396,14.25L8.724,13.576L10.082,12.885L10.096,12.766L10.526,9.449L10.526,9.447L10.762,7.476L11.1,4.717L11.273,3.306L11.692,-0.133L10.649,-0.456L10.018,-0.652L7.974,-1.285L7.741,-1.357L6.983,-1.398L5.735,-1.466L5.118,-1.5L4.671,-1.524L4.614,-1.527L4.452,0.142L4.301,1.696L4.089,3.868L3.98,4.987L4.057,5.304L4.177,4.879L4.057,5.304L3.592,6.966L3.539,7.157L3.469,7.404L-0.627,8.658L-1.05,8.788L-1.466,8.915L-6.066,10.323L-9.648,10.622L-9.658,10.624L-11.389,9.972L-9.658,10.624L-11.939,9.17L-12.665,9.087L-13.391,9.758L-14.312,9.911L-14.403,9.926L-14.893,10.007L-15.327,10.079L-15.729,10.145L-17.244,10.403L-17.562,10.592L-17.724,10.984L-17.745,11.905L-17.082,12.281L-16.835,11.891L-16.803,11.845L-17.519,11.834L-16.803,11.845L-16.243,11.853L-16.803,11.845L-16.835,11.891L-16.881,12.268L-16.976,13.031L-16.486,14.263L-15.436,15.658L-14.579,16.6L-13.938,16.641L-8.816,15.717L-7.917,15.551L-8.273,15.531L-7.917,15.551L-5.104,15.71L-0.962,15.226L-0.296,15.149L0,15.114Z" style="fill:rgb(120,71,34);fill-rule:nonzero;"/>
                </g>
                <g transform="matrix(1,0,0,1,3879.31,1465.39)">
                    <path d="M0,1.161L-0.233,1.069L-0.293,1.001L-0.811,0.399L-2.245,-1.262L-5.27,-0.494L-13.05,0.05L-16.448,-0.417L-16.899,-0.459L-16.969,2.016L-16.275,2.169L-13.342,2.321L-9.285,2.423L-6.056,2.121L-0.687,1.606L0.874,1.433L0.25,1.239L0,1.161Z" style="fill:rgb(221,221,221);fill-rule:nonzero;"/>
                </g>
                <g transform="matrix(1,0,0,1,3876.73,1312.51)">
                    <path d="M0,-5.839L0.113,-5.85L-0.092,-5.851L-0.204,-5.853L-0.522,-5.855L-0.663,-5.857L-1.244,-5.861L-2.39,-5.174L-2.496,-3.541L-2.161,-1.907L-1.473,-0.711L-0.345,0.022L-0.335,-0.076L-0.62,-0.273L-0.307,-0.303L-0.381,-0.817L-0.557,-2.062L-0.793,-3.706L-0.574,-4.157L0,-5.839Z" style="fill:rgb(148,48,41);fill-rule:nonzero;"/>
                </g>
                <g transform="matrix(1,0,0,1,3816.54,1456.64)">
                    <path d="M0,0.683L0.236,1.709L0.377,1.709L-0.166,-0.646L-0.493,-1.026L-0.627,-0.714L-0.648,-0.069L0,0.683Z" style="fill:rgb(221,221,221);fill-rule:nonzero;"/>
                </g>
                <g transform="matrix(1,0,0,1,3819.11,1448.83)">
                    <path d="M0,1.643L0.448,0.127L0.028,0.031L-0.102,0L-0.123,0.538L0,1.643Z" style="fill:rgb(221,221,221);fill-rule:nonzero;"/>
                </g>
                <g transform="matrix(1,0,0,1,3816.18,1447.06)">
                    <path d="M0,0.056L2.02,0.704L4.047,1.172L4.551,1.229L4.512,1.149L3.885,1.078L2.027,0.649L0.18,0.056L-1.142,-0.536L-1.579,-0.963L-1.519,-1.173L-1.918,-1.057L-1.442,-0.591L0,0.056Z" style="fill:rgb(221,221,221);fill-rule:nonzero;"/>
                </g>
                <g transform="matrix(1,0,0,1,3817.67,1450.46)">
                    <path d="M0,-1.964L-1.724,-2.518L-3.007,-3.094L-5.88,-0.723L-1.206,1.13L0,-1.964Z" style="fill:rgb(221,221,221);fill-rule:nonzero;"/>
                </g>
                <g transform="matrix(1,0,0,1,3886.3,1458.86)">
                    <path d="M0,0.399L0,-0.79L-63.718,-0.79L-62.322,1.189L-14.735,1.189L0,0.399Z" style="fill:rgb(221,221,221);fill-rule:nonzero;"/>
                </g>
                <g transform="matrix(1,0,0,1,3819.58,1434.98)">
                    <path d="M0,0.563L1.851,1.157L3.705,1.585L5.073,1.739L5.608,1.584L4.815,0.479L4.671,0.48L4.614,0.483L4.611,0.496L4.371,0.48L3.356,0.48L3.352,0.474L3.317,0.474L2.15,-0.098L0.92,-0.492L0.039,-0.887L-0.254,-1.176L-1.755,-0.456L-1.318,-0.029L0,0.563Z" style="fill:rgb(221,221,221);fill-rule:nonzero;"/>
                </g>
                <g transform="matrix(1,0,0,1,3819.48,1449.12)">
                    <path d="M0,-5.651L1.174,-9.855L0,-5.651ZM1.526,-11.116L10.67,8.948L13.924,8.948L5.108,-10.392L4.854,-9.478L5.108,-10.392L5.714,-12.559L5.178,-12.405L3.811,-12.558L1.956,-12.987L0.106,-13.58L-1.213,-14.172L-1.65,-14.599L-4.819,-3.235L-4.879,-3.025L-4.442,-2.598L-3.12,-2.006L-1.272,-1.412L0.585,-0.984L1.213,-0.913L0.811,-1.803L-0.353,-4.385L0.811,-1.803L1.213,-0.913L1.251,-0.833L1.653,0.062L5.661,8.948L10.67,8.948L1.526,-11.116Z" style="fill:rgb(221,221,221);fill-rule:nonzero;"/>
                </g>
                <g transform="matrix(1,0,0,1,3840.18,1455.48)">
                    <path d="M-0.659,2.591L8.132,2.591L12.094,2.528L17.128,2.504L22.109,2.404L22.334,2.373L22.306,0.039L21.577,0.171L15.267,1.16L9.408,0L6.042,0.036L2.037,0.763L-0.529,0.252L-0.687,0.167L-0.659,2.591Z" style="fill:rgb(221,221,221);fill-rule:nonzero;"/>
                </g>
                <g transform="matrix(1,0,0,1,3820.22,1446.95)">
                    <path d="M0,1.279L-2.027,0.811L-4.047,0.163L-5.489,-0.484L-5.964,-0.951L-6.197,-0.128L-5.718,0.339L-5.559,0.41L-4.276,0.986L-2.552,1.539L-2.256,1.634L-1.22,1.873L-1.089,1.904L-0.67,2L-0.229,2.102L0.811,2.219L0.906,2.23L0.504,1.336L0,1.279Z" style="fill:rgb(221,221,221);fill-rule:nonzero;"/>
                </g>
                <g transform="matrix(1,0,0,1,3811.77,1454.56)">
                    <path d="M0,2.654L0.49,2.806L0.86,3.221L1.019,3.787L0.92,4.354L0.592,4.769L0.12,4.921L-0.229,4.921L-0.719,4.769L-1.075,4.354L-1.206,3.787L-1.075,3.221L-0.719,2.806L-0.229,2.654L0,2.654ZM-0.335,-2.865L-0.448,-2.235L-0.589,-1.471L-0.737,-0.631L-0.79,-0.345L-0.79,-0.339L-0.821,-0.167L-1.11,1.432L-1.533,3.787L-1.918,5.92L-1.992,6.324L-0.155,7.051L0.931,7.482L4.692,-2.975L0.018,-4.828L-0.204,-3.586L-0.211,-3.565L-0.254,-3.319L-0.335,-2.865Z" style="fill:rgb(221,221,221);fill-rule:nonzero;"/>
                </g>
                <g transform="matrix(-0.69334,-0.720611,-0.720611,0.69334,3814.07,1460.44)">
                    <path d="M-1.158,0.018L0.052,0.018L-0.279,0.782L-1.425,0.261L-1.158,0.018Z" style="fill:rgb(221,221,221);fill-rule:nonzero;"/>
                </g>
                <g transform="matrix(1,0,0,1,3833.41,1375.59)">
                    <path d="M0,1.431L0.053,1.431L0.285,1.129L0.462,0.901L1.163,0L1.11,0L0,1.431Z" style="fill:rgb(221,221,221);fill-rule:nonzero;"/>
                </g>
                <g transform="matrix(1,0,0,1,3834.5,1373.66)">
                    <path d="M0,11.157L1.089,11.507L2.196,11.763L3.028,11.856L3.356,11.761L2.979,11.249L2.905,11.151L2.979,11.249L7.998,2.699L8.28,2.586L9.218,2.205L9.75,1.99L10.117,1.841L10.145,1.841L10.388,1.359L10.378,0.687L10.106,0.006L9.655,-0.502L9.144,-0.699L8.83,-0.699L8.421,-0.535L8.39,-0.522L7.625,-0.212L5.834,0.515L5.436,0.675L1.28,7.749L1.399,8.062L1.688,8.808L2.066,9.786L2.436,10.734L2.436,10.741L2.432,10.738L2.436,10.734L2.066,9.786L1.688,8.808L1.399,8.062L1.28,7.749L-0.627,2.826L-0.804,3.054L-1.036,3.356L-1.248,3.408L1.794,11.265L-1.248,3.408L-1.921,3.574L-2.563,3.731L-2.665,3.756L-2.718,3.756L-3.063,3.67L-3.197,3.636L-0.631,10.264L-0.589,10.374L-0.631,10.264L-1.043,10.55L-0.782,10.807L0,11.157Z" style="fill:rgb(221,221,221);fill-rule:nonzero;"/>
                </g>
                <g transform="matrix(1,0,0,1,3844.78,1372.79)">
                    <path d="M0,3.047L0.353,2.354L0.331,1.446L0.007,0.616L-0.522,0.022L-1.138,-0.216L-1.717,0.001L-1.893,0.348L-1.861,0.336L-1.452,0.171L-1.138,0.171L-0.627,0.369L-0.176,0.877L0.095,1.557L0.106,2.229L-0.137,2.712L-0.532,2.86L-1.064,3.076L-0.574,3.263L0,3.047Z" style="fill:rgb(221,221,221);fill-rule:nonzero;"/>
                </g>
                <g transform="matrix(1,0,0,1,3844.21,1375.84)">
                    <path d="M0,0.216L0.257,0.216L0.835,0L0.574,0L0,0.216Z" style="fill:rgb(221,221,221);fill-rule:nonzero;"/>
                </g>
                <g transform="matrix(1,0,0,1,3844.78,1375.15)">
                    <path d="M0,0.693L0.261,0.693L0.61,0L0.353,0L0,0.693Z" style="fill:rgb(221,221,221);fill-rule:nonzero;"/>
                </g>
                <g transform="matrix(1,0,0,1,3844.79,1374.32)">
                    <path d="M0,-0.907L0.324,-0.077L0.345,0.832L0.603,0.832L0.585,-0.077L0.257,-0.907L-0.271,-1.501L-0.888,-1.739L-1.146,-1.739L-0.529,-1.501L0,-0.907Z" style="fill:rgb(221,221,221);fill-rule:nonzero;"/>
                </g>
                <g transform="matrix(1,0,0,1,3820.28,1453.5)">
                    <path d="M0,-1.916L-2.46,-1.916L-0.807,0L0,-1.916Z" style="fill:rgb(221,221,221);fill-rule:nonzero;"/>
                </g>
                <g transform="matrix(1,0,0,1,3882.81,1463.71)">
                    <path d="M0,0.191L0.617,0L-0.553,0.019L0,0.191Z" style="fill:rgb(221,221,221);fill-rule:nonzero;"/>
                </g>
                <g transform="matrix(1,0,0,1,3866.47,1420.02)">
                    <path d="M0,0.492L0.994,0.438L0.86,-0.372L0.427,-0.276L-0.007,-0.18L-0.099,-0.16L-0.155,-0.148L-0.198,-0.139L-1.026,0.044L-1.347,0.221L-2.51,0.864L-1.35,0.725L0,0.492Z" style="fill:rgb(0,188,218);fill-rule:nonzero;"/>
                </g>
                <g transform="matrix(1,0,0,1,3883.61,1418.92)">
                    <path d="M0,-0.844L-0.032,-1.217L-0.074,-1.215L-1.262,-1.179L-1.399,-1.339L-1.798,-1.308L-4.022,-1.139L-6.835,-0.791L-6.916,0.495L-1.713,-0.44L0.004,-0.832L0.363,-1.229L-0.032,-1.217L0,-0.844Z" style="fill:rgb(0,188,218);fill-rule:nonzero;"/>
                </g>
                <g transform="matrix(1,0,0,1,3819.47,1463.95)">
                    <path d="M0,-10.449L-1.653,-12.365L-1.734,-12.365L-1.759,-12.31L-1.889,-11.995L-2.094,-11.507L-2.362,-10.877L-2.665,-10.149L-2.993,-9.372L-3.317,-8.6L-2.88,-8.093L-2.305,-5.603L-2.88,-3.112L-4.456,-1.29L-6.606,-0.622L-6.624,-0.622L-8.756,-1.285L-8.774,-1.29L-10.339,-3.105L-10.346,-3.112L-10.924,-5.603L-10.346,-8.093L-10.339,-8.101L-8.774,-9.916L-8.756,-9.921L-8.432,-10.021L-8.284,-10.861L-8.143,-11.625L-8.03,-12.255L-7.949,-12.709L-7.906,-12.955L-9.264,-12.533L-11.791,-9.604L-12.718,-5.603L-11.791,-1.602L-9.264,1.327L-9.031,1.42L-5.531,2.506L-2.03,1.42L-1.798,1.327L0.73,-1.602L1.657,-5.603L0.737,-9.579L0.73,-9.604L0,-10.449Z" style="fill:rgb(142,142,142);fill-rule:nonzero;"/>
                </g>
                <g transform="matrix(1,0,0,1,3817.15,1459.66)">
                    <path d="M0,-1.316L-0.574,1.174L-2.15,2.997L-2.133,2.997L-0.557,1.174L0.018,-1.316L-0.557,-3.806L-0.994,-4.313L-1.001,-4.299L-0.574,-3.806L0,-1.316Z" style="fill:rgb(142,142,142);fill-rule:nonzero;"/>
                </g>
                <g transform="matrix(1,0,0,1,3810.83,1461.61)">
                    <path d="M0,0.816L2.133,0.816L2.136,0.796L2.147,0.431L1.872,0.431L0.786,0L0,0.816Z" style="fill:rgb(142,142,142);fill-rule:nonzero;"/>
                </g>
                <g transform="matrix(1,0,0,1,3809.34,1460.07)">
                    <path d="M0,0.631L1.491,2.355L2.277,1.539L0.441,0.812L0.515,0.408L0.899,-1.724L-0.543,-1.724L0,0.631Z" style="fill:rgb(142,142,142);fill-rule:nonzero;"/>
                </g>
                <g transform="matrix(1,0,0,1,3815.91,1456.57)">
                    <path d="M0,-0.645L-0.268,0L-0.021,0L0,-0.645Z" style="fill:rgb(142,142,142);fill-rule:nonzero;"/>
                </g>
                <g transform="matrix(1,0,0,1,3816.37,1460.07)">
                    <path d="M0,0.612L0.539,-1.724L-0.049,-1.724L-0.441,-0.03L-1.512,1.211L-1.502,1.571L-1.477,2.336L-0.004,0.631L0,0.612Z" style="fill:rgb(142,142,142);fill-rule:nonzero;"/>
                </g>
                <g transform="matrix(1,0,0,1,3816.77,1456.57)">
                    <path d="M0,1.778L-0.236,0.752L-0.885,0L-1.132,0L-1.449,0.752L-1.882,1.778L0,1.778Z" style="fill:rgb(142,142,142);fill-rule:nonzero;"/>
                </g>
                <g transform="matrix(1,0,0,1,3829.54,1372.96)">
                    <path d="M0,2.706L-0.786,2.508L-1.477,2.001L-1.886,1.32L-1.907,0.648L-1.533,0.165L-0.864,0.001L-0.86,0.002L-0.853,0.001L-0.211,0.165L-0.201,0.165L-0.077,0.198L-0.067,0.198L0.624,0.706L1.033,1.387L1.047,1.803L1.047,1.822L1.054,2.058L0.68,2.541L0.67,2.541L0.011,2.706L0.007,2.705L0,2.706ZM0.892,2.876L1.428,2.184L1.399,1.275L0.899,0.445L0.092,-0.149L-0.853,-0.387L-1.022,-0.345L-1.734,-0.17L-2.27,0.523L-2.242,1.431L-1.741,2.261L-0.934,2.855L-0.631,2.932L0.011,3.093L0.892,2.876Z" style="fill:rgb(142,142,142);fill-rule:nonzero;"/>
                </g>
                <g transform="matrix(1,0,0,1,3830.21,1373.13)">
                    <path d="M0,2.376L0.374,1.893L0.37,1.761L0.367,1.615L0.353,1.221L-0.056,0.541L-0.747,0.033L-0.871,0L-0.881,0L-1.523,-0.165L-1.53,-0.164L-1.533,-0.165L-2.203,0L-2.577,0.482L-2.556,1.154L-2.147,1.835L-1.456,2.343L-0.67,2.541L-0.663,2.539L-0.659,2.541L0,2.376Z" style="fill:rgb(142,142,142);fill-rule:nonzero;"/>
                </g>
                <g transform="matrix(1,0,0,1,3831.78,1377.02)">
                    <path d="M0,0.4L0.053,0.4L0.155,0.375L0.797,0.217L1.47,0.051L1.682,0L1.629,0L0,0.4Z" style="fill:rgb(142,142,142);fill-rule:nonzero;"/>
                </g>
                <g transform="matrix(1,0,0,1,3831.78,1371.21)">
                    <path d="M0,6.206L1.629,5.806L2.739,4.374L2.683,2.631L1.865,1.276L0.642,0.377L-0.856,0L-2.485,0.4L-3.264,1.405L-3.095,1.363L-0.86,1.363L0.085,1.601L0.892,2.195L1.393,3.025L1.421,3.933L0.885,4.626L0.004,4.842L-2.231,4.842L-2.873,4.681L-2.721,4.93L-1.498,5.829L-0.479,6.086L-0.345,6.119L0,6.206Z" style="fill:rgb(142,142,142);fill-rule:nonzero;"/>
                </g>
                <g transform="matrix(1,0,0,1,3830.21,1375.02)">
                    <path d="M0,0.483L0.01,0.483L0.384,0L0.374,0L0,0.483Z" style="fill:rgb(142,142,142);fill-rule:nonzero;"/>
                </g>
                <g transform="matrix(1,0,0,1,3829.55,1375.84)">
                    <path d="M0,0.216L2.235,0.216L3.116,0L0.881,0L0,0.216Z" style="fill:rgb(142,142,142);fill-rule:nonzero;"/>
                </g>
                <g transform="matrix(1,0,0,1,3830.44,1374.32)">
                    <path d="M0,-0.907L0.5,-0.077L0.529,0.832L2.764,0.832L2.736,-0.077L2.235,-0.907L1.428,-1.501L0.483,-1.739L-1.752,-1.739L-0.807,-1.501L0,-0.907Z" style="fill:rgb(142,142,142);fill-rule:nonzero;"/>
                </g>
                <g transform="matrix(1,0,0,1,3830.43,1375.15)">
                    <path d="M0,0.693L2.235,0.693L2.771,0L0.536,0L0,0.693Z" style="fill:rgb(142,142,142);fill-rule:nonzero;"/>
                </g>
                <g transform="matrix(1,0,0,1,3830.56,1374.09)">
                    <path d="M0,0.264L0.014,0.658L0.025,0.681L0.01,0.264L-0.398,-0.417L-0.409,-0.417L0,0.264Z" style="fill:rgb(142,142,142);fill-rule:nonzero;"/>
                </g>
                <g transform="matrix(1,0,0,1,3833.65,1374.31)">
                    <path d="M0,-1.822L0.818,-0.467L0.874,1.276L0.927,1.276L0.871,-0.467L0.053,-1.822L-1.17,-2.721L-2.668,-3.098L-2.721,-3.098L-1.223,-2.721L0,-1.822Z" style="fill:rgb(142,142,142);fill-rule:nonzero;"/>
                </g>
                <g transform="matrix(1,0,0,1,3846.47,1377.02)">
                    <path d="M0,-1.431L-0.219,-1.431L-0.945,0L-0.726,0L-0.236,-0.963L-0.127,-1.179L0,-1.431Z" style="fill:rgb(142,142,142);fill-rule:nonzero;"/>
                </g>
                <g transform="matrix(1,0,0,1,3845.68,1374.31)">
                    <path d="M0,-1.822L0.532,-0.467L0.571,1.276L0.79,1.276L0.783,0.835L0.761,-0.074L0.754,-0.467L0.582,-0.903L0.349,-1.497L0.254,-1.735L0.219,-1.822L-0.582,-2.721L-1.558,-3.098L-1.78,-3.098L-0.8,-2.721L0,-1.822Z" style="fill:rgb(142,142,142);fill-rule:nonzero;"/>
                </g>
                <g transform="matrix(1,0,0,1,3846.47,1375.4)">
                    <path d="M0,0.189L-0.127,0.441L8.107,0.441L8.46,-0.252L-0.007,-0.252L0,0.189Z" style="fill:rgb(142,142,142);fill-rule:nonzero;"/>
                </g>
                <g transform="matrix(1,0,0,1,3846.27,1374.32)">
                    <path d="M0,-0.907L0.173,-0.471L0.18,-0.077L0.201,0.832L8.668,0.832L8.65,-0.077L8.323,-0.907L7.794,-1.501L7.177,-1.739L-0.328,-1.739L-0.233,-1.501L0,-0.907Z" style="fill:rgb(142,142,142);fill-rule:nonzero;"/>
                </g>
                <g transform="matrix(1,0,0,1,3846.24,1375.84)">
                    <path d="M0,0.216L7.769,0.216L8.344,0L0.109,0L0,0.216Z" style="fill:rgb(142,142,142);fill-rule:nonzero;"/>
                </g>
                <g transform="matrix(1,0,0,1,3843.07,1375.84)">
                    <path d="M0,-3.046L0.578,-3.263L0.836,-3.263L1.452,-3.025L1.981,-2.431L2.309,-1.601L2.327,-0.693L1.978,0L1.4,0.216L1.142,0.216L0.652,0.028L-0.285,0.409L0.42,1.203L1.4,1.58L2.464,1.18L3.19,-0.252L3.152,-1.995L2.619,-3.35L1.819,-4.249L0.839,-4.626L-0.225,-4.226L-0.952,-2.794L-0.941,-2.388L-0.176,-2.699L0,-3.046Z" style="fill:rgb(142,142,142);fill-rule:nonzero;"/>
                </g>
                <g transform="matrix(1,0,0,1,3844.47,1377.02)">
                    <path d="M0,0.4L0.219,0.4L1.283,0L1.064,0L0,0.4Z" style="fill:rgb(142,142,142);fill-rule:nonzero;"/>
                </g>
                <g transform="matrix(1,0,0,1,3889.94,1459.79)">
                    <path d="M0,-0.534L-0.039,-0.694L-0.275,-1.723L-0.864,-4.268L-3.395,-7.197L-3.624,-7.289L-5.901,-7.996L-7.124,-8.376L-9.637,-7.596L-9.655,-7.57L-9.866,-7.272L-10.254,-6.724L-10.797,-5.961L-10.861,-5.872L-11.283,-5.274L-11.678,-4.104L-12.094,-2.878L-12.482,-1.723L-12.179,-1.723L-11.939,-2.757L-11.932,-2.765L-10.367,-4.58L-10.349,-4.585L-8.217,-5.248L-8.199,-5.248L-6.049,-4.58L-4.473,-2.757L-4.233,-1.723L-3.056,-1.723L-3.056,-0.534L-3.218,-0.511L-3.93,-0.41L-3.899,-0.267L-4.473,2.224L-6.049,4.046L-8.199,4.714L-8.217,4.714L-10.349,4.051L-10.367,4.046L-11.932,2.231L-11.939,2.224L-12.211,1.06L-12.845,1.106L-13.377,1.145L-13.761,1.172L-13.966,1.187L-13.413,3.578L-13.388,3.734L-12.87,4.332L-11.435,5.994L-10.917,6.596L-10.857,6.663L-10.624,6.756L-10.374,6.834L-9.75,7.028L-7.124,7.842L-3.624,6.756L-3.395,6.663L-0.864,3.734L0.063,-0.267L0.032,-0.4L0.018,-0.462L0,-0.534Z" style="fill:rgb(142,142,142);fill-rule:nonzero;"/>
                </g>
                <g transform="matrix(1,0,0,1,3885.45,1459.26)">
                    <path d="M0,0.203L0.18,0.178L0.317,0.158L0.543,0.126L0.561,0.124L1.273,0.023L1.435,0L0.853,0L0,0.203Z" style="fill:rgb(142,142,142);fill-rule:nonzero;"/>
                </g>
                <g transform="matrix(1,0,0,1,3881.74,1458.07)">
                    <path d="M0,-0.597L-0.885,-0.322L-1.163,0L1.167,0L0.888,-0.322L0,-0.597Z" style="fill:rgb(142,142,142);fill-rule:nonzero;"/>
                </g>
                <g transform="matrix(1,0,0,1,3878.22,1462.56)">
                    <path d="M0,-0.678L-0.243,-1.724L-0.261,-1.723L-0.018,-0.678L1.47,1.046L1.488,1.046L0,-0.678Z" style="fill:rgb(142,142,142);fill-rule:nonzero;"/>
                </g>
                <g transform="matrix(1,0,0,1,3879.7,1460.72)">
                    <path d="M0,2.889L1.107,1.744L0.035,0.504L-0.081,0L-1.731,0.119L-1.488,1.165L0,2.889Z" style="fill:rgb(142,142,142);fill-rule:nonzero;"/>
                </g>
                <g transform="matrix(1,0,0,1,3880.85,1460.22)">
                    <path d="M0,1.083L0.825,1.339L0.885,1.358L1.773,1.083L2.422,0.332L2.563,-0.275L1.678,-0.065L0.205,0.286L-0.434,0.438L0.885,0.438L-0.434,0.438L-0.55,0.447L-0.074,0.999L0,1.083Z" style="fill:rgb(142,142,142);fill-rule:nonzero;"/>
                </g>
                <g transform="matrix(1,0,0,1,3885.2,1463.59)">
                    <path d="M0,-4.06L-0.395,-2.366L-1.463,-1.125L-1.428,0L0.042,-1.705L0.049,-1.724L0.589,-4.06L0,-4.06Z" style="fill:rgb(142,142,142);fill-rule:nonzero;"/>
                </g>
                <g transform="matrix(1,0,0,1,3885.2,1459.44)">
                    <path d="M-0.021,0.089L0.448,0.089L0.427,0L0.247,0.025L-0.021,0.089Z" style="fill:rgb(142,142,142);fill-rule:nonzero;"/>
                </g>
                <g transform="matrix(1,0,0,1,3883.7,1458.07)">
                    <path d="M1.061,-0.321L-1.072,-0.321L-0.793,0L1.34,0L1.061,-0.321Z" style="fill:rgb(142,142,142);fill-rule:nonzero;"/>
                </g>
                <g transform="matrix(1,0,0,1,3878.2,1455.44)">
                    <path d="M0,1.726L1.488,0.002L3.521,-0.629L3.532,-0.627L3.543,-0.623L5.555,0.002L5.573,0.022L6.574,1.18L6.602,1.213L7.043,1.726L7.251,2.625L7.487,2.625L7.247,1.591L5.672,-0.232L3.521,-0.899L1.389,-0.237L1.371,-0.232L-0.194,1.583L-0.201,1.591L-0.441,2.625L-0.208,2.625L0,1.726Z" style="fill:rgb(142,142,142);fill-rule:nonzero;"/>
                </g>
                <g transform="matrix(0.955073,0.29637,0.29637,-0.955073,3879.87,1463.16)">
                    <path d="M-0.024,-0.473L2.099,-0.473L3.02,0.161L2.016,0.16L-0.024,-0.473Z" style="fill:rgb(142,142,142);fill-rule:nonzero;"/>
                </g>
                <g transform="matrix(1,0,0,1,3885.45,1456.25)">
                    <path d="M0,0.789L0.24,1.823L0.258,1.823L0.018,0.789L-1.558,-1.034L-1.575,-1.034L0,0.789Z" style="fill:rgb(142,142,142);fill-rule:nonzero;"/>
                </g>
                <g transform="matrix(1,0,0,1,3881.74,1461.3)">
                    <path d="M0,0.275L1.153,0.275L0.888,0L0,0.275Z" style="fill:rgb(142,142,142);fill-rule:nonzero;"/>
                </g>
                <g transform="matrix(1,0,0,1,3884.81,1459.53)">
                    <path d="M0,1.694L0.395,0L0.374,0L-1.389,0.42L-1.53,1.026L0,1.694Z" style="fill:rgb(142,142,142);fill-rule:nonzero;"/>
                </g>
                <g transform="matrix(1,0,0,1,3881.88,1461.58)">
                    <path d="M0,0.882L0.737,0L0.028,0L0,0.882Z" style="fill:rgb(142,142,142);fill-rule:nonzero;"/>
                </g>
                <g transform="matrix(1,0,0,1,3882.63,1461.71)">
                    <path d="M0,-0.406L0.264,-0.131L0.271,-0.124L0.649,0.271L1.11,0.751L2.178,-0.49L0.649,-1.157L0,-0.406Z" style="fill:rgb(142,142,142);fill-rule:nonzero;"/>
                </g>
                <g transform="matrix(1,0,0,1,3880.81,1460.67)">
                    <path d="M0,1.793L-0.032,0.553L-0.508,0L-0.698,0.014L-1.072,0.553L0,1.793Z" style="fill:rgb(142,142,142);fill-rule:nonzero;"/>
                </g>
                <g transform="matrix(1,0,0,1,3881.74,1463.59)">
                    <path d="M0,-2.007L-0.06,-2.026L-0.927,-1.125L-2.034,0.019L0.102,0.019L0.102,0L0.141,-1.125L0.169,-2.007L0,-2.007Z" style="fill:rgb(142,142,142);fill-rule:nonzero;"/>
                </g>
                <g transform="matrix(-0.661031,-0.750359,-0.750359,0.661031,3881.07,1462.48)">
                    <path d="M1.026,-0.609L1.138,-0.609L0.186,0.187L0.289,-1.059L1.026,-0.609Z" style="fill:rgb(142,142,142);fill-rule:nonzero;"/>
                </g>
                <g transform="matrix(1,0,0,1,3880.11,1461.22)">
                    <path d="M0,-0.539L-0.49,-0.504L-0.374,0L0,-0.539Z" style="fill:rgb(142,142,142);fill-rule:nonzero;"/>
                </g>
                <g transform="matrix(1,0,0,1,3885.45,1461.35)">
                    <path d="M0,0.667L-1.575,2.49L-1.558,2.49L0.018,0.667L0.592,-1.823L0.575,-1.823L0,0.667Z" style="fill:rgb(142,142,142);fill-rule:nonzero;"/>
                </g>
                <g transform="matrix(1,0,0,1,3883.7,1456.62)">
                    <path d="M0,1.124L1.061,1.124L1.103,0.034L1.075,0L0,1.112L0,1.124Z" style="fill:rgb(142,142,142);fill-rule:nonzero;"/>
                </g>
                <g transform="matrix(1,0,0,1,3880.81,1458.05)">
                    <path d="M0,-1.391L0,-1.411L-0.458,-0.878L-0.666,0.02L-0.648,0.02L-0.441,-0.878L0,-1.391Z" style="fill:rgb(142,142,142);fill-rule:nonzero;"/>
                </g>
                <g transform="matrix(1,0,0,1,3879.7,1458.07)">
                    <path d="M0,-2.623L-0.018,-2.623L-1.505,-0.899L-1.713,0L-1.696,0L-1.488,-0.899L0,-2.623Z" style="fill:rgb(142,142,142);fill-rule:nonzero;"/>
                </g>
                <g transform="matrix(1,0,0,1,3880.81,1456.88)">
                    <path d="M0,-0.239L0,-0.286L-1.107,-1.431L-2.594,0.293L-2.802,1.192L-0.666,1.192L-0.458,0.293L0,-0.239Z" style="fill:rgb(142,142,142);fill-rule:nonzero;"/>
                </g>
                <g transform="matrix(1,0,0,1,3885.45,1461.87)">
                    <path d="M0,0.141L0.575,-2.349L0.543,-2.49L0.317,-2.458L0.342,-2.349L-0.197,-0.013L-0.204,0.006L-1.674,1.71L-1.692,1.73L-1.762,1.753L-1.773,1.756L-2.023,1.833L-2.64,2.024L-2.647,2.027L-3.715,2.359L-3.726,2.361L-5.76,1.73L-7.247,0.006L-7.49,-1.039L-7.72,-1.022L-7.448,0.141L-7.441,0.149L-5.876,1.964L-5.858,1.969L-3.726,2.631L-1.575,1.964L0,0.141Z" style="fill:rgb(142,142,142);fill-rule:nonzero;"/>
                </g>
                <g transform="matrix(-0.372349,0.928093,0.928093,0.372349,3883.66,1456.81)">
                    <path d="M-0.111,-1.536L1.328,-1.536L1.252,-0.608L-0.235,-0.009L-0.111,-1.536Z" style="fill:rgb(142,142,142);fill-rule:nonzero;"/>
                </g>
                <g transform="matrix(1,0,0,1,3880.81,1457.29)">
                    <path d="M0,-0.703L0,-0.636L0.042,0.454L0.927,0.179L1.463,-1.157L0,-0.703Z" style="fill:rgb(142,142,142);fill-rule:nonzero;"/>
                </g>
                <g transform="matrix(1,0,0,1,3883.7,1456.6)">
                    <path d="M0,1.133L0.039,-0.012L-1.072,1.145L-0.01,1.145L-0.007,1.142L0,1.133Z" style="fill:rgb(142,142,142);fill-rule:nonzero;"/>
                </g>
                <g transform="matrix(0.695044,-0.718967,-0.718967,-0.695044,3884.68,1457.78)">
                    <path d="M-0.652,0.733L0.895,0.733L1.031,2.257L0.198,1.5L-0.652,0.733Z" style="fill:rgb(142,142,142);fill-rule:nonzero;"/>
                </g>
                <g transform="matrix(1,0,0,1,3880.81,1454.82)">
                    <path d="M0,1.773L1.463,1.319L2.926,1.773L2.961,0.648L2.943,0.628L0.931,0.003L0.92,0L-1.107,0.628L0,1.773Z" style="fill:rgb(142,142,142);fill-rule:nonzero;"/>
                </g>
                <g transform="matrix(1,0,0,1,3810.7,1458.91)">
                    <path d="M0,-1.133L-0.13,-0.566L0,0L0.356,0.415L0.846,0.567L1.336,0.415L1.692,0L1.826,-0.566L1.692,-1.133L1.336,-1.548L0.846,-1.7L0.356,-1.548L0,-1.133Z" style="fill:rgb(142,142,142);fill-rule:nonzero;"/>
                </g>
                <g transform="matrix(1,0,0,1,3812.39,1458.91)">
                    <path d="M0,-1.133L0.134,-0.566L0,0L-0.356,0.415L-0.846,0.567L-0.497,0.567L-0.024,0.415L0.303,0L0.402,-0.566L0.243,-1.133L-0.127,-1.548L-0.617,-1.7L-0.846,-1.7L-0.356,-1.548L0,-1.133Z" style="fill:rgb(142,142,142);fill-rule:nonzero;"/>
                </g>
            </g>
        </g>
    </g>
</svg>
