<?xml version="1.0" encoding="UTF-8" standalone="no"?>
<!DOCTYPE svg PUBLIC "-//W3C//DTD SVG 1.1//EN" "http://www.w3.org/Graphics/SVG/1.1/DTD/svg11.dtd">
<svg width="100%" height="100%" viewBox="0 0 550 800" version="1.1" xmlns="http://www.w3.org/2000/svg" xmlns:xlink="http://www.w3.org/1999/xlink" xml:space="preserve" xmlns:serif="http://www.serif.com/" style="fill-rule:evenodd;clip-rule:evenodd;stroke-linejoin:round;stroke-miterlimit:2;">
    <g id="apartments-narrow-right" transform="matrix(1.27,0,0,1.27,5.2114,7.52)">
        <g transform="matrix(1,0,0,1,-2186.19,-296.875)">
            <path d="M2186.7,671.436L2216.66,672.607L2215.65,585.306L2186.7,671.436Z" style="fill:rgb(66,76,160);fill-rule:nonzero;"/>
        </g>
        <g transform="matrix(1,0,0,1,-2183.66,-296.875)">
            <path d="M2212.63,908.875L2612.63,908.875L2612.6,342.875L2212.63,342.875L2212.63,908.875Z" style="fill:rgb(242,242,241);fill-rule:nonzero;"/>
        </g>
        <g transform="matrix(1,0,0,1,-2183.66,-296.875)">
            <path d="M2269.25,634.479L2268.99,864.434L2512.88,864.434L2512.72,634.456L2269.25,634.479Z" style="fill:rgb(142,142,142);fill-rule:nonzero;"/>
        </g>
        <g transform="matrix(1,0,0,1,-2183.66,-296.875)">
            <path d="M2390.29,639.139L2389.81,857.187L2506.07,857.187L2505.98,638.826L2390.29,639.139Z" style="fill:rgb(153,213,233);fill-rule:nonzero;"/>
        </g>
        <g transform="matrix(1,0,0,1,-2183.66,-296.875)">
            <path d="M2275.76,639.141L2275.76,857.188L2386.12,857.188L2386.12,638.826L2275.76,639.141Z" style="fill:rgb(153,213,233);fill-rule:nonzero;"/>
        </g>
        <g transform="matrix(1,0,0,1,-2183.66,-296.875)">
            <path d="M2230.49,673.949L2549.27,673.947L2537.22,584.915L2242.3,584.9L2230.49,673.949Z" style="fill:rgb(66,76,160);fill-rule:nonzero;"/>
        </g>
        <g transform="matrix(1,0,0,1,-2183.66,-296.875)">
            <path d="M2436.94,540.517L2361.01,540.673L2360.96,389.063L2437.04,388.99L2436.94,540.517Z" style="fill:rgb(142,142,142);fill-rule:nonzero;"/>
        </g>
        <g transform="matrix(1,0,0,1,-2183.66,-296.875)">
            <path d="M2431.04,534.745L2366.76,534.917L2366.76,468.557L2431.04,468.5L2431.04,534.745Z" style="fill:rgb(153,213,233);fill-rule:nonzero;"/>
        </g>
        <g transform="matrix(1,0,0,1,-2183.66,-296.875)">
            <path d="M2431.04,462.704L2366.72,462.648L2366.76,394.879L2431.07,395L2431.04,462.704Z" style="fill:rgb(153,213,233);fill-rule:nonzero;"/>
        </g>
        <g transform="matrix(1,0,0,1,-2183.66,-296.875)">
            <path d="M2537.65,468.385L2483.69,468.451L2483.66,404.806L2537.72,404.774L2537.65,468.385Z" style="fill:rgb(142,142,142);fill-rule:nonzero;"/>
        </g>
        <g transform="matrix(1,0,0,1,-2183.66,-296.875)">
            <path d="M2531.72,462.418L2489.7,462.551L2489.7,411.373L2531.72,411.328L2531.72,462.418Z" style="fill:rgb(153,213,233);fill-rule:nonzero;"/>
        </g>
        <g transform="matrix(1,0,0,1,-2183.66,-296.875)">
            <path d="M2345.21,540.517L2269.28,540.673L2269.23,389.063L2345.31,388.99L2345.21,540.517Z" style="fill:rgb(142,142,142);fill-rule:nonzero;"/>
        </g>
        <g transform="matrix(1,0,0,1,-2183.66,-296.875)">
            <path d="M2339.3,534.745L2275.02,534.917L2275.02,468.557L2339.3,468.5L2339.3,534.745Z" style="fill:rgb(153,213,233);fill-rule:nonzero;"/>
        </g>
        <g transform="matrix(1,0,0,1,-2183.66,-296.875)">
            <path d="M2339.3,462.704L2274.98,462.648L2275.02,394.859L2339.34,394.863L2339.3,462.704Z" style="fill:rgb(153,213,233);fill-rule:nonzero;"/>
        </g>
        <g transform="matrix(1,0,0,1,-2183.66,-296.875)">
            <rect x="2366.49" y="462.692" width="65.172" height="5.653" style="fill:rgb(142,142,142);fill-rule:nonzero;"/>
        </g>
        <g transform="matrix(1,0,0,1,-2183.66,-296.875)">
            <rect x="2386.14" y="673.938" width="7.436" height="186.321" style="fill:rgb(142,142,142);fill-rule:nonzero;"/>
        </g>
        <g transform="matrix(1,0,0,1,-2183.66,-296.875)">
            <rect x="2273.28" y="462.661" width="68.914" height="5.905" style="fill:rgb(142,142,142);fill-rule:nonzero;"/>
        </g>
        <g transform="matrix(1,0,0,1,-2186.34,-298.875)">
            <path d="M2215.31,344.875L2210.89,335.437L2615.31,335.459L2615.31,344.875L2215.31,344.875Z" style="fill:rgb(221,221,221);fill-rule:nonzero;"/>
        </g>
        <g transform="matrix(1,0,0,1,-2186.34,-298.875)">
            <path d="M2210.91,335.44L2206.71,321.96L2206.73,310.563L2213.48,310.563L2213.48,321.96L2615.31,321.961L2615.31,335.46L2210.91,335.44Z" style="fill:rgb(242,242,241);fill-rule:nonzero;"/>
        </g>
        <g transform="matrix(1.00038,9.31085e-20,9.31085e-20,1,-2184.65,-296.875)">
            <rect x="2212.78" y="908.875" width="399.848" height="12" style="fill:rgb(85,88,90);fill-rule:nonzero;"/>
        </g>
    </g>
</svg>
