<?xml version="1.0" encoding="UTF-8" standalone="no"?>
<!DOCTYPE svg PUBLIC "-//W3C//DTD SVG 1.1//EN" "http://www.w3.org/Graphics/SVG/1.1/DTD/svg11.dtd">
<svg width="100%" height="100%" viewBox="0 0 980 800" version="1.1" xmlns="http://www.w3.org/2000/svg" xmlns:xlink="http://www.w3.org/1999/xlink" xml:space="preserve" xmlns:serif="http://www.serif.com/" style="fill-rule:evenodd;clip-rule:evenodd;stroke-linejoin:round;stroke-miterlimit:2;">
    <g id="apartments-wide-left" transform="matrix(1.27,0,0,1.27,0,38)">
        <g transform="matrix(1,0,0,1,1.9815,-320.875)">
            <path d="M725.216,673.209L752.419,672.146L726.02,585.571L725.216,673.209Z" style="fill:rgb(66,76,160);fill-rule:nonzero;"/>
        </g>
        <g transform="matrix(1,0,0,1,-0.6273,-320.875)">
            <path d="M0.627,342.875L0.627,908.856L728.617,908.875L728.627,342.875L0.627,342.875Z" style="fill:rgb(242,211,173);fill-rule:nonzero;"/>
        </g>
        <g transform="matrix(1,0,0,1,0,-320.875)">
            <path d="M456.154,868.391L677.594,868.391L677.355,630.217L456.299,630.194L456.154,868.391Z" style="fill:rgb(246,241,225);fill-rule:nonzero;"/>
        </g>
        <g transform="matrix(1,0,0,1,0,-320.875)">
            <path d="M462.342,861.436L564.442,861.436L564.006,634.068L462.426,633.784L462.342,861.436Z" style="fill:rgb(153,213,233);fill-rule:nonzero;"/>
        </g>
        <g transform="matrix(1,0,0,1,0,-320.875)">
            <path d="M571.038,861.319L671.241,861.319L671.241,633.951L571.038,633.667L571.038,861.319Z" style="fill:rgb(153,213,233);fill-rule:nonzero;"/>
        </g>
        <g transform="matrix(1,0,0,1,0,-320.875)">
            <path d="M677.425,633.975L677.425,662.437L705.905,633.952L677.425,633.975Z" style="fill:rgb(224,206,168);fill-rule:nonzero;"/>
        </g>
        <g transform="matrix(1.00086,0,0,1,-0.631445,-322.875)">
            <path d="M0.631,330.403L0.631,339.575L726.486,339.575L730.795,330.193L0.631,330.403Z" style="fill:rgb(205,152,99);fill-rule:nonzero;"/>
        </g>
        <g transform="matrix(1,0,0,1,0,-322.875)">
            <path d="M728.656,305.492L728.669,316.84L0,315.429L0,330.637L730.811,330.427L735.283,316.845L735.283,305.492L728.656,305.492Z" style="fill:rgb(242,242,241);fill-rule:nonzero;"/>
        </g>
        <g transform="matrix(1,0,0,1,0,-320.875)">
            <path d="M433.666,473.564L482.658,473.623L482.691,415.838L433.6,415.808L433.666,473.564Z" style="fill:rgb(246,241,225);fill-rule:nonzero;"/>
        </g>
        <g transform="matrix(1,0,0,1,0,-320.875)">
            <path d="M439.051,468.146L477.202,468.266L477.202,421.8L439.051,421.762L439.051,468.146Z" style="fill:rgb(153,213,233);fill-rule:nonzero;"/>
        </g>
        <g transform="matrix(1,0,0,1,0,-320.875)">
            <path d="M598.291,401.539L535.02,401.481L535.112,539.055L604.047,539.195L604.047,539.066L667.318,539.195L667.363,401.545L598.291,401.481L598.291,401.539Z" style="fill:rgb(246,241,225);fill-rule:nonzero;"/>
        </g>
        <g transform="matrix(1,0,0,1,0,-320.875)">
            <path d="M603.957,533.813L662.105,533.969L662.105,473.721L603.74,473.668L603.957,533.813Z" style="fill:rgb(153,213,233);fill-rule:nonzero;"/>
        </g>
        <g transform="matrix(1,0,0,1,0,-320.875)">
            <path d="M603.711,407.465L603.733,451.301L603.74,468.409L662.139,468.352L662.105,406.827L603.711,407.465Z" style="fill:rgb(153,213,233);fill-rule:nonzero;"/>
        </g>
        <g transform="matrix(1,0,0,1,0,-320.875)">
            <path d="M540.472,533.813L598.375,533.969L598.835,473.721L540.472,473.668L540.472,533.813Z" style="fill:rgb(153,213,233);fill-rule:nonzero;"/>
        </g>
        <g transform="matrix(1,0,0,1,0,-320.875)">
            <path d="M540.444,407.465L540.472,468.407L598.868,468.352L598.859,451.47L598.835,406.827L540.444,407.465Z" style="fill:rgb(153,213,233);fill-rule:nonzero;"/>
        </g>
        <g transform="matrix(1,0,0,1,0,-320.875)">
            <rect x="539.908" y="468.392" width="59.168" height="5.135" style="fill:rgb(246,241,225);fill-rule:nonzero;"/>
        </g>
        <g transform="matrix(1,0,0,1,0,-320.875)">
            <path d="M200.962,539.055L132.026,539.196L131.979,401.545L201.054,401.481L200.962,539.055Z" style="fill:rgb(246,241,225);fill-rule:nonzero;"/>
        </g>
        <g transform="matrix(1,0,0,1,0,-320.875)">
            <path d="M195.603,533.813L137.24,533.968L137.24,473.721L195.603,473.668L195.603,533.813Z" style="fill:rgb(153,213,233);fill-rule:nonzero;"/>
        </g>
        <g transform="matrix(1,0,0,1,0,-320.875)">
            <path d="M195.603,468.406L137.207,468.351L137.24,406.826L195.63,407.465L195.603,468.406Z" style="fill:rgb(153,213,233);fill-rule:nonzero;"/>
        </g>
        <g transform="matrix(1,0,0,1,0,-320.875)">
            <path d="M302.408,473.565L253.416,473.624L253.384,415.837L302.473,415.809L302.408,473.565Z" style="fill:rgb(246,241,225);fill-rule:nonzero;"/>
        </g>
        <g transform="matrix(1,0,0,1,0,-320.875)">
            <path d="M297.023,468.147L258.873,468.266L258.873,421.801L297.023,421.762L297.023,468.147Z" style="fill:rgb(153,213,233);fill-rule:nonzero;"/>
        </g>
        <g transform="matrix(1,0,0,1,0,-320.875)">
            <path d="M137.692,539.055L68.755,539.196L68.711,401.545L137.783,401.481L137.692,539.055Z" style="fill:rgb(246,241,225);fill-rule:nonzero;"/>
        </g>
        <g transform="matrix(1,0,0,1,0,-320.875)">
            <path d="M132.334,533.813L73.97,533.968L73.97,473.721L132.334,473.668L132.334,533.813Z" style="fill:rgb(153,213,233);fill-rule:nonzero;"/>
        </g>
        <g transform="matrix(1,0,0,1,0,-320.875)">
            <path d="M132.334,468.408L73.936,468.351L73.97,406.826L132.363,407.465L132.334,468.408Z" style="fill:rgb(153,213,233);fill-rule:nonzero;"/>
        </g>
        <g transform="matrix(1,0,0,1,0,-320.875)">
            <rect x="136.998" y="468.393" width="59.168" height="5.135" style="fill:rgb(246,241,225);fill-rule:nonzero;"/>
        </g>
        <g transform="matrix(1,0,0,1,0,-320.875)">
            <path d="M244.953,406.887L248.701,415.879L307.701,415.879L311.449,406.887L244.953,406.887Z" style="fill:rgb(205,152,99);fill-rule:nonzero;"/>
        </g>
        <g transform="matrix(1,0,0,1,0,-320.875)">
            <path d="M209.569,392.553L205.821,401.545L63.373,401.545L59.625,392.553L209.569,392.553Z" style="fill:rgb(205,152,99);fill-rule:nonzero;"/>
        </g>
        <g transform="matrix(1,0,0,1,0,-320.875)">
            <path d="M207.84,690.032L204.092,699.024L102.09,699.024L98.342,690.032L207.84,690.032Z" style="fill:rgb(205,152,99);fill-rule:nonzero;"/>
        </g>
        <g transform="matrix(1,0,0,1,0,-320.875)">
            <rect x="564.124" y="633.364" width="6.833" height="228.662" style="fill:rgb(246,241,225);fill-rule:nonzero;"/>
        </g>
        <g transform="matrix(1,0,0,1,0,-320.875)">
            <path d="M491.121,406.887L487.373,415.879L428.373,415.879L424.625,406.887L491.121,406.887Z" style="fill:rgb(205,152,99);fill-rule:nonzero;"/>
        </g>
        <g transform="matrix(1,0,0,1,0,-320.875)">
            <path d="M526.505,392.553L530.253,401.545L672.701,401.545L676.449,392.553L526.505,392.553Z" style="fill:rgb(205,152,99);fill-rule:nonzero;"/>
        </g>
        <g transform="matrix(1,0,0,1,0,-322.875)">
            <path d="M0.686,330.474L0.622,339.574L11.998,339.552L10.488,330.443L0.686,330.474Z" style="fill:rgb(246,241,225);fill-rule:nonzero;"/>
        </g>
        <g transform="matrix(1,0,0,1,0,-322.875)">
            <path d="M52.31,330.474L50.919,339.574L63.623,339.553L62.112,330.443L52.31,330.474Z" style="fill:rgb(246,241,225);fill-rule:nonzero;"/>
        </g>
        <g transform="matrix(1,0,0,1,0,-322.875)">
            <path d="M103.936,330.474L102.545,339.574L115.249,339.553L113.738,330.443L103.936,330.474Z" style="fill:rgb(246,241,225);fill-rule:nonzero;"/>
        </g>
        <g transform="matrix(1,0,0,1,0,-322.875)">
            <path d="M155.56,330.474L154.169,339.574L166.873,339.553L165.362,330.443L155.56,330.474Z" style="fill:rgb(246,241,225);fill-rule:nonzero;"/>
        </g>
        <g transform="matrix(1,0,0,1,0,-322.875)">
            <path d="M206.812,330.474L205.421,339.574L218.124,339.553L216.613,330.443L206.812,330.474Z" style="fill:rgb(246,241,225);fill-rule:nonzero;"/>
        </g>
        <g transform="matrix(1,0,0,1,0,-322.875)">
            <path d="M258.435,330.474L257.044,339.574L269.748,339.553L268.237,330.443L258.435,330.474Z" style="fill:rgb(246,241,225);fill-rule:nonzero;"/>
        </g>
        <g transform="matrix(1,0,0,1,0,-322.875)">
            <path d="M309.936,330.474L308.545,339.574L321.249,339.553L319.738,330.443L309.936,330.474Z" style="fill:rgb(246,241,225);fill-rule:nonzero;"/>
        </g>
        <g transform="matrix(1,0,0,1,0,-322.875)">
            <path d="M361.561,330.474L360.169,339.574L372.873,339.553L371.363,330.443L361.561,330.474Z" style="fill:rgb(246,241,225);fill-rule:nonzero;"/>
        </g>
        <g transform="matrix(1,0,0,1,0,-322.875)">
            <path d="M412.311,330.474L410.92,339.574L423.624,339.553L422.114,330.443L412.311,330.474Z" style="fill:rgb(246,241,225);fill-rule:nonzero;"/>
        </g>
        <g transform="matrix(1,0,0,1,0,-322.875)">
            <path d="M463.935,330.474L462.544,339.574L475.248,339.553L473.737,330.443L463.935,330.474Z" style="fill:rgb(246,241,225);fill-rule:nonzero;"/>
        </g>
        <g transform="matrix(1,0,0,1,0,-322.875)">
            <path d="M514.936,330.474L513.545,339.574L526.249,339.553L524.738,330.443L514.936,330.474Z" style="fill:rgb(246,241,225);fill-rule:nonzero;"/>
        </g>
        <g transform="matrix(1,0,0,1,0,-322.875)">
            <path d="M566.56,330.474L565.17,339.574L577.873,339.553L576.363,330.443L566.56,330.474Z" style="fill:rgb(246,241,225);fill-rule:nonzero;"/>
        </g>
        <g transform="matrix(1,0,0,1,0,-322.875)">
            <path d="M618.061,330.474L616.67,339.574L629.374,339.553L627.863,330.443L618.061,330.474Z" style="fill:rgb(246,241,225);fill-rule:nonzero;"/>
        </g>
        <g transform="matrix(1,0,0,1,0,-322.875)">
            <path d="M669.686,330.474L668.295,339.574L680.999,339.553L679.488,330.443L669.686,330.474Z" style="fill:rgb(246,241,225);fill-rule:nonzero;"/>
        </g>
        <g transform="matrix(1,0,0,1,0,-322.875)">
            <path d="M720.603,330.474L719.212,339.574L732.29,339.553L730.78,330.443L720.603,330.474Z" style="fill:rgb(246,241,225);fill-rule:nonzero;"/>
        </g>
        <g transform="matrix(1,0,0,1,0,-322.875)">
            <path d="M0,344.844L733.87,344.875L733.87,339.594L0,339.575L0,344.844Z" style="fill:rgb(205,152,99);fill-rule:nonzero;"/>
        </g>
        <g transform="matrix(1,0,0,1,0,-320.875)">
            <path d="M0,584.875L0.652,674.004L723.663,674.004L712.823,584.875L0,584.875Z" style="fill:rgb(66,76,160);fill-rule:nonzero;"/>
        </g>
        <g transform="matrix(1,0,0,1,0,-322.875)">
            <path d="M63.501,330.156L66.628,339.558L47.937,339.594L50.98,330.115L63.501,330.156Z" style="fill:rgb(246,241,225);fill-rule:nonzero;"/>
        </g>
        <g transform="matrix(1,0,0,1,0,-322.875)">
            <path d="M114.876,330.156L118.003,339.558L99.312,339.594L102.355,330.115L114.876,330.156Z" style="fill:rgb(246,241,225);fill-rule:nonzero;"/>
        </g>
        <g transform="matrix(1,0,0,1,0,-322.875)">
            <path d="M166.751,330.156L169.878,339.558L151.187,339.594L154.23,330.115L166.751,330.156Z" style="fill:rgb(246,241,225);fill-rule:nonzero;"/>
        </g>
        <g transform="matrix(1,0,0,1,0,-322.875)">
            <path d="M217.876,330.156L221.003,339.558L202.312,339.594L205.355,330.115L217.876,330.156Z" style="fill:rgb(246,241,225);fill-rule:nonzero;"/>
        </g>
        <g transform="matrix(1,0,0,1,0,-322.875)">
            <path d="M269.501,330.156L272.628,339.558L253.937,339.594L256.98,330.115L269.501,330.156Z" style="fill:rgb(246,241,225);fill-rule:nonzero;"/>
        </g>
        <g transform="matrix(1,0,0,1,0,-322.875)">
            <path d="M320.876,330.156L324.003,339.558L305.312,339.594L308.355,330.115L320.876,330.156Z" style="fill:rgb(246,241,225);fill-rule:nonzero;"/>
        </g>
        <g transform="matrix(1,0,0,1,0,-322.875)">
            <path d="M372.626,330.156L375.753,339.558L357.062,339.594L360.105,330.115L372.626,330.156Z" style="fill:rgb(246,241,225);fill-rule:nonzero;"/>
        </g>
        <g transform="matrix(1,0,0,1,0,-322.875)">
            <path d="M423.376,330.156L426.503,339.558L407.812,339.594L410.855,330.115L423.376,330.156Z" style="fill:rgb(246,241,225);fill-rule:nonzero;"/>
        </g>
        <g transform="matrix(1,0,0,1,0,-322.875)">
            <path d="M475.126,330.156L478.253,339.558L459.562,339.594L462.605,330.115L475.126,330.156Z" style="fill:rgb(246,241,225);fill-rule:nonzero;"/>
        </g>
        <g transform="matrix(1,0,0,1,0,-322.875)">
            <path d="M526.001,330.156L529.128,339.558L510.437,339.594L513.48,330.115L526.001,330.156Z" style="fill:rgb(246,241,225);fill-rule:nonzero;"/>
        </g>
        <g transform="matrix(1,0,0,1,0,-322.875)">
            <path d="M577.626,330.156L580.753,339.558L562.062,339.594L565.105,330.115L577.626,330.156Z" style="fill:rgb(246,241,225);fill-rule:nonzero;"/>
        </g>
        <g transform="matrix(1,0,0,1,0,-322.875)">
            <path d="M629.126,330.156L632.253,339.558L613.562,339.594L616.605,330.115L629.126,330.156Z" style="fill:rgb(246,241,225);fill-rule:nonzero;"/>
        </g>
        <g transform="matrix(1,0,0,1,0,-322.875)">
            <path d="M730.751,330.156L733.878,339.558L715.187,339.594L718.23,330.115L730.751,330.156Z" style="fill:rgb(246,241,225);fill-rule:nonzero;"/>
        </g>
        <g transform="matrix(1,0,0,1,0,-322.875)">
            <path d="M680.751,330.156L683.878,339.558L665.187,339.594L668.23,330.115L680.751,330.156Z" style="fill:rgb(246,241,225);fill-rule:nonzero;"/>
        </g>
        <g transform="matrix(1,0,0,1,0,-322.875)">
            <path d="M0,339.586L14.904,339.558L11.778,330.156L0,330.12L0,339.586Z" style="fill:rgb(246,241,225);fill-rule:nonzero;"/>
        </g>
        <g transform="matrix(1,0,0,1,0,-320.875)">
            <rect x="132.373" y="462.135" width="5.417" height="54.25" style="fill:rgb(246,241,225);fill-rule:nonzero;"/>
        </g>
        <g transform="matrix(1,0,0,1,0,-320.875)">
            <rect x="73.789" y="468.301" width="122.209" height="5.416" style="fill:rgb(246,241,225);fill-rule:nonzero;"/>
        </g>
        <g transform="matrix(1,0,0,1,0,-320.875)">
            <path d="M204.239,776.961L203.367,780.758L193.905,790.209L87.887,790.209L110.261,767.834" style="fill:rgb(224,206,168);fill-rule:nonzero;"/>
        </g>
        <g transform="matrix(1,0,0,1,0,-320.875)">
            <path d="M202.636,539.221L66.426,539.221L60.121,522.219L209.125,522.219L202.636,539.221Z" style="fill:rgb(205,152,99);fill-rule:nonzero;"/>
        </g>
        <g transform="matrix(1,0,0,1,0,-320.875)">
            <rect x="598.665" y="406.303" width="5.417" height="110" style="fill:rgb(246,241,225);fill-rule:nonzero;"/>
        </g>
        <g transform="matrix(1,0,0,1,0,-320.875)">
            <rect x="540.081" y="468.219" width="122.209" height="5.416" style="fill:rgb(246,241,225);fill-rule:nonzero;"/>
        </g>
        <g transform="matrix(1,0,0,1,0,-320.875)">
            <path d="M533.61,539.221L669.82,539.221L676.125,522.219L527.121,522.219L533.61,539.221Z" style="fill:rgb(205,152,99);fill-rule:nonzero;"/>
        </g>
        <g transform="matrix(1,0,0,1,-0.594,-320.875)">
            <path d="M0.594,920.875L728.614,920.875L728.594,908.875L0.594,908.875L0.594,920.875Z" style="fill:rgb(142,142,142);fill-rule:nonzero;"/>
        </g>
        <g transform="matrix(1,0,0,1,0,-320.875)">
            <path d="M198.006,769.716L108.172,769.774L108.107,699.028L198.137,698.996L198.006,769.716Z" style="fill:rgb(246,241,225);fill-rule:nonzero;"/>
        </g>
        <g transform="matrix(1,0,0,1,0,-320.875)">
            <path d="M192.325,764.297L113.895,764.416L113.895,704.787L192.325,704.746L192.325,764.297Z" style="fill:rgb(153,213,233);fill-rule:nonzero;"/>
        </g>
        <g transform="matrix(1,0,0,1,0,-320.875)">
            <path d="M203.335,780.78L102.776,780.78L98.122,763.778L208.126,763.778L203.335,780.78Z" style="fill:rgb(205,152,99);fill-rule:nonzero;"/>
        </g>
    </g>
</svg>
