<?xml version="1.0" encoding="UTF-8" standalone="no"?>
<!DOCTYPE svg PUBLIC "-//W3C//DTD SVG 1.1//EN" "http://www.w3.org/Graphics/SVG/1.1/DTD/svg11.dtd">
<svg width="100%" height="100%" viewBox="0 0 137 289" version="1.1" xmlns="http://www.w3.org/2000/svg" xmlns:xlink="http://www.w3.org/1999/xlink" xml:space="preserve" xmlns:serif="http://www.serif.com/" style="fill-rule:evenodd;clip-rule:evenodd;stroke-linejoin:bevel;stroke-miterlimit:10;">
    <g id="Artboard1" transform="matrix(0.792683,0,0,0.93686,23.4016,44.5311)">
        <rect x="-29.522" y="-47.532" width="172.158" height="307.574" style="fill:none;"/>
        <g transform="matrix(1.26154,0,0,1.0674,-404.81,-7837.42)">
            <g id="nyc-wayfinding-pylon-large">
                <g>
                    <g transform="matrix(1,0,0,1,405.448,7361.92)">
                        <path d="M0,0L0.052,0" style="fill:none;fill-rule:nonzero;stroke:black;stroke-width:0.28px;"/>
                    </g>
                    <g transform="matrix(1,0,0,1,405.448,7344.27)">
                        <path d="M0,0L0.052,0" style="fill:none;fill-rule:nonzero;stroke:black;stroke-width:0.28px;"/>
                    </g>
                    <g transform="matrix(1,0,0,1,361.608,7354.12)">
                        <path d="M0,-17.355L-50.136,-17.355L-50.341,-17.227C-50.397,-17.192 -55.954,-13.728 -59.557,-11.427C-59.752,-11.302 -59.966,-11.181 -60.172,-11.063C-60.602,-10.818 -61.046,-10.565 -61.402,-10.244C-61.902,-9.793 -62.156,-9.266 -62.156,-8.677C-62.156,-8.101 -61.864,-7.556 -61.288,-7.059C-60.894,-6.718 -60.416,-6.434 -59.994,-6.184C-59.836,-6.09 -59.686,-6.001 -59.557,-5.919C-55.953,-3.619 -50.396,-0.162 -50.341,-0.127L-50.135,0L0,0L0,-17.355Z" style="fill:white;fill-rule:nonzero;"/>
                    </g>
                    <g transform="matrix(1,0,0,1,360.762,7337.61)">
                        <path d="M0,15.664L-49.048,15.664C-49.048,15.664 -54.615,12.201 -58.257,9.878C-59.086,9.349 -60.465,8.708 -60.465,7.832C-60.465,6.863 -59.265,6.439 -58.256,5.795C-54.615,3.47 -49.048,0 -49.048,0L0,0L0,15.664Z" style="fill:rgb(130,195,65);fill-rule:nonzero;stroke:white;stroke-width:0.13px;stroke-linejoin:miter;"/>
                    </g>
                    <g transform="matrix(1,0,0,1,369.272,7371.78)">
                        <path d="M0,-17.355L0,0L50.135,0L50.341,-0.127C50.396,-0.162 55.953,-3.619 59.557,-5.919C59.686,-6.001 59.836,-6.09 59.994,-6.184C60.416,-6.434 60.894,-6.718 61.288,-7.059C61.864,-7.556 62.156,-8.101 62.156,-8.677C62.156,-9.266 61.902,-9.793 61.402,-10.244C61.046,-10.565 60.602,-10.818 60.172,-11.063C59.966,-11.181 59.752,-11.302 59.557,-11.427C55.954,-13.728 50.397,-17.192 50.341,-17.227L50.136,-17.355L0,-17.355Z" style="fill:white;fill-rule:nonzero;"/>
                    </g>
                    <g transform="matrix(1,0,0,1,370.118,7355.27)">
                        <path d="M0,15.664L49.048,15.664C49.048,15.664 54.615,12.201 58.257,9.878C59.086,9.349 60.465,8.708 60.465,7.832C60.465,6.863 59.265,6.439 58.256,5.795C54.615,3.47 49.048,0 49.048,0L0,0L0,15.664Z" style="fill:rgb(130,195,65);fill-rule:nonzero;stroke:white;stroke-width:0.13px;stroke-linejoin:miter;"/>
                    </g>
                    <g transform="matrix(1,0,0,1,405.448,7361.92)">
                        <path d="M0,0L0.052,0" style="fill:none;fill-rule:nonzero;stroke:black;stroke-width:0.28px;"/>
                    </g>
                    <g transform="matrix(1,0,0,1,369.272,7354.13)">
                        <path d="M0,-17.356L0,0L50.135,0L50.341,-0.128C50.396,-0.163 55.953,-3.62 59.557,-5.92C59.686,-6.002 59.836,-6.091 59.994,-6.185C60.416,-6.435 60.894,-6.719 61.288,-7.06C61.864,-7.557 62.156,-8.102 62.156,-8.678C62.156,-9.267 61.902,-9.794 61.402,-10.245C61.046,-10.566 60.602,-10.819 60.172,-11.064C59.966,-11.182 59.752,-11.303 59.557,-11.428C55.954,-13.729 50.397,-17.193 50.341,-17.228L50.136,-17.356L0,-17.356Z" style="fill:white;fill-rule:nonzero;"/>
                    </g>
                    <g transform="matrix(1,0,0,1,370.118,7337.62)">
                        <path d="M0,15.664L49.048,15.664C49.048,15.664 54.615,12.201 58.257,9.878C59.086,9.349 60.465,8.708 60.465,7.832C60.465,6.863 59.265,6.439 58.256,5.795C54.615,3.47 49.048,0 49.048,0L0,0L0,15.664Z" style="fill:rgb(130,195,65);fill-rule:nonzero;stroke:white;stroke-width:0.13px;stroke-linejoin:miter;"/>
                    </g>
                    <g transform="matrix(1,0,0,1,405.448,7344.27)">
                        <path d="M0,0L0.052,0" style="fill:none;fill-rule:nonzero;stroke:black;stroke-width:0.28px;"/>
                    </g>
                    <g transform="matrix(-1,0,0,1,731.008,6539.9)">
                        <rect x="361.697" y="772.13" width="7.614" height="274.104" style="fill:rgb(85,88,90);"/>
                    </g>
                    <g transform="matrix(0,-1,-1,0,365.504,7306.95)">
                        <path d="M-5.076,-5.076C-7.879,-5.076 -10.152,-2.803 -10.152,0C-10.152,2.803 -7.879,5.076 -5.076,5.076C-2.273,5.076 0,2.803 0,0C0,-2.803 -2.273,-5.076 -5.076,-5.076" style="fill:rgb(85,88,90);fill-rule:nonzero;"/>
                    </g>
                </g>
            </g>
        </g>
    </g>
</svg>
