<?xml version="1.0" encoding="UTF-8" standalone="no"?>
<!DOCTYPE svg PUBLIC "-//W3C//DTD SVG 1.1//EN" "http://www.w3.org/Graphics/SVG/1.1/DTD/svg11.dtd">
<svg width="100%" height="100%" viewBox="0 0 50 280" version="1.1" xmlns="http://www.w3.org/2000/svg" xmlns:xlink="http://www.w3.org/1999/xlink" xml:space="preserve" xmlns:serif="http://www.serif.com/" style="fill-rule:evenodd;clip-rule:evenodd;stroke-linejoin:round;stroke-miterlimit:2;">
    <g transform="matrix(1,0,0,1,-388.916,-7305.12)">
        <g id="nyc-wayfinding-pylon-small">
            <g>
                <g transform="matrix(1,0,0,1,0,6733.47)">
                    <rect x="411.513" y="773.503" width="6.005" height="77.789" style="fill:rgb(85,88,90);"/>
                </g>
                <g transform="matrix(1,0,0,1,0,6733.47)">
                    <rect x="411.514" y="773.502" width="6.004" height="77.79" style="fill:rgb(85,88,90);"/>
                </g>
                <g transform="matrix(1,0,0,1,407.625,7554.18)">
                    <path d="M0,-63.482L12.583,-63.482C15.598,-63.482 18.064,-61.015 18.064,-58.001L18.064,-5.482C18.064,-2.467 15.598,0 12.583,0L0,0C-3.015,0 -5.481,-2.467 -5.481,-5.482L-5.481,-58.001C-5.481,-61.015 -3.015,-63.482 0,-63.482" style="fill:white;fill-rule:nonzero;"/>
                </g>
                <g transform="matrix(1,0,0,1,419.582,7552.8)">
                    <path d="M0,-60.734L-11.331,-60.734C-13.935,-60.734 -16.064,-58.604 -16.064,-56L-16.064,-4.734C-16.064,-2.13 -13.935,0 -11.331,0L0,0C2.604,0 4.733,-2.13 4.733,-4.734L4.733,-56C4.733,-58.604 2.604,-60.734 0,-60.734" style="fill:rgb(85,88,90);"/>
                </g>
                <g transform="matrix(-1,0,0,1,827.832,6705.56)">
                    <rect x="403.517" y="819.605" width="20.798" height="13.493" style="fill:rgb(130,195,65);"/>
                </g>
            </g>
        </g>
    </g>
</svg>
