<?xml version="1.0" encoding="UTF-8" standalone="no"?>
<!DOCTYPE svg PUBLIC "-//W3C//DTD SVG 1.1//EN" "http://www.w3.org/Graphics/SVG/1.1/DTD/svg11.dtd">
<svg width="100%" height="100%" viewBox="0 0 90 260" version="1.1" xmlns="http://www.w3.org/2000/svg" xmlns:xlink="http://www.w3.org/1999/xlink" xml:space="preserve" xmlns:serif="http://www.serif.com/" style="fill-rule:evenodd;clip-rule:evenodd;stroke-miterlimit:10;">
    <g transform="matrix(1,0,0,1,-435.174,-7324.93)">
        <g id="nyc-wayfinding-pylon-medium">
            <g>
                <g transform="matrix(1,0,0,1,451.021,7488.13)">
                    <path d="M0,-95.761C0,-98.373 2.101,-100.511 4.67,-100.511L53.636,-100.511C56.205,-100.511 58.306,-98.373 58.306,-95.761L58.306,6.129L59.661,6.129L59.661,-96.389C59.661,-99.415 57.227,-101.89 54.254,-101.89L4.052,-101.89C1.078,-101.89 -1.355,-99.415 -1.355,-96.389L-1.355,6.129L0,6.129L0,-95.761Z" style="fill:white;fill-rule:nonzero;"/>
                </g>
                <g transform="matrix(1,0,0,1,0,6720.76)">
                    <rect x="451.021" y="773.502" width="5.926" height="90.498" style="fill:rgb(85,88,90);"/>
                </g>
                <g transform="matrix(1,0,0,1,0,6720.76)">
                    <rect x="451.021" y="773.502" width="5.926" height="90.498" style="fill:rgb(85,88,90);"/>
                </g>
                <g transform="matrix(1,0,0,1,0,6720.76)">
                    <rect x="503.401" y="773.502" width="5.926" height="90.498" style="fill:rgb(85,88,90);"/>
                </g>
                <g transform="matrix(1,0,0,1,0,6720.76)">
                    <rect x="503.401" y="773.502" width="5.926" height="90.498" style="fill:rgb(85,88,90);"/>
                </g>
                <g transform="matrix(1,0,0,1,455.073,7494.27)">
                    <path d="M0,61.784L50.202,61.784C53.176,61.784 55.609,59.35 55.609,56.374L55.609,0L54.254,0L54.254,55.756C54.254,58.326 52.153,60.428 49.584,60.428L0.618,60.428C-1.951,60.428 -4.052,58.326 -4.052,55.756L-4.052,0L-5.407,0L-5.407,56.374C-5.407,59.35 -2.974,61.784 0,61.784" style="fill:white;fill-rule:nonzero;"/>
                </g>
                <g transform="matrix(1,0,0,1,451.021,7554.7)">
                    <path d="M0,-60.428L0,-4.671C0,-2.102 2.101,0 4.67,0L53.636,0C56.205,0 58.306,-2.102 58.306,-4.671L58.306,-60.428L0,-60.428Z" style="fill:rgb(85,88,90);fill-rule:nonzero;"/>
                </g>
                <g transform="matrix(0,-1,-1,0,497.381,7536.14)">
                    <circle cx="-6.602" cy="0" r="6.602" style="fill:none;stroke:white;stroke-width:1px;"/>
                </g>
                <g transform="matrix(-1,0,0,1,960.348,6638.09)">
                    <rect x="451.021" y="856.179" width="58.306" height="7.81" style="fill:rgb(130,195,65);"/>
                </g>
                <g transform="matrix(1,0,0,1,504.657,7494.26)">
                    <path d="M0,-106.64L-48.966,-106.64C-51.535,-106.64 -53.636,-104.502 -53.636,-101.89L-53.636,0L4.67,0L4.67,-101.89C4.67,-104.502 2.569,-106.64 0,-106.64" style="fill:white;fill-rule:nonzero;"/>
                </g>
            </g>
        </g>
    </g>
</svg>
